# Blender v2.79 (sub 0) OBJ File: 'stellaris.blend'
# www.blender.org
mtllib test_rocket_barrel_c.mtl
o Cube.008_Cube.007
v -1.409876 -0.415930 1.108522
v -1.409876 0.415930 1.108522
v -1.409876 -0.415930 -1.035424
v -1.409876 0.415930 -1.035424
v -0.578016 -0.415930 1.108522
v -0.578016 0.415930 1.108522
v -0.578016 -0.415930 -1.035424
v -0.578016 0.415930 -1.035424
v -0.668746 -0.000000 -0.173964
v -0.320818 -0.000000 -0.173964
v -0.668746 -0.123011 -0.123011
v -0.320818 -0.123011 -0.123011
v -0.668746 -0.173964 0.000000
v -0.320818 -0.173964 0.000000
v -0.668746 -0.123011 0.123011
v -0.320818 -0.123011 0.123011
v -0.668746 0.000000 0.173964
v -0.320818 -0.000000 0.173964
v -0.668746 0.123011 0.123011
v -0.320818 0.123011 0.123011
v -0.668746 0.173964 -0.000000
v -0.320818 0.173964 -0.000000
v -0.668746 0.123011 -0.123011
v -0.320818 0.123011 -0.123011
v 1.409876 -0.415930 1.108522
v 1.409876 0.415930 1.108522
v 1.409876 -0.415930 -1.035424
v 1.409876 0.415930 -1.035424
v 0.578016 -0.415930 1.108522
v 0.578016 0.415930 1.108522
v 0.578016 -0.415930 -1.035424
v 0.578016 0.415930 -1.035424
v 0.668746 -0.000000 -0.173964
v 0.320818 -0.000000 -0.173964
v 0.668746 -0.123011 -0.123011
v 0.320818 -0.123011 -0.123011
v 0.668746 -0.173964 0.000000
v 0.320818 -0.173964 0.000000
v 0.668746 -0.123011 0.123011
v 0.320818 -0.123011 0.123011
v 0.668746 0.000000 0.173964
v 0.320818 -0.000000 0.173964
v 0.668746 0.123011 0.123011
v 0.320818 0.123011 0.123011
v 0.668746 0.173964 -0.000000
v 0.320818 0.173964 -0.000000
v 0.668746 0.123011 -0.123011
v 0.320818 0.123011 -0.123011
vn -1.0000 0.0000 0.0000
vn 0.0000 0.0000 -1.0000
vn 1.0000 0.0000 0.0000
vn 0.0000 0.0000 1.0000
vn 0.0000 -1.0000 0.0000
vn 0.0000 1.0000 0.0000
vn 0.0000 -0.3827 -0.9239
vn 0.0000 -0.9239 -0.3827
vn 0.0000 -0.9239 0.3827
vn -0.0000 -0.3827 0.9239
vn 0.0000 0.3827 0.9239
vn 0.0000 0.9239 0.3827
vn 0.0000 0.9239 -0.3827
vn -0.0000 0.3827 -0.9239
usemtl None
s off
f 1//1 2//1 4//1 3//1
f 3//2 4//2 8//2 7//2
f 7//3 8//3 6//3 5//3
f 5//4 6//4 2//4 1//4
f 3//5 7//5 5//5 1//5
f 8//6 4//6 2//6 6//6
f 9//7 10//7 12//7 11//7
f 11//8 12//8 14//8 13//8
f 13//9 14//9 16//9 15//9
f 15//10 16//10 18//10 17//10
f 17//11 18//11 20//11 19//11
f 19//12 20//12 22//12 21//12
f 12//3 10//3 24//3 22//3 20//3 18//3 16//3 14//3
f 21//13 22//13 24//13 23//13
f 23//14 24//14 10//14 9//14
f 9//1 11//1 13//1 15//1 17//1 19//1 21//1 23//1
f 25//3 27//3 28//3 26//3
f 27//2 31//2 32//2 28//2
f 31//1 29//1 30//1 32//1
f 29//4 25//4 26//4 30//4
f 27//5 25//5 29//5 31//5
f 32//6 30//6 26//6 28//6
f 33//7 35//7 36//7 34//7
f 35//8 37//8 38//8 36//8
f 37//9 39//9 40//9 38//9
f 39//10 41//10 42//10 40//10
f 41//11 43//11 44//11 42//11
f 43//12 45//12 46//12 44//12
f 36//1 38//1 40//1 42//1 44//1 46//1 48//1 34//1
f 45//13 47//13 48//13 46//13
f 47//14 33//14 34//14 48//14
f 33//3 47//3 45//3 43//3 41//3 39//3 37//3 35//3
