# Blender v2.79 (sub 0) OBJ File: 'TLS.blend'
# www.blender.org
mtllib HE_AC_TLS_c.mtl
o Cube.001_Cube.002
v 0.786783 -0.500000 2.993456
v 0.786783 0.500000 2.993456
v 0.786783 0.058696 -0.446771
v 0.786783 0.500000 -0.446771
v 1.213217 -0.500000 2.993456
v 1.213217 0.500000 2.993456
v 1.213217 0.058696 -0.446771
v 1.213217 0.500000 -0.446771
v 0.786783 -0.204228 4.056959
v 0.786783 0.204228 4.056959
v 1.213217 -0.204228 4.056959
v 1.213217 0.204228 4.056959
v 1.213217 0.204228 3.703222
v 1.213217 -0.204228 3.703222
v 0.786783 0.204228 3.703222
v 0.786783 -0.204228 3.703222
v 0.786783 -0.500000 1.750108
v 0.786783 0.500000 1.750108
v 1.213217 -0.500000 1.750108
v 1.213217 0.500000 1.750108
v 0.786783 0.500000 0.720910
v 1.213217 -0.377196 0.720910
v 0.786783 -0.377196 0.720910
v 1.213217 0.500000 0.720910
v 0.786783 0.500000 -0.131709
v 1.213217 -0.377196 -0.131709
v 0.786783 -0.377196 -0.131709
v 1.213217 0.500000 -0.131709
v 0.238465 -0.007107 1.924361
v 0.238465 0.484408 1.924361
v 0.238465 0.007479 -0.434616
v 0.238465 0.298819 -0.434616
v 1.761535 -0.007107 1.924361
v 1.761535 0.484408 1.924361
v 1.761535 0.007479 -0.434616
v 1.761535 0.298819 -0.434616
v 0.238465 -0.441658 1.742901
v 0.238465 0.484408 1.742901
v 1.761535 -0.441658 1.742901
v 1.761535 0.484408 1.742901
v 0.238465 0.484408 1.385022
v 1.761535 -0.441658 1.385022
v 0.238465 -0.441658 1.385022
v 1.761535 0.484408 1.385022
v 0.238465 0.298819 0.732985
v 1.761535 -0.384824 0.732985
v 0.238465 -0.384824 0.732985
v 1.761535 0.298819 0.732985
v 0.238465 0.298819 -0.152781
v 1.761535 -0.384824 -0.152781
v 0.238465 -0.384824 -0.152781
v 1.761535 0.298819 -0.152781
vn -1.0000 0.0000 0.0000
vn 0.0000 0.0000 -1.0000
vn 1.0000 0.0000 0.0000
vn 0.0000 -0.9231 0.3847
vn 0.0000 -1.0000 0.0000
vn 0.0000 1.0000 0.0000
vn 0.0000 0.9231 0.3847
vn 0.0000 0.0000 1.0000
vn 0.0000 -0.9930 -0.1185
vn -0.0000 -0.5858 -0.8105
vn 0.0000 -0.3853 0.9228
vn 0.0000 -0.9962 -0.0868
vn 0.0000 0.9618 -0.2738
vn 0.0000 -0.5835 -0.8121
usemtl None
s off
f 25//1 3//1 27//1
f 4//2 7//2 3//2
f 20//3 5//3 19//3
f 5//4 16//4 1//4
f 19//5 1//5 17//5
f 18//6 6//6 20//6
f 14//5 9//5 16//5
f 6//3 14//3 5//3
f 16//1 10//1 15//1
f 15//6 12//6 13//6
f 2//7 13//7 6//7
f 1//1 15//1 2//1
f 13//3 11//3 14//3
f 10//8 11//8 12//8
f 21//6 20//6 24//6
f 22//9 17//9 23//9
f 22//3 20//3 19//3
f 2//1 17//1 1//1
f 28//3 22//3 26//3
f 26//5 23//5 27//5
f 25//6 24//6 28//6
f 18//1 23//1 17//1
f 8//6 25//6 28//6
f 3//10 26//10 27//10
f 7//3 28//3 26//3
f 21//1 27//1 23//1
f 49//1 31//1 51//1
f 32//2 35//2 31//2
f 40//3 33//3 39//3
f 34//8 29//8 33//8
f 39//11 29//11 37//11
f 38//6 34//6 40//6
f 41//6 40//6 44//6
f 42//5 37//5 43//5
f 44//3 39//3 42//3
f 29//1 38//1 37//1
f 48//3 42//3 46//3
f 46//12 43//12 47//12
f 45//13 44//13 48//13
f 38//1 43//1 37//1
f 49//6 48//6 52//6
f 50//5 47//5 51//5
f 52//3 46//3 50//3
f 43//1 45//1 47//1
f 35//3 52//3 50//3
f 35//14 51//14 31//14
f 32//6 52//6 36//6
f 45//1 51//1 47//1
f 25//1 4//1 3//1
f 4//2 8//2 7//2
f 20//3 6//3 5//3
f 5//4 14//4 16//4
f 19//5 5//5 1//5
f 18//6 2//6 6//6
f 14//5 11//5 9//5
f 6//3 13//3 14//3
f 16//1 9//1 10//1
f 15//6 10//6 12//6
f 2//7 15//7 13//7
f 1//1 16//1 15//1
f 13//3 12//3 11//3
f 10//8 9//8 11//8
f 21//6 18//6 20//6
f 22//9 19//9 17//9
f 22//3 24//3 20//3
f 2//1 18//1 17//1
f 28//3 24//3 22//3
f 26//5 22//5 23//5
f 25//6 21//6 24//6
f 18//1 21//1 23//1
f 8//6 4//6 25//6
f 3//10 7//10 26//10
f 7//3 8//3 28//3
f 21//1 25//1 27//1
f 49//1 32//1 31//1
f 32//2 36//2 35//2
f 40//3 34//3 33//3
f 34//8 30//8 29//8
f 39//11 33//11 29//11
f 38//6 30//6 34//6
f 41//6 38//6 40//6
f 42//5 39//5 37//5
f 44//3 40//3 39//3
f 29//1 30//1 38//1
f 48//3 44//3 42//3
f 46//12 42//12 43//12
f 45//13 41//13 44//13
f 38//1 41//1 43//1
f 49//6 45//6 48//6
f 50//5 46//5 47//5
f 52//3 48//3 46//3
f 43//1 41//1 45//1
f 35//3 36//3 52//3
f 35//14 50//14 51//14
f 32//6 49//6 52//6
f 45//1 49//1 51//1
