# Blender v2.82 (sub 7) OBJ File: 'HalfPanel.blend'
# www.blender.org
mtllib HalfPanelBlock.mtl
o TAC_ReactiveArmorPanel_v3
v 0.475000 0.050000 0.000000
v -0.475000 0.050000 0.000000
v 0.500000 0.025000 -0.025000
v -0.500000 0.025000 -0.025000
v -0.500000 -0.025000 -0.025000
v 0.500000 -0.025000 -0.025000
v -0.475000 -0.050000 0.000000
v 0.475000 -0.050000 0.000000
v 0.500000 0.475000 -0.025000
v 0.475000 0.475000 0.000000
v 0.475000 -0.475000 0.000000
v 0.500000 -0.475000 -0.025000
v -0.475000 0.475000 0.000000
v -0.475000 -0.475000 0.000000
v -0.500000 0.475000 -0.025000
v -0.500000 -0.475000 -0.025000
v -0.400000 0.100000 -0.325000
v -0.300000 0.100000 -0.325000
v -0.400000 0.075000 -0.350000
v -0.300000 0.075000 -0.350000
v -0.300000 0.100000 -0.150000
v -0.400000 0.100000 -0.150000
v -0.300000 -0.100000 -0.325000
v -0.400000 -0.100000 -0.325000
v -0.300000 -0.075000 -0.350000
v -0.400000 -0.075000 -0.350000
v -0.400000 -0.100000 -0.150000
v -0.300000 -0.100000 -0.150000
v -0.100000 -0.400000 -0.325000
v -0.100000 -0.300000 -0.325000
v -0.075000 -0.400000 -0.350000
v -0.075000 -0.300000 -0.350000
v -0.100000 -0.300000 -0.150000
v -0.100000 -0.400000 -0.150000
v 0.100000 -0.300000 -0.325000
v 0.100000 -0.400000 -0.325000
v 0.075000 -0.300000 -0.350000
v 0.075000 -0.400000 -0.350000
v 0.100000 -0.400000 -0.150000
v 0.100000 -0.300000 -0.150000
v 0.400000 -0.100000 -0.325000
v 0.300000 -0.100000 -0.325000
v 0.400000 -0.075000 -0.350000
v 0.300000 -0.075000 -0.350000
v 0.300000 -0.100000 -0.150000
v 0.400000 -0.100000 -0.150000
v 0.300000 0.100000 -0.325000
v 0.400000 0.100000 -0.325000
v 0.300000 0.075000 -0.350000
v 0.400000 0.075000 -0.350000
v 0.400000 0.100000 -0.150000
v 0.300000 0.100000 -0.150000
v 0.100000 0.400000 -0.325000
v 0.100000 0.300000 -0.325000
v 0.075000 0.400000 -0.350000
v 0.075000 0.300000 -0.350000
v 0.100000 0.300000 -0.150000
v 0.100000 0.400000 -0.150000
v -0.100000 0.300000 -0.325000
v -0.100000 0.400000 -0.325000
v -0.075000 0.300000 -0.350000
v -0.075000 0.400000 -0.350000
v -0.100000 0.400000 -0.150000
v -0.100000 0.300000 -0.150000
v -0.250000 -0.400000 -0.150000
v -0.250000 -0.400000 -0.500000
v 0.250000 -0.400000 -0.500000
v 0.250000 -0.400000 -0.150000
v 0.175000 -0.300000 -0.150000
v 0.300000 -0.175000 -0.150000
v 0.400000 -0.250000 -0.150000
v 0.400000 -0.250000 -0.500000
v 0.400000 0.250000 -0.500000
v 0.400000 0.250000 -0.150000
v 0.300000 0.175000 -0.150000
v 0.250000 0.400000 -0.150000
v 0.175000 0.300000 -0.150000
v -0.300000 -0.175000 -0.150000
v -0.300000 -0.175000 -0.450000
v -0.300000 0.175000 -0.450000
v -0.300000 0.175000 -0.150000
v -0.400000 0.250000 -0.150000
v -0.250000 0.400000 -0.150000
v -0.175000 0.300000 -0.150000
v 0.250000 0.400000 -0.500000
v -0.250000 0.400000 -0.500000
v -0.400000 0.250000 -0.500000
v -0.400000 -0.250000 -0.150000
v -0.400000 -0.250000 -0.500000
v -0.154289 -0.250000 -0.500000
v 0.154289 -0.250000 -0.500000
v -0.175000 -0.300000 -0.450000
v 0.175000 -0.300000 -0.450000
v 0.250000 -0.154289 -0.500000
v 0.300000 -0.175000 -0.450000
v 0.250000 0.154289 -0.500000
v 0.300000 0.175000 -0.450000
v 0.175000 0.300000 -0.450000
v 0.154289 0.250000 -0.500000
v -0.175000 0.300000 -0.450000
v -0.154289 0.250000 -0.500000
v -0.250000 0.154289 -0.500000
v -0.250000 -0.154289 -0.500000
v -0.175000 -0.300000 -0.150000
v -0.500000 -0.475000 -0.500000
v -0.475000 -0.500000 -0.500000
v -0.500000 0.475000 -0.500000
v -0.475000 0.500000 -0.500000
v 0.475000 0.500000 -0.500000
v 0.500000 0.475000 -0.500000
v 0.500000 -0.475000 -0.500000
v 0.475000 -0.500000 -0.500000
v 0.475000 0.500000 -0.025000
v -0.475000 0.500000 -0.025000
v 0.475000 -0.500000 -0.025000
v -0.475000 -0.500000 -0.025000
vt 0.626131 0.567272
vt 0.626921 0.567272
vt 0.626110 0.567302
vt 0.626942 0.567302
vt 0.449689 0.606283
vt 0.450081 0.606283
vt 0.449689 0.614126
vt 0.450081 0.614126
vt 0.626154 0.567348
vt 0.626944 0.567348
vt 0.626133 0.567377
vt 0.626965 0.567377
vt 0.623476 0.568861
vt 0.621308 0.568861
vt 0.623356 0.568691
vt 0.621308 0.568691
vt 0.625665 0.565567
vt 0.625665 0.565597
vt 0.625312 0.565567
vt 0.625291 0.565597
vt 0.626046 0.566923
vt 0.625256 0.566923
vt 0.626046 0.566570
vt 0.625256 0.566570
vt 0.625249 0.566987
vt 0.626039 0.566987
vt 0.625249 0.567341
vt 0.626039 0.567341
vt 0.626954 0.565567
vt 0.626954 0.565597
vt 0.626601 0.565567
vt 0.626580 0.565597
vt 0.623476 0.568861
vt 0.621308 0.568861
vt 0.623356 0.568691
vt 0.621308 0.568691
vt 0.443999 0.609771
vt 0.444481 0.609771
vt 0.443999 0.609941
vt 0.444481 0.609941
vt 0.444601 0.610699
vt 0.444119 0.610699
vt 0.444601 0.609856
vt 0.444119 0.609856
vt 0.443999 0.609771
vt 0.444481 0.609771
vt 0.443999 0.609941
vt 0.444481 0.609941
vt 0.444601 0.610699
vt 0.444119 0.610699
vt 0.444601 0.609856
vt 0.444119 0.609856
vt 0.443999 0.609771
vt 0.444481 0.609771
vt 0.443999 0.609941
vt 0.444481 0.609941
vt 0.444601 0.610699
vt 0.444119 0.610699
vt 0.444601 0.609856
vt 0.444119 0.609856
vt 0.443999 0.609771
vt 0.444481 0.609771
vt 0.443999 0.609941
vt 0.444481 0.609941
vt 0.444601 0.610699
vt 0.444119 0.610699
vt 0.444601 0.609856
vt 0.444119 0.609856
vt 0.443999 0.609771
vt 0.444481 0.609771
vt 0.443999 0.609941
vt 0.444481 0.609941
vt 0.444601 0.610699
vt 0.444119 0.610699
vt 0.444601 0.609856
vt 0.444119 0.609856
vt 0.443999 0.609771
vt 0.444481 0.609771
vt 0.443999 0.609941
vt 0.444481 0.609941
vt 0.444601 0.610699
vt 0.444119 0.610699
vt 0.444601 0.609856
vt 0.444119 0.609856
vt 0.443999 0.609771
vt 0.444481 0.609771
vt 0.443999 0.609941
vt 0.444481 0.609941
vt 0.444601 0.610699
vt 0.444119 0.610699
vt 0.444601 0.609856
vt 0.444119 0.609856
vt 0.443999 0.609771
vt 0.444481 0.609771
vt 0.443999 0.609941
vt 0.444481 0.609941
vt 0.444601 0.610699
vt 0.444119 0.610699
vt 0.444601 0.609856
vt 0.444119 0.609856
vt 0.443879 0.609495
vt 0.444360 0.609495
vt 0.443879 0.610217
vt 0.444360 0.610217
vt 0.626437 0.566869
vt 0.626437 0.566724
vt 0.626561 0.566869
vt 0.626561 0.566578
vt 0.626416 0.566703
vt 0.626291 0.566703
vt 0.626146 0.566578
vt 0.626270 0.566724
vt 0.626146 0.566869
vt 0.626270 0.566869
vt 0.625463 0.566079
vt 0.625463 0.566141
vt 0.625380 0.566079
vt 0.625380 0.566204
vt 0.625567 0.566245
vt 0.625505 0.566328
vt 0.625629 0.566328
vt 0.625629 0.566245
vt 0.443758 0.609615
vt 0.444481 0.609615
vt 0.443758 0.610097
vt 0.444481 0.610097
vt 0.626409 0.567244
vt 0.626409 0.567099
vt 0.626534 0.567244
vt 0.626534 0.566953
vt 0.626388 0.567078
vt 0.626263 0.567078
vt 0.626118 0.566953
vt 0.626243 0.567099
vt 0.626118 0.567244
vt 0.626243 0.567244
vt 0.625702 0.566257
vt 0.625764 0.566257
vt 0.625702 0.566340
vt 0.625827 0.566340
vt 0.625952 0.566216
vt 0.625868 0.566153
vt 0.625952 0.566091
vt 0.625868 0.566091
vt 0.444481 0.610097
vt 0.443758 0.610097
vt 0.444481 0.609615
vt 0.443758 0.609615
vt 0.443156 0.611542
vt 0.443156 0.610699
vt 0.443517 0.611542
vt 0.443517 0.610097
vt 0.443035 0.610579
vt 0.442313 0.610579
vt 0.441831 0.610097
vt 0.442192 0.610699
vt 0.441831 0.611542
vt 0.442192 0.611542
vt 0.625699 0.565862
vt 0.625699 0.565779
vt 0.625762 0.565862
vt 0.625824 0.565779
vt 0.625949 0.565904
vt 0.625865 0.565966
vt 0.625949 0.566029
vt 0.625865 0.566029
vt 0.444360 0.610217
vt 0.443879 0.610217
vt 0.444360 0.609495
vt 0.443879 0.609495
vt 0.626916 0.566861
vt 0.626916 0.566715
vt 0.627040 0.566861
vt 0.627040 0.566570
vt 0.626895 0.566694
vt 0.626770 0.566694
vt 0.626624 0.566570
vt 0.626749 0.566715
vt 0.626624 0.566861
vt 0.626749 0.566861
vt 0.619540 0.565637
vt 0.620562 0.565637
vt 0.619540 0.567323
vt 0.620562 0.567323
vt 0.619540 0.565637
vt 0.620562 0.565637
vt 0.619540 0.567323
vt 0.620562 0.567323
vt 0.619540 0.565637
vt 0.620562 0.565637
vt 0.619540 0.567323
vt 0.620562 0.567323
vt 0.626739 0.567229
vt 0.626614 0.567229
vt 0.626739 0.567084
vt 0.626614 0.566938
vt 0.626760 0.567063
vt 0.627030 0.566938
vt 0.626885 0.567063
vt 0.626905 0.567084
vt 0.627030 0.567229
vt 0.626905 0.567229
vt 0.619540 0.565637
vt 0.620562 0.565637
vt 0.619540 0.567323
vt 0.620562 0.567323
vt 0.445526 0.610026
vt 0.444039 0.610026
vt 0.445626 0.609686
vt 0.443940 0.609686
vt 0.444445 0.610026
vt 0.443793 0.610026
vt 0.444545 0.609686
vt 0.443694 0.609686
vt 0.445585 0.610026
vt 0.444099 0.610026
vt 0.445685 0.609686
vt 0.443999 0.609686
vt 0.443694 0.609686
vt 0.444545 0.609686
vt 0.443793 0.610026
vt 0.444445 0.610026
vt 0.443999 0.609686
vt 0.445685 0.609686
vt 0.444099 0.610026
vt 0.445585 0.610026
vt 0.443694 0.609686
vt 0.444545 0.609686
vt 0.443793 0.610026
vt 0.444445 0.610026
vt 0.443999 0.609686
vt 0.445685 0.609686
vt 0.444099 0.610026
vt 0.445585 0.610026
vt 0.443694 0.609686
vt 0.444545 0.609686
vt 0.443793 0.610026
vt 0.444445 0.610026
vt 0.444545 0.609615
vt 0.443694 0.609615
vt 0.444545 0.608170
vt 0.443694 0.608170
vt 0.444545 0.609615
vt 0.443694 0.609615
vt 0.444545 0.608170
vt 0.443694 0.608170
vt 0.442192 0.611542
vt 0.441831 0.611542
vt 0.442192 0.610699
vt 0.441831 0.610097
vt 0.442313 0.610579
vt 0.443517 0.610097
vt 0.443035 0.610579
vt 0.443156 0.610699
vt 0.443517 0.611542
vt 0.443156 0.611542
vt 0.442915 0.609113
vt 0.444863 0.608652
vt 0.442915 0.610599
vt 0.445324 0.609113
vt 0.443376 0.611061
vt 0.445324 0.610599
vt 0.444863 0.611061
vt 0.443376 0.608652
vt 0.444545 0.609615
vt 0.443694 0.609615
vt 0.444545 0.608170
vt 0.443694 0.608170
vt 0.442192 0.611542
vt 0.441831 0.611542
vt 0.442192 0.610699
vt 0.441831 0.610097
vt 0.442313 0.610579
vt 0.443517 0.610097
vt 0.443035 0.610579
vt 0.443156 0.610699
vt 0.443517 0.611542
vt 0.443156 0.611542
vt 0.444545 0.609615
vt 0.443694 0.609615
vt 0.444545 0.608170
vt 0.443694 0.608170
vt 0.442192 0.611542
vt 0.441831 0.611542
vt 0.442192 0.610699
vt 0.441831 0.610097
vt 0.442313 0.610579
vt 0.443517 0.610097
vt 0.443035 0.610579
vt 0.443156 0.610699
vt 0.443517 0.611542
vt 0.443156 0.611542
vt 0.625463 0.566042
vt 0.625380 0.566042
vt 0.625463 0.565979
vt 0.625380 0.565917
vt 0.625567 0.565875
vt 0.625505 0.565792
vt 0.625629 0.565792
vt 0.625629 0.565875
vt 0.625266 0.565663
vt 0.625453 0.565746
vt 0.625245 0.565683
vt 0.625328 0.565871
vt 0.625328 0.566286
vt 0.626056 0.565663
vt 0.625869 0.565746
vt 0.626077 0.565683
vt 0.625993 0.565871
vt 0.625993 0.566286
vt 0.626077 0.566474
vt 0.625869 0.566411
vt 0.626056 0.566494
vt 0.625266 0.566494
vt 0.625453 0.566411
vt 0.625245 0.566474
vt 0.622477 0.568923
vt 0.622307 0.568923
vt 0.622392 0.568776
vt 0.622477 0.568923
vt 0.622307 0.568923
vt 0.622392 0.568776
vt 0.622477 0.568923
vt 0.622307 0.568923
vt 0.622392 0.568776
vt 0.622222 0.568776
vt 0.622307 0.568628
vt 0.622392 0.568776
vt 0.627271 0.567051
vt 0.627241 0.567051
vt 0.627271 0.566656
vt 0.627241 0.566656
vt 0.626530 0.565597
vt 0.625740 0.565597
vt 0.626530 0.565567
vt 0.627337 0.567071
vt 0.627308 0.567071
vt 0.627337 0.566676
vt 0.627308 0.566676
vt 0.627139 0.565510
vt 0.626349 0.565510
vt 0.627139 0.565481
vt 0.626349 0.565481
vt 0.627437 0.567025
vt 0.627408 0.567025
vt 0.627437 0.566630
vt 0.627408 0.566630
vt 0.627623 0.567042
vt 0.627593 0.567042
vt 0.627623 0.566647
vt 0.627593 0.566647
vt 0.626140 0.566113
vt 0.626514 0.566113
vt 0.626140 0.566508
vt 0.626555 0.566113
vt 0.626930 0.566508
vt 0.626930 0.566113
vt 0.626971 0.565634
vt 0.627761 0.565634
vt 0.626971 0.566029
vt 0.627761 0.566029
vt 0.627768 0.566482
vt 0.626978 0.566482
vt 0.627768 0.566087
vt 0.626978 0.566087
vt 0.626923 0.565662
vt 0.626923 0.566057
vt 0.626549 0.565662
vt 0.626133 0.566057
vt 0.626507 0.565662
vt 0.626133 0.565662
vn 0.0000 -0.7071 0.7071
vn 0.0000 0.0000 1.0000
vn 0.0000 0.7071 0.7071
vn 0.7071 0.0000 0.7071
vn -0.7071 0.0000 0.7071
vn 0.0000 0.7071 -0.7071
vn 0.0000 1.0000 0.0000
vn 0.0000 -0.7071 -0.7071
vn 0.0000 -1.0000 0.0000
vn -0.7071 0.0000 -0.7071
vn -1.0000 0.0000 0.0000
vn 0.7071 0.0000 -0.7071
vn 1.0000 0.0000 0.0000
vn 0.0000 0.0000 -1.0000
vn -0.7071 -0.7071 0.0000
vn 0.7071 -0.7071 0.0000
vn 0.7071 0.7071 0.0000
vn -0.7071 0.7071 0.0000
vn 0.5000 -0.5000 -0.7071
vn 0.5000 0.5000 -0.7071
vn -0.5000 0.5000 -0.7071
vn -0.5000 -0.5000 -0.7071
vn 0.5773 0.5774 0.5774
vn -0.5773 0.5774 0.5774
vn 0.5773 -0.5774 0.5774
vn -0.5773 -0.5774 0.5774
usemtl Steel_-_Satin.006
s 1
f 1/1/1 2/2/1 3/3/1
f 3/3/1 2/2/1 4/4/1
f 4/5/2 5/6/2 3/7/2
f 3/7/2 5/6/2 6/8/2
f 7/9/3 8/10/3 5/11/3
f 5/11/3 8/10/3 6/12/3
f 3/13/4 9/14/4 1/15/4
f 1/15/4 9/14/4 10/16/4
f 11/17/4 12/18/4 8/19/4
f 8/19/4 12/18/4 6/20/4
f 2/21/2 1/22/2 13/23/2
f 13/23/2 1/22/2 10/24/2
f 8/25/2 7/26/2 11/27/2
f 11/27/2 7/26/2 14/28/2
f 13/29/5 15/30/5 2/31/5
f 2/31/5 15/30/5 4/32/5
f 5/33/5 16/34/5 7/35/5
f 7/35/5 16/34/5 14/36/5
f 17/37/6 18/38/6 19/39/6
f 19/39/6 18/38/6 20/40/6
f 18/41/7 17/42/7 21/43/7
f 21/43/7 17/42/7 22/44/7
f 23/45/8 24/46/8 25/47/8
f 25/47/8 24/46/8 26/48/8
f 24/49/9 23/50/9 27/51/9
f 27/51/9 23/50/9 28/52/9
f 29/53/10 30/54/10 31/55/10
f 31/55/10 30/54/10 32/56/10
f 30/57/11 29/58/11 33/59/11
f 33/59/11 29/58/11 34/60/11
f 35/61/12 36/62/12 37/63/12
f 37/63/12 36/62/12 38/64/12
f 36/65/13 35/66/13 39/67/13
f 39/67/13 35/66/13 40/68/13
f 41/69/8 42/70/8 43/71/8
f 43/71/8 42/70/8 44/72/8
f 42/73/9 41/74/9 45/75/9
f 45/75/9 41/74/9 46/76/9
f 47/77/6 48/78/6 49/79/6
f 49/79/6 48/78/6 50/80/6
f 48/81/7 47/82/7 51/83/7
f 51/83/7 47/82/7 52/84/7
f 53/85/12 54/86/12 55/87/12
f 55/87/12 54/86/12 56/88/12
f 54/89/13 53/90/13 57/91/13
f 57/91/13 53/90/13 58/92/13
f 59/93/10 60/94/10 61/95/10
f 61/95/10 60/94/10 62/96/10
f 60/97/11 59/98/11 63/99/11
f 63/99/11 59/98/11 64/100/11
f 31/101/14 32/102/14 38/103/14
f 38/103/14 32/102/14 37/104/14
f 34/105/7 29/106/7 65/107/7
f 65/107/7 29/106/7 66/108/7
f 66/108/7 29/106/7 31/109/7
f 66/108/7 31/109/7 38/110/7
f 66/108/7 38/110/7 67/111/7
f 67/111/7 38/110/7 36/112/7
f 67/111/7 36/112/7 68/113/7
f 68/113/7 36/112/7 39/114/7
f 40/115/14 69/116/14 39/117/14
f 39/117/14 69/116/14 68/118/14
f 68/118/14 69/116/14 70/119/14
f 68/118/14 70/119/14 71/120/14
f 71/120/14 70/119/14 46/121/14
f 46/121/14 70/119/14 45/122/14
f 44/123/14 49/124/14 43/125/14
f 43/125/14 49/124/14 50/126/14
f 46/127/11 41/128/11 71/129/11
f 71/129/11 41/128/11 72/130/11
f 72/130/11 41/128/11 43/131/11
f 72/130/11 43/131/11 50/132/11
f 72/130/11 50/132/11 73/133/11
f 73/133/11 50/132/11 48/134/11
f 73/133/11 48/134/11 74/135/11
f 74/135/11 48/134/11 51/136/11
f 52/137/14 75/138/14 51/139/14
f 51/139/14 75/138/14 74/140/14
f 74/140/14 75/138/14 76/141/14
f 76/141/14 75/138/14 77/142/14
f 76/141/14 77/142/14 58/143/14
f 58/143/14 77/142/14 57/144/14
f 20/145/14 25/146/14 19/147/14
f 19/147/14 25/146/14 26/148/14
f 28/149/11 23/150/11 78/151/11
f 78/151/11 23/150/11 79/152/11
f 79/152/11 23/150/11 25/153/11
f 79/152/11 25/153/11 20/154/11
f 79/152/11 20/154/11 80/155/11
f 80/155/11 20/154/11 18/156/11
f 80/155/11 18/156/11 81/157/11
f 81/157/11 18/156/11 21/158/11
f 21/159/14 22/160/14 81/161/14
f 81/161/14 22/160/14 82/162/14
f 81/161/14 82/162/14 83/163/14
f 81/161/14 83/163/14 84/164/14
f 84/164/14 83/163/14 63/165/14
f 84/164/14 63/165/14 64/166/14
f 55/167/14 56/168/14 62/169/14
f 62/169/14 56/168/14 61/170/14
f 58/171/9 53/172/9 76/173/9
f 76/173/9 53/172/9 85/174/9
f 85/174/9 53/172/9 55/175/9
f 85/174/9 55/175/9 62/176/9
f 85/174/9 62/176/9 86/177/9
f 86/177/9 62/176/9 60/178/9
f 86/177/9 60/178/9 83/179/9
f 83/179/9 60/178/9 63/180/9
f 74/181/15 76/182/15 73/183/15
f 73/183/15 76/182/15 85/184/15
f 83/185/16 82/186/16 86/187/16
f 86/187/16 82/186/16 87/188/16
f 88/189/17 65/190/17 89/191/17
f 89/191/17 65/190/17 66/192/17
f 27/193/13 88/194/13 24/195/13
f 24/195/13 88/194/13 89/196/13
f 24/195/13 89/196/13 26/197/13
f 26/197/13 89/196/13 87/198/13
f 26/197/13 87/198/13 19/199/13
f 19/199/13 87/198/13 17/200/13
f 17/200/13 87/198/13 82/201/13
f 17/200/13 82/201/13 22/202/13
f 68/203/18 71/204/18 67/205/18
f 67/205/18 71/204/18 72/206/18
f 90/207/8 91/208/8 92/209/8
f 92/209/8 91/208/8 93/210/8
f 91/211/19 94/212/19 93/213/19
f 93/213/19 94/212/19 95/214/19
f 94/215/12 96/216/12 95/217/12
f 95/217/12 96/216/12 97/218/12
f 98/219/20 97/220/20 99/221/20
f 99/221/20 97/220/20 96/222/20
f 100/223/6 98/224/6 101/225/6
f 101/225/6 98/224/6 99/226/6
f 80/227/21 100/228/21 102/229/21
f 102/229/21 100/228/21 101/230/21
f 79/231/10 80/232/10 103/233/10
f 103/233/10 80/232/10 102/234/10
f 92/235/22 79/236/22 90/237/22
f 90/237/22 79/236/22 103/238/22
f 100/239/18 80/240/18 84/241/18
f 84/241/18 80/240/18 81/242/18
f 79/243/15 92/244/15 78/245/15
f 78/245/15 92/244/15 104/246/15
f 33/247/9 104/248/9 30/249/9
f 30/249/9 104/248/9 92/250/9
f 30/249/9 92/250/9 32/251/9
f 32/251/9 92/250/9 93/252/9
f 32/251/9 93/252/9 37/253/9
f 37/253/9 93/252/9 35/254/9
f 35/254/9 93/252/9 69/255/9
f 35/254/9 69/255/9 40/256/9
f 90/257/14 102/258/14 91/259/14
f 91/259/14 102/258/14 101/260/14
f 91/259/14 101/260/14 94/261/14
f 94/261/14 101/260/14 99/262/14
f 94/261/14 99/262/14 96/263/14
f 90/257/14 103/264/14 102/258/14
f 93/265/16 95/266/16 69/267/16
f 69/267/16 95/266/16 70/268/16
f 45/269/13 70/270/13 42/271/13
f 42/271/13 70/270/13 95/272/13
f 42/271/13 95/272/13 44/273/13
f 44/273/13 95/272/13 97/274/13
f 44/273/13 97/274/13 49/275/13
f 49/275/13 97/274/13 47/276/13
f 47/276/13 97/274/13 75/277/13
f 47/276/13 75/277/13 52/278/13
f 97/279/17 98/280/17 75/281/17
f 75/281/17 98/280/17 77/282/17
f 57/283/7 77/284/7 54/285/7
f 54/285/7 77/284/7 98/286/7
f 54/285/7 98/286/7 56/287/7
f 56/287/7 98/286/7 100/288/7
f 56/287/7 100/288/7 61/289/7
f 61/289/7 100/288/7 59/290/7
f 59/290/7 100/288/7 84/291/7
f 59/290/7 84/291/7 64/292/7
f 33/293/14 34/294/14 104/295/14
f 104/295/14 34/294/14 65/296/14
f 104/295/14 65/296/14 78/297/14
f 78/297/14 65/296/14 88/298/14
f 78/297/14 88/298/14 27/299/14
f 27/299/14 28/300/14 78/297/14
f 105/301/14 89/302/14 106/303/14
f 106/303/14 89/302/14 66/304/14
f 106/303/14 66/304/14 67/305/14
f 105/301/14 107/306/14 89/302/14
f 89/302/14 107/306/14 87/307/14
f 87/307/14 107/306/14 108/308/14
f 87/307/14 108/308/14 86/309/14
f 86/309/14 108/308/14 85/310/14
f 85/310/14 108/308/14 109/311/14
f 85/310/14 109/311/14 73/312/14
f 73/312/14 109/311/14 110/313/14
f 73/312/14 110/313/14 111/314/14
f 73/312/14 111/314/14 72/315/14
f 72/315/14 111/314/14 112/316/14
f 72/315/14 112/316/14 67/305/14
f 67/305/14 112/316/14 106/303/14
f 9/317/23 113/318/23 10/319/23
f 114/320/24 15/321/24 13/322/24
f 115/323/25 12/324/25 11/325/25
f 116/326/26 14/327/26 16/328/26
f 105/329/15 106/330/15 16/331/15
f 16/331/15 106/330/15 116/332/15
f 116/333/1 115/334/1 14/335/1
f 14/335/1 115/334/1 11/17/1
f 112/336/16 111/337/16 115/338/16
f 115/338/16 111/337/16 12/339/16
f 113/340/3 114/341/3 10/342/3
f 10/342/3 114/341/3 13/343/3
f 108/344/18 107/345/18 114/346/18
f 114/346/18 107/345/18 15/347/18
f 110/348/17 109/349/17 9/350/17
f 9/350/17 109/349/17 113/351/17
f 16/352/11 5/353/11 105/354/11
f 105/354/11 5/353/11 4/355/11
f 105/354/11 4/355/11 107/356/11
f 107/356/11 4/355/11 15/357/11
f 114/358/7 113/359/7 108/360/7
f 108/360/7 113/359/7 109/361/7
f 106/362/9 112/363/9 116/364/9
f 116/364/9 112/363/9 115/365/9
f 12/366/13 111/367/13 6/368/13
f 6/368/13 111/367/13 110/369/13
f 6/368/13 110/369/13 3/370/13
f 3/370/13 110/369/13 9/371/13
