# Blender v2.82 (sub 7) OBJ File: 'CompressorOuterSpinner.blend'
# www.blender.org
mtllib CompressorOuterSpinner.mtl
o CompressorSpinner_v1
v -0.492404 0.086824 -0.250000
v -0.393923 0.069459 -0.200000
v -0.474205 0.136824 -0.200000
v -0.393923 0.069459 0.200000
v -0.474205 0.136824 0.200000
v -0.492404 0.086824 0.250000
v -0.217090 0.443242 -0.200000
v -0.217090 0.443242 0.200000
v -0.136808 0.375877 -0.200000
v -0.136808 0.375877 0.200000
v -0.171010 0.469846 -0.250000
v -0.171010 0.469846 0.250000
v -0.492404 0.086824 0.500000
v -0.346410 0.200000 0.500000
v -0.257115 0.306418 -0.500000
v -0.136808 0.375877 -0.500000
v -0.171010 0.469846 -0.500000
v -0.433013 0.250000 -0.500000
v 0.257115 0.306418 0.500000
v 0.492404 -0.086824 0.500000
v 0.393923 -0.069459 -0.500000
v 0.492404 -0.086824 -0.500000
v 0.492404 0.086824 -0.500000
v 0.136808 -0.375877 0.500000
v 0.000000 -0.400000 0.500000
v -0.257115 -0.306418 0.500000
v 0.000000 -0.400000 -0.500000
v -0.136808 -0.375877 -0.500000
v -0.321394 -0.383022 -0.500000
v -0.171010 -0.469846 -0.500000
v 0.171010 -0.469846 -0.500000
v 0.321394 0.383022 -0.250000
v 0.257115 0.306418 -0.200000
v 0.355596 0.342262 -0.200000
v 0.257115 0.306418 0.200000
v 0.355596 0.342262 0.200000
v 0.321394 0.383022 0.250000
v 0.492404 -0.033615 -0.200000
v 0.492404 -0.033615 0.200000
v 0.393923 -0.069459 -0.200000
v 0.393923 -0.069459 0.200000
v 0.492404 -0.086824 -0.250000
v 0.492404 -0.086824 0.250000
v 0.257115 0.306418 -0.500000
v 0.393923 -0.069459 0.500000
v 0.433013 0.250000 0.500000
v 0.346410 0.200000 0.500000
v 0.492404 0.086824 0.500000
v 0.393923 0.069459 0.500000
v 0.346410 0.200000 -0.500000
v 0.393923 0.069459 -0.500000
v 0.171010 -0.469846 -0.250000
v 0.136808 -0.375877 -0.200000
v 0.118610 -0.479086 -0.200000
v 0.136808 -0.375877 0.200000
v 0.118610 -0.479086 0.200000
v 0.171010 -0.469846 0.250000
v -0.275314 -0.409627 -0.200000
v -0.275314 -0.409627 0.200000
v -0.257115 -0.306418 -0.200000
v -0.257115 -0.306418 0.200000
v -0.321394 -0.383022 -0.250000
v -0.321394 -0.383022 0.250000
v 0.136808 -0.375877 -0.500000
v -0.321394 -0.383022 0.500000
v 0.171010 -0.469846 0.500000
v 0.000000 -0.500000 0.500000
v -0.136808 -0.375877 0.500000
v -0.257115 -0.306418 -0.500000
v -0.171010 -0.469846 0.500000
v 0.000000 -0.500000 -0.500000
v -0.433013 0.250000 0.500000
v -0.171010 0.469846 0.500000
v -0.393923 0.069459 -0.500000
v -0.321394 0.383022 -0.500000
v -0.393923 0.069459 0.500000
v -0.321394 0.383022 0.500000
v -0.257115 0.306418 0.500000
v -0.136808 0.375877 0.500000
v -0.346410 0.200000 -0.500000
v -0.492404 0.086824 -0.500000
v 0.321394 0.383022 0.500000
v 0.433013 0.250000 -0.500000
v 0.321394 0.383022 -0.500000
vt 0.497772 0.516787
vt 0.497764 0.516797
vt 0.497764 0.516785
vt 0.102553 0.020095
vt 0.102505 0.020095
vt 0.102553 0.020083
vt 0.102505 0.020083
vt 0.497772 0.516797
vt 0.497764 0.516787
vt 0.497772 0.516785
vt 0.102505 0.020083
vt 0.102553 0.020083
vt 0.102505 0.020095
vt 0.102553 0.020095
vt 0.497772 0.516797
vt 0.497764 0.516787
vt 0.497772 0.516785
vt 0.497764 0.516785
vt 0.497772 0.516787
vt 0.497764 0.516797
vt 0.497772 0.516840
vt 0.497784 0.516840
vt 0.497772 0.516750
vt 0.497784 0.516720
vt 0.497772 0.516720
vt 0.497794 0.516759
vt 0.497796 0.516770
vt 0.497774 0.516766
vt 0.497780 0.516776
vt 0.497758 0.516779
vt 0.497768 0.516787
vt 0.497748 0.516797
vt 0.497759 0.516801
vt 0.497772 0.516840
vt 0.497772 0.516720
vt 0.497789 0.516720
vt 0.217203 0.096298
vt 0.217198 0.096298
vt 0.217203 0.096265
vt 0.217198 0.096265
vt 0.497789 0.516840
vt 0.497789 0.516720
vt 0.497772 0.516840
vt 0.497772 0.516840
vt 0.497772 0.516840
vt 0.497772 0.516720
vt 0.497772 0.516840
vt 0.497772 0.516720
vt 0.497772 0.516750
vt 0.497772 0.516720
vt 0.497748 0.516770
vt 0.497753 0.516766
vt 0.497766 0.516777
vt 0.497744 0.516774
vt 0.497760 0.516787
vt 0.497782 0.516782
vt 0.497779 0.516794
vt 0.497798 0.516782
vt 0.497800 0.516794
vt 0.497793 0.516840
vt 0.497772 0.516840
vt 0.497793 0.516720
vt 0.497772 0.516720
vt 0.497791 0.516766
vt 0.497800 0.516774
vt 0.497778 0.516777
vt 0.497763 0.516782
vt 0.497746 0.516782
vt 0.497744 0.516794
vt 0.497769 0.516805
vt 0.497772 0.516789
vt 0.497780 0.516809
vt 0.497784 0.516789
vt 0.497780 0.516768
vt 0.497769 0.516773
vt 0.497770 0.516750
vt 0.497760 0.516758
vt 0.217203 0.096298
vt 0.217198 0.096298
vt 0.217203 0.096265
vt 0.217198 0.096265
vt 0.497793 0.516840
vt 0.497772 0.516840
vt 0.497793 0.516720
vt 0.497772 0.516720
vt 0.497775 0.516805
vt 0.497764 0.516809
vt 0.497772 0.516789
vt 0.497775 0.516773
vt 0.497775 0.516750
vt 0.497784 0.516758
vt 0.497772 0.516787
vt 0.497764 0.516797
vt 0.497764 0.516785
vt 0.102553 0.020095
vt 0.102505 0.020095
vt 0.102553 0.020083
vt 0.102505 0.020083
vt 0.497772 0.516797
vt 0.497764 0.516787
vt 0.497772 0.516785
vt 0.102505 0.020083
vt 0.102553 0.020083
vt 0.102505 0.020095
vt 0.102553 0.020095
vt 0.497772 0.516797
vt 0.497764 0.516787
vt 0.497772 0.516785
vt 0.497764 0.516785
vt 0.497772 0.516787
vt 0.497764 0.516797
vt 0.497772 0.516750
vt 0.497784 0.516720
vt 0.497772 0.516720
vt 0.497772 0.516720
vt 0.497789 0.516720
vt 0.217203 0.096298
vt 0.217198 0.096298
vt 0.217203 0.096265
vt 0.217198 0.096265
vt 0.497789 0.516720
vt 0.497772 0.516840
vt 0.497772 0.516840
vt 0.497772 0.516750
vt 0.497772 0.516720
vt 0.497772 0.516787
vt 0.497764 0.516797
vt 0.497764 0.516785
vt 0.102553 0.020095
vt 0.102505 0.020095
vt 0.102553 0.020083
vt 0.102505 0.020083
vt 0.497772 0.516797
vt 0.497764 0.516787
vt 0.497772 0.516785
vt 0.102505 0.020083
vt 0.102553 0.020083
vt 0.102505 0.020095
vt 0.102553 0.020095
vt 0.497772 0.516797
vt 0.497764 0.516787
vt 0.497772 0.516785
vt 0.497764 0.516785
vt 0.497772 0.516787
vt 0.497764 0.516797
vt 0.497772 0.516750
vt 0.497784 0.516720
vt 0.497772 0.516720
vt 0.497772 0.516720
vt 0.497789 0.516720
vt 0.497789 0.516720
vt 0.497772 0.516750
vt 0.497772 0.516720
vn -0.4545 -0.5417 0.7071
vn -0.6428 -0.7660 0.0000
vn -0.4545 -0.5417 -0.7071
vn 0.6428 0.7660 0.0000
vn 0.4545 0.5417 0.7071
vn 0.4545 0.5417 -0.7071
vn -0.1736 -0.9848 0.0000
vn 0.9397 0.3420 0.0000
vn 0.0000 0.0000 1.0000
vn 0.9397 -0.3420 0.0000
vn 0.7660 -0.6428 0.0000
vn 0.5000 -0.8660 0.0000
vn -0.5000 0.8660 -0.0000
vn -0.7660 0.6428 0.0000
vn -0.9397 0.3420 -0.0000
vn 0.0000 0.0000 -1.0000
vn 0.1736 0.9848 0.0000
vn -0.2418 0.6645 0.7071
vn -0.3420 0.9397 0.0000
vn -0.2418 0.6645 -0.7071
vn 0.3420 -0.9397 0.0000
vn 0.2418 -0.6645 0.7071
vn 0.2418 -0.6645 -0.7071
vn -0.7660 -0.6428 0.0000
vn -0.9397 -0.3420 0.0000
vn -1.0000 0.0000 0.0000
vn 1.0000 0.0000 0.0000
vn 0.7660 0.6428 -0.0000
vn 0.6964 -0.1228 0.7071
vn 0.9848 -0.1736 0.0000
vn 0.6964 -0.1228 -0.7071
vn -0.9848 0.1736 0.0000
vn -0.6964 0.1228 0.7071
vn -0.6964 0.1228 -0.7071
vn -0.1736 0.9848 0.0000
vn 0.5000 0.8660 0.0000
vn -0.5000 -0.8660 -0.0000
vn 0.1736 -0.9848 0.0000
usemtl Steel_-_Satin.001
s 1
f 1/1/1 2/2/1 3/3/1
f 2/4/2 4/5/2 3/6/2
f 3/6/2 4/5/2 5/7/2
f 4/8/3 6/9/3 5/10/3
f 7/11/4 8/12/4 9/13/4
f 9/13/4 8/12/4 10/14/4
f 9/15/5 11/16/5 7/17/5
f 8/18/6 12/19/6 10/20/6
f 2/2/7 1/1/7 74/21/7
f 74/21/7 1/1/7 81/22/7
f 10/20/8 12/23/8 79/24/8
f 79/24/8 12/23/8 73/25/8
f 13/26/9 76/27/9 72/28/9
f 72/28/9 76/27/9 14/29/9
f 72/28/9 14/29/9 77/30/9
f 77/30/9 14/29/9 78/31/9
f 77/30/9 78/31/9 73/32/9
f 73/32/9 78/31/9 79/33/9
f 74/21/10 80/34/10 2/2/10
f 2/2/10 80/34/10 14/35/10
f 2/2/10 14/35/10 4/8/10
f 4/8/10 14/35/10 76/36/10
f 80/37/11 15/38/11 14/39/11
f 14/39/11 15/38/11 78/40/11
f 15/41/12 9/15/12 78/42/12
f 78/42/12 9/15/12 10/20/12
f 78/42/12 10/20/12 79/24/12
f 15/41/12 16/43/12 9/15/12
f 9/15/8 16/43/8 11/16/8
f 11/16/8 16/43/8 17/44/8
f 11/16/13 75/45/13 7/17/13
f 7/17/13 75/45/13 77/46/13
f 7/17/13 77/46/13 8/18/13
f 8/18/13 77/46/13 12/23/13
f 12/23/13 77/46/13 73/25/13
f 11/16/13 17/44/13 75/45/13
f 75/45/14 18/47/14 77/46/14
f 77/46/14 18/47/14 72/48/14
f 3/3/15 5/10/15 72/48/15
f 72/48/15 5/10/15 6/49/15
f 72/48/15 6/49/15 13/50/15
f 72/48/15 18/47/15 3/3/15
f 3/3/15 18/47/15 1/1/15
f 1/1/15 18/47/15 81/22/15
f 4/8/7 76/36/7 6/49/7
f 6/49/7 76/36/7 13/50/7
f 81/22/16 18/47/16 74/51/16
f 74/51/16 18/47/16 80/34/16
f 80/34/16 18/47/16 75/45/16
f 80/34/16 75/45/16 15/41/16
f 15/41/16 75/45/16 17/44/16
f 15/41/16 17/44/16 16/43/16
f 19/52/9 47/53/9 82/54/9
f 82/54/9 47/53/9 46/55/9
f 46/55/9 47/53/9 49/56/9
f 46/55/9 49/56/9 48/57/9
f 48/57/9 49/56/9 45/58/9
f 48/57/9 45/58/9 20/59/9
f 23/60/8 83/61/8 48/62/8
f 48/62/8 83/61/8 46/63/8
f 44/64/16 84/65/16 50/66/16
f 50/66/16 84/65/16 83/61/16
f 50/66/16 83/61/16 51/67/16
f 51/67/16 83/61/16 23/60/16
f 51/67/16 23/60/16 21/68/16
f 21/68/16 23/60/16 22/69/16
f 24/70/9 25/71/9 66/72/9
f 66/72/9 25/71/9 67/73/9
f 70/74/9 68/75/9 65/76/9
f 65/76/9 68/75/9 26/77/9
f 27/78/17 28/79/17 25/80/17
f 25/80/17 28/79/17 68/81/17
f 30/82/7 71/83/7 70/84/7
f 70/84/7 71/83/7 67/85/7
f 64/86/16 31/87/16 27/88/16
f 27/88/16 31/87/16 71/83/16
f 27/88/16 71/83/16 30/82/16
f 27/88/16 30/82/16 28/89/16
f 28/89/16 30/82/16 29/90/16
f 28/89/16 29/90/16 69/91/16
f 32/92/18 33/93/18 34/94/18
f 33/95/19 35/96/19 34/97/19
f 34/97/19 35/96/19 36/98/19
f 35/99/20 37/100/20 36/101/20
f 38/102/21 39/103/21 40/104/21
f 40/104/21 39/103/21 41/105/21
f 40/106/22 42/107/22 38/108/22
f 39/109/23 43/110/23 41/111/23
f 33/93/14 32/92/14 44/64/14
f 44/64/14 32/92/14 84/65/14
f 41/111/7 43/112/7 45/113/7
f 45/113/7 43/112/7 20/114/7
f 44/64/24 50/66/24 33/93/24
f 33/93/24 50/66/24 47/115/24
f 33/93/24 47/115/24 35/99/24
f 35/99/24 47/115/24 19/116/24
f 50/117/25 51/118/25 47/119/25
f 47/119/25 51/118/25 49/120/25
f 51/67/26 40/106/26 49/121/26
f 49/121/26 40/106/26 41/111/26
f 49/121/26 41/111/26 45/113/26
f 51/67/26 21/122/26 40/106/26
f 40/106/7 21/122/7 42/107/7
f 42/107/7 21/122/7 22/123/7
f 42/107/27 23/60/27 38/108/27
f 38/108/27 23/60/27 48/62/27
f 38/108/27 48/62/27 39/109/27
f 39/109/27 48/62/27 43/112/27
f 43/112/27 48/62/27 20/114/27
f 42/107/27 22/123/27 23/60/27
f 34/94/28 36/101/28 46/63/28
f 46/63/28 36/101/28 37/124/28
f 46/63/28 37/124/28 82/125/28
f 46/63/28 83/61/28 34/94/28
f 34/94/28 83/61/28 32/92/28
f 32/92/28 83/61/28 84/65/28
f 35/99/14 19/116/14 37/124/14
f 37/124/14 19/116/14 82/125/14
f 52/126/29 53/127/29 54/128/29
f 53/129/30 55/130/30 54/131/30
f 54/131/30 55/130/30 56/132/30
f 55/133/31 57/134/31 56/135/31
f 58/136/32 59/137/32 60/138/32
f 60/138/32 59/137/32 61/139/32
f 60/140/33 62/141/33 58/142/33
f 59/143/34 63/144/34 61/145/34
f 53/127/8 52/126/8 64/86/8
f 64/86/8 52/126/8 31/87/8
f 61/145/14 63/146/14 26/147/14
f 26/147/14 63/146/14 65/148/14
f 64/86/35 27/88/35 53/127/35
f 53/127/35 27/88/35 25/149/35
f 53/127/35 25/149/35 55/133/35
f 55/133/35 25/149/35 24/150/35
f 28/89/36 60/140/36 68/151/36
f 68/151/36 60/140/36 61/145/36
f 68/151/36 61/145/36 26/147/36
f 28/89/36 69/91/36 60/140/36
f 60/140/14 69/91/14 62/141/14
f 62/141/14 69/91/14 29/90/14
f 62/141/37 30/82/37 58/142/37
f 58/142/37 30/82/37 70/84/37
f 58/142/37 70/84/37 59/143/37
f 59/143/37 70/84/37 63/146/37
f 63/146/37 70/84/37 65/148/37
f 62/141/37 29/90/37 30/82/37
f 54/128/38 56/135/38 67/85/38
f 67/85/38 56/135/38 57/152/38
f 67/85/38 57/152/38 66/153/38
f 67/85/38 71/83/38 54/128/38
f 54/128/38 71/83/38 52/126/38
f 52/126/38 71/83/38 31/87/38
f 55/133/8 24/150/8 57/152/8
f 57/152/8 24/150/8 66/153/8
f 67/73/9 25/71/9 68/75/9
f 67/73/9 68/75/9 70/74/9
