# Blender v2.82 (sub 7) OBJ File: 'CompressorCoreSpinner.blend'
# www.blender.org
mtllib CompressorCoreSpinner.mtl
o Compressor_Core_Mid_v1
v -0.131403 0.087800 -0.123333
v -0.087800 0.131403 -0.123333
v -0.169552 0.113291 -0.258333
v -0.113291 0.169552 -0.258333
v -0.030831 0.155000 -0.123333
v 0.030831 0.155000 -0.123333
v -0.039783 0.200000 -0.258333
v 0.039783 0.200000 -0.258333
v 0.087800 0.131403 -0.123333
v 0.113291 0.169552 -0.258333
v 0.131403 0.087800 -0.123333
v 0.169552 0.113291 -0.258333
v 0.155000 0.030831 -0.123333
v 0.200000 0.039783 -0.258333
v 0.155000 -0.030831 -0.123333
v 0.200000 -0.039783 -0.258333
v 0.131403 -0.087800 -0.123333
v 0.169552 -0.113291 -0.258333
v 0.087800 -0.131403 -0.123333
v 0.113291 -0.169552 -0.258333
v 0.030831 -0.155000 -0.123333
v 0.039783 -0.200000 -0.258333
v -0.030831 -0.155000 -0.123333
v -0.039783 -0.200000 -0.258333
v -0.087800 -0.131403 -0.123333
v -0.113291 -0.169552 -0.258333
v -0.131403 -0.087800 -0.123333
v -0.169552 -0.113291 -0.258333
v -0.155000 -0.030831 -0.123333
v -0.200000 -0.039783 -0.258333
v -0.155000 0.030831 -0.123333
v -0.200000 0.039783 -0.258333
v 0.056646 -0.084776 -0.050000
v 0.019891 -0.100000 -0.050000
v 0.084776 -0.056646 -0.050000
v 0.100000 -0.019891 -0.050000
v 0.100000 0.019891 -0.050000
v 0.084776 0.056646 -0.050000
v 0.056646 0.084776 -0.050000
v 0.019891 0.100000 -0.050000
v -0.019891 0.100000 -0.050000
v -0.039783 -0.200000 -0.500000
v -0.113291 -0.169552 -0.500000
v -0.169552 -0.113291 -0.500000
v -0.200000 -0.039783 -0.500000
v -0.200000 0.039783 -0.500000
v -0.169552 0.113291 -0.500000
v -0.113291 0.169552 -0.500000
v -0.039783 0.200000 -0.500000
v 0.039783 0.200000 -0.500000
v -0.131403 -0.087800 0.123333
v -0.087800 -0.131403 0.123333
v -0.169552 -0.113291 0.258333
v -0.113291 -0.169552 0.258333
v -0.030831 -0.155000 0.123333
v -0.039783 -0.200000 0.258333
v 0.030831 -0.155000 0.123333
v 0.039783 -0.200000 0.258333
v 0.087800 -0.131403 0.123333
v 0.113291 -0.169552 0.258333
v 0.030831 0.155000 0.123333
v -0.030831 0.155000 0.123333
v 0.039783 0.200000 0.258333
v -0.039783 0.200000 0.258333
v 0.131403 -0.087800 0.123333
v 0.169552 -0.113291 0.258333
v 0.155000 -0.030831 0.123333
v 0.200000 -0.039783 0.258333
v 0.155000 0.030831 0.123333
v 0.200000 0.039783 0.258333
v 0.131403 0.087800 0.123333
v 0.169552 0.113291 0.258333
v 0.087800 0.131403 0.123333
v 0.113291 0.169552 0.258333
v -0.087800 0.131403 0.123333
v -0.113291 0.169552 0.258333
v -0.131403 0.087800 0.123333
v -0.169552 0.113291 0.258333
v -0.155000 0.030831 0.123333
v -0.200000 0.039783 0.258333
v -0.155000 -0.030831 0.123333
v -0.200000 -0.039783 0.258333
v -0.019891 -0.100000 0.050000
v -0.056646 -0.084776 0.050000
v -0.084776 -0.056646 0.050000
v -0.100000 -0.019891 0.050000
v -0.100000 0.019891 0.050000
v -0.084776 0.056646 0.050000
v -0.056646 0.084776 0.050000
v -0.019891 0.100000 0.050000
v 0.019891 0.100000 0.050000
v 0.039783 -0.200000 0.500000
v 0.113291 -0.169552 0.500000
v 0.169552 -0.113291 0.500000
v 0.200000 -0.039783 0.500000
v 0.200000 0.039783 0.500000
v 0.169552 0.113291 0.500000
v 0.113291 0.169552 0.500000
v 0.039783 0.200000 0.500000
v -0.039783 0.200000 0.500000
v 0.056646 0.084776 0.050000
v -0.019891 -0.100000 -0.050000
v -0.056646 -0.084776 -0.050000
v -0.084776 -0.056646 -0.050000
v -0.100000 -0.019891 -0.050000
v -0.100000 0.019891 -0.050000
v -0.084776 0.056646 -0.050000
v -0.056646 0.084776 -0.050000
v 0.084776 0.056646 0.050000
v 0.100000 0.019891 0.050000
v 0.100000 -0.019891 0.050000
v 0.084776 -0.056646 0.050000
v 0.056646 -0.084776 0.050000
v 0.019891 -0.100000 0.050000
v 0.113291 0.169552 -0.500000
v 0.169552 0.113291 -0.500000
v 0.200000 0.039783 -0.500000
v 0.200000 -0.039783 -0.500000
v 0.169552 -0.113291 -0.500000
v 0.113291 -0.169552 -0.500000
v 0.039783 -0.200000 -0.500000
v -0.169552 0.113291 0.500000
v -0.200000 0.039783 0.500000
v -0.113291 0.169552 0.500000
v -0.039783 -0.200000 0.500000
v -0.113291 -0.169552 0.500000
v -0.169552 -0.113291 0.500000
v -0.200000 -0.039783 0.500000
vt 0.235758 0.140521
vt 0.235758 0.140521
vt 0.235758 0.140521
vt 0.235758 0.140521
vt 0.235758 0.140521
vt 0.235758 0.140521
vt 0.235758 0.140521
vt 0.235758 0.140521
vt 0.235758 0.140521
vt 0.235758 0.140521
vt 0.235758 0.140521
vt 0.235758 0.140521
vt 0.235758 0.140521
vt 0.235758 0.140521
vt 0.235758 0.140521
vt 0.235758 0.140521
vt 0.235758 0.140521
vt 0.235758 0.140521
vt 0.235758 0.140521
vt 0.235758 0.140521
vt 0.235758 0.140521
vt 0.235758 0.140521
vt 0.235758 0.140521
vt 0.235758 0.140521
vt 0.235758 0.140521
vt 0.235758 0.140521
vt 0.235758 0.140521
vt 0.235758 0.140521
vt 0.235758 0.140521
vt 0.235758 0.140521
vt 0.235758 0.140521
vt 0.235758 0.140521
vt 0.013871 0.203232
vt 0.020515 0.203232
vt 0.012922 0.205653
vt 0.021498 0.205653
vt 0.013871 0.203232
vt 0.020515 0.203232
vt 0.012922 0.205653
vt 0.021498 0.205653
vt 0.013871 0.203232
vt 0.020515 0.203232
vt 0.012922 0.205653
vt 0.021498 0.205653
vt 0.013871 0.203232
vt 0.020515 0.203232
vt 0.012922 0.205653
vt 0.021498 0.205653
vt 0.013871 0.203232
vt 0.020515 0.203232
vt 0.012922 0.205653
vt 0.021498 0.205653
vt 0.013871 0.203232
vt 0.020515 0.203232
vt 0.012922 0.205653
vt 0.021498 0.205653
vt 0.013871 0.203232
vt 0.020515 0.203232
vt 0.012922 0.205653
vt 0.021498 0.205653
vt 0.013871 0.203232
vt 0.020515 0.203232
vt 0.012922 0.205653
vt 0.021498 0.205653
vt 0.013871 0.203232
vt 0.020515 0.203232
vt 0.012922 0.205653
vt 0.021498 0.205653
vt 0.013871 0.203232
vt 0.020515 0.203232
vt 0.012922 0.205653
vt 0.021498 0.205653
vt 0.013871 0.203232
vt 0.020515 0.203232
vt 0.012922 0.205653
vt 0.021498 0.205653
vt 0.013871 0.203232
vt 0.020515 0.203232
vt 0.012922 0.205653
vt 0.021498 0.205653
vt 0.013871 0.203232
vt 0.020515 0.203232
vt 0.012922 0.205653
vt 0.021498 0.205653
vt 0.013871 0.203232
vt 0.020515 0.203232
vt 0.012922 0.205653
vt 0.021498 0.205653
vt 0.013871 0.203232
vt 0.020515 0.203232
vt 0.012922 0.205653
vt 0.021498 0.205653
vt 0.013871 0.203232
vt 0.020515 0.203232
vt 0.012922 0.205653
vt 0.021498 0.205653
vt 0.209753 0.094310
vt 0.209745 0.094309
vt 0.209753 0.094305
vt 0.209745 0.094306
vt 0.209753 0.094310
vt 0.209745 0.094309
vt 0.209753 0.094310
vt 0.209745 0.094309
vt 0.209753 0.094310
vt 0.209745 0.094309
vt 0.209753 0.094310
vt 0.209745 0.094309
vt 0.209753 0.094310
vt 0.209745 0.094309
vt 0.209753 0.094310
vt 0.209745 0.094309
vt 0.209753 0.094310
vt 0.209745 0.094309
vt 0.211720 0.096134
vt 0.211727 0.096134
vt 0.211720 0.096157
vt 0.211727 0.096157
vt 0.211727 0.096134
vt 0.211727 0.096157
vt 0.211727 0.096134
vt 0.211727 0.096157
vt 0.211727 0.096134
vt 0.211727 0.096157
vt 0.211727 0.096134
vt 0.211727 0.096157
vt 0.211727 0.096134
vt 0.211727 0.096157
vt 0.211727 0.096134
vt 0.211727 0.096157
vt 0.211727 0.096134
vt 0.211727 0.096157
vt 0.020515 0.205653
vt 0.013871 0.205653
vt 0.021498 0.203232
vt 0.012922 0.203232
vt 0.020515 0.205653
vt 0.013871 0.205653
vt 0.021498 0.203232
vt 0.012922 0.203232
vt 0.020515 0.205653
vt 0.013871 0.205653
vt 0.021498 0.203232
vt 0.012922 0.203232
vt 0.020515 0.205653
vt 0.013871 0.205653
vt 0.021498 0.203232
vt 0.012922 0.203232
vt 0.020515 0.205653
vt 0.013871 0.205653
vt 0.021498 0.203232
vt 0.012922 0.203232
vt 0.020515 0.205653
vt 0.013871 0.205653
vt 0.021498 0.203232
vt 0.012922 0.203232
vt 0.020515 0.205653
vt 0.013871 0.205653
vt 0.021498 0.203232
vt 0.012922 0.203232
vt 0.020515 0.205653
vt 0.013871 0.205653
vt 0.021498 0.203232
vt 0.012922 0.203232
vt 0.020515 0.205653
vt 0.013871 0.205653
vt 0.021498 0.203232
vt 0.012922 0.203232
vt 0.020515 0.205653
vt 0.013871 0.205653
vt 0.021498 0.203232
vt 0.012922 0.203232
vt 0.020515 0.205653
vt 0.013871 0.205653
vt 0.021498 0.203232
vt 0.012922 0.203232
vt 0.020515 0.205653
vt 0.013871 0.205653
vt 0.021498 0.203232
vt 0.012922 0.203232
vt 0.020515 0.205653
vt 0.013871 0.205653
vt 0.021498 0.203232
vt 0.012922 0.203232
vt 0.020515 0.205653
vt 0.013871 0.205653
vt 0.021498 0.203232
vt 0.012922 0.203232
vt 0.020515 0.205653
vt 0.013871 0.205653
vt 0.021498 0.203232
vt 0.012922 0.203232
vt 0.020515 0.205653
vt 0.013871 0.205653
vt 0.021498 0.203232
vt 0.012922 0.203232
vt 0.209760 0.094310
vt 0.209760 0.094305
vt 0.209768 0.094309
vt 0.209768 0.094306
vt 0.209760 0.094305
vt 0.209768 0.094306
vt 0.209760 0.094305
vt 0.209768 0.094306
vt 0.209760 0.094305
vt 0.209768 0.094306
vt 0.209760 0.094305
vt 0.209768 0.094306
vt 0.209760 0.094305
vt 0.209768 0.094306
vt 0.209760 0.094305
vt 0.209768 0.094306
vt 0.209760 0.094305
vt 0.209768 0.094306
vt 0.211727 0.096085
vt 0.211720 0.096085
vt 0.211727 0.096062
vt 0.211720 0.096062
vt 0.211720 0.096085
vt 0.211720 0.096062
vt 0.211720 0.096085
vt 0.211720 0.096062
vt 0.211720 0.096085
vt 0.211720 0.096062
vt 0.211720 0.096085
vt 0.211720 0.096062
vt 0.211720 0.096085
vt 0.211720 0.096062
vt 0.211720 0.096085
vt 0.211720 0.096062
vt 0.211720 0.096085
vt 0.211720 0.096062
vt 0.235134 0.140618
vt 0.235134 0.140614
vt 0.235125 0.140618
vt 0.235125 0.140614
vt 0.209753 0.094305
vt 0.209745 0.094306
vt 0.209753 0.094305
vt 0.209745 0.094306
vt 0.209753 0.094305
vt 0.209745 0.094306
vt 0.209753 0.094305
vt 0.209745 0.094306
vt 0.209753 0.094305
vt 0.209745 0.094306
vt 0.209753 0.094305
vt 0.209745 0.094306
vt 0.209753 0.094305
vt 0.209745 0.094306
vt 0.209760 0.094305
vt 0.209768 0.094306
vt 0.209760 0.094305
vt 0.209768 0.094306
vt 0.235134 0.140614
vt 0.235125 0.140614
vt 0.235125 0.140614
vt 0.235125 0.140618
vt 0.235134 0.140614
vt 0.235134 0.140618
vt 0.209760 0.094305
vt 0.209768 0.094306
vt 0.235134 0.140614
vt 0.235125 0.140614
vt 0.209760 0.094305
vt 0.209768 0.094306
vt 0.235134 0.140614
vt 0.235125 0.140614
vt 0.209760 0.094305
vt 0.209768 0.094306
vt 0.235134 0.140614
vt 0.235125 0.140614
vt 0.209760 0.094305
vt 0.209768 0.094306
vt 0.235134 0.140614
vt 0.235125 0.140614
vt 0.209760 0.094305
vt 0.209768 0.094306
vt 0.235134 0.140614
vt 0.235125 0.140614
vt 0.235134 0.140614
vt 0.235125 0.140614
vt 0.235134 0.140614
vt 0.235125 0.140614
vt 0.235134 0.140614
vt 0.235125 0.140614
vt 0.235134 0.140614
vt 0.235125 0.140614
vt 0.235134 0.140614
vt 0.235125 0.140614
vt 0.235134 0.140614
vt 0.235125 0.140614
vt 0.211727 0.096134
vt 0.211727 0.096157
vt 0.211727 0.096134
vt 0.211727 0.096157
vt 0.211727 0.096134
vt 0.211727 0.096157
vt 0.211727 0.096134
vt 0.211727 0.096157
vt 0.211727 0.096134
vt 0.211727 0.096157
vt 0.211727 0.096134
vt 0.211727 0.096157
vt 0.211727 0.096134
vt 0.211727 0.096157
vt 0.211727 0.096085
vt 0.211720 0.096085
vt 0.211727 0.096062
vt 0.211720 0.096062
vt 0.211727 0.096085
vt 0.211727 0.096062
vt 0.211739 0.096106
vt 0.211736 0.096099
vt 0.211731 0.096094
vt 0.211724 0.096091
vt 0.211720 0.096085
vt 0.211720 0.096085
vt 0.211720 0.096085
vt 0.211720 0.096085
vt 0.211739 0.096113
vt 0.211701 0.096113
vt 0.211739 0.096106
vt 0.211701 0.096106
vt 0.211736 0.096099
vt 0.211704 0.096099
vt 0.211731 0.096094
vt 0.211709 0.096094
vt 0.211724 0.096091
vt 0.211716 0.096091
vt 0.211704 0.096120
vt 0.211736 0.096120
vt 0.211709 0.096126
vt 0.211731 0.096126
vt 0.211716 0.096129
vt 0.211724 0.096129
vn 0.0000 0.0000 -1.0000
vn 0.0000 0.0000 1.0000
vn -0.6708 0.6708 0.3162
vn 0.0000 0.9487 0.3162
vn 0.3630 0.8765 0.3162
vn 0.6708 0.6708 0.3162
vn 0.8765 0.3630 0.3162
vn 0.9487 0.0000 0.3162
vn 0.8765 -0.3630 0.3162
vn 0.6708 -0.6708 0.3162
vn 0.3630 -0.8765 0.3162
vn 0.0000 -0.9487 0.3162
vn -0.3630 -0.8765 0.3162
vn -0.6708 -0.6708 0.3162
vn -0.3630 0.8765 0.3162
vn -0.8765 -0.3630 0.3162
vn -0.9487 0.0000 0.3162
vn -0.8765 0.3630 0.3162
vn 0.4413 -0.6605 0.6074
vn 0.1550 -0.7791 0.6074
vn 0.6605 -0.4413 0.6074
vn 0.7791 -0.1550 0.6074
vn 0.7791 0.1550 0.6074
vn 0.6605 0.4413 0.6074
vn 0.4413 0.6605 0.6074
vn 0.1550 0.7791 0.6074
vn -0.1550 0.7791 0.6074
vn -0.1951 -0.9808 0.0000
vn -0.5556 -0.8315 0.0000
vn -0.8315 -0.5556 0.0000
vn -0.9808 -0.1951 0.0000
vn -0.9808 0.1951 0.0000
vn -0.8315 0.5556 0.0000
vn -0.5556 0.8315 0.0000
vn -0.1951 0.9808 0.0000
vn 0.1951 0.9808 0.0000
vn -0.6708 -0.6708 -0.3162
vn -0.3630 -0.8765 -0.3162
vn 0.0000 -0.9487 -0.3162
vn 0.3630 -0.8765 -0.3162
vn 0.0000 0.9487 -0.3162
vn 0.6708 -0.6708 -0.3162
vn 0.8765 -0.3630 -0.3162
vn 0.9487 0.0000 -0.3162
vn 0.8765 0.3630 -0.3162
vn 0.6708 0.6708 -0.3162
vn 0.3630 0.8765 -0.3162
vn -0.3630 0.8765 -0.3162
vn -0.6708 0.6708 -0.3162
vn -0.8765 0.3630 -0.3162
vn -0.9487 0.0000 -0.3162
vn -0.8765 -0.3630 -0.3162
vn -0.1550 -0.7791 -0.6074
vn -0.4413 -0.6605 -0.6074
vn -0.6605 -0.4413 -0.6074
vn -0.7791 -0.1550 -0.6074
vn -0.7791 0.1550 -0.6074
vn -0.6605 0.4413 -0.6074
vn -0.4413 0.6605 -0.6074
vn -0.1550 0.7791 -0.6074
vn 0.1550 0.7791 -0.6074
vn 0.1951 -0.9808 0.0000
vn 0.5556 -0.8315 0.0000
vn 0.8315 -0.5556 0.0000
vn 0.9808 -0.1951 0.0000
vn 0.9808 0.1951 0.0000
vn 0.8315 0.5556 0.0000
vn 0.5556 0.8315 0.0000
vn -0.1550 -0.7791 0.6074
vn -0.4413 -0.6605 0.6074
vn -0.6605 -0.4413 0.6074
vn -0.7791 -0.1550 0.6074
vn -0.7791 0.1550 0.6074
vn -0.6605 0.4413 0.6074
vn -0.4413 0.6605 0.6074
vn 0.4413 0.6605 -0.6074
vn 0.6605 0.4413 -0.6074
vn 0.7791 0.1550 -0.6074
vn 0.7791 -0.1550 -0.6074
vn 0.6605 -0.4413 -0.6074
vn 0.4413 -0.6605 -0.6074
vn 0.1550 -0.7791 -0.6074
usemtl Steel_-_Satin.005
s off
f 111/1/1 113/2/1 89/3/1
f 41/4/2 105/5/2 34/6/2
f 113/2/1 114/7/1 83/8/1
f 83/8/1 84/9/1 85/10/1
f 85/10/1 86/11/1 89/3/1
f 86/11/1 87/12/1 89/3/1
f 87/12/1 88/13/1 89/3/1
f 89/3/1 90/14/1 109/15/1
f 90/14/1 91/16/1 109/15/1
f 91/16/1 101/17/1 109/15/1
f 109/15/1 110/18/1 111/1/1
f 111/1/1 112/19/1 113/2/1
f 113/2/1 83/8/1 89/3/1
f 83/8/1 85/10/1 89/3/1
f 109/15/1 111/1/1 89/3/1
f 34/6/2 33/20/2 35/21/2
f 35/21/2 36/22/2 34/6/2
f 36/22/2 37/23/2 34/6/2
f 37/23/2 38/24/2 39/25/2
f 39/25/2 40/26/2 37/23/2
f 40/26/2 41/4/2 37/23/2
f 41/4/2 108/27/2 107/28/2
f 107/28/2 106/29/2 41/4/2
f 106/29/2 105/5/2 41/4/2
f 105/5/2 104/30/2 103/31/2
f 103/31/2 102/32/2 105/5/2
f 102/32/2 34/6/2 105/5/2
f 34/6/2 37/23/2 41/4/2
s 1
f 1/33/3 2/34/3 3/35/3
f 3/35/3 2/34/3 4/36/3
f 5/37/4 6/38/4 7/39/4
f 7/39/4 6/38/4 8/40/4
f 6/41/5 9/42/5 8/43/5
f 8/43/5 9/42/5 10/44/5
f 9/45/6 11/46/6 10/47/6
f 10/47/6 11/46/6 12/48/6
f 11/49/7 13/50/7 12/51/7
f 12/51/7 13/50/7 14/52/7
f 13/53/8 15/54/8 14/55/8
f 14/55/8 15/54/8 16/56/8
f 15/57/9 17/58/9 16/59/9
f 16/59/9 17/58/9 18/60/9
f 17/61/10 19/62/10 18/63/10
f 18/63/10 19/62/10 20/64/10
f 19/65/11 21/66/11 20/67/11
f 20/67/11 21/66/11 22/68/11
f 21/69/12 23/70/12 22/71/12
f 22/71/12 23/70/12 24/72/12
f 23/73/13 25/74/13 24/75/13
f 24/75/13 25/74/13 26/76/13
f 25/77/14 27/78/14 26/79/14
f 26/79/14 27/78/14 28/80/14
f 2/81/15 5/82/15 4/83/15
f 4/83/15 5/82/15 7/84/15
f 27/85/16 29/86/16 28/87/16
f 28/87/16 29/86/16 30/88/16
f 29/89/17 31/90/17 30/91/17
f 30/91/17 31/90/17 32/92/17
f 31/93/18 1/94/18 32/95/18
f 32/95/18 1/94/18 3/96/18
f 19/97/19 33/98/19 21/99/20
f 21/99/20 33/98/19 34/100/20
f 17/101/21 35/102/21 19/97/19
f 19/97/19 35/102/21 33/98/19
f 15/103/22 36/104/22 17/101/21
f 17/101/21 36/104/22 35/102/21
f 13/105/23 37/106/23 15/103/22
f 15/103/22 37/106/23 36/104/22
f 11/107/24 38/108/24 13/105/23
f 13/105/23 38/108/24 37/106/23
f 9/109/25 39/110/25 11/107/24
f 11/107/24 39/110/25 38/108/24
f 6/111/26 40/112/26 9/109/25
f 9/109/25 40/112/26 39/110/25
f 5/113/27 41/114/27 6/111/26
f 6/111/26 41/114/27 40/112/26
f 24/115/28 26/116/29 42/117/28
f 42/117/28 26/116/29 43/118/29
f 26/116/29 28/119/30 43/118/29
f 43/118/29 28/119/30 44/120/30
f 28/119/30 30/121/31 44/120/30
f 44/120/30 30/121/31 45/122/31
f 30/121/31 32/123/32 45/122/31
f 45/122/31 32/123/32 46/124/32
f 32/123/32 3/125/33 46/124/32
f 46/124/32 3/125/33 47/126/33
f 3/125/33 4/127/34 47/126/33
f 47/126/33 4/127/34 48/128/34
f 4/127/34 7/129/35 48/128/34
f 48/128/34 7/129/35 49/130/35
f 7/129/35 8/131/36 49/130/35
f 49/130/35 8/131/36 50/132/36
f 51/133/37 52/134/37 53/135/37
f 53/135/37 52/134/37 54/136/37
f 52/137/38 55/138/38 54/139/38
f 54/139/38 55/138/38 56/140/38
f 55/141/39 57/142/39 56/143/39
f 56/143/39 57/142/39 58/144/39
f 57/145/40 59/146/40 58/147/40
f 58/147/40 59/146/40 60/148/40
f 61/149/41 62/150/41 63/151/41
f 63/151/41 62/150/41 64/152/41
f 59/153/42 65/154/42 60/155/42
f 60/155/42 65/154/42 66/156/42
f 65/157/43 67/158/43 66/159/43
f 66/159/43 67/158/43 68/160/43
f 67/161/44 69/162/44 68/163/44
f 68/163/44 69/162/44 70/164/44
f 69/165/45 71/166/45 70/167/45
f 70/167/45 71/166/45 72/168/45
f 71/169/46 73/170/46 72/171/46
f 72/171/46 73/170/46 74/172/46
f 73/173/47 61/174/47 74/175/47
f 74/175/47 61/174/47 63/176/47
f 62/177/48 75/178/48 64/179/48
f 64/179/48 75/178/48 76/180/48
f 75/181/49 77/182/49 76/183/49
f 76/183/49 77/182/49 78/184/49
f 77/185/50 79/186/50 78/187/50
f 78/187/50 79/186/50 80/188/50
f 79/189/51 81/190/51 80/191/51
f 80/191/51 81/190/51 82/192/51
f 81/193/52 51/194/52 82/195/52
f 82/195/52 51/194/52 53/196/52
f 55/197/53 52/198/54 83/199/53
f 83/199/53 52/198/54 84/200/54
f 52/198/54 51/201/55 84/200/54
f 84/200/54 51/201/55 85/202/55
f 51/201/55 81/203/56 85/202/55
f 85/202/55 81/203/56 86/204/56
f 81/203/56 79/205/57 86/204/56
f 86/204/56 79/205/57 87/206/57
f 79/205/57 77/207/58 87/206/57
f 87/206/57 77/207/58 88/208/58
f 77/207/58 75/209/59 88/208/58
f 88/208/58 75/209/59 89/210/59
f 75/209/59 62/211/60 89/210/59
f 89/210/59 62/211/60 90/212/60
f 62/211/60 61/213/61 90/212/60
f 90/212/60 61/213/61 91/214/61
f 58/215/62 60/216/63 92/217/62
f 92/217/62 60/216/63 93/218/63
f 60/216/63 66/219/64 93/218/63
f 93/218/63 66/219/64 94/220/64
f 66/219/64 68/221/65 94/220/64
f 94/220/64 68/221/65 95/222/65
f 68/221/65 70/223/66 95/222/65
f 95/222/65 70/223/66 96/224/66
f 70/223/66 72/225/67 96/224/66
f 96/224/66 72/225/67 97/226/67
f 72/225/67 74/227/68 97/226/67
f 97/226/67 74/227/68 98/228/68
f 74/227/68 63/229/36 98/228/68
f 98/228/68 63/229/36 99/230/36
f 63/229/36 64/231/35 99/230/36
f 99/230/36 64/231/35 100/232/35
f 40/233/28 39/234/29 91/235/28
f 39/234/29 101/236/29 91/235/28
f 21/99/20 34/100/20 23/237/69
f 23/237/69 34/100/20 102/238/69
f 23/237/69 102/238/69 25/239/70
f 25/239/70 102/238/69 103/240/70
f 25/239/70 103/240/70 27/241/71
f 27/241/71 103/240/70 104/242/71
f 27/241/71 104/242/71 29/243/72
f 29/243/72 104/242/71 105/244/72
f 29/243/72 105/244/72 31/245/73
f 31/245/73 105/244/72 106/246/73
f 31/245/73 106/246/73 1/247/74
f 1/247/74 106/246/73 107/248/74
f 1/247/74 107/248/74 2/249/75
f 2/249/75 107/248/74 108/250/75
f 2/249/75 108/250/75 5/113/27
f 5/113/27 108/250/75 41/114/27
f 61/213/61 73/251/76 91/214/61
f 91/214/61 73/251/76 101/252/76
f 73/251/76 71/253/77 101/252/76
f 101/252/76 71/253/77 109/254/77
f 39/234/29 38/255/30 101/236/29
f 38/255/30 109/256/30 101/236/29
f 90/257/62 89/258/63 41/259/62
f 89/258/63 108/260/63 41/259/62
f 71/253/77 69/261/78 109/254/77
f 109/254/77 69/261/78 110/262/78
f 38/255/30 37/263/31 109/256/30
f 37/263/31 110/264/31 109/256/30
f 69/261/78 67/265/79 110/262/78
f 110/262/78 67/265/79 111/266/79
f 37/263/31 36/267/32 110/264/31
f 36/267/32 111/268/32 110/264/31
f 67/265/79 65/269/80 111/266/79
f 111/266/79 65/269/80 112/270/80
f 36/267/32 35/271/33 111/268/32
f 35/271/33 112/272/33 111/268/32
f 65/269/80 59/273/81 112/270/80
f 112/270/80 59/273/81 113/274/81
f 35/271/33 33/275/34 112/272/33
f 33/275/34 113/276/34 112/272/33
f 59/273/81 57/277/82 113/274/81
f 113/274/81 57/277/82 114/278/82
f 33/275/34 34/279/35 113/276/34
f 34/279/35 114/280/35 113/276/34
f 57/277/82 55/197/53 114/278/82
f 114/278/82 55/197/53 83/199/53
f 34/279/35 102/281/36 114/280/35
f 102/281/36 83/282/36 114/280/35
f 102/281/36 103/283/68 83/282/36
f 103/283/68 84/284/68 83/282/36
f 103/283/68 104/285/67 84/284/68
f 104/285/67 85/286/67 84/284/68
f 104/285/67 105/287/66 85/286/67
f 105/287/66 86/288/66 85/286/67
f 105/287/66 106/289/65 86/288/66
f 106/289/65 87/290/65 86/288/66
f 106/289/65 107/291/64 87/290/65
f 107/291/64 88/292/64 87/290/65
f 107/291/64 108/260/63 88/292/64
f 108/260/63 89/258/63 88/292/64
f 8/131/36 10/293/68 50/132/36
f 50/132/36 10/293/68 115/294/68
f 10/293/68 12/295/67 115/294/68
f 115/294/68 12/295/67 116/296/67
f 12/295/67 14/297/66 116/296/67
f 116/296/67 14/297/66 117/298/66
f 14/297/66 16/299/65 117/298/66
f 117/298/66 16/299/65 118/300/65
f 16/299/65 18/301/64 118/300/65
f 118/300/65 18/301/64 119/302/64
f 18/301/64 20/303/63 119/302/64
f 119/302/64 20/303/63 120/304/63
f 20/303/63 22/305/62 120/304/63
f 120/304/63 22/305/62 121/306/62
f 22/305/62 24/115/28 121/306/62
f 121/306/62 24/115/28 42/117/28
f 91/235/28 90/257/62 40/233/28
f 90/257/62 41/259/62 40/233/28
f 78/307/33 80/308/32 122/309/33
f 122/309/33 80/308/32 123/310/32
f 76/311/34 78/307/33 124/312/34
f 124/312/34 78/307/33 122/309/33
f 64/231/35 76/311/34 100/232/35
f 100/232/35 76/311/34 124/312/34
f 100/232/2 125/313/2 99/230/2
f 99/230/2 125/313/2 92/217/2
f 99/230/2 92/217/2 98/228/2
f 98/228/2 92/217/2 93/218/2
f 98/228/2 93/218/2 97/226/2
f 97/226/2 93/218/2 94/220/2
f 97/226/2 94/220/2 96/224/2
f 96/224/2 94/220/2 95/222/2
f 125/313/2 100/232/2 126/314/2
f 126/314/2 100/232/2 124/312/2
f 126/314/2 124/312/2 127/315/2
f 127/315/2 124/312/2 122/309/2
f 127/315/2 122/309/2 128/316/2
f 128/316/2 122/309/2 123/310/2
f 80/308/32 82/317/31 123/310/32
f 123/310/32 82/317/31 128/316/31
f 82/317/31 53/318/30 128/316/31
f 128/316/31 53/318/30 127/315/30
f 53/318/30 54/319/29 127/315/30
f 127/315/30 54/319/29 126/314/29
f 54/319/29 56/320/28 126/314/29
f 126/314/29 56/320/28 125/313/28
f 56/320/28 58/215/62 125/313/28
f 125/313/28 58/215/62 92/217/62
f 50/321/1 121/322/1 49/323/1
f 49/323/1 121/322/1 42/324/1
f 49/323/1 42/324/1 48/325/1
f 48/325/1 42/324/1 43/326/1
f 48/325/1 43/326/1 47/327/1
f 47/327/1 43/326/1 44/328/1
f 47/327/1 44/328/1 46/329/1
f 46/329/1 44/328/1 45/330/1
f 121/322/1 50/321/1 120/331/1
f 120/331/1 50/321/1 115/332/1
f 120/331/1 115/332/1 119/333/1
f 119/333/1 115/332/1 116/334/1
f 119/333/1 116/334/1 118/335/1
f 118/335/1 116/334/1 117/336/1
