# Blender v2.76 (sub 0) OBJ File: 'bustion.blend'
# www.blender.org
mtllib bustion_c.mtl
o Cube_Cube.002
v 0.598812 -0.500000 1.951022
v 0.048978 -0.500000 1.401188
v 0.048978 -0.135136 1.401188
v 0.598812 -0.135136 1.951022
v 0.048978 -0.500000 0.598812
v 0.598812 -0.500000 0.048978
v 0.598812 -0.135136 0.048978
v 0.048978 -0.135136 0.598812
v 1.951022 -0.500000 1.401188
v 1.401188 -0.500000 1.951022
v 1.401188 -0.135136 1.951022
v 1.951022 -0.135136 1.401188
v 1.401188 -0.500000 0.048978
v 1.951022 -0.500000 0.598812
v 1.951022 -0.135136 0.598812
v 1.401188 -0.135136 0.048978
v 0.688639 0.023993 1.738086
v 0.261913 0.023993 1.311361
v 0.261913 0.023993 0.688639
v 0.688639 0.023993 0.261913
v 1.311361 0.023993 0.261913
v 1.738086 0.023993 0.688639
v 1.738086 0.023993 1.311361
v 1.311361 0.023993 1.738086
v 0.001859 -0.244988 0.611980
v 0.001859 -0.500000 0.611980
v -0.540197 -0.378798 0.720981
v -0.540197 -0.500000 0.720981
v -0.540197 -0.500000 1.279018
v -0.540197 -0.378798 1.279018
v 0.001859 -0.500000 1.388020
v 0.001859 -0.244988 1.388020
v 0.070642 -0.244988 0.611980
v 0.070642 -0.500000 0.611980
v 0.070642 -0.244988 1.388020
v 0.070642 -0.500000 1.388020
v 1.998141 -0.244988 1.388020
v 1.998141 -0.500000 1.388020
v 2.540197 -0.378798 1.279019
v 2.540197 -0.500000 1.279019
v 2.540197 -0.500000 0.720982
v 2.540197 -0.378798 0.720982
v 1.998141 -0.500000 0.611980
v 1.998141 -0.244988 0.611980
v 1.929358 -0.244988 1.388020
v 1.929358 -0.500000 1.388020
v 1.929358 -0.244988 0.611980
v 1.929358 -0.500000 0.611980
v 0.611980 -0.244988 1.998141
v 0.611980 -0.500000 1.998141
v 0.720981 -0.378798 2.540197
v 0.720981 -0.500000 2.540197
v 1.279018 -0.500000 2.540197
v 1.279018 -0.378798 2.540197
v 1.388020 -0.500000 1.998141
v 1.388020 -0.244988 1.998141
v 0.611980 -0.244988 1.929358
v 0.611980 -0.500000 1.929358
v 1.388020 -0.244988 1.929358
v 1.388020 -0.500000 1.929358
v 1.388020 -0.244988 0.001859
v 1.388020 -0.500000 0.001859
v 1.279019 -0.378798 -0.540197
v 1.279019 -0.500000 -0.540197
v 0.720982 -0.500000 -0.540197
v 0.720982 -0.378798 -0.540197
v 0.611980 -0.500000 0.001859
v 0.611980 -0.244988 0.001859
v 1.388020 -0.244988 0.070642
v 1.388020 -0.500000 0.070642
v 0.611980 -0.244988 0.070642
v 0.611980 -0.500000 0.070642
vn 0.000000 -1.000000 0.000000
vn 1.000000 0.000000 0.000000
vn 0.598600 0.801000 0.000000
vn 0.000000 0.000000 1.000000
vn 0.000000 0.000000 -1.000000
vn -0.707100 0.000000 0.707100
vn -0.707100 0.000000 -0.707100
vn 0.707100 0.000000 -0.707100
vn 0.707100 0.000000 0.707100
vn -1.000000 0.000000 0.000000
vn 0.000000 1.000000 -0.000000
vn -0.598600 0.801000 0.000000
vn 0.000000 0.801000 -0.598600
vn 0.421800 0.802600 0.421800
vn 0.000000 0.801000 0.598600
vn 0.421800 0.802600 -0.421800
vn -0.421800 0.802600 -0.421800
vn -0.421800 0.802600 0.421800
vn -0.197100 0.000000 -0.980400
vn -0.197100 0.000000 0.980400
vn -0.239700 0.970900 -0.000000
vn 0.197100 0.000000 0.980400
vn 0.197100 0.000000 -0.980400
vn 0.239700 0.970900 0.000000
vn -0.980400 0.000000 0.197100
vn 0.980400 0.000000 0.197100
vn -0.000000 0.970900 0.239700
vn 0.980400 0.000000 -0.197100
vn -0.980400 0.000000 -0.197100
vn 0.000000 0.970900 -0.239700
usemtl None
s off
f 1//1 2//1 5//1 6//1 13//1 14//1 9//1 10//1
f 15//2 12//2 9//2 14//2
f 12//3 15//3 22//3 23//3
f 11//4 4//4 1//4 10//4
f 7//5 16//5 13//5 6//5
f 1//6 4//6 3//6 2//6
f 7//7 6//7 5//7 8//7
f 15//8 14//8 13//8 16//8
f 11//9 10//9 9//9 12//9
f 3//10 8//10 5//10 2//10
f 24//11 23//11 22//11 21//11 20//11 19//11 18//11 17//11
f 8//12 3//12 18//12 19//12
f 16//13 7//13 20//13 21//13
f 11//14 12//14 23//14 24//14
f 4//15 11//15 24//15 17//15
f 15//16 16//16 21//16 22//16
f 7//17 8//17 19//17 20//17
f 3//18 4//18 17//18 18//18
f 27//19 25//19 26//19 28//19
f 32//4 31//4 36//4 35//4
f 32//20 30//20 29//20 31//20
f 30//10 27//10 28//10 29//10
f 28//1 26//1 31//1 29//1
f 30//21 32//21 25//21 27//21
f 33//2 35//2 36//2 34//2
f 26//5 25//5 33//5 34//5
f 31//1 26//1 34//1 36//1
f 25//11 32//11 35//11 33//11
f 39//22 37//22 38//22 40//22
f 44//5 43//5 48//5 47//5
f 44//23 42//23 41//23 43//23
f 42//2 39//2 40//2 41//2
f 40//1 38//1 43//1 41//1
f 42//24 44//24 37//24 39//24
f 45//10 47//10 48//10 46//10
f 38//4 37//4 45//4 46//4
f 43//1 38//1 46//1 48//1
f 37//11 44//11 47//11 45//11
f 51//25 49//25 50//25 52//25
f 56//2 55//2 60//2 59//2
f 56//26 54//26 53//26 55//26
f 54//4 51//4 52//4 53//4
f 52//1 50//1 55//1 53//1
f 54//27 56//27 49//27 51//27
f 57//5 59//5 60//5 58//5
f 50//10 49//10 57//10 58//10
f 55//1 50//1 58//1 60//1
f 49//11 56//11 59//11 57//11
f 63//28 61//28 62//28 64//28
f 68//10 67//10 72//10 71//10
f 68//29 66//29 65//29 67//29
f 66//5 63//5 64//5 65//5
f 64//1 62//1 67//1 65//1
f 66//30 68//30 61//30 63//30
f 69//4 71//4 72//4 70//4
f 62//2 61//2 69//2 70//2
f 67//1 62//1 70//1 72//1
f 61//11 68//11 71//11 69//11
