# This file uses centimeters as units for non-parametric coordinates.

g default
v -0.500000 3.500000 0.152244
v 1.500000 3.500000 0.152244
v -0.500000 3.500000 -0.500000
v 1.500000 3.500000 -0.500000
v 0.199930 0.168586 0.152244
v -0.500000 0.868516 0.152244
v -0.500000 0.868516 -0.500000
v 0.199930 0.168586 -0.500000
v 1.500000 0.868516 0.152244
v 0.800070 0.168586 0.152244
v 0.800070 0.168586 -0.500000
v 1.500000 0.868516 -0.500000
vt 0.375000 0.500000
vt 0.375000 0.052525
vt 0.462491 -0.000000
vt 0.537509 0.000000
vt 0.375000 0.250000
vt 0.625000 0.500000
vt 0.375000 0.697475
vt 0.125000 0.052525
vt 0.125000 0.250000
vt 0.625000 0.052525
vt 0.875000 0.052525
vt 0.875000 0.250000
vt 0.625000 0.250000
vt 0.462491 1.000000
vt 0.537509 0.750000
vt 0.375000 1.000000
vt 0.462491 0.750000
vt 0.625000 1.000000
vt 0.537509 1.000000
vt 0.625000 0.697475
vn 0.000000 1.000000 0.000000
vn 0.000000 1.000000 0.000000
vn 0.000000 1.000000 0.000000
vn 0.000000 1.000000 0.000000
vn 0.000000 0.000000 -1.000000
vn 0.000000 0.000000 -1.000000
vn 0.000000 0.000000 -1.000000
vn 0.000000 0.000000 -1.000000
vn 0.000000 0.000000 -1.000000
vn 0.000000 0.000000 -1.000000
vn 0.000000 -1.000000 0.000000
vn 0.000000 -1.000000 0.000000
vn 0.000000 -1.000000 0.000000
vn 0.000000 -1.000000 0.000000
vn 1.000000 0.000000 0.000000
vn 1.000000 0.000000 0.000000
vn 1.000000 0.000000 0.000000
vn 1.000000 0.000000 0.000000
vn -1.000000 0.000000 0.000000
vn -1.000000 0.000000 0.000000
vn -1.000000 0.000000 0.000000
vn -1.000000 0.000000 0.000000
vn 0.000000 0.000000 1.000000
vn 0.000000 0.000000 1.000000
vn 0.000000 0.000000 1.000000
vn 0.000000 0.000000 1.000000
vn 0.000000 0.000000 1.000000
vn 0.000000 0.000000 1.000000
vn -0.707107 -0.707107 0.000000
vn -0.707107 -0.707107 0.000000
vn -0.707107 -0.707107 0.000000
vn -0.707107 -0.707107 0.000000
vn 0.707107 -0.707107 0.000000
vn 0.707107 -0.707107 0.000000
vn 0.707107 -0.707107 0.000000
vn 0.707107 -0.707107 0.000000
s off
g col_body
f 1/5/1 2/13/2 4/6/3 3/1/4
f 3/1/5 4/6/6 12/20/7 11/15/8 8/17/9 7/7/10
f 5/14/11 8/17/12 11/15/13 10/19/14
f 9/10/15 12/11/16 4/12/17 2/13/18
f 7/8/19 6/2/20 1/5/21 3/9/22
f 6/2/23 5/3/24 10/4/25 9/10/26 2/13/27 1/5/28
f 5/14/29 6/16/30 7/7/31 8/17/32
f 9/18/33 10/19/34 11/15/35 12/20/36
