# Blender v2.80 (sub 75) OBJ File: ''
# www.blender.org
mtllib YK_Wheel_Large_Base.mtl
o BF_Block_111.000_BF_Block_111.051
v -0.600001 1.000000 0.000001
v -0.500001 1.132023 -0.132022
v -0.500001 0.867977 -0.132022
v -0.500001 1.132023 0.132024
v -0.500001 0.867977 0.132024
v -0.600001 -0.000000 0.000001
v -0.500001 0.132023 -0.132022
v -0.500001 -0.132023 -0.132022
v -0.500001 0.132023 0.132024
v -0.500001 -0.132023 0.132024
v 0.000000 0.000001 0.600002
v -0.132023 -0.132022 0.500001
v 0.132023 -0.132022 0.500002
v -0.132023 0.132023 0.500001
v 0.132023 0.132023 0.500001
v -0.600001 1.000001 -1.000000
v -0.500001 0.867978 -1.132023
v -0.500001 0.867978 -0.867977
v -0.500001 1.132024 -1.132023
v -0.500001 1.132024 -0.867977
v -0.600001 0.000001 -1.000000
v -0.500001 -0.132022 -1.132023
v -0.500001 -0.132022 -0.867977
v -0.500001 0.132024 -1.132023
v -0.500001 0.132024 -0.867977
v -0.000001 1.000000 -1.600001
v 0.132022 1.132023 -1.500001
v 0.132022 0.867977 -1.500001
v -0.132024 1.132023 -1.500001
v -0.132024 0.867977 -1.500001
v -0.000001 -0.000000 -1.600001
v 0.132022 0.132023 -1.500001
v 0.132022 -0.132023 -1.500001
v -0.132024 0.132023 -1.500001
v -0.132024 -0.132023 -1.500001
v 0.000000 1.000001 0.600002
v -0.132023 0.867978 0.500001
v 0.132023 0.867978 0.500002
v -0.132023 1.132023 0.500001
v 0.132023 1.132023 0.500001
v -0.600001 1.000001 0.000000
v -0.500001 0.867978 0.132023
v -0.500001 1.132024 0.132023
v -0.000000 1.600002 -0.000001
v -0.132023 1.500001 0.132022
v 0.132023 1.500002 0.132022
v -0.132023 1.500001 -0.132023
v 0.132023 1.500001 -0.132023
v -0.600001 1.000001 -1.000000
v -0.500001 0.867978 -0.867977
v -0.500001 1.132024 -0.867977
v -0.000000 1.600002 -1.000001
v -0.132023 1.500001 -0.867978
v 0.132023 1.500002 -0.867978
v -0.132023 1.500001 -1.132023
v 0.132023 1.500001 -1.132023
vt 0.428326 0.304379
vt 0.497439 0.235266
vt 0.359213 0.235266
vt 0.497439 0.373492
vt 0.359213 0.373492
vt 0.428326 0.304379
vt 0.497439 0.235266
vt 0.359213 0.235266
vt 0.497439 0.373492
vt 0.359213 0.373492
vt 0.428302 0.304254
vt 0.359189 0.235141
vt 0.497416 0.235141
vt 0.359189 0.373367
vt 0.497416 0.373367
vt 0.428326 0.304379
vt 0.497439 0.235266
vt 0.359213 0.235266
vt 0.497439 0.373492
vt 0.359213 0.373492
vt 0.428326 0.304379
vt 0.497439 0.235266
vt 0.359213 0.235266
vt 0.497439 0.373492
vt 0.359213 0.373492
vt 0.428326 0.304379
vt 0.497439 0.235266
vt 0.359213 0.235266
vt 0.497439 0.373492
vt 0.359213 0.373492
vt 0.428326 0.304379
vt 0.497439 0.235266
vt 0.359213 0.235266
vt 0.497439 0.373492
vt 0.359213 0.373492
vt 0.428302 0.304254
vt 0.359189 0.235141
vt 0.497416 0.235141
vt 0.359189 0.373367
vt 0.497416 0.373367
vt 0.359213 0.373492
vt 0.428326 0.304379
vt 0.359213 0.235266
vt 0.428302 0.304254
vt 0.359189 0.235141
vt 0.497416 0.235141
vt 0.359189 0.373367
vt 0.497416 0.373367
vt 0.359213 0.373492
vt 0.428326 0.304379
vt 0.359213 0.235266
vt 0.428302 0.304254
vt 0.359189 0.235141
vt 0.497416 0.235141
vt 0.359189 0.373367
vt 0.497416 0.373367
vn -0.7971 0.0000 -0.6038
vn -0.7971 0.6038 0.0000
vn -0.7971 -0.0000 0.6038
vn -0.7971 -0.6038 0.0000
vn -0.0000 -0.6038 0.7971
vn -0.6038 0.0000 0.7971
vn 0.0000 0.6038 0.7971
vn 0.6038 0.0000 0.7971
vn 0.6038 0.0000 -0.7971
vn 0.0000 0.6038 -0.7971
vn -0.6038 0.0000 -0.7971
vn 0.0000 -0.6038 -0.7971
vn -0.0000 0.7971 0.6038
vn -0.6038 0.7971 0.0000
vn 0.0000 0.7971 -0.6038
vn 0.6038 0.7971 -0.0000
usemtl Material.039
s 1
f 1/1/1 2/2/1 3/3/1
f 2/2/2 1/1/2 4/4/2
f 1/1/3 5/5/3 4/4/3
f 5/5/4 1/1/4 3/3/4
f 6/6/1 7/7/1 8/8/1
f 7/7/2 6/6/2 9/9/2
f 6/6/3 10/10/3 9/9/3
f 10/10/4 6/6/4 8/8/4
f 11/11/5 12/12/5 13/13/5
f 12/12/6 11/11/6 14/14/6
f 11/11/7 15/15/7 14/14/7
f 15/15/8 11/11/8 13/13/8
f 16/16/4 17/17/4 18/18/4
f 17/17/1 16/16/1 19/19/1
f 16/16/2 20/20/2 19/19/2
f 20/20/3 16/16/3 18/18/3
f 21/21/4 22/22/4 23/23/4
f 22/22/1 21/21/1 24/24/1
f 21/21/2 25/25/2 24/24/2
f 25/25/3 21/21/3 23/23/3
f 26/26/9 27/27/9 28/28/9
f 27/27/10 26/26/10 29/29/10
f 26/26/11 30/30/11 29/29/11
f 30/30/12 26/26/12 28/28/12
f 31/31/9 32/32/9 33/33/9
f 32/32/10 31/31/10 34/34/10
f 31/31/11 35/35/11 34/34/11
f 35/35/12 31/31/12 33/33/12
f 36/36/5 37/37/5 38/38/5
f 37/37/6 36/36/6 39/39/6
f 36/36/7 40/40/7 39/39/7
f 40/40/8 36/36/8 38/38/8
f 43/41/3 41/42/3 42/43/3
f 44/44/13 45/45/13 46/46/13
f 45/45/14 44/44/14 47/47/14
f 44/44/15 48/48/15 47/47/15
f 48/48/16 44/44/16 46/46/16
f 51/49/3 49/50/3 50/51/3
f 52/52/13 53/53/13 54/54/13
f 53/53/14 52/52/14 55/55/14
f 52/52/15 56/56/15 55/55/15
f 56/56/16 52/52/16 54/54/16
o Cube_Cube.014
v -0.500000 0.500000 0.042479
v -0.500000 0.500000 -1.042479
v -0.179452 0.613200 -0.061816
v -0.179452 0.395705 0.155679
v -0.179452 0.692809 -0.358920
v -0.179452 0.098602 0.235288
v -0.179452 0.613200 -0.938184
v -0.179452 0.395705 -1.155679
v -0.179452 0.692809 -0.641080
v -0.179452 0.098602 -1.235288
v -0.179452 -0.343257 -1.235288
v -0.179452 -0.343257 0.235288
v 0.335690 0.098602 -1.235288
v 0.335690 0.692809 -0.641080
v 0.335690 0.395705 -1.155679
v 0.335690 0.613200 -0.938184
v 0.335690 0.098602 0.235288
v 0.335690 0.692809 -0.358920
v 0.335690 0.395705 0.155679
v 0.335690 0.613200 -0.061816
v 0.335690 -0.343257 -1.235288
v 0.278431 0.251962 -1.492638
v 0.335690 -0.343257 0.235288
v 0.335690 1.054141 -0.690459
v 0.335690 0.653051 -1.385167
v 0.335690 0.946669 -1.091548
v 0.278431 0.251962 0.492638
v 0.335690 1.054141 -0.309541
v 0.335690 0.653051 0.385167
v 0.335690 0.946669 0.091548
v -0.500000 0.500000 -0.500000
v -0.179452 -0.343257 -0.500000
v -0.179452 0.692809 -0.500000
v 0.335690 0.692809 -0.500000
v 0.204838 1.054141 -0.500000
v -0.442741 0.500000 0.500000
v -0.500000 0.500000 0.442741
v 0.278431 -0.287235 0.500000
v 0.335690 -0.344324 0.448043
v -0.442741 0.500000 -1.500000
v 0.335690 0.500000 0.442741
v 0.278431 0.500000 0.500000
v -0.500000 0.500000 -1.442741
v 0.278431 -0.287235 -1.500000
v -0.438363 -0.343257 0.079553
v -0.500000 -0.285998 0.042479
v 0.335690 0.500000 -1.442741
v -0.500000 1.442741 0.042479
v -0.442741 1.500000 0.042479
v 0.335690 1.442741 0.014005
v 0.278431 1.500000 0.042479
v 0.278431 0.500000 -1.500000
v -0.438363 -0.343257 -1.079553
v 0.278431 -0.287289 0.492638
v -0.500000 -0.285998 -1.042479
v -0.500000 1.442741 -1.042479
v -0.500000 -0.285998 -0.500000
v -0.438531 -0.343257 -0.500000
v 0.335690 1.442741 -0.500000
v 0.278431 1.500000 -0.500000
v -0.442741 1.500000 -0.500000
v -0.500000 1.442741 -0.500000
v -0.500000 -0.249380 0.442741
v -0.500000 -0.285998 0.406123
v -0.437896 -0.343257 0.412052
v -0.401226 -0.343308 0.448641
v -0.406123 -0.286147 0.500000
v -0.442741 -0.249471 0.500000
v -0.442741 1.500000 -1.042479
v 0.335690 1.442741 -1.014005
v 0.278431 1.500000 -1.042479
v 0.335690 -0.344261 -1.435380
v 0.278431 -0.287289 -1.492638
v -0.500000 -0.249380 -1.442741
v -0.500000 -0.285998 -1.406123
v -0.437896 -0.343257 -1.412052
v -0.401226 -0.343308 -1.448641
v -0.406123 -0.286147 -1.500000
v -0.442741 -0.249471 -1.500000
v -0.406123 1.500000 -1.442741
v -0.442741 1.500000 -1.406123
v -0.500000 1.442741 -1.406123
v -0.500000 1.406123 -1.442741
v -0.442741 1.406123 -1.500000
v -0.406123 1.442741 -1.500000
v 0.335690 1.406123 -1.442741
v 0.335690 1.442741 -1.406123
v 0.278431 1.500000 -1.406123
v 0.241813 1.500000 -1.442741
v 0.241813 1.442741 -1.500000
v 0.278431 1.406123 -1.500000
v 0.390141 -0.343257 -1.235288
v 0.390141 0.251962 -1.492638
v 0.483814 0.206948 -1.417102
v 0.483814 0.952644 -0.676588
v 0.390141 1.054141 -0.690459
v 0.483814 0.578974 -1.319108
v -0.406123 1.500000 0.442741
v -0.442741 1.500000 0.406123
v -0.500000 1.442741 0.406123
v -0.500000 1.406123 0.442741
v -0.442741 1.406123 0.500000
v -0.406123 1.442741 0.500000
v 0.335690 1.406123 0.442741
v 0.335690 1.442741 0.406123
v 0.278431 1.500000 0.406123
v 0.241813 1.500000 0.442741
v 0.241813 1.442741 0.500000
v 0.278431 1.406123 0.500000
v 0.390141 -0.343257 0.235288
v 0.390141 0.653051 -1.385167
v 0.483814 0.852141 -1.048074
v 0.390141 0.946669 -1.091548
v 0.483814 -0.230999 -1.416404
v 0.390141 -0.287289 -1.492638
v 0.483814 -0.250394 -1.396912
v 0.390141 0.251962 0.492638
v 0.483814 0.206948 0.417102
v 0.483814 0.952644 -0.323412
v 0.390141 1.054141 -0.309541
v 0.483814 0.578974 0.319108
v 0.390141 0.653051 0.385167
v 0.483814 0.852141 0.048074
v 0.390141 0.946669 0.091548
v 0.483814 0.952945 -0.500000
v 0.390141 1.054141 -0.500000
v 0.483814 -0.230999 0.416404
v 0.390141 -0.287289 0.492638
v 0.483814 -0.250394 0.396912
v 0.390141 -0.344261 0.435380
v 0.390141 -0.344261 -1.435380
v 0.431177 0.613200 -0.938184
v 0.483814 0.666318 -0.962613
v 0.483814 0.749842 -0.648874
v 0.431177 0.692809 -0.641080
v 0.431177 0.613200 -0.061816
v 0.483814 0.666318 -0.037387
v 0.431177 0.395705 -1.155679
v 0.483814 0.437331 -1.192798
v 0.483814 0.749842 -0.351126
v 0.431177 0.692809 -0.358920
v 0.431177 0.395705 0.155679
v 0.483814 0.437331 0.192798
v 0.431177 0.098602 -1.235288
v 0.483814 0.123896 -1.277733
v 0.483814 0.123896 0.277733
v 0.431177 0.098602 0.235288
v 0.431177 0.692809 -0.500000
v 0.483814 0.749673 -0.500000
v 0.483814 -0.249798 -1.278125
v 0.431177 -0.302220 -1.235288
v 0.431177 -0.302220 0.235288
v 0.483814 -0.249798 0.278125
vt 0.302203 0.052962
vt 0.298283 0.048599
vt 0.295490 0.048603
vt 0.181642 0.048603
vt 0.156263 0.048603
vt 0.156716 0.052973
vt 0.184471 0.052973
vt 0.302203 0.184922
vt 0.302203 0.184922
vt 0.302203 0.182127
vt 0.520407 0.526351
vt 0.517003 0.530704
vt 0.517003 0.530704
vt 0.536646 0.529564
vt 0.533376 0.533566
vt 0.524310 0.533520
vt 0.175831 0.105005
vt 0.169755 0.082329
vt 0.225877 0.048603
vt 0.169755 0.082329
vt 0.175831 0.105005
vt 0.153921 0.112966
vt 0.297832 0.189292
vt 0.295038 0.189292
vt 0.267282 0.189292
vt 0.281998 0.048603
vt 0.270112 0.048603
vt 0.169755 0.048603
vt 0.169755 0.048603
vt 0.153516 0.048522
vt 0.236645 0.127682
vt 0.225877 0.127682
vt 0.267282 0.184922
vt 0.295038 0.184922
vt 0.297832 0.182127
vt 0.149550 0.182127
vt 0.149550 0.184922
vt 0.153921 0.189292
vt 0.661226 0.533520
vt 0.652159 0.533566
vt 0.648889 0.529564
vt 0.149550 0.184922
vt 0.153921 0.189292
vt 0.225877 0.189292
vt 0.225877 0.189292
vt 0.267282 0.189292
vt 0.295038 0.184922
vt 0.295038 0.189292
vt 0.265109 0.184922
vt 0.582000 0.605511
vt 0.582000 0.605511
vt 0.592768 0.605511
vt 0.592768 0.605511
vt 0.236645 0.127682
vt 0.225877 0.127682
vt 0.603536 0.605511
vt 0.603536 0.605511
vt 0.592768 0.633090
vt 0.607305 0.633090
vt 0.607305 0.633090
vt 0.592768 0.633090
vt 0.302203 0.112966
vt 0.297832 0.182127
vt 0.297832 0.112966
vt 0.149550 0.182127
vt 0.295038 0.052973
vt 0.297832 0.055768
vt 0.149550 0.055761
vt 0.153921 0.055768
vt 0.149550 0.052962
vt 0.267282 0.112966
vt 0.297832 0.112966
vt 0.267282 0.052973
vt 0.302203 0.052879
vt 0.302203 0.055761
vt 0.215109 0.127682
vt 0.225877 0.184922
vt 0.642813 0.582834
vt 0.648889 0.560158
vt 0.648889 0.560158
vt 0.642813 0.582834
vt 0.626213 0.599435
vt 0.645646 0.586011
vt 0.628077 0.603489
vt 0.156716 0.184922
vt 0.186645 0.184922
vt 0.184471 0.189292
vt 0.156716 0.189292
vt 0.668532 0.530704
vt 0.662713 0.535000
vt 0.664162 0.526356
vt 0.259322 0.121606
vt 0.259322 0.121606
vt 0.215109 0.127682
vt 0.192432 0.121606
vt 0.192432 0.121606
vt 0.281998 0.048603
vt 0.281998 0.082329
vt 0.281998 0.082329
vt 0.225877 0.112966
vt 0.225877 0.184922
vt 0.578231 0.633090
vt 0.578231 0.633090
vt 0.297832 0.189292
vt 0.297271 0.048526
vt 0.581405 0.609864
vt 0.557458 0.603489
vt 0.559323 0.599435
vt 0.275922 0.105005
vt 0.184471 0.112966
vt 0.225877 0.052973
vt 0.149550 0.112966
vt 0.153921 0.112966
vt 0.149550 0.052879
vt 0.302203 0.112966
vt 0.275922 0.105005
vt 0.302203 0.182127
vt 0.536646 0.560158
vt 0.536646 0.560158
vt 0.536646 0.526432
vt 0.648889 0.526432
vt 0.648889 0.526432
vt 0.660329 0.602477
vt 0.660329 0.602477
vt 0.668532 0.571863
vt 0.668532 0.571863
vt 0.662767 0.568427
vt 0.652129 0.562088
vt 0.606246 0.625343
vt 0.604131 0.609864
vt 0.634600 0.617672
vt 0.521374 0.526356
vt 0.522822 0.535000
vt 0.579289 0.625343
vt 0.550935 0.617672
vt 0.536646 0.526432
vt 0.542722 0.582834
vt 0.542722 0.582834
vt 0.559323 0.599435
vt 0.169755 0.048603
vt 0.169755 0.051735
vt 0.655287 0.596823
vt 0.525206 0.602477
vt 0.530248 0.596823
vt 0.547617 0.624887
vt 0.533406 0.562088
vt 0.539889 0.586011
vt 0.517003 0.571863
vt 0.517003 0.571863
vt 0.184471 0.189292
vt 0.149550 0.112966
vt 0.522769 0.568427
vt 0.184471 0.184922
vt 0.547617 0.624887
vt 0.225877 0.048603
vt 0.525206 0.602477
vt 0.626213 0.599435
vt 0.153921 0.182127
vt 0.156716 0.184922
vt 0.156716 0.189292
vt 0.153921 0.182127
vt 0.592768 0.625366
vt 0.592768 0.609851
vt 0.637918 0.624887
vt 0.637918 0.624887
vt 0.664162 0.526356
vt 0.153470 0.048599
vt 0.668532 0.530704
vn -0.5787 -0.5732 -0.5801
vn -0.5801 -0.5713 -0.5806
vn -0.5800 -0.5730 -0.5790
vn -0.6793 -0.7339 0.0005
vn 0.0000 0.0000 -1.0000
vn 0.0736 -0.6570 0.7503
vn 0.0677 -0.6539 0.7536
vn 0.0000 -0.6160 0.7878
vn 0.7071 -0.7071 -0.0035
vn 0.7347 -0.6277 0.2573
vn 1.0000 0.0000 0.0000
vn 0.0000 1.0000 0.0000
vn -0.0006 -1.0000 0.0011
vn 0.0000 -1.0000 -0.0000
vn -0.0003 -1.0000 0.0005
vn -0.0006 -1.0000 -0.0011
vn 0.0000 -1.0000 -0.0050
vn -0.0003 -1.0000 -0.0042
vn -1.0000 0.0000 0.0000
vn -0.5774 0.5774 0.5774
vn -0.5774 0.5774 0.5773
vn 0.7347 -0.6277 -0.2573
vn 0.7071 -0.7071 0.0035
vn 0.0000 0.7071 0.7071
vn 0.7071 0.7071 0.0000
vn 0.0000 -0.9914 -0.1305
vn 0.0000 -0.9914 0.1305
vn 0.0000 0.9914 -0.1305
vn 0.0000 0.9940 -0.1095
vn 0.7071 0.0000 -0.7071
vn 0.0000 0.0000 1.0000
vn -0.5840 -0.5740 -0.5740
vn -0.5803 -0.5738 -0.5779
vn -0.5784 -0.5737 0.5799
vn -0.5803 -0.5738 0.5779
vn -0.5800 -0.5730 0.5790
vn -0.5787 -0.5732 0.5801
vn 0.0000 -0.5000 0.8660
vn 0.0000 -0.1305 0.9914
vn 0.7419 -0.5766 0.3421
vn 0.7045 -0.3280 0.6294
vn 0.7128 -0.3715 0.5949
vn 0.7425 -0.5839 0.3284
vn 0.7027 -0.2949 -0.6475
vn 0.6942 -0.2388 -0.6790
vn 0.0000 -0.8660 0.5000
vn 0.0000 -0.8660 -0.5000
vn 0.0000 -0.1305 -0.9914
vn 0.0000 0.9940 0.1095
vn 0.0000 0.9914 0.1305
vn 0.0000 0.7071 -0.7071
vn 0.7385 -0.6686 -0.0876
vn 0.7425 -0.5839 -0.3284
vn 0.7419 -0.5766 -0.3421
vn 0.7385 -0.6686 -0.0872
vn -0.6793 -0.7339 -0.0005
vn -0.7071 0.0000 0.7071
vn 0.0000 0.4903 -0.8716
vn 0.0000 0.5000 -0.8660
vn 0.0000 0.1305 -0.9914
vn 0.0000 0.1246 -0.9922
vn 0.0000 -0.5000 -0.8660
vn 0.5774 0.5774 -0.5773
vn 0.5773 0.5773 -0.5774
vn 0.5774 0.5774 -0.5774
vn 0.7027 -0.2949 0.6475
vn 0.6942 -0.2388 0.6790
vn 0.1627 -0.6994 0.6959
vn 0.7125 0.3698 0.5963
vn 0.7040 0.3258 0.6311
vn 0.7419 0.5757 0.3439
vn 0.7424 0.5831 0.3298
vn 0.6551 -0.1154 -0.7467
vn 0.6486 -0.0816 -0.7568
vn 0.7045 -0.3280 -0.6294
vn 0.7128 -0.3715 -0.5949
vn 0.0000 0.1305 0.9914
vn 0.0000 0.1246 0.9922
vn 0.6908 0.0023 0.7231
vn 0.0000 0.8660 0.5000
vn -0.6811 -0.7322 0.0001
vn -0.7071 0.7071 0.0000
vn 0.0000 0.4903 0.8716
vn 0.0000 0.5000 0.8660
vn 0.7071 0.0000 0.7071
vn -0.7071 0.0000 -0.7071
vn 0.6546 0.1137 0.7474
vn 0.6481 0.0800 0.7573
vn 0.7280 -0.0031 -0.6855
vn -0.6811 -0.7322 -0.0001
vn -0.0008 -1.0000 0.0011
vn -0.0003 -1.0000 0.0042
vn 0.0000 -1.0000 0.0050
vn 0.0055 -0.7111 -0.7031
vn -0.5784 -0.5737 -0.5799
vn 0.0000 0.8660 -0.5000
vn 0.6296 -0.0004 -0.7769
vn -0.0008 -1.0000 -0.0011
vn -0.0003 -1.0000 -0.0005
vn 0.7385 0.6684 0.0884
vn 0.7344 0.6787 0.0000
vn 0.7385 0.6684 0.0887
vn 0.5774 0.5774 0.5774
vn 0.5774 0.5774 0.5773
vn -0.5774 0.5773 -0.5774
vn -0.5773 0.5773 -0.5774
vn -0.5773 0.5774 -0.5774
vn -0.5773 0.5774 -0.5773
vn -0.5774 0.5774 -0.5774
vn -0.5840 -0.5740 0.5740
vn -0.5801 -0.5713 0.5806
vn -0.0007 -0.6709 0.7415
vn -0.5773 0.5773 0.5774
vn 0.5773 0.5773 0.5774
vn 0.7343 -0.6788 -0.0000
vn 0.0000 -0.7089 -0.7053
vn 0.7385 0.6684 -0.0887
vn 0.7385 0.6684 -0.0884
vn 0.7419 0.5757 -0.3439
vn 0.7424 0.5831 -0.3298
vn 0.6546 0.1137 -0.7474
vn 0.6481 0.0800 -0.7573
vn 0.7385 -0.6686 0.0872
vn 0.7385 -0.6686 0.0876
vn 0.6486 -0.0816 0.7568
vn 0.6551 -0.1154 0.7467
vn 0.7040 0.3258 -0.6311
vn 0.7125 0.3698 -0.5963
vn 0.6296 -0.0004 0.7769
usemtl None
s 1
f 134/57/17 133/58/18 132/59/19
f 101/60/20 121/61/20 120/62/20 102/63/20
f 141/64/21 146/65/21 147/66/21
f 95/67/22 184/68/23 110/69/24
f 208/70/25 209/71/25 185/72/26
f 60/73/27 62/74/27 88/75/27
f 73/76/27 75/77/27 97/78/27
f 136/79/28 137/80/28 125/81/28
f 67/82/29 109/83/30 132/59/31
f 68/84/32 79/85/33 95/86/34
f 65/87/27 89/88/27 88/75/27
f 112/89/35 138/90/35 139/91/35
f 158/92/36 159/93/37 154/94/36
f 172/95/38 206/96/39 207/97/39
f 164/98/40 163/99/40 154/94/40 159/93/40
f 117/100/28 116/101/28 127/102/28 125/81/28
f 143/103/41 144/104/41 127/102/41 126/105/41
f 197/106/42 74/107/42 90/108/30 204/109/30
f 70/110/43 90/111/30 89/88/30 65/87/43
f 90/108/30 70/112/43 191/113/43 204/109/30
f 182/114/28 152/115/44 80/116/45 91/117/28
f 108/118/46 147/66/46 142/119/46 103/120/46
f 165/121/47 164/98/47 159/93/47
f 159/93/47 158/92/47 165/121/47
f 132/59/19 131/122/48 130/123/49
f 124/124/50 119/125/51 121/61/52 123/126/53
f 58/127/35 99/128/35 130/123/35 111/129/35
f 100/130/21 134/57/21 135/131/21
f 74/132/27 90/111/27 115/133/27
f 71/134/54 69/135/55 200/136/55 194/137/54
f 188/138/56 194/137/57 195/139/58 189/140/59
f 161/141/41 106/142/41 107/143/41 162/144/41
f 171/145/60 170/146/61 172/95/38 187/147/38
f 72/148/62 70/110/43 65/87/43 63/149/62
f 61/150/42 74/132/42 76/151/63 59/152/63
f 62/74/64 73/76/64 79/85/21 68/84/21
f 77/153/47 69/154/55 66/155/55 67/82/47
f 112/89/35 58/127/35 87/156/35 118/157/35
f 84/158/65 176/159/66 182/114/28 91/117/28
f 89/88/30 90/111/30 74/132/42 61/150/42
f 136/79/67 145/160/67 146/65/67 141/64/67
f 69/154/27 77/153/27 128/161/27
f 128/161/27 103/120/27 69/154/27
f 196/162/68 193/163/69 192/164/70 197/106/71
f 71/165/27 103/120/27 72/148/27
f 142/119/27 143/103/27 126/105/27
f 76/151/27 74/132/27 115/133/27 106/142/27
f 71/165/27 69/154/27 103/120/27
f 57/166/35 87/156/35 113/167/35 102/63/35
f 109/83/72 111/129/72 131/122/72 132/59/72
f 119/125/73 124/124/73 92/168/73 93/169/73
f 123/126/47 94/170/47 124/124/47
f 135/131/21 96/171/21 108/118/21 100/130/21
f 69/154/55 71/165/54 64/172/54 66/155/55
f 140/173/21 141/64/21 147/66/21
f 96/171/21 140/173/21 147/66/21 108/118/21
f 73/174/64 203/175/64 208/70/21 79/176/21
f 77/177/47 148/178/47 207/97/47
f 81/179/74 167/180/75 149/181/76 78/182/77
f 59/152/63 76/151/63 75/77/78 60/73/78
f 144/104/79 143/103/80 142/119/80
f 142/119/80 147/66/80 146/65/81
f 170/146/27 150/183/27 201/184/27 206/96/27
f 151/185/27 190/186/27 189/140/27 168/187/27
f 184/68/82 186/188/26 185/72/26 183/189/83
f 175/190/27 179/191/27 193/163/27 196/162/27
f 60/73/78 75/77/78 73/76/64 62/74/64
f 79/176/33 166/192/33 186/188/33 95/67/33
f 198/193/78 75/194/78 76/195/63 192/164/63
f 166/196/21 79/85/21 208/197/21
f 189/140/27 195/139/27 153/198/27 168/187/27
f 95/67/22 186/188/84 184/68/23
f 178/199/85 177/200/86 179/191/87 180/201/88
f 202/202/89 203/175/90 198/193/91 199/203/92
f 110/69/47 184/68/47 173/204/93 83/205/94
f 154/94/28 163/99/28 107/143/28 105/206/28
f 185/72/27 209/71/27 183/189/27
f 97/78/95 98/207/95 94/170/95 95/86/95
f 195/139/27 201/184/27 150/183/27 153/198/27
f 174/208/27 202/202/27 199/203/27 177/200/27
f 87/156/35 57/166/35 104/209/35 118/157/35
f 115/133/27 90/111/27 70/110/27
f 86/210/96 180/201/96 176/159/66 84/158/65
f 203/175/64 73/174/64 75/194/78 198/193/78
f 187/147/38 172/95/38 207/97/39 148/178/39
f 102/63/97 113/167/97 114/211/97 101/60/97
f 112/89/98 118/157/98 117/100/98 125/81/98
f 85/212/99 83/205/94 173/204/93 178/199/100
f 88/75/30 114/211/30 109/83/30 67/82/29
f 62/74/27 68/84/27 88/75/27
f 88/75/27 89/88/27 61/150/27
f 61/150/27 59/152/27 88/75/27
f 59/152/27 60/73/27 88/75/27
f 70/112/43 72/213/62 188/138/62 191/113/43
f 158/92/47 92/168/47 98/207/47 165/121/47
f 101/60/30 114/211/30 88/75/30 68/84/32
f 160/214/101 165/121/101 98/207/101 97/78/101
f 156/215/98 155/216/98 105/206/98 104/209/98
f 102/63/35 120/62/35 119/125/35
f 157/217/35 104/209/35 57/166/35 93/169/35
f 177/200/27 199/203/27 193/163/27 179/191/27
f 181/218/27 175/190/27 196/162/27 205/219/27
f 107/143/28 116/101/28 117/100/28 105/206/28
f 162/144/28 107/143/28 163/99/28
f 145/160/28 136/79/28 125/81/28 127/102/28
f 105/206/28 155/216/28 154/94/28
f 106/142/27 161/141/27 160/214/27
f 97/78/27 95/86/27 73/76/27
f 95/86/27 79/85/27 73/76/27
f 126/105/27 72/148/27 103/120/27 142/119/27
f 75/77/27 76/151/27 97/78/27
f 140/173/102 96/171/102 99/128/102 139/91/102
f 160/214/27 97/78/27 76/151/27 106/142/27
f 127/102/28 144/104/28 145/160/28
f 186/188/26 166/192/25 208/70/25 185/72/26
f 173/204/103 184/68/82 183/189/83 174/208/104
f 58/127/35 112/89/35 139/91/35 99/128/35
f 157/217/35 156/215/35 104/209/35
f 100/130/105 108/118/105 103/120/105 128/161/105
f 111/129/106 109/83/106 114/211/106 113/167/106
f 192/164/63 76/195/63 74/107/42 197/106/42
f 132/59/31 133/58/107 67/82/29
f 133/58/107 128/161/108 67/82/29
f 128/161/108 77/153/109 67/82/29
f 100/130/110 128/161/110 133/58/110 134/57/110
f 117/100/98 118/157/98 104/209/98 105/206/98
f 98/207/47 92/168/47 124/124/47 94/170/47
f 93/169/73 92/168/73 158/92/73 157/217/73
f 71/165/54 72/148/62 63/149/62 64/172/54
f 135/131/111 134/57/17 132/59/19 130/123/49
f 116/101/41 115/133/41 126/105/41 127/102/41
f 152/115/44 169/220/112 82/221/112 80/116/45
f 209/71/113 208/70/113 203/175/90 202/202/89
f 113/167/35 87/156/35 58/127/35 111/129/35
f 187/147/109 148/178/109 77/177/109 128/222/109
f 95/86/34 122/223/114 68/84/32
f 122/223/114 121/61/115 68/84/32
f 121/61/115 101/60/30 68/84/32
f 72/213/62 71/134/54 194/137/54 188/138/62
f 202/202/27 174/208/27 183/189/27 209/71/27
f 206/96/27 172/95/27 170/146/27
f 149/181/76 171/145/21 129/224/21 78/182/77
f 88/75/27 67/82/27 66/155/27
f 66/155/27 64/172/27 88/75/27
f 64/172/27 63/149/27 88/75/27
f 63/149/27 65/87/27 88/75/27
f 130/123/35 131/122/35 111/129/35
f 57/166/35 102/63/35 119/125/35 93/169/35
f 175/190/116 181/218/117 182/114/117 176/159/118
f 169/220/112 167/180/75 81/179/74 82/221/112
f 165/121/119 160/214/119 162/144/119 164/98/120
f 138/90/121 137/80/122 136/79/123
f 136/79/123 141/64/124 140/173/125
f 145/160/79 144/104/79 142/119/80 146/65/81
f 119/125/51 120/62/126 121/61/52
f 121/61/52 122/223/127 123/126/53
f 94/170/128 123/126/128 122/223/128 95/86/128
f 96/171/102 135/131/102 130/123/102 99/128/102
f 154/94/36 155/216/129 156/215/129
f 139/91/121 138/90/121 136/79/123 140/173/125
f 160/214/119 161/141/130 162/144/119
f 162/144/119 163/99/120 164/98/120
f 157/217/129 158/92/36 154/94/36 156/215/129
f 197/106/71 204/109/131 205/219/131 196/162/68
f 171/145/132 187/147/132 128/222/132 129/224/132
f 116/101/41 107/143/41 106/142/41 115/133/41
f 152/115/133 151/185/134 168/187/135 169/220/136
f 151/185/134 152/115/133 182/114/117 181/218/117
f 173/204/103 174/208/104 177/200/86 178/199/85
f 207/97/47 200/136/55 69/135/55 77/177/47
f 149/181/137 150/183/138 170/146/61 171/145/60
f 115/133/27 70/110/27 72/148/27 126/105/27
f 176/159/118 180/201/88 179/191/87 175/190/116
f 205/219/131 204/109/131 191/113/139 190/186/140
f 194/137/57 200/136/141 201/184/142 195/139/58
f 168/187/135 153/198/143 167/180/144 169/220/136
f 188/138/56 189/140/59 190/186/140 191/113/139
f 199/203/92 198/193/91 192/164/70 193/163/69
f 153/198/143 150/183/138 149/181/137 167/180/144
f 200/136/141 207/97/145 206/96/145 201/184/142
f 181/218/27 205/219/27 190/186/27 151/185/27
f 125/81/98 137/80/98 138/90/98 112/89/98
f 85/212/99 178/199/100 180/201/96 86/210/96
