# This file uses centimeters as units for non-parametric coordinates.

g default
v -0.401142 -0.000000 0.401142
v 0.401142 -0.000000 0.401142
v -0.401142 1.000000 0.401142
v 0.401142 1.000000 0.401142
v -0.401142 1.000000 -0.401142
v 0.401142 1.000000 -0.401142
v -0.401142 -0.000000 -0.401142
v 0.401142 -0.000000 -0.401142
v -0.450000 -0.000000 0.450000
v 0.450000 -0.000000 0.450000
v -0.450000 1.000000 0.450000
v 0.450000 1.000000 0.450000
v -0.450000 1.000000 -0.450000
v 0.450000 1.000000 -0.450000
v -0.450000 -0.000000 -0.450000
v 0.450000 -0.000000 -0.450000
vt 0.390778 0.371804
vt 0.630935 0.371804
vt 0.630935 0.638645
vt 0.390778 0.638645
vt 0.390778 0.371804
vt 0.630935 0.371804
vt 0.630935 0.638645
vt 0.390778 0.638645
vt 0.390778 0.371804
vt 0.630935 0.371804
vt 0.630935 0.638645
vt 0.390778 0.638645
vt 0.390778 0.371804
vt 0.630935 0.371804
vt 0.630935 0.638645
vt 0.390778 0.638645
vt 0.390778 0.371804
vt 0.630935 0.371804
vt 0.630935 0.638645
vt 0.390778 0.638645
vt 0.390778 0.371804
vt 0.630935 0.371804
vt 0.630935 0.638645
vt 0.390778 0.638645
vt 0.390778 0.371804
vt 0.630935 0.371804
vt 0.630935 0.638645
vt 0.390778 0.638645
vt 0.390778 0.371804
vt 0.630935 0.371804
vt 0.630935 0.638645
vt 0.390778 0.638645
vn 0.000000 0.000000 -1.000000
vn 0.000000 0.000000 -1.000000
vn 0.000000 0.000000 -1.000000
vn 0.000000 0.000000 -1.000000
vn 0.000000 0.000000 1.000000
vn 0.000000 0.000000 1.000000
vn 0.000000 0.000000 1.000000
vn 0.000000 0.000000 1.000000
vn -1.000000 0.000000 0.000000
vn -1.000000 0.000000 0.000000
vn -1.000000 0.000000 0.000000
vn -1.000000 0.000000 0.000000
vn 1.000000 0.000000 0.000000
vn 1.000000 0.000000 0.000000
vn 1.000000 0.000000 0.000000
vn 1.000000 0.000000 0.000000
vn 0.000000 0.000000 1.000000
vn 0.000000 0.000000 1.000000
vn 0.000000 0.000000 1.000000
vn 0.000000 0.000000 1.000000
vn 0.000000 0.000000 -1.000000
vn 0.000000 0.000000 -1.000000
vn 0.000000 0.000000 -1.000000
vn 0.000000 0.000000 -1.000000
vn 1.000000 0.000000 0.000000
vn 1.000000 0.000000 0.000000
vn 1.000000 0.000000 0.000000
vn 1.000000 0.000000 0.000000
vn -1.000000 0.000000 0.000000
vn -1.000000 0.000000 0.000000
vn -1.000000 0.000000 0.000000
vn -1.000000 0.000000 0.000000
s off
g geo_shield2
f 1/9/1 3/12/2 4/11/3 2/10/4
f 5/13/5 7/16/6 8/15/7 6/14/8
f 2/1/9 4/4/10 6/3/11 8/2/12
f 7/5/13 5/8/14 3/7/15 1/6/16
f 9/17/17 10/18/18 12/19/19 11/20/20
f 13/21/21 14/22/22 16/23/23 15/24/24
f 10/25/25 16/26/26 14/27/27 12/28/28
f 15/29/29 9/30/30 11/31/31 13/32/32
