# Blender v2.82 (sub 7) OBJ File: 'DLScouterRadar.blend'
# www.blender.org
mtllib DLScouterRadarRadarx5Collider.mtl
o DLRadar2
v -0.217731 0.521229 0.321551
v 0.233691 0.521229 0.321551
v -0.283442 0.321229 0.192262
v -0.342020 0.321229 0.000840
v -0.342020 0.521229 0.000840
v 0.299401 0.321229 0.192262
v 0.233691 0.321229 0.321551
v -0.217731 0.321229 0.321551
v 0.007980 0.021229 0.100840
v 0.078691 0.021229 0.071551
v -0.062731 0.021229 0.071551
v -0.092020 0.021229 0.000840
v -0.062731 0.021229 -0.069870
v 0.007980 0.021229 -0.099160
v 0.078691 0.021229 -0.069870
v 0.107980 0.021229 0.000840
v 0.357980 0.321229 0.000840
v 0.299401 0.321229 -0.190581
v -0.283442 0.321229 -0.190581
v -0.095574 0.821229 0.275840
v -0.224837 0.801229 0.238453
v -0.292020 0.801229 0.164383
v -0.292020 0.801229 -0.163952
v -0.095574 0.821229 -0.275410
v -0.224837 0.801229 -0.238022
v 0.111533 0.821229 0.275840
v 0.111533 0.821229 -0.275410
v -0.133442 0.971229 -0.141206
v 0.007980 0.971229 -0.199785
v -0.192020 0.971229 0.000215
v -0.133442 0.971229 0.141637
v 0.007980 0.971229 0.200215
v 0.149401 0.971229 0.141637
v 0.207980 0.971229 0.000215
v 0.149401 0.971229 -0.141206
v 0.357980 0.521229 0.000840
v 0.240796 0.801229 0.238453
v 0.307980 0.801229 0.164383
v 0.307980 0.801229 -0.163952
v 0.240796 0.801229 -0.238022
v 0.233691 0.521229 -0.319870
v -0.217731 0.521229 -0.319870
v 0.233691 0.321229 -0.319870
v -0.217731 0.321229 -0.319870
vt 0.000000 0.000000
vt 0.000000 0.000000
vt 0.000000 0.000000
vt 0.000000 0.000000
vt 0.000000 0.000000
vt 0.852864 0.301659
vt 0.852010 0.344741
vt 0.556522 0.260925
vt 0.000000 0.000000
vt 0.000000 0.000000
vt 0.564419 0.260925
vt 0.000000 0.000000
vt 0.660954 0.255800
vt 0.146389 0.620988
vt 0.000000 0.000000
vt 0.000000 0.000000
vt 0.361350 0.650871
vt 0.361350 0.783336
vt 0.000000 0.000000
vt 0.000000 0.000000
vt 0.556522 0.260925
vt 0.564419 0.260925
vt 0.119284 0.650871
vt 0.119284 0.783336
vt 0.000000 0.000000
vt 0.000000 0.000000
vt 0.000000 0.000000
vt 0.000000 0.000000
vt 0.824119 0.301659
vt 0.852864 0.301659
vt 0.852864 0.329171
vt 0.000000 0.000000
vt 0.000000 0.000000
vt 0.276374 0.844660
vt 0.217539 0.844660
vt 0.334245 0.813219
vt 0.000000 0.000000
vt 0.660954 0.361427
vt 0.000000 0.000000
vt 0.161525 0.670701
vt 0.852864 0.329171
vt 0.161525 0.837949
vt 0.161525 0.591147
vt 0.133024 0.837949
vt 0.000000 0.000000
vt -0.590877 0.501212
vt -0.560047 0.426781
vt -0.485614 0.395950
vt -0.411182 0.426781
vt -0.380351 0.501212
vt -0.411182 0.575645
vt -0.485614 0.606475
vt -0.560047 0.575645
vt 0.497707 0.327904
vt 0.497707 0.320007
vt 0.497707 0.327904
vt 0.497707 0.320007
vt 0.000000 0.000000
vt 0.000000 0.000000
vt 0.000000 0.000000
vt 0.700639 0.361427
vt 0.000000 0.000000
vt 0.768240 0.344741
vt 0.212579 0.837949
vt 0.700639 0.255800
vt 0.341088 0.582809
vt 0.341088 0.582809
vt 0.161525 0.582809
vt 0.161525 0.582809
vt 0.572315 0.260925
vt 0.000000 0.000000
vt 0.158703 0.844660
vt 0.334245 0.620988
vt 0.497707 0.335800
vt 0.146389 0.813219
vt 0.276374 0.844660
vt 0.364246 0.698686
vt 0.364246 0.698686
vt 0.364246 0.757522
vt 0.364246 0.639851
vt 0.000000 0.000000
vt 0.217539 0.844660
vt 0.364246 0.639851
vt 0.341088 0.837949
vt 0.161525 0.837949
vt 0.852864 0.274146
vt 0.000000 0.000000
vn 0.3052 0.2600 -0.9161
vn -0.9562 -0.0001 0.2926
vn -0.5537 -0.6830 -0.4763
vn -0.3082 0.5899 -0.7463
vn 0.9844 0.1758 0.0000
vn -0.5537 -0.6830 0.4763
vn -0.9844 0.1758 0.0000
vn -0.3052 0.2600 -0.9161
vn 0.9564 -0.0006 -0.2920
vn 0.3082 0.5899 0.7463
vn 0.3054 0.2638 0.9149
vn -0.3054 0.2638 0.9149
vn -0.9564 -0.0006 -0.2920
vn 0.0000 0.0794 0.9968
vn 0.0000 -1.0000 -0.0000
vn -0.7612 -0.6485 -0.0000
vn -0.7376 -0.6284 -0.2472
vn 0.7612 -0.6485 -0.0000
vn 0.6440 -0.6657 -0.3769
vn 0.6484 -0.6645 -0.3716
vn 0.5537 -0.6830 0.4763
vn 0.6440 -0.6657 0.3769
vn 0.6484 -0.6645 0.3716
vn 0.0000 0.4502 0.8929
vn -0.1649 0.5328 0.8300
vn -0.2107 0.5526 0.8064
vn 0.9161 0.0229 0.4004
vn 0.8977 0.0315 0.4395
vn 0.8676 0.0439 0.4953
vn 0.0000 0.0772 -0.9970
vn 0.5537 -0.6830 -0.4763
vn -0.4972 0.6451 0.5802
vn -0.5188 0.6491 0.5564
vn 0.8672 0.0427 -0.4961
vn -0.7376 -0.6284 0.2472
vn -0.8676 0.0439 0.4953
vn 0.4972 0.6451 -0.5802
vn 0.5188 0.6491 -0.5564
vn 0.2107 0.5526 -0.8064
vn 0.1649 0.5328 -0.8300
vn 0.7734 0.6339 -0.0000
vn 0.6506 0.6577 0.3797
vn 0.7377 0.6228 0.2608
vn -0.7734 0.6339 -0.0000
vn -0.6506 0.6577 -0.3797
vn -0.7377 0.6228 -0.2608
vn -0.7377 0.6228 0.2608
vn 0.7377 0.6228 -0.2608
vn -0.8672 0.0427 -0.4961
vn 0.0000 1.0000 0.0000
vn 0.0000 0.4502 -0.8929
vn 0.0000 -0.5926 -0.8055
vn 0.0000 -0.5926 0.8055
vn 0.9562 -0.0001 0.2926
usemtl Color_M03.002
s off
f 27/1/1 40/2/1 41/3/1
f 22/4/2 5/5/2 4/6/2 3/7/2
f 13/8/3 19/9/3 44/10/3 14/11/3
f 29/12/4 24/13/4 25/14/4 28/15/4
f 36/16/5 39/17/5 38/18/5
f 8/19/6 3/20/6 11/21/6 9/22/6
f 23/23/7 5/5/7 22/24/7
f 25/25/8 24/26/8 42/27/8
f 39/28/9 36/29/9 17/30/9 18/31/9
f 26/32/10 37/33/10 33/34/10 32/35/10
f 37/36/11 26/32/11 2/37/11
f 20/38/12 21/39/12 1/40/12
f 23/23/13 19/41/13 4/6/13 5/5/13
s 1
f 1/42/14 8/43/14 7/44/14 2/37/14 26/32/14 20/45/14
f 12/46/15 13/47/15 14/48/15 15/49/15 16/50/15 10/51/15 9/52/15 11/53/15
f 12/54/16 4/6/16 19/9/17 13/55/17
f 17/30/18 16/56/18 15/57/19 18/58/20
f 7/59/21 9/22/21 10/51/22 6/60/23
f 26/61/24 32/62/25 20/38/26
f 6/63/27 38/18/28 37/36/29 2/64/29 7/44/29
f 24/13/30 27/65/30 41/66/30 43/67/30 44/68/30 42/69/30
f 16/56/18 17/30/18 6/60/23 10/51/22
f 15/70/19 14/11/31 43/71/31 18/58/20
f 32/35/25 31/72/32 21/39/33 20/38/26
f 40/73/34 39/28/34 18/31/34 43/71/34 41/3/34
f 3/20/35 4/6/16 12/54/16 11/74/35
f 1/40/36 21/75/36 22/4/36 3/7/36 8/43/36
f 35/76/37 40/2/38 27/1/39 29/12/40
f 34/77/41 33/34/42 37/33/42 38/18/43
f 30/78/44 28/15/45 25/14/45 23/23/46
f 21/75/33 31/79/32 30/78/44 22/4/47
f 39/28/48 40/73/38 35/80/37 34/77/41
f 42/27/49 44/10/49 19/41/49 23/81/49 25/25/49
f 34/77/50 35/76/50 29/82/50 28/83/50 30/78/50 31/79/50 32/35/50 33/34/50
f 29/12/40 27/1/39 24/13/51
f 43/67/52 14/11/52 44/10/52
f 9/22/53 7/84/53 8/85/53
f 30/78/44 23/23/46 22/24/47
f 34/77/41 38/18/43 39/17/48
f 6/86/27 17/30/54 36/16/54 38/87/28
