# Blender v2.90.1 OBJ File: 'GT_Butterfly_Blocks.blend'
# www.blender.org
v 1.683352 0.000016 2.249036
v 1.721232 0.240016 2.211128
v 1.824748 0.415708 2.107589
v 1.892962 0.463660 2.039369
v 1.966166 0.480016 1.966164
v 2.039372 0.463662 1.892960
v 2.107592 0.415708 1.824746
v 2.211130 0.240016 1.721229
v 2.249038 0.000016 1.683350
v 2.211159 -0.239984 1.721259
v 2.107642 -0.415676 1.824796
v 2.039428 -0.463628 1.893016
v 1.966225 -0.479984 1.966222
v 1.893018 -0.463627 2.039425
v 1.824798 -0.415675 2.107639
v 1.721260 -0.239984 2.211156
v 0.526220 0.239872 1.016118
v 0.629737 0.415564 0.912580
v 0.697951 0.463516 0.844360
v 0.771155 0.479872 0.771155
v 0.844361 0.463517 0.697951
v 0.912580 0.415564 0.629737
v 1.016119 0.239872 0.526220
v 1.054027 -0.000128 0.488341
v 1.016148 -0.240128 0.526249
v 0.912631 -0.415820 0.629788
v 0.844417 -0.463772 0.698007
v 0.771213 -0.480128 0.771213
v 0.698007 -0.463772 0.844417
v 0.629788 -0.415820 0.912631
v 0.526249 -0.240128 1.016148
v 0.488341 -0.000128 1.054027
vt 0.071645 0.779245
vt 0.279695 0.987414
vt 0.367297 0.779245
vt 0.071645 0.808350
vt 0.367297 0.839583
vt 0.367297 0.808350
vt 0.159020 0.691762
vt 0.071645 0.899920
vt 0.159020 0.691762
vt 0.219357 0.691762
vt 0.000000 0.000000
vt 0.219357 0.987414
vt 0.071645 0.870815
vt 0.367297 0.839583
vt 0.367297 0.870815
vt 0.219357 0.691762
vt 0.279695 0.691762
vt 0.071645 0.779245
vt 0.000000 0.000000
vt 0.000000 0.000000
vt 0.071645 0.870815
vt 0.071645 0.839583
vt 0.279695 0.691762
vt 0.071645 0.808350
vt 0.071645 0.899920
vt 0.000000 0.000000
vt 0.071645 0.839583
vt 0.219357 0.987414
vt 0.367297 0.779245
vt 0.000000 0.000000
vt 0.367297 0.870815
vt 0.159020 0.987414
vt 0.279695 0.987414
vt 0.367297 0.899920
vt 0.000000 0.000000
vt 0.000000 0.000000
vt 0.000000 0.000000
vt 0.367297 0.808350
vt 0.159020 0.987414
vt 0.367297 0.899920
vt 0.000000 0.000000
vt 0.000000 0.000000
vn -0.5432 -0.6402 0.5433
vn -0.1104 0.9877 0.1103
vn 0.7071 0.0001 0.7071
vn 0.6901 -0.2179 -0.6901
vn 0.1104 -0.9877 -0.1103
vn -0.6901 -0.2179 0.6901
vn -0.3148 0.8955 0.3147
vn -0.6345 0.4414 0.6345
vn -0.6901 0.2179 0.6901
vn -0.7071 -0.0001 -0.7071
vn -0.5433 0.6402 0.5432
vn 0.6345 0.4414 -0.6345
vn 0.6901 0.2179 -0.6901
vn 0.6344 0.4414 -0.6345
vn 0.4384 -0.7846 -0.4383
vn 0.5433 -0.6402 -0.5432
vn 0.3148 -0.8955 -0.3147
vn 0.4383 0.7846 -0.4384
vn -0.2150 -0.9526 0.2151
vn -0.1103 -0.9877 0.1104
vn 0.2150 0.9526 -0.2151
vn 0.1103 0.9878 -0.1104
vn -0.3147 -0.8955 0.3148
s off
f 15/1/1 31/2/1 30/3/1
f 4/4/2 20/5/2 19/6/2
f 8/7/3 7/8/3 2/9/3
f 9/10/4 25/11/4 24/12/4
f 12/13/5 28/14/5 27/15/5
f 1/16/6 31/2/6 16/17/6
f 19/6/7 3/18/7 4/19/7
f 15/1/1 16/17/1 31/2/1
f 4/4/2 5/20/2 20/5/2
f 6/21/3 5/22/3 4/4/3
f 4/4/3 3/18/3 6/21/3
f 3/18/3 2/9/3 7/8/3
f 6/21/3 3/18/3 7/8/3
f 2/9/3 1/16/3 9/10/3
f 1/16/3 16/17/3 10/23/3
f 16/17/3 15/1/3 10/23/3
f 15/1/3 14/24/3 11/25/3
f 10/23/3 15/1/3 11/25/3
f 14/24/3 13/26/3 12/13/3
f 12/13/3 11/25/3 14/24/3
f 10/23/3 9/10/3 1/16/3
f 9/10/3 8/7/3 2/9/3
f 9/10/4 10/23/4 25/11/4
f 12/13/5 13/27/5 28/14/5
f 1/16/6 32/28/6 31/2/6
f 19/6/7 18/29/7 3/18/7
s 1
f 2/9/8 32/30/9 1/16/9
f 19/6/10 20/5/10 21/31/10
f 18/29/11 2/9/8 3/18/11
f 8/7/12 24/12/13 23/32/14
f 11/25/15 25/33/16 10/23/16
f 26/34/15 12/13/17 27/35/17
f 7/8/18 23/32/14 22/36/18
f 14/24/19 28/37/20 13/27/20
f 7/8/18 21/31/21 6/21/21
f 20/5/22 6/21/21 21/31/21
f 14/24/19 30/3/23 29/38/19
f 2/9/8 17/39/8 32/30/9
f 21/31/10 22/40/10 18/29/10
f 22/40/10 23/32/10 17/39/10
f 23/32/10 24/12/10 17/39/10
f 24/12/10 25/33/10 32/28/10
f 17/39/10 24/12/10 32/28/10
f 25/33/10 26/34/10 30/3/10
f 26/34/10 27/15/10 29/38/10
f 27/15/10 28/14/10 29/38/10
f 29/38/10 30/3/10 26/34/10
f 30/3/10 31/2/10 25/33/10
f 31/2/10 32/28/10 25/33/10
f 17/39/10 18/29/10 22/40/10
f 18/29/10 19/6/10 21/31/10
f 18/29/11 17/39/8 2/9/8
f 8/7/12 9/41/13 24/12/13
f 11/25/15 26/42/15 25/33/16
f 26/34/15 11/25/15 12/13/17
f 7/8/18 8/7/12 23/32/14
f 14/24/19 29/38/19 28/37/20
f 7/8/18 22/40/18 21/31/21
f 20/5/22 5/20/22 6/21/21
f 14/24/19 15/1/23 30/3/23
