# WaveFront *.obj file (generated by CINEMA 4D)

mtllib ./Defiant_Base.mtl

v 0 -0.01230922248214 0
v 0 1.69181787967682 0
v 3.64808130264282 -0.01230922248214 0
v 2.99268364906311 0.94729244709015 0
v 3.59265899658203 -0.01230922248214 -0.63348269462585
v 2.94721817970276 0.94729244709015 -0.51967406272888
v 3.42807531356812 -0.01230922248214 -1.24771738052368
v 2.81220293045044 0.94729244709015 -1.02355813980103
v 3.15933132171631 -0.01230922248214 -1.82404065132141
v 2.59174013137817 0.94729244709015 -1.49634182453156
v 2.79459261894226 -0.01230922248214 -2.34494161605835
v 2.29252886772156 0.94729244709015 -1.92366003990173
v 2.34494161605835 -0.01230922248214 -2.79459261894226
v 1.92366003990173 0.94729244709015 -2.29252886772156
v 1.82404065132141 -0.01230922248214 -3.15933132171631
v 1.49634182453156 0.94729244709015 -2.59174013137817
v 1.24771738052368 -0.01230922248214 -3.42807531356812
v 1.02355813980103 0.94729244709015 -2.81220293045044
v 0.63348269462585 -0.01230922248214 -3.59265899658203
v 0.51967406272888 0.94729244709015 -2.94721817970276
v 0 -0.01230922248214 -3.64808130264282
v 0 0.94729244709015 -2.99268364906311
v -0.63348269462585 -0.01230922248214 -3.59265899658203
v -0.51967406272888 0.94729244709015 -2.94721817970276
v -1.24771738052368 -0.01230922248214 -3.42807531356812
v -1.02355813980103 0.94729244709015 -2.81220293045044
v -1.82404065132141 -0.01230922248214 -3.15933132171631
v -1.49634182453156 0.94729244709015 -2.59174013137817
v -2.34494161605835 -0.01230922248214 -2.79459261894226
v -1.92366003990173 0.94729244709015 -2.29252886772156
v -2.79459261894226 -0.01230922248214 -2.34494161605835
v -2.29252886772156 0.94729244709015 -1.92366003990173
v -3.15933132171631 -0.01230922248214 -1.82404065132141
v -2.59174013137817 0.94729244709015 -1.49634182453156
v -3.42807531356812 -0.01230922248214 -1.24771738052368
v -2.81220293045044 0.94729244709015 -1.02355813980103
v -3.59265899658203 -0.01230922248214 -0.63348269462585
v -2.94721817970276 0.94729244709015 -0.51967406272888
v -3.64808130264282 -0.01230922248214 0
v -2.99268364906311 0.94729244709015 0
v -3.59265899658203 -0.01230922248214 0.63348269462585
v -2.94721817970276 0.94729244709015 0.51967406272888
v -3.42807531356812 -0.01230922248214 1.24771738052368
v -2.81220293045044 0.94729244709015 1.02355813980103
v -3.15933132171631 -0.01230922248214 1.82404065132141
v -2.59174013137817 0.94729244709015 1.49634182453156
v -2.79459261894226 -0.01230922248214 2.34494161605835
v -2.29252886772156 0.94729244709015 1.92366003990173
v -2.34494161605835 -0.01230922248214 2.79459261894226
v -1.92366003990173 0.94729244709015 2.29252886772156
v -1.82404065132141 -0.01230922248214 3.15933132171631
v -1.49634182453156 0.94729244709015 2.59174013137817
v -1.24771738052368 -0.01230922248214 3.42807531356812
v -1.02355813980103 0.94729244709015 2.81220293045044
v -0.63348269462585 -0.01230922248214 3.59265899658203
v -0.51967406272888 0.94729244709015 2.94721817970276
v 0 -0.01230922248214 3.64808130264282
v 0 0.94729244709015 2.99268364906311
v 0.63348269462585 -0.01230922248214 3.59265899658203
v 0.51967406272888 0.94729244709015 2.94721817970276
v 1.24771738052368 -0.01230922248214 3.42807531356812
v 1.02355813980103 0.94729244709015 2.81220293045044
v 1.82404065132141 -0.01230922248214 3.15933132171631
v 1.49634182453156 0.94729244709015 2.59174013137817
v 2.34494161605835 -0.01230922248214 2.79459261894226
v 1.92366003990173 0.94729244709015 2.29252886772156
v 2.79459261894226 -0.01230922248214 2.34494161605835
v 2.29252886772156 0.94729244709015 1.92366003990173
v 3.15933132171631 -0.01230922248214 1.82404065132141
v 2.59174013137817 0.94729244709015 1.49634182453156
v 3.42807531356812 -0.01230922248214 1.24771738052368
v 2.81220293045044 0.94729244709015 1.02355813980103
v 3.59265899658203 -0.01230922248214 0.63348269462585
v 2.94721817970276 0.94729244709015 0.51967406272888
v 2.33819246292114 1.22510480880737 0
v 2.30267000198364 1.22510480880737 -0.40602284669876
v 2.19718217849731 1.22510480880737 -0.79970890283585
v 2.02493405342102 1.22510480880737 -1.16909623146057
v 1.79115927219391 1.22510480880737 -1.50296115875244
v 1.50296115875244 1.22510480880737 -1.79115927219391
v 1.16909623146057 1.22510480880737 -2.02493405342102
v 0.79970890283585 1.22510480880737 -2.19718217849731
v 0.40602284669876 1.22510480880737 -2.30267000198364
v 0 1.22510480880737 -2.33819246292114
v -0.40602284669876 1.22510480880737 -2.30267000198364
v -0.79970890283585 1.22510480880737 -2.19718217849731
v -1.16909623146057 1.22510480880737 -2.02493405342102
v -1.50296115875244 1.22510480880737 -1.79115927219391
v -1.79115927219391 1.22510480880737 -1.50296115875244
v -2.02493405342102 1.22510480880737 -1.16909623146057
v -2.19718217849731 1.22510480880737 -0.79970890283585
v -2.30267000198364 1.22510480880737 -0.40602284669876
v -2.33819246292114 1.22510480880737 0
v -2.30267000198364 1.22510480880737 0.40602284669876
v -2.19718217849731 1.22510480880737 0.79970890283585
v -2.02493405342102 1.22510480880737 1.16909623146057
v -1.79115927219391 1.22510480880737 1.50296115875244
v -1.50296115875244 1.22510480880737 1.79115927219391
v -1.16909623146057 1.22510480880737 2.02493405342102
v -0.79970890283585 1.22510480880737 2.19718217849731
v -0.40602284669876 1.22510480880737 2.30267000198364
v 0 1.22510480880737 2.33819246292114
v 0.40602284669876 1.22510480880737 2.30267000198364
v 0.79970890283585 1.22510480880737 2.19718217849731
v 1.16909623146057 1.22510480880737 2.02493405342102
v 1.50296115875244 1.22510480880737 1.79115927219391
v 1.79115927219391 1.22510480880737 1.50296115875244
v 2.02493405342102 1.22510480880737 1.16909623146057
v 2.19718217849731 1.22510480880737 0.79970890283585
v 2.30267000198364 1.22510480880737 0.40602284669876
v 2.16750431060791 1.22510492801666 0
v 2.1345751285553 1.22510492801666 -0.37638318538666
v 2.03678774833679 1.22510492801666 -0.74133014678955
v 1.87711381912231 1.22510492801666 -1.08375215530396
v 1.66040468215942 1.22510492801666 -1.39324498176575
v 1.39324498176575 1.22510492801666 -1.66040468215942
v 1.08375215530396 1.22510492801666 -1.87711381912231
v 0.74133014678955 1.22510492801666 -2.03678774833679
v 0.37638318538666 1.22510492801666 -2.1345751285553
v 0 1.22510492801666 -2.16750431060791
v -0.37638318538666 1.22510492801666 -2.1345751285553
v -0.74133014678955 1.22510492801666 -2.03678774833679
v -1.08375215530396 1.22510492801666 -1.87711381912231
v -1.39324498176575 1.22510492801666 -1.66040468215942
v -1.66040468215942 1.22510492801666 -1.39324498176575
v -1.87711381912231 1.22510492801666 -1.08375215530396
v -2.03678774833679 1.22510492801666 -0.74133014678955
v -2.1345751285553 1.22510492801666 -0.37638318538666
v -2.16750431060791 1.22510492801666 0
v -2.1345751285553 1.22510492801666 0.37638318538666
v -2.03678774833679 1.22510492801666 0.74133014678955
v -1.87711381912231 1.22510492801666 1.08375215530396
v -1.66040468215942 1.22510492801666 1.39324498176575
v -1.39324498176575 1.22510492801666 1.66040468215942
v -1.08375215530396 1.22510492801666 1.87711381912231
v -0.74133014678955 1.22510492801666 2.03678774833679
v -0.37638318538666 1.22510492801666 2.1345751285553
v 0 1.22510492801666 2.16750431060791
v 0.37638318538666 1.22510492801666 2.1345751285553
v 0.74133014678955 1.22510492801666 2.03678774833679
v 1.08375215530396 1.22510492801666 1.87711381912231
v 1.39324498176575 1.22510492801666 1.66040468215942
v 1.66040468215942 1.22510492801666 1.39324498176575
v 1.87711381912231 1.22510492801666 1.08375215530396
v 2.03678774833679 1.22510492801666 0.74133014678955
v 2.1345751285553 1.22510492801666 0.37638318538666
v 1.31526327133179 1.69181787967682 0
v 1.29528152942657 1.69181787967682 -0.22839307785034
v 1.23594319820404 1.69181787967682 -0.44984656572342
v 1.13905143737793 1.69181787967682 -0.65763163566589
v 1.0075501203537 1.69181787967682 -0.84543496370316
v 0.84543496370316 1.69181787967682 -1.0075501203537
v 0.65763163566589 1.69181787967682 -1.13905143737793
v 0.44984656572342 1.69181787967682 -1.23594319820404
v 0.22839307785034 1.69181787967682 -1.29528152942657
v 0 1.69181787967682 -1.31526327133179
v -0.22839307785034 1.69181787967682 -1.29528152942657
v -0.44984656572342 1.69181787967682 -1.23594319820404
v -0.65763163566589 1.69181787967682 -1.13905143737793
v -0.84543496370316 1.69181787967682 -1.0075501203537
v -1.0075501203537 1.69181787967682 -0.84543496370316
v -1.13905143737793 1.69181787967682 -0.65763163566589
v -1.23594319820404 1.69181787967682 -0.44984656572342
v -1.29528152942657 1.69181787967682 -0.22839307785034
v -1.31526327133179 1.69181787967682 0
v -1.29528152942657 1.69181787967682 0.22839307785034
v -1.23594319820404 1.69181787967682 0.44984656572342
v -1.13905143737793 1.69181787967682 0.65763163566589
v -1.0075501203537 1.69181787967682 0.84543496370316
v -0.84543496370316 1.69181787967682 1.0075501203537
v -0.65763163566589 1.69181787967682 1.13905143737793
v -0.44984656572342 1.69181787967682 1.23594319820404
v -0.22839307785034 1.69181787967682 1.29528152942657
v 0 1.69181787967682 1.31526327133179
v 0.22839307785034 1.69181787967682 1.29528152942657
v 0.44984656572342 1.69181787967682 1.23594319820404
v 0.65763163566589 1.69181787967682 1.13905143737793
v 0.84543496370316 1.69181787967682 1.0075501203537
v 1.0075501203537 1.69181787967682 0.84543496370316
v 1.13905143737793 1.69181787967682 0.65763163566589
v 1.23594319820404 1.69181787967682 0.44984656572342
v 1.29528152942657 1.69181787967682 0.22839307785034
v 2.16750431060791 2.14043021202087 -1.22930228710175
v 2.1345751285553 2.14043021202087 -1.6056854724884
v 2.03678774833679 2.14043021202087 -0.48797208070755
v 2.1345751285553 2.14043021202087 -0.85291904211044
v 1.93991637229919 2.14043045043945 -1.22930228710175
v 1.91044473648071 2.14043045043945 -1.56616520881653
v 1.8229250907898 2.14043045043945 -0.56581175327301
v 1.91044473648071 2.14043045043945 -0.89243930578232
v -2.03678774833679 2.14043021202087 -1.9706324338913
v -2.1345751285553 2.14043021202087 -1.6056854724884
v -2.16750431060791 2.14043021202087 -1.22930228710175
v -2.1345751285553 2.14043021202087 -0.85291904211044
v -1.8229250907898 2.14043045043945 -1.89279270172119
v -1.91044473648071 2.14043045043945 -1.56616520881653
v -1.93991637229919 2.14043045043945 -1.22930228710175
v -1.91044473648071 2.14043045043945 -0.89243930578232
v -2.03678774833679 2.18146276473999 0.74133014678955
v -1.87711381912231 2.18146276473999 1.08375215530396
v -1.8229250907898 2.18146300315857 0.66349047422409
v -1.68001687526703 2.18146300315857 0.9699581861496
v 1.66040468215942 2.18146276473999 1.39324498176575
v 1.87711381912231 2.18146276473999 1.08375215530396
v 1.48606216907501 2.18146300315857 1.24695420265198
v 1.68001687526703 2.18146300315857 0.9699581861496
v -1.08375215530396 2.12351965904236 1.87711381912231
v -0.74133014678955 2.12351965904236 2.03678774833679
v -0.9699581861496 2.12351965904236 1.68001687526703
v -0.66349047422409 2.12351965904236 1.8229250907898
v 0.37638318538666 2.12351965904236 2.1345751285553
v 0.74133014678955 2.12351965904236 2.03678774833679
v 0.33686295151711 2.12351965904236 1.91044473648071
v 0.66349047422409 2.12351965904236 1.8229250907898
# 214 vertices

vn 0 -1 0
vn 1 0 0
vn 0.98481088876724 0 -0.17363023757935
vn 0.17363023757935 0 0.98481088876724
vn 0.34200400114059 0 0.93969851732254
vn 0.93969851732254 0 -0.34200400114059
vn 0.98481088876724 0 0.17363023757935
vn 0.86601907014847 0 -0.50001102685928
vn 0.76604211330414 0 -0.64279037714005
vn 0.50001102685928 0 0.86601907014847
vn 0.64279037714005 0 -0.76604211330414
vn 0.50001102685928 0 -0.86601907014847
vn 0.34200400114059 0 -0.93969851732254
vn 0.64279037714005 0 0.76604211330414
vn 0.17363023757935 0 -0.98481088876724
vn 0 0 -1
vn 0.76604211330414 0 0.64279037714005
vn -0.17363023757935 0 -0.98481088876724
vn -0.34200400114059 0 0.93969851732254
vn -0.17363023757935 0 0.98481088876724
vn -0.34200400114059 0 -0.93969851732254
vn -0.50001102685928 0 -0.86601907014847
vn -0.64279037714005 0 -0.76604211330414
vn 0 0 1
vn -0.76604211330414 0 -0.64279037714005
vn 0.86601907014847 0 0.50001102685928
vn -0.86601907014847 0 -0.50001102685928
vn -0.93969851732254 0 -0.34200400114059
vn -0.98481088876724 0 -0.17363023757935
vn 0.93969851732254 0 0.34200400114059
vn -1 0 0
vn -0.98481088876724 0 0.17363023757935
vn -0.93969851732254 0 0.34200400114059
vn -0.86601907014847 0 0.50001102685928
vn -0.50001102685928 0 0.86601907014847
vn -0.76604211330414 0 0.64279037714005
vn -0.64279037714005 0 0.76604211330414
vn 0 1 0
# 38 normals

vt 0.64966183900833 0.85901737213135 0
vt 0.77466183900833 0.85901737213135 0
vt 0.77276283502579 0.83731138706207 0
vt 0 1 0
vt 0.77297681570053 0.85712563991547 0
vt 0.75051987171173 0.85712563991547 0
vt 0.74896204471588 0.87493205070496 0
vt 0.77107775211334 0.8788315653801 0
vt 0.66968280076981 0.73402458429337 0
vt 0.66578322649002 0.75614035129547 0
vt 0.68304860591888 0.76076662540436 0
vt 0.69072932004929 0.7396639585495 0
vt 0.76712346076965 0.81626486778259 0
vt 0.41775253415108 0.52397859096527 0
vt 0.74433577060699 0.89219737052917 0
vt 0.76543837785721 0.89987808465958 0
vt 0.77107775211334 0.8354195356369 0
vt 0.74896204471588 0.83931922912598 0
vt 0.75791501998901 0.79651737213135 0
vt 0.5 0.64144021272659 0
vt 0.73678171634674 0.9083970785141 0
vt 0.75622999668121 0.91962558031082 0
vt 0.69241440296173 0.97647887468338 0
vt 0.71216183900833 0.96727055311203 0
vt 0.48325318098068 0.70394021272659 0
vt 0.74541741609573 0.77866888046265 0
vt 0.7265293598175 0.92303895950317 0
vt 0.74373239278793 0.93747401237488 0
vt 0.69924831390381 0.76832067966461 0
vt 0.71047681570053 0.74887239933014 0
vt 0.73001033067703 0.76326179504395 0
vt 0.4375 0.53318703174591 0
vt 0.71389019489288 0.9356781244278 0
vt 0.72832524776459 0.95288109779358 0
vt 0.60690933465958 0.97647887468338 0
vt 0.62795585393906 0.98211830854416 0
vt 0.45534846186638 0.73719573020935 0
vt 0.71216183900833 0.75076425075531 0
vt 0.69924831390381 0.94593048095703 0
vt 0.71047681570053 0.9653787612915 0
vt 0.73001033067703 0.95477288961411 0
vt 0.4375 0.74969339370728 0
vt 0.69241440296173 0.74155580997467 0
vt 0.68304860591888 0.95348453521729 0
vt 0.69072932004929 0.9745871424675 0
vt 0.71389019489288 0.77857303619385 0
vt 0.72832524776459 0.76137006282806 0
vt 0.67136788368225 0.73591637611389 0
vt 0.45534846186638 0.54568463563919 0
vt 0.66578322649002 0.95811074972153 0
vt 0.66968280076981 0.98022651672363 0
vt 0.74541741609573 0.9393658041954 0
vt 0.3967060148716 0.7645411491394 0
vt 0.64966183900833 0.73401737213135 0
vt 0.64797681570053 0.95966863632202 0
vt 0.64797681570053 0.98212558031082 0
vt 0.7265293598175 0.79121220111847 0
vt 0.74373239278793 0.77677714824677 0
vt 0.62795585393906 0.73591637611389 0
vt 0.4707555770874 0.56109172105789 0
vt 0.63017040491104 0.95811074972153 0
vt 0.62627077102661 0.98022651672363 0
vt 0.60522425174713 0.7396639585495 0
vt 0.61290502548218 0.76076662540436 0
vt 0.63017040491104 0.75614035129547 0
vt 0.62627077102661 0.73402458429337 0
vt 0.60690933465958 0.74155580997467 0
vt 0.3532939851284 0.51833921670914 0
vt 0.61290502548218 0.95348453521729 0
vt 0.60522425174713 0.9745871424675 0
vt 0.75791501998901 0.9215173125267 0
vt 0.33224746584892 0.75890177488327 0
vt 0.58716183900833 0.75076425075531 0
vt 0.59670525789261 0.94593048095703 0
vt 0.58547681570053 0.9653787612915 0
vt 0.64966183900833 0.9840173125267 0
vt 0.3125 0.74969339370728 0
vt 0.56931340694427 0.76326179504395 0
vt 0.58206337690353 0.9356781244278 0
vt 0.56762832403183 0.95288109779358 0
vt 0.64797681570053 0.75458252429962 0
vt 0.64797681570053 0.73212558031082 0
vt 0.55390626192093 0.77866888046265 0
vt 0.375 0.51644021272659 0
vt 0.56942427158356 0.92303895950317 0
vt 0.55222123861313 0.93747401237488 0
vt 0.73678171634674 0.80585408210754 0
vt 0.75622999668121 0.79462563991547 0
vt 0.54140865802765 0.79651737213135 0
vt 0.48325318098068 0.57894021272659 0
vt 0.55917191505432 0.9083970785141 0
vt 0.53972363471985 0.91962558031082 0
vt 0.76712346076965 0.90176981687546 0
vt 0.26674681901932 0.70394021272659 0
vt 0.53220027685165 0.81626486778259 0
vt 0.55161780118942 0.89219737052917 0
vt 0.53051519393921 0.89987808465958 0
vt 0.67136788368225 0.98211830854416 0
vt 0.257538408041 0.68419271707535 0
vt 0.52656090259552 0.83731138706207 0
vt 0.54699158668518 0.87493205070496 0
vt 0.52487581968307 0.8788315653801 0
vt 0.74433577060699 0.82205379009247 0
vt 0.76543837785721 0.81437301635742 0
vt 0.52466183900833 0.85901737213135 0
vt 0.492461591959 0.59868764877319 0
vt 0.54543375968933 0.85712563991547 0
vt 0.52297681570053 0.85712563991547 0
vt 0.77276283502579 0.88072329759598 0
vt 0.25 0.64144021272659 0
vt 0.52656090259552 0.88072329759598 0
vt 0.54699158668518 0.83931922912598 0
vt 0.52487581968307 0.8354195356369 0
vt 0.53220027685165 0.90176981687546 0
vt 0.49810096621513 0.61973416805267 0
vt 0.55161780118942 0.82205379009247 0
vt 0.53051519393921 0.81437301635742 0
vt 0.58716183900833 0.96727055311203 0
vt 0.257538408041 0.59868764877319 0
vt 0.54140865802765 0.9215173125267 0
vt 0.55917191505432 0.80585408210754 0
vt 0.53972363471985 0.79462563991547 0
vt 0.58547681570053 0.74887239933014 0
vt 0.59670525789261 0.76832067966461 0
vt 0.55390626192093 0.9393658041954 0
vt 0.33224746584892 0.52397859096527 0
vt 0.56942427158356 0.79121220111847 0
vt 0.55222123861313 0.77677714824677 0
vt 0.2792444229126 0.56109172105789 0
vt 0.56931340694427 0.95477288961411 0
vt 0.58206337690353 0.77857303619385 0
vt 0.56762832403183 0.76137006282806 0
vt 0.3967060148716 0.51833921670914 0
vt 0.3125 0.53318703174591 0
# 134 texture coordinates

o Cylinder
usemtl default
f 5/3/1 3/2/1 1/1/1
f 5/8/3 6/7/3 4/6/2 3/5/2
f 61/12/5 62/11/5 60/10/4 59/9/4
f 7/13/1 5/3/1 1/1/1
f 7/16/6 8/15/6 6/7/3 5/8/3
f 3/5/2 4/6/2 74/18/7 73/17/7
f 9/19/1 7/13/1 1/1/1
f 9/22/8 10/21/8 8/15/6 7/16/6
f 63/24/1 61/23/1 1/1/1
f 11/26/1 9/19/1 1/1/1
f 11/28/9 12/27/9 10/21/8 9/22/8
f 63/30/10 64/29/10 62/11/5 61/12/5
f 13/31/1 11/26/1 1/1/1
f 13/34/11 14/33/11 12/27/9 11/28/9
f 55/36/1 53/35/1 1/1/1
f 15/38/1 13/31/1 1/1/1
f 15/40/12 16/39/12 14/33/11 13/34/11
f 65/41/1 63/24/1 1/1/1
f 17/43/1 15/38/1 1/1/1
f 17/45/13 18/44/13 16/39/12 15/40/12
f 65/47/14 66/46/14 64/29/10 63/30/10
f 19/48/1 17/43/1 1/1/1
f 19/51/15 20/50/15 18/44/13 17/45/13
f 67/52/1 65/41/1 1/1/1
f 21/54/1 19/48/1 1/1/1
f 21/56/16 22/55/16 20/50/15 19/51/15
f 67/58/17 68/57/17 66/46/14 65/47/14
f 23/59/1 21/54/1 1/1/1
f 23/62/18 24/61/18 22/55/16 21/56/16
f 55/66/20 56/65/20 54/64/19 53/63/19
f 25/67/1 23/59/1 1/1/1
f 25/70/21 26/69/21 24/61/18 23/62/18
f 69/71/1 67/52/1 1/1/1
f 27/73/1 25/67/1 1/1/1
f 27/75/22 28/74/22 26/69/21 25/70/21
f 57/76/1 55/36/1 1/1/1
f 29/78/1 27/73/1 1/1/1
f 29/80/23 30/79/23 28/74/22 27/75/22
f 57/82/24 58/81/24 56/65/20 55/66/20
f 31/83/1 29/78/1 1/1/1
f 31/86/25 32/85/25 30/79/23 29/80/23
f 69/88/26 70/87/26 68/57/17 67/58/17
f 33/89/1 31/83/1 1/1/1
f 33/92/27 34/91/27 32/85/25 31/86/25
f 71/93/1 69/71/1 1/1/1
f 35/95/1 33/89/1 1/1/1
f 35/97/28 36/96/28 34/91/27 33/92/27
f 59/98/1 57/76/1 1/1/1
f 37/100/1 35/95/1 1/1/1
f 37/102/29 38/101/29 36/96/28 35/97/28
f 71/104/30 72/103/30 70/87/26 69/88/26
f 39/105/1 37/100/1 1/1/1
f 39/108/31 40/107/31 38/101/29 37/102/29
f 73/109/1 71/93/1 1/1/1
f 41/111/1 39/105/1 1/1/1
f 41/113/32 42/112/32 40/107/31 39/108/31
f 73/17/7 74/18/7 72/103/30 71/104/30
f 43/114/1 41/111/1 1/1/1
f 43/117/33 44/116/33 42/112/32 41/113/32
f 53/35/1 51/118/1 1/1/1
f 45/120/1 43/114/1 1/1/1
f 45/122/34 46/121/34 44/116/33 43/117/33
f 53/63/19 54/64/19 52/124/35 51/123/35
f 47/125/1 45/120/1 1/1/1
f 47/128/36 48/127/36 46/121/34 45/122/34
f 3/2/1 73/109/1 1/1/1
f 49/130/1 47/125/1 1/1/1
f 49/132/37 50/131/37 48/127/36 47/128/36
f 59/9/4 60/10/4 58/81/24 57/82/24
f 51/118/1 49/130/1 1/1/1
f 51/123/35 52/124/35 50/131/37 49/132/37
f 61/23/1 59/98/1 1/1/1
f 62/11/38 64/29/38 38/101/38 40/107/38
f 60/10/38 62/11/38 40/107/38 42/112/38
f 58/81/38 60/10/38 42/112/38 44/116/38
f 56/65/38 58/81/38 44/116/38 46/121/38
f 54/64/38 56/65/38 46/121/38 48/127/38
f 52/124/38 54/64/38 48/127/38 50/131/38
f 64/29/38 66/46/38 36/96/38 38/101/38
f 66/46/38 68/57/38 34/91/38 36/96/38
f 68/57/38 70/87/38 32/85/38 34/91/38
f 70/87/38 72/103/38 30/79/38 32/85/38
f 72/103/38 74/18/38 28/74/38 30/79/38
f 74/18/38 4/6/38 26/69/38 28/74/38
f 4/6/38 6/7/38 24/61/38 26/69/38
f 6/7/38 8/15/38 22/55/38 24/61/38
f 8/15/38 10/21/38 20/50/38 22/55/38
f 10/21/38 12/27/38 18/44/38 20/50/38
f 12/27/38 14/33/38 16/39/38 18/44/38

