# Blender v2.80 (sub 75) OBJ File: ''
# www.blender.org
mtllib VEN_Short_Edge_Board_Alt.mtl
o VEN_Short_Edge_Board
v 0.478765 -0.499997 -0.144291
v 0.499977 -0.419997 0.192670
v 0.478765 -0.499998 0.144337
v 0.216447 -0.356246 0.436106
v 0.323339 -0.419997 0.387720
v 0.323339 -0.356246 0.387720
v 0.323340 -0.419997 -0.387675
v 0.216447 -0.356246 -0.436061
v 0.323340 -0.356246 -0.387675
v -0.500023 -0.499997 -0.419977
v -0.500023 -0.499997 -0.249977
v -0.500023 -0.276246 -0.334978
v -0.300023 -0.499997 -0.139977
v -0.178520 -0.499997 -0.419978
v 0.216450 -0.356249 0.127834
v 0.323342 -0.356249 0.079448
v 0.216450 -0.356251 -0.127790
v 0.389122 -0.276248 -0.079774
v 0.323342 -0.356251 -0.079403
v 0.323342 -0.276249 -0.139403
v 0.089138 -0.356251 -0.176357
v 0.216450 -0.276249 -0.187789
v 0.089138 -0.276249 -0.236357
v 0.457553 -0.276248 0.090712
v 0.457553 -0.276247 -0.090667
v 0.389122 -0.276247 0.079819
v 0.323342 -0.276247 0.139448
v 0.216450 -0.276247 0.187834
v 0.089138 -0.356245 0.176400
v 0.089138 -0.276247 0.236401
v -0.038380 -0.356245 0.186179
v -0.178518 -0.356245 0.190021
v -0.038380 -0.276247 0.246180
v -0.500021 -0.356244 0.190021
v -0.178518 -0.276247 0.250022
v 0.132000 -0.499998 0.132045
v 0.131999 -0.499998 -0.132000
v -0.178521 -0.356247 0.500023
v -0.500021 -0.276244 0.335025
v -0.500023 -0.356247 0.500023
v -0.178520 -0.276247 0.335024
v -0.038382 -0.356247 0.492340
v -0.038382 -0.276247 0.327340
v 0.089135 -0.356246 0.472782
v 0.089136 -0.276247 0.307782
v 0.216447 -0.276247 0.271107
v 0.411047 -0.356246 0.318686
v 0.323340 -0.276247 0.222721
v 0.457553 -0.356246 0.274192
v 0.499977 -0.356246 0.192671
v 0.499977 -0.356246 -0.192625
v 0.499977 -0.419997 -0.192625
v 0.457553 -0.419998 0.274192
v 0.457553 -0.499998 0.187501
v 0.411047 -0.499998 0.234616
v 0.411047 -0.419998 0.318685
v 0.323339 -0.499997 0.307720
v 0.216447 -0.499997 0.356106
v 0.089135 -0.419997 0.472782
v 0.216447 -0.419997 0.436106
v -0.038382 -0.419997 0.492340
v -0.178521 -0.419997 0.500023
v -0.500023 -0.419997 0.500023
v -0.500023 -0.499997 0.420023
v -0.178521 -0.499997 0.420023
v -0.038382 -0.499997 0.412340
v 0.089135 -0.499997 0.392782
v -0.132046 -0.499998 0.132045
v -0.000024 -0.599997 0.000023
v -0.132047 -0.499998 -0.131999
v -0.500023 -0.419997 0.190023
v -0.300023 -0.499997 0.140023
v -0.500023 -0.499997 0.250023
v -0.500023 -0.419997 -0.189977
v 0.457553 -0.356246 -0.274147
v 0.457553 -0.419998 -0.274147
v 0.457553 -0.499998 -0.187455
v 0.411047 -0.499997 -0.234571
v 0.411047 -0.419997 -0.318640
v 0.323340 -0.276247 -0.222675
v 0.411047 -0.356246 -0.318640
v 0.216448 -0.276247 -0.271061
v 0.089136 -0.276247 -0.307736
v 0.089135 -0.419997 -0.472736
v 0.216447 -0.419997 -0.436061
v -0.038382 -0.419997 -0.492294
v 0.089135 -0.356246 -0.472736
v -0.178520 -0.419997 -0.499978
v -0.038382 -0.356246 -0.492294
v -0.500023 -0.419997 -0.499977
v -0.178521 -0.356246 -0.499978
v -0.178520 -0.276247 -0.334978
v -0.038382 -0.276247 -0.327294
v -0.038382 -0.499997 -0.412294
v 0.089135 -0.499997 -0.392736
v 0.216447 -0.499997 -0.356061
v 0.323340 -0.499997 -0.307675
v -0.038380 -0.356251 -0.186136
v -0.038380 -0.276249 -0.246136
v -0.178518 -0.356251 -0.189978
v -0.178518 -0.276249 -0.249977
v -0.500021 -0.356249 -0.189978
v -0.500021 -0.276246 0.250022
v -0.500021 -0.276248 -0.249978
v -0.500023 -0.356246 -0.499977
vt 0.480819 0.762022
vt 0.487942 0.792024
vt 0.480819 0.787720
vt 0.497761 0.778304
vt 0.507278 0.772628
vt 0.507278 0.778304
vt 0.507278 0.772628
vt 0.497761 0.778304
vt 0.507278 0.778304
vt 0.480819 0.737479
vt 0.480819 0.752614
vt 0.500740 0.745046
vt 0.451779 0.762407
vt 0.433972 0.752614
vt 0.462596 0.737479
vt 0.497761 0.786251
vt 0.507278 0.781943
vt 0.497761 0.763493
vt 0.493617 0.781943
vt 0.500740 0.767767
vt 0.493617 0.767799
vt 0.513134 0.785426
vt 0.507278 0.785426
vt 0.507278 0.778304
vt 0.497761 0.778304
vt 0.486426 0.778304
vt 0.497761 0.785426
vt 0.486426 0.785426
vt 0.519227 0.782946
vt 0.519227 0.766798
vt 0.513134 0.781976
vt 0.497761 0.778304
vt 0.507278 0.785426
vt 0.507278 0.778304
vt 0.513134 0.785426
vt 0.497761 0.785426
vt 0.486426 0.778304
vt 0.486426 0.785426
vt 0.475073 0.778304
vt 0.462597 0.778304
vt 0.475073 0.785426
vt 0.433973 0.778304
vt 0.462597 0.785426
vt 0.490242 0.786626
vt 0.490242 0.763118
vt 0.521115 0.762022
vt 0.462596 0.819388
vt 0.433973 0.804698
vt 0.433972 0.819388
vt 0.462596 0.804697
vt 0.475073 0.818704
vt 0.475073 0.804013
vt 0.486426 0.816962
vt 0.497761 0.813697
vt 0.486426 0.802272
vt 0.507278 0.809389
vt 0.497761 0.799007
vt 0.515086 0.803243
vt 0.507278 0.794699
vt 0.519227 0.799282
vt 0.523004 0.792024
vt 0.493618 0.757720
vt 0.500740 0.782946
vt 0.493618 0.792024
vt 0.487942 0.757720
vt 0.487942 0.799282
vt 0.480819 0.791563
vt 0.515086 0.795758
vt 0.519227 0.791563
vt 0.519227 0.799282
vt 0.515086 0.803243
vt 0.507278 0.802267
vt 0.507278 0.765506
vt 0.515086 0.772628
vt 0.497761 0.765506
vt 0.519227 0.778304
vt 0.519227 0.772628
vt 0.486426 0.772628
vt 0.497761 0.772628
vt 0.475073 0.778304
vt 0.475073 0.772628
vt 0.462596 0.778304
vt 0.462596 0.772628
vt 0.433972 0.772628
vt 0.462596 0.819388
vt 0.433972 0.812265
vt 0.462596 0.812265
vt 0.475073 0.818704
vt 0.475073 0.811581
vt 0.486426 0.816962
vt 0.486426 0.809840
vt 0.486426 0.765506
vt 0.466734 0.786626
vt 0.714955 0.315198
vt 0.783107 0.247047
vt 0.783107 0.383350
vt 0.646803 0.247047
vt 0.646803 0.383350
vt 0.433972 0.772628
vt 0.451779 0.765506
vt 0.433972 0.765506
vt 0.433972 0.757956
vt 0.451779 0.787336
vt 0.433972 0.791788
vt 0.451779 0.765506
vt 0.433972 0.772628
vt 0.433972 0.765506
vt 0.493618 0.750462
vt 0.487942 0.750462
vt 0.480819 0.758180
vt 0.519227 0.750462
vt 0.519227 0.758180
vt 0.515086 0.753986
vt 0.515086 0.746501
vt 0.515086 0.772628
vt 0.519227 0.778304
vt 0.519227 0.772628
vt 0.507278 0.755045
vt 0.519227 0.750462
vt 0.515086 0.746501
vt 0.523004 0.757720
vt 0.507278 0.740355
vt 0.497761 0.750737
vt 0.497761 0.736047
vt 0.486426 0.747472
vt 0.486426 0.772628
vt 0.497761 0.772628
vt 0.475073 0.772628
vt 0.486426 0.778304
vt 0.462596 0.772628
vt 0.475073 0.778304
vt 0.433972 0.772628
vt 0.462596 0.778304
vt 0.462596 0.730356
vt 0.433972 0.745046
vt 0.462596 0.745046
vt 0.475073 0.731040
vt 0.475073 0.745730
vt 0.486426 0.732781
vt 0.433972 0.730356
vt 0.462596 0.730356
vt 0.475073 0.731040
vt 0.486426 0.732781
vt 0.475073 0.738163
vt 0.486426 0.739904
vt 0.497761 0.736047
vt 0.497761 0.743169
vt 0.497761 0.765506
vt 0.507278 0.765506
vt 0.515086 0.778304
vt 0.507278 0.747477
vt 0.475073 0.778304
vt 0.475073 0.785426
vt 0.462597 0.778304
vt 0.462597 0.785426
vt 0.433973 0.778304
vt 0.487942 0.819388
vt 0.493618 0.819388
vt 0.480819 0.812265
vt 0.500740 0.804698
vt 0.500740 0.797130
vt 0.493618 0.791788
vt 0.493617 0.757956
vt 0.500740 0.752614
vt 0.487942 0.791788
vt 0.487942 0.757956
vt 0.493618 0.730356
vt 0.480819 0.797130
vt 0.487942 0.730356
vt 0.433972 0.797130
vt 0.466734 0.763118
vt 0.433972 0.737479
vt 0.507278 0.767799
vt 0.486426 0.759169
vt 0.486426 0.790575
vt 0.475073 0.758298
vt 0.462597 0.757956
vt 0.462597 0.791788
vt 0.433973 0.757956
vt 0.433973 0.791788
vt 0.475073 0.791446
vt 0.500740 0.781976
vt 0.462597 0.797130
vt 0.433973 0.797130
vt 0.475073 0.796788
vt 0.486426 0.795917
vt 0.497761 0.791593
vt 0.507278 0.787285
vt 0.507278 0.762459
vt 0.497761 0.758151
vt 0.486426 0.753826
vt 0.475073 0.752956
vt 0.462597 0.752614
vt 0.433973 0.752614
vt 0.513134 0.767767
vt 0.433973 0.785426
vt 0.521115 0.787720
vt 0.497761 0.806574
vt 0.500740 0.766798
vt 0.493618 0.799282
vt 0.486426 0.778304
vt 0.433972 0.778304
vt 0.433972 0.819388
vt 0.515086 0.778304
vt 0.433972 0.778304
vt 0.433972 0.730356
vt 0.433973 0.785426
vn 0.9303 -0.3359 -0.1476
vn 0.9460 -0.1942 0.2595
vn 0.9303 -0.3359 0.1476
vn 0.3455 0.0000 0.9384
vn 0.5192 -0.0000 0.8546
vn 0.5192 0.0000 -0.8546
vn 0.3455 0.0000 -0.9384
vn -1.0000 -0.0000 0.0000
vn -0.1129 -0.9936 -0.0000
vn 0.0000 -1.0000 0.0000
vn 0.0000 1.0000 -0.0000
vn -0.7724 0.6351 -0.0000
vn -0.5871 0.4857 0.6476
vn -0.4403 0.5387 0.7183
vn -0.4448 0.5374 0.7165
vn -0.3199 0.5685 0.7580
vn -0.1870 0.5894 0.7859
vn -0.3127 0.5699 0.7599
vn -0.1676 0.5915 0.7887
vn -0.3199 0.5685 -0.7580
vn -0.4403 0.5387 -0.7183
vn -0.4447 0.5374 -0.7165
vn -0.5871 0.4857 -0.6476
vn -0.3126 0.5699 -0.7599
vn -0.1869 0.5894 -0.7859
vn -0.1676 0.5915 -0.7887
vn -0.0420 0.5995 -0.7993
vn -0.0110 0.6000 -0.7999
vn -0.0412 0.5995 -0.7993
vn 0.0000 0.6000 -0.8000
vn -0.0109 0.6000 -0.7999
vn 0.0118 0.8997 0.4362
vn 0.0000 0.9746 0.2238
vn 0.0000 0.8998 0.4363
vn 0.0063 0.9738 0.2275
vn 0.0440 0.8989 0.4359
vn 0.0246 0.9728 0.2302
vn 0.0920 0.8960 0.4344
vn 0.1521 0.8894 0.4312
vn 0.0529 0.9714 0.2316
vn 0.2381 0.8739 0.4237
vn 0.0891 0.9689 0.2310
vn 0.3439 0.8516 0.3956
vn 0.1709 0.9583 0.2291
vn 0.4197 0.8309 0.3654
vn 0.9021 0.3464 0.2573
vn 0.7729 0.6212 0.1296
vn 0.9021 0.3463 -0.2573
vn 0.9460 -0.1942 -0.2595
vn 0.7518 -0.2879 0.5932
vn 0.7349 -0.5030 0.4548
vn 0.5406 -0.6136 0.5756
vn 0.5123 -0.6171 0.5972
vn 0.4224 -0.6457 0.6361
vn 0.3745 -0.6556 0.6556
vn 0.2606 -0.6827 0.6827
vn 0.7999 -0.0000 0.6001
vn 0.6557 -0.0000 0.7551
vn 0.2147 0.0000 0.9767
vn 0.1033 0.0000 0.9947
vn 0.0274 0.0000 0.9996
vn 0.0000 0.0000 1.0000
vn 0.0191 -0.7070 0.7070
vn 0.0000 -0.7071 0.7071
vn 0.0196 -0.7070 0.7070
vn 0.0717 -0.7053 0.7053
vn 0.0749 -0.7051 0.7051
vn 0.1493 -0.6992 0.6992
vn 0.1582 -0.6982 0.6982
vn 0.2441 -0.6857 0.6857
vn 0.6038 -0.7971 -0.0000
vn -0.0000 -0.7971 -0.6038
vn -0.6038 -0.7971 0.0000
vn 0.0000 -0.7971 0.6038
vn -0.4027 -0.5492 -0.7323
vn -0.3714 -0.9285 -0.0000
vn -0.4027 -0.5492 0.7323
vn 0.7999 -0.0000 -0.6001
vn 0.7518 -0.2879 -0.5932
vn 0.7349 -0.5030 -0.4548
vn 0.5406 -0.6136 -0.5756
vn 0.5123 -0.6171 -0.5972
vn 0.6557 0.0000 -0.7551
vn 0.1709 0.9583 -0.2291
vn 0.4197 0.8309 -0.3654
vn 0.3439 0.8516 -0.3956
vn 0.7729 0.6212 -0.1296
vn 0.2381 0.8739 -0.4237
vn 0.0891 0.9689 -0.2310
vn 0.1521 0.8894 -0.4312
vn 0.0529 0.9714 -0.2315
vn 0.2147 0.0000 -0.9767
vn 0.1033 0.0000 -0.9947
vn 0.0274 0.0000 -0.9996
vn -0.0000 -0.0000 -1.0000
vn 0.0118 0.8998 -0.4362
vn 0.0000 0.9746 -0.2238
vn 0.0063 0.9738 -0.2275
vn 0.0440 0.8989 -0.4358
vn 0.0246 0.9728 -0.2302
vn 0.0920 0.8960 -0.4344
vn 0.0196 -0.7070 -0.7070
vn -0.0000 -0.7071 -0.7071
vn 0.0191 -0.7070 -0.7070
vn 0.0717 -0.7053 -0.7053
vn 0.1493 -0.6992 -0.6992
vn 0.0749 -0.7051 -0.7051
vn 0.1582 -0.6982 -0.6982
vn 0.2440 -0.6857 -0.6857
vn 0.2606 -0.6827 -0.6827
vn 0.3745 -0.6556 -0.6556
vn 0.4224 -0.6457 -0.6361
vn -0.0420 0.5995 0.7993
vn -0.0412 0.5995 0.7993
vn -0.0110 0.5999 0.8000
vn -0.0109 0.5999 0.8000
vn 0.0000 0.6000 0.8000
vn -0.0001 -1.0000 0.0001
vn -0.0000 0.8998 -0.4363
usemtl _auto_.003
s 1
f 1/1/1 2/2/2 3/3/3
f 4/4/4 5/5/5 6/6/5
f 7/7/6 8/8/7 9/9/6
f 10/10/8 11/11/8 12/12/8
f 13/13/9 11/14/10 14/15/10
f 15/16/11 16/17/11 17/18/11
f 16/19/12 18/20/12 19/21/12
f 18/22/13 20/23/14 19/24/15
f 20/23/14 17/25/16 19/24/15
f 21/26/17 22/27/18 23/28/19
f 24/29/11 25/30/11 26/31/11
f 15/32/20 27/33/21 16/34/22
f 16/34/22 27/33/21 26/35/23
f 28/36/24 29/37/25 30/38/26
f 31/39/27 30/38/26 29/37/25
f 32/40/28 33/41/29 31/39/27
f 34/42/30 35/43/31 32/40/28
f 36/44/10 37/45/10 1/46/10
f 38/47/32 39/48/33 40/49/34
f 41/50/35 42/51/36 43/52/37
f 44/53/38 43/52/37 42/51/36
f 4/54/39 45/55/40 44/53/38
f 6/56/41 46/57/42 4/54/39
f 47/58/43 48/59/44 6/56/41
f 49/60/45 48/59/44 47/58/43
f 49/60/45 50/61/46 24/29/47
f 51/62/48 24/63/47 50/64/46
f 51/62/48 2/2/2 52/65/49
f 50/64/46 53/66/50 2/2/2
f 2/2/2 53/66/50 54/67/51
f 54/67/51 3/3/3 2/2/2
f 55/68/52 54/69/51 53/70/50
f 53/70/50 56/71/53 55/68/52
f 56/71/53 57/72/54 55/68/52
f 57/73/54 56/74/53 5/5/55
f 5/5/55 58/75/56 57/73/54
f 49/76/57 56/74/58 53/77/50
f 4/4/4 59/78/59 60/79/4
f 59/78/59 42/80/60 61/81/60
f 61/81/60 38/82/61 62/83/61
f 38/82/61 63/84/62 62/83/61
f 62/85/63 64/86/64 65/87/65
f 61/88/66 65/87/65 66/89/67
f 59/90/68 66/89/67 67/91/69
f 60/79/70 67/92/69 58/75/56
f 37/45/11 68/93/11 36/44/11
f 69/94/71 37/95/71 36/96/71
f 69/94/72 70/97/72 37/95/72
f 70/97/73 69/94/73 68/98/73
f 69/94/74 36/96/74 68/98/74
f 71/99/75 72/100/75 73/101/75
f 74/102/76 72/103/9 71/104/76
f 13/105/77 74/106/77 11/107/77
f 75/108/78 52/65/49 76/109/79
f 77/110/80 76/109/79 52/65/49
f 52/65/49 1/1/1 77/110/80
f 76/111/79 77/112/80 78/113/81
f 78/113/81 79/114/82 76/111/79
f 79/115/83 75/116/78 76/117/79
f 80/118/84 75/119/85 81/120/86
f 25/30/87 51/121/48 75/119/85
f 80/118/84 81/120/86 9/122/88
f 9/9/6 79/115/83 7/7/6
f 9/122/88 82/123/89 80/118/84
f 8/124/90 83/125/91 82/123/89
f 84/126/92 8/8/7 85/127/7
f 86/128/93 87/129/92 84/126/92
f 88/130/94 89/131/93 86/128/93
f 90/132/95 91/133/94 88/130/94
f 91/134/96 12/135/97 92/136/98
f 89/137/99 92/136/98 93/138/100
f 87/139/101 93/138/100 83/125/91
f 14/15/102 90/140/103 88/141/104
f 86/142/105 14/15/102 88/141/104
f 84/143/106 94/144/107 86/142/105
f 95/145/108 85/146/109 96/147/110
f 96/148/110 7/7/111 97/149/112
f 5/5/5 47/150/58 6/6/5
f 79/115/82 97/149/112 7/7/111
f 97/151/112 79/114/82 78/113/81
f 23/28/19 98/152/113 21/26/17
f 99/153/114 100/154/115 98/152/113
f 101/155/116 102/156/117 100/154/115
f 1/1/1 52/65/49 2/2/2
f 4/4/4 60/79/4 5/5/5
f 7/7/6 85/127/7 8/8/7
f 63/157/8 40/158/8 64/159/8
f 40/158/8 39/160/8 64/159/8
f 39/160/8 103/161/8 34/162/8
f 102/163/8 104/164/8 12/12/8
f 39/160/8 34/162/8 71/165/8
f 102/163/8 12/12/8 74/166/8
f 12/12/8 105/167/8 10/10/8
f 74/166/8 12/12/8 11/11/8
f 39/160/8 71/165/8 73/168/8
f 34/162/8 102/163/8 71/165/8
f 73/168/8 64/159/8 39/160/8
f 71/165/8 102/163/8 74/166/8
f 105/167/8 90/169/8 10/10/8
f 68/93/10 36/44/10 66/89/10
f 36/44/10 67/91/10 66/89/10
f 66/89/10 65/87/10 68/93/10
f 65/87/10 64/86/10 73/170/10
f 65/87/10 73/170/10 72/103/9
f 14/15/10 70/171/10 13/13/9
f 70/171/10 68/93/10 13/13/9
f 11/14/10 10/172/10 14/15/10
f 65/87/10 72/103/9 68/93/10
f 72/103/9 13/13/9 68/93/10
f 16/17/11 19/173/11 17/18/11
f 17/18/11 21/174/11 29/175/11
f 21/174/11 98/176/11 29/175/11
f 98/176/11 100/177/11 32/178/11
f 100/177/11 102/179/11 32/178/11
f 102/179/11 34/180/11 32/178/11
f 32/178/11 31/181/11 98/176/11
f 31/181/11 29/175/11 98/176/11
f 29/175/11 15/16/11 17/18/11
f 16/19/12 26/182/12 18/20/12
f 20/23/14 22/27/18 17/25/16
f 21/26/17 17/25/16 22/27/18
f 35/183/11 103/184/11 39/48/33
f 39/48/33 41/50/35 35/183/11
f 41/50/35 43/52/37 35/183/11
f 43/52/37 45/55/40 33/185/11
f 45/55/40 46/57/42 30/186/11
f 46/57/42 48/59/44 28/187/11
f 48/59/44 24/29/11 27/188/11
f 28/187/11 48/59/44 27/188/11
f 25/30/11 80/118/84 20/189/11
f 80/118/84 82/123/89 22/190/11
f 20/189/11 80/118/84 22/190/11
f 82/123/89 83/125/91 23/191/11
f 83/125/91 93/138/100 99/192/11
f 93/138/100 92/136/98 101/193/11
f 92/136/98 12/135/97 101/193/11
f 12/135/97 104/194/11 101/193/11
f 101/193/11 99/192/11 93/138/100
f 83/125/91 99/192/11 23/191/11
f 45/55/40 30/186/11 33/185/11
f 33/185/11 35/183/11 43/52/37
f 28/187/11 30/186/11 46/57/42
f 82/123/89 23/191/11 22/190/11
f 25/30/11 20/189/11 18/195/11
f 26/31/11 27/188/11 24/29/11
f 25/30/11 18/195/11 26/31/11
f 15/32/20 28/36/24 27/33/21
f 28/36/24 15/32/20 29/37/25
f 31/39/27 33/41/29 30/38/26
f 32/40/28 35/43/31 33/41/29
f 34/42/30 103/196/30 35/43/31
f 78/113/10 77/112/118 1/46/10
f 1/46/10 3/197/10 36/44/10
f 3/197/10 54/69/10 55/68/10
f 36/44/10 3/197/10 55/68/10
f 55/68/10 57/72/10 36/44/10
f 57/72/10 58/198/10 36/44/10
f 58/198/10 67/91/10 36/44/10
f 97/151/10 78/113/10 37/45/10
f 78/113/10 1/46/10 37/45/10
f 95/145/10 96/147/10 37/45/10
f 96/147/10 97/151/10 37/45/10
f 14/15/10 94/144/10 70/171/10
f 94/144/10 95/145/10 37/45/10
f 70/171/10 94/144/10 37/45/10
f 38/47/32 41/50/35 39/48/33
f 41/50/35 38/47/32 42/51/36
f 44/53/38 45/55/40 43/52/37
f 4/54/39 46/57/42 45/55/40
f 6/56/41 48/59/44 46/57/42
f 49/60/45 24/29/47 48/59/44
f 51/62/48 25/199/87 24/63/47
f 51/62/48 50/64/46 2/2/2
f 50/64/46 49/200/57 53/66/50
f 5/5/55 60/79/70 58/75/56
f 49/76/57 47/150/58 56/74/58
f 4/4/4 44/201/59 59/78/59
f 59/78/59 44/201/59 42/80/60
f 61/81/60 42/80/60 38/82/61
f 38/82/61 40/202/62 63/84/62
f 62/85/63 63/203/64 64/86/64
f 61/88/66 62/85/63 65/87/65
f 59/90/68 61/88/66 66/89/67
f 60/79/70 59/78/68 67/92/69
f 37/45/11 70/171/11 68/93/11
f 74/102/76 13/13/9 72/103/9
f 75/108/78 51/62/48 52/65/49
f 79/115/83 81/204/83 75/116/78
f 80/118/84 25/30/87 75/119/85
f 9/9/6 81/204/83 79/115/83
f 9/122/88 8/124/90 82/123/89
f 8/124/90 87/139/101 83/125/91
f 84/126/92 87/129/92 8/8/7
f 86/128/93 89/131/93 87/129/92
f 88/130/94 91/133/94 89/131/93
f 90/132/95 105/205/95 91/133/94
f 91/134/96 105/206/119 12/135/97
f 89/137/99 91/134/96 92/136/98
f 87/139/101 89/137/99 93/138/100
f 14/15/102 10/172/103 90/140/103
f 86/142/105 94/144/107 14/15/102
f 84/143/106 95/145/108 94/144/107
f 95/145/108 84/143/106 85/146/109
f 96/148/110 85/127/109 7/7/111
f 5/5/5 56/74/58 47/150/58
f 23/28/19 99/153/114 98/152/113
f 99/153/114 101/155/116 100/154/115
f 101/155/116 104/207/117 102/156/117
