# Blender v2.80 (sub 75) OBJ File: 'VEN_Small_Board.blend'
# www.blender.org
mtllib VEN_Small_Board.mtl.mtl
o VEN_Small_Board
v 0.499976 -0.419997 0.190025
v 0.199977 -0.389996 0.040024
v 0.199977 -0.389998 -0.039978
v 0.499978 -0.419997 -0.189978
v 0.289977 -0.499997 0.100021
v 0.499978 -0.499997 0.250023
v 0.499978 -0.276246 0.335026
v 0.499977 -0.356249 0.500023
v 0.499976 -0.419999 0.500023
v 0.499976 -0.499999 0.420023
v 0.499978 -0.499997 -0.249977
v 0.499978 -0.499997 -0.419977
v 0.499978 -0.419997 -0.499977
v 0.499978 -0.356247 -0.499977
v 0.499977 -0.276248 -0.334975
v 0.499978 -0.276249 -0.249975
v 0.499978 -0.356248 -0.189978
v 0.499978 -0.356248 0.190023
v 0.499978 -0.276247 0.250025
v -0.500022 -0.276244 0.335024
v -0.500024 -0.356246 0.500023
v -0.500022 -0.419997 -0.499979
v -0.500023 -0.356244 -0.499977
v -0.500023 -0.276246 -0.334977
v -0.500022 -0.276247 -0.249977
v -0.500022 -0.356248 -0.189978
v -0.500022 -0.356248 0.190023
v -0.500022 -0.276245 0.250023
v -0.500024 -0.419997 0.500021
v -0.500024 -0.499997 0.420021
v -0.500024 -0.499999 0.250023
v -0.500024 -0.419997 0.190023
v -0.500024 -0.419997 -0.189976
v -0.500024 -0.499999 -0.249977
v -0.500022 -0.499997 -0.419979
v -0.290023 -0.499997 -0.249975
v -0.350022 -0.429997 -0.189978
v -0.290023 -0.499997 0.250023
v -0.350024 -0.429997 0.190022
v -0.132045 -0.499999 0.132046
v -0.132046 -0.499997 -0.132000
v 0.131999 -0.499997 -0.132000
v 0.132001 -0.499999 0.132046
v 0.289977 -0.499997 -0.099978
v -0.000024 -0.599997 0.000023
vt 0.512107 0.447849
vt 0.489139 0.430240
vt 0.512107 0.418756
vt 0.512107 0.433548
vt 0.496029 0.427423
vt 0.489139 0.435845
vt 0.512107 0.427423
vt 0.480538 0.418756
vt 0.475657 0.418756
vt 0.486663 0.407656
vt 0.435547 0.458951
vt 0.512107 0.471583
vt 0.512107 0.458951
vt 0.475657 0.447849
vt 0.486663 0.458951
vt 0.480538 0.447849
vt 0.435547 0.433548
vt 0.512107 0.438428
vt 0.512107 0.433548
vt 0.512107 0.407656
vt 0.435547 0.395023
vt 0.435547 0.407655
vt 0.435547 0.414163
vt 0.512107 0.414163
vt 0.512107 0.444553
vt 0.435547 0.438428
vt 0.512107 0.438428
vt 0.512107 0.418756
vt 0.435547 0.418756
vt 0.435547 0.447849
vt 0.512107 0.444553
vt 0.435547 0.438428
vt 0.435547 0.444553
vt 0.512107 0.452443
vt 0.435547 0.452443
vt 0.435547 0.427423
vt 0.435547 0.427423
vt 0.447031 0.432782
vt 0.451624 0.427423
vt 0.474892 0.447849
vt 0.469532 0.414163
vt 0.469532 0.452443
vt 0.512107 0.465458
vt 0.435547 0.471583
vt 0.435547 0.465458
vt 0.512107 0.433548
vt 0.435547 0.438429
vt 0.435547 0.433548
vt 0.451624 0.452443
vt 0.483934 0.443411
vt 0.483934 0.423195
vt 0.451624 0.414163
vt 0.512107 0.401148
vt 0.447031 0.432782
vt 0.435547 0.427423
vt 0.451624 0.427423
vt 0.496029 0.427423
vt 0.512107 0.427423
vt 0.512107 0.433548
vt 0.489139 0.435845
vt 0.477954 0.430240
vt 0.469532 0.440959
vt 0.469532 0.425647
vt 0.714847 0.314745
vt 0.782850 0.382747
vt 0.646846 0.382747
vt 0.782849 0.246743
vt 0.646846 0.246743
vt 0.463719 0.443411
vt 0.463719 0.423195
vt 0.435547 0.418757
vt 0.447031 0.447849
vt 0.435547 0.447849
vt 0.489139 0.436365
vt 0.486663 0.452443
vt 0.486663 0.458951
vt 0.480538 0.447849
vt 0.480538 0.471583
vt 0.469532 0.465458
vt 0.475657 0.447849
vt 0.475657 0.471583
vt 0.469532 0.452443
vt 0.469532 0.414163
vt 0.469532 0.401148
vt 0.475657 0.395023
vt 0.480538 0.395023
vt 0.486662 0.414163
vt 0.435547 0.471583
vt 0.469532 0.401148
vt 0.480538 0.395023
vt 0.475657 0.395023
vt 0.486663 0.407655
vt 0.480538 0.418756
vt 0.486663 0.414163
vt 0.475657 0.418757
vt 0.469532 0.414163
vt 0.469532 0.465458
vt 0.469532 0.452443
vt 0.486663 0.452443
vt 0.475657 0.471583
vt 0.480538 0.471583
vt 0.435547 0.438429
vt 0.512107 0.395023
vt 0.435547 0.444553
vt 0.512107 0.447849
vt 0.512107 0.438428
vt 0.512107 0.427423
vt 0.435547 0.433548
vt 0.474892 0.418756
vt 0.512107 0.471583
vt 0.512107 0.438428
vt 0.496029 0.425647
vt 0.496029 0.440959
vt 0.512107 0.452443
vt 0.435547 0.452443
vt 0.435547 0.414163
vt 0.435547 0.401148
vt 0.512107 0.414163
vt 0.435547 0.433548
vt 0.477954 0.436365
vt 0.447031 0.418756
vn -0.0995 -0.9950 0.0000
vn 0.4904 -0.4431 -0.7504
vn 0.4493 -0.1996 -0.8708
vn 0.4327 -0.1324 -0.8918
vn 0.4961 -0.5209 -0.6946
vn 1.0000 -0.0000 -0.0000
vn 0.0000 0.9746 0.2238
vn 0.0000 0.8998 0.4363
vn -1.0000 0.0000 -0.0000
vn 0.0000 0.0000 -1.0000
vn 0.0000 0.9746 -0.2238
vn 0.0000 0.8998 -0.4363
vn 0.0000 1.0000 0.0000
vn -0.0000 0.6000 0.8000
vn 0.0000 0.6000 -0.8000
vn 0.0000 -0.7071 -0.7071
vn -0.0260 -0.6179 -0.7858
vn -0.0110 -0.6371 -0.7707
vn 0.0000 -0.6508 -0.7593
vn -0.7593 -0.6508 -0.0000
vn -0.0000 -0.7071 0.7071
vn -0.0000 -0.0000 1.0000
vn -0.0000 -1.0000 0.0000
vn -0.0110 -0.6371 0.7707
vn -0.0260 -0.6179 0.7858
vn -0.0000 -0.6508 0.7593
vn 0.4492 -0.1996 0.8708
vn 0.4961 -0.5209 0.6946
vn 0.4904 -0.4431 0.7504
vn 0.4326 -0.1324 0.8918
vn 0.7740 0.6332 -0.0000
vn 0.0000 -0.7971 0.6038
vn 0.6038 -0.7971 -0.0000
vn 0.0000 -0.7971 -0.6038
vn -0.6038 -0.7971 -0.0000
vn -0.0665 -0.9978 -0.0000
vn -0.0400 -0.5995 -0.7994
vn -0.0400 -0.5995 0.7994
usemtl _auto_
s 1
f 1/1/1 3/2/1 4/3/1
f 1/4/2 5/5/3 2/6/4
f 1/4/2 6/7/5 5/5/3
f 17/8/6 4/9/6 15/10/6
f 20/11/7 8/12/8 7/13/7
f 32/14/9 20/15/9 27/16/9
f 22/17/10 14/18/10 13/19/10
f 15/20/11 23/21/12 24/22/11
f 15/20/11 25/23/13 16/24/13
f 16/25/14 26/26/14 17/27/14
f 17/28/13 26/29/13 27/30/13
f 19/31/15 27/32/15 28/33/15
f 20/11/7 19/34/13 28/35/13
f 13/19/16 35/36/16 22/17/16
f 31/37/17 39/38/18 38/39/19
f 39/40/20 36/41/20 38/42/20
f 10/43/21 29/44/21 30/45/21
f 9/46/22 21/47/22 29/48/22
f 38/49/23 43/50/23 10/43/23
f 42/51/23 36/52/23 12/53/23
f 37/54/24 34/55/25 36/56/26
f 44/57/27 11/58/28 4/59/29
f 4/59/29 3/60/30 44/57/27
f 3/61/31 5/62/31 44/63/31
f 45/64/32 43/65/32 40/66/32
f 43/65/33 45/64/33 42/67/33
f 45/64/34 41/68/34 42/67/34
f 45/64/35 40/66/35 41/68/35
f 42/51/23 40/69/23 41/70/23
f 33/71/36 39/72/36 32/73/36
f 1/1/1 2/74/1 3/2/1
f 19/75/6 7/76/6 18/77/6
f 7/76/6 8/78/6 10/79/6
f 18/77/6 7/76/6 1/80/6
f 8/78/6 9/81/6 10/79/6
f 10/79/6 6/82/6 7/76/6
f 6/82/6 1/80/6 7/76/6
f 4/9/6 11/83/6 15/10/6
f 11/83/6 12/84/6 15/10/6
f 12/84/6 13/85/6 14/86/6
f 15/10/6 12/84/6 14/86/6
f 1/80/6 4/9/6 18/77/6
f 15/10/6 16/87/6 17/8/6
f 17/8/6 18/77/6 4/9/6
f 20/11/7 21/88/8 8/12/8
f 35/89/9 23/90/9 22/91/9
f 23/90/9 35/89/9 24/92/9
f 24/92/9 26/93/9 25/94/9
f 24/92/9 33/95/9 26/93/9
f 34/96/9 24/92/9 35/89/9
f 33/95/9 24/92/9 34/96/9
f 30/97/9 20/15/9 31/98/9
f 31/98/9 20/15/9 32/14/9
f 32/14/9 27/16/9 33/95/9
f 33/95/9 27/16/9 26/93/9
f 27/16/9 20/15/9 28/99/9
f 29/100/9 21/101/9 30/97/9
f 20/15/9 30/97/9 21/101/9
f 22/17/10 23/102/10 14/18/10
f 15/20/11 14/103/12 23/21/12
f 15/20/11 24/22/11 25/23/13
f 16/25/14 25/104/14 26/26/14
f 17/28/13 27/30/13 18/105/13
f 19/31/15 18/106/15 27/32/15
f 20/11/7 7/13/7 19/34/13
f 13/19/16 12/107/16 35/36/16
f 31/37/17 32/108/37 39/38/18
f 39/40/20 37/109/20 36/41/20
f 10/43/21 9/110/21 29/44/21
f 9/46/22 8/111/22 21/47/22
f 36/52/23 41/70/23 40/69/23
f 43/50/23 44/112/23 5/113/23
f 38/49/23 36/52/23 40/69/23
f 43/50/23 5/113/23 10/43/23
f 5/113/23 6/114/23 10/43/23
f 38/49/23 40/69/23 43/50/23
f 30/45/23 31/115/23 38/49/23
f 10/43/23 30/45/23 38/49/23
f 44/112/23 43/50/23 42/51/23
f 42/51/23 41/70/23 36/52/23
f 36/52/23 34/116/23 35/117/23
f 35/117/23 12/53/23 36/52/23
f 12/53/23 11/118/23 44/112/23
f 42/51/23 12/53/23 44/112/23
f 37/54/24 33/119/38 34/55/25
f 3/61/31 2/120/31 5/62/31
f 42/51/23 43/50/23 40/69/23
f 33/71/36 37/121/36 39/72/36
