# Blender v2.82 (sub 7) OBJ File: 'TACGreeblePipesBasicRemaster.blend'
# www.blender.org
mtllib TACGreeblePipesRemaster.mtl
o Solid1.012
v 0.000000 -0.000000 0.409000
v 0.007778 -0.000000 0.427778
v 0.000000 0.208017 0.409000
v 0.007778 0.215795 0.427778
v 0.007778 0.277778 0.365795
v 0.007778 0.277778 0.000000
v 0.000000 0.259000 0.358017
v 0.000000 0.259000 0.000000
v 0.000000 -0.000000 0.391000
v 0.000000 0.191983 0.391000
v 0.000000 0.241000 0.341983
v 0.000000 0.241000 0.000000
v 0.007778 0.222222 0.000000
v 0.022222 0.207778 0.000000
v 0.022222 0.292222 0.000000
v 0.041000 0.200000 0.000000
v 0.059000 0.200000 0.000000
v 0.077778 0.207778 0.000000
v 0.041000 0.300000 0.000000
v 0.059000 0.300000 0.000000
v 0.077778 0.292222 0.000000
v 0.092222 0.222222 0.000000
v 0.092222 0.277778 0.000000
v 0.100000 0.241000 0.000000
v 0.100000 0.259000 0.000000
v 0.007778 0.222222 0.334205
v 0.007778 -0.000000 0.372222
v 0.007778 0.184205 0.372222
v 0.041000 0.175000 0.350000
v 0.022222 0.178222 0.357778
v 0.041000 0.200000 0.325000
v 0.022222 0.207778 0.328222
v 0.041000 -0.000000 0.350000
v 0.022222 -0.000000 0.357778
v 0.059000 -0.000000 0.350000
v 0.059000 0.175000 0.350000
v 0.059000 0.200000 0.325000
v 0.077778 0.207778 0.328222
v 0.077778 0.178222 0.357778
v 0.077778 -0.000000 0.357778
v 0.092222 -0.000000 0.372222
v 0.092222 0.184205 0.372222
v 0.092222 0.222222 0.334205
v 0.022222 0.292222 0.371778
v 0.041000 0.300000 0.375000
v 0.041000 0.225000 0.450000
v 0.022222 0.221778 0.442222
v 0.022222 -0.000000 0.442222
v 0.041000 -0.000000 0.450000
v 0.100000 0.241000 0.341983
v 0.100000 0.191983 0.391000
v 0.100000 -0.000000 0.391000
v 0.100000 -0.000000 0.409000
v 0.100000 0.208017 0.409000
v 0.100000 0.259000 0.358017
v 0.092222 0.215795 0.427778
v 0.092222 -0.000000 0.427778
v 0.092222 0.277778 0.365795
v 0.077778 -0.000000 0.442222
v 0.077778 0.221778 0.442222
v 0.077778 0.292222 0.371778
v 0.059000 -0.000000 0.450000
v 0.059000 0.225000 0.450000
v 0.059000 0.300000 0.375000
vt 0.495300 0.521200
vt 0.495300 0.521200
vt 0.495300 0.521600
vt 0.495300 0.521600
vt 0.495300 0.521600
vt 0.494600 0.521600
vt 0.495200 0.521500
vt 0.494600 0.521500
vt 0.495200 0.521700
vt 0.495200 0.521700
vt 0.495300 0.521300
vt 0.495300 0.521300
vt 0.495300 0.521600
vt 0.495300 0.521700
vt 0.495200 0.521700
vt 0.494600 0.521700
vt 0.494600 0.521700
vt 0.495400 0.521600
vt 0.495400 0.521600
vt 0.495300 0.521600
vt 0.495400 0.521600
vt 0.495300 0.521600
vt 0.495500 0.521600
vt 0.495300 0.521600
vt 0.495300 0.521700
vt 0.495300 0.521700
vt 0.495500 0.521600
vt 0.495500 0.521700
vt 0.495500 0.521700
vt 0.495300 0.521700
vt 0.495400 0.521700
vt 0.495400 0.521700
vt 0.495400 0.521700
vt 0.495200 0.521600
vt 0.494600 0.521600
vt 0.495200 0.521500
vt 0.494600 0.521500
vt 0.495300 0.521400
vt 0.495300 0.521400
vt 0.495300 0.521700
vt 0.495300 0.521700
vt 0.495200 0.521600
vt 0.495200 0.521700
vt 0.495300 0.521600
vt 0.495300 0.521600
vt 0.495300 0.521600
vt 0.495300 0.521600
vt 0.496000 0.521600
vt 0.495500 0.521600
vt 0.496000 0.521500
vt 0.495500 0.521500
vt 0.495300 0.521500
vt 0.495300 0.521500
vt 0.495300 0.521800
vt 0.495300 0.521800
vt 0.495300 0.521600
vt 0.495600 0.521600
vt 0.495300 0.521700
vt 0.495600 0.521700
vt 0.495200 0.521600
vt 0.495200 0.521600
vt 0.495200 0.521500
vt 0.495200 0.521500
vt 0.496100 0.521600
vt 0.495500 0.521700
vt 0.496100 0.521700
vt 0.496000 0.521500
vt 0.496000 0.521600
vt 0.495400 0.521500
vt 0.495400 0.521600
vt 0.495300 0.521500
vt 0.495300 0.521600
vt 0.495300 0.521500
vt 0.495200 0.521500
vt 0.495300 0.521500
vt 0.495300 0.521800
vt 0.495300 0.521500
vt 0.495300 0.521800
vt 0.495300 0.521300
vt 0.495300 0.521700
vt 0.495300 0.521300
vt 0.495300 0.521700
vt 0.495300 0.521500
vt 0.495200 0.521500
vt 0.495200 0.521400
vt 0.495200 0.521400
vt 0.495900 0.521500
vt 0.495900 0.521600
vt 0.495300 0.521600
vt 0.494700 0.521500
vt 0.495300 0.521500
vt 0.494700 0.521600
vt 0.495300 0.521600
vt 0.495300 0.521500
vt 0.495300 0.521700
vt 0.495300 0.521500
vt 0.495200 0.521700
vt 0.495300 0.521100
vt 0.495300 0.521100
vt 0.495300 0.521200
vt 0.495300 0.521500
vt 0.495300 0.521600
vt 0.494600 0.521500
vt 0.495300 0.521500
vt 0.494600 0.521600
vt 0.495300 0.521600
vt 0.495800 0.521500
vt 0.495800 0.521600
vt 0.495200 0.521600
vt 0.495100 0.521400
vt 0.495200 0.521500
vt 0.495300 0.521600
vt 0.495300 0.521200
vt 0.495300 0.521600
vt 0.495300 0.521200
vt 0.495000 0.521100
vt 0.495000 0.521500
vt 0.495000 0.521100
vt 0.495000 0.521500
vt 0.495100 0.521600
vt 0.495100 0.521500
vt 0.495700 0.521600
vt 0.495700 0.521500
vt 0.495300 0.521500
vt 0.495300 0.521100
vt 0.495300 0.521500
vt 0.495300 0.521100
vt 0.495200 0.521500
vt 0.495200 0.521500
vt 0.495200 0.521400
vt 0.495100 0.521400
vt 0.495700 0.521500
vt 0.495700 0.521600
vt 0.495100 0.521500
vt 0.495100 0.521600
vt 0.495300 0.521100
vt 0.495300 0.521500
vt 0.495300 0.521500
vt 0.495300 0.521600
vt 0.495200 0.521400
vt 0.495200 0.521400
vt 0.495800 0.521500
vt 0.495800 0.521600
vt 0.495100 0.521600
vt 0.495300 0.521400
vt 0.495300 0.521100
vt 0.495300 0.521500
vt 0.495200 0.521400
vt 0.495300 0.521600
vt 0.494700 0.521600
vt 0.494700 0.521500
vt 0.495400 0.521600
vt 0.495400 0.521500
vt 0.495400 0.521600
vt 0.495800 0.521600
vt 0.495400 0.521700
vt 0.495800 0.521700
vt 0.495400 0.521500
vt 0.495400 0.521500
vt 0.495400 0.521700
vt 0.495400 0.521700
vt 0.494700 0.521700
vt 0.495300 0.521700
vt 0.495300 0.521700
vt 0.495300 0.521400
vt 0.495100 0.521600
vt 0.494600 0.521600
vt 0.495100 0.521500
vt 0.494600 0.521500
vt 0.495200 0.521600
vt 0.495300 0.521600
vt 0.495400 0.521600
vt 0.495400 0.521600
vt 0.495300 0.521600
vt 0.495400 0.521600
vt 0.495300 0.521600
vt 0.495500 0.521600
vt 0.495300 0.521600
vt 0.495300 0.521700
vt 0.495300 0.521700
vt 0.495500 0.521600
vt 0.495500 0.521700
vt 0.495500 0.521700
vt 0.495300 0.521700
vt 0.495400 0.521700
vt 0.495400 0.521700
vt 0.495400 0.521700
vn -0.9239 -0.0000 0.3827
vn -0.9239 0.3827 0.0000
vn -0.9239 0.2706 0.2706
vn -1.0000 0.0000 0.0000
vn -0.0000 0.0000 -1.0000
vn -0.9239 -0.3827 -0.0000
vn -0.9239 0.0000 -0.3827
vn -0.9239 -0.2706 -0.2706
vn -0.3827 -0.6533 -0.6533
vn -0.5777 -0.5772 -0.5772
vn -0.3827 -0.9239 -0.0000
vn -0.3827 0.0000 -0.9239
vn 0.0000 -0.7071 -0.7071
vn 0.0000 -1.0000 -0.0000
vn 0.3827 -0.9239 -0.0000
vn 0.3827 -0.6533 -0.6533
vn 0.5777 -0.5772 -0.5772
vn 0.3827 0.0000 -0.9239
vn 0.7071 0.0000 -0.7071
vn 0.7071 -0.5000 -0.5000
vn 0.7071 -0.7071 -0.0000
vn -0.3827 0.9239 0.0000
vn -0.3827 0.6533 0.6533
vn -0.5311 0.5991 0.5991
vn -0.3827 -0.0000 0.9239
vn -0.7071 -0.0000 0.7071
vn -0.7071 0.5000 0.5000
vn -0.7071 0.7071 0.0000
vn 0.9239 -0.3827 -0.0000
vn 0.9239 -0.2706 -0.2706
vn 0.9239 0.0000 -0.3827
vn 1.0000 -0.0000 0.0000
vn 0.9239 0.0000 0.3827
vn 0.9239 0.2706 0.2706
vn 0.9239 0.3827 0.0000
vn 0.7071 -0.0000 0.7071
vn 0.7071 0.5000 0.5000
vn 0.5311 0.5991 0.5991
vn 0.7071 0.7071 0.0000
vn 0.3827 -0.0000 0.9239
vn 0.3827 0.6533 0.6533
vn 0.3827 0.9239 0.0000
vn 0.0000 -0.0000 1.0000
vn 0.0000 0.7071 0.7071
vn 0.0000 1.0000 0.0000
vn -0.7071 0.0000 -0.7071
vn -0.7071 -0.7071 -0.0000
vn -0.7071 -0.5000 -0.5000
usemtl 191,191,191.011
s 1
f 1/1/1 2/2/1 3/3/1
f 3/3/1 2/2/1 4/4/1
f 5/5/2 6/6/2 7/7/2
f 7/7/2 6/6/2 8/8/2
f 5/9/3 7/10/3 4/4/3
f 4/4/3 7/10/3 3/3/3
f 9/11/4 1/12/4 10/13/4
f 10/13/4 1/12/4 3/14/4
f 10/13/4 3/14/4 7/10/4
f 10/13/4 7/10/4 11/15/4
f 11/15/4 7/10/4 8/16/4
f 11/15/4 8/16/4 12/17/4
f 12/18/5 8/19/5 13/20/5
f 13/20/5 8/19/5 6/21/5
f 13/20/5 6/21/5 14/22/5
f 14/22/5 6/21/5 15/23/5
f 14/22/5 15/23/5 16/24/5
f 16/24/5 15/23/5 17/25/5
f 17/25/5 15/23/5 18/26/5
f 18/26/5 15/23/5 19/27/5
f 18/26/5 19/27/5 20/28/5
f 20/28/5 21/29/5 18/26/5
f 18/26/5 21/29/5 22/30/5
f 22/30/5 21/29/5 23/31/5
f 22/30/5 23/31/5 24/32/5
f 24/32/5 23/31/5 25/33/5
f 11/34/6 12/35/6 26/36/6
f 26/36/6 12/35/6 13/37/6
f 27/38/7 9/39/7 28/40/7
f 28/40/7 9/39/7 10/41/7
f 28/42/8 10/13/8 26/43/8
f 26/43/8 10/13/8 11/15/8
f 29/44/9 30/45/10 31/46/9
f 31/46/9 30/45/10 32/47/10
f 16/48/11 31/49/11 14/50/11
f 14/50/11 31/49/11 32/51/11
f 33/52/12 34/53/12 29/54/12
f 29/54/12 34/53/12 30/55/12
f 33/56/5 29/57/5 35/58/5
f 35/58/5 29/57/5 36/59/5
f 31/60/13 37/61/13 29/62/13
f 29/62/13 37/61/13 36/63/13
f 31/49/14 16/64/14 37/65/14
f 37/65/14 16/64/14 17/66/14
f 17/67/15 18/68/15 37/69/15
f 37/69/15 18/68/15 38/70/15
f 37/71/16 38/72/17 36/73/16
f 36/73/16 38/72/17 39/74/17
f 35/75/18 36/76/18 40/77/18
f 40/77/18 36/76/18 39/78/18
f 40/79/19 39/80/19 41/81/19
f 41/81/19 39/80/19 42/82/19
f 38/83/17 43/84/20 39/85/17
f 39/85/17 43/84/20 42/86/20
f 18/87/21 22/88/21 38/83/21
f 38/83/21 22/88/21 43/89/21
f 15/90/22 44/91/22 19/92/22
f 19/92/22 44/91/22 45/93/22
f 46/94/23 45/95/23 47/96/24
f 47/96/24 45/95/23 44/97/24
f 48/98/25 49/99/25 47/96/25
f 47/96/25 49/99/25 46/94/25
f 2/2/26 48/100/26 4/101/26
f 4/101/26 48/100/26 47/102/26
f 4/101/27 47/102/24 5/9/27
f 5/9/27 47/102/24 44/97/24
f 6/103/28 5/104/28 15/105/28
f 15/105/28 5/104/28 44/106/28
f 22/107/29 24/108/29 43/84/29
f 43/84/29 24/108/29 50/109/29
f 51/110/30 42/86/30 50/111/30
f 50/111/30 42/86/30 43/84/30
f 51/112/31 52/113/31 42/114/31
f 42/114/31 52/113/31 41/115/31
f 52/116/32 51/117/32 53/118/32
f 53/118/32 51/117/32 54/119/32
f 54/119/32 51/117/32 55/120/32
f 55/120/32 51/117/32 50/121/32
f 55/120/32 50/121/32 25/122/32
f 25/122/32 50/121/32 24/123/32
f 56/124/33 57/125/33 54/126/33
f 54/126/33 57/125/33 53/127/33
f 55/128/34 58/129/34 54/130/34
f 54/130/34 58/129/34 56/131/34
f 25/132/35 23/133/35 55/134/35
f 55/134/35 23/133/35 58/135/35
f 57/125/36 56/124/36 59/136/36
f 59/136/36 56/124/36 60/137/36
f 58/138/37 61/139/38 56/140/37
f 56/140/37 61/139/38 60/141/38
f 23/142/39 21/143/39 58/129/39
f 58/129/39 21/143/39 61/144/39
f 59/136/40 60/145/40 62/146/40
f 62/146/40 60/145/40 63/147/40
f 63/148/41 60/145/38 64/149/41
f 64/149/41 60/145/38 61/139/38
f 21/150/42 20/151/42 61/152/42
f 61/152/42 20/151/42 64/153/42
f 46/154/43 49/155/43 63/156/43
f 63/156/43 49/155/43 62/157/43
f 46/158/44 63/159/44 45/160/44
f 45/160/44 63/159/44 64/161/44
f 19/92/45 45/93/45 20/162/45
f 20/162/45 45/93/45 64/163/45
f 28/40/46 30/164/46 27/38/46
f 27/38/46 30/164/46 34/165/46
f 26/166/47 13/167/47 32/168/47
f 32/168/47 13/167/47 14/169/47
f 26/43/48 32/170/10 28/171/48
f 28/171/48 32/170/10 30/45/10
f 1/172/14 9/173/14 2/174/14
f 2/174/14 9/173/14 27/175/14
f 2/174/14 27/175/14 48/176/14
f 48/176/14 27/175/14 34/177/14
f 48/176/14 34/177/14 49/178/14
f 49/178/14 34/177/14 62/179/14
f 62/179/14 34/177/14 59/180/14
f 59/180/14 34/177/14 33/181/14
f 59/180/14 33/181/14 35/182/14
f 35/182/14 40/183/14 59/180/14
f 59/180/14 40/183/14 57/184/14
f 57/184/14 40/183/14 41/185/14
f 57/184/14 41/185/14 53/186/14
f 53/186/14 41/185/14 52/187/14
