# Blender v2.78 (sub 0) OBJ File: 'TACAPPoint.blend'
# www.blender.org
mtllib TACAPLong.mtl
o Solid1.010
v 0.175000 -0.425000 -0.300000
v -0.175000 -0.425000 -0.300000
v 0.175000 0.500000 -0.300000
v -0.175000 0.500000 -0.300000
v -0.300000 -0.425000 -0.175000
v -0.300000 0.500000 -0.175000
v -0.300000 -0.425000 0.175000
v -0.300000 0.500000 0.175000
v -0.175000 -0.425000 0.300000
v -0.175000 0.500000 0.300000
v 0.175000 -0.425000 0.300000
v 0.175000 0.500000 0.300000
v 0.300000 -0.425000 -0.175000
v 0.300000 0.500000 -0.175000
v 0.300000 -0.425000 0.175000
v 0.300000 0.500000 0.175000
v 0.225000 -0.500000 -0.143934
v 0.225000 -0.500000 0.143934
v 0.143934 -0.500000 -0.225000
v -0.143934 -0.500000 -0.225000
v 0.143934 -0.500000 0.225000
v -0.225000 -0.500000 -0.143934
v -0.143934 -0.500000 0.225000
v -0.225000 -0.500000 0.143934
vt 0.4394 0.6123
vt 0.4378 0.6123
vt 0.4394 0.6082
vt 0.4378 0.6082
vt 0.4368 0.6112
vt 0.4376 0.6112
vt 0.4368 0.6153
vt 0.4376 0.6153
vt 0.4394 0.6123
vt 0.4378 0.6123
vt 0.4394 0.6082
vt 0.4378 0.6082
vt 0.4368 0.6112
vt 0.4376 0.6112
vt 0.4368 0.6153
vt 0.4376 0.6153
vt 0.4394 0.6123
vt 0.4378 0.6123
vt 0.4394 0.6082
vt 0.4378 0.6082
vt 0.4368 0.6112
vt 0.4376 0.6112
vt 0.4368 0.6153
vt 0.4376 0.6153
vt 0.4368 0.6112
vt 0.4376 0.6112
vt 0.4368 0.6153
vt 0.4376 0.6153
vt 0.4394 0.6123
vt 0.4378 0.6123
vt 0.4394 0.6082
vt 0.4378 0.6082
vt 0.4359 0.6110
vt 0.4380 0.6104
vt 0.4359 0.6125
vt 0.4386 0.6110
vt 0.4365 0.6131
vt 0.4386 0.6125
vt 0.4380 0.6131
vt 0.4365 0.6104
vt 0.4379 0.6127
vt 0.4366 0.6127
vt 0.4382 0.6124
vt 0.4382 0.6111
vt 0.4362 0.6124
vt 0.4379 0.6107
vt 0.4362 0.6111
vt 0.4366 0.6107
vt 0.4376 0.6120
vt 0.4368 0.6120
vt 0.4375 0.6115
vt 0.4370 0.6115
vt 0.4374 0.6120
vt 0.4358 0.6120
vt 0.4372 0.6115
vt 0.4359 0.6115
vt 0.4376 0.6120
vt 0.4368 0.6120
vt 0.4375 0.6115
vt 0.4370 0.6115
vt 0.4374 0.6120
vt 0.4358 0.6120
vt 0.4372 0.6115
vt 0.4359 0.6115
vt 0.4376 0.6120
vt 0.4368 0.6120
vt 0.4375 0.6115
vt 0.4370 0.6115
vt 0.4359 0.6115
vt 0.4372 0.6115
vt 0.4358 0.6120
vt 0.4374 0.6120
vt 0.4359 0.6115
vt 0.4372 0.6115
vt 0.4358 0.6120
vt 0.4374 0.6120
vt 0.4370 0.6115
vt 0.4375 0.6115
vt 0.4368 0.6120
vt 0.4376 0.6120
vn 0.0000 0.0000 -1.0000
vn -0.7071 0.0000 -0.7071
vn -1.0000 0.0000 0.0000
vn -0.7071 -0.0000 0.7071
vn 0.0000 -0.0000 1.0000
vn 0.7071 0.0000 -0.7071
vn 0.7071 -0.0000 0.7071
vn 1.0000 0.0000 0.0000
vn -0.0000 1.0000 0.0000
vn 0.0000 -1.0000 -0.0000
vn 0.5774 -0.5773 0.5774
vn 0.0000 -0.7071 0.7071
vn -0.5774 -0.5773 0.5774
vn -0.7071 -0.7071 -0.0000
vn -0.5774 -0.5773 -0.5774
vn 0.0000 -0.7071 -0.7071
vn 0.7071 -0.7071 -0.0000
vn 0.5774 -0.5773 -0.5774
usemtl 191,191,191.009
s 1
f 1/1/1 2/2/1 3/3/1
f 3/3/1 2/2/1 4/4/1
f 2/5/2 5/6/2 4/7/2
f 4/7/2 5/6/2 6/8/2
f 5/9/3 7/10/3 6/11/3
f 6/11/3 7/10/3 8/12/3
f 7/13/4 9/14/4 8/15/4
f 8/15/4 9/14/4 10/16/4
f 9/17/5 11/18/5 10/19/5
f 10/19/5 11/18/5 12/20/5
f 13/21/6 1/22/6 14/23/6
f 14/23/6 1/22/6 3/24/6
f 11/25/7 15/26/7 12/27/7
f 12/27/7 15/26/7 16/28/7
f 15/29/8 13/30/8 16/31/8
f 16/31/8 13/30/8 14/32/8
f 4/33/9 8/34/9 3/35/9
f 3/35/9 8/34/9 10/36/9
f 3/35/9 10/36/9 14/37/9
f 14/37/9 10/36/9 12/38/9
f 14/37/9 12/38/9 16/39/9
f 4/33/9 6/40/9 8/34/9
f 17/41/10 18/42/10 19/43/10
f 19/43/10 18/42/10 20/44/10
f 20/44/10 18/42/10 21/45/10
f 20/44/10 21/45/10 22/46/10
f 22/46/10 21/45/10 23/47/10
f 22/46/10 23/47/10 24/48/10
f 15/49/11 11/50/11 18/51/11
f 18/51/11 11/50/11 21/52/11
f 11/53/12 9/54/12 21/55/12
f 21/55/12 9/54/12 23/56/12
f 9/57/13 7/58/13 23/59/13
f 23/59/13 7/58/13 24/60/13
f 7/61/14 5/62/14 24/63/14
f 24/63/14 5/62/14 22/64/14
f 5/65/15 2/66/15 22/67/15
f 22/67/15 2/66/15 20/68/15
f 19/69/16 20/70/16 1/71/16
f 1/71/16 20/70/16 2/72/16
f 18/73/17 17/74/17 15/75/17
f 15/75/17 17/74/17 13/76/17
f 17/77/18 19/78/18 13/79/18
f 13/79/18 19/78/18 1/80/18
