# Blender v2.80 (sub 75) OBJ File: 'GC_Rail.blend'
# www.blender.org
mtllib GC_Rail_Anchor.mtl
o GC_Rail_Anchor
v -0.250023 -0.531253 32.375000
v 1.249980 -0.531253 32.375000
v 1.237030 -0.500003 32.343800
v 0.776079 -0.500003 32.343800
v 0.749977 -0.515628 32.359402
v 0.249977 -0.515628 32.359402
v 0.223875 -0.500003 32.343800
v -0.237079 -0.500003 32.343800
v 1.249980 -0.781253 32.375000
v -0.250023 -0.781253 32.375000
v 1.374980 -0.781253 32.250000
v 1.374980 -0.531253 32.250000
v 1.374980 -0.781253 30.750000
v 1.374980 -0.531253 30.750000
v 1.249980 -0.781253 30.625000
v 1.249980 -0.531253 30.625000
v 1.314980 -0.781253 30.774900
v 1.225120 -0.781253 30.684999
v -0.225170 -0.781253 30.684999
v -0.250023 -0.781253 30.625000
v -0.315023 -0.781253 30.774900
v -0.375023 -0.781253 30.750000
v -0.375023 -0.781253 32.250000
v -0.315023 -0.781253 32.225201
v -0.225170 -0.781253 32.314999
v -0.315023 -1.281255 32.225201
v -0.225170 -1.281255 32.314999
v -0.315023 -1.281255 30.774900
v -0.225170 -1.281255 30.684999
v 1.225120 -1.281255 30.684999
v 1.314980 -1.281255 30.774900
v 1.314980 -0.781253 32.225201
v 1.314980 -1.281255 32.225201
v 1.225120 -0.781253 32.314999
v 1.225120 -1.281255 32.314999
v 1.249980 -1.281255 32.375000
v -0.250023 -1.281255 32.375000
v -0.375023 -1.281255 32.250000
v -0.375023 -1.281255 30.750000
v -0.250023 -1.281255 30.625000
v 1.249980 -1.281255 30.625000
v 1.374980 -1.281255 30.750000
v 1.374980 -1.281255 32.250000
v 1.249980 -6.431255 32.375000
v 1.374980 -6.431255 32.250000
v -0.250023 -6.431255 32.375000
v 0.124977 -6.431255 32.375000
v 0.124977 -1.531255 32.375000
v 0.874977 -1.531255 32.375000
v 0.874977 -6.431255 32.375000
v -0.375023 -6.431255 32.250000
v -0.375023 -6.431255 31.124998
v -0.375023 -1.531255 31.125000
v -0.375023 -1.531255 31.875000
v -0.375023 -6.431255 31.874998
v -0.375023 -6.431255 30.749998
v -0.225023 -1.531255 31.125000
v -0.225023 -1.531255 31.875000
v -0.275023 -6.531255 30.791399
v -0.275023 -6.531255 32.208599
v -0.250023 -6.431255 30.624998
v -0.208602 -6.531255 30.724998
v 1.249980 -6.431255 30.624998
v 0.874977 -6.431255 30.624998
v 0.874977 -1.531255 30.625000
v 0.124977 -1.531255 30.625000
v 0.124977 -6.431255 30.624998
v 1.374980 -6.431255 30.749998
v 1.374980 -6.431255 31.874998
v 1.374980 -1.531255 31.875000
v 1.374980 -1.531255 31.125000
v 1.374980 -6.431255 31.124998
v 1.274980 -6.531255 32.208599
v 1.274980 -6.531255 30.791399
v 1.224980 -1.531255 31.125000
v 1.224980 -1.531255 31.875000
v 1.208560 -6.531255 32.275002
v -0.208602 -6.531255 32.275002
v 0.874977 -1.531255 32.224998
v 0.124977 -1.531255 32.224998
v 1.208560 -6.531255 30.724998
v 0.874977 -1.531255 30.775000
v 0.124977 -1.531255 30.775000
v -0.375023 -0.531253 32.250000
v -0.375023 -0.531253 30.750000
v -0.250023 -0.531253 30.625000
v -0.343773 -0.500003 30.763000
v -0.237079 -0.500003 30.656300
v -0.343773 -0.500003 32.237099
v -0.343773 -0.500003 31.776100
v -0.359398 -0.515628 31.750000
v -0.359398 -0.515628 31.250000
v -0.343773 -0.500003 31.223900
v -0.223773 -0.500003 31.223900
v -0.223773 -0.500003 31.776100
v 0.223875 -0.500003 32.223801
v 0.776079 -0.500003 32.223801
v 1.343730 -0.500003 32.237099
v 1.343730 -0.500003 31.776100
v 1.223730 -0.500003 31.776100
v 1.223730 -0.500003 31.223900
v 1.343730 -0.500003 31.223900
v 1.343730 -0.500003 30.763000
v 1.237030 -0.500003 30.656300
v 0.776079 -0.500003 30.656300
v 0.776079 -0.500003 30.776300
v 0.223875 -0.500003 30.776300
v 0.223875 -0.500003 30.656300
v -0.239398 -0.515628 31.250000
v -0.239398 -0.515628 31.750000
v 0.249977 -0.515628 32.239399
v 0.749977 -0.515628 32.239399
v 1.359350 -0.515628 31.250000
v 1.359350 -0.515628 31.750000
v 1.239350 -0.515628 31.250000
v 1.239350 -0.515628 31.750000
v 0.249977 -0.515628 30.640600
v 0.749977 -0.515628 30.640600
v 0.249977 -0.515628 30.760599
v 0.749977 -0.515628 30.760599
vt 0.435545 0.315687
vt 0.434940 0.316049
vt 0.423957 0.315325
vt 0.458721 0.315325
vt 0.423957 0.309531
vt 0.458721 0.309531
vt 0.461618 0.315325
vt 0.461618 0.309531
vt 0.452927 0.317193
vt 0.447133 0.351957
vt 0.447133 0.317193
vt 0.461618 0.309531
vt 0.458721 0.315325
vt 0.461618 0.315325
vt 0.422450 0.294673
vt 0.423957 0.298145
vt 0.421060 0.295248
vt 0.422450 0.297943
vt 0.424533 0.309531
vt 0.422450 0.309531
vt 0.435545 0.317771
vt 0.447133 0.351383
vt 0.447133 0.317771
vt 0.435545 0.315687
vt 0.458145 0.297943
vt 0.424533 0.309531
vt 0.458145 0.309531
vt 0.435545 0.317771
vt 0.447133 0.315687
vt 0.447133 0.317771
vt 0.435545 0.351383
vt 0.458721 0.257587
vt 0.423957 0.257587
vt 0.458145 0.258978
vt 0.458145 0.309531
vt 0.424533 0.297943
vt 0.458145 0.297943
vt 0.460227 0.309531
vt 0.460227 0.297943
vt 0.423957 0.298145
vt 0.458145 0.296754
vt 0.424533 0.296754
vt 0.458145 0.258978
vt 0.458721 0.257587
vt 0.461618 0.260484
vt 0.458721 0.251793
vt 0.461618 0.371149
vt 0.458721 0.371149
vt 0.423957 0.371149
vt 0.450030 0.365355
vt 0.421060 0.251793
vt 0.423957 0.251793
vt 0.432648 0.365355
vt 0.423957 0.371149
vt 0.458721 0.371149
vt 0.421060 0.365355
vt 0.421060 0.251793
vt 0.424536 0.365355
vt 0.450030 0.251793
vt 0.432648 0.365355
vt 0.450030 0.365355
vt 0.432648 0.371149
vt 0.450030 0.371149
vt 0.457761 0.368832
vt 0.423377 0.261444
vt 0.423957 0.257587
vt 0.424917 0.259905
vt 0.423957 0.251793
vt 0.421060 0.371149
vt 0.423957 0.371149
vt 0.450030 0.365355
vt 0.432648 0.365355
vt 0.458721 0.371149
vt 0.461618 0.251793
vt 0.458721 0.251793
vt 0.458721 0.371149
vt 0.423957 0.371149
vt 0.450030 0.365355
vt 0.461618 0.286557
vt 0.459300 0.294289
vt 0.459300 0.261444
vt 0.450030 0.365355
vt 0.432648 0.251793
vt 0.450030 0.251793
vt 0.461618 0.251793
vt 0.461618 0.365355
vt 0.458141 0.365355
vt 0.461618 0.269175
vt 0.458141 0.286557
vt 0.458141 0.269175
vt 0.461618 0.365355
vt 0.461618 0.251793
vt 0.458141 0.365355
vt 0.458721 0.298145
vt 0.457761 0.295828
vt 0.447133 0.371149
vt 0.429751 0.371149
vt 0.422020 0.368832
vt 0.450030 0.365355
vt 0.432648 0.251793
vt 0.450030 0.251793
vt 0.421060 0.251793
vt 0.421060 0.365355
vt 0.424536 0.365355
vt 0.450030 0.298145
vt 0.432648 0.294669
vt 0.450030 0.294669
vt 0.421060 0.365355
vt 0.421060 0.251793
vt 0.424536 0.365355
vt 0.423377 0.294289
vt 0.423957 0.298145
vt 0.421060 0.295248
vt 0.458721 0.257587
vt 0.461618 0.260484
vt 0.432648 0.257587
vt 0.450030 0.251793
vt 0.432648 0.365355
vt 0.450030 0.365355
vt 0.461618 0.365355
vt 0.461618 0.251793
vt 0.458141 0.365355
vt 0.450030 0.261063
vt 0.432648 0.257587
vt 0.450030 0.257587
vt 0.461618 0.251793
vt 0.461618 0.365355
vt 0.458141 0.365355
vt 0.421060 0.251793
vt 0.421060 0.365355
vt 0.424536 0.365355
vt 0.424536 0.269175
vt 0.421060 0.286557
vt 0.421060 0.269175
vt 0.421060 0.309531
vt 0.421060 0.315325
vt 0.447133 0.317193
vt 0.452927 0.351957
vt 0.452927 0.317193
vt 0.421060 0.315325
vt 0.423957 0.309531
vt 0.421060 0.309531
vt 0.421060 0.260484
vt 0.424257 0.258312
vt 0.423957 0.257587
vt 0.421060 0.295248
vt 0.421422 0.272072
vt 0.421784 0.294949
vt 0.423957 0.298145
vt 0.424257 0.297422
vt 0.460893 0.294949
vt 0.460893 0.284265
vt 0.458112 0.284265
vt 0.424203 0.272072
vt 0.421784 0.271467
vt 0.424565 0.284265
vt 0.424565 0.271467
vt 0.424203 0.283660
vt 0.421784 0.284265
vt 0.435545 0.295002
vt 0.434940 0.297422
vt 0.435545 0.297784
vt 0.447133 0.315687
vt 0.434940 0.316049
vt 0.435545 0.315687
vt 0.447133 0.295002
vt 0.447738 0.297422
vt 0.447738 0.294641
vt 0.458721 0.298145
vt 0.461618 0.295248
vt 0.461255 0.283660
vt 0.461618 0.260484
vt 0.458474 0.272072
vt 0.460893 0.271467
vt 0.458112 0.271467
vt 0.453289 0.328781
vt 0.453651 0.340974
vt 0.453289 0.340369
vt 0.458474 0.283660
vt 0.461255 0.272072
vt 0.458421 0.258312
vt 0.460893 0.260785
vt 0.458721 0.257587
vt 0.447133 0.257949
vt 0.458721 0.309531
vt 0.423957 0.315325
vt 0.435545 0.260730
vt 0.434940 0.258312
vt 0.434940 0.261094
vt 0.447738 0.261094
vt 0.447133 0.260730
vt 0.435545 0.257949
vt 0.447738 0.258312
vt 0.458421 0.316049
vt 0.447738 0.316049
vt 0.447133 0.315687
vt 0.424257 0.316049
vt 0.452927 0.351957
vt 0.460227 0.294673
vt 0.461618 0.295248
vt 0.423957 0.257587
vt 0.424533 0.258978
vt 0.421060 0.260484
vt 0.422450 0.261061
vt 0.458721 0.298145
vt 0.458145 0.296754
vt 0.424533 0.296754
vt 0.435545 0.351383
vt 0.447133 0.315687
vt 0.424533 0.297943
vt 0.435545 0.315687
vt 0.447133 0.351383
vt 0.458721 0.298145
vt 0.460227 0.294673
vt 0.461618 0.295248
vt 0.421060 0.295248
vt 0.422450 0.294673
vt 0.422450 0.261061
vt 0.460227 0.261061
vt 0.421060 0.260484
vt 0.424533 0.258978
vt 0.461618 0.260484
vt 0.460227 0.261061
vt 0.461618 0.251793
vt 0.432648 0.365355
vt 0.421060 0.371149
vt 0.458721 0.251793
vt 0.450030 0.365355
vt 0.432648 0.251793
vt 0.423957 0.251793
vt 0.458721 0.371149
vt 0.424916 0.368832
vt 0.423957 0.371149
vt 0.421060 0.260484
vt 0.421060 0.251793
vt 0.432648 0.251793
vt 0.461618 0.371149
vt 0.458721 0.251793
vt 0.423957 0.251793
vt 0.432648 0.365355
vt 0.461618 0.269175
vt 0.461618 0.295248
vt 0.432648 0.365355
vt 0.461618 0.286557
vt 0.454864 0.368832
vt 0.455824 0.371149
vt 0.421060 0.371149
vt 0.432648 0.365355
vt 0.432648 0.298145
vt 0.424917 0.295828
vt 0.457761 0.259905
vt 0.450030 0.257587
vt 0.432648 0.261063
vt 0.424536 0.286557
vt 0.447133 0.351957
vt 0.421784 0.260785
vt 0.421422 0.283660
vt 0.434940 0.294641
vt 0.458421 0.297422
vt 0.447738 0.316049
vt 0.447133 0.297784
vt 0.453651 0.328176
vn -0.0000 0.7065 0.7077
vn -0.0000 0.7066 0.7076
vn 0.0000 0.0000 1.0000
vn 0.7071 0.0000 0.7071
vn 1.0000 0.0000 0.0000
vn 0.7071 0.0000 -0.7071
vn -0.0000 -1.0000 -0.0000
vn -0.7069 0.0000 0.7073
vn -1.0000 0.0000 0.0000
vn -0.7073 0.0000 -0.7069
vn 0.0000 0.0000 -1.0000
vn 0.7073 0.0000 -0.7069
vn 0.0000 1.0000 0.0000
vn 0.7069 0.0000 0.7074
vn -0.7071 0.0000 0.7071
vn -0.9995 0.0306 0.0000
vn -0.7071 -0.7071 0.0000
vn -0.5000 -0.7071 -0.5001
vn -0.4999 -0.7071 -0.5001
vn -0.7071 0.0000 -0.7071
vn 0.7071 -0.7071 0.0000
vn 0.9995 0.0306 0.0000
vn 0.5000 -0.7071 0.5000
vn 0.4999 -0.7071 0.5001
vn 0.0000 -0.7071 0.7071
vn 0.0000 0.0306 0.9995
vn -0.5000 -0.7071 0.5001
vn -0.5000 -0.7071 0.5000
vn 0.5000 -0.7071 -0.5001
vn 0.5000 -0.7071 -0.5000
vn 0.0000 -0.7071 -0.7071
vn 0.0000 0.0306 -0.9995
vn -0.4997 0.7076 -0.4997
vn -0.4997 0.7075 -0.4997
vn -0.7071 0.7071 0.0000
vn -0.5002 0.7068 0.5002
vn -0.5003 0.7067 0.5003
vn 0.0000 0.8580 0.5136
vn 0.0000 0.8580 -0.5136
vn 0.5136 0.8580 0.0000
vn -0.5136 0.8580 0.0000
vn 0.5002 0.7068 0.5002
vn 0.7070 0.7072 -0.0000
vn 0.7071 0.7071 -0.0000
vn 0.7072 0.7070 0.0000
vn 0.4997 0.7076 -0.4997
vn 0.0000 0.7077 -0.7065
vn 0.0000 0.7070 -0.7073
vn 0.0000 0.7088 -0.7054
vn -0.5000 -0.7071 -0.5000
vn -0.4999 -0.7071 0.5001
vn 0.4999 -0.7071 -0.5001
vn 0.4997 0.7075 -0.4997
vn -0.0001 0.7086 -0.7056
vn 0.0001 0.7086 -0.7056
usemtl _auto_.002
s 1
f 6/1/1 7/2/2 1/3/1
f 2/4/3 10/5/3 9/6/3
f 12/7/4 9/6/4 11/8/4
f 14/9/5 11/10/5 13/11/5
f 13/12/6 16/13/6 14/14/6
f 24/15/7 10/16/7 23/17/7
f 26/18/8 25/19/8 24/20/8
f 28/21/9 24/22/9 21/23/9
f 21/23/10 29/24/10 28/21/10
f 30/25/11 19/26/11 18/27/11
f 31/28/12 18/29/12 17/30/12
f 17/30/5 33/31/5 31/28/5
f 41/32/13 40/33/13 30/34/13
f 34/35/3 27/36/3 35/37/3
f 32/38/14 35/37/14 33/39/14
f 37/40/13 35/41/13 27/42/13
f 18/43/7 15/44/7 13/45/7
f 44/46/4 43/47/4 36/48/4
f 36/48/3 37/49/3 49/50/3
f 37/49/15 51/51/15 46/52/15
f 54/53/9 38/54/9 39/55/9
f 53/56/3 52/57/3 57/58/3
f 52/59/16 58/60/16 57/61/16
f 55/62/17 52/63/17 59/64/17
f 59/65/18 61/66/18 62/67/19
f 61/68/20 39/69/20 40/70/20
f 65/71/11 66/72/11 40/70/11
f 41/73/6 68/74/6 63/75/6
f 42/76/5 43/77/5 71/78/5
f 69/79/21 73/80/21 74/81/21
f 75/82/22 69/83/22 72/84/22
f 72/85/3 71/86/3 75/87/3
f 71/88/7 76/89/7 75/90/7
f 70/91/11 69/92/11 76/93/11
f 73/80/23 44/94/23 77/95/24
f 50/96/25 47/97/25 78/98/25
f 79/99/26 47/100/26 50/101/26
f 50/102/9 49/103/9 79/104/9
f 49/105/7 80/106/7 79/107/7
f 48/108/5 47/109/5 80/110/5
f 60/111/27 46/112/28 51/113/28
f 60/111/7 59/65/7 62/67/7
f 74/81/29 63/114/29 68/115/30
f 62/67/31 61/66/31 67/116/31
f 64/117/32 83/118/32 82/119/32
f 65/120/9 64/121/9 82/122/9
f 82/123/7 66/124/7 65/125/7
f 67/126/5 66/127/5 83/128/5
f 55/129/11 54/130/11 58/131/11
f 57/132/7 54/133/7 53/134/7
f 23/135/15 1/3/15 84/136/15
f 22/137/9 84/138/9 85/139/9
f 85/140/20 20/141/20 22/142/20
f 85/143/33 88/144/34 86/145/34
f 85/143/35 84/146/35 92/147/35
f 89/148/36 1/149/37 8/150/37
f 98/151/13 99/152/13 100/153/13
f 109/154/38 93/155/38 92/147/38
f 109/154/35 95/156/35 94/157/35
f 92/147/13 110/158/13 109/154/13
f 110/158/39 90/159/39 95/156/39
f 111/160/40 7/161/40 6/162/40
f 112/163/1 96/164/1 111/165/1
f 6/162/13 112/166/13 111/160/13
f 112/166/41 4/167/41 97/168/41
f 98/151/42 2/169/42 12/170/42
f 114/171/43 12/170/44 14/172/44
f 115/173/38 102/174/38 101/175/38
f 115/176/45 100/177/45 116/178/45
f 116/179/39 99/152/39 114/171/39
f 115/173/13 114/171/13 113/180/13
f 14/172/46 104/181/46 103/182/46
f 16/183/47 86/145/47 118/184/48
f 15/185/11 86/186/11 16/13/11
f 119/187/40 108/188/40 107/189/40
f 119/187/49 106/190/49 120/191/49
f 119/187/13 118/184/13 117/192/13
f 120/191/41 105/193/41 118/184/41
f 2/4/1 3/194/1 4/195/2
f 2/4/1 4/195/2 5/196/1
f 7/2/2 8/197/1 1/3/1
f 2/4/1 5/196/1 1/3/1
f 5/196/1 6/1/1 1/3/1
f 2/4/3 1/3/3 10/5/3
f 12/7/4 2/4/4 9/6/4
f 14/9/5 12/198/5 11/10/5
f 13/12/6 15/185/6 16/13/6
f 32/199/7 13/45/7 11/200/7
f 20/201/7 15/44/7 19/202/7
f 20/201/7 19/202/7 22/203/7
f 19/202/7 21/204/7 22/203/7
f 32/199/7 11/200/7 9/205/7
f 34/206/7 32/199/7 9/205/7
f 22/203/7 21/204/7 23/17/7
f 21/204/7 24/15/7 23/17/7
f 34/206/7 9/205/7 10/16/7
f 25/207/7 34/206/7 10/16/7
f 24/15/7 25/207/7 10/16/7
f 26/18/8 27/36/8 25/19/8
f 28/21/9 26/208/9 24/22/9
f 21/23/10 19/209/10 29/24/10
f 30/25/11 29/210/11 19/26/11
f 31/28/12 30/211/12 18/29/12
f 17/30/5 32/212/5 33/31/5
f 35/41/13 36/213/13 33/214/13
f 36/213/13 43/215/13 33/214/13
f 38/216/13 37/40/13 26/217/13
f 38/216/13 26/217/13 28/218/13
f 31/219/13 33/214/13 43/215/13
f 39/220/13 38/216/13 28/218/13
f 39/220/13 28/218/13 29/221/13
f 31/219/13 43/215/13 42/222/13
f 30/34/13 31/219/13 42/222/13
f 40/33/13 39/220/13 29/221/13
f 30/34/13 42/222/13 41/32/13
f 40/33/13 29/221/13 30/34/13
f 34/35/3 25/19/3 27/36/3
f 32/38/14 34/35/14 35/37/14
f 37/40/13 36/213/13 35/41/13
f 27/42/13 26/217/13 37/40/13
f 18/43/7 19/202/7 15/44/7
f 13/45/7 32/199/7 17/223/7
f 17/223/7 18/43/7 13/45/7
f 44/46/4 45/224/4 43/47/4
f 50/101/3 44/46/3 49/50/3
f 44/46/3 36/48/3 49/50/3
f 37/49/3 46/52/3 48/225/3
f 46/52/3 47/100/3 48/225/3
f 37/49/3 48/225/3 49/50/3
f 37/49/15 38/226/15 51/51/15
f 56/227/9 52/59/9 53/228/9
f 54/53/9 55/229/9 51/230/9
f 39/55/9 56/227/9 53/228/9
f 54/53/9 51/230/9 38/54/9
f 39/55/9 53/228/9 54/53/9
f 52/59/16 55/229/16 58/60/16
f 52/63/17 56/231/17 59/64/17
f 59/64/17 60/232/17 55/62/17
f 60/232/17 51/233/17 55/62/17
f 59/65/18 56/234/50 61/66/18
f 61/68/20 56/235/20 39/69/20
f 41/73/11 63/75/11 65/71/11
f 63/75/11 64/117/11 65/71/11
f 67/236/11 61/68/11 66/72/11
f 61/68/11 40/70/11 66/72/11
f 41/73/11 65/71/11 40/70/11
f 41/73/6 42/237/6 68/74/6
f 72/84/5 68/238/5 71/78/5
f 68/238/5 42/76/5 71/78/5
f 43/77/5 45/239/5 70/240/5
f 45/239/5 69/83/5 70/240/5
f 43/77/5 70/240/5 71/78/5
f 74/81/21 68/115/21 72/241/21
f 69/79/21 45/242/21 73/80/21
f 74/81/21 72/241/21 69/79/21
f 75/82/22 76/243/22 69/83/22
f 71/88/7 70/244/7 76/89/7
f 73/80/23 45/242/23 44/94/23
f 77/245/25 44/246/25 50/96/25
f 47/97/25 46/247/25 78/98/25
f 77/245/25 50/96/25 78/98/25
f 79/99/26 80/248/26 47/100/26
f 49/105/7 48/249/7 80/106/7
f 60/111/27 78/250/51 46/112/28
f 62/67/7 81/251/7 77/95/7
f 81/251/7 74/81/7 77/95/7
f 74/81/7 73/80/7 77/95/7
f 77/95/7 78/250/7 62/67/7
f 78/250/7 60/111/7 62/67/7
f 74/81/29 81/251/52 63/114/29
f 67/116/31 64/252/31 62/67/31
f 64/252/31 63/114/31 81/251/31
f 62/67/31 64/252/31 81/251/31
f 64/117/32 67/236/32 83/118/32
f 82/123/7 83/253/7 66/124/7
f 57/132/7 58/254/7 54/133/7
f 23/135/15 10/5/15 1/3/15
f 22/137/9 23/255/9 84/138/9
f 85/140/20 86/186/20 20/141/20
f 85/143/33 87/256/33 88/144/34
f 93/155/35 87/256/35 85/143/35
f 84/146/35 89/148/35 90/159/35
f 84/146/35 90/159/35 91/257/35
f 92/147/35 93/155/35 85/143/35
f 84/146/35 91/257/35 92/147/35
f 89/148/36 84/146/36 1/149/37
f 87/256/13 93/155/13 94/157/13
f 95/156/13 90/159/13 89/148/13
f 88/144/13 87/256/13 94/157/13
f 95/156/13 89/148/13 96/258/13
f 89/148/13 8/150/13 96/258/13
f 108/188/13 88/144/13 107/189/13
f 88/144/13 94/157/13 107/189/13
f 8/150/13 7/161/13 96/258/13
f 94/157/13 95/156/13 107/189/13
f 97/168/13 4/167/13 3/259/13
f 95/156/13 96/258/13 97/168/13
f 106/190/13 107/189/13 95/156/13
f 104/181/13 105/193/13 106/190/13
f 102/174/13 103/182/13 101/175/13
f 103/182/13 104/181/13 101/175/13
f 104/181/13 106/190/13 101/175/13
f 106/190/13 95/156/13 100/153/13
f 101/175/13 106/190/13 100/153/13
f 95/156/13 97/168/13 100/153/13
f 97/168/13 3/259/13 98/151/13
f 100/153/13 97/168/13 98/151/13
f 109/154/38 94/157/38 93/155/38
f 109/154/35 110/158/35 95/156/35
f 92/147/13 91/257/13 110/158/13
f 110/158/39 91/257/39 90/159/39
f 111/160/40 96/258/40 7/161/40
f 112/163/1 97/260/1 96/164/1
f 6/162/13 5/261/13 112/166/13
f 112/166/41 5/261/41 4/167/41
f 98/151/42 3/259/42 2/169/42
f 103/182/44 102/174/45 14/172/44
f 102/174/45 113/180/43 14/172/44
f 114/171/43 99/152/45 12/170/44
f 99/152/45 98/151/44 12/170/44
f 14/172/44 113/180/43 114/171/43
f 115/173/38 113/180/38 102/174/38
f 115/176/45 101/262/45 100/177/45
f 116/179/39 100/153/39 99/152/39
f 115/173/13 116/179/13 114/171/13
f 14/172/46 16/183/53 104/181/46
f 86/145/47 88/144/47 108/188/54
f 86/145/47 108/188/54 117/192/48
f 105/193/55 104/181/47 16/183/47
f 86/145/47 117/192/48 118/184/48
f 118/184/48 105/193/55 16/183/47
f 15/185/11 20/141/11 86/186/11
f 119/187/40 117/192/40 108/188/40
f 119/187/49 107/189/49 106/190/49
f 119/187/13 120/191/13 118/184/13
f 120/191/41 106/190/41 105/193/41
