# Blender v2.80 (sub 75) OBJ File: 'GC_Rail.blend'
# www.blender.org
mtllib GC_Rail_Straight_Collider_D.mtl
o GC_Rail_Straight_Collider_A
v -0.250023 9.500004 32.549999
v -0.229312 9.450005 32.500000
v 0.015951 9.450005 32.500000
v 0.046853 9.500004 32.549999
v -0.500023 9.250004 32.549999
v -0.450023 9.229294 32.500000
v -0.500023 8.953135 32.549999
v -0.450023 8.984035 32.500000
v -0.156273 8.781254 32.549999
v -0.106272 8.812154 32.500000
v -0.106275 8.812160 63.500000
v -0.156276 8.781260 63.450001
v 0.187823 9.106259 63.500000
v 0.187826 9.106255 32.500000
v 0.015948 9.450009 63.500000
v -0.450026 8.984039 63.500000
v -0.450026 9.229300 63.500000
v -0.229315 9.450009 63.500000
v 0.046850 9.500010 63.450001
v 0.218725 9.156260 63.450001
v -0.250026 9.500010 63.450001
v -0.500026 9.250010 63.450001
v -0.500026 8.953130 63.450001
v 0.218728 9.156254 32.549999
v 0.046853 9.500004 32.450001
v 0.218728 9.156254 32.450001
v -0.250023 9.500004 32.450001
v -0.500023 9.250004 32.450001
v -0.500023 8.953135 32.450001
v -0.156273 8.781254 32.450001
v -0.156273 8.781255 30.550001
v -0.106272 8.812155 30.500002
v -0.450023 8.984035 30.500002
v -0.500023 8.953135 30.550001
v -0.156273 8.781255 30.450003
v -0.500023 8.953135 30.450003
v -0.106275 8.812170 -0.499976
v -0.156276 8.781270 -0.449976
v 0.187826 9.106256 30.500002
v 0.187823 9.106270 -0.499976
v 0.218728 9.156255 30.550001
v 0.046853 9.500005 30.550001
v 0.015951 9.450006 30.500002
v -0.250023 9.500005 30.550001
v -0.229312 9.450006 30.500002
v -0.500023 9.250005 30.550001
v -0.450023 9.229295 30.500002
v -0.500023 9.250005 30.450003
v -0.500026 8.953140 -0.449976
v -0.500026 9.250020 -0.449975
v -0.450026 8.984050 -0.499976
v 0.015948 9.450020 -0.499975
v -0.229315 9.450020 -0.499975
v -0.450026 9.229310 -0.499976
v 0.046850 9.500020 -0.449975
v 0.218725 9.156270 -0.449976
v -0.250026 9.500020 -0.449975
v -0.250023 9.500005 30.450003
v 0.046853 9.500005 30.450003
v 0.218728 9.156255 30.450003
vt 9.842690 -841.601013
vt 20.314100 -844.385010
vt 10.658100 -844.385010
vt 711.536011 -470.104004
vt 706.242981 -482.411011
vt 703.500000 -481.468994
vt 861.606018 18.455000
vt 864.390015 7.983600
vt 861.606018 6.766990
vt 509.802002 700.005981
vt 500.049011 710.312988
vt 512.403015 701.577026
vt -0.000018 13.826600
vt -1218.500000 11.511800
vt -1220.469971 13.826000
vt -1220.469971 11.821600
vt -0.000024 28.196800
vt -0.000015 11.822100
vt -27.080700 12.795600
vt -1.968520 17.639700
vt -15.502000 1.216930
vt -15.141200 20.695499
vt -22.403999 8.504960
vt -17.360399 22.770500
vt -20.313900 18.617599
vt -9.842530 21.401501
vt -10.657900 18.617599
vt -1.607300 15.844700
vt -6.899940 28.151400
vt 1.136500 16.786200
vt -1.391970 7.983680
vt 1.391920 18.455000
vt 1.391920 6.767060
vt -1.797010 5.675900
vt -11.550700 -4.630520
vt -14.151400 -3.059890
vt 1.968490 3.026320
vt 1218.500000 -12.105300
vt 1.968490 -12.104600
vt 1.968490 18.455000
vt 1218.500000 6.766750
vt 1.968490 6.767060
vt 1.968500 26.969101
vt 1218.500000 13.049200
vt 1.968490 13.049700
vt -21.530600 1.968490
vt -9.842650 1218.500000
vt -9.842540 1.968490
vt -1.968500 0.550487
vt -1218.500000 15.681000
vt -1.968500 15.681400
vt -791.244019 -279.164001
vt -798.505981 -266.972992
vt -796.286987 -264.898010
vt -828.783020 308.363007
vt -836.046021 296.173004
vt -831.002014 310.437988
vt -20.314301 881.614990
vt -9.842840 884.398987
vt -10.658200 881.614990
vt 703.025024 514.098999
vt 697.732971 526.406006
vt 705.768982 515.041016
vt 861.604980 7.983350
vt 864.388977 18.454700
vt 864.388977 6.766740
vt 496.451996 -698.960999
vt 486.697998 -709.267029
vt 484.097992 -707.697021
vt 1299.209961 13.826500
vt 1222.439941 11.512400
vt 1297.239990 11.512400
vt 541.945007 745.466003
vt 532.190979 755.771973
vt 544.546021 747.036987
vt 528.599976 -744.421997
vt 518.846008 -754.728027
vt 516.244995 -753.158020
vt -1301.180054 11.512900
vt -2519.679932 13.827700
vt -1299.209961 13.827100
vt -2519.679932 28.197399
vt -1299.209961 11.822200
vt -2519.689941 11.822700
vt -1220.469971 28.196600
vt -1299.209961 11.821900
vt -1299.209961 28.196600
vt -1222.439941 27.435699
vt -1299.209961 25.121500
vt -1297.239990 27.435699
vt -843.731018 -297.722992
vt -850.992981 -285.532013
vt -848.773987 -283.457001
vt 9.842440 -897.273987
vt 20.313801 -900.057983
vt 10.657800 -900.057983
vt 756.992981 -502.248993
vt 751.700012 -514.556030
vt 748.956970 -513.614014
vt 917.283020 18.454700
vt 920.067017 7.983360
vt 917.283020 6.766750
vt 917.283997 7.983100
vt 920.067017 18.454500
vt 920.067017 6.766480
vt 1301.180054 18.454700
vt 2517.719971 6.767060
vt 1301.180054 6.766750
vt 1301.180054 3.026580
vt 2517.719971 -12.103600
vt 1301.180054 -12.104300
vt 1040.189941 1450.099976
vt 1030.439941 1460.410034
vt 1042.790039 1451.670044
vt 1.967310 17.639500
vt 10.656700 26.328899
vt 15.500800 1.216740
vt -1657.369995 -585.390015
vt -1664.640015 -573.200012
vt -1662.420044 -571.125000
vt 9.842130 -1760.270020
vt 20.313499 -1763.060059
vt 10.657500 -1763.060059
vt 1461.630005 -1000.500000
vt 1456.329956 -1012.809998
vt 1453.589966 -1011.869995
vt 1780.280029 18.455099
vt 1783.060059 7.983680
vt 1780.280029 6.767070
vt 1301.180054 26.969299
vt 2517.719971 13.050300
vt 1301.180054 13.049900
vt -21.530701 1301.180054
vt -9.842540 2517.719971
vt -9.842650 1301.180054
vt -1301.180054 0.550173
vt -2517.719971 15.681400
vt -1301.180054 15.681000
vt -2517.719971 27.436199
vt -1299.209961 25.121700
vt -2519.679932 25.122101
vt -881.281982 326.923004
vt -888.544983 314.731995
vt -883.500977 328.997986
vt -20.313999 937.296997
vt -9.842600 940.080994
vt -10.658000 937.296997
vt 748.489014 546.244995
vt 743.195984 558.552002
vt 751.232971 547.185974
vt 1222.439941 6.766750
vt 1297.239990 18.454700
vt 1297.239990 6.766750
vt 1222.439941 13.049500
vt 1297.239990 26.969000
vt 1297.239990 13.049500
vt -9.842650 1222.439941
vt -21.530701 1297.239990
vt -9.842650 1297.239990
vt -1222.439941 15.681000
vt -1297.239990 0.550149
vt -1297.239990 15.681000
vt 1222.439941 -12.104800
vt 1297.239990 3.026080
vt 1297.239990 -12.104800
vt -1220.469971 25.121401
vt -1.968510 27.435900
vt -0.000022 25.121700
vt 21.530701 -841.601013
vt 713.338013 -472.377014
vt 864.390015 17.639601
vt 497.447998 708.742004
vt -1.968500 11.512400
vt -1220.469971 28.196301
vt -20.313900 26.329100
vt -10.657900 26.329100
vt -1.968520 7.983680
vt -20.184900 6.429960
vt -21.530600 21.401501
vt -8.702200 25.878300
vt -1.391960 17.639700
vt 0.803616 4.105270
vt 1218.500000 3.025610
vt 1218.500000 18.454700
vt 1218.500000 26.968700
vt -21.530701 1218.500000
vt -1218.500000 0.550131
vt -793.463013 -281.239014
vt -833.827026 294.097992
vt -21.530899 884.398987
vt 695.931030 524.132996
vt 861.604980 17.639299
vt 499.053009 -700.531006
vt 1220.469971 13.826500
vt 529.591003 754.202026
vt 531.200012 -745.992004
vt -2517.719971 11.513500
vt -1299.209961 28.197001
vt -1220.469971 11.821900
vt -1220.469971 25.121500
vt -845.950012 -299.798004
vt 21.530500 -897.273987
vt 758.794983 -504.522003
vt 920.067017 17.639299
vt 917.283997 17.639099
vt 2517.719971 18.455000
vt 2517.719971 3.027290
vt 1027.839966 1458.839966
vt 20.312700 26.328899
vt 27.079500 12.795400
vt 1.967310 7.983490
vt -1659.589966 -587.465027
vt 21.530100 -1760.270020
vt 1463.430054 -1002.780029
vt 1783.060059 17.639700
vt 2517.719971 26.969801
vt -21.530600 2517.719971
vt -2517.719971 0.550528
vt -1301.180054 27.435801
vt -886.325989 312.657013
vt -21.530600 940.080994
vt 741.393982 556.278992
vt 1222.439941 18.454700
vt 1222.439941 26.969000
vt -21.530701 1222.439941
vt -1222.439941 0.550149
vt 1222.439941 3.026080
vt -1218.500000 27.435499
vn 0.0000 0.7071 -0.7071
vn -0.5000 0.5000 -0.7071
vn -0.7071 0.0000 -0.7071
vn -0.3163 -0.6324 -0.7071
vn -0.3162 -0.6325 -0.7071
vn 0.5257 -0.8507 0.0000
vn 0.7071 -0.7071 0.0000
vn -0.0000 0.0000 1.0000
vn 0.6324 0.3162 0.7071
vn 0.6325 0.3162 0.7071
vn 0.0000 0.7071 0.7071
vn -0.5000 0.5000 0.7071
vn -0.4999 0.5000 0.7071
vn -0.7071 0.0000 0.7071
vn -0.3162 -0.6324 0.7071
vn -0.3163 -0.6324 0.7071
vn -0.4472 -0.8944 0.0000
vn -1.0000 0.0000 -0.0000
vn -0.7071 0.7071 -0.0000
vn 0.0000 1.0000 -0.0000
vn 0.8944 0.4472 0.0000
vn 0.6325 0.3162 -0.7071
vn 0.6324 0.3162 -0.7071
vn -0.7071 0.0000 0.7072
vn -0.7070 0.0000 0.7072
vn -0.3162 -0.6325 0.7071
vn 0.6710 -0.7415 -0.0000
vn -0.3162 -0.6324 -0.7071
vn 0.8506 -0.5257 -0.0000
vn 0.0000 0.0000 -1.0000
vn -0.3162 -0.6324 0.7072
vn 0.6466 -0.7628 -0.0000
vn -0.3162 -0.6324 -0.7072
usemtl _auto_.006
s 1
f 1/1/1 3/2/1 2/3/1
f 1/4/2 6/5/2 5/6/2
f 5/7/3 8/8/3 7/9/3
f 9/10/4 8/11/5 10/12/4
f 11/13/6 9/14/6 10/15/6
f 10/16/7 13/17/7 11/18/7
f 13/19/8 17/20/8 11/21/8
f 15/22/9 20/23/10 19/24/9
f 15/25/11 21/26/11 18/27/11
f 17/28/12 21/29/13 22/30/12
f 16/31/14 22/32/14 23/33/14
f 16/34/15 12/35/16 11/36/16
f 23/37/17 9/38/17 12/39/17
f 22/40/18 7/41/18 23/42/18
f 21/43/19 5/44/19 22/45/19
f 19/46/20 1/47/20 21/48/20
f 20/49/21 4/50/21 19/51/21
f 24/52/22 3/53/23 4/54/23
f 3/55/9 26/56/10 25/57/9
f 3/58/11 27/59/11 2/60/11
f 6/61/12 27/62/12 28/63/12
f 8/64/24 28/65/14 29/66/25
f 8/67/26 30/68/15 10/69/15
f 32/70/27 30/71/6 31/72/6
f 31/73/28 33/74/5 32/75/28
f 33/76/26 35/77/16 32/78/16
f 35/79/6 37/80/6 32/81/6
f 40/82/7 32/83/27 37/84/7
f 14/85/7 32/86/27 39/87/7
f 26/88/29 39/89/29 41/90/29
f 41/91/23 43/92/22 42/93/22
f 44/94/1 43/95/1 45/96/1
f 44/97/2 47/98/2 46/99/2
f 46/100/3 33/101/3 34/102/3
f 33/103/14 48/104/14 36/105/14
f 48/106/18 49/107/18 36/108/18
f 36/109/17 38/110/17 35/111/17
f 38/112/5 51/113/28 37/114/5
f 54/115/30 53/116/30 37/117/30
f 56/118/22 52/119/22 55/120/22
f 57/121/1 52/122/1 53/123/1
f 57/124/2 54/125/2 50/126/2
f 50/127/3 51/128/3 49/129/3
f 58/130/19 50/131/19 48/132/19
f 59/133/20 57/134/20 58/135/20
f 60/136/21 55/137/21 59/138/21
f 56/139/29 39/140/29 40/141/29
f 43/142/9 60/143/10 59/144/9
f 43/145/11 58/146/11 45/147/11
f 47/148/12 58/149/12 48/150/12
f 29/151/18 46/152/18 34/153/18
f 28/154/19 44/155/19 46/156/19
f 27/157/20 42/158/20 44/159/20
f 25/160/21 41/161/21 42/162/21
f 30/163/17 34/164/17 31/165/17
f 14/166/29 20/167/29 13/168/29
f 1/1/1 4/169/1 3/2/1
f 1/4/2 2/170/2 6/5/2
f 5/7/3 6/171/3 8/8/3
f 9/10/4 7/172/5 8/11/5
f 11/13/6 12/173/6 9/14/6
f 10/16/7 14/174/7 13/17/7
f 13/19/8 15/175/8 18/176/8
f 18/176/8 17/20/8 13/19/8
f 17/20/8 16/177/8 11/21/8
f 15/22/9 13/178/10 20/23/10
f 15/25/11 19/179/11 21/26/11
f 17/28/12 18/180/13 21/29/13
f 16/31/14 17/181/14 22/32/14
f 16/34/15 23/182/31 12/35/16
f 23/37/17 7/183/17 9/38/17
f 22/40/18 5/184/18 7/41/18
f 21/43/19 1/185/19 5/44/19
f 19/46/20 4/186/20 1/47/20
f 20/49/21 24/187/21 4/50/21
f 24/52/22 14/188/22 3/53/23
f 3/55/9 14/189/10 26/56/10
f 3/58/11 25/190/11 27/59/11
f 6/61/12 2/191/12 27/62/12
f 8/64/24 6/192/14 28/65/14
f 8/67/26 29/193/26 30/68/15
f 32/70/27 10/194/32 30/71/6
f 31/73/28 34/195/5 33/74/5
f 33/76/26 36/196/26 35/77/16
f 35/79/6 38/197/6 37/80/6
f 40/82/7 39/198/7 32/83/27
f 14/85/7 10/199/32 32/86/27
f 26/88/29 14/200/29 39/89/29
f 41/91/23 39/201/23 43/92/22
f 44/94/1 42/202/1 43/95/1
f 44/97/2 45/203/2 47/98/2
f 46/100/3 47/204/3 33/101/3
f 33/103/14 47/205/14 48/104/14
f 48/106/18 50/206/18 49/107/18
f 36/109/17 49/207/17 38/110/17
f 38/112/5 49/208/33 51/113/28
f 52/209/30 40/210/30 53/116/30
f 40/210/30 37/117/30 53/116/30
f 37/117/30 51/211/30 54/115/30
f 56/118/22 40/212/22 52/119/22
f 57/121/1 55/213/1 52/122/1
f 57/124/2 53/214/2 54/125/2
f 50/127/3 54/215/3 51/128/3
f 58/130/19 57/216/19 50/131/19
f 59/133/20 55/217/20 57/134/20
f 60/136/21 56/218/21 55/137/21
f 56/139/29 60/219/29 39/140/29
f 43/142/9 39/220/10 60/143/10
f 43/145/11 59/221/11 58/146/11
f 47/148/12 45/222/12 58/149/12
f 29/151/18 28/223/18 46/152/18
f 28/154/19 27/224/19 44/155/19
f 27/157/20 25/225/20 42/158/20
f 25/160/21 26/226/21 41/161/21
f 30/163/17 29/227/17 34/164/17
f 14/166/29 24/228/29 20/167/29
