# Blender v2.79 (sub 0) OBJ File: ''
# www.blender.org
mtllib 555Prism.mtl
o Cube_Cube.001
v -2.500000 -2.500000 2.500000
v -2.500000 0.000000 0.000000
v -2.500000 -2.500000 -2.500000
v -2.500000 2.500000 -2.500000
v 2.500000 -2.500000 2.500000
v 2.500000 0.000000 0.000000
v 2.500000 -2.500000 -2.500000
v 2.500000 2.500000 -2.500000
vt 0.034104 0.858891
vt 0.367438 0.858891
vt 0.320563 0.653162
vt 0.276292 0.703943
vt 0.071309 0.561171
vt 0.404642 0.561171
vt 0.404642 0.894504
vt 0.071309 0.894504
vt 0.057398 0.581365
vt 0.390732 0.581365
vt 0.390732 0.914698
vt 0.057398 0.914698
vt 0.034104 0.525558
vt 0.367438 0.525558
vt 0.099295 0.551870
vt 0.432628 0.551870
vt 0.432628 0.885203
vt 0.099295 0.885203
vt 0.057398 0.589075
vt 0.390732 0.589075
vt 0.390732 0.922408
vt 0.057398 0.922408
vn 0.0000 0.7071 0.7071
vn 0.0000 0.0000 -1.0000
vn 1.0000 0.0000 0.0000
vn 0.0000 -1.0000 0.0000
vn -1.0000 0.0000 0.0000
usemtl None
s off
f 6/1/1 8/2/1 4/3/1 2/4/1
f 8/5/2 7/6/2 3/7/2 4/8/2
f 6/9/1 2/10/1 1/11/1 5/12/1
f 6/1/3 5/13/3 7/14/3 8/2/3
f 7/15/4 5/16/4 1/17/4 3/18/4
f 4/19/5 3/20/5 1/21/5 2/22/5
