# Blender v2.82 (sub 7) OBJ File: 'VEN_Dragster_Engine.blend'
# www.blender.org
mtllib VEN_Dragster_Engine_Collider_4.mtl
v 1.765503 0.723297 0.288133
v 1.700096 0.730108 0.245829
v 1.830920 0.696247 0.254903
v 1.738865 0.642613 0.371198
v 1.805299 0.620649 0.358004
v 1.672431 0.655037 0.348790
v 1.623801 0.654592 0.296786
v 1.871723 0.572624 0.247549
v 1.853929 0.595032 0.312745
v 1.598417 -0.137543 0.437837
v 1.538348 -0.195562 0.453383
v 1.521828 -0.153609 0.499379
v 1.376497 -0.134260 0.503050
v 1.376497 -0.195925 0.486527
v 1.704674 0.747258 -0.377552
v 1.780209 0.707469 -0.447847
v 1.845626 0.700659 -0.405545
v 1.620704 0.666050 -0.355792
v 1.638507 0.643643 -0.420990
v 1.687138 0.618025 -0.466248
v 1.753571 0.596062 -0.479442
v 1.819995 0.583638 -0.457034
v 1.868626 0.584081 -0.405030
v 1.605447 -0.116877 -0.179055
v 1.548627 -0.171765 -0.164347
v 1.391203 -0.142655 -0.205193
v 1.391203 -0.187797 -0.160051
vt 0.000000 0.000000
vt 0.000000 0.000000
vt 0.035933 0.078846
vt 0.059300 0.071313
vt 0.000000 0.000000
vt 0.000000 0.000000
vt 0.071174 0.101370
vt 0.000000 0.000000
vt 0.063437 0.072578
vt 0.062723 0.094422
vt 0.059349 0.096350
vt 0.071606 0.094119
vt 0.071759 0.072229
vt 0.068960 0.072954
vt 0.069063 0.095818
vt 0.058602 0.094176
vt 0.034927 0.100520
vt 0.068451 0.078846
vt 0.059285 0.069579
vt 0.066557 0.079337
vt 0.066214 0.101038
vt 0.067961 0.076283
vt 0.076735 0.096350
vt 0.075113 0.097859
vt 0.065663 0.075329
vt 0.060818 0.075974
vt 0.070684 0.097552
vt 0.072132 0.072194
vt 0.072528 0.095105
vt 0.073787 0.095529
vt 0.075968 0.094422
vt 0.063510 0.071378
vt 0.000000 0.000000
vt 0.060818 0.073918
vt 0.066067 0.074453
vt 0.061309 0.079480
vt 0.060818 0.101189
vt 0.071174 0.069272
vt 0.069553 0.070781
vt 0.063178 0.070310
vt 0.063187 0.071296
vt 0.072096 0.070993
vt 0.000000 0.000000
vt 0.075046 0.095279
vt 0.072899 0.098299
vt 0.000000 0.000000
vt 0.000000 0.000000
vt 0.000000 0.000000
vt 0.074277 0.104351
vt 0.073389 0.100637
vt 0.000000 0.000000
vt 0.066154 0.075513
vt 0.061309 0.076011
vt 0.033935 0.102694
vt 0.035036 0.102694
vt 0.060818 0.074872
vt 0.061309 0.075057
vt 0.073018 0.070136
vn 0.9341 -0.3569 -0.0061
vn -0.2599 -0.2215 -0.9399
vn 0.9658 0.2587 0.0186
vn -0.6955 0.7183 0.0153
vn 0.9057 -0.2585 0.3360
vn 0.7985 -0.1810 0.5741
vn 0.6543 -0.1922 0.7314
vn 0.1907 -0.4157 -0.8893
vn 0.4260 -0.4454 -0.7875
vn 0.6566 -0.4433 -0.6102
vn 0.6925 -0.7213 -0.0163
vn 0.6418 -0.0950 0.7610
vn 0.3223 -0.2964 0.8990
vn -0.6780 0.3775 0.6308
vn 0.0143 -0.0551 0.9984
vn -0.4707 0.3359 0.8158
vn 0.2840 0.9588 0.0015
vn 0.0275 -0.3757 0.9264
vn 0.4172 -0.5918 0.6897
vn 0.0484 -0.9985 -0.0243
vn -0.6780 0.0115 -0.7350
vn 0.5470 0.1902 -0.8152
vn -0.6892 0.6064 -0.3966
vn -0.4861 0.5833 -0.6508
vn -0.5213 0.5910 -0.6157
vn 0.5470 0.5724 0.6109
vn -0.2763 0.7855 0.5538
vn -0.3109 0.4910 -0.8138
vn -0.0925 0.2921 -0.9519
vn -0.2790 0.4634 -0.8411
vn -0.0598 0.2004 0.9779
vn 0.1735 -0.4125 -0.8943
vn 0.1558 -0.4631 -0.8725
vn 0.1181 -0.5616 -0.8189
vn -0.9639 0.2652 -0.0235
vn 0.1040 0.1304 0.9860
vn 0.0526 -0.7061 -0.7061
usemtl _auto_.004
s off
f 8/1/1 10/2/1 24/3/1 23/4/1
f 21/5/2 26/6/2 20/7/2
f 8/1/3 23/8/3 17/9/3 3/10/3 9/11/3
f 2/12/4 15/13/4 18/14/4 7/15/4
s 1
f 8/16/5 9/11/6 10/17/7
f 24/18/8 22/19/9 23/4/10
f 25/20/11 24/18/11 10/2/11 11/21/11
f 10/22/7 9/23/6 5/24/12 12/25/13
f 7/15/14 13/26/15 6/27/16
f 15/28/17 2/29/17 1/30/17 3/31/17 17/32/17 16/33/17
f 12/25/13 14/34/18 11/35/19
f 27/36/20 25/20/20 11/21/20 14/37/20
f 20/38/21 26/6/21 19/39/21
f 16/40/22 17/41/22 23/4/22 22/19/22 21/5/22
f 18/14/23 15/42/24 19/43/25
f 3/44/26 1/30/26 4/45/26 5/46/26 9/47/26
f 1/30/27 2/48/27 7/15/27 6/27/27 4/45/27
f 16/49/28 21/50/29 20/7/30
f 4/45/31 6/27/16 13/51/15
f 21/5/32 22/19/9 24/18/8 25/52/33 26/53/34
f 12/25/13 11/35/19 10/22/7
f 7/15/35 18/14/35 19/39/35 26/53/35 27/36/35 14/54/35 13/55/35
f 13/26/15 14/56/18 12/25/13
f 12/25/13 5/24/36 4/45/31 13/26/15
f 25/52/33 27/57/37 26/53/34
f 19/43/25 15/42/24 16/58/28 20/7/30
