# Blender v2.82 (sub 7) OBJ File: 'VEN_Dragster_Engine.blend'
# www.blender.org
mtllib VEN_Dragster_Engine_Collider_3.mtl
v 0.154376 0.700659 -0.405545
v 0.219790 0.707469 -0.447847
v 0.275271 0.739996 -0.411025
v 0.131371 0.584081 -0.405030
v 0.180001 0.583638 -0.457034
v 0.246433 0.596062 -0.479442
v 0.312864 0.618025 -0.466248
v 0.361496 0.643643 -0.420990
v 0.379296 0.666050 -0.355792
v 0.608800 -0.187797 -0.160051
v 0.608800 -0.142655 -0.205193
v 0.451374 -0.171765 -0.164347
v 0.394549 -0.116877 -0.179055
v 0.299908 0.730108 0.245829
v 0.234494 0.723297 0.288133
v 0.169080 0.696247 0.254903
v 0.128275 0.572624 0.247549
v 0.376200 0.654592 0.296786
v 0.327569 0.655037 0.348790
v 0.261138 0.642613 0.371198
v 0.194706 0.620649 0.358004
v 0.146075 0.595032 0.312745
v 0.401586 -0.137543 0.437837
v 0.461651 -0.195562 0.453383
v 0.623504 -0.195925 0.486527
v 0.623504 -0.134260 0.503050
v 0.478175 -0.153609 0.499379
vt 0.000000 0.000000
vt 0.024479 0.100637
vt 0.026694 0.101370
vt 0.000000 0.000000
vt 0.000000 0.000000
vt 0.000000 0.000000
vt 0.028805 0.095818
vt 0.063187 0.071296
vt 0.059300 0.071313
vt 0.000000 0.000000
vt 0.000000 0.000000
vt 0.062723 0.094422
vt 0.000000 0.000000
vt 0.029417 0.078846
vt 0.000000 0.000000
vt 0.037049 0.074872
vt 0.037049 0.075974
vt 0.032205 0.075329
vt 0.000000 0.000000
vt 0.035036 0.102694
vt 0.031801 0.074453
vt 0.022264 0.100223
vt 0.036559 0.076011
vt 0.031311 0.079337
vt 0.035933 0.078846
vt 0.035345 0.101510
vt 0.059349 0.096350
vt 0.025772 0.070993
vt 0.000000 0.000000
vt 0.026694 0.069272
vt 0.024850 0.070136
vt 0.024969 0.098299
vt 0.022755 0.097859
vt 0.029907 0.076283
vt 0.024850 0.104768
vt 0.000000 0.000000
vt 0.035073 0.077975
vt 0.027184 0.097552
vt 0.000000 0.000000
vt 0.000000 0.000000
vt 0.022332 0.104116
vt 0.023591 0.104351
vt 0.059285 0.069579
vt 0.028908 0.072954
vt 0.028315 0.070781
vt 0.022822 0.095279
vt 0.025340 0.095105
vt 0.025440 0.071113
vt 0.023532 0.070144
vt 0.021329 0.072500
vt 0.026262 0.094119
vt 0.000000 0.000000
vt 0.000000 0.000000
vt 0.032430 0.101189
vt 0.034119 0.078526
vt 0.032993 0.101038
vt 0.036559 0.079480
vt 0.037049 0.101189
vt 0.036559 0.075057
vt 0.031714 0.078403
vt 0.024081 0.095529
vt 0.021900 0.094422
vt 0.021133 0.096350
vn 0.2599 -0.2215 -0.9399
vn 0.6374 0.7705 0.0021
vn -0.9658 0.2588 0.0186
vn -0.9341 -0.3569 -0.0061
vn -0.0275 -0.3757 0.9264
vn -0.0143 -0.0551 0.9984
vn -0.3223 -0.2964 0.8990
vn 0.6780 0.3775 0.6308
vn 0.4707 0.3359 0.8158
vn -0.4172 -0.5918 0.6897
vn -0.4260 -0.4454 -0.7875
vn -0.1735 -0.4125 -0.8943
vn -0.1181 -0.5616 -0.8189
vn -0.1558 -0.4631 -0.8725
vn -0.1907 -0.4157 -0.8893
vn -0.9057 -0.2585 0.3361
vn -0.6543 -0.1922 0.7314
vn -0.7985 -0.1810 0.5742
vn 0.4475 0.5261 -0.7231
vn 0.5327 0.5747 -0.6213
vn 0.2617 0.4091 -0.8742
vn 0.2906 0.4280 -0.8558
vn 0.0598 0.2004 0.9779
vn -0.1040 0.1304 0.9860
vn -0.6418 -0.0950 0.7610
vn 0.0925 0.2921 -0.9519
vn 0.6780 0.0115 -0.7350
vn -0.5470 0.1903 -0.8152
vn -0.6566 -0.4433 -0.6102
vn 0.6625 0.6341 -0.3988
vn -0.2792 0.9602 0.0009
vn 0.2763 0.7855 0.5538
vn 0.9639 0.2652 -0.0235
vn -0.0484 -0.9985 -0.0243
vn -0.0526 -0.7061 -0.7061
vn -0.5470 0.5724 0.6109
vn -0.6925 -0.7213 -0.0163
usemtl _auto_.004
s off
f 11/1/1 6/2/1 7/3/1
f 9/4/2 3/5/2 14/6/2 18/7/2
f 1/8/3 4/9/3 17/10/3 22/11/3 16/12/3
f 17/10/4 4/13/4 13/14/4 23/15/4
s 1
f 25/16/5 26/17/6 27/18/7
f 18/7/8 19/19/9 26/20/6
f 27/18/7 24/21/10 25/16/5
f 5/22/11 6/2/12 11/23/13 12/24/14 13/25/15
f 17/10/16 23/26/17 22/27/18
f 3/28/19 8/29/20 7/30/21 2/31/22
f 20/32/23 21/33/24 27/18/7 26/17/6
f 23/34/17 27/18/7 21/33/25 22/27/18
f 2/35/22 7/3/21 6/36/26
f 11/37/27 7/30/27 8/29/27
f 19/38/9 20/39/23 26/40/6
f 1/41/28 2/42/28 6/2/28 5/22/28 4/13/28
f 13/25/15 4/9/29 5/43/11
f 3/5/19 9/44/30 8/45/20
f 16/46/31 15/47/31 14/6/31 3/48/31 2/49/31 1/50/31
f 14/51/32 15/52/32 20/32/32 19/38/32 18/7/32
f 23/34/17 24/21/10 27/18/7
f 18/53/33 26/20/33 25/54/33 10/55/33 11/37/33 8/45/33 9/4/33
f 24/56/34 12/24/34 10/57/34 25/58/34
f 11/23/13 10/59/35 12/60/14
f 21/33/36 20/32/36 15/61/36 16/62/36 22/63/36
f 12/24/37 24/56/37 23/15/37 13/14/37
