# Blender v2.92.0 OBJ File: 'GT_Iceball_Generator.blend'
# www.blender.org
v 0.808791 1.254618 3.648487
v 3.425000 3.405339 0.545542
v -0.223302 2.127596 2.780620
v 3.418599 0.083394 -0.424384
v 2.191209 1.254618 3.648487
v 3.423643 3.532807 -0.416093
v 0.607954 3.546638 1.361577
v -0.180717 2.927848 2.001371
v 3.412168 -0.419973 0.057994
v 1.078308 3.668790 1.294906
v 3.223302 2.127596 2.780620
v 2.392046 3.546638 1.361577
v -0.479260 -0.481173 3.489509
v 3.425000 0.545542 3.405339
v -0.485956 3.473007 -0.484902
v -0.489962 1.446072 2.984401
v -0.487616 2.985603 1.446923
v -0.423643 3.532807 -0.416093
v -0.425000 3.405339 0.545542
v 3.180717 2.927848 2.001371
v 1.921692 3.668790 1.294906
v 3.479260 -0.481173 3.489509
v 3.485956 3.473007 -0.484902
v -0.425000 0.545542 3.405339
v 3.489962 1.446072 2.984401
v 3.487616 2.985603 1.446923
v -0.418599 0.083394 -0.424384
v -0.412168 -0.419973 0.057994
vt 0.668865 0.391655
vt 0.298326 0.791406
vt 0.638993 0.424956
vt 0.662533 0.394278
vt 0.318324 0.797897
vt 0.640846 0.328595
vt 0.662533 0.394278
vt 0.318324 0.797897
vt 0.846957 0.990359
vt 0.792164 0.989549
vt 0.116682 0.829023
vt 0.116682 0.829023
vt 0.668865 0.391655
vt 0.298326 0.791406
vt 0.000000 0.000000
vt 0.674918 0.255300
vt 0.638993 0.424956
vt 0.000000 0.000000
vt 0.846957 0.990359
vt 0.640846 0.328595
vt 0.792164 0.989549
vt 0.674918 0.255300
vt 0.846957 0.990359
vt 0.189289 0.654006
vt 0.367123 0.173734
vt 0.367123 0.173734
vt 0.164124 0.728175
vt 0.189289 0.654006
vt 0.116944 0.740477
vt 0.164124 0.728175
vt 0.116944 0.740477
vt 0.846957 0.990359
vt 0.000000 0.000000
vt 0.093790 0.829136
vt 0.000000 0.000000
vt 0.835868 0.392338
vt 0.858386 0.415248
vt 0.835868 0.392338
vt 0.858386 0.415248
vt 0.093790 0.829136
vn 0.3710 0.3963 0.8398
vn -0.4126 0.8539 0.3173
vn 0.4021 0.8404 0.3634
vn 0.0000 0.7548 -0.6560
vn -0.3794 0.3692 0.8484
vn 0.0000 0.6940 0.7199
vn 0.3794 0.3692 0.8484
vn -0.4021 0.8404 0.3634
vn 0.4126 0.8539 0.3173
vn -0.3710 0.3963 0.8398
vn 0.1161 0.7816 0.6128
vn -0.1161 0.7816 0.6128
vn -0.0088 0.6979 0.7162
vn 0.0000 0.7050 0.7092
vn 0.0088 0.6979 0.7162
vn -0.0390 -0.0624 0.9973
vn -0.2432 0.0920 0.9656
vn -0.0967 -0.0194 0.9951
vn 0.0000 -0.9998 -0.0178
vn -0.9998 -0.0000 0.0210
vn -0.9485 0.0753 0.3076
vn -1.0000 -0.0071 0.0049
vn -0.0712 0.9973 -0.0168
vn 0.5044 0.8612 0.0618
vn -0.5044 0.8612 0.0618
vn -0.9997 -0.0205 -0.0135
vn 0.0390 -0.0624 0.9973
vn 0.0967 -0.0194 0.9951
vn -0.7559 0.4721 0.4535
vn -0.7803 0.4441 0.4404
vn -0.7410 0.4883 0.4610
vn 0.7207 0.6841 0.1127
vn 0.0712 0.9973 -0.0168
vn 0.2324 0.9643 0.1272
vn -0.9583 0.2832 0.0383
vn -0.7207 0.6841 0.1127
vn 1.0000 -0.0071 0.0049
vn 0.9998 -0.0000 0.0210
vn 0.9997 -0.0205 -0.0135
vn 0.9583 0.2832 0.0383
vn 1.0000 0.0061 -0.0047
vn 0.2432 0.0920 0.9656
vn 0.9485 0.0753 0.3076
vn 0.0000 -0.0179 -0.9998
vn 0.0000 -0.6919 -0.7220
vn 0.7559 0.4721 0.4535
vn 0.7803 0.4441 0.4404
vn 0.7853 0.4381 0.4375
vn -0.9997 -0.0203 -0.0111
vn -1.0000 0.0061 -0.0047
vn -0.7853 0.4381 0.4375
vn 0.9997 -0.0203 -0.0111
vn -0.2324 0.9643 0.1272
vn 0.7410 0.4883 0.4610
s off
f 5/1/1 25/2/1 11/3/1
f 7/4/2 17/5/2 8/6/2
f 12/7/3 26/8/3 2/9/3
f 18/10/4 23/11/4 15/12/4
f 1/13/5 16/14/5 24/15/5
f 11/3/6 10/16/6 3/17/6
f 5/1/7 14/18/7 25/2/7
f 7/4/8 19/19/8 17/5/8
f 12/7/9 20/20/9 26/8/9
f 18/10/4 6/21/4 23/11/4
f 1/13/10 3/17/10 16/14/10
f 12/7/11 21/22/11 20/20/11
f 21/22/6 10/16/6 11/3/6
f 10/16/12 7/4/12 8/6/12
f 8/6/13 3/17/13 10/16/13
f 3/17/14 1/13/14 11/3/14
f 1/13/14 5/1/14 11/3/14
f 11/3/15 20/20/15 21/22/15
s 1
f 1/13/16 24/23/17 13/24/18
f 9/25/19 13/24/19 28/26/19
f 13/27/20 24/23/21 16/14/22
f 10/16/23 6/21/24 18/10/25
f 28/26/26 13/27/20 16/14/22
f 5/1/27 13/24/18 22/28/28
f 17/5/29 3/17/30 8/6/31
f 2/9/32 21/22/33 12/7/34
f 15/29/35 19/19/36 18/10/25
f 25/2/37 22/30/38 9/25/39
f 23/31/40 2/9/32 26/8/41
f 5/1/27 22/28/28 14/32/42
f 22/30/38 25/2/37 14/32/43
f 19/19/36 10/16/23 18/10/25
f 27/33/44 23/34/44 4/35/44
f 28/36/45 4/37/45 9/38/45
f 26/8/46 11/3/47 25/2/48
f 9/25/19 22/28/19 13/24/19
f 10/16/23 21/22/33 6/21/24
f 15/29/35 27/39/49 17/5/50
f 27/39/49 28/26/26 16/14/22
f 17/5/50 27/39/49 16/14/22
f 5/1/27 1/13/16 13/24/18
f 17/5/29 16/14/51 3/17/30
f 2/9/32 6/21/24 21/22/33
f 15/29/35 17/5/50 19/19/36
f 9/25/39 4/37/52 25/2/37
f 4/37/52 23/31/40 26/8/41
f 26/8/41 25/2/37 4/37/52
f 23/31/40 6/21/24 2/9/32
f 19/19/36 7/4/53 10/16/23
f 27/33/44 15/40/44 23/34/44
f 28/36/45 27/39/45 4/37/45
f 26/8/46 20/20/54 11/3/47
