# Blender v2.76 (sub 0) OBJ File: 'untitled.blend'
# www.blender.org
mtllib HE_GunSight_holo_spinner.mtl
o Circle.001_Circle.000
v -0.383569 0.256292 4.105636
v -0.356601 0.292654 4.105636
v -0.374865 0.307643 4.105636
v -0.406843 0.217461 4.105636
v -0.403214 0.269419 4.105636
v -0.426199 0.176537 4.105636
v -0.427681 0.228599 4.105636
v -0.464060 0.140770 4.105636
v -0.441451 0.133912 4.105636
v -0.475624 0.094607 4.105636
v -0.452451 0.089997 4.105636
v -0.482607 0.047532 4.105636
v -0.459093 0.045216 4.105636
v -0.461315 -0.000001 4.105636
v -0.459093 -0.045218 4.105636
v -0.484942 -0.000001 4.105636
v -0.452451 -0.089999 4.105636
v -0.482607 -0.047534 4.105636
v -0.464060 -0.140772 4.105636
v -0.441451 -0.133914 4.105636
v -0.426199 -0.176539 4.105636
v -0.427680 -0.228601 4.105636
v -0.406843 -0.217463 4.105636
v -0.403214 -0.269421 4.105636
v -0.383569 -0.256294 4.105636
v -0.374865 -0.307645 4.105636
v -0.356601 -0.292656 4.105636
v -0.089998 0.452450 4.105636
v -0.045216 0.459093 4.105636
v -0.047532 0.482606 4.105636
v -0.133912 0.441450 4.105636
v -0.094607 0.475623 4.105636
v -0.176537 0.426198 4.105636
v -0.140771 0.464060 4.105636
v -0.228600 0.427680 4.105636
v -0.217462 0.406842 4.105636
v -0.269419 0.403214 4.105636
v -0.256293 0.383568 4.105636
v -0.292655 0.356600 4.105636
v -0.326199 0.326198 4.105636
v -0.307644 0.374864 4.105636
v -0.019905 0.460336 4.105636
v -0.020351 0.483941 4.105636
v -0.334502 -0.334504 4.105636
v -0.365678 -0.300106 4.105636
v -0.374865 -0.307645 4.105636
v -0.300104 -0.365680 4.105636
v -0.342905 -0.342907 4.105636
v -0.262816 -0.393334 4.105636
v -0.307644 -0.374867 4.105636
v -0.222997 -0.417201 4.105636
v -0.269419 -0.403216 4.105636
v -0.181031 -0.437050 4.105636
v -0.228600 -0.427682 4.105636
v -0.137321 -0.452689 4.105636
v -0.185579 -0.448029 4.105636
v -0.092288 -0.463969 4.105636
v -0.140771 -0.464062 4.105636
v -0.046367 -0.470781 4.105636
v -0.094607 -0.475625 4.105636
v -0.020412 -0.472056 4.105636
v -0.047532 -0.482608 4.105636
v -0.374865 0.307643 4.105636
v -0.356601 0.292654 4.105636
v -0.383569 0.256292 4.105636
v -0.403214 0.269419 4.105636
v -0.406843 0.217461 4.105636
v -0.427681 0.228599 4.105636
v -0.426199 0.176537 4.105636
v -0.464060 0.140770 4.105636
v -0.448028 0.185578 4.105636
v -0.475624 0.094607 4.105636
v -0.441451 0.133912 4.105636
v -0.482607 0.047532 4.105636
v -0.452451 0.089997 4.105636
v -0.459093 0.045216 4.105636
v -0.461315 -0.000001 4.105636
v -0.484942 -0.000001 4.105636
v -0.459093 -0.045218 4.105636
v -0.482607 -0.047534 4.105636
v -0.452451 -0.089999 4.105636
v -0.464060 -0.140772 4.105636
v -0.475624 -0.094609 4.105636
v -0.441451 -0.133914 4.105636
v -0.426199 -0.176539 4.105636
v -0.427680 -0.228601 4.105636
v -0.448028 -0.185580 4.105636
v -0.403214 -0.269421 4.105636
v -0.406843 -0.217463 4.105636
v -0.374865 -0.307645 4.105636
v -0.383569 -0.256294 4.105636
v -0.047532 0.482606 4.105636
v -0.045216 0.459093 4.105636
v -0.089998 0.452450 4.105636
v -0.094607 0.475623 4.105636
v -0.133912 0.441450 4.105636
v -0.140771 0.464060 4.105636
v -0.176537 0.426198 4.105636
v -0.228600 0.427680 4.105636
v -0.185579 0.448027 4.105636
v -0.269419 0.403214 4.105636
v -0.217462 0.406842 4.105636
v -0.256293 0.383568 4.105636
v -0.292655 0.356600 4.105636
v -0.307644 0.374864 4.105636
v -0.326199 0.326198 4.105636
v -0.342906 0.342905 4.105636
v -0.020351 0.483941 4.105636
v -0.019905 0.460336 4.105636
v -0.374865 -0.307645 4.105636
v -0.365678 -0.300106 4.105636
v -0.334502 -0.334504 4.105636
v -0.342905 -0.342907 4.105636
v -0.300104 -0.365680 4.105636
v -0.307644 -0.374867 4.105636
v -0.262816 -0.393334 4.105636
v -0.269419 -0.403216 4.105636
v -0.222997 -0.417201 4.105636
v -0.228600 -0.427682 4.105636
v -0.181031 -0.437050 4.105636
v -0.185579 -0.448029 4.105636
v -0.137321 -0.452689 4.105636
v -0.140771 -0.464062 4.105636
v -0.092288 -0.463969 4.105636
v -0.094607 -0.475625 4.105636
v -0.046367 -0.470781 4.105636
v -0.047532 -0.482608 4.105636
v -0.020412 -0.472056 4.105636
v -0.448028 0.185578 4.105636
v -0.475624 -0.094609 4.105636
v -0.448028 -0.185580 4.105636
v -0.185579 0.448027 4.105636
v -0.342906 0.342905 4.105636
v -0.020351 -0.483943 4.105636
v -0.356601 -0.292656 4.105636
v -0.020351 -0.483943 4.105636
vt 0.228246 0.703480
vt 0.228521 0.703850
vt 0.228335 0.704003
vt 0.228009 0.703085
vt 0.228046 0.703614
vt 0.227812 0.702668
vt 0.227797 0.703198
vt 0.227426 0.702304
vt 0.227657 0.702234
vt 0.227309 0.701834
vt 0.227545 0.701787
vt 0.227238 0.701354
vt 0.227477 0.701331
vt 0.227454 0.700870
vt 0.227477 0.700410
vt 0.227214 0.700870
vt 0.227545 0.699954
vt 0.227238 0.700386
vt 0.227426 0.699437
vt 0.227657 0.699507
vt 0.227812 0.699073
vt 0.227797 0.698543
vt 0.228009 0.698656
vt 0.228046 0.698127
vt 0.228246 0.698261
vt 0.228335 0.697738
vt 0.228521 0.697891
vt 0.231235 0.705477
vt 0.231691 0.705545
vt 0.231667 0.705784
vt 0.230788 0.705365
vt 0.231188 0.705713
vt 0.230354 0.705210
vt 0.230718 0.705595
vt 0.229824 0.705225
vt 0.229937 0.705013
vt 0.229408 0.704976
vt 0.229542 0.704776
vt 0.229172 0.704501
vt 0.228830 0.704192
vt 0.229019 0.704687
vt 0.231949 0.705557
vt 0.231944 0.705798
vt 0.228701 0.697420
vt 0.228379 0.697775
vt 0.229056 0.697098
vt 0.229440 0.696813
vt 0.229019 0.697054
vt 0.229851 0.696567
vt 0.230284 0.696362
vt 0.229824 0.696516
vt 0.230735 0.696201
vt 0.230262 0.696309
vt 0.231199 0.696084
vt 0.230718 0.696145
vt 0.231673 0.696014
vt 0.231188 0.696028
vt 0.231941 0.696001
vt 0.227590 0.702760
vt 0.227309 0.699907
vt 0.227590 0.698981
vt 0.230262 0.705432
vt 0.228660 0.704362
vt 0.231944 0.695943
vn -0.000000 0.000000 1.000000
vn 0.000000 0.000000 -1.000000
usemtl None
s 1
f 1/1/1 2/2/1 3/3/1
f 4/4/1 1/1/1 5/5/1
f 6/6/1 4/4/1 7/7/1
f 8/8/1 9/9/1 6/6/1
f 10/10/1 11/11/1 9/9/1
f 12/12/1 13/13/1 11/11/1
f 14/14/1 13/13/1 12/12/1
f 15/15/1 14/14/1 16/16/1
f 17/17/1 15/15/1 18/18/1
f 19/19/1 20/20/1 17/17/1
f 21/21/1 20/20/1 19/19/1
f 22/22/1 23/23/1 21/21/1
f 24/24/1 25/25/1 23/23/1
f 26/26/1 27/27/1 25/25/1
f 28/28/1 29/29/1 30/30/1
f 31/31/1 28/28/1 32/32/1
f 33/33/1 31/31/1 34/34/1
f 35/35/1 36/36/1 33/33/1
f 37/37/1 38/38/1 36/36/1
f 39/39/1 38/38/1 37/37/1
f 40/40/1 39/39/1 41/41/1
f 3/3/1 2/2/1 40/40/1
f 29/29/1 42/42/1 43/43/1
f 44/44/1 45/45/1 46/26/1
f 47/46/1 44/44/1 48/44/1
f 49/47/1 47/46/1 50/48/1
f 51/49/1 49/47/1 52/47/1
f 53/50/1 51/49/1 54/51/1
f 55/52/1 53/50/1 56/53/1
f 57/54/1 55/52/1 58/55/1
f 59/56/1 57/54/1 60/57/1
f 61/58/1 59/56/1 62/56/1
f 63/3/2 64/2/2 65/1/2
f 66/5/2 65/1/2 67/4/2
f 68/7/2 67/4/2 69/6/2
f 70/8/2 71/59/2 69/6/2
f 72/10/2 70/8/2 73/9/2
f 74/12/2 72/10/2 75/11/2
f 74/12/2 76/13/2 77/14/2
f 78/16/2 77/14/2 79/15/2
f 80/18/2 79/15/2 81/17/2
f 82/19/2 83/60/2 81/17/2
f 82/19/2 84/20/2 85/21/2
f 86/22/2 87/61/2 85/21/2
f 88/24/2 86/22/2 89/23/2
f 90/26/2 88/24/2 91/25/2
f 92/30/2 93/29/2 94/28/2
f 95/32/2 94/28/2 96/31/2
f 97/34/2 96/31/2 98/33/2
f 99/35/2 100/62/2 98/33/2
f 101/37/2 99/35/2 102/36/2
f 101/37/2 103/38/2 104/39/2
f 105/41/2 104/39/2 106/40/2
f 63/3/2 107/63/2 106/40/2
f 108/43/2 109/42/2 93/29/2
f 110/26/2 111/45/2 112/44/2
f 113/44/2 112/44/2 114/46/2
f 115/48/2 114/46/2 116/47/2
f 117/47/2 116/47/2 118/49/2
f 119/51/2 118/49/2 120/50/2
f 121/53/2 120/50/2 122/52/2
f 123/55/2 122/52/2 124/54/2
f 125/57/2 124/54/2 126/56/2
f 127/56/2 126/56/2 128/58/2
f 5/5/1 1/1/1 3/3/1
f 7/7/1 4/4/1 5/5/1
f 129/59/1 6/6/1 7/7/1
f 129/59/1 8/8/1 6/6/1
f 8/8/1 10/10/1 9/9/1
f 10/10/1 12/12/1 11/11/1
f 16/16/1 14/14/1 12/12/1
f 18/18/1 15/15/1 16/16/1
f 130/60/1 17/17/1 18/18/1
f 130/60/1 19/19/1 17/17/1
f 131/61/1 21/21/1 19/19/1
f 131/61/1 22/22/1 21/21/1
f 22/22/1 24/24/1 23/23/1
f 24/24/1 26/26/1 25/25/1
f 32/32/1 28/28/1 30/30/1
f 34/34/1 31/31/1 32/32/1
f 132/62/1 33/33/1 34/34/1
f 132/62/1 35/35/1 33/33/1
f 35/35/1 37/37/1 36/36/1
f 41/41/1 39/39/1 37/37/1
f 133/63/1 40/40/1 41/41/1
f 133/63/1 3/3/1 40/40/1
f 30/30/1 29/29/1 43/43/1
f 48/44/1 44/44/1 46/26/1
f 50/48/1 47/46/1 48/44/1
f 52/47/1 49/47/1 50/48/1
f 54/51/1 51/49/1 52/47/1
f 56/53/1 53/50/1 54/51/1
f 58/55/1 55/52/1 56/53/1
f 60/57/1 57/54/1 58/55/1
f 62/56/1 59/56/1 60/57/1
f 134/64/1 61/58/1 62/56/1
f 66/5/2 63/3/2 65/1/2
f 68/7/2 66/5/2 67/4/2
f 71/59/2 68/7/2 69/6/2
f 73/9/2 70/8/2 69/6/2
f 75/11/2 72/10/2 73/9/2
f 76/13/2 74/12/2 75/11/2
f 78/16/2 74/12/2 77/14/2
f 80/18/2 78/16/2 79/15/2
f 83/60/2 80/18/2 81/17/2
f 84/20/2 82/19/2 81/17/2
f 87/61/2 82/19/2 85/21/2
f 89/23/2 86/22/2 85/21/2
f 91/25/2 88/24/2 89/23/2
f 135/27/2 90/26/2 91/25/2
f 95/32/2 92/30/2 94/28/2
f 97/34/2 95/32/2 96/31/2
f 100/62/2 97/34/2 98/33/2
f 102/36/2 99/35/2 98/33/2
f 103/38/2 101/37/2 102/36/2
f 105/41/2 101/37/2 104/39/2
f 107/63/2 105/41/2 106/40/2
f 64/2/2 63/3/2 106/40/2
f 92/30/2 108/43/2 93/29/2
f 113/44/2 110/26/2 112/44/2
f 115/48/2 113/44/2 114/46/2
f 117/47/2 115/48/2 116/47/2
f 119/51/2 117/47/2 118/49/2
f 121/53/2 119/51/2 120/50/2
f 123/55/2 121/53/2 122/52/2
f 125/57/2 123/55/2 124/54/2
f 127/56/2 125/57/2 126/56/2
f 136/64/2 127/56/2 128/58/2
