# Blender v2.82 (sub 7) OBJ File: 'DLSmallCornerWrap.blend'
# www.blender.org
mtllib DLSmallWrapCornerBlock.mtl
o untitled
v 0.360000 0.700000 -0.485000
v 0.350000 0.700000 -0.500000
v 0.350000 1.300000 -0.500000
v 0.360000 1.300000 -0.485000
v 0.435000 0.662500 -0.485000
v 0.450000 0.650000 -0.500000
v 0.435000 1.337500 -0.485000
v 0.450000 1.350000 -0.500000
v 0.500000 0.650000 -0.450000
v 0.500000 0.700000 -0.350000
v 0.500000 1.300000 -0.350000
v 0.500000 1.350000 -0.450000
v 0.500000 -0.350000 0.550000
v 0.500000 -0.300000 0.650000
v 0.500000 0.300000 0.650000
v 0.500000 0.350000 0.550000
v 0.450000 0.500000 0.500000
v 0.450000 0.350000 0.500000
v 0.485000 0.337500 0.565000
v 0.435000 0.337500 0.515000
v 0.485000 0.300000 0.640000
v 0.485000 -0.300000 0.640000
v 0.485000 -0.337500 0.565000
v 0.450000 -0.350000 0.500000
v 0.435000 -0.337500 0.515000
v 0.350000 -0.300000 0.500000
v 0.360000 -0.300000 0.515000
v 0.350000 0.300000 0.500000
v 0.360000 0.300000 0.515000
v 0.000000 0.500000 1.133970
v 0.000000 1.133970 0.500000
v -0.366025 0.866025 0.500000
v -0.366025 0.500000 0.866025
v 0.485000 0.662500 -0.435000
v 0.485000 1.337500 -0.435000
v 0.485000 1.300000 -0.360000
v 0.485000 0.700000 -0.360000
v -0.007494 1.349234 -0.451261
v 0.026700 1.322019 -0.500000
v 0.432282 1.468884 -0.451595
v 0.450000 1.435460 -0.500000
v 0.429289 0.500000 -0.450000
v 0.450000 0.550000 -0.500000
v -0.450000 0.500000 -0.450000
v -0.487059 0.548296 -0.450000
v -0.434839 0.550000 -0.500000
v -0.321196 0.974118 -0.500000
v -0.367099 0.990390 -0.450178
v 0.500000 1.188040 0.473300
v 0.458631 1.216153 0.507783
v 0.500000 1.435460 -0.450000
v 0.451595 1.468883 -0.432282
v 0.450000 0.500000 0.500000
v 0.500000 0.550000 0.550000
v 0.450000 0.500000 -0.429289
v 0.500000 0.550000 -0.450000
v 0.466003 0.500000 1.225381
v 0.500000 0.474118 1.187221
v 0.467807 -0.435615 1.476433
v 0.450000 -0.500000 1.434839
v 0.500000 -0.450000 1.434839
v 0.450000 -0.500000 0.570711
v 0.500000 -0.450000 0.550000
v -0.450000 0.500000 0.500000
v -0.469381 0.541826 0.541826
v 0.429289 -0.500000 0.550000
v 0.450000 -0.450000 0.500000
v -0.487059 -0.450000 0.548296
v -0.450000 -0.450000 0.500000
v -0.434839 -0.500000 0.550000
v -0.009484 -0.443734 1.346030
v 0.025882 -0.500000 1.321201
v -0.321196 -0.500000 0.974118
v -0.367099 -0.450179 0.990390
vt 0.289048 0.588430
vt 0.402838 0.591274
vt 0.289048 0.591274
vt 0.261073 0.588430
vt 0.277193 0.591274
vt 0.280038 0.588430
vt 0.367847 0.403698
vt 0.376672 0.478712
vt 0.376672 0.399285
vt 0.261073 0.588430
vt 0.277193 0.591274
vt 0.262969 0.591274
vt 0.320535 0.778078
vt 0.260278 0.597912
vt 0.259051 0.786010
vt 0.281675 0.879263
vt 0.194696 0.743445
vt 0.283073 0.743445
vt 0.192897 0.564467
vt 0.251119 0.847494
vt 0.070952 0.787238
vt 0.070919 0.871080
vt 0.289520 0.787561
vt 0.277193 0.780923
vt 0.280038 0.778078
vt 0.289520 0.806526
vt 0.286676 0.790405
vt 0.286676 0.705515
vt 0.289520 0.591726
vt 0.286676 0.591726
vt 0.266358 0.418126
vt 0.341372 0.409301
vt 0.336960 0.418126
vt 0.289520 0.806526
vt 0.286676 0.790405
vt 0.286676 0.804629
vt 0.280038 0.778078
vt 0.289520 0.787561
vt 0.261073 0.778078
vt 0.277193 0.780923
vt 0.099400 0.778078
vt 0.213189 0.780923
vt 0.099400 0.780923
vt 0.125076 0.563245
vt 0.261073 0.778078
vt 0.262969 0.780923
vt 0.367847 0.286028
vt 0.376672 0.361042
vt 0.376672 0.281615
vt 0.382555 0.281615
vt 0.382555 0.361042
vt 0.968230 0.329805
vt 0.968230 0.269372
vt 0.887652 0.254264
vt 0.289520 0.563279
vt 0.280038 0.582244
vt 0.289520 0.582244
vt 0.199604 0.933818
vt 0.133781 0.867994
vt 0.276110 0.787561
vt 0.289520 0.714998
vt 0.280038 0.714998
vt 0.280038 0.743445
vt 0.280038 0.920854
vt 0.289520 0.904646
vt 0.280038 0.904646
vt 0.261073 0.781375
vt 0.112229 0.752928
vt 0.133781 0.833361
vt 0.099400 0.806526
vt 0.213189 0.806526
vt 0.246210 0.908409
vt 0.194696 0.863677
vt 0.125280 0.743445
vt 0.194696 0.778078
vt 0.125076 0.597878
vt 0.125280 0.778078
vt 0.887652 0.272657
vt 0.976216 0.272657
vt 0.978302 0.274743
vt 0.289520 0.597912
vt 0.382555 0.399285
vt 0.382555 0.478712
vt 0.384028 0.300456
vt 0.459042 0.291631
vt 0.454630 0.300456
vt 0.286676 0.895164
vt 0.289520 0.781375
vt 0.286676 0.781375
vt 0.289520 0.616877
vt 0.286676 0.600757
vt 0.289520 0.597912
vt 0.280038 0.588430
vt 0.289520 0.752928
vt 0.280038 0.771892
vt 0.289520 0.771892
vt 0.289520 0.616877
vt 0.286676 0.600757
vt 0.286676 0.614980
vt 0.109354 0.743445
vt 0.102326 0.752604
vt 0.283415 0.566007
vt 0.280038 0.553796
vt 0.289520 0.563279
vt 0.102326 0.787238
vt 0.109354 0.778078
vt 0.112229 0.787561
vt 0.193275 0.904501
vt 0.199760 0.899340
vt 0.276678 0.597610
vt 0.199760 0.588430
vt 0.193275 0.597673
vt 0.276110 0.743445
vt 0.280038 0.752928
vt 0.125076 0.836447
vt 0.289520 0.773014
vt 0.280340 0.601272
vt 0.281675 0.779554
vt 0.280038 0.588430
vt 0.251119 0.778078
vt 0.260601 0.597912
vt 0.260601 0.787561
vt 0.386936 0.779554
vt 0.381604 0.773014
vt 0.073681 0.963257
vt 0.251119 0.915646
vt 0.280038 0.791488
vt 0.289520 0.955369
vt 0.280038 0.955369
vt 0.280038 0.588430
vt 0.280038 0.601840
vt 0.276110 0.597912
vt 0.251119 0.778078
vt 0.251119 0.597912
vt 0.276110 0.553796
vt 0.109354 0.563279
vt 0.280038 0.563279
vt 0.280038 0.778078
vt 0.289520 0.787561
vt 0.125076 0.871080
vt 0.199604 0.553796
vt 0.192897 0.938527
vt 0.402838 0.588430
vt 0.262969 0.591274
vt 0.367847 0.474300
vt 0.344120 0.597878
vt 0.286676 0.804629
vt 0.289520 0.705515
vt 0.261945 0.409301
vt 0.262969 0.780923
vt 0.213189 0.778078
vt 0.367847 0.356630
vt 0.887652 0.349950
vt 0.978302 0.349950
vt 0.978302 0.334841
vt 0.978302 0.264336
vt 0.978302 0.254264
vt 0.280038 0.743445
vt 0.289520 0.752928
vt 0.289520 0.920854
vt 0.261073 0.895164
vt 0.289048 0.616877
vt 0.279566 0.597912
vt 0.222671 0.787561
vt 0.070952 0.787561
vt 0.089917 0.787561
vt 0.070952 0.955369
vt 0.412320 0.597912
vt 0.428527 0.597912
vt 0.402838 0.616877
vt 0.125280 0.812861
vt 0.978302 0.368343
vt 0.978302 0.368343
vt 0.887652 0.368343
vt 0.379615 0.291631
vt 0.289520 0.895164
vt 0.286676 0.614980
vt 0.289520 0.597912
vt 0.251119 0.601840
vt 0.289520 0.597912
vt 0.070952 0.778078
vt 0.112229 0.553796
vn 0.8320 0.0000 -0.5547
vn 0.4286 0.8571 -0.2857
vn -0.0000 0.0000 -1.0000
vn 0.4286 -0.8571 -0.2857
vn -0.9553 0.2946 0.0232
vn -0.9619 0.2714 0.0318
vn -0.9519 0.3059 0.0190
vn -0.1374 0.7004 0.7004
vn -0.2388 0.2406 0.9408
vn -0.2092 0.2270 0.9511
vn -0.1879 0.2171 0.9579
vn -0.9553 0.0232 0.2946
vn -0.9619 0.0318 0.2714
vn -0.9645 0.0353 0.2617
vn 0.3590 -0.8615 -0.3590
vn 0.2857 -0.8571 -0.4286
vn 0.5547 0.0000 -0.8320
vn 0.5547 0.0000 -0.8321
vn 1.0000 -0.0000 0.0000
vn 0.2857 0.8571 -0.4286
vn 0.3590 0.8616 -0.3590
vn -0.6219 0.1234 0.7733
vn -0.6687 0.1482 0.7286
vn -0.6971 0.1638 0.6980
vn 0.7071 0.0000 -0.7071
vn 0.0000 -1.0000 -0.0000
vn -0.4597 0.6280 0.6280
vn -0.6218 0.7734 0.1234
vn -0.6685 0.7288 0.1482
vn -0.5874 0.8024 0.1057
vn -0.8881 0.3251 0.3251
vn 0.3590 0.8615 -0.3590
vn -0.6047 -0.4640 -0.6473
vn 0.5544 -0.5544 0.6208
vn -0.6047 -0.6473 -0.4640
vn -0.6166 0.3767 -0.6913
vn -0.4062 0.6465 -0.6457
vn -0.3558 0.6864 -0.6342
vn -0.2065 0.7695 -0.6043
vn 0.0000 -0.7071 -0.7071
vn -0.6295 0.3480 -0.6947
vn -0.6836 0.1850 -0.7060
vn -0.6828 0.1850 -0.7068
vn 0.7000 0.6375 0.3220
vn 0.6077 0.7672 0.2054
vn 0.7147 0.5939 0.3694
vn 0.4112 0.8135 -0.4112
vn 0.7071 -0.7071 -0.0000
vn 0.8032 0.2955 0.5172
vn 0.8058 0.1533 0.5720
vn 0.8044 0.3050 0.5098
vn 0.5000 -0.7071 -0.5000
vn -0.8996 -0.4365 0.0129
vn -0.7973 -0.6036 0.0004
vn -0.7934 -0.6088 -0.0000
vn -0.8996 0.0129 -0.4365
vn -0.7973 0.0004 -0.6036
vn -0.9021 0.0133 -0.4313
vn -0.6836 -0.7060 0.1850
vn -0.6270 -0.6942 0.3535
vn -0.6828 -0.7068 0.1850
vn -0.2257 -0.4862 0.8442
vn -0.3759 -0.5604 0.7379
vn -0.2265 -0.4835 0.8455
vn -0.4295 -0.5799 0.6922
vn -0.6158 -0.6883 0.3835
vn -0.2538 0.9335 0.2532
vn -0.2538 0.9334 0.2538
vn -0.2324 0.9416 0.2436
vn -0.9645 0.2617 0.0353
vn -0.2591 0.2498 0.9330
vn -0.9519 0.0190 0.3059
vn -0.5874 0.1057 0.8024
vn 0.0000 0.0000 1.0000
vn -0.6966 0.6986 0.1636
vn -0.2059 0.7684 -0.6060
vn 0.6059 0.7684 0.2059
vn 0.8064 0.1531 0.5712
vn -0.9021 -0.4313 0.0133
vn -0.7934 0.0000 -0.6088
vn -0.1757 0.9599 0.2186
vn -0.1983 0.9531 0.2286
usemtl FrontColor
s 1
f 2/1/1 4/2/1 1/3/1
f 2/4/2 5/5/2 6/6/2
f 1/7/3 7/8/3 5/9/3
f 3/10/4 7/11/4 4/12/4
f 32/13/5 45/14/6 65/15/7
f 50/16/8 30/17/8 57/18/8
f 71/19/9 57/18/10 30/17/11
f 33/20/12 68/21/13 74/22/14
f 16/23/15 20/24/15 18/25/15
f 15/26/16 19/27/16 16/23/16
f 21/28/17 14/29/18 22/30/18
f 22/31/19 19/32/19 21/33/19
f 14/34/20 23/35/20 22/36/20
f 24/37/21 23/35/21 13/38/21
f 26/39/2 25/40/2 24/37/2
f 26/41/1 29/42/1 27/43/1
f 30/17/22 74/44/23 71/19/24
f 28/45/4 20/24/4 29/46/4
f 27/47/3 20/48/3 25/49/3
f 23/50/25 20/48/25 19/51/25
f 28/52/3 26/53/3 69/54/3
f 63/55/25 24/56/25 13/57/25
f 72/58/26 73/59/26 66/60/26
f 16/61/25 18/62/25 17/63/25
f 41/64/25 12/65/25 8/66/25
f 2/67/3 46/68/3 47/69/3
f 14/70/19 15/71/19 58/72/19
f 31/73/27 33/74/27 30/17/27
f 31/75/28 48/76/29 32/77/30
f 33/20/31 32/13/31 65/15/31
f 44/78/26 42/79/26 55/80/26
f 5/5/32 9/81/32 6/6/32
f 34/82/25 7/8/25 35/83/25
f 37/84/19 35/85/19 36/86/19
f 36/87/18 10/88/17 37/89/17
f 11/90/16 35/91/16 12/92/16
f 35/91/15 8/93/15 12/92/15
f 56/94/25 6/95/25 9/96/25
f 10/97/20 34/98/20 37/99/20
f 44/100/33 45/101/33 46/68/33
f 59/102/34 60/103/34 61/104/34
f 68/105/35 69/106/35 70/107/35
f 47/69/36 38/108/37 39/109/38
f 40/110/39 39/111/38 38/112/37
f 42/113/40 46/68/40 43/114/40
f 48/115/41 46/68/42 45/101/43
f 49/116/44 52/117/45 50/118/46
f 52/117/47 41/119/47 40/110/47
f 53/120/48 56/121/48 54/122/48
f 50/123/46 58/72/49 49/124/44
f 59/125/50 58/72/49 57/126/51
f 62/127/48 61/128/48 60/129/48
f 43/130/52 55/131/52 42/132/52
f 64/133/53 45/14/54 44/134/55
f 64/133/56 68/21/57 65/15/58
f 66/135/40 69/136/40 67/137/40
f 62/127/52 67/138/52 63/139/52
f 70/107/59 74/140/60 68/105/61
f 59/102/62 72/141/63 60/103/64
f 71/142/65 73/59/66 72/58/63
f 52/117/67 40/110/68 38/112/69
f 2/1/1 3/143/1 4/2/1
f 2/4/2 1/144/2 5/5/2
f 1/7/3 4/145/3 7/8/3
f 3/10/4 8/93/4 7/11/4
f 32/13/5 48/146/70 45/14/6
f 50/16/8 31/73/8 30/17/8
f 71/19/9 59/102/71 57/18/10
f 33/20/12 65/15/72 68/21/13
f 16/23/15 19/27/15 20/24/15
f 15/26/16 21/147/16 19/27/16
f 21/28/17 15/148/17 14/29/18
f 22/31/19 23/149/19 19/32/19
f 14/34/20 13/38/20 23/35/20
f 24/37/21 25/40/21 23/35/21
f 26/39/2 27/150/2 25/40/2
f 26/41/1 28/151/1 29/42/1
f 30/17/22 33/74/73 74/44/23
f 28/45/4 18/25/4 20/24/4
f 27/47/3 29/152/3 20/48/3
f 23/50/25 25/49/25 20/48/25
f 69/54/3 64/153/3 28/52/3
f 64/153/3 17/154/3 28/52/3
f 17/154/3 18/155/3 28/52/3
f 26/53/3 24/156/3 67/157/3
f 26/53/3 67/157/3 69/54/3
f 63/55/25 67/137/25 24/56/25
f 73/59/26 70/107/26 66/60/26
f 66/60/26 62/127/26 72/58/26
f 62/127/26 60/129/26 72/58/26
f 17/63/74 53/158/74 54/159/74
f 54/159/25 16/61/25 17/63/25
f 41/64/25 51/160/25 12/65/25
f 47/69/3 39/109/3 2/67/3
f 39/109/3 41/64/3 3/161/3
f 41/64/3 8/66/3 3/161/3
f 2/67/3 6/95/3 43/114/3
f 39/109/3 3/161/3 2/67/3
f 2/67/3 43/114/3 46/68/3
f 54/122/19 56/121/19 10/162/19
f 56/121/19 9/163/19 10/162/19
f 15/71/19 16/164/19 54/122/19
f 63/165/19 13/166/19 14/70/19
f 61/167/19 63/165/19 14/70/19
f 49/124/19 58/72/19 54/122/19
f 58/72/19 61/167/19 14/70/19
f 54/122/19 58/72/19 15/71/19
f 12/168/19 51/169/19 11/170/19
f 51/169/19 49/124/19 11/170/19
f 54/122/19 10/162/19 49/124/19
f 10/162/19 11/170/19 49/124/19
f 31/73/27 32/171/27 33/74/27
f 31/75/28 38/112/75 48/76/29
f 55/80/74 53/172/74 17/173/74
f 17/173/26 64/174/26 55/80/26
f 64/174/26 44/78/26 55/80/26
f 5/5/32 34/98/32 9/81/32
f 34/82/25 5/9/25 7/8/25
f 37/84/19 34/175/19 35/85/19
f 36/87/18 11/176/18 10/88/17
f 11/90/16 36/177/16 35/91/16
f 35/91/15 7/11/15 8/93/15
f 56/94/25 43/114/25 6/95/25
f 10/97/20 9/81/20 34/98/20
f 47/69/36 48/115/41 38/108/37
f 40/110/39 41/119/76 39/111/38
f 42/113/40 44/100/40 46/68/40
f 48/115/41 47/69/36 46/68/42
f 49/116/44 51/178/77 52/117/45
f 52/117/47 51/178/47 41/119/47
f 53/120/48 55/179/48 56/121/48
f 50/123/46 57/126/51 58/72/49
f 59/125/50 61/167/78 58/72/49
f 62/127/48 63/139/48 61/128/48
f 43/130/52 56/180/52 55/131/52
f 64/133/53 65/15/79 45/14/54
f 64/133/56 69/181/80 68/21/57
f 66/135/40 70/182/40 69/136/40
f 62/127/52 66/60/52 67/138/52
f 70/107/59 73/59/66 74/140/60
f 59/102/62 71/19/65 72/141/63
f 71/142/65 74/140/60 73/59/66
f 38/112/69 31/75/81 50/118/82
f 50/118/82 52/117/67 38/112/69
o DarkLightBasicBoi
v 0.500000 1.130000 0.130000
v 0.600000 1.000000 0.000000
v 0.500000 1.130000 -0.130000
v 0.500000 0.870000 0.130000
v 0.500000 0.870000 -0.130000
v 0.130000 1.130000 -0.500000
v 0.000000 1.000000 -0.600000
v -0.130000 1.130000 -0.500000
v 0.130000 0.870000 -0.500000
v -0.130000 0.870000 -0.500000
v 0.130000 0.500000 0.130000
v 0.000000 0.400000 -0.000000
v 0.130000 0.500000 -0.130000
v -0.130000 0.500000 0.130000
v -0.130000 0.500000 -0.130000
v 0.500000 0.130000 1.130000
v 0.600000 0.000000 1.000000
v 0.500000 0.130000 0.870000
v 0.500000 -0.130000 1.130000
v 0.500000 -0.130000 0.870000
v 0.130000 0.130000 0.500000
v 0.000000 0.000000 0.400000
v -0.130000 0.130000 0.500000
v 0.130000 -0.130000 0.500000
v -0.130000 -0.130000 0.500000
v 0.130000 -0.500000 1.130000
v 0.000000 -0.600000 1.000000
v 0.130000 -0.500000 0.870000
v -0.130000 -0.500000 1.130000
v -0.130000 -0.500000 0.870000
vt 0.935980 0.248164
vt 0.906427 0.218611
vt 0.935980 0.189058
vt 0.876873 0.248164
vt 0.876873 0.189058
vt 0.935980 0.248164
vt 0.906427 0.218611
vt 0.876873 0.248164
vt 0.935980 0.189058
vt 0.876873 0.189058
vt 0.935980 0.248164
vt 0.906427 0.218611
vt 0.935980 0.189058
vt 0.876873 0.248164
vt 0.876873 0.189058
vt 0.935980 0.248164
vt 0.906427 0.218611
vt 0.935980 0.189058
vt 0.876873 0.248164
vt 0.876873 0.189058
vt 0.935980 0.248164
vt 0.906427 0.218611
vt 0.876873 0.248164
vt 0.935980 0.189058
vt 0.876873 0.189058
vt 0.935980 0.248164
vt 0.906427 0.218611
vt 0.935980 0.189058
vt 0.876873 0.248164
vt 0.876873 0.189058
vn 0.7926 0.6097 0.0000
vn 0.7926 -0.0000 0.6097
vn 0.7926 -0.6097 0.0000
vn 0.7926 0.0000 -0.6097
vn 0.0000 0.6097 -0.7926
vn 0.6097 0.0000 -0.7926
vn 0.0000 -0.6097 -0.7926
vn -0.6097 0.0000 -0.7926
vn 0.6097 -0.7926 0.0000
vn 0.0000 -0.7926 0.6097
vn -0.6097 -0.7926 0.0000
vn 0.0000 -0.7926 -0.6097
usemtl Color_M03
s 1
f 75/183/83 76/184/83 77/185/83
f 78/186/84 76/184/84 75/183/84
f 76/184/85 78/186/85 79/187/85
f 76/184/86 79/187/86 77/185/86
f 80/188/87 81/189/87 82/190/87
f 83/191/88 81/189/88 80/188/88
f 81/189/89 83/191/89 84/192/89
f 81/189/90 84/192/90 82/190/90
f 85/193/91 86/194/91 87/195/91
f 86/194/92 85/193/92 88/196/92
f 86/194/93 88/196/93 89/197/93
f 86/194/94 89/197/94 87/195/94
f 90/198/83 91/199/83 92/200/83
f 93/201/84 91/199/84 90/198/84
f 91/199/85 93/201/85 94/202/85
f 91/199/86 94/202/86 92/200/86
f 95/203/87 96/204/87 97/205/87
f 98/206/88 96/204/88 95/203/88
f 96/204/89 98/206/89 99/207/89
f 96/204/90 99/207/90 97/205/90
f 100/208/91 101/209/91 102/210/91
f 101/209/92 100/208/92 103/211/92
f 101/209/93 103/211/93 104/212/93
f 101/209/94 104/212/94 102/210/94
