# Blender v2.90.1 OBJ File: 'GT_Basic_Blocks_3.blend'
# www.blender.org
v 2.279823 0.017638 2.279823
v -0.450124 1.500000 -0.450124
v -0.450040 1.474543 -0.492598
v -0.473791 1.473771 -0.487041
v -0.492598 1.474543 -0.450040
v -0.487041 1.473771 -0.473791
v -0.450085 1.492583 -0.474602
v -0.474602 1.492583 -0.450084
v -0.473810 1.487028 -0.473810
v 3.442986 -0.500000 -0.450000
v 3.442922 -0.450000 -0.500000
v 3.486867 -0.450428 -0.450248
v 3.445368 -0.493242 -0.474922
v 3.467312 -0.493456 -0.450079
v 3.468513 -0.486888 -0.473943
v 3.467256 -0.450135 -0.493399
v 3.445344 -0.474889 -0.493275
v 3.468497 -0.473967 -0.486864
v 3.483419 -0.475260 -0.450170
v 3.483387 -0.450292 -0.475137
v 3.479853 -0.474077 -0.474007
v 3.353998 -0.475214 0.532676
v 1.998284 1.431852 -0.450144
v 1.997493 1.407485 -0.493321
v 1.999830 1.425323 -0.475072
v 2.484811 1.232051 -0.450168
v 2.902602 0.914214 -0.450196
v 2.890524 0.896310 -0.493328
v 2.901123 0.909416 -0.475098
v 3.220623 0.496601 -0.475111
v 3.424713 0.017638 -0.450242
v 3.406040 0.011060 -0.493334
v 3.421465 0.015876 -0.475121
v -0.500000 -0.450000 3.442922
v -0.450000 -0.500000 3.442986
v -0.450248 -0.450428 3.486867
v -0.492581 -0.474541 3.442943
v -0.492588 -0.448858 3.466597
v -0.486949 -0.473376 3.467504
v -0.448815 -0.492612 3.466652
v -0.474541 -0.492581 3.442966
v -0.473349 -0.486970 3.467523
v -0.474720 -0.449012 3.482382
v -0.448904 -0.474808 3.482411
v -0.473435 -0.473489 3.479691
v -0.450242 0.017638 3.424713
v -0.493334 0.011060 3.406040
v -0.475121 0.015876 3.421465
v -0.475111 0.496600 3.220623
v -0.450196 0.914214 2.902602
v -0.493328 0.896309 2.890525
v -0.475098 0.909416 2.901123
v -0.450168 1.232051 2.484811
v -0.450144 1.431852 1.998284
v -0.493321 1.407485 1.997493
v -0.475072 1.425323 1.999830
v 0.533572 -0.450428 3.357345
v 0.528521 -0.493359 3.338495
v 0.532676 -0.475214 3.353998
v 1.496709 -0.450428 2.958401
v 2.323772 -0.450428 2.323772
v 2.309973 -0.493359 2.309973
v 2.321322 -0.475214 2.321322
v 2.958401 -0.450428 1.496709
v 2.941500 -0.493359 1.486951
v 2.955400 -0.475214 1.494976
v -0.450000 0.550000 -0.500000
v -0.500000 0.550000 -0.450000
v -0.474967 0.550000 -0.493320
v -0.473911 0.526089 -0.486832
v -0.473911 0.513168 -0.473911
v -0.493320 0.550000 -0.474967
v -0.486832 0.526089 -0.473911
v -0.450000 -0.500000 2.550000
v -0.474967 -0.493320 2.550000
v -0.493320 -0.474967 2.550000
v 2.550000 -0.450000 -0.500000
v 2.550000 -0.500000 -0.450000
v 2.550000 -0.474967 -0.493320
v 2.550000 -0.493320 -0.474967
v 0.274224 1.232051 2.389442
v 0.382355 0.914214 2.792994
v 1.885553 0.878981 1.885553
v 2.389441 1.232050 0.274230
v 2.792993 0.914213 0.382359
v 1.465632 0.017637 2.904574
v 2.904574 0.017637 1.465632
v 0.363130 1.431851 1.830513
v 0.741452 0.017637 3.204540
v 0.493299 0.241314 3.207044
v 0.626227 0.047603 3.238832
v 0.535397 0.129475 3.239749
v 1.830513 1.431851 0.363130
v 3.207035 0.241337 0.493296
v 3.204531 0.017637 0.741474
v 3.239743 0.129486 0.535399
v 3.238826 0.047607 0.626239
vt 0.277399 0.788608
vt 0.000000 0.000000
vt 0.000000 0.000000
vt 0.256728 0.803054
vt 0.307657 0.828042
vt 0.210537 0.804241
vt 0.246723 0.826668
vt 0.212026 0.826668
vt 0.000000 0.000000
vt 0.145150 0.780231
vt 0.185039 0.765465
vt 0.179858 0.784800
vt 0.253110 0.827568
vt 0.303823 0.826668
vt 0.305015 0.826584
vt 0.305015 0.849617
vt 0.145151 0.803542
vt 0.305794 0.920858
vt 0.305723 0.922052
vt 0.285776 0.920857
vt 0.300542 0.880968
vt 0.192284 0.804241
vt 0.192241 0.803054
vt 0.238432 0.804241
vt 0.258614 0.837386
vt 0.256829 0.831884
vt 0.145154 0.922028
vt 0.262464 0.920856
vt 0.262538 0.922050
vt 0.304951 0.896437
vt 0.303811 0.852175
vt 0.303813 0.896474
vt 0.210620 0.803054
vt 0.144018 0.896437
vt 0.144017 0.897072
vt 0.145154 0.897338
vt 0.143979 0.920853
vt 0.145152 0.920855
vt 0.143383 0.896437
vt 0.331800 0.922043
vt 0.332851 0.920853
vt 0.331686 0.920849
vt 0.305008 0.852175
vt 0.143961 0.852175
vt 0.332848 0.804255
vt 0.331799 0.803069
vt 0.331682 0.804262
vt 0.303823 0.804241
vt 0.304962 0.803108
vt 0.305016 0.804248
vt 0.303819 0.803051
vt 0.304959 0.802494
vt 0.305578 0.803113
vt 0.117286 0.803086
vt 0.116152 0.804316
vt 0.117287 0.804262
vt 0.160070 0.803065
vt 0.145214 0.733187
vt 0.143982 0.734322
vt 0.145158 0.734321
vt 0.000000 0.000000
vt 0.145148 0.760213
vt 0.145146 0.804241
vt 0.144035 0.803136
vt 0.145210 0.803073
vt 0.144039 0.802490
vt 0.143387 0.803142
vt 0.305215 0.868769
vt 0.305723 0.869396
vt 0.288899 0.803065
vt 0.144012 0.851030
vt 0.145158 0.852175
vt 0.254426 0.881889
vt 0.182975 0.812355
vt 0.675141 0.844023
vt 0.144012 0.922614
vt 0.144012 0.921995
vt 0.143393 0.921995
vt 0.143973 0.804309
vt 0.277942 0.788064
vt 0.000000 0.000000
vt 0.308323 0.827658
vt 0.145146 0.826668
vt 0.143954 0.826584
vt 0.170909 0.804241
vt 0.275954 0.826668
vt 0.143246 0.869396
vt 0.127938 0.849617
vt 0.000000 0.000000
vt 0.186543 0.893261
vt 0.143754 0.868768
vt 0.288899 0.920849
vt 0.192042 0.802184
vt 0.189443 0.835566
vt 0.143081 0.826353
vt 0.262426 0.893261
vt 0.145158 0.777108
vt 0.143961 0.777108
vt 0.000000 0.000000
vt 0.000000 0.000000
vt 0.171027 0.803054
vt 0.145214 0.802220
vt 0.263930 0.869626
vt 0.000000 0.000000
vt 0.143955 0.760284
vt 0.288899 0.922045
vt 0.278060 0.804241
vt 0.000000 0.000000
vt 0.303815 0.897338
vt 0.304952 0.897072
vt 0.186431 0.894116
vt 0.281206 0.886148
vt 0.196602 0.827860
vt 0.191915 0.831115
vt 0.143082 0.777108
vt 0.160070 0.802186
vt 0.000000 0.000000
vt 0.000000 0.000000
vt 0.675141 0.945085
vt 0.000000 0.000000
vt 0.145156 0.896474
vt 0.262426 0.922925
vt 0.144017 0.921990
vt 0.563522 0.945085
vt 0.173015 0.826668
vt 0.332909 0.921996
vt 0.305586 0.896437
vt 0.143393 0.851030
vt 0.332908 0.803113
vt 0.303815 0.802179
vt 0.116109 0.803142
vt 0.304957 0.851030
vt 0.144039 0.733145
vt 0.305888 0.826353
vt 0.288899 0.804262
vt 0.143117 0.804316
vt 0.184118 0.811581
vt 0.236943 0.826668
vt 0.143956 0.803468
vt 0.329915 0.826353
vt 0.119054 0.826353
vt 0.143082 0.803580
vt 0.202245 0.826668
vt 0.332909 0.802494
vt 0.331800 0.802190
vt 0.117284 0.802221
vt 0.116108 0.802490
vt 0.185039 0.869626
vt 0.000000 0.000000
vt 0.305891 0.804255
vn 0.0041 -1.0000 0.0041
vn 0.1283 -0.9911 0.0366
vn 0.9160 0.1305 0.3794
vn 0.9195 0.1203 0.3742
vn -0.4695 0.7634 0.4436
vn 0.2457 0.6771 0.6936
vn 0.1832 0.8621 0.4725
vn 0.9744 0.1419 0.1745
vn 0.9221 0.2597 0.2870
vn 0.8529 0.3817 0.3561
vn 0.9650 0.2622 -0.0025
vn 0.8799 0.2369 -0.4120
vn 0.8616 0.4990 0.0927
vn -0.1002 0.9731 0.2075
vn 0.7062 0.7069 -0.0394
vn 0.6296 0.6410 -0.4389
vn 0.4436 0.7634 -0.4695
vn 0.6936 0.6771 0.2457
vn 0.2545 0.0117 0.9670
vn 0.2386 -0.4113 0.8797
vn 0.4275 -0.5185 0.7405
vn 0.8411 0.4579 0.2878
vn 0.9232 0.3002 0.2401
vn -0.1018 0.8602 -0.4996
vn 0.2075 0.9731 -0.1002
vn 0.1925 0.8580 -0.4763
vn -0.8295 0.3363 -0.4459
vn -0.9784 -0.1531 -0.1391
vn -0.9934 0.0079 -0.1147
vn 0.8418 -0.0483 0.5377
vn 0.7901 -0.4094 0.4562
vn 0.8421 -0.4112 0.3488
vn -0.4459 0.3363 -0.8295
vn -0.4357 0.7876 -0.4357
vn -0.4996 0.8602 -0.1018
vn -0.1319 0.9825 -0.1319
vn 0.1267 -0.8640 -0.4872
vn 0.5207 -0.8515 -0.0621
vn 0.1451 -0.9814 -0.1259
vn -0.8634 -0.1204 -0.4900
vn -0.4900 -0.1204 -0.8634
vn 0.5237 -0.0638 -0.8495
vn 0.1272 -0.4864 -0.8644
vn 0.1293 -0.1111 -0.9854
vn 1.0000 -0.0040 -0.0044
vn 0.8395 -0.3838 -0.3846
vn 0.9110 -0.0161 -0.4121
vn 0.9109 -0.4122 -0.0175
vn 0.4854 -0.7665 -0.4204
vn 0.4861 -0.4194 -0.7667
vn -0.8594 -0.4976 0.1179
vn -0.8429 -0.0595 0.5348
vn -0.9788 -0.1333 0.1558
vn -0.9023 -0.4245 -0.0751
vn -0.0597 -0.8432 0.5342
vn -0.4977 -0.8593 0.1175
vn -0.1438 -0.9755 0.1666
vn 0.0927 0.4990 0.8616
vn -0.0393 0.7069 0.7062
vn -0.0187 -0.0180 0.9997
vn -0.3833 -0.3825 0.8407
vn -0.0013 -0.4336 0.9011
vn -0.4089 -0.7839 0.4672
vn -0.7840 -0.4084 0.4675
vn 0.3016 0.3123 -0.9008
vn -0.0872 -0.5164 -0.8519
vn -0.4274 -0.4450 -0.7870
vn -0.1391 -0.1531 -0.9784
vn 0.2192 0.9650 0.1439
vn 0.1439 0.9650 0.2192
vn 0.4875 0.7243 0.4875
vn -0.4624 -0.7565 -0.4624
vn -0.7870 -0.4450 -0.4274
vn -0.4331 -0.0003 0.9013
vn 0.6423 -0.4113 0.6468
vn 0.4983 -0.7013 0.5098
vn 0.6483 -0.6625 0.3751
vn -0.0043 0.2628 0.9648
vn -0.4119 0.2360 0.8801
vn 0.0067 -1.0000 0.0052
vn 0.7071 -0.0034 0.7071
vn 0.6649 0.3402 0.6649
vn -0.4389 0.6410 0.6297
vn -0.9033 0.4169 0.1015
vn -0.9003 0.3134 0.3022
vn -0.1154 -0.9792 -0.1672
vn 0.1221 -0.8943 0.4305
vn 0.2878 0.4579 0.8411
vn -0.8917 0.1209 0.4362
vn 0.1015 0.4167 -0.9034
vn -0.1673 -0.9792 -0.1152
vn -0.4850 -0.8636 -0.1381
vn -0.0248 -0.1407 -0.9897
vn -0.1386 -0.8635 -0.4850
vn -0.4763 0.8580 0.1925
vn 0.4725 0.8621 0.1832
vn 0.2434 0.1814 0.9528
vn 0.2358 0.3010 0.9240
vn 0.4737 0.3479 0.8090
vn -0.1147 0.0079 -0.9934
vn -0.0780 0.7040 -0.7059
vn 0.7577 0.4198 0.4996
vn 0.4261 0.1180 -0.8970
vn 0.1829 0.1065 -0.9773
vn -0.9773 0.1065 0.1829
vn -0.7059 0.7040 -0.0780
vn 0.3676 0.3005 0.8801
s off
f 62/1/1 35/2/1 10/3/1
f 22/4/2 65/5/2 10/3/2
f 64/6/3 95/7/3 87/8/3
f 64/6/4 22/9/4 95/7/4
s 1
f 53/10/5 82/11/6 81/12/7
f 22/9/8 97/13/9 95/7/10
f 31/14/11 33/15/12 30/16/13
f 81/12/7 54/17/14 53/10/5
f 27/18/15 29/19/16 26/20/17
f 26/20/17 85/21/18 27/18/15
f 57/22/19 59/23/20 60/24/21
f 31/14/11 94/25/22 96/26/23
f 7/27/24 23/28/25 25/29/26
f 6/30/27 68/31/28 5/32/29
f 64/6/30 66/33/31 22/4/32
f 4/34/33 9/35/34 7/36/24
f 7/27/24 8/37/35 2/38/36
f 95/7/10 96/26/23 94/25/22
f 4/34/33 6/39/27 9/35/34
f 13/40/37 14/41/38 10/42/39
f 72/43/40 6/30/27 69/44/41
f 16/45/42 17/46/43 11/47/44
f 12/48/45 21/49/46 20/50/47
f 19/51/48 15/52/49 21/49/46
f 15/52/49 18/53/50 21/49/46
f 37/54/51 38/55/52 34/56/53
f 34/56/53 68/31/28 76/57/54
f 40/58/55 41/59/56 35/60/57
f 49/61/58 82/11/6 50/62/59
f 36/63/60 45/64/61 44/65/62
f 44/65/62 45/64/61 42/66/63
f 39/67/64 42/66/63 45/64/61
f 28/68/65 29/69/16 30/16/13
f 79/70/66 70/71/67 67/72/68
f 93/73/69 88/74/70 83/75/71
f 70/76/67 71/77/72 73/78/73
f 39/67/64 45/64/61 43/79/74
f 22/9/8 10/42/39 14/41/38
f 29/19/16 27/18/15 30/16/13
f 63/80/75 60/81/21 62/1/76
f 22/9/8 14/41/38 19/51/48
f 66/82/31 65/5/77 22/4/32
f 93/73/69 23/28/25 2/38/36
f 43/79/74 46/83/78 48/84/79
f 65/5/80 62/1/80 10/3/80
f 61/85/81 64/6/30 1/86/82
f 52/87/83 49/88/58 50/62/59
f 53/89/5 55/90/84 51/91/85
f 8/37/35 54/17/14 2/38/36
f 35/60/57 78/92/86 10/42/39
f 58/93/87 35/2/57 62/1/76
f 49/61/58 46/83/78 90/94/88
f 47/95/89 48/84/79 49/88/58
f 25/29/26 26/20/17 24/96/90
f 97/13/9 22/9/8 96/26/23
f 74/97/91 75/98/92 71/99/72
f 77/100/93 67/72/68 24/96/90
f 65/5/77 63/80/75 62/1/76
f 66/33/31 61/85/81 63/101/75
f 55/90/84 5/32/29 68/31/28
f 59/23/20 58/93/87 60/24/21
f 44/65/62 57/22/19 36/63/60
f 58/93/87 40/102/55 35/60/57
f 85/103/18 30/104/13 27/18/15
f 52/105/83 50/62/59 53/10/5
f 33/15/12 12/48/45 20/50/47
f 60/24/21 58/93/87 62/1/76
f 52/87/83 53/89/5 51/91/85
f 10/42/39 80/106/94 13/40/37
f 61/107/81 60/24/21 63/80/75
f 74/97/91 41/59/56 75/98/92
f 48/84/79 46/83/78 49/61/58
f 22/4/8 31/108/11 96/26/23
f 8/109/35 9/110/34 6/30/27
f 26/20/17 29/19/16 28/68/65
f 56/111/95 53/89/5 54/17/14
f 35/60/57 74/97/91 78/92/86
f 84/112/96 23/28/25 93/73/69
f 91/113/97 92/114/98 57/22/19
f 97/13/9 96/26/23 95/7/10
f 79/70/66 17/46/43 80/106/94
f 76/115/54 71/77/72 75/116/92
f 22/4/8 19/51/48 12/48/45
f 86/117/99 1/118/82 83/119/71
f 23/28/25 26/20/17 25/29/26
f 26/120/17 28/68/65 24/96/90
f 67/72/68 4/34/33 3/121/100
f 20/50/47 21/49/46 18/53/50
f 55/90/84 53/89/5 56/111/95
f 53/10/5 50/62/59 82/11/6
f 81/12/7 88/74/70 54/17/14
f 26/20/17 84/112/96 85/21/18
f 31/14/11 30/104/13 94/25/22
f 7/27/24 2/38/36 23/28/25
f 6/30/27 72/43/40 68/31/28
f 25/29/26 24/122/90 7/36/24
f 24/122/90 3/121/101 7/36/24
f 3/121/101 4/34/33 7/36/24
f 7/27/24 9/123/34 8/37/35
f 94/25/22 85/103/18 95/7/10
f 85/103/18 83/124/71 87/8/102
f 83/124/71 1/125/82 87/8/102
f 87/8/102 95/7/10 85/103/18
f 13/40/37 15/126/49 14/41/38
f 6/30/27 4/127/33 69/44/41
f 69/44/41 70/71/67 73/128/73
f 73/128/73 72/43/40 69/44/41
f 16/45/42 18/129/50 17/46/43
f 12/48/45 19/51/48 21/49/46
f 19/51/48 14/130/38 15/52/49
f 37/54/51 39/131/64 38/55/52
f 72/43/40 73/132/73 68/31/28
f 73/132/73 76/57/54 68/31/28
f 76/57/54 37/54/51 34/56/53
f 40/58/55 42/133/63 41/59/56
f 49/61/58 90/94/88 82/11/6
f 36/63/60 43/79/74 45/64/61
f 42/66/63 40/102/55 44/65/62
f 40/102/55 58/93/87 59/23/20
f 44/65/62 40/102/55 59/23/20
f 33/15/12 32/134/103 30/16/13
f 32/134/103 28/68/65 30/16/104
f 69/44/41 67/72/68 70/71/67
f 67/72/68 77/135/93 79/70/66
f 77/135/93 11/47/44 79/70/66
f 11/47/44 17/46/43 79/70/66
f 82/11/6 83/75/71 81/12/7
f 83/75/71 85/103/18 84/112/96
f 81/12/7 83/75/71 88/74/70
f 84/112/96 93/73/69 83/75/71
f 48/84/79 47/95/89 43/79/74
f 47/95/89 38/136/52 43/79/74
f 38/136/52 39/67/64 43/79/74
f 2/38/36 54/17/14 88/137/70
f 88/137/70 93/73/69 2/38/36
f 43/79/74 36/63/60 46/83/78
f 64/6/30 87/8/102 1/86/82
f 1/86/82 86/138/99 60/24/21
f 60/24/21 61/85/81 1/86/82
f 8/37/35 56/139/95 54/17/14
f 52/87/83 51/91/85 49/88/58
f 51/91/85 47/95/89 49/88/105
f 71/99/72 80/106/94 78/92/86
f 78/92/86 74/97/91 71/99/72
f 67/72/68 3/121/100 24/96/90
f 24/96/90 28/68/65 77/100/93
f 28/68/65 32/140/103 77/100/93
f 32/140/103 16/45/42 11/47/44
f 11/47/44 77/100/93 32/140/103
f 65/5/77 66/82/31 63/80/75
f 66/33/31 64/6/30 61/85/81
f 68/31/28 34/56/53 55/90/84
f 34/56/53 38/55/52 47/141/89
f 55/90/84 34/56/53 51/91/85
f 47/141/89 51/91/85 34/56/53
f 44/65/62 59/23/20 57/22/19
f 85/103/18 94/25/22 30/104/13
f 33/15/12 31/14/11 12/48/45
f 10/42/39 78/92/86 80/106/94
f 74/97/91 35/60/57 41/59/56
f 22/4/8 12/48/45 31/108/11
f 6/30/27 5/32/106 8/109/35
f 5/32/106 55/142/84 8/109/35
f 55/142/84 56/139/95 8/109/35
f 84/112/96 26/20/17 23/28/25
f 92/114/98 90/94/88 46/83/78
f 46/83/78 36/63/60 57/22/19
f 57/22/19 60/24/21 89/143/107
f 60/24/21 86/138/99 89/143/107
f 92/114/98 46/83/78 57/22/19
f 57/22/19 89/143/107 91/113/97
f 15/144/49 13/145/37 18/129/50
f 13/145/37 80/106/94 17/46/43
f 18/129/50 13/145/37 17/46/43
f 80/106/94 71/77/72 79/70/66
f 71/77/72 70/71/67 79/70/66
f 75/116/92 41/146/56 76/115/54
f 41/146/56 42/147/63 39/131/64
f 76/115/54 41/146/56 37/54/51
f 39/131/64 37/54/51 41/146/56
f 76/115/54 73/78/73 71/77/72
f 83/119/71 82/148/6 86/117/99
f 82/148/6 90/94/88 89/149/107
f 86/117/99 82/148/6 89/149/107
f 90/94/88 92/114/98 89/149/107
f 67/72/68 69/44/41 4/34/33
f 18/53/50 16/150/42 20/50/47
f 16/150/42 32/134/103 20/50/47
f 32/134/103 33/15/12 20/50/47
