# Blender v2.90.1 OBJ File: 'GT_Basic_Blocks_3.blend'
# www.blender.org
v 0.056626 1.656479 1.575958
v 0.574635 1.656496 1.361325
v 1.019718 1.656564 1.019718
v 1.365345 1.024848 1.365345
v 1.361325 1.656496 0.574635
v 1.575958 1.656479 0.056626
v -0.450000 -0.500000 2.442986
v -0.450292 -0.450421 2.486929
v -0.500000 -0.450000 2.442986
v -0.448830 -0.492611 2.466661
v -0.474541 -0.492581 2.442986
v -0.473357 -0.486970 2.467544
v -0.474741 -0.449019 2.482445
v -0.448936 -0.474804 2.482444
v -0.473450 -0.473491 2.479725
v -0.492581 -0.474541 2.442986
v -0.492594 -0.448868 2.466662
v -0.486954 -0.473379 2.467543
v -0.450368 2.490529 -0.450404
v -0.450000 2.442986 -0.500000
v -0.500000 2.442986 -0.450000
v -0.449075 2.484309 -0.474761
v -0.474743 2.484310 -0.449098
v -0.473480 2.480773 -0.473491
v -0.474541 2.442986 -0.492581
v -0.448942 2.467188 -0.492624
v -0.473405 2.467952 -0.486983
v -0.492620 2.467188 -0.448953
v -0.492581 2.442986 -0.474541
v -0.486979 2.467952 -0.473411
v 2.442986 -0.500000 -0.450000
v 2.442986 -0.450000 -0.500000
v 2.486929 -0.450421 -0.450292
v 2.445377 -0.493243 -0.474914
v 2.467319 -0.493453 -0.450093
v 2.468530 -0.486887 -0.473949
v 2.467319 -0.450133 -0.493413
v 2.445377 -0.474890 -0.493267
v 2.468530 -0.473966 -0.486870
v 2.483449 -0.475255 -0.450200
v 2.483449 -0.450287 -0.475167
v 2.479885 -0.474075 -0.474025
v 0.268999 2.391251 -0.475130
v 2.387950 0.274708 -0.475147
v -0.475148 0.274708 2.387950
v -0.475130 2.391251 0.268999
v -0.450000 -0.500000 1.550000
v -0.474967 -0.493320 1.550000
v -0.473911 -0.486832 1.526089
v -0.493320 -0.474967 1.550000
v -0.486832 -0.473911 1.526089
v 1.550000 -0.500000 -0.450000
v 1.550000 -0.493320 -0.474967
v 1.526089 -0.486832 -0.473911
v 1.550000 -0.474967 -0.493320
v 1.526089 -0.473911 -0.486832
v -0.486832 1.526089 -0.473911
v -0.473911 1.526089 -0.486832
v 0.986951 -0.493359 2.075475
v 2.075475 -0.493359 0.986951
v -0.493327 2.076239 0.986290
v -0.493342 0.987392 2.075328
v -0.475152 0.996622 2.088826
v 0.986290 2.076239 -0.493327
v 2.088826 0.996622 -0.475152
v 2.075328 0.987392 -0.493342
v -0.395367 1.653109 1.645456
v -0.420924 1.648201 1.644495
v 0.174286 1.070266 2.014988
v 0.298529 2.100984 0.850743
v 0.823887 1.035370 1.759006
v 1.644718 -0.419946 1.644718
v 0.850740 2.100981 0.298529
v 1.759324 1.035477 0.824129
v 2.014988 1.070266 0.174286
v 1.645456 1.653109 -0.395367
v 1.644495 1.648201 -0.420924
v 1.039945 -0.406580 2.106555
v 1.050207 -0.418411 2.100646
v 2.106873 -0.406472 1.040187
v 2.100964 -0.418303 1.050449
v -0.384381 2.100872 1.059780
v -0.409933 2.110960 1.039871
v -0.421297 2.103939 1.050926
v -0.400647 1.046105 2.103801
v -0.412678 1.055734 2.098058
v 1.059777 2.100868 -0.384381
v 1.050924 2.103935 -0.421297
v 1.039868 2.110957 -0.409933
v 2.098058 1.055734 -0.412678
v 2.103801 1.046105 -0.400646
vt 0.876286 0.799844
vt 0.779719 0.877366
vt 0.000000 0.000000
vt 0.311308 0.961757
vt 0.313024 0.961757
vt 0.312980 0.897624
vt 0.000000 0.000000
vt 0.000000 0.000000
vt 0.000000 0.000000
vt 0.891330 0.765347
vt 0.874531 0.876442
vt 0.874139 0.950985
vt 0.825368 0.954140
vt 0.000000 0.000000
vt 0.000000 0.000000
vt 0.000000 0.000000
vt 0.000000 0.000000
vt 0.000000 0.000000
vt 0.314339 0.859944
vt 0.000000 0.000000
vt 0.000000 0.000000
vt 0.000000 0.000000
vt 0.000000 0.000000
vt 0.156016 0.788239
vt 0.000000 0.000000
vt 0.334325 0.859944
vt 0.000000 0.000000
vt 0.000000 0.000000
vt 0.890752 0.983915
vt 0.776523 0.903119
vt 0.171416 0.757658
vt 0.913179 0.884044
vt 0.156016 0.929035
vt 0.295908 0.929035
vt 0.871116 0.951882
vt 0.155931 0.876168
vt 0.157753 0.928191
vt 0.157663 0.926487
vt 0.155929 0.860590
vt 0.154657 0.859944
vt 0.157763 0.757669
vt 0.000000 0.000000
vt 0.157668 0.759375
vt 0.313068 0.759384
vt 0.313067 0.810095
vt 0.311328 0.759375
vt 0.824123 0.913054
vt 0.825357 0.949687
vt 0.155958 0.926396
vt 0.154707 0.926386
vt 0.360208 0.929485
vt 0.361828 0.929038
vt 0.361828 0.928134
vt 0.258197 0.756371
vt 0.157770 0.756424
vt 0.825382 0.835976
vt 0.824908 0.873899
vt 0.154709 0.759483
vt 0.155958 0.759473
vt 0.155929 0.810095
vt 0.000000 0.000000
vt 0.295908 0.928131
vt 0.157688 0.786567
vt 0.779622 0.872786
vt 0.781538 0.871293
vt 0.777483 0.844351
vt 0.154658 0.786567
vt 0.154710 0.724106
vt 0.108955 0.759404
vt 0.154710 0.961757
vt 0.155102 0.963503
vt 0.156051 0.963503
vt 0.314344 0.759395
vt 0.778799 0.919532
vt 0.778817 0.878088
vt 0.780715 0.919900
vt 0.892244 0.981999
vt 0.779484 0.768779
vt 0.829121 0.766708
vt 0.827497 0.798843
vt 0.334335 0.825950
vt 0.933678 0.764464
vt 0.258197 0.749812
vt 0.157770 0.722450
vt 0.155972 0.724106
vt 0.157688 0.724106
vt 0.156055 0.756818
vt 0.156048 0.757761
vt 0.155104 0.757769
vt 0.108955 0.757688
vt 0.107299 0.759483
vt 0.156046 0.928102
vt 0.156051 0.929046
vt 0.155972 0.961757
vt 0.157762 0.963450
vt 0.157688 0.961757
vt 0.311234 0.963450
vt 0.155102 0.928096
vt 0.360208 0.928201
vt 0.361743 0.926465
vt 0.360041 0.926459
vt 0.155112 0.788239
vt 0.361743 0.759395
vt 0.360208 0.757663
vt 0.360041 0.759404
vt 0.313887 0.757728
vt 0.312988 0.757720
vt 0.311322 0.757638
vt 0.312983 0.756824
vt 0.824985 0.955250
vt 0.155942 0.786567
vt 0.297580 0.757658
vt 0.866574 0.801472
vt 0.866748 0.800330
vt 0.891580 0.951882
vt 0.258151 0.936104
vt 0.933662 0.919532
vt 0.876657 0.874800
vt 0.297580 0.928205
vt 0.297580 0.929489
vt 0.210799 0.756371
vt 0.313067 0.860590
vt 0.156016 0.897624
vt 0.157762 0.929440
vt 0.826139 0.982377
vt 0.902630 0.779592
vt 0.903907 0.781068
vt 0.778770 0.871957
vt 0.891580 0.984767
vt 0.297580 0.926459
vt 0.000000 0.000000
vt 0.965455 0.878088
vt 0.134671 0.859944
vt 0.892100 0.764460
vt 0.776637 0.977847
vt 0.314286 0.961757
vt 0.313884 0.897624
vt 0.156055 0.722388
vt 0.107237 0.757769
vt 0.312945 0.963503
vt 0.155104 0.722388
vt 0.361828 0.757728
vt 0.311314 0.756365
vt 0.335269 0.860590
vt 0.778799 0.829876
vt 0.780715 0.829804
vt 0.933734 0.982822
vt 0.933662 0.984739
vt 0.845777 0.991256
vt 0.829035 0.919532
vt 0.210845 0.936104
vn 0.1304 0.3316 0.9344
vn -0.9572 -0.0062 -0.2894
vn -0.9859 0.1610 0.0457
vn 0.3656 0.2695 0.8909
vn 0.9374 0.2177 0.2717
vn 0.0457 0.1610 -0.9859
vn 0.1626 0.0461 -0.9856
vn 0.1019 0.9376 0.3323
vn 0.1401 0.9802 0.1401
vn -0.5773 -0.5774 -0.5773
vn 0.0062 0.0062 -1.0000
vn -1.0000 0.0062 0.0062
vn -0.9856 0.0461 0.1626
vn 0.3323 0.9376 0.1019
vn -0.9280 -0.2635 -0.2635
vn -0.9998 -0.0139 -0.0170
vn 0.2719 0.2175 0.9374
vn 0.8911 0.2695 0.3650
vn -0.5773 -0.5774 -0.5774
vn -0.5774 -0.5774 -0.5774
vn -0.5774 -0.5773 -0.5774
vn -0.3673 0.7930 0.4860
vn -0.5352 0.7803 0.3236
vn -0.8747 0.4262 0.2309
vn -0.0158 0.8775 -0.4794
vn -0.1119 0.9874 -0.1120
vn 0.0989 0.7175 -0.6895
vn 0.0062 0.0063 -1.0000
vn 0.2309 0.4262 -0.8747
vn 0.5994 0.3774 -0.7059
vn -0.5969 0.4561 0.6600
vn -0.7059 0.3774 0.5994
vn -0.4686 0.3353 0.8173
vn 0.0572 -0.4296 0.9012
vn 0.4246 0.0000 0.9054
vn 0.0410 -0.0157 0.9990
vn 0.9109 -0.0172 -0.4123
vn 0.9734 0.1410 0.1803
vn 0.9985 -0.0041 0.0542
vn 0.4090 0.8715 0.2705
vn 0.6174 0.7007 0.3575
vn 0.6809 0.7077 0.1885
vn -0.4791 0.8776 -0.0158
vn -0.8564 0.5129 -0.0599
vn -0.6892 0.7177 0.0989
vn 0.1269 -0.4867 -0.8643
vn 0.4856 -0.4200 -0.7667
vn 0.4850 -0.7668 -0.4204
vn 0.2079 -0.8500 0.4840
vn -0.0191 -0.8402 0.5420
vn 0.3576 0.7006 0.6175
vn 0.4702 0.4973 0.7291
vn 0.5012 0.7054 0.5013
vn -0.8448 -0.0557 0.5322
vn -0.4336 -0.0016 0.9011
vn 0.1805 0.1409 0.9734
vn -0.2645 0.5216 0.8112
vn -0.4522 -0.8563 -0.2494
vn -0.2494 -0.8563 -0.4522
vn -0.1622 -0.9819 -0.0976
vn -0.1028 0.9103 0.4009
vn 0.0513 0.8624 0.5036
vn 0.2705 0.8715 0.4090
vn -0.8939 -0.4432 -0.0677
vn -0.8593 -0.4977 0.1178
vn -0.9739 -0.1473 0.1727
vn -0.8116 0.1518 -0.5642
vn -0.7894 0.4517 -0.4156
vn -0.4156 0.4516 -0.7895
vn 0.5209 -0.0605 -0.8515
vn -0.5774 0.5737 0.5809
vn -0.0306 0.7071 0.7065
vn 0.5036 0.8624 0.0513
vn 0.4009 0.9103 -0.1028
vn 0.1885 0.7077 0.6809
vn 0.4826 -0.8509 0.2076
vn 0.3182 -0.8930 0.3182
vn -0.4976 -0.8594 0.1175
vn -0.1218 -0.9792 0.1622
vn -0.4088 -0.7841 0.4669
vn -0.3832 -0.3834 0.8403
vn -0.7839 -0.4089 0.4672
vn -0.4089 0.8158 -0.4090
vn -0.4982 0.1118 -0.8598
vn -0.0599 0.5126 -0.8565
vn -0.1490 0.1656 -0.9749
vn -0.9999 -0.0073 -0.0073
vn -0.9494 0.2943 -0.1097
vn 0.1266 -0.8641 -0.4872
vn 0.5314 -0.8467 -0.0258
vn 0.1362 -0.9853 -0.1033
vn -0.6901 -0.6901 -0.2178
vn 0.1444 -0.1241 -0.9817
vn 0.8391 -0.3847 -0.3847
vn 0.9111 -0.4102 0.0397
vn 0.9052 0.0003 0.4249
vn 0.8259 -0.2760 0.4916
vn 0.7289 0.4975 0.4703
vn 0.8102 0.5528 0.1949
vn -0.4900 -0.8630 -0.1232
vn -0.0933 -0.4074 -0.9085
vn 0.8957 0.4444 0.0171
vn 0.9395 0.3422 0.0175
vn 0.2105 0.6067 0.7666
vn 0.8112 0.5216 -0.2645
vn 0.4860 0.7930 -0.3673
vn 0.3236 0.7803 -0.5352
vn 0.5809 0.5737 -0.5774
vn 0.6344 0.4412 0.6348
vn -0.1236 -0.8629 -0.4899
vn -1.0000 0.0063 0.0062
vn 0.6600 0.4561 -0.5969
vn -0.3177 -0.0114 -0.9481
vn 0.7065 0.7071 -0.0306
vn -0.0978 -0.9819 -0.1621
vn 0.2050 0.9571 0.2050
vn -0.0281 0.4859 0.8736
vn 0.4914 -0.2750 0.8264
vn -0.2517 -0.4572 -0.8530
vn -0.7071 -0.0049 -0.7071
vn 0.6821 0.2625 0.6825
s off
f 69/1/1 85/2/1 45/3/1
f 21/4/2 29/5/2 57/6/2
f 46/7/3 21/8/3 61/9/3
f 69/1/4 78/10/4 71/11/4
f 75/12/5 80/13/5 44/14/5
f 64/15/6 20/16/6 43/17/6
f 32/18/7 66/19/7 44/14/7
f 46/7/8 83/20/8 70/21/8
f 43/17/9 19/22/9 46/7/9
f 54/23/10 49/24/10 51/25/10
f 32/18/11 20/16/11 66/26/11
f 21/8/12 9/27/12 62/28/12
f 62/28/13 9/27/13 45/3/13
f 89/29/14 43/17/14 73/30/14
f 51/25/15 50/31/15 57/6/15
f 50/31/16 21/4/16 57/6/16
f 69/1/17 45/3/17 78/10/17
f 75/12/18 74/32/18 80/13/18
f 51/25/19 57/6/19 58/33/19
f 58/33/20 56/34/20 51/25/20
f 56/34/21 54/23/21 51/25/21
s 1
f 84/35/22 46/36/23 61/9/24
f 22/37/25 19/38/26 43/17/27
f 20/16/28 64/15/29 66/26/30
f 63/39/31 62/40/32 45/3/33
f 14/41/34 78/42/35 8/43/36
f 41/44/37 44/45/38 33/46/39
f 73/30/40 5/47/41 6/48/42
f 23/49/43 28/50/44 46/36/45
f 38/51/46 39/52/47 36/53/48
f 59/54/49 14/41/34 10/55/50
f 2/56/51 71/11/52 3/57/53
f 17/58/54 13/59/55 45/60/56
f 86/61/57 63/39/31 45/60/33
f 19/38/26 23/49/43 46/36/45
f 49/24/58 54/62/59 47/63/60
f 83/64/61 82/65/62 70/66/63
f 83/20/61 46/7/23 84/35/22
f 50/67/64 16/68/65 9/69/66
f 3/57/53 5/47/41 73/30/40
f 29/70/67 30/71/68 27/72/69
f 41/44/37 37/73/70 44/45/38
f 68/74/71 86/75/57 67/76/72
f 87/77/73 89/29/74 73/30/40
f 82/78/62 67/79/72 1/80/75
f 60/81/76 72/82/77 59/83/49
f 10/84/50 11/85/78 7/86/79
f 14/41/34 12/87/80 10/55/50
f 8/43/36 15/88/81 14/41/34
f 13/59/55 18/89/82 15/88/81
f 16/90/65 17/91/54 9/69/66
f 12/87/80 15/88/81 18/89/82
f 19/38/26 24/92/83 23/49/43
f 22/37/25 27/93/69 24/92/83
f 25/94/84 26/95/85 20/96/86
f 21/4/87 50/31/64 9/27/66
f 28/97/44 29/5/67 21/4/88
f 23/49/43 30/98/68 28/50/44
f 24/92/83 27/93/69 30/98/68
f 34/99/89 35/100/90 31/101/91
f 50/67/64 51/102/92 49/24/58
f 37/103/70 38/104/46 32/105/93
f 41/44/37 39/106/47 37/73/70
f 33/46/39 42/107/94 41/44/37
f 40/108/95 36/109/48 42/107/94
f 36/109/48 39/106/47 42/107/94
f 40/108/95 80/13/96 81/110/97
f 74/32/98 75/12/99 5/47/41
f 46/36/45 28/50/44 21/4/88
f 47/63/60 11/85/78 48/111/100
f 55/112/101 20/96/86 32/18/93
f 91/113/102 75/12/99 44/14/103
f 69/1/104 67/79/72 86/75/57
f 37/103/70 32/105/93 44/14/38
f 90/114/105 91/113/102 44/14/103
f 88/115/106 64/116/29 43/17/107
f 66/26/30 64/116/29 77/117/108
f 9/69/66 17/91/54 45/60/56
f 4/118/109 71/11/52 78/10/35
f 59/83/49 10/84/50 7/86/79
f 31/101/91 53/119/110 34/99/89
f 20/96/86 26/95/85 43/17/27
f 61/9/24 21/8/111 62/28/32
f 45/60/56 13/59/55 8/43/36
f 38/51/46 55/120/101 32/18/93
f 60/121/76 40/108/95 81/110/97
f 66/19/30 65/122/112 44/14/103
f 58/123/113 25/94/84 20/96/86
f 26/124/85 22/37/25 43/17/27
f 76/125/114 6/48/42 75/12/99
f 77/126/108 76/127/114 90/114/105
f 78/10/35 45/3/56 8/43/36
f 33/46/39 44/14/38 80/13/96
f 82/65/62 83/64/61 84/128/22
f 88/129/106 43/17/107 89/29/74
f 31/101/91 47/63/60 52/130/115
f 73/30/40 46/7/116 70/21/63
f 65/131/112 90/132/105 44/14/103
f 88/129/106 89/29/74 87/77/73
f 85/2/117 86/75/57 45/60/33
f 80/13/96 74/32/98 4/118/109
f 62/133/32 63/39/31 86/61/57
f 14/41/34 79/134/118 78/42/35
f 76/125/114 87/135/73 6/48/42
f 87/135/73 73/30/40 6/48/42
f 36/53/48 34/99/89 38/51/46
f 34/99/89 53/119/110 38/51/46
f 53/119/110 54/62/59 55/120/101
f 54/62/59 56/34/119 55/120/101
f 55/120/101 38/51/46 53/119/110
f 59/54/49 79/134/118 14/41/34
f 2/56/51 1/80/75 69/1/104
f 69/1/104 71/11/52 2/56/51
f 71/11/52 4/118/109 3/57/53
f 53/119/110 52/130/115 54/62/59
f 52/130/115 47/63/60 54/62/59
f 47/63/60 48/111/100 49/24/58
f 73/30/40 70/66/63 3/57/53
f 70/66/63 2/56/51 3/57/53
f 27/72/69 25/136/84 29/70/67
f 25/136/84 58/137/113 29/70/67
f 58/137/113 57/6/120 29/70/67
f 2/56/51 70/66/63 1/80/75
f 70/66/63 82/78/62 1/80/75
f 81/110/97 72/82/77 60/81/76
f 72/82/77 79/134/118 59/83/49
f 10/84/50 12/138/80 11/85/78
f 14/41/34 15/88/81 12/87/80
f 8/43/36 13/59/55 15/88/81
f 13/59/55 17/58/54 18/89/82
f 16/90/65 18/139/82 17/91/54
f 19/38/26 22/37/25 24/92/83
f 22/37/25 26/124/85 27/93/69
f 25/94/84 27/72/69 26/95/85
f 28/97/44 30/140/68 29/5/67
f 23/49/43 24/92/83 30/98/68
f 34/99/89 36/53/48 35/100/90
f 49/24/58 48/111/100 50/67/64
f 48/111/100 11/85/78 50/67/64
f 11/85/78 12/138/80 16/68/65
f 12/138/80 18/141/82 16/68/65
f 16/68/65 50/67/64 11/85/78
f 37/103/70 39/142/47 38/104/46
f 41/44/37 42/107/94 39/106/47
f 33/46/39 40/108/95 42/107/94
f 40/108/95 35/143/90 36/109/48
f 40/108/95 33/46/39 80/13/96
f 75/12/99 6/48/42 5/47/41
f 5/47/41 3/57/53 74/32/98
f 3/57/53 4/118/109 74/32/98
f 47/63/60 7/86/79 11/85/78
f 86/75/57 85/2/117 69/1/104
f 69/1/104 1/80/75 67/79/72
f 88/115/106 77/117/108 64/116/29
f 77/117/108 90/132/105 66/26/30
f 90/132/105 65/144/112 66/26/30
f 79/134/118 72/82/121 78/10/35
f 72/82/121 4/118/109 78/10/35
f 7/86/79 31/101/91 59/83/49
f 31/101/91 35/100/90 60/81/76
f 59/83/49 31/101/91 60/81/76
f 31/101/91 52/130/115 53/119/110
f 60/121/76 35/143/90 40/108/95
f 20/96/86 55/112/101 58/123/113
f 55/112/101 56/34/119 58/123/113
f 91/113/102 90/114/105 75/12/99
f 90/114/105 76/125/114 75/12/99
f 84/128/22 68/145/71 82/65/62
f 68/145/71 67/146/72 82/65/62
f 31/101/91 7/86/79 47/63/60
f 73/30/40 43/17/116 46/7/116
f 76/147/114 77/148/108 87/77/73
f 77/148/108 88/129/106 87/77/73
f 4/118/109 72/149/121 80/13/96
f 72/149/121 81/110/97 80/13/96
f 86/61/57 68/150/71 62/133/32
f 68/150/71 84/35/22 61/151/24
f 62/133/32 68/150/71 61/151/24
