# Blender v2.90.1 OBJ File: 'GT_Basic_Blocks_3.blend'
# www.blender.org
v 2.964102 0.499998 1.232049
v 3.363703 0.232048 0.232049
v 2.964102 0.914211 0.914212
v 2.964102 1.232048 0.499999
v 3.363703 -0.450176 0.528714
v 3.363703 0.528713 -0.450174
v 2.964102 1.493439 -0.450192
v 2.942264 1.486511 -0.493327
v 2.958250 1.493340 -0.475096
v 1.474785 2.920423 -0.500000
v 1.487392 2.941383 -0.493333
v 1.474782 -0.500001 2.920426
v 1.487389 -0.493334 2.941386
v 2.323646 -0.475108 2.320372
v 2.964098 -0.450192 1.493442
v 2.958247 -0.475096 1.493343
v 2.942261 -0.493327 1.486514
v 3.442982 -0.500000 -0.450000
v 3.442982 -0.450000 -0.500000
v 3.490751 -0.450360 -0.450315
v 3.442982 -0.492581 -0.474541
v 3.467216 -0.492619 -0.448929
v 3.467973 -0.486979 -0.473397
v 3.467215 -0.448943 -0.492613
v 3.442982 -0.474541 -0.492581
v 3.467972 -0.473405 -0.486973
v 3.484420 -0.474737 -0.449043
v 3.484420 -0.449072 -0.474715
v 3.480833 -0.473476 -0.473462
v 2.526086 -0.473910 -0.486831
v 2.526086 -0.486832 -0.473910
v 1.525029 -0.493322 0.550003
v 1.526085 -0.486833 0.526092
v 1.513164 -0.473912 0.526092
v 1.513168 0.526088 -0.473911
v 1.525033 0.549999 -0.493320
v 1.526089 0.526088 -0.486832
v 1.524768 1.253765 2.537613
v 1.524768 1.980199 1.980201
v 1.524768 2.537612 1.253767
v 1.472876 0.413488 2.909191
v 1.484525 0.851317 2.722984
v 1.472876 2.909190 0.413490
v 1.484523 2.722983 0.851318
v 1.461825 3.020526 -0.394571
v 1.493319 3.002006 -0.408555
v 1.482465 3.008041 -0.420198
v 1.461821 -0.394572 3.020530
v 1.482461 -0.420198 3.008044
v 1.493316 -0.408554 3.002009
vt 0.000000 0.000000
vt 0.000000 0.000000
vt 0.000000 0.000000
vt 0.147037 0.864255
vt 0.207735 0.925910
vt 0.208022 0.925240
vt 0.196619 0.875667
vt 0.225214 0.847072
vt 0.238537 0.864435
vt 0.168022 0.822793
vt 0.892050 0.974446
vt 0.891052 0.944998
vt 0.167001 0.946229
vt 0.168075 0.947244
vt 0.168030 0.946229
vt 0.249489 0.925910
vt 0.168075 0.906043
vt 0.168070 0.905293
vt 0.289151 0.947244
vt 0.290224 0.946229
vt 0.289195 0.946229
vt 0.166994 0.904218
vt 0.166480 0.905238
vt 0.166243 0.904212
vt 0.168016 0.904272
vt 0.167046 0.905241
vt 0.167049 0.905807
vt 0.891075 0.801581
vt 0.000000 0.000000
vt 0.249494 0.904265
vt 0.247278 0.865833
vt 0.248280 0.865336
vt 0.000000 0.000000
vt 0.207851 0.833750
vt 0.892389 0.908001
vt 0.209947 0.865833
vt 0.208945 0.865336
vt 0.208945 0.865877
vt 0.890620 0.974167
vt 0.209055 0.904264
vt 0.249489 0.905309
vt 0.249203 0.925240
vt 0.000000 0.000000
vt 0.166978 0.822797
vt 0.000000 0.000000
vt 0.284156 0.905309
vt 0.168022 0.863232
vt 0.167027 0.863342
vt 0.000000 0.000000
vt 0.290739 0.907795
vt 0.892158 0.772011
vt 0.890722 0.772288
vt 0.891770 0.771527
vt 0.892318 0.838719
vt 0.890945 0.820639
vt 0.147916 0.863727
vt 0.891663 0.974927
vt 0.290197 0.907795
vt 0.166245 0.946229
vt 0.166480 0.947276
vt 0.290980 0.946229
vt 0.890965 0.926019
vt 0.000000 0.000000
vt 0.000000 0.000000
vt 0.000000 0.000000
vt 0.167049 0.947276
vt 0.290176 0.947276
vt 0.248280 0.865877
vt 0.891945 0.873428
vt 0.310188 0.864255
vt 0.000000 0.000000
vt 0.167027 0.907795
vn -0.9992 0.0110 -0.0383
vn -0.9987 0.0360 0.0360
vn -0.9987 -0.0032 -0.0503
vn 0.4763 0.4783 -0.7379
vn 0.7566 0.4816 -0.4423
vn 0.3849 0.2314 -0.8935
vn 0.9634 0.1896 0.1896
vn 0.8309 0.3935 0.3935
vn 0.8315 0.2506 0.4958
vn 0.8355 0.5487 -0.0288
vn 0.6430 0.7630 -0.0663
vn 0.7147 0.6779 0.1722
vn 0.1118 -0.8598 -0.4982
vn 0.5222 -0.8525 -0.0247
vn 0.1551 -0.9803 -0.1227
vn 0.7825 -0.4504 0.4300
vn 0.8782 -0.4783 0.0049
vn 0.5225 -0.0247 -0.8523
vn 0.1118 -0.4982 -0.8598
vn 0.1552 -0.1226 -0.9802
vn 0.8783 0.0049 -0.4780
vn 0.4512 -0.4159 -0.7896
vn 0.9963 -0.0608 -0.0607
vn 0.8145 -0.4102 -0.4102
vn 0.4511 -0.7897 -0.4158
vn 0.7147 0.1722 0.6779
vn 0.6117 -0.0241 0.7907
vn 0.8509 -0.0323 0.5243
vn -0.4774 -0.0696 -0.8759
vn -0.8743 -0.2635 -0.4076
vn -0.9987 -0.0502 -0.0032
vn 0.8315 0.4958 0.2506
vn 0.7200 0.6086 0.3336
vn -0.4774 -0.8759 -0.0696
vn -0.8743 -0.4076 -0.2635
vn -0.5102 -0.7752 -0.3726
vn 0.5323 0.8424 0.0832
vn 0.1690 -0.9846 0.0456
vn 0.3883 -0.9006 0.1953
vn 0.7094 -0.4478 0.5443
vn 0.9575 0.2719 0.0960
vn -0.2321 -0.8670 -0.4410
vn 0.5323 0.0832 0.8424
vn 0.5462 -0.2299 0.8055
vn 0.7200 0.3336 0.6086
vn 0.4064 0.3484 0.8447
vn -0.5885 0.5720 -0.5714
vn -0.4389 0.6258 -0.6448
vn -0.6298 0.5525 -0.5460
vn -0.2321 -0.4410 -0.8670
vn -0.5884 -0.5714 0.5720
vn -0.4389 -0.6448 0.6258
vn -0.4262 -0.6499 0.6293
vn -0.9249 0.3016 0.2314
vn -0.9992 -0.0383 0.0110
vn -0.9249 0.2314 0.3015
vn 0.4064 0.8447 0.3484
vn -0.9974 -0.0717 -0.0030
vn -0.9922 -0.1247 -0.0036
vn -0.9922 -0.0036 -0.1247
vn -0.9974 -0.0030 -0.0717
vn 0.5947 0.7682 -0.2372
vn 0.9575 0.0960 0.2719
vn -0.5102 -0.3726 -0.7752
vn 0.7233 0.4883 0.4883
vn 0.5192 -0.5220 0.6768
vn 0.4999 -0.5648 0.6566
vn 0.1807 -0.9668 0.1807
vn 0.0841 -0.9929 0.0841
vn 0.1351 -0.9818 0.1337
vn 0.2689 0.9337 0.2364
vn 0.1689 0.0456 -0.9846
vn -0.4262 0.6293 -0.6499
vn 0.1351 0.1337 -0.9818
vn -0.6298 -0.5460 0.5525
s 1
f 42/1/1 39/2/2 12/3/3
f 11/4/4 9/5/5 8/6/6
f 2/7/7 3/8/8 1/9/9
f 7/10/10 46/11/11 43/12/12
f 21/13/13 22/14/14 18/15/15
f 16/16/16 22/17/14 27/18/17
f 24/19/18 25/20/19 19/21/20
f 28/22/21 26/23/22 24/24/18
f 20/25/23 29/26/24 28/22/21
f 27/18/17 23/27/25 29/26/24
f 23/27/25 26/23/22 29/26/24
f 41/28/26 50/29/27 15/30/28
f 36/31/29 35/32/30 10/33/31
f 3/8/8 4/34/32 40/35/33
f 32/36/34 34/37/35 33/38/36
f 46/11/11 45/39/37 43/12/12
f 5/40/38 16/41/38 27/18/38
f 17/42/39 16/16/16 14/43/40
f 32/36/34 18/15/15 17/42/39
f 24/24/18 9/5/5 28/22/21
f 9/44/5 46/45/11 7/10/10
f 14/46/40 16/41/16 15/30/28
f 6/47/41 7/10/10 4/34/32
f 34/37/35 10/33/31 35/48/30
f 32/36/34 33/49/36 31/50/42
f 50/51/27 48/52/43 49/53/44
f 38/54/45 42/55/46 41/28/26
f 2/7/7 20/25/23 6/47/41
f 9/44/5 7/10/10 6/47/41
f 10/56/47 47/57/48 11/4/49
f 19/21/20 30/58/50 36/31/29
f 36/31/29 8/6/6 19/21/20
f 25/59/19 26/60/22 21/61/13
f 12/3/51 49/53/52 48/52/53
f 30/58/50 33/49/36 35/32/30
f 40/35/54 44/62/55 39/2/2
f 39/2/2 42/1/1 38/54/56
f 44/62/57 40/35/33 43/12/12
f 39/2/2 44/63/55 10/33/31
f 44/63/55 43/64/58 10/33/31
f 43/64/58 45/65/59 10/33/31
f 10/33/31 12/3/3 39/2/2
f 12/3/3 48/52/60 41/28/61
f 42/1/1 12/3/3 41/28/61
f 11/4/4 47/57/62 9/5/5
f 15/30/28 5/40/63 1/9/9
f 5/40/63 2/7/7 1/9/9
f 43/12/12 40/35/33 4/34/32
f 4/34/32 7/10/10 43/12/12
f 21/13/13 23/66/25 22/14/14
f 16/16/16 17/42/39 22/17/14
f 24/19/18 26/67/22 25/20/19
f 28/22/21 29/26/24 26/23/22
f 20/25/23 27/18/17 29/26/24
f 27/18/17 22/17/14 23/27/25
f 15/30/28 1/9/9 41/28/26
f 1/9/9 38/54/45 41/28/26
f 36/31/29 37/68/64 35/32/30
f 40/35/33 39/69/65 3/8/8
f 39/69/65 38/54/45 3/8/8
f 38/54/45 1/9/9 3/8/8
f 32/36/34 12/3/3 34/37/35
f 46/11/11 47/57/62 45/39/37
f 27/18/17 20/25/23 5/40/63
f 5/40/63 15/30/28 16/41/16
f 14/43/66 49/53/44 13/70/67
f 13/70/68 17/42/39 14/43/69
f 22/14/14 17/42/39 18/15/15
f 17/42/39 13/70/68 12/3/70
f 32/36/34 17/42/39 12/3/70
f 24/24/18 8/6/6 9/5/5
f 9/44/5 47/57/62 46/45/11
f 15/30/71 50/51/71 14/46/71
f 50/51/27 49/53/44 14/46/66
f 3/8/8 2/7/7 4/34/32
f 2/7/7 6/47/41 4/34/32
f 34/37/35 12/3/3 10/33/31
f 21/13/13 18/15/15 31/50/42
f 18/15/15 32/36/34 31/50/42
f 50/51/27 41/28/26 48/52/43
f 2/7/7 5/40/63 20/25/23
f 20/25/23 28/22/21 6/47/41
f 28/22/72 9/44/72 6/47/72
f 10/56/47 45/39/73 47/57/48
f 25/20/19 30/58/50 19/21/20
f 30/58/50 37/68/64 36/31/29
f 36/31/29 10/56/74 8/6/6
f 10/56/74 11/4/4 8/6/6
f 8/6/6 24/19/18 19/21/20
f 23/66/25 21/61/13 26/60/22
f 21/61/13 31/50/42 25/59/19
f 31/50/42 30/58/50 25/59/19
f 12/3/51 13/71/75 49/53/52
f 35/32/30 37/68/64 30/58/50
f 30/58/50 31/72/42 33/49/36
f 33/49/36 34/37/35 35/32/30
