# Blender v2.80 (sub 75) OBJ File: ''
# www.blender.org
mtllib YK_Battery_Large_Collider.mtl
o BF_Block_111.006
v -0.500988 0.424888 -0.325774
v -0.425243 0.500502 -0.325774
v 1.500000 -0.326042 -0.424888
v 1.424255 -0.325976 -0.500568
v -0.500988 -0.326042 2.424890
v -0.425243 -0.325976 2.500570
v -0.326128 0.500502 -0.424888
v -0.326128 0.424822 -0.500568
v -0.500988 0.325774 -0.424888
v -0.425243 0.325708 -0.500568
v 1.500000 0.424888 -0.325774
v 1.424255 0.500502 -0.325774
v 1.500000 -0.425156 -0.325774
v 1.424255 -0.500770 -0.325774
v 1.424255 0.325708 -0.500568
v 1.500000 0.325774 -0.424888
v 1.424255 -0.325976 2.500570
v 1.500000 -0.326042 2.424890
v 1.325140 0.424822 -0.500568
v 1.325140 0.500502 -0.424888
v -0.500988 0.424888 2.325776
v -0.500988 0.325774 2.424890
v -0.425243 0.325708 2.500570
v -0.326128 0.424822 2.500570
v -0.326128 0.500502 2.424890
v -0.425243 0.500502 2.325776
v -0.326128 -0.500770 2.424890
v -0.425243 -0.500770 2.325776
v -0.500988 -0.425156 2.325776
v 1.500000 0.424888 2.325776
v 1.424255 0.500502 2.325776
v 1.325140 0.500502 2.424890
v 1.325140 0.424822 2.500570
v 1.424255 0.325708 2.500570
v 1.500000 0.325774 2.424890
v 1.424255 -0.500770 2.325776
v 1.325140 -0.500770 2.424890
v 1.500000 -0.425156 2.325776
v 1.325140 -0.500770 -0.424888
v -0.500988 -0.326042 -0.424888
v -0.500988 -0.425156 -0.325774
v -0.326128 -0.425090 2.500570
v -0.326128 -0.500770 -0.424888
v -0.326128 -0.425090 -0.500568
v -0.425243 -0.325976 -0.500568
v 1.325140 -0.425090 -0.500568
v 1.325140 -0.425090 2.500570
v -0.425243 -0.500770 -0.325774
v -0.600990 -0.000269 -0.000000
v -0.600888 -0.000134 -0.000135
v -0.600888 -0.000134 0.000135
v 1.599900 -0.000134 -0.000135
v 1.600002 0.000001 0.000000
v 1.599900 -0.000134 0.000135
vt 0.319533 0.182059
vt 0.319533 0.194556
vt 0.335915 0.194556
vt 0.348424 0.182048
vt 0.348424 0.165666
vt 0.335915 0.165677
vt 0.319533 0.182059
vt 0.335915 0.165677
vt 0.348424 0.165666
vt 0.348424 0.182048
vt 0.335915 0.194556
vt 0.319533 0.194556
vt 0.319533 0.182059
vt 0.335915 0.165677
vt 0.348424 0.165666
vt 0.348424 0.182048
vt 0.335915 0.194556
vt 0.319533 0.194556
vt 0.319533 0.182059
vt 0.319533 0.194556
vt 0.335915 0.194556
vt 0.348424 0.182048
vt 0.348424 0.165666
vt 0.335915 0.165677
vt 0.319533 0.182059
vt 0.335915 0.165677
vt 0.348424 0.165666
vt 0.348424 0.182048
vt 0.335915 0.194556
vt 0.319533 0.194556
vt 0.319533 0.182059
vt 0.319533 0.194556
vt 0.335915 0.194556
vt 0.348424 0.182048
vt 0.348424 0.165666
vt 0.335915 0.165677
vt 0.319533 0.182059
vt 0.319533 0.194556
vt 0.335915 0.194556
vt 0.348424 0.182048
vt 0.348424 0.165666
vt 0.335915 0.165677
vt 0.319533 0.182059
vt 0.335915 0.165677
vt 0.348424 0.165666
vt 0.348424 0.182048
vt 0.335915 0.194556
vt 0.319533 0.194556
vt 0.000000 0.000000
vt 0.000000 0.000000
vt 0.000000 0.000000
vt 0.181757 0.218479
vt 0.000000 0.000000
vt 0.000000 0.000000
vt 0.000000 0.000000
vt 0.000000 0.000000
vt 0.000000 0.000000
vt 0.428373 0.304183
vt 0.000000 0.000000
vt 0.160479 0.218479
vt 0.000000 0.000000
vt 0.000000 0.000000
vt 0.000000 0.000000
vt 0.000000 0.000000
vt 0.000000 0.000000
vt 0.000000 0.000000
vt 0.000000 0.000000
vt 0.000000 0.000000
vt 0.000000 0.000000
vt 0.000000 0.000000
vt 0.000000 0.000000
vt 0.000000 0.000000
vt 0.325932 0.197006
vt 0.340907 0.182031
vt 0.000000 0.000000
vt 0.000000 0.000000
vt 0.000000 0.000000
vt 0.000000 0.000000
vt 0.000000 0.000000
vt 0.000000 0.000000
vt 0.428302 0.304254
vt 0.072601 0.183324
vt 0.000000 0.000000
vt 0.057626 0.168350
vt 0.000000 0.000000
vt 0.340907 0.182031
vt 0.428231 0.304183
vt 0.323259 0.185805
vt 0.323259 0.185805
vt 0.323259 0.185805
vt 0.323259 0.172843
vt 0.000000 0.000000
vt 0.000000 0.000000
vt 0.160479 0.218479
vt 0.181757 0.218479
vt 0.000000 0.000000
vt 0.000000 0.000000
vt 0.323259 0.185805
vt 0.323259 0.185805
vt 0.340907 0.182031
vt 0.428302 0.304254
vt 0.000000 0.000000
vt 0.072601 0.183324
vt 0.057626 0.168350
vt 0.000000 0.000000
vt 0.428231 0.304183
vt 0.160479 0.218479
vt 0.181757 0.218479
vt 0.160479 0.218479
vt 0.340907 0.182031
vt 0.325932 0.197006
vt 0.057626 0.168350
vt 0.428373 0.304183
vn -0.5770 0.5775 -0.5775
vn 0.5770 0.5775 -0.5775
vn -0.5770 0.5775 0.5775
vn 0.5770 0.5775 0.5775
vn 0.5770 -0.5775 0.5775
vn -0.5770 -0.5775 0.5775
vn 0.5770 -0.5775 -0.5775
vn -0.5770 -0.5775 -0.5775
vn 0.0000 0.7071 0.7071
vn -0.7065 -0.7077 -0.0000
vn 0.0000 0.0000 1.0000
vn -0.7068 0.0000 0.7074
vn -0.9827 0.1308 -0.1308
vn -0.7065 0.7077 0.0000
vn -0.0000 -1.0000 -0.0000
vn -0.9734 -0.2291 -0.0000
vn 0.9992 0.0000 0.0412
vn 0.7065 -0.7077 -0.0000
vn 0.9735 -0.2288 -0.0000
vn 0.9827 -0.1308 -0.1308
vn 0.0000 0.0000 -1.0000
vn 0.9734 0.2291 0.0000
vn 0.9728 0.2317 0.0010
vn -0.7068 0.0000 -0.7074
vn 0.7065 0.7077 0.0000
vn -0.9987 -0.0354 0.0364
vn 0.0000 0.7071 -0.7071
vn 0.7068 0.0000 0.7074
vn 0.0000 -0.7071 -0.7071
vn 0.7068 0.0000 -0.7074
vn 0.0000 1.0000 -0.0000
vn -0.9992 0.0000 0.0412
vn 0.0000 -0.7071 0.7071
vn -0.9827 -0.1309 -0.1309
vn -0.9728 0.0000 -0.2319
vn -0.9734 0.0000 -0.2291
vn -0.9735 0.2288 0.0000
vn 0.9987 0.0354 0.0364
vn 0.9986 0.0345 0.0396
vn 0.9987 -0.0363 0.0363
vn 0.9734 0.0000 -0.2291
vn 0.9728 -0.0000 -0.2319
vn 0.9827 0.1309 -0.1309
vn 0.9822 0.1329 -0.1329
vn -0.9987 0.0363 0.0363
vn 0.7962 -0.6050 -0.0000
vn 0.9459 -0.3246 -0.0000
vn 0.8378 -0.5460 -0.0000
vn -0.7959 0.6054 0.0000
vn -0.9067 0.4217 0.0000
vn -0.9394 0.3429 0.0000
vn -0.3485 0.7833 0.5148
vn -0.3494 0.7815 0.5168
vn -0.9735 0.2287 0.0000
vn 0.3486 -0.7822 0.5164
vn 0.3477 -0.7839 0.5144
vn 0.9723 -0.2338 0.0000
usemtl Default_OBJ.005
s off
f 1/1/1 2/2/1 7/3/1 8/4/1 10/5/1 9/6/1
f 11/7/2 16/8/2 15/9/2 19/10/2 20/11/2 12/12/2
f 21/13/3 22/14/3 23/15/3 24/16/3 25/17/3 26/18/3
f 30/19/4 31/20/4 32/21/4 33/22/4 34/23/4 35/24/4
f 38/25/5 18/26/5 17/27/5 47/28/5 37/29/5 36/30/5
f 29/31/6 28/32/6 27/33/6 42/34/6 6/35/6 5/36/6
f 13/37/7 14/38/7 39/39/7 46/40/7 4/41/7 3/42/7
f 41/43/8 40/44/8 45/45/8 44/46/8 43/47/8 48/48/8
f 25/17/9 24/16/9 33/22/9 32/21/9
f 29/49/10 41/50/10 48/51/10 28/52/10
f 33/53/11 23/54/11 6/55/11
f 5/36/12 6/35/12 23/15/12 22/14/12
f 33/53/11 42/56/11 47/57/11
f 50/58/13 1/1/13 9/6/13
f 33/22/11 17/59/11 34/23/11
f 2/2/14 1/1/14 21/13/14 26/18/14
f 27/60/15 28/52/15 48/51/15
f 49/61/16 41/50/16 29/49/16
f 27/62/15 43/63/15 39/64/15
f 27/62/15 14/65/15 36/66/15
f 35/67/17 18/68/17 54/69/17
f 36/66/18 14/65/18 13/70/18 38/71/18
f 38/71/19 13/70/19 52/72/19
f 13/73/20 3/74/20 52/72/20
f 46/75/21 45/76/21 10/5/21
f 46/75/21 8/77/21 19/78/21
f 11/79/22 30/80/22 53/81/23
f 46/82/21 15/83/21 4/84/21
f 45/76/24 40/44/24 9/6/24 10/5/24
f 31/85/25 30/19/25 11/7/25 12/12/25
f 29/49/26 5/86/26 51/87/26 49/61/26
f 7/88/27 20/11/27 19/78/27 8/77/27
f 18/26/28 35/67/28 34/23/28 17/59/28
f 46/75/29 39/89/29 43/90/29 44/91/29
f 4/84/30 15/83/30 16/92/30 3/42/30
f 12/93/31 7/94/31 2/95/31
f 51/96/32 5/97/32 22/14/32
f 12/93/31 26/18/31 25/17/31
f 12/12/31 32/21/31 31/20/31
f 27/98/33 37/99/33 47/57/33 42/56/33
f 41/50/34 49/61/34 40/100/34
f 33/22/11 24/16/11 23/15/11
f 49/101/35 9/102/36 40/100/36
f 33/53/11 6/55/11 42/103/11
f 33/53/11 47/57/11 17/104/11
f 1/1/37 51/87/37 21/105/37
f 30/19/38 35/24/38 54/106/38 53/81/39
f 27/60/15 48/51/15 43/107/15
f 27/62/15 39/64/15 14/108/15
f 27/62/15 36/66/15 37/109/15
f 18/110/40 38/111/40 54/69/40
f 46/75/21 44/91/21 45/112/21
f 3/42/41 16/92/41 53/81/42
f 46/75/21 10/5/21 8/4/21
f 16/8/43 11/7/43 53/81/44
f 46/75/21 19/78/21 15/9/21
f 12/12/31 20/11/31 7/88/31
f 21/105/45 51/87/45 22/14/45
f 12/93/31 2/95/31 26/18/31
f 12/93/31 25/17/31 32/21/31
s 1
f 53/81/46 54/106/47 52/113/48
f 49/101/49 51/87/50 50/58/51
f 49/101/52 50/58/53 9/102/53
f 1/1/54 50/58/51 51/87/50
f 3/74/55 53/81/56 52/113/55
f 38/71/57 52/72/48 54/106/47
