# Blender v2.80 (sub 75) OBJ File: 'BF_Medium_Panel.blend'
# www.blender.org
mtllib BF_Stream_Three_Block_Blank_Panel.mtl
o BF_Stream_Three_Block_Panel
v 0.132000 -0.499998 -0.132000
v -0.132046 -0.500000 0.132046
v -0.132046 -0.500000 -0.132000
v -0.124211 -0.505935 -0.124164
v -0.000024 -0.599997 0.000023
v 0.132000 -0.499999 0.132046
v 0.375168 -0.453101 0.500278
v -0.312682 -0.453101 0.469012
v -0.375214 -0.453101 0.500278
v 0.312636 -0.406202 0.469012
v 0.312636 -0.453101 0.469012
v 0.453332 -0.453097 0.500278
v 0.461149 -0.414015 0.491344
v 0.453332 -0.406198 0.500278
v 0.461149 -0.445280 0.491344
v 0.547130 -0.453097 0.500278
v 0.539314 -0.445280 0.491344
v 0.687827 -0.453097 0.469012
v 0.625295 -0.406198 0.500278
v 0.625295 -0.453097 0.500278
v 1.313140 -0.453097 0.469012
v 1.453840 -0.453097 0.500278
v 1.461660 -0.414015 0.491344
v 1.453840 -0.406198 0.500278
v 1.539820 -0.445280 0.491344
v 1.461660 -0.445280 0.491344
v 1.688340 -0.453097 0.469012
v 1.625800 -0.406198 0.500278
v 1.625800 -0.453097 0.500278
v 2.313650 -0.453097 0.469012
v 2.376190 -0.453097 0.500278
v 2.313650 -0.406198 0.469012
v 2.376190 -0.406198 0.500278
v 1.688340 -0.406198 0.469012
v 1.547640 -0.406198 0.500278
v 1.539820 -0.414015 0.491344
v 1.375680 -0.453097 0.500278
v 1.313140 -0.406198 0.469012
v 1.375680 -0.406198 0.500278
v 0.687827 -0.406198 0.469012
v 0.547130 -0.406198 0.500278
v 0.539314 -0.414015 0.491344
v -0.375214 -0.406202 0.500278
v 0.375168 -0.406202 0.500278
v -0.312682 -0.406202 0.469012
v -0.114263 -0.513470 0.114264
v 1.000490 -0.599996 0.000023
v 1.132510 -0.499998 0.000023
v 1.132510 -0.499998 0.132046
v 1.132510 -0.499998 -0.132000
v 0.876298 -0.505934 -0.124164
v 0.868462 -0.499999 -0.132000
v 0.868462 -0.499999 0.132046
v 0.886246 -0.513469 0.114264
v -0.500278 -0.453101 0.375214
v -0.469012 -0.406202 0.312682
v -0.469012 -0.453101 0.312682
v -0.469012 -0.453101 -0.312636
v -0.500278 -0.453101 -0.375168
v -0.469012 -0.406202 -0.312636
v -0.500278 -0.406203 0.304604
v -0.500278 -0.406202 -0.375168
v 1.547640 -0.453097 0.500278
v -0.500278 -0.406202 0.375214
v 0.649297 -0.499998 -0.423599
v 0.086517 -0.499998 -0.480504
v -0.498753 -0.499999 -0.499718
v -0.500278 -0.499997 -0.499768
v -0.500278 -0.499999 0.500278
v -0.500278 -0.499996 0.453379
v -0.500278 -0.359303 0.500278
v -0.500278 -0.359299 0.453379
v -0.500278 -0.359299 -0.499768
v 0.086517 -0.359299 -0.480504
v 0.649297 -0.359299 -0.423599
v 2.021110 -0.499999 -0.039420
v 1.967860 -0.499999 -0.066582
v 1.967860 -0.359299 -0.066582
v 2.501250 -0.499996 0.500278
v 1.622570 -0.499999 -0.206827
v 1.167960 -0.499999 -0.331190
v 2.501250 -0.359299 0.500278
v 2.443610 -0.499999 0.305184
v 2.443610 -0.359299 0.305184
v 2.272890 -0.499999 0.117591
v 2.021110 -0.359299 -0.039420
v 2.272890 -0.359299 0.117591
v 1.167960 -0.359299 -0.331190
v 1.622570 -0.359299 -0.206827
v -0.498753 -0.359299 -0.499718
vt 0.141406 0.603099
vt 0.095138 0.649366
vt 0.095138 0.603099
vt 0.062015 0.000200
vt 0.002207 0.002029
vt 0.000378 0.000200
vt 0.031197 0.031019
vt 0.062015 0.061837
vt 0.184015 0.713890
vt 0.063486 0.708412
vt 0.052529 0.713890
vt 0.184015 0.666857
vt 0.173058 0.675075
vt 0.173058 0.666857
vt 0.833859 0.698265
vt 0.840708 0.696700
vt 0.842077 0.698265
vt 0.783066 0.696700
vt 0.798132 0.698265
vt 0.796762 0.696700
vt 0.238801 0.666858
vt 0.227844 0.675076
vt 0.227844 0.666858
vt 0.227844 0.713890
vt 0.348372 0.708412
vt 0.238801 0.708412
vt 0.833859 0.698265
vt 0.840708 0.696700
vt 0.842077 0.698265
vt 0.957011 0.698265
vt 0.972077 0.696700
vt 0.958381 0.696700
vt 0.414117 0.666858
vt 0.403159 0.675076
vt 0.403159 0.666858
vt 0.403159 0.713890
vt 0.523688 0.708412
vt 0.414117 0.708412
vt 0.534646 0.666858
vt 0.523688 0.675076
vt 0.523688 0.666858
vt 0.403159 0.713890
vt 0.523688 0.708412
vt 0.534646 0.713890
vt 0.414117 0.675076
vt 0.835229 0.696700
vt 0.842077 0.698265
vt 0.840708 0.696700
vt 0.584865 0.089532
vt 0.604738 0.097481
vt 0.584865 0.097481
vt 0.973447 0.698265
vt 0.958381 0.696700
vt 0.972077 0.696700
vt 0.359331 0.666858
vt 0.348372 0.675076
vt 0.348372 0.666858
vt 0.227844 0.713890
vt 0.348372 0.708412
vt 0.359331 0.713890
vt 0.238801 0.675076
vt 0.835229 0.696700
vt 0.842077 0.698265
vt 0.840708 0.696700
vt 0.584842 0.089532
vt 0.604716 0.097481
vt 0.584842 0.097481
vt 0.798132 0.698265
vt 0.783066 0.696700
vt 0.796762 0.696700
vt 0.052529 0.713890
vt 0.173058 0.708412
vt 0.184015 0.713890
vt 0.063486 0.666857
vt 0.052529 0.675075
vt 0.052529 0.666857
vt 0.063486 0.675075
vt 0.004529 0.057686
vt 0.000378 0.061837
vt 0.031226 0.031019
vt 0.062044 0.031019
vt 0.062044 0.061837
vt 0.062044 0.000200
vt 0.002236 0.002029
vt 0.000407 0.000200
vt 0.000407 0.061837
vt 0.004558 0.057686
vt 0.270453 0.603099
vt 0.316721 0.603099
vt 0.316721 0.626233
vt 0.249874 0.691976
vt 0.258092 0.681019
vt 0.249874 0.681019
vt 0.030614 0.691976
vt 0.036093 0.571447
vt 0.030614 0.560489
vt 0.258092 0.571447
vt 0.036093 0.681019
vt 0.030614 0.679603
vt 0.036093 0.571447
vt 0.249874 0.571447
vt 0.258092 0.560489
vt 0.249874 0.560489
vt 0.141406 0.649366
vt 0.173058 0.708412
vt 0.184015 0.675075
vt 0.835229 0.696700
vt 0.781696 0.698265
vt 0.359331 0.713890
vt 0.835229 0.696700
vt 0.973447 0.698265
vt 0.534646 0.713890
vt 0.534646 0.675076
vt 0.414117 0.708412
vt 0.833859 0.698265
vt 0.604738 0.089532
vt 0.957011 0.698265
vt 0.359331 0.675076
vt 0.238801 0.708412
vt 0.833859 0.698265
vt 0.604716 0.089532
vt 0.781696 0.698265
vt 0.063486 0.708412
vt 0.316721 0.649366
vt 0.270453 0.649366
vt 0.258092 0.691976
vt 0.036093 0.681019
vt 0.030614 0.691976
vt 0.030614 0.560489
vt 0.232050 0.552003
vt 0.133436 0.542032
vt 0.030882 0.538665
vt 0.030614 0.538656
vt 0.030614 0.713890
vt 0.241657 0.538656
vt 0.241657 0.713890
vt 0.241657 0.705672
vt 0.266310 0.713890
vt 0.266311 0.705672
vt 0.266311 0.538656
vt 0.258092 0.679603
vt 0.133436 0.542032
vt 0.030614 0.705672
vt 0.232050 0.552003
vt 0.556560 0.713890
vt 0.463096 0.614562
vt 0.472427 0.619321
vt 0.402593 0.589987
vt 0.322933 0.568196
vt 0.030614 0.658639
vt 0.556560 0.658640
vt 0.030614 0.683293
vt 0.197712 0.675076
vt 0.214147 0.675076
vt 0.373027 0.675076
vt 0.389463 0.675076
vt 0.556560 0.683294
vt 0.197712 0.666858
vt 0.214147 0.666858
vt 0.373027 0.666858
vt 0.389463 0.666858
vt 0.516546 0.646834
vt 0.546460 0.679705
vt 0.030882 0.683294
vt 0.030614 0.658640
vt 0.030614 0.683294
vt 0.402593 0.589987
vt 0.556560 0.713890
vt 0.463096 0.614562
vt 0.472427 0.619321
vt 0.516546 0.646834
vt 0.546460 0.679705
vt 0.030614 0.713890
vt 0.030882 0.538665
vt 0.030614 0.538656
vt 0.322933 0.568196
vt 0.030882 0.658639
vt 0.472427 0.658639
vt 0.463096 0.658639
vt 0.463096 0.683294
vt 0.241657 0.713890
vt 0.241657 0.679705
vt 0.266311 0.679705
vt 0.516546 0.658639
vt 0.472427 0.683294
vt 0.241657 0.646834
vt 0.266311 0.646834
vt 0.232050 0.658640
vt 0.232050 0.683294
vt 0.322933 0.683294
vt 0.402593 0.658639
vt 0.322933 0.658639
vt 0.402593 0.683294
vt 0.133436 0.658640
vt 0.133436 0.683294
vt 0.266311 0.713890
vt 0.516546 0.683294
vn 0.0000 -1.0000 0.0000
vn 0.0000 -0.7972 -0.6038
vn 0.6038 -0.7971 -0.0000
vn 0.0000 1.0000 -0.0000
vn -0.4472 0.0000 0.8944
vn 0.7526 0.0000 0.6585
vn 0.0000 0.7526 0.6585
vn 0.4472 0.0000 0.8944
vn 0.7525 0.0000 0.6586
vn 0.4472 0.0000 0.8945
vn -0.4472 0.0000 0.8945
vn 0.0000 0.0000 1.0000
vn -0.7525 0.0000 0.6586
vn 0.0000 -0.7526 0.6585
vn -0.7526 0.0000 0.6584
vn 0.0000 -0.7971 0.6038
vn -0.6038 -0.7971 0.0000
vn -0.6038 -0.7972 -0.0000
vn -0.8944 0.0000 -0.4472
vn -1.0000 0.0000 0.0000
vn -0.8944 0.0000 0.4472
vn 0.0000 -0.7971 -0.6038
vn 0.0000 -0.7972 0.6038
vn -0.0013 -1.0000 0.0008
vn -0.9999 -0.0102 0.0000
vn 0.0000 0.0000 -1.0000
vn 0.0328 0.0000 -0.9995
vn 0.0001 1.0000 0.0001
vn 0.4922 0.0000 -0.8705
vn 0.4157 0.0000 -0.9095
vn 0.9590 0.0000 -0.2833
vn 0.8714 0.0000 -0.4906
vn 0.6404 -0.0000 -0.7680
vn 0.1381 0.0000 -0.9904
vn 0.2199 0.0000 -0.9755
vn 0.3207 -0.0000 -0.9472
vn 0.0667 0.0000 -0.9978
usemtl _Color_M00_1.003
s off
f 1/1/1 2/2/1 3/3/1
f 1/4/2 4/5/2 3/6/2
f 5/7/3 1/4/3 6/8/3
f 7/9/4 8/10/4 9/11/4
f 7/12/5 10/13/5 11/14/5
f 12/15/6 13/16/6 14/17/6
f 15/18/7 16/19/7 17/20/7
f 18/21/8 19/22/8 20/23/8
f 20/24/4 21/25/4 18/26/4
f 22/27/9 23/28/9 24/29/9
f 22/30/7 25/31/7 26/32/7
f 27/33/10 28/34/10 29/35/10
f 29/36/4 30/37/4 27/38/4
f 31/39/11 32/40/11 30/41/11
f 28/42/1 32/43/1 33/44/1
f 34/45/12 30/41/12 32/40/12
f 25/46/13 35/47/13 36/48/13
f 36/49/12 26/50/12 25/51/12
f 35/52/14 23/53/14 36/54/14
f 37/55/5 38/56/5 21/57/5
f 19/58/1 38/59/1 39/60/1
f 40/61/12 21/57/12 38/56/12
f 17/62/15 41/63/15 42/64/15
f 42/65/12 15/66/12 17/67/12
f 41/68/14 13/69/14 42/70/14
f 43/71/1 10/72/1 44/73/1
f 8/74/8 43/75/8 9/76/8
f 45/77/12 11/14/12 10/13/12
f 46/78/16 6/8/16 2/79/16
f 2/79/17 3/6/17 4/5/17
f 47/80/3 48/81/3 49/82/3
f 50/83/2 51/84/2 52/85/2
f 53/86/18 52/85/18 51/84/18
f 54/87/16 49/82/16 53/86/16
f 52/88/1 50/89/1 48/90/1
f 55/91/19 56/92/19 57/93/19
f 55/94/4 58/95/4 59/96/4
f 60/97/20 57/93/20 56/92/20
f 56/98/1 61/99/1 60/100/1
f 58/101/21 62/102/21 59/103/21
f 1/1/1 6/104/1 2/2/1
f 1/4/22 5/7/22 4/5/22
f 7/9/4 11/105/4 8/10/4
f 7/12/5 44/106/5 10/13/5
f 12/15/6 15/107/6 13/16/6
f 15/18/7 12/108/7 16/19/7
f 18/21/8 40/61/8 19/22/8
f 20/24/4 37/109/4 21/25/4
f 22/27/9 26/110/9 23/28/9
f 22/30/7 63/111/7 25/31/7
f 27/33/8 34/45/8 28/34/8
f 29/36/4 31/112/4 30/37/4
f 31/39/11 33/113/11 32/40/11
f 28/42/1 34/114/1 32/43/1
f 34/45/12 27/33/12 30/41/12
f 25/46/13 63/115/13 35/47/13
f 36/49/12 23/116/12 26/50/12
f 35/52/14 24/117/14 23/53/14
f 37/55/11 39/118/11 38/56/11
f 19/58/1 40/119/1 38/59/1
f 40/61/12 18/21/12 21/57/12
f 17/62/15 16/120/15 41/63/15
f 42/65/12 13/121/12 15/66/12
f 41/68/14 14/122/14 13/69/14
f 43/71/1 45/123/1 10/72/1
f 8/74/8 45/77/8 43/75/8
f 45/77/12 8/74/12 11/14/12
f 46/78/23 5/7/23 6/8/23
f 4/5/18 5/7/18 46/78/18
f 46/78/17 2/79/17 4/5/17
f 47/80/3 50/83/3 48/81/3
f 50/83/22 47/80/22 51/84/22
f 51/84/18 47/80/18 54/87/18
f 54/87/18 53/86/18 51/84/18
f 54/87/23 47/80/23 49/82/23
f 48/90/1 49/124/1 53/125/1
f 53/125/1 52/88/1 48/90/1
f 55/91/19 64/126/19 56/92/19
f 55/94/4 57/127/4 58/95/4
f 60/97/20 58/101/20 57/93/20
f 64/128/1 61/99/1 56/98/1
f 61/99/1 62/129/1 60/100/1
f 58/101/21 60/97/21 62/102/21
usemtl FrontColor
f 1/1/1 65/130/1 6/104/1
f 1/1/1 66/131/1 65/130/1
f 3/3/1 66/131/1 1/1/1
f 66/131/1 3/3/1 67/132/1
f 2/2/1 67/132/1 3/3/1
f 2/2/24 68/133/24 67/132/24
f 69/134/1 68/133/1 2/2/1
f 68/135/25 69/136/25 70/137/25
f 70/137/20 69/136/20 71/138/20
f 71/138/20 72/139/20 70/137/20
f 72/139/20 55/91/20 70/137/20
f 55/91/20 68/135/20 70/137/20
f 55/91/20 59/103/20 68/135/20
f 73/140/20 68/135/20 59/103/20
f 73/140/20 59/103/20 62/102/20
f 73/140/20 62/102/20 61/141/20
f 73/140/20 61/141/20 64/126/20
f 64/126/20 72/139/20 73/140/20
f 74/142/4 72/143/4 75/144/4
f 79/145/1 77/146/1 76/147/1
f 79/145/1 80/148/1 77/146/1
f 79/145/1 81/149/1 80/148/1
f 79/145/1 49/124/1 81/149/1
f 79/145/1 53/125/1 49/124/1
f 79/145/1 6/104/1 53/125/1
f 79/145/1 2/2/1 6/104/1
f 69/134/1 2/2/1 79/145/1
f 69/150/12 79/151/12 9/76/12
f 9/76/12 71/152/12 69/150/12
f 9/76/12 43/75/12 71/152/12
f 43/75/12 44/106/12 71/152/12
f 44/106/12 14/153/12 71/152/12
f 14/153/12 41/154/12 71/152/12
f 41/154/12 19/22/12 71/152/12
f 19/22/12 39/118/12 71/152/12
f 39/118/12 24/155/12 71/152/12
f 24/155/12 35/156/12 71/152/12
f 35/156/12 28/34/12 71/152/12
f 28/34/12 33/113/12 71/152/12
f 82/157/12 71/152/12 33/113/12
f 82/157/12 33/113/12 31/39/12
f 79/151/12 82/157/12 31/39/12
f 31/39/12 7/12/12 79/151/12
f 7/12/12 9/76/12 79/151/12
f 44/106/12 7/12/12 12/158/12
f 12/158/12 14/153/12 44/106/12
f 31/39/12 16/159/12 12/158/12
f 31/39/12 12/158/12 7/12/12
f 31/39/26 20/23/26 16/159/26
f 41/154/12 16/159/12 20/23/12
f 20/23/12 19/22/12 41/154/12
f 31/39/12 37/55/12 20/23/12
f 31/39/26 22/160/26 37/55/26
f 39/118/12 37/55/12 22/160/12
f 22/160/12 24/155/12 39/118/12
f 31/39/12 63/161/12 22/160/12
f 31/39/26 29/35/26 63/161/26
f 35/156/12 63/161/12 29/35/12
f 29/35/12 28/34/12 35/156/12
f 79/145/1 85/162/1 83/163/1
f 79/145/1 76/147/1 85/162/1
f 53/125/1 6/104/1 65/130/1
f 53/125/1 65/130/1 52/88/1
f 81/149/1 52/88/1 65/130/1
f 52/88/1 81/149/1 50/89/1
f 50/89/1 81/149/1 48/90/1
f 48/90/1 81/149/1 49/124/1
f 90/164/27 68/165/27 73/166/27
f 72/139/20 64/126/20 55/91/20
f 89/167/4 82/168/4 78/169/4
f 78/169/4 82/168/4 86/170/4
f 86/170/4 82/168/4 87/171/4
f 87/171/4 82/168/4 84/172/4
f 82/168/4 89/167/4 71/173/4
f 72/143/4 90/174/4 73/175/4
f 71/173/28 75/144/28 72/143/28
f 89/167/4 88/176/4 71/173/4
f 75/144/4 71/173/4 88/176/4
f 90/174/4 72/143/4 74/142/4
f 68/165/27 90/164/27 67/177/27
s 1
f 76/178/29 77/179/30 78/180/30
f 79/181/31 83/182/32 84/183/32
f 85/184/33 76/178/29 86/185/29
f 83/182/32 85/186/33 87/187/33
f 65/188/34 75/189/34 88/190/35
f 80/191/36 81/192/35 88/190/35
f 77/179/30 80/191/36 89/193/36
f 65/188/34 66/194/37 74/195/37
f 76/178/29 78/180/30 86/185/29
f 79/181/31 84/183/32 82/196/31
f 85/184/33 86/185/29 87/197/33
f 83/182/32 87/187/33 84/183/32
f 65/188/34 88/190/35 81/192/35
f 80/191/36 88/190/35 89/193/36
f 77/179/30 89/193/36 78/180/30
f 65/188/34 74/195/37 75/189/34
f 67/177/27 90/164/27 66/194/37
f 66/194/37 90/164/27 74/195/37
