# Blender v2.80 (sub 75) OBJ File: 'BF_Medium_Panel.blend'
# www.blender.org
mtllib BF_Stream_Two_Block_Blank_Panel.mtl
o BF_Stream_Two_Block_Panel.000
v 0.132000 -0.499998 -0.132000
v -0.000024 -0.599997 0.000023
v -0.132046 -0.500000 -0.132000
v 0.132000 -0.499999 0.132046
v -0.132046 -0.500000 0.132046
v -0.500278 -0.453101 0.375214
v -0.469012 -0.406202 0.312682
v -0.469012 -0.453101 0.312682
v -0.469012 -0.453101 -0.312636
v -0.500278 -0.453101 -0.375168
v -0.469012 -0.406202 -0.312636
v -0.500278 -0.406202 0.375214
v -0.500278 -0.406202 -0.375168
v 0.453332 -0.453098 0.500278
v 0.461149 -0.414016 0.491344
v 0.453332 -0.406199 0.500278
v 0.461149 -0.445282 0.491344
v 0.547130 -0.453098 0.500278
v 0.539314 -0.445282 0.491344
v 0.625295 -0.453098 0.500278
v 1.313140 -0.453098 0.469012
v 0.687827 -0.453098 0.469012
v 1.375680 -0.453098 0.500278
v 1.313140 -0.406199 0.469012
v -0.312682 -0.453101 0.469012
v -0.375214 -0.406202 0.500278
v -0.375214 -0.453101 0.500278
v 0.375168 -0.453101 0.500278
v 0.312636 -0.406202 0.469012
v 0.312636 -0.453101 0.469012
v 0.375168 -0.406202 0.500278
v -0.312682 -0.406202 0.469012
v 0.547130 -0.406199 0.500278
v 0.539314 -0.414016 0.491344
v 0.625295 -0.406199 0.500278
v 0.687827 -0.406199 0.469012
v 1.375680 -0.406199 0.500278
v 0.611880 -0.499999 -0.331190
v -0.500278 -0.359300 -0.453332
v 1.500740 -0.359300 0.500278
v -0.500278 -0.359303 0.500278
v -0.500278 -0.499998 -0.499769
v -0.500278 -0.499999 0.500278
v -0.500278 -0.359300 0.453379
v -0.109081 -0.359300 -0.480505
v 1.500740 -0.499997 0.500278
v 1.138060 -0.499999 -0.070901
v 1.185590 -0.499999 -0.034798
v 1.348500 -0.499999 0.117595
v 1.462310 -0.499999 0.305188
v 0.914953 -0.499999 -0.206828
v 0.266106 -0.499998 -0.423599
v -0.109081 -0.499998 -0.480505
v -0.500278 -0.359300 -0.499769
v 1.138060 -0.359300 -0.070901
v 1.462310 -0.359300 0.305188
v 1.348500 -0.359300 0.117595
v 1.185590 -0.359300 -0.034798
v 0.914953 -0.359300 -0.206828
v 0.611880 -0.359300 -0.331190
v 0.266106 -0.359300 -0.423599
vt 0.062100 0.000372
vt 0.031317 0.031155
vt 0.000534 0.000372
vt 0.062100 0.061938
vt 0.166727 0.595065
vt 0.105554 0.656237
vt 0.105554 0.595065
vt 0.000534 0.061938
vt 0.212851 0.712573
vt 0.223717 0.698086
vt 0.212851 0.698086
vt 0.020244 0.712573
vt 0.027488 0.553216
vt 0.020244 0.538729
vt 0.223717 0.553216
vt 0.027488 0.553216
vt 0.020244 0.712573
vt 0.020244 0.538729
vt 0.212851 0.553216
vt 0.223717 0.538729
vt 0.212851 0.538729
vt 0.827001 0.668884
vt 0.846532 0.664419
vt 0.850439 0.668884
vt 0.891995 0.664419
vt 0.934964 0.668884
vt 0.931058 0.664419
vt 0.281011 0.741548
vt 0.440367 0.734304
vt 0.295498 0.734304
vt 0.454856 0.665406
vt 0.440367 0.676271
vt 0.440367 0.665406
vt 0.063706 0.665405
vt 0.049218 0.676271
vt 0.049218 0.665405
vt 0.223063 0.741548
vt 0.063706 0.734304
vt 0.049218 0.741548
vt 0.223063 0.665405
vt 0.208576 0.676271
vt 0.208576 0.665405
vt 0.049218 0.741548
vt 0.208576 0.734304
vt 0.223063 0.741548
vt 0.063706 0.676271
vt 0.934964 0.668884
vt 0.891995 0.664419
vt 0.931058 0.664419
vt 0.846532 0.664419
vt 0.827001 0.668884
vt 0.850439 0.668884
vt 0.604098 0.096822
vt 0.583059 0.088407
vt 0.604098 0.088407
vt 0.295498 0.665406
vt 0.281011 0.676271
vt 0.281011 0.665406
vt 0.295498 0.676271
vt 0.281011 0.741548
vt 0.440367 0.734304
vt 0.454856 0.741548
vt 0.166727 0.656237
vt 0.223717 0.712573
vt 0.027488 0.698086
vt 0.027488 0.698086
vt 0.830907 0.664419
vt 0.888089 0.668884
vt 0.454856 0.741548
vt 0.454856 0.676271
vt 0.208576 0.734304
vt 0.223063 0.676271
vt 0.063706 0.734304
vt 0.888089 0.668884
vt 0.830907 0.664419
vt 0.583059 0.096822
vt 0.295498 0.734304
vt 0.277903 0.548918
vt 0.234583 0.520620
vt 0.241171 0.676271
vt 0.483829 0.687137
vt 0.020244 0.687136
vt 0.201987 0.509862
vt 0.201986 0.741548
vt 0.020244 0.520620
vt 0.020244 0.730682
vt 0.110875 0.514325
vt 0.241171 0.665406
vt 0.262902 0.665406
vt 0.483829 0.654541
vt 0.020244 0.509862
vt 0.399805 0.609220
vt 0.410817 0.617584
vt 0.448559 0.652890
vt 0.483829 0.741548
vt 0.474926 0.696350
vt 0.020244 0.741548
vt 0.348117 0.577729
vt 0.197796 0.527509
vt 0.110875 0.514325
vt 0.234583 0.730682
vt 0.262902 0.676271
vt 0.020244 0.654540
vt 0.234583 0.509862
vt 0.234582 0.741548
vt 0.020244 0.741548
vt 0.483829 0.741548
vt 0.399805 0.609220
vt 0.474926 0.696350
vt 0.448559 0.652890
vt 0.410817 0.617584
vt 0.348117 0.577729
vt 0.277903 0.548918
vt 0.197796 0.527509
vt 0.020244 0.509862
vt 0.110875 0.654541
vt 0.197796 0.687137
vt 0.197796 0.654541
vt 0.020244 0.654541
vt 0.110875 0.687137
vt 0.201987 0.741548
vt 0.234583 0.696350
vt 0.234583 0.741548
vt 0.277903 0.687137
vt 0.277903 0.654540
vt 0.348117 0.687137
vt 0.348117 0.654540
vt 0.399805 0.687137
vt 0.399805 0.654540
vt 0.410817 0.687137
vt 0.410817 0.654540
vt 0.448559 0.687137
vt 0.448559 0.654540
vt 0.201986 0.652890
vt 0.201986 0.696350
vt 0.020244 0.687137
vt 0.234583 0.652890
vn 0.0000 -0.7971 -0.6038
vn 0.6038 -0.7971 -0.0000
vn 0.0000 -1.0000 0.0000
vn 0.0000 -0.7972 0.6038
vn -0.6038 -0.7971 -0.0000
vn -0.8944 0.0000 -0.4472
vn -0.0000 1.0000 0.0000
vn -1.0000 0.0000 0.0000
vn -0.8944 0.0000 0.4472
vn 0.7526 0.0000 0.6585
vn 0.0000 0.7526 0.6584
vn -0.4472 0.0000 0.8944
vn 0.4472 0.0000 0.8944
vn 0.0000 0.0000 1.0000
vn 0.0000 -0.7526 0.6585
vn -0.7526 0.0000 0.6584
vn -0.4472 0.0000 0.8945
vn -0.0000 0.0000 -1.0000
vn 0.0000 1.0000 0.0001
vn 0.0997 0.0000 -0.9950
vn 0.2044 0.0000 -0.9789
vn 0.0492 0.0000 -0.9988
vn 0.9811 -0.0000 -0.1933
vn 0.9324 -0.0000 -0.3615
vn 0.3196 0.0000 -0.9476
vn 0.4514 0.0000 -0.8923
vn 0.5633 0.0000 -0.8262
vn 0.6449 0.0000 -0.7643
vn 0.7763 -0.0000 -0.6304
usemtl _Color_M00_1.002
s off
f 1/1/1 2/2/1 3/3/1
f 2/2/2 1/1/2 4/4/2
f 1/5/3 5/6/3 3/7/3
f 5/8/4 2/2/4 4/4/4
f 2/2/5 5/8/5 3/3/5
f 6/9/6 7/10/6 8/11/6
f 6/12/7 9/13/7 10/14/7
f 11/15/8 8/11/8 7/10/8
f 11/16/3 12/17/3 13/18/3
f 9/19/9 13/20/9 10/21/9
f 14/22/10 15/23/10 16/24/10
f 17/25/11 18/26/11 19/27/11
f 20/28/7 21/29/7 22/30/7
f 23/31/12 24/32/12 21/33/12
f 25/34/13 26/35/13 27/36/13
f 28/37/7 25/38/7 27/39/7
f 28/40/12 29/41/12 30/42/12
f 26/43/3 29/44/3 31/45/3
f 32/46/14 30/42/14 29/41/14
f 33/47/15 15/48/15 34/49/15
f 34/50/16 18/51/16 33/52/16
f 34/53/14 17/54/14 19/55/14
f 22/56/13 35/57/13 20/58/13
f 36/59/14 21/33/14 24/32/14
f 35/60/3 24/61/3 37/62/3
f 1/5/3 4/63/3 5/6/3
f 6/9/6 12/64/6 7/10/6
f 6/12/7 8/65/7 9/13/7
f 11/15/8 9/19/8 8/11/8
f 11/16/3 7/66/3 12/17/3
f 9/19/9 11/15/9 13/20/9
f 14/22/10 17/67/10 15/23/10
f 17/25/11 14/68/11 18/26/11
f 20/28/7 23/69/7 21/29/7
f 23/31/17 37/70/17 24/32/17
f 25/34/13 32/46/13 26/35/13
f 28/37/7 30/71/7 25/38/7
f 28/40/12 31/72/12 29/41/12
f 26/43/3 32/73/3 29/44/3
f 32/46/14 25/34/14 30/42/14
f 33/47/15 16/74/15 15/48/15
f 34/50/16 19/75/16 18/51/16
f 34/53/14 15/76/14 17/54/14
f 22/56/13 36/59/13 35/57/13
f 36/59/14 22/56/14 21/33/14
f 35/60/3 36/77/3 24/61/3
usemtl FrontColor.001
f 4/63/3 1/5/3 38/78/3
f 39/79/8 10/21/8 13/20/8
f 16/80/14 40/81/14 41/82/14
f 42/83/8 43/84/8 6/9/8
f 39/85/7 44/86/7 45/87/7
f 14/88/14 20/58/14 18/89/14
f 14/88/18 23/31/18 20/58/18
f 46/90/14 23/31/14 14/88/14
f 3/7/3 5/6/3 42/91/3
f 47/92/3 48/93/3 4/63/3
f 48/93/3 49/94/3 46/95/3
f 4/63/3 48/93/3 46/95/3
f 49/94/3 50/96/3 46/95/3
f 43/97/3 42/91/3 5/6/3
f 43/97/3 5/6/3 4/63/3
f 46/95/3 43/97/3 4/63/3
f 51/98/3 47/92/3 4/63/3
f 52/99/3 38/78/3 1/5/3
f 38/78/3 51/98/3 4/63/3
f 1/5/3 53/100/3 52/99/3
f 13/20/8 12/64/8 39/79/8
f 12/64/8 44/101/8 39/79/8
f 33/102/14 18/89/14 20/58/14
f 35/57/14 37/70/14 40/81/14
f 33/102/14 20/58/14 35/57/14
f 31/72/14 14/88/14 16/80/14
f 33/102/14 35/57/14 40/81/14
f 26/35/14 31/72/14 41/82/14
f 31/72/14 16/80/14 41/82/14
f 16/80/14 33/102/14 40/81/14
f 41/82/14 43/103/14 26/35/14
f 43/103/14 27/36/14 26/35/14
f 10/21/8 39/79/8 42/83/8
f 39/79/8 54/104/8 42/83/8
f 43/84/8 41/105/8 44/101/8
f 44/101/8 12/64/8 6/9/8
f 43/84/8 44/101/8 6/9/8
f 6/9/8 10/21/8 42/83/8
f 41/106/7 40/107/7 55/108/7
f 40/107/7 56/109/7 57/110/7
f 58/111/7 40/107/7 57/110/7
f 58/111/7 55/108/7 40/107/7
f 55/108/7 59/112/7 41/106/7
f 59/112/7 60/113/7 41/106/7
f 60/113/7 61/114/7 44/86/7
f 41/106/19 60/113/19 44/86/19
f 61/114/7 45/87/7 44/86/7
f 45/87/7 54/115/7 39/85/7
f 46/90/14 40/81/14 37/70/14
f 46/90/14 37/70/14 23/31/14
f 27/36/14 43/103/14 28/40/14
f 43/103/14 46/90/14 14/88/14
f 28/40/14 43/103/14 14/88/14
f 14/88/14 31/72/14 28/40/14
f 42/91/3 53/100/3 3/7/3
f 53/100/3 1/5/3 3/7/3
s 1
f 53/116/20 61/117/21 52/118/21
f 42/119/22 45/120/20 53/116/20
f 46/121/23 56/122/24 40/123/23
f 52/118/21 60/124/25 38/125/25
f 38/125/25 59/126/26 51/127/26
f 51/127/26 55/128/27 47/129/27
f 47/129/27 58/130/28 48/131/28
f 48/131/28 57/132/29 49/133/29
f 49/134/29 56/122/24 50/135/24
f 53/116/20 45/120/20 61/117/21
f 42/119/22 54/136/22 45/120/20
f 46/121/23 50/135/24 56/122/24
f 52/118/21 61/117/21 60/124/25
f 38/125/25 60/124/25 59/126/26
f 51/127/26 59/126/26 55/128/27
f 47/129/27 55/128/27 58/130/28
f 48/131/28 58/130/28 57/132/29
f 49/134/29 57/137/29 56/122/24
