# Blender v2.82 (sub 7) OBJ File: 'TACResourceInputArrowLitRed.blend'
# www.blender.org
mtllib TACResourceInputArrowLitRed.mtl
o Solid1.014
v 0.000000 0.081700 0.135000
v 0.112500 0.081700 -0.112500
v -0.112500 0.081700 -0.112500
v 0.000000 -0.003300 0.135000
v 0.112500 -0.003300 -0.112500
v -0.112500 -0.003300 -0.112500
vt 0.004343 0.079934
vt 0.004243 0.079934
vt 0.004343 0.079833
vt 0.004343 0.079833
vt 0.004343 0.079934
vt 0.004243 0.079934
vn 0.0000 1.0000 0.0000
vn 0.0000 0.0000 -1.0000
vn -0.9104 -0.0000 0.4138
vn 0.9104 -0.0000 0.4138
usemtl 191,191,191.013
s 1
f 3/1/1 1/2/1 2/3/1
f 3/1/2 5/4/2 6/5/2
f 1/2/3 6/5/3 4/6/3
f 1/2/3 3/1/3 6/5/3
f 3/1/2 2/3/2 5/4/2
f 2/3/4 1/2/4 4/6/4
f 2/3/4 4/6/4 5/4/4
