# Blender v2.83.5 OBJ File: 'GT_Eco_Battery.blend'
# www.blender.org
v 0.054582 0.470001 0.000000
v 0.054582 0.470001 0.182754
v 0.054582 0.470001 0.076307
v 0.054582 0.470001 0.312285
v 0.054582 0.470001 0.205837
v 0.054582 0.470001 0.053224
v 0.000000 0.470001 0.312285
v 0.000000 0.470001 0.205837
v 0.000000 0.470001 0.182754
v 0.000000 0.470001 0.076307
v 0.000000 0.470001 0.053224
v -0.054582 0.470001 0.000000
v 0.054582 -0.470001 -0.000000
v 0.054582 0.470001 -0.182754
v 0.054582 0.470001 -0.076307
v 0.054582 0.470001 -0.312285
v 0.054582 0.470001 -0.205837
v 0.054582 0.470001 -0.053224
v 0.000000 0.470001 -0.312285
v 0.000000 0.470001 -0.205837
v 0.000000 0.470001 -0.182754
v 0.000000 0.470001 -0.076307
v 0.000000 0.470001 -0.053224
v -0.054582 0.470001 0.182754
v -0.054582 0.470001 0.076307
v -0.054582 0.470001 0.312285
v -0.054582 0.470001 0.205837
v -0.054582 0.470001 0.053224
v 0.054582 -0.470001 0.182754
v 0.054582 -0.470001 0.076307
v 0.054582 -0.470001 0.312285
v 0.054582 -0.470001 0.205837
v 0.054582 -0.470001 0.053224
v 0.000000 -0.470001 0.312285
v 0.000000 -0.470001 0.205837
v 0.000000 -0.470001 0.182754
v 0.000000 -0.470001 0.076307
v 0.000000 -0.470001 0.053224
v -0.054582 -0.470001 -0.000000
v -0.054582 -0.470001 0.182754
v -0.054582 -0.470001 0.076307
v -0.054582 -0.470001 0.312285
v -0.054582 -0.470001 0.205837
v -0.054582 -0.470001 0.053224
v -0.054582 0.470001 -0.182754
v -0.054582 0.470001 -0.076307
v -0.054582 0.470001 -0.312285
v -0.054582 0.470001 -0.205837
v -0.054582 0.470001 -0.053224
v 0.054582 -0.470001 -0.182754
v 0.054582 -0.470001 -0.076307
v 0.054582 -0.470001 -0.312285
v 0.054582 -0.470001 -0.205837
v 0.054582 -0.470001 -0.053224
v 0.000000 -0.470001 -0.312285
v 0.000000 -0.470001 -0.205837
v 0.000000 -0.470001 -0.182754
v 0.000000 -0.470001 -0.076307
v 0.000000 -0.470001 -0.053224
v -0.054582 -0.470001 -0.182754
v -0.054582 -0.470001 -0.076307
v -0.054582 -0.470001 -0.312285
v -0.054582 -0.470001 -0.205837
v -0.054582 -0.470001 -0.053224
vt 0.063489 0.111469
vt 0.010609 0.111469
vt 0.063489 0.008342
vt 0.063489 0.236958
vt 0.116367 0.236958
vt 0.063489 0.133832
vt 0.116367 0.111469
vt 0.116367 0.008342
vt 0.063489 0.008342
vt 0.010609 0.236958
vt 0.010609 0.133832
vt 0.063489 0.133832
vt 0.063489 0.259322
vt 0.116367 0.310885
vt 0.063489 0.362448
vt 0.116367 0.510300
vt 0.116367 0.613428
vt 0.063489 0.613428
vt 0.063489 0.510301
vt 0.010609 0.510301
vt 0.063489 0.613428
vt 0.010609 0.384811
vt 0.010609 0.487938
vt 0.063489 0.487938
vt 0.063489 0.362448
vt 0.116367 0.310885
vt 0.063489 0.259322
vt 0.063489 0.384811
vt 0.116367 0.384811
vt 0.063489 0.487938
vt 0.010609 0.008342
vt 0.116367 0.008342
vt 0.116367 0.111469
vt 0.116367 0.133832
vt 0.010609 0.133832
vt 0.010609 0.236958
vt 0.010609 0.008342
vt 0.010609 0.111469
vt 0.063489 0.111469
vt 0.116367 0.133832
vt 0.116367 0.236958
vt 0.063489 0.236958
vt 0.010609 0.310885
vt 0.010609 0.259321
vt 0.116367 0.259321
vt 0.116367 0.362448
vt 0.010609 0.362448
vt 0.010609 0.613428
vt 0.010609 0.510300
vt 0.063489 0.510300
vt 0.010609 0.613428
vt 0.116367 0.613428
vt 0.116367 0.510301
vt 0.116367 0.487938
vt 0.116367 0.384811
vt 0.063489 0.384811
vt 0.010609 0.259322
vt 0.010609 0.310885
vt 0.010609 0.362448
vt 0.116367 0.362448
vt 0.116367 0.259322
vt 0.116367 0.487938
vt 0.010609 0.487938
vt 0.010609 0.384811
vn 0.0000 1.0000 0.0000
vn 0.0000 -1.0000 0.0000
s 1
f 8/1/1 27/2/1 7/3/1
f 37/4/2 30/5/2 36/6/2
f 32/7/2 31/8/2 34/9/2
f 25/10/1 24/11/1 9/12/1
f 11/13/1 1/14/1 23/15/1
f 17/16/1 16/17/1 19/18/1
f 56/19/2 63/20/2 55/21/2
f 61/22/2 60/23/2 57/24/2
f 59/25/2 13/26/2 38/27/2
f 22/28/1 15/29/1 21/30/1
f 27/2/1 26/31/1 7/3/1
f 7/3/1 4/32/1 5/33/1
f 5/33/1 8/1/1 7/3/1
f 30/5/2 29/34/2 36/6/2
f 36/6/2 40/35/2 41/36/2
f 41/36/2 37/4/2 36/6/2
f 34/9/2 42/37/2 43/38/2
f 43/38/2 35/39/2 34/9/2
f 35/39/2 32/7/2 34/9/2
f 9/12/1 2/40/1 3/41/1
f 3/41/1 10/42/1 9/12/1
f 10/42/1 25/10/1 9/12/1
f 12/43/1 28/44/1 11/13/1
f 11/13/1 6/45/1 1/14/1
f 1/14/1 18/46/1 23/15/1
f 23/15/1 49/47/1 12/43/1
f 12/43/1 11/13/1 23/15/1
f 19/18/1 47/48/1 48/49/1
f 48/49/1 20/50/1 19/18/1
f 20/50/1 17/16/1 19/18/1
f 63/20/2 62/51/2 55/21/2
f 55/21/2 52/52/2 53/53/2
f 53/53/2 56/19/2 55/21/2
f 57/24/2 50/54/2 51/55/2
f 51/55/2 58/56/2 57/24/2
f 58/56/2 61/22/2 57/24/2
f 38/27/2 44/57/2 39/58/2
f 39/58/2 64/59/2 59/25/2
f 59/25/2 54/60/2 13/26/2
f 13/26/2 33/61/2 38/27/2
f 38/27/2 39/58/2 59/25/2
f 15/29/1 14/62/1 21/30/1
f 21/30/1 45/63/1 46/64/1
f 46/64/1 22/28/1 21/30/1
