# Blender v2.80 (sub 75) OBJ File: 'GC_Dynamite.blend'
# www.blender.org
mtllib GC_Dynamite_Door_R.mtl
o GC_Dynamite.002
v 0.700001 0.551114 -0.020246
v 0.000000 0.551114 -0.020247
v 0.700001 -0.548885 -0.020385
v 0.000000 -0.548885 -0.020386
v 0.014310 0.536804 -0.030248
v 0.014310 -0.534571 -0.030384
v 0.685689 0.536804 -0.030248
v 0.685689 -0.534571 -0.030384
v 0.685689 0.186807 -0.030297
v 0.692845 0.190299 -0.025294
v 0.692845 0.383312 -0.025270
v 0.685689 0.386806 -0.030270
v 0.114310 0.186807 -0.030297
v 0.114310 0.386806 -0.030270
v 0.117810 0.190299 -0.025294
v 0.117810 0.383312 -0.025270
v 0.700001 0.551114 -0.020246
v 0.000000 0.551114 -0.020247
v 0.700001 -0.548885 -0.020385
v 0.700001 -0.548887 -0.000386
v 0.000000 -0.548885 -0.020386
v 0.000000 -0.548888 -0.000385
v 0.700001 0.551114 -0.000250
v 0.000000 0.551114 -0.000250
vt 0.199779 0.865999
vt 0.198295 0.773128
vt 0.199779 0.772505
vt 0.128682 0.864189
vt 0.127198 0.865999
vt 0.127940 0.835034
vt 0.127940 0.851439
vt 0.199779 0.836246
vt 0.128682 0.837946
vt 0.127198 0.836246
vt 0.187927 0.834441
vt 0.198295 0.864189
vt 0.128682 0.834441
vt 0.187564 0.835034
vt 0.273181 0.880787
vt 0.290180 0.892032
vt 0.273775 0.880569
vt 0.187564 0.892032
vt 0.128682 0.892664
vt 0.127940 0.892032
vt 0.624022 0.153902
vt 0.424970 0.208670
vt 0.424970 0.153902
vt 0.127198 0.834546
vt 0.199779 0.836246
vt 0.127198 0.836246
vt 0.304739 0.901572
vt 0.212433 0.834546
vt 0.211246 0.836246
vt 0.199779 0.867187
vt 0.127198 0.773693
vt 0.127198 0.867187
vt 0.212433 0.834546
vt 0.304739 0.901572
vt 0.211246 0.836246
vt 0.199779 0.901572
vt 0.127198 0.899872
vt 0.127198 0.901572
vt 0.127198 0.772505
vt 0.128682 0.773128
vt 0.128682 0.851439
vt 0.198295 0.837946
vt 0.187927 0.851439
vt 0.290180 0.892664
vt 0.187927 0.892664
vt 0.624022 0.208670
vt 0.199779 0.834546
vt 0.305927 0.899872
vt 0.199779 0.773693
vt 0.305927 0.899872
vt 0.199779 0.899872
vn -0.5728 0.0001 -0.8197
vn 0.0000 0.5729 -0.8196
vn 0.5729 0.0001 -0.8196
vn 0.5728 0.0001 -0.8197
vn 0.0000 -0.5727 -0.8198
vn -0.0000 0.0001 -1.0000
vn 0.0000 0.8200 -0.5724
vn 0.8193 0.0001 -0.5733
vn 0.8193 0.0001 -0.5734
vn 0.8194 0.0001 -0.5733
vn 0.0000 -0.8197 -0.5729
vn 0.0000 -1.0000 -0.0001
vn 1.0000 -0.0000 0.0000
vn 0.0000 -0.0001 1.0000
vn -1.0000 -0.0000 -0.0000
vn 0.0000 1.0000 0.0000
vn 0.5727 0.0001 -0.8197
usemtl Color_M02
s 1
f 2/1/1 6/2/1 4/3/1
f 7/4/2 2/1/2 1/5/2
f 10/6/3 11/7/3 1/5/4
f 4/8/5 8/9/5 3/10/5
f 13/11/6 6/2/6 5/12/6
f 9/13/7 15/14/7 10/6/7
f 13/15/8 16/16/9 15/17/10
f 16/18/11 12/19/11 11/20/11
f 15/21/6 11/22/6 10/23/6
f 20/24/12 21/25/12 19/26/12
f 17/27/13 20/28/13 19/29/13
f 24/30/14 20/31/14 23/32/14
f 22/33/15 18/34/15 21/35/15
f 18/36/16 23/37/16 17/38/16
f 2/1/1 5/12/1 6/2/1
f 7/4/2 5/12/2 2/1/2
f 1/5/4 3/39/4 10/6/3
f 3/39/4 8/40/4 10/6/3
f 8/40/4 9/13/3 10/6/3
f 11/7/3 12/41/4 7/4/17
f 11/7/3 7/4/17 1/5/4
f 4/8/5 6/42/5 8/9/5
f 13/11/6 9/13/6 8/40/6
f 5/12/6 7/4/6 14/43/6
f 7/4/6 12/41/6 14/43/6
f 13/11/6 8/40/6 6/2/6
f 5/12/6 14/43/6 13/11/6
f 9/13/7 13/11/7 15/14/7
f 13/15/8 14/44/9 16/16/9
f 16/18/11 14/45/11 12/19/11
f 15/21/6 16/46/6 11/22/6
f 20/24/12 22/47/12 21/25/12
f 17/27/13 23/48/13 20/28/13
f 24/30/14 22/49/14 20/31/14
f 22/33/15 24/50/15 18/34/15
f 18/36/16 24/51/16 23/37/16
