# Blender v2.82 (sub 7) OBJ File: 'GT_Volcano_Mortar.blend'
# www.blender.org
mtllib GT_Volcano_Mortar_Glass.mtl
o GT_Volcano_Mortar.002
v 1.937087 0.514250 3.112522
v 1.915992 0.628306 3.042103
v 1.958309 0.299124 3.213569
v 2.079331 0.280615 3.173133
v 1.946280 0.513428 3.109422
v 2.044571 0.502546 3.075139
v 1.878899 0.832803 2.916083
v 1.500000 0.535328 3.157724
v 1.500008 0.322280 3.263228
v 1.990112 0.813922 2.880203
v 1.500003 0.654088 3.081137
v 2.021395 0.618341 3.015405
v 1.035346 0.298478 3.212185
v 0.920669 0.280891 3.173732
v 1.081761 0.627972 3.041690
v 0.978599 0.618447 3.015568
v 1.500009 0.853914 2.952453
v 1.114836 0.832123 2.914880
v 1.062889 0.514247 3.112518
v 1.009883 0.814041 2.880386
v 1.053742 0.513571 3.109578
v 0.955429 0.502579 3.075209
vt 0.830438 0.452468
vt 0.823647 0.453075
vt 0.839324 0.294160
vt 0.098487 0.444454
vt 0.157523 0.293683
vt 0.171112 0.452574
vt 0.928724 0.280487
vt 0.903047 0.444430
vt 0.072810 0.280691
vt 0.177869 0.453073
vt 0.862817 0.674446
vt 0.808064 0.537330
vt 0.885926 0.529968
vt 0.500769 0.556376
vt 0.780663 0.688394
vt 0.500774 0.703989
vt 0.216243 0.687891
vt 0.191810 0.537083
vt 0.138713 0.674534
vt 0.500773 0.311266
vt 0.500767 0.468646
vt 0.115604 0.530047
vn 0.3229 0.4283 0.8440
vn -0.3405 0.4284 0.8370
vn 0.3447 0.4238 0.8376
vn 0.3396 0.4265 0.8383
vn -0.3457 0.4258 0.8362
vn -0.3048 0.4312 0.8492
vn 0.3170 0.5484 0.7738
vn 0.2019 0.5547 0.8072
vn 0.2514 0.5773 0.7769
vn -0.0007 0.5409 0.8411
vn 0.2175 0.5408 0.8126
vn -0.0009 0.5414 0.8407
vn -0.2219 0.5403 0.8117
vn -0.2010 0.5551 0.8072
vn -0.3212 0.5465 0.7735
vn -0.0003 0.4405 0.8977
vn -0.1183 0.4324 0.8939
vn -0.1203 0.4289 0.8953
vn 0.1171 0.4345 0.8930
vn -0.0000 0.4438 0.8961
vn -0.2501 0.5772 0.7773
vn 0.1187 0.4317 0.8942
usemtl _auto_.002
s off
f 5/1/1 1/2/1 3/3/1
f 22/4/2 13/5/2 21/6/2
f 4/7/3 6/8/3 3/3/3
f 6/8/4 5/1/4 3/3/4
f 14/9/5 13/5/5 22/4/5
f 13/5/6 19/10/6 21/6/6
s 1
f 10/11/7 2/12/8 12/13/9
f 11/14/10 7/15/11 17/16/12
f 11/14/10 18/17/13 15/18/14
f 20/19/15 15/18/14 18/17/13
f 9/20/16 19/10/17 13/5/18
f 9/20/16 1/2/19 8/21/20
f 10/11/7 7/15/11 2/12/8
f 11/14/10 2/12/8 7/15/11
f 11/14/10 17/16/12 18/17/13
f 20/19/15 16/22/21 15/18/14
f 9/20/16 8/21/20 19/10/17
f 9/20/16 3/3/22 1/2/19
