# Blender v2.79 (sub 0) OBJ File: ''
# www.blender.org
mtllib HE_Energized_Plating_Plate.mtl
o mesh.002_mesh.004
v -2.125130 -1.653728 1.500000
v -2.125130 -1.226944 1.500000
v -2.494736 -1.013552 1.500000
v -2.864342 -1.226944 1.500000
v -2.864342 -1.653728 1.500000
v -2.494736 -1.867120 1.500000
v -2.540918 -0.933560 1.500000
v -2.540918 -0.506776 1.500000
v -2.910524 -0.293384 1.500000
v -3.280130 -0.506776 1.500000
v -3.280130 -0.933560 1.500000
v -2.910524 -1.146952 1.500000
v -1.293550 -1.653728 1.500000
v -1.293550 -1.226944 1.500000
v -1.663156 -1.013552 1.500000
v -2.032762 -1.226944 1.500000
v -2.032762 -1.653728 1.500000
v -1.663156 -1.867120 1.500000
v -2.956708 -0.213392 1.500000
v -2.956708 0.213392 1.500000
v -3.326314 0.426784 1.500000
v -3.695920 0.213392 1.500000
v -3.695920 -0.213392 1.500000
v -3.326314 -0.426784 1.500000
v -0.877762 -0.933560 1.500000
v -0.877762 -0.506776 1.500000
v -1.247368 -0.293384 1.500000
v -1.616974 -0.506776 1.500000
v -1.616974 -0.933560 1.500000
v -1.247368 -1.146952 1.500000
v 0.369606 -1.653728 1.500000
v 0.369606 -1.226944 1.500000
v 0.000000 -1.013552 1.500000
v -0.369606 -1.226944 1.500000
v -0.369606 -1.653728 1.500000
v 0.000000 -1.867120 1.500000
v -1.709340 -0.933560 1.500000
v -1.709340 -0.506776 1.500000
v -2.078946 -0.293384 1.500000
v -2.448552 -0.506776 1.500000
v -2.448552 -0.933560 1.500000
v -2.078946 -1.146952 1.500000
v -2.125130 1.226944 1.500000
v -2.125130 1.653728 1.500000
v -2.494736 1.867120 1.500000
v -2.864342 1.653728 1.500000
v -2.864342 1.226944 1.500000
v -2.494736 1.013552 1.500000
v -0.461972 -1.653728 1.500000
v -0.461972 -1.226944 1.500000
v -0.831578 -1.013552 1.500000
v -1.201184 -1.226944 1.500000
v -1.201184 -1.653728 1.500000
v -0.831578 -1.867120 1.500000
v -2.125130 -0.213392 1.500000
v -2.125130 0.213392 1.500000
v -2.494736 0.426784 1.500000
v -2.864342 0.213392 1.500000
v -2.864342 -0.213392 1.500000
v -2.494736 -0.426784 1.500000
v -1.293550 -0.213392 1.500000
v -1.293550 0.213392 1.500000
v -1.663156 0.426784 1.500000
v -2.032762 0.213392 1.500000
v -2.032762 -0.213392 1.500000
v -1.663156 -0.426784 1.500000
v 0.785396 -0.933560 1.500000
v 0.785396 -0.506776 1.500000
v 0.415790 -0.293384 1.500000
v 0.046184 -0.506776 1.500000
v 0.046184 -0.933560 1.500000
v 0.415790 -1.146952 1.500000
v 1.201184 -1.653728 1.500000
v 1.201184 -1.226944 1.500000
v 0.831578 -1.013552 1.500000
v 0.461972 -1.226944 1.500000
v 0.461972 -1.653728 1.500000
v 0.831578 -1.867120 1.500000
v -2.540918 0.506776 1.500000
v -2.540918 0.933560 1.500000
v -2.910524 1.146952 1.500000
v -3.280130 0.933560 1.500000
v -3.280130 0.506776 1.500000
v -2.910524 0.293384 1.500000
v -0.461972 -0.213392 1.500000
v -0.461972 0.213392 1.500000
v -0.831578 0.426784 1.500000
v -1.201184 0.213392 1.500000
v -1.201184 -0.213392 1.500000
v -0.831578 -0.426784 1.500000
v -0.046184 -0.933560 1.500000
v -0.046184 -0.506776 1.500000
v -0.415790 -0.293384 1.500000
v -0.785396 -0.506776 1.500000
v -0.785396 -0.933560 1.500000
v -0.415790 -1.146952 1.500000
v -1.709340 0.506776 1.500000
v -1.709340 0.933560 1.500000
v -2.078946 1.146952 1.500000
v -2.448552 0.933560 1.500000
v -2.448552 0.506776 1.500000
v -2.078946 0.293384 1.500000
v -0.877762 0.506776 1.500000
v -0.877762 0.933560 1.500000
v -1.247368 1.146952 1.500000
v -1.616974 0.933560 1.500000
v -1.616974 0.506776 1.500000
v -1.247368 0.293384 1.500000
v 0.785396 0.506776 1.500000
v 0.785396 0.933560 1.500000
v 0.415790 1.146952 1.500000
v 0.046184 0.933560 1.500000
v 0.046184 0.506776 1.500000
v 0.415790 0.293384 1.500000
v 2.032762 -1.653728 1.500000
v 2.032762 -1.226944 1.500000
v 1.663156 -1.013552 1.500000
v 1.293550 -1.226944 1.500000
v 1.293550 -1.653728 1.500000
v 1.663156 -1.867120 1.500000
v 1.616974 -0.933560 1.500000
v 1.616974 -0.506776 1.500000
v 1.247368 -0.293384 1.500000
v 0.877762 -0.506776 1.500000
v 0.877762 -0.933560 1.500000
v 1.247368 -1.146952 1.500000
v 2.864342 -1.653728 1.500000
v 2.864342 -1.226944 1.500000
v 2.494736 -1.013552 1.500000
v 2.125130 -1.226944 1.500000
v 2.125130 -1.653728 1.500000
v 2.494736 -1.867120 1.500000
v -1.293550 1.226944 1.500000
v -1.293550 1.653728 1.500000
v -1.663156 1.867120 1.500000
v -2.032762 1.653728 1.500000
v -2.032762 1.226944 1.500000
v -1.663156 1.013552 1.500000
v -0.046184 0.506776 1.500000
v -0.046184 0.933560 1.500000
v -0.415790 1.146952 1.500000
v -0.785396 0.933560 1.500000
v -0.785396 0.506776 1.500000
v -0.415790 0.293384 1.500000
v 0.369606 -0.213392 1.500000
v 0.369606 0.213392 1.500000
v 0.000000 0.426784 1.500000
v -0.369606 0.213392 1.500000
v -0.369606 -0.213392 1.500000
v 0.000000 -0.426784 1.500000
v -0.461972 1.226944 1.500000
v -0.461972 1.653728 1.500000
v -0.831578 1.867120 1.500000
v -1.201184 1.653728 1.500000
v -1.201184 1.226944 1.500000
v -0.831578 1.013552 1.500000
v 1.201184 -0.213392 1.500000
v 1.201184 0.213392 1.500000
v 0.831578 0.426784 1.500000
v 0.461972 0.213392 1.500000
v 0.461972 -0.213392 1.500000
v 0.831578 -0.426784 1.500000
v 2.448552 -0.933560 1.500000
v 2.448552 -0.506776 1.500000
v 2.078946 -0.293384 1.500000
v 1.709340 -0.506776 1.500000
v 1.709340 -0.933560 1.500000
v 2.078946 -1.146952 1.500000
v 2.864342 -0.213392 1.500000
v 2.864342 0.213392 1.500000
v 2.494736 0.426784 1.500000
v 2.125130 0.213392 1.500000
v 2.125130 -0.213392 1.500000
v 2.494736 -0.426784 1.500000
v 0.369606 1.226944 1.500000
v 0.369606 1.653728 1.500000
v 0.000000 1.867120 1.500000
v -0.369606 1.653728 1.500000
v -0.369606 1.226944 1.500000
v 0.000000 1.013552 1.500000
v 1.616974 0.506776 1.500000
v 1.616974 0.933560 1.500000
v 1.247368 1.146952 1.500000
v 0.877762 0.933560 1.500000
v 0.877762 0.506776 1.500000
v 1.247368 0.293384 1.500000
v 2.032762 1.226944 1.500000
v 2.032762 1.653728 1.500000
v 1.663156 1.867120 1.500000
v 1.293552 1.653728 1.500000
v 1.293550 1.226944 1.500000
v 1.663156 1.013552 1.500000
v 2.032762 -0.213392 1.500000
v 2.032762 0.213392 1.500000
v 1.663156 0.426784 1.500000
v 1.293550 0.213392 1.500000
v 1.293550 -0.213392 1.500000
v 1.663156 -0.426784 1.500000
v 3.280130 -0.933560 1.500000
v 3.280130 -0.506776 1.500000
v 2.910524 -0.293384 1.500000
v 2.540918 -0.506776 1.500000
v 2.540918 -0.933560 1.500000
v 2.910524 -1.146952 1.500000
v 2.448552 0.506776 1.500000
v 2.448552 0.933560 1.500000
v 2.078946 1.146952 1.500000
v 1.709340 0.933560 1.500000
v 1.709340 0.506776 1.500000
v 2.078946 0.293384 1.500000
v 3.695920 -0.213392 1.500000
v 3.695920 0.213392 1.500000
v 3.326314 0.426784 1.500000
v 2.956708 0.213392 1.500000
v 2.956708 -0.213392 1.500000
v 3.326314 -0.426784 1.500000
v 1.201184 1.226944 1.500000
v 1.201184 1.653728 1.500000
v 0.831578 1.867120 1.500000
v 0.461972 1.653728 1.500000
v 0.461972 1.226944 1.500000
v 0.831578 1.013552 1.500000
v 2.864342 1.226944 1.500000
v 2.864342 1.653728 1.500000
v 2.494736 1.867120 1.500000
v 2.125130 1.653728 1.500000
v 2.125130 1.226944 1.500000
v 2.494736 1.013552 1.500000
v 3.280130 0.506776 1.500000
v 3.280130 0.933560 1.500000
v 2.910524 1.146952 1.500000
v 2.540918 0.933560 1.500000
v 2.540918 0.506776 1.500000
v 2.910524 0.293384 1.500000
vt 0.420393 0.546981
vt 0.425998 0.543745
vt 0.431603 0.546981
vt 0.431603 0.553453
vt 0.425998 0.556689
vt 0.420393 0.553453
vt 0.407356 0.569588
vt 0.412960 0.566352
vt 0.418565 0.569588
vt 0.418565 0.576060
vt 0.412960 0.579296
vt 0.407356 0.576060
vt 0.423629 0.556783
vt 0.430101 0.556783
vt 0.433337 0.562388
vt 0.430101 0.567993
vt 0.423629 0.567993
vt 0.420393 0.562388
vt 0.397556 0.542013
vt 0.404028 0.542015
vt 0.407262 0.547621
vt 0.404024 0.553225
vt 0.397552 0.553223
vt 0.394318 0.547617
vt 0.461011 0.530707
vt 0.467483 0.530707
vt 0.470719 0.536312
vt 0.467483 0.541917
vt 0.461011 0.541917
vt 0.457775 0.536312
vt 0.449705 0.581124
vt 0.456177 0.581124
vt 0.459413 0.586729
vt 0.456177 0.592334
vt 0.449705 0.592334
vt 0.446469 0.586729
vt 0.465608 0.546981
vt 0.471213 0.543745
vt 0.476818 0.546981
vt 0.476818 0.553453
vt 0.471213 0.556689
vt 0.465608 0.553453
vt 0.410592 0.590694
vt 0.417063 0.590694
vt 0.420299 0.596299
vt 0.417063 0.601903
vt 0.410592 0.601903
vt 0.407356 0.596299
vt 0.431697 0.546981
vt 0.437302 0.543745
vt 0.442907 0.546981
vt 0.442907 0.553453
vt 0.437302 0.556689
vt 0.431697 0.553453
vt 0.410592 0.543745
vt 0.417063 0.543745
vt 0.420299 0.549350
vt 0.417063 0.554955
vt 0.410592 0.554955
vt 0.407356 0.549350
vt 0.434935 0.530707
vt 0.441407 0.530707
vt 0.444643 0.536312
vt 0.441407 0.541917
vt 0.434935 0.541917
vt 0.431699 0.536312
vt 0.436667 0.581124
vt 0.443139 0.581124
vt 0.446375 0.586729
vt 0.443139 0.592334
vt 0.436667 0.592334
vt 0.433431 0.586729
vt 0.407358 0.533941
vt 0.412964 0.530707
vt 0.418567 0.533945
vt 0.418565 0.540417
vt 0.412959 0.543651
vt 0.407356 0.540413
vt 0.425998 0.590694
vt 0.431603 0.593930
vt 0.431603 0.600402
vt 0.425998 0.603638
vt 0.420393 0.600402
vt 0.420393 0.593930
vt 0.448605 0.543745
vt 0.454210 0.546981
vt 0.454210 0.553453
vt 0.448606 0.556689
vt 0.443001 0.553453
vt 0.443001 0.546981
vt 0.459507 0.584360
vt 0.465112 0.581124
vt 0.470716 0.584360
vt 0.470716 0.590832
vt 0.465112 0.594068
vt 0.459507 0.590832
vt 0.410593 0.519401
vt 0.417065 0.519404
vt 0.420299 0.525010
vt 0.417062 0.530613
vt 0.410590 0.530611
vt 0.407356 0.525005
vt 0.410592 0.579390
vt 0.417063 0.579390
vt 0.420299 0.584995
vt 0.417063 0.590600
vt 0.410592 0.590600
vt 0.407356 0.584995
vt 0.423629 0.568087
vt 0.430101 0.568087
vt 0.433337 0.573691
vt 0.430101 0.579296
vt 0.423629 0.579296
vt 0.420393 0.573691
vt 0.410592 0.554955
vt 0.417063 0.554955
vt 0.420299 0.560654
vt 0.417063 0.566258
vt 0.410592 0.566258
vt 0.407356 0.560654
vt 0.436667 0.569821
vt 0.443139 0.569821
vt 0.446375 0.575426
vt 0.443139 0.581030
vt 0.436667 0.581030
vt 0.433431 0.575426
vt 0.421897 0.530707
vt 0.428369 0.530707
vt 0.431605 0.536312
vt 0.428369 0.541917
vt 0.421897 0.541917
vt 0.418661 0.536312
vt 0.459274 0.556783
vt 0.465746 0.556783
vt 0.468982 0.562388
vt 0.465746 0.567993
vt 0.459274 0.567993
vt 0.456038 0.562388
vt 0.397556 0.530707
vt 0.404028 0.530710
vt 0.407262 0.536316
vt 0.404024 0.541919
vt 0.397552 0.541917
vt 0.394318 0.536311
vt 0.462743 0.569821
vt 0.469215 0.569821
vt 0.472451 0.575426
vt 0.469215 0.581030
vt 0.462743 0.581030
vt 0.459507 0.575426
vt 0.399923 0.579395
vt 0.405527 0.582631
vt 0.405527 0.589103
vt 0.399923 0.592339
vt 0.394318 0.589103
vt 0.394318 0.582631
vt 0.449705 0.569821
vt 0.456177 0.569821
vt 0.459413 0.575426
vt 0.456177 0.581030
vt 0.449705 0.581030
vt 0.446469 0.575426
vt 0.454304 0.546981
vt 0.459909 0.543745
vt 0.465514 0.546981
vt 0.465514 0.553453
vt 0.459909 0.556689
vt 0.454304 0.553453
vt 0.436667 0.519401
vt 0.443139 0.519401
vt 0.446375 0.525006
vt 0.443139 0.530611
vt 0.436667 0.530611
vt 0.433431 0.525006
vt 0.397556 0.519401
vt 0.404028 0.519404
vt 0.407262 0.525010
vt 0.404024 0.530613
vt 0.397552 0.530611
vt 0.394318 0.525005
vt 0.449705 0.519401
vt 0.456177 0.519401
vt 0.459413 0.525006
vt 0.456177 0.530611
vt 0.449705 0.530611
vt 0.446469 0.525006
vt 0.394318 0.556555
vt 0.399923 0.553319
vt 0.405527 0.556555
vt 0.405527 0.563027
vt 0.399923 0.566263
vt 0.394318 0.563027
vt 0.439036 0.556783
vt 0.444641 0.560019
vt 0.444641 0.566491
vt 0.439036 0.569727
vt 0.433431 0.566491
vt 0.433431 0.560019
vt 0.447973 0.530707
vt 0.454445 0.530707
vt 0.457681 0.536312
vt 0.454445 0.541917
vt 0.447973 0.541917
vt 0.444737 0.536312
vt 0.462743 0.519401
vt 0.469215 0.519401
vt 0.472451 0.525006
vt 0.469215 0.530611
vt 0.462743 0.530611
vt 0.459507 0.525006
vt 0.423629 0.579390
vt 0.430101 0.579390
vt 0.433337 0.584995
vt 0.430101 0.590600
vt 0.423629 0.590600
vt 0.420393 0.584995
vt 0.450340 0.556783
vt 0.455944 0.560019
vt 0.455944 0.566491
vt 0.450340 0.569727
vt 0.444735 0.566491
vt 0.444735 0.560019
vt 0.394318 0.569593
vt 0.399923 0.566357
vt 0.405527 0.569593
vt 0.405527 0.576065
vt 0.399923 0.579301
vt 0.394318 0.576065
vt 0.423629 0.519401
vt 0.430101 0.519401
vt 0.433337 0.525006
vt 0.430101 0.530611
vt 0.423629 0.530611
vt 0.420393 0.525006
vn 0.0000 -0.0000 1.0000
usemtl None.002
s 1
f 1/1/1 2/2/1 3/3/1 4/4/1 5/5/1 6/6/1
f 7/7/1 8/8/1 9/9/1 10/10/1 11/11/1 12/12/1
f 13/13/1 14/14/1 15/15/1 16/16/1 17/17/1 18/18/1
f 19/19/1 20/20/1 21/21/1 22/22/1 23/23/1 24/24/1
f 25/25/1 26/26/1 27/27/1 28/28/1 29/29/1 30/30/1
f 31/31/1 32/32/1 33/33/1 34/34/1 35/35/1 36/36/1
f 37/37/1 38/38/1 39/39/1 40/40/1 41/41/1 42/42/1
f 43/43/1 44/44/1 45/45/1 46/46/1 47/47/1 48/48/1
f 49/49/1 50/50/1 51/51/1 52/52/1 53/53/1 54/54/1
f 55/55/1 56/56/1 57/57/1 58/58/1 59/59/1 60/60/1
f 61/61/1 62/62/1 63/63/1 64/64/1 65/65/1 66/66/1
f 67/67/1 68/68/1 69/69/1 70/70/1 71/71/1 72/72/1
f 73/73/1 74/74/1 75/75/1 76/76/1 77/77/1 78/78/1
f 79/79/1 80/80/1 81/81/1 82/82/1 83/83/1 84/84/1
f 85/85/1 86/86/1 87/87/1 88/88/1 89/89/1 90/90/1
f 91/91/1 92/92/1 93/93/1 94/94/1 95/95/1 96/96/1
f 97/97/1 98/98/1 99/99/1 100/100/1 101/101/1 102/102/1
f 103/103/1 104/104/1 105/105/1 106/106/1 107/107/1 108/108/1
f 109/109/1 110/110/1 111/111/1 112/112/1 113/113/1 114/114/1
f 115/115/1 116/116/1 117/117/1 118/118/1 119/119/1 120/120/1
f 121/121/1 122/122/1 123/123/1 124/124/1 125/125/1 126/126/1
f 127/127/1 128/128/1 129/129/1 130/130/1 131/131/1 132/132/1
f 133/133/1 134/134/1 135/135/1 136/136/1 137/137/1 138/138/1
f 139/139/1 140/140/1 141/141/1 142/142/1 143/143/1 144/144/1
f 145/145/1 146/146/1 147/147/1 148/148/1 149/149/1 150/150/1
f 151/151/1 152/152/1 153/153/1 154/154/1 155/155/1 156/156/1
f 157/157/1 158/158/1 159/159/1 160/160/1 161/161/1 162/162/1
f 163/163/1 164/164/1 165/165/1 166/166/1 167/167/1 168/168/1
f 169/169/1 170/170/1 171/171/1 172/172/1 173/173/1 174/174/1
f 175/175/1 176/176/1 177/177/1 178/178/1 179/179/1 180/180/1
f 181/181/1 182/182/1 183/183/1 184/184/1 185/185/1 186/186/1
f 187/187/1 188/188/1 189/189/1 190/190/1 191/191/1 192/192/1
f 193/193/1 194/194/1 195/195/1 196/196/1 197/197/1 198/198/1
f 199/199/1 200/200/1 201/201/1 202/202/1 203/203/1 204/204/1
f 205/205/1 206/206/1 207/207/1 208/208/1 209/209/1 210/210/1
f 211/211/1 212/212/1 213/213/1 214/214/1 215/215/1 216/216/1
f 217/217/1 218/218/1 219/219/1 220/220/1 221/221/1 222/222/1
f 223/223/1 224/224/1 225/225/1 226/226/1 227/227/1 228/228/1
f 229/229/1 230/230/1 231/231/1 232/232/1 233/233/1 234/234/1
