# Blender v2.90.1 OBJ File: 'GT_Basic_Blocks_3.blend'
# www.blender.org
v 1.382526 1.681273 2.760631
v 2.162294 1.681273 2.162294
v 3.136761 1.681273 0.474467
v -0.450000 -0.500000 3.442986
v -0.450361 -0.450000 3.493465
v -0.492582 -0.474540 3.447758
v -0.492601 -0.450000 3.473617
v -0.486973 -0.473763 3.471610
v -0.448998 -0.492582 3.467606
v -0.474540 -0.492582 3.445227
v -0.473426 -0.487027 3.469710
v -0.474777 -0.450000 3.489225
v -0.449128 -0.474540 3.485822
v -0.473533 -0.473763 3.483384
v -0.500000 -0.450000 2.550000
v -0.450000 -0.500000 2.550000
v -0.493320 -0.474967 2.550000
v -0.486832 -0.473911 2.526090
v -0.474967 -0.493320 2.550000
v -0.473911 -0.486832 2.526090
v 3.493465 -0.450000 -0.450361
v 3.442986 -0.500000 -0.450000
v 3.474182 -0.450000 -0.493434
v 3.448976 -0.474967 -0.493254
v 3.472127 -0.473911 -0.486879
v 3.486634 -0.474967 -0.450247
v 3.490136 -0.450000 -0.475214
v 3.483359 -0.473911 -0.474051
v 3.446401 -0.493320 -0.474901
v 3.468105 -0.493320 -0.450114
v 3.470314 -0.486832 -0.473958
v 3.363703 -0.450000 0.535276
v 3.339347 -0.493301 0.528750
v 3.357177 -0.475000 0.533528
v 2.964102 -0.450000 1.500000
v 2.958251 -0.475000 1.496622
v 2.328427 -0.450000 2.328427
v 2.310597 -0.493301 2.310597
v 2.323649 -0.475000 2.323649
v 1.500000 -0.450000 2.964102
v 1.496622 -0.475000 2.958250
v 0.535276 -0.450000 3.363703
v 0.528750 -0.493301 3.339347
v 0.533528 -0.475000 3.357177
v -0.500000 1.667068 3.216982
v -0.450315 1.681273 3.258511
v -0.493344 1.674171 3.240140
v -0.475158 1.679370 3.255341
v -0.500000 1.549998 2.550000
v -0.493301 1.524998 2.525000
v 3.216982 1.667069 -0.500000
v 3.258511 1.681273 -0.450315
v 3.240140 1.674171 -0.493344
v 3.255341 1.679370 -0.475158
v 2.550000 -0.450000 -0.500000
v 2.550000 -0.500000 -0.450000
v 2.550000 -0.474967 -0.493320
v 2.526090 -0.473911 -0.486831
v 2.526090 -0.486832 -0.473910
v 2.525000 1.524997 -0.493301
v -0.500000 -0.449993 3.454699
v 2.550000 1.549998 -0.500000
v 3.454699 -0.449993 -0.500000
vt 0.130207 0.857062
vt 0.263772 0.804275
vt 0.130178 0.804275
vt 0.263743 0.857062
vt 0.182751 0.804906
vt 0.640289 0.820211
vt 0.636006 0.840024
vt 0.236676 0.804906
vt 0.632265 0.884174
vt 0.633226 0.906487
vt 0.211199 0.804906
vt 0.640304 0.948024
vt 0.285248 0.780657
vt 0.285719 0.780530
vt 0.275185 0.755097
vt 0.185207 0.703048
vt 0.184533 0.703639
vt 0.185181 0.703698
vt 0.185171 0.804906
vt 0.184559 0.804279
vt 0.185204 0.804258
vt 0.184056 0.804906
vt 0.184526 0.804906
vt 0.184204 0.702942
vt 0.184562 0.702993
vt 0.184559 0.702632
vt 0.184549 0.727911
vt 0.263772 0.807135
vt 0.264404 0.806503
vt 0.288707 0.807136
vt 0.288075 0.807161
vt 0.288143 0.807645
vt 0.209917 0.804906
vt 0.209405 0.804275
vt 0.209744 0.804275
vt 0.208779 0.804906
vt 0.209436 0.804906
vt 0.184037 0.727280
vt 0.184208 0.727911
vt 0.288649 0.806506
vt 0.287985 0.806503
vt 0.000000 0.000000
vt 0.288755 0.807477
vt 0.289051 0.807138
vt 0.157275 0.804906
vt 0.289138 0.806510
vt 0.185204 0.702567
vt 0.640736 0.949568
vt 0.105656 0.804907
vt 0.258081 0.733602
vt 0.258426 0.733257
vt 0.236586 0.716499
vt 0.135524 0.804246
vt 0.258552 0.804906
vt 0.000000 0.000000
vt 0.640430 0.819685
vt 0.157364 0.804246
vt 0.182797 0.804246
vt 0.000000 0.000000
vt 0.640729 0.818659
vt 0.640572 0.819179
vt 0.640581 0.949051
vt 0.640442 0.948547
vt 0.211153 0.804246
vt 0.184521 0.727280
vt 0.185181 0.727280
vt 0.263772 0.807476
vt 0.105839 0.804258
vt 0.129547 0.804906
vt 0.129547 0.804247
vt 0.000000 0.000000
vt 0.105209 0.804279
vt 0.105156 0.804906
vt 0.000000 0.000000
vt 0.288143 0.804247
vt 0.264404 0.804906
vt 0.288295 0.804907
vt 0.000000 0.000000
vt 0.264404 0.857722
vt 0.288755 0.804275
vt 0.000000 0.000000
vt 0.288809 0.804906
vt 0.000000 0.000000
vt 0.184204 0.804279
vt 0.264404 0.807647
vt 0.208776 0.804247
vt 0.184056 0.703572
vt 0.211027 0.706435
vt 0.000000 0.000000
vt 0.135398 0.804906
vt 0.211153 0.705964
vt 0.236586 0.804246
vt 0.129547 0.857722
vt 0.000000 0.000000
vt 0.264404 0.804247
vn -0.7071 -0.0027 -0.7071
vn 0.9631 -0.0759 0.2581
vn 0.9940 0.1096 0.0011
vn 0.9443 0.1322 0.3013
vn 0.4986 -0.0758 0.8635
vn 0.7331 0.1322 0.6671
vn 0.4558 0.1316 0.8803
vn 0.2581 -0.0683 0.9637
vn 0.0510 0.1326 0.9899
vn 0.3955 -0.9121 0.1076
vn 0.8401 -0.4936 0.2251
vn 0.8343 -0.2683 0.4817
vn -0.0517 -0.8642 0.5005
vn -0.4894 -0.8642 0.1168
vn -0.1275 -0.9810 0.1461
vn -0.0147 -0.0870 0.9961
vn -0.3583 -0.4666 0.8087
vn 0.0059 -0.5139 0.8578
vn -0.8142 -0.0849 0.5743
vn -0.4222 -0.0685 0.9039
vn -0.7477 -0.4729 0.4661
vn -0.3875 -0.8088 0.4423
vn -0.5072 -0.7778 -0.3713
vn -0.3104 -0.7987 -0.5154
vn -0.0684 -0.9670 -0.2453
vn 0.4602 -0.7910 -0.4031
vn 0.1237 -0.8687 -0.4797
vn 0.1179 -0.5067 -0.8540
vn 0.5536 -0.1007 -0.8267
vn 0.8050 -0.4659 -0.3674
vn 0.4753 -0.4716 -0.7428
vn 0.9969 -0.0792 -0.0031
vn 0.9115 -0.0830 -0.4028
vn -0.8630 -0.4900 -0.1232
vn -0.7887 -0.4800 -0.3842
vn 0.4918 -0.8686 -0.0598
vn 0.1266 -0.9858 -0.1104
vn 0.8640 -0.0678 0.4989
vn 0.8673 -0.4976 -0.0130
vn -0.9898 0.0124 0.1417
vn -0.9735 -0.1347 0.1847
vn 0.4978 -0.7101 0.4978
vn 0.6150 -0.4936 0.6150
vn 0.4817 -0.2683 0.8343
vn 0.7051 -0.0758 0.7051
vn -0.9968 -0.0794 0.0058
vn 0.9144 0.1008 -0.3921
vn 0.1415 0.0127 -0.9899
vn 0.5593 0.0617 -0.8266
vn -0.8266 0.0612 0.5595
vn -0.3922 0.1006 0.9144
vn 0.2247 -0.4936 0.8402
vn -0.4901 -0.8629 -0.1234
vn -0.1605 -0.9823 -0.0969
vn -0.3842 -0.4800 -0.7887
vn -0.8476 -0.5213 0.0991
vn -0.9713 -0.0998 -0.2161
vn -0.1871 0.9753 -0.1176
vn -0.1577 0.8984 -0.4099
vn -0.1272 0.9907 -0.0486
vn -0.2163 -0.0997 -0.9712
vn 0.1687 -0.1297 -0.9771
vn -0.6280 0.4597 -0.6280
vn 0.0058 -0.0794 -0.9968
vn -0.0625 0.9801 -0.1885
vn -0.0589 0.9939 -0.0928
vn -0.0550 0.9894 -0.1347
vn -0.4100 0.8984 -0.1577
vn -0.1176 0.9753 -0.1871
vn 0.0110 -0.9999 0.0110
vn 0.1023 -0.9930 0.0590
vn -0.0988 -0.5655 -0.8188
vn 0.1074 -0.9121 0.3956
vn 0.0590 -0.9930 0.1023
vn -0.9496 -0.3086 0.0542
vn 0.0542 -0.3086 -0.9496
vn -0.0658 0.9959 -0.0626
vn -0.1300 0.9900 -0.0551
vn -0.1890 0.9808 -0.0489
vn -0.2832 0.9583 -0.0373
vn -0.0373 0.9583 -0.2832
s off
f 50/1/1 58/2/1 18/3/1
f 50/1/1 60/4/1 58/2/1
s 1
f 32/5/2 52/6/3 3/7/4
f 40/8/5 2/9/6 1/10/7
f 42/11/8 1/10/7 46/12/9
f 33/13/10 34/14/11 36/15/12
f 9/16/13 10/17/14 4/18/15
f 5/19/16 14/20/17 13/21/18
f 7/22/19 14/20/17 12/23/20
f 8/24/21 11/25/22 14/26/17
f 20/27/23 59/28/24 56/29/25
f 31/30/26 29/31/27 24/32/28
f 23/33/29 28/34/30 25/35/31
f 21/36/32 28/34/30 27/37/33
f 17/38/34 18/39/35 20/27/23
f 29/31/27 30/40/36 22/41/37
f 56/42/25 22/41/37 33/13/10
f 25/43/31 28/44/30 31/30/26
f 2/9/6 35/45/38 3/7/4
f 26/46/39 34/14/11 30/40/36
f 13/47/18 14/26/17 11/25/22
f 7/22/19 45/48/40 61/49/41
f 38/50/42 39/51/43 41/52/44
f 39/53/43 35/45/38 37/54/45
f 61/49/41 45/55/40 50/1/46
f 54/56/47 21/36/32 27/37/33
f 35/45/38 36/57/12 34/58/11
f 23/59/29 51/60/48 53/61/49
f 12/23/20 47/62/50 7/22/19
f 5/19/16 48/63/51 12/23/20
f 44/64/52 40/8/5 42/11/8
f 53/61/49 27/37/33 23/33/29
f 4/18/15 19/65/53 16/66/54
f 20/27/23 58/67/55 59/28/24
f 6/68/56 15/69/57 17/70/34
f 61/71/41 8/72/21 7/73/19
f 53/61/58 51/60/59 62/74/60
f 24/75/28 55/76/61 63/77/62
f 60/4/63 49/78/63 62/79/63
f 25/80/31 63/81/62 23/82/29
f 63/77/62 55/76/61 60/4/64
f 46/83/65 1/10/66 49/78/67
f 45/48/68 47/62/69 49/78/67
f 32/5/2 21/36/32 52/6/3
f 40/8/5 37/54/45 2/9/6
f 46/12/9 5/19/16 42/11/8
f 42/11/8 40/8/5 1/10/7
f 39/51/43 38/50/42 36/15/12
f 38/50/70 33/13/10 36/15/71
f 9/16/13 11/25/22 10/17/14
f 5/19/16 12/23/20 14/20/17
f 7/22/19 8/84/21 14/20/17
f 59/28/24 29/31/27 56/29/25
f 29/31/27 22/41/37 56/29/25
f 56/29/25 16/66/54 20/27/23
f 16/66/54 19/65/53 20/27/23
f 58/67/55 57/85/72 59/28/24
f 57/85/72 24/32/28 29/31/27
f 59/28/24 57/85/72 29/31/27
f 24/32/28 25/43/31 31/30/26
f 23/33/29 27/37/33 28/34/30
f 21/36/32 26/86/39 28/34/30
f 20/27/23 19/65/53 17/38/34
f 19/65/53 10/17/14 17/38/34
f 10/17/14 11/25/22 6/87/56
f 11/25/22 8/24/21 6/87/56
f 6/87/56 17/38/34 10/17/14
f 29/31/27 31/30/26 30/40/36
f 22/41/37 30/40/36 33/13/10
f 33/13/10 38/50/70 56/42/25
f 38/50/70 43/88/73 16/89/54
f 43/88/73 9/16/13 4/18/15
f 4/18/15 16/89/54 43/88/73
f 16/89/54 56/42/25 38/50/70
f 37/90/45 35/45/38 2/9/6
f 35/45/38 32/5/2 3/7/4
f 34/14/11 33/13/10 30/40/36
f 30/40/36 31/30/26 26/46/39
f 31/30/26 28/44/30 26/46/39
f 11/25/22 9/16/13 13/47/18
f 9/16/13 43/88/73 44/91/52
f 13/47/18 9/16/13 44/91/52
f 7/22/19 47/62/50 45/48/40
f 44/91/52 43/88/73 41/52/44
f 43/88/73 38/50/70 41/52/74
f 39/53/43 36/57/12 35/45/38
f 37/54/45 40/8/5 39/53/43
f 40/8/5 41/92/44 39/53/43
f 45/55/40 49/93/75 50/1/46
f 50/1/46 18/3/35 15/69/57
f 18/3/35 17/70/34 15/69/57
f 15/69/57 61/49/41 50/1/46
f 54/56/47 52/6/3 21/36/32
f 34/58/11 26/86/39 32/5/2
f 26/86/39 21/36/32 32/5/2
f 32/5/2 35/45/38 34/58/11
f 23/59/29 63/77/62 51/60/48
f 12/23/20 48/63/51 47/62/50
f 5/19/16 46/12/9 48/63/51
f 5/19/16 13/21/18 42/11/8
f 13/21/18 44/64/52 42/11/8
f 44/64/52 41/92/44 40/8/5
f 53/61/49 54/56/47 27/37/33
f 4/18/15 10/17/14 19/65/53
f 20/27/23 18/94/35 58/67/55
f 6/68/56 61/49/41 15/69/57
f 61/71/41 6/68/56 8/72/21
f 24/75/28 57/95/72 55/76/61
f 60/4/63 50/1/63 49/78/63
f 25/80/31 24/75/28 63/81/62
f 57/95/72 58/2/55 55/76/61
f 58/2/55 60/4/64 55/76/61
f 60/4/64 62/79/76 51/60/48
f 51/60/48 63/77/62 60/4/64
f 1/10/66 2/9/77 49/78/67
f 2/9/77 3/7/78 62/74/60
f 3/7/78 52/6/79 62/74/60
f 52/6/79 54/56/80 53/61/58
f 62/74/60 52/6/79 53/61/58
f 62/74/60 49/78/67 2/9/77
f 49/78/67 47/62/69 46/83/65
f 47/62/69 48/63/81 46/83/65
