# Blender v2.90.1 OBJ File: 'GT_Basic_Blocks_3.blend'
# www.blender.org
v 0.121668 2.404583 1.820095
v 0.172036 2.124863 2.008073
v 1.050754 2.499990 1.050754
v 1.198427 2.404583 1.198427
v 1.336037 2.124863 1.336037
v 1.820095 2.404583 0.121667
v 2.008073 2.124863 0.172036
v -0.450361 -0.450000 2.493465
v -0.500000 -0.450000 2.450000
v -0.450000 -0.500000 2.442986
v -0.474777 -0.450000 2.489225
v -0.449128 -0.474540 2.485821
v -0.473533 -0.473763 2.483384
v -0.492582 -0.474540 2.447758
v -0.492601 -0.450000 2.473617
v -0.486973 -0.473763 2.471610
v -0.448998 -0.492582 2.467606
v -0.474540 -0.492582 2.445227
v -0.473426 -0.487027 2.469711
v -0.450224 2.499990 -0.450224
v -0.450000 2.449990 -0.500000
v -0.500000 2.449990 -0.450000
v -0.474652 2.492573 -0.450153
v -0.473844 2.487019 -0.473844
v -0.450072 2.474535 -0.492612
v -0.473809 2.473763 -0.487054
v -0.492612 2.474535 -0.450072
v -0.487054 2.473762 -0.473809
v 2.442986 -0.500000 -0.450000
v 2.450000 -0.450000 -0.500000
v 2.493465 -0.450000 -0.450361
v 2.446401 -0.493320 -0.474901
v 2.468105 -0.493320 -0.450114
v 2.470314 -0.486832 -0.473958
v 2.474182 -0.450000 -0.493434
v 2.448976 -0.474967 -0.493254
v 2.472126 -0.473911 -0.486879
v 2.486634 -0.474967 -0.450246
v 2.490136 -0.450000 -0.475214
v 2.483359 -0.473911 -0.474051
v 2.397778 -0.450000 0.276457
v 2.391252 -0.475000 0.274708
v 2.098076 -0.450000 1.000000
v 2.076239 -0.493301 0.987392
v 2.092225 -0.475000 0.996622
v 1.621320 -0.450000 1.621320
v 1.616543 -0.475000 1.616543
v 1.000000 -0.450000 2.098076
v 0.987392 -0.493301 2.076238
v 0.996622 -0.475000 2.092224
v 0.276457 -0.450000 2.397778
v 0.274708 -0.475000 2.391251
v 1.686545 2.499990 -0.450233
v 1.686779 2.474990 -0.493333
v 1.688363 2.493291 -0.475117
v 1.868712 2.364792 -0.500000
v 1.895390 2.404583 -0.450258
v 1.884448 2.384687 -0.493336
v 1.894213 2.399252 -0.475129
v 2.382014 1.098872 -0.475168
v -0.475157 1.677981 2.253955
v -0.450288 2.124863 2.090004
v -0.493340 2.113149 2.073366
v -0.475144 2.121724 2.087300
v -0.500000 2.364791 1.868712
v -0.450258 2.404583 1.895390
v -0.493336 2.384687 1.884449
v -0.475129 2.399252 1.894213
v 2.090004 2.124863 -0.450289
v 2.073367 2.113149 -0.493340
v 2.087300 2.121724 -0.475145
v 1.553845 -0.500000 -0.450000
v 1.554020 -0.474967 -0.493320
v 1.530083 -0.473911 -0.486831
v 1.530031 -0.486832 -0.473910
v -0.450000 -0.500000 1.550000
v -0.474967 -0.493320 1.550000
v -0.473911 -0.486832 1.526090
v -0.486832 -0.473911 1.526090
v -0.500000 1.549994 -0.449999
v -0.493320 1.549993 -0.474967
v -0.486832 1.526083 -0.473910
v -0.474967 1.549993 -0.493320
v -0.473911 1.526083 -0.486831
v -0.450233 2.499990 1.686545
v -0.493333 2.474990 1.686779
v -0.475117 2.493291 1.688364
v 1.550000 -0.450000 -0.500000
v -0.449999 1.549993 -0.500000
vt 0.000000 0.000000
vt 0.000000 0.000000
vt 0.000000 0.000000
vt 0.000000 0.000000
vt 0.274190 0.752544
vt 0.000000 0.000000
vt 0.286883 0.796297
vt 0.644160 0.824807
vt 0.620924 0.818262
vt 0.188400 0.864216
vt 0.000000 0.000000
vt 0.187588 0.863404
vt 0.187588 0.734250
vt 0.000000 0.000000
vt 0.187149 0.802170
vt 0.000000 0.000000
vt 0.000000 0.000000
vt 0.000000 0.000000
vt 0.256456 0.802829
vt 0.000000 0.000000
vt 0.187552 0.864216
vt 0.000000 0.000000
vt 0.255641 0.795046
vt 0.188429 0.701658
vt 0.188434 0.702277
vt 0.213011 0.704870
vt 0.656459 0.825845
vt 0.651171 0.825713
vt 0.188400 0.894780
vt 0.651080 0.915824
vt 0.641562 0.903558
vt 0.649720 0.902636
vt 0.643895 0.917877
vt 0.644000 0.918412
vt 0.287704 0.796297
vt 0.000000 0.000000
vt 0.105141 0.796297
vt 0.104339 0.796297
vt 0.633880 0.920851
vt 0.649733 0.840435
vt 0.651150 0.827448
vt 0.656838 0.827146
vt 0.287498 0.801362
vt 0.288127 0.801366
vt 0.179013 0.795448
vt 0.187558 0.796297
vt 0.188388 0.796297
vt 0.237213 0.715567
vt 0.639446 0.871471
vt 0.647867 0.871458
vt 0.154383 0.796297
vt 0.641696 0.839513
vt 0.204481 0.796297
vt 0.203637 0.796297
vt 0.643944 0.825891
vt 0.188392 0.801365
vt 0.239365 0.750392
vt 0.260956 0.801366
vt 0.651148 0.826298
vt 0.186953 0.796297
vt 0.187601 0.795490
vt 0.104407 0.795490
vt 0.187567 0.703036
vt 0.188400 0.703113
vt 0.187604 0.702205
vt 0.187601 0.701741
vt 0.187144 0.702141
vt 0.286761 0.802203
vt 0.286645 0.801358
vt 0.256450 0.801358
vt 0.203630 0.896226
vt 0.204434 0.896038
vt 0.204433 0.895587
vt 0.203624 0.894780
vt 0.204472 0.864216
vt 0.274733 0.752231
vt 0.258579 0.731178
vt 0.237642 0.796297
vt 0.651083 0.917578
vt 0.204883 0.895587
vt 0.287635 0.795485
vt 0.286848 0.795449
vt 0.205099 0.796297
vt 0.204441 0.795485
vt 0.204877 0.795485
vt 0.287573 0.802171
vt 0.288016 0.802175
vt 0.287635 0.802610
vt 0.187149 0.863404
vt 0.286848 0.802827
vt 0.186954 0.702951
vt 0.261018 0.896251
vt 0.260964 0.895629
vt 0.188397 0.895614
vt 0.000000 0.000000
vt 0.203633 0.795449
vt 0.178954 0.796297
vt 0.237527 0.715024
vt 0.651067 0.916987
vt 0.651070 0.916412
vt 0.643794 0.917319
vt 0.131060 0.895629
vt 0.651146 0.826866
vt 0.656676 0.826493
vt 0.653840 0.871482
vt 0.187590 0.802167
vt 0.261018 0.802211
vt 0.154497 0.795448
vt 0.644050 0.825338
vt 0.136517 0.795485
vt 0.203624 0.864216
vt 0.187591 0.895587
vt 0.187552 0.733438
vt 0.188400 0.733438
vt 0.188429 0.795464
vt 0.213070 0.796297
vt 0.656437 0.917511
vt 0.656665 0.916857
vt 0.656838 0.916198
vt 0.187563 0.801363
vt 0.188392 0.728801
vt 0.237527 0.795448
vt 0.258741 0.796297
vt 0.133283 0.796297
vt 0.187144 0.795490
vt 0.105217 0.795464
vt 0.203627 0.895614
vt 0.131006 0.896251
vt 0.255643 0.795485
vt 0.187149 0.734250
vt 0.187590 0.896038
vt 0.133445 0.795448
vt 0.213011 0.795448
vt 0.187547 0.728739
vt 0.256319 0.796297
vt 0.258579 0.795448
vn 0.0063 -1.0000 0.0063
vn 0.0454 -0.9861 0.1601
vn 0.1601 -0.9861 0.0454
vn 0.1292 0.0216 -0.9914
vn -0.2566 -0.2566 -0.9318
vn -0.5773 -0.5774 -0.5774
vn -0.9862 0.0266 0.1633
vn -0.2623 -0.2886 -0.9208
vn -0.2762 -0.2768 -0.9204
vn -0.2493 -0.2639 -0.9318
vn -0.5770 -0.5781 -0.5770
vn -0.5758 -0.5770 -0.5793
vn -0.5766 -0.5777 -0.5777
vn 0.0058 -0.5138 0.8579
vn -0.0479 -0.8658 0.4982
vn 0.2477 -0.2798 0.9275
vn 0.0983 0.4435 -0.8909
vn 0.0952 0.1137 -0.9889
vn -0.2090 0.1134 -0.9713
vn -0.0528 0.7661 0.6405
vn 0.3100 0.3869 0.8685
vn 0.2048 0.7873 0.5815
vn -0.4197 0.4208 0.8042
vn -0.8851 0.2108 0.4149
vn 0.1791 0.2074 0.9617
vn 0.5252 -0.1117 -0.8436
vn 0.1375 -0.1285 -0.9821
vn 0.9599 0.1643 0.2271
vn -0.9801 -0.1327 0.1477
vn -0.8333 -0.0857 0.5462
vn 0.5815 0.7873 0.2048
vn 0.6405 0.7661 -0.0528
vn 0.2120 0.9724 -0.0976
vn 0.4895 -0.8702 -0.0559
vn 0.8673 -0.4976 -0.0130
vn 0.9273 -0.2801 0.2482
vn -0.4222 -0.0682 0.9039
vn -0.0142 -0.0859 0.9962
vn 0.0438 -0.9981 0.0438
vn 0.0119 -0.9999 0.0119
vn 0.6553 0.3756 0.6553
vn 0.4705 0.7465 0.4705
vn 0.4280 0.1953 -0.8825
vn 0.8649 -0.0506 0.4994
vn 0.8695 0.3874 0.3064
vn 0.9094 -0.1010 -0.4036
vn 0.9952 -0.0979 -0.0024
vn 0.9033 0.4287 -0.0153
vn -0.1131 0.9706 -0.2125
vn 0.1734 0.9695 0.1734
vn 0.3508 0.4109 -0.8415
vn -0.3582 -0.4666 0.8087
vn -0.7545 -0.4667 0.4613
vn -0.4894 -0.8642 0.1168
vn -0.1417 -0.9764 0.1630
vn -0.3875 -0.8088 0.4423
vn 0.1237 -0.8687 -0.4797
vn 0.1414 -0.9824 -0.1217
vn -0.0694 -0.9666 -0.2469
vn -0.5069 0.8554 -0.1062
vn -0.3906 0.8028 -0.4505
vn -0.7989 0.3678 -0.4758
vn -0.9713 0.1134 -0.2090
vn -0.8627 -0.1221 -0.4908
vn 0.6097 -0.7101 0.3520
vn 0.7532 -0.4936 0.4348
vn 0.6807 -0.2708 0.6807
vn 0.4994 -0.0506 0.8649
vn -0.9889 0.1137 0.0952
vn -0.4758 0.3680 -0.7989
vn 0.4703 -0.4659 -0.7495
vn 0.1265 -0.4975 -0.8582
vn 0.8050 -0.4659 -0.3674
vn 0.4602 -0.7910 -0.4031
vn -0.5686 -0.0681 -0.8198
vn -0.6901 -0.2178 -0.6901
vn -0.8563 -0.2493 -0.4522
vn -0.0321 -0.6521 -0.7574
vn -0.8519 -0.5131 0.1047
vn 0.1925 0.8580 -0.4761
vn -0.0835 0.5685 -0.8184
vn 0.9605 -0.0678 0.2699
vn 0.4348 -0.4936 0.7532
vn 0.3520 -0.7101 0.6097
vn -0.8415 0.4109 0.3508
vn -0.4412 0.6851 0.5797
vn -0.0163 0.4615 0.8870
vn -0.8909 0.4435 0.0983
vn 0.5797 0.6851 -0.4412
vn 0.8220 0.3898 -0.4152
vn -0.9589 -0.2775 -0.0594
vn -0.9819 -0.0979 -0.1620
vn -0.5660 -0.8185 -0.0984
vn -0.1620 -0.9819 -0.0979
vn 0.2643 -0.0618 0.9625
vn -0.4761 0.8581 0.1924
vn -0.0976 0.9724 0.2119
vn 0.7061 -0.0533 0.7061
vn -0.1042 -0.0000 -0.9946
vn 0.0000 -0.0978 -0.9952
vn -0.4522 -0.8563 -0.2495
vn -0.1521 -0.8766 -0.4566
vn -0.8574 0.5036 -0.1061
vn 0.1068 -0.9885 0.1068
vn -0.2176 -0.6897 -0.6906
s off
f 49/1/1 10/2/1 29/3/1
f 52/4/2 10/2/2 49/1/2
f 44/5/3 29/3/3 42/6/3
f 30/7/4 70/8/4 60/9/4
f 89/10/5 88/11/5 84/12/5
f 78/13/6 79/14/6 82/15/6
f 63/16/7 9/17/7 61/18/7
f 73/19/8 74/20/8 88/11/8
f 74/20/9 84/12/9 88/11/9
f 84/12/10 83/21/10 89/10/10
f 82/15/11 84/22/11 74/20/11
f 74/20/12 75/23/12 82/15/12
f 75/23/13 78/13/13 82/15/13
s 1
f 12/24/14 17/25/15 52/26/16
f 54/27/17 56/28/18 21/29/19
f 66/30/20 2/31/21 1/32/22
f 64/33/23 63/34/24 61/18/25
f 35/35/26 30/7/27 60/36/28
f 9/37/29 15/38/30 61/39/25
f 6/40/31 57/41/32 53/42/33
f 33/43/34 38/44/35 42/45/36
f 11/46/37 8/47/38 61/18/25
f 49/48/39 29/3/1 44/5/40
f 1/32/22 5/49/41 4/50/42
f 30/7/27 56/28/18 70/8/43
f 5/49/41 43/51/44 7/52/45
f 39/53/46 60/9/28 31/54/47
f 4/50/42 7/52/45 6/40/31
f 57/41/32 7/52/45 69/55/48
f 20/56/49 3/57/50 53/58/33
f 56/28/18 58/59/51 70/8/43
f 15/60/30 13/61/52 11/46/37
f 9/37/29 16/62/53 15/38/30
f 69/55/48 7/52/45 60/36/28
f 17/25/15 18/63/54 10/64/55
f 12/24/14 19/65/56 17/25/15
f 13/66/52 16/67/53 19/65/56
f 32/68/57 29/69/58 72/70/59
f 23/71/60 24/72/61 28/73/62
f 22/74/63 28/73/62 81/75/64
f 44/5/65 45/76/66 47/77/67
f 2/31/21 48/78/68 5/49/41
f 65/79/69 9/37/29 63/16/24
f 24/72/61 26/80/70 28/73/62
f 32/68/57 33/43/34 29/69/58
f 30/7/27 37/81/71 36/82/72
f 35/83/26 40/84/73 37/85/71
f 31/54/47 40/84/73 39/53/46
f 38/44/35 34/86/74 40/87/73
f 34/86/74 37/88/71 40/87/73
f 83/21/75 84/12/76 82/89/77
f 73/19/78 36/90/72 32/68/57
f 19/65/56 16/67/53 14/91/79
f 55/92/80 54/93/17 25/94/81
f 10/64/55 72/95/59 29/69/58
f 38/96/35 41/97/82 42/45/36
f 50/98/83 52/26/16 49/1/84
f 67/99/85 64/33/23 68/100/86
f 68/100/86 62/101/87 66/30/20
f 52/26/16 17/25/15 10/64/55
f 65/79/69 67/99/85 86/102/88
f 54/27/17 59/103/89 58/59/51
f 55/104/80 57/41/32 59/103/89
f 62/101/87 61/39/25 2/31/21
f 1/32/22 4/50/42 3/105/50
f 24/106/61 20/56/49 55/107/80
f 67/99/85 65/79/69 63/16/24
f 45/108/66 41/97/82 43/51/44
f 70/8/43 71/109/90 60/9/28
f 82/15/77 79/110/91 80/111/92
f 26/112/70 25/94/81 21/29/19
f 45/76/66 44/5/65 42/6/36
f 58/59/51 71/109/90 70/8/43
f 59/103/89 69/55/48 71/109/90
f 10/64/55 77/113/93 76/114/94
f 35/35/26 60/36/28 39/53/46
f 12/115/14 8/47/38 13/61/52
f 15/60/30 11/46/37 61/39/25
f 7/52/45 41/97/82 60/36/28
f 10/64/55 76/114/94 72/95/59
f 29/69/58 33/43/34 42/45/36
f 60/36/28 41/97/82 31/54/47
f 51/116/95 61/18/25 8/47/38
f 86/117/88 68/100/86 87/118/96
f 87/118/96 66/30/20 85/119/97
f 71/109/90 69/55/48 60/36/28
f 23/120/60 85/121/97 20/56/49
f 73/19/78 30/7/27 36/82/72
f 64/33/23 61/39/25 62/101/87
f 50/122/83 46/123/98 48/78/68
f 65/79/69 80/111/92 9/37/29
f 89/10/99 56/28/18 88/11/100
f 21/29/19 25/94/81 54/27/17
f 54/27/17 58/59/51 56/28/18
f 66/30/20 62/101/87 2/31/21
f 53/42/33 3/105/50 6/40/31
f 3/105/50 4/50/42 6/40/31
f 1/32/22 2/31/21 5/49/41
f 46/124/98 43/51/44 5/49/41
f 43/51/44 41/97/82 7/52/45
f 4/50/42 5/49/41 7/52/45
f 57/41/32 6/40/31 7/52/45
f 20/56/49 85/121/97 3/57/50
f 15/60/30 16/125/53 13/61/52
f 9/37/29 14/126/79 16/62/53
f 17/25/15 19/65/56 18/63/54
f 12/24/14 13/66/52 19/65/56
f 72/70/59 76/114/94 78/13/101
f 76/114/94 77/113/93 78/13/101
f 78/13/101 75/23/102 72/70/59
f 75/23/102 32/68/57 72/70/59
f 28/73/62 27/127/103 23/71/60
f 27/127/103 86/102/88 23/71/60
f 86/102/88 87/128/96 23/71/60
f 81/75/64 80/111/92 22/74/63
f 22/74/63 27/127/103 28/73/62
f 50/98/83 49/48/84 47/77/67
f 49/48/39 44/5/40 47/77/104
f 51/116/95 48/78/68 2/31/21
f 48/78/68 46/123/98 5/49/41
f 32/68/57 34/86/74 33/43/34
f 30/7/27 35/35/26 37/81/71
f 35/83/26 39/53/46 40/84/73
f 31/54/47 38/96/35 40/84/73
f 38/44/35 33/43/34 34/86/74
f 82/89/77 81/75/64 83/21/75
f 81/75/64 28/73/62 83/21/75
f 28/73/62 26/80/70 83/21/75
f 34/86/74 32/68/57 36/90/72
f 32/68/57 75/23/102 73/19/78
f 34/86/74 36/90/72 37/88/71
f 75/23/102 74/129/105 73/19/78
f 78/13/101 77/113/93 79/130/91
f 77/113/93 18/63/54 14/91/79
f 79/130/91 77/113/93 14/91/79
f 18/63/54 19/65/56 14/91/79
f 26/112/70 24/131/61 25/94/81
f 24/131/61 55/92/80 25/94/81
f 38/96/35 31/54/47 41/97/82
f 67/99/85 63/34/24 64/33/23
f 68/100/86 64/33/23 62/101/87
f 27/127/103 22/74/63 86/102/88
f 22/74/63 65/79/69 86/102/88
f 54/27/17 55/104/80 59/103/89
f 55/104/80 53/42/33 57/41/32
f 3/105/50 85/119/97 1/32/22
f 85/119/97 66/30/20 1/32/22
f 23/120/60 20/56/49 24/106/61
f 20/56/49 53/58/33 55/107/80
f 46/124/98 47/132/67 45/108/66
f 45/108/66 42/45/36 41/97/82
f 43/51/44 46/124/98 45/108/66
f 14/126/79 9/37/29 79/110/91
f 9/37/29 80/111/92 79/110/91
f 80/111/92 81/75/64 82/15/77
f 89/10/99 83/21/75 21/29/19
f 83/21/75 26/112/70 21/29/19
f 58/59/51 59/103/89 71/109/90
f 59/103/89 57/41/32 69/55/48
f 10/64/55 18/63/54 77/113/93
f 12/115/14 52/133/16 51/116/95
f 51/116/95 8/47/38 12/115/14
f 8/47/38 11/46/37 13/61/52
f 51/116/95 2/31/21 61/18/25
f 86/117/88 67/99/85 68/100/86
f 87/118/96 68/100/86 66/30/20
f 23/120/60 87/134/96 85/121/97
f 73/19/78 88/135/100 30/7/27
f 50/122/83 47/136/67 46/123/98
f 48/78/68 51/116/95 50/122/83
f 51/116/95 52/133/16 50/122/83
f 65/79/69 22/74/63 80/111/92
f 21/29/19 56/28/18 89/10/99
f 56/28/18 30/7/27 88/11/100
