# Blender v2.90.1 OBJ File: 'GT_Basic_Blocks_3.blend'
# www.blender.org
v 0.121668 1.438667 1.820095
v 0.172036 1.258846 2.008073
v 0.248478 0.600000 2.293357
v 1.198427 1.438667 1.198427
v 1.336037 1.258846 1.336037
v 1.544879 0.600000 1.544879
v 1.820095 1.438667 0.121668
v 2.008073 1.258846 0.172036
v 2.293357 0.600000 0.248478
v -0.450000 -0.500000 2.442986
v -0.450342 -0.450000 2.493462
v -0.500000 -0.450000 2.450000
v -0.448992 -0.492582 2.467604
v -0.474540 -0.492582 2.445228
v -0.473423 -0.487027 2.469710
v -0.474768 -0.450000 2.489224
v -0.473527 -0.473763 2.483383
v -0.492582 -0.474540 2.447758
v -0.492599 -0.450000 2.473617
v -0.486971 -0.473763 2.471610
v -0.500000 0.550000 -0.450000
v -0.450000 0.550000 -0.500000
v -0.493320 0.550000 -0.474967
v -0.486832 0.526089 -0.473910
v -0.450000 0.525033 -0.493320
v -0.474967 0.550000 -0.493320
v -0.473911 0.526089 -0.486832
v -0.473911 0.513168 -0.473911
v 2.397778 -0.450000 0.276457
v 2.373421 -0.493301 0.269931
v 2.391251 -0.475000 0.274708
v 1.621320 -0.450000 1.621320
v 1.603490 -0.493301 1.603490
v 1.616543 -0.475000 1.616543
v 0.276457 -0.450000 2.397778
v 0.269931 -0.493301 2.373421
v 0.274708 -0.475000 2.391251
v 1.686541 1.500000 -0.450201
v 1.688855 1.493301 -0.475101
v 1.895385 1.438667 -0.450224
v 1.888396 1.416330 -0.493331
v 1.895269 1.432681 -0.475112
v 2.089999 1.258846 -0.450255
v 2.075966 1.243015 -0.493335
v 2.087994 1.254604 -0.475127
v 2.385354 0.600000 -0.450310
v 2.382129 0.598290 -0.475155
v -0.450201 1.500000 1.686541
v -0.475101 1.493301 1.688856
v -0.450310 0.600000 2.385354
v -0.475155 0.598290 2.382129
v -0.450255 1.258846 2.090000
v -0.493335 1.243015 2.075966
v -0.475127 1.254604 2.087994
v -0.450224 1.438667 1.895386
v -0.493331 1.416330 1.888397
v -0.475112 1.432682 1.895269
v -0.500000 1.450000 -0.450000
v -0.450194 1.500000 -0.450194
v -0.492608 1.474545 -0.450062
v -0.487050 1.473772 -0.473804
v -0.450132 1.492583 -0.474637
v -0.473834 1.487029 -0.473834
v -0.450062 1.474545 -0.492608
v -0.473804 1.473772 -0.487050
v 2.493462 -0.450000 -0.450342
v 2.474181 -0.450000 -0.493428
v 2.448976 -0.474967 -0.493258
v 2.472126 -0.473910 -0.486877
v 2.486632 -0.474967 -0.450234
v 2.490134 -0.450000 -0.475201
v 2.483358 -0.473910 -0.474044
v 2.468104 -0.493320 -0.450108
v 2.470314 -0.486831 -0.473956
v 1.554265 -0.500000 -0.450000
v 1.554186 -0.493320 -0.474967
v 1.554186 -0.474967 -0.493320
v -0.450000 -0.500000 1.550000
v -0.474967 -0.493320 1.550000
v -0.493320 -0.474967 1.550000
v 2.450000 -0.450000 -0.500000
v -0.450000 1.450000 -0.500000
vt 0.620404 0.946291
vt 0.640617 0.938727
vt 0.000000 0.000000
vt 0.000000 0.000000
vt 0.000000 0.000000
vt 0.000000 0.000000
vt 0.000000 0.000000
vt 0.000000 0.000000
vt 0.188388 0.796297
vt 0.187559 0.796297
vt 0.647895 0.935193
vt 0.635727 0.918819
vt 0.644361 0.917252
vt 0.240178 0.796297
vt 0.640208 0.874450
vt 0.635817 0.830108
vt 0.644354 0.831667
vt 0.640508 0.810999
vt 0.620453 0.802573
vt 0.287498 0.937201
vt 0.256462 0.938045
vt 0.287573 0.938010
vt 0.640251 0.937264
vt 0.613034 0.924303
vt 0.314793 0.796297
vt 0.620149 0.803311
vt 0.613063 0.824691
vt 0.606819 0.874528
vt 0.631145 0.874450
vt 0.188395 0.938034
vt 0.261035 0.938049
vt 0.188398 0.861654
vt 0.655195 0.813317
vt 0.647982 0.813057
vt 0.648040 0.812269
vt 0.260956 0.937204
vt 0.188393 0.937203
vt 0.188393 0.864640
vt 0.000000 0.000000
vt 0.188400 0.869277
vt 0.212849 0.841314
vt 0.620106 0.945557
vt 0.213070 0.796297
vt 0.647934 0.813860
vt 0.640324 0.811742
vt 0.188434 0.838116
vt 0.187567 0.838876
vt 0.188400 0.838952
vt 0.186954 0.838790
vt 0.186929 0.869277
vt 0.258741 0.796297
vt 0.186953 0.796297
vt 0.187601 0.795490
vt 0.240980 0.796297
vt 0.240246 0.795490
vt 0.340272 0.861628
vt 0.339466 0.861654
vt 0.340273 0.862078
vt 0.187604 0.838044
vt 0.187601 0.837580
vt 0.187144 0.837980
vt 0.188400 0.829409
vt 0.187552 0.830257
vt 0.188400 0.830257
vt 0.187149 0.938009
vt 0.187588 0.938448
vt 0.187588 0.938009
vt 0.187547 0.864562
vt 0.266828 0.862291
vt 0.000000 0.000000
vt 0.339463 0.860821
vt 0.213011 0.795448
vt 0.213011 0.840709
vt 0.340311 0.830257
vt 0.284283 0.912748
vt 0.258579 0.867018
vt 0.258136 0.867461
vt 0.340722 0.861628
vt 0.286883 0.796297
vt 0.287635 0.795485
vt 0.286848 0.795449
vt 0.340938 0.796297
vt 0.340280 0.795485
vt 0.340716 0.795485
vt 0.339475 0.796297
vt 0.340319 0.796297
vt 0.256462 0.938668
vt 0.286848 0.938666
vt 0.187588 0.829445
vt 0.187149 0.829445
vt 0.287635 0.938449
vt 0.288016 0.938013
vt 0.655185 0.935800
vt 0.655317 0.934882
vt 0.340275 0.829445
vt 0.271544 0.795449
vt 0.339463 0.830257
vt 0.647988 0.936790
vt 0.640430 0.938009
vt 0.647936 0.935998
vt 0.256462 0.795449
vt 0.655317 0.814232
vt 0.000000 0.000000
vt 0.640700 0.810282
vt 0.339471 0.795449
vt 0.314853 0.795448
vt 0.269122 0.796297
vt 0.000000 0.000000
vt 0.188400 0.860821
vt 0.187552 0.869277
vt 0.269284 0.795448
vt 0.288127 0.937205
vt 0.284888 0.912586
vt 0.000000 0.000000
vt 0.000000 0.000000
vt 0.000000 0.000000
vt 0.000000 0.000000
vt 0.258579 0.795448
vt 0.000000 0.000000
vt 0.187592 0.861628
vt 0.187590 0.862078
vt 0.256464 0.937197
vt 0.187144 0.795490
vt 0.241056 0.795464
vt 0.187590 0.938006
vt 0.287704 0.796297
vn -0.9916 0.0316 0.1255
vn -0.0069 -0.0200 -0.9998
vn 0.1255 0.0316 -0.9916
vn 0.0084 -0.1600 0.9871
vn -0.1578 0.2527 0.9546
vn -0.4222 -0.0719 0.9036
vn -0.0703 0.8674 0.4926
vn 0.2639 0.5713 0.7771
vn 0.1613 0.8831 0.4407
vn -0.8340 -0.0867 0.5450
vn 0.4799 0.7345 0.4799
vn 0.7771 0.5713 0.2639
vn 0.4407 0.8831 0.1613
vn 0.7377 0.5273 -0.4216
vn 0.9546 0.2528 -0.1578
vn 0.6070 0.4250 -0.6715
vn 0.0073 -0.9900 -0.1411
vn -0.1973 -0.8573 -0.4756
vn 0.3747 -0.8404 -0.3917
vn -0.0282 0.5840 0.8113
vn 0.3100 0.2538 0.9162
vn 0.9444 -0.0787 0.3191
vn 0.9659 0.2589 -0.0078
vn 0.9162 0.2538 0.3100
vn 0.6842 0.2527 0.6842
vn 0.5818 0.5684 0.5818
vn -0.1061 0.8556 -0.5067
vn 0.0987 0.7299 -0.6764
vn -0.1046 0.5031 -0.8579
vn 0.4445 0.7729 -0.4528
vn 0.2179 0.3800 -0.8989
vn 0.1403 0.9846 -0.1046
vn -0.2124 0.9706 -0.1131
vn -0.1045 0.9846 0.1404
vn -0.1271 -0.9811 0.1457
vn -0.1808 -0.9700 -0.1625
vn 0.1400 -0.9057 0.4002
vn -0.0078 0.2589 0.9659
vn 0.3191 -0.0787 0.9444
vn 0.4926 0.8674 -0.0703
vn 0.8113 0.5840 -0.0282
vn -0.0239 -0.8261 0.5630
vn -0.4894 -0.8642 0.1168
vn -0.8511 -0.5141 0.1067
vn -0.8948 -0.4315 -0.1145
vn 0.7049 -0.0783 0.7049
vn -0.3075 -0.4725 0.8260
vn -0.9795 -0.1328 0.1513
vn -0.7545 -0.4667 0.4614
vn -0.7989 0.3681 -0.4757
vn -0.8189 0.5680 -0.0820
vn -0.4503 0.8030 -0.3904
vn -0.3891 -0.8090 0.4405
vn -0.2320 -0.4226 -0.8761
vn -0.4925 -0.1201 -0.8620
vn -0.1533 -0.1098 -0.9820
vn -0.7841 -0.4238 -0.4533
vn -0.4488 -0.4488 -0.7727
vn -0.4856 -0.7001 -0.5235
vn -0.6764 0.7299 0.0987
vn -0.9717 0.1140 -0.2070
vn 0.2795 -0.4888 0.8264
vn -0.8627 -0.1221 -0.4908
vn 0.6661 -0.7092 0.2310
vn 0.6184 -0.4850 0.6184
vn 0.4978 -0.7101 0.4978
vn -0.4758 0.3680 -0.7989
vn 0.1803 -0.1616 -0.9702
vn 0.4704 -0.4658 -0.7495
vn 0.0999 -0.5681 -0.8169
vn 0.5275 -0.1017 -0.8434
vn 0.8050 -0.4658 -0.3673
vn 0.9966 -0.0827 -0.0030
vn 0.9112 -0.0861 -0.4029
vn -0.1830 -0.6912 -0.6992
vn -0.9796 -0.1357 -0.1485
vn -0.8989 0.3800 0.2180
vn -0.4216 0.5273 0.7377
vn -0.4528 0.7729 0.4445
vn -1.0000 0.0049 0.0045
vn 0.0045 0.0049 -1.0000
vn 0.0016 0.0041 -1.0000
vn 0.8673 -0.4976 -0.0129
vn 0.8264 -0.4886 0.2799
vn -0.2070 0.1139 -0.9717
vn -0.6715 0.4250 0.6070
vn -0.4767 -0.8563 -0.1987
vn 0.7037 -0.7105 -0.0046
vn -0.1592 -0.9704 -0.1816
vn 0.0061 -1.0000 0.0024
vn 0.0036 -1.0000 0.0036
vn 0.0619 0.9962 0.0619
s off
f 51/1/1 53/2/1 12/3/1
f 77/4/2 22/5/2 81/6/2
f 44/7/3 47/8/3 81/6/3
s 1
f 11/9/4 51/1/5 16/10/6
f 55/11/7 2/12/8 1/13/9
f 16/10/6 51/1/5 19/14/10
f 4/15/11 8/16/12 7/17/13
f 45/18/14 47/19/15 44/7/16
f 73/20/17 76/21/18 74/22/19
f 52/23/20 3/24/21 2/12/8
f 29/25/22 46/26/23 9/27/24
f 6/28/25 8/16/12 5/29/26
f 62/30/27 39/31/28 64/32/29
f 39/33/28 42/34/30 41/35/31
f 38/36/32 59/37/33 48/38/34
f 10/39/35 78/40/36 36/41/37
f 50/42/38 35/43/39 3/24/21
f 40/44/40 8/16/12 43/45/41
f 13/46/42 14/47/43 10/48/35
f 18/49/44 80/50/45 14/47/43
f 32/51/46 3/24/21 35/43/39
f 19/52/10 17/53/47 16/10/6
f 12/54/48 20/55/49 19/14/10
f 61/56/50 60/57/51 63/58/52
f 15/59/53 17/60/47 20/61/49
f 1/13/9 5/29/26 4/15/11
f 25/62/54 26/63/55 22/64/56
f 24/65/57 27/66/58 28/67/59
f 49/68/60 48/38/34 59/37/33
f 49/69/60 60/70/51 58/71/61
f 37/72/62 35/43/39 11/9/4
f 17/60/47 13/46/42 37/73/62
f 58/71/61 61/56/50 23/74/63
f 30/75/64 34/76/65 33/77/66
f 61/56/50 63/58/52 65/78/67
f 81/79/68 69/80/69 68/81/70
f 67/82/71 72/83/72 69/84/69
f 66/85/73 72/83/72 71/86/74
f 76/21/18 77/87/75 68/88/70
f 26/63/55 27/89/58 24/90/57
f 69/91/69 72/92/72 74/22/19
f 47/19/15 71/86/74 67/82/71
f 3/24/21 5/29/26 2/12/8
f 49/93/60 55/11/7 48/94/34
f 24/95/57 80/96/45 21/97/76
f 56/98/77 54/99/78 57/100/79
f 57/100/79 52/23/20 55/11/7
f 68/81/70 77/101/75 81/6/68
f 9/27/24 43/45/41 8/16/12
f 25/62/54 22/64/56 77/4/75
f 7/17/13 40/44/40 38/102/32
f 39/33/28 40/44/40 42/34/30
f 19/14/10 51/103/5 12/54/48
f 41/35/31 45/18/14 44/104/16
f 42/34/30 43/45/41 45/18/14
f 53/2/80 56/98/77 12/3/48
f 54/99/78 50/42/38 52/23/20
f 56/98/77 21/97/76 12/3/48
f 41/35/31 44/104/81 81/6/82
f 47/19/15 67/82/71 81/79/68
f 70/105/83 29/25/22 31/106/84
f 45/18/14 46/26/23 47/19/15
f 9/27/24 32/107/46 29/25/22
f 39/108/28 41/35/31 82/109/85
f 54/99/78 53/2/86 51/1/5
f 10/48/35 79/110/87 78/40/36
f 66/85/73 47/19/15 46/26/23
f 38/36/32 62/30/27 59/37/33
f 64/32/29 39/31/28 82/109/85
f 31/106/84 32/107/46 34/111/65
f 56/98/77 57/100/79 49/93/60
f 70/112/83 31/113/84 73/20/88
f 33/77/66 37/73/62 36/41/37
f 28/67/59 80/50/45 24/65/57
f 56/98/77 49/114/60 58/71/61
f 22/64/56 41/35/31 81/6/82
f 28/115/59 27/116/58 25/117/54
f 34/118/65 35/43/39 37/72/62
f 60/70/51 49/69/60 63/58/52
f 78/40/36 79/110/87 28/115/59
f 62/119/27 65/120/67 63/121/52
f 65/120/67 64/32/29 82/109/85
f 11/9/4 50/42/38 51/1/5
f 55/11/7 52/23/20 2/12/8
f 4/15/11 5/29/26 8/16/12
f 73/20/17 75/122/89 76/21/18
f 52/23/20 50/42/38 3/24/21
f 29/25/22 66/85/73 46/26/23
f 6/28/25 9/27/24 8/16/12
f 75/122/89 73/20/17 30/75/90
f 30/75/90 33/77/91 75/122/89
f 33/77/91 36/41/37 78/40/36
f 75/122/89 33/77/91 78/40/36
f 36/41/37 13/46/42 10/39/35
f 50/42/38 11/9/4 35/43/39
f 40/44/40 7/17/13 8/16/12
f 13/46/42 15/59/53 14/47/43
f 80/50/45 79/110/87 14/47/43
f 14/47/43 15/59/53 18/49/44
f 15/59/53 20/61/49 18/49/44
f 32/51/46 6/28/25 3/24/21
f 19/52/10 20/123/49 17/53/47
f 12/54/48 18/124/44 20/55/49
f 1/13/9 2/12/8 5/29/26
f 25/62/54 27/89/58 26/63/55
f 62/30/27 63/125/52 59/37/33
f 63/125/52 49/68/60 59/37/33
f 16/10/6 17/53/47 11/9/4
f 17/53/47 37/72/62 11/9/4
f 15/59/53 13/46/42 17/60/47
f 13/46/42 36/41/37 37/73/62
f 23/74/63 21/97/76 58/71/61
f 58/71/61 60/57/51 61/56/50
f 30/75/64 31/113/84 34/76/65
f 81/79/68 67/126/71 69/80/69
f 67/82/71 71/86/74 72/83/72
f 66/85/73 70/105/83 72/83/72
f 69/91/69 74/22/19 68/88/70
f 74/22/19 76/21/18 68/88/70
f 24/90/57 23/74/63 26/63/55
f 23/74/63 61/56/50 26/63/55
f 61/56/50 65/78/67 26/63/55
f 3/24/21 6/28/25 5/29/26
f 49/93/60 57/100/79 55/11/7
f 18/124/44 12/54/48 80/96/45
f 12/54/48 21/97/76 80/96/45
f 21/97/76 23/74/63 24/95/57
f 56/98/77 53/2/86 54/99/78
f 57/100/79 54/99/78 52/23/20
f 9/27/24 46/26/23 43/45/41
f 38/102/32 48/94/34 4/15/92
f 48/94/34 55/11/7 1/13/9
f 4/15/92 48/94/34 1/13/9
f 4/15/92 7/17/13 38/102/32
f 39/33/28 38/102/32 40/44/40
f 41/35/31 42/34/30 45/18/14
f 42/34/30 40/44/40 43/45/41
f 54/99/78 51/1/5 50/42/38
f 56/98/77 58/71/61 21/97/76
f 70/105/83 66/85/73 29/25/22
f 45/18/14 43/45/41 46/26/23
f 9/27/24 6/28/25 32/107/46
f 10/48/35 14/47/43 79/110/87
f 66/85/73 71/86/74 47/19/15
f 38/36/32 39/31/28 62/30/27
f 31/106/84 29/25/22 32/107/46
f 31/113/84 30/75/64 73/20/88
f 73/20/88 74/22/19 70/112/83
f 74/22/19 72/92/72 70/112/83
f 33/77/66 34/76/65 37/73/62
f 28/67/59 79/110/87 80/50/45
f 22/64/56 82/109/85 41/35/31
f 77/87/75 76/21/18 25/117/54
f 76/21/18 28/115/59 25/117/54
f 34/118/65 32/51/46 35/43/39
f 76/21/18 75/122/89 28/115/59
f 75/122/89 78/40/36 28/115/59
f 62/119/27 64/32/29 65/120/67
f 22/64/56 26/63/55 82/109/85
f 26/63/55 65/120/67 82/109/85
