# Blender v2.90.1 OBJ File: 'GT_Basic_Blocks_3.blend'
# www.blender.org
v 0.215289 0.265685 2.169494
v 0.248478 0.100000 2.293357
v 0.269341 -0.092945 2.371220
v 0.700969 0.472741 1.580140
v 0.798274 0.392820 1.748677
v 1.336037 0.392820 1.336037
v 1.454205 0.265685 1.454205
v 1.544879 0.100000 1.544879
v 1.601879 -0.092945 1.601879
v 2.169494 0.265685 0.215289
v 2.293357 0.100000 0.248478
v 2.371220 -0.092945 0.269341
v -0.450000 -0.500000 2.442986
v -0.450294 -0.450000 2.493456
v -0.492582 -0.474540 2.447758
v -0.492592 -0.450000 2.473615
v -0.486965 -0.473763 2.471608
v -0.448976 -0.492582 2.467603
v -0.474540 -0.492582 2.445227
v -0.473414 -0.487027 2.469709
v -0.474744 -0.450000 2.489220
v -0.473511 -0.473763 2.483381
v -0.450000 -0.500000 -0.450000
v -0.500000 -0.450000 -0.450000
v -0.474967 -0.493320 -0.450000
v -0.473911 -0.486832 -0.473911
v -0.493320 -0.450000 -0.474967
v -0.486832 -0.473911 -0.473911
v -0.474967 -0.450000 -0.493320
v -0.473911 -0.473911 -0.486832
v -0.500000 0.450000 -0.450000
v -0.450135 0.500000 -0.450135
v -0.492600 0.474543 -0.450043
v -0.487043 0.473771 -0.473793
v -0.450092 0.492583 -0.474608
v -0.474608 0.492583 -0.450092
v -0.473814 0.487028 -0.473814
v -0.450043 0.474544 -0.492600
v -0.473793 0.473771 -0.487043
v 2.493456 -0.450000 -0.450294
v 2.442986 -0.500000 -0.450000
v 2.486628 -0.474967 -0.450201
v 2.490130 -0.450000 -0.475168
v 2.483355 -0.473911 -0.474025
v 2.446403 -0.493320 -0.474913
v 2.468102 -0.493320 -0.450093
v 2.470313 -0.486832 -0.473949
v 2.474179 -0.450000 -0.493413
v 2.448977 -0.474967 -0.493266
v 2.472125 -0.473911 -0.486870
v 2.397778 -0.450000 0.276457
v 2.373421 -0.493301 0.269931
v 2.391251 -0.475000 0.274708
v 1.621320 -0.450000 1.621320
v 1.603490 -0.493301 1.603490
v 1.616543 -0.475000 1.616543
v 0.276457 -0.450000 2.397778
v 0.274708 -0.475000 2.391251
v 0.269931 -0.493301 2.373421
v 1.895377 0.472741 -0.450157
v 1.894584 0.448374 -0.493322
v 1.896923 0.466212 -0.475078
v 2.089990 0.392820 -0.450183
v 2.257109 0.265685 -0.450215
v 2.245029 0.247781 -0.493330
v 2.255629 0.260888 -0.475107
v 2.465959 -0.092945 -0.450272
v 2.447283 -0.099523 -0.493338
v 2.462709 -0.094707 -0.475136
v -0.450272 -0.092945 2.465959
v -0.493338 -0.099523 2.447282
v -0.475136 -0.094707 2.462708
v -0.450215 0.265685 2.257109
v -0.493330 0.247781 2.245030
v -0.475107 0.260888 2.255629
v -0.450157 0.472741 1.895377
v -0.493322 0.448374 1.894585
v -0.475078 0.466212 1.896923
v -0.450020 0.449999 -0.500024
v -0.450020 -0.450001 -0.500024
v -0.500024 -0.449999 2.450020
v -0.500024 0.230331 2.230350
v 2.450000 -0.450000 -0.500000
v 2.230330 0.230330 -0.500000
vt 0.581438 0.908588
vt 0.000000 0.000000
vt 0.000000 0.000000
vt 0.644116 0.863854
vt 0.650991 0.908588
vt 0.675397 0.963747
vt 0.576634 0.899322
vt 0.581705 0.908588
vt 0.706262 0.888164
vt 0.311395 0.831186
vt 0.651896 0.844457
vt 0.542827 0.888433
vt 0.149197 0.831186
vt 0.544217 0.888532
vt 0.252552 0.831186
vt 0.688212 0.888532
vt 0.647968 0.888532
vt 0.583294 0.899322
vt 0.537478 0.907587
vt 0.536886 0.908320
vt 0.695626 0.963750
vt 0.695544 0.965142
vt 0.686280 0.963748
vt 0.158194 0.548994
vt 0.129677 0.831186
vt 0.526168 0.888164
vt 0.649135 0.899322
vt 0.573447 0.888532
vt 0.264785 0.829788
vt 0.189841 0.831186
vt 0.189743 0.829788
vt 0.149214 0.926360
vt 0.311003 0.926360
vt 0.307113 0.886098
vt 0.584461 0.888532
vt 0.000000 0.000000
vt 0.130997 0.831186
vt 0.129789 0.829857
vt 0.149271 0.763194
vt 0.147841 0.764446
vt 0.149214 0.764571
vt 0.147877 0.829849
vt 0.147818 0.831186
vt 0.149214 0.831186
vt 0.146832 0.831186
vt 0.147899 0.829857
vt 0.147830 0.831186
vt 0.147147 0.762970
vt 0.147904 0.763077
vt 0.147899 0.762312
vt 0.131123 0.829814
vt 0.293179 0.831186
vt 0.311338 0.928780
vt 0.312633 0.928422
vt 0.312531 0.927700
vt 0.542828 0.908320
vt 0.544220 0.908588
vt 0.313444 0.926372
vt 0.308110 0.885831
vt 0.312408 0.926365
vt 0.147877 0.927698
vt 0.147154 0.927698
vt 0.147877 0.928420
vt 0.147883 0.882848
vt 0.487617 0.705013
vt 0.483289 0.548994
vt 0.147882 0.883589
vt 0.149209 0.883900
vt 0.149209 0.927736
vt 0.147838 0.926365
vt 0.149206 0.926368
vt 0.542830 0.832487
vt 0.544220 0.812344
vt 0.544223 0.832573
vt 0.264055 0.811520
vt 0.189743 0.767464
vt 0.189476 0.768461
vt 0.294509 0.882848
vt 0.294511 0.883589
vt 0.295250 0.882848
vt 0.293195 0.831186
vt 0.294522 0.829849
vt 0.294586 0.831186
vt 0.146832 0.764304
vt 0.311194 0.927754
vt 0.484436 0.548994
vt 0.312633 0.829849
vt 0.311338 0.829790
vt 0.295607 0.831186
vt 0.295241 0.829849
vt 0.313261 0.927704
vt 0.147818 0.926360
vt 0.675483 0.919802
vt 0.614042 0.840778
vt 0.608600 0.850203
vt 0.264785 0.810790
vt 0.252650 0.829788
vt 0.177341 0.831186
vt 0.177608 0.829788
vt 0.480108 0.548994
vt 0.293179 0.881518
vt 0.694951 0.907587
vt 0.675352 0.918805
vt 0.541809 0.888164
vt 0.293190 0.829790
vt 0.690727 0.926532
vt 0.650724 0.857246
vt 0.655795 0.899322
vt 0.675483 0.965140
vt 0.293184 0.883900
vt 0.581438 0.817244
vt 0.689603 0.888433
vt 0.690621 0.888164
vt 0.689601 0.908320
vt 0.557077 0.918805
vt 0.556946 0.919802
vt 0.695544 0.908320
vt 0.658983 0.888532
vt 0.265052 0.831186
vt 0.000000 0.000000
vt 0.688209 0.908588
vt 0.651896 0.844457
vt 0.487617 0.705037
vt 0.312748 0.831186
vt 0.000000 0.000000
vt 0.147147 0.829857
vt 0.294575 0.831186
vt 0.294516 0.829849
vt 0.149211 0.882891
vt 0.487617 0.548994
vt 0.675352 0.966161
vt 0.147882 0.927692
vt 0.542828 0.812427
vt 0.147154 0.829849
vt 0.293181 0.882891
vt 0.541809 0.832618
vt 0.000000 0.000000
vt 0.158194 0.548994
vn 0.1071 0.9009 0.4205
vn 0.3411 0.9283 0.1483
vn 0.2946 0.7890 0.5392
vn 0.6185 0.4908 0.6135
vn 0.5247 0.6934 0.4938
vn 0.4623 0.1443 -0.8749
vn 0.1366 -0.1270 -0.9824
vn 0.1177 0.1154 -0.9863
vn -0.4073 0.2690 0.8728
vn 0.0087 -0.1730 0.9849
vn -0.0172 0.2911 0.9565
vn 0.9434 -0.0913 0.3188
vn 0.9565 0.2911 -0.0172
vn 0.9220 0.2293 0.3119
vn 0.2728 0.4928 0.8263
vn 0.1921 0.7501 0.6328
vn -0.8291 0.3936 0.3970
vn -0.4264 0.6384 0.6408
vn 0.7439 0.6668 -0.0446
vn 0.6648 0.6063 -0.4364
vn 0.4621 0.8256 -0.3237
vn -0.9796 -0.1354 0.1483
vn -0.8325 -0.0976 0.5452
vn -0.8746 0.1436 0.4630
vn 0.8235 0.4957 0.2757
vn 0.6884 0.2283 0.6884
vn 0.6184 -0.4850 0.6184
vn 0.3189 -0.0913 0.9434
vn 0.2795 -0.4888 0.8264
vn -0.0995 -0.9711 -0.2167
vn 0.1263 -0.9859 -0.1098
vn 0.3989 -0.9062 0.1404
vn 0.3119 0.2293 0.9220
vn 0.2108 0.9748 -0.0730
vn 0.6015 0.7695 0.2148
vn -0.7542 -0.4668 0.4618
vn -0.0239 -0.8260 0.5630
vn -0.4895 -0.8642 0.1166
vn -0.1272 -0.9811 0.1455
vn -0.3612 -0.4898 -0.7935
vn -0.4913 -0.1221 -0.8624
vn -0.1006 -0.2176 -0.9708
vn -0.3074 -0.4723 0.8261
vn -0.4222 -0.0843 0.9026
vn -0.3890 -0.8090 0.4406
vn -0.8509 -0.5145 0.1063
vn -0.9709 -0.2174 -0.1001
vn 0.1264 -0.4975 -0.8582
vn 0.4709 -0.4656 -0.7493
vn 0.4606 -0.7909 -0.4029
vn -0.0503 0.7128 0.6995
vn 0.8673 -0.4975 -0.0128
vn 0.8264 -0.4886 0.2799
vn 0.4919 -0.8686 -0.0598
vn -0.3610 -0.7936 -0.4897
vn -0.8006 -0.4574 -0.3871
vn -0.4759 0.3685 -0.7985
vn -0.2088 0.1145 -0.9712
vn -0.4358 0.7875 -0.4358
vn -0.1087 0.8592 -0.4999
vn -0.4999 0.8592 -0.1087
vn -0.1385 0.9806 -0.1386
vn -0.4640 0.8530 0.2391
vn -0.0901 0.9607 0.2624
vn 0.3062 -0.9013 0.3062
vn 0.1401 -0.9061 0.3992
vn -0.7987 0.3684 -0.4758
vn 0.9954 -0.0953 -0.0029
vn 0.8052 -0.4656 -0.3670
vn 0.9100 -0.0976 -0.4029
vn 0.1234 -0.8686 -0.4799
vn -0.8626 -0.1221 -0.4908
vn 0.5275 -0.1115 -0.8422
vn -0.5678 -0.8174 -0.0969
vn 0.1943 0.8549 -0.4810
vn 0.1034 0.9756 0.1937
vn 0.7042 -0.0909 0.7042
vn -0.9713 0.1141 -0.2084
vn 0.4002 0.3846 -0.8318
vn 0.1137 0.4349 -0.8932
vn 0.3393 0.8990 0.2770
vn 0.8727 0.2697 -0.4069
vn -0.8906 0.4374 0.1247
vn -0.9862 0.1158 0.1181
vn -0.1030 0.5055 -0.8566
vn -0.8569 0.5051 -0.1030
s off
f 1/1/1 5/2/1 76/3/1
f 6/4/2 10/5/2 60/6/2
s 1
f 5/2/3 8/7/4 7/8/5
f 68/9/6 83/10/7 84/11/8
f 72/12/9 14/13/10 70/14/11
f 51/15/12 67/16/13 12/17/14
f 2/18/15 5/2/3 1/1/16
f 74/19/17 72/12/9 75/20/18
f 64/21/19 66/22/20 63/23/21
f 81/24/22 16/25/23 71/26/24
f 11/27/25 9/28/26 12/17/14
f 56/29/27 57/30/28 58/31/29
f 9/28/26 51/15/12 12/17/14
f 23/32/30 41/33/31 52/34/32
f 70/14/11 3/35/33 2/18/15
f 60/6/34 10/36/35 63/23/21
f 81/37/22 17/38/36 16/25/23
f 18/39/37 19/40/38 13/41/39
f 30/42/40 29/43/41 80/44/42
f 16/45/23 22/46/43 21/47/44
f 17/48/36 20/49/45 22/50/43
f 15/51/46 81/37/22 24/52/47
f 49/53/48 50/54/49 47/55/50
f 58/31/29 57/30/28 14/13/10
f 75/56/18 70/14/11 73/57/51
f 42/58/52 53/59/53 46/60/54
f 26/61/55 28/62/56 30/63/40
f 39/64/57 79/65/58 29/66/41
f 39/64/57 37/67/59 35/68/60
f 35/69/60 36/70/61 32/71/62
f 78/72/63 73/73/51 76/74/64
f 55/75/65 58/76/29 59/77/66
f 34/78/67 37/79/59 39/80/57
f 40/81/68 44/82/69 43/83/70
f 20/49/45 17/48/36 15/84/46
f 45/85/71 46/60/54 41/33/31
f 27/86/72 34/78/67 29/43/41
f 83/10/7 50/87/49 49/88/48
f 48/89/73 44/82/69 50/90/49
f 44/91/69 47/55/50 50/54/49
f 13/41/39 25/92/74 23/32/30
f 60/6/34 63/23/21 62/93/75
f 5/94/3 4/95/76 76/74/64
f 52/34/32 56/96/27 55/75/65
f 53/97/53 54/98/77 56/99/27
f 22/50/43 18/39/37 58/76/29
f 27/86/72 24/100/47 31/101/78
f 63/23/21 65/102/79 61/103/80
f 71/104/24 21/47/44 72/12/9
f 42/105/52 51/15/12 53/97/53
f 10/106/35 64/21/19 63/23/21
f 6/4/81 7/107/5 10/5/35
f 4/95/76 32/71/62 76/74/64
f 2/18/15 8/108/4 5/2/3
f 35/69/60 60/6/34 62/109/75
f 36/110/61 37/79/59 34/78/67
f 5/2/3 6/4/81 4/95/76
f 73/73/51 1/111/16 76/3/64
f 65/102/79 69/112/82 68/113/6
f 66/114/20 67/16/13 69/112/82
f 4/95/76 6/4/81 60/6/34
f 79/65/58 61/103/80 84/11/8
f 40/81/68 69/112/82 67/16/13
f 77/115/83 75/20/18 78/116/63
f 23/32/30 26/61/55 45/85/71
f 66/117/20 65/102/79 63/23/21
f 7/8/5 11/27/25 10/5/35
f 9/118/26 57/30/28 54/119/77
f 62/93/75 63/120/21 61/103/80
f 64/121/19 11/27/25 67/16/13
f 70/14/11 57/30/28 3/35/33
f 2/18/15 9/118/26 8/108/4
f 82/122/84 77/115/83 31/123/78
f 36/70/61 76/74/64 32/71/62
f 43/83/70 68/113/6 69/112/82
f 84/11/8 65/102/79 68/9/6
f 68/9/6 48/124/73 83/10/7
f 72/12/9 21/47/44 14/13/10
f 51/15/12 40/81/68 67/16/13
f 74/19/17 71/104/24 72/12/9
f 74/125/17 82/122/84 71/26/24
f 82/122/84 81/24/22 71/26/24
f 11/27/25 8/7/4 9/28/26
f 56/29/27 54/119/77 57/30/28
f 9/28/26 54/98/77 51/15/12
f 41/33/31 46/60/54 52/34/32
f 52/34/32 55/75/65 23/32/30
f 55/75/65 59/77/66 23/32/30
f 59/77/66 18/39/37 13/41/39
f 13/41/39 23/32/30 59/77/66
f 2/18/15 1/1/16 73/57/51
f 73/57/51 70/14/11 2/18/15
f 81/37/22 15/51/46 17/38/36
f 18/39/37 20/49/45 19/40/38
f 83/10/7 49/88/48 80/44/42
f 49/88/48 30/42/40 80/44/42
f 16/45/23 17/126/36 22/46/43
f 27/127/72 28/128/56 24/52/47
f 28/128/56 15/51/46 24/52/47
f 47/55/50 45/85/71 49/53/48
f 45/85/71 26/61/55 30/63/40
f 49/53/48 45/85/71 30/63/40
f 21/47/44 22/46/43 14/13/10
f 22/46/43 58/31/29 14/13/10
f 75/56/18 72/12/9 70/14/11
f 53/59/53 52/34/32 46/60/54
f 46/60/54 47/55/50 42/58/52
f 47/55/50 44/91/69 42/58/52
f 38/129/85 79/65/58 39/64/57
f 79/65/58 80/130/42 29/66/41
f 62/109/75 61/131/80 35/68/60
f 61/131/80 38/129/85 35/68/60
f 38/129/85 39/64/57 35/68/60
f 35/69/60 37/132/59 36/70/61
f 78/72/63 75/133/18 73/73/51
f 55/75/65 56/96/27 58/76/29
f 40/81/68 42/105/52 44/82/69
f 26/61/55 25/92/74 28/62/56
f 25/92/74 19/40/38 15/84/46
f 28/62/56 25/92/74 15/84/46
f 19/40/38 20/49/45 15/84/46
f 45/85/71 47/55/50 46/60/54
f 34/78/67 39/80/57 29/43/41
f 29/43/41 30/42/40 28/134/56
f 28/134/56 27/86/72 29/43/41
f 83/10/7 48/124/73 50/87/49
f 48/89/73 43/83/70 44/82/69
f 13/41/39 19/40/38 25/92/74
f 52/34/32 53/59/53 56/96/27
f 53/97/53 51/15/12 54/98/77
f 20/49/45 18/39/37 22/50/43
f 18/39/37 59/77/66 58/76/29
f 33/135/86 34/78/67 31/101/78
f 34/78/67 27/86/72 31/101/78
f 71/104/24 16/45/23 21/47/44
f 42/105/52 40/81/68 51/15/12
f 4/95/76 60/6/34 32/71/62
f 35/69/60 32/71/62 60/6/34
f 34/78/67 33/135/86 36/110/61
f 33/135/86 77/136/83 36/110/61
f 77/136/83 78/72/63 36/110/61
f 5/2/3 7/8/5 6/4/81
f 65/102/79 66/117/20 69/112/82
f 66/114/20 64/121/19 67/16/13
f 38/129/85 61/103/80 79/65/58
f 61/103/80 65/137/79 84/11/8
f 40/81/68 43/83/70 69/112/82
f 77/115/83 74/19/17 75/20/18
f 45/85/71 41/33/31 23/32/30
f 23/32/30 25/92/74 26/61/55
f 7/8/5 8/7/4 11/27/25
f 9/118/26 3/35/33 57/30/28
f 10/5/35 11/27/25 64/121/19
f 11/27/25 12/17/14 67/16/13
f 70/14/11 14/13/10 57/30/28
f 2/18/15 3/35/33 9/118/26
f 74/19/17 77/115/83 82/122/84
f 77/115/83 33/135/86 31/123/78
f 36/70/61 78/72/63 76/74/64
f 43/83/70 48/89/73 68/113/6
f 82/122/84 24/52/47 81/37/22
f 84/11/8 80/130/42 79/65/58
f 82/122/84 31/123/78 24/52/47
f 84/11/8 83/138/7 80/130/42
