# Blender v2.82 (sub 7) OBJ File: 'TACLowerOBlockRemaster.blend'
# www.blender.org
mtllib TACLowerOBlockRemaster.mtl
o Solid1.017
v -2.000000 -0.225000 2.000000
v 2.000000 -0.225000 2.000000
v -2.075000 -0.300000 2.075000
v 2.075000 -0.300000 2.075000
v 2.000000 -0.225000 -2.000000
v 2.075000 -0.300000 -2.075000
v -2.075000 -0.300000 -2.075000
v -2.000000 -0.225000 -2.000000
v 2.000000 0.225000 -2.000000
v 2.000000 0.225000 2.000000
v -2.000000 0.225000 2.000000
v -2.075000 -0.300000 -2.200000
v -2.200000 -0.300000 -2.075000
v -2.200000 -0.300000 2.075000
v -2.075000 -0.300000 2.200000
v 2.075000 -0.300000 2.200000
v 2.200000 -0.300000 2.075000
v 2.200000 -0.300000 -2.075000
v 2.075000 -0.300000 -2.200000
v -2.075000 0.300000 2.075000
v 2.075000 0.300000 2.075000
v 2.075000 0.300000 -2.075000
v -2.000000 0.225000 -2.000000
v -2.075000 0.300000 -2.075000
v -2.075000 0.300000 2.200000
v 2.075000 0.300000 2.200000
v 2.200000 0.300000 2.075000
v 2.200000 0.300000 -2.075000
v 2.075000 0.300000 -2.200000
v -2.075000 0.300000 -2.200000
v -2.200000 0.300000 -2.075000
v -2.200000 0.300000 2.075000
v -2.975000 -0.500000 2.975000
v -2.975000 -0.475000 3.000000
v -3.000000 -0.475000 2.975000
v 2.975000 -0.500000 2.975000
v 3.000000 -0.475000 2.975000
v 2.975000 -0.475000 3.000000
v 3.000000 -0.475000 -3.000000
v 2.975000 -0.500000 -2.975000
v -2.975000 0.500000 2.975000
v -3.000000 0.475000 2.975000
v -2.975000 0.475000 3.000000
v -2.975000 -0.500000 -2.975000
v -3.000000 -0.475000 -2.975000
v -2.975000 -0.475000 -3.000000
v 2.975000 0.500000 2.975000
v 2.975000 0.475000 3.000000
v 3.000000 0.475000 2.975000
v -2.975000 0.500000 -2.975000
v -2.975000 0.475000 -3.000000
v -3.000000 0.475000 -2.975000
v 3.000000 0.475000 -3.000000
v 2.975000 0.500000 -2.975000
v 2.350000 0.400000 2.050000
v 2.050000 0.400000 2.350000
v -2.350000 0.400000 -2.050000
v -2.050000 0.400000 -2.350000
v 2.350000 0.400000 2.350000
v 2.350000 0.400000 -2.050000
v 2.350000 0.400000 -2.350000
v -2.350000 0.400000 -2.350000
v -2.350000 0.400000 2.350000
v -2.050000 0.400000 2.350000
v 2.050000 0.400000 -2.350000
v -2.350000 0.400000 2.050000
v 2.050000 -0.400000 -2.350000
v 2.350000 -0.400000 -2.350000
v -2.350000 -0.400000 2.050000
v -2.050000 -0.400000 2.350000
v 2.350000 -0.400000 -2.050000
v 2.050000 -0.400000 2.350000
v 2.350000 -0.400000 2.050000
v -2.350000 -0.400000 2.350000
v -2.350000 -0.400000 -2.050000
v -2.350000 -0.400000 -2.350000
v 2.350000 -0.400000 2.350000
v -2.050000 -0.400000 -2.350000
v 2.212500 0.500000 2.074996
v 2.200000 0.487500 2.075000
v 2.075000 0.487500 2.200000
v 2.072542 0.500000 2.214746
v 2.212500 0.500000 -2.074996
v 2.200000 0.487500 -2.075000
v 2.072542 0.500000 -2.214746
v 2.075000 0.487500 -2.200000
v -2.072836 0.500000 2.214659
v -2.075000 0.487500 2.200000
v -2.200000 0.487500 2.075000
v -2.214746 0.500000 2.072542
v -2.200000 0.487500 -2.075000
v -2.214659 0.500000 -2.078018
v -2.075000 0.487500 -2.200000
v -2.078018 0.500000 -2.214659
v -2.072836 -0.500000 -2.214659
v -2.075000 -0.487500 -2.200000
v -2.200000 -0.487500 -2.075000
v -2.214746 -0.500000 -2.072542
v -2.200000 -0.487500 2.075000
v -2.214659 -0.500000 2.078018
v 2.212500 -0.500000 -2.074996
v 2.200000 -0.487500 -2.075000
v 2.075000 -0.487500 -2.200000
v 2.072542 -0.500000 -2.214746
v 2.212500 -0.500000 2.074996
v 2.200000 -0.487500 2.075000
v 2.072542 -0.500000 2.214746
v 2.075000 -0.487500 2.200000
v -2.075000 -0.487500 2.200000
v -2.078018 -0.500000 2.214659
v 2.362500 -0.500000 -2.019822
v 2.350000 -0.487500 -2.050000
v 2.350000 -0.487500 -2.350000
v 2.362500 -0.500000 -2.362500
v 2.050000 -0.487500 -2.350000
v 2.019822 -0.500000 -2.362500
v -2.019822 -0.500000 -2.362500
v -2.050000 -0.487500 -2.350000
v -2.350000 -0.487500 -2.350000
v -2.362500 -0.500000 -2.362500
v -2.350000 -0.487500 2.050000
v -2.362500 -0.500000 2.019822
v -2.019822 -0.500000 2.362500
v -2.050000 -0.487500 2.350000
v 2.019822 -0.500000 2.362500
v 2.050000 -0.487500 2.350000
v 2.350000 -0.487500 2.350000
v 2.362500 -0.500000 2.362500
v 2.350000 -0.487500 2.050000
v 2.362500 -0.500000 2.019822
v -2.350000 -0.487500 2.350000
v -2.362500 -0.500000 2.362500
v -2.350000 -0.487500 -2.050000
v -2.362500 -0.500000 -2.019822
v 2.350000 0.487500 2.050000
v 2.362500 0.500000 2.019822
v 2.019822 0.500000 2.362500
v 2.050000 0.487500 2.350000
v 2.350000 0.487500 2.350000
v 2.362500 0.500000 2.362500
v 2.350000 0.487500 -2.050000
v 2.362500 0.500000 -2.019822
v 2.362500 0.500000 -2.362500
v 2.350000 0.487500 -2.350000
v 2.019822 0.500000 -2.362500
v 2.050000 0.487500 -2.350000
v -2.050000 0.487500 -2.350000
v -2.019822 0.500000 -2.362500
v -2.362500 0.500000 -2.362500
v -2.350000 0.487500 -2.350000
v -2.362500 0.500000 -2.019822
v -2.350000 0.487500 -2.050000
v -2.350000 0.487500 2.050000
v -2.362500 0.500000 2.019822
v -2.362500 0.500000 2.362500
v -2.350000 0.487500 2.350000
v -2.019822 0.500000 2.362500
v -2.050000 0.487500 2.350000
vt 0.455200 0.616400
vt 0.454800 0.616400
vt 0.455200 0.616400
vt 0.454800 0.616400
vt 0.455200 0.616400
vt 0.454800 0.616400
vt 0.455200 0.616400
vt 0.454800 0.616400
vt 0.454800 0.616400
vt 0.455200 0.616400
vt 0.454800 0.616400
vt 0.455200 0.616400
vt 0.455200 0.616400
vt 0.454800 0.616400
vt 0.455200 0.616400
vt 0.454800 0.616400
vt 0.454900 0.616500
vt 0.454500 0.616500
vt 0.454900 0.616500
vt 0.454500 0.616500
vt 0.454900 0.616500
vt 0.454500 0.616500
vt 0.454900 0.616500
vt 0.454500 0.616500
vt 0.455100 0.616200
vt 0.455100 0.616200
vt 0.455100 0.616200
vt 0.454700 0.616200
vt 0.454700 0.616200
vt 0.454700 0.616200
vt 0.454700 0.616600
vt 0.454700 0.616600
vt 0.454700 0.616700
vt 0.455100 0.616600
vt 0.455100 0.616700
vt 0.455100 0.616600
vt 0.455200 0.616400
vt 0.454800 0.616400
vt 0.455200 0.616400
vt 0.454800 0.616400
vt 0.454800 0.616400
vt 0.455200 0.616400
vt 0.454800 0.616400
vt 0.455200 0.616400
vt 0.454800 0.616400
vt 0.455200 0.616400
vt 0.454800 0.616400
vt 0.455200 0.616400
vt 0.454800 0.616400
vt 0.455200 0.616400
vt 0.454800 0.616400
vt 0.455200 0.616400
vt 0.454900 0.616500
vt 0.454500 0.616500
vt 0.454900 0.616500
vt 0.454500 0.616500
vt 0.455100 0.616200
vt 0.455100 0.616600
vt 0.455100 0.616600
vt 0.455100 0.616700
vt 0.454700 0.616700
vt 0.454700 0.616600
vt 0.454700 0.616600
vt 0.454700 0.616200
vt 0.454700 0.616200
vt 0.454700 0.616200
vt 0.455100 0.616200
vt 0.455100 0.616200
vt 0.630625 0.560550
vt 0.630625 0.560550
vt 0.630625 0.560550
vt 0.630826 0.560750
vt 0.630826 0.560750
vt 0.630825 0.560750
vt 0.630429 0.560750
vt 0.630823 0.560750
vt 0.630625 0.560550
vt 0.630625 0.560550
vt 0.630625 0.560550
vt 0.630625 0.560550
vt 0.630625 0.560550
vt 0.630625 0.560550
vt 0.630298 0.560750
vt 0.630325 0.560750
vt 0.630437 0.560750
vt 0.630625 0.560550
vt 0.630825 0.560341
vt 0.630825 0.560265
vt 0.630825 0.560340
vt 0.630125 0.560550
vt 0.630125 0.560550
vt 0.630425 0.560341
vt 0.630823 0.560242
vt 0.630625 0.560550
vt 0.630625 0.560550
vt 0.630625 0.560550
vt 0.630311 0.560336
vt 0.630452 0.560265
vt 0.630625 0.560550
vt 0.630625 0.560550
vt 0.630625 0.560550
vt 0.630826 0.560265
vt 0.630825 0.560340
vt 0.630825 0.560341
vt 0.630125 0.560550
vt 0.630125 0.560550
vt 0.630823 0.560242
vt 0.630425 0.560341
vt 0.630625 0.560550
vt 0.630625 0.560550
vt 0.630625 0.560550
vt 0.630826 0.560750
vt 0.630826 0.560750
vt 0.630825 0.560750
vt 0.630429 0.560750
vt 0.630823 0.560750
vt 0.630625 0.560550
vt 0.630625 0.560550
vt 0.630625 0.560550
vt 0.630125 0.560550
vt 0.630625 0.560550
vt 0.630625 0.560550
vt 0.630298 0.560750
vt 0.630325 0.560750
vt 0.630437 0.560750
vt 0.630625 0.560550
vt 0.630452 0.560265
vt 0.630311 0.560336
vt 0.630825 0.560748
vt 0.630825 0.560351
vt 0.630125 0.560550
vt 0.630325 0.560350
vt 0.630325 0.560748
vt 0.630428 0.560247
vt 0.630314 0.560362
vt 0.454900 0.616500
vt 0.454500 0.616500
vt 0.454900 0.616500
vt 0.454500 0.616500
vt 0.630125 0.560550
vt 0.630125 0.560550
vt 0.630825 0.560748
vt 0.630825 0.560351
vt 0.630325 0.560350
vt 0.630325 0.560748
vt 0.630325 0.560353
vt 0.630625 0.560550
vt 0.630625 0.560550
vt 0.630625 0.560550
vt 0.630625 0.560550
vt 0.630625 0.560550
vt 0.630625 0.560550
vt 0.631126 0.560550
vt 0.630426 0.560550
vt 0.631126 0.560550
vt 0.630426 0.560550
vt 0.630625 0.560550
vt 0.630625 0.560550
vt 0.630625 0.560550
vt 0.630625 0.560450
vt 0.630625 0.560450
vt 0.630625 0.560550
vt 0.630625 0.560550
vt 0.630625 0.560550
vt 0.630625 0.560550
vt 0.630625 0.560550
vt 0.630625 0.560550
vt 0.630625 0.560450
vt 0.630625 0.560450
vt 0.630625 0.560550
vt 0.630625 0.560550
vt 0.630625 0.560550
vt 0.630625 0.560450
vt 0.630625 0.560450
vt 0.631126 0.560550
vt 0.630426 0.560550
vt 0.631126 0.560550
vt 0.630426 0.560550
vt 0.630426 0.560550
vt 0.631126 0.560550
vt 0.630426 0.560550
vt 0.631126 0.560550
vt 0.630426 0.560550
vt 0.630426 0.560550
vt 0.631126 0.560550
vt 0.631126 0.560550
vt 0.631126 0.560550
vt 0.630426 0.560550
vt 0.631126 0.560550
vt 0.630426 0.560550
vt 0.631126 0.560550
vt 0.631126 0.560550
vt 0.630426 0.560550
vt 0.630426 0.560550
vt 0.630426 0.560550
vt 0.631126 0.560550
vt 0.630426 0.560550
vt 0.631126 0.560550
vt 0.630426 0.560550
vt 0.631126 0.560550
vt 0.630426 0.560550
vt 0.631126 0.560550
vt 0.630625 0.560450
vt 0.631225 0.560450
vt 0.630625 0.560550
vt 0.631225 0.560550
vt 0.630525 0.560550
vt 0.630625 0.560550
vt 0.630525 0.560550
vt 0.630525 0.560550
vt 0.630625 0.560550
vt 0.630525 0.560550
vt 0.630925 0.560250
vt 0.630828 0.560353
vt 0.630625 0.560550
vt 0.630525 0.560550
vt 0.630625 0.560550
vt 0.630525 0.560550
vt 0.630125 0.560550
vt 0.630925 0.560851
vt 0.630325 0.560851
vt 0.630325 0.560250
vt 0.630325 0.560250
vt 0.630325 0.560752
vt 0.630525 0.560550
vt 0.630625 0.560550
vt 0.630525 0.560550
vt 0.630525 0.560550
vt 0.630625 0.560550
vt 0.630525 0.560550
vt 0.630428 0.560250
vt 0.630525 0.560550
vt 0.630625 0.560550
vt 0.630625 0.560550
vt 0.630525 0.560550
vt 0.630625 0.560550
vt 0.630525 0.560550
vt 0.630525 0.560550
vt 0.630625 0.560550
vt 0.630525 0.560550
vt 0.630125 0.560550
vt 0.630625 0.560550
vt 0.630625 0.560550
vt 0.630625 0.560550
vt 0.630125 0.560550
vt 0.630625 0.560550
vt 0.630827 0.560752
vt 0.630525 0.560550
vt 0.630625 0.560550
vt 0.630525 0.560550
vt 0.631225 0.560550
vt 0.631225 0.560450
vt 0.631225 0.560450
vt 0.631225 0.560550
vt 0.630125 0.560550
vt 0.630925 0.560851
vt 0.630325 0.560851
vt 0.630525 0.560550
vt 0.630625 0.560550
vt 0.630625 0.560550
vt 0.630525 0.560550
vt 0.630625 0.560550
vt 0.630525 0.560550
vt 0.630525 0.560550
vt 0.630625 0.560550
vt 0.630525 0.560550
vt 0.630325 0.560250
vt 0.630625 0.560550
vt 0.630525 0.560550
vt 0.630625 0.560550
vt 0.630525 0.560550
vt 0.630525 0.560550
vt 0.630625 0.560550
vt 0.630525 0.560550
vt 0.630429 0.560250
vt 0.630925 0.560250
vt 0.630625 0.560550
vt 0.630525 0.560550
vt 0.630625 0.560550
vt 0.630525 0.560550
vt 0.630525 0.560550
vt 0.630625 0.560550
vt 0.630525 0.560550
vt 0.630825 0.560362
vt 0.630525 0.560550
vt 0.630625 0.560550
vt 0.630525 0.560550
vt 0.630428 0.560247
vt 0.630125 0.560550
vt 0.630125 0.560550
vt 0.630625 0.560550
vt 0.630125 0.560550
vt 0.630625 0.560550
vt 0.630625 0.560550
vt 0.630827 0.560752
vt 0.631225 0.560450
vt 0.631225 0.560550
vt 0.630625 0.560550
vt 0.630525 0.560550
vt 0.630625 0.560550
vt 0.630625 0.560550
vt 0.630325 0.560250
vt 0.630525 0.560550
vt 0.630625 0.560550
vt 0.630625 0.560550
vt 0.630325 0.560752
vt 0.630525 0.560550
vt 0.630625 0.560550
vt 0.630625 0.560550
vt 0.630525 0.560550
vt 0.630525 0.560550
vt 0.630625 0.560550
vt 0.630625 0.560550
vt 0.630625 0.560550
vt 0.630827 0.560250
vt 0.660000 0.082500
vt 0.660000 0.082500
vt 0.660000 0.082400
vt 0.630525 0.560550
vt 0.630625 0.560550
vt 0.630625 0.560550
vt 0.630525 0.560550
vt 0.630525 0.560550
vt 0.630625 0.560550
vt 0.660000 0.082400
vt 0.660000 0.082400
vt 0.660000 0.082500
vt 0.660000 0.082400
vt 0.660000 0.082500
vt 0.660000 0.082500
vt 0.660000 0.082400
vt 0.660000 0.082400
vt 0.660000 0.082500
vt 0.630625 0.560550
vt 0.630625 0.560550
vt 0.630525 0.560550
vt 0.630625 0.560550
vt 0.630625 0.560550
vt 0.630625 0.560550
vt 0.630525 0.560550
vt 0.630625 0.560550
vt 0.630625 0.560550
vt 0.630625 0.560550
vt 0.630827 0.560250
vt 0.630625 0.560550
vt 0.630525 0.560550
vt 0.630625 0.560550
vt 0.630625 0.560550
vt 0.630525 0.560550
vt 0.630525 0.560550
vt 0.630625 0.560550
vt 0.630625 0.560550
vt 0.630525 0.560550
vt 0.660000 0.082500
vt 0.660000 0.082400
vt 0.660000 0.082500
vt 0.630525 0.560550
vt 0.630525 0.560550
vt 0.660000 0.082400
vt 0.660000 0.082400
vt 0.660000 0.082500
vt 0.660000 0.082500
vt 0.660000 0.082400
vt 0.660000 0.082500
vt 0.660000 0.082500
vt 0.660000 0.082400
vt 0.660000 0.082400
vt 0.630125 0.560550
vn 0.0000 -0.7071 -0.7071
vn -0.7071 -0.7071 -0.0000
vn 0.0000 -0.7071 0.7071
vn 0.7071 -0.7071 -0.0000
vn -1.0000 0.0000 0.0000
vn 0.0000 0.0000 -1.0000
vn 0.0000 -1.0000 -0.0000
vn 0.0000 0.7071 -0.7071
vn -0.7071 0.7071 0.0000
vn 0.0000 0.7071 0.7071
vn 0.7071 0.7071 0.0000
vn 1.0000 0.0000 0.0000
vn 0.0000 1.0000 0.0000
vn -0.7071 0.0000 -0.7071
vn -0.7071 0.0000 0.7071
vn 0.7071 0.0000 -0.7071
vn 0.7071 0.0000 0.7071
vn 0.0000 0.0000 1.0000
vn -0.5773 -0.5774 0.5773
vn 0.5773 -0.5774 0.5773
vn -0.5773 0.5774 0.5773
vn -0.5773 -0.5774 -0.5773
vn 0.5773 0.5774 0.5773
vn -0.5773 0.5774 -0.5773
vn -0.5799 0.5714 -0.5807
vn -0.5800 0.5712 -0.5808
vn -0.5776 0.5767 -0.5777
vn -0.5774 0.5772 -0.5774
vn -0.5776 0.5768 0.5777
vn -0.5799 0.5714 0.5807
vn -0.5774 0.5772 0.5774
vn 0.5807 0.5714 -0.5799
vn 0.5777 0.5767 -0.5777
vn 0.5774 0.5772 -0.5774
vn 0.6488 0.7609 0.0000
vn 0.6466 0.7628 0.0000
vn 0.5000 0.7071 0.5000
vn 0.5807 -0.5714 0.5799
vn 0.5777 -0.5767 0.5777
vn 0.5774 -0.5772 0.5774
vn 0.6488 -0.7609 -0.0000
vn 0.6466 -0.7628 -0.0000
vn -0.5799 -0.5714 0.5807
vn -0.5776 -0.5767 0.5777
vn -0.5774 -0.5772 0.5774
vn -0.5776 -0.5768 -0.5777
vn -0.5799 -0.5714 -0.5807
vn -0.5774 -0.5772 -0.5774
vn 0.5000 -0.7071 -0.5000
vn 0.0000 -0.7628 0.6466
vn 0.0000 -0.7609 0.6488
vn 0.0000 -0.7628 -0.6466
vn 0.0000 -0.7609 -0.6488
vn 0.0000 0.7609 -0.6488
vn 0.0000 0.7628 -0.6466
vn 0.0000 0.7628 0.6466
vn 0.0000 0.7609 0.6488
vn -0.5000 -0.7071 0.5000
vn 0.5000 -0.7071 0.5000
vn -0.5000 -0.7071 -0.5000
vn -0.5000 0.7071 -0.5000
vn -0.5000 0.7071 0.5000
vn 0.5000 0.7071 -0.5000
vn -0.5800 0.5712 0.5808
vn 0.5808 0.5712 -0.5800
vn 0.5808 -0.5712 0.5800
vn -0.5800 -0.5712 0.5808
vn -0.5800 -0.5712 -0.5808
usemtl 191,191,191.017
s 1
f 1/1/1 2/2/1 3/3/1
f 3/3/1 2/2/1 4/4/1
f 2/5/2 5/6/2 4/7/2
f 4/7/2 5/6/2 6/8/2
f 7/9/3 6/10/3 8/11/3
f 8/11/3 6/10/3 5/12/3
f 8/13/4 1/14/4 7/15/4
f 7/15/4 1/14/4 3/16/4
f 5/17/5 2/18/5 9/19/5
f 9/19/5 2/18/5 10/20/5
f 2/21/6 1/22/6 10/23/6
f 10/23/6 1/22/6 11/24/6
f 12/25/7 7/26/7 13/27/7
f 13/27/7 7/26/7 3/28/7
f 13/27/7 3/28/7 14/29/7
f 14/29/7 3/28/7 15/30/7
f 15/30/7 3/28/7 16/31/7
f 16/31/7 3/28/7 4/32/7
f 16/31/7 4/32/7 17/33/7
f 17/33/7 4/32/7 6/34/7
f 17/33/7 6/34/7 18/35/7
f 18/35/7 6/34/7 19/36/7
f 19/36/7 6/34/7 12/25/7
f 12/25/7 6/34/7 7/26/7
f 20/37/8 21/38/8 11/39/8
f 11/39/8 21/38/8 10/40/8
f 9/41/9 10/42/9 22/43/9
f 22/43/9 10/42/9 21/44/9
f 23/45/10 9/46/10 24/47/10
f 24/47/10 9/46/10 22/48/10
f 11/49/11 23/50/11 20/51/11
f 20/51/11 23/50/11 24/52/11
f 1/53/12 8/54/12 11/55/12
f 11/55/12 8/54/12 23/56/12
f 25/57/13 26/58/13 21/59/13
f 21/59/13 26/58/13 27/60/13
f 21/59/13 27/60/13 28/61/13
f 21/59/13 28/61/13 22/62/13
f 22/62/13 28/61/13 29/63/13
f 22/62/13 29/63/13 24/64/13
f 24/64/13 29/63/13 30/65/13
f 24/64/13 30/65/13 31/66/13
f 31/66/13 32/67/13 24/64/13
f 24/64/13 32/67/13 20/68/13
f 20/68/13 32/67/13 25/57/13
f 20/68/13 25/57/13 21/59/13
f 80/69/14 26/70/14 81/71/14
f 137/72/13 79/73/13 82/74/13
f 142/75/13 79/73/13 136/76/13
f 86/77/15 28/78/15 84/79/15
f 25/80/16 32/81/16 88/82/16
f 145/83/13 85/84/13 83/85/13
f 88/82/16 32/81/16 89/86/16
f 90/87/13 154/88/13 87/89/13
f 89/86/12 31/90/12 91/91/12
f 92/92/13 154/93/13 90/87/13
f 91/94/17 30/95/17 93/96/17
f 94/97/13 151/98/13 92/92/13
f 96/99/17 13/100/17 97/101/17
f 134/102/7 95/103/7 98/104/7
f 97/101/12 14/105/12 99/106/12
f 134/107/7 98/104/7 100/108/7
f 102/109/15 19/110/15 103/111/15
f 116/112/7 101/113/7 104/114/7
f 130/115/7 101/113/7 111/116/7
f 108/117/14 17/118/14 106/119/14
f 16/120/6 109/121/6 15/122/6
f 125/123/7 107/124/7 105/125/7
f 99/126/16 15/122/16 109/121/16
f 122/127/7 100/108/7 110/128/7
f 116/129/7 104/114/7 95/130/7
f 18/131/5 106/119/5 17/118/5
f 110/132/7 107/124/7 125/133/7
f 122/134/7 110/128/7 123/135/7
f 8/136/18 5/137/18 23/138/18
f 23/138/18 5/137/18 9/139/18
f 81/71/6 25/140/6 88/141/6
f 137/142/13 82/74/13 87/143/13
f 94/144/13 85/84/13 145/145/13
f 145/145/13 148/146/13 94/97/13
f 33/147/19 34/148/19 35/149/19
f 36/150/20 37/151/20 38/152/20
f 39/153/4 37/154/4 40/155/4
f 40/155/4 37/154/4 36/156/4
f 41/157/21 42/158/21 43/159/21
f 35/160/15 34/161/15 42/158/15
f 42/158/15 34/161/15 43/159/15
f 44/162/22 45/163/22 46/164/22
f 47/165/23 48/166/23 49/167/23
f 49/167/17 48/166/17 37/168/17
f 37/168/17 48/166/17 38/169/17
f 50/170/24 51/171/24 52/172/24
f 52/172/14 51/171/14 45/173/14
f 45/173/14 51/171/14 46/174/14
f 41/175/9 50/176/9 42/177/9
f 42/177/9 50/176/9 52/178/9
f 53/179/8 51/180/8 54/181/8
f 54/181/8 51/180/8 50/182/8
f 47/183/11 49/184/11 54/185/11
f 54/185/11 49/184/11 53/186/11
f 47/187/10 41/188/10 48/189/10
f 48/189/10 41/188/10 43/190/10
f 44/191/1 46/192/1 40/193/1
f 40/193/1 46/192/1 39/194/1
f 44/195/2 33/196/2 45/197/2
f 45/197/2 33/196/2 35/198/2
f 33/199/3 36/200/3 34/201/3
f 34/201/3 36/200/3 38/202/3
f 39/203/6 46/204/6 53/205/6
f 53/205/6 46/204/6 51/206/6
f 112/207/16 115/208/16 71/209/16
f 115/210/18 113/211/18 67/212/18
f 44/213/7 116/129/7 117/214/7
f 71/209/16 115/208/16 67/215/16
f 118/216/14 133/217/14 78/218/14
f 130/115/7 105/125/7 101/113/7
f 12/219/18 103/111/18 19/110/18
f 95/130/7 117/214/7 116/129/7
f 123/135/7 110/128/7 125/133/7
f 40/220/7 36/221/7 111/116/7
f 33/222/7 132/223/7 123/135/7
f 36/221/7 125/123/7 128/224/7
f 126/225/17 129/226/17 72/227/17
f 129/228/5 127/229/5 73/230/5
f 122/231/7 33/222/7 44/213/7
f 122/231/7 44/213/7 134/102/7
f 74/232/12 121/233/12 69/234/12
f 133/235/12 119/236/12 75/237/12
f 124/238/6 131/239/6 70/240/6
f 108/241/6 109/121/6 16/120/6
f 18/242/15 19/110/15 102/109/15
f 111/116/7 101/113/7 116/112/7
f 12/243/17 13/100/17 96/99/17
f 13/100/12 14/105/12 97/101/12
f 14/244/16 15/122/16 99/126/16
f 102/245/5 106/119/5 18/131/5
f 134/107/7 100/108/7 122/134/7
f 16/246/14 17/118/14 108/117/14
f 125/123/7 105/125/7 130/115/7
f 111/116/7 114/247/7 40/220/7
f 113/248/5 112/249/5 68/250/5
f 117/214/7 95/130/7 134/107/7
f 48/251/18 43/159/18 38/252/18
f 38/252/18 43/159/18 34/161/18
f 45/173/5 35/253/5 52/172/5
f 52/172/5 35/253/5 42/254/5
f 142/75/13 83/85/13 79/73/13
f 26/70/6 25/140/6 81/71/6
f 27/255/5 84/79/5 28/78/5
f 136/76/13 47/256/13 54/257/13
f 136/76/13 54/257/13 142/75/13
f 59/258/5 135/259/5 55/260/5
f 141/261/5 144/262/5 60/263/5
f 144/264/18 146/265/18 61/266/18
f 145/145/13 50/267/13 148/146/13
f 61/266/18 146/265/18 65/268/18
f 147/269/18 150/270/18 58/271/18
f 150/272/12 152/273/12 62/274/12
f 151/275/13 41/276/13 154/88/13
f 62/274/12 152/273/12 57/277/12
f 153/278/12 156/279/12 66/280/12
f 156/281/6 158/282/6 63/283/6
f 41/276/13 47/256/13 137/142/13
f 87/143/13 154/93/13 157/284/13
f 138/285/6 139/286/6 56/287/6
f 94/97/13 148/146/13 151/288/13
f 96/289/18 103/111/18 12/219/18
f 92/92/13 151/288/13 154/93/13
f 29/290/18 93/96/18 30/95/18
f 31/291/17 30/95/17 91/94/17
f 157/284/13 137/142/13 87/143/13
f 32/81/12 31/90/12 89/86/12
f 86/292/18 93/96/18 29/290/18
f 27/293/14 26/70/14 80/69/14
f 136/76/13 79/73/13 137/72/13
f 29/294/15 28/78/15 86/77/15
f 145/83/13 83/85/13 142/75/13
f 47/256/13 140/295/13 137/72/13
f 37/168/12 39/296/12 49/167/12
f 49/167/12 39/296/12 53/297/12
f 140/295/13 47/256/13 136/76/13
f 56/287/6 139/286/6 59/298/6
f 57/299/14 147/300/14 58/301/14
f 149/302/13 50/267/13 151/275/13
f 55/303/17 138/304/17 56/305/17
f 142/75/13 54/257/13 143/306/13
f 65/307/16 141/308/16 60/309/16
f 145/145/13 54/257/13 50/267/13
f 152/310/14 147/300/14 57/299/14
f 151/275/13 50/267/13 41/276/13
f 157/284/13 41/276/13 137/142/13
f 139/311/5 135/259/5 59/258/5
f 66/280/12 156/279/12 63/312/12
f 81/71/25 82/74/26 79/73/27
f 60/263/5 144/262/5 61/313/5
f 148/146/13 50/267/13 149/302/13
f 58/271/18 150/270/18 62/314/18
f 154/88/13 41/276/13 155/315/13
f 59/316/13 55/317/13 56/318/13
f 64/319/15 153/320/15 66/321/15
f 155/315/13 41/276/13 157/284/13
f 143/306/13 54/257/13 145/83/13
f 146/322/16 141/308/16 65/307/16
f 158/323/15 153/320/15 64/319/15
f 63/283/6 158/282/6 64/324/6
f 62/325/13 57/326/13 58/327/13
f 65/328/13 60/329/13 61/330/13
f 66/331/13 63/332/13 64/333/13
f 67/212/18 113/211/18 68/334/18
f 40/220/7 116/129/7 44/213/7
f 132/223/7 33/222/7 122/231/7
f 33/222/7 125/133/7 36/221/7
f 68/250/5 112/249/5 71/335/5
f 40/220/7 114/247/7 116/112/7
f 77/336/6 126/337/6 72/338/6
f 70/240/6 131/239/6 74/339/6
f 69/340/15 124/341/15 70/342/15
f 78/218/14 133/217/14 75/343/14
f 111/116/7 36/221/7 130/115/7
f 44/213/7 117/214/7 120/344/7
f 75/237/12 119/236/12 76/345/12
f 121/346/15 124/341/15 69/340/15
f 73/230/5 127/229/5 77/347/5
f 72/227/17 129/226/17 73/348/17
f 123/135/7 125/133/7 33/222/7
f 131/349/12 121/233/12 74/232/12
f 76/350/18 118/351/18 78/352/18
f 134/102/7 44/213/7 120/344/7
f 36/221/7 128/224/7 130/115/7
f 127/353/6 126/337/6 77/336/6
f 71/354/7 67/355/7 68/356/7
f 119/357/18 118/351/18 76/350/18
f 135/358/17 138/304/17 55/303/17
f 74/359/7 69/360/7 70/361/7
f 77/362/7 72/363/7 73/364/7
f 78/365/7 75/366/7 76/367/7
f 81/71/25 79/73/27 80/69/28
f 83/85/9 80/368/9 79/73/9
f 83/85/29 86/77/30 84/79/31
f 89/86/32 87/89/33 88/82/34
f 91/91/35 90/87/36 89/86/36
f 93/96/37 92/92/37 91/94/37
f 97/101/38 95/103/39 96/99/40
f 99/106/41 98/104/42 97/101/42
f 103/111/43 101/113/44 102/109/45
f 105/125/2 102/245/2 101/113/2
f 105/125/46 108/117/47 106/119/48
f 109/121/49 100/108/49 99/126/49
f 104/114/50 96/289/51 95/130/51
f 107/124/52 109/121/53 108/241/52
f 88/141/54 82/74/55 81/71/55
f 85/84/56 93/96/57 86/292/56
f 112/249/2 114/247/2 111/116/2
f 115/210/3 114/247/3 113/211/3
f 118/351/3 120/344/3 117/214/3
f 116/112/49 112/207/49 111/116/49
f 123/135/58 121/346/58 122/134/58
f 126/337/1 128/224/1 125/123/1
f 129/228/2 128/224/2 127/229/2
f 121/233/4 132/223/4 122/231/4
f 133/235/4 120/344/4 119/236/4
f 132/223/1 124/238/1 123/135/1
f 125/123/59 129/226/59 126/225/59
f 117/214/60 133/217/60 118/216/60
f 137/72/37 135/358/37 136/76/37
f 135/259/9 140/295/9 136/76/9
f 143/306/9 141/261/9 142/75/9
f 143/306/10 146/265/10 144/264/10
f 149/302/10 147/269/10 148/146/10
f 149/302/11 152/273/11 150/272/11
f 155/315/11 153/278/11 154/88/11
f 155/315/8 158/282/8 156/281/8
f 140/295/8 138/285/8 137/72/8
f 152/310/61 148/146/61 147/300/61
f 153/320/62 157/284/62 154/93/62
f 141/308/63 145/83/63 142/75/63
f 80/368/5 84/79/5 27/255/5
f 83/85/9 84/79/9 80/368/9
f 83/85/29 85/84/64 86/77/30
f 89/86/32 90/87/65 87/89/33
f 91/91/35 92/92/35 90/87/36
f 93/96/37 94/97/37 92/92/37
f 97/101/38 98/104/66 95/103/39
f 99/106/41 100/108/41 98/104/42
f 103/111/43 104/114/67 101/113/44
f 105/125/2 106/119/2 102/245/2
f 105/125/46 107/124/68 108/117/47
f 109/121/49 110/128/49 100/108/49
f 104/114/50 103/111/50 96/289/51
f 107/124/52 110/132/53 109/121/53
f 88/141/54 87/143/54 82/74/55
f 85/84/56 94/144/57 93/96/57
f 112/249/2 113/248/2 114/247/2
f 115/210/3 116/112/3 114/247/3
f 118/351/3 119/357/3 120/344/3
f 116/112/49 115/208/49 112/207/49
f 123/135/58 124/341/58 121/346/58
f 126/337/1 127/353/1 128/224/1
f 129/228/2 130/115/2 128/224/2
f 121/233/4 131/349/4 132/223/4
f 133/235/4 134/102/4 120/344/4
f 132/223/1 131/239/1 124/238/1
f 125/123/59 130/115/59 129/226/59
f 117/214/60 134/107/60 133/217/60
f 137/72/37 138/304/37 135/358/37
f 135/259/9 139/311/9 140/295/9
f 143/306/9 144/262/9 141/261/9
f 143/306/10 145/83/10 146/265/10
f 149/302/10 150/270/10 147/269/10
f 149/302/11 151/275/11 152/273/11
f 155/315/11 156/279/11 153/278/11
f 155/315/8 157/284/8 158/282/8
f 140/295/8 139/286/8 138/285/8
f 152/310/61 151/288/61 148/146/61
f 153/320/62 158/323/62 157/284/62
f 141/308/63 146/322/63 145/83/63
