# Blender v2.91.2 OBJ File: 'OS_Arms.blend'
# www.blender.org
mtllib OS_HA_Gun_Base.mtl
o Gun_Base_Cube.004
v -0.200000 0.200000 0.200000
v -0.200000 0.200000 -0.200000
v 0.200000 0.200000 0.200000
v 0.200000 0.200000 -0.200000
v -0.305825 0.200000 0.186330
v -0.186330 0.200000 0.339806
v -0.186330 0.200000 -0.339806
v -0.305825 0.200000 -0.186330
v 0.305825 0.200000 -0.186330
v 0.186330 0.200000 -0.339806
v 0.186330 0.200000 0.339806
v 0.305825 0.200000 0.186330
v -0.189925 0.152418 0.309353
v -0.273149 0.152418 0.196113
v -0.273149 0.152418 -0.196113
v -0.189925 0.152418 -0.309353
v 0.189925 0.152418 -0.309353
v 0.273149 0.152418 -0.196113
v 0.273149 0.152418 0.196113
v 0.189925 0.152418 0.309353
v 0.142232 -0.076674 -0.008342
v -0.142232 -0.076674 -0.008342
v -0.142232 -0.055709 -0.058955
v 0.142232 -0.055709 -0.058955
v -0.142232 0.038795 -0.118417
v 0.142232 0.038795 -0.118417
v 0.142232 -0.018955 -0.095709
v -0.142232 -0.018955 -0.095709
v -0.142232 -0.076674 0.008342
v 0.142232 -0.076674 0.008342
v 0.142232 -0.055709 0.058955
v -0.142232 -0.055709 0.058955
v 0.142232 0.038795 0.118417
v -0.142232 0.038795 0.118417
v -0.142232 -0.018955 0.095709
v 0.142232 -0.018955 0.095709
v 0.142232 0.110138 0.130365
v -0.142232 0.110138 0.130365
v -0.142232 0.110138 -0.130365
v 0.142232 0.110138 -0.130365
v -0.138389 0.104652 0.215653
v -0.151510 0.091727 0.213394
v -0.142232 0.097110 0.204916
v -0.142232 0.097110 -0.204916
v -0.151510 0.091727 -0.213394
v -0.138389 0.104652 -0.215653
v 0.138389 0.104652 -0.215653
v 0.151510 0.091727 -0.213394
v 0.142232 0.097110 -0.204916
v 0.138389 0.104652 0.215653
v 0.142232 0.097110 0.204916
v 0.151510 0.091727 0.213394
v -0.151510 -0.156450 0.033488
v -0.151510 -0.160000 0.015639
v -0.142232 -0.150722 0.023071
v -0.142232 -0.118484 0.100901
v -0.151510 -0.119789 0.112716
v -0.151510 -0.129900 0.097584
v -0.151510 -0.057584 0.169900
v -0.151510 -0.072716 0.159789
v -0.142232 -0.060901 0.158484
v -0.190722 0.006512 0.196450
v -0.190722 0.024222 0.201597
v -0.200000 0.017688 0.191037
v -0.151510 0.006512 -0.196450
v -0.151510 0.024222 -0.201597
v -0.142232 0.017688 -0.191037
v -0.142232 -0.060901 -0.158484
v -0.151510 -0.072716 -0.159789
v -0.151510 -0.057584 -0.169900
v -0.151510 -0.129900 -0.097584
v -0.151510 -0.119789 -0.112716
v -0.142232 -0.118484 -0.100901
v -0.190722 -0.156450 -0.033488
v -0.190722 -0.160000 -0.015639
v -0.200000 -0.150722 -0.023071
v 0.151510 0.006512 0.196450
v 0.151510 0.024222 0.201597
v 0.142232 0.017688 0.191037
v 0.142232 -0.060901 0.158484
v 0.151510 -0.072716 0.159789
v 0.151510 -0.057584 0.169900
v 0.151510 -0.129900 0.097584
v 0.151510 -0.119789 0.112716
v 0.142232 -0.118484 0.100901
v 0.190722 -0.156450 0.033488
v 0.190722 -0.160000 0.015639
v 0.200000 -0.150722 0.023071
v 0.151510 -0.156450 -0.033488
v 0.151510 -0.160000 -0.015639
v 0.142232 -0.150722 -0.023071
v 0.151510 -0.129900 -0.097584
v 0.142232 -0.118484 -0.100901
v 0.151510 -0.119789 -0.112716
v 0.151510 -0.057584 -0.169900
v 0.151510 -0.072716 -0.159789
v 0.142232 -0.060901 -0.158484
v 0.190722 0.006512 -0.196450
v 0.190722 0.024222 -0.201597
v 0.200000 0.017688 -0.191037
v 0.177602 0.143279 0.222403
v 0.190722 0.130354 0.220144
v 0.200000 0.154003 0.224207
v -0.177602 0.143279 0.222403
v -0.200000 0.154003 0.224207
v -0.190722 0.130354 0.220144
v -0.177602 0.143279 -0.222403
v -0.190722 0.130354 -0.220144
v -0.200000 0.154003 -0.224207
v 0.177602 0.143279 -0.222403
v 0.200000 0.154003 -0.224207
v 0.190722 0.130354 -0.220144
v 0.190722 -0.129900 -0.097584
v 0.190722 -0.119789 -0.112716
v 0.200000 -0.118484 -0.100901
v 0.190722 -0.156450 -0.033488
v 0.200000 -0.150722 -0.023071
v 0.190722 -0.160000 -0.015639
v -0.151510 -0.156450 -0.033488
v -0.142232 -0.150722 -0.023071
v -0.151510 -0.160000 -0.015639
v -0.190722 -0.129900 -0.097584
v -0.200000 -0.118484 -0.100901
v -0.190722 -0.119789 -0.112716
v -0.190722 -0.057584 -0.169900
v -0.190722 -0.072716 -0.159789
v -0.200000 -0.060901 -0.158484
v -0.190722 0.006512 -0.196450
v -0.200000 0.017688 -0.191037
v -0.190722 0.024222 -0.201597
v 0.142232 0.017688 -0.191037
v 0.151510 0.024222 -0.201597
v 0.151510 0.006512 -0.196450
v 0.190722 -0.057584 -0.169900
v 0.200000 -0.060901 -0.158484
v 0.190722 -0.072716 -0.159789
v -0.190722 -0.129900 0.097584
v -0.190722 -0.119789 0.112716
v -0.200000 -0.118484 0.100901
v -0.190722 -0.156450 0.033488
v -0.200000 -0.150722 0.023071
v -0.190722 -0.160000 0.015639
v 0.142232 -0.150722 0.023071
v 0.151510 -0.160000 0.015639
v 0.151510 -0.156450 0.033488
v 0.190722 -0.129900 0.097584
v 0.200000 -0.118484 0.100901
v 0.190722 -0.119789 0.112716
v 0.190722 -0.057584 0.169900
v 0.190722 -0.072716 0.159789
v 0.200000 -0.060901 0.158484
v 0.190722 0.006512 0.196450
v 0.200000 0.017688 0.191037
v 0.190722 0.024222 0.201597
v -0.151510 0.006512 0.196450
v -0.142232 0.017688 0.191037
v -0.151510 0.024222 0.201597
v -0.190722 -0.057584 0.169900
v -0.200000 -0.060901 0.158484
v -0.190722 -0.072716 0.159789
v -0.187228 0.173664 0.332200
v -0.186330 0.190055 0.339806
v -0.305825 0.190055 0.186330
v -0.298149 0.174084 0.188628
v -0.298149 0.174084 -0.188628
v -0.305825 0.190055 -0.186330
v -0.186330 0.190055 -0.339806
v -0.187228 0.173664 -0.332200
v 0.187228 0.173664 -0.332200
v 0.186330 0.190055 -0.339806
v 0.305825 0.190055 -0.186330
v 0.298149 0.174084 -0.188628
v 0.298149 0.174084 0.188628
v 0.305825 0.190055 0.186330
v 0.186330 0.190055 0.339806
v 0.187228 0.173664 0.332200
vt 0.484945 0.588710
vt 0.484945 0.615681
vt 0.484945 0.609590
vt 0.484945 0.594801
vt 0.511969 0.615681
vt 0.505866 0.615681
vt 0.491048 0.615681
vt 0.511969 0.588710
vt 0.491048 0.588710
vt 0.505866 0.588710
vt 0.511969 0.594801
vt 0.511969 0.609590
vt 0.484945 0.615681
vt 0.511969 0.615681
vt 0.511969 0.588710
vt 0.484945 0.588710
vt 0.481043 0.573545
vt 0.481043 0.578968
vt 0.481043 0.578968
vt 0.481043 0.573545
vt 0.497400 0.558470
vt 0.499514 0.558470
vt 0.499514 0.561114
vt 0.497400 0.561114
vt 0.505629 0.538664
vt 0.509695 0.538664
vt 0.509695 0.538664
vt 0.505629 0.538664
vt 0.511978 0.582805
vt 0.538983 0.582805
vt 0.534494 0.582805
vt 0.516467 0.582805
vt 0.517733 0.585442
vt 0.506297 0.585494
vt 0.507699 0.582805
vt 0.516718 0.582805
vt 0.544664 0.585494
vt 0.533228 0.585442
vt 0.534243 0.582805
vt 0.543262 0.582805
vt 0.490617 0.585494
vt 0.479181 0.585442
vt 0.480196 0.582805
vt 0.489215 0.582805
vt 0.533290 0.585442
vt 0.489463 0.582805
vt 0.507451 0.582805
vt 0.506238 0.585494
vt 0.490676 0.585494
vt 0.462420 0.582805
vt 0.457922 0.582805
vt 0.457933 0.582805
vt 0.543510 0.582805
vt 0.538992 0.582805
vt 0.566026 0.582805
vt 0.561498 0.582805
vt 0.484945 0.582805
vt 0.484947 0.582805
vt 0.511969 0.582805
vt 0.464024 0.587476
vt 0.464024 0.588710
vt 0.457922 0.588710
vt 0.457922 0.587476
vt 0.461824 0.573545
vt 0.461824 0.570336
vt 0.461824 0.570336
vt 0.461824 0.573545
vt 0.506072 0.558470
vt 0.509252 0.558470
vt 0.509252 0.561114
vt 0.506072 0.561114
vt 0.481043 0.570336
vt 0.481043 0.570336
vt 0.499514 0.538038
vt 0.497400 0.538038
vt 0.497400 0.535394
vt 0.499514 0.535394
vt 0.481669 0.578713
vt 0.481669 0.574161
vt 0.484318 0.574161
vt 0.484318 0.581317
vt 0.500719 0.558470
vt 0.505050 0.558470
vt 0.505050 0.561114
vt 0.500719 0.561114
vt 0.461198 0.570675
vt 0.461198 0.573206
vt 0.458548 0.573206
vt 0.458548 0.570675
vt 0.535716 0.573206
vt 0.535716 0.570675
vt 0.538365 0.570675
vt 0.538365 0.573206
vt 0.478842 0.587476
vt 0.478842 0.588710
vt 0.532890 0.588710
vt 0.532890 0.587476
vt 0.545095 0.587476
vt 0.545095 0.588710
vt 0.505866 0.587476
vt 0.518071 0.587476
vt 0.518071 0.588710
vt 0.491048 0.587476
vt 0.463624 0.585442
vt 0.457922 0.585494
vt 0.559913 0.587476
vt 0.559913 0.588710
vt 0.560285 0.585494
vt 0.461824 0.578968
vt 0.461824 0.578968
vt 0.535089 0.573545
vt 0.535089 0.578968
vt 0.535089 0.578968
vt 0.535089 0.573545
vt 0.509695 0.557844
vt 0.505629 0.557844
vt 0.505629 0.557844
vt 0.509695 0.557844
vt 0.500140 0.538664
vt 0.500140 0.538664
vt 0.535089 0.570336
vt 0.535089 0.570336
vt 0.480447 0.582805
vt 0.496774 0.538664
vt 0.496774 0.538664
vt 0.500015 0.562365
vt 0.505269 0.564539
vt 0.509153 0.568421
vt 0.511288 0.573720
vt 0.511981 0.582912
vt 0.484933 0.582912
vt 0.485626 0.573720
vt 0.487761 0.568421
vt 0.491645 0.564539
vt 0.496899 0.562365
vt 0.491285 0.557844
vt 0.487219 0.557844
vt 0.487219 0.557844
vt 0.491285 0.557844
vt 0.554062 0.562365
vt 0.559316 0.564539
vt 0.563200 0.568421
vt 0.565335 0.573720
vt 0.566028 0.582912
vt 0.538980 0.582912
vt 0.539673 0.573720
vt 0.541808 0.568421
vt 0.545692 0.564539
vt 0.550946 0.562365
vt 0.490842 0.538038
vt 0.487662 0.538038
vt 0.487662 0.535394
vt 0.490842 0.535394
vt 0.487219 0.538664
vt 0.491285 0.538664
vt 0.491285 0.538664
vt 0.487219 0.538664
vt 0.515871 0.578968
vt 0.515871 0.578968
vt 0.516131 0.579584
vt 0.534830 0.579584
vt 0.537479 0.582189
vt 0.513482 0.582189
vt 0.505050 0.538038
vt 0.500719 0.538038
vt 0.500719 0.535394
vt 0.505050 0.535394
vt 0.496774 0.557844
vt 0.496774 0.557844
vt 0.500140 0.557844
vt 0.500140 0.557844
vt 0.515871 0.573545
vt 0.515871 0.570336
vt 0.515871 0.570336
vt 0.515871 0.573545
vt 0.461198 0.574161
vt 0.461198 0.578713
vt 0.458548 0.581317
vt 0.458548 0.574161
vt 0.515245 0.570675
vt 0.515245 0.573206
vt 0.512595 0.573206
vt 0.512595 0.570675
vt 0.515245 0.574161
vt 0.515245 0.578713
vt 0.512595 0.581317
vt 0.512595 0.574161
vt 0.496195 0.538038
vt 0.491864 0.538038
vt 0.491864 0.535394
vt 0.496194 0.535394
vt 0.509252 0.538038
vt 0.506072 0.538038
vt 0.506072 0.535394
vt 0.509252 0.535394
vt 0.491864 0.558470
vt 0.496195 0.558470
vt 0.496195 0.561114
vt 0.491864 0.561114
vt 0.462084 0.579584
vt 0.480783 0.579584
vt 0.483432 0.582189
vt 0.459435 0.582189
vt 0.487662 0.558470
vt 0.490842 0.558470
vt 0.490842 0.561114
vt 0.487662 0.561114
vt 0.481669 0.573206
vt 0.481669 0.570675
vt 0.484318 0.570675
vt 0.484318 0.573206
vt 0.535716 0.578713
vt 0.535716 0.574161
vt 0.538365 0.574161
vt 0.538365 0.581317
vt 0.461198 0.570336
vt 0.461824 0.570403
vt 0.458548 0.573545
vt 0.457922 0.573507
vt 0.509252 0.538664
vt 0.509695 0.538664
vt 0.500140 0.535394
vt 0.500255 0.534769
vt 0.487662 0.557844
vt 0.487219 0.557844
vt 0.496774 0.561114
vt 0.496658 0.561740
vt 0.515245 0.570336
vt 0.515871 0.570403
vt 0.512595 0.573545
vt 0.511969 0.573507
vt 0.483875 0.581753
vt 0.458992 0.581753
vt 0.537922 0.581753
vt 0.513039 0.581753
vt 0.505629 0.561114
vt 0.505514 0.561740
vt 0.500255 0.561740
vt 0.500140 0.561114
vt 0.505514 0.534769
vt 0.505629 0.535394
vt 0.538365 0.570336
vt 0.538992 0.570403
vt 0.538992 0.573507
vt 0.538365 0.573545
vt 0.511969 0.570403
vt 0.512595 0.570336
vt 0.491285 0.535394
vt 0.491400 0.534769
vt 0.496658 0.534769
vt 0.496774 0.535394
vt 0.491400 0.561740
vt 0.491285 0.561114
vt 0.484318 0.570336
vt 0.484945 0.570403
vt 0.484945 0.573507
vt 0.484318 0.573545
vt 0.457922 0.570403
vt 0.458548 0.570336
vt 0.500719 0.561979
vt 0.505050 0.563769
vt 0.545911 0.563769
vt 0.550242 0.561979
vt 0.539232 0.572967
vt 0.541026 0.568645
vt 0.509935 0.568645
vt 0.511729 0.572967
vt 0.554766 0.561979
vt 0.559097 0.563769
vt 0.491864 0.563769
vt 0.496195 0.561979
vt 0.485185 0.572967
vt 0.486979 0.568645
vt 0.563982 0.568645
vt 0.565776 0.572967
vt 0.496898 0.534769
vt 0.500016 0.534769
vt 0.487307 0.534769
vt 0.491197 0.534769
vt 0.457922 0.573613
vt 0.505717 0.534769
vt 0.509607 0.534769
vt 0.487662 0.567625
vt 0.490842 0.564451
vt 0.506072 0.564451
vt 0.509252 0.567625
vt 0.509695 0.535394
vt 0.509695 0.538038
vt 0.509695 0.558470
vt 0.509695 0.561114
vt 0.487219 0.561114
vt 0.487219 0.558470
vt 0.487219 0.538038
vt 0.487219 0.535394
vn 0.0000 1.0000 0.0000
vn -0.9101 -0.1156 0.3979
vn -0.6352 -0.7013 0.3234
vn -0.6882 -0.7228 -0.0627
vn -1.0000 0.0000 0.0000
vn -0.3624 -0.9287 0.0782
vn -0.3624 -0.9287 -0.0782
vn 0.3624 -0.9287 -0.0782
vn 0.3624 -0.9287 0.0782
vn 0.8993 -0.3636 -0.2430
vn 0.8993 -0.2430 -0.3636
vn 1.0000 0.0000 0.0000
vn 0.2646 -0.9266 -0.2670
vn -0.2646 -0.9266 -0.2670
vn -0.2910 -0.8653 -0.4081
vn 0.2910 -0.8653 -0.4081
vn 0.3853 -0.5230 -0.7603
vn 0.8048 -0.5214 -0.2835
vn 0.4332 -0.8767 -0.2091
vn -0.8048 -0.5214 -0.2835
vn -0.3853 -0.5230 -0.7603
vn -0.4332 -0.8767 -0.2091
vn 0.8048 -0.5214 0.2835
vn 0.3853 -0.5230 0.7603
vn 0.2910 -0.8653 0.4081
vn 0.4332 -0.8767 0.2091
vn -0.2910 -0.8653 0.4081
vn -0.4332 -0.8767 0.2091
vn -0.2646 -0.9266 0.2670
vn 0.2646 -0.9266 0.2670
vn -0.4084 -0.1876 0.8933
vn -0.3444 0.6203 0.7046
vn -0.7261 0.6408 0.2493
vn -0.9362 -0.1859 0.2981
vn 0.9101 -0.1156 0.3979
vn 0.8993 -0.2430 0.3636
vn -0.3624 -0.7120 -0.6013
vn -0.3624 -0.6014 -0.7120
vn 0.3624 -0.6014 -0.7120
vn 0.3624 -0.7120 -0.6013
vn -0.8993 -0.2430 0.3636
vn -0.3148 -0.2529 0.9148
vn -0.3708 -0.2023 0.9064
vn 0.2743 -0.2181 0.9366
vn 0.2149 -0.1824 0.9594
vn -0.3624 -0.8880 -0.2831
vn -0.3624 -0.8281 -0.4277
vn 0.3624 -0.8281 -0.4277
vn 0.3624 -0.8880 -0.2831
vn 0.3624 -0.4277 0.8281
vn 0.3708 -0.3151 0.8736
vn -0.3708 -0.3151 0.8736
vn -0.3624 -0.4277 0.8281
vn 0.3708 -0.3151 -0.8736
vn 0.3624 -0.4277 -0.8281
vn -0.3624 -0.4277 -0.8281
vn -0.3708 -0.3151 -0.8736
vn 0.4084 -0.1876 0.8933
vn 0.3444 0.6203 0.7046
vn -0.3444 0.6203 -0.7046
vn -0.4084 -0.1876 -0.8933
vn -0.9362 -0.1859 -0.2981
vn -0.7261 0.6408 -0.2493
vn 0.7261 0.6408 -0.2493
vn 0.9362 -0.1859 -0.2981
vn 0.4084 -0.1876 -0.8933
vn 0.3444 0.6203 -0.7046
vn 0.9362 -0.1859 0.2981
vn 0.7261 0.6408 0.2493
vn -0.3853 -0.5230 0.7603
vn -0.8048 -0.5214 0.2835
vn 0.6352 -0.7013 0.3234
vn 0.6882 -0.7228 -0.0627
vn 0.9101 -0.1156 -0.3979
vn 0.6352 -0.7013 -0.3234
vn 0.6882 -0.7228 0.0627
vn -0.8993 -0.2430 -0.3636
vn -0.8993 -0.3636 -0.2430
vn 0.8993 -0.4289 -0.0853
vn 0.8993 -0.4289 0.0853
vn 0.8942 -0.1277 -0.4289
vn 0.8942 -0.1277 0.4289
vn 0.8993 -0.3636 0.2430
vn -0.8993 -0.3636 0.2430
vn -0.8993 -0.4289 0.0853
vn -0.8942 -0.1277 0.4289
vn -0.8942 -0.1277 -0.4289
vn -0.8993 -0.4289 -0.0853
vn 0.3624 -0.7120 0.6013
vn 0.3624 -0.6014 0.7120
vn -0.3624 -0.6014 0.7120
vn -0.3624 -0.7120 0.6013
vn -0.6352 -0.7013 -0.3234
vn -0.6882 -0.7228 0.0627
vn -0.0916 -0.4727 -0.8764
vn 0.0916 -0.4727 -0.8764
vn -0.0004 -0.1690 -0.9856
vn 0.0004 -0.1690 -0.9856
vn -0.9101 -0.1156 -0.3979
vn 0.3708 -0.2023 0.9064
vn 0.3148 -0.2529 0.9148
vn -0.2149 -0.1824 0.9594
vn -0.2743 -0.2181 0.9366
vn -0.3708 -0.2023 -0.9064
vn -0.3148 -0.2529 -0.9148
vn 0.2149 -0.1824 -0.9594
vn 0.2743 -0.2181 -0.9366
vn 0.3624 -0.8880 0.2831
vn 0.3624 -0.8281 0.4277
vn -0.3624 -0.8281 0.4277
vn -0.3624 -0.8880 0.2831
vn -0.3624 -0.7120 -0.6014
vn -0.3624 -0.6013 -0.7120
vn 0.0916 -0.4727 0.8764
vn -0.0916 -0.4727 0.8764
vn 0.0004 -0.1690 0.9856
vn -0.0004 -0.1690 0.9856
vn 0.3624 -0.7120 0.6014
vn 0.3624 -0.6013 0.7120
vn 0.3148 -0.2529 -0.9148
vn 0.3708 -0.2023 -0.9064
vn -0.2743 -0.2181 -0.9366
vn -0.2149 -0.1824 -0.9594
usemtl Material.018
s off
f 3/1/1 1/2/1 6/3/1 11/4/1
f 1/2/1 2/5/1 8/6/1 5/7/1
f 4/8/1 2/5/1 1/2/1 3/1/1
f 4/8/1 3/1/1 12/9/1 9/10/1
f 2/5/1 4/8/1 10/11/1 7/12/1
f 5/7/1 6/13/1 1/2/1
f 7/12/1 8/14/1 2/5/1
f 9/10/1 10/15/1 4/8/1
f 11/4/1 12/16/1 3/1/1
s 1
f 79/17/2 51/18/3 37/19/4 33/20/5
f 144/21/6 90/22/7 118/23/8 87/24/9
f 73/25/10 68/26/11 28/27/12 23/28/12
f 111/29/13 109/30/14 16/31/15 17/32/16
f 169/33/17 172/34/18 18/35/19 17/36/16
f 165/37/20 168/38/21 16/39/15 15/40/22
f 173/41/23 176/42/24 20/43/25 19/44/26
f 17/32/16 16/31/15 168/45/21 169/33/17
f 19/46/26 18/47/19 172/48/18 173/49/23
f 13/50/27 14/51/28 105/52/29
f 15/53/22 16/54/15 109/30/14
f 109/30/14 105/55/29 14/56/28 15/53/22
f 19/46/26 20/57/25 103/58/30
f 17/32/16 18/59/19 111/29/13
f 103/58/30 111/29/13 18/47/19 19/46/26
f 162/60/31 6/61/32 5/62/33 163/63/34
f 156/64/35 61/65/36 35/66/12 34/67/12
f 94/68/37 96/69/38 136/70/39 114/71/40
f 80/72/41 79/17/2 33/20/5 36/73/5
f 121/74/8 54/75/9 142/76/6 75/77/7
f 52/78/42 78/79/43 154/80/44 102/81/45
f 89/82/46 92/83/47 113/84/48 116/85/49
f 59/86/50 155/87/51 62/88/52 158/89/53
f 65/90/54 70/91/55 125/92/56 128/93/57
f 175/94/58 11/95/59 6/61/32 162/60/31
f 7/96/60 167/97/61 166/98/62 8/99/63
f 9/10/64 171/100/65 170/101/66 10/102/67
f 11/95/59 175/94/58 174/103/68 12/9/69
f 161/104/70 164/105/71 14/51/28 13/50/27
f 163/106/34 5/107/33 8/99/63 166/98/62
f 167/97/61 7/96/60 10/102/67 170/101/66
f 171/100/65 9/10/64 12/9/69 174/103/68
f 15/53/22 14/56/28 164/108/71 165/37/20
f 43/109/72 156/64/35 34/67/12 38/110/73
f 67/111/74 44/112/75 39/113/76 25/114/12
f 97/115/77 93/116/78 24/117/5 27/118/5
f 120/119/79 73/25/10 23/28/12 22/120/12
f 68/121/11 67/111/74 25/114/12 28/122/12
f 105/52/29 103/58/30 20/123/25 13/50/27
f 55/124/80 120/119/79 22/120/12 29/125/12
f 117/126/79 115/127/10 135/128/11 100/129/81 111/130/13 103/131/30 153/132/82 151/133/36 147/134/83 88/135/80
f 85/136/84 80/137/41 36/138/5 31/139/5
f 141/140/85 139/141/84 159/142/41 64/143/86 105/144/29 109/145/14 129/146/87 127/147/77 123/148/78 76/149/88
f 57/150/89 60/151/90 160/152/91 138/153/92
f 61/154/36 56/155/83 32/156/12 35/157/12
f 44/112/75 49/158/93 40/159/94 39/113/76
f 47/160/95 46/161/96 107/162/97 110/163/98
f 71/164/48 119/165/49 74/166/46 122/167/47
f 143/168/85 85/136/84 31/139/5 30/169/5
f 91/170/88 143/168/85 30/169/5 21/171/5
f 56/155/83 55/124/80 29/125/12 32/156/12
f 131/172/99 97/173/77 27/174/5 26/175/5
f 49/158/93 131/172/99 26/175/5 40/159/94
f 157/176/100 42/177/101 106/178/102 63/179/103
f 95/180/56 133/181/57 98/182/54 134/183/55
f 132/184/104 48/185/105 112/186/106 99/187/107
f 53/188/108 58/189/109 137/190/110 140/191/111
f 69/192/39 72/193/40 124/194/112 126/195/113
f 83/196/110 145/197/111 86/198/108 146/199/109
f 41/200/114 50/201/115 101/202/116 104/203/117
f 81/204/91 84/205/92 148/206/118 150/207/119
f 77/208/52 82/209/53 149/210/50 152/211/51
f 45/212/120 66/213/121 130/214/122 108/215/123
f 93/116/78 91/170/88 21/171/5 24/117/5
f 23/28/12 28/27/12 25/114/12 39/113/76 38/110/73 34/67/12 35/66/12 32/156/12 29/125/12 22/120/12
f 24/117/5 21/171/5 30/169/5 31/139/5 36/73/5 33/20/5 37/19/4 40/159/94 26/175/5 27/118/5
f 37/19/4 38/110/73 39/113/76 40/159/94
f 41/200/114 42/177/101 43/109/72
f 44/112/75 45/212/120 46/161/96
f 47/160/95 48/185/105 49/158/93
f 50/201/115 51/18/3 52/78/42
f 53/188/108 54/75/9 55/124/80
f 56/155/83 57/150/89 58/189/109
f 59/86/50 60/216/90 61/217/36
f 62/88/52 63/218/103 64/219/86
f 65/90/54 66/213/121 67/111/74
f 68/26/11 69/220/39 70/221/55
f 71/164/48 72/193/40 73/25/10
f 74/166/46 75/222/7 76/223/88
f 77/208/52 78/79/43 79/17/2
f 80/137/41 81/224/91 82/225/53
f 83/196/110 84/205/92 85/136/84
f 86/198/108 87/226/9 88/227/80
f 89/82/46 90/22/7 91/170/88
f 92/83/47 93/116/78 94/68/37
f 95/180/56 96/228/38 97/229/77
f 98/182/54 99/230/107 100/231/81
f 101/202/116 102/232/45 103/58/30
f 104/203/117 105/52/29 106/233/102
f 107/162/97 108/234/123 109/30/14
f 110/163/98 111/29/13 112/235/106
f 113/84/48 114/236/40 115/237/10
f 116/85/49 117/238/79 118/239/8
f 119/165/49 120/119/79 121/74/8
f 122/167/47 123/240/78 124/241/112
f 125/92/56 126/242/113 127/243/77
f 128/93/57 129/244/87 130/245/122
f 131/172/99 132/184/104 133/181/57
f 134/183/55 135/246/11 136/247/39
f 137/190/110 138/248/92 139/249/84
f 140/191/111 141/250/85 142/251/6
f 143/168/85 144/21/6 145/197/111
f 146/199/109 147/252/83 148/253/118
f 149/210/50 150/254/119 151/255/36
f 152/211/51 153/256/82 154/257/44
f 155/87/51 156/64/35 157/176/100
f 158/89/53 159/258/41 160/259/91
f 103/58/30 105/52/29 104/203/117 101/202/116
f 109/30/14 111/29/13 110/163/98 107/162/97
f 115/127/10 117/126/79 116/260/49 113/261/48
f 76/149/88 123/148/78 122/262/47 74/263/46
f 127/147/77 129/146/87 128/264/57 125/265/56
f 100/129/81 135/128/11 134/266/55 98/267/54
f 139/141/84 141/140/85 140/268/111 137/269/110
f 88/135/80 147/134/83 146/270/109 86/271/108
f 151/133/36 153/132/82 152/272/51 149/273/50
f 64/143/86 159/142/41 158/274/53 62/275/52
f 75/77/7 142/76/6 141/276/85 76/277/88
f 138/153/92 160/152/91 159/278/41 139/279/84
f 63/179/103 106/178/102 105/52/29 64/280/86
f 108/215/123 130/214/122 129/146/87 109/145/14
f 126/195/113 124/194/112 123/281/78 127/282/77
f 147/134/83 151/133/36 150/283/119 148/284/118
f 117/126/79 88/135/80 87/24/9 118/23/8
f 153/132/82 103/131/30 102/81/45 154/80/44
f 135/128/11 115/127/10 114/285/40 136/286/39
f 111/130/13 100/129/81 99/187/107 112/186/106
f 50/201/115 41/200/114 43/109/72 51/18/3
f 46/161/96 47/160/95 49/158/93 44/112/75
f 92/83/47 89/82/46 91/170/88 93/116/78
f 119/165/49 71/164/48 73/25/10 120/119/79
f 70/91/55 65/90/54 67/111/74 68/121/11
f 133/181/57 95/180/56 97/173/77 131/172/99
f 58/189/109 53/188/108 55/124/80 56/155/83
f 145/197/111 83/196/110 85/136/84 143/168/85
f 82/209/53 77/208/52 79/17/2 80/72/41
f 155/87/51 59/86/50 61/65/36 156/64/35
f 120/119/79 55/124/80 54/75/9 121/74/8
f 56/155/83 61/154/36 60/151/90 57/150/89
f 156/64/35 43/109/72 42/177/101 157/176/100
f 44/112/75 67/111/74 66/213/121 45/212/120
f 68/26/11 73/25/10 72/193/40 69/192/39
f 84/205/92 81/204/91 80/137/41 85/136/84
f 90/22/7 144/21/6 143/168/85 91/170/88
f 78/79/43 52/78/42 51/18/3 79/17/2
f 96/69/38 94/68/37 93/116/78 97/115/77
f 48/185/105 132/184/104 131/172/99 49/158/93
f 106/178/102 42/177/101 41/200/114 104/203/117
f 52/78/42 102/81/45 101/202/116 50/201/115
f 112/186/106 48/185/105 47/160/95 110/163/98
f 45/212/120 108/215/123 107/162/97 46/161/96
f 118/23/8 90/22/7 89/82/46 116/85/49
f 94/68/37 114/71/40 113/84/48 92/83/47
f 124/194/112 72/193/40 71/164/48 122/167/47
f 121/74/8 75/77/7 74/166/46 119/165/49
f 130/214/122 66/213/121 65/90/54 128/93/57
f 69/192/39 126/195/113 125/287/56 70/288/55
f 136/70/39 96/69/38 95/289/56 134/290/55
f 132/184/104 99/187/107 98/182/54 133/181/57
f 142/76/6 54/75/9 53/188/108 140/191/111
f 57/150/89 138/153/92 137/190/110 58/189/109
f 148/206/118 84/205/92 83/196/110 146/199/109
f 144/21/6 87/24/9 86/198/108 145/197/111
f 154/80/44 78/79/43 77/208/52 152/211/51
f 81/204/91 150/207/119 149/291/50 82/292/53
f 160/152/91 60/151/90 59/293/50 158/294/53
f 157/176/100 63/179/103 62/88/52 155/87/51
f 51/18/3 43/109/72 38/110/73 37/19/4
f 162/60/31 163/63/34 164/105/71 161/104/70
f 166/98/62 167/97/61 168/38/21 165/37/20
f 170/101/66 171/100/65 172/34/18 169/33/17
f 174/103/68 175/94/58 176/42/24 173/41/23
f 175/94/58 162/60/31 161/104/70 176/42/24
f 163/106/34 166/98/62 165/37/20 164/108/71
f 167/97/61 170/101/66 169/33/17 168/45/21
f 171/100/65 174/103/68 173/49/23 172/48/18
f 176/42/24 161/104/70 13/50/27 20/123/25
