# Blender v2.83.0 OBJ File: ''
# www.blender.org
mtllib Aerion_Nova_Pulsegun_Base.mtl
o Cube.001_Cube.003
v -0.132023 -0.500000 -0.132023
v 0.132022 -0.500000 -0.132023
v -0.000000 -0.600000 0.000000
v -0.132023 -0.500000 0.132023
v -0.000000 -0.600000 0.000000
v 0.132022 -0.500000 0.132023
v -0.000000 -0.600000 0.000000
v 0.132022 -0.500000 -0.132023
v 0.132022 -0.500000 0.132023
v -0.132023 -0.500000 0.132023
v -0.132023 -0.500000 -0.132023
v -0.000000 -0.600000 0.000000
v -0.400000 -0.450000 -0.500000
v -0.450000 -0.400000 -0.500000
v -0.450000 -0.335648 -0.500000
v -0.400000 -0.285648 -0.500000
v 0.400000 -0.285648 -0.500000
v 0.450000 -0.335648 -0.500000
v 0.450000 -0.400000 -0.500000
v 0.400000 -0.450000 -0.500000
v 0.200146 0.064207 -0.138909
v 0.171278 0.093074 -0.060041
v 0.171278 0.093074 0.060041
v 0.200146 0.064207 0.138909
v 0.435777 -0.171425 0.374540
v 0.464645 -0.200292 0.353407
v 0.464645 -0.200292 -0.353407
v 0.435777 -0.171425 -0.374540
v 0.400000 -0.450000 0.500000
v 0.450000 -0.400000 0.500000
v 0.450000 -0.335648 0.500000
v 0.400000 -0.285648 0.500000
v -0.400000 -0.285648 0.500000
v -0.450000 -0.335648 0.500000
v -0.450000 -0.400000 0.500000
v -0.400000 -0.450000 0.500000
v -0.200146 0.064207 0.138909
v -0.171278 0.093074 0.060041
v -0.171278 0.093074 -0.060041
v -0.200146 0.064207 -0.138909
v -0.435777 -0.171425 -0.374540
v -0.464645 -0.200292 -0.353407
v -0.464645 -0.200292 0.353407
v -0.435777 -0.171425 0.374540
v -0.500000 -0.450000 0.400000
v -0.500000 -0.400000 0.450000
v -0.500000 -0.335647 0.450000
v -0.500000 -0.285647 0.400000
v -0.500000 -0.285647 -0.400000
v -0.500000 -0.335647 -0.450000
v -0.500000 -0.400000 -0.450000
v -0.500000 -0.450000 -0.400000
v -0.138909 0.064207 -0.200146
v -0.060041 0.093074 -0.171278
v 0.060041 0.093074 -0.171278
v 0.138909 0.064207 -0.200146
v 0.374540 -0.171425 -0.435777
v 0.353407 -0.200292 -0.464645
v -0.353407 -0.200292 -0.464645
v -0.374540 -0.171425 -0.435777
v -0.085923 0.128429 -0.035923
v -0.085923 0.128429 0.035923
v -0.085923 0.218200 0.035923
v -0.085923 0.218200 -0.035923
v 0.138909 0.064207 0.200146
v 0.060041 0.093074 0.171278
v -0.060041 0.093074 0.171278
v -0.138909 0.064207 0.200146
v -0.374540 -0.171425 0.435777
v -0.353407 -0.200292 0.464645
v 0.353407 -0.200292 0.464645
v 0.374540 -0.171425 0.435777
v 0.400000 -0.500000 -0.450000
v 0.450000 -0.500000 -0.400000
v 0.450000 -0.500000 0.400000
v 0.400000 -0.500000 0.450000
v -0.400000 -0.500000 0.450000
v -0.450000 -0.500000 0.400000
v -0.450000 -0.500000 -0.400000
v -0.400000 -0.500000 -0.450000
v 0.500000 -0.450000 0.400000
v 0.500000 -0.400000 0.450000
v 0.500000 -0.400000 -0.450000
v 0.500000 -0.450000 -0.400000
v 0.085923 0.128429 0.035923
v 0.035923 0.128429 0.085923
v 0.500000 -0.335648 0.450000
v 0.500000 -0.285648 0.400000
v -0.035923 0.128429 0.085923
v 0.035923 0.128429 -0.085923
v 0.085923 0.128429 -0.035923
v 0.500000 -0.285648 -0.400000
v 0.500000 -0.335648 -0.450000
v -0.035923 0.128429 -0.085923
v 0.085923 0.218200 -0.035923
v 0.085923 0.218200 0.035923
v 0.035923 0.218200 -0.085923
v 0.035923 0.218200 0.085923
v -0.035923 0.218200 0.085923
v -0.035923 0.218200 -0.085923
v 0.023686 0.247743 0.056380
v 0.056380 0.247743 0.023686
v 0.056380 0.247743 -0.023686
v 0.023686 0.247743 -0.056380
v -0.023686 0.247743 -0.056380
v -0.056380 0.247743 -0.023686
v -0.056380 0.247743 0.023686
v -0.023686 0.247743 0.056380
vt 0.063184 0.062858
vt 0.063184 -0.000551
vt 0.031480 0.031158
vt -0.000222 0.062858
vt 0.031480 0.031158
vt -0.000222 -0.000551
vt 0.031480 0.031158
vt 0.063184 -0.000551
vt -0.000222 -0.000551
vt -0.000222 0.062858
vt 0.063184 0.062858
vt 0.031480 0.031158
vt 0.192120 0.666525
vt 0.206742 0.662838
vt 0.225561 0.662838
vt 0.240183 0.666525
vt 0.240183 0.725521
vt 0.225561 0.729209
vt 0.206742 0.729209
vt 0.192120 0.725521
vt 0.376733 0.828753
vt 0.367146 0.830882
vt 0.352548 0.830882
vt 0.342960 0.828753
vt 0.314316 0.811377
vt 0.316885 0.809248
vt 0.402809 0.809248
vt 0.405378 0.811377
vt 0.192120 0.814015
vt 0.206742 0.810328
vt 0.225561 0.810328
vt 0.240183 0.814015
vt 0.240183 0.873011
vt 0.225561 0.876698
vt 0.206742 0.876698
vt 0.192120 0.873011
vt 0.342960 0.858273
vt 0.352548 0.856144
vt 0.367146 0.856144
vt 0.376733 0.858273
vt 0.405378 0.875649
vt 0.402809 0.877778
vt 0.316885 0.877778
vt 0.314316 0.875649
vt 0.192120 0.887760
vt 0.206742 0.884073
vt 0.225561 0.884073
vt 0.240183 0.887760
vt 0.240183 0.946756
vt 0.225561 0.950443
vt 0.206742 0.950443
vt 0.192120 0.946756
vt 0.384178 0.853757
vt 0.380668 0.847941
vt 0.380668 0.839085
vt 0.384178 0.833269
vt 0.412822 0.815893
vt 0.416331 0.817451
vt 0.416332 0.869575
vt 0.412822 0.871133
vt 0.364214 0.849849
vt 0.355480 0.849849
vt 0.355480 0.849849
vt 0.364214 0.849849
vt 0.327709 0.833269
vt 0.334727 0.839085
vt 0.334727 0.847941
vt 0.327709 0.853757
vt 0.270419 0.871133
vt 0.263401 0.869575
vt 0.263401 0.817451
vt 0.270419 0.815893
vt 0.062011 0.814015
vt 0.068090 0.810328
vt 0.165342 0.810328
vt 0.171420 0.814015
vt 0.171420 0.873011
vt 0.165342 0.876698
vt 0.068090 0.876698
vt 0.062011 0.873011
vt 0.165342 0.806641
vt 0.171420 0.806641
vt 0.177499 0.810328
vt 0.177499 0.814015
vt 0.177499 0.814015
vt 0.165342 0.806641
vt 0.206742 0.880385
vt 0.192120 0.880385
vt 0.177499 0.876698
vt 0.177499 0.873011
vt 0.177499 0.873011
vt 0.206742 0.880385
vt 0.055933 0.814015
vt 0.055933 0.810328
vt 0.062011 0.806641
vt 0.068090 0.806641
vt 0.068090 0.806641
vt 0.055933 0.814015
vt 0.206742 0.954130
vt 0.192120 0.954130
vt 0.177499 0.950443
vt 0.177499 0.946756
vt 0.177499 0.946756
vt 0.206742 0.954130
vt 0.335153 0.828753
vt 0.343323 0.833489
vt 0.343323 0.837177
vt 0.343323 0.840864
vt 0.343323 0.839085
vt 0.332671 0.830259
vt 0.530763 0.891942
vt 0.526051 0.893501
vt 0.526051 0.898017
vt 0.526051 0.900146
vt 0.519387 0.902753
vt 0.512723 0.902753
vt 0.512723 0.902753
vt 0.526051 0.895378
vt 0.335516 0.856015
vt 0.343323 0.853537
vt 0.349401 0.853537
vt 0.355480 0.853537
vt 0.352548 0.853537
vt 0.337997 0.856767
vt 0.530763 0.965687
vt 0.526051 0.967246
vt 0.526051 0.971762
vt 0.526051 0.973890
vt 0.519387 0.976498
vt 0.512723 0.976498
vt 0.512723 0.976498
vt 0.526051 0.969123
vt 0.373331 0.840864
vt 0.364214 0.837177
vt 0.384178 0.831011
vt 0.596373 0.907489
vt 0.597614 0.908094
vt 0.600704 0.903982
vt 0.601627 0.902753
vt 0.601627 0.906440
vt 0.601627 0.910127
vt 0.601627 0.913563
vt 0.596938 0.908994
vt 0.364214 0.851693
vt 0.370292 0.846162
vt 0.380455 0.858273
vt 0.598069 0.969504
vt 0.597614 0.971156
vt 0.600704 0.975269
vt 0.601627 0.976498
vt 0.598857 0.976498
vt 0.596087 0.976498
vt 0.593505 0.976498
vt 0.596938 0.970256
vt 0.055933 0.873011
vt 0.165342 0.880385
vt 0.068090 0.880385
vt 0.332672 0.856767
vt 0.275382 0.874144
vt 0.254805 0.891196
vt 0.254805 0.943320
vt 0.337997 0.830259
vt 0.309353 0.812882
vt 0.349401 0.840864
vt 0.349401 0.846162
vt 0.370292 0.840864
vt 0.254805 0.669961
vt 0.254805 0.722085
vt 0.355480 0.837177
vt 0.240183 0.799266
vt 0.240183 0.740270
vt 0.254805 0.743706
vt 0.254805 0.795830
vt 0.225561 0.736583
vt 0.206742 0.736583
vt 0.206742 0.802953
vt 0.225561 0.802953
vt 0.206742 0.659151
vt 0.225561 0.659151
vt 0.192120 0.740270
vt 0.192120 0.799266
vt 0.364214 0.837177
vt 0.355480 0.837177
vt 0.373331 0.840864
vt 0.349401 0.840864
vt 0.349401 0.846162
vt 0.370292 0.846162
vt 0.370292 0.840864
vt 0.352993 0.841766
vt 0.356967 0.839355
vt 0.362726 0.839355
vt 0.366701 0.841766
vt 0.366701 0.845260
vt 0.362726 0.847671
vt 0.356967 0.847671
vt 0.352993 0.845260
vt 0.364214 0.851693
vt 0.349401 0.853537
vt 0.355480 0.853537
vt 0.343323 0.837177
vt 0.343323 0.840864
vn 0.0000 -0.7971 -0.6038
vn 0.0000 -0.7971 0.6038
vn 0.6038 -0.7971 0.0000
vn -0.6038 -0.7971 0.0000
vn 0.0000 0.0000 -1.0000
vn 0.7071 0.7071 0.0000
vn 0.0000 0.0000 1.0000
vn -0.7071 0.7071 -0.0000
vn -1.0000 0.0000 0.0000
vn 0.0000 0.7071 -0.7071
vn 0.0000 0.7071 0.7071
vn -0.0000 -1.0000 0.0000
vn 0.5774 -0.5773 0.5774
vn -0.5774 -0.5774 0.5774
vn 0.5774 -0.5773 -0.5774
vn -0.5774 -0.5774 -0.5774
vn 0.2721 0.9230 0.2721
vn 0.6047 0.5182 0.6047
vn -0.2721 0.9230 0.2721
vn -0.6047 0.5182 0.6047
vn 0.2721 0.9230 -0.2721
vn 0.6047 0.5182 -0.6047
vn -0.2721 0.9230 -0.2721
vn -0.6047 0.5182 -0.6047
vn -0.0000 -0.7071 -0.7071
vn 0.7071 -0.7071 0.0000
vn -0.7071 -0.7071 0.0000
vn -0.0000 -0.7071 0.7071
vn -0.4082 0.8165 0.4082
vn -0.3827 0.9239 0.0000
vn -0.4082 0.8165 -0.4082
vn -0.9239 0.3827 0.0000
vn 0.4082 0.8165 0.4082
vn 0.0000 0.9239 0.3827
vn 0.0000 0.3827 0.9239
vn 0.0000 0.9239 -0.3827
vn 0.4082 0.8165 -0.4082
vn 0.0000 0.3827 -0.9239
vn 0.3827 0.9239 0.0000
vn 0.9239 0.3827 0.0000
vn 0.7071 0.0000 -0.7071
vn 0.7071 0.0000 0.7071
vn -0.7071 0.0000 0.7071
vn -0.7071 0.0000 -0.7071
vn 1.0000 0.0000 0.0000
vn 0.0000 1.0000 0.0000
vn 0.5000 0.7071 0.5000
vn -0.5000 0.7071 0.5000
vn 0.5000 0.7071 -0.5000
vn -0.5000 0.7071 -0.5000
usemtl Material.003
s 1
f 1/1/1 2/2/1 3/3/1
f 4/4/2 5/5/2 6/6/2
f 7/7/3 8/8/3 9/9/3
f 10/10/4 11/11/4 12/12/4
usemtl Material.004
s off
f 13/13/5 14/14/5 15/15/5 16/16/5 17/17/5 18/18/5 19/19/5 20/20/5
f 21/21/6 22/22/6 23/23/6 24/24/6 25/25/6 26/26/6 27/27/6 28/28/6
f 29/29/7 30/30/7 31/31/7 32/32/7 33/33/7 34/34/7 35/35/7 36/36/7
f 37/37/8 38/38/8 39/39/8 40/40/8 41/41/8 42/42/8 43/43/8 44/44/8
f 45/45/9 46/46/9 47/47/9 48/48/9 49/49/9 50/50/9 51/51/9 52/52/9
f 53/53/10 54/54/10 55/55/10 56/56/10 57/57/10 58/58/10 59/59/10 60/60/10
f 61/61/9 62/62/9 63/63/9 64/64/9
f 65/65/11 66/66/11 67/67/11 68/68/11 69/69/11 70/70/11 71/71/11 72/72/11
f 73/73/12 74/74/12 75/75/12 76/76/12 77/77/12 78/78/12 79/79/12 80/80/12
f 81/81/13 82/82/13 30/83/13 29/84/13 76/85/13 75/86/13
f 46/87/14 45/88/14 78/89/14 77/90/14 36/91/14 35/92/14
f 20/93/15 19/94/15 83/95/15 84/96/15 74/97/15 73/98/15
f 14/99/16 13/100/16 80/101/16 79/102/16 52/103/16 51/104/16
f 24/105/17 23/106/17 85/107/17 86/108/17 66/109/17 65/110/17
f 26/111/18 25/112/18 72/113/18 71/114/18 32/115/18 31/116/18 87/117/18 88/118/18
f 68/119/19 67/120/19 89/121/19 62/122/19 38/123/19 37/124/19
f 70/125/20 69/126/20 44/127/20 43/128/20 48/129/20 47/130/20 34/131/20 33/132/20
f 90/133/21 91/134/21 22/22/21 21/21/21 56/135/21 55/55/21
f 28/136/22 27/137/22 92/138/22 93/139/22 18/140/22 17/141/22 58/142/22 57/143/22
f 61/144/23 94/145/23 54/54/23 53/53/23 40/146/23 39/39/23
f 60/147/24 59/148/24 16/149/24 15/150/24 50/151/24 49/152/24 42/153/24 41/154/24
f 73/73/25 80/80/25 13/155/25 20/93/25
f 75/75/26 74/74/26 84/96/26 81/81/26
f 79/79/27 78/78/27 45/156/27 52/157/27
f 77/77/28 76/76/28 29/29/28 36/36/28
f 69/69/29 68/68/29 37/158/29 44/159/29
f 62/62/30 61/61/30 39/39/30 38/38/30
f 53/53/31 60/60/31 41/41/31 40/40/31
f 49/49/32 48/48/32 43/160/32 42/161/32
f 25/25/33 24/24/33 65/162/33 72/163/33
f 86/164/34 89/165/34 67/67/34 66/66/34
f 33/33/35 32/32/35 71/71/35 70/70/35
f 94/145/36 90/166/36 55/55/36 54/54/36
f 21/21/37 28/28/37 57/57/37 56/56/37
f 17/17/38 16/16/38 59/167/38 58/168/38
f 91/134/39 85/169/39 23/23/39 22/22/39
f 88/170/40 92/171/40 27/172/40 26/173/40
f 19/19/41 18/18/41 93/174/41 83/175/41
f 31/31/42 30/30/42 82/176/42 87/177/42
f 47/47/43 46/46/43 35/35/43 34/34/43
f 15/15/44 14/14/44 51/178/44 50/179/44
f 84/180/45 83/175/45 93/174/45 92/171/45 88/170/45 87/177/45 82/176/45 81/181/45
f 85/169/45 91/134/45 95/182/45 96/183/45
f 91/134/41 90/133/41 97/184/41 95/182/41
f 89/165/7 86/164/7 98/185/7 99/186/7
f 90/166/5 94/145/5 100/187/5 97/188/5
f 101/189/46 102/190/46 103/191/46 104/192/46 105/193/46 106/194/46 107/195/46 108/196/46
f 94/145/44 61/144/44 64/197/44 100/187/44
f 62/122/43 89/121/43 99/198/43 63/199/43
f 102/190/47 101/189/47 98/185/47 96/183/47
f 108/196/48 107/195/48 63/63/48 99/186/48
f 104/192/49 103/191/49 95/182/49 97/188/49
f 106/194/50 105/193/50 100/187/50 64/64/50
f 107/195/8 106/194/8 64/64/8 63/63/8
f 101/189/11 108/196/11 99/186/11 98/185/11
f 105/193/10 104/192/10 97/188/10 100/187/10
f 103/191/6 102/190/6 96/183/6 95/182/6
f 86/108/42 85/107/42 96/200/42 98/201/42
