# This file uses centimeters as units for non-parametric coordinates.

g default
v -0.500000 -0.500000 3.500000
v -0.500000 -0.500000 -0.500000
v 1.499894 -0.500000 -0.500000
v -0.500000 1.499894 -0.500000
v 1.500000 -0.275949 -0.428959
v -0.275949 1.500000 -0.428959
v -0.275949 -0.275949 3.571041
vt 0.500000 0.000000
vt 0.375000 0.750000
vt 0.625000 0.750000
vt 0.500000 1.000000
vt 0.875000 0.000000
vt 0.375000 0.750000
vt 0.625000 0.750000
vt 0.500000 1.000000
vt 0.500000 0.000000
vt 0.875000 0.000000
vt 0.625000 0.500000
vt 0.625000 0.500000
vt 0.500000 0.250000
vn 0.000000 -1.000000 0.000000
vn 0.000000 -1.000000 0.000000
vn 0.000000 -1.000000 0.000000
vn -1.000000 0.000000 0.000000
vn -1.000000 0.000000 0.000000
vn -1.000000 0.000000 0.000000
vn -0.506688 0.779652 0.367981
vn -0.506688 0.779652 0.367981
vn -0.506688 0.779652 0.367981
vn -0.506688 0.779652 0.367981
vn 0.674641 0.674641 0.299532
vn 0.674641 0.674641 0.299532
vn 0.674641 0.674641 0.299532
vn 0.779652 -0.506688 0.367981
vn 0.779653 -0.506688 0.367981
vn 0.779653 -0.506688 0.367981
vn 0.779652 -0.506688 0.367981
vn 0.057818 0.057818 -0.996652
vn 0.057818 0.057818 -0.996652
vn 0.289208 0.289208 -0.912534
vn 0.289208 0.289208 -0.912534
vn 0.000000 0.000000 -1.000000
s off
g col_body
f 2/2/1 3/3/2 1/4/3
f 2/6/4 1/8/5 4/7/6
f 6/12/7 4/10/8 1/9/9 7/13/10
f 5/11/11 6/12/12 7/13/13
f 3/5/14 5/11/15 7/13/16 1/1/17
s 1
f 3/3/18 4/10/19 6/12/20 5/11/21
f 3/3/18 2/6/22 4/10/19
