# Blender v2.80 (sub 75) OBJ File: ''
# www.blender.org
mtllib LaserGlass.mtl
o LaserGlass_v0
v -0.853062 0.194706 -5.000000
v -0.853062 0.194706 0.000000
v -0.875000 0.000000 -5.000000
v -0.875000 0.000000 0.000000
v -0.853062 -0.194706 -5.000000
v -0.853062 -0.194706 0.000000
v -0.788348 -0.379648 0.000000
v -0.788348 0.379648 -5.000000
v -0.788348 0.379648 0.000000
v -0.684103 0.545554 -5.000000
v -0.684103 0.545554 0.000000
v -0.545554 0.684103 -5.000000
v -0.545554 0.684103 0.000000
v -0.379648 0.788348 -5.000000
v -0.379648 0.788348 0.000000
v -0.194706 0.853062 -5.000000
v -0.194706 0.853062 0.000000
v 0.000000 0.875000 -5.000000
v 0.000000 0.875000 0.000000
v 0.194706 0.853062 -5.000000
v 0.194706 0.853062 0.000000
v 0.379648 0.788348 -5.000000
v 0.379648 0.788348 0.000000
v 0.545554 0.684103 -5.000000
v 0.545554 0.684103 0.000000
v 0.684103 0.545554 -5.000000
v 0.684103 0.545554 0.000000
v 0.788348 0.379648 -5.000000
v 0.788348 0.379648 0.000000
v 0.853062 0.194706 -5.000000
v 0.853062 0.194706 0.000000
v 0.875000 0.000000 -5.000000
v 0.875000 0.000000 0.000000
v 0.853062 -0.194706 -5.000000
v 0.853062 -0.194706 0.000000
v 0.788348 -0.379648 -5.000000
v 0.788348 -0.379648 0.000000
v 0.684103 -0.545554 -5.000000
v 0.684103 -0.545554 0.000000
v 0.545554 -0.684103 -5.000000
v 0.545554 -0.684103 0.000000
v 0.379648 -0.788348 -5.000000
v 0.379648 -0.788348 0.000000
v 0.194706 -0.853062 -5.000000
v 0.194706 -0.853062 0.000000
v 0.000000 -0.875000 -5.000000
v 0.000000 -0.875000 0.000000
v -0.194706 -0.853062 -5.000000
v -0.194706 -0.853062 0.000000
v -0.379648 -0.788348 -5.000000
v -0.379648 -0.788348 0.000000
v -0.545554 -0.684103 -5.000000
v -0.545554 -0.684103 0.000000
v -0.684103 -0.545554 -5.000000
v -0.684103 -0.545554 0.000000
v -0.788348 -0.379648 -5.000000
v -1.077483 -0.221428 -5.000000
v -1.077483 -0.221428 0.000000
v -1.100000 0.000000 -5.000000
v -1.100000 0.000000 0.000000
v -1.077483 0.221428 -5.000000
v -1.077483 0.221428 0.000000
v -1.010854 0.433791 -5.000000
v -1.010854 0.433791 0.000000
v -0.902840 0.628395 -5.000000
v -0.902840 0.628395 0.000000
v -0.757864 0.797272 -5.000000
v -0.757864 0.797272 0.000000
v -0.581860 0.933509 -5.000000
v -0.581860 0.933509 0.000000
v -0.382036 1.031527 -5.000000
v -0.382036 1.031527 0.000000
v -0.166571 1.087315 -5.000000
v -0.166571 1.087315 0.000000
v 0.055714 1.098588 -5.000000
v 0.055714 1.098588 0.000000
v 0.275718 1.064885 -5.000000
v 0.275718 1.064885 0.000000
v 0.484434 0.987585 -5.000000
v 0.484434 0.987585 0.000000
v 0.673317 0.869853 -5.000000
v 0.673317 0.869853 0.000000
v 0.834634 0.716510 -5.000000
v 0.834634 0.716510 0.000000
v 0.961781 0.533832 -5.000000
v 0.961781 0.533832 0.000000
v 1.049553 0.329299 -5.000000
v 1.049553 0.329299 0.000000
v 1.094356 0.111285 -5.000000
v 1.094356 0.111285 0.000000
v 1.094356 -0.111285 -5.000000
v 1.094356 -0.111285 0.000000
v 1.049553 -0.329299 -5.000000
v 1.049553 -0.329299 0.000000
v 0.961781 -0.533832 -5.000000
v 0.961781 -0.533832 0.000000
v 0.834634 -0.716510 -5.000000
v 0.834634 -0.716510 0.000000
v 0.673317 -0.869853 -5.000000
v 0.673317 -0.869853 0.000000
v 0.484434 -0.987585 -5.000000
v 0.484434 -0.987585 0.000000
v 0.275718 -1.064885 -5.000000
v 0.275718 -1.064885 0.000000
v 0.055714 -1.098588 -5.000000
v 0.055714 -1.098588 0.000000
v -0.166571 -1.087315 -5.000000
v -0.166571 -1.087315 0.000000
v -0.382036 -1.031527 -5.000000
v -0.382036 -1.031527 0.000000
v -0.581860 -0.933509 -5.000000
v -0.581860 -0.933509 0.000000
v -0.757864 -0.797272 -5.000000
v -0.757864 -0.797272 0.000000
v -0.902840 -0.628395 -5.000000
v -0.902840 -0.628395 0.000000
v -1.010854 -0.433791 -5.000000
v -1.010854 -0.433791 0.000000
vt 50.000000 -25.525440
vt 0.000000 -25.525440
vt 50.000000 -27.488935
vt 0.000000 -27.488935
vt 50.000000 27.488935
vt 0.000000 27.488935
vt 50.000000 25.525440
vt 0.000000 25.525440
vt 0.000000 23.561945
vt 50.000000 -23.561945
vt 0.000000 -23.561945
vt 50.000000 -21.598450
vt 0.000000 -21.598450
vt 50.000000 -19.634954
vt 0.000000 -19.634954
vt 50.000000 -17.671459
vt 0.000000 -17.671459
vt 50.000000 -15.707963
vt 0.000000 -15.707963
vt 50.000000 -13.744468
vt 0.000000 -13.744468
vt 50.000000 -11.780972
vt 0.000000 -11.780972
vt 50.000000 -9.817477
vt 0.000000 -9.817477
vt 50.000000 -7.853982
vt 0.000000 -7.853982
vt 50.000000 -5.890486
vt 0.000000 -5.890486
vt 50.000000 -3.926991
vt 0.000000 -3.926991
vt 50.000000 -1.963495
vt 0.000000 -1.963495
vt 50.000000 0.000000
vt 0.000000 0.000000
vt 50.000000 1.963495
vt 0.000000 1.963495
vt 50.000000 3.926991
vt 0.000000 3.926991
vt 50.000000 5.890486
vt 0.000000 5.890486
vt 50.000000 7.853982
vt 0.000000 7.853982
vt 50.000000 9.817477
vt 0.000000 9.817477
vt 50.000000 11.780972
vt 0.000000 11.780972
vt 50.000000 13.744468
vt 0.000000 13.744468
vt 50.000000 15.707963
vt 0.000000 15.707963
vt 50.000000 17.671459
vt 0.000000 17.671459
vt 50.000000 19.634954
vt 0.000000 19.634954
vt 50.000000 21.598450
vt 0.000000 21.598450
vt 50.000000 23.561945
vt -50.000000 32.328003
vt -0.000000 32.328003
vt -50.000000 34.557518
vt -0.000000 34.557518
vt -50.000000 -34.557518
vt -0.000000 -34.557518
vt -50.000000 -32.328003
vt -0.000000 -32.328003
vt -50.000000 -30.098484
vt -0.000000 -30.098484
vt -50.000000 -27.868967
vt -0.000000 -27.868967
vt -50.000000 -25.639450
vt -0.000000 -25.639450
vt -50.000000 -23.409931
vt -0.000000 -23.409931
vt -50.000000 -21.180414
vt -0.000000 -21.180414
vt -50.000000 -18.950897
vt -0.000000 -18.950897
vt -50.000000 -16.721380
vt -0.000000 -16.721380
vt -50.000000 -14.491863
vt -0.000000 -14.491863
vt -50.000000 -12.262346
vt -0.000000 -12.262346
vt -50.000000 -10.032828
vt -0.000000 -10.032828
vt -50.000000 -7.803311
vt -0.000000 -7.803311
vt -50.000000 -5.573793
vt -0.000000 -5.573793
vt -50.000000 -3.344276
vt -0.000000 -3.344276
vt -50.000000 -1.114759
vt -0.000000 -1.114759
vt -50.000000 1.114759
vt -0.000000 1.114759
vt -50.000000 3.344276
vt -0.000000 3.344276
vt -50.000000 5.573793
vt -0.000000 5.573793
vt -50.000000 7.803311
vt -0.000000 7.803311
vt -50.000000 10.032828
vt -0.000000 10.032828
vt -50.000000 12.262346
vt -0.000000 12.262346
vt -50.000000 14.491863
vt -0.000000 14.491863
vt -50.000000 16.721380
vt -0.000000 16.721380
vt -50.000000 18.950897
vt -0.000000 18.950897
vt -50.000000 21.180414
vt -0.000000 21.180414
vt -50.000000 23.409931
vt -0.000000 23.409931
vt -50.000000 25.639450
vt -0.000000 25.639450
vt -50.000000 27.868967
vt -0.000000 27.868967
vt -50.000000 30.098484
vt -0.000000 30.098484
vt -8.530619 1.947058
vt -10.774829 2.214284
vt -8.750000 -0.000000
vt -11.000000 -0.000000
vt -10.774829 -2.214284
vt -10.108536 4.337914
vt -7.883478 3.796483
vt -9.028398 6.283950
vt -6.841025 5.455536
vt -7.578636 7.972721
vt -5.455536 6.841025
vt -5.818604 9.335087
vt -3.796483 7.883478
vt -3.820358 10.315273
vt -1.947058 8.530619
vt -1.665706 10.873152
vt 0.000000 8.750000
vt 0.557141 10.985882
vt 1.947058 8.530619
vt 2.757178 10.648848
vt 3.796483 7.883478
vt 4.844336 9.875850
vt 6.733166 8.698533
vt 5.455536 6.841025
vt 8.346339 7.165097
vt 6.841025 5.455536
vt 9.617813 5.338322
vt 7.883478 3.796483
vt 10.495532 3.292994
vt 8.530619 1.947058
vt 10.943563 1.112852
vt 8.750000 0.000000
vt 10.943563 -1.112852
vt 8.530619 -1.947058
vt 10.495532 -3.292994
vt 7.883478 -3.796483
vt 9.617813 -5.338322
vt 6.841025 -5.455536
vt 8.346339 -7.165097
vt 5.455536 -6.841025
vt 6.733166 -8.698533
vt 3.796483 -7.883478
vt 4.844336 -9.875850
vt 2.757178 -10.648848
vt 1.947058 -8.530619
vt 0.557141 -10.985882
vt 0.000000 -8.750000
vt -1.665706 -10.873152
vt -1.947058 -8.530619
vt -3.820358 -10.315273
vt -3.796483 -7.883478
vt -5.818604 -9.335087
vt -5.455536 -6.841025
vt -7.578636 -7.972721
vt -6.841025 -5.455536
vt -9.028398 -6.283950
vt -7.883478 -3.796483
vt -10.108536 -4.337914
vt -8.530619 -1.947058
vt 8.530619 -1.947058
vt 10.774829 -2.214284
vt 8.750000 -0.000000
vt 11.000000 -0.000000
vt 10.774829 2.214284
vt 10.108536 -4.337914
vt 7.883478 -3.796483
vt 9.028398 -6.283950
vt 6.841025 -5.455536
vt 7.578636 -7.972721
vt 5.455536 -6.841025
vt 5.818604 -9.335087
vt 3.796483 -7.883478
vt 3.820358 -10.315273
vt 1.947058 -8.530619
vt 1.665706 -10.873152
vt -0.000000 -8.750000
vt -0.557141 -10.985882
vt -1.947058 -8.530619
vt -2.757178 -10.648848
vt -3.796483 -7.883478
vt -4.844336 -9.875850
vt -6.733166 -8.698533
vt -5.455536 -6.841025
vt -8.346339 -7.165097
vt -6.841025 -5.455536
vt -9.617813 -5.338322
vt -7.883478 -3.796483
vt -10.495532 -3.292994
vt -8.530619 -1.947058
vt -10.943563 -1.112852
vt -8.750000 0.000000
vt -10.943563 1.112852
vt -8.530619 1.947058
vt -10.495532 3.292994
vt -7.883478 3.796483
vt -9.617813 5.338322
vt -6.841025 5.455536
vt -8.346339 7.165097
vt -5.455536 6.841025
vt -6.733166 8.698533
vt -3.796483 7.883478
vt -4.844336 9.875850
vt -2.757178 10.648848
vt -1.947058 8.530619
vt -0.557141 10.985882
vt -0.000000 8.750000
vt 1.665706 10.873152
vt 1.947058 8.530619
vt 3.820358 10.315273
vt 3.796483 7.883478
vt 5.818604 9.335087
vt 5.455536 6.841025
vt 7.578636 7.972721
vt 6.841025 5.455536
vt 9.028398 6.283950
vt 7.883478 3.796483
vt 10.108536 4.337914
vt 8.530619 1.947058
vn 0.9749 -0.2225 0.0000
vn 1.0000 0.0000 0.0000
vn 0.9749 0.2225 0.0000
vn 0.9010 0.4339 0.0000
vn 0.9010 -0.4339 0.0000
vn 0.7818 -0.6235 0.0000
vn 0.6235 -0.7818 0.0000
vn 0.4339 -0.9010 0.0000
vn 0.2225 -0.9749 0.0000
vn -0.0000 -1.0000 0.0000
vn -0.2225 -0.9749 0.0000
vn -0.4339 -0.9010 0.0000
vn -0.6235 -0.7818 0.0000
vn -0.7818 -0.6235 0.0000
vn -0.9010 -0.4339 0.0000
vn -0.9749 -0.2225 0.0000
vn -1.0000 0.0000 0.0000
vn -0.9749 0.2225 0.0000
vn -0.9010 0.4339 0.0000
vn -0.7818 0.6235 0.0000
vn -0.6235 0.7818 0.0000
vn -0.4339 0.9010 0.0000
vn -0.2225 0.9749 0.0000
vn 0.0000 1.0000 0.0000
vn 0.2225 0.9749 0.0000
vn 0.4339 0.9010 0.0000
vn 0.6235 0.7818 0.0000
vn 0.7818 0.6235 0.0000
vn -0.9795 -0.2013 0.0000
vn -0.9795 0.2013 0.0000
vn -0.9190 0.3944 0.0000
vn -0.8208 0.5713 0.0000
vn -0.6890 0.7248 0.0000
vn -0.5290 0.8486 0.0000
vn -0.3473 0.9378 0.0000
vn -0.1514 0.9885 0.0000
vn 0.0506 0.9987 0.0000
vn 0.2507 0.9681 0.0000
vn 0.4404 0.8978 0.0000
vn 0.6121 0.7908 0.0000
vn 0.7588 0.6514 0.0000
vn 0.8743 0.4853 0.0000
vn 0.9541 0.2994 0.0000
vn 0.9949 0.1012 0.0000
vn 0.9949 -0.1012 0.0000
vn 0.9541 -0.2994 0.0000
vn 0.8743 -0.4853 0.0000
vn 0.7588 -0.6514 0.0000
vn 0.6121 -0.7908 0.0000
vn 0.4404 -0.8978 0.0000
vn 0.2507 -0.9681 0.0000
vn 0.0506 -0.9987 0.0000
vn -0.1514 -0.9885 0.0000
vn -0.3473 -0.9378 0.0000
vn -0.5290 -0.8486 0.0000
vn -0.6890 -0.7248 0.0000
vn -0.8208 -0.5713 0.0000
vn -0.9190 -0.3944 0.0000
vn -0.0000 0.0000 -1.0000
vn 0.0000 0.0000 1.0000
usemtl Steel_-_Satin.002
s 1
f 1/1/1 2/2/1 3/3/2
f 3/3/2 2/2/1 4/4/2
f 3/5/2 4/6/2 5/7/3
f 5/7/3 4/6/2 6/8/3
f 5/7/3 6/8/3 7/9/4
f 1/1/1 8/10/5 2/2/1
f 2/2/1 8/10/5 9/11/5
f 9/11/5 8/10/5 10/12/6
f 9/11/5 10/12/6 11/13/6
f 11/13/6 10/12/6 12/14/7
f 11/13/6 12/14/7 13/15/7
f 13/15/7 12/14/7 14/16/8
f 13/15/7 14/16/8 15/17/8
f 15/17/8 14/16/8 16/18/9
f 15/17/8 16/18/9 17/19/9
f 17/19/9 16/18/9 18/20/10
f 17/19/9 18/20/10 19/21/10
f 19/21/10 18/20/10 20/22/11
f 19/21/10 20/22/11 21/23/11
f 21/23/11 20/22/11 22/24/12
f 21/23/11 22/24/12 23/25/12
f 23/25/12 22/24/12 24/26/13
f 23/25/12 24/26/13 25/27/13
f 25/27/13 24/26/13 26/28/14
f 25/27/13 26/28/14 27/29/14
f 27/29/14 26/28/14 28/30/15
f 27/29/14 28/30/15 29/31/15
f 29/31/15 28/30/15 30/32/16
f 29/31/15 30/32/16 31/33/16
f 31/33/16 30/32/16 32/34/17
f 31/33/16 32/34/17 33/35/17
f 33/35/17 32/34/17 34/36/18
f 33/35/17 34/36/18 35/37/18
f 35/37/18 34/36/18 36/38/19
f 35/37/18 36/38/19 37/39/19
f 37/39/19 36/38/19 38/40/20
f 37/39/19 38/40/20 39/41/20
f 39/41/20 38/40/20 40/42/21
f 39/41/20 40/42/21 41/43/21
f 41/43/21 40/42/21 42/44/22
f 41/43/21 42/44/22 43/45/22
f 43/45/22 42/44/22 44/46/23
f 43/45/22 44/46/23 45/47/23
f 45/47/23 44/46/23 46/48/24
f 45/47/23 46/48/24 47/49/24
f 47/49/24 46/48/24 48/50/25
f 47/49/24 48/50/25 49/51/25
f 49/51/25 48/50/25 50/52/26
f 49/51/25 50/52/26 51/53/26
f 51/53/26 50/52/26 52/54/27
f 51/53/26 52/54/27 53/55/27
f 53/55/27 52/54/27 54/56/28
f 53/55/27 54/56/28 55/57/28
f 55/57/28 54/56/28 56/58/4
f 55/57/28 56/58/4 7/9/4
f 7/9/4 56/58/4 5/7/3
f 57/59/29 58/60/29 59/61/17
f 59/61/17 58/60/29 60/62/17
f 59/63/17 60/64/17 61/65/30
f 61/65/30 60/64/17 62/66/30
f 61/65/30 62/66/30 63/67/31
f 63/67/31 62/66/30 64/68/31
f 63/67/31 64/68/31 65/69/32
f 65/69/32 64/68/31 66/70/32
f 65/69/32 66/70/32 67/71/33
f 67/71/33 66/70/32 68/72/33
f 67/71/33 68/72/33 69/73/34
f 69/73/34 68/72/33 70/74/34
f 69/73/34 70/74/34 71/75/35
f 71/75/35 70/74/34 72/76/35
f 71/75/35 72/76/35 73/77/36
f 73/77/36 72/76/35 74/78/36
f 73/77/36 74/78/36 75/79/37
f 75/79/37 74/78/36 76/80/37
f 75/79/37 76/80/37 77/81/38
f 77/81/38 76/80/37 78/82/38
f 77/81/38 78/82/38 79/83/39
f 79/83/39 78/82/38 80/84/39
f 79/83/39 80/84/39 81/85/40
f 81/85/40 80/84/39 82/86/40
f 81/85/40 82/86/40 83/87/41
f 83/87/41 82/86/40 84/88/41
f 83/87/41 84/88/41 85/89/42
f 85/89/42 84/88/41 86/90/42
f 85/89/42 86/90/42 87/91/43
f 87/91/43 86/90/42 88/92/43
f 87/91/43 88/92/43 89/93/44
f 89/93/44 88/92/43 90/94/44
f 89/93/44 90/94/44 91/95/45
f 91/95/45 90/94/44 92/96/45
f 91/95/45 92/96/45 93/97/46
f 93/97/46 92/96/45 94/98/46
f 93/97/46 94/98/46 95/99/47
f 95/99/47 94/98/46 96/100/47
f 95/99/47 96/100/47 97/101/48
f 97/101/48 96/100/47 98/102/48
f 97/101/48 98/102/48 99/103/49
f 99/103/49 98/102/48 100/104/49
f 99/103/49 100/104/49 101/105/50
f 101/105/50 100/104/49 102/106/50
f 101/105/50 102/106/50 103/107/51
f 103/107/51 102/106/50 104/108/51
f 103/107/51 104/108/51 105/109/52
f 105/109/52 104/108/51 106/110/52
f 105/109/52 106/110/52 107/111/53
f 107/111/53 106/110/52 108/112/53
f 107/111/53 108/112/53 109/113/54
f 109/113/54 108/112/53 110/114/54
f 109/113/54 110/114/54 111/115/55
f 111/115/55 110/114/54 112/116/55
f 111/115/55 112/116/55 113/117/56
f 113/117/56 112/116/55 114/118/56
f 113/117/56 114/118/56 115/119/57
f 115/119/57 114/118/56 116/120/57
f 115/119/57 116/120/57 117/121/58
f 117/121/58 116/120/57 118/122/58
f 117/121/58 118/122/58 57/59/29
f 57/59/29 118/122/58 58/60/29
f 5/123/59 57/124/59 3/125/59
f 3/125/59 57/124/59 59/126/59
f 3/125/59 59/126/59 61/127/59
f 57/124/59 5/123/59 117/128/59
f 117/128/59 5/123/59 56/129/59
f 117/128/59 56/129/59 115/130/59
f 115/130/59 56/129/59 54/131/59
f 115/130/59 54/131/59 113/132/59
f 113/132/59 54/131/59 52/133/59
f 113/132/59 52/133/59 111/134/59
f 111/134/59 52/133/59 50/135/59
f 111/134/59 50/135/59 109/136/59
f 109/136/59 50/135/59 48/137/59
f 109/136/59 48/137/59 107/138/59
f 107/138/59 48/137/59 46/139/59
f 107/138/59 46/139/59 105/140/59
f 105/140/59 46/139/59 44/141/59
f 105/140/59 44/141/59 103/142/59
f 103/142/59 44/141/59 42/143/59
f 103/142/59 42/143/59 101/144/59
f 101/144/59 42/143/59 99/145/59
f 99/145/59 42/143/59 40/146/59
f 99/145/59 40/146/59 97/147/59
f 97/147/59 40/146/59 38/148/59
f 97/147/59 38/148/59 95/149/59
f 95/149/59 38/148/59 36/150/59
f 95/149/59 36/150/59 93/151/59
f 93/151/59 36/150/59 34/152/59
f 93/151/59 34/152/59 91/153/59
f 91/153/59 34/152/59 32/154/59
f 91/153/59 32/154/59 89/155/59
f 89/155/59 32/154/59 30/156/59
f 89/155/59 30/156/59 87/157/59
f 87/157/59 30/156/59 28/158/59
f 87/157/59 28/158/59 85/159/59
f 85/159/59 28/158/59 26/160/59
f 85/159/59 26/160/59 83/161/59
f 83/161/59 26/160/59 24/162/59
f 83/161/59 24/162/59 81/163/59
f 81/163/59 24/162/59 22/164/59
f 81/163/59 22/164/59 79/165/59
f 79/165/59 22/164/59 77/166/59
f 77/166/59 22/164/59 20/167/59
f 77/166/59 20/167/59 75/168/59
f 75/168/59 20/167/59 18/169/59
f 75/168/59 18/169/59 73/170/59
f 73/170/59 18/169/59 16/171/59
f 73/170/59 16/171/59 71/172/59
f 71/172/59 16/171/59 14/173/59
f 71/172/59 14/173/59 69/174/59
f 69/174/59 14/173/59 12/175/59
f 69/174/59 12/175/59 67/176/59
f 67/176/59 12/175/59 10/177/59
f 67/176/59 10/177/59 65/178/59
f 65/178/59 10/177/59 8/179/59
f 65/178/59 8/179/59 63/180/59
f 63/180/59 8/179/59 1/181/59
f 63/180/59 1/181/59 61/127/59
f 61/127/59 1/181/59 3/125/59
f 2/182/60 62/183/60 4/184/60
f 4/184/60 62/183/60 60/185/60
f 4/184/60 60/185/60 58/186/60
f 62/183/60 2/182/60 64/187/60
f 64/187/60 2/182/60 9/188/60
f 64/187/60 9/188/60 66/189/60
f 66/189/60 9/188/60 11/190/60
f 66/189/60 11/190/60 68/191/60
f 68/191/60 11/190/60 13/192/60
f 68/191/60 13/192/60 70/193/60
f 70/193/60 13/192/60 15/194/60
f 70/193/60 15/194/60 72/195/60
f 72/195/60 15/194/60 17/196/60
f 72/195/60 17/196/60 74/197/60
f 74/197/60 17/196/60 19/198/60
f 74/197/60 19/198/60 76/199/60
f 76/199/60 19/198/60 21/200/60
f 76/199/60 21/200/60 78/201/60
f 78/201/60 21/200/60 23/202/60
f 78/201/60 23/202/60 80/203/60
f 80/203/60 23/202/60 82/204/60
f 82/204/60 23/202/60 25/205/60
f 82/204/60 25/205/60 84/206/60
f 84/206/60 25/205/60 27/207/60
f 84/206/60 27/207/60 86/208/60
f 86/208/60 27/207/60 29/209/60
f 86/208/60 29/209/60 88/210/60
f 88/210/60 29/209/60 31/211/60
f 88/210/60 31/211/60 90/212/60
f 90/212/60 31/211/60 33/213/60
f 90/212/60 33/213/60 92/214/60
f 92/214/60 33/213/60 35/215/60
f 92/214/60 35/215/60 94/216/60
f 94/216/60 35/215/60 37/217/60
f 94/216/60 37/217/60 96/218/60
f 96/218/60 37/217/60 39/219/60
f 96/218/60 39/219/60 98/220/60
f 98/220/60 39/219/60 41/221/60
f 98/220/60 41/221/60 100/222/60
f 100/222/60 41/221/60 43/223/60
f 100/222/60 43/223/60 102/224/60
f 102/224/60 43/223/60 104/225/60
f 104/225/60 43/223/60 45/226/60
f 104/225/60 45/226/60 106/227/60
f 106/227/60 45/226/60 47/228/60
f 106/227/60 47/228/60 108/229/60
f 108/229/60 47/228/60 49/230/60
f 108/229/60 49/230/60 110/231/60
f 110/231/60 49/230/60 51/232/60
f 110/231/60 51/232/60 112/233/60
f 112/233/60 51/232/60 53/234/60
f 112/233/60 53/234/60 114/235/60
f 114/235/60 53/234/60 55/236/60
f 114/235/60 55/236/60 116/237/60
f 116/237/60 55/236/60 7/238/60
f 116/237/60 7/238/60 118/239/60
f 118/239/60 7/238/60 6/240/60
f 118/239/60 6/240/60 58/186/60
f 58/186/60 6/240/60 4/184/60
