# Blender v2.80 (sub 75) OBJ File: ''
# www.blender.org
mtllib YK_Cannon_Base.mtl
o Base_Base_Cube
v -0.500000 -0.500000 0.085560
v -0.500000 -0.340000 0.085560
v -0.500000 -0.340000 -0.085560
v -0.500000 -0.500000 -0.085560
v 0.420368 -0.340000 -0.277809
v 0.420368 -0.500000 -0.277809
v 0.277809 -0.500000 -0.420368
v 0.277809 -0.340000 -0.420368
v -0.277809 -0.340000 -0.420368
v -0.277809 -0.500000 -0.420368
v -0.420368 -0.500000 -0.277809
v -0.420368 -0.340000 -0.277809
v 0.500000 -0.340000 -0.085560
v 0.085560 -0.340000 -0.500000
v -0.085560 -0.340000 -0.500000
v -0.420368 -0.340000 0.277809
v -0.277809 -0.340000 0.420368
v -0.085560 -0.340000 0.500000
v 0.085560 -0.340000 0.500000
v 0.277809 -0.340000 0.420368
v 0.420368 -0.340000 0.277809
v 0.500000 -0.340000 0.085560
v 0.277809 -0.500000 0.420368
v 0.420368 -0.500000 0.277809
v 0.085560 -0.500000 0.500000
v -0.085560 -0.500000 0.500000
v -0.085560 -0.500000 -0.500000
v 0.085560 -0.500000 -0.500000
v 0.500000 -0.500000 -0.085560
v 0.500000 -0.500000 0.085560
v -0.277809 -0.500000 0.420368
v -0.420368 -0.500000 0.277809
vt 0.937766 0.496043
vt 0.986248 0.496043
vt 0.986248 0.496043
vt 0.937766 0.496043
vt 0.986248 0.217162
vt 0.937766 0.217162
vt 0.937766 0.260359
vt 0.986248 0.260359
vt 0.986248 0.428717
vt 0.937766 0.428717
vt 0.937766 0.471914
vt 0.986248 0.471914
vt 0.986248 0.193033
vt 0.986248 0.318612
vt 0.986248 0.370464
vt 0.986248 0.471914
vt 0.986248 0.428717
vt 0.986248 0.370464
vt 0.986248 0.318612
vt 0.986248 0.260359
vt 0.986248 0.217162
vt 0.986248 0.193033
vt 0.937766 0.260359
vt 0.937766 0.217162
vt 0.937766 0.318612
vt 0.937766 0.370464
vt 0.937766 0.370464
vt 0.937766 0.318612
vt 0.937766 0.193033
vt 0.937766 0.193033
vt 0.937766 0.428717
vt 0.937766 0.471914
vn -0.9808 -0.0000 0.1951
vn -0.9808 0.0000 -0.1951
vn 0.8315 0.0000 -0.5556
vn 0.5556 0.0000 -0.8315
vn -0.5556 0.0000 -0.8315
vn -0.8315 0.0000 -0.5556
vn 0.0000 1.0000 0.0000
vn 0.5556 -0.0000 0.8315
vn 0.8315 -0.0000 0.5556
vn 0.1951 -0.0000 0.9808
vn -0.1951 -0.0000 0.9808
vn -0.1951 0.0000 -0.9808
vn 0.1951 0.0000 -0.9808
vn 0.9808 0.0000 -0.1951
vn 0.9808 -0.0000 0.1951
vn -0.5556 -0.0000 0.8315
vn -0.8315 -0.0000 0.5556
vn -0.0000 -1.0000 -0.0000
usemtl Default_OBJ.000
s 1
f 1/1/1 2/2/1 3/3/2 4/4/2
f 5/5/3 6/6/3 7/7/4 8/8/4
f 9/9/5 10/10/5 11/11/6 12/12/6
f 13/13/7 5/5/7 8/8/7 14/14/7 15/15/7 9/9/7 12/12/7 3/3/7 2/2/7 16/16/7 17/17/7 18/18/7 19/19/7 20/20/7 21/21/7 22/22/7
f 20/20/8 23/23/8 24/24/9 21/21/9
f 25/25/10 19/19/10 18/18/11 26/26/11
f 27/27/12 15/15/12 14/14/13 28/28/13
f 29/29/14 13/13/14 22/22/15 30/30/15
f 31/31/16 17/17/16 16/16/17 32/32/17
f 26/26/11 18/18/11 17/17/16 31/31/16
f 2/2/1 1/1/1 32/32/17 16/16/17
f 15/15/12 27/27/12 10/10/5 9/9/5
f 4/4/2 3/3/2 12/12/6 11/11/6
f 13/13/14 29/29/14 6/6/3 5/5/3
f 28/28/13 14/14/13 8/8/4 7/7/4
f 19/19/10 25/25/10 23/23/8 20/20/8
f 30/30/15 22/22/15 21/21/9 24/24/9
f 4/4/18 11/11/18 10/10/18 27/27/18 28/28/18 7/7/18 6/6/18 29/29/18 30/30/18 24/24/18 23/23/18 25/25/18 26/26/18 31/31/18 32/32/18 1/1/18
