# Blender v2.80 (sub 75) OBJ File: ''
# www.blender.org
mtllib YK_Cannon_Body.mtl
o Body_Gimbal_Cube.005
v -0.142374 0.192468 -0.110347
v -0.142374 0.007491 -0.110347
v -0.120628 0.007472 -0.131652
v -0.120628 0.192449 -0.132051
v 0.000000 0.259512 -0.137576
v -0.029409 0.281786 -0.105743
v 0.029409 0.281786 -0.105743
v -0.029409 0.281786 0.411002
v -0.031832 0.246327 0.442834
v 0.031832 0.246327 0.442834
v 0.029409 0.281786 0.411002
v 0.071132 0.230048 0.442834
v 0.116150 0.185030 0.442834
v 0.139510 0.211816 0.411002
v 0.097919 0.253408 0.411002
v 0.102965 0.216862 -0.137576
v 0.097919 0.253408 -0.105743
v 0.139510 0.211817 -0.105743
v 0.132429 0.145730 0.442834
v 0.132429 0.082065 0.442834
v 0.167888 0.084488 0.411002
v 0.167888 0.143307 0.411002
v 0.145615 0.113898 -0.137576
v 0.167888 0.143307 -0.105743
v 0.167888 0.084488 -0.105743
v 0.116150 0.042765 0.442834
v 0.071132 -0.002253 0.442834
v 0.097919 -0.025612 0.411002
v 0.139510 0.015979 0.411002
v 0.102965 0.010933 -0.137576
v 0.139510 0.015979 -0.105743
v 0.097919 -0.025612 -0.105743
v 0.031832 -0.018532 0.442834
v -0.031832 -0.018532 0.442834
v -0.029409 -0.053991 0.411002
v 0.029409 -0.053991 0.411002
v 0.000000 -0.031717 -0.137576
v 0.029409 -0.053990 -0.105743
v -0.029409 -0.053990 -0.105743
v -0.071132 -0.002253 0.442834
v -0.116150 0.042765 0.442834
v -0.139510 0.015979 0.411002
v -0.097919 -0.025612 0.411002
v -0.102965 0.010933 -0.137576
v -0.097919 -0.025612 -0.105743
v -0.139510 0.015979 -0.105743
v -0.132429 0.082065 0.442834
v -0.132429 0.145730 0.442834
v -0.167888 0.143307 0.411002
v -0.167888 0.084488 0.411002
v -0.145615 0.113898 -0.137576
v -0.167888 0.084488 -0.105743
v -0.167888 0.143307 -0.105743
v -0.116150 0.185030 0.442834
v -0.071132 0.230048 0.442834
v -0.097919 0.253408 0.411002
v -0.139510 0.211816 0.411002
v -0.102965 0.216862 -0.137576
v -0.139510 0.211817 -0.105743
v -0.097919 0.253408 -0.105743
v -0.030664 0.316689 -0.371199
v 0.030664 0.316689 -0.371199
v -0.030664 0.316688 0.321002
v 0.030664 0.316688 0.321002
v 0.145461 0.245373 0.321002
v 0.102095 0.301217 0.321002
v 0.102095 0.301218 -0.371199
v 0.145461 0.245373 -0.371199
v 0.175049 0.074410 0.321002
v 0.175049 0.153385 0.321002
v 0.175049 0.153385 -0.371199
v 0.175049 0.074410 -0.371199
v 0.102095 -0.073422 0.321002
v 0.145461 -0.017578 0.321002
v 0.145461 -0.017578 -0.371199
v 0.102095 -0.073422 -0.371199
v -0.030664 -0.088893 0.321002
v 0.030664 -0.088893 0.321002
v 0.030664 -0.088893 -0.371199
v -0.030664 -0.088893 -0.371199
v -0.145461 -0.017578 0.321002
v -0.102095 -0.073422 0.321002
v -0.102095 -0.073422 -0.371199
v -0.145461 -0.017578 -0.371199
v -0.175049 0.153385 0.321002
v -0.175049 0.074410 0.321002
v -0.175049 0.074410 -0.371199
v -0.175049 0.153385 -0.371199
v -0.102095 0.301217 0.321002
v -0.145461 0.245373 0.321002
v -0.145461 0.245373 -0.371199
v -0.102095 0.301218 -0.371199
v -0.017203 0.227666 -0.471199
v 0.017203 0.227666 -0.471199
v 0.056037 0.216712 -0.471199
v 0.081605 0.187657 -0.471199
v 0.098204 0.136051 -0.471199
v 0.098204 0.091745 -0.471199
v 0.081605 0.040138 -0.471199
v 0.056037 0.011084 -0.471199
v 0.017203 0.000130 -0.471199
v -0.017203 0.000130 -0.471199
v -0.056037 0.011084 -0.471199
v -0.081605 0.040138 -0.471199
v -0.098204 0.091745 -0.471199
v -0.098204 0.136051 -0.471199
v -0.081605 0.187657 -0.471199
v -0.056037 0.216712 -0.471199
v -0.028571 0.302851 -0.330113
v 0.028571 0.302851 -0.330113
v 0.095129 0.288435 -0.330113
v 0.135535 0.236402 -0.330113
v 0.163104 0.150691 -0.330113
v 0.163104 0.077104 -0.330113
v 0.135535 -0.008606 -0.330113
v 0.095129 -0.060640 -0.330113
v 0.028571 -0.075055 -0.330113
v -0.028571 -0.075055 -0.330113
v -0.095129 -0.060640 -0.330113
v -0.135535 -0.008606 -0.330113
v -0.163104 0.077104 -0.330113
v -0.163104 0.150691 -0.330113
v -0.135535 0.236402 -0.330113
v -0.095129 0.288435 -0.330113
v -0.030664 0.316689 -0.371199
v 0.030664 0.316689 -0.371199
v -0.030664 0.316688 0.321002
v 0.030664 0.316688 0.321002
v 0.102095 0.301217 0.321002
v 0.102095 0.301218 -0.371199
v -0.102095 0.301217 0.321002
v -0.102095 0.301218 -0.371199
v -0.030664 0.416218 -0.371199
v 0.030664 0.416218 -0.371199
v 0.030664 0.416217 0.321002
v -0.030664 0.416217 0.321002
v 0.064971 0.394495 -0.371199
v 0.090272 0.367575 -0.371199
v 0.090272 0.367575 0.321002
v 0.064971 0.394495 0.321002
v -0.064971 0.394495 0.321002
v -0.090272 0.367575 0.321002
v -0.090272 0.367575 -0.371199
v -0.064971 0.394495 -0.371199
v 0.228200 -0.072285 0.392023
v 0.206995 0.474220 0.303676
v 0.565678 0.008354 0.147955
v 0.463220 -0.088445 0.235647
v 0.442015 0.458059 0.147301
v 0.548553 0.449714 0.076606
v 0.173701 0.462963 0.242036
v 0.194906 -0.083541 0.330382
v 0.515259 0.438457 0.014966
v 0.408721 0.446803 0.085661
v 0.429926 -0.099701 0.174007
v 0.532384 -0.002903 0.086315
v -0.228200 -0.072285 0.392023
v -0.206995 0.474220 0.303676
v -0.565678 0.008354 0.147955
v -0.463220 -0.088445 0.235647
v -0.442015 0.458059 0.147301
v -0.548553 0.449714 0.076606
v -0.173701 0.462963 0.242036
v -0.194906 -0.083541 0.330382
v -0.515259 0.438457 0.014966
v -0.408721 0.446803 0.085661
v -0.429926 -0.099701 0.174007
v -0.532384 -0.002903 0.086315
vt 0.239923 0.669052
vt 0.239923 0.669052
vt 0.148749 0.669052
vt 0.106380 0.669052
vt 0.106380 0.669052
vt 0.148749 0.669052
vt 0.239915 0.692399
vt 0.146415 0.692399
vt 0.104046 0.692399
vt 0.104046 0.692399
vt 0.146415 0.692399
vt 0.239915 0.692399
vt 0.068539 0.696330
vt 0.122030 0.611424
vt 0.119083 0.611424
vt 0.065592 0.696330
vt 0.442302 0.750000
vt 0.375000 0.750000
vt 0.375000 0.750000
vt 0.442302 0.750000
vt 0.068539 0.845375
vt 0.065592 0.845375
vt 0.151544 0.753811
vt 0.111861 0.750111
vt 0.111714 0.728041
vt 0.151397 0.731741
vt 0.238967 0.739907
vt 0.239114 0.761977
vt 0.239923 0.669052
vt 0.148749 0.669052
vt 0.106380 0.669052
vt 0.106380 0.669052
vt 0.148749 0.669052
vt 0.239923 0.669052
vt 0.239915 0.692399
vt 0.239915 0.692399
vt 0.146415 0.692399
vt 0.104046 0.692399
vt 0.104046 0.692399
vt 0.146415 0.692399
vt 0.068539 0.696330
vt 0.065592 0.696330
vt 0.119083 0.611424
vt 0.122030 0.611424
vt 0.442302 0.750000
vt 0.442302 0.750000
vt 0.375000 0.750000
vt 0.375000 0.750000
vt 0.068539 0.845375
vt 0.065592 0.845375
vt 0.151544 0.753811
vt 0.239114 0.761977
vt 0.238967 0.739907
vt 0.151397 0.731741
vt 0.111714 0.728041
vt 0.111861 0.750111
vt 0.146508 0.353534
vt 0.146687 0.436518
vt 0.136950 0.436526
vt 0.136950 0.353542
vt 0.672085 0.322208
vt 0.901984 0.322208
vt 0.901984 0.315426
vt 0.672085 0.315426
vt 0.999003 0.399995
vt 0.999003 0.405354
vt 0.999003 0.405354
vt 0.999003 0.399995
vt 0.999003 0.385172
vt 0.999003 0.372233
vt 0.999003 0.351271
vt 0.999003 0.338332
vt 0.999003 0.323509
vt 0.999003 0.318150
vt 0.999003 0.318150
vt 0.999003 0.323509
vt 0.999003 0.338332
vt 0.999003 0.351271
vt 0.999003 0.372233
vt 0.999003 0.385172
vt 0.672085 0.315426
vt 0.901984 0.315426
vt 0.901984 0.322208
vt 0.672085 0.322208
vt 0.672085 0.395677
vt 0.901984 0.395677
vt 0.901984 0.388894
vt 0.672085 0.388894
vt 0.672085 0.362580
vt 0.901984 0.362580
vt 0.901984 0.378954
vt 0.672085 0.378954
vt 0.672085 0.378954
vt 0.901984 0.378954
vt 0.901984 0.362580
vt 0.672085 0.362580
vt 0.672085 0.332148
vt 0.901984 0.332148
vt 0.901984 0.348522
vt 0.672085 0.348522
vt 0.672085 0.388894
vt 0.901984 0.388894
vt 0.901984 0.395677
vt 0.672085 0.395677
vt 0.672085 0.348522
vt 0.901984 0.348522
vt 0.901984 0.332148
vt 0.672085 0.332148
vt 0.643274 0.313808
vt 0.662784 0.306475
vt 0.662784 0.306475
vt 0.979493 0.306475
vt 0.979493 0.306475
vt 0.979493 0.329512
vt 0.979493 0.315818
vt 0.643274 0.327851
vt 0.662784 0.315818
vt 0.662784 0.329512
vt 0.979493 0.371435
vt 0.979493 0.352069
vt 0.643274 0.361752
vt 0.662784 0.352069
vt 0.662784 0.371435
vt 0.979493 0.407686
vt 0.979493 0.393992
vt 0.643274 0.395653
vt 0.662784 0.393992
vt 0.662784 0.407686
vt 0.979493 0.417029
vt 0.979493 0.417029
vt 0.643274 0.409696
vt 0.662784 0.417029
vt 0.662784 0.417029
vt 0.979493 0.393992
vt 0.979493 0.407686
vt 0.643274 0.395653
vt 0.662784 0.407686
vt 0.662784 0.393992
vt 0.979493 0.352069
vt 0.979493 0.371435
vt 0.643274 0.361752
vt 0.662784 0.371435
vt 0.662784 0.352069
vt 0.979493 0.315818
vt 0.979493 0.329512
vt 0.643274 0.327851
vt 0.662784 0.329512
vt 0.662784 0.315818
vt 0.200231 0.483244
vt 0.335206 0.483244
vt 0.335206 0.479262
vt 0.200231 0.479262
vt 0.200231 0.479262
vt 0.335206 0.479262
vt 0.335206 0.483244
vt 0.200231 0.483244
vt 0.200231 0.526378
vt 0.335206 0.526378
vt 0.335206 0.522396
vt 0.200231 0.522396
vt 0.200231 0.506947
vt 0.335206 0.506947
vt 0.335206 0.516560
vt 0.200231 0.516560
vt 0.200231 0.516560
vt 0.335206 0.516560
vt 0.335206 0.506947
vt 0.200231 0.506947
vt 0.200231 0.489080
vt 0.335206 0.489080
vt 0.335206 0.498693
vt 0.200231 0.498693
vt 0.200231 0.522396
vt 0.335206 0.522396
vt 0.335206 0.526378
vt 0.200231 0.526378
vt 0.200231 0.498693
vt 0.335206 0.498693
vt 0.335206 0.489080
vt 0.200231 0.489080
vt 0.445580 0.692860
vt 0.445580 0.692860
vt 0.445580 0.687822
vt 0.445580 0.669636
vt 0.445580 0.639679
vt 0.445580 0.613960
vt 0.445580 0.584004
vt 0.445580 0.565818
vt 0.445580 0.560779
vt 0.445580 0.560779
vt 0.445580 0.565818
vt 0.445580 0.584004
vt 0.445580 0.613960
vt 0.445580 0.639679
vt 0.445580 0.669636
vt 0.445580 0.687822
vt 0.662784 0.306475
vt 0.662784 0.315818
vt 0.662784 0.329512
vt 0.662784 0.352069
vt 0.662784 0.371435
vt 0.662784 0.393992
vt 0.662784 0.407686
vt 0.662784 0.417029
vt 0.662784 0.417029
vt 0.662784 0.407686
vt 0.662784 0.393992
vt 0.662784 0.371435
vt 0.662784 0.352069
vt 0.662784 0.329512
vt 0.662784 0.315818
vt 0.662784 0.306475
vt 0.363682 0.648178
vt 0.363682 0.605462
vt 0.363682 0.555708
vt 0.363682 0.525504
vt 0.363682 0.517136
vt 0.363682 0.517136
vt 0.363682 0.525504
vt 0.363682 0.555708
vt 0.363682 0.605462
vt 0.363682 0.648178
vt 0.363682 0.697931
vt 0.363682 0.728136
vt 0.363682 0.736504
vt 0.363682 0.736504
vt 0.363682 0.728136
vt 0.363682 0.697931
vt 0.200231 0.483244
vt 0.200231 0.479262
vt 0.335206 0.479262
vt 0.335206 0.483244
vt 0.200231 0.479262
vt 0.200231 0.483244
vt 0.335206 0.483244
vt 0.335206 0.479262
vt 0.335206 0.479262
vt 0.335206 0.481693
vt 0.335206 0.483244
vt 0.138223 0.275669
vt 0.273198 0.275669
vt 0.273198 0.275669
vt 0.138223 0.275669
vt 0.273198 0.279651
vt 0.138223 0.279651
vt 0.138223 0.279651
vt 0.273198 0.279651
vt 0.335206 0.479262
vt 0.335206 0.483244
vt 0.335206 0.481693
vt 0.138223 0.277219
vt 0.273198 0.277219
vt 0.200231 0.479262
vt 0.200231 0.479262
vt 0.200231 0.483244
vt 0.200231 0.481693
vt 0.273198 0.277219
vt 0.138223 0.277219
vt 0.273198 0.275669
vt 0.138223 0.275669
vt 0.138223 0.275669
vt 0.273198 0.275669
vt 0.200231 0.481693
vt 0.200231 0.483244
vn 0.5547 0.1537 0.8177
vn -0.5547 -0.1537 -0.8177
vn 0.5921 -0.7864 -0.1762
vn -0.8822 0.0416 0.4689
vn 0.0383 -0.9865 0.1595
vn 0.8822 -0.0416 -0.4689
vn -0.0360 0.9864 -0.1607
vn -0.5547 0.1537 0.8177
vn 0.5547 -0.1537 -0.8177
vn -0.5921 -0.7864 -0.1762
vn 0.8822 0.0416 0.4689
vn -0.0383 -0.9865 0.1595
vn -0.8822 -0.0416 -0.4689
vn 0.0360 0.9864 -0.1607
vn 0.7032 0.0008 0.7110
vn -0.5556 0.8315 0.0000
vn -0.1951 0.9808 0.0000
vn -0.0000 -0.0000 1.0000
vn 0.1951 0.9808 0.0000
vn 0.5556 0.8315 0.0000
vn -0.1951 -0.9808 -0.0000
vn -0.5556 -0.8315 -0.0000
vn 0.9808 -0.1951 -0.0000
vn 0.8315 -0.5556 -0.0000
vn -0.8315 -0.5556 -0.0000
vn -0.9808 -0.1951 -0.0000
vn 0.8315 0.5556 0.0000
vn 0.9808 0.1951 0.0000
vn 0.5556 -0.8315 -0.0000
vn 0.1951 -0.9808 -0.0000
vn -0.9808 0.1951 0.0000
vn -0.8315 0.5556 0.0000
vn 0.0000 0.8193 -0.5733
vn -0.1180 0.6678 0.7349
vn -0.1520 0.6660 0.7303
vn 0.1520 0.6660 0.7303
vn 0.1180 0.6678 0.7349
vn 0.3634 0.5784 0.7303
vn 0.5784 0.3634 0.7303
vn 0.5556 0.3888 0.7349
vn 0.3888 0.5556 0.7349
vn 0.5794 0.5794 -0.5733
vn 0.6660 0.1520 0.7303
vn 0.6660 -0.1520 0.7303
vn 0.6678 -0.1180 0.7349
vn 0.6678 0.1180 0.7349
vn 0.8193 -0.0000 -0.5733
vn 0.5784 -0.3634 0.7303
vn 0.3634 -0.5784 0.7303
vn 0.3888 -0.5556 0.7349
vn 0.5556 -0.3888 0.7349
vn 0.5794 -0.5794 -0.5733
vn 0.1520 -0.6660 0.7303
vn -0.1520 -0.6660 0.7303
vn -0.1180 -0.6678 0.7349
vn 0.1180 -0.6678 0.7349
vn 0.0000 -0.8193 -0.5733
vn -0.3634 -0.5784 0.7303
vn -0.5784 -0.3634 0.7303
vn -0.5556 -0.3888 0.7349
vn -0.3888 -0.5556 0.7349
vn -0.5794 -0.5794 -0.5733
vn -0.6660 -0.1520 0.7303
vn -0.6660 0.1520 0.7303
vn -0.6678 0.1180 0.7349
vn -0.6678 -0.1180 0.7349
vn -0.8193 -0.0000 -0.5733
vn -0.5784 0.3634 0.7303
vn -0.3634 0.5784 0.7303
vn -0.3888 0.5556 0.7349
vn -0.5556 0.3888 0.7349
vn -0.5794 0.5794 -0.5733
vn 0.2706 0.6533 -0.7071
vn 0.6533 0.2706 -0.7071
vn 0.6533 -0.2706 -0.7071
vn 0.2706 -0.6533 -0.7071
vn -0.2706 -0.6533 -0.7071
vn -0.6533 -0.2706 -0.7071
vn -0.6533 0.2706 -0.7071
vn -0.2706 0.6533 -0.7071
vn 0.0000 0.0000 -1.0000
vn -0.5328 0.8462 0.0000
vn -0.1064 0.9943 0.0000
vn 0.1064 0.9943 0.0000
vn 0.5328 0.8462 0.0000
vn -0.1064 -0.9943 -0.0000
vn -0.5328 -0.8462 -0.0000
vn 0.9879 -0.1550 -0.0000
vn 0.8843 -0.4669 -0.0000
vn -0.8843 -0.4669 -0.0000
vn -0.9879 -0.1550 -0.0000
vn 0.8843 0.4669 0.0000
vn 0.9879 0.1550 0.0000
vn 0.5328 -0.8462 -0.0000
vn 0.1064 -0.9943 -0.0000
vn -0.9879 0.1550 0.0000
vn -0.8843 0.4669 0.0000
vn 0.8944 0.1376 -0.4257
vn 0.8935 0.1426 -0.4258
vn 0.8935 -0.1426 -0.4258
vn 0.8944 -0.1376 -0.4257
vn 0.7785 -0.4346 -0.4528
vn 0.7904 -0.4155 -0.4502
vn 0.4595 -0.7388 -0.4930
vn 0.4694 -0.7328 -0.4926
vn 0.1046 -0.8721 -0.4781
vn 0.1028 -0.8723 -0.4780
vn -0.1046 -0.8721 -0.4781
vn -0.1028 -0.8723 -0.4780
vn -0.4595 -0.7388 -0.4930
vn -0.4694 -0.7328 -0.4926
vn -0.7785 -0.4346 -0.4528
vn -0.7904 -0.4155 -0.4502
vn -0.8935 -0.1426 -0.4258
vn -0.8944 -0.1376 -0.4257
vn -0.8935 0.1426 -0.4258
vn -0.8944 0.1376 -0.4257
vn -0.7785 0.4346 -0.4528
vn -0.7904 0.4155 -0.4502
vn -0.4595 0.7388 -0.4930
vn -0.4694 0.7328 -0.4926
vn -0.1028 0.8723 -0.4780
vn -0.1046 0.8721 -0.4781
vn 0.1046 0.8721 -0.4781
vn 0.1028 0.8723 -0.4780
vn 0.4595 0.7388 -0.4930
vn 0.4694 0.7328 -0.4926
vn 0.7785 0.4346 -0.4528
vn 0.7904 0.4155 -0.4502
vn -0.6939 -0.7201 -0.0000
vn 0.6939 -0.7201 -0.0000
vn 0.8937 0.4487 0.0000
vn -0.2785 0.9604 0.0000
vn 0.2785 0.9604 0.0000
vn 0.6369 0.7710 0.0000
vn -0.6369 0.7710 0.0000
vn -0.8937 0.4487 0.0000
usemtl Default_OBJ.000
s off
f 146/1/1 145/2/1 148/3/1 147/4/1 150/5/1 149/6/1
f 151/7/2 154/8/2 153/9/2 156/10/2 155/11/2 152/12/2
f 147/13/3 148/14/3 155/15/3 156/16/3
f 145/2/4 146/1/4 151/7/4 152/12/4
f 148/17/5 145/18/5 152/19/5 155/20/5
f 150/21/6 147/13/6 156/16/6 153/22/6
f 149/23/7 150/24/7 153/25/7 154/26/7 151/27/7 146/28/7
f 158/29/8 161/30/8 162/31/8 159/32/8 160/33/8 157/34/8
f 163/35/9 164/36/9 167/37/9 168/38/9 165/39/9 166/40/9
f 159/41/10 168/42/10 167/43/10 160/44/10
f 157/34/11 164/36/11 163/35/11 158/29/11
f 160/45/12 167/46/12 164/47/12 157/48/12
f 162/49/13 165/50/13 168/42/13 159/41/13
f 161/51/14 158/52/14 163/53/14 166/54/14 165/55/14 162/56/14
s 1
f 3/57/15 4/58/15 1/59/15 2/60/15
f 60/61/16 56/62/16 8/63/17 6/64/17
f 40/65/18 34/66/18 33/67/18 27/68/18 26/69/18 20/70/18 19/71/18 13/72/18 12/73/18 10/74/18 9/75/18 55/76/18 54/77/18 48/78/18 47/79/18 41/80/18
f 7/81/19 11/82/19 15/83/20 17/84/20
f 39/85/21 35/86/21 43/87/22 45/88/22
f 25/89/23 21/90/23 29/91/24 31/92/24
f 46/93/25 42/94/25 50/95/26 52/96/26
f 18/97/27 14/98/27 22/99/28 24/100/28
f 32/101/29 28/102/29 36/103/30 38/104/30
f 53/105/31 49/106/31 57/107/32 59/108/32
f 5/109/33 6/110/33 7/111/33
f 8/112/34 9/75/35 10/74/36 11/113/37
f 12/73/38 13/72/39 14/114/40 15/115/41
f 16/116/42 17/117/42 18/118/42
f 19/71/43 20/70/44 21/119/45 22/120/46
f 23/121/47 24/122/47 25/123/47
f 26/69/48 27/68/49 28/124/50 29/125/51
f 30/126/52 31/127/52 32/128/52
f 33/67/53 34/66/54 35/129/55 36/130/56
f 37/131/57 38/132/57 39/133/57
f 40/65/58 41/80/59 42/134/60 43/135/61
f 44/136/62 45/137/62 46/138/62
f 47/79/63 48/78/64 49/139/65 50/140/66
f 51/141/67 52/142/67 53/143/67
f 54/77/68 55/76/69 56/144/70 57/145/71
f 58/146/72 59/147/72 60/148/72
f 7/111/73 17/117/73 16/116/73 5/109/73
f 6/64/17 8/63/17 11/82/19 7/81/19
f 10/74/36 12/73/38 15/115/41 11/113/37
f 14/98/27 18/97/27 17/84/20 15/83/20
f 18/118/74 24/122/74 23/121/74 16/116/74
f 13/72/39 19/71/43 22/120/46 14/114/40
f 21/90/23 25/89/23 24/100/28 22/99/28
f 25/123/75 31/127/75 30/126/75 23/121/75
f 20/70/44 26/69/48 29/125/51 21/119/45
f 28/102/29 32/101/29 31/92/24 29/91/24
f 32/128/76 38/132/76 37/131/76 30/126/76
f 27/68/49 33/67/53 36/130/56 28/124/50
f 35/86/21 39/85/21 38/104/30 36/103/30
f 39/133/77 45/137/77 44/136/77 37/131/77
f 34/66/54 40/65/58 43/135/61 35/129/55
f 42/94/25 46/93/25 45/88/22 43/87/22
f 46/138/78 52/142/78 51/141/78 44/136/78
f 41/80/59 47/79/63 50/140/66 42/134/60
f 49/106/31 53/105/31 52/96/26 50/95/26
f 53/143/79 59/147/79 58/146/79 51/141/79
f 48/78/64 54/77/68 57/145/71 49/139/65
f 56/62/16 60/61/16 59/108/32 57/107/32
f 5/109/80 58/146/80 60/148/80 6/110/80
f 8/112/34 56/144/70 55/76/69 9/75/35
f 5/109/81 16/116/81 23/121/81 30/126/81 37/131/81 44/136/81 51/141/81 58/146/81
f 92/149/82 89/150/82 63/151/83 61/152/83
f 62/153/84 64/154/84 66/155/85 67/156/85
f 80/157/86 77/158/86 82/159/87 83/160/87
f 72/161/88 69/162/88 74/163/89 75/164/89
f 84/165/90 81/166/90 86/167/91 87/168/91
f 68/169/92 65/170/92 70/171/93 71/172/93
f 76/173/94 73/174/94 78/175/95 79/176/95
f 88/177/96 85/178/96 90/179/97 91/180/97
f 61/152/83 63/151/83 64/154/84 62/153/84
f 65/170/92 68/169/92 67/156/85 66/155/85
f 69/162/88 72/161/88 71/172/93 70/171/93
f 73/174/94 76/173/94 75/164/89 74/163/89
f 77/158/86 80/157/86 79/176/95 78/175/95
f 81/166/90 84/165/90 83/160/87 82/159/87
f 85/178/96 88/177/96 87/168/91 86/167/91
f 89/150/82 92/149/82 91/180/97 90/179/97
f 64/154/18 63/151/18 89/150/18 90/179/18 85/178/18 86/167/18 81/166/18 82/159/18 77/158/18 78/175/18 73/174/18 74/163/18 69/162/18 70/171/18 65/170/18 66/155/18
f 61/152/81 62/153/81 67/156/81 68/169/81 71/172/81 72/161/81 75/164/81 76/173/81 79/176/81 80/157/81 83/160/81 84/165/81 87/168/81 88/177/81 91/180/81 92/149/81
f 93/181/81 94/182/81 95/183/81 96/184/81 97/185/81 98/186/81 99/187/81 100/188/81 101/189/81 102/190/81 103/191/81 104/192/81 105/193/81 106/194/81 107/195/81 108/196/81
f 109/197/18 124/198/18 123/199/18 122/200/18 121/201/18 120/202/18 119/203/18 118/204/18 117/205/18 116/206/18 115/207/18 114/208/18 113/209/18 112/210/18 111/211/18 110/212/18
f 97/185/98 113/213/99 114/214/100 98/186/101
f 98/186/101 114/214/100 115/215/102 99/187/103
f 99/187/103 115/215/102 116/216/104 100/188/105
f 100/188/105 116/216/104 117/217/106 101/189/107
f 101/189/107 117/217/106 118/218/108 102/190/109
f 102/190/109 118/218/108 119/219/110 103/191/111
f 103/191/111 119/219/110 120/220/112 104/192/113
f 104/192/113 120/220/112 121/221/114 105/193/115
f 105/193/115 121/221/114 122/222/116 106/194/117
f 106/194/117 122/222/116 123/223/118 107/195/119
f 107/195/119 123/223/118 124/224/120 108/196/121
f 93/181/122 109/225/123 110/226/124 94/182/125
f 108/196/121 124/224/120 109/225/123 93/181/122
f 94/182/125 110/226/124 111/227/126 95/183/127
f 95/183/127 111/227/126 112/228/128 96/184/129
f 96/184/129 112/228/128 113/213/99 97/185/98
f 132/229/130 125/230/95 127/231/95 131/232/130
f 126/233/86 130/234/131 129/235/131 128/236/86
f 125/230/95 126/233/86 128/236/86 127/231/95
f 131/232/18 127/231/18 136/237/18 141/238/18 142/239/18
f 129/240/131 130/241/131 138/242/132 139/243/132
f 133/244/133 136/245/133 135/246/134 134/247/134
f 127/231/18 128/236/18 135/248/18 136/237/18
f 128/236/18 129/235/18 139/249/18 140/250/18 135/248/18
f 134/247/134 135/246/134 140/251/135 137/252/135
f 126/233/81 125/230/81 133/253/81 134/254/81
f 125/230/81 132/229/81 143/255/81 144/256/81 133/253/81
f 144/257/136 141/258/136 136/245/133 133/244/133
f 132/259/130 131/260/130 142/261/137 143/262/137
f 137/252/135 140/251/135 139/243/132 138/242/132
f 141/258/136 144/257/136 143/262/137 142/261/137
f 130/234/81 126/233/81 134/254/81 137/263/81 138/264/81
