# Blender v2.82 (sub 7) OBJ File: 'HalfHalf.blend'
# www.blender.org
mtllib HalfHalf2.mtl
o TAC_Slope1_0.5_v2
v -0.450000 -0.470856 -0.279144
v -0.450000 -0.470856 -0.388785
v 0.450000 -0.470856 -0.279144
v 0.450000 -0.470856 -0.388785
v -0.450000 -0.281215 -0.468785
v -0.450000 -0.390856 -0.468785
v 0.450000 -0.281215 -0.468785
v 0.450000 -0.390856 -0.468785
v 0.475000 -0.267678 -0.482322
v 0.475000 -0.225000 -0.500000
v 0.500000 -0.239645 -0.475000
v 0.500000 -0.475000 -0.239645
v 0.475000 -0.500000 -0.225000
v 0.475000 -0.482322 -0.267678
v -0.475000 -0.225000 -0.500000
v -0.475000 -0.267678 -0.482322
v -0.500000 -0.239645 -0.475000
v 0.500000 0.394098 -0.475000
v 0.475000 0.475000 -0.500000
v 0.475000 0.477639 -0.488820
v 0.500000 -0.475000 -0.040451
v 0.475000 -0.477639 -0.011180
v 0.475000 -0.500000 -0.025000
v -0.475000 -0.482322 -0.267678
v -0.475000 -0.500000 -0.225000
v -0.500000 -0.475000 -0.239645
v -0.500000 0.394098 -0.475000
v -0.475000 0.477639 -0.488820
v -0.475000 0.475000 -0.500000
v -0.500000 -0.475000 -0.040451
v -0.475000 -0.500000 -0.025000
v -0.475000 -0.477639 -0.011180
vt 0.445209 0.611720
vt 0.445353 0.611720
vt 0.445209 0.612904
vt 0.445353 0.612904
vt 0.444906 0.612260
vt 0.445156 0.612509
vt 0.444906 0.612404
vt 0.445011 0.612509
vt 0.445208 0.612904
vt 0.445064 0.612904
vt 0.445208 0.611720
vt 0.445064 0.611720
vt 0.445213 0.612904
vt 0.445064 0.612904
vt 0.445213 0.611720
vt 0.445064 0.611720
vt 0.445222 0.612260
vt 0.445222 0.612404
vt 0.444972 0.612509
vt 0.445117 0.612509
vt 0.625776 0.567283
vt 0.625727 0.567318
vt 0.625728 0.567268
vt 0.625696 0.567229
vt 0.625742 0.567209
vt 0.625728 0.567268
vt 0.625729 0.567318
vt 0.625680 0.567283
vt 0.625728 0.567268
vt 0.625843 0.567250
vt 0.625731 0.567283
vt 0.625728 0.567268
vt 0.625684 0.567293
vt 0.625702 0.567246
vt 0.625728 0.567268
vt 0.625696 0.567307
vt 0.625682 0.567248
vt 0.625728 0.567268
vt 0.625617 0.567235
vt 0.625731 0.567253
vt 0.625728 0.567268
vt 0.625103 0.567261
vt 0.626353 0.567261
vt 0.625103 0.567276
vt 0.626353 0.567276
vt 0.625742 0.567245
vt 0.626575 0.567245
vt 0.625761 0.567291
vt 0.626682 0.567291
vt 0.625746 0.567316
vt 0.625702 0.567290
vt 0.625728 0.567268
vt 0.625103 0.567251
vt 0.626353 0.567251
vt 0.625103 0.567285
vt 0.626353 0.567285
vt 0.626015 0.567442
vt 0.625901 0.567419
vt 0.624868 0.566631
vt 0.624857 0.566681
vt 0.625705 0.567136
vt 0.625751 0.567157
vt 0.625705 0.567400
vt 0.625751 0.567419
vt 0.625806 0.567338
vt 0.625757 0.567350
vt 0.625553 0.566981
vt 0.625527 0.567024
vt 0.626353 0.567298
vt 0.625103 0.567298
vt 0.626353 0.567238
vt 0.625103 0.567238
vt 0.625705 0.567419
vt 0.625705 0.567157
vt 0.625751 0.567400
vt 0.625751 0.567136
vt 0.626599 0.566681
vt 0.625555 0.567419
vt 0.626588 0.566631
vt 0.625441 0.567442
vt 0.624774 0.567291
vt 0.624881 0.567245
vt 0.625714 0.567245
vt 0.625758 0.567893
vt 0.625698 0.567893
vt 0.625758 0.566643
vt 0.625698 0.566643
vt 0.625929 0.567024
vt 0.625699 0.567350
vt 0.625903 0.566981
vt 0.625650 0.567338
vt 0.627011 0.567893
vt 0.626090 0.567893
vt 0.627011 0.566643
vt 0.626090 0.566643
vt 0.626246 0.567564
vt 0.625413 0.567564
vt 0.625103 0.566992
vt 0.625103 0.567254
vt 0.625761 0.566643
vt 0.626024 0.566643
vt 0.625761 0.567893
vt 0.626024 0.567893
vt 0.627166 0.567893
vt 0.625761 0.567893
vt 0.627166 0.566643
vt 0.625761 0.566643
vt 0.626320 0.567090
vt 0.626353 0.567068
vt 0.626320 0.567443
vt 0.626353 0.567468
vt 0.625103 0.567468
vt 0.625136 0.567090
vt 0.625103 0.567068
vt 0.625136 0.567443
vt 0.626353 0.567254
vt 0.626043 0.567564
vt 0.626353 0.566992
vt 0.625210 0.567564
vn 0.0000 -1.0000 0.0000
vn -1.0000 0.0000 0.0000
vn 0.0000 0.0000 -1.0000
vn 0.0000 -0.7071 -0.7071
vn 1.0000 0.0000 0.0000
vn 0.5733 -0.3136 -0.7570
vn 0.5733 -0.7570 -0.3136
vn -0.5733 -0.3136 -0.7570
vn 0.9589 0.2762 -0.0652
vn 0.7246 -0.3623 0.5862
vn -0.5733 -0.7570 -0.3136
vn -0.9589 0.2762 -0.0652
vn 0.0000 0.9733 -0.2297
vn -0.7071 0.0000 -0.7071
vn -0.7246 -0.3623 0.5862
vn 0.0000 -0.5257 0.8506
vn -0.7071 0.3162 0.6325
vn -0.7071 0.3162 0.6324
vn -0.7071 -0.7071 0.0000
vn -0.7071 -0.5000 -0.5000
vn 0.0000 -0.9239 -0.3827
vn 0.7071 -0.7071 0.0000
vn 0.7071 0.3162 0.6324
vn 0.7071 0.3162 0.6325
vn 0.7071 0.0000 -0.7071
vn 0.0000 -0.3827 -0.9239
vn 0.7071 -0.5000 -0.5000
vn 0.0000 0.4472 0.8944
usemtl Steel_-_Satin
s 1
f 1/1/1 2/2/1 3/3/1
f 3/3/1 2/2/1 4/4/1
f 1/5/2 5/6/2 2/7/2
f 2/7/2 5/6/2 6/8/2
f 7/9/3 8/10/3 5/11/3
f 5/11/3 8/10/3 6/12/3
f 8/13/4 4/14/4 6/15/4
f 6/15/4 4/14/4 2/16/4
f 3/17/5 4/18/5 7/19/5
f 7/19/5 4/18/5 8/20/5
f 9/21/6 10/22/6 11/23/6
f 12/24/7 13/25/7 14/26/7
f 15/27/8 16/28/8 17/29/8
f 18/30/9 19/31/9 20/32/9
f 21/33/10 22/34/10 23/35/10
f 24/36/11 25/37/11 26/38/11
f 27/39/12 28/40/12 29/41/12
f 28/42/13 20/43/13 29/44/13
f 29/44/13 20/43/13 19/45/13
f 17/46/14 27/47/14 15/48/14
f 15/48/14 27/47/14 29/49/14
f 30/50/15 31/51/15 32/52/15
f 22/53/16 32/54/16 23/55/16
f 23/55/16 32/54/16 31/56/16
f 28/57/17 27/58/17 32/59/18
f 32/59/18 27/58/17 30/60/18
f 31/61/19 30/62/19 25/63/19
f 25/63/19 30/62/19 26/64/19
f 17/65/20 16/66/20 26/67/20
f 26/67/20 16/66/20 24/68/20
f 24/69/21 14/70/21 25/71/21
f 25/71/21 14/70/21 13/72/21
f 12/73/22 21/74/22 13/75/22
f 13/75/22 21/74/22 23/76/22
f 21/77/23 18/78/24 22/79/23
f 22/79/23 18/78/24 20/80/24
f 19/81/25 18/82/25 10/22/25
f 10/22/25 18/82/25 11/83/25
f 10/84/26 9/85/26 15/86/26
f 15/86/26 9/85/26 16/87/26
f 14/88/27 9/89/27 12/90/27
f 12/90/27 9/89/27 11/91/27
f 19/92/3 10/93/3 29/94/3
f 29/94/3 10/93/3 15/95/3
f 27/96/2 17/97/2 30/98/2
f 30/98/2 17/97/2 26/99/2
f 31/100/1 25/101/1 23/102/1
f 23/102/1 25/101/1 13/103/1
f 22/104/28 20/105/28 32/106/28
f 32/106/28 20/105/28 28/107/28
f 1/108/4 24/109/4 5/110/4
f 5/110/4 24/109/4 16/111/4
f 5/110/4 16/111/4 9/112/4
f 1/108/4 3/113/4 24/109/4
f 24/109/4 3/113/4 14/114/4
f 14/114/4 3/113/4 7/115/4
f 14/114/4 7/115/4 9/112/4
f 9/112/4 7/115/4 5/110/4
f 12/116/5 11/117/5 21/118/5
f 21/118/5 11/117/5 18/119/5
