# Blender v2.79 (sub 0) OBJ File: ''
# www.blender.org
mtllib Anchor_Housing.mtl
o Cube_Cube.003
v 3.006237 -2.499999 -1.003743
v 2.003742 -2.500001 3.006237
v 3.006237 -2.500001 2.003742
v -1.003742 -2.499999 -2.006238
v -2.006237 -2.499999 -1.003743
v -1.003742 -2.500001 3.006237
v -2.006237 -2.500001 2.003742
v 2.003742 -2.499999 -2.006238
v 2.003742 -0.900000 3.006237
v 1.000000 -0.900000 3.000000
v 0.000000 -0.900000 3.000000
v -1.003742 -0.900000 3.006237
v 1.000000 0.500000 3.000000
v 0.000000 0.500000 3.000000
v -1.000000 0.500000 3.000000
v -2.000000 0.500000 3.000000
v 1.000000 1.500000 3.000000
v 0.000000 1.500000 3.000000
v -1.000000 1.500000 3.000000
v -2.000000 1.500000 3.000000
v 3.000000 0.500000 3.000000
v 2.000000 0.500000 3.000000
v 3.000000 1.500000 3.000000
v 2.000000 1.500000 3.000000
v -2.006237 -0.900000 2.003742
v -2.000000 -0.900000 1.000000
v -2.000000 -0.900000 -0.000000
v -2.006237 -0.900000 -1.003742
v -2.000000 0.500000 1.000000
v -2.000000 0.500000 0.000000
v -2.000000 0.500000 -1.000000
v -2.000001 0.500000 -2.000000
v -2.000000 2.500000 1.000000
v -2.000000 1.500000 1.000000
v -2.000001 2.500000 0.000000
v -2.000000 1.500000 0.000000
v -2.000001 2.500000 -1.000000
v -2.000001 1.500000 -1.000000
v -2.000001 1.500000 -2.000000
v -2.000001 2.500000 -2.000000
v -2.000000 0.500000 3.000000
v -2.000000 0.500000 2.000000
v -2.000000 2.500000 3.000000
v -2.000000 1.500000 3.000000
v -2.000000 1.500000 2.000000
v -2.000000 2.500000 2.000000
v 3.000000 -0.900000 -0.000000
v 3.000000 -0.900000 1.000000
v 3.006237 -0.900000 2.003742
v 3.000000 0.500000 0.000000
v 3.000000 0.500000 1.000000
v 3.000000 0.500000 2.000000
v 3.000000 0.500000 3.000000
v 3.000000 2.500000 0.000000
v 3.000000 1.500000 0.000000
v 3.000000 2.500000 1.000000
v 3.000000 1.500000 1.000000
v 3.000000 2.500000 2.000000
v 3.000000 1.500000 2.000000
v 3.000000 1.500000 3.000000
v 3.000000 2.500000 3.000000
v 3.006237 -0.900000 -1.003742
v 3.000000 0.500000 -2.000000
v 3.000000 0.500000 -1.000000
v 3.000000 2.500000 -2.000000
v 3.000000 1.500000 -2.000000
v 3.000000 1.500000 -1.000000
v 3.000000 2.500000 -1.000000
v -1.003742 -0.900000 -2.006237
v 0.000000 -0.900000 -2.000000
v 1.000000 -0.900000 -2.000000
v 2.003742 -0.900000 -2.006237
v 0.000000 0.500000 -2.000000
v 1.000000 0.500000 -2.000000
v 2.000000 0.500000 -2.000000
v 3.000000 0.500000 -2.000000
v 0.000000 1.500000 -2.000000
v 1.000000 1.500000 -2.000000
v 2.000000 1.500000 -2.000000
v 3.000000 1.500000 -2.000000
v -2.000000 0.500000 -2.000000
v -1.000000 0.500000 -2.000000
v -2.000000 1.500000 -2.000000
v -1.000000 1.500000 -2.000000
v -2.000000 2.500000 1.000000
v -2.000000 2.500000 0.000000
v -2.000000 2.500000 -1.000000
v -2.000000 2.500000 -2.000000
v -1.000000 2.500000 1.000000
v -1.000000 2.500000 0.000000
v -1.000000 2.500000 -1.000000
v -1.000000 2.500000 -2.000000
v 0.000000 2.500000 1.000000
v 0.000000 2.500000 0.000000
v 0.000000 2.500000 -1.000000
v 0.000000 2.500000 -2.000000
v 1.000000 2.500000 1.000000
v 1.000000 2.500000 0.000000
v 1.000000 2.500000 -1.000000
v 1.000000 2.500000 -2.000000
v 3.000000 2.500000 1.000000
v 2.000000 2.500000 1.000000
v 3.000000 2.500000 0.000000
v 2.000000 2.500000 0.000000
v 3.000000 2.500000 -1.000000
v 2.000000 2.500000 -1.000000
v 2.000000 2.500000 -2.000000
v 3.000000 2.500000 -2.000000
v 0.000000 2.500000 3.000000
v 0.000000 2.500000 2.000000
v 1.000000 2.500000 3.000000
v 1.000000 2.500000 2.000000
v 3.000000 2.500000 3.000000
v 2.000000 2.500000 3.000000
v 2.000000 2.500000 2.000000
v 3.000000 2.500000 2.000000
v 2.000000 -1.500000 1.000000
v 2.000000 -1.500000 -0.000000
v 1.500000 -1.000000 0.500000
v 0.000000 -1.500000 2.000000
v 1.000000 -1.500000 2.000000
v 1.757460 -1.500000 1.757460
v 0.500000 -1.000000 1.500000
v 1.500000 -1.000000 1.500000
v 1.000000 -0.500000 1.000000
v -1.000000 -1.500000 -0.000000
v -1.000000 -1.500000 1.000000
v -0.757460 -1.500000 1.757460
v -0.500000 -1.000000 0.500000
v -0.500000 -1.000000 1.500000
v 0.000000 -0.500000 1.000000
v 1.757460 -1.500000 -0.757460
v 1.000000 -1.500000 -1.000000
v 1.500000 -1.000000 -0.500000
v 0.000000 -1.500000 -1.000000
v -0.757460 -1.500000 -0.757460
v 0.500000 -1.000000 -0.500000
v -0.500000 -1.000000 -0.500000
v 0.500000 -0.000000 0.500000
v 1.000000 -0.500000 -0.000000
v 0.000000 -0.500000 -0.000000
v -1.000000 2.500000 3.000000
v -2.000000 2.500000 3.000000
v -2.000000 2.500000 2.000000
v -1.000000 2.500000 2.000000
v -2.000000 -2.499999 -2.000000
v 3.000000 -2.499999 -2.000000
v 3.000000 -0.900000 -2.000000
v -2.000000 -0.900000 3.000000
v -2.000000 -2.500001 3.000000
v -2.000000 -0.900000 -2.000000
v 3.000000 -2.500001 3.000000
v 3.000000 -0.900000 3.000000
v 2.003742 -1.502272 -2.006237
v 3.006237 -1.502272 -1.003743
v 3.006237 -1.502273 2.003742
v 2.003742 -1.502274 3.006237
v -2.006237 -1.502273 2.003742
v -1.003742 -1.502274 3.006237
v -2.006237 -1.502272 -1.003743
v -1.003742 -1.502272 -2.006237
v 3.000000 -1.502272 -2.000000
v 3.000000 -1.502273 3.000000
v -2.000000 -1.502273 3.000000
v -2.000000 -1.502272 -2.000000
v 3.006237 -0.900000 -0.702994
v 3.006237 -2.500000 -0.702994
v -2.006237 -2.500001 1.702993
v -0.757460 -1.111552 1.505968
v 1.757460 -1.111552 -0.505968
v 3.006237 -2.500001 1.702993
v 1.757460 -1.111552 1.505968
v -2.006237 -2.500000 -0.702994
v -0.757460 -1.111552 -0.505968
v 3.006237 -0.900000 1.702994
v -2.006237 -0.900000 -0.702994
v -2.006237 -0.900000 1.702994
v -0.702994 -2.500001 3.006237
v -0.505968 -1.111552 1.757460
v 1.505968 -1.111552 1.757460
v 1.702994 -2.500001 3.006237
v 1.702994 -2.499999 -2.006238
v 1.505968 -1.111552 -0.757460
v -0.702994 -2.499999 -2.006238
v -0.505968 -1.111552 -0.757460
v 1.702994 -0.900000 -2.006237
v -0.702994 -0.900000 -2.006237
v -0.702994 -0.900000 3.006237
v 1.702994 -0.900000 3.006237
vt 0.267539 0.647821
vt 0.267539 0.647821
vt 0.287595 0.640750
vt 0.287595 0.640750
vt 0.117079 0.726039
vt 0.115116 0.722872
vt 0.115116 0.722872
vt 0.117079 0.726039
vt 0.149525 0.711650
vt 0.152022 0.714041
vt 0.145094 0.714640
vt 0.115116 0.722872
vt 0.129005 0.716117
vt 0.129005 0.716117
vt 0.115116 0.722872
vt 0.149706 0.709436
vt 0.149706 0.709436
vt 0.145094 0.714640
vt 0.938646 0.726978
vt 0.952415 0.714775
vt 0.952415 0.714775
vt 0.966155 0.705621
vt 0.179805 0.694314
vt 0.193751 0.687675
vt 0.186777 0.690992
vt 0.119087 0.729375
vt 0.179805 0.694314
vt 0.181324 0.692879
vt 0.181324 0.692879
vt 0.179805 0.694314
vt 0.885540 0.744699
vt 0.936555 0.664542
vt 0.878615 0.748452
vt 0.836266 0.758474
vt 0.834427 0.752178
vt 0.858676 0.747451
vt 0.128906 0.523437
vt 0.128906 0.523437
vt 0.128906 0.523437
vt 0.128906 0.523437
vt 0.149525 0.711650
vt 0.153970 0.708712
vt 0.153970 0.708712
vt 0.145094 0.714640
vt 0.153970 0.708712
vt 0.149525 0.711650
vt 0.287595 0.640750
vt 0.247395 0.654577
vt 0.267539 0.647821
vt 0.146157 0.705097
vt 0.135889 0.707727
vt 0.177681 0.687982
vt 0.175444 0.691411
vt 0.157331 0.709253
vt 0.137641 0.718867
vt 0.143194 0.711885
vt 0.200854 0.684887
vt 0.195094 0.687786
vt 0.193751 0.687675
vt 0.169691 0.699317
vt 0.160893 0.704191
vt 0.158413 0.704054
vt 0.168964 0.698601
vt 0.145094 0.714640
vt 0.130585 0.754354
vt 0.127760 0.784424
vt 0.119087 0.729375
vt 0.247395 0.654577
vt 0.217043 0.673765
vt 0.236350 0.668240
vt 0.202167 0.682232
vt 0.128768 0.724035
vt 0.136167 0.714251
vt 0.316961 0.628221
vt 0.396737 0.567707
vt 0.189949 0.688425
vt 0.209183 0.680648
vt 0.236028 0.655890
vt 0.294558 0.616059
vt 0.140782 0.726113
vt 0.146515 0.718771
vt 0.135173 0.737301
vt 0.150384 0.728844
vt 0.152031 0.719885
vt 0.153775 0.744843
vt 0.171305 0.772986
vt 0.227304 0.826958
vt 0.163332 0.727084
vt 0.159632 0.718355
vt 0.178157 0.744800
vt 0.223305 0.779239
vt 0.308272 0.833839
vt 0.151999 0.714117
vt 0.155394 0.714203
vt 0.159418 0.713988
vt 0.114696 0.715773
vt 0.090469 0.748063
vt 0.168398 0.689352
vt 0.099879 0.721229
vt 0.075255 0.760233
vt 0.158014 0.692005
vt 0.225552 0.658893
vt 0.278932 0.622731
vt 0.292858 0.616979
vt 0.080864 0.727606
vt 0.056440 0.773033
vt 0.141506 0.696038
vt 0.209168 0.663483
vt 0.259309 0.630344
vt 0.126525 0.800837
vt 0.114460 0.819281
vt 0.098357 0.839271
vt 0.171812 0.699627
vt 0.181454 0.694402
vt 0.163884 0.704506
vt 0.173871 0.699817
vt 0.181966 0.694992
vt 0.166543 0.704777
vt 0.160356 0.709594
vt 0.155459 0.714120
vt 0.177333 0.699572
vt 0.184472 0.694667
vt 0.170114 0.705137
vt 0.163857 0.710393
vt 0.159424 0.713919
vt 0.190614 0.690387
vt 0.189565 0.691402
vt 0.256919 0.659496
vt 0.221805 0.675468
vt 0.253128 0.659815
vt 0.307575 0.629555
vt 0.220692 0.675709
vt 0.201555 0.684954
vt 0.190770 0.690310
vt 0.192843 0.689043
vt 0.239450 0.665132
vt 0.281998 0.638656
vt 0.213700 0.679185
vt 0.198295 0.687090
vt 0.189671 0.691351
vt 0.385272 0.568789
vt 0.350829 0.584716
vt 0.278605 0.732548
vt 0.413635 0.767825
vt 0.375421 0.816287
vt 0.262871 0.766159
vt 0.269151 0.684859
vt 0.408336 0.690256
vt 0.264615 0.654781
vt 0.356904 0.609083
vt 0.210385 0.713336
vt 0.198879 0.734069
vt 0.216562 0.691630
vt 0.225275 0.675491
vt 0.185601 0.708123
vt 0.175638 0.719605
vt 0.194444 0.696118
vt 0.203909 0.686134
vt 0.175327 0.706118
vt 0.167476 0.713342
vt 0.183425 0.698474
vt 0.191498 0.691827
vt 0.170178 0.705148
vt 0.163911 0.710424
vt 0.177401 0.699564
vt 0.184541 0.694645
vt 0.818499 0.700148
vt 0.809674 0.705531
vt 0.812074 0.702822
vt 0.822538 0.697105
vt 0.828261 0.694700
vt 0.833797 0.691053
vt 0.816476 0.699541
vt 0.827542 0.693779
vt 0.838542 0.688991
vt 0.821447 0.696427
vt 0.794830 0.710354
vt 0.786479 0.712227
vt 0.802207 0.704748
vt 0.806599 0.704296
vt 0.802701 0.707983
vt 0.814133 0.699547
vt 0.833521 0.687517
vt 0.861206 0.669953
vt 0.841388 0.684628
vt 0.820393 0.695385
vt 0.806091 0.701192
vt 0.828431 0.692321
vt 0.844957 0.684549
vt 0.838258 0.687700
vt 0.853050 0.678381
vt 0.186777 0.690992
vt 0.193751 0.687675
vt 0.186777 0.690992
vt 0.179805 0.694314
vt 0.145094 0.714640
vt 0.119087 0.729375
vt 0.117079 0.726039
vt 0.247395 0.654577
vt 0.176908 0.619275
vt 0.287595 0.640750
vt 0.217043 0.673765
vt 0.924805 0.734545
vt 0.914788 0.737450
vt 0.916102 0.736537
vt 0.128906 0.523437
vt 0.128906 0.523437
vt 0.128906 0.523437
vt 0.128906 0.523437
vt 0.217043 0.673765
vt 0.247395 0.654577
vt 0.247395 0.654577
vt 0.115116 0.722872
vt 0.153970 0.708712
vt 0.228047 0.601197
vt 0.149706 0.709436
vt 0.179805 0.694314
vt 0.128906 0.523437
vt 0.128906 0.523437
vt 0.128906 0.523437
vt 0.128906 0.523437
vt 0.128906 0.523437
vt 0.128906 0.523437
vt 0.128906 0.523437
vt 0.128906 0.523437
vt 0.936555 0.664542
vt 0.128906 0.523437
vt 0.128906 0.523437
vt 0.128906 0.523437
vt 0.128906 0.523437
vt 0.287595 0.640750
vt 0.193751 0.687675
vt 0.193751 0.687675
vt 0.181324 0.692879
vt 0.129005 0.716117
vt 0.119087 0.729375
vt 0.119087 0.729375
vt 0.836266 0.758474
vt 0.924805 0.734545
vt 0.128906 0.523437
vt 0.128906 0.523437
vt 0.128906 0.523437
vt 0.128906 0.523437
vt 0.128906 0.523437
vt 0.128906 0.523437
vt 0.128906 0.523437
vt 0.128906 0.523437
vt 0.128906 0.523437
vt 0.128906 0.523437
vt 0.128906 0.523437
vt 0.128906 0.523437
vt 0.878615 0.748452
vt 0.966155 0.705621
vt 0.834427 0.752178
vt 0.914788 0.737450
vt 0.176908 0.619275
vn -0.0063 0.0000 -1.0000
vn -1.0000 0.0000 0.0063
vn 0.0063 -0.0000 1.0000
vn 0.3453 0.7676 0.5399
vn 0.5399 0.7676 -0.3453
vn 0.6251 -0.7806 -0.0000
vn 0.4859 -0.7265 0.4859
vn 0.0000 -1.0000 0.0000
vn -0.3453 0.7676 -0.5399
vn -0.4859 -0.7265 -0.4859
vn 0.4859 -0.7265 -0.4859
vn -1.0000 -0.0000 0.0000
vn 1.0000 0.0000 0.0063
vn -0.5145 -0.8575 -0.0000
vn 1.0000 0.0045 0.0000
vn 0.0623 -0.8834 0.4646
vn 0.0000 0.0045 -1.0000
vn 0.5145 -0.8575 -0.0000
vn 0.4646 -0.8834 0.0623
vn -0.7592 -0.4915 -0.4267
vn 0.0000 0.0045 1.0000
vn -0.4646 -0.8834 -0.0623
vn -0.4646 -0.8834 0.0623
vn -0.0623 -0.8834 -0.4646
vn 0.0000 -0.8575 0.5145
vn -0.0623 -0.8834 0.4646
vn 0.0000 -0.8575 -0.5145
vn 0.4646 -0.8834 -0.0623
vn -1.0000 0.0045 0.0000
vn 0.0623 -0.8834 -0.4646
vn -0.0031 0.0022 1.0000
vn 0.0000 -0.0000 1.0000
vn 0.0031 0.0022 1.0000
vn -1.0000 0.0022 -0.0031
vn -1.0000 0.0022 0.0031
vn 1.0000 0.0022 0.0031
vn 1.0000 0.0000 0.0000
vn 1.0000 0.0022 -0.0031
vn 0.0031 0.0022 -1.0000
vn 0.0000 0.0000 -1.0000
vn -0.0031 0.0022 -1.0000
vn 0.0000 1.0000 0.0000
vn -0.7994 -0.5435 -0.2560
vn -0.7071 -0.7071 -0.0000
vn -0.7994 -0.5435 0.2560
vn 0.2560 -0.5435 -0.7994
vn 0.0000 -0.7071 -0.7071
vn -0.2560 -0.5435 -0.7994
vn 0.7994 -0.5435 0.2560
vn 0.7071 -0.7071 0.0000
vn 0.7994 -0.5435 -0.2560
vn -0.2560 -0.5435 0.7994
vn 0.0000 -0.7071 0.7071
vn 0.2560 -0.5435 0.7994
vn 0.0063 0.0000 -1.0000
vn 1.0000 0.0000 -0.0063
vn -0.0063 -0.0000 1.0000
vn -1.0000 0.0000 -0.0063
vn 0.7592 -0.4915 0.4267
vn -0.4859 -0.7265 0.4859
vn -0.1558 -0.0000 0.9878
vn -0.1558 0.0000 -0.9878
vn 0.1558 0.0000 -0.9878
vn 0.1558 -0.0000 0.9878
vn 0.4267 -0.4915 -0.7592
vn -0.4267 -0.4915 0.7592
vn -0.3453 0.7676 0.5399
vn -0.6251 -0.7806 0.0000
vn 0.3453 0.7676 -0.5399
vn 0.9878 0.0000 -0.1558
vn -0.9878 0.0000 -0.1558
vn -0.9878 -0.0000 0.1558
vn 0.9878 -0.0000 0.1558
vn 0.5399 0.7676 0.3453
vn 0.0000 -0.7806 -0.6251
vn 0.0000 -0.7806 0.6251
vn -0.5399 0.7676 0.3453
vn -0.5399 0.7676 -0.3453
vn 0.4267 -0.4915 0.7592
vn -0.4267 -0.4915 -0.7592
vn 0.7592 -0.4915 -0.4267
vn -0.7592 -0.4915 0.4267
usemtl None.009
s off
f 165/1/1 151/2/1 69/3/1 161/4/1
f 164/5/2 158/6/2 7/7/2 150/8/2
f 153/9/3 53/10/3 9/11/3
f 25/12/4 128/13/4 169/14/4 177/15/4
f 9/11/5 122/16/5 180/17/5 189/18/5
f 136/19/6 173/20/6 5/21/6
f 5/21/7 4/22/7 136/19/7
f 1/23/8 8/24/8 147/25/8
f 7/7/8 6/26/8 150/8/8
f 62/27/9 132/28/9 170/29/9 166/30/9
f 122/31/10 3/32/10 2/33/10
f 6/34/11 7/35/11 128/36/11
f 7/37/12 25/38/12 177/39/12 168/40/12
f 163/41/13 156/42/13 49/43/13 153/9/13
f 2/44/8 3/45/8 152/46/8
f 4/47/8 5/48/8 146/49/8
f 127/50/14 26/51/14 27/52/14 126/53/14
f 52/54/15 53/10/15 49/43/15
f 9/11/16 10/55/16 121/56/16 122/16/16
f 75/57/17 63/58/17 72/59/17
f 47/60/18 48/61/18 117/62/18 118/63/18
f 122/16/19 117/62/19 48/61/19 49/43/19
f 122/16/20 181/64/20 180/17/20
f 15/65/21 16/66/21 12/67/21
f 27/52/22 28/68/22 136/69/22 126/53/22
f 25/12/23 26/51/23 127/50/23 128/13/23
f 69/3/24 70/70/24 135/71/24 136/69/24
f 10/55/25 11/72/25 120/73/25 121/56/25
f 128/13/26 120/73/26 11/72/26 12/67/26
f 82/74/17 69/3/17 81/75/17
f 133/76/27 135/71/27 70/70/27 71/77/27
f 62/27/28 47/60/28 118/63/28 132/28/28
f 49/43/13 53/10/13 153/9/13
f 31/78/29 81/79/29 28/68/29
f 71/77/30 72/59/30 132/28/30 133/76/30
f 13/80/31 10/55/31 9/11/31 22/81/31
f 14/82/32 11/72/32 10/55/32 13/80/32
f 15/65/33 12/67/33 11/72/33 14/82/33
f 17/83/32 13/80/32 22/81/32 24/84/32
f 18/85/32 14/82/32 13/80/32 17/83/32
f 19/86/32 15/65/32 14/82/32 18/85/32
f 20/87/32 16/66/32 15/65/32 19/86/32
f 111/88/32 17/83/32 24/84/32 114/89/32
f 109/90/32 18/85/32 17/83/32 111/88/32
f 142/91/32 19/86/32 18/85/32 109/90/32
f 143/92/32 20/87/32 19/86/32 142/91/32
f 24/84/32 22/81/32 21/93/32 23/94/32
f 114/89/32 24/84/32 23/94/32 113/95/32
f 29/96/34 26/51/34 25/12/34 42/97/34
f 30/98/12 27/52/12 26/51/12 29/96/12
f 31/78/35 28/68/35 27/52/35 30/98/35
f 34/99/12 29/96/12 42/97/12 45/100/12
f 36/101/12 30/98/12 29/96/12 34/99/12
f 38/102/12 31/78/12 30/98/12 36/101/12
f 39/103/12 32/104/12 31/78/12 38/102/12
f 33/105/12 34/99/12 45/100/12 46/106/12
f 35/107/12 36/101/12 34/99/12 33/105/12
f 37/108/12 38/102/12 36/101/12 35/107/12
f 40/109/12 39/103/12 38/102/12 37/108/12
f 45/100/12 42/97/12 41/110/12 44/111/12
f 46/106/12 45/100/12 44/111/12 43/112/12
f 50/113/36 47/60/36 62/27/36 64/114/36
f 51/115/37 48/61/37 47/60/37 50/113/37
f 52/54/38 49/43/38 48/61/38 51/115/38
f 55/116/37 50/113/37 64/114/37 67/117/37
f 57/118/37 51/115/37 50/113/37 55/116/37
f 59/119/37 52/54/37 51/115/37 57/118/37
f 60/120/37 53/10/37 52/54/37 59/119/37
f 54/121/37 55/116/37 67/117/37 68/122/37
f 56/123/37 57/118/37 55/116/37 54/121/37
f 58/124/37 59/119/37 57/118/37 56/123/37
f 61/125/37 60/120/37 59/119/37 58/124/37
f 63/58/15 64/114/15 62/27/15
f 67/117/37 64/114/37 63/58/37 66/126/37
f 68/122/37 67/117/37 66/126/37 65/127/37
f 73/128/39 70/70/39 69/3/39 82/74/39
f 74/129/40 71/77/40 70/70/40 73/128/40
f 75/57/41 72/59/41 71/77/41 74/129/41
f 77/130/40 73/128/40 82/74/40 84/131/40
f 78/132/40 74/129/40 73/128/40 77/130/40
f 79/133/40 75/57/40 74/129/40 78/132/40
f 80/134/40 76/135/40 75/57/40 79/133/40
f 96/136/40 77/130/40 84/131/40 92/137/40
f 100/138/40 78/132/40 77/130/40 96/136/40
f 107/139/40 79/133/40 78/132/40 100/138/40
f 108/140/40 80/134/40 79/133/40 107/139/40
f 84/131/40 82/74/40 81/75/40 83/141/40
f 92/137/40 84/131/40 83/141/40 88/142/40
f 89/143/42 85/144/42 144/145/42 145/146/42
f 90/147/42 86/148/42 85/144/42 89/143/42
f 91/149/42 87/150/42 86/148/42 90/147/42
f 92/137/42 88/142/42 87/150/42 91/149/42
f 93/151/42 89/143/42 145/146/42 110/152/42
f 94/153/42 90/147/42 89/143/42 93/151/42
f 95/154/42 91/149/42 90/147/42 94/153/42
f 96/136/42 92/137/42 91/149/42 95/154/42
f 97/155/42 93/151/42 110/152/42 112/156/42
f 98/157/42 94/153/42 93/151/42 97/155/42
f 99/158/42 95/154/42 94/153/42 98/157/42
f 100/138/42 96/136/42 95/154/42 99/158/42
f 102/159/42 97/155/42 112/156/42 115/160/42
f 104/161/42 98/157/42 97/155/42 102/159/42
f 106/162/42 99/158/42 98/157/42 104/161/42
f 107/139/42 100/138/42 99/158/42 106/162/42
f 101/163/42 102/159/42 115/160/42 116/164/42
f 103/165/42 104/161/42 102/159/42 101/163/42
f 105/166/42 106/162/42 104/161/42 103/165/42
f 108/140/42 107/139/42 106/162/42 105/166/42
f 110/152/42 145/146/42 142/91/42 109/90/42
f 112/156/42 110/152/42 109/90/42 111/88/42
f 115/160/42 112/156/42 111/88/42 114/89/42
f 116/164/42 115/160/42 114/89/42 113/95/42
f 117/167/43 122/168/43 124/169/43
f 119/170/44 117/167/44 124/169/44
f 118/171/44 117/167/44 119/170/44
f 134/172/44 118/171/44 119/170/44
f 119/170/44 124/169/44 125/173/44
f 140/174/44 119/170/44 125/173/44
f 132/175/45 118/171/45 134/172/45
f 134/172/44 119/170/44 140/174/44
f 140/174/44 125/173/44 139/176/44
f 120/177/46 128/178/46 130/179/46
f 123/180/47 120/177/47 130/179/47
f 121/181/47 120/177/47 123/180/47
f 124/169/47 121/181/47 123/180/47
f 123/180/47 130/179/47 131/182/47
f 125/173/47 123/180/47 131/182/47
f 122/168/48 121/181/48 124/169/48
f 124/169/47 123/180/47 125/173/47
f 125/173/47 131/182/47 139/176/47
f 126/183/49 136/184/49 138/185/49
f 129/186/50 126/183/50 138/185/50
f 127/187/50 126/183/50 129/186/50
f 130/179/50 127/187/50 129/186/50
f 129/186/50 138/185/50 141/188/50
f 131/182/50 129/186/50 141/188/50
f 128/178/51 127/187/51 130/179/51
f 130/179/50 129/186/50 131/182/50
f 131/182/50 141/188/50 139/176/50
f 133/189/52 132/175/52 134/172/52
f 137/190/53 133/189/53 134/172/53
f 135/191/53 133/189/53 137/190/53
f 138/185/53 135/191/53 137/190/53
f 137/190/53 134/172/53 140/174/53
f 141/188/53 137/190/53 140/174/53
f 136/184/54 135/191/54 138/185/54
f 138/185/53 137/190/53 141/188/53
f 141/188/53 140/174/53 139/176/53
f 145/146/42 144/145/42 143/92/42 142/91/42
f 162/192/55 154/193/55 72/59/55 148/194/55
f 155/195/56 162/192/56 148/194/56 62/27/56
f 1/23/56 147/25/56 162/192/56 155/195/56
f 147/25/55 8/24/55 154/193/55 162/192/55
f 157/196/3 163/41/3 153/9/3 9/11/3
f 2/44/3 152/46/3 163/41/3 157/196/3
f 152/46/13 3/45/13 156/42/13 163/41/13
f 159/197/57 164/5/57 150/8/57 6/26/57
f 12/67/57 149/198/57 164/5/57 159/197/57
f 149/198/2 25/12/2 158/6/2 164/5/2
f 146/49/1 165/1/1 161/4/1 4/47/1
f 5/48/58 160/199/58 165/1/58 146/49/58
f 160/199/58 28/68/58 151/2/58 165/1/58
f 28/68/58 81/79/58 151/2/58
f 69/3/1 151/2/1 81/79/1
f 62/27/56 148/194/56 76/200/56
f 136/69/59 184/201/59 185/202/59
f 8/203/60 1/204/60 132/205/60
f 72/206/40 8/207/40 182/208/40 186/209/40
f 174/210/61 176/211/61 173/212/61
f 168/213/62 177/15/62 169/14/62
f 175/214/63 171/215/63 172/216/63
f 167/217/64 166/30/64 170/29/64
f 128/13/65 168/213/65 169/14/65
f 132/28/66 167/217/66 170/29/66
f 49/218/37 3/219/37 171/220/37 175/221/37
f 1/222/37 62/223/37 166/224/37 167/225/37
f 122/16/67 49/43/67 175/214/67 172/216/67
f 122/31/68 171/226/68 3/32/68
f 136/69/69 28/68/69 176/211/69 174/210/69
f 28/227/12 5/228/12 173/229/12 176/230/12
f 184/201/70 187/231/70 185/202/70
f 186/232/71 182/233/71 183/234/71
f 181/64/72 189/18/72 180/17/72
f 179/235/73 188/236/73 178/237/73
f 132/28/74 72/59/74 186/232/74 183/234/74
f 128/36/75 178/238/75 6/34/75
f 132/205/76 182/239/76 8/203/76
f 69/3/77 136/69/77 185/202/77 187/231/77
f 2/240/32 9/241/32 189/242/32 181/243/32
f 4/244/40 69/245/40 187/246/40 184/247/40
f 128/13/78 12/67/78 188/236/78 179/235/78
f 12/248/32 6/249/32 178/250/32 188/251/32
f 136/69/79 174/210/79 173/212/79
f 122/31/75 2/33/75 181/252/75
f 136/19/76 4/22/76 184/253/76
f 128/36/6 7/35/6 168/254/6
f 132/205/68 1/204/68 167/255/68
f 122/16/80 172/216/80 171/215/80
f 128/13/81 179/235/81 178/237/81
f 132/28/82 183/234/82 182/233/82
usemtl None.007_NONE.001
f 22/81/21 9/11/21 53/10/21
f 42/97/29 25/12/29 16/66/29
f 41/256/57 149/198/57 12/67/57
f 149/198/2 41/256/2 25/12/2
f 76/200/55 148/194/55 72/59/55
