# Blender v2.79 (sub 0) OBJ File: ''
# www.blender.org
mtllib FSI_Term_Ant_1.mtl
o Cylinder.003
v 0.000000 0.500000 -0.250000
v 0.000000 1.500000 -0.250000
v 0.048773 1.500000 -0.245196
v 0.048773 0.500000 -0.245196
v 0.095671 1.500000 -0.230970
v 0.095671 0.500000 -0.230970
v 0.138893 1.500000 -0.207867
v 0.138893 0.500000 -0.207867
v 0.176777 1.500000 -0.176777
v 0.176777 0.500000 -0.176777
v 0.207867 1.500000 -0.138893
v 0.207867 0.500000 -0.138893
v 0.230970 1.500000 -0.095671
v 0.230970 0.500000 -0.095671
v 0.245196 1.500000 -0.048773
v 0.245196 0.500000 -0.048773
v 0.250000 1.500000 0.000000
v 0.250000 0.500000 0.000000
v 0.245196 1.500000 0.048773
v 0.245196 0.500000 0.048773
v 0.230970 1.500000 0.095671
v 0.230970 0.500000 0.095671
v 0.207867 1.500000 0.138893
v 0.207867 0.500000 0.138893
v 0.176777 1.500000 0.176777
v 0.176777 0.500000 0.176777
v 0.138893 1.500000 0.207867
v 0.138893 0.500000 0.207867
v 0.095671 1.500000 0.230970
v 0.095671 0.500000 0.230970
v 0.048773 1.500000 0.245196
v 0.048773 0.500000 0.245196
v 0.000000 1.500000 0.250000
v 0.000000 0.500000 0.250000
v -0.048773 1.500000 0.245196
v -0.048773 0.500000 0.245196
v -0.095671 1.500000 0.230970
v -0.095671 0.500000 0.230970
v -0.138893 1.500000 0.207867
v -0.138893 0.500000 0.207867
v -0.176777 1.500000 0.176777
v -0.176777 0.500000 0.176777
v -0.207868 1.500000 0.138892
v -0.207868 0.500000 0.138892
v -0.230970 1.500000 0.095671
v -0.230970 0.500000 0.095671
v -0.245196 1.500000 0.048772
v -0.245196 0.500000 0.048772
v -0.250000 1.500000 0.000000
v -0.250000 0.500000 0.000000
v -0.245196 1.500000 -0.048773
v -0.245196 0.500000 -0.048773
v -0.230970 1.500000 -0.095671
v -0.230970 0.500000 -0.095671
v -0.207867 1.500000 -0.138893
v -0.207867 0.500000 -0.138893
v -0.176776 1.500000 -0.176777
v -0.176776 0.500000 -0.176777
v -0.138892 1.500000 -0.207868
v -0.138892 0.500000 -0.207868
v -0.095671 1.500000 -0.230970
v -0.095671 0.500000 -0.230970
v -0.048772 1.500000 -0.245196
v -0.048772 0.500000 -0.245196
vt 0.786247 0.247185
vt 0.791877 0.247185
vt 0.791877 0.252815
vt 0.786247 0.252815
vt 0.786247 0.247185
vt 0.791877 0.247185
vt 0.791877 0.252815
vt 0.786247 0.252815
vt 0.786247 0.247185
vt 0.791877 0.247185
vt 0.791877 0.252815
vt 0.786247 0.252815
vt 0.786247 0.247185
vt 0.791877 0.247185
vt 0.791877 0.252815
vt 0.786247 0.252815
vt 0.786247 0.247185
vt 0.791877 0.247185
vt 0.791877 0.252815
vt 0.786247 0.252815
vt 0.786247 0.247185
vt 0.791877 0.247185
vt 0.791877 0.252815
vt 0.786247 0.252815
vt 0.786247 0.247185
vt 0.791877 0.247185
vt 0.791877 0.252815
vt 0.786247 0.252815
vt 0.786247 0.247185
vt 0.791877 0.247185
vt 0.791877 0.252815
vt 0.786247 0.252815
vt 0.786247 0.247185
vt 0.791877 0.247185
vt 0.791877 0.252815
vt 0.786247 0.252815
vt 0.786247 0.247185
vt 0.791877 0.247185
vt 0.791877 0.252815
vt 0.786247 0.252815
vt 0.786247 0.247185
vt 0.791877 0.247185
vt 0.791877 0.252815
vt 0.786247 0.252815
vt 0.786247 0.247185
vt 0.791877 0.247185
vt 0.791877 0.252815
vt 0.786247 0.252815
vt 0.786247 0.247185
vt 0.791877 0.247185
vt 0.791877 0.252815
vt 0.786247 0.252815
vt 0.786247 0.247185
vt 0.791877 0.247185
vt 0.791877 0.252815
vt 0.786247 0.252815
vt 0.786247 0.247185
vt 0.791877 0.247185
vt 0.791877 0.252815
vt 0.786247 0.252815
vt 0.786247 0.247185
vt 0.791877 0.247185
vt 0.791877 0.252815
vt 0.786247 0.252815
vt 0.786247 0.247185
vt 0.791877 0.247185
vt 0.791877 0.252815
vt 0.786247 0.252815
vt 0.786247 0.247185
vt 0.791877 0.247185
vt 0.791877 0.252815
vt 0.786247 0.252815
vt 0.786247 0.247185
vt 0.791877 0.247185
vt 0.791877 0.252815
vt 0.786247 0.252815
vt 0.786247 0.247185
vt 0.791877 0.247185
vt 0.791877 0.252815
vt 0.786247 0.252815
vt 0.786247 0.247185
vt 0.791877 0.247185
vt 0.791877 0.252815
vt 0.786247 0.252815
vt 0.786247 0.247185
vt 0.791877 0.247185
vt 0.791877 0.252815
vt 0.786247 0.252815
vt 0.786247 0.247185
vt 0.791877 0.247185
vt 0.791877 0.252815
vt 0.786247 0.252815
vt 0.786247 0.247185
vt 0.791877 0.247185
vt 0.791877 0.252815
vt 0.786247 0.252815
vt 0.786247 0.247185
vt 0.791877 0.247185
vt 0.791877 0.252815
vt 0.786247 0.252815
vt 0.786247 0.247185
vt 0.791877 0.247185
vt 0.791877 0.252815
vt 0.786247 0.252815
vt 0.786247 0.247185
vt 0.791877 0.247185
vt 0.791877 0.252815
vt 0.786247 0.252815
vt 0.786247 0.247185
vt 0.791877 0.247185
vt 0.791877 0.252815
vt 0.786247 0.252815
vt 0.786247 0.247185
vt 0.791877 0.247185
vt 0.791877 0.252815
vt 0.786247 0.252815
vt 0.786247 0.247185
vt 0.791877 0.247185
vt 0.791877 0.252815
vt 0.786247 0.252815
vt 0.789062 0.252815
vt 0.789611 0.252761
vt 0.790139 0.252601
vt 0.790626 0.252341
vt 0.791053 0.251991
vt 0.791403 0.251564
vt 0.791663 0.251077
vt 0.791823 0.250549
vt 0.791877 0.250000
vt 0.791823 0.249451
vt 0.791663 0.248923
vt 0.791403 0.248436
vt 0.791053 0.248009
vt 0.790626 0.247659
vt 0.790139 0.247399
vt 0.789611 0.247239
vt 0.789062 0.247185
vt 0.788513 0.247239
vt 0.787985 0.247399
vt 0.787498 0.247659
vt 0.787071 0.248009
vt 0.786721 0.248436
vt 0.786461 0.248923
vt 0.786301 0.249451
vt 0.786247 0.250000
vt 0.786301 0.250549
vt 0.786461 0.251077
vt 0.786721 0.251564
vt 0.787071 0.251991
vt 0.787498 0.252341
vt 0.787985 0.252601
vt 0.788513 0.252761
vt 0.786247 0.247185
vt 0.791877 0.247185
vt 0.791877 0.252815
vt 0.786247 0.252815
vt 0.786247 0.247185
vt 0.791877 0.247185
vt 0.791877 0.252815
vt 0.786247 0.252815
vt 0.789062 0.252815
vt 0.789611 0.252761
vt 0.790139 0.252601
vt 0.790626 0.252341
vt 0.791053 0.251991
vt 0.791403 0.251564
vt 0.791663 0.251077
vt 0.791823 0.250549
vt 0.791877 0.250000
vt 0.791823 0.249451
vt 0.791663 0.248923
vt 0.791403 0.248436
vt 0.791053 0.248009
vt 0.790626 0.247659
vt 0.790139 0.247399
vt 0.789611 0.247239
vt 0.789062 0.247185
vt 0.788513 0.247239
vt 0.787985 0.247399
vt 0.787498 0.247659
vt 0.787071 0.248009
vt 0.786721 0.248436
vt 0.786461 0.248923
vt 0.786301 0.249451
vt 0.786247 0.250000
vt 0.786301 0.250549
vt 0.786461 0.251077
vt 0.786721 0.251564
vt 0.787071 0.251991
vt 0.787498 0.252341
vt 0.787985 0.252601
vt 0.788513 0.252761
vn 0.0980 0.0000 -0.9952
vn 0.2903 0.0000 -0.9569
vn 0.4714 0.0000 -0.8819
vn 0.6344 0.0000 -0.7730
vn 0.7730 0.0000 -0.6344
vn 0.8819 0.0000 -0.4714
vn 0.9569 0.0000 -0.2903
vn 0.9952 0.0000 -0.0980
vn 0.9952 -0.0000 0.0980
vn 0.9569 -0.0000 0.2903
vn 0.8819 -0.0000 0.4714
vn 0.7730 -0.0000 0.6344
vn 0.6344 -0.0000 0.7730
vn 0.4714 -0.0000 0.8819
vn 0.2903 -0.0000 0.9569
vn 0.0980 -0.0000 0.9952
vn -0.0980 -0.0000 0.9952
vn -0.2903 -0.0000 0.9569
vn -0.4714 -0.0000 0.8819
vn -0.6344 -0.0000 0.7730
vn -0.7730 -0.0000 0.6344
vn -0.8819 -0.0000 0.4714
vn -0.9569 -0.0000 0.2903
vn -0.9952 -0.0000 0.0980
vn -0.9952 0.0000 -0.0980
vn -0.9569 0.0000 -0.2903
vn -0.8819 0.0000 -0.4714
vn -0.7730 0.0000 -0.6344
vn -0.6344 0.0000 -0.7730
vn -0.4714 0.0000 -0.8819
vn 0.0000 1.0000 -0.0000
vn -0.2903 0.0000 -0.9569
vn -0.0980 0.0000 -0.9952
vn 0.0000 -1.0000 -0.0000
usemtl None.009
s 1
f 1/1/1 2/2/1 3/3/1 4/4/1
f 4/5/2 3/6/2 5/7/2 6/8/2
f 6/9/3 5/10/3 7/11/3 8/12/3
f 8/13/4 7/14/4 9/15/4 10/16/4
f 10/17/5 9/18/5 11/19/5 12/20/5
f 12/21/6 11/22/6 13/23/6 14/24/6
f 14/25/7 13/26/7 15/27/7 16/28/7
f 16/29/8 15/30/8 17/31/8 18/32/8
f 18/33/9 17/34/9 19/35/9 20/36/9
f 20/37/10 19/38/10 21/39/10 22/40/10
f 22/41/11 21/42/11 23/43/11 24/44/11
f 24/45/12 23/46/12 25/47/12 26/48/12
f 26/49/13 25/50/13 27/51/13 28/52/13
f 28/53/14 27/54/14 29/55/14 30/56/14
f 30/57/15 29/58/15 31/59/15 32/60/15
f 32/61/16 31/62/16 33/63/16 34/64/16
f 34/65/17 33/66/17 35/67/17 36/68/17
f 36/69/18 35/70/18 37/71/18 38/72/18
f 38/73/19 37/74/19 39/75/19 40/76/19
f 40/77/20 39/78/20 41/79/20 42/80/20
f 42/81/21 41/82/21 43/83/21 44/84/21
f 44/85/22 43/86/22 45/87/22 46/88/22
f 46/89/23 45/90/23 47/91/23 48/92/23
f 48/93/24 47/94/24 49/95/24 50/96/24
f 50/97/25 49/98/25 51/99/25 52/100/25
f 52/101/26 51/102/26 53/103/26 54/104/26
f 54/105/27 53/106/27 55/107/27 56/108/27
f 56/109/28 55/110/28 57/111/28 58/112/28
f 58/113/29 57/114/29 59/115/29 60/116/29
f 60/117/30 59/118/30 61/119/30 62/120/30
f 3/121/31 2/122/31 63/123/31 61/124/31 59/125/31 57/126/31 55/127/31 53/128/31 51/129/31 49/130/31 47/131/31 45/132/31 43/133/31 41/134/31 39/135/31 37/136/31 35/137/31 33/138/31 31/139/31 29/140/31 27/141/31 25/142/31 23/143/31 21/144/31 19/145/31 17/146/31 15/147/31 13/148/31 11/149/31 9/150/31 7/151/31 5/152/31
f 62/153/32 61/154/32 63/155/32 64/156/32
f 64/157/33 63/158/33 2/159/33 1/160/33
f 1/161/34 4/162/34 6/163/34 8/164/34 10/165/34 12/166/34 14/167/34 16/168/34 18/169/34 20/170/34 22/171/34 24/172/34 26/173/34 28/174/34 30/175/34 32/176/34 34/177/34 36/178/34 38/179/34 40/180/34 42/181/34 44/182/34 46/183/34 48/184/34 50/185/34 52/186/34 54/187/34 56/188/34 58/189/34 60/190/34 62/191/34 64/192/34
