# Blender v2.79 (sub 0) OBJ File: ''
# www.blender.org
mtllib BF_Giga_Halo_A.mtl
o Cube_Cube.006
v -0.500000 -2.500000 2.500000
v -0.500000 2.500000 2.500000
v -0.500000 2.500000 0.833334
v -0.500000 2.500000 -0.833333
v -0.500000 2.500000 -2.500000
v -0.500000 -2.500000 -2.500000
v -0.344651 1.168507 -1.833333
v -0.189301 -0.162987 -1.166667
v 0.295196 -1.494481 -0.500000
v -0.033952 -2.494481 -0.500000
v 1.267242 -6.314594 -0.603535
v 0.938094 -6.941975 -0.752988
v -0.033952 -2.494481 0.500000
v 0.295196 -1.494481 0.500000
v -0.189301 -0.162988 1.166667
v -0.344651 1.168506 1.833333
v -0.344651 1.168506 0.611111
v 1.267242 -6.314594 0.603528
v 2.038094 -6.314594 0.608082
v 2.038094 -6.314594 -0.608089
v 0.295196 -1.494481 -0.166667
v 0.295196 -1.494481 0.166666
v 0.938094 -6.760753 -0.166670
v 0.938094 -6.760753 0.166663
v 0.938094 -6.941975 0.752982
v 2.038094 -6.941975 -0.752988
v 2.038094 -6.941975 0.752982
v 2.038094 -6.760753 0.166663
v 2.038094 -6.760753 -0.166670
v 1.671427 -6.941975 -0.752988
v 1.304760 -6.941975 -0.752988
v 2.038094 -7.320555 -0.376245
v 2.038094 -7.396559 -1.412181
v 1.304760 -6.941975 0.752982
v 1.671427 -6.941975 0.752982
v 0.938094 -7.320555 0.376237
v 0.938094 -7.396559 1.412175
v 1.671427 -6.760753 0.166663
v 1.671427 -6.760753 -0.166670
v 1.304760 -6.760753 0.166663
v 1.304760 -7.320555 0.376237
v 2.038094 -7.320555 0.376237
v 1.671427 -7.320555 0.376237
v 1.304760 -6.760753 -0.166670
v 0.938094 -7.396559 -1.412181
v 0.938094 -7.320555 -0.376245
v 1.304760 -7.396559 1.412175
v 1.671427 -7.396559 1.412175
v 1.671427 -7.320555 -0.376245
v 1.671427 -7.396559 -1.412181
v 2.038094 -7.396559 1.412175
v 1.304760 -7.396559 -1.412181
v 1.304760 -7.320555 -0.376245
v -0.189301 -0.162987 0.388889
v -0.189301 -0.162987 -0.388889
v -0.344651 1.168506 -0.611111
v 2.038094 -6.464153 1.760818
v 2.038094 -6.741710 3.302311
v 1.671427 -6.741710 3.302311
v 1.671427 -6.464153 1.760818
v 1.304760 -6.464153 1.760818
v 2.038094 -6.464152 -1.760824
v 1.671427 -6.464152 -1.760824
v 1.304760 -6.741710 3.302311
v 2.038094 -6.741710 -3.302317
v 1.671427 -6.741710 -3.302317
v 1.304760 -6.464152 -1.760824
v 1.304760 -6.741710 -3.302317
v 0.938094 -6.464153 1.760818
v 0.938094 -6.741710 3.302311
v 0.938094 -6.464152 -1.760824
v 0.938094 -6.741710 -3.302317
v 2.038094 -6.353856 2.569196
v 2.038094 -5.730694 4.818377
v 1.671427 -5.730694 4.818377
v 1.671427 -6.353856 2.569196
v 1.304760 -6.353856 2.569196
v 2.038094 -6.353858 -2.569203
v 1.671427 -6.353858 -2.569203
v 1.304760 -5.730694 4.818377
v 2.038094 -5.730693 -4.818383
v 1.671427 -5.730693 -4.818383
v 1.304760 -6.353858 -2.569203
v 1.304760 -5.730693 -4.818383
v 0.938094 -6.353856 2.569196
v 0.938094 -5.730694 4.818377
v 0.938094 -6.353858 -2.569203
v 0.938094 -5.730693 -4.818383
vt 0.231103 0.971260
vt 0.433731 0.977461
vt 0.429597 0.864534
vt 0.425463 0.751607
vt 0.421330 0.638681
vt 0.218701 0.632480
vt 0.457646 0.510723
vt 0.482254 0.960173
vt 0.422711 0.845111
vt 0.363168 0.730049
vt 0.303625 0.614987
vt 0.303625 0.515254
vt 0.412554 0.683341
vt 0.478128 0.613281
vt 0.397361 0.842114
vt 0.368861 0.872564
vt 0.203237 0.515254
vt 0.203237 0.614987
vt 0.160099 0.732510
vt 0.116961 0.850033
vt 0.073824 0.967556
vt 0.049216 0.518106
vt 0.385467 1.006367
vt 0.338681 0.806367
vt 0.338681 0.706367
vt 0.385467 0.506367
vt 0.209035 0.818863
vt 0.200124 0.935566
vt 0.063981 0.938027
vt 0.107118 0.820504
vt 0.533336 0.798522
vt 0.563091 0.774303
vt 0.577076 0.806557
vt 0.550110 0.831834
vt 0.270162 0.614987
vt 0.236699 0.614987
vt 0.203237 0.524147
vt 0.303625 0.524147
vt 0.261129 0.569848
vt 0.361517 0.569848
vt 0.361517 0.756027
vt 0.328054 0.756027
vt 0.294592 0.756027
vt 0.261129 0.756027
vt 0.428600 0.660156
vt 0.461839 0.750038
vt 0.428600 0.941358
vt 0.414153 0.902294
vt 0.546915 0.819551
vt 0.558698 0.808940
vt 0.579741 0.831833
vt 0.568612 0.842826
vt 0.560642 0.834914
vt 0.553511 0.827213
vt 0.547255 0.828683
vt 0.546527 0.819739
vt 0.585123 0.811783
vt 0.583129 0.830824
vt 0.569495 0.833115
vt 0.557405 0.832814
vt 0.545494 0.825595
vt 0.535661 0.807287
vt 0.563837 0.801435
vt 0.576100 0.804343
vt 0.566630 0.821192
vt 0.560327 0.832715
vt 0.556024 0.839750
vt 0.545897 0.829416
vt 0.558941 0.843035
vt 0.565997 0.838841
vt 0.569733 0.847974
vt 0.557753 0.851142
vt 0.545800 0.821986
vt 0.553240 0.817047
vt 0.560674 0.825090
vt 0.553000 0.830847
vt 0.543871 0.818326
vt 0.537548 0.808977
vt 0.543881 0.805808
vt 0.550829 0.813682
vt 0.532665 0.797530
vt 0.527347 0.773532
vt 0.527633 0.789248
vt 0.537125 0.798000
vt 0.533955 0.801870
vt 0.539360 0.801296
vt 0.546185 0.809134
vt 0.539308 0.812675
vt 0.574502 0.830572
vt 0.584548 0.818232
vt 0.605650 0.804278
vt 0.585835 0.832436
vt 0.560327 0.832715
vt 0.556024 0.839750
vt 0.567618 0.830458
vt 0.587660 0.806485
vt 0.595044 0.815949
vt 0.576684 0.839065
vt 0.549059 0.825674
vt 0.565758 0.810476
vt 0.572861 0.818939
vt 0.556588 0.834426
vt 0.536186 0.806910
vt 0.553479 0.792583
vt 0.559275 0.801862
vt 0.542215 0.816705
vt 0.552438 0.814260
vt 0.577180 0.786672
vt 0.581932 0.796967
vt 0.559735 0.822259
vt 0.574869 0.858002
vt 0.558214 0.841656
vt 0.545068 0.808056
vt 0.552084 0.815957
vt 0.545188 0.820537
vt 0.538733 0.811272
vt 0.568612 0.842826
vt 0.574869 0.858002
vt 0.559450 0.823978
vt 0.567438 0.832212
vt 0.560213 0.838068
vt 0.552330 0.829334
vt 0.569495 0.833115
vt 0.557405 0.832814
vt 0.542215 0.816705
vt 0.536186 0.806910
vt 0.547255 0.828683
vt 0.549059 0.825674
vt 0.226856 0.585458
vt 0.217945 0.702161
vt 0.150256 0.702981
vt 0.193394 0.585458
vt 0.293782 0.585458
vt 0.353324 0.700520
vt 0.285635 0.701340
vt 0.260319 0.585458
vt 0.412867 0.815582
vt 0.310951 0.817223
vt 0.472410 0.930644
vt 0.336267 0.933105
vt 0.680437 0.569963
vt 0.699552 0.688170
vt 0.551008 0.689081
vt 0.572320 0.571603
vt 0.583129 0.830824
vt 0.583129 0.830824
vt 0.569495 0.833115
vt 0.558941 0.843035
vt 0.557753 0.851142
vt 0.557753 0.851142
vt 0.558941 0.843035
vt 0.581932 0.796967
vt 0.577180 0.786672
vt 0.577180 0.786672
vt 0.581932 0.796967
vt 0.566630 0.821192
vt 0.566630 0.821192
vt 0.560327 0.832715
vt 0.587660 0.806485
vt 0.587660 0.806485
vt 0.542215 0.816705
vt 0.536186 0.806910
vt 0.535661 0.807287
vt 0.546915 0.819551
vt 0.576100 0.804343
vt 0.584548 0.818232
vt 0.605650 0.804278
vt 0.595044 0.815949
vt 0.556588 0.834426
vt 0.561744 0.820890
vt 0.554505 0.812855
vt 0.571083 0.794179
vt 0.576700 0.803722
vt 0.569070 0.812763
vt 0.576415 0.821298
vt 0.564342 0.834198
vt 0.556372 0.825891
vt 0.562455 0.804165
vt 0.549020 0.817747
vt 0.556483 0.795080
vt 0.542069 0.809625
vt 0.569596 0.829112
vt 0.583208 0.812805
vt 0.547620 0.804890
vt 0.566549 0.783418
vt 0.549059 0.825674
vt 0.584548 0.818232
vt 0.605650 0.804278
vt 0.595044 0.815949
vt 0.568612 0.842826
vt 0.574869 0.858002
vt 0.557405 0.832814
vt 0.556588 0.834426
vt 0.547255 0.828683
vt 0.535661 0.807287
vt 0.546915 0.819551
vt 0.556024 0.839750
vt 0.576100 0.804343
vn -1.0000 0.0000 0.0000
vn 0.9585 -0.0175 -0.2846
vn 0.0864 0.0564 -0.9947
vn 0.9585 -0.0175 0.2846
vn 0.0118 -0.9999 -0.0000
vn 0.9933 0.1159 0.0000
vn 0.0000 1.0000 0.0000
vn 0.9803 0.1977 0.0000
vn -0.9755 -0.2198 0.0000
vn 0.0864 0.0564 0.9947
vn 1.0000 0.0000 0.0000
vn -0.0024 0.2290 -0.9734
vn -0.0024 0.2290 0.9734
vn 0.0000 -1.0000 0.0000
vn 0.0000 -0.3506 -0.9365
vn 0.0000 0.9036 -0.4284
vn 0.0000 -0.9973 0.0732
vn 0.0000 -0.9973 -0.0732
vn 0.0000 -0.3506 0.9365
vn 0.0000 0.9036 0.4284
vn 0.0000 -0.9449 0.3274
vn 0.9397 0.3419 0.0000
vn 0.0000 0.9908 0.1352
vn 0.0000 -0.8320 -0.5548
vn 0.0000 0.9908 -0.1352
vn 0.0000 -0.8320 0.5548
vn 0.0000 -0.9449 -0.3274
vn 0.0000 0.9637 -0.2670
vn 0.0000 0.9637 0.2670
usemtl None.010
s 1
f 1/1/1 2/2/1 3/3/1 4/4/1 5/5/1 6/6/1
f 6/7/2 5/8/2 7/9/2 8/10/2 9/11/2 10/12/2
f 10/13/3 9/14/3 11/15/3 12/16/3
f 13/17/4 14/18/4 15/19/4 16/20/4 2/21/4 1/22/4
f 6/23/5 10/24/5 13/25/5 1/26/5
f 17/27/6 3/28/6 2/29/6 16/30/6
f 11/31/7 18/32/7 19/33/7 20/34/7
f 9/11/8 21/35/8 22/36/8 14/18/8 18/37/8 11/38/8
f 13/39/9 10/40/9 12/41/9 23/42/9 24/43/9 25/44/9
f 14/45/10 13/46/10 25/47/10 18/48/10
f 26/49/11 20/50/11 19/51/11 27/52/11 28/53/11 29/54/11
f 12/55/12 11/56/12 20/57/12 26/58/12 30/59/12 31/60/12
f 26/49/11 29/54/11 32/61/11 33/62/11
f 18/63/13 25/64/13 34/65/13 35/66/13 27/67/13 19/68/13
f 25/69/1 24/70/1 36/71/1 37/72/1
f 38/73/14 39/74/14 29/75/14 28/76/14
f 24/77/15 40/78/15 41/79/15 36/80/15
f 38/81/15 28/82/15 42/83/15 43/84/15
f 24/85/14 23/86/14 44/87/14 40/88/14
f 40/88/14 44/87/14 39/74/14 38/73/14
f 23/89/1 12/90/1 45/91/1 46/92/1
f 27/67/16 35/66/16 60/93/16 57/94/16
f 49/95/17 50/96/17 33/97/17 32/98/17
f 48/99/18 43/100/18 42/101/18 51/102/18
f 37/103/18 36/104/18 41/105/18 47/106/18
f 47/106/18 41/105/18 43/100/18 48/99/18
f 46/107/17 45/108/17 52/109/17 53/110/17
f 53/110/17 52/109/17 50/96/17 49/95/17
f 28/53/11 27/52/11 51/111/11 42/112/11
f 40/78/15 38/81/15 43/84/15 41/79/15
f 29/113/19 39/114/19 49/115/19 32/116/19
f 51/111/11 27/52/11 57/117/11 58/118/11
f 44/119/19 23/120/19 46/121/19 53/122/19
f 31/60/20 30/59/20 63/123/20 67/124/20
f 37/103/21 47/106/21 64/125/21 70/126/21
f 39/114/19 44/119/19 53/122/19 49/115/19
f 12/55/20 31/60/20 67/124/20 71/127/20
f 47/106/21 48/99/21 59/128/21 64/125/21
f 22/129/22 54/130/22 15/131/22 14/132/22
f 54/130/6 17/27/6 16/30/6 15/131/6
f 9/133/22 8/134/22 55/135/22 21/136/22
f 21/136/22 55/135/22 54/130/22 22/129/22
f 8/134/6 7/137/6 56/138/6 55/135/6
f 55/135/6 56/138/6 17/27/6 54/130/6
f 7/137/6 5/139/6 4/140/6 56/138/6
f 56/141/6 4/142/6 3/143/6 17/144/6
f 63/123/23 62/145/23 78/146/23 79/147/23
f 69/148/1 70/149/1 86/150/1 85/151/1
f 68/152/24 72/153/24 88/154/24 84/155/24
f 60/93/25 61/156/25 77/157/25 76/158/25
f 66/159/24 68/152/24 84/155/24 82/160/24
f 70/126/26 64/125/26 80/161/26 86/162/26
f 26/49/11 33/62/11 65/163/11 62/164/11
f 35/66/16 34/65/16 61/156/16 60/93/16
f 52/109/27 45/108/27 72/153/27 68/152/27
f 34/65/16 25/64/16 69/165/16 61/156/16
f 30/59/20 26/58/20 62/145/20 63/123/20
f 45/91/1 12/90/1 71/166/1 72/167/1
f 50/96/27 52/109/27 68/152/27 66/159/27
f 33/97/27 50/96/27 66/159/27 65/168/27
f 25/69/1 37/72/1 70/149/1 69/148/1
f 48/99/21 51/102/21 58/169/21 59/128/21
f 76/170/28 77/171/28 80/172/28 75/173/28
f 79/174/29 78/175/29 81/176/29 82/177/29
f 83/178/29 79/174/29 82/177/29 84/179/29
f 87/180/29 83/178/29 84/179/29 88/181/29
f 73/182/28 76/170/28 75/173/28 74/183/28
f 77/171/28 85/184/28 86/185/28 80/172/28
f 64/125/26 59/128/26 75/186/26 80/161/26
f 72/167/1 71/166/1 87/187/1 88/188/1
f 65/168/24 66/159/24 82/160/24 81/189/24
f 58/118/11 57/117/11 73/190/11 74/191/11
f 67/124/23 63/123/23 79/147/23 83/192/23
f 59/128/26 58/169/26 74/193/26 75/186/26
f 71/127/23 67/124/23 83/192/23 87/194/23
f 62/164/11 65/163/11 81/195/11 78/196/11
f 57/94/25 60/93/25 76/158/25 73/197/25
f 61/156/25 69/165/25 85/198/25 77/157/25
