# Blender v2.80 (sub 75) OBJ File: ''
# www.blender.org
mtllib YK_Outside_Corner_Medium.mtl
o BF_Block_111.000_BF_Block_111.052
v -0.328731 -0.498071 1.427167
v 0.421863 -0.496801 -0.322862
v 0.322749 -0.496801 -0.421976
v -0.328799 -0.496800 -0.421976
v -0.427913 -0.496800 -0.322861
v -0.427979 -0.496233 1.328053
v -0.501500 -0.325302 1.427167
v -0.500230 0.425292 -0.322862
v -0.500230 0.326178 -0.421976
v -0.500229 -0.325370 -0.421976
v -0.500229 -0.424484 -0.322861
v -0.499662 -0.424550 1.328053
v -0.424616 -0.325936 1.503550
v -0.329365 -0.421187 1.503550
v -0.328446 -0.422252 -0.498289
v 0.483083 -0.260777 -0.358470
v 0.497895 -0.323096 -0.422582
v 0.497896 -0.422253 -0.323496
v 0.493832 -0.350590 -0.282710
v 0.323102 -0.422253 -0.498290
v 0.422217 -0.323139 -0.498290
v -0.308248 -0.348456 1.474739
v -0.425681 -0.325017 -0.498289
v -0.264207 0.486513 -0.358470
v -0.326525 0.501324 -0.422582
v -0.425682 0.501325 -0.323496
v -0.354019 0.497261 -0.282709
v -0.425682 0.326531 -0.498290
v -0.326568 0.425646 -0.498290
v -0.351885 -0.304819 1.474739
v -0.198460 -0.230154 1.321668
v 0.458700 -0.230154 -0.130575
v 0.435382 -0.126649 -0.222053
v -0.464144 -0.460715 1.328053
v -0.377064 -0.373634 -0.498289
v -0.376991 -0.373562 1.503652
v -0.233583 -0.195031 1.321668
v -0.233583 0.462129 -0.130575
v -0.130079 0.438812 -0.222053
v -0.464413 -0.460984 -0.323470
v 0.047828 0.051257 -0.498289
v 0.085685 0.089114 -0.422582
v 0.109438 0.112867 -0.358470
v -0.330056 -0.326627 1.474791
v -0.216039 -0.212610 1.321668
v 0.152355 0.155784 -0.222053
vt 0.295036 0.191067
vt 0.275291 0.210812
vt 0.145493 0.210812
vt 0.125748 0.191067
vt 0.125748 0.061269
vt 0.145493 0.041524
vt 0.295036 0.191067
vt 0.145493 0.041524
vt 0.125748 0.061269
vt 0.125748 0.191067
vt 0.145493 0.210812
vt 0.275291 0.210812
vt 0.359303 0.019806
vt 0.359325 0.030030
vt 0.321628 0.011253
vt 0.321628 0.003363
vt 0.342905 0.003409
vt 0.359303 0.019806
vt 0.342905 0.003409
vt 0.321628 0.003363
vt 0.154332 0.085720
vt 0.125613 0.094487
vt 0.115289 0.139831
vt 0.160087 0.181430
vt 0.181521 0.174965
vt 0.167632 0.216476
vt 0.179865 0.215030
vt 0.181757 0.218479
vt 0.160479 0.218479
vt 0.144233 0.202232
vt 0.160479 0.218479
vt 0.144233 0.202232
vt 0.310239 0.191054
vt 0.309959 0.061256
vt 0.295036 0.061269
vt 0.295036 0.191067
vt 0.160087 0.181430
vt 0.115289 0.139831
vt 0.125613 0.094487
vt 0.167632 0.216476
vt 0.160479 0.218479
vt 0.181757 0.218479
vt 0.179865 0.215030
vt 0.144233 0.121860
vt 0.144233 0.030647
vt 0.144233 0.041083
vt 0.295036 0.191067
vt 0.144233 0.202232
vt 0.144233 0.180955
vt 0.160479 0.180940
vt 0.181757 0.202218
vt 0.354707 0.030715
vt 0.558369 0.649234
vt 0.558369 0.531655
vt 0.545036 0.519309
vt 0.544679 0.653599
vt 0.108341 0.104406
vt 0.290096 0.104132
vt 0.290096 0.085913
vt 0.108341 0.085916
vt 0.354707 0.030715
vt 0.354716 0.034863
vt 0.548691 0.515658
vt 0.558369 0.531121
vt 0.144233 0.041083
vt 0.558369 0.654058
vt 0.556562 0.654954
vt 0.310239 0.191054
vt 0.295036 0.061269
vt 0.309959 0.061256
vt 0.167632 0.216476
vt 0.578614 0.618934
vt 0.561854 0.611128
vt 0.561868 0.576320
vt 0.578614 0.576337
vt 0.558369 0.654058
vt 0.556562 0.654954
vt 0.544679 0.653599
vt 0.558369 0.649234
vt 0.545036 0.519309
vt 0.558369 0.531655
vt 0.578614 0.618934
vt 0.561854 0.611128
vt 0.181757 0.202218
vt 0.160479 0.180940
vt 0.144233 0.180955
vt 0.108341 0.104406
vt 0.290096 0.104132
vt 0.316538 0.672884
vt 0.379383 0.440686
vt 0.383130 0.440567
vt 0.379383 0.440686
vt 0.316538 0.672884
vt 0.326825 0.685892
vt 0.390835 0.683857
vt 0.326825 0.685892
vn -0.0017 -1.0000 -0.0006
vn -1.0000 -0.0017 -0.0006
vn -0.5790 -0.5793 0.5738
vn -0.5791 -0.5791 0.5738
vn -0.5793 -0.5790 0.5738
vn -0.5786 -0.5786 -0.5749
vn -0.5738 -0.5833 -0.5749
vn 0.9936 0.1017 0.0489
vn 0.5773 0.5773 -0.5774
vn -0.0000 -0.7153 -0.6988
vn -0.5833 -0.5738 -0.5749
vn 0.1017 0.9936 0.0489
vn -0.0000 0.0000 -1.0000
vn -0.5822 0.5750 -0.5749
vn -0.1404 0.9013 0.4098
vn 0.8759 -0.2723 0.3984
vn -0.7005 -0.7136 0.0002
vn -0.7071 -0.7071 0.0002
vn 0.2831 0.2810 0.9170
vn 0.2820 0.2820 0.9170
vn 0.4869 0.4868 0.7252
vn 0.4872 0.4865 0.7252
vn 0.9697 0.2335 0.0724
vn -0.7153 -0.0000 -0.6988
vn -0.5493 0.7645 0.3372
vn 0.9013 -0.1404 0.4098
vn 0.6263 0.6263 -0.4641
vn 0.6459 0.6453 -0.4078
vn 0.6456 0.6456 -0.4078
vn 0.2335 0.9697 0.0724
vn -0.2723 0.8759 0.3984
vn 0.4865 0.4872 0.7252
vn 0.6453 0.6459 -0.4078
vn 0.7645 -0.5493 0.3372
vn 0.5750 -0.5822 -0.5749
vn -0.7136 -0.7005 0.0002
vn 0.2810 0.2831 0.9170
vn 0.6676 0.6676 0.3297
usemtl Default_OBJ.056
s 1
f 1/1/1 6/2/1 5/3/1 4/4/1 3/5/1 2/6/1
f 7/7/2 8/8/2 9/9/2 10/10/2 11/11/2 12/12/2
f 14/13/3 36/14/4 34/15/4 6/16/3 1/17/3
f 13/18/5 7/19/5 12/20/5 34/15/4 36/14/4
usemtl Material.040
f 35/21/6 15/22/7 4/23/7 5/24/7 40/25/6
f 16/26/8 19/27/8 18/28/8 17/29/8
f 41/30/9 42/31/9 17/29/9 21/32/9
f 3/33/10 4/34/10 15/35/10 20/36/10
f 35/21/6 40/25/6 11/37/11 10/38/11 23/39/11
f 24/40/12 25/41/12 26/42/12 27/43/12
f 41/44/13 35/45/13 23/46/13 28/47/13 29/48/13
f 41/30/9 29/48/9 25/41/9 42/31/9
f 29/48/14 28/49/14 9/50/14 8/51/14 26/42/14 25/41/14
f 27/43/15 26/42/15 13/18/15 30/52/15
f 32/53/16 31/54/16 22/55/16 19/56/16
f 5/57/17 6/58/17 34/59/18 40/60/18
f 22/61/19 44/62/20 36/14/20 14/13/19
f 44/63/21 22/55/22 31/54/22 45/64/21
f 41/44/13 21/32/13 20/36/13 15/65/13 35/45/13
f 33/66/23 32/53/23 19/56/23 16/67/23
f 9/68/24 28/47/24 23/69/24 10/70/24
f 8/51/25 7/19/25 13/18/25 26/42/25
f 19/27/26 22/61/26 14/13/26 18/28/26
f 16/26/27 17/29/27 42/31/27 43/71/27
f 24/72/28 39/73/28 46/74/29 43/75/29
f 39/76/30 24/77/30 27/78/30 38/79/30
f 38/79/31 27/78/31 30/80/31 37/81/31
f 44/63/21 45/64/21 37/81/32 30/80/32
f 24/40/27 43/71/27 42/31/27 25/41/27
f 16/82/33 43/75/29 46/74/29 33/83/33
f 2/84/34 18/28/34 14/13/34 1/17/34
f 21/32/35 17/29/35 18/28/35 2/84/35 3/85/35 20/86/35
f 11/87/36 40/60/18 34/59/18 12/88/36
f 30/52/37 13/18/37 36/14/20 44/62/20
f 38/89/38 37/90/38 45/91/38 31/92/38 32/93/38 33/94/38 46/95/38 39/96/38
o BF_Block_111.001_BF_Block_111.024
v -0.600001 -0.000000 0.000001
v -0.500001 0.132023 -0.132022
v -0.500001 -0.132023 -0.132022
v -0.500001 0.132023 0.132024
v -0.500001 -0.132023 0.132024
vt 0.428326 0.304379
vt 0.497439 0.235266
vt 0.359213 0.235266
vt 0.497439 0.373492
vt 0.359213 0.373492
vn -0.7971 0.0000 -0.6038
vn -0.7971 0.6038 0.0000
vn -0.7971 -0.0000 0.6038
vn -0.7971 -0.6038 -0.0000
usemtl Default_OBJ.057
s 1
f 47/97/39 48/98/39 49/99/39
f 48/98/40 47/97/40 50/100/40
f 47/97/41 51/101/41 50/100/41
f 51/101/42 47/97/42 49/99/42
o BF_Block_111.002_BF_Block_111.025
v 0.000000 -0.600001 0.000001
v -0.132023 -0.500001 -0.132022
v 0.132023 -0.500001 -0.132022
v -0.132023 -0.500001 0.132024
v 0.132023 -0.500001 0.132024
vt 0.428326 0.304379
vt 0.497439 0.235266
vt 0.359213 0.235266
vt 0.497439 0.373492
vt 0.359213 0.373492
vn 0.0000 -0.7971 -0.6038
vn -0.6038 -0.7971 0.0000
vn 0.0000 -0.7971 0.6038
vn 0.6038 -0.7971 0.0000
usemtl Default_OBJ.057
s 1
f 52/102/43 53/103/43 54/104/43
f 53/103/44 52/102/44 55/105/44
f 52/102/45 56/106/45 55/105/45
f 56/106/46 52/102/46 54/104/46
