# This file uses centimeters as units for non-parametric coordinates.

g default
v 0.059654 0.059654 0.623989
v -0.000000 0.084364 0.623989
v -0.059654 0.059654 0.623989
v -0.084364 0.000000 0.623989
v -0.059654 -0.059654 0.623989
v -0.000000 -0.084364 0.623989
v 0.059654 -0.059654 0.623989
v 0.084364 0.000000 0.623989
v 0.059654 0.059654 0.050013
v -0.000000 0.084364 0.050013
v -0.059654 0.059654 0.050013
v -0.084364 0.000000 0.050013
v -0.059654 -0.059654 0.050013
v -0.000000 -0.084364 0.050013
v 0.059654 -0.059654 0.050013
v 0.084364 0.000000 0.050013
v 0.096594 0.096594 0.607358
v 0.085524 0.085524 0.623989
v -0.000000 0.136605 0.607358
v -0.000000 0.120949 0.623989
v -0.096594 0.096594 0.607358
v -0.085524 0.085524 0.623989
v -0.136605 0.000000 0.607358
v -0.120949 0.000000 0.623989
v -0.096594 -0.096594 0.607358
v -0.085524 -0.085524 0.623989
v -0.000000 -0.136605 0.607358
v -0.000000 -0.120949 0.623989
v 0.096594 -0.096594 0.607358
v 0.085524 -0.085524 0.623989
v 0.136605 0.000000 0.607358
v 0.120949 0.000000 0.623989
v 0.096594 0.096594 0.000000
v -0.000000 0.136605 0.000000
v -0.096594 0.096594 0.000000
v -0.136605 0.000000 0.000000
v -0.096594 -0.096594 0.000000
v -0.000000 -0.136605 0.000000
v 0.096594 -0.096594 0.000000
v 0.136605 0.000000 0.000000
vt 0.471395 0.959831
vt 0.481697 0.959831
vt 0.481697 0.992350
vt 0.471395 0.992350
vt 0.399281 0.959831
vt 0.409583 0.959831
vt 0.409583 0.992350
vt 0.399281 0.992350
vt 0.419885 0.959831
vt 0.419885 0.992350
vt 0.430187 0.959831
vt 0.430187 0.992350
vt 0.440489 0.959831
vt 0.440489 0.992350
vt 0.450791 0.959831
vt 0.450791 0.992350
vt 0.461093 0.959831
vt 0.461093 0.992350
vt 0.454315 0.942471
vt 0.452577 0.941751
vt 0.452577 0.930623
vt 0.454315 0.929903
vt 0.445428 0.951358
vt 0.444708 0.949620
vt 0.432860 0.951358
vt 0.433580 0.949620
vt 0.423973 0.942471
vt 0.425711 0.941751
vt 0.423973 0.929903
vt 0.425711 0.930623
vt 0.432860 0.921016
vt 0.433580 0.922755
vt 0.445428 0.921016
vt 0.444708 0.922755
vt 0.159474 0.650559
vt 0.148054 0.650559
vt 0.170894 0.650559
vt 0.182314 0.650559
vt 0.193734 0.650559
vt 0.205154 0.650559
vt 0.125215 0.650559
vt 0.113795 0.650559
vt 0.136634 0.650559
vt 0.443025 0.945557
vt 0.448513 0.940068
vt 0.435263 0.945557
vt 0.429775 0.940068
vt 0.429775 0.932306
vt 0.435263 0.926818
vt 0.443025 0.926818
vt 0.448513 0.932306
vt 0.148054 0.597553
vt 0.159474 0.597553
vt 0.170894 0.597553
vt 0.182314 0.597553
vt 0.193734 0.597553
vt 0.205154 0.597553
vt 0.113795 0.597553
vt 0.125215 0.597553
vt 0.136634 0.597553
vn -0.707106 -0.707108 0.000000
vn 0.000000 -1.000000 0.000000
vn 0.000000 -1.000000 0.000000
vn -0.707106 -0.707108 0.000000
vn 0.707106 -0.707107 0.000000
vn 0.707106 -0.707107 0.000000
vn 1.000000 0.000000 0.000000
vn 1.000000 0.000000 0.000000
vn 0.707109 0.707105 0.000000
vn 0.707109 0.707105 0.000000
vn 0.000000 1.000000 0.000000
vn 0.000000 1.000000 0.000000
vn -0.707109 0.707105 0.000000
vn -0.707109 0.707105 0.000000
vn -1.000000 0.000000 0.000000
vn -1.000000 0.000000 0.000000
vn 0.514872 0.514873 0.685429
vn 0.514872 0.514873 0.685429
vn 0.728141 -0.000001 0.685427
vn 0.728141 -0.000001 0.685427
vn -0.000000 0.728138 0.685430
vn -0.000000 0.728138 0.685430
vn -0.514872 0.514873 0.685429
vn -0.514872 0.514873 0.685429
vn -0.728141 -0.000001 0.685427
vn -0.728141 -0.000001 0.685427
vn -0.514874 -0.514875 0.685425
vn -0.514875 -0.514875 0.685425
vn -0.000000 -0.728143 0.685425
vn -0.000000 -0.728143 0.685425
vn 0.514874 -0.514876 0.685425
vn 0.514874 -0.514875 0.685425
vn 0.000000 0.000000 1.000000
vn 0.000000 0.000000 1.000000
vn 0.000000 0.000000 1.000000
vn 0.000000 0.000000 1.000000
vn 0.000000 0.000000 1.000000
vn 0.000000 0.000000 1.000000
vn 0.000000 0.000000 1.000000
vn 0.000000 0.000000 1.000000
vn 0.000000 0.000000 1.000000
vn 0.000000 0.000000 1.000000
vn 0.000000 0.000000 1.000000
vn 0.000000 0.000000 1.000000
vn 0.000000 0.000000 1.000000
vn 0.000000 0.000000 1.000000
vn 0.000000 0.000000 1.000000
vn 0.000000 0.000000 1.000000
vn 0.707107 0.707106 0.000000
vn 0.000000 1.000000 0.000000
vn 0.000000 1.000000 0.000000
vn 0.707107 0.707106 0.000000
vn -0.707108 0.707106 0.000000
vn -0.707107 0.707106 0.000000
vn -1.000000 0.000000 0.000000
vn -1.000000 0.000000 0.000000
vn -0.707108 -0.707106 0.000000
vn -0.707108 -0.707106 0.000000
vn 0.000000 -1.000000 0.000000
vn 0.000000 -1.000000 0.000000
vn 0.707107 -0.707106 0.000000
vn 0.707107 -0.707106 0.000000
vn 1.000000 0.000000 0.000000
vn 1.000000 0.000000 0.000000
s 1
g geo_barrel
f 1/1/1 2/2/2 10/3/3 9/4/4
f 2/5/2 3/6/5 11/7/6 10/8/3
f 3/6/5 4/9/7 12/10/8 11/7/6
f 4/9/7 5/11/9 13/12/10 12/10/8
f 5/11/9 6/13/11 14/14/12 13/12/10
f 6/13/11 7/15/13 15/16/14 14/14/12
f 7/15/13 8/17/15 16/18/16 15/16/14
f 8/17/15 1/1/1 9/4/4 16/18/16
s 2
f 17/19/17 18/20/18 32/21/19 31/22/20
f 18/20/18 17/19/17 19/23/21 20/24/22
f 20/24/22 19/23/21 21/25/23 22/26/24
f 22/26/24 21/25/23 23/27/25 24/28/26
f 24/28/26 23/27/25 25/29/27 26/30/28
f 26/30/28 25/29/27 27/31/29 28/32/30
f 28/32/30 27/31/29 29/33/31 30/34/32
f 30/34/32 29/33/31 31/22/20 32/21/19
s 3
f 18/20/33 20/24/34 2/44/35 1/45/36
f 20/24/34 22/26/37 3/46/38 2/44/35
f 22/26/37 24/28/39 4/47/40 3/46/38
f 24/28/39 26/30/41 5/48/42 4/47/40
f 26/30/41 28/32/43 6/49/44 5/48/42
f 28/32/43 30/34/45 7/50/46 6/49/44
f 30/34/45 32/21/47 8/51/48 7/50/46
f 32/21/47 18/20/33 1/45/36 8/51/48
s 4
f 33/52/49 34/53/50 19/35/51 17/36/52
f 34/53/50 35/54/53 21/37/54 19/35/51
f 35/54/53 36/55/55 23/38/56 21/37/54
f 36/55/55 37/56/57 25/39/58 23/38/56
f 37/56/57 38/57/59 27/40/60 25/39/58
f 38/58/59 39/59/61 29/41/62 27/42/60
f 39/59/61 40/60/63 31/43/64 29/41/62
f 40/60/63 33/52/49 17/36/52 31/43/64
