# This file uses centimeters as units for non-parametric coordinates.

g default
v 0.125000 -0.000000 0.125000
v 0.000000 -0.085772 0.000000
v -0.125000 -0.000000 0.125000
v 0.125000 -0.000000 -0.125000
v -0.125000 -0.000000 -0.125000
v 0.500000 0.000000 0.500000
v 0.335372 0.125000 0.500000
v 0.500000 0.125000 0.335372
v 0.500000 0.125000 0.500000
v -0.500000 0.000000 0.500000
v -0.335372 0.125000 0.500000
v -0.500000 0.125000 0.335372
v -0.500000 0.125000 0.500000
v 0.500000 0.000000 -0.500000
v 0.335372 0.125000 -0.500000
v 0.500000 0.125000 -0.335372
v 0.500000 0.125000 -0.500000
v -0.500000 0.000000 -0.500000
v -0.335372 0.125000 -0.500000
v -0.500000 0.125000 -0.335372
v -0.500000 0.125000 -0.500000
v 0.335372 0.175007 0.500000
v 0.309486 0.250000 0.437506
v 0.437506 0.250000 0.309486
v 0.500000 0.175007 0.335372
v -0.335372 0.175007 0.500000
v -0.309486 0.250000 0.437506
v -0.500000 0.175007 0.335372
v -0.437506 0.250000 0.309486
v 0.437506 0.250000 -0.309486
v 0.500000 0.175007 -0.335372
v 0.335372 0.175007 -0.500000
v 0.309486 0.250000 -0.437506
v -0.335372 0.175007 -0.500000
v -0.309486 0.250000 -0.437506
v -0.500000 0.175007 -0.335372
v -0.437506 0.250000 -0.309486
vt 0.047922 0.999546
vt 0.000990 0.999546
vt 0.024456 0.976080
vt 0.000990 0.952614
vt 0.047922 0.952614
vt 0.404242 0.812231
vt 0.461931 0.812231
vt 0.461931 0.869920
vt 0.404242 0.869920
vt 0.309971 0.774432
vt 0.324239 0.793223
vt 0.324239 0.869783
vt 0.309971 0.888574
vt 0.372425 0.803251
vt 0.345269 0.776095
vt 0.372425 0.776095
vt 0.324239 0.888574
vt 0.345269 0.803251
vt 0.345269 0.776095
vt 0.372425 0.776095
vt 0.309971 0.774432
vt 0.324239 0.774432
vt 0.324239 0.793223
vt 0.372425 0.776095
vt 0.372425 0.803251
vt 0.345269 0.803251
vt 0.309971 0.774432
vt 0.324239 0.774432
vt 0.324239 0.793223
vt 0.315679 0.869783
vt 0.329947 0.888574
vt 0.315679 0.888574
vt 0.345269 0.776095
vt 0.372425 0.803251
vt 0.345269 0.803251
vt 0.309971 0.888574
vt 0.324239 0.869783
vt 0.324239 0.888574
vt 0.324239 0.774432
vt 0.309971 0.888574
vt 0.324239 0.869783
vt 0.324239 0.888574
vt 0.315679 0.793223
vt 0.329947 0.774432
vt 0.315679 0.774432
vt 0.112608 0.676759
vt 0.119620 0.679107
vt 0.120084 0.724639
vt 0.113120 0.727063
vt 0.125660 0.663696
vt 0.128046 0.670633
vt 0.175460 0.663787
vt 0.173054 0.670717
vt 0.128192 0.733175
vt 0.125823 0.740011
vt 0.172793 0.733175
vt 0.175162 0.740012
vt 0.188465 0.676862
vt 0.181462 0.679199
vt 0.187882 0.727069
vt 0.180931 0.724639
vt 0.329947 0.869783
vt 0.329947 0.793223
vt 0.329947 0.793223
vt 0.329947 0.869783
vt 0.324239 0.774432
vt 0.329947 0.774432
vt 0.329947 0.888574
vt 0.324239 0.888574
vt 0.182953 0.827939
vt 0.188675 0.822217
vt 0.188675 0.861330
vt 0.182953 0.855608
vt 0.309971 0.793223
vt 0.309971 0.774432
vt 0.315679 0.774432
vt 0.329947 0.793223
vt 0.329947 0.869783
vt 0.309971 0.869783
vt 0.315679 0.888574
vt 0.309971 0.888574
vt 0.222066 0.827939
vt 0.222066 0.855608
vt 0.216344 0.861330
vt 0.216344 0.822217
vn 0.000000 -0.824553 0.565785
vn 0.000000 -0.824553 0.565785
vn 0.000000 -0.824553 0.565785
vn 0.000000 -0.824553 -0.565785
vn 0.000000 -0.824553 -0.565785
vn 0.000000 -0.824553 -0.565785
vn -0.565785 -0.824553 0.000000
vn -0.565785 -0.824553 0.000000
vn -0.565785 -0.824553 0.000000
vn 0.565785 -0.824553 0.000000
vn 0.565785 -0.824553 0.000000
vn 0.565785 -0.824553 0.000000
vn 0.000000 -1.000000 0.000000
vn 0.000000 -1.000000 0.000000
vn 0.000000 -1.000000 0.000000
vn 0.000000 -1.000000 0.000000
vn 0.000000 0.000000 1.000000
vn 0.000000 0.000000 1.000000
vn 0.000000 0.000000 1.000000
vn 0.000000 0.000000 1.000000
vn 0.000000 1.000000 0.000000
vn 0.000000 1.000000 0.000000
vn 0.000000 1.000000 0.000000
vn 0.000000 0.000000 1.000000
vn 0.000000 1.000000 0.000000
vn 0.000000 1.000000 0.000000
vn 0.000000 1.000000 0.000000
vn -1.000000 0.000000 0.000000
vn -1.000000 0.000000 0.000000
vn -1.000000 0.000000 0.000000
vn 0.000000 1.000000 0.000000
vn 0.000000 1.000000 0.000000
vn 0.000000 1.000000 0.000000
vn 1.000000 0.000000 0.000000
vn 1.000000 0.000000 0.000000
vn 1.000000 0.000000 0.000000
vn 0.000000 0.000000 -1.000000
vn 0.000000 0.000000 -1.000000
vn 0.000000 0.000000 -1.000000
vn 0.000000 1.000000 0.000000
vn 0.000000 1.000000 0.000000
vn 0.000000 1.000000 0.000000
vn 1.000000 0.000000 0.000000
vn 1.000000 0.000000 0.000000
vn 1.000000 0.000000 0.000000
vn 0.000000 0.000000 1.000000
vn -1.000000 0.000000 0.000000
vn -1.000000 0.000000 0.000000
vn -1.000000 0.000000 0.000000
vn 0.000000 0.000000 -1.000000
vn 0.000000 0.000000 -1.000000
vn 0.000000 0.000000 -1.000000
vn 0.000000 0.640184 0.768221
vn 0.000000 0.640184 0.768221
vn 0.000000 0.640184 0.768221
vn 0.000000 0.640184 0.768221
vn 0.543215 0.640184 0.543214
vn 0.543215 0.640184 0.543214
vn 0.543215 0.640184 0.543214
vn 0.543215 0.640184 0.543214
vn 0.768222 0.640184 0.000000
vn 0.768221 0.640184 0.000000
vn 0.768221 0.640184 0.000000
vn 0.768222 0.640184 0.000000
vn -0.543215 0.640184 0.543215
vn -0.543215 0.640184 0.543214
vn -0.543215 0.640184 0.543214
vn -0.543215 0.640184 0.543214
vn -0.768221 0.640184 0.000000
vn -0.768222 0.640184 0.000000
vn -0.768222 0.640184 0.000000
vn -0.768221 0.640184 0.000000
vn 0.543215 0.640184 -0.543215
vn 0.543215 0.640184 -0.543215
vn 0.543215 0.640184 -0.543215
vn 0.543215 0.640184 -0.543215
vn 0.000000 0.640184 -0.768221
vn 0.000000 0.640184 -0.768221
vn 0.000000 0.640184 -0.768221
vn 0.000000 0.640184 -0.768221
vn -0.543215 0.640184 -0.543214
vn -0.543215 0.640184 -0.543214
vn -0.543215 0.640184 -0.543214
vn -0.543215 0.640184 -0.543214
vn 1.000000 0.000000 0.000000
vn 1.000000 0.000000 0.000000
vn 0.000000 0.000000 1.000000
vn 0.000000 0.000000 1.000000
vn 0.707107 0.000000 0.707107
vn 0.707107 0.000000 0.707107
vn 0.707107 0.000000 0.707107
vn 0.707107 0.000000 0.707107
vn -0.707107 0.000000 0.707107
vn -0.707107 0.000000 0.707107
vn -0.707107 0.000000 0.707107
vn -0.707107 0.000000 0.707107
vn 0.000000 1.000000 0.000000
vn 0.000000 1.000000 0.000000
vn 0.000000 1.000000 0.000000
vn 0.000000 1.000000 0.000000
vn 0.707107 0.000000 -0.707107
vn 0.707107 0.000000 -0.707107
vn 0.707107 0.000000 -0.707107
vn 0.707107 0.000000 -0.707107
vn -1.000000 0.000000 0.000000
vn -1.000000 0.000000 0.000000
vn 0.000000 0.000000 -1.000000
vn 0.000000 0.000000 -1.000000
vn -0.707107 0.000000 -0.707107
vn -0.707107 0.000000 -0.707107
vn -0.707107 0.000000 -0.707107
vn -0.707107 0.000000 -0.707107
vn 0.000000 1.000000 0.000000
vn 0.000000 1.000000 0.000000
vn 0.000000 1.000000 0.000000
vn 0.000000 1.000000 0.000000
s off
g geo_body geometry
f 1/1/1 3/2/2 2/3/3
f 2/3/4 5/4/5 4/5/6
f 3/2/7 5/4/8 2/3/9
f 4/5/10 1/1/11 2/3/12
f 18/6/13 14/7/14 6/8/15 10/9/16
s 1
f 6/10/17 7/11/18 11/12/19 10/13/20
s off
f 8/14/21 7/15/22 9/16/23
s 1
f 11/12/19 13/17/24 10/13/20
s off
f 12/18/25 13/19/26 11/20/27
s 2
f 10/21/28 13/22/29 12/23/30
s off
f 16/24/31 17/25/32 15/26/33
s 3
f 14/27/34 17/28/35 16/29/36
s 4
f 19/30/37 18/31/38 21/32/39
s off
f 20/33/40 19/34/41 21/35/42
s 3
f 6/36/43 8/37/44 9/38/45
s 1
f 7/11/18 6/10/17 9/39/46
s 2
f 18/40/47 10/21/28 12/23/30 20/41/48
f 18/40/47 20/41/48 21/42/49
s 4
f 18/31/38 19/30/37 15/43/50 14/44/51
f 15/43/50 17/45/52 14/44/51
s 3
f 6/36/43 14/27/34 16/29/36 8/37/44
s off
f 22/46/53 23/47/54 27/48/55 26/49/56
f 23/47/57 22/46/58 25/50/59 24/51/60
f 24/51/61 25/50/62 31/52/63 30/53/64
f 26/49/65 27/48/66 29/54/67 28/55/68
f 28/55/69 29/54/70 37/56/71 36/57/72
f 30/53/73 31/52/74 32/58/75 33/59/76
f 33/59/77 32/58/78 34/60/79 35/61/80
f 35/61/81 34/60/82 36/57/83 37/56/84
s 3
f 25/62/85 8/37/44 16/29/36 31/63/86
s 1
f 11/12/19 7/11/18 22/64/87 26/65/88
s off
f 7/11/89 8/66/90 25/67/91 22/64/92
f 11/12/93 26/65/94 28/68/95 12/69/96
s 5
f 29/70/97 27/71/98 35/72/99 37/73/100
s off
f 15/43/101 32/74/102 31/75/103 16/76/104
s 2
f 28/77/105 36/78/106 20/41/48 12/23/30
s 4
f 19/30/37 34/79/107 32/74/108 15/43/50
s off
f 19/30/109 20/80/110 36/81/111 34/79/112
s 5
f 24/82/113 30/83/114 33/84/115 23/85/116
f 27/71/98 23/85/116 33/84/115 35/72/99
