# Blender v2.82 (sub 7) OBJ File: 'HE_Firestorm_Engine.blend'
# www.blender.org
mtllib HE_Firestorm_Engine_Collider.mtl
v 3.249964 1.628137 3.430035
v -0.250036 1.628137 3.430035
v 3.149544 -0.499988 0.480553
v 2.522784 -0.499988 -0.160873
v 3.359964 -0.499987 3.626695
v 3.399964 -0.459989 1.250035
v 1.835420 -0.459988 -0.449965
v 1.171466 -0.499988 -0.409965
v 0.454963 -0.459988 -0.195413
v -0.149608 -0.499988 0.480553
v -0.400036 -0.459989 1.250035
v -0.360036 -0.499987 3.626695
v -0.105718 2.214900 2.987475
v 0.851376 2.720011 3.264915
v 2.148552 2.720011 3.264915
v 0.262052 2.789603 1.053304
v -0.255460 2.581231 0.990523
v 0.224303 2.581231 0.159549
v 1.225242 2.789281 0.178782
v 1.020201 2.581231 -0.299963
v 1.979727 2.581231 -0.299963
v 2.464339 2.787979 0.571250
v 2.766201 2.607242 0.173837
v 2.741823 2.787979 1.051875
v 3.255385 2.581231 0.990524
v 1.097571 1.763642 6.092854
v 1.957391 1.541601 6.271642
v 1.878507 1.736660 6.172952
v 1.042535 1.541601 6.271642
v 0.771406 -0.499988 6.280035
v 2.228524 -0.499988 6.280035
v 3.105645 2.214900 2.987475
v 1.000000 -0.600000 6.000000
v 2.000001 -0.600000 6.000000
vt 0.000000 0.000000
vt 0.000000 0.000000
vt 0.710263 0.830702
vt 0.883101 0.878550
vt 0.655765 0.269243
vt 0.675027 0.269243
vt 0.104141 0.747893
vt 0.000000 0.000000
vt 0.154547 0.002359
vt 0.156817 0.002359
vt 0.000000 0.000000
vt 0.000000 0.000000
vt 0.004009 0.079438
vt 0.735584 0.878550
vt 0.000000 0.000000
vt 0.000000 0.000000
vt 0.712487 0.889857
vt 0.712487 0.929306
vt 0.000000 0.000000
vt 0.000000 0.000000
vt 0.691901 0.269197
vt 0.712487 0.813109
vt 0.712487 0.852557
vt 0.883101 0.878550
vt 0.735584 0.878550
vt 0.603450 0.765573
vt 0.603450 0.976841
vt 0.560669 0.962918
vt 0.525008 0.928073
vt 0.710263 0.889470
vt 0.508935 0.852557
vt 0.525008 0.814342
vt 0.560669 0.779496
vt 0.656080 0.168456
vt 0.523088 0.929306
vt 0.559528 0.876327
vt 0.000000 0.000000
vt 0.000000 0.000000
vt 0.684370 0.799437
vt 0.684370 0.785296
vt 0.004009 0.079438
vt 0.000000 0.000000
vt 0.000000 0.000000
vt 0.735770 0.876326
vt 0.882035 0.876326
vt 0.691328 0.268819
vt 0.527256 0.267998
vt 0.534501 0.287845
vt 0.000000 0.000000
vt 0.882035 0.876326
vt 0.735770 0.876326
vt 0.559528 0.876327
vt 0.523088 0.876327
vt 0.000000 0.000000
vt 0.603450 0.876327
vt 0.709398 0.261827
vt 0.709710 0.199261
vt 0.691130 0.207059
vt 0.732114 0.776986
vt 0.674146 0.759252
vt 0.675425 0.803019
vt 0.000000 0.000000
vt 0.535663 0.237298
vt 0.712487 0.910258
vt 0.603450 0.876327
vt 0.687206 0.761372
vt 0.691155 0.167374
vt 0.658596 0.148576
vt 0.655790 0.269243
vt 0.000000 0.000000
vt 0.000000 0.000000
vt 0.681929 0.755717
vn 0.0000 -0.9417 0.3363
vn 0.0005 0.9997 0.0236
vn -0.9355 0.3284 0.1304
vn -0.2743 -0.9545 0.1170
vn -0.6768 0.6775 0.2880
vn -0.4057 0.0440 -0.9129
vn 0.4596 0.0410 -0.8872
vn 0.2744 -0.9545 0.1170
vn -0.0007 -0.9999 -0.0154
vn -0.3839 0.9140 0.1311
vn -0.8116 0.0378 -0.5830
vn -0.8841 0.0296 -0.4664
vn -0.9424 0.0432 -0.3316
vn 0.9365 0.2447 0.2512
vn 0.9035 0.3775 0.2028
vn 0.7895 0.4854 0.3756
vn 0.8724 0.2831 0.3984
vn 0.9714 0.0649 -0.2285
vn -0.8787 0.2613 0.3996
vn -0.9356 0.2345 0.2639
vn -0.9707 0.0800 0.2265
vn -0.9095 0.1029 0.4028
vn 0.3373 0.9239 -0.1808
vn 0.9095 0.1029 0.4028
vn 0.9707 0.0800 0.2265
vn 0.8294 0.0302 -0.5579
vn 0.7151 0.0192 -0.6988
vn 0.8801 0.0358 -0.4734
vn 0.9795 0.0464 -0.1962
vn 0.0825 0.9447 -0.3175
vn -0.0306 0.5524 0.8330
vn -0.0143 0.2604 0.9654
vn -0.0133 0.2434 0.9698
vn -0.0257 0.0424 -0.9988
vn 0.0000 0.0041 1.0000
vn -0.9896 0.0361 -0.1396
vn -0.0000 0.9473 0.3203
vn -0.2322 0.9425 -0.2402
vn 0.6632 0.6940 0.2804
vn 0.4555 0.8742 0.1683
vn 0.3837 0.9141 0.1309
vn 0.6812 0.6720 0.2905
vn -0.1190 0.9750 0.1878
vn -0.7907 0.4834 0.3756
vn 0.1049 0.9767 0.1870
usemtl _auto_.002
s off
f 33/1/1 34/2/1 31/3/1 30/4/1
f 24/5/2 22/6/2 19/7/2 16/8/2 14/9/2 15/10/2
f 17/11/3 2/12/3 13/13/3
f 33/1/4 30/4/4 12/14/4
f 14/9/5 17/11/5 26/15/5
f 20/16/6 8/17/6 9/18/6 18/19/6
f 21/20/7 23/21/7 4/22/7 7/23/7
f 31/24/8 34/2/8 5/25/8
f 6/26/9 5/25/9 34/2/9 33/1/9 12/14/9 11/27/9 10/28/9 9/29/9 8/30/9 7/31/9 4/32/9 3/33/9
f 14/9/10 16/34/10 17/11/10
s 1
f 18/19/11 9/35/11 10/36/12 17/11/13
f 1/37/14 32/38/15 28/39/16 27/40/17
f 32/41/15 1/37/14 25/42/18
f 29/43/19 2/12/20 12/44/21 30/45/22
f 23/46/23 22/6/23 24/47/23 25/48/23
f 27/49/17 31/50/24 5/51/25 1/37/14
f 3/52/26 4/53/27 23/54/28
f 1/37/14 5/51/25 6/55/29 25/42/18
f 22/6/30 23/54/30 21/56/30 20/57/30 19/58/30
f 26/59/31 29/60/32 27/61/33 28/62/31
f 20/16/34 21/63/34 7/23/34 8/17/34
f 27/61/33 29/60/32 30/64/35 31/3/35
f 11/65/36 12/44/21 2/12/20 17/11/13
f 26/66/37 28/39/37 15/10/37 14/9/37
f 19/58/38 20/57/38 18/67/38 17/68/38 16/69/38
f 15/70/39 25/42/40 24/71/41
f 15/70/39 28/62/42 25/42/40
f 25/42/18 6/55/29 3/52/26 23/54/28
f 26/66/43 17/11/43 13/13/43
f 10/36/12 11/65/36 17/11/13
f 2/12/20 29/72/19 26/66/44 13/13/44
f 25/42/45 28/39/45 32/38/45
