# Blender v2.90.1 OBJ File: 'Mini Rollers.blend'
# www.blender.org
mtllib OS_Mini_Roller_Lower_Sus.mtl
o Lower.001_Cube.010
v 0.075240 -0.038820 0.189231
v 0.038819 -0.075240 0.189231
v 0.075240 0.038819 0.189231
v 0.038820 0.075240 0.189231
v -0.075240 -0.038819 0.189231
v -0.038820 -0.075240 0.189231
v -0.075240 0.038820 0.189231
v -0.038819 0.075240 0.189231
v 0.038820 0.075240 0.116895
v 0.075240 0.038819 0.116895
v 0.075240 -0.038820 0.116895
v 0.038819 -0.075240 0.116895
v -0.075240 0.038820 0.116895
v -0.038819 0.075240 0.116895
v -0.038820 -0.075240 0.116895
v -0.075240 -0.038819 0.116895
v 0.075240 0.038819 0.673390
v 0.038820 0.075240 0.673390
v 0.038819 -0.075240 0.673390
v 0.075240 -0.038820 0.673390
v -0.038819 0.075240 0.673390
v -0.075240 0.038819 0.673390
v -0.075240 -0.038820 0.673390
v -0.038820 -0.075240 0.673390
v -0.042935 -0.085176 0.175500
v -0.085176 -0.042935 0.175500
v 0.042935 0.085176 0.175501
v 0.085176 0.042935 0.175500
v -0.042935 0.085176 0.175501
v 0.042935 0.085176 0.103164
v -0.085176 0.042935 0.103164
v -0.085176 0.042935 0.175500
v -0.042935 -0.085176 0.103164
v 0.042935 -0.085176 0.175500
v 0.085176 -0.042935 0.175500
v 0.085176 -0.042935 0.103164
v -0.042935 0.085176 0.103164
v -0.085176 -0.042935 0.103164
v 0.085176 0.042935 0.103164
v 0.042935 -0.085176 0.103164
v -0.022731 0.004522 0.166517
v -0.064734 0.012876 0.148779
v -0.096881 0.019271 0.116002
v -0.114278 0.022731 0.073177
v -0.114278 0.022731 0.026823
v -0.096881 0.019271 -0.016002
v -0.064734 0.012876 -0.048779
v -0.022731 0.004522 -0.066517
v -0.019271 0.012876 0.166517
v -0.054878 0.036669 0.148779
v -0.082131 0.054879 0.116002
v -0.096881 0.064734 0.073177
v -0.096881 0.064734 0.026823
v -0.082131 0.054879 -0.016002
v -0.054878 0.036669 -0.048779
v -0.019271 0.012876 -0.066517
v -0.012876 0.019271 0.166517
v -0.036669 0.054879 0.148779
v -0.054878 0.082131 0.116002
v -0.064733 0.096881 0.073177
v -0.064733 0.096881 0.026823
v -0.054878 0.082131 -0.016002
v -0.036669 0.054878 -0.048779
v -0.012876 0.019271 -0.066517
v -0.004521 0.022731 0.166517
v -0.012876 0.064734 0.148779
v -0.019271 0.096881 0.116002
v -0.022731 0.114278 0.073177
v -0.022731 0.114278 0.026823
v -0.019271 0.096881 -0.016002
v -0.012876 0.064734 -0.048779
v -0.004521 0.022731 -0.066517
v 0.004522 0.022731 0.166517
v 0.012876 0.064734 0.148779
v 0.019271 0.096881 0.116002
v 0.022732 0.114278 0.073177
v 0.022732 0.114278 0.026823
v 0.019271 0.096881 -0.016002
v 0.012876 0.064734 -0.048779
v 0.004522 0.022731 -0.066517
v 0.012876 0.019271 0.166517
v 0.036669 0.054878 0.148779
v 0.054879 0.082131 0.116002
v 0.064734 0.096881 0.073177
v 0.064734 0.096881 0.026823
v 0.054879 0.082131 -0.016002
v 0.036669 0.054878 -0.048779
v 0.012876 0.019271 -0.066517
v 0.019271 0.012876 0.166517
v 0.054879 0.036669 0.148779
v 0.082132 0.054878 0.116002
v 0.096881 0.064733 0.073177
v 0.096881 0.064733 0.026823
v 0.082132 0.054878 -0.016002
v 0.054879 0.036669 -0.048779
v 0.019271 0.012876 -0.066517
v 0.000000 -0.000000 -0.068800
v 0.022731 0.004522 0.166517
v 0.064734 0.012876 0.148779
v 0.096881 0.019271 0.116002
v 0.114279 0.022731 0.073177
v 0.114279 0.022731 0.026823
v 0.096881 0.019271 -0.016002
v 0.064734 0.012876 -0.048779
v 0.022731 0.004522 -0.066517
v 0.022731 -0.004522 0.166517
v 0.064734 -0.012876 0.148779
v 0.096881 -0.019271 0.116002
v 0.114278 -0.022731 0.073177
v 0.114278 -0.022731 0.026823
v 0.096881 -0.019271 -0.016002
v 0.064734 -0.012876 -0.048779
v 0.022731 -0.004522 -0.066517
v 0.019271 -0.012876 0.166517
v 0.054878 -0.036669 0.148779
v 0.082131 -0.054879 0.116002
v 0.096881 -0.064734 0.073177
v 0.096881 -0.064734 0.026823
v 0.082131 -0.054879 -0.016002
v 0.054878 -0.036669 -0.048779
v 0.019271 -0.012876 -0.066517
v 0.000000 -0.000000 0.168800
v 0.012876 -0.019271 0.166517
v 0.036669 -0.054878 0.148779
v 0.054878 -0.082131 0.116002
v 0.064733 -0.096881 0.073177
v 0.064733 -0.096881 0.026823
v 0.054878 -0.082131 -0.016002
v 0.036669 -0.054878 -0.048779
v 0.012876 -0.019271 -0.066517
v 0.004522 -0.022731 0.166517
v 0.012876 -0.064734 0.148779
v 0.019271 -0.096881 0.116002
v 0.022731 -0.114278 0.073177
v 0.022731 -0.114278 0.026823
v 0.019271 -0.096881 -0.016002
v 0.012876 -0.064734 -0.048779
v 0.004522 -0.022731 -0.066517
v -0.004522 -0.022731 0.166517
v -0.012876 -0.064734 0.148779
v -0.019271 -0.096881 0.116002
v -0.022731 -0.114278 0.073177
v -0.022731 -0.114278 0.026823
v -0.019271 -0.096881 -0.016002
v -0.012876 -0.064734 -0.048779
v -0.004522 -0.022731 -0.066517
v -0.012876 -0.019271 0.166517
v -0.036669 -0.054878 0.148779
v -0.054878 -0.082131 0.116002
v -0.064734 -0.096880 0.073177
v -0.064734 -0.096880 0.026823
v -0.054878 -0.082131 -0.016002
v -0.036669 -0.054878 -0.048779
v -0.012876 -0.019271 -0.066517
v -0.019271 -0.012876 0.166517
v -0.054878 -0.036669 0.148779
v -0.082131 -0.054878 0.116002
v -0.096881 -0.064733 0.073177
v -0.096881 -0.064733 0.026823
v -0.082131 -0.054878 -0.016002
v -0.054878 -0.036669 -0.048779
v -0.019271 -0.012876 -0.066517
v -0.022731 -0.004522 0.166517
v -0.064733 -0.012876 0.148779
v -0.096881 -0.019271 0.116002
v -0.114278 -0.022731 0.073177
v -0.114278 -0.022731 0.026823
v -0.096881 -0.019271 -0.016002
v -0.064733 -0.012876 -0.048779
v -0.022731 -0.004522 -0.066517
vt 0.402222 0.448977
vt 0.345158 0.448977
vt 0.342133 0.458222
vt 0.405247 0.458222
vt 0.402222 0.308958
vt 0.428991 0.342846
vt 0.428991 0.415088
vt 0.402222 0.448977
vt 0.345158 0.448977
vt 0.318389 0.415088
vt 0.318389 0.342846
vt 0.345158 0.308958
vt 0.428991 0.415088
vt 0.436294 0.418918
vt 0.345158 0.308958
vt 0.318389 0.342846
vt 0.318389 0.415088
vt 0.428991 0.342846
vt 0.402222 0.308958
vt 0.033318 0.339061
vt 0.033318 0.405766
vt 0.229687 0.405766
vt 0.229687 0.339061
vt 0.311086 0.339017
vt 0.311086 0.418918
vt 0.033318 0.405766
vt 0.229687 0.405766
vt 0.229687 0.339061
vt 0.033318 0.339061
vt 0.436294 0.339017
vt 0.405247 0.299712
vt 0.229687 0.405766
vt 0.033318 0.405766
vt 0.033318 0.339061
vt 0.229687 0.339061
vt 0.229687 0.339061
vt 0.229687 0.405766
vt 0.033318 0.405766
vt 0.033318 0.339061
vt 0.453698 0.588771
vt 0.492563 0.588771
vt 0.492563 0.530364
vt 0.453698 0.530364
vt 0.492563 0.588771
vt 0.453698 0.588771
vt 0.453698 0.530364
vt 0.492563 0.530364
vt 0.342133 0.299712
vt 0.053735 0.307770
vt 0.029018 0.339061
vt 0.022274 0.335525
vt 0.050942 0.299233
vt 0.024000 0.409303
vt 0.024000 0.335525
vt 0.229687 0.437058
vt 0.033318 0.437058
vt 0.229687 0.307770
vt 0.033318 0.307770
vt 0.033318 0.307770
vt 0.229687 0.307770
vt 0.106426 0.437058
vt 0.131144 0.405766
vt 0.137887 0.409303
vt 0.109219 0.445595
vt 0.024000 0.335525
vt 0.024000 0.409303
vt 0.033318 0.437058
vt 0.229687 0.437058
vt 0.492563 0.530364
vt 0.492563 0.588771
vt 0.453698 0.588771
vt 0.453698 0.530364
vt 0.453698 0.617503
vt 0.492563 0.617503
vt 0.453698 0.501633
vt 0.492563 0.501633
vt 0.492563 0.501633
vt 0.453698 0.501633
vt 0.492563 0.617503
vt 0.453698 0.617503
vt 0.453698 0.530364
vt 0.453698 0.588771
vt 0.492563 0.588771
vt 0.492563 0.530364
vt 0.024000 0.409303
vt 0.024000 0.335525
vt 0.024000 0.335525
vt 0.024000 0.409303
vt 0.029018 0.405766
vt 0.053735 0.437058
vt 0.050942 0.445595
vt 0.022274 0.409303
vt 0.131144 0.339061
vt 0.106426 0.307770
vt 0.109219 0.299233
vt 0.137887 0.335525
vt 0.506951 0.607261
vt 0.506951 0.619087
vt 0.502557 0.619087
vt 0.502557 0.607261
vt 0.506951 0.559956
vt 0.506951 0.571783
vt 0.502557 0.571783
vt 0.502557 0.559956
vt 0.499262 0.625000
vt 0.498163 0.619087
vt 0.506951 0.583609
vt 0.506951 0.595435
vt 0.502557 0.595435
vt 0.502557 0.583609
vt 0.502557 0.548130
vt 0.506951 0.548130
vt 0.498163 0.571783
vt 0.498163 0.559956
vt 0.506951 0.536304
vt 0.502557 0.536304
vt 0.505853 0.530391
vt 0.498163 0.607261
vt 0.498163 0.595435
vt 0.498163 0.583609
vt 0.498163 0.536304
vt 0.501459 0.530391
vt 0.494868 0.625000
vt 0.493769 0.619087
vt 0.498163 0.548130
vt 0.493769 0.571783
vt 0.493769 0.559956
vt 0.493769 0.607261
vt 0.493769 0.548130
vt 0.493769 0.536304
vt 0.497065 0.530391
vt 0.490474 0.625000
vt 0.489375 0.619087
vt 0.493769 0.595435
vt 0.489375 0.571783
vt 0.489375 0.559956
vt 0.493769 0.583609
vt 0.489375 0.607261
vt 0.489375 0.595435
vt 0.489375 0.583609
vt 0.489375 0.536304
vt 0.492671 0.530391
vt 0.486080 0.625000
vt 0.484981 0.619087
vt 0.489375 0.548130
vt 0.484982 0.571783
vt 0.484982 0.559956
vt 0.484982 0.548130
vt 0.484981 0.536304
vt 0.488277 0.530391
vt 0.481686 0.625000
vt 0.480588 0.619087
vt 0.484982 0.607261
vt 0.484982 0.595435
vt 0.484982 0.583609
vt 0.480588 0.571783
vt 0.480588 0.559956
vt 0.480588 0.536304
vt 0.483883 0.530391
vt 0.477292 0.625000
vt 0.476194 0.619087
vt 0.480588 0.607261
vt 0.480588 0.595435
vt 0.480588 0.548130
vt 0.480588 0.583609
vt 0.476194 0.571783
vt 0.476194 0.559956
vt 0.476194 0.607261
vt 0.476194 0.595435
vt 0.476194 0.548130
vt 0.476194 0.583609
vt 0.476194 0.536304
vt 0.471800 0.571783
vt 0.471800 0.559956
vt 0.479489 0.530391
vt 0.472898 0.625000
vt 0.471800 0.619087
vt 0.471800 0.548130
vt 0.471800 0.595435
vt 0.471800 0.583609
vt 0.471800 0.536304
vt 0.467406 0.607261
vt 0.467406 0.595435
vt 0.471800 0.607261
vt 0.475095 0.530391
vt 0.468504 0.625000
vt 0.467406 0.619087
vt 0.467406 0.559956
vt 0.467406 0.548130
vt 0.467406 0.583609
vt 0.467406 0.536304
vt 0.467406 0.571783
vt 0.459716 0.625000
vt 0.458618 0.619087
vt 0.463012 0.619087
vt 0.470701 0.530391
vt 0.464110 0.625000
vt 0.463012 0.595435
vt 0.463012 0.583609
vt 0.463012 0.548130
vt 0.463012 0.536304
vt 0.463012 0.571783
vt 0.463012 0.607261
vt 0.463012 0.559956
vt 0.466307 0.530391
vt 0.458618 0.536304
vt 0.461913 0.530391
vt 0.458618 0.548130
vt 0.458618 0.583609
vt 0.458618 0.571783
vt 0.458618 0.607261
vt 0.458618 0.595435
vt 0.458618 0.559956
vt 0.455322 0.625000
vt 0.454224 0.619087
vt 0.454224 0.571783
vt 0.454224 0.559956
vt 0.454224 0.548130
vt 0.454224 0.536304
vt 0.454224 0.583609
vt 0.454224 0.607261
vt 0.457519 0.530391
vt 0.521232 0.625000
vt 0.520133 0.619087
vt 0.520133 0.571783
vt 0.520133 0.559956
vt 0.454224 0.595435
vt 0.520133 0.548130
vt 0.520133 0.536304
vt 0.520133 0.583609
vt 0.520133 0.607261
vt 0.520133 0.595435
vt 0.453125 0.530391
vt 0.516838 0.625000
vt 0.515739 0.619087
vt 0.515739 0.571783
vt 0.515739 0.559956
vt 0.515739 0.583609
vt 0.515739 0.607261
vt 0.515739 0.548130
vt 0.515739 0.536304
vt 0.519035 0.530391
vt 0.512444 0.625000
vt 0.511345 0.619087
vt 0.515739 0.595435
vt 0.511345 0.571783
vt 0.511345 0.559956
vt 0.511345 0.607261
vt 0.511345 0.548130
vt 0.511345 0.536304
vt 0.514641 0.530391
vt 0.508050 0.625000
vt 0.511345 0.595435
vt 0.511345 0.583609
vt 0.510247 0.530391
vt 0.503656 0.625000
vn 0.0000 0.8101 -0.5863
vn 0.0000 0.0000 1.0000
vn 0.5728 0.5728 -0.5863
vn 0.0000 0.0000 -1.0000
vn -1.0000 0.0000 0.0000
vn -0.8101 0.0000 -0.5863
vn 0.0000 1.0000 0.0000
vn 0.5728 -0.5728 -0.5863
vn -0.0000 -1.0000 -0.0000
vn 1.0000 -0.0000 -0.0000
vn 0.8101 -0.0000 -0.5863
vn -0.5728 0.5728 -0.5863
vn -0.5728 -0.5728 -0.5863
vn -0.0000 -0.8101 -0.5863
vn 0.3580 0.8642 0.3536
vn 0.8642 0.3580 0.3536
vn 0.8802 0.3646 0.3039
vn 0.3646 0.8802 0.3039
vn 0.3580 -0.8642 0.3536
vn -0.3580 -0.8642 0.3536
vn -0.3646 -0.8802 0.3039
vn 0.3646 -0.8802 0.3039
vn -0.2971 -0.7173 0.6302
vn -0.7173 -0.2971 0.6302
vn -0.8642 -0.3580 0.3536
vn 0.2971 0.7173 0.6302
vn 0.7173 0.2971 0.6302
vn 0.2971 -0.7173 0.6302
vn 0.8642 -0.3580 0.3536
vn 0.7173 -0.2971 0.6302
vn -0.8802 -0.3646 0.3039
vn -0.8642 0.3580 0.3536
vn -0.8802 0.3646 0.3039
vn -0.2971 0.7173 0.6302
vn -0.3580 0.8642 0.3536
vn -0.7173 0.2971 0.6302
vn 0.8802 -0.3646 0.3039
vn 0.4641 -0.1922 -0.8647
vn 0.4641 0.1922 -0.8647
vn -0.3646 0.8802 0.3039
vn -0.1922 0.4641 -0.8647
vn -0.4641 0.1922 -0.8647
vn 0.1922 -0.4641 -0.8647
vn 0.1922 0.4641 -0.8647
vn -0.1922 -0.4641 -0.8647
vn -0.4641 -0.1922 -0.8647
vn -0.5610 -0.1116 0.8203
vn -0.2551 -0.0507 0.9656
vn -0.2551 0.0507 0.9656
vn -0.5610 0.1116 0.8203
vn -0.8225 -0.1636 -0.5446
vn -0.9628 -0.1915 -0.1906
vn -0.9628 0.1915 -0.1906
vn -0.8225 0.1636 -0.5446
vn -0.2162 0.1445 0.9656
vn -0.9628 -0.1915 0.1906
vn -0.8225 -0.1636 0.5446
vn -0.8225 0.1636 0.5446
vn -0.9628 0.1915 0.1906
vn -0.5610 0.1116 -0.8203
vn -0.5610 -0.1116 -0.8203
vn -0.8162 0.5454 -0.1906
vn -0.6973 0.4659 -0.5446
vn -0.2551 -0.0507 -0.9656
vn -0.2551 0.0507 -0.9656
vn -0.4755 0.3178 0.8203
vn -0.6973 0.4659 0.5446
vn -0.8162 0.5454 0.1906
vn -0.2162 0.1445 -0.9656
vn -0.1445 0.2162 0.9656
vn -0.4755 0.3178 -0.8203
vn -0.5454 0.8162 -0.1906
vn -0.4659 0.6973 -0.5446
vn -0.3178 0.4755 0.8203
vn -0.3178 0.4755 -0.8203
vn -0.1445 0.2162 -0.9656
vn -0.0507 0.2551 0.9656
vn -0.4659 0.6973 0.5446
vn -0.1915 0.9628 -0.1906
vn -0.1636 0.8225 -0.5446
vn -0.5454 0.8162 0.1906
vn -0.1116 0.5610 0.8203
vn -0.1636 0.8225 0.5446
vn -0.1915 0.9628 0.1906
vn -0.0507 0.2551 -0.9656
vn 0.0507 0.2551 0.9656
vn -0.1116 0.5610 -0.8203
vn 0.1915 0.9628 -0.1906
vn 0.1636 0.8225 -0.5446
vn 0.1116 0.5610 -0.8203
vn 0.0507 0.2551 -0.9656
vn 0.1445 0.2162 0.9656
vn 0.1116 0.5610 0.8203
vn 0.1636 0.8225 0.5446
vn 0.1915 0.9628 0.1906
vn 0.5454 0.8162 -0.1906
vn 0.4659 0.6973 -0.5446
vn 0.1445 0.2162 -0.9656
vn 0.2162 0.1445 0.9656
vn 0.3178 0.4755 0.8203
vn 0.4659 0.6973 0.5446
vn 0.3178 0.4755 -0.8203
vn 0.5454 0.8162 0.1906
vn 0.8162 0.5454 -0.1906
vn 0.6973 0.4659 -0.5446
vn 0.4755 0.3178 0.8203
vn 0.6973 0.4659 0.5446
vn 0.4755 0.3178 -0.8203
vn 0.8162 0.5454 0.1906
vn 0.2162 0.1445 -0.9656
vn 0.9628 0.1915 -0.1906
vn 0.8225 0.1636 -0.5446
vn 0.2551 0.0507 0.9656
vn 0.5610 0.1116 -0.8203
vn 0.8225 0.1636 0.5446
vn 0.9628 0.1915 0.1906
vn 0.2551 0.0507 -0.9656
vn 0.5610 -0.1116 0.8203
vn 0.8225 -0.1636 0.5446
vn 0.5610 0.1116 0.8203
vn 0.2551 -0.0507 0.9656
vn 0.8225 -0.1636 -0.5446
vn 0.5610 -0.1116 -0.8203
vn 0.9628 -0.1915 0.1906
vn 0.2551 -0.0507 -0.9656
vn 0.9628 -0.1915 -0.1906
vn 0.1445 -0.2162 0.9656
vn 0.2162 -0.1445 0.9656
vn 0.6973 -0.4659 0.5446
vn 0.8162 -0.5454 0.1906
vn 0.4755 -0.3178 -0.8203
vn 0.2162 -0.1445 -0.9656
vn 0.8162 -0.5454 -0.1906
vn 0.4755 -0.3178 0.8203
vn 0.6973 -0.4659 -0.5446
vn 0.1445 -0.2162 -0.9656
vn 0.3178 -0.4755 -0.8203
vn 0.5454 -0.8162 0.1906
vn 0.5454 -0.8162 -0.1906
vn 0.3178 -0.4755 0.8203
vn 0.4659 -0.6973 0.5446
vn 0.4659 -0.6973 -0.5446
vn 0.0507 -0.2551 0.9656
vn 0.1915 -0.9628 -0.1906
vn 0.1636 -0.8225 -0.5446
vn 0.1116 -0.5610 -0.8203
vn 0.0507 -0.2551 -0.9656
vn 0.1915 -0.9628 0.1906
vn 0.1116 -0.5610 0.8203
vn -0.0507 -0.2551 0.9656
vn -0.1915 -0.9628 -0.1906
vn -0.1636 -0.8225 -0.5446
vn 0.1636 -0.8225 0.5446
vn -0.1116 -0.5610 -0.8203
vn -0.0507 -0.2551 -0.9656
vn -0.1915 -0.9628 0.1906
vn -0.1116 -0.5610 0.8203
vn -0.1636 -0.8225 0.5446
vn -0.1445 -0.2162 0.9656
vn -0.5454 -0.8162 -0.1906
vn -0.4659 -0.6973 -0.5446
vn -0.5454 -0.8162 0.1906
vn -0.3178 -0.4755 0.8203
vn -0.3178 -0.4755 -0.8203
vn -0.1445 -0.2162 -0.9656
vn -0.2162 -0.1445 0.9656
vn -0.4659 -0.6973 0.5446
vn -0.8162 -0.5454 -0.1906
vn -0.6973 -0.4659 -0.5446
vn -0.4755 -0.3178 0.8203
vn -0.4755 -0.3178 -0.8203
vn -0.2162 -0.1445 -0.9656
vn -0.6973 -0.4659 0.5446
vn -0.8162 -0.5454 0.1906
usemtl Material.013
s off
f 15/1/1 12/2/1 40/3/1 33/4/1
f 21/5/2 22/6/2 23/7/2 24/8/2 19/9/2 20/10/2 17/11/2 18/12/2
f 16/13/3 15/1/3 33/4/3 38/14/3
f 9/15/4 10/16/4 11/17/4 12/2/4 15/1/4 16/13/4 13/18/4 14/19/4
f 7/20/5 5/21/5 23/22/5 22/23/5
f 11/17/6 10/16/6 39/24/6 36/25/6
f 8/26/7 21/27/7 18/28/7 4/29/7
f 14/19/8 13/18/8 31/30/8 37/31/8
f 24/32/9 6/33/9 2/34/9 19/35/9
f 17/36/10 20/37/10 1/38/10 3/39/10
f 37/40/7 29/41/7 27/42/7 30/43/7
f 25/44/9 33/45/9 40/46/9 34/47/9
f 13/18/11 16/13/11 38/14/11 31/30/11
f 12/2/12 11/17/12 36/25/12 40/3/12
f 10/16/13 9/15/13 30/48/13 39/24/13
f 9/15/14 14/19/14 37/31/14 30/48/14
s 1
f 4/49/15 3/50/16 28/51/17 27/52/18
f 2/34/19 6/33/20 25/53/21 34/54/22
f 6/33/20 24/32/23 23/55/24 5/56/25
f 4/29/15 18/28/26 17/57/27 3/58/16
f 19/35/28 2/34/19 1/59/29 20/60/30
f 6/61/20 5/62/25 26/63/31 25/64/21
f 5/21/25 7/20/32 32/65/33 26/66/31
f 21/27/34 8/26/35 7/67/32 22/68/36
f 28/69/17 35/70/37 36/71/38 39/72/39
f 29/41/40 37/40/41 31/73/42 32/74/33
f 34/47/22 40/46/43 36/75/38 35/76/37
f 30/43/44 27/42/18 28/77/17 39/78/39
f 33/45/45 25/44/21 26/79/31 38/80/46
f 31/81/42 38/82/46 26/83/31 32/84/33
f 3/39/16 1/38/29 35/85/37 28/86/17
f 8/26/35 4/29/15 27/87/18 29/88/40
f 1/89/29 2/90/19 34/91/22 35/92/37
f 7/93/32 8/94/35 29/95/40 32/96/33
f 164/97/47 163/98/48 41/99/49 42/100/50
f 168/101/51 167/102/52 45/103/53 46/104/54
f 122/105/2 49/106/55 41/99/49
f 166/107/56 165/108/57 43/109/58 44/110/59
f 168/101/51 46/104/54 47/111/60 169/112/61
f 53/113/62 54/114/63 46/104/54 45/103/53
f 167/102/52 166/107/56 44/110/59 45/103/53
f 170/115/64 169/112/61 47/111/60 48/116/65
f 97/117/4 170/115/64 48/116/65
f 49/106/55 50/118/66 42/100/50 41/99/49
f 51/119/67 52/120/68 44/110/59 43/109/58
f 48/116/65 56/121/69 97/122/4
f 122/123/2 57/124/70 49/106/55
f 50/118/66 51/119/67 43/109/58 42/100/50
f 54/114/63 55/125/71 47/111/60 46/104/54
f 61/126/72 62/127/73 54/114/63 53/113/62
f 55/125/71 56/121/69 48/116/65 47/111/60
f 52/120/68 53/113/62 45/103/53 44/110/59
f 57/124/70 58/128/74 50/118/66 49/106/55
f 63/129/75 64/130/76 56/121/69 55/125/71
f 56/121/69 64/130/76 97/131/4
f 122/132/2 65/133/77 57/124/70
f 58/128/74 59/134/78 51/119/67 50/118/66
f 62/127/73 63/129/75 55/125/71 54/114/63
f 69/135/79 70/136/80 62/127/73 61/126/72
f 60/137/81 61/126/72 53/113/62 52/120/68
f 59/134/78 60/137/81 52/120/68 51/119/67
f 65/133/77 66/138/82 58/128/74 57/124/70
f 67/139/83 68/140/84 60/137/81 59/134/78
f 64/130/76 72/141/85 97/142/4
f 122/143/2 73/144/86 65/133/77
f 66/138/82 67/139/83 59/134/78 58/128/74
f 70/136/80 71/145/87 63/129/75 62/127/73
f 77/146/88 78/147/89 70/136/80 69/135/79
f 71/145/87 72/141/85 64/130/76 63/129/75
f 68/140/84 69/135/79 61/126/72 60/137/81
f 79/148/90 80/149/91 72/141/85 71/145/87
f 72/141/85 80/149/91 97/150/4
f 122/151/2 81/152/92 73/144/86
f 74/153/93 75/154/94 67/139/83 66/138/82
f 78/147/89 79/148/90 71/145/87 70/136/80
f 75/154/94 76/155/95 68/140/84 67/139/83
f 85/156/96 86/157/97 78/147/89 77/146/88
f 76/155/95 77/146/88 69/135/79 68/140/84
f 73/144/86 74/153/93 66/138/82 65/133/77
f 80/149/91 88/158/98 97/159/4
f 122/160/2 89/161/99 81/152/92
f 82/162/100 83/163/101 75/154/94 74/153/93
f 86/157/97 87/164/102 79/148/90 78/147/89
f 83/163/101 84/165/103 76/155/95 75/154/94
f 87/164/102 88/158/98 80/149/91 79/148/90
f 93/166/104 94/167/105 86/157/97 85/156/96
f 81/152/92 82/162/100 74/153/93 73/144/86
f 84/165/103 85/156/96 77/146/88 76/155/95
f 90/168/106 91/169/107 83/163/101 82/162/100
f 94/167/105 95/170/108 87/164/102 86/157/97
f 91/169/107 92/171/109 84/165/103 83/163/101
f 95/170/108 96/172/110 88/158/98 87/164/102
f 102/173/111 103/174/112 94/167/105 93/166/104
f 89/161/99 90/168/106 82/162/100 81/152/92
f 92/171/109 93/166/104 85/156/96 84/165/103
f 88/158/98 96/172/110 97/175/4
f 122/176/2 98/177/113 89/161/99
f 103/174/112 104/178/114 95/170/108 94/167/105
f 100/179/115 101/180/116 92/171/109 91/169/107
f 104/178/114 105/181/117 96/172/110 95/170/108
f 101/180/116 102/173/111 93/166/104 92/171/109
f 107/182/118 108/183/119 100/179/115 99/184/120
f 98/177/113 99/184/120 90/168/106 89/161/99
f 96/172/110 105/181/117 97/185/4
f 122/186/2 106/187/121 98/177/113
f 99/184/120 100/179/115 91/169/107 90/168/106
f 111/188/122 112/189/123 104/178/114 103/174/112
f 108/183/119 109/190/124 101/180/116 100/179/115
f 112/189/123 113/191/125 105/181/117 104/178/114
f 109/190/124 110/192/126 102/173/111 101/180/116
f 122/193/2 123/194/127 114/195/128
f 110/192/126 111/188/122 103/174/112 102/173/111
f 105/181/117 113/191/125 97/196/4
f 122/197/2 114/195/128 106/187/121
f 106/187/121 107/182/118 99/184/120 98/177/113
f 116/198/129 117/199/130 109/190/124 108/183/119
f 120/200/131 121/201/132 113/191/125 112/189/123
f 117/199/130 118/202/133 110/192/126 109/190/124
f 114/195/128 115/203/134 107/182/118 106/187/121
f 118/202/133 119/204/135 111/188/122 110/192/126
f 113/191/125 121/201/132 97/205/4
f 121/201/132 130/206/136 97/207/4
f 115/203/134 116/198/129 108/183/119 107/182/118
f 119/204/135 120/200/131 112/189/123 111/188/122
f 129/208/137 130/206/136 121/201/132 120/200/131
f 126/209/138 127/210/139 118/202/133 117/199/130
f 123/194/127 124/211/140 115/203/134 114/195/128
f 124/211/140 125/212/141 116/198/129 115/203/134
f 127/210/139 128/213/142 119/204/135 118/202/133
f 122/214/2 131/215/143 123/194/127
f 135/216/144 136/217/145 128/213/142 127/210/139
f 128/213/142 129/208/137 120/200/131 119/204/135
f 125/212/141 126/209/138 117/199/130 116/198/129
f 137/218/146 138/219/147 130/206/136 129/208/137
f 134/220/148 135/216/144 127/210/139 126/209/138
f 131/215/143 132/221/149 124/211/140 123/194/127
f 136/217/145 137/218/146 129/208/137 128/213/142
f 130/206/136 138/219/147 97/222/4
f 122/223/2 139/224/150 131/215/143
f 143/225/151 144/226/152 136/217/145 135/216/144
f 133/227/153 134/220/148 126/209/138 125/212/141
f 132/221/149 133/227/153 125/212/141 124/211/140
f 145/228/154 146/229/155 138/219/147 137/218/146
f 142/230/156 143/225/151 135/216/144 134/220/148
f 139/224/150 140/231/157 132/221/149 131/215/143
f 140/231/157 141/232/158 133/227/153 132/221/149
f 138/219/147 146/229/155 97/233/4
f 122/234/2 147/235/159 139/224/150
f 151/236/160 152/237/161 144/226/152 143/225/151
f 144/226/152 145/228/154 137/218/146 136/217/145
f 141/232/158 142/230/156 134/220/148 133/227/153
f 150/238/162 151/236/160 143/225/151 142/230/156
f 147/235/159 148/239/163 140/231/157 139/224/150
f 152/237/161 153/240/164 145/228/154 144/226/152
f 146/229/155 154/241/165 97/242/4
f 122/243/2 155/244/166 147/235/159
f 148/239/163 149/245/167 141/232/158 140/231/157
f 159/246/168 160/247/169 152/237/161 151/236/160
f 149/245/167 150/238/162 142/230/156 141/232/158
f 153/240/164 154/241/165 146/229/155 145/228/154
f 155/244/166 156/248/170 148/239/163 147/235/159
f 161/249/171 162/250/172 154/241/165 153/240/164
f 154/241/165 162/250/172 97/251/4
f 122/252/2 163/98/48 155/244/166
f 156/248/170 157/253/173 149/245/167 148/239/163
f 160/247/169 161/249/171 153/240/164 152/237/161
f 167/102/52 168/101/51 160/247/169 159/246/168
f 158/254/174 159/246/168 151/236/160 150/238/162
f 157/253/173 158/254/174 150/238/162 149/245/167
f 163/98/48 164/97/47 156/248/170 155/244/166
f 165/108/57 166/107/56 158/254/174 157/253/173
f 162/250/172 170/115/64 97/255/4
f 164/97/47 165/108/57 157/253/173 156/248/170
f 168/101/51 169/112/61 161/249/171 160/247/169
f 169/112/61 170/115/64 162/250/172 161/249/171
f 166/107/56 167/102/52 159/246/168 158/254/174
f 163/98/48 122/256/2 41/99/49
f 165/108/57 164/97/47 42/100/50 43/109/58
