# Blender v2.79 (sub 0) OBJ File: 'minigun.blend'
# www.blender.org
mtllib HE_Mini_Minigun_rotatingpart_muzzleflash.mtl
o m_MuzzleFlash_01
v 0.374000 0.574793 1.630825
v -0.376000 -0.175207 1.630826
v 0.374000 -0.175207 1.630825
v -0.376000 0.574793 1.630825
v -0.001000 0.014296 1.220112
v -0.001000 0.574793 1.723317
v -0.001000 -0.175207 1.723317
v -0.001000 0.385289 1.220112
v -0.001000 0.047318 3.720112
v -0.001000 0.352269 3.720112
v 0.184496 0.199793 1.220112
v -0.376000 0.199793 1.723317
v 0.374000 0.199793 1.723317
v -0.186497 0.199793 1.220112
v 0.151475 0.199794 3.720112
v -0.153475 0.199794 3.720112
vt 0.019339 0.976751
vt 0.478529 0.089461
vt 0.019339 0.089461
vt 0.478529 0.976751
vt 0.642363 0.012999
vt 0.503781 0.585382
vt 0.787976 0.016993
vt 0.501784 0.294156
vt 0.996525 0.771372
vt 0.880971 1.002479
vt 0.642363 0.012999
vt 0.503781 0.585382
vt 0.787976 0.016993
vt 0.501784 0.294156
vt 0.996525 0.771372
vt 0.880971 1.002479
vn 0.0000 0.0000 1.0000
vn 1.0000 -0.0000 0.0000
vn 0.0000 1.0000 -0.0000
usemtl None
s 1
f 1/1/1 2/2/1 3/3/1
f 2/2/1 1/1/1 4/4/1
f 5/5/2 6/6/2 7/7/2
f 6/6/2 5/5/2 8/8/2
f 6/6/2 9/9/2 7/7/2
f 9/9/2 6/6/2 10/10/2
f 11/11/3 12/12/3 13/13/3
f 12/12/3 11/11/3 14/14/3
f 12/12/3 15/15/3 13/13/3
f 15/15/3 12/12/3 16/16/3
