# Blender v2.79 (sub 0) OBJ File: ''
# www.blender.org
mtllib VEN_Sphere_Passive.mtl
o m_VEN_Gyro_AllAxis_Active_111_Sphere
v 0.077224 -0.029091 -0.312336
v -0.142145 0.115261 -0.266220
v 0.060030 0.047680 -0.313828
v -0.197786 0.062836 -0.247580
v -0.150059 -0.150269 -0.243443
v -0.077224 -0.174614 -0.260595
v -0.197786 0.062836 -0.247580
v -0.320024 -0.031937 -0.030409
v -0.242800 0.094177 -0.191158
v -0.302830 -0.108707 -0.028919
v -0.177879 -0.195702 -0.185532
v -0.150059 -0.150269 -0.243443
v -0.302830 -0.108707 -0.028919
v -0.137756 -0.275318 0.097885
v -0.292204 -0.129795 0.046144
v -0.092742 -0.306656 0.041464
v -0.122239 -0.248127 -0.166893
v -0.177879 -0.195702 -0.185532
v -0.092742 -0.306656 0.041464
v 0.152771 -0.278538 -0.058636
v -0.019907 -0.314712 0.070135
v 0.142144 -0.257450 -0.133698
v -0.060030 -0.235092 -0.213284
v -0.122239 -0.248127 -0.166893
v 0.142144 -0.257450 -0.133698
v 0.150058 -0.037144 -0.283665
v 0.197786 -0.205025 -0.152338
v 0.077224 -0.029091 -0.312336
v -0.077224 -0.174614 -0.260595
v -0.060030 -0.235092 -0.213284
v 0.197786 -0.205025 -0.152338
v 0.320024 0.005577 -0.043749
v 0.242800 -0.193710 -0.088799
v 0.302830 0.066055 -0.091057
v 0.177879 0.034649 -0.267437
v 0.150058 -0.037144 -0.283665
v 0.302830 0.066055 -0.091057
v 0.137755 0.275318 -0.097900
v 0.292203 0.129795 -0.046158
v 0.092741 0.264004 -0.161440
v 0.122238 0.087074 -0.286077
v 0.177879 0.034649 -0.267437
v 0.092741 0.264004 -0.161440
v -0.152771 0.179001 -0.221317
v 0.019906 0.288349 -0.144291
v -0.142145 0.115261 -0.266220
v 0.060030 0.047680 -0.313828
v 0.122238 0.087074 -0.286077
v -0.242800 0.094177 -0.191158
v -0.214980 0.239143 0.030870
v -0.214980 0.165970 -0.174931
v -0.242800 0.193710 0.088781
v -0.320024 -0.005577 0.043732
v -0.320024 -0.031937 -0.030409
v -0.214980 0.165970 -0.174931
v 0.019906 0.288349 -0.144291
v -0.152771 0.179001 -0.221317
v 0.019907 0.314712 -0.070150
v -0.152771 0.278538 0.058622
v -0.214980 0.239143 0.030870
v 0.292203 0.129795 -0.046158
v 0.177879 0.195702 0.185520
v 0.302830 0.108707 0.028906
v 0.122238 0.248127 0.166876
v 0.092741 0.306656 -0.041477
v 0.137755 0.275318 -0.097900
v 0.122238 0.248127 0.166876
v -0.142145 0.257450 0.133680
v 0.060030 0.235092 0.213270
v -0.152771 0.278538 0.058622
v 0.019907 0.314712 -0.070150
v 0.092741 0.306656 -0.041477
v -0.242800 0.193710 0.088781
v -0.150058 0.037144 0.283649
v -0.197786 0.205025 0.152325
v -0.177879 -0.034649 0.267420
v -0.302830 -0.066055 0.091042
v -0.320024 -0.005577 0.043732
v -0.197786 0.205025 0.152325
v 0.060030 0.235092 0.213270
v -0.142145 0.257450 0.133680
v 0.077224 0.174614 0.260578
v -0.077224 0.029091 0.312323
v -0.150058 0.037144 0.283649
v 0.302830 0.108707 0.028906
v 0.242800 -0.094177 0.191143
v 0.320024 0.031937 0.030394
v 0.197785 -0.062836 0.247562
v 0.150058 0.150269 0.243431
v 0.177879 0.195702 0.185520
v 0.197785 -0.062836 0.247562
v -0.060030 -0.047680 0.313810
v 0.142145 -0.115261 0.266205
v -0.077224 0.029091 0.312323
v 0.077224 0.174614 0.260578
v 0.150058 0.150269 0.243431
v -0.177879 -0.034649 0.267420
v -0.092741 -0.264004 0.161425
v -0.122238 -0.087074 0.286062
v -0.137756 -0.275318 0.097885
v -0.292204 -0.129795 0.046144
v -0.302830 -0.066055 0.091042
v -0.122238 -0.087074 0.286062
v 0.142145 -0.115261 0.266205
v -0.060030 -0.047680 0.313810
v 0.152771 -0.179001 0.221306
v -0.019907 -0.288349 0.144276
v -0.092741 -0.264004 0.161425
v 0.320024 0.031937 0.030394
v 0.242800 -0.193710 -0.088799
v 0.320024 0.005577 -0.043749
v 0.214979 -0.239143 -0.030886
v 0.214979 -0.165970 0.174913
v 0.242800 -0.094177 0.191143
v 0.214979 -0.239143 -0.030886
v -0.019907 -0.314712 0.070135
v 0.152771 -0.278538 -0.058636
v -0.019907 -0.288349 0.144276
v 0.152771 -0.179001 0.221306
v 0.214979 -0.165970 0.174913
v -0.150059 -0.150269 -0.243443
v -0.122239 -0.248127 -0.166893
v -0.177879 -0.195702 -0.185532
v -0.060030 -0.235092 -0.213284
v -0.077224 -0.174614 -0.260595
v 0.150058 -0.037144 -0.283665
v 0.122238 0.087074 -0.286077
v 0.177879 0.034649 -0.267437
v 0.060030 0.047680 -0.313828
v 0.077224 -0.029091 -0.312336
v -0.142145 0.115261 -0.266220
v -0.214980 0.165970 -0.174931
v -0.152771 0.179001 -0.221317
v -0.242800 0.094177 -0.191158
v -0.197786 0.062836 -0.247580
v 0.092741 0.264004 -0.161440
v 0.092741 0.306656 -0.041477
v 0.137755 0.275318 -0.097900
v 0.019907 0.314712 -0.070150
v 0.019906 0.288349 -0.144291
v -0.152771 0.278538 0.058622
v -0.197786 0.205025 0.152325
v -0.142145 0.257450 0.133680
v -0.242800 0.193710 0.088781
v -0.214980 0.239143 0.030870
v 0.122238 0.248127 0.166876
v 0.150058 0.150269 0.243431
v 0.177879 0.195702 0.185520
v 0.077224 0.174614 0.260578
v 0.060030 0.235092 0.213270
v -0.077224 0.029091 0.312323
v -0.122238 -0.087074 0.286062
v -0.060030 -0.047680 0.313810
v -0.177879 -0.034649 0.267420
v -0.150058 0.037144 0.283649
v 0.197785 -0.062836 0.247562
v 0.214979 -0.165970 0.174913
v 0.242800 -0.094177 0.191143
v 0.152771 -0.179001 0.221306
v 0.142145 -0.115261 0.266205
v -0.019907 -0.288349 0.144276
v -0.092742 -0.306656 0.041464
v -0.019907 -0.314712 0.070135
v -0.137756 -0.275318 0.097885
v -0.092741 -0.264004 0.161425
v 0.214979 -0.239143 -0.030886
v 0.197786 -0.205025 -0.152338
v 0.242800 -0.193710 -0.088799
v 0.142144 -0.257450 -0.133698
v 0.152771 -0.278538 -0.058636
v 0.320024 0.005577 -0.043749
v 0.302830 0.108707 0.028906
v 0.320024 0.031937 0.030394
v 0.292203 0.129795 -0.046158
v 0.302830 0.066055 -0.091057
v -0.302830 -0.108707 -0.028919
v -0.320024 -0.005577 0.043732
v -0.320024 -0.031937 -0.030409
v -0.302830 -0.066055 0.091042
v -0.292204 -0.129795 0.046144
vt 0.504447 0.691860
vt 0.512020 0.694111
vt 0.506453 0.690627
vt 0.512019 0.696599
vt 0.506442 0.700037
vt 0.504437 0.698780
vt 0.512019 0.696599
vt 0.511129 0.702952
vt 0.513262 0.697368
vt 0.509119 0.704193
vt 0.505673 0.702049
vt 0.506442 0.700037
vt 0.509119 0.704193
vt 0.500997 0.704916
vt 0.507878 0.704957
vt 0.499759 0.704137
vt 0.503195 0.702034
vt 0.505673 0.702049
vt 0.499759 0.704137
vt 0.495646 0.697248
vt 0.497758 0.702872
vt 0.496883 0.696492
vt 0.502431 0.700013
vt 0.503195 0.702034
vt 0.496883 0.696492
vt 0.502447 0.690593
vt 0.496890 0.693990
vt 0.504447 0.691860
vt 0.504437 0.698780
vt 0.502431 0.700013
vt 0.496890 0.693990
vt 0.497790 0.687619
vt 0.495658 0.693200
vt 0.499792 0.686394
vt 0.503216 0.688579
vt 0.502447 0.690593
vt 0.499792 0.686394
vt 0.507903 0.685693
vt 0.501031 0.685634
vt 0.509140 0.686473
vt 0.505692 0.688600
vt 0.503216 0.688579
vt 0.509140 0.686473
vt 0.513263 0.693343
vt 0.511144 0.687732
vt 0.512020 0.694111
vt 0.506453 0.690627
vt 0.505692 0.688600
vt 0.513262 0.697368
vt 0.514030 0.695357
vt 0.514030 0.695357
vt 0.513262 0.697368
vt 0.511129 0.702952
vt 0.511129 0.702952
vt 0.514030 0.695357
vt 0.511144 0.687732
vt 0.513263 0.693343
vt 0.511144 0.687732
vt 0.513263 0.693343
vt 0.514030 0.695357
vt 0.501031 0.685634
vt 0.503216 0.688579
vt 0.499792 0.686394
vt 0.505692 0.688600
vt 0.509140 0.686473
vt 0.507903 0.685693
vt 0.505692 0.688600
vt 0.512020 0.694111
vt 0.506453 0.690627
vt 0.513263 0.693343
vt 0.511144 0.687732
vt 0.509140 0.686473
vt 0.513262 0.697368
vt 0.506442 0.700037
vt 0.512019 0.696599
vt 0.505673 0.702049
vt 0.509119 0.704193
vt 0.511129 0.702952
vt 0.512019 0.696599
vt 0.506453 0.690627
vt 0.512020 0.694111
vt 0.504447 0.691860
vt 0.504437 0.698780
vt 0.506442 0.700037
vt 0.499792 0.686394
vt 0.495658 0.693200
vt 0.497790 0.687619
vt 0.496890 0.693990
vt 0.502447 0.690593
vt 0.503216 0.688579
vt 0.496890 0.693990
vt 0.502431 0.700013
vt 0.496883 0.696492
vt 0.504437 0.698780
vt 0.504447 0.691860
vt 0.502447 0.690593
vt 0.505673 0.702049
vt 0.499759 0.704137
vt 0.503195 0.702034
vt 0.500997 0.704916
vt 0.507878 0.704957
vt 0.509119 0.704193
vt 0.503195 0.702034
vt 0.496883 0.696492
vt 0.502431 0.700013
vt 0.495646 0.697248
vt 0.497758 0.702872
vt 0.499759 0.704137
vt 0.497790 0.687619
vt 0.495658 0.693200
vt 0.497790 0.687619
vt 0.494888 0.695214
vt 0.494888 0.695214
vt 0.495658 0.693200
vt 0.494888 0.695214
vt 0.497758 0.702872
vt 0.495646 0.697248
vt 0.497758 0.702872
vt 0.495646 0.697248
vt 0.494888 0.695214
vt 0.506442 0.700037
vt 0.503195 0.702034
vt 0.505673 0.702049
vt 0.502431 0.700013
vt 0.504437 0.698780
vt 0.502447 0.690593
vt 0.505692 0.688600
vt 0.503216 0.688579
vt 0.506453 0.690627
vt 0.504447 0.691860
vt 0.512020 0.694111
vt 0.514030 0.695357
vt 0.513263 0.693343
vt 0.513262 0.697368
vt 0.512019 0.696599
vt 0.509140 0.686473
vt 0.509140 0.686473
vt 0.507903 0.685693
vt 0.511144 0.687732
vt 0.511144 0.687732
vt 0.513263 0.693343
vt 0.512019 0.696599
vt 0.512020 0.694111
vt 0.513262 0.697368
vt 0.514030 0.695357
vt 0.505692 0.688600
vt 0.502447 0.690593
vt 0.503216 0.688579
vt 0.504447 0.691860
vt 0.506453 0.690627
vt 0.504437 0.698780
vt 0.503195 0.702034
vt 0.502431 0.700013
vt 0.505673 0.702049
vt 0.506442 0.700037
vt 0.496890 0.693990
vt 0.494888 0.695214
vt 0.495658 0.693200
vt 0.495646 0.697248
vt 0.496883 0.696492
vt 0.497758 0.702872
vt 0.499759 0.704137
vt 0.497758 0.702872
vt 0.500997 0.704916
vt 0.499759 0.704137
vt 0.494888 0.695214
vt 0.496890 0.693990
vt 0.495658 0.693200
vt 0.496883 0.696492
vt 0.495646 0.697248
vt 0.497790 0.687619
vt 0.499792 0.686394
vt 0.497790 0.687619
vt 0.501031 0.685634
vt 0.499792 0.686394
vt 0.509119 0.704193
vt 0.511129 0.702952
vt 0.511129 0.702952
vt 0.509119 0.704193
vt 0.507878 0.704957
vn -0.2523 -0.0752 -0.9647
vn -0.2523 -0.0753 -0.9647
vn -0.8165 -0.1934 -0.5440
vn -0.6606 -0.7419 -0.1149
vn -0.0000 -0.9627 -0.2705
vn 0.0000 -0.9627 -0.2704
vn 0.2523 -0.5507 -0.7957
vn 0.8165 -0.1934 -0.5440
vn 0.6606 0.5028 -0.5575
vn 0.6606 0.5029 -0.5575
vn -0.0000 0.5759 -0.8175
vn -0.9129 0.3847 -0.1368
vn -0.4082 0.8601 -0.3058
vn -0.4082 0.8601 -0.3059
vn -0.4083 0.8601 -0.3058
vn 0.6606 0.7419 0.1149
vn -0.0000 0.9627 0.2705
vn 0.0000 0.9627 0.2704
vn -0.8165 0.1934 0.5440
vn -0.2523 0.5507 0.7957
vn -0.2523 0.5507 0.7956
vn -0.2524 0.5507 0.7957
vn 0.8165 0.1934 0.5440
vn 0.2523 0.0752 0.9647
vn 0.2523 0.0753 0.9647
vn -0.6606 -0.5028 0.5575
vn 0.0000 -0.5759 0.8175
vn 0.9129 -0.3847 0.1368
vn 0.4083 -0.8601 0.3058
vn 0.4082 -0.8601 0.3058
vn -0.3718 -0.6352 -0.6770
vn -0.3717 -0.6352 -0.6770
vn -0.3718 -0.6353 -0.6769
vn 0.3717 0.0653 -0.9260
vn 0.3718 0.0653 -0.9260
vn -0.6015 0.3906 -0.6969
vn -0.6015 0.3907 -0.6969
vn 0.2298 0.9170 -0.3260
vn 0.2297 0.9170 -0.3260
vn 0.2297 0.9170 -0.3261
vn -0.6015 0.7429 0.2938
vn -0.6015 0.7429 0.2939
vn 0.3717 0.6353 0.6770
vn 0.3718 0.6352 0.6770
vn -0.3718 -0.0653 0.9260
vn -0.3717 -0.0653 0.9260
vn 0.6015 -0.3906 0.6969
vn -0.2298 -0.9170 0.3261
vn -0.2298 -0.9170 0.3260
vn -0.2297 -0.9170 0.3260
vn -0.2297 -0.9170 0.3261
vn 0.6015 -0.7429 -0.2938
vn 0.6015 -0.7429 -0.2939
vn 0.9732 0.2165 -0.0770
vn -0.9732 -0.2165 0.0770
vn -0.9733 -0.2165 0.0770
usemtl None
s 1
f 1/1/1 2/2/1 3/3/2
f 1/1/1 4/4/1 2/2/1
f 1/1/1 5/5/1 4/4/1
f 1/1/1 6/6/1 5/5/1
f 7/7/3 8/8/3 9/9/3
f 7/7/3 10/10/3 8/8/3
f 7/7/3 11/11/3 10/10/3
f 7/7/3 12/12/3 11/11/3
f 13/13/4 14/14/4 15/15/4
f 13/13/4 16/16/4 14/14/4
f 13/13/4 17/17/4 16/16/4
f 13/13/4 18/18/4 17/17/4
f 19/19/5 20/20/5 21/21/5
f 19/19/5 22/22/5 20/20/5
f 19/19/5 23/23/6 22/22/5
f 19/19/5 24/24/6 23/23/6
f 25/25/7 26/26/7 27/27/7
f 25/25/7 28/28/7 26/26/7
f 25/25/7 29/29/7 28/28/7
f 25/25/7 30/30/7 29/29/7
f 31/31/8 32/32/8 33/33/8
f 31/31/8 34/34/8 32/32/8
f 31/31/8 35/35/8 34/34/8
f 31/31/8 36/36/8 35/35/8
f 37/37/9 38/38/9 39/39/9
f 37/37/9 40/40/9 38/38/9
f 37/37/9 41/41/10 40/40/9
f 37/37/9 42/42/10 41/41/10
f 43/43/11 44/44/11 45/45/11
f 43/43/11 46/46/11 44/44/11
f 43/43/11 47/47/11 46/46/11
f 43/43/11 48/48/11 47/47/11
f 49/49/12 50/50/12 51/51/12
f 49/49/12 52/52/12 50/50/12
f 49/49/12 53/53/12 52/52/12
f 49/49/12 54/54/12 53/53/12
f 55/55/13 56/56/13 57/57/14
f 55/55/13 58/58/13 56/56/13
f 55/55/13 59/59/15 58/58/13
f 55/55/13 60/60/15 59/59/15
f 61/61/16 62/62/16 63/63/16
f 61/61/16 64/64/16 62/62/16
f 61/61/16 65/65/16 64/64/16
f 61/61/16 66/66/16 65/65/16
f 67/67/17 68/68/17 69/69/17
f 67/67/17 70/70/17 68/68/17
f 67/67/17 71/71/18 70/70/17
f 67/67/17 72/72/18 71/71/18
f 73/73/19 74/74/19 75/75/19
f 73/73/19 76/76/19 74/74/19
f 73/73/19 77/77/19 76/76/19
f 73/73/19 78/78/19 77/77/19
f 79/79/20 80/80/20 81/81/21
f 79/79/20 82/82/20 80/80/20
f 79/79/20 83/83/20 82/82/20
f 79/79/20 84/84/22 83/83/20
f 85/85/23 86/86/23 87/87/23
f 85/85/23 88/88/23 86/86/23
f 85/85/23 89/89/23 88/88/23
f 85/85/23 90/90/23 89/89/23
f 91/91/24 92/92/24 93/93/25
f 91/91/24 94/94/24 92/92/24
f 91/91/24 95/95/24 94/94/24
f 91/91/24 96/96/24 95/95/24
f 97/97/26 98/98/26 99/99/26
f 97/97/26 100/100/26 98/98/26
f 97/97/26 101/101/26 100/100/26
f 97/97/26 102/102/26 101/101/26
f 103/103/27 104/104/27 105/105/27
f 103/103/27 106/106/27 104/104/27
f 103/103/27 107/107/27 106/106/27
f 103/103/27 108/108/27 107/107/27
f 109/109/28 110/110/28 111/111/28
f 109/109/28 112/112/28 110/110/28
f 109/109/28 113/113/28 112/112/28
f 109/109/28 114/114/28 113/113/28
f 115/115/29 116/116/29 117/117/29
f 115/115/29 118/118/29 116/116/29
f 115/115/29 119/119/30 118/118/29
f 115/115/29 120/120/30 119/119/30
f 121/121/31 122/122/32 123/123/31
f 121/121/31 124/124/32 122/122/32
f 121/121/31 125/125/33 124/124/32
f 126/126/34 127/127/34 128/128/34
f 126/126/34 129/129/35 127/127/34
f 126/126/34 130/130/34 129/129/35
f 131/131/36 132/132/36 133/133/37
f 131/131/36 134/134/36 132/132/36
f 131/131/36 135/135/36 134/134/36
f 136/136/38 137/137/38 138/138/39
f 136/136/38 139/139/38 137/137/38
f 136/136/38 140/140/40 139/139/38
f 141/141/41 142/142/41 143/143/42
f 141/141/41 144/144/41 142/142/41
f 141/141/41 145/145/41 144/144/41
f 146/146/43 147/147/43 148/148/43
f 146/146/43 149/149/43 147/147/43
f 146/146/43 150/150/44 149/149/43
f 151/151/45 152/152/45 153/153/46
f 151/151/45 154/154/45 152/152/45
f 151/151/45 155/155/45 154/154/45
f 156/156/47 157/157/47 158/158/47
f 156/156/47 159/159/47 157/157/47
f 156/156/47 160/160/47 159/159/47
f 161/161/48 162/162/49 163/163/48
f 161/161/48 164/164/50 162/162/49
f 161/161/48 165/165/51 164/164/50
f 166/166/52 167/167/52 168/168/52
f 166/166/52 169/169/52 167/167/52
f 166/166/52 170/170/53 169/169/52
f 171/171/54 172/172/54 173/173/54
f 171/171/54 174/174/54 172/172/54
f 171/171/54 175/175/54 174/174/54
f 176/176/55 177/177/55 178/178/55
f 176/176/55 179/179/55 177/177/55
f 176/176/55 180/180/56 179/179/55
