# This file uses centimeters as units for non-parametric coordinates.

g default
v 0.323234 0.300275 0.173364
v 0.426764 0.300275 0.173364
v 0.173364 0.300275 0.426765
v 0.173364 0.300275 0.323235
v 0.426765 0.000000 0.346728
v 0.346728 -0.000000 0.426764
v 0.140642 0.243600 0.250000
v 0.249999 0.243600 0.140642
v 0.140642 -0.250000 0.250000
v 0.249999 -0.250000 0.140642
v 0.249999 -0.500000 -0.500000
v 0.249999 -0.250000 0.249999
v -0.500000 -0.500000 0.249999
v -0.500000 -0.500000 -0.373826
v -0.373826 -0.500000 -0.500000
v -0.425007 -0.250000 0.249999
v -0.500000 -0.324992 0.249999
v -0.425007 -0.250000 -0.298834
v -0.500000 -0.324992 -0.373826
v 0.249999 -0.324992 -0.500000
v 0.249999 -0.250000 -0.425007
v -0.298834 -0.250000 -0.425007
v -0.373826 -0.324992 -0.500000
v 0.067322 -0.500000 0.249999
v 0.249999 -0.500000 0.067322
v -0.500000 -0.500000 0.249999
v -0.500000 -0.073227 0.249999
v -0.335372 -0.073227 0.500000
v -0.500000 -0.000000 0.323230
v -0.500000 -0.000000 0.335372
v -0.408603 -0.000000 0.426769
v -0.335372 -0.412956 0.500000
v -0.500000 -0.500000 0.335372
v 0.249999 -0.073227 -0.500000
v 0.249999 -0.500000 -0.500000
v 0.335372 -0.500000 -0.500000
v 0.500000 -0.412956 -0.335372
v 0.500000 -0.073227 -0.335371
v 0.335372 -0.000000 -0.500000
v 0.323230 -0.000000 -0.500000
v 0.426769 -0.000000 -0.408602
v 0.323230 -0.000000 -0.346725
v 0.249999 -0.243600 0.140643
v 0.249999 -0.073227 -0.239006
v 0.249999 -0.243600 -0.140642
v 0.426769 0.000000 -0.346725
v 0.500000 -0.243600 -0.140642
v 0.500000 -0.073227 -0.239006
v 0.499999 -0.243600 0.140643
v 0.500000 -0.073227 0.239007
v -0.346725 -0.000000 0.323230
v 0.140642 -0.243600 0.250000
v -0.239006 -0.073227 0.249999
v -0.140642 -0.243600 0.250000
v -0.346725 0.000000 0.426769
v -0.140642 -0.243600 0.500000
v -0.239007 -0.073227 0.500000
v 0.140642 -0.243600 0.500000
v 0.239006 -0.073227 0.500000
v 0.500000 -0.412956 0.335372
v 0.335372 -0.412956 0.500000
v 0.335371 -0.500000 0.152695
v 0.152694 -0.500000 0.335372
v 0.335372 -0.073227 0.500000
v 0.500000 -0.073227 0.335372
v 0.067322 -0.500000 0.249999
v 0.199323 -0.381183 0.249999
v 0.249999 -0.381183 0.199323
v 0.249999 -0.500000 0.067322
v 0.426765 0.000000 0.346728
v 0.346728 -0.000000 0.426764
v 0.239006 -0.073227 0.500000
v 0.281284 -0.000000 0.500000
v 0.500000 -0.073227 0.239007
v 0.499999 0.000000 0.281284
v -0.125000 -0.500000 0.125000
v 0.000000 -0.585772 0.000000
v 0.125000 -0.500000 0.125000
v -0.125000 -0.500000 -0.125000
v 0.125000 -0.500000 -0.125000
v 0.173364 0.300275 0.323235
v -0.173364 -0.300275 0.323235
v -0.346728 -0.000000 0.323235
v -0.173364 0.300275 0.323235
v 0.140642 0.243600 0.250000
v 0.140642 -0.243600 0.250000
v -0.140642 -0.243600 0.249999
v -0.281284 -0.000000 0.249999
v -0.140642 0.243600 0.250000
v -0.173364 0.300275 0.426765
v -0.346728 0.000000 0.426765
v -0.173364 -0.300275 0.426765
v 0.346728 -0.000000 0.426764
v 0.173364 0.300275 0.426765
v -0.140642 0.243600 0.500000
v -0.281284 0.000000 0.500000
v -0.140642 -0.243600 0.500000
v 0.140642 -0.243600 0.500000
v 0.281284 -0.000000 0.500000
v 0.140642 0.243600 0.500000
v 0.323235 0.300275 -0.173364
v 0.323234 0.000000 -0.346728
v 0.323234 -0.300275 -0.173364
v 0.323234 0.300275 0.173364
v 0.250000 0.243600 -0.140642
v 0.250000 0.000000 -0.281284
v 0.249999 -0.243600 -0.140642
v 0.249999 -0.243600 0.140642
v 0.249999 0.243600 0.140642
v 0.426764 0.300275 0.173364
v 0.426765 0.000000 0.346728
v 0.426764 -0.300275 -0.173364
v 0.426764 -0.000000 -0.346728
v 0.426764 0.300275 -0.173364
v 0.500000 0.243600 0.140642
v 0.499999 0.000000 0.281284
v 0.500000 -0.243600 0.140642
v 0.500000 -0.243600 -0.140642
v 0.500000 -0.000000 -0.281284
v 0.500000 0.243600 -0.140642
vt 0.374384 0.848614
vt 0.360351 0.834580
vt 0.360351 0.824886
vt 0.384079 0.848614
vt 0.367527 0.851678
vt 0.357287 0.841438
vt 0.342786 0.824678
vt 0.342786 0.796560
vt 0.350281 0.796560
vt 0.366515 0.824678
vt 0.257304 0.811781
vt 0.247937 0.811781
vt 0.247937 0.780511
vt 0.257304 0.780511
vt 0.126206 0.729348
vt 0.126205 0.724568
vt 0.161187 0.724568
vt 0.165967 0.729348
vt 0.169229 0.716526
vt 0.174009 0.721305
vt 0.169229 0.681544
vt 0.174009 0.681544
vt 0.387402 0.837006
vt 0.387402 0.856301
vt 0.318625 0.856301
vt 0.318625 0.837006
vt 0.197511 0.861775
vt 0.202756 0.810903
vt 0.208000 0.861775
vt 0.401313 0.856301
vt 0.401313 0.837006
vt 0.470089 0.837006
vt 0.470089 0.856301
vt 0.152205 0.855270
vt 0.202260 0.855270
vt 0.183328 0.874202
vt 0.171136 0.874202
vt 0.173022 0.834453
vt 0.181443 0.834453
vt 0.174697 0.838961
vt 0.230814 0.838961
vt 0.146487 0.806070
vt 0.152345 0.810212
vt 0.159656 0.810212
vt 0.159656 0.781929
vt 0.358607 0.863426
vt 0.360118 0.863426
vt 0.369236 0.854309
vt 0.358607 0.801175
vt 0.369236 0.801175
vt 0.146487 0.786853
vt 0.369236 0.854309
vt 0.358607 0.801175
vt 0.369236 0.801175
vt 0.146517 0.786869
vt 0.159656 0.781929
vt 0.146494 0.806068
vt 0.358607 0.863426
vt 0.360118 0.863426
vt 0.159656 0.810212
vt 0.152345 0.810212
vt 0.337437 0.815724
vt 0.337437 0.812557
vt 0.377425 0.812557
vt 0.140349 0.836491
vt 0.155624 0.836491
vt 0.155624 0.811575
vt 0.134593 0.826623
vt 0.437661 0.895486
vt 0.422376 0.885096
vt 0.400628 0.885096
vt 0.400628 0.895486
vt 0.377425 0.839569
vt 0.361282 0.839569
vt 0.145989 0.816657
vt 0.145989 0.836491
vt 0.140349 0.836491
vt 0.134593 0.826623
vt 0.413596 0.870404
vt 0.422376 0.870404
vt 0.437661 0.860013
vt 0.423987 0.860013
vt 0.337437 0.815724
vt 0.377425 0.812557
vt 0.337437 0.812557
vt 0.140349 0.836491
vt 0.134593 0.826623
vt 0.155624 0.811575
vt 0.155624 0.836491
vt 0.437661 0.895486
vt 0.400628 0.895486
vt 0.400628 0.885096
vt 0.422376 0.885096
vt 0.361282 0.839569
vt 0.377425 0.839569
vt 0.145989 0.816657
vt 0.134593 0.826623
vt 0.140349 0.836491
vt 0.145989 0.836491
vt 0.413596 0.870404
vt 0.423987 0.860013
vt 0.437661 0.860013
vt 0.422376 0.870404
vt 0.114738 0.818548
vt 0.122711 0.811575
vt 0.117777 0.826623
vt 0.122711 0.811575
vt 0.114738 0.818548
vt 0.117777 0.826623
vt 0.133156 0.690651
vt 0.145518 0.690651
vt 0.146196 0.704485
vt 0.132479 0.704485
vt 0.195382 0.820592
vt 0.209005 0.820592
vt 0.209005 0.840472
vt 0.195382 0.840472
vt 0.212142 0.859513
vt 0.198209 0.859513
vt 0.198209 0.853001
vt 0.212142 0.853001
vt 0.138889 0.712371
vt 0.138889 0.734958
vt 0.144636 0.729211
vt 0.144636 0.706426
vt 0.107514 0.816657
vt 0.117777 0.826623
vt 0.112021 0.836491
vt 0.107437 0.836491
vt 0.229256 0.776506
vt 0.223882 0.781717
vt 0.189763 0.781717
vt 0.189763 0.776506
vt 0.138889 0.712371
vt 0.144636 0.706426
vt 0.144636 0.729211
vt 0.138889 0.734958
vt 0.117777 0.826623
vt 0.107514 0.816657
vt 0.107437 0.836491
vt 0.112021 0.836491
vt 0.229255 0.776506
vt 0.189763 0.776506
vt 0.189763 0.781717
vt 0.223882 0.781717
vt 0.440812 0.791995
vt 0.465813 0.791995
vt 0.459390 0.801155
vt 0.447235 0.801155
vt 0.436692 0.800860
vt 0.430672 0.794063
vt 0.475952 0.794063
vt 0.469932 0.800861
vt 0.047922 0.999546
vt 0.024456 0.976080
vt 0.000990 0.999546
vt 0.047922 0.952614
vt 0.000990 0.952614
vt 0.134680 0.887277
vt 0.134680 0.857075
vt 0.143219 0.871863
vt 0.353419 0.858743
vt 0.337951 0.855907
vt 0.337951 0.885869
vt 0.353448 0.883029
vt 0.325675 0.845709
vt 0.310214 0.840816
vt 0.310214 0.866764
vt 0.325688 0.866764
vt 0.310214 0.892711
vt 0.325712 0.887819
vt 0.134680 0.857075
vt 0.143219 0.871863
vt 0.109067 0.871863
vt 0.117604 0.857075
vt 0.134680 0.887277
vt 0.117602 0.887278
vt 0.353448 0.858747
vt 0.337951 0.855907
vt 0.337951 0.885869
vt 0.353419 0.883033
vt 0.325675 0.845709
vt 0.310214 0.840816
vt 0.310214 0.866764
vt 0.325688 0.866764
vt 0.325675 0.845709
vt 0.310214 0.840816
vt 0.310214 0.866764
vt 0.325688 0.866764
vt 0.310214 0.892711
vt 0.325712 0.887819
vt 0.381121 0.799862
vt 0.381121 0.811550
vt 0.437210 0.811550
vt 0.437210 0.799862
vt 0.437210 0.799862
vt 0.437210 0.811550
vt 0.465255 0.811550
vt 0.465255 0.799862
vt 0.465255 0.811550
vt 0.465255 0.799861
vt 0.353448 0.858747
vt 0.337951 0.855907
vt 0.337951 0.885869
vt 0.353419 0.883033
vt 0.325675 0.845709
vt 0.310214 0.840816
vt 0.310214 0.866764
vt 0.325688 0.866764
vt 0.325688 0.866764
vt 0.310214 0.866764
vt 0.310214 0.892711
vt 0.325712 0.887819
vt 0.134680 0.857075
vt 0.143219 0.871863
vt 0.109067 0.871863
vt 0.117604 0.857075
vt 0.134680 0.887277
vt 0.117602 0.887278
vt 0.353448 0.858747
vt 0.337951 0.855907
vt 0.337951 0.885869
vt 0.353419 0.883033
vt 0.353419 0.858743
vt 0.337951 0.855907
vt 0.337951 0.885869
vt 0.353448 0.883029
vt 0.325675 0.845709
vt 0.310214 0.840816
vt 0.310214 0.866764
vt 0.325688 0.866764
vt 0.310214 0.892711
vt 0.325712 0.887819
vt 0.381121 0.799862
vt 0.381121 0.811550
vt 0.437210 0.811550
vt 0.437210 0.799862
vt 0.353076 0.811550
vt 0.353076 0.799862
vt 0.353076 0.799861
vt 0.353076 0.811550
vt 0.381121 0.811550
vt 0.381121 0.799862
vt 0.117602 0.887278
vt 0.117604 0.857075
vt 0.134680 0.857075
vt 0.134680 0.887277
vt 0.117602 0.887278
vt 0.117604 0.857075
vt 0.109067 0.871863
vn 0.000000 1.000000 0.000000
vn 0.000000 1.000000 0.000000
vn 0.000000 1.000000 0.000000
vn 0.000000 1.000000 0.000000
vn 0.654653 0.377966 0.654653
vn 0.654653 0.377966 0.654653
vn 0.654653 0.377966 0.654653
vn 0.654653 0.377966 0.654653
vn -0.426590 0.797523 -0.426589
vn -0.426590 0.797523 -0.426589
vn -0.426590 0.797523 -0.426589
vn -0.426590 0.797523 -0.426589
vn -0.707107 0.000000 -0.707106
vn -0.707107 0.000000 -0.707106
vn -0.707107 0.000000 -0.707106
vn -0.707107 0.000000 -0.707106
vn -0.707106 0.707107 0.000000
vn -0.707106 0.707107 0.000000
vn -0.707106 0.707107 0.000000
vn -0.707106 0.707107 0.000000
vn -0.408248 0.816497 -0.408248
vn -0.408248 0.816497 -0.408248
vn -0.408248 0.816497 -0.408248
vn -0.408248 0.816497 -0.408248
vn 0.000000 0.707107 -0.707107
vn 0.000000 0.707107 -0.707107
vn 0.000000 0.707107 -0.707107
vn 0.000000 0.707107 -0.707107
vn 0.000000 0.000000 -1.000000
vn 0.000000 0.000000 -1.000000
vn 0.000000 0.000000 -1.000000
vn 0.000000 0.000000 -1.000000
vn 0.000000 1.000000 0.000000
vn 0.000000 1.000000 0.000000
vn 0.000000 1.000000 0.000000
vn -1.000000 0.000000 0.000000
vn -1.000000 0.000000 0.000000
vn -1.000000 0.000000 0.000000
vn -1.000000 0.000000 0.000000
vn -0.707107 0.000000 -0.707107
vn -0.707107 0.000000 -0.707107
vn -0.707107 0.000000 -0.707107
vn -0.707107 0.000000 -0.707107
vn 0.000000 -1.000000 0.000000
vn 0.000000 -1.000000 0.000000
vn 0.000000 -1.000000 0.000000
vn 0.000000 -1.000000 0.000000
vn 0.000000 -1.000000 0.000000
vn 0.000000 -1.000000 0.000000
vn 0.000000 1.000000 0.000000
vn 0.000000 1.000000 0.000000
vn -0.707107 0.000000 0.707107
vn -0.707107 0.000000 0.707107
vn -0.707107 0.000000 0.707107
vn -0.707107 0.000000 0.707107
vn -1.000000 0.000000 0.000000
vn -1.000000 0.000000 0.000000
vn -1.000000 0.000000 0.000000
vn -1.000000 0.000000 0.000000
vn -1.000000 0.000000 0.000000
vn -1.000000 0.000000 0.000000
vn -1.000000 0.000000 0.000000
vn -0.707108 0.000000 0.707106
vn -0.707108 0.000000 0.707106
vn -0.707108 0.000000 0.707106
vn -0.000000 0.000000 -1.000000
vn -0.000000 0.000000 -1.000000
vn -0.000000 0.000000 -1.000000
vn 0.707106 0.000001 -0.707108
vn 0.707106 0.000001 -0.707108
vn 0.707106 0.000001 -0.707108
vn 0.000000 0.000000 -1.000000
vn 0.000000 0.000000 -1.000000
vn 0.000000 0.000000 -1.000000
vn 0.000000 0.000000 -1.000000
vn 0.707107 0.000000 -0.707107
vn 0.707107 0.000000 -0.707107
vn 0.707107 0.000000 -0.707107
vn 0.707107 0.000000 -0.707107
vn 0.000000 1.000000 0.000000
vn 0.000000 1.000000 0.000000
vn 0.000000 1.000000 0.000000
vn -1.000000 -0.000000 0.000001
vn -1.000000 -0.000000 0.000001
vn -1.000000 0.000001 0.000000
vn -1.000000 0.000001 0.000000
vn -0.707090 0.707124 0.000000
vn -0.707090 0.707124 0.000000
vn -0.707090 0.707124 0.000000
vn -0.707090 0.707124 0.000000
vn -0.000000 1.000000 0.000000
vn -0.000000 1.000000 0.000000
vn -0.000000 1.000000 0.000000
vn -0.000000 1.000000 0.000000
vn 1.000000 0.000001 0.000000
vn 1.000000 0.000000 0.000001
vn 1.000000 0.000000 0.000001
vn 1.000000 0.000002 -0.000000
vn 0.707088 0.707125 0.000000
vn 0.707088 0.707125 0.000000
vn 0.707088 0.707125 0.000000
vn 0.707088 0.707125 0.000000
vn 0.000000 1.000000 0.000000
vn 0.000000 1.000000 0.000000
vn 0.000000 1.000000 0.000000
vn 0.000001 -0.000000 -1.000000
vn 0.000000 0.000001 -1.000000
vn 0.000001 0.000001 -1.000000
vn 0.000001 -0.000000 -1.000000
vn 0.000001 0.707124 -0.707089
vn 0.000001 0.707124 -0.707089
vn 0.000001 0.707124 -0.707089
vn 0.000001 0.707124 -0.707089
vn -0.000000 1.000000 -0.000001
vn -0.000000 1.000000 -0.000001
vn -0.000000 1.000000 -0.000001
vn -0.000000 1.000000 -0.000001
vn -0.000000 0.000001 1.000000
vn -0.000000 0.000001 1.000000
vn 0.000001 0.000000 1.000000
vn 0.000001 0.000000 1.000000
vn -0.000000 0.707126 0.707088
vn -0.000000 0.707126 0.707088
vn -0.000000 0.707126 0.707088
vn -0.000000 0.707126 0.707088
vn -0.000000 0.000002 -1.000000
vn -0.000000 0.000002 -1.000000
vn -0.000000 0.000002 -1.000000
vn -1.000000 0.000002 -0.000000
vn -1.000000 0.000002 -0.000000
vn -1.000000 0.000002 -0.000000
vn 0.353578 -0.927259 0.123183
vn 0.123183 -0.927259 0.353578
vn 0.049405 -0.939238 0.339693
vn 0.339693 -0.939238 0.049405
vn 0.707107 0.000000 0.707107
vn 0.707107 0.000000 0.707107
vn 0.707107 0.000000 0.707107
vn 0.707107 0.000000 0.707107
vn 0.000000 -1.000000 0.000000
vn 0.000000 -1.000000 0.000000
vn 0.269843 -0.962904 0.000000
vn 0.467415 -0.884038 0.000000
vn 1.000000 0.000002 -0.000000
vn 1.000000 0.000002 -0.000000
vn 1.000000 0.000002 -0.000000
vn 1.000000 0.000002 -0.000000
vn 0.000000 -1.000000 0.000000
vn -0.000000 -0.884038 0.467414
vn 0.000000 -0.962904 0.269843
vn -0.000001 0.000002 1.000000
vn -0.000001 0.000002 1.000000
vn -0.000001 0.000002 1.000000
vn -0.000001 0.000002 1.000000
vn 0.000000 -1.000000 0.000000
vn 0.607001 0.512930 0.607002
vn 0.607001 0.512930 0.607002
vn 0.607001 0.512930 0.607002
vn 0.607001 0.512930 0.607002
vn 0.394448 0.291348 0.871508
vn 0.394448 0.291348 0.871508
vn 0.394448 0.291348 0.871508
vn 0.394449 0.291348 0.871508
vn 0.871510 0.291351 0.394443
vn 0.871510 0.291351 0.394443
vn 0.871510 0.291351 0.394443
vn 0.871510 0.291351 0.394443
vn 0.000000 -0.824553 0.565785
vn 0.000000 -0.824553 0.565785
vn 0.000000 -0.824553 0.565785
vn 0.000000 -0.824553 -0.565785
vn 0.000000 -0.824553 -0.565785
vn 0.000000 -0.824553 -0.565785
vn 0.565785 -0.824553 0.000000
vn 0.565785 -0.824553 0.000000
vn 0.565785 -0.824553 0.000000
vn -0.565785 -0.824553 0.000000
vn -0.565785 -0.824553 0.000000
vn -0.565785 -0.824553 0.000000
vn 0.000001 0.000001 -1.000000
vn 0.000001 0.000001 -1.000000
vn 0.000001 0.000001 -1.000000
vn -0.684890 -0.395422 -0.612019
vn -0.684890 -0.395422 -0.612019
vn -0.684890 -0.395422 -0.612019
vn -0.684890 -0.395422 -0.612019
vn -0.684890 0.395421 -0.612020
vn -0.684890 0.395421 -0.612020
vn -0.684890 0.395421 -0.612020
vn -0.684890 0.395421 -0.612020
vn 0.000000 0.790843 -0.612020
vn 0.000000 0.790843 -0.612020
vn 0.000000 0.790843 -0.612020
vn 0.000000 0.790843 -0.612020
vn -0.000001 0.000001 1.000000
vn -0.000001 0.000001 1.000000
vn -0.000001 0.000001 1.000000
vn -0.000001 0.000001 1.000000
vn -0.000001 0.000000 1.000000
vn -0.000001 0.000000 1.000000
vn -0.000001 0.000000 1.000000
vn -0.000001 0.000000 1.000000
vn -0.684886 0.395420 0.612024
vn -0.684886 0.395420 0.612024
vn -0.684886 0.395420 0.612024
vn -0.684886 0.395420 0.612024
vn -0.684886 -0.395420 0.612025
vn -0.684886 -0.395420 0.612025
vn -0.684886 -0.395420 0.612025
vn -0.684886 -0.395420 0.612024
vn 0.684890 0.395421 0.612020
vn 0.684890 0.395421 0.612020
vn 0.684890 0.395421 0.612020
vn 0.684890 0.395421 0.612020
vn -0.000000 0.790843 0.612020
vn -0.000000 0.790843 0.612020
vn -0.000000 0.790843 0.612020
vn -0.000000 0.790843 0.612020
vn 0.000000 1.000000 0.000000
vn 0.000000 1.000000 0.000000
vn 0.000000 1.000000 0.000000
vn 0.000000 1.000000 0.000000
vn -0.866025 -0.500001 0.000000
vn -0.866025 -0.500001 0.000000
vn -0.866025 -0.500001 0.000000
vn -0.866025 -0.500001 0.000000
vn -0.866024 0.500002 0.000000
vn -0.866025 0.500002 0.000000
vn -0.866025 0.500002 0.000000
vn -0.866024 0.500002 0.000000
vn -0.612024 0.395421 -0.684886
vn -0.612024 0.395421 -0.684886
vn -0.612024 0.395421 -0.684886
vn -0.612024 0.395421 -0.684886
vn -0.612024 -0.395420 -0.684886
vn -0.612024 -0.395420 -0.684886
vn -0.612024 -0.395420 -0.684886
vn -0.612024 -0.395420 -0.684886
vn -0.612020 0.790842 -0.000000
vn -0.612020 0.790842 -0.000000
vn -0.612020 0.790842 -0.000000
vn -0.612020 0.790842 -0.000000
vn 1.000000 0.000001 0.000001
vn 1.000000 0.000001 0.000001
vn 1.000000 0.000001 0.000001
vn 1.000000 0.000001 0.000001
vn 1.000000 0.000000 0.000001
vn 1.000000 0.000000 0.000001
vn 1.000000 0.000000 0.000001
vn 1.000000 0.000000 0.000001
vn 0.612024 0.395421 0.684886
vn 0.612024 0.395421 0.684886
vn 0.612024 0.395421 0.684886
vn 0.612024 0.395421 0.684886
vn 0.612019 -0.395422 -0.684890
vn 0.612019 -0.395422 -0.684890
vn 0.612019 -0.395422 -0.684890
vn 0.612019 -0.395422 -0.684890
vn 0.612019 0.395421 -0.684890
vn 0.612019 0.395421 -0.684890
vn 0.612019 0.395421 -0.684890
vn 0.612019 0.395421 -0.684890
vn 0.612019 0.790843 0.000000
vn 0.612019 0.790843 0.000000
vn 0.612019 0.790843 0.000000
vn 0.612019 0.790843 0.000000
vn 0.000000 1.000000 0.000000
vn 0.000000 1.000000 0.000000
vn 0.000000 1.000000 0.000000
vn 0.000000 1.000000 0.000000
vn 0.000000 0.500002 -0.866024
vn 0.000000 0.500002 -0.866025
vn 0.000000 0.500002 -0.866024
vn 0.000000 0.500002 -0.866025
vn -0.000000 -0.500001 -0.866025
vn -0.000000 -0.500001 -0.866025
vn -0.000000 -0.500001 -0.866025
vn -0.000000 -0.500001 -0.866025
vn -1.000000 0.000001 -0.000001
vn -1.000000 0.000001 -0.000001
vn -1.000000 0.000001 -0.000001
vn -1.000000 0.000001 -0.000001
vn 0.000001 0.000001 -1.000000
vn 0.000001 0.000001 -1.000000
vn -1.000000 0.000001 -0.000001
s off
g geo_body
f 1/1/1 4/2/2 3/3/3 2/4/4
f 3/7/5 6/8/6 5/9/7 2/10/8
f 1/1/9 8/5/10 7/6/11 4/2/12
f 7/11/13 8/12/14 10/13/15 9/14/16
f 17/15/17 16/16/18 18/17/19 19/18/20
f 19/18/21 18/17/22 22/19/23 23/20/24
f 21/21/25 20/22/26 23/20/27 22/19/28
f 15/23/29 23/24/30 20/25/31 11/26/32
s 1
f 18/27/33 12/28/34 22/29/35
s off
f 19/30/36 14/31/37 13/32/38 17/33/39
f 19/30/40 23/24/41 15/23/42 14/31/43
s 2
f 13/34/44 11/35/45 25/36/46 24/37/47
f 14/38/48 15/39/49 11/35/45 13/34/44
s 1
f 18/27/33 16/40/50 12/28/34
f 22/29/35 12/28/34 21/41/51
s off
f 28/42/52 31/43/53 30/44/54 33/45/55
f 30/46/56 29/47/57 27/48/58 33/49/59
f 27/48/60 26/50/61 33/49/62
f 32/51/63 28/42/64 33/45/65
f 34/52/66 36/53/67 35/54/68
f 37/55/69 36/56/70 38/57/71
f 39/58/72 36/53/73 34/52/74 40/59/75
f 38/57/76 36/56/77 39/60/78 41/61/79
f 39/62/80 40/63/81 42/64/82
s 3
f 44/65/83 34/66/84 35/67/85 45/68/86
s off
f 44/69/87 42/70/88 40/71/89 34/72/90
f 39/62/91 42/64/92 46/73/93 41/74/94
s 4
f 37/75/95 38/76/96 48/77/97 47/78/98
s off
f 41/79/99 46/80/100 48/81/101 38/82/102
f 30/83/103 51/84/104 29/85/105
s 5
f 53/86/106 54/87/107 26/88/108 27/89/109
s off
f 53/90/110 27/91/111 29/92/112 51/93/113
f 30/83/114 31/94/115 55/95/116 51/84/117
s 6
f 32/96/118 56/97/119 57/98/120 28/99/121
s off
f 31/100/122 28/101/123 57/102/124 55/103/125
s 5
f 67/104/126 66/105/127 26/88/108 54/87/107 52/106/128
s 3
f 69/107/129 68/108/130 43/109/131 45/68/86 35/67/85
s 7
f 60/110/132 61/111/133 63/112/134 62/113/135
s off
f 61/114/136 60/115/137 65/116/138 64/117/139
s 7
f 62/118/135 63/119/134 66/120/140 69/121/141
f 62/122/135 36/123/142 37/124/143 60/125/132
s 4
f 60/126/144 37/75/95 47/78/98 49/127/145 50/128/146 65/129/147
s 7
f 62/130/135 69/131/141 35/132/148 36/133/142
f 63/134/134 61/135/133 32/136/149 33/137/150
s 6
f 58/138/151 56/97/119 32/96/118 61/139/152 64/140/153 59/141/154
s 7
f 63/142/134 33/143/150 26/144/155 66/145/140
s off
f 64/146/156 65/147/157 70/148/158 71/149/159
f 64/146/160 71/149/161 73/150/162 72/151/163
f 70/148/164 65/147/165 74/152/166 75/153/167
f 76/154/168 77/155/169 78/156/170
f 77/155/171 79/157/172 80/158/173
f 78/156/174 77/155/175 80/158/176
f 79/157/177 77/155/178 76/154/179
s 8
f 89/159/180 87/160/181 88/161/182
s off
f 87/162/183 82/163/184 83/164/185 88/165/186
f 88/166/187 83/167/188 84/168/189 89/169/190
f 89/169/191 84/168/192 81/170/193 85/171/194
f 98/172/195 99/173/196 96/174/197 97/175/198
f 100/176/199 95/177/200 96/174/201 99/173/202
f 95/178/203 90/179/204 91/180/205 96/181/206
f 96/182/207 91/183/208 92/184/209 97/185/210
f 99/186/211 93/187/212 94/188/213 100/189/214
f 100/189/215 94/188/216 90/190/217 95/191/218
f 94/192/219 81/193/220 84/194/221 90/195/222
f 82/196/223 92/197/224 91/198/225 83/199/226
f 84/194/227 83/200/228 91/201/229 90/195/230
f 105/202/231 101/203/232 102/204/233 106/205/234
f 106/206/235 102/207/236 103/208/237 107/209/238
f 109/210/239 104/211/240 101/212/241 105/213/242
f 118/214/243 119/215/244 116/216/245 117/217/246
f 120/218/247 115/219/248 116/216/249 119/215/250
f 115/220/251 110/221/252 111/222/253 116/223/254
f 118/224/255 112/225/256 113/226/257 119/227/258
f 119/228/259 113/229/260 114/230/261 120/231/262
f 120/231/263 114/230/264 110/232/265 115/233/266
f 114/234/267 101/235/268 104/236/269 110/237/270
f 102/238/271 101/235/272 114/234/273 113/239/274
f 102/240/275 113/241/276 112/242/277 103/243/278
s 9
f 105/244/279 107/245/280 108/246/281 109/247/282
s 8
f 85/248/283 86/249/284 87/160/181 89/159/180
s 9
f 106/250/285 107/245/280 105/244/279
