# Blender v2.79 (sub 0) OBJ File: ''
# www.blender.org
mtllib HE_Windmill_Base_Capacitor.mtl
o Cube_Cube.000
v 0.500000 0.500000 0.500000
v 0.500000 1.250000 0.500000
v 0.500000 1.250000 -0.500000
v 0.500000 0.500000 -0.500000
v 1.500000 1.250000 -0.500000
v 2.000000 0.500000 -0.500000
v 1.500000 1.250000 0.500000
v 2.000000 0.500000 0.500000
vt 0.272539 0.900787
vt 0.139518 0.903888
vt 0.111614 0.672785
vt 0.291142 0.688287
vt 0.994922 0.754297
vt 0.694922 0.754297
vt 0.694922 0.354297
vt 0.994922 0.154297
vt 0.704970 0.130216
vt 0.704970 0.330216
vt 0.554970 0.330216
vt 0.554970 0.130216
vt 0.516406 0.156250
vt 0.816406 0.356250
vt 0.816406 0.756250
vt 0.516406 0.756250
vt 0.412352 0.744094
vt 0.412352 0.744094
vt 0.412352 0.744094
vt 0.412352 0.744094
vt 0.714982 0.778300
vt 0.714982 0.928300
vt 0.627482 0.928300
vt 0.627482 0.778300
vn -1.0000 0.0000 0.0000
vn 0.0000 0.0000 -1.0000
vn 0.8321 0.5547 0.0000
vn 0.0000 -0.0000 1.0000
vn 0.0000 -1.0000 -0.0000
vn 0.0000 1.0000 0.0000
usemtl Material.001
s off
f 1/1/1 2/2/1 3/3/1 4/4/1
f 4/5/2 3/6/2 5/7/2 6/8/2
f 6/9/3 5/10/3 7/11/3 8/12/3
f 8/13/4 7/14/4 2/15/4 1/16/4
f 4/17/5 6/18/5 8/19/5 1/20/5
f 5/21/6 3/22/6 2/23/6 7/24/6
