# Blender v2.82 (sub 7) OBJ File: 'HE_Small_T_Bracket.blend'
# www.blender.org
mtllib HE_Small_T_Bracket.mtl
o HE_Bracket_111
v 0.500002 -0.132026 0.132034
v -0.107454 -0.160001 -0.399853
v -0.160004 0.107450 -0.399853
v 0.132013 -0.132025 0.499998
v 0.400003 0.107451 -0.159996
v 0.400003 0.160000 -0.107445
v 0.159994 0.107451 -0.399853
v 0.132013 0.132020 -0.499998
v 0.500002 -0.132025 -0.132011
v 0.600002 -0.000002 0.000010
v -0.107452 0.159999 -0.399852
v 0.107447 0.160000 -0.399853
v 0.400001 -0.107451 -0.159994
v 0.159994 -0.107451 -0.399853
v 0.107447 -0.160001 -0.399853
v -0.160004 -0.107452 0.399853
v -0.160004 -0.107452 -0.399853
v 0.132013 -0.132025 -0.499998
v -0.000011 -0.000003 -0.599999
v -0.132032 0.132020 -0.499998
v 0.500002 0.132020 -0.132011
v 0.107447 -0.160001 0.399853
v 0.400001 -0.160001 -0.107447
v 0.159994 -0.107451 0.399853
v -0.132032 -0.132026 -0.499998
v 0.159995 0.107451 -0.159996
v 0.159994 -0.107451 -0.159995
v 0.107447 -0.160001 -0.107447
v 0.107447 0.160000 -0.107446
v 0.400001 -0.107451 0.159994
v 0.107447 0.160000 0.399853
v -0.107452 0.159999 0.399852
v 0.132013 0.132020 0.499998
v 0.159994 0.107451 0.399853
v 0.400003 0.160000 0.107445
v 0.400003 0.107451 0.159996
v -0.160004 0.107450 0.399853
v -0.107454 -0.160001 0.399853
v 0.400001 -0.160001 -0.000000
v 0.500002 -0.132025 -0.000000
v 0.444868 -0.147449 -0.000000
v -0.160004 -0.107452 -0.000000
v -0.160003 0.107450 -0.000000
v -0.000001 0.160000 -0.000000
v -0.000011 -0.000003 0.599999
v -0.132032 0.132020 0.499998
v 0.500002 0.132020 0.132011
v 0.400001 -0.160001 0.107447
v -0.132032 -0.132025 0.499998
v 0.159995 0.107451 0.159996
v 0.159994 -0.107451 0.159995
v 0.107447 -0.160001 0.107447
v 0.107447 0.160000 0.107446
v 0.444875 0.147445 -0.000000
v 0.500002 0.132020 -0.000000
v 0.400003 0.160000 -0.000000
v -0.107454 -0.160001 -0.000000
v -0.000001 -0.160001 -0.000000
v -0.107453 0.159999 -0.000000
vt 0.155806 0.460110
vt 0.151182 0.460110
vt 0.151182 0.449451
vt 0.161485 0.447012
vt 0.394354 0.203523
vt 0.356230 0.203523
vt 0.356230 0.160945
vt 0.394354 0.160945
vt 0.151176 0.449501
vt 0.161478 0.447062
vt 0.151179 0.470824
vt 0.061895 0.445790
vt 0.071835 0.449473
vt 0.071833 0.442102
vt 0.075352 0.073845
vt 0.004325 0.073845
vt 0.039499 0.038249
vt 0.041315 0.450062
vt 0.032251 0.450062
vt 0.032251 0.460178
vt 0.041315 0.460178
vt 0.061889 0.445847
vt 0.071829 0.449528
vt 0.071826 0.442154
vt 0.061513 0.447092
vt 0.071829 0.449528
vt 0.071833 0.470848
vt 0.061518 0.473289
vt 0.161105 0.445761
vt 0.151179 0.442078
vt 0.151182 0.449451
vt 0.394354 0.203523
vt 0.394354 0.160945
vt 0.407538 0.151622
vt 0.407538 0.203523
vt 0.061885 0.445771
vt 0.071825 0.449453
vt 0.071822 0.442082
vt 0.151176 0.449501
vt 0.151179 0.470824
vt 0.161478 0.447062
vt 0.161482 0.473259
vt 0.161099 0.445810
vt 0.151174 0.442127
vt 0.343046 0.203522
vt 0.343046 0.151622
vt 0.356230 0.160944
vt 0.356229 0.203522
vt 0.071819 0.449509
vt 0.071818 0.442136
vt 0.061880 0.445825
vt 0.075351 0.073845
vt 0.075351 0.038253
vt 0.075351 0.002667
vt 0.039499 0.038249
vt 0.004325 0.073845
vt 0.004325 0.002667
vt 0.004325 0.038253
vt 0.061889 0.445847
vt 0.071826 0.442154
vt 0.138423 0.401393
vt 0.138036 0.460053
vt 0.123008 0.445024
vt 0.123395 0.401393
vt 0.111496 0.449452
vt 0.111493 0.442080
vt 0.041315 0.450062
vt 0.041315 0.460178
vt 0.032251 0.460178
vt 0.032251 0.450062
vt 0.004325 0.002666
vt 0.111490 0.449505
vt 0.111489 0.442131
vt 0.151174 0.442127
vt 0.161099 0.445810
vt 0.343046 0.203523
vt 0.343046 0.151623
vt 0.075352 0.002666
vt 0.004325 0.002666
vt 0.039499 0.038249
vt 0.075352 0.073845
vt 0.004325 0.073845
vt 0.161485 0.460109
vt 0.161485 0.447012
vt 0.061895 0.445790
vt 0.071833 0.442102
vt 0.071835 0.449473
vt 0.123396 0.401397
vt 0.123008 0.445029
vt 0.061513 0.447092
vt 0.071833 0.470848
vt 0.061518 0.473289
vt 0.061502 0.447071
vt 0.071822 0.470828
vt 0.061507 0.473268
vt 0.061509 0.473213
vt 0.071826 0.470774
vt 0.061509 0.447016
vt 0.071835 0.470793
vt 0.061519 0.447035
vt 0.061519 0.473231
vt 0.161482 0.473259
vt 0.161105 0.445761
vt 0.151179 0.442078
vt 0.071819 0.449509
vt 0.061880 0.445825
vt 0.071818 0.442136
vt 0.061885 0.445771
vt 0.071822 0.442082
vt 0.071825 0.449453
vt 0.407538 0.203523
vt 0.407538 0.151623
vt 0.075352 0.002666
vt 0.082111 0.475086
vt 0.138037 0.475086
vt 0.138037 0.460057
vt 0.123008 0.445029
vt 0.082111 0.445029
vt 0.100962 0.446820
vt 0.103094 0.442153
vt 0.075074 0.472843
vt 0.075074 0.455972
vt 0.084137 0.455972
vt 0.084137 0.472843
vt 0.082110 0.445025
vt 0.138036 0.475082
vt 0.082110 0.475082
vt 0.103103 0.449473
vt 0.100967 0.442101
vt 0.123396 0.401397
vt 0.138424 0.401397
vt 0.151191 0.470792
vt 0.161493 0.473229
vt 0.161493 0.460132
vt 0.155813 0.460132
vt 0.111493 0.442080
vt 0.111496 0.449452
vt 0.151191 0.460132
vt 0.111489 0.442131
vt 0.111490 0.449505
vt 0.071822 0.470828
vt 0.061502 0.447071
vt 0.061507 0.473268
vt 0.061509 0.473213
vt 0.061509 0.447016
vt 0.071826 0.470774
vt 0.071835 0.470793
vt 0.061519 0.473231
vt 0.061519 0.447035
vt 0.082110 0.475082
vt 0.082110 0.445025
vt 0.123008 0.445025
vt 0.075074 0.472843
vt 0.084137 0.472843
vt 0.082110 0.445029
vt 0.082111 0.475086
vt 0.123395 0.401393
vt 0.151191 0.470792
vt 0.161493 0.473229
vn 0.2695 0.9630 -0.0000
vn 0.0000 -0.0000 1.0000
vn 0.2693 -0.0000 0.9631
vn -0.7069 -0.7069 -0.0240
vn -0.7142 -0.6995 -0.0240
vn -0.6995 -0.7142 -0.0240
vn 0.6038 -0.0000 0.7971
vn 1.0000 -0.0000 0.0000
vn -0.7069 0.7069 -0.0240
vn -0.6995 0.7142 -0.0240
vn -0.7142 0.6995 -0.0240
vn -0.9631 0.0000 0.2690
vn 0.0241 0.7069 -0.7069
vn 0.0375 0.7051 -0.7081
vn 0.0375 0.7081 -0.7051
vn 0.0063 0.7155 -0.6986
vn -0.0076 0.7005 -0.7136
vn 0.0105 0.7071 -0.7071
vn 0.0062 0.6986 -0.7155
vn 0.7069 0.7069 -0.0241
vn 0.7143 0.6995 -0.0241
vn 0.6995 0.7142 -0.0241
vn 0.2695 -0.0000 -0.9630
vn 0.0374 -0.7051 -0.7081
vn 0.0241 -0.7069 -0.7069
vn 0.0374 -0.7081 -0.7051
vn 0.0063 -0.6986 -0.7155
vn -0.0117 -0.7088 -0.7053
vn 0.0105 -0.7071 -0.7071
vn 0.0062 -0.7155 -0.6986
vn 0.0000 -0.0000 -1.0000
vn 0.6995 -0.7142 -0.0241
vn 0.7143 -0.6995 -0.0240
vn 0.7069 -0.7069 -0.0241
vn 0.7971 -0.6038 -0.0000
vn 0.7971 0.6038 -0.0000
vn 0.7971 -0.0000 -0.6038
vn 0.7971 0.0001 0.6038
vn -0.7069 0.7069 0.0240
vn -0.7093 0.7041 0.0337
vn -0.7041 0.7093 0.0338
vn 0.0000 -1.0000 -0.0000
vn 0.7071 0.7071 0.0104
vn 0.7131 0.7010 -0.0060
vn 0.7022 0.7119 0.0116
vn -0.0000 0.6038 0.7971
vn 0.7071 -0.7071 0.0104
vn 0.7010 -0.7131 0.0060
vn 0.7166 -0.6975 -0.0010
vn 0.0173 -0.7153 0.6986
vn 0.0173 -0.6986 0.7153
vn 0.0239 -0.7069 0.7069
vn -0.0120 0.7026 0.7115
vn -0.0120 0.7114 0.7026
vn 0.0060 0.7010 0.7131
vn -0.0032 0.6989 0.7152
vn -0.6038 -0.0000 -0.7971
vn 0.6038 0.0000 -0.7971
vn -0.0000 0.6038 -0.7971
vn 0.0000 -0.6038 -0.7971
vn 0.2694 0.9630 -0.0000
vn -0.7069 -0.7069 0.0240
vn -0.7041 -0.7093 0.0337
vn -0.7093 -0.7041 0.0337
vn -0.9631 0.0000 -0.2690
vn 0.9631 0.0000 -0.2691
vn 0.0000 0.9631 -0.2691
vn 0.0000 -0.9631 -0.2690
vn 0.2695 0.0001 0.9630
vn 0.0241 0.7069 0.7069
vn 0.0175 0.6986 0.7153
vn 0.0174 0.7153 0.6986
vn 0.7041 -0.7093 0.0338
vn 0.7069 -0.7069 0.0241
vn 0.7093 -0.7041 0.0339
vn 0.7069 0.7069 0.0241
vn 0.7041 0.7093 0.0339
vn 0.7093 0.7041 0.0339
vn -0.0120 -0.7115 0.7026
vn -0.0120 -0.7026 0.7114
vn -0.0060 -0.7131 0.7010
vn -0.0088 -0.7128 0.7013
vn 0.0000 -0.6038 0.7971
vn -0.0000 1.0000 0.0000
vn -0.7071 0.7071 0.0000
vn -1.0000 0.0000 0.0000
vn -0.7071 -0.7071 0.0000
vn 0.2694 -0.9630 -0.0000
vn 0.7145 0.6997 0.0000
vn 0.6997 0.7145 -0.0000
vn 0.7109 0.7032 0.0124
vn 0.7071 0.7071 0.0105
vn -0.6038 -0.0000 0.7971
vn 0.6997 -0.7144 0.0000
vn 0.7145 -0.6997 0.0000
vn 0.7021 -0.7120 0.0116
vn 0.7071 -0.7071 0.0105
vn 0.9631 0.0000 0.2691
vn 0.0000 0.9631 0.2691
vn 0.0000 -0.9631 0.2690
usemtl Default_OBJ
s off
f 54/1/1 56/2/1 35/3/1 47/4/1
f 30/5/2 36/6/2 50/7/2 51/8/2
f 30/9/3 1/10/3 36/11/3
f 25/12/4 2/13/5 17/14/6
f 4/15/7 33/16/7 45/17/7
f 34/18/8 24/19/8 51/20/8 50/21/8
f 20/22/9 3/23/10 11/24/11
f 46/25/12 37/26/12 16/27/12
f 49/28/12 46/25/12 16/27/12
f 21/29/13 5/30/14 6/31/15
f 5/32/16 26/33/17 29/34/18 6/35/19
f 8/36/20 12/37/21 7/38/22
f 13/39/23 5/40/23 9/41/23
f 9/41/23 5/40/23 21/42/23
f 13/39/24 9/43/25 23/44/26
f 23/45/27 28/46/28 27/47/29 13/48/30
f 13/48/31 27/47/31 26/33/31 5/32/31
f 14/49/32 15/50/33 18/51/34
f 1/52/35 40/53/35 9/54/35 10/55/35
f 47/56/36 10/55/36 21/57/36 55/58/36
f 10/55/37 9/54/37 21/57/37
f 47/56/38 1/52/38 10/55/38
f 46/59/39 32/60/40 37/26/41
f 39/61/42 58/62/42 28/63/42 23/64/42
f 12/37/43 29/65/44 26/66/45 7/38/43
f 7/67/8 26/68/8 27/69/8 14/70/8
f 45/17/46 33/16/46 46/71/46
f 14/49/47 27/72/48 28/73/49 15/50/47
f 30/9/50 48/74/51 1/75/52
f 36/6/53 35/76/54 53/77/55 50/7/56
f 25/78/57 20/79/57 19/80/57
f 18/81/58 19/80/58 8/82/58
f 19/80/59 20/79/59 8/82/59
f 18/81/60 25/78/60 19/80/60
f 55/83/61 21/84/61 54/1/61
f 54/1/1 21/84/1 6/31/1 56/2/1
f 49/85/62 16/86/63 38/87/64
f 39/61/42 48/88/42 52/89/42 58/62/42
f 20/90/65 17/91/65 3/23/65
f 25/92/65 17/91/65 20/90/65
f 14/49/66 18/93/66 7/94/66
f 18/93/66 8/95/66 7/94/66
f 20/96/67 11/97/67 8/98/67
f 11/97/67 12/37/67 8/98/67
f 15/99/68 25/100/68 18/101/68
f 15/99/68 2/13/68 25/100/68
f 55/83/61 54/1/61 47/4/61
f 1/10/69 47/102/69 36/11/69
f 47/103/70 35/3/71 36/104/72
f 24/105/73 4/106/74 22/107/75
f 33/108/76 34/109/77 31/110/78
f 48/111/79 30/5/80 51/8/81 52/112/82
f 4/15/83 45/17/83 49/113/83
f 11/114/84 59/115/84 44/116/84 29/117/84 12/118/84
f 3/23/85 43/119/85 59/120/85 11/24/85
f 17/121/86 42/122/86 43/123/86 3/124/86
f 15/125/42 28/63/42 58/62/42 57/126/42 2/127/42
f 2/13/87 57/128/87 42/129/87 17/14/87
f 6/130/84 29/117/84 44/116/84 56/131/84
f 23/132/88 9/133/88 40/134/88 41/135/88
f 31/110/89 34/109/90 50/136/91 53/137/92
f 23/132/88 41/135/88 39/138/88
f 49/113/93 45/17/93 46/71/93
f 24/105/94 22/107/95 52/139/96 51/140/97
f 24/105/98 34/141/98 4/142/98
f 4/142/98 34/141/98 33/143/98
f 46/144/99 33/145/99 32/146/99
f 32/146/99 33/145/99 31/110/99
f 22/147/100 4/148/100 49/149/100
f 22/147/100 49/149/100 38/87/100
f 32/150/84 31/151/84 53/152/84 44/116/84 59/115/84
f 37/26/85 32/60/85 59/120/85 43/119/85
f 16/153/86 37/154/86 43/123/86 42/122/86
f 22/155/42 38/156/42 57/126/42 58/62/42 52/89/42
f 38/87/87 16/86/87 42/129/87 57/128/87
f 35/157/84 56/131/84 44/116/84 53/152/84
f 48/158/88 41/135/88 40/134/88 1/159/88
f 48/158/88 39/138/88 41/135/88
