# Blender v2.82 (sub 7) OBJ File: 'HE_Ragnarok_Railcannon_Battery.blend'
# www.blender.org
mtllib HE_Ragnarok_Elevator_Piston2.mtl
o Elevator_Piston_Plane
v 5.003020 0.520639 0.160035
v 5.003020 0.480639 0.200035
v 5.003020 0.360639 0.200035
v 5.003020 0.320639 0.160035
v 5.003020 0.480639 -0.200034
v 5.003020 0.520639 -0.160034
v 5.003020 0.320639 -0.160034
v 5.003020 0.360639 -0.200034
v 2.003020 0.480638 0.200035
v 2.003020 0.520638 0.160035
v 2.003020 0.320638 0.160035
v 2.003020 0.360638 0.200035
v 2.003020 0.520638 -0.160034
v 2.003020 0.480638 -0.200034
v 2.003020 0.360638 -0.200034
v 2.003020 0.320638 -0.160034
v 5.003020 0.595639 0.200035
v 4.915521 0.572193 0.200035
v 4.851466 0.508139 0.200035
v 4.828021 0.420639 0.200035
v 4.851466 0.333139 0.200035
v 4.915521 0.269084 0.200035
v 5.003020 0.245639 0.200035
v 5.090520 0.269084 0.200035
v 5.154575 0.333139 0.200035
v 5.178020 0.420639 0.200035
v 5.154575 0.508139 0.200035
v 5.090520 0.572193 0.200035
v 4.915521 0.572193 -0.200034
v 5.003020 0.595639 -0.200034
v 4.851466 0.508139 -0.200034
v 4.828021 0.420639 -0.200034
v 4.851466 0.333139 -0.200034
v 4.915521 0.269084 -0.200034
v 5.003020 0.245639 -0.200034
v 5.090520 0.269084 -0.200034
v 5.154575 0.333139 -0.200034
v 5.178020 0.420639 -0.200034
v 5.154575 0.508139 -0.200034
v 5.090520 0.572193 -0.200034
vt 0.453834 0.544313
vt 0.453834 0.514312
vt 0.455034 0.514312
vt 0.455034 0.544313
vt 0.455034 0.544313
vt 0.455034 0.514312
vt 0.453834 0.514312
vt 0.453834 0.544313
vt 0.464198 0.514810
vt 0.468143 0.510865
vt 0.479978 0.510865
vt 0.483923 0.514810
vt 0.483923 0.546378
vt 0.479978 0.550323
vt 0.468143 0.550323
vt 0.464198 0.546378
vt 0.468143 0.510865
vt 0.464198 0.514810
vt 0.464198 0.546378
vt 0.468143 0.550323
vt 0.479978 0.550323
vt 0.483923 0.546378
vt 0.483923 0.514810
vt 0.479978 0.510865
vt 0.457040 0.544313
vt 0.457040 0.514312
vt 0.460241 0.514312
vt 0.460241 0.544313
vt 0.455434 0.544313
vt 0.455434 0.514312
vt 0.455434 0.514312
vt 0.455434 0.544313
vt 0.453434 0.544313
vt 0.453434 0.514312
vt 0.453434 0.514312
vt 0.453434 0.544313
vt 0.460241 0.544313
vt 0.460241 0.514312
vt 0.457040 0.514312
vt 0.457040 0.544313
vt 0.538856 0.281719
vt 0.539496 0.281078
vt 0.540371 0.280844
vt 0.541247 0.281078
vt 0.541887 0.281719
vt 0.542122 0.282594
vt 0.541887 0.283469
vt 0.541247 0.284109
vt 0.540371 0.284344
vt 0.539496 0.284109
vt 0.538856 0.283469
vt 0.538621 0.282594
vt 0.538856 0.281719
vt 0.538621 0.282594
vt 0.538856 0.283469
vt 0.539496 0.284109
vt 0.540371 0.284344
vt 0.541247 0.284109
vt 0.541887 0.283469
vt 0.542122 0.282594
vt 0.541887 0.281719
vt 0.541247 0.281078
vt 0.540371 0.280844
vt 0.539496 0.281078
vt 0.542578 0.281078
vt 0.546578 0.281078
vt 0.546578 0.281719
vt 0.542578 0.281719
vt 0.542578 0.283469
vt 0.546578 0.283469
vt 0.546578 0.282594
vt 0.542578 0.282594
vt 0.545051 0.249146
vt 0.545051 0.288604
vt 0.551369 0.288604
vt 0.551369 0.249146
vt 0.568628 0.249146
vt 0.568628 0.288604
vt 0.559998 0.288604
vt 0.559998 0.249146
vt 0.546578 0.282594
vt 0.542578 0.282594
vt 0.559998 0.288604
vt 0.559998 0.249146
vt 0.551369 0.288604
vt 0.551369 0.249146
vt 0.546578 0.283469
vt 0.542578 0.283469
vt 0.568628 0.288604
vt 0.568628 0.249146
vt 0.542578 0.284109
vt 0.546578 0.284109
vt 0.546578 0.281719
vt 0.542578 0.281719
vt 0.546578 0.284109
vt 0.542578 0.284109
vn -0.0000 0.0000 1.0000
vn 0.0000 0.0000 -1.0000
vn 1.0000 0.0000 0.0000
vn -1.0000 0.0000 0.0000
vn 0.0000 -1.0000 0.0000
vn 0.0000 -0.7071 -0.7071
vn 0.0000 -0.7071 0.7071
vn -0.0000 0.7071 0.7071
vn -0.0000 0.7071 -0.7071
vn -0.0000 1.0000 0.0000
vn -0.8660 -0.5000 0.0000
vn -0.5000 -0.8660 0.0000
vn 0.5000 0.8660 0.0000
vn -0.5000 0.8660 0.0000
vn -0.8660 0.5000 0.0000
vn 0.8660 -0.5000 0.0000
vn 0.8660 0.5000 0.0000
vn 0.5000 -0.8660 0.0000
usemtl Default_OBJ
s off
f 2/1/1 9/2/1 12/3/1 3/4/1
f 8/5/2 15/6/2 14/7/2 5/8/2
f 1/9/3 2/10/3 3/11/3 4/12/3 7/13/3 8/14/3 5/15/3 6/16/3
f 9/17/4 10/18/4 13/19/4 14/20/4 15/21/4 16/22/4 11/23/4 12/24/4
f 4/25/5 11/26/5 16/27/5 7/28/5
f 7/29/6 16/30/6 15/6/6 8/5/6
f 11/31/7 4/32/7 3/4/7 12/3/7
f 1/33/8 10/34/8 9/2/8 2/1/8
f 13/35/9 6/36/9 5/8/9 14/7/9
f 6/37/10 13/38/10 10/39/10 1/40/10
s 1
f 18/41/1 19/42/1 20/43/1 21/44/1 22/45/1 23/46/1 24/47/1 25/48/1 26/49/1 27/50/1 28/51/1 17/52/1
f 29/53/2 30/54/2 40/55/2 39/56/2 38/57/2 37/58/2 36/59/2 35/60/2 34/61/2 33/62/2 32/63/2 31/64/2
f 21/65/11 33/66/11 34/67/12 22/68/12
f 28/69/13 40/70/13 30/71/10 17/72/10
f 18/73/14 29/74/14 31/75/15 19/76/15
f 25/77/16 37/78/16 38/79/3 26/80/3
f 22/68/12 34/67/12 35/81/5 23/82/5
f 19/76/15 31/75/15 32/83/4 20/84/4
f 26/80/3 38/79/3 39/85/17 27/86/17
f 23/82/5 35/81/5 36/87/18 24/88/18
f 20/84/4 32/83/4 33/89/11 21/90/11
f 27/91/17 39/92/17 40/70/13 28/69/13
f 17/72/10 30/71/10 29/93/14 18/94/14
f 24/88/18 36/87/18 37/95/16 25/96/16
