# Blender v2.82 (sub 7) OBJ File: 'HE_Ragnarok_Railcannon_Battery.blend'
# www.blender.org
mtllib HE_Ragnarok_Turret_Collider.mtl
o Turret_Collider_Cube.001
v 2.996696 0.000062 3.103968
v 3.000000 0.519668 2.942444
v 2.996475 0.000035 -3.079731
v 3.001106 0.519641 -2.952155
v -1.880723 0.000035 -2.915892
v -1.880170 1.679222 -2.546093
v -1.880502 0.000062 2.940129
v -1.880170 1.679248 2.546093
v 0.558097 0.000062 3.022048
v 0.557876 0.000035 -2.997812
v -3.058908 0.000035 -2.876314
v -3.574162 1.895072 2.500997
v -3.574162 1.895045 -2.500997
v -3.058687 0.000062 2.900550
v -4.804258 0.296206 2.769112
v -5.263106 0.374046 2.268221
v -4.808977 2.045007 2.468125
v -5.266760 1.586365 2.066210
v -5.263289 0.374025 -2.245033
v -4.804533 0.296189 -2.744871
v -4.808978 2.044981 -2.468125
v -5.266821 1.586343 -2.060592
v 0.229915 1.679222 -2.546093
v 0.857996 1.537632 -2.595675
v 0.559528 1.360551 -2.631819
v 0.857971 1.537606 2.594507
v 0.229915 1.679248 2.546093
v 0.559571 1.361756 2.636084
vt 0.375000 0.937500
vt 0.625000 0.937500
vt 0.625000 0.983059
vt 0.375000 0.986991
vt 0.695953 0.500000
vt 0.750000 0.500000
vt 0.750000 0.750000
vt 0.695953 0.750000
vt 0.375000 0.500000
vt 0.625000 0.500000
vt 0.625000 0.750000
vt 0.375000 0.750000
vt 0.812500 0.500000
vt 0.858059 0.500000
vt 0.858059 0.750000
vt 0.812500 0.750000
vt 0.312500 0.500000
vt 0.312500 0.750000
vt 0.375000 0.263007
vt 0.625000 0.266941
vt 0.625000 0.312500
vt 0.375000 0.312500
vt 0.375000 0.812500
vt 0.577731 0.812500
vt 0.625000 0.820953
vt 0.625000 0.875000
vt 0.375000 0.875000
vt 0.187500 0.500000
vt 0.250000 0.500000
vt 0.250000 0.750000
vt 0.187500 0.750000
vt 0.625000 0.804866
vt 0.625000 0.375000
vt 0.375000 0.375000
vt 0.625000 0.429047
vt 0.577556 0.437500
vt 0.375000 0.437500
vt 0.625000 0.445132
vt 0.375000 0.021412
vt 0.556233 0.022759
vt 0.556233 0.227279
vt 0.375000 0.228636
vt 0.567536 1.000000
vt 0.386302 1.000000
vt 0.875000 0.520120
vt 0.875000 0.730165
vt 0.125000 0.521364
vt 0.138007 0.500000
vt 0.138009 0.750000
vt 0.125000 0.728588
vt 0.603541 0.437500
vt 0.624951 0.812500
vt 0.679866 0.750000
vt 0.679868 0.500000
vn -0.0265 0.1851 0.9824
vn 0.0000 1.0000 -0.0000
vn 1.0000 -0.0076 0.0001
vn 0.1205 0.9927 -0.0000
vn -0.0000 -1.0000 0.0000
vn -0.0285 0.1721 -0.9847
vn -0.0165 0.2505 0.9680
vn -0.0280 0.2785 0.9600
vn -0.0137 0.2022 -0.9793
vn -0.0165 0.2373 -0.9713
vn -0.0361 0.2546 -0.9664
vn -1.0000 -0.0030 0.0000
vn 0.1264 0.9920 -0.0000
vn -0.0126 0.2150 0.9765
vn -0.7208 0.1141 0.6837
vn -0.7077 0.7065 0.0000
vn -0.7213 0.1047 -0.6847
vn -0.1673 -0.9859 0.0000
vn -0.0232 0.2373 -0.9712
vn -0.0166 0.2567 0.9664
vn 0.2200 0.9755 0.0000
vn 0.4291 0.9032 0.0000
usemtl None
s off
f 14/1/1 12/2/1 17/3/1 15/4/1
f 23/5/2 6/6/2 8/7/2 27/8/2
f 3/9/3 4/10/3 2/11/3 1/12/3
f 13/13/4 21/14/4 17/15/4 12/16/4
f 10/17/5 3/9/5 1/12/5 9/18/5
f 20/19/6 21/20/6 13/21/6 11/22/6
f 9/23/7 28/24/7 27/25/7 8/26/7 7/27/7
f 11/28/5 5/29/5 7/30/5 14/31/5
f 1/12/8 2/11/8 26/32/8 28/24/8 9/23/8
f 11/22/9 13/21/9 6/33/9 5/34/9
f 5/34/10 6/33/10 23/35/10 25/36/10 10/37/10
f 5/29/5 10/17/5 9/18/5 7/30/5
f 10/37/11 25/36/11 24/38/11 4/10/11 3/9/11
f 16/39/12 18/40/12 22/41/12 19/42/12
f 6/6/13 13/13/13 12/16/13 8/7/13
f 7/27/14 8/26/14 12/2/14 14/1/14
f 15/4/15 17/3/15 18/43/15 16/44/15
f 17/15/16 21/14/16 22/45/16 18/46/16
f 21/20/17 20/19/17 19/42/17 22/41/17
f 19/47/18 20/48/18 11/28/18 14/31/18 15/49/18 16/50/18
f 23/35/19 24/51/19 25/36/19
f 26/32/20 27/52/20 28/24/20
f 23/5/21 27/8/21 26/53/21 24/54/21
f 4/10/22 24/54/22 26/53/22 2/11/22
