# Blender v2.82 (sub 7) OBJ File: ''
# www.blender.org
mtllib HE_Small_X_Bracket.mtl
o HE_Bracket_111
v 0.500002 -0.132026 0.132034
v 0.400001 -0.107452 0.160006
v -0.399853 -0.107452 0.160004
v -0.399852 0.159999 0.107452
v 0.400003 0.107451 -0.159996
v -0.499998 0.132020 -0.132013
v 0.400001 -0.107451 -0.159994
v -0.399853 -0.160001 -0.107447
v -0.499998 -0.132025 -0.132013
v 0.500002 -0.132025 -0.132011
v 0.600002 -0.000002 0.000010
v 0.500002 0.132020 0.132034
v 0.500002 0.132020 -0.132011
v -0.399853 0.107451 -0.159994
v -0.399853 -0.160001 0.107454
v 0.400003 0.107450 0.160004
v -0.399853 0.107450 0.160004
v -0.599999 -0.000003 0.000011
v -0.499998 0.132020 0.132032
v -0.499998 -0.132026 0.132032
v 0.400003 0.159999 0.107452
v 0.400003 0.160000 -0.107445
v 0.400001 -0.160001 -0.107447
v 0.400001 -0.160001 0.107454
v -0.399853 -0.107451 -0.159994
v -0.399853 0.160000 -0.107447
v 0.160056 -0.107452 0.160005
v 0.160057 0.107450 0.160004
v 0.160056 -0.160001 0.107454
v -0.159940 -0.160001 0.107454
v 0.160058 0.159999 0.107452
v -0.159939 0.159999 0.107452
v 0.160057 0.160000 -0.107445
v -0.159940 0.160000 -0.107446
v 0.160057 0.107451 -0.159995
v 0.160056 -0.107451 -0.159994
v 0.160056 -0.160001 -0.107447
v -0.159940 -0.160001 -0.107447
v -0.131971 -0.132025 0.499950
v -0.159942 -0.107452 0.399950
v -0.159940 -0.107452 -0.399905
v -0.107389 0.159999 -0.399904
v 0.160059 0.107451 0.399952
v 0.132077 0.132020 -0.500050
v 0.160057 -0.107451 0.399950
v 0.107510 -0.160001 -0.399905
v 0.132077 -0.132025 -0.500050
v 0.132075 -0.132025 0.499950
v 0.000054 -0.000002 0.599950
v -0.131971 0.132020 0.499950
v 0.132075 0.132020 0.499950
v 0.160057 0.107451 -0.399905
v -0.107391 -0.160001 -0.399905
v -0.159941 0.107450 0.399952
v -0.159941 0.107450 -0.399905
v 0.000052 -0.000003 -0.600051
v -0.131969 0.132020 -0.500050
v -0.131969 -0.132025 -0.500050
v -0.107389 0.159999 0.399952
v 0.107508 0.160000 0.399952
v 0.107510 -0.160001 0.399950
v -0.107391 -0.160001 0.399950
v 0.160057 -0.107451 -0.399905
v 0.107510 0.160000 -0.399905
v -0.159942 -0.107452 0.160002
v -0.159941 -0.107452 -0.159995
v -0.159941 0.107450 0.160004
v -0.159941 0.107450 -0.159994
v -0.107391 -0.160001 0.160002
v -0.107391 -0.160001 -0.159995
v -0.107389 0.159999 0.160004
v -0.107389 0.159999 -0.159993
v 0.107509 0.160000 0.160004
v 0.107509 0.160000 -0.159994
v 0.107510 -0.160001 0.160002
v 0.107510 -0.160001 -0.159995
vt 0.161114 0.445782
vt 0.151190 0.442098
vt 0.151191 0.449472
vt 0.209356 0.423937
vt 0.208459 0.422420
vt 0.208457 0.422199
vt 0.210338 0.420810
vt 0.061895 0.445790
vt 0.071835 0.449473
vt 0.071833 0.442102
vt 0.161109 0.445832
vt 0.151183 0.442151
vt 0.151186 0.449523
vt 0.061509 0.473213
vt 0.071826 0.470774
vt 0.071825 0.449453
vt 0.061509 0.447016
vt 0.061889 0.445847
vt 0.071829 0.449528
vt 0.071826 0.442154
vt 0.161485 0.473209
vt 0.161485 0.447012
vt 0.151182 0.449451
vt 0.151183 0.470770
vt 0.161105 0.445761
vt 0.151179 0.442078
vt 0.207865 0.422011
vt 0.208194 0.422205
vt 0.208151 0.422370
vt 0.207805 0.422469
vt 0.061885 0.445771
vt 0.071822 0.442082
vt 0.151191 0.470792
vt 0.161493 0.473229
vt 0.161493 0.447033
vt 0.151176 0.449501
vt 0.161099 0.445810
vt 0.151174 0.442127
vt 0.207836 0.422645
vt 0.208189 0.422428
vt 0.208389 0.422464
vt 0.208508 0.423681
vt 0.071819 0.449509
vt 0.071818 0.442136
vt 0.061880 0.445825
vt 0.075351 0.073845
vt 0.075351 0.002667
vt 0.039499 0.038249
vt 0.004325 0.073845
vt 0.004325 0.002667
vt 0.207930 0.421844
vt 0.208234 0.422156
vt 0.208403 0.422153
vt 0.209177 0.420605
vt 0.075352 0.002666
vt 0.004325 0.002666
vt 0.039499 0.038249
vt 0.075352 0.073845
vt 0.004325 0.073845
vt 0.161488 0.447083
vt 0.151190 0.470845
vt 0.161492 0.473280
vt 0.061519 0.447035
vt 0.061519 0.473231
vt 0.071835 0.470793
vt 0.151179 0.470824
vt 0.161482 0.473259
vt 0.161478 0.447062
vt 0.061502 0.447071
vt 0.061507 0.473268
vt 0.071822 0.470828
vt 0.071833 0.470848
vt 0.061513 0.447092
vt 0.061518 0.473289
vt 0.206641 0.421943
vt 0.206481 0.420832
vt 0.207139 0.421759
vt 0.206816 0.422001
vt 0.161105 0.445761
vt 0.151179 0.442078
vt 0.151182 0.449451
vt 0.206578 0.421984
vt 0.205651 0.420581
vt 0.161485 0.473209
vt 0.161485 0.447012
vt 0.151183 0.470770
vt 0.206645 0.422248
vt 0.205976 0.423655
vt 0.204841 0.423559
vt 0.206592 0.422201
vt 0.061889 0.445847
vt 0.071829 0.449528
vt 0.071826 0.442154
vt 0.206855 0.422180
vt 0.207145 0.422357
vt 0.207064 0.422494
vt 0.206819 0.422228
vt 0.061509 0.473213
vt 0.071826 0.470774
vt 0.071825 0.449453
vt 0.061509 0.447016
vt 0.207209 0.421911
vt 0.206850 0.422053
vt 0.161109 0.445832
vt 0.151183 0.442151
vt 0.151186 0.449523
vt 0.061895 0.445790
vt 0.071835 0.449473
vt 0.071833 0.442102
vt 0.193184 0.428234
vt 0.198780 0.413251
vt 0.161114 0.445782
vt 0.151190 0.442098
vt 0.151191 0.449472
vt 0.220638 0.414339
vt 0.220638 0.434662
vt 0.061885 0.445771
vt 0.071822 0.442082
vt 0.151191 0.470792
vt 0.161493 0.473229
vt 0.161493 0.447033
vt 0.151176 0.449501
vt 0.161099 0.445810
vt 0.151174 0.442127
vt 0.208234 0.424408
vt 0.215668 0.438980
vt 0.195632 0.433096
vt 0.205758 0.424808
vt 0.071819 0.449509
vt 0.071818 0.442136
vt 0.061880 0.445825
vt 0.075351 0.073845
vt 0.075351 0.002667
vt 0.039499 0.038249
vt 0.004325 0.073845
vt 0.004325 0.002667
vt 0.209364 0.419647
vt 0.217465 0.410091
vt 0.202313 0.411177
vt 0.206762 0.420053
vt 0.075352 0.002666
vt 0.004325 0.002666
vt 0.039499 0.038249
vt 0.075352 0.073845
vt 0.004325 0.073845
vt 0.161488 0.447083
vt 0.151190 0.470845
vt 0.161492 0.473280
vt 0.061519 0.447035
vt 0.061519 0.473231
vt 0.071835 0.470793
vt 0.151179 0.470824
vt 0.161482 0.473259
vt 0.161478 0.447062
vt 0.061502 0.447071
vt 0.061507 0.473268
vt 0.071822 0.470828
vt 0.071833 0.470848
vt 0.061513 0.447092
vt 0.061518 0.473289
vt 0.207468 0.422112
vt 0.207322 0.421800
vt 0.207764 0.421909
vt 0.207555 0.422133
vt 0.207440 0.422132
vt 0.207460 0.422251
vt 0.207231 0.422478
vt 0.207438 0.422224
vt 0.207572 0.422238
vt 0.207681 0.422558
vt 0.207546 0.422256
vt 0.207577 0.422158
vn 0.0240 -0.7069 0.7069
vn 0.0189 -0.7039 0.7100
vn 0.0307 -0.7063 0.7072
vn -0.0037 -0.0037 1.0000
vn 0.0057 -0.0035 1.0000
vn -0.0066 0.0016 1.0000
vn -0.0016 -0.0066 1.0000
vn -0.0240 -0.7069 0.7069
vn -0.0240 -0.7032 0.7106
vn -0.0210 -0.7039 0.7099
vn 0.0240 0.7069 0.7069
vn 0.0189 0.7101 0.7039
vn 0.0307 0.7072 0.7063
vn -0.2691 0.9631 0.0000
vn -0.2730 0.9620 -0.0032
vn -0.2740 0.9617 -0.0012
vn -0.0240 0.7069 0.7069
vn -0.0240 0.7106 0.7032
vn -0.0270 0.7039 0.7098
vn 0.2694 0.9630 0.0000
vn 0.2680 0.9634 0.0066
vn 0.2654 0.9641 0.0053
vn 0.0241 0.7069 -0.7069
vn 0.0190 0.7039 -0.7101
vn 0.0309 0.7063 -0.7072
vn 0.0037 -0.0037 -1.0000
vn 0.0058 0.0035 -1.0000
vn -0.0066 -0.0016 -1.0000
vn -0.0016 0.0066 -1.0000
vn -0.0241 0.7069 -0.7069
vn -0.0241 0.7032 -0.7106
vn -0.0271 0.7099 -0.7038
vn 0.2653 -0.9641 -0.0053
vn 0.2694 -0.9630 -0.0000
vn 0.2679 -0.9634 -0.0065
vn 0.0308 -0.7072 -0.7063
vn 0.0241 -0.7069 -0.7069
vn 0.0190 -0.7101 -0.7039
vn -0.0037 -1.0000 -0.0037
vn 0.0058 -1.0000 -0.0035
vn -0.0065 -1.0000 0.0016
vn -0.0016 -1.0000 -0.0065
vn -0.0241 -0.7106 -0.7032
vn -0.0211 -0.7100 -0.7039
vn -0.0241 -0.7069 -0.7069
vn 0.7971 -0.6038 -0.0000
vn 0.7971 0.6038 -0.0000
vn 0.7971 -0.0000 -0.6038
vn 0.7971 0.0000 0.6038
vn 0.0052 0.7071 -0.7071
vn 0.0016 0.7025 -0.7117
vn 0.0035 0.7030 -0.7112
vn -0.0058 0.7046 -0.7096
vn 0.0052 -0.7071 -0.7071
vn 0.0016 -0.7117 -0.7025
vn 0.0035 -0.7112 -0.7030
vn -0.0058 -0.7096 -0.7046
vn 0.0052 -0.7071 0.7071
vn 0.0016 -0.7025 0.7117
vn 0.0035 -0.7030 0.7111
vn -0.0057 -0.7046 0.7095
vn 0.0052 0.7071 0.7071
vn 0.0016 0.7117 0.7024
vn 0.0035 0.7112 0.7030
vn -0.0058 0.7096 0.7046
vn -0.7971 0.0000 0.6038
vn -0.7971 0.0000 -0.6038
vn -0.7971 0.6038 0.0000
vn -0.7971 -0.6038 -0.0000
vn 0.2694 0.0000 0.9630
vn 0.2679 -0.0066 0.9634
vn 0.2653 -0.0052 0.9641
vn -0.2690 -0.9631 -0.0000
vn -0.2651 -0.9642 -0.0032
vn -0.2739 -0.9618 0.0012
vn 0.2680 0.0066 -0.9634
vn 0.2654 0.0053 -0.9641
vn 0.2695 -0.0000 -0.9630
vn -0.2740 -0.0012 -0.9617
vn -0.2691 0.0000 -0.9631
vn -0.2730 -0.0032 -0.9620
vn 0.0037 1.0000 -0.0037
vn 0.0058 1.0000 0.0035
vn -0.0066 1.0000 -0.0016
vn -0.0016 1.0000 0.0066
vn -0.2651 -0.0032 0.9642
vn -0.2739 0.0012 0.9618
vn -0.2690 -0.0000 0.9631
vn -0.0037 1.0000 -0.0037
vn 0.0000 1.0000 0.0052
vn 0.7069 0.7069 0.0241
vn 0.7101 0.7039 0.0190
vn 0.7072 0.7063 0.0309
vn 0.0000 0.7108 0.7034
vn 0.0037 0.7045 0.7097
vn -0.0000 0.9630 0.2694
vn -0.0066 0.9634 0.2680
vn -0.0053 0.9641 0.2654
vn 0.0000 -0.7034 0.7108
vn 0.0035 -0.7030 0.7112
vn -0.0037 -0.7045 0.7097
vn -0.7069 0.7069 -0.0240
vn -0.7032 0.7106 -0.0240
vn -0.7098 0.7039 -0.0270
vn -0.0000 -0.7108 -0.7034
vn -0.0037 -0.7097 -0.7045
vn -0.0000 0.9631 -0.2691
vn 0.0032 0.9620 -0.2730
vn 0.0012 0.9617 -0.2740
vn 0.0000 0.7034 -0.7108
vn 0.0037 0.7097 -0.7045
vn -0.7069 0.7069 0.0240
vn -0.7039 0.7101 0.0189
vn -0.7063 0.7072 0.0307
vn 0.0037 -1.0000 -0.0037
vn 0.0000 -1.0000 -0.0052
vn -0.7069 -0.7069 -0.0240
vn -0.7106 -0.7032 -0.0240
vn -0.7099 -0.7039 -0.0210
vn -0.0037 -0.0037 -1.0000
vn -0.0000 0.0052 -1.0000
vn -1.0000 -0.0037 -0.0037
vn -1.0000 -0.0035 0.0057
vn -1.0000 0.0016 -0.0066
vn -1.0000 -0.0066 -0.0016
vn 0.0037 -0.0037 1.0000
vn 0.0000 -0.0052 1.0000
vn -0.7069 -0.7069 0.0240
vn -0.7100 -0.7039 0.0189
vn -0.7072 -0.7063 0.0307
vn 1.0000 -0.0037 0.0037
vn 1.0000 0.0035 0.0058
vn 1.0000 -0.0016 -0.0066
vn 1.0000 0.0066 -0.0016
vn 0.7069 0.7069 -0.0241
vn 0.7106 0.7032 -0.0241
vn 0.7038 0.7099 -0.0271
vn 0.0053 -0.9641 0.2653
vn 0.0000 -0.9630 0.2694
vn 0.0065 -0.9634 0.2679
vn 0.7063 -0.7072 0.0308
vn 0.7069 -0.7069 0.0241
vn 0.7039 -0.7101 0.0190
vn 0.0035 -1.0000 0.0058
vn 0.0065 -1.0000 -0.0016
vn 0.7032 -0.7106 -0.0241
vn 0.7039 -0.7100 -0.0211
vn 0.7069 -0.7069 -0.0241
vn 0.0000 -0.6038 0.7971
vn 0.0000 0.6038 0.7971
vn 0.6038 0.0000 0.7971
vn -0.6038 -0.0000 0.7971
vn 0.7071 0.7071 0.0052
vn 0.7117 0.7025 0.0016
vn 0.7112 0.7030 0.0035
vn 0.7096 0.7046 -0.0058
vn 0.7071 -0.7071 0.0052
vn 0.7025 -0.7117 0.0016
vn 0.7030 -0.7112 0.0035
vn 0.7046 -0.7096 -0.0058
vn -0.7071 -0.7071 0.0052
vn -0.7117 -0.7025 0.0016
vn -0.7111 -0.7030 0.0035
vn -0.7095 -0.7046 -0.0057
vn -0.7071 0.7071 0.0052
vn -0.7024 0.7117 0.0016
vn -0.7030 0.7112 0.0035
vn -0.7046 0.7096 -0.0058
vn -0.6038 -0.0000 -0.7971
vn 0.6038 0.0000 -0.7971
vn 0.0000 0.6038 -0.7971
vn 0.0000 -0.6038 -0.7971
vn -0.9630 0.0000 0.2694
vn -0.9634 -0.0066 0.2679
vn -0.9641 -0.0052 0.2653
vn 0.0000 -0.9631 -0.2690
vn 0.0032 -0.9642 -0.2651
vn -0.0012 -0.9618 -0.2739
vn 0.9634 0.0066 0.2680
vn 0.9641 0.0053 0.2654
vn 0.9630 -0.0000 0.2695
vn 0.9617 -0.0012 -0.2740
vn 0.9631 0.0000 -0.2691
vn 0.9620 -0.0032 -0.2730
vn 0.0037 1.0000 0.0037
vn -0.0035 1.0000 0.0058
vn 0.0016 1.0000 -0.0066
vn -0.9642 -0.0032 -0.2651
vn -0.9618 0.0012 -0.2739
vn -0.9631 -0.0000 -0.2690
vn -0.0052 1.0000 -0.0000
vn -0.7034 0.7108 -0.0000
vn -0.7097 0.7045 0.0037
vn -0.7108 -0.7034 -0.0000
vn -0.7097 -0.7045 -0.0037
vn 0.7034 -0.7108 0.0000
vn 0.7045 -0.7097 -0.0037
vn 0.7108 0.7034 0.0000
vn 0.7045 0.7097 0.0037
vn 0.0037 -1.0000 0.0037
vn 0.0052 -1.0000 0.0000
vn 1.0000 -0.0037 -0.0037
vn 1.0000 0.0052 0.0000
vn -1.0000 -0.0037 0.0037
vn -1.0000 -0.0052 -0.0000
vn 0.5774 -0.5810 -0.5736
vn 0.5788 -0.5812 -0.5720
vn 0.5720 -0.5787 -0.5813
vn 0.5737 -0.5810 0.5773
vn 0.5720 -0.5813 0.5787
vn 0.5773 -0.5737 0.5810
vn -0.5812 -0.5721 0.5787
vn -0.5737 -0.5774 0.5810
vn -0.5810 -0.5737 0.5773
vn -0.5810 -0.5773 -0.5737
vn -0.5813 -0.5787 -0.5720
vn -0.5736 -0.5810 -0.5773
vn -0.5812 0.5720 -0.5788
vn -0.5736 0.5773 -0.5811
vn -0.5720 0.5788 -0.5813
vn 0.5787 0.5720 -0.5813
vn 0.5810 0.5773 -0.5736
vn 0.5773 0.5737 -0.5810
vn 0.5813 0.5720 0.5787
vn 0.5788 0.5813 0.5720
vn 0.5811 0.5737 0.5773
vn -0.5720 0.5813 0.5787
vn -0.5813 0.5788 0.5720
vn -0.5737 0.5810 0.5773
vn -0.0056 1.0000 0.0038
vn 0.0020 1.0000 -0.0048
vn -0.0048 1.0000 -0.0020
vn -0.0066 1.0000 -0.0013
vn -0.0038 1.0000 -0.0056
vn -0.0056 -1.0000 -0.0038
vn 0.0066 -1.0000 -0.0013
vn 0.0038 -1.0000 -0.0056
vn 0.0048 -1.0000 -0.0020
vn -0.0037 -1.0000 0.0037
vn 0.0020 -1.0000 0.0048
usemtl Default_OBJ
s off
f 1/1/1 2/2/2 24/3/3
f 27/4/4 2/5/5 16/6/6 28/7/7
f 20/8/8 15/9/9 3/10/10
f 12/11/11 21/12/12 16/13/13
f 19/14/14 4/15/15 26/16/16 6/17/14
f 19/18/17 17/19/18 4/20/19
f 12/21/20 13/22/20 22/23/21 21/24/22
f 13/25/23 5/26/24 22/23/25
f 35/27/26 5/28/27 7/29/28 36/30/29
f 6/31/30 26/16/31 14/32/32
f 23/33/33 10/34/34 1/35/34 24/3/35
f 7/36/36 10/37/37 23/38/38
f 37/39/39 23/40/40 24/41/41 29/42/42
f 25/43/43 8/44/44 9/45/45
f 1/46/46 10/47/46 11/48/46
f 12/49/47 11/48/47 13/50/47
f 11/48/48 10/47/48 13/50/48
f 12/49/49 1/46/49 11/48/49
f 33/51/50 22/52/51 5/28/52 35/27/53
f 36/30/54 7/29/55 23/40/56 37/39/57
f 29/42/58 24/41/59 2/5/60 27/4/61
f 28/7/62 16/6/63 21/53/64 31/54/65
f 20/55/66 19/56/66 18/57/66
f 9/58/67 18/57/67 6/59/67
f 18/57/68 19/56/68 6/59/68
f 9/58/69 20/55/69 18/57/69
f 12/60/70 16/13/71 2/61/72 1/62/70
f 20/63/73 9/64/73 8/65/74 15/9/75
f 7/36/76 5/66/77 13/67/78 10/68/78
f 25/43/79 9/69/80 6/70/80 14/71/81
f 31/54/82 21/53/83 22/52/84 33/51/85
f 3/72/86 17/19/87 19/73/88 20/74/88
f 4/75/82 32/76/89 34/77/84 26/78/90
f 51/79/91 43/80/92 60/81/93
f 17/82/62 67/83/94 32/76/64 4/75/95
f 50/84/96 51/85/96 60/81/97 59/86/98
f 15/87/58 30/88/99 65/89/100 3/90/101
f 57/91/102 55/92/103 42/93/104
f 25/94/54 66/95/105 38/96/56 8/97/106
f 57/98/107 42/99/108 64/100/109 44/101/107
f 26/78/50 34/77/110 68/102/52 14/103/111
f 50/104/112 59/105/113 54/106/114
f 8/97/39 38/96/115 30/88/41 15/87/116
f 58/107/117 53/108/118 41/109/119
f 14/103/26 68/102/120 66/95/28 25/94/121
f 65/89/122 40/110/123 54/111/124 67/83/125
f 3/90/4 65/89/126 67/83/6 17/82/127
f 39/112/128 40/113/129 62/114/130
f 28/7/131 43/115/132 45/116/133 27/4/134
f 44/117/135 64/100/136 52/118/137
f 61/119/138 48/120/139 39/121/139 62/114/140
f 45/122/141 48/123/142 61/124/143
f 75/125/115 61/126/144 62/127/42 69/128/145
f 63/129/146 46/130/147 47/131/148
f 39/132/149 48/133/149 49/134/149
f 50/135/150 49/134/150 51/136/150
f 49/134/151 48/133/151 51/136/151
f 50/135/152 39/132/152 49/134/152
f 73/137/153 60/138/154 43/115/155 28/7/156
f 27/4/157 45/116/158 61/126/159 75/125/160
f 69/128/161 62/127/162 40/110/163 65/89/164
f 67/83/165 54/111/166 59/139/167 71/140/168
f 58/141/169 57/142/169 56/143/169
f 47/144/170 56/143/170 44/145/170
f 56/143/171 57/142/171 44/145/171
f 47/144/172 58/141/172 56/143/172
f 50/146/173 54/106/174 40/147/175 39/148/173
f 58/149/176 47/150/176 46/151/177 53/108/178
f 45/122/179 43/152/180 51/153/181 48/154/181
f 63/129/182 47/155/183 44/156/183 52/157/184
f 71/140/185 59/139/186 60/138/187 73/137/84
f 41/158/188 55/92/189 57/159/190 58/160/190
f 42/161/185 72/162/82 74/163/187 64/164/191
f 55/165/165 68/102/192 72/162/167 42/161/193
f 53/166/161 70/167/194 66/95/163 41/168/195
f 63/169/157 36/30/196 76/170/159 46/171/197
f 64/164/153 74/163/198 35/27/155 52/172/199
f 46/171/115 76/170/200 70/167/42 53/166/201
f 52/172/131 35/27/202 36/30/133 63/169/203
f 41/168/122 66/95/204 68/102/124 55/165/205
f 36/30/206 37/39/207 76/170/208
f 27/4/209 75/125/210 29/42/211
f 65/89/212 30/88/213 69/128/214
f 70/167/215 38/96/216 66/95/217
f 68/102/218 34/77/219 72/162/220
f 35/27/221 74/163/222 33/51/223
f 28/7/224 31/54/225 73/137/226
f 71/140/227 32/76/228 67/83/229
f 34/77/90 32/76/230 71/140/231 73/137/82 31/54/232 33/51/89 74/163/233 72/162/234
f 30/88/116 38/96/235 70/167/236 76/170/237 37/39/238 29/42/239 75/125/240 69/128/39
