# This file uses centimeters as units for non-parametric coordinates.

g default
v 0.000000 -0.127614 0.056042
v 0.000000 0.127614 0.056042
v -1.000000 0.063813 0.056042
v -0.936199 0.127614 0.056042
v -0.936199 -0.127614 0.056042
v -1.000000 -0.063813 0.056042
v 0.000000 0.127614 -0.034262
v -0.021781 0.105833 -0.056042
v -0.021781 -0.105833 -0.056042
v 0.000000 -0.127614 -0.034262
v -0.978219 0.054791 -0.056042
v -1.000000 0.063813 -0.034262
v -0.978219 -0.054791 -0.056042
v -1.000000 -0.063813 -0.034262
v -0.927178 0.105833 -0.056042
v -0.936199 0.127614 -0.034262
v -0.927178 -0.105833 -0.056042
v -0.936199 -0.127614 -0.034262
vt 0.020349 0.503035
vt 0.023730 0.503035
vt 0.023730 0.507814
vt 0.020349 0.507814
vt 0.005327 0.503035
vt 0.006143 0.503850
vt 0.006143 0.537753
vt 0.005327 0.538091
vt 0.001946 0.538091
vt 0.001946 0.503035
vt 0.001946 0.540480
vt 0.005327 0.540480
vt 0.006301 0.503850
vt 0.007116 0.503035
vt 0.007116 0.538091
vt 0.006301 0.537753
vt 0.010498 0.538091
vt 0.010498 0.503035
vt 0.010498 0.540480
vt 0.007116 0.540480
vt 0.013376 0.538849
vt 0.013038 0.539664
vt 0.010649 0.537275
vt 0.011465 0.536937
vt 0.017479 0.538849
vt 0.017817 0.539664
vt 0.019390 0.536937
vt 0.020206 0.537275
vt 0.011465 0.503035
vt 0.019390 0.503035
vn 0.000000 0.707107 -0.707107
vn 0.000000 0.707107 -0.707107
vn 0.000000 0.707107 -0.707107
vn 0.000000 0.707107 -0.707107
vn 0.000000 -0.707107 -0.707107
vn 0.000000 -0.707107 -0.707107
vn 0.000000 -0.707107 -0.707107
vn 0.000000 -0.707107 -0.707107
vn -0.500000 0.500000 -0.707107
vn -0.500000 0.499999 -0.707107
vn -0.500000 0.499999 -0.707107
vn -0.500000 0.499999 -0.707107
vn -0.707106 0.000000 -0.707107
vn -0.707106 0.000000 -0.707107
vn -0.707106 0.000000 -0.707107
vn -0.707106 0.000000 -0.707107
vn -0.500000 -0.500000 -0.707107
vn -0.500000 -0.500000 -0.707107
vn -0.500000 -0.499999 -0.707107
vn -0.500000 -0.500000 -0.707107
vn 0.000000 1.000000 0.000000
vn 0.000000 1.000000 0.000000
vn 0.000000 1.000000 0.000000
vn 0.000000 1.000000 0.000000
vn 0.000000 -1.000000 0.000000
vn 0.000000 -1.000000 0.000000
vn 0.000000 -1.000000 0.000000
vn 0.000000 -1.000000 0.000000
vn -1.000000 0.000000 0.000000
vn -1.000000 0.000000 0.000000
vn -1.000000 0.000000 0.000000
vn -1.000000 0.000000 0.000000
vn 0.000000 0.000000 -1.000000
vn 0.000000 0.000000 -1.000000
vn 0.000000 0.000000 -1.000000
vn 0.000000 0.000000 -1.000000
vn -0.707107 0.707107 0.000000
vn -0.707107 0.707107 0.000000
vn -0.707107 0.707107 0.000000
vn -0.707107 0.707107 0.000000
vn -0.707107 -0.707107 0.000000
vn -0.707107 -0.707107 0.000000
vn -0.707107 -0.707107 0.000000
vn -0.707107 -0.707107 0.000000
vn 0.000000 0.000000 -1.000000
vn 0.000000 0.000000 -1.000000
s off
g gauge
f 7/5/1 8/6/2 15/7/3 16/8/4
f 9/13/5 10/14/6 18/15/7 17/16/8
f 11/21/9 12/22/10 16/23/11 15/24/12
f 12/22/13 11/21/14 13/25/15 14/26/16
f 14/26/17 13/25/18 17/27/19 18/28/20
f 16/8/21 4/9/22 2/10/23 7/5/24
f 5/17/25 18/15/26 10/14/27 1/18/28
f 14/1/29 6/2/30 3/3/31 12/4/32
s 1
f 11/21/33 15/24/34 17/27/35 13/25/36
s off
f 3/11/37 4/9/38 16/8/39 12/12/40
f 5/17/41 6/19/42 14/20/43 18/15/44
s 1
f 17/27/35 15/24/34 8/29/45 9/30/46
