# Blender v2.79 (sub 0) OBJ File: 'Capacitor.blend'
# www.blender.org
mtllib Capacitor_LED.mtl
o m_GC_Battery_LED_5_Instance.002_m_GC_Battery_LED_5_Instance.003
v -0.437519 -0.247877 0.050535
v -0.406221 -0.173972 0.059588
v -0.437519 -0.182523 0.050535
v -0.406220 -0.251034 0.059587
v -0.437520 -0.247877 -0.050534
v -0.406221 -0.173972 -0.059588
v -0.406220 -0.251034 -0.059588
v -0.437520 -0.182523 -0.050535
v -0.437520 -0.260365 0.034320
v -0.406220 -0.265759 -0.040469
v -0.406220 -0.265759 0.040469
v -0.437520 -0.260365 -0.034321
v -0.406221 -0.173972 0.059588
v -0.437520 -0.182523 -0.050535
v -0.437519 -0.182523 0.050535
v -0.406221 -0.173972 -0.059588
v -0.437520 -0.247877 -0.050534
v -0.437519 -0.182523 0.050535
v -0.437520 -0.182523 -0.050535
v -0.437520 -0.260365 0.034320
v -0.437519 -0.247877 0.050535
v -0.437520 -0.260365 -0.034321
v -0.437519 -0.148885 0.050535
v -0.406221 -0.064071 0.059588
v -0.437519 -0.071044 0.050535
v -0.406221 -0.155858 0.059588
v -0.437520 -0.148885 -0.050534
v -0.406221 -0.064071 -0.059588
v -0.406221 -0.155858 -0.059588
v -0.437520 -0.071044 -0.050535
v -0.437519 -0.148885 0.050535
v -0.406221 -0.155858 -0.059588
v -0.406221 -0.155858 0.059588
v -0.437520 -0.148885 -0.050534
v -0.406221 -0.064071 0.059588
v -0.437520 -0.071044 -0.050535
v -0.437519 -0.071044 0.050535
v -0.406221 -0.064071 -0.059588
v -0.437519 -0.071044 0.050535
v -0.437520 -0.148885 -0.050534
v -0.437519 -0.148885 0.050535
v -0.437520 -0.071044 -0.050535
v -0.437519 -0.036805 0.050535
v -0.406221 0.048009 0.059588
v -0.437519 0.041036 0.050535
v -0.406221 -0.043778 0.059588
v -0.437520 -0.036805 -0.050534
v -0.406221 0.048009 -0.059588
v -0.406221 -0.043778 -0.059588
v -0.437520 0.041036 -0.050535
v -0.437519 -0.036805 0.050535
v -0.406221 -0.043778 -0.059588
v -0.406221 -0.043778 0.059588
v -0.437520 -0.036805 -0.050534
v -0.406221 0.048009 0.059588
v -0.437520 0.041036 -0.050535
v -0.437519 0.041036 0.050535
v -0.406221 0.048009 -0.059588
v -0.437519 0.041036 0.050535
v -0.437520 -0.036805 -0.050534
v -0.437519 -0.036805 0.050535
v -0.437520 0.041036 -0.050535
v -0.437519 0.071204 0.050535
v -0.406221 0.156019 0.059588
v -0.437519 0.149046 0.050535
v -0.406221 0.064232 0.059588
v -0.437520 0.071204 -0.050534
v -0.406221 0.156019 -0.059588
v -0.406221 0.064232 -0.059588
v -0.437520 0.149046 -0.050535
v -0.437519 0.071204 0.050535
v -0.406221 0.064232 -0.059588
v -0.406221 0.064232 0.059588
v -0.437520 0.071204 -0.050534
v -0.406221 0.156019 0.059588
v -0.437520 0.149046 -0.050535
v -0.437519 0.149046 0.050535
v -0.406221 0.156019 -0.059588
v -0.437519 0.149046 0.050535
v -0.437520 0.071204 -0.050534
v -0.437519 0.071204 0.050535
v -0.437520 0.149046 -0.050535
v -0.437519 0.181006 0.050535
v -0.406221 0.249516 0.059588
v -0.437519 0.246359 0.050535
v -0.406221 0.172455 0.059588
v -0.437520 0.181006 -0.050535
v -0.406221 0.249516 -0.059588
v -0.406221 0.172455 -0.059588
v -0.437520 0.246359 -0.050535
v -0.437519 0.181006 0.050535
v -0.406221 0.172455 -0.059588
v -0.406221 0.172455 0.059588
v -0.437520 0.181006 -0.050535
v -0.406221 0.264241 0.040469
v -0.437520 0.258847 -0.034321
v -0.437520 0.258847 0.034320
v -0.406221 0.264241 -0.040469
v -0.437520 0.181006 -0.050535
v -0.437520 0.258847 -0.034321
v -0.437520 0.246359 -0.050535
v -0.437519 0.246359 0.050535
v -0.437520 0.258847 0.034320
v -0.437519 0.181006 0.050535
v -0.406220 -0.251034 0.059587
v -0.437520 -0.260365 0.034320
v -0.406220 -0.265759 0.040469
v -0.437519 -0.247877 0.050535
v -0.437520 -0.247877 -0.050534
v -0.406220 -0.265759 -0.040469
v -0.437520 -0.260365 -0.034321
v -0.406220 -0.251034 -0.059588
v -0.437519 0.246359 0.050535
v -0.406221 0.264241 0.040469
v -0.437520 0.258847 0.034320
v -0.406221 0.249516 0.059588
v -0.406221 0.249516 -0.059588
v -0.437520 0.258847 -0.034321
v -0.406221 0.264241 -0.040469
v -0.437520 0.246359 -0.050535
vt 0.000000 0.020732
vt 0.000000 0.124000
vt 0.000000 0.124000
vt 0.000000 0.020732
vt 0.100000 0.020732
vt 0.100000 0.124000
vt 0.100000 0.020732
vt 0.100000 0.124000
vt 0.016042 0.001000
vt 0.083958 0.001000
vt 0.016042 0.001000
vt 0.083958 0.001000
vt 0.000000 0.124000
vt 0.100000 0.124000
vt 0.000000 0.124000
vt 0.100000 0.124000
vt 0.100000 0.020732
vt 0.000000 0.124000
vt 0.100000 0.124000
vt 0.016042 0.001000
vt 0.000000 0.020732
vt 0.083958 0.001000
vt 0.000000 0.126000
vt 0.000000 0.249000
vt 0.000000 0.249000
vt 0.000000 0.126000
vt 0.100000 0.126000
vt 0.100000 0.249000
vt 0.100000 0.126000
vt 0.100000 0.249000
vt 0.000000 0.126000
vt 0.100000 0.126000
vt 0.000000 0.126000
vt 0.100000 0.126000
vt 0.000000 0.249000
vt 0.100000 0.249000
vt 0.000000 0.249000
vt 0.100000 0.249000
vt 0.000000 0.249000
vt 0.100000 0.126000
vt 0.000000 0.126000
vt 0.100000 0.249000
vt 0.000000 0.251000
vt 0.000000 0.374000
vt 0.000000 0.374000
vt 0.000000 0.251000
vt 0.100000 0.251000
vt 0.100000 0.374000
vt 0.100000 0.251000
vt 0.100000 0.374000
vt 0.000000 0.251000
vt 0.100000 0.251000
vt 0.000000 0.251000
vt 0.100000 0.251000
vt 0.000000 0.374000
vt 0.100000 0.374000
vt 0.000000 0.374000
vt 0.100000 0.374000
vt 0.000000 0.374000
vt 0.100000 0.251000
vt 0.000000 0.251000
vt 0.100000 0.374000
vt 0.000000 0.376000
vt 0.000000 0.499000
vt 0.000000 0.499000
vt 0.000000 0.376000
vt 0.100000 0.376000
vt 0.100000 0.499000
vt 0.100000 0.376000
vt 0.100000 0.499000
vt 0.000000 0.376000
vt 0.100000 0.376000
vt 0.000000 0.376000
vt 0.100000 0.376000
vt 0.000000 0.499000
vt 0.100000 0.499000
vt 0.000000 0.499000
vt 0.100000 0.499000
vt 0.000000 0.499000
vt 0.100000 0.376000
vt 0.000000 0.376000
vt 0.100000 0.499000
vt 0.000000 0.501000
vt 0.000000 0.604268
vt 0.000000 0.604268
vt 0.000000 0.501000
vt 0.100000 0.501000
vt 0.100000 0.604268
vt 0.100000 0.501000
vt 0.100000 0.604268
vt 0.000000 0.501000
vt 0.100000 0.501000
vt 0.000000 0.501000
vt 0.100000 0.501000
vt 0.016042 0.624000
vt 0.083958 0.624000
vt 0.016042 0.624000
vt 0.083958 0.624000
vt 0.100000 0.501000
vt 0.083958 0.624000
vt 0.100000 0.604268
vt 0.000000 0.604268
vt 0.016042 0.624000
vt 0.000000 0.501000
vt 0.000000 0.020732
vt 0.016042 0.001000
vt 0.016042 0.001000
vt 0.000000 0.020732
vt 0.100000 0.020732
vt 0.083958 0.001000
vt 0.083958 0.001000
vt 0.100000 0.020732
vt 0.000000 0.604268
vt 0.016042 0.624000
vt 0.016042 0.624000
vt 0.000000 0.604268
vt 0.100000 0.604268
vt 0.083958 0.624000
vt 0.083958 0.624000
vt 0.100000 0.604268
vn -0.2778 -0.0000 0.9606
vn -0.2779 -0.0000 0.9606
vn -0.2779 -0.0000 -0.9606
vn -0.1698 -0.9855 0.0000
vn -0.2636 0.9646 0.0000
vn -1.0000 -0.0000 0.0000
vn -0.2174 -0.9761 -0.0000
vn -0.2174 0.9761 0.0000
vn -0.2635 -0.9646 -0.0000
vn -0.1698 0.9855 0.0000
vn -0.2484 -0.7674 0.5911
vn -0.2484 -0.7674 -0.5911
vn -0.2484 0.7674 0.5911
vn -0.2484 0.7674 -0.5911
usemtl Default_OBJ.001
s 1
f 1/1/1 2/2/2 3/3/2
f 2/2/2 1/1/1 4/4/1
f 5/5/3 6/6/3 7/7/3
f 6/6/3 5/5/3 8/8/3
f 9/9/4 10/10/4 11/11/4
f 10/10/4 9/9/4 12/12/4
f 13/13/5 14/14/5 15/15/5
f 14/14/5 13/13/5 16/16/5
f 17/17/6 18/18/6 19/19/6
f 17/17/6 20/20/6 18/18/6
f 18/18/6 20/20/6 21/21/6
f 22/22/6 20/20/6 17/17/6
f 23/23/2 24/24/2 25/25/2
f 24/24/2 23/23/2 26/26/2
f 27/27/3 28/28/3 29/29/3
f 28/28/3 27/27/3 30/30/3
f 31/31/7 32/32/7 33/33/7
f 32/32/7 31/31/7 34/34/7
f 35/35/8 36/36/8 37/37/8
f 36/36/8 35/35/8 38/38/8
f 39/39/6 40/40/6 41/41/6
f 40/40/6 39/39/6 42/42/6
f 43/43/2 44/44/2 45/45/2
f 44/44/2 43/43/2 46/46/2
f 47/47/3 48/48/3 49/49/3
f 48/48/3 47/47/3 50/50/3
f 51/51/7 52/52/7 53/53/7
f 52/52/7 51/51/7 54/54/7
f 55/55/8 56/56/8 57/57/8
f 56/56/8 55/55/8 58/58/8
f 59/59/6 60/60/6 61/61/6
f 60/60/6 59/59/6 62/62/6
f 63/63/2 64/64/2 65/65/2
f 64/64/2 63/63/2 66/66/2
f 67/67/3 68/68/3 69/69/3
f 68/68/3 67/67/3 70/70/3
f 71/71/7 72/72/7 73/73/7
f 72/72/7 71/71/7 74/74/7
f 75/75/8 76/76/8 77/77/8
f 76/76/8 75/75/8 78/78/8
f 79/79/6 80/80/6 81/81/6
f 80/80/6 79/79/6 82/82/6
f 83/83/2 84/84/2 85/85/2
f 84/84/2 83/83/2 86/86/2
f 87/87/3 88/88/3 89/89/3
f 88/88/3 87/87/3 90/90/3
f 91/91/9 92/92/9 93/93/9
f 92/92/9 91/91/9 94/94/9
f 95/95/10 96/96/10 97/97/10
f 96/96/10 95/95/10 98/98/10
f 99/99/6 100/100/6 101/101/6
f 99/99/6 102/102/6 100/100/6
f 100/100/6 102/102/6 103/103/6
f 99/99/6 104/104/6 102/102/6
f 105/105/11 106/106/11 107/107/11
f 106/106/11 105/105/11 108/108/11
f 109/109/12 110/110/12 111/111/12
f 110/110/12 109/109/12 112/112/12
f 113/113/13 114/114/13 115/115/13
f 114/114/13 113/113/13 116/116/13
f 117/117/14 118/118/14 119/119/14
f 118/118/14 117/117/14 120/120/14
