# This file uses centimeters as units for non-parametric coordinates.

g default
v 0.365626 0.093901 0.261790
v 0.296886 0.162641 0.261790
v 0.202985 0.187801 0.261790
v 0.109085 0.162641 0.261790
v 0.040345 0.093901 0.261790
v 0.015184 0.000000 0.261790
v 0.040345 -0.093901 0.261790
v 0.109085 -0.162641 0.261790
v 0.202985 -0.187801 0.261790
v 0.296886 -0.162641 0.261790
v 0.365626 -0.093901 0.261790
v 0.390787 0.000000 0.261790
v 0.365626 0.093901 0.678483
v 0.349364 0.084512 0.696622
v 0.296886 0.162641 0.678483
v 0.287497 0.146378 0.696622
v 0.202985 0.187801 0.678483
v 0.202985 0.169023 0.696622
v 0.109085 0.162641 0.678483
v 0.118474 0.146378 0.696622
v 0.040345 0.093901 0.678483
v 0.056607 0.084512 0.696622
v 0.015184 0.000000 0.678483
v 0.033962 0.000000 0.696622
v 0.040345 -0.093901 0.678483
v 0.056607 -0.084512 0.696622
v 0.109085 -0.162641 0.678483
v 0.118474 -0.146378 0.696622
v 0.202985 -0.187801 0.678483
v 0.202985 -0.169023 0.696622
v 0.296886 -0.162641 0.678483
v 0.287497 -0.146378 0.696622
v 0.365626 -0.093901 0.678483
v 0.349364 -0.084512 0.696622
v 0.390787 0.000000 0.678483
v 0.372008 0.000000 0.696622
v -0.421478 -0.213667 -0.179378
v -0.421478 0.171272 -0.179378
v 0.421478 0.171272 -0.179378
v 0.421478 -0.213667 -0.179378
v -0.421478 0.279003 -0.071646
v -0.421478 -0.213667 0.638308
v -0.421478 0.279003 0.359334
v -0.421478 0.000028 0.638308
v 0.421478 -0.213667 0.638308
v 0.421478 0.279003 -0.071646
v 0.421478 0.279003 0.359334
v 0.421478 0.000028 0.638308
v -0.289474 0.279003 0.040853
v -0.263530 0.279003 0.014909
v -0.289474 0.195089 0.040853
v -0.263530 0.195089 0.014909
v -0.142441 0.279003 0.014909
v -0.116497 0.279003 0.040853
v -0.116497 0.195089 0.040853
v -0.142441 0.195089 0.014909
v -0.263530 0.279003 0.294188
v -0.289474 0.279003 0.268244
v -0.263530 0.195089 0.294188
v -0.289474 0.195089 0.268244
v -0.116497 0.195089 0.268244
v -0.142441 0.195089 0.294188
v -0.142441 0.279003 0.294188
v -0.116497 0.279003 0.268244
v 0.142441 0.279003 0.014909
v 0.116497 0.279003 0.040853
v 0.116497 0.195089 0.040853
v 0.142441 0.195089 0.014909
v 0.289474 0.279003 0.040853
v 0.263530 0.279003 0.014909
v 0.289474 0.195089 0.040853
v 0.263530 0.195089 0.014909
v 0.142441 0.279003 0.294188
v 0.116497 0.279003 0.268244
v 0.142441 0.195089 0.294188
v 0.116497 0.195089 0.268244
v 0.289474 0.195089 0.268244
v 0.263530 0.195089 0.294188
v 0.289474 0.279003 0.268244
v 0.263530 0.279003 0.294188
v -0.107307 0.279003 0.037992
v -0.365626 0.093901 0.261790
v -0.296886 0.162641 0.261790
v -0.202985 0.187801 0.261790
v -0.109085 0.162641 0.261790
v -0.040345 0.093901 0.261790
v -0.015184 0.000000 0.261790
v -0.040345 -0.093901 0.261790
v -0.109085 -0.162641 0.261790
v -0.202985 -0.187801 0.261790
v -0.296886 -0.162641 0.261790
v -0.365626 -0.093901 0.261790
v -0.390787 0.000000 0.261790
v -0.365626 0.093901 0.678483
v -0.349364 0.084512 0.696622
v -0.296886 0.162641 0.678483
v -0.287497 0.146378 0.696622
v -0.202985 0.187801 0.678483
v -0.202985 0.169023 0.696622
v -0.109085 0.162641 0.678483
v -0.118474 0.146378 0.696622
v -0.040345 0.093901 0.678483
v -0.056607 0.084512 0.696622
v -0.015184 0.000000 0.678483
v -0.033962 0.000000 0.696622
v -0.040345 -0.093901 0.678483
v -0.056607 -0.084512 0.696622
v -0.109085 -0.162641 0.678483
v -0.118474 -0.146378 0.696622
v -0.202985 -0.187801 0.678483
v -0.202985 -0.169023 0.696622
v -0.296886 -0.162641 0.678483
v -0.287497 -0.146378 0.696622
v -0.365626 -0.093901 0.678483
v -0.349364 -0.084512 0.696622
v -0.390787 0.000000 0.678483
v -0.372008 0.000000 0.696622
vt 0.471839 0.990058
vt 0.470875 0.989501
vt 0.472218 0.984490
vt 0.473331 0.984490
vt 0.467763 0.994134
vt 0.467206 0.993170
vt 0.462195 0.995626
vt 0.462195 0.994512
vt 0.456627 0.994134
vt 0.457184 0.993170
vt 0.452551 0.990058
vt 0.453515 0.989501
vt 0.451059 0.984490
vt 0.452173 0.984490
vt 0.452551 0.978922
vt 0.453515 0.979478
vt 0.456627 0.974846
vt 0.457184 0.975810
vt 0.462195 0.973354
vt 0.462195 0.974467
vt 0.467763 0.974846
vt 0.467206 0.975810
vt 0.471839 0.978922
vt 0.470875 0.979478
vt 0.496978 0.935044
vt 0.496978 0.942773
vt 0.476598 0.942773
vt 0.476598 0.935044
vt 0.496978 0.950502
vt 0.476598 0.950502
vt 0.496978 0.958232
vt 0.476598 0.958232
vt 0.496978 0.965961
vt 0.476598 0.965961
vt 0.496978 0.973690
vt 0.476598 0.973690
vt 0.496978 0.981419
vt 0.476598 0.981419
vt 0.496978 0.989148
vt 0.476598 0.989148
vt 0.496978 0.996878
vt 0.476598 0.996878
vt 0.496978 0.904127
vt 0.496978 0.911856
vt 0.476598 0.911856
vt 0.476598 0.904127
vt 0.496978 0.919585
vt 0.476598 0.919585
vt 0.496978 0.927315
vt 0.476598 0.927315
vt 0.450886 0.960151
vt 0.435861 0.960151
vt 0.435861 0.927249
vt 0.450886 0.927249
vt 0.431657 0.960151
vt 0.435861 0.964356
vt 0.435861 0.979381
vt 0.403946 0.979381
vt 0.414835 0.960151
vt 0.403946 0.971040
vt 0.482802 0.960151
vt 0.482802 0.927249
vt 0.149377 0.567604
vt 0.156913 0.567604
vt 0.156913 0.578479
vt 0.149377 0.578479
vt 0.431657 0.927249
vt 0.149377 0.581774
vt 0.156913 0.581774
vt 0.156913 0.602196
vt 0.149377 0.602196
vt 0.149377 0.619661
vt 0.156913 0.619661
vt 0.156913 0.640082
vt 0.149377 0.640082
vt 0.149377 0.605491
vt 0.156913 0.605491
vt 0.156913 0.616365
vt 0.149377 0.616365
vt 0.403946 0.908019
vt 0.414835 0.927249
vt 0.403946 0.916360
vt 0.149378 0.632490
vt 0.156911 0.632490
vt 0.156911 0.643360
vt 0.149378 0.643360
vt 0.149378 0.570915
vt 0.156911 0.570915
vt 0.156911 0.591327
vt 0.149378 0.591327
vt 0.395605 0.927249
vt 0.403946 0.927249
vt 0.403946 0.960151
vt 0.395605 0.960151
vt 0.149378 0.608784
vt 0.156911 0.608784
vt 0.156911 0.629197
vt 0.149378 0.629197
vt 0.149378 0.594621
vt 0.156911 0.594621
vt 0.156911 0.605491
vt 0.149378 0.605491
vt 0.435861 0.908019
vt 0.435861 0.923044
vt 0.428280 0.938140
vt 0.428278 0.933414
vt 0.427265 0.932394
vt 0.418392 0.932396
vt 0.417351 0.953983
vt 0.418390 0.954998
vt 0.417383 0.949265
vt 0.428278 0.953986
vt 0.427265 0.955005
vt 0.428281 0.949260
vt 0.200671 0.640450
vt 0.195223 0.645898
vt 0.169798 0.645898
vt 0.164351 0.640450
vt 0.169798 0.645898
vt 0.164351 0.640450
vt 0.200671 0.640450
vt 0.195223 0.645898
vt 0.417383 0.938136
vt 0.427265 0.948247
vt 0.427377 0.947888
vt 0.427265 0.939153
vt 0.417377 0.933414
vt 0.156913 0.643377
vt 0.149377 0.643377
vt 0.156911 0.567621
vt 0.149378 0.567621
vt 0.418390 0.948247
vt 0.418390 0.939153
vt 0.200671 0.592705
vt 0.164351 0.592705
vt 0.169798 0.587257
vt 0.195223 0.587257
vt 0.200671 0.592705
vt 0.164351 0.592705
vt 0.169798 0.587257
vt 0.195223 0.587257
vt 0.471839 0.990058
vt 0.473331 0.984490
vt 0.472218 0.984490
vt 0.470875 0.989501
vt 0.467206 0.993170
vt 0.467763 0.994134
vt 0.462195 0.994512
vt 0.462195 0.995626
vt 0.457184 0.993170
vt 0.456627 0.994134
vt 0.453515 0.989501
vt 0.452551 0.990058
vt 0.452173 0.984490
vt 0.451059 0.984490
vt 0.453515 0.979478
vt 0.452551 0.978922
vt 0.457184 0.975810
vt 0.456627 0.974846
vt 0.462195 0.974467
vt 0.462195 0.973354
vt 0.467206 0.975810
vt 0.467763 0.974846
vt 0.470875 0.979478
vt 0.471839 0.978922
vt 0.496978 0.935044
vt 0.476598 0.935044
vt 0.476598 0.942773
vt 0.496978 0.942773
vt 0.476598 0.950502
vt 0.496978 0.950502
vt 0.476598 0.958232
vt 0.496978 0.958232
vt 0.476598 0.965961
vt 0.496978 0.965961
vt 0.476598 0.973690
vt 0.496978 0.973690
vt 0.476598 0.981419
vt 0.496978 0.981419
vt 0.476598 0.989148
vt 0.496978 0.989148
vt 0.476598 0.996878
vt 0.496978 0.996878
vt 0.496978 0.904127
vt 0.476598 0.904127
vt 0.476598 0.911856
vt 0.496978 0.911856
vt 0.476598 0.919585
vt 0.496978 0.919585
vt 0.476598 0.927315
vt 0.496978 0.927315
vn 0.601668 0.347373 0.719255
vn 0.601668 0.347373 0.719255
vn 0.694745 0.000000 0.719256
vn 0.694745 0.000000 0.719256
vn 0.347373 0.601668 0.719255
vn 0.347373 0.601668 0.719255
vn 0.000000 0.694745 0.719256
vn 0.000000 0.694745 0.719256
vn -0.347373 0.601668 0.719255
vn -0.347373 0.601668 0.719255
vn -0.601668 0.347374 0.719255
vn -0.601668 0.347374 0.719255
vn -0.694746 0.000000 0.719256
vn -0.694746 0.000000 0.719256
vn -0.601666 -0.347373 0.719256
vn -0.601666 -0.347373 0.719256
vn -0.347372 -0.601666 0.719257
vn -0.347372 -0.601666 0.719257
vn 0.000000 -0.694744 0.719257
vn 0.000000 -0.694744 0.719257
vn 0.347372 -0.601666 0.719257
vn 0.347372 -0.601666 0.719257
vn 0.601666 -0.347373 0.719257
vn 0.601666 -0.347373 0.719257
vn 0.866025 0.500000 0.000000
vn 0.500000 0.866025 0.000000
vn 0.500000 0.866025 0.000000
vn 0.866025 0.500000 0.000000
vn 0.000000 1.000000 0.000000
vn 0.000000 1.000000 0.000000
vn -0.500000 0.866025 0.000000
vn -0.500000 0.866025 0.000000
vn -0.866025 0.500000 0.000000
vn -0.866025 0.500000 0.000000
vn -1.000000 0.000000 0.000000
vn -1.000000 0.000000 0.000000
vn -0.866025 -0.500000 0.000000
vn -0.866025 -0.500000 0.000000
vn -0.500000 -0.866025 0.000000
vn -0.500000 -0.866025 0.000000
vn 0.000000 -1.000000 0.000000
vn 0.000000 -1.000000 0.000000
vn 0.500000 -0.866025 0.000000
vn 0.500000 -0.866025 0.000000
vn 0.866026 -0.500000 0.000000
vn 0.866025 -0.500000 0.000000
vn 1.000000 0.000000 0.000000
vn 1.000000 0.000000 0.000000
vn 0.000000 0.000000 1.000000
vn 0.000000 0.000000 1.000000
vn 0.000000 0.000000 1.000000
vn 0.000000 0.000000 1.000000
vn 0.000000 0.000000 1.000000
vn 0.000000 0.000000 1.000000
vn 0.000000 0.000000 1.000000
vn 0.000000 0.000000 1.000000
vn 0.000000 0.000000 1.000000
vn 0.000000 0.000000 1.000000
vn 0.000000 0.000000 1.000000
vn 0.000000 0.000003 1.000000
vn 0.000000 0.000000 -1.000000
vn 0.000000 0.000000 -1.000000
vn 0.000000 0.000000 -1.000000
vn 0.000000 0.000000 -1.000000
vn -1.000000 -0.000000 0.000000
vn -1.000000 -0.000000 0.000000
vn -1.000000 -0.000000 0.000000
vn -1.000000 -0.000000 0.000000
vn -1.000000 -0.000000 0.000000
vn -1.000000 0.000000 0.000000
vn -1.000000 0.000000 0.000000
vn -1.000000 0.000000 0.000000
vn 0.000000 -1.000000 0.000000
vn 0.000000 -1.000000 0.000000
vn 0.000000 -1.000000 0.000000
vn 0.000000 -1.000000 0.000000
vn 0.000000 0.000000 1.000000
vn 0.000000 0.000000 1.000000
vn 0.000000 0.000000 1.000000
vn 0.000000 0.000000 1.000000
vn 0.000000 0.707107 -0.707107
vn 0.000000 0.707107 -0.707107
vn 0.000000 0.707107 -0.707107
vn 0.000000 0.707107 -0.707107
vn 1.000000 0.000000 0.000000
vn 1.000000 0.000000 0.000000
vn 1.000000 0.000000 0.000000
vn 1.000000 0.000000 0.000000
vn -1.000000 0.000000 0.000000
vn -1.000000 0.000000 0.000000
vn -1.000000 0.000000 0.000000
vn -1.000000 0.000000 0.000000
vn 0.000000 0.000000 -1.000000
vn 0.000000 0.000000 -1.000000
vn 0.000000 0.000000 -1.000000
vn 0.000000 0.000000 -1.000000
vn 1.000000 0.000000 0.000000
vn 1.000000 0.000000 0.000000
vn 1.000000 0.000000 0.000000
vn 0.000000 0.000000 1.000000
vn 0.000000 0.000000 1.000000
vn 0.000000 0.000000 1.000000
vn 0.000000 0.000000 1.000000
vn 1.000000 0.000000 0.000000
vn 1.000000 0.000000 0.000000
vn 1.000000 0.000000 0.000000
vn 1.000000 0.000000 0.000000
vn 0.000000 0.000000 1.000000
vn 0.000000 0.000000 1.000000
vn 0.000000 0.000000 1.000000
vn 0.000000 0.000000 1.000000
vn 0.000000 0.707106 0.707107
vn 0.000000 0.707106 0.707107
vn 0.000000 0.707106 0.707107
vn 0.000000 0.707106 0.707107
vn -1.000000 0.000000 0.000000
vn -1.000000 0.000000 0.000000
vn -1.000000 0.000000 0.000000
vn -1.000000 0.000000 0.000000
vn 0.000000 0.000000 -1.000000
vn 0.000000 0.000000 -1.000000
vn 0.000000 0.000000 -1.000000
vn 0.000000 0.000000 -1.000000
vn 1.000000 0.000000 0.000000
vn 1.000000 0.000000 0.000000
vn 1.000000 0.000000 0.000000
vn 1.000000 0.000000 0.000000
vn 1.000000 0.000000 0.000000
vn 0.000000 1.000000 0.000003
vn 0.000000 1.000000 0.000003
vn 0.000000 1.000000 0.000003
vn 0.000000 1.000000 0.000000
vn 0.000000 1.000000 0.000000
vn 0.000000 1.000000 0.000000
vn 0.000000 1.000000 0.000000
vn 0.000000 1.000000 0.000000
vn 0.000000 1.000000 0.000000
vn 0.000000 1.000000 0.000000
vn 0.000000 1.000000 0.000000
vn 0.000000 1.000000 0.000000
vn 0.000000 1.000000 0.000000
vn 0.000000 1.000000 0.000000
vn 0.000000 1.000000 0.000000
vn 0.000000 1.000000 0.000000
vn 0.000000 1.000000 0.000000
vn 0.000000 1.000000 0.000000
vn 0.000000 1.000000 0.000000
vn 0.000000 1.000000 0.000000
vn 0.000000 1.000000 0.000004
vn 0.000000 1.000000 0.000004
vn 0.000000 1.000000 0.000004
vn 0.000000 1.000000 0.000004
vn 0.000000 1.000000 0.000002
vn 0.000000 1.000000 0.000002
vn 0.000000 1.000000 0.000002
vn 0.000000 1.000000 0.000002
vn 0.000000 1.000000 0.000000
vn 0.000000 1.000000 0.000000
vn 0.000000 1.000000 0.000000
vn 0.000000 1.000000 0.000000
vn 0.000000 1.000000 0.000000
vn 0.000000 1.000000 0.000000
vn 0.000000 1.000000 0.000000
vn 0.000000 1.000000 0.000000
vn 0.000000 1.000000 0.000000
vn 0.000000 1.000000 0.000000
vn 0.000000 1.000000 0.000000
vn 0.000000 1.000000 0.000000
vn 0.707107 0.000000 0.707107
vn 0.707107 0.000000 0.707107
vn 0.707107 0.000000 0.707107
vn 0.707107 0.000000 0.707107
vn -0.707107 0.000000 0.707107
vn -0.707107 0.000000 0.707107
vn -0.707107 0.000000 0.707107
vn -0.707107 0.000000 0.707107
vn 0.707107 0.000000 -0.707107
vn 0.707107 0.000000 -0.707107
vn 0.707107 0.000000 -0.707107
vn 0.707107 0.000000 -0.707107
vn -0.707107 0.000000 -0.707107
vn -0.707107 0.000000 -0.707107
vn -0.707107 0.000000 -0.707107
vn -0.707107 0.000000 -0.707107
vn 0.707107 0.000000 0.707107
vn 0.707107 0.000000 0.707107
vn 0.707107 0.000000 0.707107
vn 0.707107 0.000000 0.707107
vn -0.707107 0.000000 0.707107
vn -0.707107 0.000000 0.707107
vn -0.707107 0.000000 0.707107
vn -0.707107 0.000000 0.707107
vn 0.707107 0.000000 -0.707107
vn 0.707107 0.000000 -0.707107
vn 0.707107 0.000000 -0.707107
vn 0.707107 0.000000 -0.707107
vn -0.707107 0.000000 -0.707107
vn -0.707107 0.000000 -0.707107
vn -0.707107 0.000000 -0.707107
vn -0.707107 0.000000 -0.707107
vn 0.000000 1.000000 -0.000000
vn 0.000000 1.000000 -0.000000
vn 0.000000 1.000000 -0.000000
vn 0.000000 1.000000 -0.000000
vn 0.000000 1.000000 -0.000000
vn 0.000000 1.000000 0.000004
vn 0.000000 1.000000 0.000004
vn 0.000000 1.000000 0.000004
vn 0.000000 1.000000 0.000004
vn 0.000000 1.000000 0.000000
vn 0.000000 1.000000 0.000000
vn 0.000000 1.000000 0.000000
vn 0.000000 1.000000 0.000000
vn 0.000000 1.000000 0.000000
vn 0.000000 1.000000 0.000000
vn 0.000000 1.000000 0.000000
vn 0.000000 1.000000 0.000000
vn 0.000000 1.000000 0.000000
vn 0.000000 1.000000 0.000000
vn 0.000000 1.000000 0.000000
vn 0.000000 1.000000 0.000000
vn 0.000000 1.000000 0.000000
vn 0.000000 1.000000 -0.000002
vn 0.000000 1.000000 -0.000002
vn 0.000000 1.000000 -0.000002
vn 0.000000 1.000000 -0.000002
vn 0.000000 1.000000 0.000000
vn 0.000000 1.000000 0.000000
vn 0.000000 1.000000 0.000000
vn 0.000000 1.000000 0.000000
vn 0.000000 1.000000 0.000002
vn 0.000000 1.000000 0.000002
vn 0.000000 1.000000 0.000002
vn 0.000000 1.000000 0.000002
vn 0.000000 1.000000 0.000000
vn 0.000000 1.000000 0.000000
vn 0.000000 1.000000 0.000000
vn 0.000000 1.000000 0.000000
vn -0.601668 0.347373 0.719255
vn -0.694745 0.000000 0.719256
vn -0.694745 0.000000 0.719256
vn -0.601668 0.347373 0.719255
vn -0.347373 0.601668 0.719255
vn -0.347373 0.601668 0.719255
vn 0.000000 0.694745 0.719256
vn 0.000000 0.694745 0.719256
vn 0.347372 0.601668 0.719255
vn 0.347372 0.601668 0.719255
vn 0.601668 0.347373 0.719255
vn 0.601668 0.347373 0.719255
vn 0.694746 -0.000000 0.719255
vn 0.694746 -0.000000 0.719255
vn 0.601667 -0.347373 0.719256
vn 0.601666 -0.347373 0.719256
vn 0.347372 -0.601666 0.719256
vn 0.347372 -0.601667 0.719256
vn 0.000000 -0.694744 0.719257
vn 0.000000 -0.694744 0.719257
vn -0.347372 -0.601666 0.719257
vn -0.347372 -0.601666 0.719257
vn -0.601667 -0.347373 0.719256
vn -0.601666 -0.347373 0.719256
vn -0.866025 0.500000 0.000000
vn -0.866025 0.500000 0.000000
vn -0.500000 0.866025 0.000000
vn -0.500000 0.866025 0.000000
vn -0.000000 1.000000 0.000000
vn 0.000000 1.000000 0.000000
vn 0.500000 0.866025 0.000000
vn 0.500000 0.866025 0.000000
vn 0.866025 0.500000 0.000000
vn 0.866025 0.500000 0.000000
vn 1.000000 0.000000 0.000000
vn 1.000000 0.000000 0.000000
vn 0.866025 -0.500000 0.000000
vn 0.866025 -0.500000 0.000000
vn 0.500000 -0.866025 0.000000
vn 0.500000 -0.866025 0.000000
vn -0.000000 -1.000000 0.000000
vn -0.000000 -1.000000 0.000000
vn -0.500000 -0.866025 0.000000
vn -0.500000 -0.866025 0.000000
vn -0.866025 -0.500000 0.000000
vn -0.866026 -0.500000 0.000000
vn -1.000000 0.000000 0.000000
vn -1.000000 0.000000 0.000000
vn 0.000000 0.000000 1.000000
vn 0.000000 0.000000 1.000000
vn 0.000000 0.000000 1.000000
vn 0.000000 0.000000 1.000000
vn 0.000000 0.000000 1.000000
vn 0.000000 0.000000 1.000000
vn 0.000000 0.000000 1.000000
vn 0.000000 0.000000 1.000000
vn 0.000000 0.000000 1.000000
vn 0.000000 0.000000 1.000000
vn 0.000000 0.000000 1.000000
vn 0.000000 0.000003 1.000000
s 1
g geo_barrel_base
f 13/1/1 14/2/2 36/3/3 35/4/4
f 14/2/2 13/1/1 15/5/5 16/6/6
f 16/6/6 15/5/5 17/7/7 18/8/8
f 18/8/8 17/7/7 19/9/9 20/10/10
f 20/10/10 19/9/9 21/11/11 22/12/12
f 22/12/12 21/11/11 23/13/13 24/14/14
f 24/14/14 23/13/13 25/15/15 26/16/16
f 26/16/16 25/15/15 27/17/17 28/18/18
f 28/18/18 27/17/17 29/19/19 30/20/20
f 30/20/20 29/19/19 31/21/21 32/22/22
f 32/22/22 31/21/21 33/23/23 34/24/24
f 34/24/24 33/23/23 35/4/4 36/3/3
s 2
f 1/25/25 2/26/26 15/27/27 13/28/28
f 2/26/26 3/29/29 17/30/30 15/27/27
f 3/29/29 4/31/31 19/32/32 17/30/30
f 4/31/31 5/33/33 21/34/34 19/32/32
f 5/33/33 6/35/35 23/36/36 21/34/34
f 6/35/35 7/37/37 25/38/38 23/36/36
f 7/37/37 8/39/39 27/40/40 25/38/38
f 8/39/39 9/41/41 29/42/42 27/40/40
f 9/43/41 10/44/43 31/45/44 29/46/42
f 10/44/43 11/47/45 33/48/46 31/45/44
f 11/47/45 12/49/47 35/50/48 33/48/46
f 12/49/47 1/25/25 13/28/28 35/50/48
s 3
f 22/12/49 14/2/50 16/6/51 20/10/52
f 34/24/53 26/16/54 28/18/55 32/22/56
f 24/14/57 36/3/58 14/2/50 22/12/49
f 24/14/57 26/16/54 34/24/53 36/3/58
f 32/22/56 28/18/55 30/20/59
f 20/10/52 16/6/51 18/8/60
s off
f 37/51/61 38/52/62 39/53/63 40/54/64
f 41/55/65 38/56/66 37/57/67 42/58/68 43/59/69
f 42/58/70 44/60/71 43/59/72
f 42/61/73 37/51/74 40/54/75 45/62/76
f 56/63/77 53/64/78 50/65/79 52/66/80
f 46/67/81 39/53/82 38/52/83 41/55/84
f 51/68/85 49/69/86 58/70/87 60/71/88
f 61/72/89 64/73/90 54/74/91 55/75/92
f 59/76/93 57/77/94 63/78/95 62/79/96
f 45/80/97 47/81/98 48/82/99
f 72/83/100 70/84/101 65/85/102 68/86/103
f 67/87/104 66/88/105 74/89/106 76/90/107
f 45/91/108 48/92/109 44/93/110 42/94/111
f 47/81/112 43/59/113 44/93/114 48/92/115
f 77/95/116 79/96/117 69/97/118 71/98/119
f 75/99/120 73/100/121 80/101/122 78/102/123
f 40/103/124 39/104/125 46/67/126 47/81/127 45/80/128
f 46/67/129 65/105/130 70/106/131
f 46/67/132 69/107/133 79/108/134 47/81/135
f 43/59/136 57/109/137 58/110/138
f 43/59/139 63/111/140 57/109/141
f 50/112/142 41/55/143 49/113/144
f 53/114/145 65/105/146 46/67/147 41/55/148
f 55/115/149 56/116/150 52/117/151 51/118/152
f 68/119/153 67/120/154 71/121/155 72/122/156
f 73/123/157 63/111/158 43/59/159 47/81/160
f 54/124/161 81/125/162 66/126/163 65/105/164 53/114/165
f 79/108/166 80/127/167 47/81/168
f 50/65/169 49/69/170 51/68/171 52/66/172
f 54/74/173 53/128/174 56/129/175 55/75/176
f 58/70/177 57/77/178 59/76/179 60/71/180
f 61/72/181 62/79/182 63/78/183 64/73/184
f 65/130/185 66/88/186 67/87/187 68/131/188
f 69/97/189 70/84/190 72/83/191 71/98/192
f 74/89/193 73/100/194 75/99/195 76/90/196
f 77/95/197 78/102/198 80/101/199 79/96/200
f 64/132/201 74/133/202 66/126/203 81/125/204 54/124/205
f 73/123/206 74/133/207 64/132/208 63/111/209
f 43/59/210 58/110/211 49/113/212 41/55/213
f 47/81/214 80/127/215 73/123/216
f 53/114/217 41/55/218 50/112/219
f 46/67/220 70/106/221 69/107/222
f 77/134/223 76/135/224 75/136/225 78/137/226
f 71/121/227 67/120/228 76/135/229 77/134/230
f 61/138/231 60/139/232 59/140/233 62/141/234
f 55/115/235 51/118/236 60/139/237 61/138/238
s 5
f 94/142/239 116/143/240 117/144/241 95/145/242
f 95/145/242 97/146/243 96/147/244 94/142/239
f 97/146/243 99/148/245 98/149/246 96/147/244
f 99/148/245 101/150/247 100/151/248 98/149/246
f 101/150/247 103/152/249 102/153/250 100/151/248
f 103/152/249 105/154/251 104/155/252 102/153/250
f 105/154/251 107/156/253 106/157/254 104/155/252
f 107/156/253 109/158/255 108/159/256 106/157/254
f 109/158/255 111/160/257 110/161/258 108/159/256
f 111/160/257 113/162/259 112/163/260 110/161/258
f 113/162/259 115/164/261 114/165/262 112/163/260
f 115/164/261 117/144/241 116/143/240 114/165/262
s 6
f 82/166/263 94/167/264 96/168/265 83/169/266
f 83/169/266 96/168/265 98/170/267 84/171/268
f 84/171/268 98/170/267 100/172/269 85/173/270
f 85/173/270 100/172/269 102/174/271 86/175/272
f 86/175/272 102/174/271 104/176/273 87/177/274
f 87/177/274 104/176/273 106/178/275 88/179/276
f 88/179/276 106/178/275 108/180/277 89/181/278
f 89/181/278 108/180/277 110/182/279 90/183/280
f 90/184/280 110/185/279 112/186/281 91/187/282
f 91/187/282 112/186/281 114/188/283 92/189/284
f 92/189/284 114/188/283 116/190/285 93/191/286
f 93/191/286 116/190/285 94/167/264 82/166/263
s 7
f 103/152/287 101/150/288 97/146/289 95/145/290
f 115/164/291 113/162/292 109/158/293 107/156/294
f 105/154/295 103/152/287 95/145/290 117/144/296
f 105/154/295 117/144/296 115/164/291 107/156/294
f 113/162/292 111/160/297 109/158/293
f 101/150/288 99/148/298 97/146/289
