# Blender v2.82 (sub 7) OBJ File: 'DLInfoCore.blend'
# www.blender.org
mtllib DLInfoCoreCore.mtl
o Cube.001_Cube.002
v -0.200000 -0.200000 -0.066667
v -0.200000 -0.200000 0.066667
v -0.200000 -0.066667 0.200000
v -0.200000 0.066667 0.200000
v -0.200000 0.200000 0.066667
v -0.200000 0.200000 -0.066667
v -0.200000 0.066667 -0.200000
v -0.200000 -0.066667 -0.200000
v 0.066667 -0.200000 -0.200000
v -0.066667 -0.200000 -0.200000
v -0.066667 0.200000 -0.200000
v 0.066667 0.200000 -0.200000
v 0.200000 0.066667 -0.200000
v 0.200000 -0.066667 -0.200000
v 0.200000 -0.200000 0.066667
v 0.200000 -0.200000 -0.066667
v 0.200000 0.200000 -0.066667
v 0.200000 0.200000 0.066667
v 0.200000 0.066667 0.200000
v 0.200000 -0.066667 0.200000
v -0.066667 -0.200000 0.200000
v 0.066667 -0.200000 0.200000
v 0.066667 0.200000 0.200000
v -0.066667 0.200000 0.200000
v 0.082350 0.247050 -0.082350
v 0.082350 0.247050 0.082350
v -0.082350 0.247050 -0.082350
v -0.082350 0.247050 0.082350
v -0.082350 -0.247050 -0.082350
v -0.082350 -0.247050 0.082350
v 0.082350 -0.247050 -0.082350
v 0.082350 -0.247050 0.082350
v 0.070430 -0.024915 0.247050
v -0.024915 -0.070430 0.247050
v 0.024915 0.070430 0.247050
v -0.070430 0.024915 0.247050
v 0.247050 -0.082350 -0.082350
v 0.247050 -0.082350 0.082350
v 0.247050 0.082350 -0.082350
v 0.247050 0.082350 0.082350
v -0.033583 -0.023541 -0.247050
v 0.033583 -0.023541 -0.247050
v -0.025231 0.035814 -0.247050
v 0.025231 0.035814 -0.247050
v -0.247050 -0.082350 0.082350
v -0.247050 -0.082350 -0.082350
v -0.247050 0.082350 0.082350
v -0.247050 0.082350 -0.082350
v -0.121588 -0.200000 0.200000
v -0.200000 -0.121588 0.200000
v -0.200000 -0.200000 0.121588
v -0.200000 0.121588 0.200000
v -0.121588 0.200000 0.200000
v -0.200000 0.200000 0.121588
v -0.200000 -0.121588 -0.200000
v -0.121588 -0.200000 -0.200000
v -0.200000 -0.200000 -0.121588
v -0.121588 0.200000 -0.200000
v -0.200000 0.121588 -0.200000
v -0.200000 0.200000 -0.121588
v 0.200000 -0.121588 0.200000
v 0.121588 -0.200000 0.200000
v 0.200000 -0.200000 0.121588
v 0.121588 0.200000 0.200000
v 0.200000 0.121588 0.200000
v 0.200000 0.200000 0.121588
v 0.200000 -0.121588 -0.200000
v 0.200000 -0.200000 -0.121588
v 0.121588 -0.200000 -0.200000
v 0.200000 0.200000 -0.121588
v 0.200000 0.121588 -0.200000
v 0.121588 0.200000 -0.200000
v -0.082350 -0.082350 -0.247050
v 0.082350 -0.082350 -0.247050
v -0.082350 0.082350 -0.247050
v 0.082350 0.082350 -0.247050
v 0.000000 -0.045918 -0.247050
v 0.000000 0.072378 -0.247050
v -0.038882 0.000000 -0.247050
v 0.038882 0.000000 -0.247050
v 0.000000 -0.045918 -0.277050
v 0.033583 -0.023541 -0.277050
v 0.000000 0.072378 -0.277050
v 0.025231 0.035814 -0.277050
v -0.038882 0.000000 -0.277050
v -0.033583 -0.023541 -0.277050
v 0.038882 0.000000 -0.277050
v -0.025231 0.035814 -0.277050
v 0.082350 -0.082350 0.247050
v -0.082350 -0.082350 0.247050
v 0.082350 0.082350 0.247050
v -0.082350 0.082350 0.247050
v 0.000000 -0.036756 0.247050
v 0.000000 0.036756 0.247050
v 0.039230 0.000000 0.247050
v -0.039230 0.000000 0.247050
v 0.000000 -0.036756 0.277050
v -0.024915 -0.070430 0.277050
v 0.000000 0.036756 0.277050
v -0.070430 0.024915 0.277050
v 0.039230 0.000000 0.277050
v 0.070430 -0.024915 0.277050
v -0.039230 0.000000 0.277050
v 0.024915 0.070430 0.277050
vt 0.329811 0.448514
vt 0.350668 0.448514
vt 0.344712 0.403836
vt 0.422158 0.448514
vt 0.401301 0.448514
vt 0.407257 0.403836
vt 0.422158 0.448514
vt 0.401301 0.448514
vt 0.407257 0.403836
vt 0.329811 0.296934
vt 0.344712 0.341611
vt 0.300034 0.326711
vt 0.407257 0.341611
vt 0.422158 0.296934
vt 0.451935 0.326711
vt 0.407257 0.341291
vt 0.451935 0.326390
vt 0.422158 0.296614
vt 0.300034 0.418737
vt 0.344712 0.403836
vt 0.329811 0.448514
vt 0.401301 0.296934
vt 0.451935 0.418737
vt 0.407257 0.403836
vt 0.422158 0.448514
vt 0.407257 0.404156
vt 0.451935 0.347567
vt 0.451935 0.398201
vt 0.350668 0.448834
vt 0.401301 0.448834
vt 0.344712 0.404156
vt 0.451935 0.418737
vt 0.407257 0.403836
vt 0.422158 0.448514
vt 0.300034 0.398201
vt 0.329811 0.448514
vt 0.350668 0.448514
vt 0.344712 0.403836
vt 0.407257 0.341611
vt 0.350668 0.296934
vt 0.344712 0.341611
vt 0.300034 0.419057
vt 0.344712 0.404156
vt 0.300034 0.347567
vt 0.300034 0.398201
vt 0.401301 0.448834
vt 0.350668 0.448834
vt 0.407257 0.404156
vt 0.422158 0.448834
vt 0.451935 0.398201
vt 0.329811 0.296934
vt 0.300034 0.326711
vt 0.344712 0.341291
vt 0.300034 0.397881
vt 0.300034 0.347247
vt 0.422158 0.296934
vt 0.451935 0.326711
vt 0.407257 0.341291
vt 0.350668 0.296614
vt 0.401301 0.296614
vt 0.451935 0.347247
vt 0.407257 0.341291
vt 0.451935 0.326390
vt 0.422158 0.296614
vt 0.344712 0.403836
vt 0.451935 0.326390
vt 0.344712 0.341291
vt 0.300034 0.397881
vt 0.300034 0.347247
vt 0.451935 0.419057
vt 0.407257 0.341291
vt 0.350668 0.296614
vt 0.401301 0.296614
vt 0.451935 0.347247
vt 0.451935 0.397881
vt 0.329811 0.448834
vt 0.344712 0.341291
vt 0.401301 0.296614
vt 0.350668 0.296614
vt 0.300034 0.347247
vt 0.300034 0.326390
vt 0.329811 0.296614
vt 0.300034 0.326390
vt 0.451935 0.397881
vt 0.451935 0.347247
vt 0.300034 0.326390
vt 0.329811 0.296614
vt 0.344712 0.341291
vt 0.401301 0.296614
vt 0.350668 0.296614
vt 0.300034 0.418737
vt 0.329811 0.448514
vt 0.300034 0.296934
vt 0.300034 0.296934
vt 0.300034 0.448834
vt 0.300034 0.419057
vt 0.329811 0.448834
vt 0.300034 0.448834
vt 0.451935 0.296934
vt 0.451935 0.296934
vt 0.451935 0.448834
vt 0.422158 0.448834
vt 0.451935 0.419057
vt 0.451935 0.448834
vt 0.375984 0.355127
vt 0.375984 0.400049
vt 0.361219 0.372564
vt 0.390750 0.372564
vt 0.882723 0.048405
vt 0.887253 0.052452
vt 0.887253 0.048405
vt 0.891784 0.011789
vt 0.887253 0.008770
vt 0.882723 0.011789
vt 0.920580 0.014965
vt 0.924627 0.011789
vt 0.920580 0.011789
vt 0.920580 0.014965
vt 0.924627 0.019796
vt 0.920580 0.019796
vt 0.891784 0.052452
vt 0.891784 0.048405
vt 0.920580 0.024728
vt 0.924627 0.019796
vt 0.920580 0.019796
vt 0.920580 0.011789
vt 0.924627 0.014965
vt 0.924627 0.024728
vt 0.924627 0.014965
vt 0.375984 0.358606
vt 0.366523 0.345818
vt 0.375984 0.386522
vt 0.385446 0.399310
vt 0.390882 0.372564
vt 0.402730 0.363102
vt 0.361087 0.372564
vt 0.349238 0.382025
vt 0.983802 0.008787
vt 0.987669 0.005068
vt 0.987669 0.008787
vt 0.978939 0.043864
vt 0.974075 0.039307
vt 0.978939 0.034751
vt 0.974075 0.008787
vt 0.970208 0.005068
vt 0.970208 0.008787
vt 0.948313 0.034751
vt 0.944594 0.030577
vt 0.948313 0.030577
vt 0.948313 0.043864
vt 0.944594 0.048038
vt 0.948313 0.048038
vt 0.944594 0.039307
vt 0.948313 0.039307
vt 0.978939 0.005068
vt 0.978939 0.008787
vt 0.944594 0.039307
vt 0.948313 0.039307
vt 0.978939 0.005068
vt 0.978939 0.008787
vt 0.300034 0.397881
vt 0.300034 0.418737
vt 0.451935 0.397881
vt 0.451935 0.418737
vt 0.350668 0.296934
vt 0.300034 0.347567
vt 0.350668 0.448514
vt 0.401301 0.448514
vt 0.401301 0.448514
vt 0.401301 0.296934
vt 0.451935 0.347567
vt 0.350668 0.448514
vt 0.422158 0.296614
vt 0.422158 0.296614
vt 0.329811 0.296614
vt 0.329811 0.296614
vt 0.363231 0.363624
vt 0.388738 0.363624
vt 0.385566 0.386164
vt 0.366403 0.386164
vt 0.882723 0.052452
vt 0.882008 0.014965
vt 0.892498 0.014965
vt 0.883850 0.019796
vt 0.890657 0.019796
vt 0.887253 0.024728
vt 0.924627 0.011789
vt 0.983802 0.005068
vt 0.983802 0.039307
vt 0.982027 0.048038
vt 0.970208 0.042396
vt 0.975850 0.030577
vt 0.987669 0.036219
vt 0.974075 0.005068
vt 0.944594 0.034751
vt 0.944594 0.043864
vn 0.0000 0.3713 -0.9285
vn 0.9285 0.3713 0.0000
vn 0.0000 0.3713 0.9285
vn -0.2761 0.9206 0.2761
vn 0.2761 0.9206 0.2761
vn -0.9206 -0.2761 -0.2761
vn 0.9206 0.2761 0.2761
vn 0.0000 0.9285 0.3713
vn 0.2761 0.2761 -0.9206
vn 0.3713 0.9285 0.0000
vn 0.0000 0.9285 -0.3713
vn 0.0000 1.0000 0.0000
vn -0.9206 0.2761 -0.2761
vn -0.3713 0.9285 0.0000
vn -0.9285 0.3713 0.0000
vn 0.0000 -0.9285 0.3713
vn -0.3713 -0.9285 0.0000
vn 0.0000 -0.9285 -0.3713
vn 0.0000 -1.0000 0.0000
vn 0.3713 -0.9285 0.0000
vn -0.2761 -0.9206 0.2761
vn -0.3713 0.0000 0.9285
vn 0.2761 -0.9206 0.2761
vn 0.0000 -0.3713 0.9285
vn 0.3713 0.0000 0.9285
vn 0.2761 -0.2761 -0.9206
vn 0.9285 0.0000 0.3713
vn 0.9285 -0.3713 0.0000
vn 0.9285 0.0000 -0.3713
vn 1.0000 0.0000 0.0000
vn 0.3713 0.0000 -0.9285
vn 0.0000 -0.3713 -0.9285
vn -0.3713 0.0000 -0.9285
vn 0.9206 -0.2761 0.2761
vn -0.9285 0.0000 -0.3713
vn -0.2761 -0.2761 0.9206
vn -0.9285 -0.3713 0.0000
vn -0.9285 0.0000 0.3713
vn -1.0000 0.0000 0.0000
vn -0.2761 0.2761 0.9206
vn -0.5774 -0.5774 0.5774
vn -0.5774 0.5774 0.5774
vn -0.5774 -0.5774 -0.5774
vn -0.5774 0.5774 -0.5774
vn 0.5774 -0.5774 0.5774
vn 0.5774 0.5774 0.5774
vn 0.5774 -0.5774 -0.5774
vn 0.5774 0.5774 -0.5774
vn 0.0000 0.0000 -1.0000
vn -0.5545 -0.8322 0.0000
vn -0.9756 -0.2196 0.0000
vn 0.9344 0.3561 0.0000
vn 0.5545 -0.8322 0.0000
vn -0.8231 0.5680 0.0000
vn 0.9756 -0.2196 0.0000
vn 0.8231 0.5680 0.0000
vn -0.9344 0.3561 0.0000
vn 0.0000 0.0000 1.0000
vn 0.6240 0.7814 0.0000
vn -0.6240 -0.7814 0.0000
vn 0.8039 -0.5948 0.0000
vn -0.8039 0.5948 0.0000
vn -0.9800 -0.1992 0.0000
vn -0.1658 0.9862 0.0000
vn 0.9800 0.1992 0.0000
vn 0.1658 -0.9862 0.0000
vn -0.2761 0.2761 -0.9206
vn 0.9206 0.2761 -0.2761
vn 0.2761 0.2761 0.9206
vn -0.9206 0.2761 0.2761
vn -0.2761 0.9206 -0.2761
vn 0.2761 0.9206 -0.2761
vn 0.2761 -0.2761 0.9206
vn 0.2761 -0.9206 -0.2761
vn 0.9206 -0.2761 -0.2761
vn -0.2761 -0.9206 -0.2761
vn -0.2761 -0.2761 -0.9206
vn -0.9206 -0.2761 0.2761
usemtl Material.001
s off
f 58/1/1 11/2/1 75/3/1
f 70/4/2 17/5/2 39/6/2
f 64/7/3 23/8/3 91/9/3
f 53/10/4 28/11/4 54/12/4
f 26/13/5 64/14/5 66/15/5
f 46/16/6 55/17/6 57/18/6
f 65/19/7 40/20/7 66/21/7
f 28/11/8 23/22/8 26/13/8
f 71/23/9 76/24/9 72/25/9
f 25/26/10 18/27/10 17/28/10
f 11/29/11 25/26/11 12/30/11
f 27/31/12 26/13/12 25/26/12
f 59/32/13 48/33/13 60/34/13
f 6/35/14 28/11/14 27/31/14
f 54/36/15 5/37/15 47/38/15
f 32/39/16 21/40/16 30/41/16
f 60/42/14 6/35/14 27/31/14
f 29/43/17 2/44/17 1/45/17
f 9/46/18 29/43/18 10/47/18
f 31/48/19 30/41/19 29/43/19
f 72/49/11 12/30/11 25/26/11
f 16/50/20 32/39/20 31/48/20
f 30/41/21 49/51/21 51/52/21
f 90/53/22 4/54/22 3/55/22
f 62/56/23 32/39/23 63/57/23
f 89/58/24 21/59/24 22/60/24
f 20/61/25 91/9/25 89/58/25
f 74/62/26 67/63/26 69/64/26
f 23/8/3 92/65/3 91/9/3
f 61/66/25 20/61/25 89/58/25
f 38/67/27 19/68/27 20/69/27
f 68/70/20 16/50/20 31/48/20
f 37/71/28 15/72/28 16/73/28
f 14/74/29 39/6/29 37/71/29
f 39/6/30 38/67/30 37/71/30
f 17/5/2 40/20/2 39/6/2
f 67/63/29 14/74/29 37/71/29
f 74/62/31 13/75/31 14/74/31
f 56/76/18 10/47/18 29/43/18
f 73/77/32 9/78/32 10/79/32
f 8/80/33 75/3/33 73/77/33
f 38/67/34 61/81/34 63/82/34
f 11/2/1 76/24/1 75/3/1
f 55/83/33 8/80/33 73/77/33
f 46/16/35 7/84/35 8/85/35
f 90/53/36 50/86/36 49/87/36
f 45/88/37 1/89/37 2/90/37
f 3/55/38 47/38/38 45/88/38
f 47/38/39 46/16/39 45/88/39
f 52/91/40 92/65/40 53/92/40
f 5/37/15 48/33/15 47/38/15
f 49/51/41 50/93/41 51/52/41
f 52/94/42 53/10/42 54/12/42
f 55/95/43 56/76/43 57/96/43
f 58/97/44 59/98/44 60/42/44
f 61/99/45 62/56/45 63/57/45
f 64/14/46 65/100/46 66/15/46
f 67/101/47 68/70/47 69/102/47
f 70/103/48 71/104/48 72/49/48
f 50/86/38 3/55/38 45/88/38
f 77/105/49 74/62/49 73/77/49
f 78/106/49 75/3/49 76/24/49
f 79/107/49 73/77/49 75/3/49
f 80/108/49 76/24/49 74/62/49
f 41/109/50 81/110/50 77/111/50
f 82/112/49 81/113/49 86/114/49
f 79/115/51 86/116/51 41/117/51
f 80/118/52 84/119/52 44/120/52
f 77/111/53 82/121/53 42/122/53
f 78/123/54 88/124/54 43/125/54
f 42/126/55 87/127/55 80/118/55
f 44/120/56 83/128/56 78/123/56
f 43/125/57 85/129/57 79/115/57
f 93/130/58 34/131/58 89/58/58
f 94/132/58 35/133/58 92/65/58
f 95/134/58 33/135/58 91/9/58
f 96/136/58 36/137/58 90/53/58
f 95/138/59 102/139/59 33/140/59
f 99/141/58 103/142/58 97/143/58
f 96/144/60 100/145/60 36/146/60
f 93/147/61 98/148/61 34/149/61
f 94/150/62 104/151/62 35/152/62
f 34/149/63 103/153/63 96/154/63
f 36/146/64 99/155/64 94/156/64
f 35/152/65 101/157/65 95/158/65
f 33/140/66 97/159/66 93/160/66
f 75/3/33 7/161/33 59/162/33
f 59/162/67 58/1/67 75/3/67
f 39/6/29 13/75/29 71/23/29
f 71/23/68 70/4/68 39/6/68
f 91/9/25 19/163/25 65/164/25
f 65/164/69 64/7/69 91/9/69
f 24/165/8 28/11/8 53/10/8
f 28/11/14 5/166/14 54/12/14
f 66/15/10 18/27/10 26/13/10
f 26/13/8 23/22/8 64/14/8
f 57/18/37 1/89/37 46/16/37
f 46/16/35 8/85/35 55/17/35
f 19/68/27 40/20/27 65/19/27
f 40/20/2 18/167/2 66/21/2
f 28/11/8 24/165/8 23/22/8
f 13/75/31 76/24/31 71/23/31
f 76/24/1 12/168/1 72/25/1
f 25/26/10 26/13/10 18/27/10
f 11/29/11 27/31/11 25/26/11
f 27/31/12 28/11/12 26/13/12
f 7/84/35 48/33/35 59/32/35
f 48/33/15 6/169/15 60/34/15
f 6/35/14 5/166/14 28/11/14
f 47/38/38 4/54/38 52/91/38
f 52/91/70 54/36/70 47/38/70
f 32/39/16 22/170/16 21/40/16
f 27/31/11 11/29/11 58/97/11
f 58/97/71 60/42/71 27/31/71
f 29/43/17 30/41/17 2/44/17
f 9/46/18 31/48/18 29/43/18
f 31/48/19 32/39/19 30/41/19
f 17/28/10 70/103/10 25/26/10
f 70/103/72 72/49/72 25/26/72
f 16/50/20 15/171/20 32/39/20
f 51/52/17 2/44/17 30/41/17
f 30/41/16 21/40/16 49/51/16
f 90/53/22 92/65/22 4/54/22
f 22/170/16 32/39/16 62/56/16
f 32/39/20 15/171/20 63/57/20
f 89/58/24 90/53/24 21/59/24
f 20/61/25 19/163/25 91/9/25
f 69/64/32 9/78/32 74/62/32
f 74/62/31 14/74/31 67/63/31
f 23/8/3 24/172/3 92/65/3
f 22/60/24 62/173/24 89/58/24
f 62/173/73 61/66/73 89/58/73
f 38/67/27 40/20/27 19/68/27
f 31/48/18 9/46/18 69/102/18
f 69/102/74 68/70/74 31/48/74
f 37/71/28 38/67/28 15/72/28
f 14/74/29 13/75/29 39/6/29
f 39/6/30 40/20/30 38/67/30
f 17/5/2 18/167/2 40/20/2
f 16/73/28 68/174/28 37/71/28
f 68/174/75 67/63/75 37/71/75
f 74/62/31 76/24/31 13/75/31
f 1/45/17 57/96/17 29/43/17
f 57/96/76 56/76/76 29/43/76
f 73/77/32 74/62/32 9/78/32
f 8/80/33 7/161/33 75/3/33
f 63/82/28 15/72/28 38/67/28
f 38/67/27 20/69/27 61/81/27
f 11/2/1 12/168/1 76/24/1
f 10/79/32 56/175/32 73/77/32
f 56/175/77 55/83/77 73/77/77
f 46/16/35 48/33/35 7/84/35
f 49/87/24 21/59/24 90/53/24
f 90/53/22 3/55/22 50/86/22
f 45/88/37 46/16/37 1/89/37
f 3/55/38 4/54/38 47/38/38
f 47/38/39 48/33/39 46/16/39
f 4/54/22 92/65/22 52/91/22
f 92/65/3 24/172/3 53/92/3
f 5/37/15 6/169/15 48/33/15
f 2/90/37 51/176/37 45/88/37
f 51/176/78 50/86/78 45/88/78
f 73/77/49 41/177/49 77/105/49
f 77/105/49 42/178/49 74/62/49
f 76/24/49 44/179/49 78/106/49
f 78/106/49 43/180/49 75/3/49
f 75/3/49 43/180/49 79/107/49
f 79/107/49 41/177/49 73/77/49
f 74/62/49 42/178/49 80/108/49
f 80/108/49 44/179/49 76/24/49
f 41/109/50 86/181/50 81/110/50
f 86/114/49 85/182/49 87/183/49
f 85/182/49 88/184/49 84/185/49
f 88/184/49 83/186/49 84/185/49
f 84/185/49 87/183/49 85/182/49
f 87/183/49 82/112/49 86/114/49
f 79/115/51 85/129/51 86/116/51
f 80/118/52 87/127/52 84/119/52
f 77/111/53 81/110/53 82/121/53
f 78/123/54 83/128/54 88/124/54
f 42/126/55 82/187/55 87/127/55
f 44/120/56 84/119/56 83/128/56
f 43/125/57 88/124/57 85/129/57
f 89/58/58 33/135/58 93/130/58
f 34/131/58 90/53/58 89/58/58
f 92/65/58 36/137/58 94/132/58
f 35/133/58 91/9/58 92/65/58
f 91/9/58 35/133/58 95/134/58
f 33/135/58 89/58/58 91/9/58
f 90/53/58 34/131/58 96/136/58
f 36/137/58 92/65/58 90/53/58
f 95/138/59 101/188/59 102/139/59
f 101/189/58 104/190/58 99/141/58
f 99/141/58 100/191/58 103/142/58
f 103/142/58 98/192/58 97/143/58
f 97/143/58 102/193/58 101/189/58
f 101/189/58 99/141/58 97/143/58
f 96/144/60 103/194/60 100/145/60
f 93/147/61 97/195/61 98/148/61
f 94/150/62 99/196/62 104/151/62
f 34/149/63 98/148/63 103/153/63
f 36/146/64 100/145/64 99/155/64
f 35/152/65 104/151/65 101/157/65
f 33/140/66 102/139/66 97/159/66
