# Blender v2.82 (sub 7) OBJ File: 'Shield Gen.blend'
# www.blender.org
mtllib OS_Shield_Bubble.mtl
o Icosphere_Icosphere.001
v -1.172151 -0.000000 0.380849
v -1.172151 0.000000 -0.380849
v -1.297538 0.000000 -0.421590
v -1.297538 -0.000000 0.421590
v -0.200222 -1.048407 -0.616230
v -0.848174 -0.647955 -0.616232
v -0.938904 -0.717267 -0.682151
v -0.221640 -1.160557 -0.682149
v -1.048399 0.647954 0.000000
v -1.160548 0.717267 0.000000
v 0.323978 -0.647956 -0.997084
v 0.358635 -0.717269 -1.103743
v -0.323978 0.647956 -0.997084
v -0.724429 0.000000 -0.997090
v -0.801922 0.000000 -1.103750
v -0.358635 0.717269 -1.103743
v 0.524198 -1.048407 -0.380848
v 0.580272 -1.160557 -0.421588
v 0.000000 0.000000 -1.232471
v 0.000000 0.000000 -1.364311
v 1.172152 0.000000 -0.380849
v 1.048399 -0.647954 -0.000000
v 1.160548 -0.717267 -0.000000
v 1.297538 0.000000 -0.421590
v 0.848174 0.647955 -0.616232
v 0.724429 0.000000 -0.997090
v 0.801922 0.000000 -1.103750
v 0.938904 0.717267 -0.682151
v 1.172152 -0.000000 0.380849
v 1.297538 -0.000000 0.421590
v 0.724429 -0.000000 0.997090
v 0.323978 -0.647956 0.997084
v 0.358635 -0.717269 1.103744
v 0.801922 -0.000000 1.103750
v 0.647947 1.048404 0.000000
v 0.848174 0.647955 0.616232
v 0.938904 0.717267 0.682152
v 0.717259 1.160553 0.000000
v 0.000000 -0.000000 1.232471
v 0.000000 -0.000000 1.364311
v 0.200222 1.048407 0.616230
v 0.221640 1.160557 0.682149
v 0.200222 1.048407 -0.616230
v -0.724429 -0.000000 0.997090
v -0.848174 -0.647955 0.616232
v -0.938904 -0.717267 0.682152
v -0.801922 -0.000000 1.103750
v -0.323978 0.647956 0.997084
v -0.358635 0.717269 1.103744
v -0.524198 1.048407 -0.380848
v -0.524198 1.048407 0.380848
v -0.580272 1.160557 0.421588
v -0.580272 1.160557 -0.421588
v 0.524198 -1.048407 0.380848
v 0.580272 -1.160557 0.421588
v -0.200222 -1.048407 0.616230
v -0.221640 -1.160557 0.682149
v 0.221640 1.160557 -0.682149
v -0.647947 -1.048404 -0.000000
v -0.717259 -1.160553 -0.000000
v 0.000000 -1.364311 -0.000000
v 0.987225 -0.610146 0.717253
v -0.377079 -0.610147 1.160550
v -1.220275 -0.610141 -0.000000
v -0.377079 -0.610147 -1.160550
v 0.987225 -0.610146 -0.717253
v 0.377079 0.610147 1.160550
v -0.987225 0.610146 0.717253
v -0.987225 0.610146 -0.717253
v 0.377079 0.610147 -1.160550
v 1.220275 0.610141 0.000000
v 0.000000 1.364311 0.000000
vt 0.865671 0.739895
vt 0.868001 0.739895
vt 0.868001 0.739895
vt 0.865671 0.739895
vt 0.870330 0.735860
vt 0.869166 0.737878
vt 0.869166 0.737878
vt 0.870330 0.735860
vt 0.866836 0.741913
vt 0.866836 0.741913
vt 0.873825 0.737878
vt 0.872660 0.735860
vt 0.872660 0.735860
vt 0.873825 0.737878
vt 0.871495 0.741913
vt 0.870330 0.739895
vt 0.870330 0.739895
vt 0.871495 0.741913
vt 0.874990 0.735860
vt 0.874990 0.735860
vt 0.872660 0.739895
vt 0.872660 0.739895
vt 0.877319 0.739895
vt 0.878484 0.737878
vt 0.878484 0.737878
vt 0.877319 0.739895
vt 0.876155 0.741913
vt 0.874990 0.739895
vt 0.874990 0.739895
vt 0.876155 0.741913
vt 0.879649 0.739895
vt 0.879649 0.739895
vt 0.881979 0.739895
vt 0.883144 0.737878
vt 0.883144 0.737878
vt 0.881979 0.739895
vt 0.879649 0.743930
vt 0.880814 0.741913
vt 0.880814 0.741913
vt 0.879649 0.743930
vt 0.884308 0.739895
vt 0.884308 0.739895
vt 0.881979 0.743930
vt 0.881979 0.743930
vt 0.877319 0.743930
vt 0.874990 0.743930
vt 0.863341 0.739895
vt 0.864506 0.737878
vt 0.864506 0.737878
vt 0.863341 0.739895
vt 0.884308 0.743930
vt 0.885473 0.741913
vt 0.885473 0.741913
vt 0.884308 0.743930
vt 0.872660 0.743930
vt 0.870330 0.743930
vt 0.886638 0.743930
vt 0.886638 0.743930
vt 0.868001 0.743930
vt 0.865671 0.743930
vt 0.865671 0.743930
vt 0.868001 0.743930
vt 0.881979 0.735860
vt 0.881979 0.735860
vt 0.884308 0.735860
vt 0.884308 0.735860
vt 0.870330 0.743930
vt 0.886638 0.739895
vt 0.872660 0.743930
vt 0.877319 0.735860
vt 0.879649 0.735860
vt 0.879649 0.735860
vt 0.877319 0.735860
vt 0.874990 0.743930
vt 0.877319 0.743930
vt 0.863341 0.735860
vt 0.863341 0.735860
vt 0.868001 0.735860
vt 0.865671 0.735860
vt 0.865671 0.735860
vt 0.886638 0.739895
vt 0.868001 0.735860
vt 0.883144 0.733843
vt 0.880814 0.737878
vt 0.864506 0.733843
vt 0.869166 0.733843
vt 0.873825 0.733843
vt 0.885473 0.737878
vt 0.866836 0.737878
vt 0.871495 0.737878
vt 0.876155 0.737878
vt 0.883144 0.741913
vt 0.887803 0.741913
vt 0.869166 0.741913
vt 0.873825 0.741913
vt 0.878484 0.741913
vt 0.876155 0.745948
vt 0.871495 0.745948
vt 0.866836 0.745948
vt 0.864506 0.741913
vt 0.885473 0.745948
vt 0.880814 0.745948
vt 0.862177 0.737878
vt 0.878484 0.733843
vn 0.0000 1.0000 0.0000
vn -0.2764 -0.4472 0.8507
vn 0.7236 -0.4472 0.5257
vn 0.7236 -0.4472 -0.5257
vn 0.2764 0.4472 -0.8507
vn -0.8944 -0.4472 -0.0000
vn 0.2764 0.4472 0.8507
vn 0.0000 -1.0000 -0.0000
vn -0.2764 -0.4472 -0.8507
vn -0.7236 0.4472 0.5257
vn 0.8944 0.4472 -0.0000
vn 0.4911 0.7947 -0.3568
vn -0.7236 0.4472 -0.5257
vn -0.1876 0.7947 -0.5773
vn 0.2764 0.4472 0.8506
vn -0.6071 0.7947 0.0000
vn -0.1876 0.7947 0.5773
vn 0.4911 0.7947 0.3568
vn 0.7947 0.1876 -0.5773
vn -0.3035 0.1876 -0.9342
vn -0.9822 0.1876 0.0000
vn -0.3035 0.1876 0.9342
vn 0.7947 0.1876 0.5773
vn 0.3035 -0.1876 -0.9342
vn -0.7947 -0.1876 -0.5773
vn -0.2764 -0.4472 0.8506
vn -0.7947 -0.1876 0.5773
vn 0.3035 -0.1876 0.9342
vn 0.9822 -0.1876 -0.0000
vn 0.1876 -0.7947 -0.5773
vn -0.4911 -0.7947 -0.3568
vn -0.4911 -0.7947 0.3568
vn 0.6071 -0.7947 -0.0000
vn 0.1876 -0.7947 0.5773
vn 0.1024 -0.9435 0.3151
vn 0.7002 -0.6617 0.2680
vn -0.2680 -0.9435 0.1947
vn -0.2680 -0.9435 -0.1947
vn 0.1024 -0.9435 -0.3151
vn 0.9050 -0.3304 0.2680
vn 0.0247 -0.3304 0.9435
vn -0.8897 -0.3304 0.3151
vn -0.5746 -0.3304 -0.7488
vn 0.5346 -0.3304 -0.7779
vn 0.8026 -0.1256 0.5831
vn -0.3066 -0.1256 0.9435
vn -0.9921 -0.1256 -0.0000
vn -0.3066 -0.1256 -0.9435
vn 0.8026 -0.1256 -0.5831
vn 0.4089 0.6617 0.6284
vn -0.4713 0.6617 0.5831
vn -0.7002 0.6617 -0.2680
vn 0.0385 0.6617 -0.7488
vn 0.7240 0.6617 -0.1947
vn 0.2680 0.9435 -0.1947
vn 0.4089 0.6617 -0.6284
vn -0.1024 0.9435 -0.3151
vn -0.4713 0.6617 -0.5831
vn -0.3313 0.9435 0.0000
vn -0.7002 0.6617 0.2680
vn -0.1024 0.9435 0.3151
vn 0.0385 0.6617 0.7488
vn 0.2680 0.9435 0.1947
vn 0.7240 0.6617 0.1947
vn 0.8897 0.3304 -0.3151
vn 0.5746 0.3304 -0.7488
vn -0.0247 0.3304 -0.9435
vn -0.5346 0.3304 -0.7779
vn -0.9050 0.3304 -0.2680
vn -0.9050 0.3304 0.2680
vn -0.5346 0.3304 0.7779
vn -0.0247 0.3304 0.9435
vn 0.5746 0.3304 0.7488
vn 0.8897 0.3304 0.3151
vn 0.3066 0.1256 -0.9435
vn 0.0247 -0.3304 -0.9435
vn -0.8026 0.1256 -0.5831
vn -0.8897 -0.3304 -0.3151
vn -0.8026 0.1256 0.5831
vn -0.5746 -0.3304 0.7488
vn 0.3066 0.1256 0.9435
vn 0.5346 -0.3304 0.7779
vn 0.9921 0.1256 0.0000
vn 0.9050 -0.3304 -0.2680
vn 0.4713 -0.6617 -0.5831
vn -0.0385 -0.6617 -0.7488
vn -0.4089 -0.6617 -0.6284
vn -0.7240 -0.6617 -0.1947
vn -0.7240 -0.6617 0.1947
vn -0.4089 -0.6617 0.6284
vn 0.7002 -0.6617 -0.2680
vn 0.3313 -0.9435 0.0000
vn -0.0385 -0.6617 0.7488
vn 0.4713 -0.6617 0.5831
usemtl None.003
s 1
f 1/1/1 2/2/1 3/3/1 4/4/1
f 5/5/2 6/6/2 7/7/2 8/8/2
f 2/2/2 9/9/2 10/10/2 3/3/2
f 11/11/3 5/12/3 8/13/3 12/14/3
f 13/15/4 14/16/4 15/17/4 16/18/4
f 5/12/5 17/19/5 18/20/5 8/13/5
f 14/16/1 19/21/1 20/22/1 15/17/1
f 17/19/6 11/11/6 12/14/6 18/20/6
f 19/21/6 13/15/6 16/18/6 20/22/6
f 21/23/7 22/24/7 23/25/7 24/26/7
f 25/27/3 26/28/3 27/29/3 28/30/3
f 22/24/5 29/31/5 30/32/5 23/25/5
f 26/28/1 21/23/1 24/26/1 27/29/1
f 29/31/8 21/23/8 24/26/8 30/32/8
f 21/23/9 25/27/9 28/30/9 24/26/9
f 31/33/10 32/34/10 33/35/10 34/36/10
f 35/37/10 36/38/10 37/39/10 38/40/10
f 32/34/11 39/41/11 40/42/11 33/35/11
f 36/38/5 41/43/5 42/44/5 37/39/5
f 39/41/8 31/33/8 34/36/8 40/42/8
f 41/43/3 35/37/3 38/40/3 42/44/3
f 35/45/12 25/27/12 43/46/12
f 44/47/13 45/48/13 46/49/13 47/50/13
f 41/51/13 48/52/13 49/53/13 42/54/13
f 43/55/14 13/15/14 50/56/14
f 45/48/15 1/1/15 4/4/15 46/49/15
f 48/52/11 51/57/11 52/58/11 49/53/11
f 50/59/16 9/9/16 51/60/16
f 1/1/8 44/47/8 47/50/8 4/4/8
f 51/57/2 41/51/2 42/54/2 52/58/2
f 51/57/17 48/52/17 41/51/17
f 2/2/5 6/6/5 7/7/5 3/3/5
f 51/60/5 9/9/5 10/10/5 52/61/5
f 41/43/18 36/38/18 35/37/18
f 6/6/10 14/16/10 15/17/10 7/7/10
f 9/9/7 50/59/7 53/62/7 10/10/7
f 21/23/19 26/28/19 25/27/19
f 14/16/8 2/2/8 3/3/8 15/17/8
f 32/34/6 54/63/6 55/64/6 33/35/6
f 19/21/20 14/16/20 13/15/20
f 50/59/6 51/60/6 52/61/6 53/62/6
f 19/21/11 11/11/11 12/14/11 20/22/11
f 2/2/21 1/1/21 9/9/21
f 54/63/7 56/65/7 57/66/7 55/64/7
f 50/56/11 13/15/11 16/18/11 53/67/11
f 44/68/22 39/41/22 48/52/22
f 11/11/13 26/28/13 27/29/13 12/14/13
f 56/65/4 32/34/4 33/35/4 57/66/4
f 31/33/23 29/31/23 36/38/23
f 13/15/10 43/55/10 58/69/10 16/18/10
f 26/28/8 19/21/8 20/22/8 27/29/8
f 26/28/24 11/11/24 19/21/24
f 17/70/11 54/71/11 55/72/11 18/73/11
f 43/55/9 50/56/9 53/67/9 58/69/9
f 14/16/25 6/6/25 2/2/25
f 36/38/26 29/31/26 30/32/26 37/39/26
f 54/71/9 22/24/9 23/25/9 55/72/9
f 1/1/27 45/48/27 44/47/27
f 43/46/7 25/27/7 28/30/7 58/74/7
f 29/31/1 31/33/1 34/36/1 30/32/1
f 39/41/28 32/34/28 31/33/28
f 22/24/2 17/70/2 18/73/2 23/25/2
f 25/27/13 35/45/13 38/75/13 28/30/13
f 29/31/29 22/24/29 21/23/29
f 31/33/4 36/38/4 37/39/4 34/36/4
f 45/48/9 56/76/9 57/77/9 46/49/9
f 17/19/30 5/12/30 11/11/30
f 35/45/4 43/46/4 58/74/4 38/75/4
f 48/52/6 39/41/6 40/42/6 49/53/6
f 5/5/31 59/78/31 6/6/31
f 56/76/10 59/79/10 60/80/10 57/77/10
f 39/41/1 44/68/1 47/81/1 40/42/1
f 59/79/32 56/76/32 45/48/32
f 59/79/3 45/48/3 46/49/3 60/80/3
f 44/68/3 48/52/3 49/53/3 47/81/3
f 22/24/33 54/71/33 17/70/33
f 6/6/4 59/78/4 60/82/4 7/7/4
f 9/9/9 1/1/9 4/4/9 10/10/9
f 56/65/34 54/63/34 32/34/34
f 59/78/13 5/5/13 8/8/13 60/82/13
f 61/83/35 55/64/35 57/66/35
f 62/84/36 55/72/36 23/25/36
f 61/85/37 57/77/37 60/80/37
f 61/86/38 60/82/38 8/8/38
f 61/87/39 8/13/39 18/20/39
f 62/84/40 23/25/40 30/32/40
f 63/88/41 33/35/41 40/42/41
f 64/89/42 46/49/42 4/4/42
f 65/90/43 7/7/43 15/17/43
f 66/91/44 12/14/44 27/29/44
f 62/84/45 30/32/45 34/36/45
f 63/88/46 40/42/46 47/81/46
f 64/89/47 4/4/47 3/3/47
f 65/90/48 15/17/48 20/22/48
f 66/91/49 27/29/49 24/26/49
f 67/92/50 37/39/50 42/44/50
f 68/93/51 49/53/51 52/58/51
f 69/94/52 10/10/52 53/62/52
f 70/95/53 16/18/53 58/69/53
f 71/96/54 28/30/54 38/75/54
f 38/75/55 58/74/55 72/97/55
f 28/30/56 70/95/56 58/74/56
f 58/69/57 53/67/57 72/98/57
f 16/18/58 69/94/58 53/67/58
f 53/62/59 52/61/59 72/99/59
f 10/10/60 68/100/60 52/61/60
f 52/58/61 42/54/61 72/101/61
f 49/53/62 67/92/62 42/54/62
f 42/44/63 38/40/63 72/102/63
f 37/39/64 71/96/64 38/40/64
f 24/26/65 28/30/65 71/96/65
f 27/29/66 70/95/66 28/30/66
f 20/22/67 16/18/67 70/95/67
f 15/17/68 69/94/68 16/18/68
f 3/3/69 10/10/69 69/94/69
f 4/4/70 68/100/70 10/10/70
f 47/81/71 49/53/71 68/93/71
f 40/42/72 67/92/72 49/53/72
f 34/36/73 37/39/73 67/92/73
f 30/32/74 71/96/74 37/39/74
f 27/29/75 20/22/75 70/95/75
f 12/14/76 65/90/76 20/22/76
f 15/17/77 3/3/77 69/94/77
f 7/7/78 64/89/78 3/3/78
f 4/4/79 47/50/79 68/100/79
f 46/49/80 63/103/80 47/50/80
f 40/42/81 34/36/81 67/92/81
f 33/35/82 62/84/82 34/36/82
f 30/32/83 24/26/83 71/96/83
f 23/25/84 66/91/84 24/26/84
f 18/20/85 12/14/85 66/91/85
f 8/13/86 65/90/86 12/14/86
f 8/8/87 7/7/87 65/90/87
f 60/82/88 64/89/88 7/7/88
f 60/80/89 46/49/89 64/89/89
f 57/77/90 63/103/90 46/49/90
f 23/25/91 18/73/91 66/91/91
f 55/72/92 61/104/92 18/73/92
f 57/66/93 33/35/93 63/88/93
f 55/64/94 62/84/94 33/35/94
