# Blender v2.79 (sub 0) OBJ File: ''
# www.blender.org
mtllib 555Corner_Duo.mtl
o Cube_Cube.001
v -2.500000 -2.500000 2.500000
v -2.500000 -2.500000 -2.500000
v -2.500000 2.500000 -2.500000
v 2.500000 -2.500000 2.500000
v 2.500000 -2.500000 -2.500000
v -2.500000 2.500000 -2.500000
vt 0.204626 0.725492
vt 0.204626 0.725492
vt 0.204626 0.725492
vt 0.204626 0.725492
vt 0.204626 0.725492
vt 0.204626 0.725492
vn -1.0000 0.0000 0.0000
vn 0.0000 0.0000 -1.0000
vn 0.7071 0.7071 0.0000
vn 0.0000 -1.0000 0.0000
vn 0.0000 0.7071 0.7071
usemtl None
s off
f 2/1/1 1/2/1 3/3/1
f 2/1/2 3/3/2 6/4/2 5/5/2
f 5/5/3 6/4/3 4/6/3
f 2/1/4 5/5/4 4/6/4 1/2/4
f 6/4/5 3/3/5 1/2/5 4/6/5
