# Blender v2.80 (sub 75) OBJ File: ''
# www.blender.org
mtllib YK_Rotor_Collider.mtl
o Cylinder.001
v 0.000000 -0.500000 -0.200000
v 0.000000 0.500000 -0.200000
v 0.100000 -0.500000 -0.173205
v 0.100000 0.500000 -0.173205
v 0.173205 -0.500000 -0.100000
v 0.173205 0.500000 -0.100000
v 0.200000 -0.500000 0.000000
v 0.200000 0.500000 0.000000
v 0.173205 -0.500000 0.100000
v 0.173205 0.500000 0.100000
v 0.100000 -0.500000 0.173205
v 0.100000 0.500000 0.173205
v 0.000000 -0.500000 0.200000
v 0.000000 0.500000 0.200000
v -0.100000 -0.500000 0.173205
v -0.100000 0.500000 0.173205
v -0.173205 -0.500000 0.100000
v -0.173205 0.500000 0.100000
v -0.200000 -0.500000 0.000000
v -0.200000 0.500000 0.000000
v -0.173205 -0.500000 -0.100000
v -0.173205 0.500000 -0.100000
v -0.100000 -0.500000 -0.173205
v -0.100000 0.500000 -0.173205
v 0.000000 0.031621 -0.322195
v 0.000000 0.275809 -0.322195
v 0.123299 0.031621 -0.297669
v 0.123299 0.275809 -0.297669
v 0.227826 0.031621 -0.227826
v 0.227826 0.275809 -0.227826
v 0.297669 0.031621 -0.123299
v 0.297669 0.275809 -0.123299
v 0.322195 0.031621 0.000000
v 0.322195 0.275809 0.000000
v 0.297669 0.031621 0.123299
v 0.297669 0.275809 0.123299
v 0.227826 0.031621 0.227826
v 0.227826 0.275809 0.227826
v 0.123299 0.031621 0.297669
v 0.123299 0.275809 0.297669
v 0.000000 0.031621 0.322195
v 0.000000 0.275809 0.322195
v -0.123299 0.031621 0.297669
v -0.123299 0.275809 0.297669
v -0.227826 0.031621 0.227826
v -0.227826 0.275809 0.227826
v -0.297669 0.031621 0.123299
v -0.297669 0.275809 0.123299
v -0.322195 0.031621 -0.000000
v -0.322195 0.275809 -0.000000
v -0.297669 0.031621 -0.123299
v -0.297669 0.275809 -0.123299
v -0.227826 0.031621 -0.227826
v -0.227826 0.275809 -0.227826
v -0.123299 0.031621 -0.297669
v -0.123299 0.275809 -0.297669
vt 0.278973 0.105889
vt 0.280760 0.105889
vt 0.278972 0.105889
vt 0.274089 0.105889
vt 0.267417 0.105889
vt 0.260745 0.105889
vt 0.255861 0.105889
vt 0.254074 0.105889
vt 0.255861 0.105889
vt 0.260745 0.105889
vt 0.267417 0.105889
vt 0.274089 0.105889
vt 0.238905 0.092389
vt 0.237117 0.092389
vt 0.232233 0.092389
vt 0.225562 0.092389
vt 0.218890 0.092389
vt 0.214006 0.092389
vt 0.212218 0.092389
vt 0.214006 0.092389
vt 0.218890 0.092389
vt 0.225562 0.092389
vt 0.232233 0.092389
vt 0.237117 0.092389
vt 0.251384 0.102124
vt 0.251384 0.172174
vt 0.244349 0.172174
vt 0.244349 0.102124
vt 0.224313 0.172174
vt 0.224313 0.102124
vt 0.194327 0.172174
vt 0.194327 0.102124
vt 0.158957 0.172174
vt 0.158957 0.102124
vt 0.123586 0.172174
vt 0.123586 0.102124
vt 0.093601 0.172174
vt 0.093601 0.102124
vt 0.073565 0.172174
vt 0.073565 0.102124
vt 0.066529 0.172174
vt 0.066529 0.102124
vt 0.073565 0.172174
vt 0.073565 0.102124
vt 0.093601 0.172174
vt 0.093601 0.102124
vt 0.123586 0.172174
vt 0.123586 0.102124
vt 0.158957 0.172174
vt 0.158957 0.102124
vt 0.194327 0.172174
vt 0.194327 0.102124
vt 0.224313 0.172174
vt 0.224313 0.102124
vt 0.244349 0.172174
vt 0.244349 0.102124
vt 0.000000 0.000000
vt 0.000000 0.000000
vt 0.000000 0.000000
vt 0.000000 0.000000
vt 0.000000 0.000000
vt 0.000000 0.000000
vt 0.000000 0.000000
vt 0.000000 0.000000
vt 0.000000 0.000000
vt 0.000000 0.000000
vt 0.000000 0.000000
vt 0.000000 0.000000
vt 0.000000 0.000000
vt 0.000000 0.000000
vt 0.000000 0.000000
vt 0.000000 0.000000
vt 0.000000 0.000000
vt 0.000000 0.000000
vt 0.000000 0.000000
vt 0.000000 0.000000
vn 0.0000 1.0000 -0.0000
vn 0.0000 -1.0000 0.0000
vn 0.0000 -0.1142 -0.9935
vn 0.0000 0.2454 -0.9694
vn 0.3885 0.2453 -0.8882
vn 0.3845 -0.1109 -0.9164
vn 0.6944 0.2389 -0.6788
vn 0.6906 -0.1106 -0.7147
vn 0.8964 0.2395 -0.3729
vn 0.9080 -0.1141 -0.4032
vn 0.9694 0.2454 0.0000
vn 0.9935 -0.1142 -0.0000
vn 0.8964 0.2395 0.3729
vn 0.9080 -0.1141 0.4032
vn 0.6944 0.2389 0.6788
vn 0.6906 -0.1106 0.7147
vn 0.3885 0.2453 0.8882
vn 0.3845 -0.1109 0.9164
vn 0.0000 0.2454 0.9694
vn 0.0000 -0.1142 0.9935
vn -0.3885 0.2453 0.8882
vn -0.4032 -0.1141 0.9080
vn -0.6944 0.2389 0.6788
vn -0.7147 -0.1106 0.6906
vn -0.8964 0.2395 0.3729
vn -0.9164 -0.1109 0.3845
vn -0.9694 0.2454 -0.0000
vn -0.9935 -0.1142 -0.0000
vn -0.8882 0.2453 -0.3885
vn -0.9080 -0.1141 -0.4032
vn -0.6788 0.2389 -0.6944
vn -0.6906 -0.1106 -0.7147
vn -0.3729 0.2395 -0.8964
vn -0.3845 -0.1109 -0.9164
vn -0.8709 -0.2305 -0.4340
vn -0.9730 -0.2306 0.0000
vn -0.5110 -0.2357 -0.8267
vn -0.8267 -0.2357 0.5110
vn -0.8717 0.4900 0.0000
vn -0.7760 0.4897 -0.3976
vn -0.3976 0.4897 0.7760
vn -0.7415 0.4954 0.4525
vn 0.8709 -0.2305 -0.4340
vn 0.5110 -0.2357 -0.8267
vn 0.3976 0.4897 -0.7760
vn 0.7415 0.4954 -0.4525
vn -0.4340 -0.2305 0.8709
vn 0.0000 -0.2306 0.9730
vn 0.5110 -0.2357 0.8267
vn 0.8709 -0.2305 0.4340
vn -0.0000 0.4900 -0.8717
vn -0.4525 0.4954 -0.7415
vn 0.0000 0.4900 0.8717
vn 0.3976 0.4897 0.7760
vn 0.7415 0.4954 0.4525
vn 0.8717 0.4900 0.0000
vn -0.0000 -0.2306 -0.9730
vn 0.9730 -0.2306 0.0000
usemtl Default_OBJ.037
s 1
f 4/1/1 2/2/1 24/3/1 22/4/1 20/5/1 18/6/1 16/7/1 14/8/1 12/9/1 10/10/1 8/11/1 6/12/1
f 1/13/2 3/14/2 5/15/2 7/16/2 9/17/2 11/18/2 13/19/2 15/20/2 17/21/2 19/22/2 21/23/2 23/24/2
f 25/25/3 26/26/4 28/27/5 27/28/6
f 27/28/6 28/27/5 30/29/7 29/30/8
f 29/30/8 30/29/7 32/31/9 31/32/10
f 31/32/10 32/31/9 34/33/11 33/34/12
f 33/34/12 34/33/11 36/35/13 35/36/14
f 35/36/14 36/35/13 38/37/15 37/38/16
f 37/38/16 38/37/15 40/39/17 39/40/18
f 39/40/18 40/39/17 42/41/19 41/42/20
f 41/42/20 42/41/19 44/43/21 43/44/22
f 43/44/22 44/43/21 46/45/23 45/46/24
f 45/46/24 46/45/23 48/47/25 47/48/26
f 47/48/26 48/47/25 50/49/27 49/50/28
f 49/50/28 50/49/27 52/51/29 51/52/30
f 51/52/30 52/51/29 54/53/31 53/54/32
f 53/54/32 54/53/31 56/55/33 55/56/34
f 55/56/34 56/55/33 26/26/4 25/25/3
f 49/50/28 51/57/30 21/23/35 19/22/36
f 21/23/35 51/57/30 53/58/32 23/24/37
f 49/50/28 19/22/36 17/21/38 47/48/26
f 52/51/29 50/49/27 20/5/39 22/4/40
f 46/59/23 44/43/21 16/7/41 18/6/42
f 29/60/8 31/32/10 5/15/43 3/14/44
f 4/1/45 6/12/46 30/29/7 28/27/5
f 43/44/22 15/61/47 13/62/48 41/42/20
f 11/18/49 9/63/50 35/36/14 37/38/16
f 2/2/51 26/26/4 56/64/33 24/3/52
f 45/46/24 17/65/38 15/61/47 43/44/22
f 14/66/53 42/41/19 40/67/17 12/9/54
f 12/9/54 40/67/17 38/68/15 10/10/55
f 47/48/26 17/65/38 45/46/24
f 8/11/56 34/33/11 32/69/9 6/12/46
f 41/42/20 13/19/48 11/18/49 39/40/18
f 39/40/18 11/70/49 37/38/16
f 52/71/29 22/4/40 24/3/52 54/72/31
f 20/5/39 50/49/27 48/73/25 18/6/42
f 16/7/41 44/43/21 42/41/19 14/66/53
f 10/10/55 38/68/15 36/35/13
f 8/11/56 10/10/55 36/35/13 34/33/11
f 1/13/57 25/25/3 27/74/6 3/14/44
f 7/16/58 33/34/12 35/36/14 9/17/50
f 2/2/51 4/1/45 28/27/5 26/26/4
f 54/72/31 24/3/52 56/64/33
f 31/75/10 33/34/12 7/16/58 5/15/43
f 18/6/42 48/73/25 46/45/23
f 23/24/37 53/58/32 55/56/34
f 55/76/34 25/25/3 1/13/57 23/24/37
f 3/14/44 27/74/6 29/30/8
f 30/29/7 6/12/46 32/69/9
