# Blender v2.90.0 OBJ File: 'GT_Anchored_Solar_Panel.blend'
# www.blender.org
v 2.391300 0.183747 1.720628
v 2.421057 0.131519 1.700799
v 2.432325 0.065918 1.700851
v 2.402025 0.193042 1.299214
v 2.437007 0.066066 1.322493
v 2.421057 0.131519 1.299200
v 0.608696 0.183747 1.720628
v 0.578938 0.131519 1.700799
v 0.567671 0.065918 1.700851
v 0.597971 0.193042 1.299214
v 0.574590 0.133322 1.322546
v 1.499998 -0.495579 0.577992
v 1.499998 -0.313000 0.560219
v 1.754037 0.684820 1.940012
v 1.738629 -0.495579 0.609409
v 1.743229 -0.313000 0.592242
v 1.952113 -0.500000 0.716910
v 1.841460 0.450533 0.908568
v 1.969886 -0.313000 0.686126
v 2.151836 -0.495579 0.847952
v 2.164521 -0.313000 0.835475
v 1.990765 0.684820 1.631501
v 1.499998 -0.495579 2.422008
v 1.499998 -0.313000 2.439781
v 1.940007 0.684820 1.754041
v 1.261367 -0.495579 0.609409
v 1.256767 -0.313000 0.592242
v 1.047883 -0.500000 0.716910
v 1.030110 -0.313000 0.686126
v 0.838873 -0.483500 0.838818
v 0.835475 -0.313000 0.835475
v 1.676750 0.450533 0.840343
v 0.527232 -0.494170 1.500000
v 0.509710 -0.314028 1.500000
v 0.860844 -0.500000 2.139570
v 0.835475 -0.313000 2.164525
v 1.859264 0.684820 1.859268
v 1.030109 -0.467000 2.313874
v 1.030109 -0.313000 2.313874
v 1.261367 -0.495579 2.390591
v 1.256767 -0.313000 2.407758
v 1.631497 0.684820 1.990769
v 2.472764 -0.494170 1.500000
v 2.490286 -0.314028 1.500000
v 2.139152 -0.500000 2.139570
v 2.164521 -0.313000 2.164525
v 1.961000 -0.495579 2.298482
v 1.969887 -0.313000 2.313874
v 1.741997 -0.483500 2.403159
v 1.743229 -0.313000 2.407758
v 2.466588 -0.482252 1.250625
v 2.423443 -0.500000 1.216528
v 0.546058 -0.494170 1.252944
v 0.549389 -0.482252 1.202756
v 0.528777 -0.314028 1.249776
v 0.545187 -0.314028 1.200625
v 0.528777 -0.465972 1.750224
v 0.549389 -0.482252 1.797244
v 0.528777 -0.314028 1.750224
v 0.545187 -0.314028 1.799374
v 2.471219 -0.314028 1.249776
v 2.454809 -0.314028 1.200625
v 2.436658 -0.500000 1.743888
v 1.676751 0.450533 2.159657
v 1.841460 0.450533 2.091432
v 1.081065 0.581593 1.081065
v 0.986920 0.581596 1.203765
v 0.986920 0.581596 1.796235
v 1.081065 0.581593 1.918935
v 1.499998 0.684820 0.991919
v 1.499998 0.684820 2.008082
v 1.245959 0.684820 1.059989
v 1.368499 0.684820 1.009231
v 1.059988 0.684820 1.245959
v 1.140732 0.684820 1.140732
v 0.991919 0.684820 1.500000
v 1.009231 0.684820 1.368499
v 1.059988 0.684820 1.754041
v 1.009231 0.684820 1.631501
v 1.140732 0.684820 1.859268
v 1.245959 0.684820 1.940012
v 1.368499 0.684820 1.990769
v 1.982898 0.450533 1.017098
v 1.017097 0.450533 1.982902
v 1.017098 0.450533 1.017098
v 1.499998 0.450533 2.182927
v 1.982898 0.450533 1.982902
v 1.499998 0.450533 0.817073
v 2.450607 -0.482252 1.797244
v 2.471219 -0.314028 1.750224
v 2.454809 -0.314028 1.799374
v 1.918931 0.581593 1.081065
v 2.013076 0.581596 1.203765
v 2.013076 0.581596 1.796235
v 1.918931 0.581593 1.918935
v 1.754037 0.684820 1.059989
v 1.631497 0.684820 1.009231
v 1.940007 0.684820 1.245959
v 1.859264 0.684820 1.140732
v 2.008077 0.684820 1.500000
v 1.323246 0.450533 0.840343
v 1.158536 0.450533 0.908568
v 1.158536 0.450533 2.091432
v 1.323245 0.450533 2.159657
v 1.990765 0.684820 1.368499
vt 0.000000 0.000000
vt 0.000000 0.000000
vt 0.000000 0.000000
vt 0.000000 0.000000
vt 0.000000 0.000000
vt 0.000000 0.000000
vt 0.585685 0.944990
vt 0.685131 0.468526
vt 0.676194 0.468526
vt 0.192863 0.677273
vt 0.000000 0.000000
vt 0.808148 0.825356
vt 0.808148 0.825356
vt 0.000000 0.000000
vt 0.175156 0.677273
vt 0.778148 0.899166
vt 0.192863 0.677273
vt 0.808148 0.825356
vt 0.000000 0.000000
vt 0.585685 0.944990
vt 0.685131 0.468526
vt 0.671017 0.447021
vt 0.808148 0.825356
vt 0.175156 0.677273
vt 0.000000 0.000000
vt 0.000000 0.000000
vt 0.671017 0.447021
vt 0.676194 0.468526
vt 0.776196 0.873557
vt 0.779939 0.848276
vt 0.902969 0.808422
vt 0.877031 0.825242
vt 0.877031 0.808422
vt 0.000000 0.000000
vt 0.694722 0.468526
vt 0.202201 0.922951
vt 0.226563 0.926159
vt 0.676323 0.447389
vt 0.694722 0.468526
vt 0.851818 0.808309
vt 0.828323 0.825356
vt 0.828323 0.808309
vt 0.851094 0.825242
vt 0.000000 0.000000
vt 0.851094 0.808422
vt 0.851182 0.806620
vt 0.908063 0.825242
vt 0.902969 0.825242
vt 0.202201 0.741116
vt 0.828323 0.825356
vt 0.179500 0.750519
vt 0.808148 0.808309
vt 0.851818 0.808309
vt 0.828323 0.808309
vt 0.877031 0.825356
vt 0.877031 0.808309
vt 0.808148 0.808309
vt 0.808148 0.808309
vt 0.828323 0.825356
vt 0.828323 0.808309
vt 0.828323 0.808309
vt 0.808148 0.808309
vt 0.851818 0.808309
vt 0.851818 0.825356
vt 0.902969 0.808422
vt 0.877031 0.825242
vt 0.902969 0.825242
vt 0.851818 0.825356
vt 0.851818 0.808309
vt 0.828323 0.825356
vt 0.908063 0.808422
vt 0.845999 0.825242
vt 0.851094 0.808422
vt 0.845999 0.808422
vt 0.877031 0.808422
vt 0.877031 0.825356
vt 0.877031 0.808309
vt 0.182778 0.677273
vt 0.000000 0.000000
vt 0.668519 0.468526
vt 0.000000 0.000000
vt 0.000000 0.000000
vt 0.810778 0.807261
vt 0.852295 0.781241
vt 0.829244 0.790789
vt 0.182778 0.677273
vt 0.675839 0.443115
vt 0.675839 0.443115
vt 0.667343 0.944990
vt 0.684254 0.944989
vt 0.000000 0.000000
vt 0.877031 0.806620
vt 0.851182 0.806620
vt 0.000000 0.000000
vt 0.667343 0.944990
vt 0.684254 0.944989
vt 0.845999 0.808422
vt 0.000000 0.000000
vt 0.704313 0.468526
vt 0.713250 0.468526
vt 0.000000 0.000000
vt 0.700450 0.442791
vt 0.000000 0.000000
vt 0.675839 0.443115
vt 0.676323 0.447389
vt 0.675727 0.440335
vt 0.000000 0.000000
vt 0.851094 0.825242
vt 0.000000 0.000000
vt 0.694722 0.388400
vt 0.000000 0.000000
vt 0.226563 0.737909
vt 0.000000 0.000000
vt 0.000000 0.000000
vt 0.000000 0.000000
vt 0.779683 0.903765
vt 0.830165 0.954730
vt 0.668519 0.468526
vt 0.555798 0.837711
vt 0.179500 0.750519
vt 0.202201 0.741116
vt 0.668519 0.468526
vt 0.000000 0.000000
vt 0.713250 0.468526
vt 0.000000 0.000000
vt 0.000000 0.000000
vt 0.185241 0.677273
vt 0.202201 0.922951
vt 0.685131 0.468526
vt 0.185241 0.677273
vt 0.704313 0.468526
vt 0.694722 0.468526
vt 0.809463 0.941147
vt 0.670538 0.442791
vt 0.908063 0.825242
vt 0.700450 0.442791
vt 0.000000 0.000000
vt 0.699423 0.447021
vt 0.676193 0.468526
vt 0.568773 0.944989
vt 0.000000 0.000000
vt 0.851818 0.825356
vt 0.000000 0.000000
vt 0.670538 0.442791
vt 0.670423 0.440001
vt 0.000000 0.000000
vt 0.179500 0.913548
vt 0.676193 0.468526
vt 0.776196 0.873557
vt 0.779939 0.898838
vt 0.675727 0.440335
vt 0.670423 0.440001
vt 0.845999 0.825242
vt 0.778493 0.904369
vt 0.685131 0.468526
vt 0.179500 0.913548
vt 0.851818 0.825356
vt 0.000000 0.000000
vt 0.000000 0.000000
vt 0.670538 0.442791
vt 0.568773 0.944989
vt 0.676193 0.468526
vt 0.671017 0.447021
vt 0.668519 0.468526
vt 0.555798 0.837711
vt 0.568773 0.820800
vt 0.776836 0.899407
vt 0.700450 0.442791
vt 0.000000 0.000000
vt 0.700450 0.442791
vt 0.000000 0.000000
vt 0.000000 0.000000
vt 0.908063 0.808422
vt 0.676193 0.468526
vt 0.699423 0.447021
vt 0.675839 0.443115
vt 0.000000 0.000000
vt 0.568773 0.820800
vt 0.000000 0.000000
vt 0.000000 0.000000
vt 0.670538 0.442791
vt 0.000000 0.000000
vt 0.675727 0.440335
vt 0.693818 0.445965
vt 0.693818 0.445965
vt 0.694722 0.462513
vt 0.720925 0.468526
vt 0.685131 0.468526
vt 0.694722 0.468526
vt 0.685131 0.468526
vt 0.720925 0.468526
vn 0.0000 -0.9999 0.0157
vn 0.0000 -0.9995 -0.0318
vn 0.7178 0.6296 0.2973
vn 0.6562 0.3188 -0.6839
vn 0.6508 0.3187 0.6891
vn 0.0000 -1.0000 0.0000
vn -0.6562 0.3188 -0.6839
vn -0.7197 0.6280 0.2960
vn -0.6508 0.3187 0.6891
vn 0.7197 0.6280 0.2960
vn -0.7178 0.6296 0.2973
vn 0.2797 -0.9595 -0.0344
vn 0.1523 -0.9883 -0.0062
vn 0.0874 -0.9943 0.0605
vn 0.8987 -0.1156 -0.4230
vn 0.9998 0.0174 0.0084
vn 0.9925 -0.1157 0.0382
vn -0.7703 0.6377 0.0063
vn -0.8316 0.5546 0.0299
vn -0.7683 0.6321 0.1011
vn -0.0000 0.5981 -0.8014
vn 0.2299 0.4590 -0.8582
vn 0.0000 0.4590 -0.8885
vn 0.8288 0.5582 0.0384
vn 0.7703 0.6377 0.0063
vn 0.7683 0.6321 0.1011
vn 0.2719 -0.1165 -0.9553
vn 0.4982 0.0852 -0.8629
vn 0.4912 -0.1867 -0.8508
vn 0.9822 0.0110 0.1874
vn 0.9668 0.1553 0.2032
vn -0.6546 0.7518 -0.0789
vn 0.8632 0.0262 -0.5042
vn 0.9778 0.0495 -0.2038
vn 0.2299 0.4590 0.8582
vn 0.5030 0.1182 0.8562
vn 0.4416 0.4550 0.7733
vn 0.6982 -0.1166 -0.7064
vn 0.2584 -0.0564 0.9644
vn 0.5320 -0.1167 0.8387
vn -0.0075 0.1182 0.9930
vn -0.0259 -0.0969 0.9950
vn 0.6886 0.0332 0.7244
vn 0.6922 -0.1869 0.6971
vn -0.6804 -0.0626 -0.7302
vn -0.4918 0.0912 -0.8659
vn -0.4721 -0.1867 -0.8616
vn -0.5103 -0.0592 0.8579
vn -0.6957 0.0414 0.7171
vn -0.7103 -0.1869 0.6786
vn -0.2719 -0.1165 -0.9553
vn -0.2572 0.1116 -0.9599
vn -0.9920 -0.0966 -0.0816
vn -0.9997 0.0211 -0.0098
vn -0.9808 0.0318 -0.1924
vn -0.2473 0.1201 0.9615
vn -0.2242 -0.0968 0.9697
vn -0.4936 0.1594 0.8549
vn -0.9267 -0.0609 -0.3708
vn -0.8703 0.0764 0.4866
vn -0.9730 -0.0305 0.2287
vn -0.8450 -0.0500 0.5325
vn -0.9948 -0.0968 -0.0311
vn -0.0000 0.1116 -0.9938
vn 0.0000 -0.0969 -0.9953
vn -0.4416 0.4550 -0.7733
vn -0.5997 0.4909 -0.6320
vn -0.5593 0.5999 -0.5722
vn 0.5475 0.6329 -0.5475
vn 0.6772 0.6095 -0.4121
vn 0.5593 0.5999 -0.5721
vn -0.1635 -0.9467 0.2775
vn -0.0249 -0.9980 0.0573
vn -0.2427 -0.8826 0.4027
vn 0.5997 0.4909 -0.6320
vn 0.4416 0.4550 -0.7733
vn 0.8617 0.5021 -0.0735
vn 0.9125 0.2910 0.2876
vn 0.9118 0.2475 -0.3277
vn -0.6012 0.4907 0.6307
vn -0.6473 0.5858 0.4876
vn -0.6751 0.5480 0.4939
vn -0.7256 -0.6833 0.0815
vn -0.2299 0.4590 -0.8582
vn -0.6772 0.6095 -0.4121
vn 0.9616 -0.1232 0.2452
vn 0.7379 0.6431 -0.2047
vn 0.6705 0.6329 -0.3871
vn 0.6939 0.0580 -0.7177
vn -0.9448 0.2270 -0.2363
vn -0.8381 0.5410 -0.0705
vn 0.9832 -0.1825 -0.0053
vn -0.9670 0.1551 0.2023
vn -0.9775 0.0628 0.2014
vn 0.0000 0.5981 0.8014
vn -0.2299 0.4590 0.8582
vn 0.0000 0.4590 0.8885
vn 0.3880 0.6060 0.6944
vn 0.2074 0.5981 0.7741
vn -0.0423 -0.9990 0.0131
vn -0.0741 -0.9959 -0.0516
vn -0.0599 -0.9972 -0.0452
vn 0.5475 0.6329 0.5475
vn 0.6473 0.5858 0.4876
vn 0.6164 0.6296 0.4729
vn -0.4416 0.4550 0.7733
vn -0.5475 0.6329 -0.5475
vn -0.6705 0.6329 -0.3871
vn -0.2074 0.5981 0.7741
vn 0.6012 0.4907 0.6307
vn -0.2074 0.5981 -0.7741
vn -0.7379 0.6431 -0.2047
vn -0.1598 -0.9774 -0.1382
vn -0.8712 0.0798 -0.4844
vn 0.0145 -0.9984 0.0540
vn 0.0425 -0.9864 0.1588
vn 0.0106 -0.9992 0.0397
vn -0.9121 0.2968 0.2828
vn -0.7627 0.2012 0.6147
vn -0.3880 0.6060 0.6944
vn -0.5593 0.5999 0.5722
vn 0.2572 0.1116 -0.9599
vn -0.6872 0.1045 -0.7189
vn 0.6751 0.5480 0.4939
vn -0.3880 0.6060 -0.6944
vn -0.0281 -0.9996 0.0056
vn 0.3037 -0.9250 0.2283
vn 0.0696 -0.9962 0.0523
vn 0.9789 0.1639 -0.1219
vn 0.8727 0.0708 0.4831
vn -0.3046 -0.9220 -0.2392
vn 0.2074 0.5981 -0.7741
vn 0.2561 0.1457 0.9556
vn 0.5593 0.5999 0.5722
vn -0.5475 0.6329 0.5475
vn 0.4159 -0.9078 -0.0537
vn 0.0073 -0.9984 -0.0556
vn -0.1093 -0.9929 0.0480
vn -0.0029 -0.9997 0.0223
vn 0.0679 -0.9650 0.2534
vn 0.0579 -0.9968 -0.0546
vn -0.0073 -0.9984 -0.0556
vn 0.0000 1.0000 0.0000
vn 0.7275 -0.1674 -0.6654
vn 0.3880 0.6060 -0.6944
vn 0.7416 0.2296 -0.6303
vn -0.6164 0.6296 0.4729
vn 0.7627 0.2012 0.6147
vn -0.8300 0.1114 -0.5466
s off
f 45/1/1 23/2/1 35/3/1
f 17/4/2 28/5/2 12/6/2
f 94/7/3 22/8/3 25/9/3
f 83/10/4 4/11/4 21/12/4
f 46/13/5 1/14/5 87/15/5
f 45/1/6 28/5/6 52/16/6
f 85/17/7 31/18/7 10/19/7
f 68/20/8 79/21/8 7/22/8
f 36/23/9 84/24/9 7/25/9
f 52/26/6 28/5/6 17/4/6
f 94/7/10 1/27/10 22/8/10
f 45/1/6 35/3/6 28/5/6
f 68/20/11 78/28/11 79/21/11
s 1
f 52/16/12 43/29/13 63/30/14
f 51/31/15 44/32/16 43/33/17
f 76/34/18 7/22/19 79/21/20
f 70/35/21 32/36/22 88/37/23
f 1/38/24 100/39/25 22/8/26
f 15/40/27 19/41/28 17/42/29
f 90/43/30 44/32/16 3/44/31
f 43/33/32 63/45/32 89/46/32
f 62/47/33 61/48/34 51/31/15
f 64/49/35 48/50/36 65/51/37
f 19/41/28 20/52/38 17/42/29
f 48/50/36 49/53/39 47/54/40
f 49/53/39 24/55/41 23/56/42
f 46/13/43 47/54/40 45/57/44
f 30/58/45 29/59/46 28/60/47
f 38/61/48 36/23/49 35/62/50
f 26/63/51 29/59/46 27/64/52
f 53/65/53 34/66/54 55/67/55
f 23/56/42 41/68/56 40/69/57
f 38/61/48 41/68/56 39/70/58
f 55/67/55 54/71/59 53/65/53
f 60/72/60 57/73/61 58/74/62
f 57/73/61 34/66/54 33/75/63
f 26/63/51 13/76/64 12/77/65
f 102/78/66 85/17/67 66/79/68
f 99/80/69 93/81/70 92/82/71
f 35/83/72 40/84/73 38/85/74
f 92/82/71 83/10/75 18/86/76
f 4/11/77 2/87/78 6/88/79
f 93/89/70 83/10/75 92/90/71
f 84/91/80 68/20/81 7/25/82
f 33/92/83 58/93/83 57/73/83
f 83/10/75 19/41/28 18/86/76
f 29/59/46 101/94/84 27/64/52
f 85/17/67 67/95/85 66/96/68
f 89/97/86 46/98/43 45/57/44
f 29/59/46 85/17/67 102/78/66
f 105/99/87 93/81/70 98/100/88
f 21/101/89 6/102/79 62/103/33
f 27/64/52 88/37/23 13/76/64
f 11/104/90 7/105/19 10/19/91
f 63/45/92 90/43/30 89/97/86
f 9/106/93 11/107/90 34/66/54
f 59/108/94 9/109/93 34/66/54
f 71/110/95 104/111/96 86/112/97
f 64/113/35 14/114/98 42/115/99
f 35/3/100 53/116/101 28/117/102
f 37/118/103 94/119/104 25/9/105
f 103/120/106 41/68/56 104/121/96
f 75/122/107 67/123/85 74/124/108
f 41/68/56 86/112/97 104/121/96
f 82/125/109 103/126/106 104/111/96
f 65/127/37 46/13/43 87/15/110
f 70/35/21 101/128/84 73/129/111
f 36/23/49 103/130/106 84/24/80
f 77/131/112 10/19/91 76/132/18
f 53/116/101 30/133/113 28/117/102
f 11/134/90 56/135/114 55/67/55
f 47/54/115 23/2/116 45/1/117
f 8/136/118 36/137/49 7/138/119
f 81/139/120 69/140/121 103/130/106
f 32/141/22 19/41/28 16/142/122
f 31/143/123 54/71/59 56/135/114
f 8/144/118 9/145/93 60/72/60
f 94/7/104 87/146/110 1/14/124
f 73/129/111 102/147/66 72/148/125
f 33/149/126 53/150/101 35/3/100
f 89/97/127 45/57/128 63/30/14
f 62/103/33 5/151/129 61/48/34
f 3/152/31 91/153/130 90/43/30
f 53/116/101 54/154/131 30/133/113
f 77/131/112 67/123/85 10/19/91
f 97/155/132 18/156/76 32/36/22
f 13/76/64 32/36/22 16/142/122
f 13/76/64 15/40/27 12/77/65
f 50/157/133 86/112/97 24/55/41
f 58/74/62 36/137/49 60/158/60
f 52/16/12 63/30/14 45/1/128
f 64/113/35 71/110/95 86/112/97
f 44/32/16 61/48/34 5/159/129
f 9/106/93 59/108/94 60/72/60
f 2/160/78 91/153/130 3/152/31
f 65/127/37 95/161/134 14/162/98
f 105/99/87 100/39/25 4/163/77
f 80/164/135 68/165/81 69/166/121
f 51/167/136 43/29/13 52/16/12
f 15/40/137 17/42/137 12/6/137
f 2/168/78 46/98/43 91/169/130
f 58/93/138 33/92/126 35/62/100
f 11/170/90 31/143/123 56/171/114
f 23/56/139 40/69/73 35/83/72
f 47/54/115 49/53/140 23/56/116
f 20/172/141 52/173/141 17/42/141
f 28/60/142 26/63/142 12/77/142
f 105/99/143 97/155/143 79/21/143
f 51/31/15 61/48/34 44/32/16
f 76/34/18 10/19/91 7/22/19
f 70/35/21 97/155/132 32/36/22
f 1/38/24 4/11/77 100/39/25
f 15/40/27 16/142/122 19/41/28
f 51/31/15 52/173/144 62/47/33
f 52/173/144 20/172/38 21/101/89
f 62/47/33 52/173/144 21/101/89
f 64/49/35 50/157/133 48/50/36
f 19/41/28 21/12/89 20/52/38
f 48/50/36 50/157/133 49/53/39
f 49/53/39 50/157/133 24/55/41
f 46/13/43 48/50/36 47/54/40
f 30/58/45 31/18/123 29/59/46
f 38/61/48 39/70/58 36/23/49
f 26/63/51 28/60/47 29/59/46
f 53/65/53 33/75/63 34/66/54
f 23/56/42 24/55/41 41/68/56
f 38/61/48 40/69/57 41/68/56
f 55/67/55 56/135/114 54/71/59
f 60/72/60 59/108/94 57/73/61
f 57/73/61 59/108/94 34/66/54
f 26/63/51 27/64/52 13/76/64
f 75/122/107 72/148/125 66/79/68
f 72/148/125 102/78/66 66/79/68
f 99/80/69 98/100/88 93/81/70
f 18/86/76 96/174/145 92/82/71
f 96/174/145 99/80/69 92/82/71
f 4/11/77 1/38/24 2/87/78
f 93/89/70 4/11/77 83/10/75
f 84/91/80 69/140/121 68/20/81
f 83/10/75 21/12/89 19/41/28
f 29/59/46 102/147/66 101/94/84
f 85/17/67 10/19/91 67/95/85
f 89/97/86 91/169/130 46/98/43
f 29/59/46 31/18/123 85/17/67
f 105/99/87 4/11/77 93/81/70
f 21/101/89 4/175/146 6/102/79
f 27/64/52 101/128/84 88/37/23
f 11/104/90 8/176/118 7/105/19
f 63/45/92 43/33/17 90/43/30
f 43/33/17 44/32/16 90/43/30
f 90/43/30 91/153/130 89/97/86
f 8/176/118 11/107/90 9/106/93
f 11/107/90 55/67/55 34/66/54
f 71/110/95 82/125/109 104/111/96
f 64/113/35 65/177/37 14/114/98
f 37/118/103 95/178/134 94/119/104
f 103/120/106 39/70/58 41/68/56
f 75/122/107 66/79/68 67/123/85
f 41/68/56 24/55/41 86/112/97
f 82/125/109 81/179/120 103/126/106
f 65/127/37 48/50/36 46/13/43
f 70/35/21 88/37/23 101/128/84
f 36/23/49 39/70/58 103/130/106
f 8/136/118 60/158/60 36/137/49
f 80/164/135 69/140/121 81/139/120
f 69/140/121 84/91/80 103/130/106
f 32/141/22 18/156/76 19/41/28
f 31/143/123 30/180/45 54/71/59
f 94/7/104 95/161/134 87/146/110
f 73/129/111 101/128/84 102/147/66
f 62/103/33 6/181/79 5/151/129
f 77/131/112 74/124/108 67/123/85
f 97/155/132 96/174/145 18/156/76
f 13/76/64 88/37/23 32/36/22
f 13/76/64 16/142/122 15/40/27
f 50/157/133 64/49/35 86/112/97
f 58/74/62 35/62/50 36/137/49
f 64/113/35 42/115/99 71/110/95
f 5/159/129 6/182/79 2/87/78
f 2/87/78 3/183/31 5/159/129
f 3/183/31 44/32/16 5/159/129
f 87/146/110 95/161/134 65/127/37
f 95/161/134 37/118/103 14/162/98
f 80/164/135 78/28/147 68/165/81
f 2/168/78 1/184/148 46/98/43
f 11/170/90 10/185/149 31/143/123
f 97/155/143 70/186/143 73/129/143
f 73/129/143 72/148/143 97/155/143
f 72/148/143 75/187/143 97/155/143
f 75/187/143 74/124/143 77/131/143
f 77/131/143 76/132/143 79/21/143
f 79/21/143 78/28/143 80/164/143
f 80/164/143 81/139/143 82/188/143
f 82/188/143 71/189/143 42/190/143
f 42/190/143 14/162/143 82/188/143
f 14/162/143 37/118/143 82/188/143
f 37/118/143 25/9/143 105/99/143
f 25/9/143 22/8/143 105/99/143
f 22/8/143 100/39/143 105/99/143
f 105/99/143 98/100/143 97/155/143
f 98/100/143 99/191/143 97/155/143
f 99/191/143 96/174/143 97/155/143
f 75/187/143 77/131/143 97/155/143
f 77/131/143 79/21/143 97/155/143
f 79/21/143 80/164/143 37/118/143
f 80/164/143 82/188/143 37/118/143
f 37/118/143 105/99/143 79/21/143
