# Blender v2.90.0 OBJ File: 'GT_Anchored_Solar_Panel.blend'
# www.blender.org
v -0.210692 0.893450 0.056454
v -0.238141 0.868950 -0.000000
v -0.203914 0.881200 0.117729
v -0.168391 0.868950 0.168390
v -0.119071 0.868950 0.206237
v -0.060942 0.881200 0.227437
v 0.161314 0.009832 -0.161314
v 0.000000 0.890167 0.228131
v 0.227436 0.881200 0.060941
v 0.235459 0.881200 -0.000000
v 0.206236 0.868950 0.119070
v 0.166495 0.881200 0.166494
v 0.117730 0.881200 0.203914
v 0.060942 0.881200 0.227437
v 0.061636 0.868950 -0.230026
v 0.114067 0.009832 -0.197569
v 0.114067 0.890168 -0.197569
v 0.168391 0.868950 -0.168391
v 0.206236 0.868950 -0.119070
v 0.000000 0.881200 -0.235459
v -0.061636 0.868950 -0.230026
v -0.119071 0.868950 -0.206236
v -0.168391 0.868950 -0.168391
v -0.206236 0.868950 -0.119070
v -0.230026 0.868950 -0.061635
v -0.228133 0.009832 -0.000000
v -0.220359 0.009832 -0.059045
v -0.220359 0.009832 0.059045
v -0.197569 0.009832 0.114066
v -0.168391 0.031050 0.168390
v -0.114067 0.009832 0.197569
v -0.056456 0.006550 0.210692
v 0.227436 0.881200 -0.060941
v 0.228133 0.009832 -0.000000
v 0.227436 0.018800 -0.060941
v 0.220359 0.009832 0.059045
v 0.188901 0.006550 0.109062
v 0.188901 0.006550 -0.109062
v 0.161314 0.009832 0.161313
v 0.109062 0.006550 0.188902
v 0.056456 0.006550 0.210692
v 0.056455 0.006550 -0.210692
v -0.056455 0.006550 -0.210692
v -0.119071 0.031050 -0.206236
v -0.161314 0.009832 -0.161314
v -0.197569 0.009832 -0.114066
vt 0.000000 0.000000
vt 0.000000 0.000000
vt 0.000000 0.000000
vt 0.944075 0.966011
vt 0.847346 0.804858
vt 0.000000 0.000000
vt 0.000000 0.000000
vt 0.798113 0.966011
vt 0.781895 0.966011
vt 0.000000 0.000000
vt 0.790004 0.966011
vt 0.781895 0.799614
vt 0.000000 0.000000
vt 0.000000 0.000000
vt 0.000000 0.000000
vt 0.798113 0.799614
vt 0.790004 0.966011
vt 0.798113 0.799614
vt 0.798113 0.966011
vt 0.968402 0.966011
vt 0.960293 0.799614
vt 0.968402 0.799614
vt 0.944075 0.799614
vt 0.952184 0.966011
vt 0.960293 0.799614
vt 0.806222 0.966011
vt 0.806222 0.799614
vt 0.814331 0.799614
vt 0.814331 0.966011
vt 0.822440 0.966011
vt 0.786789 0.814496
vt 0.793489 0.814496
vt 0.800189 0.813958
vt 0.800189 0.958940
vt 0.935966 0.799614
vt 0.944075 0.799614
vt 0.952184 0.799614
vt 0.952184 0.966011
vt 0.960293 0.966011
vt 0.773786 0.966011
vt 0.806222 0.966011
vt 0.000000 0.000000
vt 0.814331 0.799614
vt 0.814331 0.966011
vt 0.940886 0.814496
vt 0.947586 0.813958
vt 0.934186 0.814496
vt 0.806889 0.958940
vt 0.813589 0.959479
vt 0.927486 0.958940
vt 0.920786 0.959479
vt 0.934186 0.958940
vt 0.773786 0.966011
vt 0.773786 0.799614
vt 0.781895 0.799614
vt 0.793489 0.959479
vt 0.920786 0.814496
vt 0.927486 0.814496
vt 0.934186 0.813958
vt 0.793489 0.814496
vt 0.947586 0.814496
vt 0.847036 0.781787
vt 0.927857 0.799614
vt 0.000000 0.000000
vt 0.000000 0.000000
vt 0.927857 0.799614
vt 0.800189 0.813958
vt 0.935966 0.966011
vt 0.927857 0.966011
vt 0.847036 0.781787
vt 0.869117 0.781787
vt 0.800189 0.814496
vt 0.806889 0.814496
vt 0.813589 0.813958
vt 0.968402 0.966011
vt 0.960293 0.966011
vt 0.813589 0.814496
vt 0.806889 0.814496
vt 0.000000 0.000000
vt 0.935966 0.966011
vt 0.806222 0.799614
vt 0.940886 0.958940
vt 0.786789 0.958940
vt 0.927857 0.966011
vt 0.790004 0.799614
vt 0.952184 0.799614
vt 0.944075 0.966011
vt 0.773786 0.799614
vt 0.781895 0.966011
vt 0.847346 0.804858
vt 0.968402 0.799614
vn -0.0519 0.9955 -0.0793
vn -0.1235 0.9837 -0.1304
vn -0.0191 -0.9998 -0.0000
vn 0.0683 0.9969 0.0394
vn 0.9400 -0.0084 0.3411
vn 0.0000 -1.0000 -0.0000
vn 0.0490 0.9987 0.0131
vn 0.8658 -0.0207 0.4999
vn 0.0128 0.9999 0.0034
vn -0.9114 0.0544 0.4080
vn -0.7081 -0.0100 0.7061
vn -0.7283 -0.0000 0.6852
vn -0.9138 0.4055 0.0239
vn -0.9659 -0.0116 -0.2588
vn -0.9999 -0.0116 0.0000
vn 0.7285 -0.0141 -0.6849
vn 0.8792 -0.0060 -0.4764
vn 0.9587 -0.0124 -0.2843
vn -0.4663 -0.0107 0.8846
vn -0.3354 -0.0115 0.9420
vn -0.1126 -0.0155 0.9935
vn -0.1531 -0.0225 0.9880
vn -0.1713 0.9582 0.2293
vn -0.1449 0.9697 0.1964
vn -0.1580 0.9654 0.2075
vn 0.1308 -0.9913 0.0172
vn -0.3352 0.8347 0.4369
vn -0.1748 0.9579 0.2278
vn -0.7097 -0.0061 -0.7045
vn -0.4303 -0.0178 -0.9025
vn -0.7645 -0.0116 -0.6445
vn -0.8660 -0.0116 -0.5000
vn 0.9914 -0.0083 0.1305
vn 1.0000 -0.0044 0.0026
vn 0.4968 -0.0144 0.8677
vn 0.4879 -0.0189 0.8727
vn 0.6859 -0.0084 0.7277
vn -0.0343 -0.9993 -0.0161
vn -0.0353 -0.9992 -0.0188
vn -0.0242 -0.9997 -0.0046
vn 0.1949 -0.0198 0.9806
vn 0.1865 -0.0224 0.9822
vn 0.6521 0.6580 0.3765
vn 0.4668 -0.8712 -0.1521
vn 0.4494 -0.8831 -0.1351
vn 0.6730 -0.6364 -0.3770
vn -0.3353 0.8347 0.4369
vn 0.5094 0.7667 -0.3908
vn -0.9656 -0.0096 0.2598
vn -0.1831 0.9730 -0.1405
vn -0.2039 0.9689 -0.1404
vn -0.2666 0.9536 -0.1399
vn -0.3346 0.9321 -0.1386
vn 0.7654 -0.0084 0.6435
vn 0.0803 -0.9913 -0.1047
vn -0.0537 -0.9975 0.0454
vn -0.0242 -0.9997 0.0046
vn -0.0228 -0.9997 0.0030
vn -0.2202 -0.0127 -0.9754
vn -0.0345 -0.0229 -0.9991
vn 0.2977 -0.0092 -0.9546
vn 0.4257 -0.0172 -0.9047
vn 0.1101 -0.0229 -0.9937
vn -0.0352 -0.9992 0.0175
vn -0.0228 -0.9997 -0.0030
vn -0.5000 -0.0000 -0.8660
vn -0.1514 0.9655 -0.2120
vn -0.1468 0.9705 -0.1913
vn -0.1853 0.9086 -0.3743
vn 0.1937 0.6480 -0.7366
vn -0.2107 0.8347 -0.5088
vn 0.1308 -0.9827 0.1308
vn 0.0655 0.9978 0.0050
vn 0.1504 0.9868 -0.0601
vn 0.2606 0.9528 -0.1558
vn -0.5420 -0.6423 0.5420
vn 0.6470 0.0022 -0.7625
vn 0.4980 0.0889 -0.8626
vn 0.4795 0.8069 -0.3449
vn 0.0607 0.9981 0.0080
vn 0.1054 0.9833 0.1484
vn 0.1026 0.9857 0.1337
vn 0.1250 0.9595 0.2526
vn 0.1407 0.9299 0.3397
vn -0.0734 -0.9946 0.0734
vn 0.7159 -0.5628 0.4133
vn -0.8231 0.5437 0.1642
vn -0.5731 0.8160 -0.0755
vn 0.0834 -0.9965 -0.0000
vn -0.3205 -0.7039 -0.6339
vn 0.0028 -0.0285 -0.9996
vn -0.0489 -0.9981 -0.0375
vn 0.0000 -0.0773 0.9970
vn 0.9730 -0.0000 -0.2309
vn -0.9055 -0.0084 0.4242
vn 0.6938 -0.5964 -0.4038
vn 0.9980 -0.0084 0.0626
vn 0.4249 -0.0197 0.9050
s off
f 17/1/1 20/2/1 1/3/1
f 20/2/2 23/4/2 1/3/2
f 43/5/3 32/6/3 26/7/3
f 12/8/4 9/9/4 8/10/4
f 11/11/5 36/12/5 9/9/5
f 42/13/6 38/14/6 37/15/6
f 17/1/7 8/10/7 9/9/7
f 11/11/8 39/16/8 36/12/8
f 17/1/9 1/3/9 8/10/9
s 1
f 3/17/10 30/18/11 4/19/12
f 2/20/13 27/21/14 26/22/15
f 7/23/16 19/24/17 35/25/18
f 5/26/19 30/18/11 31/27/20
f 5/26/19 32/28/21 6/29/22
f 6/29/23 8/30/24 1/3/25
f 34/31/26 36/32/26 37/33/26
f 5/26/27 6/29/23 3/34/28
f 23/4/29 44/35/30 45/36/31
f 23/4/29 46/37/32 24/38/32
f 24/38/32 27/21/14 25/39/14
f 36/12/33 10/40/34 9/9/33
f 13/41/35 39/16/36 12/8/37
f 46/37/38 43/42/39 27/21/40
f 41/43/41 13/41/35 14/44/42
f 11/11/43 9/9/43 12/8/43
f 35/45/44 34/46/45 38/47/46
f 4/48/47 5/49/47 3/34/47
f 18/50/48 17/51/48 19/52/48
f 2/53/13 26/54/15 28/55/49
f 23/4/50 24/38/51 1/3/52
f 24/38/51 25/39/53 1/56/52
f 39/16/36 11/11/54 12/8/37
f 16/57/55 7/58/55 38/59/55
f 6/29/23 1/3/25 3/17/28
f 16/57/55 38/59/55 42/13/55
f 32/28/56 28/60/57 26/61/58
f 21/62/59 43/63/60 44/35/30
f 15/64/61 16/65/62 42/66/63
f 32/28/56 29/67/64 28/60/57
f 27/21/40 43/42/39 26/7/65
f 22/68/66 21/69/59 44/35/30
f 22/68/67 23/4/68 20/2/69
f 15/70/70 20/71/70 17/1/70
f 21/69/71 22/68/67 20/71/69
f 37/72/72 39/73/72 40/74/72
f 10/75/73 33/76/74 17/51/75
f 29/67/76 31/77/76 30/78/76
f 18/79/77 15/64/61 17/80/78
f 33/76/74 19/24/79 17/51/75
f 9/9/80 10/40/73 17/1/75
f 13/41/81 12/8/82 8/10/83
f 14/44/84 13/41/81 8/30/83
f 41/43/6 43/5/6 42/13/6
f 31/77/85 29/67/64 32/28/56
f 16/65/62 18/79/77 7/23/16
f 42/13/6 37/15/6 40/74/6
f 37/33/86 36/32/86 39/16/86
f 42/13/6 40/81/6 41/43/6
f 1/56/87 25/82/88 2/83/13
f 34/31/89 37/33/89 38/14/89
f 45/36/90 44/35/90 43/63/90
f 15/84/61 43/5/60 20/2/91
f 46/37/38 45/36/92 43/42/39
f 14/44/42 8/30/93 6/29/22
f 10/75/34 35/25/18 33/76/94
f 3/17/10 29/85/95 30/18/11
f 2/20/13 25/39/14 27/21/14
f 35/25/44 38/86/46 7/23/96
f 7/23/16 18/87/77 19/24/17
f 19/24/17 33/76/94 35/25/18
f 5/26/19 4/19/12 30/18/11
f 5/26/19 31/27/20 32/28/21
f 23/4/29 22/68/66 44/35/30
f 23/4/29 45/36/31 46/37/32
f 24/38/32 46/37/32 27/21/14
f 36/12/33 34/88/97 10/40/34
f 13/41/35 40/81/98 39/16/36
f 41/43/41 40/81/98 13/41/35
f 29/85/95 3/17/10 28/55/49
f 3/17/10 1/89/87 2/53/13
f 28/55/49 3/17/10 2/53/13
f 21/62/59 20/2/91 43/63/60
f 41/43/6 32/6/6 43/5/6
f 16/65/62 15/64/61 18/79/77
f 15/84/61 42/90/63 43/5/60
f 6/29/22 32/28/21 41/43/41
f 41/43/41 14/44/42 6/29/22
f 10/75/34 34/91/97 35/25/18
