# Blender v2.82 (sub 7) OBJ File: 'DLBasic222Block.blend'
# www.blender.org
mtllib DarkLightStandardThiccTwoBlock.mtl
o DarkLightBrudger8
v 0.869999 -0.500001 0.130001
v 0.999999 -0.600001 0.000001
v 1.129999 -0.500001 0.130001
v 0.869999 -0.500001 -0.129999
v 1.129999 -0.500001 -0.129999
v -0.450001 1.499999 1.450001
v 1.449999 1.499999 1.450001
v 1.449999 1.499999 -0.449999
v -0.450001 1.499999 -0.449999
v -0.450001 1.449999 1.500001
v 1.449999 1.449999 1.500001
v -0.500001 1.449999 1.450001
v -0.500001 1.449999 -0.449999
v -0.500001 -0.450001 1.450001
v -0.500001 -0.350001 1.450001
v -0.500001 -0.300001 1.350001
v -0.500001 1.299999 1.350001
v -0.500001 1.349999 1.450001
v -0.500001 1.349999 -0.449999
v -0.500001 1.299999 -0.349999
v -0.500001 -0.300001 -0.349999
v -0.500001 -0.350001 -0.449999
v -0.500001 -0.450001 -0.449999
v -0.450001 -0.450001 1.500001
v -0.450001 -0.350001 1.500001
v -0.450001 -0.500001 1.450001
v -0.450001 -0.500001 -0.449999
v -0.450001 -0.450001 -0.499999
v -0.450001 -0.350001 -0.499999
v -0.435001 -0.337501 -0.484999
v -0.485001 -0.337501 -0.434999
v -0.350001 -0.300001 -0.499999
v -0.360001 -0.300001 -0.484999
v -0.360001 1.299999 -0.484999
v -0.350001 1.299999 -0.499999
v -0.435001 1.337499 -0.484999
v -0.450001 1.349999 -0.499999
v -0.485001 1.337499 -0.434999
v -0.485001 1.299999 -0.359999
v -0.485001 -0.300001 -0.359999
v -0.450001 1.449999 -0.499999
v 1.449999 1.449999 -0.499999
v 1.449999 1.349999 -0.499999
v 1.349999 1.299999 -0.499999
v 1.349999 -0.300001 -0.499999
v 1.449999 -0.350001 -0.499999
v 1.449999 -0.450001 -0.499999
v 1.499999 1.449999 -0.449999
v 1.499999 1.349999 -0.449999
v 1.499999 1.449999 1.450001
v 1.499999 1.349999 1.450001
v 1.499999 1.299999 1.350001
v 1.499999 -0.300001 1.350001
v 1.499999 -0.350001 1.450001
v 1.499999 -0.450001 1.450001
v 1.499999 -0.450001 -0.449999
v 1.499999 -0.350001 -0.449999
v 1.499999 -0.300001 -0.349999
v 1.499999 1.299999 -0.349999
v 1.449999 1.349999 1.500001
v -0.450001 1.349999 1.500001
v -0.350001 1.299999 1.500001
v -0.350001 -0.300001 1.500001
v 1.449999 -0.450001 1.500001
v 1.449999 -0.350001 1.500001
v 1.349999 -0.300001 1.500001
v 1.349999 1.299999 1.500001
v -0.435001 1.337499 1.485001
v -0.485001 1.337499 1.435001
v -0.360001 1.299999 1.485001
v -0.360001 -0.300001 1.485001
v -0.435001 -0.337501 1.485001
v -0.485001 -0.337501 1.435001
v -0.485001 -0.300001 1.360001
v -0.485001 1.299999 1.360001
v 1.449999 -0.500001 1.450001
v 1.449999 -0.500001 -0.449999
v 1.434999 -0.337501 -0.484999
v 1.484999 -0.337501 -0.434999
v 1.359999 -0.300001 -0.484999
v 1.359999 1.299999 -0.484999
v 1.434999 1.337499 -0.484999
v 1.484999 1.337499 -0.434999
v 1.484999 1.299999 -0.359999
v 1.484999 -0.300001 -0.359999
v 1.484999 -0.337501 1.435001
v 1.434999 -0.337501 1.485001
v 1.484999 -0.300001 1.360001
v 1.484999 1.299999 1.360001
v 1.484999 1.337499 1.435001
v 1.434999 1.337499 1.485001
v 1.359999 -0.300001 1.485001
v 1.359999 1.299999 1.485001
v 0.999999 1.599999 0.000001
v 0.869999 1.499999 0.130001
v 1.129999 1.499999 0.130001
v 0.869999 1.499999 -0.129999
v 1.129999 1.499999 -0.129999
v -0.500001 0.129999 -0.129999
v -0.600001 -0.000001 0.000001
v -0.500001 0.129999 0.130001
v -0.500001 -0.130001 -0.129999
v -0.500001 -0.130001 0.130001
v 1.499999 -0.130001 0.130001
v 1.599999 -0.000001 0.000001
v 1.499999 0.129999 0.130001
v 1.499999 -0.130001 -0.129999
v 1.499999 0.129999 -0.129999
v 0.999999 -0.000001 1.600001
v 0.869999 -0.130001 1.500001
v 1.129999 -0.130001 1.500001
v 0.869999 0.129999 1.500001
v 1.129999 0.129999 1.500001
v 0.999999 -0.600001 1.000001
v 0.869999 -0.500001 1.130001
v 0.869999 -0.500001 0.870001
v 1.129999 -0.500001 1.130001
v 1.129999 -0.500001 0.870001
v 0.999999 0.999999 1.600001
v 0.869999 0.869999 1.500001
v 1.129999 0.869999 1.500001
v 0.869999 1.129999 1.500001
v 1.129999 1.129999 1.500001
v -0.500001 -0.130001 1.130001
v -0.600001 -0.000001 1.000001
v -0.500001 -0.130001 0.870001
v -0.500001 0.129999 1.130001
v -0.500001 0.129999 0.870001
v 1.129999 -0.130001 -0.499999
v 0.999999 -0.000001 -0.599999
v 1.129999 0.129999 -0.499999
v 0.869999 -0.130001 -0.499999
v 0.869999 0.129999 -0.499999
v 1.599999 -0.000001 1.000001
v 1.499999 -0.130001 0.870001
v 1.499999 0.129999 0.870001
v 1.499999 -0.130001 1.130001
v 1.499999 0.129999 1.130001
v 1.599999 0.999999 1.000001
v 1.499999 1.129999 1.130001
v 1.499999 0.869999 1.130001
v 1.499999 1.129999 0.870001
v 1.499999 0.869999 0.870001
v 1.129999 1.129999 -0.499999
v 0.999999 0.999999 -0.599999
v 0.869999 1.129999 -0.499999
v 1.129999 0.869999 -0.499999
v 0.869999 0.869999 -0.499999
v -0.600001 0.999999 1.000001
v -0.500001 1.129999 1.130001
v -0.500001 1.129999 0.870001
v -0.500001 0.869999 1.130001
v -0.500001 0.869999 0.870001
v 1.129999 1.499999 1.130001
v 0.999999 1.599999 1.000001
v 0.869999 1.499999 1.130001
v 1.129999 1.499999 0.870001
v 0.869999 1.499999 0.870001
v -0.500001 0.869999 0.130001
v -0.500001 1.129999 0.130001
v -0.600001 0.999999 0.000001
v -0.500001 1.129999 -0.129999
v -0.500001 0.869999 -0.129999
v 1.499999 1.129999 -0.129999
v 1.599999 0.999999 0.000001
v 1.499999 0.869999 -0.129999
v 1.499999 1.129999 0.130001
v 1.499999 0.869999 0.130001
v -0.000001 -0.600001 0.000001
v 0.129999 -0.500001 0.130001
v -0.130001 -0.500001 0.130001
v 0.129999 -0.500001 -0.129999
v -0.130001 -0.500001 -0.129999
v 0.129999 1.499999 0.130001
v -0.000001 1.599999 0.000001
v -0.130001 1.499999 0.130001
v 0.129999 1.499999 -0.129999
v -0.130001 1.499999 -0.129999
v 0.129999 -0.130001 1.500001
v -0.000001 -0.000001 1.600001
v -0.130001 -0.130001 1.500001
v 0.129999 0.129999 1.500001
v -0.130001 0.129999 1.500001
v 0.129999 -0.500001 1.130001
v -0.000001 -0.600001 1.000001
v 0.129999 -0.500001 0.870001
v -0.130001 -0.500001 1.130001
v -0.130001 -0.500001 0.870001
v 0.129999 0.869999 1.500001
v -0.000001 0.999999 1.600001
v -0.130001 0.869999 1.500001
v 0.129999 1.129999 1.500001
v -0.130001 1.129999 1.500001
v -0.000001 -0.000001 -0.599999
v -0.130001 -0.130001 -0.499999
v -0.130001 0.129999 -0.499999
v 0.129999 -0.130001 -0.499999
v 0.129999 0.129999 -0.499999
v -0.000001 0.999999 -0.599999
v -0.130001 1.129999 -0.499999
v 0.129999 1.129999 -0.499999
v -0.130001 0.869999 -0.499999
v 0.129999 0.869999 -0.499999
v -0.000001 1.599999 1.000001
v -0.130001 1.499999 1.130001
v 0.129999 1.499999 1.130001
v -0.130001 1.499999 0.870001
v 0.129999 1.499999 0.870001
vt 0.877900 0.247440
vt 0.906678 0.218661
vt 0.935456 0.247440
vt 0.877900 0.189883
vt 0.935456 0.189883
vt 0.469090 0.963230
vt 0.038723 0.532863
vt 0.038723 0.963230
vt 0.038723 0.974556
vt 0.469090 0.963230
vt 0.469090 0.974556
vt 0.027397 0.963230
vt 0.038723 0.963230
vt 0.027397 0.532863
vt 0.435113 0.940579
vt 0.469090 0.963230
vt 0.435113 0.555514
vt 0.027397 0.532863
vt 0.038723 0.555514
vt 0.027397 0.555514
vt 0.038723 0.521538
vt 0.038723 0.532863
vt 0.027397 0.532863
vt 0.038723 0.963230
vt 0.027397 0.963230
vt 0.038723 0.521538
vt 0.038723 0.532863
vt 0.027397 0.555514
vt 0.038723 0.521538
vt 0.030795 0.536261
vt 0.042121 0.524936
vt 0.061374 0.521538
vt 0.059109 0.524936
vt 0.072699 0.524936
vt 0.435113 0.521538
vt 0.072699 0.521538
vt 0.261918 0.470322
vt 0.270850 0.275309
vt 0.261918 0.270843
vt 0.061374 0.521538
vt 0.042121 0.524936
vt 0.038723 0.521538
vt 0.030795 0.536261
vt 0.027397 0.555514
vt 0.030795 0.553249
vt 0.027397 0.566840
vt 0.030795 0.929254
vt 0.030795 0.566840
vt 0.027397 0.555514
vt 0.027397 0.532863
vt 0.277996 0.268163
vt 0.473010 0.259231
vt 0.273530 0.259231
vt 0.255964 0.470322
vt 0.255964 0.270843
vt 0.027397 0.963230
vt 0.038723 0.940579
vt 0.027397 0.940579
vt 0.038723 0.974556
vt 0.038723 0.963230
vt 0.469090 0.974556
vt 0.469090 0.963230
vt 0.061374 0.566840
vt 0.446439 0.929254
vt 0.446439 0.566840
vt 0.480415 0.940579
vt 0.480415 0.963230
vt 0.072699 0.940579
vt 0.038723 0.963230
vt 0.072699 0.555514
vt 0.469090 0.940579
vt 0.480415 0.963230
vt 0.061374 0.566840
vt 0.469090 0.532863
vt 0.446439 0.566840
vt 0.027397 0.940579
vt 0.042121 0.971158
vt 0.027397 0.963230
vt 0.030795 0.959833
vt 0.061374 0.974556
vt 0.059109 0.971158
vt 0.072699 0.974556
vt 0.435113 0.971158
vt 0.072699 0.971158
vt 0.042121 0.971158
vt 0.061374 0.974556
vt 0.059109 0.971158
vt 0.027397 0.963230
vt 0.030795 0.959833
vt 0.027397 0.940579
vt 0.030795 0.942844
vt 0.030795 0.566840
vt 0.027397 0.929254
vt 0.027397 0.566840
vt 0.473010 0.481934
vt 0.277996 0.473002
vt 0.273530 0.481934
vt 0.027397 0.940579
vt 0.030795 0.942844
vt 0.261918 0.470322
vt 0.255964 0.270843
vt 0.261918 0.270843
vt 0.270850 0.275309
vt 0.469090 0.521538
vt 0.469090 0.532863
vt 0.038723 0.532863
vt 0.469090 0.532863
vt 0.480415 0.532863
vt 0.469090 0.521538
vt 0.469090 0.555514
vt 0.480415 0.555514
vt 0.469090 0.521538
vt 0.477017 0.536261
vt 0.480415 0.532863
vt 0.465692 0.524936
vt 0.446439 0.521538
vt 0.448704 0.524936
vt 0.072699 0.521538
vt 0.435113 0.524936
vt 0.072699 0.524936
vt 0.446439 0.521538
vt 0.465692 0.524936
vt 0.448704 0.524936
vt 0.480415 0.532863
vt 0.469090 0.521538
vt 0.477017 0.536261
vt 0.480415 0.555514
vt 0.477017 0.553249
vt 0.477017 0.929254
vt 0.480415 0.566840
vt 0.477017 0.566840
vt 0.273530 0.259231
vt 0.468544 0.268163
vt 0.277996 0.268163
vt 0.484621 0.270843
vt 0.490576 0.470322
vt 0.490576 0.270843
vt 0.475689 0.465856
vt 0.475689 0.275309
vt 0.480415 0.555514
vt 0.477017 0.553249
vt 0.480415 0.963230
vt 0.469090 0.963230
vt 0.480415 0.532863
vt 0.480415 0.555514
vt 0.469090 0.555514
vt 0.480415 0.963230
vt 0.465692 0.971158
vt 0.469090 0.974556
vt 0.480415 0.940579
vt 0.477017 0.959833
vt 0.480415 0.566840
vt 0.477017 0.929254
vt 0.477017 0.566840
vt 0.480415 0.940579
vt 0.477017 0.959833
vt 0.477017 0.942844
vt 0.468544 0.473002
vt 0.273530 0.481934
vt 0.277996 0.473002
vt 0.473010 0.487888
vt 0.273530 0.487888
vt 0.484621 0.270843
vt 0.475689 0.465856
vt 0.475689 0.275309
vt 0.435113 0.971158
vt 0.072699 0.974556
vt 0.072699 0.971158
vt 0.446439 0.974556
vt 0.465692 0.971158
vt 0.469090 0.974556
vt 0.480415 0.963230
vt 0.446439 0.974556
vt 0.448704 0.971158
vt 0.480415 0.532863
vt 0.469090 0.532863
vt 0.906678 0.218661
vt 0.877900 0.247440
vt 0.935456 0.247440
vt 0.877900 0.189883
vt 0.935456 0.189883
vt 0.935456 0.189883
vt 0.906678 0.218661
vt 0.935456 0.247440
vt 0.877899 0.189883
vt 0.877899 0.247440
vt 0.877899 0.247440
vt 0.906678 0.218661
vt 0.935456 0.247440
vt 0.877899 0.189883
vt 0.935456 0.189883
vt 0.906678 0.218662
vt 0.877900 0.189883
vt 0.935456 0.189883
vt 0.877900 0.247440
vt 0.935456 0.247440
vt 0.906678 0.218662
vt 0.877900 0.247440
vt 0.877900 0.189883
vt 0.935456 0.247440
vt 0.935456 0.189883
vt 0.906678 0.218662
vt 0.877900 0.189883
vt 0.935456 0.189883
vt 0.877900 0.247440
vt 0.935456 0.247440
vt 0.877900 0.247440
vt 0.906678 0.218662
vt 0.877900 0.189883
vt 0.935456 0.247440
vt 0.935456 0.189883
vt 0.935456 0.189883
vt 0.906678 0.218662
vt 0.935456 0.247440
vt 0.877900 0.189883
vt 0.877900 0.247440
vt 0.906678 0.218662
vt 0.877900 0.189883
vt 0.935456 0.189883
vt 0.877900 0.247440
vt 0.935456 0.247440
vt 0.906678 0.218662
vt 0.935456 0.247440
vt 0.877900 0.247440
vt 0.935456 0.189883
vt 0.877900 0.189883
vt 0.935456 0.247440
vt 0.906678 0.218662
vt 0.877900 0.247440
vt 0.935456 0.189883
vt 0.877900 0.189883
vt 0.906678 0.218662
vt 0.935456 0.247440
vt 0.935456 0.189883
vt 0.877900 0.247440
vt 0.877900 0.189883
vt 0.935456 0.247440
vt 0.906678 0.218662
vt 0.877900 0.247440
vt 0.935456 0.189883
vt 0.877900 0.189883
vt 0.877900 0.247440
vt 0.935456 0.247440
vt 0.906678 0.218661
vt 0.935456 0.189883
vt 0.877900 0.189883
vt 0.935456 0.189883
vt 0.906678 0.218661
vt 0.877900 0.189883
vt 0.935456 0.247440
vt 0.877900 0.247440
vt 0.906678 0.218661
vt 0.935456 0.247440
vt 0.877899 0.247440
vt 0.935456 0.189883
vt 0.877899 0.189883
vt 0.935456 0.247440
vt 0.906678 0.218661
vt 0.877899 0.247440
vt 0.935456 0.189883
vt 0.877899 0.189883
vt 0.935456 0.189883
vt 0.906678 0.218661
vt 0.877899 0.189883
vt 0.935456 0.247440
vt 0.877899 0.247440
vt 0.935456 0.247440
vt 0.906678 0.218662
vt 0.935456 0.189883
vt 0.877900 0.247440
vt 0.877900 0.189883
vt 0.935456 0.189883
vt 0.906678 0.218662
vt 0.877900 0.189883
vt 0.935456 0.247440
vt 0.877900 0.247440
vt 0.906678 0.218661
vt 0.877899 0.189883
vt 0.877899 0.247440
vt 0.935456 0.189883
vt 0.935456 0.247440
vt 0.906678 0.218662
vt 0.877900 0.247440
vt 0.935456 0.247440
vt 0.877900 0.189883
vt 0.935456 0.189883
vt 0.906678 0.218662
vt 0.877900 0.247440
vt 0.935456 0.247440
vt 0.877900 0.189883
vt 0.935456 0.189883
vt 0.038723 0.532863
vt 0.038723 0.963230
vt 0.072699 0.940579
vt 0.061374 0.963230
vt 0.072699 0.555514
vt 0.061374 0.532863
vt 0.469090 0.532863
vt 0.446439 0.532863
vt 0.446439 0.963230
vt 0.038723 0.555514
vt 0.435113 0.524936
vt 0.270850 0.465856
vt 0.059109 0.524936
vt 0.027397 0.532863
vt 0.027397 0.929254
vt 0.030795 0.553249
vt 0.468544 0.268163
vt 0.469090 0.940579
vt 0.061374 0.929254
vt 0.469090 0.532863
vt 0.469090 0.963230
vt 0.435113 0.940579
vt 0.446439 0.963230
vt 0.435113 0.555514
vt 0.446439 0.532863
vt 0.038723 0.532863
vt 0.061374 0.532863
vt 0.061374 0.963230
vt 0.480415 0.940579
vt 0.446439 0.929254
vt 0.061374 0.929254
vt 0.038723 0.940579
vt 0.038723 0.974556
vt 0.435113 0.974556
vt 0.038723 0.974556
vt 0.030795 0.929254
vt 0.468544 0.473002
vt 0.255964 0.470322
vt 0.270850 0.465856
vt 0.435113 0.521538
vt 0.480415 0.929254
vt 0.473010 0.259231
vt 0.484621 0.470322
vt 0.477017 0.942844
vt 0.480415 0.929254
vt 0.473010 0.481934
vt 0.484621 0.470322
vt 0.435113 0.974556
vt 0.448704 0.971158
vn 0.0000 -0.7926 0.6097
vn -0.6097 -0.7926 0.0000
vn 0.0000 -0.7926 -0.6097
vn 0.6097 -0.7926 0.0000
vn 0.0000 1.0000 0.0000
vn 0.0000 0.7071 0.7071
vn -0.5774 0.5774 0.5774
vn -0.7071 0.7071 0.0000
vn -1.0000 0.0000 0.0000
vn -0.7071 0.0000 0.7071
vn -0.5773 -0.5774 0.5774
vn -0.7071 -0.7071 -0.0000
vn -0.5774 -0.5774 -0.5774
vn -0.7071 0.0000 -0.7071
vn -0.3806 0.8611 -0.3370
vn -0.3590 0.8615 -0.3590
vn -0.4019 0.8599 -0.3147
vn -0.4286 0.8571 -0.2857
vn -0.8320 0.0000 -0.5547
vn -0.0000 0.0000 -1.0000
vn -0.4286 -0.8571 -0.2857
vn -0.3147 -0.8599 -0.4019
vn -0.3590 -0.8615 -0.3590
vn -0.3590 -0.8616 -0.3590
vn -0.2857 -0.8571 -0.4286
vn -0.5547 0.0000 -0.8320
vn -0.5547 0.0000 -0.8321
vn -0.2857 0.8571 -0.4286
vn -0.5774 0.5774 -0.5773
vn 0.0000 0.7071 -0.7071
vn 0.7071 0.0000 -0.7071
vn 1.0000 0.0000 0.0000
vn 0.7071 0.0000 0.7071
vn 0.0000 -0.0000 1.0000
vn -0.3590 -0.8615 0.3590
vn -0.3370 -0.8611 0.3806
vn -0.3147 -0.8599 0.4019
vn -0.4286 -0.8571 0.2857
vn -0.8321 -0.0000 0.5547
vn -0.4019 0.8599 0.3147
vn -0.4286 0.8571 0.2857
vn -0.3590 0.8616 0.3590
vn -0.2857 0.8571 0.4286
vn -0.5547 -0.0000 0.8321
vn -0.5547 -0.0000 0.8320
vn -0.2857 -0.8571 0.4286
vn 0.0000 -0.7071 0.7071
vn 0.0000 -1.0000 -0.0000
vn 0.0000 -0.7071 -0.7071
vn 0.5774 -0.5773 -0.5774
vn 0.3806 0.8611 -0.3370
vn 0.3590 0.8615 -0.3590
vn 0.4019 0.8599 -0.3147
vn 0.4286 0.8571 -0.2857
vn 0.8320 0.0000 -0.5547
vn 0.4286 -0.8571 -0.2857
vn 0.3370 -0.8611 -0.3806
vn 0.3590 -0.8615 -0.3590
vn 0.3147 -0.8599 -0.4019
vn 0.2857 -0.8571 -0.4286
vn 0.5547 0.0000 -0.8320
vn 0.2857 0.8571 -0.4286
vn 0.7071 -0.7071 -0.0000
vn 0.5773 -0.5773 0.5774
vn 0.3590 0.8616 0.3590
vn 0.4019 0.8599 0.3147
vn 0.3806 0.8611 0.3370
vn 0.2857 0.8571 0.4286
vn 0.5547 -0.0000 0.8320
vn 0.5547 -0.0000 0.8321
vn 0.2857 -0.8571 0.4286
vn 0.3147 -0.8599 0.4019
vn 0.8321 -0.0000 0.5547
vn 0.4286 -0.8571 0.2857
vn 0.3590 -0.8615 0.3590
vn 0.3370 -0.8611 0.3806
vn 0.4286 0.8571 0.2857
vn 0.5774 0.5773 0.5774
vn 0.7071 0.7071 0.0000
vn 0.5774 0.5773 -0.5773
vn 0.0000 0.7926 0.6097
vn -0.6097 0.7926 0.0000
vn 0.0000 0.7926 -0.6097
vn 0.6097 0.7926 0.0000
vn -0.7926 0.6097 0.0000
vn -0.7926 -0.0000 -0.6097
vn -0.7926 -0.6097 -0.0000
vn -0.7926 0.0000 0.6097
vn 0.7926 0.0000 0.6097
vn 0.7926 -0.6097 -0.0000
vn 0.7926 0.0000 -0.6097
vn 0.7926 0.6097 0.0000
vn 0.0000 -0.6097 0.7926
vn -0.6097 0.0000 0.7926
vn 0.0000 0.6097 0.7926
vn 0.6097 0.0000 0.7926
vn 0.6097 0.0000 -0.7926
vn 0.0000 -0.6097 -0.7926
vn -0.6097 0.0000 -0.7926
vn 0.0000 0.6097 -0.7926
vn -0.3370 -0.8611 -0.3806
vn -0.3806 0.8611 0.3370
usemtl Color_M03
s 1
f 1/1/1 2/2/1 3/3/1
f 4/4/2 2/2/2 1/1/2
f 5/5/3 2/2/3 4/4/3
f 2/2/4 5/5/4 3/3/4
f 7/6/5 9/7/5 6/8/5
f 6/9/6 11/10/6 7/11/6
f 6/9/7 12/12/7 10/13/7
f 12/12/8 9/7/8 13/14/8
f 17/15/9 12/16/9 20/17/9
f 14/18/10 25/19/10 15/20/10
f 14/18/11 26/21/11 24/22/11
f 23/23/12 26/24/12 14/25/12
f 27/26/13 23/23/13 28/27/13
f 22/28/14 28/27/14 23/23/14
f 29/29/15 31/30/16 30/31/17
f 32/32/18 30/31/17 33/33/18
f 33/34/19 35/35/19 32/36/19
f 36/37/20 33/38/20 30/39/20
f 35/40/21 36/41/21 37/42/21
f 38/43/22 37/42/23 36/41/24
f 20/44/25 38/43/22 39/45/25
f 21/46/26 39/47/27 40/48/26
f 21/49/28 31/30/28 22/50/28
f 40/51/9 38/52/9 31/53/9
f 38/54/14 30/39/14 31/55/14
f 13/56/14 37/57/14 19/58/14
f 13/56/29 9/59/29 41/60/29
f 41/60/30 8/61/30 42/62/30
f 32/63/20 44/64/20 45/65/20
f 49/66/31 42/62/31 48/67/31
f 53/68/32 55/69/32 58/70/32
f 60/71/33 50/72/33 11/10/33
f 63/73/34 64/74/34 66/75/34
f 18/76/10 10/13/10 12/12/10
f 68/77/35 18/78/36 69/79/37
f 62/80/38 68/77/38 70/81/38
f 63/82/39 70/83/39 71/84/39
f 72/85/40 63/86/41 71/87/41
f 15/88/42 72/85/40 73/89/42
f 16/90/43 73/89/43 74/91/43
f 74/92/44 17/93/45 16/94/44
f 69/95/9 74/96/9 73/97/9
f 69/79/37 17/98/46 75/99/46
f 68/100/10 73/101/10 72/102/10
f 71/103/34 68/100/34 72/102/34
f 76/104/47 24/22/47 26/21/47
f 77/105/48 26/24/48 27/106/48
f 47/107/49 27/26/49 28/27/49
f 47/107/50 56/108/50 77/109/50
f 56/108/31 46/110/31 57/111/31
f 46/112/51 79/113/52 57/114/52
f 78/115/53 45/116/54 80/117/54
f 45/118/55 81/119/55 80/120/55
f 44/121/56 82/122/56 81/123/56
f 49/124/57 82/122/58 43/125/58
f 83/126/59 59/127/60 84/128/60
f 84/129/61 58/130/61 85/131/61
f 79/132/32 84/133/32 85/134/32
f 78/135/31 83/136/31 79/137/31
f 81/138/20 78/135/20 80/139/20
f 58/140/62 79/113/62 85/141/62
f 77/105/63 55/142/63 76/143/63
f 55/144/64 64/74/64 76/104/64
f 64/74/33 54/145/33 65/146/33
f 54/147/65 87/148/66 65/149/67
f 53/150/68 86/151/68 54/147/68
f 53/152/69 89/153/70 88/154/69
f 52/155/71 90/156/72 89/157/71
f 89/158/32 86/159/32 88/160/32
f 86/159/33 91/161/33 87/162/33
f 87/163/34 93/164/34 92/165/34
f 93/166/73 66/167/73 92/168/73
f 67/169/74 91/170/74 60/171/74
f 91/170/75 51/172/76 60/171/75
f 66/173/77 87/148/66 92/174/77
f 11/10/78 50/72/78 7/11/78
f 7/6/79 48/175/79 8/176/79
f 48/67/80 42/62/80 8/61/80
f 94/177/81 95/178/81 96/179/81
f 94/177/82 97/180/82 95/178/82
f 94/177/83 98/181/83 97/180/83
f 98/181/84 94/177/84 96/179/84
f 99/182/85 100/183/85 101/184/85
f 100/183/86 99/182/86 102/185/86
f 100/183/87 102/185/87 103/186/87
f 103/186/88 101/184/88 100/183/88
f 104/187/89 105/188/89 106/189/89
f 107/190/90 105/188/90 104/187/90
f 105/188/91 107/190/91 108/191/91
f 105/188/92 108/191/92 106/189/92
f 109/192/93 110/193/93 111/194/93
f 110/193/94 109/192/94 112/195/94
f 112/195/95 109/192/95 113/196/95
f 109/192/96 111/194/96 113/196/96
f 114/197/2 115/198/2 116/199/2
f 114/197/1 117/200/1 115/198/1
f 117/200/4 114/197/4 118/201/4
f 114/197/3 116/199/3 118/201/3
f 119/202/93 120/203/93 121/204/93
f 119/202/94 122/205/94 120/203/94
f 122/205/95 119/202/95 123/206/95
f 123/206/96 119/202/96 121/204/96
f 124/207/87 125/208/87 126/209/87
f 127/210/88 125/208/88 124/207/88
f 125/208/85 127/210/85 128/211/85
f 128/211/86 126/209/86 125/208/86
f 129/212/97 130/213/97 131/214/97
f 130/213/98 129/212/98 132/215/98
f 130/213/99 132/215/99 133/216/99
f 131/214/100 130/213/100 133/216/100
f 134/217/91 135/218/91 136/219/91
f 134/217/90 137/220/90 135/218/90
f 137/220/89 134/217/89 138/221/89
f 138/221/92 134/217/92 136/219/92
f 139/222/89 140/223/89 141/224/89
f 140/223/92 139/222/92 142/225/92
f 142/225/91 139/222/91 143/226/91
f 139/222/90 141/224/90 143/226/90
f 144/227/100 145/228/100 146/229/100
f 145/228/97 144/227/97 147/230/97
f 145/228/98 147/230/98 148/231/98
f 146/229/99 145/228/99 148/231/99
f 149/232/85 150/233/85 151/234/85
f 149/232/88 152/235/88 150/233/88
f 152/235/87 149/232/87 153/236/87
f 151/234/86 153/236/86 149/232/86
f 154/237/81 155/238/81 156/239/81
f 155/238/84 154/237/84 157/240/84
f 158/241/83 155/238/83 157/240/83
f 156/239/82 155/238/82 158/241/82
f 159/242/88 160/243/88 161/244/88
f 162/245/85 161/244/85 160/243/85
f 163/246/86 161/244/86 162/245/86
f 161/244/87 163/246/87 159/242/87
f 164/247/91 165/248/91 166/249/91
f 165/248/92 164/247/92 167/250/92
f 165/248/89 167/250/89 168/251/89
f 166/249/90 165/248/90 168/251/90
f 169/252/1 170/253/1 171/254/1
f 169/252/4 172/255/4 170/253/4
f 169/252/3 173/256/3 172/255/3
f 173/256/2 169/252/2 171/254/2
f 174/257/81 175/258/81 176/259/81
f 177/260/84 175/258/84 174/257/84
f 178/261/83 175/258/83 177/260/83
f 175/258/82 178/261/82 176/259/82
f 179/262/93 180/263/93 181/264/93
f 180/263/96 179/262/96 182/265/96
f 180/263/95 182/265/95 183/266/95
f 181/264/94 180/263/94 183/266/94
f 184/267/4 185/268/4 186/269/4
f 187/270/1 185/268/1 184/267/1
f 185/268/2 187/270/2 188/271/2
f 186/269/3 185/268/3 188/271/3
f 189/272/93 190/273/93 191/274/93
f 192/275/96 190/273/96 189/272/96
f 190/273/95 192/275/95 193/276/95
f 190/273/94 193/276/94 191/274/94
f 194/277/99 195/278/99 196/279/99
f 195/278/98 194/277/98 197/280/98
f 197/280/97 194/277/97 198/281/97
f 194/277/100 196/279/100 198/281/100
f 199/282/100 200/283/100 201/284/100
f 200/283/99 199/282/99 202/285/99
f 202/285/98 199/282/98 203/286/98
f 199/282/97 201/284/97 203/286/97
f 204/287/81 205/288/81 206/289/81
f 205/288/82 204/287/82 207/290/82
f 204/287/83 208/291/83 207/290/83
f 204/287/84 206/289/84 208/291/84
f 7/6/5 8/176/5 9/7/5
f 6/9/6 10/13/6 11/10/6
f 12/12/8 6/8/8 9/7/8
f 23/292/9 14/293/9 16/294/9
f 14/293/9 15/295/9 16/294/9
f 21/296/9 22/297/9 23/292/9
f 13/298/9 19/299/9 20/17/9
f 21/296/9 23/292/9 16/294/9
f 12/16/9 13/298/9 20/17/9
f 20/17/9 21/296/9 16/294/9
f 17/15/9 18/300/9 12/16/9
f 20/17/9 16/294/9 17/15/9
f 14/18/10 24/22/10 25/19/10
f 23/23/12 27/106/12 26/24/12
f 22/28/14 29/301/14 28/27/14
f 29/29/15 22/50/16 31/30/16
f 32/32/18 29/29/15 30/31/17
f 33/34/19 34/302/19 35/35/19
f 36/37/20 34/303/20 33/38/20
f 35/40/21 34/304/21 36/41/21
f 38/43/22 19/305/101 37/42/23
f 20/44/25 19/305/101 38/43/22
f 21/46/26 20/306/27 39/47/27
f 21/49/28 40/307/28 31/30/28
f 40/51/9 39/308/9 38/52/9
f 38/54/14 36/37/14 30/39/14
f 13/56/14 41/60/14 37/57/14
f 41/60/30 9/59/30 8/61/30
f 41/60/20 42/62/20 44/64/20
f 42/62/20 43/309/20 44/64/20
f 35/310/20 37/57/20 41/60/20
f 28/27/20 29/301/20 32/63/20
f 35/310/20 41/60/20 44/64/20
f 47/107/20 28/27/20 45/65/20
f 28/27/20 32/63/20 45/65/20
f 32/63/20 35/310/20 44/64/20
f 45/65/20 46/110/20 47/107/20
f 49/66/31 43/309/31 42/62/31
f 48/311/32 50/312/32 52/313/32
f 50/312/32 51/314/32 52/313/32
f 59/315/32 49/316/32 48/311/32
f 56/317/32 57/318/32 58/70/32
f 59/315/32 48/311/32 52/313/32
f 55/69/32 56/317/32 58/70/32
f 58/70/32 59/315/32 52/313/32
f 53/68/32 54/319/32 55/69/32
f 58/70/32 52/313/32 53/68/32
f 60/71/33 51/320/33 50/72/33
f 67/321/34 60/71/34 11/10/34
f 11/10/34 10/13/34 62/322/34
f 10/13/34 61/323/34 62/322/34
f 67/321/34 11/10/34 62/322/34
f 63/73/34 25/19/34 24/22/34
f 67/321/34 62/322/34 63/73/34
f 64/74/34 65/146/34 66/75/34
f 66/75/34 67/321/34 63/73/34
f 63/73/34 24/22/34 64/74/34
f 18/76/10 61/323/10 10/13/10
f 68/77/35 61/324/35 18/78/36
f 62/80/38 61/324/38 68/77/38
f 63/82/39 62/325/39 70/83/39
f 72/85/40 25/326/102 63/86/41
f 15/88/42 25/326/102 72/85/40
f 16/90/43 15/88/43 73/89/43
f 74/92/44 75/327/45 17/93/45
f 69/95/9 75/328/9 74/96/9
f 69/79/37 18/78/36 17/98/46
f 68/100/10 69/329/10 73/101/10
f 71/103/34 70/330/34 68/100/34
f 76/104/47 64/74/47 24/22/47
f 77/105/48 76/143/48 26/24/48
f 47/107/49 77/109/49 27/26/49
f 56/108/31 47/107/31 46/110/31
f 46/112/51 78/115/53 79/113/52
f 78/115/53 46/112/51 45/116/54
f 45/118/55 44/331/55 81/119/55
f 44/121/56 43/125/56 82/122/56
f 49/124/57 83/126/59 82/122/58
f 83/126/59 49/124/57 59/127/60
f 84/129/61 59/332/61 58/130/61
f 79/132/32 83/333/32 84/133/32
f 78/135/31 82/334/31 83/136/31
f 81/138/20 82/334/20 78/135/20
f 58/140/62 57/114/62 79/113/62
f 77/105/63 56/108/63 55/142/63
f 64/74/33 55/144/33 54/145/33
f 54/147/65 86/151/65 87/148/66
f 53/150/68 88/335/68 86/151/68
f 53/152/69 52/336/70 89/153/70
f 52/155/71 51/172/76 90/156/72
f 89/158/32 90/337/32 86/159/32
f 86/159/33 90/337/33 91/161/33
f 87/163/34 91/338/34 93/164/34
f 93/166/73 67/339/73 66/167/73
f 67/169/74 93/340/74 91/170/74
f 91/170/75 90/156/72 51/172/76
f 66/173/77 65/149/67 87/148/66
f 7/6/79 50/72/79 48/175/79
