# Blender v2.82 (sub 7) OBJ File: 'DLBasic22Block.blend'
# www.blender.org
mtllib DarkLightStandardWideTwoBlock.mtl
o DarkLightBrudger5
v -0.500000 0.449999 -0.450000
v -0.500000 0.449999 1.450000
v -0.450000 0.499999 1.450000
v -0.450000 0.499999 -0.450000
v -0.500000 -0.450001 1.450000
v -0.500000 -0.350001 1.450000
v -0.500000 -0.300001 1.350000
v -0.500000 0.299999 1.350000
v -0.500000 0.349999 1.450000
v -0.500000 0.349999 -0.450000
v -0.500000 0.300000 -0.350000
v -0.500000 -0.300000 -0.350000
v -0.500000 -0.350001 -0.450000
v -0.500000 -0.450001 -0.450000
v -0.450000 -0.450001 1.500000
v -0.450000 -0.350001 1.500000
v -0.450000 -0.500001 1.450000
v -0.450000 -0.500000 -0.450000
v -0.450000 -0.450000 -0.500000
v -0.450000 -0.350000 -0.500000
v -0.435000 -0.337500 -0.485000
v -0.485000 -0.337501 -0.435000
v -0.350000 -0.300000 -0.500000
v -0.360000 -0.300000 -0.485000
v -0.360000 0.300000 -0.485000
v -0.350000 0.300000 -0.500000
v -0.435000 0.337499 -0.485000
v -0.450000 0.350000 -0.500000
v -0.485000 0.337499 -0.435000
v -0.485000 0.300000 -0.360000
v -0.485000 -0.300000 -0.360000
v -0.450000 0.449999 -0.500000
v 1.450000 0.449999 -0.500000
v 1.450000 0.499999 -0.450000
v 1.450000 0.350000 -0.500000
v 1.350000 0.300000 -0.500000
v 1.350000 -0.300000 -0.500000
v 1.450000 -0.350000 -0.500000
v 1.450000 -0.450000 -0.500000
v 1.500000 0.449999 -0.450000
v 1.500000 0.349999 -0.450000
v 1.500000 0.449999 1.450000
v 1.500000 0.349999 1.450000
v 1.500000 0.299999 1.350000
v 1.500000 -0.300001 1.350000
v 1.500000 -0.350001 1.450000
v 1.500000 -0.450001 1.450000
v 1.500000 -0.450001 -0.450000
v 1.500000 -0.350001 -0.450000
v 1.500000 -0.300000 -0.350000
v 1.500000 0.300000 -0.350000
v 1.450000 0.449999 1.500000
v 1.450000 0.349999 1.500000
v -0.450000 0.449999 1.500000
v -0.450000 0.349999 1.500000
v -0.350000 0.299999 1.500000
v -0.350000 -0.300001 1.500000
v 1.450000 -0.450001 1.500000
v 1.450000 -0.350001 1.500000
v 1.350000 -0.300001 1.500000
v 1.350000 0.299999 1.500000
v 1.450000 0.499999 1.450000
v -0.435000 0.337499 1.485000
v -0.485000 0.337499 1.435000
v -0.360000 0.299999 1.485000
v -0.360000 -0.300001 1.485000
v -0.435000 -0.337501 1.485000
v -0.485000 -0.337501 1.435000
v -0.485000 -0.300001 1.360000
v -0.485000 0.299999 1.360000
v 1.450000 -0.500001 1.450000
v 1.450000 -0.500000 -0.450000
v 1.435000 -0.337500 -0.485000
v 1.485000 -0.337501 -0.435000
v 1.360000 -0.300000 -0.485000
v 1.360000 0.300000 -0.485000
v 1.435000 0.337499 -0.485000
v 1.485000 0.337499 -0.435000
v 1.485000 0.300000 -0.360000
v 1.485000 -0.300000 -0.360000
v 1.485000 -0.337501 1.435000
v 1.435000 -0.337501 1.485000
v 1.485000 -0.300001 1.360000
v 1.485000 0.299999 1.360000
v 1.485000 0.337499 1.435000
v 1.435000 0.337499 1.485000
v 1.360000 -0.300001 1.485000
v 1.360000 0.299999 1.485000
v -0.130000 0.130000 1.500000
v 0.000000 -0.000000 1.600000
v 0.130000 0.130000 1.500000
v -0.130000 -0.130000 1.500000
v 0.130000 -0.130000 1.500000
v 0.130000 0.500001 -0.130000
v 0.000000 0.600001 0.000000
v 0.130000 0.500001 0.130000
v -0.130000 0.500001 -0.130000
v -0.130000 0.500001 0.130000
v -0.500000 0.130000 1.130000
v -0.600000 -0.000000 1.000000
v -0.500000 -0.130000 1.130000
v -0.500000 0.130000 0.870000
v -0.500000 -0.130000 0.870000
v 0.130000 0.500000 1.130000
v 0.000000 0.600000 1.000000
v -0.130000 0.500000 1.130000
v 0.130000 0.500000 0.870000
v -0.130000 0.500000 0.870000
v 0.130000 0.130001 -0.500000
v 0.000000 0.000001 -0.600000
v -0.130000 0.130001 -0.500000
v 0.130000 -0.129999 -0.500000
v -0.130000 -0.129999 -0.500000
v 0.130000 -0.500000 1.130000
v 0.000000 -0.600000 1.000000
v 0.130000 -0.500000 0.870000
v -0.130000 -0.500000 1.130000
v -0.130000 -0.500000 0.870000
v 0.130000 -0.499999 -0.130000
v 0.000000 -0.599999 -0.000000
v -0.130000 -0.499999 -0.130000
v 0.130000 -0.499999 0.130000
v -0.130000 -0.499999 0.130000
v -0.500000 0.130001 -0.130000
v -0.600000 0.000001 0.000000
v -0.500000 0.130001 0.130000
v -0.500000 -0.129999 -0.130000
v -0.500000 -0.129999 0.130000
v 0.870000 0.130000 1.500000
v 1.000000 -0.000000 1.600000
v 1.130000 0.130000 1.500000
v 0.870000 -0.130000 1.500000
v 1.130000 -0.130000 1.500000
v 1.130000 0.500001 -0.130000
v 1.000000 0.600001 0.000000
v 1.130000 0.500001 0.130000
v 0.870000 0.500001 -0.130000
v 0.870000 0.500001 0.130000
v 1.130000 0.500000 1.130000
v 1.000000 0.600000 1.000000
v 0.870000 0.500000 1.130000
v 1.130000 0.500000 0.870000
v 0.870000 0.500000 0.870000
v 1.130000 0.130001 -0.500000
v 1.000000 0.000001 -0.600000
v 0.870000 0.130001 -0.500000
v 1.130000 -0.129999 -0.500000
v 0.870000 -0.129999 -0.500000
v 1.500000 0.130000 1.130000
v 1.600000 -0.000000 1.000000
v 1.500000 0.130000 0.870000
v 1.500000 -0.130000 1.130000
v 1.500000 -0.130000 0.870000
v 1.130000 -0.500000 1.130000
v 1.000000 -0.600000 1.000000
v 1.130000 -0.500000 0.870000
v 0.870000 -0.500000 1.130000
v 0.870000 -0.500000 0.870000
v 1.500000 -0.129999 -0.130000
v 1.600000 0.000001 0.000000
v 1.500000 -0.129999 0.130000
v 1.500000 0.130001 -0.130000
v 1.500000 0.130001 0.130000
v 1.130000 -0.499999 -0.130000
v 1.000000 -0.599999 -0.000000
v 0.870000 -0.499999 -0.130000
v 1.130000 -0.499999 0.130000
v 0.870000 -0.499999 0.130000
vt 0.040806 0.942667
vt 0.051132 0.550295
vt 0.040806 0.550295
vt 0.309272 0.922016
vt 0.340248 0.942667
vt 0.309272 0.570946
vt 0.040806 0.653551
vt 0.051132 0.674202
vt 0.040806 0.674202
vt 0.051132 0.643225
vt 0.051132 0.653551
vt 0.040806 0.550295
vt 0.051132 0.942667
vt 0.040806 0.942667
vt 0.051132 0.643225
vt 0.040806 0.653551
vt 0.051132 0.653551
vt 0.040806 0.674202
vt 0.051132 0.539970
vt 0.043904 0.553393
vt 0.054230 0.543067
vt 0.071783 0.539970
vt 0.069718 0.543067
vt 0.185365 0.543067
vt 0.309272 0.539970
vt 0.185365 0.539970
vt 0.259745 0.412640
vt 0.269000 0.333979
vt 0.259745 0.329352
vt 0.071783 0.539970
vt 0.054230 0.543067
vt 0.051132 0.539970
vt 0.043904 0.553393
vt 0.040806 0.570946
vt 0.043904 0.568881
vt 0.040806 0.684528
vt 0.043904 0.808435
vt 0.043904 0.684528
vt 0.040806 0.570946
vt 0.040806 0.550295
vt 0.338098 0.264881
vt 0.416760 0.255626
vt 0.333471 0.255626
vt 0.253576 0.412640
vt 0.253576 0.329352
vt 0.040806 0.839411
vt 0.051132 0.818760
vt 0.040806 0.818760
vt 0.051132 0.849737
vt 0.051132 0.839411
vt 0.443504 0.849737
vt 0.443504 0.839411
vt 0.422853 0.684528
vt 0.443504 0.653551
vt 0.071783 0.684528
vt 0.453830 0.818760
vt 0.453830 0.839411
vt 0.185365 0.922016
vt 0.154388 0.942667
vt 0.185365 0.570946
vt 0.443504 0.818760
vt 0.453830 0.839411
vt 0.443504 0.839411
vt 0.071783 0.684528
vt 0.443504 0.653551
vt 0.422853 0.684528
vt 0.051132 0.849737
vt 0.443504 0.849737
vt 0.443504 0.942667
vt 0.051132 0.942667
vt 0.453830 0.550295
vt 0.443504 0.550295
vt 0.040806 0.839411
vt 0.051132 0.839411
vt 0.040806 0.818760
vt 0.051132 0.952993
vt 0.043904 0.939570
vt 0.054230 0.949895
vt 0.071783 0.952993
vt 0.069718 0.949895
vt 0.185365 0.952993
vt 0.309272 0.949895
vt 0.185365 0.949895
vt 0.054230 0.949895
vt 0.071783 0.952993
vt 0.069718 0.949895
vt 0.043904 0.939570
vt 0.051132 0.952993
vt 0.040806 0.922016
vt 0.043904 0.924081
vt 0.043904 0.684528
vt 0.040806 0.808435
vt 0.040806 0.684528
vt 0.416760 0.486366
vt 0.338098 0.477112
vt 0.333471 0.486366
vt 0.040806 0.922016
vt 0.043904 0.924081
vt 0.416760 0.492536
vt 0.333471 0.492536
vt 0.269000 0.333979
vt 0.259745 0.412640
vt 0.259745 0.329352
vt 0.443504 0.643225
vt 0.443504 0.550295
vt 0.051132 0.550295
vt 0.453830 0.653551
vt 0.443504 0.643225
vt 0.443504 0.674202
vt 0.453830 0.674202
vt 0.443504 0.539970
vt 0.450732 0.553393
vt 0.453830 0.550295
vt 0.440406 0.543067
vt 0.422853 0.539970
vt 0.424918 0.543067
vt 0.185365 0.539970
vt 0.309272 0.543067
vt 0.185365 0.543067
vt 0.422853 0.539970
vt 0.440406 0.543067
vt 0.424918 0.543067
vt 0.450732 0.553393
vt 0.443504 0.539970
vt 0.453830 0.550295
vt 0.453830 0.570946
vt 0.450732 0.568881
vt 0.450732 0.808435
vt 0.453830 0.684528
vt 0.450732 0.684528
vt 0.338098 0.264881
vt 0.416760 0.255626
vt 0.412132 0.264881
vt 0.496655 0.329352
vt 0.490485 0.412640
vt 0.496655 0.412640
vt 0.481231 0.333979
vt 0.490485 0.329352
vt 0.453830 0.570946
vt 0.450732 0.568881
vt 0.453830 0.942667
vt 0.443504 0.942667
vt 0.453830 0.653551
vt 0.453830 0.674202
vt 0.443504 0.674202
vt 0.453830 0.942667
vt 0.440406 0.949895
vt 0.443504 0.952993
vt 0.453830 0.922016
vt 0.450732 0.939570
vt 0.453830 0.684528
vt 0.450732 0.808435
vt 0.450732 0.684528
vt 0.453830 0.922016
vt 0.450732 0.939570
vt 0.450732 0.924081
vt 0.338098 0.477112
vt 0.416760 0.486366
vt 0.333471 0.486366
vt 0.490485 0.329352
vt 0.496655 0.412640
vt 0.490485 0.412640
vt 0.481231 0.333979
vt 0.481231 0.408013
vt 0.309272 0.949895
vt 0.185365 0.952993
vt 0.185365 0.949895
vt 0.422853 0.952993
vt 0.440406 0.949895
vt 0.443504 0.952993
vt 0.453830 0.942667
vt 0.422853 0.952993
vt 0.424918 0.949895
vt 0.878241 0.247753
vt 0.906710 0.219284
vt 0.935179 0.247753
vt 0.878241 0.190815
vt 0.935179 0.190815
vt 0.935179 0.190815
vt 0.906710 0.219284
vt 0.935179 0.247753
vt 0.878241 0.190815
vt 0.878241 0.247753
vt 0.935179 0.247753
vt 0.906710 0.219284
vt 0.878241 0.247753
vt 0.935179 0.190815
vt 0.878241 0.190815
vt 0.935179 0.247753
vt 0.906710 0.219284
vt 0.878241 0.247753
vt 0.935179 0.190815
vt 0.878241 0.190815
vt 0.935179 0.247753
vt 0.906710 0.219284
vt 0.878241 0.247753
vt 0.935179 0.190815
vt 0.878241 0.190815
vt 0.935179 0.247753
vt 0.906710 0.219284
vt 0.935179 0.190815
vt 0.878241 0.247753
vt 0.878241 0.190815
vt 0.935179 0.190815
vt 0.906710 0.219284
vt 0.878241 0.190815
vt 0.935179 0.247753
vt 0.878241 0.247753
vt 0.935179 0.190815
vt 0.906710 0.219284
vt 0.935179 0.247753
vt 0.878241 0.190815
vt 0.878241 0.247753
vt 0.878241 0.247753
vt 0.906710 0.219284
vt 0.935179 0.247753
vt 0.878241 0.190815
vt 0.935179 0.190815
vt 0.935179 0.190815
vt 0.906710 0.219284
vt 0.935179 0.247753
vt 0.878241 0.190815
vt 0.878241 0.247753
vt 0.935179 0.247753
vt 0.906710 0.219284
vt 0.878241 0.247753
vt 0.935179 0.190815
vt 0.878241 0.190815
vt 0.935179 0.247753
vt 0.906710 0.219284
vt 0.878241 0.247753
vt 0.935179 0.190815
vt 0.878241 0.190815
vt 0.935179 0.247753
vt 0.906710 0.219284
vt 0.935179 0.190815
vt 0.878241 0.247753
vt 0.878241 0.190815
vt 0.935179 0.247753
vt 0.906710 0.219284
vt 0.935179 0.190815
vt 0.878241 0.247753
vt 0.878241 0.190815
vt 0.878241 0.190815
vt 0.906710 0.219284
vt 0.878241 0.247753
vt 0.935179 0.190815
vt 0.935179 0.247753
vt 0.935179 0.190815
vt 0.906710 0.219284
vt 0.878241 0.190815
vt 0.935179 0.247753
vt 0.878241 0.247753
vt 0.154388 0.550295
vt 0.154388 0.942667
vt 0.185365 0.922016
vt 0.175039 0.942667
vt 0.185365 0.570946
vt 0.175039 0.550295
vt 0.340248 0.550295
vt 0.319597 0.550295
vt 0.319597 0.942667
vt 0.051132 0.674202
vt 0.309272 0.543067
vt 0.269000 0.408013
vt 0.069718 0.543067
vt 0.040806 0.550295
vt 0.040806 0.808435
vt 0.043904 0.568881
vt 0.412132 0.264881
vt 0.422853 0.808435
vt 0.443504 0.818760
vt 0.071783 0.808435
vt 0.340248 0.550295
vt 0.340248 0.942667
vt 0.309272 0.922016
vt 0.319597 0.942667
vt 0.309272 0.570946
vt 0.319597 0.550295
vt 0.154388 0.550295
vt 0.175039 0.550295
vt 0.175039 0.942667
vt 0.453830 0.818760
vt 0.422853 0.808435
vt 0.071783 0.808435
vt 0.051132 0.818760
vt 0.453830 0.942667
vt 0.040806 0.942667
vt 0.309272 0.952993
vt 0.040806 0.942667
vt 0.043904 0.808435
vt 0.412132 0.477112
vt 0.269000 0.408013
vt 0.309272 0.539970
vt 0.453830 0.808435
vt 0.333471 0.255626
vt 0.481231 0.408013
vt 0.453830 0.550295
vt 0.450732 0.924081
vt 0.453830 0.808435
vt 0.412132 0.477112
vt 0.496655 0.329352
vt 0.309272 0.952993
vt 0.424918 0.949895
vn -0.7071 0.7071 0.0000
vn -1.0000 0.0000 0.0000
vn -0.7071 -0.0000 0.7071
vn -0.5773 -0.5774 0.5774
vn -0.7071 -0.7071 -0.0000
vn -0.5773 -0.5774 -0.5774
vn -0.7071 0.0000 -0.7071
vn -0.3806 0.8611 -0.3370
vn -0.3590 0.8615 -0.3590
vn -0.4019 0.8599 -0.3147
vn -0.4286 0.8571 -0.2857
vn -0.8320 0.0000 -0.5547
vn -0.0000 0.0000 -1.0000
vn -0.4286 -0.8571 -0.2857
vn -0.3147 -0.8599 -0.4019
vn -0.3590 -0.8615 -0.3590
vn -0.2857 -0.8571 -0.4286
vn -0.5547 0.0000 -0.8321
vn -0.2857 0.8571 -0.4286
vn -0.5773 0.5774 -0.5774
vn 0.0000 0.7071 -0.7071
vn 0.7071 0.0000 -0.7071
vn 1.0000 -0.0000 0.0000
vn 0.7071 -0.0000 0.7071
vn 0.0000 -0.0000 1.0000
vn 0.0000 0.7071 0.7071
vn 0.0000 1.0000 0.0000
vn 0.7071 0.7071 0.0000
vn 0.5774 0.5774 0.5773
vn 0.5774 0.5774 -0.5773
vn -0.5773 0.5774 0.5774
vn -0.3590 -0.8615 0.3590
vn -0.3147 -0.8599 0.4019
vn -0.4286 -0.8571 0.2857
vn -0.8321 -0.0000 0.5547
vn -0.4019 0.8599 0.3147
vn -0.4286 0.8571 0.2857
vn -0.3590 0.8616 0.3590
vn -0.3806 0.8611 0.3370
vn -0.2857 0.8571 0.4286
vn -0.5547 -0.0000 0.8320
vn -0.5547 -0.0000 0.8321
vn -0.2857 -0.8571 0.4286
vn 0.0000 -0.7071 0.7071
vn 0.0000 -1.0000 -0.0000
vn 0.0000 -0.7071 -0.7071
vn 0.5774 -0.5773 -0.5774
vn 0.3806 0.8611 -0.3370
vn 0.3590 0.8615 -0.3590
vn 0.4019 0.8599 -0.3147
vn 0.4286 0.8571 -0.2857
vn 0.8320 0.0000 -0.5547
vn 0.4286 -0.8571 -0.2857
vn 0.3147 -0.8599 -0.4019
vn 0.3590 -0.8615 -0.3590
vn 0.3370 -0.8611 -0.3806
vn 0.2857 -0.8571 -0.4286
vn 0.5547 0.0000 -0.8320
vn 0.2857 0.8571 -0.4286
vn 0.7071 -0.7071 -0.0000
vn 0.5774 -0.5774 0.5773
vn 0.3590 0.8615 0.3590
vn 0.4019 0.8599 0.3147
vn 0.3806 0.8611 0.3370
vn 0.2857 0.8571 0.4286
vn 0.5547 -0.0000 0.8321
vn 0.5547 -0.0000 0.8320
vn 0.2857 -0.8571 0.4286
vn 0.3147 -0.8599 0.4019
vn 0.8321 -0.0000 0.5547
vn 0.4286 -0.8571 0.2857
vn 0.3590 -0.8615 0.3590
vn 0.3370 -0.8611 0.3806
vn 0.4286 0.8571 0.2857
vn 0.0000 0.6097 0.7926
vn -0.6097 0.0000 0.7926
vn 0.0000 -0.6097 0.7926
vn 0.6097 0.0000 0.7926
vn 0.6097 0.7926 0.0000
vn 0.0000 0.7926 -0.6097
vn -0.6097 0.7926 0.0000
vn 0.0000 0.7926 0.6097
vn -0.7926 0.0000 0.6097
vn -0.7926 0.6097 0.0000
vn -0.7926 0.0000 -0.6097
vn -0.7926 -0.6097 -0.0000
vn 0.0000 0.6097 -0.7926
vn 0.6097 0.0000 -0.7926
vn 0.0000 -0.6097 -0.7926
vn -0.6097 0.0000 -0.7926
vn 0.6097 -0.7926 0.0000
vn 0.0000 -0.7926 0.6097
vn -0.6097 -0.7926 0.0000
vn 0.0000 -0.7926 -0.6097
vn 0.7926 0.6097 0.0000
vn 0.7926 0.0000 0.6097
vn 0.7926 -0.6097 -0.0000
vn 0.7926 0.0000 -0.6097
vn -0.3370 -0.8611 -0.3806
vn -0.3370 -0.8611 0.3806
usemtl Color_M03.001
s 1
f 2/1/1 4/2/1 1/3/1
f 8/4/2 2/5/2 11/6/2
f 5/7/3 16/8/3 6/9/3
f 5/7/4 17/10/4 15/11/4
f 14/12/5 17/13/5 5/14/5
f 18/15/6 14/16/6 19/17/6
f 13/18/7 19/17/7 14/16/7
f 20/19/8 22/20/9 21/21/10
f 23/22/11 21/21/10 24/23/11
f 24/24/12 26/25/12 23/26/12
f 27/27/13 24/28/13 21/29/13
f 26/30/14 27/31/14 28/32/14
f 29/33/15 28/32/16 27/31/16
f 11/34/17 29/33/15 30/35/17
f 12/36/18 30/37/18 31/38/18
f 12/39/19 22/20/19 13/40/19
f 31/41/2 29/42/2 22/43/2
f 29/44/7 21/29/7 22/45/7
f 1/46/7 28/47/7 10/48/7
f 1/46/20 4/49/20 32/50/20
f 32/50/21 34/51/21 33/52/21
f 37/53/13 39/54/13 23/55/13
f 41/56/22 33/52/22 40/57/22
f 45/58/23 47/59/23 50/60/23
f 53/61/24 42/62/24 52/63/24
f 57/64/25 58/65/25 60/66/25
f 3/67/26 52/63/26 62/68/26
f 62/69/27 4/2/27 3/70/27
f 62/69/28 40/71/28 34/72/28
f 52/63/29 42/62/29 62/68/29
f 40/57/30 33/52/30 34/51/30
f 3/67/31 2/73/31 54/74/31
f 9/75/3 54/74/3 2/73/3
f 55/76/32 64/77/33 63/78/32
f 56/79/34 63/78/34 65/80/34
f 57/81/35 65/82/35 66/83/35
f 67/84/36 57/85/37 66/86/37
f 68/87/38 16/88/39 67/84/36
f 7/89/40 68/87/40 69/90/40
f 69/91/41 8/92/42 7/93/41
f 64/94/2 69/95/2 68/96/2
f 64/77/33 8/97/43 70/98/43
f 63/99/3 68/96/3 67/100/3
f 66/101/25 63/102/25 67/103/25
f 71/104/44 15/11/44 17/10/44
f 72/105/45 17/13/45 18/106/45
f 39/54/46 18/15/46 19/17/46
f 39/54/47 48/107/47 72/108/47
f 48/107/22 38/109/22 49/110/22
f 38/111/48 74/112/49 49/113/49
f 73/114/50 37/115/51 75/116/51
f 37/117/52 76/118/52 75/119/52
f 36/120/53 77/121/53 76/122/53
f 78/123/54 35/124/55 41/125/56
f 78/123/54 51/126/57 79/127/57
f 79/128/58 50/129/58 80/130/58
f 80/131/23 78/132/23 79/133/23
f 74/134/22 77/135/22 78/136/22
f 75/137/13 77/135/13 73/138/13
f 50/139/59 74/112/59 80/140/59
f 72/105/60 47/141/60 71/142/60
f 47/143/61 58/65/61 71/104/61
f 58/65/24 46/144/24 59/145/24
f 46/146/62 82/147/63 59/148/64
f 45/149/65 81/150/65 46/146/65
f 45/151/66 84/152/67 83/153/66
f 44/154/68 85/155/69 84/156/68
f 83/157/23 85/158/23 81/159/23
f 82/160/24 85/161/24 86/162/24
f 87/163/25 86/162/25 88/164/25
f 88/165/70 60/166/70 87/167/70
f 61/168/71 86/169/71 53/170/71
f 86/169/72 43/171/73 53/170/72
f 60/172/74 82/147/63 87/173/74
f 89/174/75 90/175/75 91/176/75
f 92/177/76 90/175/76 89/174/76
f 90/175/77 92/177/77 93/178/77
f 90/175/78 93/178/78 91/176/78
f 94/179/79 95/180/79 96/181/79
f 95/180/80 94/179/80 97/182/80
f 95/180/81 97/182/81 98/183/81
f 95/180/82 98/183/82 96/181/82
f 99/184/83 100/185/83 101/186/83
f 100/185/84 99/184/84 102/187/84
f 102/187/85 103/188/85 100/185/85
f 101/186/86 100/185/86 103/188/86
f 104/189/82 105/190/82 106/191/82
f 105/190/79 104/189/79 107/192/79
f 108/193/80 105/190/80 107/192/80
f 106/191/81 105/190/81 108/193/81
f 109/194/87 110/195/87 111/196/87
f 112/197/88 110/195/88 109/194/88
f 110/195/89 112/197/89 113/198/89
f 110/195/90 113/198/90 111/196/90
f 114/199/91 115/200/91 116/201/91
f 115/200/92 114/199/92 117/202/92
f 115/200/93 117/202/93 118/203/93
f 115/200/94 118/203/94 116/201/94
f 119/204/94 120/205/94 121/206/94
f 120/205/91 119/204/91 122/207/91
f 123/208/92 120/205/92 122/207/92
f 121/206/93 120/205/93 123/208/93
f 124/209/84 125/210/84 126/211/84
f 125/210/85 124/209/85 127/212/85
f 125/210/86 127/212/86 128/213/86
f 128/213/83 126/211/83 125/210/83
f 129/214/75 130/215/75 131/216/75
f 132/217/76 130/215/76 129/214/76
f 130/215/77 132/217/77 133/218/77
f 130/215/78 133/218/78 131/216/78
f 134/219/79 135/220/79 136/221/79
f 135/220/80 134/219/80 137/222/80
f 135/220/81 137/222/81 138/223/81
f 135/220/82 138/223/82 136/221/82
f 139/224/82 140/225/82 141/226/82
f 140/225/79 139/224/79 142/227/79
f 143/228/80 140/225/80 142/227/80
f 141/226/81 140/225/81 143/228/81
f 144/229/87 145/230/87 146/231/87
f 147/232/88 145/230/88 144/229/88
f 145/230/89 147/232/89 148/233/89
f 145/230/90 148/233/90 146/231/90
f 149/234/95 150/235/95 151/236/95
f 152/237/96 150/235/96 149/234/96
f 150/235/97 152/237/97 153/238/97
f 150/235/98 153/238/98 151/236/98
f 154/239/91 155/240/91 156/241/91
f 155/240/92 154/239/92 157/242/92
f 155/240/93 157/242/93 158/243/93
f 155/240/94 158/243/94 156/241/94
f 159/244/97 160/245/97 161/246/97
f 160/245/98 159/244/98 162/247/98
f 160/245/95 162/247/95 163/248/95
f 161/246/96 160/245/96 163/248/96
f 164/249/94 165/250/94 166/251/94
f 165/250/91 164/249/91 167/252/91
f 168/253/92 165/250/92 167/252/92
f 166/251/93 165/250/93 168/253/93
f 2/1/1 3/70/1 4/2/1
f 14/254/2 5/255/2 7/256/2
f 5/255/2 6/257/2 7/256/2
f 12/258/2 13/259/2 14/254/2
f 1/260/2 10/261/2 11/6/2
f 12/258/2 14/254/2 7/256/2
f 2/5/2 1/260/2 11/6/2
f 11/6/2 12/258/2 7/256/2
f 8/4/2 9/262/2 2/5/2
f 11/6/2 7/256/2 8/4/2
f 5/7/3 15/11/3 16/8/3
f 14/12/5 18/106/5 17/13/5
f 13/18/7 20/263/7 19/17/7
f 20/19/8 13/40/9 22/20/9
f 23/22/11 20/19/8 21/21/10
f 24/24/12 25/264/12 26/25/12
f 27/27/13 25/265/13 24/28/13
f 26/30/14 25/266/14 27/31/14
f 29/33/15 10/267/99 28/32/16
f 11/34/17 10/267/99 29/33/15
f 12/36/18 11/268/18 30/37/18
f 12/39/19 31/269/19 22/20/19
f 31/41/2 30/270/2 29/42/2
f 29/44/7 27/27/7 21/29/7
f 1/46/7 32/50/7 28/47/7
f 32/50/21 4/49/21 34/51/21
f 32/50/13 33/52/13 36/271/13
f 33/52/13 35/272/13 36/271/13
f 26/273/13 28/47/13 32/50/13
f 19/17/13 20/263/13 23/55/13
f 26/273/13 32/50/13 36/271/13
f 39/54/13 19/17/13 23/55/13
f 23/55/13 26/273/13 36/271/13
f 37/53/13 38/109/13 39/54/13
f 23/55/13 36/271/13 37/53/13
f 41/56/22 35/272/22 33/52/22
f 40/274/23 42/275/23 44/276/23
f 42/275/23 43/277/23 44/276/23
f 51/278/23 41/279/23 40/274/23
f 48/280/23 49/281/23 50/60/23
f 51/278/23 40/274/23 44/276/23
f 47/59/23 48/280/23 50/60/23
f 50/60/23 51/278/23 45/58/23
f 51/278/23 44/276/23 45/58/23
f 45/58/23 46/282/23 47/59/23
f 53/61/24 43/283/24 42/62/24
f 61/284/25 53/61/25 52/63/25
f 52/63/25 54/74/25 56/285/25
f 54/74/25 55/286/25 56/285/25
f 61/284/25 52/63/25 56/285/25
f 57/64/25 16/8/25 15/11/25
f 61/284/25 56/285/25 57/64/25
f 58/65/25 59/145/25 60/66/25
f 60/66/25 61/284/25 57/64/25
f 57/64/25 15/11/25 58/65/25
f 3/67/26 54/74/26 52/63/26
f 62/69/27 34/72/27 4/2/27
f 62/69/28 42/287/28 40/71/28
f 9/75/3 55/286/3 54/74/3
f 55/76/32 9/288/100 64/77/33
f 56/79/34 55/76/34 63/78/34
f 57/81/35 56/289/35 65/82/35
f 67/84/36 16/88/39 57/85/37
f 68/87/38 6/290/38 16/88/39
f 7/89/40 6/290/40 68/87/40
f 69/91/41 70/291/42 8/92/42
f 64/94/2 70/292/2 69/95/2
f 64/77/33 9/288/100 8/97/43
f 63/99/3 64/94/3 68/96/3
f 66/101/25 65/293/25 63/102/25
f 71/104/44 58/65/44 15/11/44
f 72/105/45 71/142/45 17/13/45
f 39/54/46 72/108/46 18/15/46
f 48/107/22 39/54/22 38/109/22
f 38/111/48 73/114/50 74/112/49
f 73/114/50 38/111/48 37/115/51
f 37/117/52 36/294/52 76/118/52
f 36/120/53 35/124/53 77/121/53
f 78/123/54 77/121/55 35/124/55
f 78/123/54 41/125/56 51/126/57
f 79/128/58 51/295/58 50/129/58
f 80/131/23 74/296/23 78/132/23
f 74/134/22 73/138/22 77/135/22
f 75/137/13 76/297/13 77/135/13
f 50/139/59 49/113/59 74/112/59
f 72/105/60 48/298/60 47/141/60
f 58/65/24 47/143/24 46/144/24
f 46/146/62 81/150/62 82/147/63
f 45/149/65 83/299/65 81/150/65
f 45/151/66 44/300/67 84/152/67
f 44/154/68 43/171/73 85/155/69
f 83/157/23 84/301/23 85/158/23
f 82/160/24 81/302/24 85/161/24
f 87/163/25 82/160/25 86/162/25
f 88/165/70 61/303/70 60/166/70
f 61/168/71 88/304/71 86/169/71
f 86/169/72 85/155/69 43/171/73
f 60/172/74 59/148/64 82/147/63
