# Blender v2.82 (sub 7) OBJ File: 'DLblock3.blend'
# www.blender.org
mtllib DarkLightStandardThreeBlock.mtl
o DarkLightBrudger3
v -0.600000 -0.000000 0.000002
v -0.500000 -0.130000 -0.129998
v -0.500000 -0.130000 0.130002
v -0.500000 0.130000 -0.129998
v -0.500000 0.130000 0.130002
v 0.130000 0.500000 -0.129998
v -0.000000 0.600000 0.000002
v 0.130000 0.500000 0.130002
v -0.130000 0.500000 -0.129998
v -0.130000 0.500000 0.130002
v -0.500000 0.130000 1.130002
v -0.600000 -0.000000 1.000002
v -0.500000 -0.130000 1.130002
v -0.500000 0.130000 0.870002
v -0.500000 -0.130000 0.870002
v 0.130000 0.500000 1.130002
v -0.000000 0.600000 1.000002
v -0.130000 0.500000 1.130002
v 0.130000 0.500000 0.870002
v -0.130000 0.500000 0.870002
v 0.500000 0.130000 1.130002
v 0.600000 -0.000000 1.000002
v 0.500000 0.130000 0.870002
v 0.500000 -0.130000 1.130002
v 0.500000 -0.130000 0.870002
v -0.000000 -0.600000 1.000002
v 0.130000 -0.500000 1.130002
v -0.130000 -0.500000 1.130002
v 0.130000 -0.500000 0.870002
v -0.130000 -0.500000 0.870002
v 0.500000 -0.130000 -0.129998
v 0.600000 -0.000000 0.000002
v 0.500000 -0.130000 0.130002
v 0.500000 0.130000 -0.129998
v 0.500000 0.130000 0.130002
v 0.130000 -0.500000 -0.129998
v -0.000000 -0.600000 0.000002
v -0.130000 -0.500000 -0.129998
v 0.130000 -0.500000 0.130002
v -0.130000 -0.500000 0.130002
v -0.450000 0.499999 2.450002
v 0.450000 0.499999 2.450002
v 0.450000 0.500000 -0.449998
v -0.450000 0.500000 -0.449998
v -0.450000 0.449999 2.500002
v 0.450000 0.449999 2.500002
v -0.500000 0.449999 2.450002
v -0.500000 0.450000 -0.449998
v -0.500000 -0.450001 2.450002
v -0.500000 -0.350001 2.450002
v -0.500000 -0.300001 2.350002
v -0.500000 0.299999 2.350002
v -0.500000 0.349999 2.450002
v -0.500000 0.350000 -0.449998
v -0.500000 0.300000 -0.349998
v -0.500000 -0.300000 -0.349998
v -0.500000 -0.350000 -0.449998
v -0.500000 -0.450000 -0.449998
v -0.450000 -0.450001 2.500002
v -0.450000 -0.350001 2.500002
v -0.450000 -0.500001 2.450002
v -0.450000 -0.500000 -0.449998
v -0.450000 -0.450000 -0.499998
v -0.450000 -0.350000 -0.499998
v -0.435000 -0.337500 -0.484998
v -0.485000 -0.337500 -0.434998
v -0.350000 -0.300000 -0.499998
v -0.360000 -0.300000 -0.484998
v -0.360000 0.300000 -0.484998
v -0.350000 0.300000 -0.499998
v -0.435000 0.337500 -0.484998
v -0.450000 0.350000 -0.499998
v -0.485000 0.337500 -0.434998
v -0.485000 0.300000 -0.359998
v -0.485000 -0.300000 -0.359998
v -0.450000 0.450000 -0.499998
v 0.450000 0.450000 -0.499998
v 0.450000 0.350000 -0.499998
v 0.350000 0.300000 -0.499998
v 0.350000 -0.300000 -0.499998
v 0.450000 -0.350000 -0.499998
v 0.450000 -0.450000 -0.499998
v 0.500000 0.450000 -0.449998
v 0.500000 0.350000 -0.449998
v 0.500000 0.449999 2.450002
v 0.500000 0.349999 2.450002
v 0.500000 0.299999 2.350002
v 0.500000 -0.300001 2.350002
v 0.500000 -0.350001 2.450002
v 0.500000 -0.450001 2.450002
v 0.500000 -0.450000 -0.449998
v 0.500000 -0.350000 -0.449998
v 0.500000 -0.300000 -0.349998
v 0.500000 0.300000 -0.349998
v 0.450000 0.349999 2.500002
v -0.450000 0.349999 2.500002
v -0.350000 0.299999 2.500002
v -0.350000 -0.300001 2.500002
v 0.450000 -0.450001 2.500002
v 0.450000 -0.350001 2.500002
v 0.350000 -0.300001 2.500002
v 0.350000 0.299999 2.500002
v -0.435000 0.337499 2.485002
v -0.485000 0.337499 2.435002
v -0.360000 0.299999 2.485002
v -0.360000 -0.300001 2.485002
v -0.435000 -0.337501 2.485002
v -0.485000 -0.337501 2.435002
v -0.485000 -0.300001 2.360002
v -0.485000 0.299999 2.360002
v 0.450000 -0.500001 2.450002
v 0.450000 -0.500000 -0.449998
v 0.435000 -0.337500 -0.484998
v 0.485000 -0.337500 -0.434998
v 0.360000 -0.300000 -0.484998
v 0.360000 0.300000 -0.484998
v 0.435000 0.337500 -0.484998
v 0.485000 0.337500 -0.434998
v 0.485000 0.300000 -0.359998
v 0.485000 -0.300000 -0.359998
v 0.485000 -0.337501 2.435002
v 0.435000 -0.337501 2.485002
v 0.485000 -0.300001 2.360002
v 0.485000 0.299999 2.360002
v 0.485000 0.337499 2.435002
v 0.435000 0.337499 2.485002
v 0.360000 -0.300001 2.485002
v 0.360000 0.299999 2.485002
v -0.130000 0.129999 2.500002
v -0.000000 -0.000001 2.600002
v 0.130000 0.129999 2.500002
v -0.130000 -0.130001 2.500002
v 0.130000 -0.130001 2.500002
v 0.130000 0.130000 -0.499998
v -0.000000 -0.000000 -0.599998
v -0.130000 0.130000 -0.499998
v 0.130000 -0.130000 -0.499998
v -0.130000 -0.130000 -0.499998
v 0.500000 0.130000 2.130002
v 0.600000 -0.000000 2.000002
v 0.500000 0.130000 1.870002
v 0.500000 -0.130001 2.130002
v 0.500000 -0.130000 1.870002
v -0.130000 0.500000 1.870002
v -0.000000 0.600000 2.000002
v 0.130000 0.500000 1.870002
v -0.130000 0.500000 2.130002
v 0.130000 0.500000 2.130002
v -0.500000 0.130000 2.130002
v -0.600000 -0.000000 2.000002
v -0.500000 -0.130001 2.130002
v -0.500000 0.130000 1.870002
v -0.500000 -0.130000 1.870002
v 0.130000 -0.500000 2.130002
v -0.000000 -0.600001 2.000002
v 0.130000 -0.500000 1.870002
v -0.130000 -0.500000 2.130002
v -0.130000 -0.500000 1.870002
vt 0.906733 0.218698
vt 0.878149 0.190114
vt 0.878149 0.247282
vt 0.935317 0.190114
vt 0.935317 0.247282
vt 0.935317 0.190114
vt 0.906733 0.218698
vt 0.935317 0.247282
vt 0.878149 0.190114
vt 0.878149 0.247282
vt 0.935317 0.247282
vt 0.906733 0.218698
vt 0.878149 0.247282
vt 0.935317 0.190114
vt 0.878149 0.190114
vt 0.935317 0.247282
vt 0.906733 0.218698
vt 0.878149 0.247282
vt 0.935317 0.190114
vt 0.878149 0.190114
vt 0.935317 0.247282
vt 0.906733 0.218698
vt 0.935317 0.190114
vt 0.878149 0.247282
vt 0.878149 0.190114
vt 0.906733 0.218698
vt 0.935317 0.247282
vt 0.878149 0.247282
vt 0.935317 0.190114
vt 0.878149 0.190114
vt 0.878149 0.190114
vt 0.906733 0.218698
vt 0.878149 0.247282
vt 0.935317 0.190114
vt 0.935317 0.247282
vt 0.935317 0.190114
vt 0.906733 0.218698
vt 0.878149 0.190114
vt 0.935317 0.247282
vt 0.878149 0.247282
vt 0.323223 0.967495
vt 0.184589 0.520786
vt 0.184589 0.967495
vt 0.184589 0.821159
vt 0.323223 0.813458
vt 0.323223 0.821159
vt 0.176887 0.813458
vt 0.184589 0.813458
vt 0.323223 0.967495
vt 0.330925 0.520786
vt 0.323223 0.520786
vt 0.300118 0.952092
vt 0.300118 0.536190
vt 0.176887 0.674824
vt 0.184589 0.690227
vt 0.176887 0.690227
vt 0.184589 0.667122
vt 0.184589 0.674824
vt 0.176887 0.520786
vt 0.184589 0.967495
vt 0.176887 0.967495
vt 0.184589 0.667122
vt 0.176887 0.674824
vt 0.184589 0.674824
vt 0.176887 0.690227
vt 0.184589 0.513084
vt 0.179198 0.523096
vt 0.186900 0.515395
vt 0.199993 0.513084
vt 0.198453 0.515395
vt 0.207695 0.515395
vt 0.300118 0.513084
vt 0.207695 0.513084
vt 0.262658 0.439498
vt 0.273138 0.350423
vt 0.262658 0.345183
vt 0.199993 0.513084
vt 0.186900 0.515395
vt 0.184589 0.513084
vt 0.179198 0.523096
vt 0.176887 0.536190
vt 0.179198 0.534649
vt 0.176887 0.697929
vt 0.179198 0.790352
vt 0.179198 0.697929
vt 0.176887 0.536190
vt 0.176887 0.520786
vt 0.336274 0.268755
vt 0.425349 0.258276
vt 0.331034 0.258276
vt 0.255672 0.439498
vt 0.255672 0.345183
vt 0.176887 0.813458
vt 0.184589 0.798054
vt 0.176887 0.798054
vt 0.184589 0.821159
vt 0.184589 0.813458
vt 0.323223 0.821159
vt 0.323223 0.813458
vt 0.307819 0.697929
vt 0.323223 0.674824
vt 0.199993 0.697929
vt 0.330925 0.798054
vt 0.330925 0.813458
vt 0.207695 0.952092
vt 0.184589 0.967495
vt 0.207695 0.536190
vt 0.323223 0.798054
vt 0.330925 0.813458
vt 0.199993 0.697929
vt 0.323223 0.674824
vt 0.307819 0.697929
vt 0.176887 0.798054
vt 0.184589 0.975197
vt 0.179198 0.965185
vt 0.186900 0.972887
vt 0.199993 0.975197
vt 0.198453 0.972887
vt 0.207695 0.975197
vt 0.300118 0.972887
vt 0.207695 0.972887
vt 0.186900 0.972887
vt 0.199993 0.975197
vt 0.198453 0.972887
vt 0.176887 0.967495
vt 0.179198 0.965185
vt 0.176887 0.952092
vt 0.179198 0.953632
vt 0.179198 0.697929
vt 0.176887 0.790352
vt 0.176887 0.697929
vt 0.424118 0.491955
vt 0.335043 0.481476
vt 0.329803 0.491955
vt 0.176887 0.952092
vt 0.179198 0.953632
vt 0.262658 0.439498
vt 0.255672 0.345183
vt 0.262658 0.345183
vt 0.273138 0.350423
vt 0.323223 0.667122
vt 0.323223 0.520786
vt 0.184589 0.520786
vt 0.330925 0.674824
vt 0.323223 0.667122
vt 0.323223 0.690227
vt 0.330925 0.690227
vt 0.323223 0.513084
vt 0.328615 0.523096
vt 0.330925 0.520786
vt 0.320913 0.515395
vt 0.307819 0.513084
vt 0.309360 0.515395
vt 0.207695 0.513084
vt 0.300118 0.515395
vt 0.207695 0.515395
vt 0.307819 0.513084
vt 0.320913 0.515395
vt 0.309360 0.515395
vt 0.328615 0.523096
vt 0.323223 0.513084
vt 0.330925 0.520786
vt 0.330925 0.536190
vt 0.328615 0.534649
vt 0.328615 0.790352
vt 0.330925 0.697929
vt 0.328615 0.697929
vt 0.331034 0.258276
vt 0.420109 0.268755
vt 0.336274 0.268755
vt 0.487572 0.336571
vt 0.494559 0.430885
vt 0.494559 0.336571
vt 0.477093 0.425646
vt 0.477093 0.341810
vt 0.330925 0.536190
vt 0.328615 0.534649
vt 0.330925 0.967495
vt 0.323223 0.967495
vt 0.330925 0.674824
vt 0.330925 0.690227
vt 0.323223 0.690227
vt 0.328615 0.965185
vt 0.323223 0.975197
vt 0.330925 0.967495
vt 0.330925 0.952092
vt 0.330925 0.697929
vt 0.328615 0.790352
vt 0.328615 0.697929
vt 0.330925 0.952092
vt 0.328615 0.965185
vt 0.328615 0.953632
vt 0.418879 0.481476
vt 0.329803 0.491955
vt 0.335043 0.481476
vt 0.494559 0.336571
vt 0.487572 0.430885
vt 0.487572 0.336571
vt 0.477093 0.425646
vt 0.477093 0.341810
vt 0.300118 0.972887
vt 0.207695 0.975197
vt 0.207695 0.972887
vt 0.307819 0.975197
vt 0.320913 0.972887
vt 0.323223 0.975197
vt 0.330925 0.967495
vt 0.307819 0.975197
vt 0.320913 0.972887
vt 0.309360 0.972887
vt 0.330925 0.520786
vt 0.323223 0.520786
vt 0.878149 0.247282
vt 0.906733 0.218698
vt 0.935317 0.247282
vt 0.878149 0.190114
vt 0.935317 0.190114
vt 0.935317 0.247282
vt 0.906733 0.218698
vt 0.878149 0.247282
vt 0.935317 0.190114
vt 0.878149 0.190114
vt 0.935317 0.247282
vt 0.906733 0.218698
vt 0.935317 0.190114
vt 0.878149 0.247282
vt 0.878149 0.190114
vt 0.878149 0.190114
vt 0.906733 0.218698
vt 0.935317 0.190114
vt 0.878149 0.247282
vt 0.935317 0.247282
vt 0.935317 0.247282
vt 0.906733 0.218698
vt 0.878149 0.247282
vt 0.935317 0.190114
vt 0.878149 0.190114
vt 0.935317 0.247282
vt 0.906733 0.218698
vt 0.935317 0.190114
vt 0.878149 0.247282
vt 0.878149 0.190114
vt 0.330925 0.967495
vt 0.184589 0.520786
vt 0.184589 0.967495
vt 0.207695 0.952092
vt 0.199993 0.967495
vt 0.207695 0.536190
vt 0.199993 0.520786
vt 0.307819 0.520786
vt 0.307819 0.967495
vt 0.184589 0.690227
vt 0.300118 0.515395
vt 0.198453 0.515395
vt 0.176887 0.520786
vt 0.176887 0.790352
vt 0.179198 0.534649
vt 0.307819 0.790352
vt 0.323223 0.798054
vt 0.199993 0.790352
vt 0.323223 0.520786
vt 0.323223 0.967495
vt 0.300118 0.952092
vt 0.307819 0.967495
vt 0.300118 0.536190
vt 0.307819 0.520786
vt 0.184589 0.520786
vt 0.199993 0.520786
vt 0.199993 0.967495
vt 0.330925 0.798054
vt 0.307819 0.790352
vt 0.199993 0.790352
vt 0.184589 0.798054
vt 0.176887 0.967495
vt 0.300118 0.975197
vt 0.184589 0.975197
vt 0.179198 0.790352
vt 0.300118 0.513084
vt 0.330925 0.790352
vt 0.330925 0.520786
vt 0.328615 0.953632
vt 0.330925 0.790352
vt 0.300118 0.975197
vt 0.309360 0.972887
vt 0.330925 0.967495
vt 0.273138 0.434259
vt 0.420109 0.268755
vt 0.418879 0.481476
vt 0.255672 0.439498
vt 0.273138 0.434259
vt 0.425349 0.258276
vt 0.487572 0.430885
vt 0.424118 0.491955
vt 0.494559 0.430885
vn -0.7926 -0.6097 -0.0000
vn -0.7926 0.0000 -0.6097
vn -0.7926 0.6097 0.0000
vn -0.7926 0.0000 0.6097
vn 0.6097 0.7926 0.0000
vn 0.0000 0.7926 -0.6097
vn -0.6097 0.7926 0.0000
vn 0.0000 0.7926 0.6097
vn 0.7926 0.6097 0.0000
vn 0.7926 0.0000 0.6097
vn 0.7926 -0.6097 -0.0000
vn 0.7926 0.0000 -0.6097
vn 0.0000 -0.7926 0.6097
vn 0.6097 -0.7926 0.0000
vn 0.0000 -0.7926 -0.6097
vn -0.6097 -0.7926 0.0000
vn 0.0000 1.0000 0.0000
vn 0.0000 0.7071 0.7071
vn -0.5773 0.5773 0.5774
vn -0.7071 0.7071 0.0000
vn -1.0000 0.0000 0.0000
vn -0.7071 -0.0000 0.7071
vn -0.5774 -0.5773 0.5773
vn -0.7071 -0.7071 -0.0000
vn -0.5773 -0.5773 -0.5774
vn -0.7071 0.0000 -0.7071
vn -0.3806 0.8611 -0.3370
vn -0.3590 0.8615 -0.3590
vn -0.4019 0.8599 -0.3147
vn -0.4286 0.8571 -0.2857
vn -0.8320 0.0000 -0.5547
vn 0.0000 0.0000 -1.0000
vn -0.4286 -0.8571 -0.2857
vn -0.3147 -0.8599 -0.4019
vn -0.3590 -0.8615 -0.3590
vn -0.2857 -0.8571 -0.4286
vn -0.5547 0.0000 -0.8321
vn -0.2857 0.8571 -0.4286
vn -0.5774 0.5773 -0.5774
vn 0.0000 0.7071 -0.7071
vn 0.7071 0.0000 -0.7071
vn 1.0000 0.0000 0.0000
vn 0.7071 -0.0000 0.7071
vn 0.0000 -0.0000 1.0000
vn -0.3590 -0.8616 0.3590
vn -0.3147 -0.8599 0.4019
vn -0.4286 -0.8571 0.2857
vn -0.8320 0.0000 0.5547
vn -0.8321 0.0000 0.5547
vn -0.4019 0.8599 0.3147
vn -0.4286 0.8571 0.2857
vn -0.3590 0.8615 0.3590
vn -0.2857 0.8571 0.4286
vn -0.5547 0.0000 0.8320
vn -0.5547 0.0000 0.8321
vn -0.2857 -0.8571 0.4286
vn 0.0000 -0.7071 0.7071
vn 0.0000 -1.0000 -0.0000
vn 0.0000 -0.7071 -0.7071
vn 0.5773 -0.5774 -0.5774
vn 0.3806 0.8611 -0.3370
vn 0.3590 0.8615 -0.3590
vn 0.4019 0.8599 -0.3147
vn 0.4286 0.8571 -0.2857
vn 0.8320 0.0000 -0.5547
vn 0.4286 -0.8571 -0.2857
vn 0.3147 -0.8599 -0.4019
vn 0.3590 -0.8615 -0.3590
vn 0.3370 -0.8611 -0.3806
vn 0.2857 -0.8571 -0.4286
vn 0.5547 0.0000 -0.8321
vn 0.2857 0.8571 -0.4286
vn 0.7071 -0.7071 -0.0000
vn 0.5774 -0.5773 0.5773
vn 0.3590 0.8615 0.3590
vn 0.3806 0.8611 0.3370
vn 0.2857 0.8571 0.4286
vn 0.5547 0.0000 0.8321
vn 0.5547 0.0000 0.8320
vn 0.2857 -0.8571 0.4286
vn 0.3147 -0.8599 0.4019
vn 0.8321 0.0000 0.5547
vn 0.8320 0.0000 0.5547
vn 0.4286 -0.8571 0.2857
vn 0.3590 -0.8616 0.3590
vn 0.3370 -0.8611 0.3806
vn 0.4286 0.8571 0.2857
vn 0.4019 0.8599 0.3147
vn 0.5773 0.5773 0.5774
vn 0.7071 0.7071 0.0000
vn 0.5773 0.5773 -0.5774
vn 0.0000 0.6097 0.7926
vn -0.6097 0.0000 0.7926
vn 0.0000 -0.6097 0.7926
vn 0.6097 0.0000 0.7926
vn 0.0000 0.6097 -0.7926
vn 0.6097 0.0000 -0.7926
vn 0.0000 -0.6097 -0.7926
vn -0.6097 0.0000 -0.7926
vn -0.3370 -0.8611 -0.3806
vn -0.3370 -0.8611 0.3806
vn -0.3806 0.8611 0.3370
usemtl Color_M03
s 1
f 1/1/1 2/2/1 3/3/1
f 1/1/2 4/4/2 2/2/2
f 4/4/3 1/1/3 5/5/3
f 3/3/4 5/5/4 1/1/4
f 6/6/5 7/7/5 8/8/5
f 7/7/6 6/6/6 9/9/6
f 7/7/7 9/9/7 10/10/7
f 7/7/8 10/10/8 8/8/8
f 11/11/4 12/12/4 13/13/4
f 12/12/3 11/11/3 14/14/3
f 14/14/2 15/15/2 12/12/2
f 13/13/1 12/12/1 15/15/1
f 16/16/8 17/17/8 18/18/8
f 17/17/5 16/16/5 19/19/5
f 20/20/6 17/17/6 19/19/6
f 18/18/7 17/17/7 20/20/7
f 21/21/9 22/22/9 23/23/9
f 24/24/10 22/22/10 21/21/10
f 22/22/11 24/24/11 25/25/11
f 22/22/12 25/25/12 23/23/12
f 26/26/13 27/27/13 28/28/13
f 27/27/14 26/26/14 29/29/14
f 26/26/15 30/30/15 29/29/15
f 26/26/16 28/28/16 30/30/16
f 31/31/11 32/32/11 33/33/11
f 32/32/12 31/31/12 34/34/12
f 32/32/9 34/34/9 35/35/9
f 33/33/10 32/32/10 35/35/10
f 36/36/15 37/37/15 38/38/15
f 37/37/14 36/36/14 39/39/14
f 40/40/13 37/37/13 39/39/13
f 38/38/16 37/37/16 40/40/16
f 42/41/17 44/42/17 41/43/17
f 41/44/18 46/45/18 42/46/18
f 41/44/19 47/47/19 45/48/19
f 47/49/20 44/50/20 48/51/20
f 52/52/21 47/49/21 55/53/21
f 49/54/22 60/55/22 50/56/22
f 49/54/23 61/57/23 59/58/23
f 58/59/24 61/60/24 49/61/24
f 62/62/25 58/63/25 63/64/25
f 57/65/26 63/64/26 58/63/26
f 64/66/27 66/67/28 65/68/29
f 67/69/30 65/68/29 68/70/30
f 68/71/31 70/72/31 67/73/31
f 71/74/32 68/75/32 65/76/32
f 70/77/33 71/78/33 72/79/33
f 73/80/34 72/79/35 71/78/35
f 55/81/36 73/80/34 74/82/36
f 56/83/37 74/84/37 75/85/37
f 56/86/38 66/67/38 57/87/38
f 75/88/21 73/89/21 66/90/21
f 73/91/26 65/76/26 66/92/26
f 48/93/26 72/94/26 54/95/26
f 48/93/39 44/96/39 76/97/39
f 76/97/40 43/98/40 77/99/40
f 80/100/32 82/101/32 67/102/32
f 84/103/41 77/99/41 83/104/41
f 88/105/42 90/106/42 93/107/42
f 95/108/43 85/109/43 46/45/43
f 98/110/44 99/111/44 101/112/44
f 53/113/22 45/48/22 47/47/22
f 96/114/45 104/115/46 103/116/45
f 97/117/47 103/116/47 105/118/47
f 98/119/48 105/120/49 106/121/48
f 107/122/50 98/123/51 106/124/51
f 50/125/52 107/122/50 108/126/52
f 51/127/53 108/126/53 109/128/53
f 109/129/54 52/130/55 51/131/54
f 104/132/21 109/133/21 108/134/21
f 104/115/46 52/135/56 110/136/56
f 103/137/22 108/138/22 107/139/22
f 106/140/44 103/137/44 107/139/44
f 111/141/57 59/58/57 61/57/57
f 112/142/58 61/60/58 62/143/58
f 82/101/59 62/62/59 63/64/59
f 82/101/60 91/144/60 112/145/60
f 91/144/41 81/146/41 92/147/41
f 81/148/61 114/149/62 92/150/62
f 113/151/63 80/152/64 115/153/64
f 80/154/65 116/155/65 115/156/65
f 79/157/66 117/158/66 116/159/66
f 118/160/67 78/161/68 84/162/69
f 118/160/67 94/163/70 119/164/70
f 119/165/71 93/166/71 120/167/71
f 114/168/42 119/169/42 120/170/42
f 113/171/41 118/172/41 114/173/41
f 116/174/32 113/171/32 115/175/32
f 93/176/72 114/149/72 120/177/72
f 112/142/73 90/178/73 111/179/73
f 90/180/74 99/111/74 111/141/74
f 99/111/43 89/181/43 100/182/43
f 121/183/75 100/184/76 89/185/75
f 88/186/77 121/183/77 89/185/77
f 88/187/78 124/188/79 123/189/78
f 87/190/80 125/191/81 124/192/80
f 124/193/42 121/194/42 123/195/42
f 121/196/43 126/197/43 122/198/43
f 122/198/44 128/199/44 127/200/44
f 128/201/82 101/202/83 127/203/83
f 102/204/84 126/205/84 95/206/84
f 95/206/85 125/191/81 86/207/86
f 101/208/87 122/209/88 127/210/87
f 46/45/89 85/109/89 42/46/89
f 42/41/90 83/211/90 43/212/90
f 83/104/91 77/99/91 43/98/91
f 129/213/92 130/214/92 131/215/92
f 132/216/93 130/214/93 129/213/93
f 130/214/94 132/216/94 133/217/94
f 130/214/95 133/217/95 131/215/95
f 134/218/96 135/219/96 136/220/96
f 137/221/97 135/219/97 134/218/97
f 135/219/98 137/221/98 138/222/98
f 135/219/99 138/222/99 136/220/99
f 139/223/9 140/224/9 141/225/9
f 142/226/10 140/224/10 139/223/10
f 140/224/11 142/226/11 143/227/11
f 140/224/12 143/227/12 141/225/12
f 144/228/6 145/229/6 146/230/6
f 147/231/7 145/229/7 144/228/7
f 148/232/8 145/229/8 147/231/8
f 145/229/5 148/232/5 146/230/5
f 149/233/4 150/234/4 151/235/4
f 150/234/3 149/233/3 152/236/3
f 152/236/2 153/237/2 150/234/2
f 151/235/1 150/234/1 153/237/1
f 154/238/14 155/239/14 156/240/14
f 155/239/13 154/238/13 157/241/13
f 155/239/16 157/241/16 158/242/16
f 155/239/15 158/242/15 156/240/15
f 42/41/17 43/212/17 44/42/17
f 41/44/18 45/48/18 46/45/18
f 47/49/20 41/243/20 44/50/20
f 58/244/21 49/245/21 51/246/21
f 49/245/21 50/247/21 51/246/21
f 56/248/21 57/249/21 58/244/21
f 48/51/21 54/250/21 55/53/21
f 56/248/21 58/244/21 51/246/21
f 47/49/21 48/51/21 55/53/21
f 55/53/21 56/248/21 51/246/21
f 52/52/21 53/251/21 47/49/21
f 55/53/21 51/246/21 52/52/21
f 49/54/22 59/58/22 60/55/22
f 58/59/24 62/143/24 61/60/24
f 57/65/26 64/252/26 63/64/26
f 64/66/27 57/87/28 66/67/28
f 67/69/30 64/66/27 65/68/29
f 68/71/31 69/253/31 70/72/31
f 70/77/33 69/254/33 71/78/33
f 73/80/34 54/255/100 72/79/35
f 55/81/36 54/255/100 73/80/34
f 56/83/37 55/256/37 74/84/37
f 56/86/38 75/257/38 66/67/38
f 48/93/26 76/97/26 72/94/26
f 76/97/40 44/96/40 43/98/40
f 76/97/32 77/99/32 79/258/32
f 77/99/32 78/259/32 79/258/32
f 70/260/32 72/94/32 76/97/32
f 63/64/32 64/252/32 67/102/32
f 70/260/32 76/97/32 79/258/32
f 82/101/32 63/64/32 67/102/32
f 67/102/32 70/260/32 79/258/32
f 80/100/32 81/146/32 82/101/32
f 67/102/32 79/258/32 80/100/32
f 84/103/41 78/259/41 77/99/41
f 83/261/42 85/262/42 87/263/42
f 85/262/42 86/264/42 87/263/42
f 94/265/42 84/266/42 83/261/42
f 91/267/42 92/268/42 93/107/42
f 94/265/42 83/261/42 87/263/42
f 90/106/42 91/267/42 93/107/42
f 93/107/42 94/265/42 87/263/42
f 88/105/42 89/269/42 90/106/42
f 93/107/42 87/263/42 88/105/42
f 95/108/43 86/270/43 85/109/43
f 102/271/44 95/108/44 46/45/44
f 46/45/44 45/48/44 97/272/44
f 45/48/44 96/273/44 97/272/44
f 102/271/44 46/45/44 97/272/44
f 98/110/44 60/55/44 59/58/44
f 102/271/44 97/272/44 98/110/44
f 99/111/44 100/182/44 101/112/44
f 101/112/44 102/271/44 98/110/44
f 98/110/44 59/58/44 99/111/44
f 53/113/22 96/273/22 45/48/22
f 96/114/45 53/274/101 104/115/46
f 97/117/47 96/114/47 103/116/47
f 98/119/48 97/275/49 105/120/49
f 107/122/50 60/276/102 98/123/51
f 50/125/52 60/276/102 107/122/50
f 51/127/53 50/125/53 108/126/53
f 109/129/54 110/277/55 52/130/55
f 104/115/46 53/274/101 52/135/56
f 111/141/57 99/111/57 59/58/57
f 112/142/58 111/179/58 61/60/58
f 82/101/59 112/145/59 62/62/59
f 91/144/41 82/101/41 81/146/41
f 81/148/61 113/151/63 114/149/62
f 113/151/63 81/148/61 80/152/64
f 80/154/65 79/278/65 116/155/65
f 79/157/66 78/161/66 117/158/66
f 118/160/67 117/158/68 78/161/68
f 118/160/67 84/162/69 94/163/70
f 119/165/71 94/279/71 93/166/71
f 93/176/72 92/150/72 114/149/72
f 112/142/73 91/280/73 90/178/73
f 99/111/43 90/180/43 89/181/43
f 121/183/75 122/209/88 100/184/76
f 88/186/77 123/281/77 121/183/77
f 88/187/78 87/282/79 124/188/79
f 87/190/80 86/207/86 125/191/81
f 128/201/82 102/283/82 101/202/83
f 102/204/84 128/284/84 126/205/84
f 95/206/85 126/205/85 125/191/81
f 101/208/87 100/184/76 122/209/88
f 42/41/90 85/285/90 83/211/90
f 71/74/32 69/286/32 68/75/32
f 75/88/21 74/287/21 73/89/21
f 73/91/26 71/74/26 65/76/26
f 104/132/21 110/288/21 109/133/21
f 103/137/22 104/289/22 108/138/22
f 106/140/44 105/290/44 103/137/44
f 114/168/42 118/291/42 119/169/42
f 113/171/41 117/292/41 118/172/41
f 116/174/32 117/292/32 113/171/32
f 124/193/42 125/293/42 121/194/42
f 121/196/43 125/294/43 126/197/43
f 122/198/44 126/197/44 128/199/44
