# Blender v2.93.1 OBJ File: 'GT_Tube_Sections.blend'
# www.blender.org
v -0.000000 0.444856 0.203670
v -0.101835 0.444856 0.176383
v -0.176383 0.444856 0.101835
v -0.203670 0.444856 -0.000000
v -0.176383 0.444856 -0.101835
v -0.101835 0.444856 -0.176383
v 0.000000 0.444856 -0.203670
v 0.101835 0.444856 -0.176383
v 0.176383 0.444856 -0.101835
v 0.203670 0.444856 0.000000
v 0.176383 0.444856 0.101835
v 0.101835 0.444856 0.176383
v -0.000000 0.495875 0.129724
v -0.064862 0.495875 0.112344
v -0.112344 0.495875 0.064862
v -0.129724 0.495875 -0.000000
v -0.112344 0.495875 -0.064862
v -0.064862 0.495875 -0.112344
v 0.000000 0.495875 -0.129724
v 0.064862 0.495875 -0.112344
v 0.112344 0.495875 -0.064862
v 0.129724 0.495875 0.000000
v 0.112344 0.495875 0.064862
v 0.064862 0.495875 0.112344
v -0.000000 0.475468 0.193106
v -0.096553 0.475468 0.167235
v -0.167235 0.475468 0.096553
v -0.193106 0.475468 -0.000000
v -0.167235 0.475468 -0.096553
v -0.096553 0.475468 -0.167235
v 0.000000 0.475468 -0.193106
v 0.096553 0.475468 -0.167235
v 0.167235 0.475468 -0.096553
v 0.193106 0.475468 0.000000
v 0.167235 0.475468 0.096553
v 0.096553 0.475468 0.167235
v -0.000000 0.485671 0.182543
v -0.091271 0.485671 0.158086
v -0.158086 0.485671 0.091271
v -0.182543 0.485671 -0.000000
v -0.158086 0.485671 -0.091271
v -0.091271 0.485671 -0.158086
v 0.000000 0.485671 -0.182543
v 0.091271 0.485671 -0.158086
v 0.158086 0.485671 -0.091271
v 0.182543 0.485671 0.000000
v 0.158086 0.485671 0.091271
v 0.091271 0.485671 0.158086
vt 0.818465 0.500000
vt 0.659232 0.775799
vt 0.181535 0.500000
vt 0.737033 0.910554
vt 0.500000 1.000000
vt 0.500000 0.974066
vt 0.910554 0.737033
vt 0.750000 0.933013
vt 0.974067 0.500000
vt 0.933013 0.750000
vt 0.910553 0.262967
vt 1.000000 0.500000
vt 0.737033 0.089446
vt 0.933013 0.250000
vt 0.500000 0.025934
vt 0.750000 0.066987
vt 0.262967 0.089446
vt 0.500000 0.000000
vt 0.089446 0.262967
vt 0.250000 0.066987
vt 0.025933 0.500000
vt 0.066987 0.250000
vt 0.089446 0.737033
vt 0.000000 0.500000
vt 0.262967 0.910554
vt 0.066987 0.750000
vt 0.250000 0.933013
vt 0.724066 0.888094
vt 0.500000 0.948133
vt 0.888095 0.724066
vt 0.948133 0.500000
vt 0.888094 0.275933
vt 0.724067 0.111906
vt 0.500000 0.051867
vt 0.275934 0.111906
vt 0.111905 0.275934
vt 0.051867 0.500000
vt 0.111905 0.724066
vt 0.275933 0.888094
vt 0.500000 0.818465
vt 0.775799 0.659233
vt 0.775799 0.340767
vt 0.659233 0.224201
vt 0.500000 0.181535
vt 0.224201 0.340767
vt 0.340767 0.224201
vt 0.340767 0.775799
vt 0.224201 0.659233
vn -0.1110 0.9938 -0.0000
vn -0.0555 0.9938 0.0961
vn 0.1110 0.9938 -0.0000
vn -0.4268 0.5208 0.7393
vn -0.0000 0.3262 0.9453
vn -0.0000 0.5208 0.8537
vn -0.7393 0.5208 0.4268
vn -0.4726 0.3262 0.8187
vn -0.8537 0.5208 -0.0000
vn -0.8187 0.3262 0.4726
vn -0.7393 0.5208 -0.4268
vn -0.9453 0.3262 -0.0000
vn -0.4268 0.5208 -0.7393
vn -0.8186 0.3262 -0.4726
vn -0.0000 0.5208 -0.8537
vn -0.4726 0.3262 -0.8187
vn 0.4268 0.5208 -0.7393
vn -0.0000 0.3262 -0.9453
vn 0.7393 0.5208 -0.4268
vn 0.4726 0.3262 -0.8187
vn 0.8537 0.5208 0.0000
vn 0.8187 0.3262 -0.4726
vn 0.7393 0.5208 0.4268
vn 0.9453 0.3262 -0.0000
vn 0.4268 0.5208 0.7393
vn 0.8186 0.3262 0.4726
vn 0.4726 0.3262 0.8187
vn -0.2485 0.8678 0.4304
vn -0.0000 0.8678 0.4969
vn -0.4304 0.8678 0.2485
vn -0.4969 0.8678 -0.0000
vn -0.4304 0.8678 -0.2485
vn -0.2485 0.8678 -0.4304
vn 0.0000 0.8678 -0.4969
vn 0.2485 0.8678 -0.4304
vn 0.4304 0.8678 -0.2485
vn 0.4969 0.8678 0.0000
vn 0.4304 0.8678 0.2485
vn 0.2485 0.8678 0.4304
vn -0.0000 0.9938 0.1110
vn -0.0961 0.9938 0.0555
vn -0.0961 0.9938 -0.0555
vn -0.0555 0.9938 -0.0961
vn 0.0000 0.9938 -0.1110
vn 0.0961 0.9938 -0.0555
vn 0.0555 0.9938 -0.0961
vn 0.0555 0.9938 0.0961
vn 0.0961 0.9938 0.0555
s 1
f 16/1/1 14/2/2 22/3/3
f 26/4/4 1/5/5 25/6/6
f 27/7/7 2/8/8 26/4/4
f 28/9/9 3/10/10 27/7/7
f 29/11/11 4/12/12 28/9/9
f 30/13/13 5/14/14 29/11/11
f 31/15/15 6/16/16 30/13/13
f 32/17/17 7/18/18 31/15/15
f 33/19/19 8/20/20 32/17/17
f 34/21/21 9/22/22 33/19/19
f 35/23/23 10/24/24 34/21/21
f 36/25/25 11/26/26 35/23/23
f 25/6/6 12/27/27 36/25/25
f 38/28/28 25/6/6 37/29/29
f 39/30/30 26/4/4 38/28/28
f 40/31/31 27/7/7 39/30/30
f 41/32/32 28/9/9 40/31/31
f 42/33/33 29/11/11 41/32/32
f 43/34/34 30/13/13 42/33/33
f 44/35/35 31/15/15 43/34/34
f 45/36/36 32/17/17 44/35/35
f 46/37/37 33/19/19 45/36/36
f 47/38/38 34/21/21 46/37/37
f 47/38/38 36/25/25 35/23/23
f 37/29/29 36/25/25 48/39/39
f 13/40/40 38/28/28 37/29/29
f 15/41/41 38/28/28 14/2/2
f 16/1/1 39/30/30 15/41/41
f 17/42/42 40/31/31 16/1/1
f 18/43/43 41/32/32 17/42/42
f 19/44/44 42/33/33 18/43/43
f 19/44/44 44/35/35 43/34/34
f 21/45/45 44/35/35 20/46/46
f 22/3/3 45/36/36 21/45/45
f 22/3/3 47/38/38 46/37/37
f 24/47/47 47/38/38 23/48/48
f 13/40/40 48/39/39 24/47/47
f 18/43/43 17/42/42 16/1/1
f 16/1/1 15/41/41 14/2/2
f 14/2/2 13/40/40 22/3/3
f 13/40/40 24/47/47 22/3/3
f 24/47/47 23/48/48 22/3/3
f 22/3/3 21/45/45 18/43/43
f 21/45/45 20/46/46 18/43/43
f 20/46/46 19/44/44 18/43/43
f 18/43/43 16/1/1 22/3/3
f 26/4/4 2/8/8 1/5/5
f 27/7/7 3/10/10 2/8/8
f 28/9/9 4/12/12 3/10/10
f 29/11/11 5/14/14 4/12/12
f 30/13/13 6/16/16 5/14/14
f 31/15/15 7/18/18 6/16/16
f 32/17/17 8/20/20 7/18/18
f 33/19/19 9/22/22 8/20/20
f 34/21/21 10/24/24 9/22/22
f 35/23/23 11/26/26 10/24/24
f 36/25/25 12/27/27 11/26/26
f 25/6/6 1/5/5 12/27/27
f 38/28/28 26/4/4 25/6/6
f 39/30/30 27/7/7 26/4/4
f 40/31/31 28/9/9 27/7/7
f 41/32/32 29/11/11 28/9/9
f 42/33/33 30/13/13 29/11/11
f 43/34/34 31/15/15 30/13/13
f 44/35/35 32/17/17 31/15/15
f 45/36/36 33/19/19 32/17/17
f 46/37/37 34/21/21 33/19/19
f 47/38/38 35/23/23 34/21/21
f 47/38/38 48/39/39 36/25/25
f 37/29/29 25/6/6 36/25/25
f 13/40/40 14/2/2 38/28/28
f 15/41/41 39/30/30 38/28/28
f 16/1/1 40/31/31 39/30/30
f 17/42/42 41/32/32 40/31/31
f 18/43/43 42/33/33 41/32/32
f 19/44/44 43/34/34 42/33/33
f 19/44/44 20/46/46 44/35/35
f 21/45/45 45/36/36 44/35/35
f 22/3/3 46/37/37 45/36/36
f 22/3/3 23/48/48 47/38/38
f 24/47/47 48/39/39 47/38/38
f 13/40/40 37/29/29 48/39/39
