# Blender v2.90.0 OBJ File: 'GT_Cryogenic_Beam.blend'
# www.blender.org
v 0.000000 0.855451 1.730087
v 0.141173 -0.216866 1.730087
v 0.272726 -0.162375 1.730087
v 0.141174 0.836866 1.730087
v -0.141173 -0.216866 1.730087
v -0.272725 -0.162375 1.730087
v 0.000000 0.762422 1.783697
v 0.226211 -0.081809 1.783697
v 0.391809 0.083789 1.783697
v 0.437006 0.427095 1.783697
v 0.319911 0.629910 1.783697
v -0.141174 0.836866 1.730087
v -0.226211 -0.081809 1.783697
v -0.391809 0.083789 1.783697
v -0.000000 0.629805 -1.486156
v -0.000000 0.885480 -1.283024
v -0.000000 -0.265480 -1.283024
v 1.124970 0.374775 -1.255184
v 1.055840 0.377224 -1.394427
v 0.918884 0.378179 -1.499119
v -0.437006 0.427095 1.783697
v -0.319911 0.629910 1.783697
v 1.001689 -0.030493 -1.394427
v 0.841497 -0.052199 -1.474404
v 0.968354 0.638288 1.280064
v 0.717743 0.754475 1.491814
v 0.968354 -0.185868 1.280064
v 0.717743 -0.197318 1.491814
v 1.094144 0.549053 1.047457
v 1.162542 0.414077 0.961089
v 0.712364 0.767152 -1.147229
v 0.962667 0.659019 -1.001984
v 1.091560 0.549053 -0.905042
v 1.094144 -0.190897 1.047457
v -1.124970 0.374775 -1.255184
v -1.055840 0.377224 -1.394427
v -0.918884 0.378179 -1.499119
v -1.001689 -0.030493 -1.394427
v -0.841497 -0.052199 -1.474404
v -0.968354 0.638288 1.280064
v -0.717743 0.754475 1.491814
v -0.968354 -0.185868 1.280064
v -0.717743 -0.197318 1.491814
v -1.094144 0.549053 1.047457
v -1.162542 0.414077 0.961089
v -0.712364 0.767152 -1.147229
v -0.962667 0.659019 -1.001984
v 1.147355 -0.157343 0.955766
v 0.403296 0.827296 1.650891
v 1.140872 -0.167816 -0.867671
v 0.000000 -0.081809 1.783697
v 0.000000 -0.216866 1.730087
v -0.000000 -0.052199 -1.474404
v -1.091560 0.549053 -0.905042
v -1.094144 -0.190897 1.047457
v -1.147355 -0.157343 0.955766
v -0.403296 0.827296 1.650891
v -1.140872 -0.167816 -0.867671
vt 0.660266 0.859100
vt 0.000000 0.000000
vt 0.682609 0.818220
vt 0.700564 0.442323
vt 0.700564 0.442323
vt 0.000000 0.000000
vt 0.000000 0.000000
vt 0.380055 0.945105
vt 0.697104 0.832990
vt 0.404230 0.945105
vt 0.000000 0.000000
vt 0.693663 0.446603
vt 0.660024 0.806121
vt 0.682252 0.819556
vt 0.697104 0.832990
vt 0.660266 0.859100
vt 0.787920 0.409915
vt 0.682609 0.818220
vt 0.700564 0.442323
vt 0.000000 0.000000
vt 0.404230 0.945105
vt 0.693663 0.446603
vt 0.000000 0.000000
vt 0.000000 0.000000
vt 0.000000 0.000000
vt 0.660266 0.912382
vt 0.787920 0.409915
vt 0.798831 0.410534
vt 0.248680 0.678441
vt 0.682252 0.819556
vt 0.660024 0.806121
vt 0.248680 0.678441
vt 0.380055 0.945105
vt 0.000000 0.000000
vt 0.000000 0.000000
vt 0.000000 0.000000
vt 0.000000 0.000000
vt 0.000000 0.000000
vt 0.798831 0.410534
vt 0.660266 0.912382
vt 0.791360 0.411553
vt 0.000000 0.000000
vt 0.555801 0.900069
vt 0.280738 0.678441
vt 0.560959 0.875935
vt 0.787931 0.410845
vt 0.682252 0.819556
vt 0.697104 0.832990
vt 0.837212 0.403697
vt 0.798871 0.410521
vt 0.798872 0.411520
vt 0.804066 0.410797
vt 0.660266 0.804774
vt 0.787931 0.410845
vt 0.682252 0.819556
vt 0.693663 0.446603
vt 0.791346 0.410595
vt 0.791346 0.410595
vt 0.697104 0.832990
vt 0.697583 0.451153
vt 0.000000 0.000000
vt 0.404230 0.945105
vt 0.827983 0.422633
vt 0.694927 0.441396
vt 0.693663 0.446603
vt 0.694927 0.441396
vt 0.791346 0.410595
vt 0.791360 0.411553
vt 0.633910 0.794673
vt 0.794989 0.409915
vt 0.697583 0.451153
vt 0.000000 0.000000
vt 0.699274 0.447634
vt 0.278198 0.675523
vt 0.562310 0.878087
vt 0.280738 0.678441
vt 0.560959 0.875935
vt 0.000000 0.000000
vt 0.278198 0.675523
vt 0.562310 0.878087
vt 0.677178 0.451494
vt 0.676392 0.447994
vt 0.429915 0.760854
vt 0.633910 0.794673
vt 0.834216 0.406045
vt 0.555801 0.900069
vt 0.804066 0.410797
vt 0.561739 0.894604
vt 0.000000 0.000000
vt 0.676392 0.447994
vt 0.677178 0.451494
vt 0.429915 0.760854
vt 0.561739 0.894604
vt 0.404230 0.945105
vt 0.000000 0.000000
vt 0.660266 0.804774
vt 0.787931 0.410845
vt 0.000000 0.000000
vt 0.794989 0.409915
vt 0.699274 0.447634
vt 0.676392 0.447994
vt 0.676392 0.447994
vt 0.000000 0.000000
vt 0.670485 0.442323
vt 0.337893 0.221325
vt 0.675787 0.442650
vt 0.675787 0.442650
vt 0.675787 0.442650
vt 0.675787 0.442650
vt 0.670485 0.442323
vn 0.6454 0.0000 0.7638
vn 0.0000 -0.6679 -0.7443
vn -0.3843 0.9229 0.0249
vn 0.2782 -0.9090 -0.3105
vn 0.2420 0.9424 -0.2307
vn -0.6930 -0.0252 0.7205
vn -0.2782 -0.9090 -0.3105
vn 0.8689 -0.0277 0.4941
vn 0.8542 0.0000 0.5200
vn 0.6665 0.0885 0.7403
vn 0.6246 -0.0822 0.7766
vn 0.8789 -0.0314 0.4760
vn 0.6930 -0.0252 0.7205
vn -0.6494 0.7604 -0.0009
vn -0.2420 0.9424 -0.2307
vn -0.4820 0.8762 0.0032
vn 0.1788 -0.9465 -0.2686
vn 0.6494 0.7604 -0.0009
vn 0.3843 0.9229 0.0249
vn 0.4820 0.8762 0.0032
vn -0.8542 0.0000 0.5200
vn -0.8689 -0.0277 0.4941
vn -0.8789 -0.0314 0.4760
vn -0.6454 0.0000 0.7638
vn -0.6246 -0.0822 0.7766
vn -0.6665 0.0885 0.7403
vn -0.1788 -0.9465 -0.2686
vn 0.4013 -0.3760 0.8352
vn 0.3115 -0.5358 0.7848
vn 0.3932 -0.4520 0.8007
vn -0.8922 0.1900 0.4096
vn -0.0967 -0.9953 -0.0096
vn -0.1377 -0.9904 0.0153
vn -0.5370 -0.8436 0.0029
vn -0.0033 -0.9994 -0.0335
vn -0.0695 -0.9958 0.0591
vn 0.1328 0.9907 -0.0285
vn 0.1630 0.9866 0.0044
vn 0.0000 1.0000 0.0055
vn -0.0000 0.4406 0.8977
vn -0.0000 0.4993 0.8664
vn -0.1698 0.4221 0.8905
vn 0.0226 -0.9994 -0.0273
vn -0.3374 0.7232 -0.6026
vn -0.5339 0.7155 -0.4506
vn -0.6373 0.6950 -0.3330
vn 0.0476 -0.3943 0.9178
vn 0.2226 -0.3957 0.8910
vn 0.0000 -0.3689 0.9295
vn -0.0000 0.0000 1.0000
vn 0.1377 -0.9904 0.0153
vn 0.0695 -0.9958 0.0591
vn 0.0033 -0.9994 -0.0335
vn 0.9217 0.2580 -0.2895
vn 0.6373 0.6950 -0.3330
vn 0.9161 0.3875 -0.1027
vn 0.0000 0.6598 -0.7515
vn -0.3312 0.7236 -0.6055
vn 0.3374 0.7232 -0.6026
vn 0.5339 0.7155 -0.4506
vn 0.3312 0.7236 -0.6055
vn -0.2226 -0.3957 0.8910
vn -0.3115 -0.5358 0.7848
vn -0.0476 -0.3943 0.9178
vn 0.5047 0.3099 0.8058
vn 0.4190 0.3664 0.8308
vn 0.4103 0.3641 0.8361
vn -0.9217 0.2580 -0.2895
vn -0.9670 0.2547 -0.0038
vn -0.9956 -0.0379 -0.0860
vn -0.9996 -0.0265 -0.0034
vn 0.0967 -0.9953 -0.0096
vn 0.5370 -0.8436 0.0029
vn -0.1328 0.9907 -0.0285
vn 0.0291 0.8859 -0.4630
vn 0.0000 0.9992 -0.0388
vn 0.9956 -0.0379 -0.0860
vn 0.9670 0.2547 -0.0038
vn 0.9996 -0.0265 -0.0034
vn -0.7562 -0.1556 -0.6355
vn -0.5047 0.3099 0.8058
vn -0.4190 0.3664 0.8308
vn -0.4854 0.3119 0.8167
vn 0.0000 0.6221 -0.7830
vn 0.8922 0.1900 0.4096
vn 0.1698 0.4221 0.8905
vn 0.7562 -0.1556 -0.6355
vn -0.4013 -0.3760 0.8352
vn -0.9161 0.3875 -0.1027
vn -0.3932 -0.4520 0.8007
vn -0.2916 -0.7039 0.6477
vn 0.0000 -1.0000 -0.0005
vn 0.0000 -1.0000 -0.0031
vn 0.1246 0.9464 0.2980
vn -0.0291 0.8859 -0.4630
vn -0.4103 0.3641 0.8361
vn 0.2915 -0.7039 0.6477
vn 0.4854 0.3119 0.8167
vn -0.1246 0.9464 0.2980
vn -0.1630 0.9866 0.0044
vn -0.7732 -0.1027 -0.6258
vn 0.8917 0.4526 -0.0012
vn 0.7732 -0.1027 -0.6258
vn -0.8917 0.4526 -0.0012
vn -0.0226 -0.9994 -0.0273
vn 0.2961 -0.0704 -0.9526
vn -0.0000 -0.0284 -0.9996
vn -0.0000 -0.0172 -0.9999
vn -0.2961 -0.0704 -0.9526
vn -0.2022 -0.0923 -0.9750
vn 0.2022 -0.0923 -0.9750
s off
f 28/1/1 27/2/1 25/3/1
f 39/4/2 53/5/2 17/6/2
f 46/7/3 47/8/3 44/9/3
f 50/10/4 24/11/4 23/12/4
f 26/13/5 25/14/5 29/15/5
f 43/16/6 21/17/6 40/18/6
f 24/19/2 17/6/2 53/5/2
f 39/20/7 58/21/7 38/22/7
f 48/23/8 30/24/8 34/25/8
f 30/24/9 25/3/9 27/2/9
f 25/3/10 26/26/10 10/27/10
f 10/27/11 9/28/11 28/1/11
f 27/2/12 34/25/12 30/24/12
f 10/27/13 28/1/13 25/3/13
f 47/8/14 54/29/14 44/9/14
f 44/9/15 40/30/15 41/31/15
f 41/31/16 46/7/16 44/9/16
f 50/10/17 17/6/17 24/11/17
f 29/15/18 33/32/18 32/33/18
f 32/33/19 31/34/19 29/15/19
f 31/34/20 26/13/20 29/15/20
f 40/18/21 45/35/21 42/36/21
f 45/35/22 56/37/22 55/38/22
f 42/36/23 45/35/23 55/38/23
f 42/36/24 43/16/24 40/18/24
f 43/16/25 14/39/25 21/17/25
f 40/18/26 21/17/26 41/40/26
f 39/20/27 17/6/27 58/21/27
s 1
f 9/28/28 3/41/29 28/42/30
f 44/43/31 45/35/31 40/30/31
f 58/44/32 55/38/33 56/45/34
f 5/46/35 42/47/36 55/48/33
f 26/13/37 31/34/38 16/49/39
f 7/50/40 1/51/41 12/52/42
f 28/53/43 2/54/43 27/55/43
f 46/7/44 36/56/45 47/8/46
f 2/54/47 8/57/48 51/58/49
f 21/17/50 14/39/50 51/58/50
f 34/59/51 27/55/52 2/54/53
f 18/60/54 32/61/55 33/62/56
f 46/7/44 15/63/57 37/64/58
f 31/34/59 19/65/60 20/66/61
f 13/67/62 6/68/63 5/46/64
f 10/27/65 49/69/66 11/70/67
f 35/71/68 47/72/46 36/73/45
f 45/35/69 58/74/70 56/75/71
f 50/76/72 48/77/73 34/25/51
f 41/31/74 57/78/75 1/51/76
f 50/79/77 30/24/78 48/80/79
f 35/81/68 38/82/80 58/83/70
f 21/17/81 57/84/82 41/40/83
f 31/34/59 15/63/57 16/85/84
f 29/86/85 25/14/85 30/24/85
f 4/87/86 7/50/40 11/70/67
f 33/62/56 30/88/78 18/89/54
f 23/90/87 18/91/54 50/92/77
f 10/27/50 11/70/50 51/58/50
f 14/39/88 6/68/63 13/67/62
f 45/93/69 54/94/89 35/95/68
f 43/96/90 5/46/91 6/68/63
f 9/28/28 8/57/48 3/41/29
f 58/44/32 17/6/92 55/48/33
f 17/6/92 52/97/93 55/48/33
f 55/48/33 52/97/93 5/46/35
f 16/49/39 1/51/76 26/13/37
f 1/51/94 4/87/94 49/98/94
f 26/13/37 1/51/76 49/98/95
f 12/52/42 57/78/82 22/99/96
f 22/99/96 7/50/40 12/52/42
f 28/53/30 3/41/29 2/54/97
f 46/7/44 37/64/58 36/56/45
f 51/58/49 52/97/49 2/54/47
f 2/54/47 3/41/29 8/57/48
f 13/67/50 51/58/50 14/39/50
f 51/58/50 7/50/50 22/99/50
f 21/17/50 51/58/50 22/99/50
f 52/97/93 17/6/92 34/59/51
f 17/6/92 50/76/72 34/59/51
f 52/97/93 34/59/51 2/54/53
f 18/60/54 19/100/60 32/61/55
f 46/7/44 16/85/84 15/63/57
f 31/34/59 32/33/55 19/65/60
f 5/46/64 52/97/49 51/58/49
f 51/58/49 13/67/62 5/46/64
f 10/27/65 26/26/98 49/69/66
f 35/71/68 54/94/89 47/72/46
f 45/35/69 35/95/68 58/74/70
f 12/52/99 1/51/99 57/78/99
f 1/51/76 16/49/39 41/31/74
f 16/49/39 46/7/100 41/31/74
f 50/79/77 18/89/54 30/24/78
f 35/81/68 36/101/101 38/82/80
f 21/17/81 22/99/96 57/84/82
f 31/34/59 20/66/61 15/63/57
f 11/70/67 49/98/66 4/87/86
f 4/87/86 1/51/41 7/50/40
f 33/62/56 29/86/102 30/88/78
f 23/90/87 19/102/103 18/91/54
f 7/50/50 51/58/50 11/70/50
f 51/58/50 8/57/50 9/28/50
f 10/27/50 51/58/50 9/28/50
f 14/39/88 43/103/90 6/68/63
f 45/93/69 44/43/104 54/94/89
f 43/96/105 42/47/105 5/46/105
f 20/104/106 53/105/107 15/63/108
f 38/82/80 37/106/109 39/107/110
f 20/108/106 23/90/87 24/109/111
f 53/105/107 37/110/109 15/63/108
f 20/104/106 24/109/111 53/105/107
f 38/82/80 36/101/101 37/106/109
f 20/108/106 19/102/103 23/90/87
f 53/105/107 39/107/110 37/110/109
