# Blender v2.90.0 OBJ File: 'GT_Cryogenic_Beam.blend'
# www.blender.org
v 0.350000 -0.450000 1.963211
v 1.166789 -0.450000 2.650000
v 0.646009 -0.450000 2.413991
v 1.104962 -0.493301 -0.385000
v 0.540213 -0.475000 -0.190411
v 1.066789 -0.400000 -0.410000
v 2.650000 -0.450000 1.963211
v 1.833211 -0.450000 2.650000
v 2.353992 -0.450000 2.413991
v 1.895038 -0.493301 -0.385000
v 2.459787 -0.475000 -0.190411
v 1.933211 -0.400000 -0.410000
v 2.403467 -0.216699 -0.116782
v 1.905414 -0.235000 -0.348301
v 1.764204 -0.235000 2.593301
v 2.280444 -0.216699 2.341631
v 2.570000 -0.216699 1.891059
v 2.625000 -0.493301 0.070037
v 2.588329 -0.475000 -0.075612
v 2.650000 -0.400000 0.027897
v 2.519279 -0.216699 -0.009677
v 2.588302 -0.235000 0.104681
v 2.481280 -0.295255 -0.143297
v 2.112038 -0.326293 2.544894
v 2.285609 -0.295543 2.424950
v 2.615795 -0.295545 1.962444
v 2.569561 -0.291963 -0.061580
v 0.596533 -0.216699 -0.116782
v 1.094586 -0.235000 -0.348301
v 1.235796 -0.235000 2.593301
v 0.719556 -0.216699 2.341631
v 0.430000 -0.216699 1.891059
v 0.375000 -0.493301 0.070037
v 0.411671 -0.475000 -0.075612
v 0.350000 -0.400000 0.027897
v 0.480721 -0.216699 -0.009677
v 0.411698 -0.235000 0.104681
v 0.518720 -0.295255 -0.143297
v 0.887962 -0.326293 2.544894
v 0.714391 -0.295543 2.424950
v 0.384205 -0.295545 1.962444
v 0.430439 -0.291963 -0.061580
v 1.500000 -0.400000 -0.410000
v 1.500000 -0.450000 2.650000
v 1.500000 -0.235000 2.593301
v 1.500000 -0.235000 -0.348301
v 1.500000 -0.493301 -0.385000
vt 0.314759 0.678776
vt 0.790668 0.458331
vt 0.000000 0.000000
vt 0.358409 0.678743
vt 0.000000 0.000000
vt 0.000000 0.000000
vt 0.401972 0.678775
vt 0.401955 0.669049
vt 0.814460 0.393509
vt 0.387387 0.678743
vt 0.387387 0.678743
vt 0.314759 0.678776
vt 0.401955 0.669049
vt 0.401972 0.678775
vt 0.790668 0.458331
vt 0.789848 0.458473
vt 0.000000 0.000000
vt 0.814460 0.393509
vt 0.387387 0.678743
vt 0.000000 0.000000
vt 0.789848 0.458473
vt 0.850179 0.444517
vt 0.358409 0.678743
vt 0.814460 0.393509
vt 0.000000 0.000000
vt 0.000000 0.000000
vt 0.358409 0.678743
vt 0.850179 0.444517
vt 0.379001 0.669049
vt 0.000000 0.000000
vt 0.347220 0.678743
vt 0.353697 0.669049
vt 0.347203 0.669049
vt 0.000000 0.000000
vt 0.838442 0.441703
vt 0.000000 0.000000
vt 0.360296 0.678743
vt 0.387387 0.669049
vt 0.838442 0.441703
vt 0.347220 0.678743
vt 0.347203 0.669049
vt 0.353697 0.669049
vt 0.000000 0.000000
vt 0.379001 0.669049
vt 0.799043 0.472098
vt 0.174245 0.807396
vt 0.142911 0.827817
vt 0.126576 0.863918
vt 0.795349 0.402101
vt 0.855470 0.434134
vt 0.845393 0.440883
vt 0.850118 0.443976
vt 0.000000 0.000000
vt 0.837321 0.428522
vt 0.000000 0.000000
vt 0.845393 0.440883
vt 0.000000 0.000000
vt 0.850118 0.443976
vt 0.792421 0.405611
vt 0.835984 0.444657
vt 0.837321 0.428522
vt 0.398725 0.678743
vt 0.000000 0.000000
vt 0.000000 0.000000
vt 0.353700 0.678743
vt 0.799043 0.472098
vt 0.814021 0.479320
vt 0.792421 0.405611
vt 0.835984 0.444657
vt 0.834649 0.447755
vt 0.795349 0.402101
vt 0.855470 0.434134
vt 0.387387 0.669049
vt 0.000000 0.000000
vt 0.387387 0.669049
vt 0.814521 0.394339
vt 0.790462 0.410102
vt 0.388774 0.660653
vt 0.361191 0.762286
vt 0.301938 0.807396
vt 0.360296 0.678743
vt 0.814521 0.394339
vt 0.814521 0.394339
vt 0.790462 0.410102
vt 0.126576 0.863918
vt 0.388774 0.660653
vt 0.301938 0.807396
vt 0.360274 0.664202
vt 0.312123 0.812473
vt 0.398725 0.678743
vt 0.000000 0.000000
vt 0.834649 0.447755
vt 0.814021 0.479320
vt 0.353700 0.678743
vt 0.000000 0.000000
vt 0.000000 0.000000
vt 0.174245 0.807396
vt 0.126576 0.863918
vt 0.142911 0.827817
vt 0.312123 0.812473
vt 0.360274 0.664202
vn -0.9453 0.3261 0.0063
vn 0.0000 0.2550 0.9669
vn -0.9651 -0.2617 -0.0068
vn 0.0000 0.3502 -0.9367
vn 0.9651 -0.2617 -0.0068
vn 0.9100 0.1997 -0.3632
vn -0.9380 0.3466 0.0090
vn -0.9100 0.1997 -0.3632
vn -0.2108 0.3120 0.9264
vn 0.9380 0.3466 0.0090
vn 0.9453 0.3261 0.0063
vn 0.2108 0.3120 0.9264
vn 0.4078 -0.1546 0.8999
vn 0.6924 0.2038 0.6921
vn 0.4065 0.3258 0.8536
vn -0.9156 0.0452 -0.3995
vn -0.7934 0.0148 -0.6085
vn -0.8925 -0.3611 -0.2701
vn -0.5214 0.4060 -0.7505
vn -0.5155 0.1291 -0.8471
vn 0.2658 -0.0787 -0.9608
vn 0.5155 0.1291 -0.8471
vn 0.1257 -0.3044 -0.9442
vn 0.5214 0.4060 -0.7505
vn 0.9156 0.0452 -0.3995
vn 0.8925 -0.3611 -0.2701
vn 0.7934 0.0148 -0.6085
vn -0.4078 -0.1546 0.8999
vn -0.4065 0.3258 0.8536
vn -0.6924 0.2038 0.6921
vn 0.0280 0.9995 -0.0140
vn 0.0000 0.9974 0.0725
vn 0.0000 0.9999 0.0112
vn 0.0039 -0.9999 0.0133
vn 0.0000 -1.0000 0.0000
vn -0.3943 0.6196 -0.6786
vn -0.3442 0.3999 -0.8495
vn 0.5632 0.4623 0.6849
vn 0.7351 0.4741 0.4847
vn -0.5632 0.4623 0.6849
vn 0.5931 0.6833 -0.4259
vn 0.7223 0.4387 -0.5345
vn -0.7351 0.4741 0.4847
vn -0.8215 0.1846 0.5395
vn 0.5474 0.6356 0.5444
vn -0.5474 0.6356 0.5444
vn -0.2785 0.7299 0.6243
vn -0.2658 -0.0787 -0.9608
vn -0.5931 0.6833 -0.4259
vn -0.7223 0.4387 -0.5345
vn -0.7977 0.5373 -0.2740
vn -0.6014 0.6992 0.3865
vn 0.3943 0.6196 -0.6786
vn 0.3442 0.3999 -0.8495
vn -0.1257 -0.3044 -0.9442
vn 0.0000 -0.2588 -0.9659
vn -0.1292 0.9736 0.1883
vn -0.0068 0.9999 0.0103
vn -0.0300 0.9990 0.0341
vn 0.7977 0.5373 -0.2740
vn -0.0058 -0.9999 -0.0093
vn -0.0000 -0.9999 0.0148
vn -0.0206 -0.9996 -0.0200
vn -0.0000 1.0000 -0.0047
vn 0.0154 0.9999 -0.0049
vn 0.0068 0.9999 0.0103
vn 0.0300 0.9990 0.0341
vn 0.1292 0.9736 0.1883
vn 0.3004 0.8968 0.3248
vn 0.0000 -1.0000 0.0094
vn 0.0058 -0.9999 -0.0093
vn 0.0206 -0.9996 -0.0200
vn 0.0790 -0.9897 -0.1196
vn 0.1415 -0.9772 -0.1584
vn 0.8215 0.1846 0.5395
vn 0.2785 0.7299 0.6243
vn 0.6014 0.6992 0.3865
vn -0.0154 0.9999 -0.0049
vn -0.0280 0.9995 -0.0140
vn -0.3004 0.8968 0.3248
vn -0.0039 -0.9999 0.0133
vn -0.1415 -0.9772 -0.1584
vn -0.0790 -0.9897 -0.1196
s off
f 1/1/1 32/2/1 37/3/1
f 44/4/2 45/5/2 30/6/2
f 1/1/3 35/7/3 33/8/3
f 29/9/4 43/10/4 6/11/4
f 7/12/5 18/13/5 20/14/5
f 17/15/6 26/16/6 7/12/6
f 15/17/2 45/5/2 44/4/2
f 43/10/4 14/18/4 12/19/4
f 37/3/7 35/20/7 1/1/7
f 1/1/8 41/21/8 32/2/8
f 39/22/9 2/23/9 30/6/9
f 2/23/2 44/4/2 30/6/2
f 29/9/4 46/24/4 43/10/4
f 7/12/10 20/25/10 22/26/10
f 22/26/11 17/15/11 7/12/11
f 44/4/2 8/27/2 15/17/2
f 8/27/12 24/28/12 15/17/12
f 43/10/4 46/24/4 14/18/4
s 1
f 8/27/13 9/29/14 24/30/15
f 35/31/16 34/32/17 33/33/18
f 34/34/17 38/35/19 5/36/20
f 12/19/21 11/37/22 10/38/23
f 12/19/21 23/39/24 11/37/22
f 20/40/25 18/41/26 19/42/27
f 2/23/28 39/43/29 3/44/30
f 31/45/31 30/6/32 45/5/33
f 7/46/34 9/47/35 8/48/35
f 28/49/36 29/50/37 38/35/19
f 25/51/38 24/52/15 9/53/14
f 9/53/14 26/54/39 25/55/38
f 40/56/40 3/57/30 39/58/29
f 23/39/24 21/59/41 27/60/42
f 3/57/30 41/61/43 1/62/44
f 23/39/24 19/63/27 11/64/22
f 27/60/42 20/25/25 19/65/27
f 16/66/45 24/30/15 25/55/38
f 31/45/46 39/43/29 30/67/47
f 26/54/39 16/66/45 25/55/38
f 6/11/48 38/35/19 29/50/37
f 36/68/49 42/69/50 37/3/51
f 42/69/50 35/20/16 37/70/51
f 41/61/43 31/45/46 32/2/52
f 13/71/53 23/39/24 14/72/54
f 4/73/55 43/74/56 47/75/56
f 13/71/57 14/76/58 22/77/59
f 21/59/41 22/26/60 27/60/42
f 43/74/56 10/38/23 47/75/56
f 36/68/49 38/35/19 42/69/50
f 4/78/61 47/79/62 33/80/63
f 6/11/48 4/73/55 5/81/20
f 34/34/17 42/69/50 38/35/19
f 12/19/21 14/72/54 23/39/24
f 45/5/33 46/82/64 32/2/65
f 46/82/64 29/83/66 37/84/67
f 32/2/65 46/82/64 37/84/67
f 29/83/66 28/49/68 37/84/67
f 28/49/68 36/68/69 37/84/67
f 32/2/65 31/45/31 45/5/33
f 8/48/35 44/85/70 7/46/34
f 44/85/70 47/79/62 7/46/34
f 47/79/62 10/86/71 18/87/72
f 10/86/71 11/88/73 18/87/72
f 11/88/73 19/89/74 18/87/72
f 18/87/72 7/46/34 47/79/62
f 9/53/14 7/90/75 26/54/39
f 23/39/24 13/71/53 21/59/41
f 3/57/30 40/91/40 41/61/43
f 23/39/24 27/60/42 19/63/27
f 27/60/42 22/92/60 20/25/25
f 16/66/45 15/93/76 24/30/15
f 31/45/46 40/91/40 39/43/29
f 26/54/39 17/15/77 16/66/45
f 6/11/48 5/81/20 38/35/19
f 42/69/50 34/94/17 35/20/16
f 41/61/43 40/91/40 31/45/46
f 4/73/55 6/95/48 43/74/56
f 14/76/58 46/82/64 22/77/59
f 46/82/64 45/5/33 17/15/78
f 22/77/59 46/82/64 17/15/78
f 45/5/33 15/17/32 16/66/79
f 16/66/79 17/15/78 45/5/33
f 22/77/59 21/59/80 13/71/57
f 43/74/56 12/96/21 10/38/23
f 36/68/49 28/49/36 38/35/19
f 47/79/62 44/85/70 1/97/81
f 44/85/70 2/98/35 1/97/81
f 2/98/35 3/99/35 1/97/81
f 1/97/81 33/80/63 47/79/62
f 33/80/63 34/100/82 5/101/83
f 4/78/61 33/80/63 5/101/83
