# Blender v2.80 (sub 75) OBJ File: 'HE_Wall_Section.blend'
# www.blender.org
mtllib HE_Wall_Section.mtl
o HE_Wall_Section
v -0.170026 1.248420 1.479594
v -0.150026 1.244550 1.499594
v -0.150026 1.482040 1.499594
v -0.170026 1.482040 1.479594
v -0.211480 1.145230 1.479594
v -0.191480 1.141360 1.499594
v -0.211480 1.145230 1.347320
v -0.170027 -0.247745 1.479594
v -0.211480 -0.144552 1.347320
v -0.269929 1.482040 1.160816
v -0.269930 -0.479997 1.160816
v -0.170027 -0.479998 1.479594
v -0.211480 -0.144552 1.479594
v -0.191480 -0.140685 1.499594
v -0.150027 -0.243878 1.499594
v -0.150027 -0.479998 1.499594
v 0.149980 -0.243194 1.499594
v 0.149980 -0.479998 1.499594
v -0.148238 -0.499998 1.479594
v 0.148191 -0.499998 1.479594
v -0.249930 -0.499998 1.155108
v -0.269930 -0.479997 -0.162140
v -0.249930 -0.499997 -0.156430
v -0.148238 -0.499997 -0.480910
v -0.170027 -0.479997 -0.480910
v -0.150027 -0.479998 -0.500910
v 0.149980 -0.479998 -0.500910
v 0.148191 -0.499998 -0.480910
v 0.149980 -0.243194 -0.500910
v 0.169980 -0.247061 -0.480910
v 0.169980 -0.479998 -0.480910
v 0.211434 -0.143869 -0.480910
v 0.191434 -0.140002 -0.500910
v 0.211434 -0.143869 -0.348640
v 0.211434 1.145910 -0.348640
v 0.169980 1.249100 -0.480910
v 0.169980 1.482040 -0.480910
v 0.269883 1.482040 -0.162140
v 0.269883 -0.479998 -0.162140
v 0.211434 1.145910 -0.480910
v 0.191434 1.142040 -0.500910
v 0.149980 1.245230 -0.500910
v 0.131999 -0.131686 -0.500910
v 0.131999 0.132359 -0.500910
v -0.000023 0.000337 -0.600910
v -0.132046 -0.131686 -0.500910
v -0.191481 -0.140685 -0.500910
v -0.150027 -0.243878 -0.500910
v -0.170027 -0.247745 -0.480910
v -0.211480 1.145230 -0.348640
v -0.211481 -0.144552 -0.348640
v -0.269929 1.482040 -0.162140
v -0.170026 1.482040 -0.480910
v -0.170027 1.248420 -0.480910
v -0.211481 -0.144552 -0.480910
v -0.211480 1.145230 -0.480910
v -0.191480 1.141360 -0.500910
v -0.150027 1.244550 -0.500910
v -0.150026 1.482040 -0.500910
v -0.148238 1.502040 -0.480910
v 0.148191 1.502040 -0.480910
v 0.149980 1.482040 -0.500910
v -0.132046 1.132360 -0.500910
v 0.132000 1.132360 -0.500910
v 0.132000 0.868314 -0.500910
v -0.132046 0.132359 -0.500910
v -0.132046 0.868314 -0.500910
v -0.000023 1.000340 -0.600910
v 0.249883 1.502040 -0.156430
v 0.148192 1.502040 1.479594
v 0.132000 1.502040 1.132046
v -0.132046 1.502040 1.132046
v -0.148238 1.502040 1.479594
v -0.132046 1.502040 0.868001
v -0.132046 1.502040 -0.132000
v -0.132046 1.502040 0.132046
v 0.132000 1.502040 0.132046
v 0.132000 1.502040 0.868001
v -0.000023 1.602040 1.000023
v 0.132000 1.502040 -0.132000
v -0.249929 1.502040 1.155108
v -0.249929 1.502040 -0.156430
v 0.149980 1.482040 1.499594
v 0.149980 1.245230 1.499594
v 0.191434 1.142040 1.499594
v 0.131999 1.132360 1.499594
v 0.132000 0.868315 1.499594
v 0.131999 0.132360 1.499594
v 0.131999 -0.131686 1.499594
v 0.191434 -0.140002 1.499594
v -0.132046 -0.131686 1.499594
v 0.169980 -0.247061 1.479594
v 0.211434 -0.143869 1.479594
v 0.211434 -0.143869 1.347320
v 0.211434 1.145910 1.347320
v 0.169980 -0.479998 1.479594
v 0.269883 -0.479998 1.160816
v 0.269883 1.482040 1.160816
v 0.169980 1.482040 1.479594
v 0.169980 1.249100 1.479594
v 0.211434 1.145910 1.479594
v 0.249883 1.502040 1.155108
v 0.249883 -0.499998 -0.156430
v 0.249883 -0.499998 1.155108
v 0.131999 -0.499998 1.132046
v -0.132046 -0.499998 1.132046
v -0.132046 -0.499998 0.868001
v -0.132046 -0.499997 -0.132000
v 0.131999 -0.499998 -0.132000
v 0.131999 -0.499998 0.132046
v 0.131999 -0.499998 0.868001
v -0.000024 -0.599997 1.000023
v -0.132046 -0.499997 0.132046
v -0.000024 -0.599997 0.000023
v -0.132046 0.132360 1.499594
v -0.000023 0.000337 1.599595
v -0.132046 0.868315 1.499594
v -0.132046 1.132360 1.499594
v -0.000023 1.000340 1.599595
v -0.000023 1.602040 0.000023
vt 0.602336 0.297462
vt 0.604256 0.319887
vt 0.602336 0.319887
vt 0.600277 0.287186
vt 0.604256 0.297091
vt 0.679975 0.307739
vt 0.679975 0.320436
vt 0.689880 0.320436
vt 0.712305 0.289837
vt 0.523972 0.289837
vt 0.546266 0.320436
vt 0.556171 0.320436
vt 0.556171 0.307739
vt 0.598357 0.163753
vt 0.598357 0.287557
vt 0.602336 0.153848
vt 0.600277 0.164124
vt 0.523972 0.322355
vt 0.523972 0.320436
vt 0.522052 0.163396
vt 0.522052 0.289289
vt 0.633053 0.131554
vt 0.604427 0.129635
vt 0.632881 0.129635
vt 0.604427 0.320436
vt 0.604256 0.322355
vt 0.602336 0.320436
vt 0.594666 0.289289
vt 0.523972 0.162848
vt 0.594666 0.163396
vt 0.602336 0.132250
vt 0.604427 0.132250
vt 0.604256 0.130330
vt 0.633053 0.130330
vt 0.604256 0.130330
vt 0.604427 0.132250
vt 0.632881 0.132250
vt 0.605982 0.287075
vt 0.631327 0.287075
vt 0.632881 0.320436
vt 0.523972 0.130330
vt 0.546331 0.132250
vt 0.523972 0.132250
vt 0.634973 0.153914
vt 0.637032 0.164190
vt 0.638952 0.163819
vt 0.556237 0.132250
vt 0.556237 0.144946
vt 0.680040 0.144946
vt 0.712305 0.162848
vt 0.523972 0.162848
vt 0.680040 0.132250
vt 0.689945 0.132250
vt 0.634973 0.297528
vt 0.637032 0.287251
vt 0.633053 0.297156
vt 0.679669 0.130330
vt 0.556608 0.130330
vt 0.631327 0.286322
vt 0.605982 0.286322
vt 0.604256 0.297091
vt 0.605982 0.260977
vt 0.631327 0.190333
vt 0.605982 0.190333
vt 0.074435 0.072859
vt 0.074435 0.003090
vt 0.039551 0.037975
vt 0.004667 0.003090
vt 0.634973 0.132250
vt 0.642642 0.163396
vt 0.556171 0.132250
vt 0.679975 0.132250
vt 0.679604 0.130330
vt 0.604427 0.320436
vt 0.632881 0.320436
vt 0.605982 0.287075
vt 0.605982 0.164988
vt 0.631327 0.164988
vt 0.633053 0.154285
vt 0.546266 0.132250
vt 0.523972 0.130330
vt 0.523972 0.132250
vt 0.679975 0.144946
vt 0.556171 0.144946
vt 0.602336 0.153848
vt 0.600276 0.164124
vt 0.604256 0.154219
vt 0.556542 0.130330
vt 0.602336 0.297462
vt 0.600277 0.287186
vt 0.598357 0.287557
vt 0.689880 0.132250
vt 0.712305 0.130330
vt 0.689509 0.130330
vt 0.602336 0.132250
vt 0.633053 0.130330
vt 0.592746 0.162848
vt 0.632881 0.132250
vt 0.712305 0.132250
vt 0.004667 0.072859
vt 0.604256 0.319887
vt 0.633053 0.319887
vt 0.594666 0.163396
vt 0.594666 0.289289
vt 0.605982 0.165741
vt 0.712305 0.132250
vt 0.004667 0.072834
vt 0.039551 0.037950
vt 0.004667 0.003065
vt 0.074435 0.072834
vt 0.074435 0.003065
vt 0.642642 0.289289
vt 0.631327 0.287075
vt 0.631327 0.260977
vt 0.712305 0.130330
vt 0.644562 0.162848
vt 0.605982 0.261730
vt 0.712305 0.162848
vt 0.605982 0.321807
vt 0.605982 0.321807
vt 0.605982 0.321807
vt 0.546637 0.130330
vt 0.074435 0.003246
vt 0.004667 0.003246
vt 0.039551 0.038130
vt 0.004667 0.073014
vt 0.074435 0.073014
vt 0.598357 0.163753
vt 0.631327 0.165741
vt 0.631327 0.191087
vt 0.592746 0.289837
vt 0.602336 0.320436
vt 0.604256 0.322355
vt 0.712305 0.320436
vt 0.633053 0.131554
vt 0.592746 0.289837
vt 0.604256 0.154219
vt 0.633053 0.154285
vt 0.605982 0.164988
vt 0.546703 0.130330
vt 0.634973 0.153914
vt 0.637032 0.164190
vt 0.556237 0.307739
vt 0.556237 0.320436
vt 0.546331 0.320436
vt 0.680040 0.307739
vt 0.523972 0.289837
vt 0.680040 0.320436
vt 0.638952 0.163819
vt 0.637032 0.287251
vt 0.634973 0.297528
vt 0.638952 0.287623
vt 0.689945 0.320436
vt 0.633053 0.319887
vt 0.634973 0.319887
vt 0.633053 0.297156
vt 0.631327 0.286322
vt 0.634973 0.320436
vt 0.633053 0.322355
vt 0.644562 0.289837
vt 0.605982 0.165741
vt 0.605982 0.261730
vt 0.712305 0.289837
vt 0.642642 0.163396
vt 0.644562 0.289837
vt 0.642642 0.289289
vt 0.634973 0.132250
vt 0.604256 0.131554
vt 0.631327 0.191087
vt 0.631327 0.165741
vt 0.631327 0.261730
vt 0.074435 0.003246
vt 0.074435 0.073014
vt 0.039551 0.038130
vt 0.004667 0.073014
vt 0.004667 0.003246
vt 0.522052 0.261730
vt 0.522052 0.165741
vt 0.522052 0.191087
vt 0.004667 0.003271
vt 0.039551 0.038155
vt 0.004667 0.073039
vt 0.074435 0.003271
vt 0.074435 0.073039
vt 0.634973 0.320436
vt 0.633053 0.322355
vt 0.634973 0.131554
vt 0.638952 0.287623
vt 0.604256 0.131554
vt 0.039551 0.037975
vt 0.004667 0.072859
vt 0.004667 0.003090
vt 0.074435 0.072859
vt 0.546637 0.322355
vt 0.689574 0.130330
vt 0.605982 0.191087
vt 0.039551 0.037950
vt 0.004667 0.072834
vt 0.004667 0.003065
vt 0.074435 0.072834
vt 0.074435 0.003065
vt 0.074435 0.003090
vt 0.074435 0.003271
vt 0.004667 0.003271
vt 0.039551 0.038155
vt 0.004667 0.073039
vt 0.074435 0.073039
vt 0.592746 0.162848
vt 0.605982 0.286322
vt 0.605982 0.260977
vt 0.605982 0.190334
vt 0.631327 0.260977
vt 0.523972 0.320436
vt 0.712305 0.320436
vt 0.631327 0.164988
vt 0.631327 0.190334
vt 0.644562 0.162848
vt 0.631327 0.261730
vt 0.605982 0.191087
vn -0.7071 0.0000 0.7071
vn -0.6561 0.2636 0.7071
vn -0.9279 0.3728 0.0000
vn -0.9542 0.0000 0.2991
vn -0.9279 -0.3728 0.0000
vn -1.0000 0.0000 0.0000
vn -0.6561 -0.2636 0.7071
vn -0.7071 -0.7071 -0.0000
vn 0.0000 -0.7071 0.7071
vn -0.5602 -0.6103 0.5602
vn -0.6615 -0.7207 0.2073
vn -0.6615 -0.7207 -0.2073
vn -0.5602 -0.6103 -0.5601
vn 0.0000 -0.7071 -0.7071
vn 0.0000 0.7071 -0.7071
vn 0.0000 -1.0000 -0.0000
vn 0.7071 0.0000 -0.7071
vn 0.6561 -0.2636 -0.7071
vn 0.9279 -0.3728 0.0000
vn 0.9542 0.0000 -0.2991
vn 1.0000 0.0000 0.0000
vn 0.9279 0.3728 0.0000
vn 0.6561 0.2636 -0.7071
vn 0.0000 0.0000 -1.0000
vn 0.6038 0.0000 -0.7971
vn 0.0000 -0.6038 -0.7971
vn 0.6615 0.7207 -0.2073
vn -0.7071 0.0000 -0.7071
vn 0.0000 1.0000 0.0000
vn -0.9542 0.0000 -0.2991
vn -0.6561 -0.2636 -0.7071
vn -0.6561 0.2636 -0.7071
vn -0.5602 0.6103 -0.5602
vn -0.9542 0.0000 0.2990
vn 0.0000 0.6038 -0.7971
vn -0.6038 0.0000 -0.7971
vn 0.5602 0.6103 -0.5602
vn 0.9667 -0.2561 0.0000
vn 0.0000 0.7971 -0.6038
vn -0.6038 0.7971 0.0000
vn 0.0000 0.7971 0.6038
vn 0.6038 0.7971 0.0000
vn -0.6615 0.7207 -0.2073
vn -0.7071 0.7071 0.0000
vn -0.6615 0.7207 0.2073
vn -0.5602 0.6103 0.5602
vn 0.0000 0.7071 0.7071
vn 0.0000 0.0000 1.0000
vn 0.6561 -0.2636 0.7071
vn 0.9542 -0.0000 0.2991
vn 0.7071 -0.0000 0.7071
vn 0.6561 0.2636 0.7071
vn 0.5602 0.6103 0.5602
vn 0.6615 0.7207 0.2073
vn 0.7071 0.7071 0.0000
vn 0.7071 -0.7071 -0.0000
vn 0.6615 -0.7207 -0.2073
vn 0.5602 -0.6103 -0.5602
vn 0.6038 -0.7971 -0.0000
vn 0.0000 -0.7971 0.6038
vn -0.6038 -0.7971 -0.0000
vn 0.0000 -0.7971 -0.6038
vn 0.9943 0.1069 0.0000
vn 0.6615 -0.7207 0.2073
vn 0.5602 -0.6103 0.5602
vn -0.6038 0.0000 0.7971
vn 0.0000 0.6038 0.7971
vn 0.6038 0.0000 0.7971
vn 0.0000 -0.6038 0.7971
usemtl _Color_M00_1.005
s off
f 1/1/1 3/2/1 4/3/1
f 1/1/2 6/4/2 2/5/2
f 7/6/3 5/7/3 1/8/3
f 7/6/4 10/9/4 11/10/4
f 8/11/5 13/12/5 9/13/5
f 5/7/6 9/13/6 13/12/6
f 13/14/1 6/4/1 5/15/1
f 8/16/7 14/17/7 13/14/7
f 16/18/1 8/11/1 12/19/1
f 5/7/6 7/6/6 9/13/6
f 23/20/8 21/21/8 11/10/8
f 1/1/1 2/5/1 3/2/1
f 18/22/9 19/23/9 20/24/9
f 19/25/10 16/26/10 12/27/10
f 12/27/11 21/28/11 19/25/11
f 23/20/8 11/10/8 22/29/8
f 23/30/12 25/31/12 24/32/12
f 26/33/13 24/32/13 25/31/13
f 27/34/14 24/32/14 26/33/14
f 59/35/15 60/36/15 61/37/15
f 106/38/16 105/39/16 20/40/16
f 27/41/17 30/42/17 31/43/17
f 30/44/18 33/45/18 32/46/18
f 30/42/19 32/47/19 34/48/19
f 35/49/20 38/50/20 39/51/20
f 34/48/21 40/52/21 35/49/21
f 35/49/22 40/52/22 36/53/22
f 36/54/23 41/55/23 42/56/23
f 41/57/17 32/47/17 33/58/17
f 64/59/24 63/60/24 58/61/24
f 67/62/24 44/63/24 66/64/24
f 44/65/25 43/66/25 45/67/25
f 45/67/26 43/66/26 46/68/26
f 37/69/27 61/37/27 69/70/27
f 55/71/28 56/72/28 57/73/28
f 73/74/29 70/75/29 72/76/29
f 46/77/24 43/78/24 29/79/24
f 7/6/4 1/8/4 10/9/4
f 49/80/28 26/81/28 25/82/28
f 50/83/30 51/84/30 22/29/30
f 50/83/6 55/71/6 51/84/6
f 51/84/5 55/71/5 49/80/5
f 49/85/31 47/86/31 48/87/31
f 55/71/28 57/73/28 47/88/28
f 54/89/32 57/90/32 56/91/32
f 54/92/3 56/72/3 50/83/3
f 54/92/28 59/93/28 58/94/28
f 60/36/33 59/35/33 53/95/33
f 59/35/15 61/37/15 62/96/15
f 23/30/12 22/97/12 25/31/12
f 19/25/16 106/38/16 20/40/16
f 8/11/34 9/13/34 11/10/34
f 13/14/1 14/17/1 6/4/1
f 58/61/24 42/56/24 64/59/24
f 1/1/2 5/15/2 6/4/2
f 30/44/18 29/79/18 33/45/18
f 27/34/14 28/98/14 24/32/14
f 54/92/28 53/99/28 59/93/28
f 66/100/35 44/65/35 45/67/35
f 66/100/36 45/67/36 46/68/36
f 59/101/24 62/102/24 42/56/24
f 82/103/29 81/104/29 75/105/29
f 11/10/4 9/13/4 7/6/4
f 36/53/20 37/106/20 38/50/20
f 63/107/36 68/108/36 67/109/36
f 63/107/35 64/110/35 68/108/35
f 64/110/25 65/111/25 68/108/25
f 68/108/26 65/111/26 67/109/26
f 70/75/29 102/112/29 71/113/29
f 67/62/24 65/114/24 44/63/24
f 36/53/17 62/115/17 37/106/17
f 61/37/37 37/69/37 62/96/37
f 37/69/27 69/70/27 38/116/27
f 73/74/29 72/76/29 74/117/29
f 39/51/20 34/48/20 35/49/20
f 39/51/20 30/42/20 34/48/20
f 39/51/20 31/43/20 30/42/20
f 81/104/29 73/74/29 75/105/29
f 52/118/30 54/92/30 50/83/30
f 75/119/38 74/120/38 76/121/38
f 49/80/30 25/82/30 22/29/30
f 49/80/28 48/122/28 26/81/28
f 78/123/39 74/124/39 79/125/39
f 79/125/40 74/124/40 72/126/40
f 71/127/41 79/125/41 72/126/41
f 71/127/42 78/123/42 79/125/42
f 63/60/24 57/90/24 58/61/24
f 12/19/4 8/11/4 11/10/4
f 54/89/32 58/61/32 57/90/32
f 34/48/21 32/47/21 40/52/21
f 49/85/31 55/128/31 47/86/31
f 50/83/6 56/72/6 55/71/6
f 69/70/29 61/37/29 80/129/29
f 69/70/29 80/129/29 77/130/29
f 35/49/20 36/53/20 38/50/20
f 53/95/43 82/103/43 60/36/43
f 82/103/44 10/131/44 81/104/44
f 11/10/6 52/118/6 22/29/6
f 4/132/45 81/104/45 10/131/45
f 4/132/46 3/133/46 73/74/46
f 3/133/47 70/75/47 73/74/47
f 1/8/4 4/134/4 10/9/4
f 48/87/24 46/77/24 29/79/24
f 29/79/24 27/135/24 48/87/24
f 12/27/11 11/136/11 21/28/11
f 48/87/24 47/86/24 46/77/24
f 41/55/24 33/45/24 43/78/24
f 33/45/24 29/79/24 43/78/24
f 51/84/30 49/80/30 22/29/30
f 65/114/24 41/55/24 44/63/24
f 66/64/24 47/86/24 67/62/24
f 8/16/7 15/137/7 14/17/7
f 15/137/48 17/138/48 91/139/48
f 27/41/17 29/140/17 30/42/17
f 92/141/49 90/142/49 17/138/49
f 94/143/19 93/144/19 92/145/19
f 95/146/50 94/143/50 97/147/50
f 94/143/21 101/148/21 93/144/21
f 93/149/51 85/150/51 90/142/51
f 100/151/52 85/150/52 101/152/52
f 100/153/22 101/148/22 95/146/22
f 83/154/51 100/151/51 99/155/51
f 84/156/48 2/5/48 86/157/48
f 99/158/53 70/75/53 83/159/53
f 99/158/54 102/112/54 70/75/54
f 69/70/55 98/160/55 38/116/55
f 19/25/16 108/161/16 107/162/16
f 39/51/21 98/163/21 97/147/21
f 103/164/56 97/165/56 104/166/56
f 31/167/57 103/164/57 28/98/57
f 31/167/58 28/98/58 27/34/58
f 57/90/24 63/60/24 67/62/24
f 41/57/17 40/52/17 32/47/17
f 65/114/24 64/59/24 41/55/24
f 41/55/24 43/78/24 44/63/24
f 66/64/24 46/77/24 47/86/24
f 27/135/24 26/168/24 48/87/24
f 61/37/29 60/36/29 75/105/29
f 102/112/29 69/70/29 77/130/29
f 52/118/30 50/83/30 22/29/30
f 103/164/16 110/169/16 109/170/16
f 19/25/16 107/162/16 106/38/16
f 74/117/29 75/105/29 73/74/29
f 78/171/29 102/112/29 77/130/29
f 60/36/29 82/103/29 75/105/29
f 71/113/29 72/76/29 70/75/29
f 111/172/59 105/173/59 112/174/59
f 112/174/60 105/173/60 106/175/60
f 107/176/61 112/174/61 106/175/61
f 107/176/62 111/172/62 112/174/62
f 58/61/24 59/101/24 42/56/24
f 52/118/30 53/99/30 54/92/30
f 107/177/63 108/178/63 113/179/63
f 108/180/61 114/181/61 113/182/61
f 108/180/62 109/183/62 114/181/62
f 109/183/59 110/184/59 114/181/59
f 114/181/60 110/184/60 113/182/60
f 47/86/24 57/90/24 67/62/24
f 96/185/64 104/166/64 97/165/64
f 20/40/65 96/185/65 18/186/65
f 92/141/51 18/22/51 96/187/51
f 36/54/23 40/188/23 41/55/23
f 18/22/9 16/189/9 19/23/9
f 116/190/66 115/191/66 91/192/66
f 88/193/67 115/191/67 116/190/67
f 16/18/1 15/194/1 8/11/1
f 36/53/17 42/195/17 62/115/17
f 42/56/24 41/55/24 64/59/24
f 76/196/29 74/117/29 78/171/29
f 119/197/66 118/198/66 117/199/66
f 86/200/67 118/198/67 119/197/67
f 61/37/29 75/105/29 80/129/29
f 87/201/68 86/200/68 119/197/68
f 87/201/69 119/197/69 117/199/69
f 89/202/68 88/193/68 116/190/68
f 89/202/69 116/190/69 91/192/69
f 80/203/39 75/204/39 120/205/39
f 120/205/40 75/204/40 76/206/40
f 77/207/41 120/205/41 76/206/41
f 77/207/42 80/203/42 120/205/42
f 78/171/29 71/113/29 102/112/29
f 77/130/29 76/196/29 78/171/29
f 53/95/43 52/208/43 82/103/43
f 82/103/44 52/208/44 10/131/44
f 11/10/6 10/9/6 52/118/6
f 4/132/45 73/74/45 81/104/45
f 3/133/47 83/159/47 70/75/47
f 118/209/48 86/157/48 6/4/48
f 6/4/48 14/17/48 117/210/48
f 14/17/48 15/137/48 91/139/48
f 117/210/48 14/17/48 115/211/48
f 15/137/48 16/189/48 18/22/48
f 17/138/48 90/142/48 91/139/48
f 15/137/48 18/22/48 17/138/48
f 118/209/48 6/4/48 117/210/48
f 115/211/48 87/212/48 117/210/48
f 115/211/48 14/17/48 91/139/48
f 92/141/49 93/149/49 90/142/49
f 94/143/50 92/145/50 97/147/50
f 92/145/50 96/213/50 97/147/50
f 98/163/50 99/214/50 100/153/50
f 98/163/50 100/153/50 95/146/50
f 98/163/50 95/146/50 97/147/50
f 94/143/21 95/146/21 101/148/21
f 93/149/51 101/152/51 85/150/51
f 100/151/52 84/156/52 85/150/52
f 83/154/51 84/156/51 100/151/51
f 89/215/48 91/139/48 90/142/48
f 90/142/48 85/150/48 87/212/48
f 85/150/48 84/156/48 86/157/48
f 90/142/48 87/212/48 88/216/48
f 84/156/48 83/154/48 3/2/48
f 2/5/48 6/4/48 86/157/48
f 84/156/48 3/2/48 2/5/48
f 89/215/48 90/142/48 88/216/48
f 87/212/48 115/211/48 88/216/48
f 87/212/48 85/150/48 86/157/48
f 99/158/54 98/160/54 102/112/54
f 69/70/55 102/112/55 98/160/55
f 39/51/21 38/50/21 98/163/21
f 103/164/56 39/217/56 97/165/56
f 31/167/57 39/217/57 103/164/57
f 28/98/16 103/164/16 109/170/16
f 103/164/16 104/166/16 110/169/16
f 110/169/16 104/166/16 111/218/16
f 104/166/16 20/40/16 105/39/16
f 111/218/16 107/162/16 113/219/16
f 104/166/16 105/39/16 111/218/16
f 23/30/16 24/32/16 108/161/16
f 24/32/16 28/98/16 108/161/16
f 19/25/16 21/28/16 108/161/16
f 21/28/16 23/30/16 108/161/16
f 111/218/16 113/219/16 110/169/16
f 109/170/16 108/161/16 28/98/16
f 96/185/64 20/40/64 104/166/64
f 92/141/51 17/138/51 18/22/51
