# Blender v2.80 (sub 75) OBJ File: ''
# www.blender.org
mtllib YK_Gyro_Ring_B.mtl
o Circle.003
v -0.280823 -0.100000 0.135238
v -0.280823 0.094318 0.135238
v -0.194336 0.094318 0.243689
v -0.194336 -0.100000 0.243689
v 0.280823 -0.100000 -0.135238
v 0.280823 0.094318 -0.135238
v 0.194336 0.094318 -0.243689
v 0.194336 -0.100000 -0.243689
v -0.069358 0.094318 0.303876
v -0.069358 -0.100000 0.303876
v 0.069358 0.094318 -0.303876
v 0.069358 -0.100000 -0.303876
v 0.069358 0.094318 0.303876
v 0.069358 -0.100000 0.303876
v -0.069358 0.094318 -0.303876
v -0.069358 -0.100000 -0.303876
v 0.194336 0.094318 0.243689
v 0.194336 -0.100000 0.243689
v -0.194336 0.094318 -0.243689
v -0.194336 -0.100000 -0.243689
v 0.280824 0.094318 0.135238
v 0.280824 -0.100000 0.135238
v -0.280823 0.094318 -0.135238
v -0.280823 -0.100000 -0.135238
v 0.311691 0.094318 0.000000
v 0.311691 -0.100000 -0.000000
v -0.311691 0.094318 0.000000
v -0.311691 -0.100000 -0.000000
v -0.224660 -0.100000 0.108190
v -0.155469 -0.100000 0.194952
v -0.155469 0.094318 0.194952
v -0.224660 0.094318 0.108190
v 0.224660 -0.100000 -0.108190
v 0.155469 -0.100000 -0.194952
v 0.155469 0.094318 -0.194952
v 0.224660 0.094318 -0.108190
v -0.055486 -0.100000 0.243101
v -0.055486 0.094318 0.243101
v 0.055486 -0.100000 -0.243101
v 0.055486 0.094318 -0.243101
v 0.055486 -0.100000 0.243101
v 0.055486 0.094318 0.243101
v -0.055486 -0.100000 -0.243101
v -0.055486 0.094318 -0.243101
v 0.155469 -0.100000 0.194952
v 0.155469 0.094318 0.194952
v -0.155469 -0.100000 -0.194952
v -0.155469 0.094318 -0.194952
v 0.224660 -0.100000 0.108190
v 0.224660 0.094318 0.108190
v -0.224660 -0.100000 -0.108190
v -0.224660 0.094318 -0.108190
v 0.249353 -0.100000 -0.000000
v 0.249353 0.094318 0.000000
v -0.249353 -0.100000 -0.000000
v -0.249353 0.094318 0.000000
v -0.055486 0.203093 -0.220747
v 0.055486 0.203093 -0.220747
v 0.055486 0.203093 0.220747
v -0.055486 0.203093 0.220747
v 0.069358 0.203093 0.275933
v -0.069358 0.203093 -0.275933
v -0.069358 -0.208775 0.275933
v 0.069358 -0.208775 0.275933
v 0.055486 -0.208775 0.220747
v -0.055486 -0.208775 0.220747
v -0.069358 0.203093 0.275933
v 0.069358 -0.208775 -0.275933
v -0.069358 -0.208775 -0.275933
v -0.055486 -0.208775 -0.220747
v 0.055486 -0.208775 -0.220747
v 0.069358 0.203093 -0.275933
vt 0.651115 0.561170
vt 0.669240 0.561170
vt 0.669240 0.593645
vt 0.651115 0.593645
vt 0.605913 0.561170
vt 0.587788 0.561170
vt 0.587788 0.593645
vt 0.605913 0.593645
vt 0.679299 0.561170
vt 0.679299 0.593645
vt 0.577730 0.561170
vt 0.577730 0.593645
vt 0.679299 0.561170
vt 0.679299 0.593645
vt 0.577730 0.561170
vt 0.577730 0.593645
vt 0.669240 0.561170
vt 0.669240 0.593645
vt 0.587788 0.561170
vt 0.587788 0.593645
vt 0.651115 0.561170
vt 0.651115 0.593645
vt 0.605913 0.561170
vt 0.605913 0.593645
vt 0.628514 0.561170
vt 0.628514 0.593645
vt 0.628514 0.561170
vt 0.628514 0.593645
vt 0.646595 0.561170
vt 0.646595 0.593645
vt 0.661095 0.593645
vt 0.661095 0.561170
vt 0.610433 0.561170
vt 0.610433 0.593645
vt 0.595933 0.593645
vt 0.595933 0.561170
vt 0.669142 0.593645
vt 0.669142 0.561170
vt 0.587887 0.593645
vt 0.587887 0.561170
vt 0.669142 0.593645
vt 0.669142 0.561170
vt 0.587887 0.593645
vt 0.587887 0.561170
vt 0.661095 0.593645
vt 0.661095 0.561170
vt 0.595933 0.593645
vt 0.595933 0.561170
vt 0.646595 0.593645
vt 0.646595 0.561170
vt 0.610433 0.593645
vt 0.610433 0.561170
vt 0.628514 0.593645
vt 0.628514 0.561170
vt 0.628514 0.593645
vt 0.628514 0.561170
vt 0.591623 0.611824
vt 0.591623 0.611824
vt 0.665406 0.611824
vt 0.665406 0.611824
vt 0.674629 0.611824
vt 0.582400 0.611824
vt 0.674629 0.542992
vt 0.665406 0.542992
vt 0.665406 0.542992
vt 0.674629 0.542992
vt 0.674629 0.611824
vt 0.582400 0.542992
vt 0.591623 0.542992
vt 0.591623 0.542992
vt 0.582400 0.542992
vt 0.582400 0.611824
vn -0.9010 -0.0000 0.4339
vn -0.6235 -0.0000 0.7818
vn 0.9010 0.0000 -0.4339
vn 0.6235 0.0000 -0.7818
vn -0.1490 -0.0854 0.9851
vn -0.1490 0.0854 0.9851
vn 0.1490 -0.0854 -0.9851
vn 0.1490 0.0854 -0.9851
vn 0.1490 -0.0854 0.9851
vn 0.1490 0.0854 0.9851
vn -0.1490 -0.0854 -0.9851
vn -0.1490 0.0854 -0.9851
vn 0.6235 -0.0000 0.7818
vn -0.6235 0.0000 -0.7818
vn 0.9010 -0.0000 0.4339
vn -0.9010 0.0000 -0.4339
vn 1.0000 -0.0000 -0.0000
vn -1.0000 0.0000 -0.0000
vn 0.1486 -0.0689 -0.9865
vn 0.1486 0.0689 -0.9865
vn -0.1486 -0.0689 0.9865
vn -0.1486 0.0689 0.9865
vn -0.1486 -0.0689 -0.9865
vn -0.1486 0.0689 -0.9865
vn 0.1486 -0.0689 0.9865
vn 0.1486 0.0689 0.9865
vn 0.0000 1.0000 0.0000
vn 0.0000 -1.0000 -0.0000
vn 0.0000 -0.2013 0.9795
vn 0.0000 -0.2013 -0.9795
vn 0.9711 -0.0537 -0.2323
vn -0.9711 -0.0537 0.2323
vn 0.0000 0.2013 -0.9795
vn 0.0000 0.2013 0.9795
vn 0.9711 0.0537 0.2323
vn 0.0000 0.2488 0.9686
vn 0.0000 0.2488 -0.9686
vn -0.9711 0.0537 -0.2323
vn 0.9711 -0.0537 0.2323
vn 0.0000 -0.2488 0.9686
vn 0.0000 -0.2488 -0.9686
vn -0.9711 -0.0537 -0.2323
vn -0.9711 0.0537 0.2323
vn 0.9711 0.0537 -0.2323
usemtl Default_OBJ.001
s 1
f 1/1/1 4/2/2 3/3/2 2/4/1
f 5/5/3 8/6/4 7/7/4 6/8/3
f 4/2/2 10/9/5 9/10/6 3/3/2
f 8/6/4 12/11/7 11/12/8 7/7/4
f 10/9/5 14/13/9 13/14/10 9/10/6
f 12/11/7 16/15/11 15/16/12 11/12/8
f 14/13/9 18/17/13 17/18/13 13/14/10
f 16/15/11 20/19/14 19/20/14 15/16/12
f 18/17/13 22/21/15 21/22/15 17/18/13
f 20/19/14 24/23/16 23/24/16 19/20/14
f 22/21/15 26/25/17 25/26/17 21/22/15
f 24/23/16 28/27/18 27/28/18 23/24/16
f 28/27/18 1/1/1 2/4/1 27/28/18
f 26/25/17 5/5/3 6/8/3 25/26/17
f 29/29/3 32/30/3 31/31/4 30/32/4
f 33/33/1 36/34/1 35/35/2 34/36/2
f 30/32/4 31/31/4 38/37/19 37/38/20
f 34/36/2 35/35/2 40/39/21 39/40/22
f 37/38/20 38/37/19 42/41/23 41/42/24
f 39/40/22 40/39/21 44/43/25 43/44/26
f 41/42/24 42/41/23 46/45/14 45/46/14
f 43/44/26 44/43/25 48/47/13 47/48/13
f 45/46/14 46/45/14 50/49/16 49/50/16
f 47/48/13 48/47/13 52/51/15 51/52/15
f 49/50/16 50/49/16 54/53/18 53/54/18
f 51/52/15 52/51/15 56/55/17 55/56/17
f 55/56/17 56/55/17 32/30/3 29/29/3
f 53/54/18 54/53/18 36/34/1 33/33/1
f 27/28/27 56/55/27 52/51/27 23/24/27
f 28/27/28 55/56/28 29/29/28 1/1/28
f 2/4/27 32/30/27 56/55/27 27/28/27
f 1/1/28 29/29/28 30/32/28 4/2/28
f 3/3/27 31/31/27 32/30/27 2/4/27
f 4/2/28 30/32/28 37/38/28 10/9/28
f 9/10/27 38/37/27 31/31/27 3/3/27
f 40/39/21 58/57/29 57/58/29 44/43/25
f 38/37/19 60/59/30 59/60/30 42/41/23
f 14/13/28 41/42/28 45/46/28 18/17/28
f 17/18/27 46/45/27 42/41/27 13/14/27
f 18/17/28 45/46/28 49/50/28 22/21/28
f 21/22/27 50/49/27 46/45/27 17/18/27
f 22/21/28 49/50/28 53/54/28 26/25/28
f 26/25/28 53/54/28 33/33/28 5/5/28
f 25/26/27 54/53/27 50/49/27 21/22/27
f 6/8/27 36/34/27 54/53/27 25/26/27
f 5/5/28 33/33/28 34/36/28 8/6/28
f 7/7/27 35/35/27 36/34/27 6/8/27
f 8/6/28 34/36/28 39/40/28 12/11/28
f 11/12/27 40/39/27 35/35/27 7/7/27
f 42/41/31 59/60/31 61/61/31 13/14/31
f 44/43/32 57/58/32 62/62/32 15/16/32
f 16/15/28 43/44/28 47/48/28 20/19/28
f 19/20/27 48/47/27 44/43/27 15/16/27
f 20/19/28 47/48/28 51/52/28 24/23/28
f 23/24/27 52/51/27 48/47/27 19/20/27
f 24/23/28 51/52/28 55/56/28 28/27/28
f 63/63/28 66/64/28 65/65/28 64/66/28
f 61/61/27 59/60/27 60/59/27 67/67/27
f 68/68/28 71/69/28 70/70/28 69/71/28
f 62/62/27 57/58/27 58/57/27 72/72/27
f 41/42/24 65/65/33 66/64/33 37/38/20
f 43/44/26 70/70/34 71/69/34 39/40/22
f 39/40/35 71/69/35 68/68/35 12/11/35
f 13/14/10 61/61/36 67/67/36 9/10/6
f 15/16/12 62/62/37 72/72/37 11/12/8
f 37/38/38 66/64/38 63/63/38 10/9/38
f 11/12/39 72/72/39 58/57/39 40/39/39
f 10/9/5 63/63/40 64/66/40 14/13/9
f 12/11/7 68/68/41 69/71/41 16/15/11
f 9/10/42 67/67/42 60/59/42 38/37/42
f 16/15/43 69/71/43 70/70/43 43/44/43
f 14/13/44 64/66/44 65/65/44 41/42/44
