# Blender v2.82 (sub 7) OBJ File: 'FighterGeneratorPiston.blend'
# www.blender.org
mtllib FighterGeneratorPiston.mtl
o TAC_Inline_Generator_v9
v 0.116980 0.275785 -0.048025
v 0.049062 0.275708 -0.115943
v 0.166923 0.325842 -0.068736
v 0.069717 0.325732 -0.165943
v -0.046987 0.275598 -0.115943
v -0.067754 0.325576 -0.165943
v -0.164962 0.325465 -0.068736
v -0.114905 0.275522 -0.048025
v -0.164962 0.325465 0.068736
v -0.114905 0.275522 0.048025
v -0.067754 0.325576 0.165943
v -0.046987 0.275598 0.115943
v 0.069717 0.325732 0.165943
v 0.049062 0.275708 0.115943
v 0.166923 0.325842 0.068736
v 0.116980 0.275785 0.048025
v 0.166867 0.375841 -0.068736
v 0.069659 0.375731 -0.165943
v -0.067812 0.375575 -0.165943
v -0.165019 0.375466 -0.068736
v -0.165019 0.375466 0.068736
v 0.091129 1.025756 -0.037670
v 0.166214 0.950841 -0.068736
v 0.037856 1.025696 -0.090943
v 0.069007 0.950732 -0.165943
v 0.091129 1.025756 0.037670
v 0.166214 0.950841 0.068736
v 0.037856 1.025696 0.090943
v 0.069007 0.950732 0.165943
v -0.037484 1.025611 0.090943
v -0.068465 0.950575 0.165943
v -0.090757 1.025549 0.037670
v -0.165671 0.950464 0.068736
v -0.165671 0.950464 -0.068736
v -0.090757 1.025549 -0.037670
v -0.068465 0.950575 -0.165943
v -0.037484 1.025611 -0.090943
v -0.165075 0.425465 0.068736
v -0.165075 0.425465 -0.068736
v -0.067869 0.425575 -0.165943
v 0.069604 0.425732 -0.165943
v 0.166810 0.425842 -0.068736
v -0.114593 0.000522 0.048025
v -0.046675 0.000599 0.115943
v 0.049375 0.000708 0.115943
v -0.114593 0.000522 -0.048025
v 0.117292 0.000786 0.048025
v -0.046675 0.000599 -0.115943
v 0.049375 0.000708 -0.115943
v 0.117293 0.000786 -0.048025
v -0.114472 0.425523 -0.047606
v -0.114472 0.425523 0.047945
v -0.067869 0.425575 0.165943
v -0.046908 0.425599 0.115509
v 0.048643 0.425708 0.115509
v -0.046908 0.425599 -0.115170
v 0.048643 0.425708 -0.115170
v 0.116206 0.425784 -0.047606
v 0.166810 0.425842 0.068736
v 0.116206 0.425784 0.047945
v 0.069604 0.425732 0.165943
v -0.046851 0.375599 -0.115170
v -0.114416 0.375522 -0.047606
v 0.048699 0.375707 -0.115170
v 0.116264 0.375784 -0.047606
v 0.116264 0.375784 0.047945
v 0.048699 0.375707 0.115509
v -0.046851 0.375599 0.115509
v -0.114416 0.375522 0.047945
v 0.166867 0.375841 0.068736
v 0.069659 0.375731 0.165943
v -0.067812 0.375575 0.165943
vt 0.104043 0.019622
vt 0.104076 0.019669
vt 0.104002 0.019636
vt 0.104049 0.019703
vt 0.104080 0.019620
vt 0.104092 0.019662
vt 0.104022 0.019620
vt 0.104052 0.019661
vt 0.104010 0.019649
vt 0.104052 0.019579
vt 0.104010 0.019591
vt 0.104009 0.019635
vt 0.104036 0.019670
vt 0.104084 0.019603
vt 0.104018 0.019660
vt 0.104012 0.019578
vt 0.103985 0.019613
vt 0.104051 0.019620
vt 0.104039 0.019662
vt 0.103969 0.019620
vt 0.103981 0.019662
vt 0.104053 0.019646
vt 0.103978 0.019679
vt 0.104019 0.019693
vt 0.104010 0.019703
vt 0.104010 0.019620
vt 0.104052 0.019690
vt 0.104052 0.019633
vt 0.104113 0.019671
vt 0.104031 0.019701
vt 0.104113 0.019701
vt 0.104031 0.019701
vt 0.104113 0.019701
vt 0.104031 0.019701
vt 0.104113 0.019701
vt 0.104031 0.019671
vt 0.104113 0.019671
vt 0.104031 0.019701
vt 0.104113 0.019701
vt 0.218438 0.034255
vt 0.218500 0.034277
vt 0.218412 0.034292
vt 0.218453 0.034344
vt 0.218431 0.034273
vt 0.218494 0.034255
vt 0.218436 0.034292
vt 0.218477 0.034240
vt 0.218462 0.034329
vt 0.218461 0.034307
vt 0.218442 0.034244
vt 0.218506 0.034307
vt 0.218487 0.034295
vt 0.218472 0.034207
vt 0.218425 0.034274
vt 0.218431 0.034296
vt 0.218431 0.034214
vt 0.218494 0.034277
vt 0.218494 0.034232
vt 0.218449 0.034311
vt 0.218401 0.034243
vt 0.218490 0.034259
vt 0.218464 0.034222
vt 0.218465 0.034244
vt 0.218419 0.034244
vt 0.104591 0.024924
vt 0.104509 0.024924
vt 0.104591 0.024609
vt 0.104509 0.024609
vt 0.104591 0.024924
vt 0.104509 0.024924
vt 0.104591 0.024609
vt 0.104509 0.024609
vt 0.104591 0.024924
vt 0.104509 0.024924
vt 0.104591 0.024609
vt 0.104509 0.024609
vt 0.104591 0.024924
vt 0.104509 0.024924
vt 0.104591 0.024609
vt 0.104509 0.024609
vt 0.104496 0.022772
vt 0.104451 0.022772
vt 0.104528 0.022740
vt 0.104419 0.022740
vt 0.104528 0.022695
vt 0.104419 0.022695
vt 0.104496 0.022663
vt 0.104451 0.022663
vt 0.449990 0.614088
vt 0.450047 0.614088
vt 0.449990 0.614253
vt 0.450047 0.614253
vt 0.450047 0.614088
vt 0.450047 0.614253
vt 0.450047 0.614088
vt 0.450047 0.614253
vt 0.450047 0.614088
vt 0.450047 0.614253
vt 0.629935 0.560905
vt 0.629948 0.560875
vt 0.630017 0.560905
vt 0.630005 0.560875
vt 0.630075 0.560847
vt 0.630045 0.560834
vt 0.630045 0.560777
vt 0.629907 0.560834
vt 0.629877 0.560847
vt 0.629877 0.560764
vt 0.629907 0.560777
vt 0.629935 0.560706
vt 0.629948 0.560737
vt 0.630017 0.560706
vt 0.630005 0.560737
vt 0.630075 0.560764
vt 0.104591 0.024924
vt 0.104509 0.024924
vt 0.104591 0.024609
vt 0.104509 0.024609
vt 0.104363 0.024739
vt 0.104281 0.024739
vt 0.104363 0.024425
vt 0.104281 0.024425
vt 0.104591 0.024924
vt 0.104509 0.024924
vt 0.104591 0.024609
vt 0.104509 0.024609
vt 0.104591 0.024924
vt 0.104509 0.024924
vt 0.104591 0.024609
vt 0.104509 0.024609
vt 0.216273 0.096140
vt 0.216331 0.096140
vt 0.216273 0.096170
vt 0.216331 0.096170
vt 0.216273 0.096140
vt 0.216273 0.096170
vt 0.216273 0.096140
vt 0.216273 0.096170
vt 0.216273 0.096140
vt 0.216273 0.096170
vt 0.216273 0.096140
vt 0.216273 0.096170
vt 0.216273 0.096140
vt 0.216273 0.096170
vt 0.216273 0.096140
vt 0.216273 0.096170
vt 0.104113 0.019671
vt 0.104031 0.019701
vt 0.104113 0.019701
vt 0.104031 0.019671
vt 0.104113 0.019671
vt 0.104031 0.019701
vt 0.104113 0.019701
vt 0.104031 0.019671
vt 0.104113 0.019671
vt 0.104031 0.019701
vt 0.104113 0.019701
vt 0.104031 0.019671
vt 0.104113 0.019671
vt 0.104031 0.019701
vt 0.104113 0.019701
vt 0.629947 0.560875
vt 0.629877 0.560847
vt 0.629907 0.560834
vt 0.629877 0.560764
vt 0.629907 0.560777
vt 0.629935 0.560706
vt 0.629947 0.560736
vt 0.630017 0.560706
vt 0.630005 0.560736
vt 0.630045 0.560777
vt 0.630075 0.560764
vt 0.630045 0.560834
vt 0.630075 0.560847
vt 0.630005 0.560875
vt 0.630017 0.560905
vt 0.629935 0.560905
vt 0.449990 0.614088
vt 0.449990 0.614253
vt 0.449990 0.614088
vt 0.449990 0.614253
vt 0.449990 0.614088
vt 0.449990 0.614253
vn 0.5008 -0.7065 -0.5000
vn 0.0008 -0.7071 -0.7071
vn -0.7063 -0.7079 0.0000
vn -0.4992 -0.7077 -0.5000
vn -0.4992 -0.7077 0.5000
vn 0.0008 -0.7071 0.7071
vn 0.5008 -0.7065 0.5000
vn 0.7079 -0.7063 0.0000
vn 0.7071 0.0008 -0.7071
vn 0.0000 0.0000 -1.0000
vn -0.7071 -0.0008 -0.7071
vn -1.0000 -0.0011 0.0000
vn 0.4992 0.7077 -0.5000
vn 0.7063 0.7079 0.0000
vn 0.4992 0.7077 0.5000
vn -0.0008 0.7071 0.7071
vn -0.5008 0.7065 0.5000
vn -0.7079 0.7063 0.0000
vn -0.5008 0.7065 -0.5000
vn -0.0008 0.7071 -0.7071
vn -0.0011 1.0000 0.0000
vn 0.0011 -1.0000 0.0000
vn 1.0000 0.0011 0.0000
vn 0.7071 0.0008 0.7071
vn -0.0000 -0.0000 1.0000
vn -0.7071 -0.0008 0.7071
usemtl Steel_-_Satin.004
s 1
f 1/1/1 2/2/1 3/3/1
f 3/3/1 2/2/1 4/4/1
f 5/5/2 6/6/2 2/7/2
f 2/7/2 6/6/2 4/4/2
f 7/8/3 8/9/3 9/10/3
f 9/10/3 8/9/3 10/11/3
f 5/12/4 8/9/4 6/13/4
f 6/13/4 8/9/4 7/14/4
f 9/10/5 10/15/5 11/16/5
f 11/16/5 10/15/5 12/17/5
f 11/18/6 12/19/6 13/20/6
f 13/20/6 12/19/6 14/21/6
f 13/20/7 14/22/7 15/23/7
f 15/23/7 14/22/7 16/24/7
f 3/25/8 15/26/8 1/27/8
f 1/27/8 15/26/8 16/28/8
f 3/25/9 4/29/9 17/30/9
f 17/30/9 4/29/9 18/31/9
f 4/4/10 6/6/10 18/32/10
f 18/32/10 6/6/10 19/33/10
f 6/13/11 7/8/11 19/34/11
f 19/34/11 7/8/11 20/35/11
f 7/36/12 9/37/12 20/38/12
f 20/38/12 9/37/12 21/39/12
f 22/40/13 23/41/13 24/42/13
f 24/42/13 23/41/13 25/43/13
f 26/44/14 27/45/14 22/40/14
f 22/40/14 27/45/14 23/41/14
f 28/46/15 29/47/15 26/48/15
f 26/48/15 29/47/15 27/45/15
f 30/49/16 31/50/16 28/51/16
f 28/51/16 31/50/16 29/47/16
f 30/49/17 32/52/17 31/53/17
f 31/53/17 32/52/17 33/54/17
f 34/55/18 33/56/18 35/57/18
f 35/57/18 33/56/18 32/58/18
f 36/59/19 34/60/19 37/61/19
f 37/61/19 34/60/19 35/62/19
f 25/43/20 36/59/20 24/63/20
f 24/63/20 36/59/20 37/64/20
f 33/65/12 34/66/12 38/67/12
f 38/67/12 34/66/12 39/68/12
f 34/69/11 36/70/11 39/71/11
f 39/71/11 36/70/11 40/72/11
f 36/73/10 25/74/10 40/75/10
f 40/75/10 25/74/10 41/76/10
f 25/77/9 23/78/9 41/79/9
f 41/79/9 23/78/9 42/80/9
f 24/81/21 37/82/21 22/83/21
f 22/83/21 37/82/21 35/84/21
f 22/83/21 35/84/21 26/85/21
f 26/85/21 35/84/21 32/86/21
f 26/85/21 32/86/21 28/87/21
f 28/87/21 32/86/21 30/88/21
f 50/89/9 49/90/9 1/91/9
f 1/91/9 49/90/9 2/92/9
f 49/90/10 48/93/10 2/92/10
f 2/92/10 48/93/10 5/94/10
f 48/93/11 46/95/11 5/94/11
f 5/94/11 46/95/11 8/96/11
f 46/95/12 43/97/12 8/96/12
f 8/96/12 43/97/12 10/98/12
f 39/99/22 51/100/22 38/101/22
f 38/101/22 51/100/22 52/102/22
f 38/101/22 52/102/22 53/103/22
f 53/103/22 52/102/22 54/104/22
f 53/103/22 54/104/22 55/105/22
f 51/100/22 39/99/22 56/106/22
f 56/106/22 39/99/22 40/107/22
f 56/106/22 40/107/22 41/108/22
f 56/106/22 41/108/22 57/109/22
f 57/109/22 41/108/22 42/110/22
f 57/109/22 42/110/22 58/111/22
f 58/111/22 42/110/22 59/112/22
f 58/111/22 59/112/22 60/113/22
f 60/113/22 59/112/22 61/114/22
f 60/113/22 61/114/22 55/105/22
f 55/105/22 61/114/22 53/103/22
f 23/115/23 27/116/23 42/117/23
f 42/117/23 27/116/23 59/118/23
f 27/119/24 29/120/24 59/121/24
f 59/121/24 29/120/24 61/122/24
f 29/123/25 31/124/25 61/125/25
f 61/125/25 31/124/25 53/126/25
f 31/127/26 33/128/26 53/129/26
f 53/129/26 33/128/26 38/130/26
f 62/131/11 63/132/11 56/133/11
f 56/133/11 63/132/11 51/134/11
f 64/135/10 62/131/10 57/136/10
f 57/136/10 62/131/10 56/133/10
f 65/137/9 64/135/9 58/138/9
f 58/138/9 64/135/9 57/136/9
f 66/139/23 65/137/23 60/140/23
f 60/140/23 65/137/23 58/138/23
f 67/141/24 66/139/24 55/142/24
f 55/142/24 66/139/24 60/140/24
f 68/143/25 67/141/25 54/144/25
f 54/144/25 67/141/25 55/142/25
f 69/145/26 68/143/26 52/146/26
f 52/146/26 68/143/26 54/144/26
f 63/132/12 69/145/12 51/134/12
f 51/134/12 69/145/12 52/146/12
f 15/23/23 3/147/23 70/148/23
f 70/148/23 3/147/23 17/149/23
f 13/150/24 15/151/24 71/152/24
f 71/152/24 15/151/24 70/153/24
f 11/154/25 13/155/25 72/156/25
f 72/156/25 13/155/25 71/157/25
f 9/158/26 11/159/26 21/160/26
f 21/160/26 11/159/26 72/161/26
f 62/162/21 20/163/21 63/164/21
f 63/164/21 20/163/21 21/165/21
f 63/164/21 21/165/21 69/166/21
f 69/166/21 21/165/21 72/167/21
f 69/166/21 72/167/21 68/168/21
f 68/168/21 72/167/21 71/169/21
f 68/168/21 71/169/21 67/170/21
f 67/170/21 71/169/21 66/171/21
f 66/171/21 71/169/21 70/172/21
f 66/171/21 70/172/21 65/173/21
f 65/173/21 70/172/21 17/174/21
f 65/173/21 17/174/21 64/175/21
f 64/175/21 17/174/21 18/176/21
f 64/175/21 18/176/21 19/177/21
f 20/163/21 62/162/21 19/177/21
f 19/177/21 62/162/21 64/175/21
f 47/178/23 50/89/23 16/179/23
f 16/179/23 50/89/23 1/91/23
f 45/180/24 47/178/24 14/181/24
f 14/181/24 47/178/24 16/179/24
f 44/182/25 45/180/25 12/183/25
f 12/183/25 45/180/25 14/181/25
f 43/97/26 44/182/26 10/98/26
f 10/98/26 44/182/26 12/183/26
