# Blender v2.79 (sub 0) OBJ File: ''
# www.blender.org
mtllib BF_Gattling_cannon.mtl
o Cube_Cube.001
v 1.100000 -0.862520 0.903689
v 1.100000 0.751414 0.903689
v 1.100000 0.751414 -0.906063
v 1.100000 -0.862520 -0.906063
v 1.700000 0.751414 -0.906063
v 1.700000 -0.351592 -0.906063
v 1.700000 0.751414 0.903689
v 1.700000 -0.351592 0.903689
v 1.400000 0.411086 0.903689
v 1.400000 0.551230 0.903689
v 1.282052 0.551230 0.903689
v 1.250100 0.400033 0.903689
v -1.100000 -0.862520 -0.906063
v -1.100000 0.751414 -0.906063
v -1.100000 0.751414 0.903689
v -1.100000 -0.862520 0.903689
v -1.400000 0.411086 0.903689
v -1.400000 0.580812 0.903689
v -1.529398 0.536782 0.903689
v -1.549613 0.414399 0.903689
v -1.700000 -0.351592 0.903689
v -1.700000 0.751414 0.903689
v -1.700000 0.751414 -0.906063
v -1.700000 -0.351592 -0.906063
v 1.630000 0.394447 0.898813
v 1.562635 0.557082 0.898813
v 1.530815 0.525262 0.943813
v 1.585000 0.394447 0.943813
v 1.498995 0.493442 0.898813
v 1.540000 0.394447 0.898813
v 1.530815 0.525262 0.853813
v 1.585000 0.394447 0.853813
v 1.400000 0.624447 0.898813
v 1.400000 0.579447 0.943813
v 1.400000 0.534447 0.898813
v 1.400000 0.579447 0.853813
v 1.237365 0.557082 0.898813
v 1.269185 0.525262 0.943813
v 1.301005 0.493442 0.898813
v 1.269185 0.525262 0.853813
v 1.170000 0.394447 0.898813
v 1.215000 0.394447 0.943813
v 1.260000 0.394447 0.898813
v 1.215000 0.394447 0.853813
v 1.237365 0.231812 0.898813
v 1.269185 0.263632 0.943813
v 1.301005 0.295452 0.898813
v 1.269185 0.263632 0.853813
v 1.400000 0.164447 0.898813
v 1.400000 0.209447 0.943813
v 1.400000 0.254447 0.898813
v 1.400000 0.209447 0.853813
v 1.562634 0.231812 0.898813
v 1.530815 0.263632 0.943813
v 1.498995 0.295452 0.898813
v 1.530815 0.263632 0.853813
v -1.170000 0.394447 0.898813
v -1.237365 0.557082 0.898813
v -1.269185 0.525262 0.943813
v -1.215000 0.394447 0.943813
v -1.301005 0.493442 0.898813
v -1.260000 0.394447 0.898813
v -1.269185 0.525262 0.853813
v -1.215000 0.394447 0.853813
v -1.400000 0.624447 0.898813
v -1.400000 0.579447 0.943813
v -1.400000 0.534447 0.898813
v -1.400000 0.579447 0.853813
v -1.562635 0.557082 0.898813
v -1.530815 0.525262 0.943813
v -1.498995 0.493442 0.898813
v -1.530815 0.525262 0.853813
v -1.630000 0.394447 0.898813
v -1.585000 0.394447 0.943813
v -1.540000 0.394447 0.898813
v -1.585000 0.394447 0.853813
v -1.562635 0.231812 0.898813
v -1.530815 0.263632 0.943813
v -1.498995 0.295452 0.898813
v -1.530815 0.263632 0.853813
v -1.400000 0.164447 0.898813
v -1.400000 0.209447 0.943813
v -1.400000 0.254447 0.898813
v -1.400000 0.209447 0.853813
v -1.237366 0.231812 0.898813
v -1.269185 0.263632 0.943813
v -1.301005 0.295452 0.898813
v -1.269185 0.263632 0.853813
v -1.182402 -0.055553 -0.686632
v 1.182402 -0.055553 -0.686632
v 1.182402 -0.189277 -0.673462
v -1.182402 -0.189277 -0.673462
v 1.182402 -0.317861 -0.634456
v -1.182402 -0.317861 -0.634456
v 1.182402 -0.436366 -0.571114
v -1.182402 -0.436366 -0.571114
v 1.182402 -0.540236 -0.485871
v -1.182402 -0.540236 -0.485871
v 1.182402 -0.625480 -0.382000
v -1.182402 -0.625480 -0.382000
v 1.182402 -0.688822 -0.263495
v -1.182402 -0.688822 -0.263495
v 1.182402 -0.727827 -0.134911
v -1.182402 -0.727827 -0.134911
v 1.182402 -0.740998 -0.001187
v -1.182402 -0.740998 -0.001187
v 1.182402 -0.727827 0.132536
v -1.182402 -0.727827 0.132536
v 1.182402 -0.688822 0.261121
v -1.182402 -0.688822 0.261121
v 1.182402 -0.625480 0.379626
v -1.182402 -0.625480 0.379626
v 1.182402 -0.540236 0.483497
v -1.182402 -0.540236 0.483497
v 1.182402 -0.436366 0.568740
v -1.182402 -0.436366 0.568740
v 1.182402 -0.317861 0.632082
v -1.182402 -0.317861 0.632082
v 1.182402 -0.189277 0.671088
v -1.182402 -0.189276 0.671088
v 1.182402 -0.055553 0.684258
v -1.182402 -0.055553 0.684258
v 1.182402 0.078171 0.671088
v -1.182402 0.078171 0.671088
v 1.182402 0.206756 0.632082
v -1.182402 0.206756 0.632082
v 1.182402 0.325260 0.568739
v -1.182402 0.325260 0.568739
v 1.182402 0.429130 0.483495
v -1.182402 0.429130 0.483495
v 1.182402 0.514374 0.379625
v -1.182402 0.514374 0.379625
v 1.182402 0.577716 0.261121
v -1.182402 0.577716 0.261121
v 1.182402 0.616722 0.132536
v -1.182402 0.616722 0.132536
v 1.182402 0.629892 -0.001188
v -1.182402 0.629892 -0.001188
v 1.182402 0.616721 -0.134911
v -1.182402 0.616721 -0.134911
v 1.182402 0.577715 -0.263497
v -1.182402 0.577716 -0.263497
v 1.182402 0.514373 -0.382000
v -1.182402 0.514374 -0.382000
v 1.182402 0.429129 -0.485871
v -1.182402 0.429129 -0.485871
v 1.182402 0.325259 -0.571114
v -1.182402 0.325259 -0.571114
v 1.182402 0.206755 -0.634456
v -1.182402 0.206755 -0.634456
v 1.182402 0.078170 -0.673462
v -1.182402 0.078170 -0.673462
v 1.245106 0.268448 0.903689
v 1.517948 0.551230 0.903689
v 1.551935 0.401693 0.903689
v 1.554894 0.273435 0.903689
v 1.400000 0.235581 0.903689
v -1.270602 0.549112 0.903689
v -1.250387 0.407773 0.903689
v -1.268586 0.234733 0.903689
v -1.400000 0.241360 0.903689
v -1.534037 0.247986 0.903689
vt 0.088014 0.547675
vt 0.409012 0.547675
vt 0.409012 0.925654
vt 0.088014 0.925654
vt 0.234723 0.950784
vt 0.234723 0.613704
vt 0.354057 0.613704
vt 0.354057 0.844074
vt 0.367743 0.950457
vt 0.148365 0.950457
vt 0.148365 0.572478
vt 0.367743 0.572478
vt 0.853721 0.660642
vt 0.853721 0.689912
vt 0.830262 0.689912
vt 0.823907 0.658334
vt 0.246134 0.922553
vt 0.144515 0.922553
vt 0.144515 0.544575
vt 0.246134 0.544575
vt 0.280234 0.933605
vt 0.160899 0.933605
vt 0.160899 0.555627
vt 0.280234 0.555627
vt 0.459897 0.948880
vt 0.138900 0.948880
vt 0.138900 0.570902
vt 0.459897 0.570902
vt 0.860059 0.665283
vt 0.860059 0.629834
vt 0.885795 0.639031
vt 0.889816 0.664591
vt 0.322731 0.948880
vt 0.103353 0.948880
vt 0.103353 0.570902
vt 0.322731 0.570902
vt 0.167038 0.778568
vt 0.167038 0.548198
vt 0.286373 0.548198
vt 0.286373 0.885279
vt 0.424351 0.948880
vt 0.424351 0.570902
vt 0.223662 0.570392
vt 0.342997 0.570392
vt 0.342997 0.948370
vt 0.223662 0.948370
vt 0.562218 0.820929
vt 0.562218 0.854896
vt 0.553268 0.848250
vt 0.553268 0.820929
vt 0.555403 0.913495
vt 0.555403 0.886174
vt 0.564353 0.892820
vt 0.564353 0.913495
vt 0.231060 0.783279
vt 0.231060 0.762603
vt 0.240011 0.755957
vt 0.240011 0.783279
vt 0.096809 0.789925
vt 0.096809 0.817246
vt 0.087858 0.823892
vt 0.087858 0.789925
vt 0.555462 0.790062
vt 0.555462 0.824029
vt 0.546512 0.824029
vt 0.546512 0.796707
vt 0.549526 0.942367
vt 0.538749 0.915045
vt 0.547700 0.915045
vt 0.555855 0.935721
vt 0.310817 0.762603
vt 0.302662 0.783279
vt 0.293711 0.783279
vt 0.304488 0.755957
vt 0.150509 0.762603
vt 0.150509 0.789925
vt 0.141559 0.789925
vt 0.141559 0.755957
vt 0.555462 0.857996
vt 0.546512 0.851350
vt 0.549526 0.887724
vt 0.555855 0.894370
vt 0.310817 0.803955
vt 0.304488 0.810600
vt 0.150509 0.817246
vt 0.141559 0.823892
vt 0.561516 0.857996
vt 0.561516 0.824029
vt 0.570467 0.824029
vt 0.570467 0.851350
vt 0.564704 0.890824
vt 0.564704 0.918146
vt 0.555754 0.918146
vt 0.555754 0.897470
vt 0.213160 0.762603
vt 0.213160 0.783279
vt 0.204210 0.783279
vt 0.204210 0.755957
vt 0.096809 0.817246
vt 0.096809 0.789925
vt 0.105759 0.789925
vt 0.105759 0.823892
vt 0.561516 0.790062
vt 0.570467 0.796707
vt 0.564704 0.945467
vt 0.555754 0.938822
vt 0.213160 0.803955
vt 0.204210 0.810600
vt 0.096809 0.762603
vt 0.105759 0.755957
vt 0.557092 0.857996
vt 0.543693 0.824029
vt 0.552644 0.824029
vt 0.563420 0.851350
vt 0.574151 0.884624
vt 0.574151 0.911945
vt 0.565201 0.911945
vt 0.565201 0.891269
vt 0.248961 0.762603
vt 0.248961 0.783279
vt 0.240011 0.783279
vt 0.240011 0.755957
vt 0.078908 0.762603
vt 0.068131 0.789925
vt 0.059181 0.789925
vt 0.072580 0.755957
vt 0.557092 0.790062
vt 0.563420 0.796707
vt 0.574151 0.939267
vt 0.565201 0.932621
vt 0.248961 0.803955
vt 0.240011 0.810600
vt 0.078908 0.817246
vt 0.072580 0.823892
vt 0.562218 0.786961
vt 0.553268 0.793607
vt 0.555403 0.940817
vt 0.564353 0.934171
vt 0.231060 0.803955
vt 0.096809 0.762603
vt 0.087858 0.755957
vt 0.559264 0.820929
vt 0.559264 0.854896
vt 0.550314 0.848250
vt 0.550314 0.820929
vt 0.570759 0.913495
vt 0.570759 0.886174
vt 0.579709 0.892820
vt 0.579709 0.913495
vt 0.195260 0.783279
vt 0.195260 0.762603
vt 0.204210 0.755957
vt 0.204210 0.783279
vt 0.132609 0.789925
vt 0.132609 0.817246
vt 0.123659 0.823892
vt 0.123659 0.789925
vt 0.551659 0.779210
vt 0.551659 0.813178
vt 0.542709 0.813178
vt 0.542709 0.785856
vt 0.560324 0.943917
vt 0.549547 0.916596
vt 0.558497 0.916596
vt 0.566653 0.937271
vt 0.362134 0.762603
vt 0.353979 0.783279
vt 0.345028 0.783279
vt 0.355805 0.755957
vt 0.168410 0.762603
vt 0.168410 0.789925
vt 0.159460 0.789925
vt 0.159460 0.755957
vt 0.551659 0.847145
vt 0.542709 0.840499
vt 0.560324 0.889274
vt 0.566653 0.895920
vt 0.362134 0.803955
vt 0.355805 0.810600
vt 0.168410 0.817246
vt 0.159460 0.823892
vt 0.558708 0.854896
vt 0.558708 0.820929
vt 0.567658 0.820929
vt 0.567658 0.848250
vt 0.568096 0.898575
vt 0.568096 0.925897
vt 0.559146 0.925897
vt 0.559146 0.905221
vt 0.284761 0.762603
vt 0.284761 0.783279
vt 0.275811 0.783279
vt 0.275811 0.755957
vt 0.168410 0.789925
vt 0.177360 0.789925
vt 0.177360 0.823892
vt 0.558708 0.786961
vt 0.567658 0.793607
vt 0.568096 0.953218
vt 0.559146 0.946573
vt 0.284761 0.803954
vt 0.275811 0.810600
vt 0.168410 0.762603
vt 0.177360 0.755957
vt 0.571469 0.854896
vt 0.558071 0.820929
vt 0.567021 0.820929
vt 0.577798 0.848250
vt 0.568798 0.889274
vt 0.568798 0.916596
vt 0.559848 0.916596
vt 0.559848 0.895920
vt 0.266861 0.762603
vt 0.266861 0.783279
vt 0.257911 0.783279
vt 0.257911 0.755957
vt 0.059181 0.762603
vt 0.048404 0.789925
vt 0.039454 0.789925
vt 0.052853 0.755957
vt 0.571469 0.786961
vt 0.577798 0.793607
vt 0.568798 0.943917
vt 0.559848 0.937271
vt 0.266861 0.803955
vt 0.257911 0.810600
vt 0.059181 0.817246
vt 0.052853 0.823892
vt 0.559264 0.786961
vt 0.550314 0.793607
vt 0.570759 0.940817
vt 0.579709 0.934171
vt 0.195260 0.803955
vt 0.204210 0.810600
vt 0.132609 0.762603
vt 0.123659 0.755957
vt 0.576873 0.893063
vt 0.565247 0.998827
vt 0.556115 0.998827
vt 0.569292 0.886862
vt 0.547334 0.998827
vt 0.559348 0.885312
vt 0.539242 0.998827
vt 0.548931 0.884924
vt 0.532149 0.998827
vt 0.533699 0.887637
vt 0.532408 0.998845
vt 0.530858 0.890755
vt 0.555778 0.878354
vt 0.539501 0.998845
vt 0.559607 0.889593
vt 0.547593 0.998845
vt 0.561412 0.888818
vt 0.556374 0.998845
vt 0.579457 0.899669
vt 0.565506 0.998845
vt 0.583551 0.889205
vt 0.574637 0.998845
vt 0.585743 0.887655
vt 0.583418 0.998845
vt 0.596936 0.879904
vt 0.591510 0.998845
vt 0.603254 0.879516
vt 0.598603 0.998845
vt 0.532022 0.998595
vt 0.545586 0.885533
vt 0.551129 0.886858
vt 0.539115 0.998758
vt 0.566585 0.891630
vt 0.547207 0.998879
vt 0.567227 0.885503
vt 0.555988 0.998954
vt 0.576358 0.890567
vt 0.565120 0.998979
vt 0.585103 0.885116
vt 0.574251 0.998954
vt 0.590008 0.888529
vt 0.583032 0.998879
vt 0.599263 0.881432
vt 0.591124 0.998758
vt 0.603643 0.887083
vt 0.598217 0.998595
vt 0.532244 0.998210
vt 0.548134 0.887408
vt 0.558327 0.893996
vt 0.539337 0.998210
vt 0.569132 0.893609
vt 0.547430 0.998210
vt 0.567449 0.894384
vt 0.556210 0.998210
vt 0.578131 0.890896
vt 0.565342 0.998210
vt 0.580675 0.888958
vt 0.574474 0.998210
vt 0.589068 0.887795
vt 0.583255 0.998210
vt 0.596385 0.885858
vt 0.591347 0.998210
vt 0.598827 0.885470
vt 0.598440 0.998210
vt 0.604545 0.883762
vt 0.598345 0.998827
vt 0.591252 0.998827
vt 0.601328 0.894225
vt 0.583159 0.998827
vt 0.592073 0.889187
vt 0.231773 0.858963
vt 0.229984 0.850175
vt 0.229984 0.841215
vt 0.231773 0.832427
vt 0.235282 0.824149
vt 0.240375 0.816699
vt 0.246859 0.810364
vt 0.254482 0.805387
vt 0.262953 0.801960
vt 0.271945 0.800213
vt 0.281114 0.800214
vt 0.290106 0.801964
vt 0.298577 0.805394
vt 0.306200 0.810373
vt 0.312683 0.816710
vt 0.317777 0.824161
vt 0.321286 0.832440
vt 0.323075 0.841229
vt 0.323075 0.850189
vt 0.321286 0.858977
vt 0.317777 0.867255
vt 0.312683 0.874704
vt 0.306200 0.881039
vt 0.298577 0.886016
vt 0.290106 0.889444
vt 0.281114 0.891191
vt 0.271945 0.891189
vt 0.262953 0.889440
vt 0.254482 0.886010
vt 0.246859 0.881030
vt 0.240376 0.874693
vt 0.235282 0.867242
vt 0.574378 0.998827
vt 0.585230 0.891512
vt 0.169815 0.889442
vt 0.161338 0.886013
vt 0.153708 0.881035
vt 0.147220 0.874699
vt 0.142122 0.867248
vt 0.138611 0.858970
vt 0.136820 0.850182
vt 0.136820 0.841221
vt 0.138610 0.832433
vt 0.142122 0.824155
vt 0.147220 0.816704
vt 0.153708 0.810368
vt 0.161337 0.805390
vt 0.169815 0.801961
vt 0.178814 0.800213
vt 0.187990 0.800213
vt 0.196990 0.801961
vt 0.205467 0.805390
vt 0.213097 0.810368
vt 0.219585 0.816704
vt 0.224683 0.824155
vt 0.228194 0.832433
vt 0.229984 0.841221
vt 0.229984 0.850182
vt 0.228194 0.858970
vt 0.224683 0.867248
vt 0.219585 0.874699
vt 0.213097 0.881035
vt 0.205467 0.886013
vt 0.196990 0.889442
vt 0.187990 0.891190
vt 0.178814 0.891190
vt 0.230349 0.855817
vt 0.231343 0.883300
vt 0.237697 0.914878
vt 0.201489 0.956688
vt 0.201489 0.619607
vt 0.220635 0.885349
vt 0.227394 0.854117
vt 0.227983 0.827329
vt 0.256843 0.696788
vt 0.256843 0.927158
vt 0.652509 0.747284
vt 0.621702 0.739378
vt 0.590895 0.746243
vt 0.562034 0.510032
vt 0.681369 0.616743
vt 0.232776 0.713094
vt 0.256235 0.713094
vt 0.279694 0.713094
vt 0.315902 0.754904
vt 0.196567 0.754904
vt 0.173927 0.636269
vt 0.169906 0.665789
vt 0.173526 0.701929
vt 0.139996 0.931098
vt 0.139996 0.594017
vt 0.586851 0.749583
vt 0.617638 0.742579
vt 0.648754 0.750884
vt 0.677306 0.620134
vt 0.558032 0.512814
vt 0.225399 0.702825
vt 0.199663 0.693629
vt 0.173927 0.700250
vt 0.139996 0.657998
vt 0.259330 0.657998
vt 0.186949 0.743456
vt 0.190047 0.708699
vt 0.186027 0.683139
vt 0.219958 0.638311
vt 0.219958 0.868681
vt 0.853721 0.623987
vt 0.822913 0.630851
vt 0.884528 0.631893
vt 0.883939 0.658680
vt 0.877180 0.689912
vt 0.860059 0.700731
vt 0.886718 0.699347
vt 0.833922 0.702115
vt 0.830303 0.665975
vt 0.834323 0.636455
vn -1.0000 0.0000 0.0000
vn -0.0000 0.0000 -1.0000
vn 1.0000 0.0000 0.0000
vn 0.0000 -0.0000 1.0000
vn 0.6483 -0.7614 -0.0000
vn 0.0000 1.0000 0.0000
vn -0.6483 -0.7614 -0.0000
vn 0.6786 0.2811 0.6786
vn -0.6786 -0.2811 0.6786
vn -0.6786 -0.2811 -0.6786
vn 0.6786 0.2811 -0.6786
vn 0.2811 0.6786 0.6786
vn -0.2811 -0.6786 0.6786
vn -0.2811 -0.6786 -0.6786
vn 0.2811 0.6786 -0.6786
vn -0.2811 0.6786 0.6786
vn 0.2811 -0.6786 0.6786
vn 0.2811 -0.6786 -0.6786
vn -0.2811 0.6786 -0.6786
vn -0.6786 0.2811 0.6786
vn 0.6786 -0.2811 0.6786
vn 0.6786 -0.2811 -0.6786
vn -0.6786 0.2811 -0.6786
vn 0.0000 -0.0980 -0.9952
vn 0.0000 -0.2903 -0.9569
vn 0.0000 -0.4714 -0.8819
vn 0.0000 -0.6344 -0.7730
vn 0.0000 -0.7730 -0.6344
vn 0.0000 -0.8819 -0.4714
vn 0.0000 -0.9569 -0.2903
vn 0.0000 -0.9952 -0.0980
vn 0.0000 -0.9952 0.0980
vn 0.0000 -0.9569 0.2903
vn 0.0000 -0.8819 0.4714
vn 0.0000 -0.7730 0.6344
vn 0.0000 -0.6344 0.7730
vn 0.0000 -0.4714 0.8819
vn -0.0000 -0.2903 0.9569
vn -0.0000 -0.0980 0.9952
vn 0.0000 0.0980 0.9952
vn 0.0000 0.2903 0.9569
vn 0.0000 0.4714 0.8819
vn 0.0000 0.6344 0.7730
vn 0.0000 0.7730 0.6344
vn 0.0000 0.8819 0.4714
vn 0.0000 0.9569 0.2903
vn 0.0000 0.9952 0.0980
vn 0.0000 0.9952 -0.0980
vn 0.0000 0.9569 -0.2903
vn 0.0000 0.8819 -0.4714
vn 0.0000 0.7730 -0.6344
vn 0.0000 0.6344 -0.7730
vn 0.0000 0.4714 -0.8819
vn 0.0000 0.2903 -0.9569
vn 0.0000 0.0980 -0.9952
usemtl Material.001
s 1
f 1/1/1 2/2/1 3/3/1 4/4/1
f 4/5/2 3/6/2 5/7/2 6/8/2
f 6/9/3 5/10/3 7/11/3 8/12/3
f 9/13/4 10/14/4 11/15/4 12/16/4
f 4/17/5 6/18/5 8/19/5 1/20/5
f 5/21/6 3/22/6 2/23/6 7/24/6
f 13/25/3 14/26/3 15/27/3 16/28/3
f 17/29/4 18/30/4 19/31/4 20/32/4
f 21/33/1 22/34/1 23/35/1 24/36/1
f 24/37/2 23/38/2 14/39/2 13/40/2
f 16/41/7 21/33/7 24/36/7 13/42/7
f 22/43/6 15/44/6 14/45/6 23/46/6
f 25/47/8 26/48/8 27/49/8 28/50/8
f 28/51/9 27/52/9 29/53/9 30/54/9
f 30/55/10 29/56/10 31/57/10 32/58/10
f 32/59/11 31/60/11 26/61/11 25/62/11
f 26/63/12 33/64/12 34/65/12 27/66/12
f 27/67/13 34/68/13 35/69/13 29/70/13
f 29/71/14 35/72/14 36/73/14 31/74/14
f 31/75/15 36/76/15 33/77/15 26/78/15
f 33/64/16 37/79/16 38/80/16 34/65/16
f 34/68/17 38/81/17 39/82/17 35/69/17
f 35/72/18 39/83/18 40/84/18 36/73/18
f 36/76/19 40/85/19 37/86/19 33/77/19
f 37/87/20 41/88/20 42/89/20 38/90/20
f 38/91/21 42/92/21 43/93/21 39/94/21
f 39/95/22 43/96/22 44/97/22 40/98/22
f 40/99/23 44/100/23 41/101/23 37/102/23
f 41/88/9 45/103/9 46/104/9 42/89/9
f 42/92/8 46/105/8 47/106/8 43/93/8
f 43/96/11 47/107/11 48/108/11 44/97/11
f 44/100/10 48/109/10 45/110/10 41/101/10
f 45/111/13 49/112/13 50/113/13 46/114/13
f 46/115/12 50/116/12 51/117/12 47/118/12
f 47/119/15 51/120/15 52/121/15 48/122/15
f 48/123/14 52/124/14 49/125/14 45/126/14
f 49/112/17 53/127/17 54/128/17 50/113/17
f 50/116/16 54/129/16 55/130/16 51/117/16
f 51/120/19 55/131/19 56/132/19 52/121/19
f 52/124/18 56/133/18 53/134/18 49/125/18
f 53/135/21 25/47/21 28/50/21 54/136/21
f 54/137/20 28/51/20 30/54/20 55/138/20
f 55/139/23 30/55/23 32/58/23 56/132/23
f 56/140/22 32/59/22 25/62/22 53/141/22
f 57/142/8 58/143/8 59/144/8 60/145/8
f 60/146/9 59/147/9 61/148/9 62/149/9
f 62/150/10 61/151/10 63/152/10 64/153/10
f 64/154/11 63/155/11 58/156/11 57/157/11
f 58/158/12 65/159/12 66/160/12 59/161/12
f 59/162/13 66/163/13 67/164/13 61/165/13
f 61/166/14 67/167/14 68/168/14 63/169/14
f 63/170/15 68/171/15 65/172/15 58/173/15
f 65/159/16 69/174/16 70/175/16 66/160/16
f 66/163/17 70/176/17 71/177/17 67/164/17
f 67/167/18 71/178/18 72/179/18 68/168/18
f 68/171/19 72/180/19 69/181/19 65/172/19
f 69/182/20 73/183/20 74/184/20 70/185/20
f 70/186/21 74/187/21 75/188/21 71/189/21
f 71/190/22 75/191/22 76/192/22 72/193/22
f 72/180/23 76/194/23 73/195/23 69/196/23
f 73/183/9 77/197/9 78/198/9 74/184/9
f 74/187/8 78/199/8 79/200/8 75/188/8
f 75/191/11 79/201/11 80/202/11 76/192/11
f 76/194/10 80/203/10 77/204/10 73/195/10
f 77/205/13 81/206/13 82/207/13 78/208/13
f 78/209/12 82/210/12 83/211/12 79/212/12
f 79/213/15 83/214/15 84/215/15 80/216/15
f 80/217/14 84/218/14 81/219/14 77/220/14
f 81/206/17 85/221/17 86/222/17 82/207/17
f 82/210/16 86/223/16 87/224/16 83/211/16
f 83/214/19 87/225/19 88/226/19 84/215/19
f 84/218/18 88/227/18 85/228/18 81/219/18
f 85/229/21 57/142/21 60/145/21 86/230/21
f 86/231/20 60/146/20 62/149/20 87/232/20
f 87/233/23 62/150/23 64/153/23 88/234/23
f 88/235/22 64/154/22 57/157/22 85/236/22
f 89/237/24 90/238/24 91/239/24 92/240/24
f 92/240/25 91/239/25 93/241/25 94/242/25
f 94/242/26 93/241/26 95/243/26 96/244/26
f 96/244/27 95/243/27 97/245/27 98/246/27
f 98/247/28 97/248/28 99/249/28 100/250/28
f 100/250/29 99/249/29 101/251/29 102/252/29
f 102/252/30 101/251/30 103/253/30 104/254/30
f 104/254/31 103/253/31 105/255/31 106/256/31
f 106/256/32 105/255/32 107/257/32 108/258/32
f 108/258/33 107/257/33 109/259/33 110/260/33
f 110/260/34 109/259/34 111/261/34 112/262/34
f 112/262/35 111/261/35 113/263/35 114/264/35
f 114/265/36 113/266/36 115/267/36 116/268/36
f 116/268/37 115/267/37 117/269/37 118/270/37
f 118/270/38 117/269/38 119/271/38 120/272/38
f 120/272/39 119/271/39 121/273/39 122/274/39
f 122/274/40 121/273/40 123/275/40 124/276/40
f 124/276/41 123/275/41 125/277/41 126/278/41
f 126/278/42 125/277/42 127/279/42 128/280/42
f 128/280/43 127/279/43 129/281/43 130/282/43
f 130/283/44 129/284/44 131/285/44 132/286/44
f 132/286/45 131/285/45 133/287/45 134/288/45
f 134/288/46 133/287/46 135/289/46 136/290/46
f 136/290/47 135/289/47 137/291/47 138/292/47
f 138/292/48 137/291/48 139/293/48 140/294/48
f 140/294/49 139/293/49 141/295/49 142/296/49
f 142/296/50 141/295/50 143/297/50 144/298/50
f 144/298/51 143/297/51 145/299/51 146/300/51
f 146/301/52 145/302/52 147/303/52 148/304/52
f 148/304/53 147/303/53 149/305/53 150/306/53
f 91/307/3 90/308/3 151/309/3 149/310/3 147/311/3 145/312/3 143/313/3 141/314/3 139/315/3 137/316/3 135/317/3 133/318/3 131/319/3 129/320/3 127/321/3 125/322/3 123/323/3 121/324/3 119/325/3 117/326/3 115/327/3 113/328/3 111/329/3 109/330/3 107/331/3 105/332/3 103/333/3 101/334/3 99/335/3 97/336/3 95/337/3 93/338/3
f 150/306/54 149/305/54 151/339/54 152/340/54
f 152/340/55 151/339/55 90/238/55 89/237/55
f 89/341/1 92/342/1 94/343/1 96/344/1 98/345/1 100/346/1 102/347/1 104/348/1 106/349/1 108/350/1 110/351/1 112/352/1 114/353/1 116/354/1 118/355/1 120/356/1 122/357/1 124/358/1 126/359/1 128/360/1 130/361/1 132/362/1 134/363/1 136/364/1 138/365/1 140/366/1 142/367/1 144/368/1 146/369/1 148/370/1 150/371/1 152/372/1
f 153/373/4 12/374/4 11/375/4 2/376/4 1/377/4
f 154/378/4 155/379/4 156/380/4 8/381/4 7/382/4
f 156/383/4 157/384/4 153/385/4 1/386/4 8/387/4
f 11/388/4 10/389/4 154/390/4 7/391/4 2/392/4
f 158/393/4 159/394/4 160/395/4 16/396/4 15/397/4
f 160/398/4 161/399/4 162/400/4 21/401/4 16/402/4
f 19/403/4 18/404/4 158/405/4 15/406/4 22/407/4
f 162/408/4 20/409/4 19/410/4 22/411/4 21/412/4
f 157/413/4 9/13/4 12/16/4 153/414/4
f 156/415/4 155/416/4 9/13/4 157/413/4
f 155/416/4 154/417/4 10/14/4 9/13/4
f 161/418/4 17/29/4 20/32/4 162/419/4
f 160/420/4 159/421/4 17/29/4 161/418/4
f 159/421/4 158/422/4 18/30/4 17/29/4
