# Blender v2.80 (sub 75) OBJ File: 'BF_Sky_Platform_Base_Ramp.blend'
# www.blender.org
mtllib BF_Sky_Platform_Base_Ramp_Anchor.mtl
o BF_Sky_Platform_Base_Ramp_Anchor
v 3.454410 0.564044 1.914720
v 3.454410 0.584044 1.914720
v 3.454410 0.733206 1.495460
v 3.454410 0.601365 1.495460
v 3.454410 0.452203 1.914720
v -0.444458 0.594044 1.914720
v 3.444410 0.594044 1.914720
v 3.444410 0.574044 1.914720
v -0.444458 0.574044 1.914720
v -0.454458 0.564044 1.914720
v -0.454458 0.584044 1.914720
v -0.444473 0.743187 1.495480
v 3.444430 0.743187 1.495480
v -0.454458 0.733206 1.495460
v -0.454458 0.452203 1.914720
v -0.454458 0.601365 1.495460
v -0.454458 0.413206 2.338690
v -0.454458 0.393206 2.338690
v -0.454458 0.281365 2.338690
v -0.454458 0.432203 1.914720
v -0.444458 0.423206 2.338690
v 3.444410 0.423206 2.338690
v 3.454410 0.413206 2.338690
v 3.454410 0.393206 2.338690
v 3.444410 0.403206 2.338690
v -0.444458 0.403206 2.338690
v 3.454410 0.432203 1.914720
v 3.454410 0.281365 2.338690
v -0.444458 0.442203 1.914720
v 3.444410 0.442203 1.914720
v 3.444410 0.422203 1.914720
v -0.444458 0.422203 1.914720
v -0.444458 0.591365 1.495460
v 3.444410 0.591365 1.495460
v 3.444410 0.271365 2.338690
v -0.444458 0.271365 2.338690
v -0.444458 0.251365 2.338690
v -0.454458 0.261365 2.338690
v 3.454410 0.261365 2.338690
v 3.444410 0.251365 2.338690
v -0.454458 0.110527 2.762650
v -0.444458 0.100527 2.762650
v -0.454458 0.242368 2.762650
v -0.454458 0.222368 2.762650
v -0.444458 0.252368 2.762650
v 3.444410 0.252368 2.762650
v 3.454410 0.242368 2.762650
v 3.454410 0.222368 2.762650
v 3.454410 0.110527 2.762650
v 3.444410 0.232368 2.762650
v -0.444458 0.232368 2.762650
v 3.454410 0.071530 3.186620
v 3.444430 0.081511 3.186630
v 3.444410 0.081530 3.186620
v 3.449170 0.073969 3.191330
v -0.444473 0.081511 3.186630
v -0.444458 0.081530 3.186620
v -0.449210 0.073969 3.191330
v -0.454458 0.071530 3.186620
v -0.454458 -0.060311 3.186620
v -0.449210 -0.062376 3.191330
v -0.454458 0.090526 2.762650
v -0.444458 -0.070311 3.186620
v -0.444458 0.080526 2.762650
v 3.449170 -0.062376 3.191330
v 3.444410 -0.070311 3.186620
v 3.454410 -0.060311 3.186620
v 3.454410 0.090526 2.762650
v 3.444410 0.080526 2.762650
v 3.444410 0.100527 2.762650
vt 0.556159 0.937387
vt 0.560166 0.926123
vt 0.560698 0.926123
vt 0.564705 0.914858
vt 0.565237 0.914858
vt 0.569200 0.903718
vt 0.572703 0.903718
vt 0.568740 0.914858
vt 0.568208 0.914858
vt 0.564201 0.926123
vt 0.563669 0.926123
vt 0.559662 0.937387
vt 0.559130 0.937387
vt 0.555122 0.948652
vt 0.551619 0.948652
vt 0.555627 0.937387
vt 0.508565 0.939922
vt 0.508300 0.939657
vt 0.508300 0.939125
vt 0.508565 0.939391
vt 0.611892 0.939391
vt 0.612157 0.939125
vt 0.612157 0.939657
vt 0.611892 0.939922
vt 0.508565 0.914858
vt 0.611892 0.914858
vt 0.611892 0.903719
vt 0.508565 0.903719
vt 0.568740 0.914858
vt 0.569005 0.914858
vt 0.572968 0.903719
vt 0.572703 0.903718
vt 0.555122 0.948652
vt 0.559130 0.937387
vt 0.559662 0.937387
vt 0.563669 0.926123
vt 0.564201 0.926123
vt 0.568208 0.914858
vt 0.569200 0.903718
vt 0.565237 0.914858
vt 0.564705 0.914858
vt 0.560698 0.926123
vt 0.560166 0.926123
vt 0.556159 0.937387
vt 0.555627 0.937387
vt 0.551619 0.948652
vt 0.568474 0.914858
vt 0.564466 0.926123
vt 0.611892 0.926123
vt 0.611892 0.914858
vt 0.508565 0.914858
vt 0.508565 0.926123
vt 0.508565 0.935383
vt 0.508300 0.935118
vt 0.508300 0.934586
vt 0.508565 0.934852
vt 0.611892 0.934852
vt 0.612157 0.934586
vt 0.612157 0.935118
vt 0.611892 0.935383
vt 0.564466 0.926123
vt 0.568474 0.914858
vt 0.508300 0.935622
vt 0.508300 0.936154
vt 0.508565 0.935888
vt 0.611892 0.935888
vt 0.612157 0.936154
vt 0.612157 0.935622
vt 0.611892 0.935357
vt 0.508565 0.935357
vt 0.564971 0.914858
vt 0.568934 0.903718
vt 0.508565 0.914858
vt 0.508565 0.903718
vt 0.611892 0.903718
vt 0.611892 0.914858
vt 0.564971 0.914858
vt 0.568934 0.903718
vt 0.560432 0.926123
vt 0.564440 0.914858
vt 0.508565 0.914858
vt 0.611892 0.914858
vt 0.611892 0.926123
vt 0.508565 0.926123
vt 0.560432 0.926123
vt 0.564440 0.914858
vt 0.508565 0.930818
vt 0.508300 0.931083
vt 0.508300 0.931615
vt 0.508565 0.931349
vt 0.611892 0.931349
vt 0.612157 0.931615
vt 0.612157 0.931083
vt 0.611892 0.930818
vt 0.559901 0.926123
vt 0.555893 0.937387
vt 0.563935 0.926123
vt 0.559927 0.937387
vt 0.611892 0.926123
vt 0.508565 0.926123
vt 0.508565 0.937387
vt 0.611892 0.937387
vt 0.559927 0.937387
vt 0.563935 0.926123
vt 0.508565 0.930844
vt 0.508300 0.930579
vt 0.508300 0.930047
vt 0.508565 0.930313
vt 0.611892 0.930313
vt 0.612157 0.930047
vt 0.612157 0.930579
vt 0.611892 0.930844
vt 0.612157 0.948652
vt 0.612157 0.937387
vt 0.611892 0.937387
vt 0.611892 0.948652
vt 0.611892 0.948652
vt 0.555187 0.948777
vt 0.555388 0.948652
vt 0.508565 0.926305
vt 0.508439 0.926104
vt 0.612018 0.926104
vt 0.611892 0.926305
vt 0.611892 0.926305
vt 0.508565 0.926305
vt 0.508565 0.948652
vt 0.508565 0.948652
vt 0.508565 0.937387
vt 0.508300 0.937387
vt 0.508300 0.948652
vt 0.555187 0.948777
vt 0.555388 0.948652
vt 0.508300 0.926039
vt 0.508300 0.922536
vt 0.508439 0.922482
vt 0.555361 0.937387
vt 0.551354 0.948652
vt 0.551565 0.948777
vt 0.508565 0.922271
vt 0.611892 0.922271
vt 0.612018 0.922482
vt 0.612157 0.926039
vt 0.612157 0.922536
vt 0.551565 0.948777
vt 0.551354 0.948652
vt 0.555361 0.937387
vt 0.508300 0.926544
vt 0.508300 0.927076
vt 0.508565 0.926810
vt 0.611892 0.926810
vt 0.612157 0.927076
vt 0.612157 0.926544
vt 0.611892 0.926278
vt 0.508565 0.926278
vt 0.611892 0.937387
vt 0.508565 0.937387
vt 0.508565 0.926123
vt 0.611892 0.926123
vt 0.559901 0.926123
vt 0.555893 0.937387
vt 0.508565 0.948652
vt 0.508565 0.937387
vt 0.611892 0.937387
vt 0.611892 0.948652
vt 0.569005 0.914858
vt 0.572968 0.903719
vn 1.0000 -0.0000 0.0000
vn 0.0000 0.0000 1.0000
vn 0.0000 0.9422 0.3352
vn -0.6858 0.6857 0.2440
vn -1.0000 -0.0000 0.0000
vn -0.6857 0.6857 0.2440
vn 0.0000 0.9421 0.3352
vn 0.6857 0.6857 0.2440
vn 0.0000 0.0000 -1.0000
vn -0.6857 -0.6857 -0.2440
vn 0.0000 -0.9421 -0.3352
vn 0.6857 -0.6857 -0.2440
vn 0.6857 0.6858 0.2440
vn 0.6519 0.6515 0.3879
vn 0.0000 0.5288 0.8488
vn -0.6516 0.6515 0.3886
vn -0.6679 0.0000 0.7442
vn -0.6380 -0.6380 0.4312
vn 0.0000 -0.5104 0.8599
vn 0.6685 0.0000 0.7437
vn 0.6383 -0.6383 0.4303
vn 0.6859 0.6856 0.2439
usemtl _auto_.001
s 1
f 49/1/1 39/2/1 28/3/1 27/4/1 5/5/1 4/6/1 3/7/1 2/8/1 1/9/1 23/10/1 24/11/1 47/12/1 48/13/1 52/14/1 67/15/1 68/16/1
f 6/17/2 11/18/2 10/19/2 9/20/2 8/21/2 1/22/2 2/23/2 7/24/2
f 6/25/3 7/26/3 13/27/3 12/28/3
f 11/29/4 6/30/4 12/31/4 14/32/4
f 59/33/5 44/34/5 43/35/5 18/36/5 17/37/5 10/38/5 11/29/5 14/32/5 16/39/5 15/40/5 20/41/5 19/42/5 38/43/5 41/44/5 62/45/5 60/46/5
f 9/47/6 10/38/6 17/37/6 21/48/6
f 22/49/7 8/50/7 9/51/7 21/52/7
f 21/53/2 17/54/2 18/55/2 26/56/2 25/57/2 24/58/2 23/59/2 22/60/2
f 22/61/8 23/10/8 1/9/8 8/62/8
f 20/63/9 15/64/9 29/65/9 30/66/9 5/67/9 27/68/9 31/69/9 32/70/9
f 29/71/10 15/40/10 16/39/10 33/72/10
f 29/73/11 33/74/11 34/75/11 30/76/11
f 5/5/12 30/77/12 34/78/12 4/6/12
f 28/3/12 35/79/12 31/80/12 27/4/12
f 32/81/11 31/82/11 35/83/11 36/84/11
f 36/85/10 19/42/10 20/41/10 32/86/10
f 37/87/9 38/88/9 19/89/9 36/90/9 35/91/9 28/92/9 39/93/9 40/94/9
f 38/43/10 37/95/10 42/96/10 41/44/10
f 26/97/6 18/36/6 43/35/6 45/98/6
f 25/99/7 26/100/7 45/101/7 46/102/7
f 46/103/8 47/12/8 24/11/8 25/104/8
f 45/105/2 43/106/2 44/107/2 51/108/2 50/109/2 48/110/2 47/111/2 46/112/2
f 52/113/13 48/114/13 50/115/13 54/116/13 53/117/13
f 55/118/14 52/14/14 53/119/14
f 56/120/15 58/121/15 55/122/15 53/123/15 54/124/15 57/125/15
f 56/126/6 57/127/6 51/128/6 44/129/6 59/130/6
f 58/131/16 56/132/16 59/33/16
f 58/121/17 59/133/17 60/134/17 61/135/17
f 60/46/10 62/45/10 64/136/10 63/137/10
f 60/46/18 63/137/18 61/138/18
f 61/135/19 63/139/19 66/140/19 65/141/19
f 58/121/2 61/135/2 65/141/2 55/122/2
f 52/142/20 55/122/20 65/141/20 67/143/20
f 67/15/21 65/144/21 66/145/21
f 66/145/12 69/146/12 68/16/12 67/15/12
f 62/147/9 41/148/9 42/149/9 70/150/9 49/151/9 68/152/9 69/153/9 64/154/9
f 70/155/11 42/156/11 37/157/11 40/158/11
f 40/159/12 39/2/12 49/1/12 70/160/12
f 63/161/11 64/162/11 69/163/11 66/164/11
f 57/127/7 54/116/7 50/115/7 51/128/7
f 7/165/22 2/8/22 3/7/22 13/166/22
