# Blender v2.80 (sub 75) OBJ File: 'BF_Sky_Platform_Base_Ramp.blend'
# www.blender.org
mtllib BF_Sky_Platform_Base_Ramp_Collider2.mtl
o BF_Sky_Platform_Base_Ramp.001
v 3.413120 1.342210 -0.399672
v 3.413200 1.342170 -0.399747
v -0.413243 1.342170 -0.399747
v 3.449980 1.250270 -0.499976
v -0.450024 1.250270 -0.499976
v -0.439393 1.299050 -0.474853
v 3.439350 1.299050 -0.474853
v -0.413165 1.342210 -0.399672
v -0.449210 0.585645 1.500170
v -0.474909 0.613339 1.490750
v -0.500024 0.560001 1.500020
v 3.474860 0.613339 1.490750
v 3.449170 0.585645 1.500170
v 3.499980 0.560001 1.500020
v -0.500024 0.550001 1.500020
v 3.499980 0.550001 1.500020
v 3.499980 1.250270 -0.449976
v 3.474860 1.300030 -0.439346
v -0.474909 1.300030 -0.439346
v -0.413193 0.676932 1.461100
v -0.500024 1.250270 -0.449976
v 3.413150 0.676932 1.461100
vt 0.000000 0.000000
vt 0.000000 0.000000
vt 0.894492 0.061738
vt 0.000000 0.000000
vt 0.000000 0.000000
vt 0.000000 0.000000
vt 0.000000 0.000000
vt 0.000000 0.000000
vt 0.962443 0.061099
vt 0.957953 0.050620
vt 0.591690 0.936884
vt 0.194528 0.875556
vt 0.000000 0.000000
vt 0.000000 0.000000
vt 0.894492 0.050425
vt 0.957377 0.050425
vt 0.193421 0.875556
vt 0.000000 0.000000
vt 0.893916 0.061754
vt 0.000000 0.000000
vt 0.270956 0.659648
vt 0.270956 0.654112
vt 0.956952 0.051651
vt 0.894917 0.051651
vt 0.893916 0.050620
vt 0.193421 0.875556
vt 0.957953 0.051001
vt 0.270956 0.659648
vt 0.027940 0.654112
vt 0.000000 0.000000
vt 0.963907 0.062563
vt 0.000000 0.000000
vt 0.956952 0.081812
vt 0.894917 0.081812
vt 0.922009 0.082293
vt 0.957953 0.082293
vt 0.194528 0.875556
vn -0.0501 -0.8592 0.5092
vn -0.1151 0.2225 0.9681
vn 0.0482 -0.8595 0.5088
vn 0.1151 0.2225 0.9681
vn 0.1148 0.2217 0.9683
vn 0.0000 0.4579 -0.8890
vn 0.0000 -0.0042 1.0000
vn -0.5606 -0.6764 0.4777
vn 0.6277 -0.5655 0.5349
vn -0.0004 -0.0034 1.0000
vn -0.5227 0.8493 -0.0740
vn -0.3767 0.9010 0.2150
vn -0.3484 0.8602 -0.3723
vn 0.6268 0.4567 -0.6313
vn 0.8191 0.4885 -0.3008
vn 0.9262 0.0988 -0.3638
vn 0.6265 0.4565 -0.6317
vn 0.0000 0.4226 0.9063
vn 0.0000 0.3220 0.9467
vn 0.0008 0.3217 0.9468
vn 1.0000 0.0000 0.0000
vn 0.5511 -0.8061 -0.2158
vn 0.8891 0.4313 0.1530
vn -0.8484 0.4858 -0.2100
vn -0.8191 0.4884 -0.3008
vn -0.6265 0.4565 -0.6318
vn 0.0000 0.8672 -0.4979
vn 0.1099 -0.9372 -0.3309
vn 0.3768 0.9010 0.2150
vn 0.5228 0.8493 -0.0740
vn 0.3485 0.8602 -0.3723
vn -0.1099 -0.9372 -0.3309
vn 0.3914 0.8666 0.3095
vn -0.3913 0.8667 0.3095
vn -0.6394 0.7238 0.2595
vn 0.6406 0.7232 0.2579
vn -0.8884 0.4330 0.1525
vn -0.8892 0.4312 0.1530
vn -0.3066 -0.8146 -0.4923
vn -1.0000 0.0000 0.0000
usemtl _auto_.003
s off
f 8/1/1 3/2/1 6/3/1
f 9/4/2 10/5/2 11/6/2
f 2/7/3 1/8/3 7/9/3
f 12/10/4 13/11/5 14/12/4
f 4/13/6 5/14/6 6/15/6 7/16/6
s 1
f 11/6/7 15/17/8 16/18/9 14/12/7 13/11/10 9/4/7
f 19/19/11 8/1/12 6/3/13
f 7/16/14 18/20/15 17/21/16 4/22/17
f 12/10/18 22/23/18 20/24/18 10/25/18
f 10/25/19 9/4/19 13/11/20 12/10/19
f 14/12/21 16/26/9 17/21/22
f 14/12/23 17/21/16 18/27/15 12/10/23
f 21/28/24 19/19/25 6/3/26 5/29/26
f 6/15/27 3/2/27 8/1/27 1/8/27 2/7/27 7/30/27
f 17/21/22 16/26/9 4/13/28
f 1/8/29 18/31/30 7/9/31
f 4/13/28 16/18/9 15/32/8 5/14/32
f 22/33/33 1/8/29 8/1/12 20/34/34
f 20/34/34 8/1/12 19/19/11 10/35/35
f 22/33/33 12/36/36 18/27/30 1/8/29
f 10/35/37 19/19/25 21/28/24 11/6/38
f 15/32/8 21/28/39 5/29/32
f 11/37/40 21/28/39 15/32/8
