# Blender v2.80 (sub 75) OBJ File: 'BF_Sky_Platform_Ramp.blend'
# www.blender.org
mtllib BF_Sky_Platform_Ramp_Collider_2.mtl
o BF_Sky_Platform_Ramp.000
v 3.439340 0.250025 -0.474866
v 3.413140 0.309812 -0.443731
v 3.474860 0.250025 -0.439346
v -0.439398 0.250025 -0.474866
v -0.413199 0.309812 -0.443731
v -0.474914 0.250025 -0.439346
v 3.499970 3.050268 3.450021
v 3.449970 2.749998 3.500021
v 3.499970 2.749998 3.450021
v 3.499970 0.050273 -0.449976
v 3.499980 -0.250002 -0.449976
v 3.449970 -0.250002 -0.499976
v 3.449970 -0.300001 -0.449976
v 3.449970 2.699999 3.450021
v -0.450028 2.699999 3.450021
v -0.500029 -0.250002 -0.449976
v -0.450029 -0.300001 -0.449976
v -0.500028 2.749998 3.450021
v -0.450028 2.749998 3.500021
v -0.450028 3.050268 3.500021
v -0.500028 3.050268 3.450021
v -0.500024 0.050273 -0.449976
v -0.450029 -0.250002 -0.499976
v 3.413140 3.269299 3.382611
v 3.439340 3.250029 3.474910
v 3.474860 3.250029 3.439390
v -0.439398 3.250029 3.474910
v -0.413199 3.269299 3.382611
v -0.474918 3.250029 3.439390
v 3.449970 0.050273 -0.499976
v -0.450024 0.050273 -0.499976
v 3.449970 3.050268 3.500021
vt 0.905282 0.008197
vt 0.906866 0.009021
vt 0.905282 0.009137
vt 0.000000 0.000000
vt 0.000000 0.000000
vt 0.000000 0.000000
vt 0.000000 0.000000
vt 0.940551 0.078492
vt 0.933758 0.074954
vt 0.933758 0.078990
vt 0.884566 0.110372
vt 0.884566 0.032305
vt 0.882932 0.111876
vt 0.470990 0.942374
vt 0.465309 0.942374
vt 0.465309 0.862813
vt 0.470990 0.862813
vt 0.465309 0.521971
vt 0.000000 0.000000
vt 0.000000 0.000000
vt 0.465309 0.601532
vt 0.470991 0.530439
vt 0.465309 0.530439
vt 0.465309 0.524759
vt 0.016534 0.530439
vt 0.000000 0.000000
vt 0.470990 0.601532
vt 0.000000 0.000000
vt 0.000000 0.000000
vt 0.984745 0.111876
vt 0.016534 0.862813
vt 0.022214 0.857133
vt 0.022214 0.862813
vt 0.883872 0.030721
vt 0.985917 0.032305
vt 0.986611 0.030721
vt 0.465309 0.857133
vt 0.000000 0.000000
vt 0.016534 0.973534
vt 0.022214 0.979215
vt 0.883872 0.112817
vt 0.022214 0.942374
vt 0.016534 0.942374
vt 0.000000 0.000000
vt 0.022214 0.530439
vt 0.016533 0.530439
vt 0.022214 0.524759
vt 0.985917 0.110372
vt 0.986611 0.112817
vt 0.987552 0.111876
vt 0.092560 0.530439
vt 0.433402 0.973534
vt 0.353841 0.973534
vt 0.012999 0.530439
vt 0.905282 0.009137
vt 0.984745 0.111876
vt 0.022214 0.973534
vt 0.465309 0.973534
vt 0.016534 0.601532
vt 0.022215 0.601532
vt 0.022214 0.521971
vt 0.016533 0.521971
vt 0.092560 0.530439
vt 0.012999 0.530439
vt 0.353841 0.973534
vt 0.433402 0.973534
vt 0.470991 0.521971
vt 0.470990 0.973534
vt 0.016534 0.973534
vn 0.5852 0.5612 -0.5852
vn 0.0000 0.1247 0.9922
vn 0.0000 0.0614 0.9981
vn -0.5853 0.5612 -0.5852
vn -0.6293 0.6147 -0.4755
vn 0.7071 0.0000 0.7071
vn 0.0000 0.0000 -1.0000
vn 0.0000 0.0614 -0.9981
vn 0.5773 -0.5774 -0.5774
vn -0.7015 0.1255 -0.7015
vn 0.7015 0.1255 -0.7015
vn 0.9876 0.1241 -0.0958
vn -0.5773 -0.5774 0.5773
vn 0.0000 0.4619 -0.8869
vn 0.5773 -0.5774 0.5773
vn 0.0000 0.0000 1.0000
vn -0.7015 0.1255 0.7015
vn -0.7071 0.0000 0.7071
vn 0.0000 0.1247 -0.9922
vn -0.5773 -0.5774 -0.5773
vn 0.1585 0.9746 0.1585
vn 0.6293 0.6147 -0.4755
vn -0.1585 0.9746 0.1585
vn 0.0000 0.9789 0.2044
vn 0.0000 -0.7071 0.7071
vn 1.0000 0.0000 -0.0000
vn -0.9876 0.1241 -0.0958
vn 0.0000 -0.7926 0.6097
vn -0.7071 0.0000 -0.7071
vn -1.0000 0.0000 -0.0000
vn 0.7071 0.0000 -0.7071
vn 0.0000 -0.7071 -0.7071
vn 0.6211 -0.6212 0.4778
vn -0.6212 -0.6212 0.4778
vn 0.7015 0.1255 0.7015
vn 0.0000 0.7910 -0.6118
usemtl _auto_.000
s 1
f 1/1/1 2/2/1 3/3/1
f 27/4/2 20/5/3 32/6/3 25/7/2
f 5/8/4 4/9/4 6/10/4
f 28/11/5 5/12/5 6/10/5 29/13/5
f 7/14/6 32/15/6 8/16/6 9/17/6
f 12/18/7 23/19/7 31/20/8 30/21/8
f 11/22/9 13/23/9 12/24/9
f 22/25/10 6/10/10 4/26/10 31/20/10
f 1/1/11 3/3/11 10/27/11 30/21/11
f 7/28/12 10/29/12 3/3/12 26/30/12
f 18/31/13 15/32/13 19/33/13
f 4/34/14 5/12/14 2/35/14 1/36/14
f 14/37/15 9/17/15 8/16/15
f 19/38/16 8/16/16 32/6/3 20/5/3
f 21/39/17 20/40/17 27/41/17 29/13/17
f 18/31/18 19/33/18 20/42/18 21/43/18
f 1/44/19 30/21/8 31/20/8 4/26/19
f 17/45/20 16/46/20 23/47/20
f 24/48/21 25/49/21 26/50/21
f 24/48/22 26/50/22 3/3/22 2/35/22
f 27/41/23 28/11/23 29/13/23
f 27/41/24 25/49/24 24/48/24 28/11/24
f 15/32/25 14/37/25 8/16/25 19/33/25
f 10/51/26 7/52/26 9/53/26 11/54/26
f 6/55/27 22/25/27 21/39/27 29/56/27
f 15/57/28 17/45/28 13/23/28 14/58/28
f 22/59/29 31/60/29 23/61/29 16/62/29
f 22/63/30 16/64/30 18/65/30 21/66/30
f 12/18/31 30/21/31 10/27/31 11/67/31
f 23/47/32 12/24/32 13/23/32 17/45/32
f 14/58/33 13/23/33 11/22/33 9/68/33
f 15/57/34 18/69/34 16/46/34 17/45/34
f 32/6/35 7/28/35 26/30/35 25/7/35
f 28/11/36 24/48/36 2/35/36 5/12/36
