# Blender v2.80 (sub 75) OBJ File: 'BF_Sky_Platform_Small_Ramp.blend'
# www.blender.org
mtllib BF_Sky_Platform_Small_Ramp_Collider_2.mtl
o BF_Sky_Platform_Small_Ramp
v 3.449970 -0.250002 -0.499976
v 3.449970 0.050273 -0.499976
v -0.439398 0.250025 -0.474866
v 3.439340 0.250025 -0.474866
v 3.474860 1.250029 3.439390
v 3.474860 0.250025 -0.439346
v 3.439350 1.250029 3.474910
v 3.413200 1.291069 3.398660
v 3.413120 1.291109 3.398580
v -0.413172 1.291119 3.398610
v -0.439395 1.250029 3.474910
v 3.413140 0.305721 -0.423495
v -0.474915 1.250029 3.439390
v -0.413198 0.305730 -0.423471
v -0.474914 0.250025 -0.439346
v -0.450025 1.050269 3.500020
v -0.500025 1.050269 3.450020
v 3.449980 1.050269 3.500020
v 3.499980 0.789997 3.450020
v 3.499980 1.050269 3.450020
v 3.499980 -0.250002 -0.449976
v 3.499970 0.050273 -0.449976
v 3.449970 -0.300001 -0.449976
v -0.450029 -0.300001 -0.449976
v -0.450029 -0.250002 -0.499976
v -0.500029 -0.250002 -0.449976
v -0.500025 0.789997 3.450020
v -0.500024 0.050273 -0.449976
v -0.450024 0.050273 -0.499976
v -0.450025 0.735924 3.447078
v -0.450025 0.804778 3.500020
v -0.450697 0.736554 3.446919
v 3.449980 0.804778 3.500020
v 3.449980 0.735924 3.447078
vt 0.051987 0.938885
vt 0.951733 0.105253
vt 0.894783 0.101044
vt 0.893980 0.100241
vt 0.895375 0.012922
vt 0.000000 0.000000
vt 0.000000 0.000000
vt 0.000000 0.000000
vt 0.000000 0.000000
vt 0.448435 0.701986
vt 0.972615 0.027238
vt 0.319576 0.933802
vt 0.217923 0.537354
vt 0.972099 0.103747
vt 0.972615 0.105253
vt 0.973317 0.104552
vt 0.981868 0.099319
vt 0.895376 0.099320
vt 0.252457 0.933802
vt 0.051987 0.933504
vt 0.046904 0.537354
vt 0.051987 0.537354
vt 0.051987 0.532272
vt 0.448435 0.537354
vt 0.146738 0.537354
vt 0.247025 0.933487
vt 0.252457 0.933802
vt 0.046905 0.803640
vt 0.051987 0.738023
vt 0.051987 0.803640
vt 0.453519 0.803640
vt 0.448436 0.738023
vt 0.453519 0.736521
vt 0.217923 0.537354
vt 0.319576 0.933802
vt 0.046905 0.701986
vt 0.051987 0.630801
vt 0.046904 0.630801
vt 0.453519 0.537354
vt 0.448435 0.532272
vt 0.448435 0.630801
vt 0.453518 0.701986
vt 0.453519 0.630801
vt 0.000000 0.000000
vt 0.973317 0.027939
vt 0.972098 0.064764
vt 0.000000 0.000000
vt 0.981870 0.099321
vt 0.896520 0.028253
vt 0.896003 0.027238
vt 0.895301 0.027939
vt 0.896003 0.063664
vt 0.896520 0.064764
vt 0.972098 0.028252
vt 0.972615 0.063664
vt 0.000000 0.000000
vt 0.951733 0.104552
vt 0.051919 0.731088
vt 0.051987 0.731024
vt 0.448436 0.731024
vt 0.448436 0.803640
vt 0.046905 0.537354
vt 0.931981 0.027238
vt 0.246961 0.933504
vt 0.893980 0.012563
vt 0.982461 0.101044
vt 0.146738 0.537354
vt 0.051919 0.933487
vt 0.046905 0.736521
vt 0.051987 0.701986
vt 0.448436 0.933504
vt 0.000000 0.000000
vt 0.931981 0.027939
vt 0.000000 0.000000
vt 0.141655 0.537354
vn 0.0000 0.1247 0.9922
vn -0.6293 0.7525 -0.1940
vn -0.6291 0.7527 -0.1941
vn 0.8253 0.4137 -0.3843
vn 0.3819 0.0667 -0.9218
vn 0.3501 0.4223 -0.8361
vn 0.9973 0.0706 -0.0182
vn 0.9196 0.0614 -0.3880
vn 0.3766 0.9195 0.1124
vn 0.1695 0.8909 0.4214
vn 0.7496 0.6592 0.0591
vn 0.2530 0.9663 0.0470
vn -0.0539 0.9811 0.1856
vn -0.1696 0.8908 0.4215
vn -0.3487 0.8700 0.3487
vn 0.8627 -0.3052 0.4031
vn -0.3411 -0.7905 0.5087
vn -0.8798 -0.3779 -0.2884
vn -0.3515 -0.9048 0.2405
vn -0.3416 -0.3416 -0.8756
vn 0.2418 -0.6861 -0.6861
vn -0.2418 -0.6861 -0.6861
vn -0.6700 -0.6175 0.4119
vn -0.8626 -0.3053 0.4033
vn -0.7058 0.0618 0.7058
vn -0.3347 -0.2772 0.9006
vn -0.5018 0.0440 0.8639
vn 0.7058 0.0619 0.7058
vn 0.3347 -0.2771 0.9007
vn -0.9196 0.0614 -0.3880
vn -0.9973 0.0706 -0.0182
vn 0.6861 -0.2418 -0.6862
vn 0.4605 -0.4606 -0.7588
vn 0.2757 0.8502 -0.4485
vn 0.3515 -0.9048 0.2405
vn -0.0801 0.8366 -0.5419
vn -0.3501 0.4223 -0.8361
vn -0.8532 0.3011 -0.4259
vn -0.3819 0.0667 -0.9218
vn 0.5018 0.0440 0.8639
vn 0.7016 0.1255 0.7014
vn 0.3395 -0.7985 0.4972
vn 0.0000 0.0000 -1.0000
vn -0.7015 0.1255 0.7015
vn 0.8950 -0.4312 0.1146
vn -0.9919 0.1230 -0.0317
usemtl _auto_.002
s off
f 16/1/1 7/2/1 11/3/1
f 13/4/2 14/5/2 15/6/2
f 16/1/1 18/7/1 7/2/1
f 13/4/3 10/8/3 14/5/3
s 1
f 6/9/4 2/10/5 4/11/6
f 6/9/4 20/12/7 22/13/8
f 8/14/9 7/15/10 5/16/11
f 9/17/12 10/18/13 11/3/14
f 11/3/14 10/18/13 13/4/15
f 19/19/16 22/13/8 20/12/7
f 30/20/17 26/21/18 24/22/19
f 25/23/20 23/24/21 24/22/22
f 24/22/22 26/21/18 25/23/20
f 26/25/18 32/26/23 27/27/24
f 17/28/25 31/29/26 16/30/27
f 20/31/28 33/32/29 19/33/16
f 28/34/30 27/27/24 17/35/31
f 28/36/30 25/37/20 26/38/18
f 21/39/32 23/24/21 1/40/33
f 1/41/33 22/42/8 21/43/32
f 9/44/12 6/45/4 12/46/34
f 23/24/35 30/20/17 24/22/19
f 5/47/11 9/44/12 8/48/9
f 14/49/36 3/50/37 15/51/38
f 12/46/34 3/52/37 14/53/36
f 12/54/34 6/45/4 4/11/6
f 4/55/6 29/56/39 3/52/37
f 18/7/40 5/57/41 7/2/41
f 31/29/26 32/58/23 30/59/17
f 33/32/29 34/60/42 19/33/16
f 34/60/42 31/29/26 30/59/17
f 18/61/40 31/29/26 33/32/29
f 28/62/30 3/63/37 29/56/39
f 29/56/39 1/40/43 25/23/20
f 9/44/12 14/53/36 10/8/13
f 11/3/44 17/35/25 16/1/27
f 34/64/42 21/39/45 19/19/16
f 15/65/38 17/35/31 13/4/46
f 6/9/4 22/42/8 2/10/5
f 6/9/4 5/47/11 20/12/7
f 11/3/14 7/66/10 9/17/12
f 7/66/10 8/48/9 9/17/12
f 19/19/16 21/67/45 22/13/8
f 30/20/17 32/68/23 26/21/18
f 25/23/20 1/40/33 23/24/21
f 17/28/25 27/69/24 31/29/26
f 20/31/28 18/61/40 33/32/29
f 28/34/30 26/25/18 27/27/24
f 28/36/30 29/70/39 25/37/20
f 1/41/33 2/10/5 22/42/8
f 9/44/12 5/47/11 6/45/4
f 23/24/35 34/71/42 30/20/17
f 12/46/34 4/55/6 3/52/37
f 4/55/6 2/72/5 29/56/39
f 18/7/40 20/31/28 5/57/41
f 31/29/26 27/69/24 32/58/23
f 34/60/42 33/32/29 31/29/26
f 18/61/40 16/30/27 31/29/26
f 28/62/30 15/73/38 3/63/37
f 29/56/39 2/72/5 1/40/43
f 9/44/12 12/46/34 14/53/36
f 11/3/44 13/74/44 17/35/25
f 34/64/42 23/75/35 21/39/45
f 15/65/38 28/34/30 17/35/31
