# Blender v2.90.1 OBJ File: 'GT_Basic_Blocks_3.blend'
# www.blender.org
v -0.450409 1.396909 2.785244
v -0.493356 1.386979 2.768301
v -0.475204 1.395076 2.782219
v -0.450442 3.164092 0.481680
v 3.164055 -0.450445 0.481665
v 2.785244 -0.450409 1.396909
v 2.768302 -0.493356 1.386978
v 2.782219 -0.475204 1.395076
v 1.396932 -0.450402 2.785291
v 1.386982 -0.493355 2.768308
v 1.395088 -0.475201 2.782242
v 0.481680 -0.450440 3.164092
v 0.480848 -0.475220 3.160779
v -0.376006 2.770999 1.389006
v 1.388949 2.770882 -0.376022
v 2.785172 1.397138 -0.450402
v 2.768138 1.387276 -0.493355
v 2.782094 1.395345 -0.475201
v 2.779592 -0.400817 1.393817
v 1.393864 -0.400804 2.779685
v -0.450443 0.481436 3.164115
v -0.475221 0.480554 3.160836
v -0.376022 1.388897 2.770912
v 0.481436 3.164116 -0.450445
v -0.449983 3.242986 -0.499984
v -0.499985 3.242984 -0.449983
v -0.450424 3.286948 -0.450419
v -0.474874 3.245373 -0.493227
v -0.450125 3.267326 -0.493446
v -0.473958 3.268532 -0.486878
v -0.493447 3.267324 -0.450124
v -0.493227 3.245372 -0.474874
v -0.486879 3.268532 -0.473957
v -0.450287 3.283463 -0.475252
v -0.475255 3.283461 -0.450284
v -0.474072 3.279893 -0.474070
v -0.450403 2.785172 1.397138
v -0.493355 2.768138 1.387275
v -0.475201 2.782094 1.395345
v -0.475190 2.180038 2.180037
v 1.397114 2.785126 -0.450409
v 1.395333 2.782071 -0.475204
v 1.387272 2.768132 -0.493355
v 3.286948 -0.450421 -0.450419
v 3.283461 -0.475253 -0.450284
v 3.283462 -0.450285 -0.475252
v 3.279892 -0.474071 -0.474070
v 3.267323 -0.493446 -0.450124
v 3.268531 -0.486879 -0.473957
v 3.267326 -0.450124 -0.493446
v 3.268532 -0.473957 -0.486879
v 3.164153 0.481451 -0.450440
v 3.160855 0.480561 -0.475220
v -0.449835 2.740278 -0.499843
v -0.499818 2.740273 -0.449835
v -0.474730 2.742557 -0.493090
v -0.473785 2.717539 -0.486715
v -0.493077 2.742555 -0.474734
v -0.486702 2.717538 -0.473792
v -0.499844 -0.449835 2.740277
v -0.493090 -0.474730 2.742557
v -0.486715 -0.473785 2.717539
v -0.473792 -0.486702 2.717538
v 2.740273 -0.449836 -0.499818
v 2.742557 -0.493090 -0.474730
v 2.717539 -0.486716 -0.473785
v 2.742555 -0.474734 -0.493077
v 2.717538 -0.473793 -0.486702
v 2.180037 2.180037 -0.475190
v -0.499985 -0.449983 3.242986
v -0.449983 -0.499985 3.242984
v -0.450418 -0.450421 3.286947
v -0.492565 -0.474525 3.242980
v -0.492603 -0.448861 3.266668
v -0.486961 -0.473371 3.267545
v -0.448859 -0.492603 3.266666
v -0.474524 -0.492565 3.242980
v -0.473370 -0.486961 3.267545
v -0.474800 -0.449018 3.282457
v -0.449015 -0.474802 3.282456
v -0.473486 -0.473487 3.279732
v 2.182622 -0.450381 2.182625
v 2.180037 -0.475190 2.180037
v 2.770999 1.389007 -0.376006
vt 0.674523 0.470552
vt 0.652496 0.470552
vt 0.652496 0.448524
vt 0.727916 0.400557
vt 0.727969 0.399968
vt 0.726805 0.399919
vt 0.722491 0.475962
vt 0.647085 0.400557
vt 0.679067 0.476621
vt 0.720726 0.444117
vt 0.696167 0.470551
vt 0.696069 0.468773
vt 0.727377 0.471105
vt 0.647623 0.399375
vt 0.651328 0.475425
vt 0.728574 0.443981
vt 0.729120 0.444261
vt 0.738092 0.422580
vt 0.674523 0.400543
vt 0.652496 0.422570
vt 0.652495 0.400542
vt 0.652506 0.383249
vt 0.651926 0.383250
vt 0.651872 0.396243
vt 0.740373 0.400550
vt 0.695934 0.394474
vt 0.652532 0.382690
vt 0.696033 0.468772
vt 0.722481 0.399977
vt 0.722505 0.400543
vt 0.700478 0.400542
vt 0.651325 0.487901
vt 0.651324 0.488449
vt 0.651939 0.488448
vt 0.654275 0.444080
vt 0.652510 0.475963
vt 0.652506 0.487845
vt 0.695934 0.476621
vt 0.651918 0.487901
vt 0.652503 0.488420
vt 0.652520 0.471118
vt 0.722498 0.488420
vt 0.723083 0.487901
vt 0.722494 0.487845
vt 0.722471 0.489034
vt 0.723062 0.488448
vt 0.651978 0.471069
vt 0.651930 0.470528
vt 0.652498 0.488800
vt 0.652026 0.489101
vt 0.651936 0.488716
vt 0.651988 0.489105
vt 0.723023 0.400025
vt 0.723071 0.400567
vt 0.740754 0.470550
vt 0.741054 0.471022
vt 0.740669 0.471112
vt 0.740987 0.400577
vt 0.740401 0.399986
vt 0.740402 0.471723
vt 0.740402 0.471723
vt 0.727969 0.399375
vt 0.727378 0.399375
vt 0.727377 0.399990
vt 0.696267 0.477136
vt 0.714856 0.462861
vt 0.635203 0.399973
vt 0.634643 0.400579
vt 0.635202 0.400553
vt 0.652562 0.399371
vt 0.652038 0.399764
vt 0.652612 0.399625
vt 0.651992 0.400039
vt 0.652552 0.399990
vt 0.651943 0.400599
vt 0.651324 0.400089
vt 0.651717 0.400085
vt 0.652042 0.399371
vt 0.652002 0.399371
vt 0.728574 0.427114
vt 0.729088 0.426779
vt 0.714768 0.399977
vt 0.740373 0.470545
vt 0.651931 0.426863
vt 0.652497 0.426880
vt 0.647624 0.399684
vt 0.635203 0.399371
vt 0.647031 0.399375
vt 0.674562 0.399977
vt 0.696220 0.399977
vt 0.660266 0.400544
vt 0.678834 0.400543
vt 0.678909 0.401715
vt 0.660233 0.399977
vt 0.696169 0.399371
vt 0.674523 0.399978
vt 0.714768 0.471117
vt 0.722504 0.444214
vt 0.652530 0.489034
vt 0.696214 0.477166
vt 0.654275 0.426977
vt 0.651324 0.400661
vt 0.651930 0.422608
vt 0.722505 0.422570
vt 0.651324 0.444353
vt 0.651930 0.444266
vt 0.660187 0.462903
vt 0.651930 0.462815
vt 0.652496 0.444214
vt 0.723129 0.474851
vt 0.647623 0.399990
vt 0.723070 0.422608
vt 0.647032 0.399968
vt 0.651921 0.476016
vt 0.723080 0.476016
vt 0.651931 0.444231
vt 0.651943 0.475424
vt 0.000000 0.000000
vt 0.646427 0.443981
vt 0.000000 0.000000
vt 0.727378 0.471719
vt 0.727969 0.471126
vt 0.740402 0.471109
vt 0.678816 0.399978
vt 0.651328 0.476016
vt 0.651328 0.475425
vt 0.651637 0.475424
vt 0.651328 0.476016
vt 0.696167 0.400543
vt 0.696092 0.401716
vt 0.696184 0.471117
vt 0.723013 0.489105
vt 0.652583 0.489027
vt 0.740980 0.470465
vt 0.741059 0.400035
vt 0.740402 0.399371
vt 0.740400 0.399680
vt 0.634623 0.400000
vt 0.651953 0.382669
vt 0.696307 0.399371
vt 0.740987 0.470518
vt 0.634622 0.399371
vt 0.647623 0.399375
vt 0.714734 0.400544
vt 0.678786 0.477166
vt 0.652614 0.399371
vt 0.723071 0.444267
vt 0.651324 0.444215
vt 0.678734 0.477136
vt 0.651930 0.426828
vt 0.723070 0.444232
vn 0.1296 0.9831 0.1296
vn -0.0943 -0.1657 -0.9817
vn -0.1062 -0.4962 -0.8617
vn -0.3658 -0.5120 -0.7772
vn -0.9810 -0.1002 -0.1658
vn -0.9810 -0.1661 -0.1003
vn -0.8915 0.4066 0.1996
vn 0.7563 0.5404 0.3688
vn 0.5260 0.8497 0.0360
vn 0.5405 0.7563 0.3685
vn -0.3634 -0.7820 -0.5064
vn -0.4143 -0.8711 -0.2636
vn -0.7772 -0.3658 -0.5120
vn 0.6476 0.3738 -0.6640
vn 0.7892 0.4555 -0.4120
vn 0.9557 0.2559 -0.1452
vn 0.2821 0.0779 0.9562
vn 0.0784 0.2824 0.9561
vn -0.0191 -0.0192 0.9996
vn -0.1229 -0.9801 0.1561
vn -0.4962 -0.8607 0.1141
vn 0.0176 -0.1379 -0.9903
vn 0.0095 -0.9999 0.0130
vn -0.0508 -0.8478 0.5278
vn 0.3502 0.8731 0.3391
vn 0.9124 -0.4093 0.0046
vn 1.0000 -0.0064 -0.0063
vn 0.9121 0.2846 0.2951
vn -0.8642 0.1257 -0.4873
vn -0.7673 0.4840 -0.4208
vn -0.4208 0.4840 -0.7672
vn 0.3691 0.5404 0.7561
vn -0.1661 -0.1003 -0.9810
vn -0.1032 0.1354 -0.9854
vn 0.1997 0.4068 -0.8914
vn -0.4873 0.1257 -0.8642
vn -0.0263 0.5311 -0.8469
vn 0.0046 0.9124 -0.4093
vn -0.0524 0.9973 -0.0524
vn 0.1294 0.9821 -0.1371
vn -0.8470 0.5310 -0.0263
vn -0.9854 0.1354 -0.1032
vn -0.4094 0.9124 0.0046
vn -0.3855 0.8384 -0.3854
vn 0.8384 -0.3855 -0.3854
vn 0.9104 -0.0177 -0.4133
vn 0.7129 -0.6350 -0.2974
vn 0.7130 -0.2974 -0.6350
vn 0.7480 -0.0104 -0.6636
vn -0.0822 -0.9109 -0.4043
vn 0.4378 0.8014 -0.4074
vn 0.5543 0.7224 -0.4133
vn -0.8593 -0.4978 0.1174
vn -0.8478 -0.0508 0.5279
vn -0.9793 -0.1213 0.1617
vn -0.0014 -0.4346 0.9006
vn -0.4092 -0.7844 0.4661
vn -0.3839 -0.3839 0.8398
vn -0.4345 -0.0014 0.9006
vn -0.7844 -0.4092 0.4662
vn 0.6737 -0.6626 0.3272
vn 0.8015 -0.4074 0.4378
vn 0.6987 -0.1541 0.6986
vn 0.7473 -0.6624 0.0520
vn -0.4082 0.8012 0.4377
vn 0.0350 0.8497 0.5260
vn 0.3391 0.8731 0.3501
vn -0.8179 -0.5684 -0.0893
vn 0.2558 -0.1451 0.9558
vn 0.4554 -0.4120 0.7892
vn 0.7004 -0.1374 0.7004
vn 0.8661 -0.0062 0.4998
vn 0.7833 0.3451 0.5170
vn 0.3737 -0.6640 0.6477
vn 0.1368 0.1368 0.9811
vn 0.3681 0.7565 0.5406
vn -0.1444 0.2555 0.9560
vn 0.9561 0.2826 0.0782
vn -0.6636 0.3738 0.6480
vn -0.4113 0.4556 0.7895
vn -0.4135 0.5542 0.7224
vn 0.9811 0.1367 0.1367
vn -0.7770 -0.5122 -0.3659
vn 0.8497 0.5260 0.0350
vn -0.4968 -0.1119 -0.8606
vn -0.8608 -0.1119 -0.4964
vn 0.0360 0.5259 0.8498
vn -0.5123 -0.3659 -0.7770
vn -0.9998 0.0096 0.0145
vn 0.0146 0.0093 -0.9999
vn 0.1232 0.0335 -0.9918
vn 0.0109 -0.5070 -0.8619
vn 0.0109 -0.8618 -0.5071
vn 0.0061 -0.9896 -0.1439
vn 0.0045 -1.0000 0.0046
vn 0.1820 -0.9821 0.0495
vn 0.4998 -0.0072 0.8661
vn 0.5171 0.3447 0.7834
vn 0.0495 0.1819 -0.9821
vn 0.7222 0.5541 -0.4140
vn 0.0881 0.0881 -0.9922
vn 0.0880 -0.9922 0.0880
vn -0.1372 0.9820 0.1294
vn -0.9821 0.1819 0.0494
vn 0.2428 0.9392 0.2428
vn 0.0323 -0.9922 0.1203
vn -0.9922 0.0323 0.1203
vn -0.4141 0.7222 0.5541
vn -0.9922 0.0880 0.0880
s off
f 24/1/1 27/2/1 4/3/1
s 1
f 64/4/2 67/5/3 68/6/4
f 55/7/5 60/8/6 38/9/7
f 84/10/8 41/11/9 15/12/10
f 66/13/11 63/14/12 59/15/13
f 17/16/14 18/17/15 53/18/16
f 12/19/17 21/20/18 72/21/19
f 71/22/20 77/23/21 63/24/12
f 50/25/22 67/5/3 64/4/2
f 10/26/23 76/27/24 71/22/20
f 15/28/10 41/11/9 24/1/25
f 45/29/26 44/30/27 5/31/28
f 32/32/29 33/33/30 30/34/31
f 21/20/18 12/19/17 23/35/32
f 54/36/33 25/37/34 43/38/35
f 28/39/36 29/40/37 25/37/34
f 34/41/38 27/2/39 24/1/40
f 31/42/41 32/43/29 26/44/42
f 35/45/43 33/46/30 31/42/41
f 27/2/39 36/47/44 35/48/43
f 34/49/38 30/50/31 36/51/44
f 30/34/31 33/33/30 36/52/44
f 44/30/27 47/53/45 46/54/46
f 45/55/26 49/56/47 47/57/45
f 46/58/46 51/59/48 50/25/49
f 47/57/45 49/60/47 51/61/48
f 65/62/50 66/63/11 68/64/4
f 43/38/35 42/65/51 69/66/52
f 73/67/53 74/68/54 70/69/55
f 76/27/24 77/23/21 71/22/20
f 80/70/56 78/71/57 76/72/24
f 72/21/19 81/73/58 80/74/56
f 79/75/59 75/76/60 81/73/58
f 75/77/60 78/78/57 81/79/58
f 7/80/61 8/81/62 83/82/63
f 48/83/64 8/81/62 7/80/61
f 39/84/65 37/85/66 4/3/67
f 63/86/12 77/87/21 61/88/68
f 12/19/17 13/89/69 11/90/70
f 82/91/71 6/92/72 19/93/73
f 38/9/7 35/45/43 31/42/41
f 83/94/63 6/92/72 82/91/71
f 10/95/74 11/90/70 13/96/69
f 69/97/75 41/11/75 16/98/75
f 43/38/35 34/99/38 42/100/51
f 15/12/10 14/101/76 19/93/73
f 74/102/54 79/75/59 22/103/77
f 46/54/46 52/104/78 44/30/27
f 2/105/79 3/106/80 40/107/81
f 37/85/82 40/108/82 1/109/82
f 59/110/13 62/111/83 55/7/5
f 79/75/59 21/20/18 22/103/77
f 53/112/16 16/98/84 52/104/78
f 80/74/56 12/19/17 72/21/19
f 70/69/55 61/113/68 73/67/53
f 5/31/28 52/104/78 84/10/8
f 25/37/34 56/114/85 28/39/36
f 58/115/86 26/44/42 32/43/29
f 23/35/32 37/85/66 1/109/87
f 22/103/77 1/109/87 3/116/80
f 5/31/28 44/30/27 52/104/78
f 68/6/4 57/117/88 54/118/33
f 57/117/88 56/114/85 54/118/33
f 54/118/33 64/4/2 68/6/4
f 60/8/6 70/69/55 2/119/89
f 70/69/55 74/68/54 2/119/89
f 2/119/89 38/9/7 60/8/6
f 38/9/7 31/42/41 26/44/42
f 26/44/42 55/7/5 38/9/7
f 84/10/8 16/98/84 41/11/9
f 63/14/12 62/111/83 59/15/13
f 59/15/13 57/120/88 66/13/11
f 57/120/88 68/121/4 66/13/11
f 46/58/46 50/25/49 53/18/16
f 50/25/22 17/16/90 53/18/91
f 63/24/12 66/13/11 65/122/50
f 65/122/50 71/22/20 63/24/12
f 50/25/22 51/59/92 67/5/3
f 71/22/20 65/122/50 10/26/23
f 65/122/50 49/123/93 48/83/94
f 7/80/95 65/122/50 48/83/94
f 7/80/95 10/26/23 65/122/50
f 37/85/66 14/101/76 4/3/67
f 14/101/76 15/28/10 4/3/67
f 4/3/67 15/28/10 24/1/25
f 6/92/72 8/124/62 5/31/28
f 8/124/96 45/29/96 5/31/96
f 30/34/31 28/39/36 32/32/29
f 28/39/36 56/125/85 32/32/29
f 56/125/85 57/126/88 59/127/13
f 59/127/13 58/128/86 56/125/85
f 58/128/86 32/32/29 56/125/85
f 9/129/97 20/130/98 12/19/17
f 20/130/98 23/35/32 12/19/17
f 23/35/32 1/109/87 21/20/18
f 25/37/34 29/40/37 43/38/35
f 43/38/35 17/16/90 64/4/2
f 17/16/90 50/25/22 64/4/2
f 64/4/2 54/36/33 43/38/35
f 28/39/36 30/34/31 29/40/37
f 41/11/9 42/131/51 24/1/25
f 42/131/99 34/41/99 24/1/99
f 31/42/41 33/46/30 32/43/29
f 35/45/43 36/132/44 33/46/30
f 27/2/39 34/41/38 36/47/44
f 34/49/38 29/133/37 30/50/31
f 44/30/27 45/29/26 47/53/45
f 45/55/26 48/134/64 49/56/47
f 46/58/46 47/135/45 51/59/48
f 68/64/4 67/5/3 65/62/50
f 67/5/3 51/136/92 65/62/50
f 51/136/92 49/137/93 65/62/50
f 18/17/15 17/16/14 69/66/100
f 17/16/90 43/38/35 69/66/101
f 73/67/53 75/138/60 74/68/54
f 76/27/24 78/139/57 77/23/21
f 80/70/56 81/79/58 78/71/57
f 72/21/19 79/75/59 81/73/58
f 79/75/59 74/102/54 75/76/60
f 11/90/70 10/140/74 83/82/63
f 10/140/23 7/80/95 83/82/102
f 48/83/64 45/141/26 8/81/62
f 27/2/39 35/48/43 4/3/103
f 35/48/104 39/84/104 4/3/104
f 75/138/60 73/67/53 77/87/21
f 73/67/53 61/88/68 77/87/21
f 75/138/60 77/87/21 78/142/57
f 61/88/68 62/143/83 63/86/12
f 11/90/70 83/82/63 9/129/97
f 83/82/63 82/144/71 9/129/97
f 9/129/97 12/19/17 11/90/70
f 19/93/73 20/130/98 82/91/105
f 20/130/98 9/129/97 82/91/71
f 38/9/7 39/145/65 35/45/43
f 83/94/63 8/124/62 6/92/72
f 80/74/56 76/146/24 13/96/69
f 76/146/24 10/95/23 13/96/106
f 16/98/84 18/147/15 69/97/100
f 69/97/52 42/131/51 41/11/9
f 43/38/35 29/40/37 34/99/38
f 23/35/32 20/130/98 14/101/76
f 20/130/98 19/93/73 14/101/76
f 19/93/73 84/10/8 15/12/10
f 3/116/80 2/148/79 22/103/77
f 2/148/89 74/102/54 22/103/107
f 46/54/46 53/112/16 52/104/78
f 39/149/65 38/9/7 40/107/108
f 38/9/7 2/105/89 40/107/109
f 39/150/65 40/108/108 37/85/66
f 40/108/81 3/106/80 1/109/87
f 61/113/68 60/8/6 62/111/83
f 60/8/6 55/7/5 62/111/83
f 55/7/5 58/115/86 59/110/13
f 79/75/59 72/21/19 21/20/18
f 53/112/16 18/151/15 16/98/84
f 80/74/56 13/96/69 12/19/17
f 70/69/55 60/8/6 61/113/68
f 16/98/84 84/10/8 52/104/78
f 84/10/8 19/93/73 5/31/28
f 19/93/73 6/92/72 5/31/28
f 25/37/34 54/36/33 56/114/85
f 58/115/86 55/7/5 26/44/42
f 23/35/32 14/101/76 37/85/66
f 22/103/77 21/20/18 1/109/87
