# Blender v2.90.1 OBJ File: 'GT_Basic_Blocks_3.blend'
# www.blender.org
v -0.387086 2.537743 1.254844
v 1.254908 2.537575 -0.387426
v 2.537744 1.254844 -0.387086
v 0.407289 -0.388813 2.888147
v -0.389029 0.407077 2.888109
v 1.254844 -0.387086 2.537744
v 2.888147 0.407289 -0.388813
v -0.388813 2.888147 0.407289
v 0.407077 2.888109 -0.389029
v -0.385790 1.981005 1.980903
v 1.981004 1.980903 -0.385791
v 1.980903 -0.385791 1.981004
v -0.387426 1.254908 2.537575
v 2.888109 -0.389029 0.407077
v 2.537575 -0.387426 1.254908
v -0.389132 2.988857 -0.389092
v 2.988857 -0.389093 -0.389131
v -0.389093 -0.389132 2.988857
v -0.361470 2.709653 1.353794
v 0.478644 2.569943 1.369062
v 1.370084 2.567509 0.484312
v 1.353758 2.709506 -0.361577
v 2.046396 2.043998 0.458975
v 2.709653 1.353794 -0.361470
v 2.569943 1.369062 0.478644
v 2.251064 1.276310 1.275445
v 1.275445 2.251064 1.276311
v 1.844657 1.844411 1.197665
v 1.650630 1.650630 1.650630
v 0.458491 -0.362081 3.079624
v 0.502460 0.494191 2.947068
v -0.362149 0.458398 3.079534
v 1.353794 -0.361470 2.709653
v 1.369062 0.478644 2.569943
v 2.043998 0.458975 2.046396
v 1.276311 1.275445 2.251064
v 1.844411 1.197665 1.844657
v 3.079624 0.458491 -0.362081
v 2.947068 0.502460 0.494191
v 2.567509 0.484312 1.370084
v -0.362081 3.079624 0.458491
v 0.494191 2.947068 0.502460
v 0.458398 3.079534 -0.362149
v -0.361025 2.121303 2.121271
v 0.458975 2.046396 2.043998
v 1.197665 1.844657 1.844411
v 2.121303 2.121271 -0.361025
v 2.121271 -0.361025 2.121303
v 0.484312 1.370084 2.567509
v -0.361577 1.353758 2.709506
v 3.079534 -0.362149 0.458398
v 2.709506 -0.361577 1.353758
v -0.362364 3.185245 -0.362348
v 3.185245 -0.362348 -0.362363
v -0.362348 -0.362364 3.185245
v -0.412701 2.365834 1.155895
v 0.378797 2.237229 1.170740
v 1.171794 2.234885 0.384101
v 1.156058 2.365643 -0.413274
v 1.771777 1.769535 0.362777
v 2.365834 1.155895 -0.412701
v 2.237229 1.170740 0.378797
v 1.949347 1.090565 1.089796
v 1.089795 1.949347 1.090565
v 1.590615 1.590454 1.021685
v 1.419690 1.419690 1.419690
v 0.356086 -0.415545 2.696669
v 0.397285 0.389510 2.575611
v -0.415909 0.355755 2.696684
v 1.155895 -0.412701 2.365834
v 1.170740 0.378797 2.237229
v 1.769535 0.362777 1.771777
v 1.090565 1.089796 1.949347
v 1.590454 1.021685 1.590615
v 2.696669 0.356086 -0.415546
v 2.575611 0.397285 0.389509
v 2.234885 0.384101 1.171794
v -0.415546 2.696669 0.356086
v 0.389510 2.575611 0.397285
v 0.355755 2.696684 -0.415909
v -0.410556 1.840707 1.840536
v 0.362777 1.771777 1.769535
v 1.021685 1.590616 1.590454
v 1.840706 1.840536 -0.410557
v 1.840536 -0.410557 1.840706
v 0.384101 1.171794 2.234885
v -0.413274 1.156058 2.365643
v 2.696684 -0.415909 0.355755
v 2.365643 -0.413274 1.156058
v -0.415900 2.792470 -0.415837
v 2.792470 -0.415837 -0.415900
v -0.415838 -0.415900 2.792470
vt 0.484628 0.797216
vt 0.356209 0.644384
vt 0.325432 0.675145
vt 0.674590 0.675123
vt 0.493712 0.759482
vt 0.515386 0.797179
vt 0.796661 0.515927
vt 0.643828 0.644346
vt 0.670464 0.874046
vt 0.506324 0.759523
vt 0.845079 0.896128
vt 0.681691 0.832063
vt 0.873491 0.330091
vt 0.758968 0.494231
vt 0.154912 0.896128
vt 0.318237 0.832066
vt 0.149043 0.853068
vt 0.895573 0.155476
vt 0.831507 0.318865
vt 0.895573 0.845643
vt 0.831511 0.682319
vt 0.852513 0.851512
vt 0.126517 0.330045
vt 0.241074 0.494267
vt 0.168489 0.318792
vt 0.203376 0.515941
vt 0.329536 0.127064
vt 0.493676 0.241587
vt 0.515372 0.203894
vt 0.643791 0.356727
vt 0.674568 0.325965
vt 0.873483 0.671066
vt 0.758926 0.506844
vt 0.154921 0.104983
vt 0.318309 0.169048
vt 0.329490 0.874038
vt 0.104427 0.155467
vt 0.147487 0.149598
vt 0.796624 0.485170
vt 0.811982 0.136000
vt 0.601952 0.077809
vt 0.736549 0.000100
vt 0.888614 0.302922
vt 0.676512 0.220755
vt 0.946814 0.479074
vt 0.748617 0.373921
vt 0.450322 0.181448
vt 0.534169 0.315446
vt 0.665257 0.551924
vt 0.614043 0.442625
vt 0.309772 0.302551
vt 0.513640 0.509962
vt 0.417411 0.412469
vt 0.577335 0.574711
vt 0.839946 0.997277
vt 0.995356 0.844481
vt 0.995356 0.999900
vt 0.475419 0.942508
vt 0.665583 0.823441
vt 0.657072 0.980182
vt 0.834281 0.837579
vt 0.981417 0.661346
vt 0.823448 0.666961
vt 0.797803 0.517334
vt 0.673371 0.672544
vt 0.080077 0.590857
vt 0.134697 0.801843
vt 0.000100 0.724134
vt 0.186318 0.441030
vt 0.221211 0.665799
vt 0.317805 0.526771
vt 0.300265 0.881339
vt 0.374388 0.741726
vt 0.444591 0.608964
vt 0.553108 0.662247
vt 0.516791 0.794330
vt 0.160785 0.061922
vt 0.915455 0.659813
vt 0.834322 0.463496
vt 0.537067 0.166201
vt 0.340763 0.085081
vt 0.294655 0.705907
vt 0.084545 0.341298
vt 0.165678 0.537615
vt 0.938633 0.839774
vt 0.938633 0.161340
vt 0.160781 0.939188
vt 0.340742 0.916010
vt 0.152814 0.423271
vt 0.052231 0.565117
vt 0.839215 0.939188
vt 0.920746 0.282785
vt 0.848196 0.124755
vt 0.834354 0.537623
vt 0.705352 0.705900
vt 0.462933 0.834909
vt 0.705345 0.295203
vt 0.061367 0.161337
vt 0.537060 0.834877
vt 0.834714 0.997400
vt 0.995675 0.838864
vt 0.995675 0.999900
vt 0.830594 0.830625
vt 0.981211 0.658393
vt 0.818691 0.664879
vt 0.946677 0.479064
vt 0.654403 0.980154
vt 0.663270 0.816525
vt 0.662283 0.552871
vt 0.792339 0.519418
vt 0.475657 0.942671
vt 0.553935 0.659475
vt 0.670493 0.669391
vt 0.577335 0.574896
vt 0.814545 0.140746
vt 0.596768 0.080618
vt 0.736230 0.000100
vt 0.534585 0.320883
vt 0.309671 0.302952
vt 0.447707 0.183380
vt 0.889765 0.305524
vt 0.672173 0.227702
vt 0.743625 0.379659
vt 0.612591 0.446971
vt 0.515787 0.512341
vt 0.082746 0.586540
vt 0.139561 0.805205
vt 0.000100 0.724687
vt 0.229237 0.666360
vt 0.303086 0.882914
vt 0.378728 0.738925
vt 0.187837 0.439009
vt 0.325110 0.528502
vt 0.517878 0.788833
vt 0.448920 0.608325
vt 0.421788 0.416435
vt 0.850943 0.853068
vt 0.852513 0.149612
vt 0.149057 0.148043
vt 0.915474 0.341318
vt 0.659237 0.916030
vn -0.9918 0.1102 0.0653
vn -0.9923 0.0884 0.0872
vn -0.9923 0.0883 0.0873
vn 0.0883 0.0873 -0.9923
vn 0.0662 0.1110 -0.9916
vn 0.0655 0.1114 -0.9916
vn 0.1102 0.0653 -0.9918
vn 0.0884 0.0872 -0.9923
vn -0.9911 0.1286 0.0356
vn -0.9917 0.1102 0.0661
vn -0.9910 0.1328 0.0171
vn -0.9910 0.1287 0.0359
vn 0.1286 0.0356 -0.9911
vn 0.1102 0.0661 -0.9917
vn 0.0167 0.1328 -0.9910
vn 0.0358 0.1294 -0.9909
vn 0.0164 0.1327 -0.9910
vn 0.1328 0.0171 -0.9910
vn 0.1287 0.0359 -0.9910
vn 0.1328 -0.9910 0.0167
vn 0.1294 -0.9909 0.0358
vn 0.1327 -0.9910 0.0164
vn -0.9910 0.0356 0.1293
vn -0.9916 0.0662 0.1110
vn -0.9909 0.0358 0.1294
vn -0.9916 0.0655 0.1114
vn 0.0356 -0.9911 0.1286
vn 0.0661 -0.9917 0.1102
vn 0.0653 -0.9918 0.1102
vn 0.0872 -0.9923 0.0884
vn 0.0873 -0.9923 0.0883
vn 0.1293 -0.9910 0.0356
vn 0.1110 -0.9916 0.0662
vn 0.0171 -0.9910 0.1328
vn 0.0359 -0.9910 0.1287
vn 0.0356 0.1293 -0.9910
vn -0.9910 0.0167 0.1328
vn -0.9910 0.0164 0.1327
vn 0.1114 -0.9916 0.0655
vn 0.1305 0.9588 0.2524
vn 0.2532 0.9584 0.1315
vn 0.1267 0.9838 0.1266
vn 0.1283 0.8603 0.4933
vn 0.2633 0.9278 0.2645
vn 0.1258 0.7013 0.7017
vn 0.2526 0.8299 0.4975
vn 0.4928 0.8605 0.1294
vn 0.4973 0.8298 0.2533
vn 0.4327 0.6376 0.6374
vn 0.4641 0.7541 0.4648
vn 0.7013 0.7017 0.1258
vn 0.6376 0.6374 0.4327
vn 0.6864 0.6858 0.2420
vn 0.5774 0.5774 0.5774
vn 0.2524 0.1305 0.9588
vn 0.1315 0.2532 0.9584
vn 0.1266 0.1267 0.9838
vn 0.7017 0.1258 0.7013
vn 0.4975 0.2526 0.8299
vn 0.4933 0.1283 0.8603
vn 0.2645 0.2633 0.9278
vn 0.1294 0.4928 0.8605
vn 0.2533 0.4973 0.8298
vn 0.2420 0.6864 0.6858
vn 0.4648 0.4641 0.7541
vn 0.9588 0.2524 0.1305
vn 0.9584 0.1315 0.2532
vn 0.9838 0.1266 0.1267
vn 0.8603 0.4933 0.1283
vn 0.9278 0.2645 0.2633
vn 0.8299 0.4975 0.2526
vn 0.8605 0.1294 0.4928
vn 0.8298 0.2533 0.4973
vn 0.7541 0.4648 0.4641
vn 0.6374 0.4327 0.6376
vn 0.6858 0.2420 0.6864
vn 0.0172 -0.9910 0.1329
vn 0.1293 -0.9910 0.0353
vn 0.1117 -0.9916 0.0650
vn 0.0646 -0.9918 0.1102
vn 0.0352 -0.9911 0.1285
vn -0.9923 0.0882 0.0875
vn -0.9910 0.0353 0.1293
vn -0.9916 0.0650 0.1117
vn 0.1329 -0.9910 0.0170
vn 0.1329 0.0172 -0.9910
vn 0.0170 0.1329 -0.9910
vn 0.0353 0.1293 -0.9910
vn 0.1285 0.0352 -0.9911
vn -0.9910 0.1329 0.0172
vn -0.9911 0.1285 0.0352
vn 0.1102 0.0646 -0.9918
vn 0.0882 0.0875 -0.9923
vn -0.9918 0.1102 0.0646
vn 0.0875 -0.9923 0.0882
vn -0.9910 0.0170 0.1329
vn 0.0650 0.1117 -0.9916
vn -0.2511 -0.9595 -0.1274
vn -0.1265 -0.9599 -0.2504
vn -0.1223 -0.9849 -0.1222
vn -0.2617 -0.9286 -0.2629
vn -0.1245 -0.8607 -0.4937
vn -0.2516 -0.8297 -0.4983
vn -0.1223 -0.7016 -0.7020
vn -0.4932 -0.8608 -0.1257
vn -0.4981 -0.8296 -0.2524
vn -0.4340 -0.6371 -0.6370
vn -0.2415 -0.6865 -0.6859
vn -0.7016 -0.7020 -0.1223
vn -0.6371 -0.6370 -0.4340
vn -0.4653 -0.7525 -0.4660
vn -0.5774 -0.5774 -0.5774
vn -0.1274 -0.2511 -0.9595
vn -0.2504 -0.1265 -0.9599
vn -0.1222 -0.1223 -0.9849
vn -0.4983 -0.2516 -0.8297
vn -0.7020 -0.1223 -0.7016
vn -0.4937 -0.1245 -0.8607
vn -0.1257 -0.4932 -0.8608
vn -0.2629 -0.2617 -0.9286
vn -0.2524 -0.4981 -0.8296
vn -0.4660 -0.4653 -0.7525
vn -0.6370 -0.4340 -0.6371
vn -0.9595 -0.1274 -0.2511
vn -0.9599 -0.2504 -0.1265
vn -0.9849 -0.1222 -0.1223
vn -0.9286 -0.2629 -0.2617
vn -0.8607 -0.4937 -0.1245
vn -0.8297 -0.4983 -0.2516
vn -0.8608 -0.1257 -0.4932
vn -0.8296 -0.2524 -0.4981
vn -0.6865 -0.6859 -0.2415
vn -0.7525 -0.4660 -0.4653
vn -0.6859 -0.2415 -0.6865
vn -0.9910 0.1328 0.0169
vn 0.1328 0.0169 -0.9910
vn 0.0169 -0.9910 0.1328
s 1
f 1/1/1 81/2/2 10/3/3
f 11/4/4 59/5/5 2/6/6
f 3/7/7 84/8/8 11/4/4
f 8/9/9 56/10/10 1/1/1
f 16/11/11 78/12/12 8/9/9
f 7/13/13 61/14/14 3/7/7
f 16/15/15 80/16/16 90/17/17
f 17/18/18 75/19/19 7/13/13
f 17/20/20 88/21/21 91/22/22
f 5/23/23 87/24/24 69/25/25
f 10/3/3 87/24/24 13/26/26
f 4/27/27 70/28/28 6/29/29
f 6/29/29 85/30/30 12/31/31
f 14/32/32 89/33/33 88/21/21
f 18/34/34 67/35/35 4/27/27
f 9/36/36 59/5/5 80/16/16
f 18/37/37 69/25/25 92/38/38
f 12/31/31 89/33/33 15/39/39
f 41/40/40 43/41/41 53/42/42
f 19/43/43 42/44/44 41/40/40
f 44/45/45 20/46/46 19/43/43
f 42/44/44 22/47/47 43/41/41
f 20/46/46 21/48/48 42/44/44
f 20/46/46 46/49/49 27/50/50
f 21/48/48 47/51/51 22/47/47
f 21/48/48 28/52/52 23/53/53
f 27/50/50 29/54/54 28/52/52
f 30/55/55 32/56/56 55/57/57
f 48/58/58 34/59/59 33/60/60
f 31/61/61 50/62/62 32/56/56
f 34/59/59 49/63/63 31/61/61
f 49/63/63 44/45/45 50/62/62
f 49/63/63 46/49/49 45/64/64
f 36/65/65 29/54/54 46/49/49
f 38/66/66 51/67/67 54/68/68
f 24/69/69 39/70/70 38/66/66
f 47/51/51 25/71/71 24/69/69
f 39/70/70 52/72/72 51/67/67
f 25/71/71 40/73/73 39/70/70
f 25/71/71 28/52/52 26/74/74
f 40/73/73 48/58/58 52/72/72
f 40/73/73 37/75/75 35/76/76
f 26/74/74 29/54/54 37/75/75
f 33/60/60 31/61/61 30/55/55
f 34/59/59 37/75/75 36/65/65
f 4/27/27 55/77/77 18/34/34
f 15/39/39 51/78/78 52/79/79
f 12/31/31 33/80/80 6/29/29
f 6/29/29 30/81/81 4/27/27
f 13/26/26 44/82/82 10/3/3
f 13/26/26 32/83/83 50/84/84
f 14/32/32 54/85/85 51/78/78
f 7/13/13 54/86/86 17/18/18
f 9/36/36 53/87/87 43/88/88
f 3/89/7 38/66/89 7/90/13
f 8/9/9 53/91/90 16/11/11
f 1/92/1 41/40/91 8/93/9
f 11/4/4 24/94/92 3/7/7
f 2/6/6 47/95/93 11/4/4
f 10/3/3 19/96/94 1/1/1
f 15/39/39 48/97/95 12/31/31
f 5/23/23 55/98/96 32/83/83
f 2/6/6 43/88/88 22/99/97
f 80/100/98 78/101/99 90/102/100
f 79/103/101 56/104/102 78/101/99
f 57/105/103 81/106/104 56/104/102
f 59/107/105 79/103/101 80/100/98
f 58/108/106 57/105/103 79/103/101
f 57/105/103 83/109/107 82/110/108
f 84/111/109 58/108/106 59/107/105
f 58/108/106 65/112/110 64/113/111
f 64/113/111 66/114/112 83/109/107
f 69/115/113 67/116/114 92/117/115
f 71/118/116 85/119/117 70/120/118
f 87/121/119 68/122/120 69/115/113
f 86/123/121 71/118/116 68/122/120
f 81/106/104 86/123/121 87/121/119
f 86/123/121 83/109/107 73/124/122
f 73/124/122 66/114/112 74/125/123
f 88/126/124 75/127/125 91/128/126
f 76/129/127 61/130/128 75/127/125
f 62/131/129 84/111/109 61/130/128
f 89/132/130 76/129/127 88/126/124
f 77/133/131 62/131/129 76/129/127
f 62/131/129 65/112/110 60/134/132
f 85/119/117 77/133/131 89/132/130
f 77/133/131 74/125/123 63/135/133
f 63/135/133 66/114/112 65/112/110
f 68/122/120 70/120/118 67/116/114
f 71/118/116 74/125/123 72/136/134
f 1/1/1 56/10/10 81/2/2
f 11/4/4 84/8/8 59/5/5
f 3/7/7 61/14/14 84/8/8
f 8/9/9 78/12/12 56/10/10
f 16/11/11 90/137/135 78/12/12
f 7/13/13 75/19/19 61/14/14
f 16/15/15 9/36/36 80/16/16
f 17/18/18 91/138/136 75/19/19
f 17/20/20 14/32/32 88/21/21
f 5/23/23 13/26/26 87/24/24
f 10/3/3 81/2/2 87/24/24
f 4/27/27 67/35/35 70/28/28
f 6/29/29 70/28/28 85/30/30
f 14/32/32 15/39/39 89/33/33
f 18/34/34 92/139/137 67/35/35
f 9/36/36 2/6/6 59/5/5
f 18/37/37 5/23/23 69/25/25
f 12/31/31 85/30/30 89/33/33
f 41/40/40 42/44/44 43/41/41
f 19/43/43 20/46/46 42/44/44
f 44/45/45 45/64/64 20/46/46
f 42/44/44 21/48/48 22/47/47
f 20/46/46 27/50/50 21/48/48
f 20/46/46 45/64/64 46/49/49
f 21/48/48 23/53/53 47/51/51
f 21/48/48 27/50/50 28/52/52
f 27/50/50 46/49/49 29/54/54
f 30/55/55 31/61/61 32/56/56
f 48/58/58 35/76/76 34/59/59
f 31/61/61 49/63/63 50/62/62
f 34/59/59 36/65/65 49/63/63
f 49/63/63 45/64/64 44/45/45
f 49/63/63 36/65/65 46/49/49
f 36/65/65 37/75/75 29/54/54
f 38/66/66 39/70/70 51/67/67
f 24/69/69 25/71/71 39/70/70
f 47/51/51 23/53/53 25/71/71
f 39/70/70 40/73/73 52/72/72
f 25/71/71 26/74/74 40/73/73
f 25/71/71 23/53/53 28/52/52
f 40/73/73 35/76/76 48/58/58
f 40/73/73 26/74/74 37/75/75
f 26/74/74 28/52/52 29/54/54
f 33/60/60 34/59/59 31/61/61
f 34/59/59 35/76/76 37/75/75
f 4/27/27 30/81/81 55/77/77
f 15/39/39 14/32/32 51/78/78
f 12/31/31 48/97/95 33/80/80
f 6/29/29 33/80/80 30/81/81
f 13/26/26 50/84/84 44/82/82
f 13/26/26 5/23/23 32/83/83
f 14/32/32 17/20/20 54/85/85
f 7/13/13 38/140/89 54/86/86
f 9/36/36 16/15/15 53/87/87
f 3/89/7 24/69/92 38/66/89
f 8/9/9 41/141/91 53/91/90
f 1/92/1 19/43/94 41/40/91
f 11/4/4 47/95/93 24/94/92
f 2/6/6 22/99/97 47/95/93
f 10/3/3 44/82/82 19/96/94
f 15/39/39 52/79/79 48/97/95
f 5/23/23 18/37/37 55/98/96
f 2/6/6 9/36/36 43/88/88
f 80/100/98 79/103/101 78/101/99
f 79/103/101 57/105/103 56/104/102
f 57/105/103 82/110/108 81/106/104
f 59/107/105 58/108/106 79/103/101
f 58/108/106 64/113/111 57/105/103
f 57/105/103 64/113/111 83/109/107
f 84/111/109 60/134/132 58/108/106
f 58/108/106 60/134/132 65/112/110
f 64/113/111 65/112/110 66/114/112
f 69/115/113 68/122/120 67/116/114
f 71/118/116 72/136/134 85/119/117
f 87/121/119 86/123/121 68/122/120
f 86/123/121 73/124/122 71/118/116
f 81/106/104 82/110/108 86/123/121
f 86/123/121 82/110/108 83/109/107
f 73/124/122 83/109/107 66/114/112
f 88/126/124 76/129/127 75/127/125
f 76/129/127 62/131/129 61/130/128
f 62/131/129 60/134/132 84/111/109
f 89/132/130 77/133/131 76/129/127
f 77/133/131 63/135/133 62/131/129
f 62/131/129 63/135/133 65/112/110
f 85/119/117 72/136/134 77/133/131
f 77/133/131 72/136/134 74/125/123
f 63/135/133 74/125/123 66/114/112
f 68/122/120 71/118/116 70/120/118
f 71/118/116 73/124/122 74/125/123
