# Blender v2.90.1 OBJ File: 'GT_Basic_Blocks_3.blend'
# www.blender.org
v 0.457308 -0.350000 3.074012
v 0.457308 3.350000 3.074012
v 1.350000 -0.350000 2.704294
v 2.116295 -0.350000 2.116295
v 2.116295 3.350000 2.116295
v 2.704294 -0.350000 1.350000
v 2.704294 3.350000 1.350000
v 3.074012 -0.350000 0.457308
v 3.074012 3.350000 0.457308
v 1.350000 3.350000 2.704294
v -0.355595 3.350000 3.180046
v -0.355595 -0.350000 3.180046
v 3.180046 -0.350000 -0.355595
v 3.180046 3.350000 -0.355596
v 2.783296 3.350000 -0.406484
v 2.783296 -0.350000 -0.406484
v -0.406484 3.350000 2.783296
v -0.406484 -0.350000 2.783296
v 0.354425 -0.350000 2.687469
v 1.150000 -0.350000 2.357884
v 1.833452 -0.350000 1.833452
v 2.357884 3.350000 1.150000
v 1.833452 3.350000 1.833452
v 2.357884 -0.350000 1.150000
v 2.687469 3.350000 0.354425
v 2.687469 -0.350000 0.354425
v 1.150000 3.350000 2.357884
v 0.354425 3.350000 2.687469
vt 0.795884 1.000000
vt 0.795884 0.000000
vt 0.903464 0.000000
vt 0.500000 1.000000
vt 0.500000 1.000000
vt 0.204116 0.000000
vt 0.204116 1.000000
vt 0.096535 1.000000
vt 0.042763 1.000000
vt 0.000000 1.000000
vt 0.039675 1.000000
vt 0.108969 1.000000
vt 0.500000 0.000000
vt 0.957237 0.000000
vt 0.891031 0.000000
vt 0.891031 1.000000
vt 0.096535 0.000000
vt 0.039675 0.000000
vt 0.500000 0.000000
vt 0.903464 1.000000
vt 0.960325 0.000000
vt 0.960325 1.000000
vt 1.000000 1.000000
vt 0.957237 1.000000
vt 1.000000 0.000000
vt 0.042763 0.000000
vt 0.000000 0.000000
vt 0.108969 0.000000
vn 0.8660 0.0000 0.5000
vn 0.9661 0.0000 0.2582
vn 0.0000 1.0000 -0.0000
vn 0.5000 0.0000 0.8660
vn 0.2582 0.0000 0.9661
vn -0.5000 0.0000 -0.8660
vn -0.7071 0.0000 -0.7071
vn -0.9666 0.0000 -0.2561
vn -0.8660 0.0000 -0.5000
vn 0.1293 0.0000 0.9916
vn 0.7071 0.0000 0.7071
vn 0.9916 -0.0000 0.1293
vn 0.1272 -0.0000 -0.9919
vn -0.1250 0.0000 -0.9922
vn -0.2561 0.0000 -0.9666
vn -0.9922 -0.0000 -0.1250
vn -0.0000 -1.0000 0.0000
vn -0.9919 0.0000 0.1272
s 1
f 7/1/1 6/2/1 8/3/2
f 5/4/3 7/1/3 23/5/3
f 3/6/4 10/7/4 2/8/5
f 28/9/3 17/10/3 11/11/3
f 27/12/6 23/5/7 21/13/7
f 26/14/8 24/15/9 22/16/9
f 1/17/5 11/11/10 12/18/10
f 3/6/4 2/8/5 1/17/5
f 4/19/11 10/7/4 3/6/4
f 5/4/11 6/2/1 7/1/1
f 7/1/1 8/3/2 9/20/2
f 9/20/2 13/21/12 14/22/12
f 10/7/3 5/4/3 23/5/3
f 1/17/5 2/8/5 11/11/10
f 13/21/13 15/23/13 14/22/13
f 7/1/3 9/20/3 25/24/3
f 9/20/3 14/22/3 25/24/3
f 7/1/3 25/24/3 22/16/3
f 13/21/13 16/25/13 15/23/13
f 17/10/14 28/9/15 19/26/15
f 2/8/3 10/7/3 28/9/3
f 11/11/3 2/8/3 28/9/3
f 23/5/3 27/12/3 10/7/3
f 19/26/15 28/9/15 27/12/6
f 7/1/3 22/16/3 23/5/3
f 4/19/11 5/4/11 10/7/4
f 17/10/14 19/26/15 18/27/14
f 19/26/15 27/12/6 20/28/6
f 27/12/6 21/13/7 20/28/6
f 24/15/9 23/5/7 22/16/9
f 26/14/8 22/16/9 25/24/8
f 16/25/16 25/24/8 15/23/16
f 14/22/3 15/23/3 25/24/3
f 3/6/17 20/28/17 21/13/17
f 26/14/17 16/25/17 13/21/17
f 24/15/9 21/13/7 23/5/7
f 9/20/2 8/3/2 13/21/12
f 27/12/3 28/9/3 10/7/3
f 5/4/11 4/19/11 6/2/1
f 16/25/16 26/14/8 25/24/8
f 17/10/18 12/18/18 11/11/18
f 13/21/17 8/3/17 26/14/17
f 8/3/17 6/2/17 26/14/17
f 6/2/17 4/19/17 21/13/17
f 4/19/17 3/6/17 21/13/17
f 3/6/17 1/17/17 19/26/17
f 1/17/17 12/18/17 19/26/17
f 3/6/17 19/26/17 20/28/17
f 12/18/17 18/27/17 19/26/17
f 24/15/17 26/14/17 6/2/17
f 21/13/17 24/15/17 6/2/17
f 17/10/18 18/27/18 12/18/18
