# Blender v2.90.1 OBJ File: 'GT_Basic_Blocks_3.blend'
# www.blender.org
v 2.187006 3.450000 2.187006
v 2.187006 -0.450000 2.187006
v 2.785044 3.475000 1.396621
v 2.785044 -0.475000 1.396621
v 3.170518 3.450000 0.483512
v 3.170518 -0.450000 0.483512
v 3.293474 3.450000 -0.450428
v 1.798402 3.500000 1.798402
v 1.798402 -0.500000 1.798402
v 2.743849 -0.500000 -0.450000
v 3.286639 -0.474967 -0.450293
v 2.709813 3.473910 -0.474078
vt 0.685019 0.456215
vt 0.685019 0.396007
vt 0.704047 0.396007
vt 0.723437 0.396007
vt 0.000000 0.000000
vt 0.704047 0.456215
vt 0.709582 0.428277
vt 0.696796 0.412238
vt 0.000000 0.000000
vt 0.708317 0.396007
vt 0.719235 0.456215
vt 0.719235 0.396007
vt 0.000000 0.000000
vt 0.677389 0.395488
vt 0.723928 0.456711
vt 0.723928 0.395511
vt 0.668680 0.396007
vt 0.689098 0.419936
vt 0.697067 0.411967
vt 0.709582 0.428277
vt 0.677389 0.456734
vt 0.689098 0.419936
vt 0.708317 0.456215
vt 0.000000 0.000000
vt 0.000000 0.000000
vt 0.717079 0.447370
vt 0.708727 0.466615
vt 0.719611 0.466618
vt 0.696796 0.412238
vn 0.9213 0.0000 0.3889
vn 0.9923 -0.0017 0.1234
vn 0.9914 0.0000 0.1305
vn 0.0370 -0.9990 0.0246
vn 0.0550 -0.9958 0.0731
vn 0.0452 -0.9978 0.0489
vn 0.0034 -0.0006 -1.0000
vn 0.0368 -0.0052 -0.9993
vn -0.0005 -0.0000 -1.0000
vn 0.0428 -0.9990 0.0126
vn -0.9240 -0.0066 -0.3822
vn -0.9260 -0.0036 -0.3776
vn -0.9218 -0.0102 -0.3876
vn 0.7974 0.0000 0.6034
vn 0.7975 0.0000 0.6034
vn 0.0461 -0.9989 0.0125
vn 0.0427 0.9982 0.0428
vn 0.0550 0.9958 0.0731
vn 0.0354 0.9993 0.0121
vn -0.7071 0.0000 0.7071
vn 0.0403 -0.0057 -0.9992
vn -0.9281 0.0000 -0.3722
vn 0.0544 0.9985 -0.0012
vn 0.0408 0.9992 0.0021
vn 0.0407 0.9992 0.0054
s off
f 3/1/1 4/2/1 6/3/1
f 11/4/2 7/5/2 6/3/2
f 7/5/3 5/6/3 6/3/3
f 5/6/1 3/1/1 6/3/1
s 1
f 4/7/4 2/8/5 9/9/6
f 10/10/7 7/11/8 11/12/9
f 4/7/4 9/9/6 10/13/10
f 9/14/11 12/15/12 10/16/13
f 3/1/14 2/17/15 4/2/15
f 4/7/4 10/13/10 11/12/16
f 8/18/17 1/19/18 3/20/19
f 2/17/20 8/21/20 9/22/20
f 10/10/7 12/23/21 7/11/8
f 9/14/11 8/24/22 12/15/12
f 3/1/14 1/25/14 2/17/15
f 3/20/19 5/26/23 12/27/24
f 5/26/23 7/28/25 12/27/24
f 12/27/24 8/18/17 3/20/19
f 2/17/20 1/29/20 8/21/20
