# Blender v2.90.1 OBJ File: 'GT_Basic_Blocks_3.blend'
# www.blender.org
v 2.187006 2.450000 2.187006
v 2.187006 -0.450000 2.187006
v 1.396621 2.475000 2.785044
v 1.396621 -0.475000 2.785044
v 0.483512 2.450000 3.170518
v 0.483512 -0.450000 3.170518
v -0.450428 2.450000 3.293474
v 1.798402 2.500000 1.798402
v 1.798402 -0.500000 1.798402
v -0.450000 -0.500000 2.743849
v -0.450293 -0.474967 3.286639
v -0.474078 2.473910 2.709813
vt 0.685019 0.456215
vt 0.000000 0.000000
vt 0.000000 0.000000
vt 0.000000 0.000000
vt 0.723437 0.456215
vt 0.704047 0.456215
vt 0.709582 0.428277
vt 0.000000 0.000000
vt 0.696796 0.412238
vt 0.708317 0.396007
vt 0.719235 0.396007
vt 0.719235 0.456215
vt 0.000000 0.000000
vt 0.677389 0.395488
vt 0.723928 0.395511
vt 0.723928 0.456711
vt 0.668680 0.396007
vt 0.668680 0.456215
vt 0.689098 0.419936
vt 0.709582 0.428277
vt 0.697067 0.411967
vt 0.689098 0.419936
vt 0.688457 0.420577
vt 0.708317 0.456215
vt 0.000000 0.000000
vt 0.708727 0.466615
vt 0.717079 0.447370
vt 0.719611 0.466618
vt 0.696796 0.412238
vn 0.3889 0.0000 0.9213
vn 0.1235 -0.0023 0.9923
vn 0.1305 0.0000 0.9914
vn 0.0246 -0.9990 0.0370
vn 0.0489 -0.9978 0.0452
vn 0.0731 -0.9958 0.0550
vn -1.0000 -0.0010 0.0047
vn -1.0000 -0.0000 -0.0005
vn -0.9993 -0.0068 0.0356
vn 0.0126 -0.9990 0.0428
vn -0.3809 -0.0077 -0.9246
vn -0.3876 -0.0137 -0.9217
vn -0.3789 -0.0059 -0.9254
vn 0.6034 0.0000 0.7975
vn 0.0125 -0.9989 0.0461
vn 0.0428 0.9982 0.0427
vn 0.0121 0.9993 0.0354
vn 0.0731 0.9958 0.0550
vn 0.7071 0.0000 -0.7071
vn -0.9992 -0.0076 0.0402
vn -0.3722 0.0000 -0.9281
vn 0.0021 0.9992 0.0408
vn -0.0012 0.9985 0.0544
vn 0.0054 0.9992 0.0407
s off
f 3/1/1 6/2/1 4/3/1
f 11/4/2 6/2/2 7/5/2
f 7/5/3 6/2/3 5/6/3
f 5/6/1 6/2/1 3/1/1
s 1
f 4/7/4 9/8/5 2/9/6
f 10/10/7 11/11/8 7/12/9
f 4/7/4 10/13/10 9/8/5
f 9/14/11 10/15/12 12/16/13
f 2/17/14 1/18/14 3/1/14
f 4/7/4 11/11/15 10/13/10
f 8/19/16 3/20/17 1/21/18
f 2/17/19 9/22/19 8/23/19
f 10/10/7 7/12/9 12/24/20
f 9/14/11 12/16/13 8/25/21
f 2/17/14 3/1/14 4/3/14
f 3/20/17 12/26/22 5/27/23
f 5/27/23 12/26/22 7/28/24
f 12/26/22 3/20/17 8/19/16
f 2/17/19 8/23/19 1/29/19
