# Blender v2.90.1 OBJ File: 'GT_Basic_Blocks_3.blend'
# www.blender.org
v 0.384189 -0.500000 0.384189
v 0.366358 2.493301 0.366358
v -0.034126 -0.450000 1.238666
v -0.450428 -0.450000 1.293473
v -0.475260 2.450000 1.290142
v -0.035874 2.475000 1.232140
v 0.772792 2.450000 0.772792
v 0.772792 -0.450000 0.772792
v -0.475260 2.450000 0.703344
v -0.474078 -0.473911 0.709812
vt 0.000000 0.000000
vt 0.692041 0.406693
vt 0.692041 0.481693
vt 0.679873 0.481693
vt 0.712211 0.460474
vt 0.679443 0.443704
vt 0.694079 0.429068
vt 0.000000 0.000000
vt 0.000000 0.000000
vt 0.000000 0.000000
vt 0.692860 0.481693
vt 0.692860 0.406693
vt 0.713620 0.406693
vt 0.694978 0.481693
vt 0.711411 0.481693
vt 0.679443 0.443704
vt 0.712211 0.460474
vt 0.694079 0.429068
vt 0.693764 0.477615
vt 0.714422 0.477579
vt 0.713620 0.481693
vt 0.000000 0.000000
vt 0.693764 0.477615
vt 0.714422 0.477579
vn -0.3548 -0.0022 -0.9349
vn -0.3714 -0.0077 -0.9285
vn 0.0079 -0.9985 0.0548
vn 0.0254 -0.9972 0.0708
vn 0.0469 -0.9956 0.0812
vn 0.3208 0.0014 0.9472
vn 0.5000 0.0000 0.8660
vn 0.4951 0.0018 0.8688
vn -1.0000 -0.0075 0.0051
vn -0.9992 -0.0003 0.0405
vn -0.9994 -0.0013 0.0355
vn 0.3200 0.0023 0.9474
vn 0.1307 0.0023 0.9914
vn 0.0158 0.9995 0.0285
vn -0.0293 0.9995 0.0095
vn 0.0581 0.9971 0.0481
vn 0.7071 0.0000 -0.7071
vn -0.0047 -0.9988 0.0491
vn 0.0054 -0.9992 0.0407
vn -1.0000 -0.0086 0.0000
vn 0.1305 0.0023 0.9914
vn -0.0542 0.9985 -0.0022
vn -0.0568 0.9984 0.0000
s off
f 1/1/1 10/2/1 9/3/1
f 1/1/2 9/3/2 2/4/2
s 1
f 3/5/3 1/6/4 8/7/5
f 3/8/6 8/9/7 7/10/8
f 9/11/9 10/12/10 4/13/11
f 3/8/6 6/14/12 5/15/13
f 2/16/14 6/17/15 7/18/16
f 2/4/17 7/18/17 8/9/17
f 1/6/4 3/5/3 10/19/18
f 10/19/18 3/5/3 4/20/19
f 3/8/6 7/10/8 6/14/12
f 9/11/9 4/13/11 5/21/20
f 3/8/6 5/15/13 4/22/21
f 6/17/15 9/23/22 5/24/23
f 9/23/22 6/17/15 2/16/14
f 2/4/17 8/9/17 1/6/17
