# Blender v2.90.1 OBJ File: 'GT_Basic_Blocks_3.blend'
# www.blender.org
v 0.384189 -0.500000 0.384189
v 0.366358 2.493301 0.366358
v 1.238666 -0.450000 -0.034126
v 1.293473 -0.450000 -0.450428
v 1.290142 2.450000 -0.475260
v 1.232140 2.475000 -0.035874
v 0.772792 2.450000 0.772792
v 0.772792 -0.450000 0.772792
v 0.703344 2.450000 -0.475260
v 0.709812 -0.473911 -0.474078
vt 0.000000 0.000000
vt 0.692041 0.481693
vt 0.692041 0.406693
vt 0.679873 0.481693
vt 0.712211 0.460474
vt 0.694079 0.429068
vt 0.679443 0.443704
vt 0.000000 0.000000
vt 0.000000 0.000000
vt 0.000000 0.000000
vt 0.692860 0.481693
vt 0.713620 0.406693
vt 0.692860 0.406693
vt 0.711411 0.481693
vt 0.694978 0.481693
vt 0.679443 0.443704
vt 0.694079 0.429068
vt 0.712211 0.460474
vt 0.693764 0.477615
vt 0.714422 0.477579
vt 0.713620 0.481693
vt 0.000000 0.000000
vt 0.714422 0.477579
vt 0.693764 0.477615
vn -0.9349 -0.0022 -0.3548
vn -0.9285 -0.0077 -0.3714
vn 0.0548 -0.9985 0.0079
vn 0.0812 -0.9956 0.0469
vn 0.0708 -0.9972 0.0254
vn 0.9472 0.0014 0.3208
vn 0.8688 0.0018 0.4951
vn 0.8660 0.0000 0.5000
vn 0.0051 -0.0075 -1.0000
vn 0.0355 -0.0013 -0.9994
vn 0.0405 -0.0003 -0.9992
vn 0.9914 0.0023 0.1307
vn 0.9474 0.0023 0.3200
vn 0.0285 0.9995 0.0158
vn 0.0481 0.9971 0.0581
vn 0.0095 0.9995 -0.0293
vn -0.7071 -0.0000 0.7071
vn 0.0491 -0.9988 -0.0047
vn 0.0407 -0.9992 0.0054
vn 0.0000 -0.0086 -1.0000
vn 0.9914 0.0023 0.1305
vn 0.0000 0.9984 -0.0568
vn -0.0022 0.9985 -0.0542
s off
f 1/1/1 9/2/1 10/3/1
f 1/1/2 2/4/2 9/2/2
s 1
f 3/5/3 8/6/4 1/7/5
f 3/8/6 7/9/7 8/10/8
f 9/11/9 4/12/10 10/13/11
f 3/8/6 5/14/12 6/15/13
f 2/16/14 7/17/15 6/18/16
f 2/4/17 8/10/17 7/17/17
f 1/7/5 10/19/18 3/5/3
f 10/19/18 4/20/19 3/5/3
f 3/8/6 6/15/13 7/9/7
f 9/11/9 5/21/20 4/12/10
f 3/8/6 4/22/21 5/14/12
f 6/18/16 5/23/22 9/24/23
f 9/24/23 2/16/14 6/18/16
f 2/4/17 1/7/17 8/10/17
