# Blender v2.90.1 OBJ File: 'GT_Basic_Blocks_3.blend'
# www.blender.org
v 2.187006 1.450000 2.187006
v 2.187006 -0.450000 2.187006
v 1.396621 1.475000 2.785044
v 1.396621 -0.475000 2.785044
v 0.483512 1.450000 3.170518
v 0.483512 -0.450000 3.170518
v -0.450428 1.450000 3.293474
v 1.798402 1.500000 1.798402
v 1.798402 -0.500000 1.798402
v -0.450000 -0.500000 2.743849
v -0.450293 -0.474967 3.286639
v -0.474078 1.473910 2.709813
vt 0.000000 0.000000
vt 0.000000 0.000000
vt 0.685019 0.396007
vt 0.719235 0.396007
vt 0.708317 0.396007
vt 0.000000 0.000000
vt 0.719235 0.456215
vt 0.709582 0.428277
vt 0.689098 0.419936
vt 0.696796 0.412238
vt 0.677389 0.395488
vt 0.708020 0.467115
vt 0.723928 0.456711
vt 0.668680 0.456215
vt 0.685019 0.456215
vt 0.677389 0.456734
vt 0.696796 0.412238
vt 0.000000 0.000000
vt 0.709582 0.428277
vt 0.697067 0.411967
vt 0.723437 0.396007
vt 0.723437 0.456215
vt 0.000000 0.000000
vt 0.708317 0.456215
vt 0.668680 0.396007
vt 0.708727 0.466615
vt 0.717079 0.447370
vt 0.719611 0.466618
vn 0.5000 0.0000 0.8660
vn 0.2596 -0.0013 0.9657
vn 0.0125 -0.9989 0.0461
vn 0.0126 -0.9990 0.0428
vn 0.0246 -0.9990 0.0370
vn -1.0000 -0.0022 0.0071
vn -1.0000 -0.0001 -0.0005
vn -0.9994 -0.0096 0.0332
vn 0.0489 -0.9978 0.0452
vn 0.0731 -0.9958 0.0550
vn -0.3789 -0.0089 -0.9254
vn -0.3875 -0.0206 -0.9216
vn -0.3809 -0.0116 -0.9245
vn 0.6034 0.0000 0.7975
vn 0.7071 0.0000 -0.7071
vn 0.0428 0.9982 0.0427
vn 0.0121 0.9993 0.0354
vn 0.0731 0.9958 0.0550
vn 0.1235 -0.0035 0.9923
vn 0.1285 -0.0010 0.9917
vn 0.2631 0.0000 0.9648
vn -0.9991 -0.0115 0.0400
vn -0.3722 0.0000 -0.9281
vn 0.0021 0.9992 0.0408
vn -0.0012 0.9985 0.0544
vn 0.0054 0.9992 0.0407
s 1
f 3/1/1 6/2/2 4/3/1
f 11/4/3 10/5/4 4/6/5
f 10/5/6 11/4/7 7/7/8
f 4/8/5 9/9/9 2/10/10
f 9/11/11 10/12/12 12/13/13
f 1/14/14 3/15/1 4/3/1
f 10/5/4 9/9/9 4/6/5
f 9/9/15 8/16/15 1/17/15
f 8/18/16 3/19/17 1/20/18
f 11/21/19 6/2/2 7/22/20
f 7/22/20 6/2/2 5/23/21
f 5/23/21 6/2/2 3/1/1
f 10/5/6 7/7/8 12/24/22
f 9/11/11 12/13/13 8/16/23
f 1/14/14 4/3/1 2/25/14
f 9/9/15 1/17/15 2/25/15
f 3/19/17 12/26/24 5/27/25
f 5/27/25 12/26/24 7/28/26
f 12/26/24 3/19/17 8/18/16
