# Blender v2.90.1 OBJ File: 'GT_Basic_Blocks_3.blend'
# www.blender.org
v 1.709812 1.473911 -0.474077
v 1.709813 -0.473911 -0.474077
v 1.091296 -0.500000 1.091296
v 1.091296 1.500000 1.091296
v 1.479899 1.450000 1.479899
v 1.475121 -0.475000 1.475121
v 1.919019 -0.475000 0.896622
v 2.204592 1.450000 0.224693
v 2.180236 -0.493301 0.218167
v 2.293474 1.450000 -0.450428
v 2.293474 -0.450000 -0.450428
vt 0.708087 0.464871
vt 0.000000 0.000000
vt 0.000000 0.000000
vt 0.000000 0.000000
vt 0.716107 0.437926
vt 0.724367 0.457868
vt 0.710337 0.464871
vt 0.725905 0.408628
vt 0.710337 0.408628
vt 0.000000 0.000000
vt 0.728772 0.407920
vt 0.683348 0.407888
vt 0.702580 0.421188
vt 0.723839 0.458010
vt 0.710922 0.477789
vt 0.691605 0.432164
vt 0.000000 0.000000
vt 0.723839 0.458010
vt 0.000000 0.000000
vt 0.000000 0.000000
vt 0.702580 0.421188
vt 0.691605 0.432164
vt 0.670931 0.408628
vt 0.725905 0.464871
vt 0.709914 0.465579
vt 0.726441 0.477793
vt 0.726441 0.477793
vt 0.690691 0.433078
vn 0.9914 0.0000 0.1305
vn 0.9860 -0.0129 0.1662
vn 0.8713 0.0041 0.4907
vn 0.9330 -0.0129 0.3596
vn 0.8829 0.0326 0.4685
vn 0.0405 -0.0000 -0.9992
vn -0.9300 -0.0000 -0.3675
vn 0.0362 -0.9987 0.0348
vn 0.0130 -0.9997 -0.0197
vn 0.0703 -0.9961 0.0539
vn 0.0496 0.9987 0.0090
vn 0.0435 0.9990 0.0034
vn 0.0718 0.9968 0.0347
vn 0.8501 0.0347 0.5255
vn 0.7933 -0.0035 0.6088
vn 0.0211 -0.9996 0.0187
vn 0.0158 -0.9991 -0.0387
vn -0.7071 0.0000 0.7071
vn 0.0812 0.9956 0.0469
vn 0.0407 0.9992 0.0054
vn 0.0432 -0.9974 -0.0573
s off
f 8/1/1 11/2/1 10/3/1
f 8/1/2 9/4/2 11/2/2
s 1
f 7/5/3 9/6/4 8/1/5
f 1/7/6 11/8/6 2/9/6
f 4/10/7 2/11/7 3/12/7
f 6/13/8 9/6/9 7/5/10
f 8/14/11 1/15/12 4/16/13
f 7/5/3 5/17/14 6/13/15
f 9/18/9 3/19/16 2/20/17
f 5/21/18 3/22/18 6/23/18
f 1/7/6 10/24/6 11/8/6
f 4/10/7 1/25/7 2/11/7
f 4/16/13 5/21/19 8/14/11
f 8/14/11 10/26/20 1/15/12
f 7/5/3 8/1/5 5/17/14
f 2/20/17 11/27/21 9/18/9
f 9/18/9 6/13/8 3/19/16
f 5/21/18 4/28/18 3/22/18
