# Blender v2.90.1 OBJ File: 'GT_Basic_Blocks_3.blend'
# www.blender.org
v 0.353306 -0.475000 0.353306
v 0.384189 1.500000 0.384189
v 1.238667 -0.450000 -0.034126
v 1.268107 -0.493320 -0.450135
v 1.268107 1.493320 -0.450135
v 1.214310 1.493301 -0.040652
v 0.754962 1.493301 0.754962
v 0.772792 -0.450000 0.772792
v 1.058846 1.450000 0.400000
v 1.058846 -0.450000 0.400000
v 0.724093 1.450000 -0.493456
v 0.743849 -0.500000 -0.450000
vt 0.679684 0.405706
vt 0.692297 0.482637
vt 0.692297 0.477583
vt 0.000000 0.000000
vt 0.695047 0.482680
vt 0.663126 0.481693
vt 0.677841 0.481693
vt 0.692860 0.481693
vt 0.713620 0.406693
vt 0.692860 0.406693
vt 0.712211 0.460474
vt 0.693640 0.476633
vt 0.679443 0.443704
vt 0.000000 0.000000
vt 0.000000 0.000000
vt 0.000000 0.000000
vt 0.711411 0.481693
vt 0.694978 0.481693
vt 0.679443 0.443704
vt 0.693640 0.476633
vt 0.677841 0.406693
vt 0.679684 0.482680
vt 0.694079 0.429068
vt 0.713620 0.481693
vt 0.714334 0.476638
vt 0.000000 0.000000
vt 0.711411 0.406693
vt 0.714334 0.476638
vt 0.694978 0.406693
vt 0.694079 0.429068
vn -0.8994 -0.0188 -0.4367
vn -0.9319 0.0202 -0.3621
vn -0.0069 0.9999 -0.0141
vn 0.0638 0.9973 0.0368
vn 0.3906 0.8925 0.2255
vn 0.0667 -0.0036 -0.9978
vn 0.0137 -0.0184 -0.9997
vn 0.0000 -0.0223 -0.9998
vn -0.0450 0.9979 -0.0467
vn -0.0024 0.9998 -0.0204
vn 0.7884 0.0020 0.6151
vn 0.8660 0.0112 0.5000
vn 0.7604 0.0129 0.6494
vn 0.9745 0.0018 0.2246
vn 0.9924 0.0111 0.1222
vn 0.9731 0.0130 0.2302
vn 0.0328 -0.9987 0.0389
vn 0.0363 -0.9974 0.0628
vn 0.0438 -0.9984 0.0355
vn -0.7071 0.0000 0.7071
vn 0.0794 0.0000 -0.9968
vn -0.0786 0.9969 -0.0103
vn 0.8660 0.0000 0.5000
vn 0.9975 0.0000 0.0706
vn 0.0127 -0.9944 0.1045
vn 0.0541 -0.9970 0.0555
vn 0.0337 -0.9991 0.0259
s off
f 1/1/1 11/2/1 12/3/1
f 1/1/2 2/4/2 11/2/2
s 1
f 6/5/3 7/6/4 9/7/5
f 11/8/6 4/9/7 12/10/8
f 6/11/3 11/12/9 2/13/10
f 8/14/11 9/7/12 7/15/13
f 3/16/14 5/17/15 6/18/16
f 9/7/12 3/16/14 6/18/16
f 1/19/17 12/20/18 10/21/19
f 2/22/20 8/14/20 7/23/20
f 11/8/6 5/24/21 4/9/7
f 2/13/10 7/23/4 6/11/3
f 6/11/3 5/25/22 11/12/9
f 8/14/11 10/26/23 9/7/12
f 3/16/14 4/27/24 5/17/15
f 9/7/12 10/26/23 3/16/14
f 12/20/18 4/28/25 3/29/26
f 3/29/26 10/21/19 12/20/18
f 10/21/19 8/30/27 1/19/17
f 2/22/20 1/19/20 8/14/20
