# Blender v2.90.1 OBJ File: 'GT_Basic_Blocks_3.blend'
# www.blender.org
v 1.000000 -0.382798 -0.470000
v 0.948888 -0.382798 -0.111772
v 0.799038 -0.382798 0.249999
v 0.560660 -0.382798 0.560659
v 0.250000 -0.382798 0.799037
v -0.111772 -0.382798 0.948888
v -0.470000 -0.382798 0.999999
v -0.470001 1.204202 -0.470001
v -0.064757 1.152378 -0.470001
v 0.339928 0.990986 -0.470001
v 0.688907 0.729380 -0.470001
v 0.958105 0.382953 -0.470001
v 1.128161 -0.017300 -0.470001
v 1.184503 -0.357613 -0.470000
v -0.079588 1.152378 -0.387352
v 0.311309 0.990986 -0.282611
v 0.648396 0.729380 -0.192289
v 0.908421 0.382953 -0.122615
v 1.072683 -0.017300 -0.078602
v 1.127105 -0.357613 -0.064019
v -0.123069 1.152378 -0.282379
v 0.227399 0.990986 -0.080036
v 0.529623 0.729380 0.094453
v 0.762756 0.382953 0.229052
v 0.910028 -0.017300 0.314080
v 0.958823 -0.357613 0.342251
v -0.192237 1.152378 -0.192237
v 0.093919 0.990986 0.093918
v 0.340684 0.729380 0.340683
v 0.531036 0.382953 0.531035
v 0.651284 -0.017300 0.651283
v 0.691124 -0.357613 0.691123
v -0.282379 1.152378 -0.123069
v -0.080036 0.990986 0.227399
v 0.094453 0.729380 0.529623
v 0.229052 0.382953 0.762755
v 0.314080 -0.017300 0.910028
v 0.342252 -0.357613 0.958822
v -0.387351 1.152378 -0.079589
v -0.282611 0.990986 0.311308
v -0.192288 0.729380 0.648395
v -0.122615 0.382953 0.908420
v -0.078601 -0.017300 1.072682
v -0.064019 -0.357613 1.127105
v -0.470000 1.152378 -0.064758
v -0.470000 0.990986 0.339928
v -0.470000 0.729380 0.688906
v -0.470000 0.382953 0.958104
v -0.470000 -0.017300 1.128160
v -0.470000 -0.357613 1.184502
v -0.470001 0.794202 -0.470001
v -0.158787 0.754025 -0.470001
v 0.150070 0.655686 -0.480001
v 0.422412 0.468212 -0.480001
v 0.629971 0.225450 -0.480001
v 0.769616 -0.055485 -0.470001
v 0.815496 -0.407983 -0.470000
v -0.170413 0.754025 -0.411688
v 0.127578 0.655686 -0.339162
v 0.390641 0.468212 -0.268675
v 0.591127 0.225450 -0.214954
v 0.726355 -0.055485 -0.171400
v 0.770671 -0.407983 -0.159525
v -0.204501 0.754025 -0.329394
v 0.061637 0.655686 -0.179965
v 0.297493 0.468212 -0.043795
v 0.477244 0.225450 0.059985
v 0.599520 -0.055485 0.134807
v 0.639253 -0.407983 0.157747
v -0.258726 0.754025 -0.258726
v -0.043260 0.655686 -0.043261
v 0.149315 0.468211 0.149314
v 0.296081 0.225450 0.296080
v 0.397754 -0.055485 0.397753
v 0.430196 -0.407983 0.430196
v -0.329393 0.754025 -0.204501
v -0.179965 0.655686 0.061637
v -0.043794 0.468211 0.297492
v 0.059985 0.225450 0.477243
v 0.134808 -0.055485 0.599519
v 0.157748 -0.407983 0.639252
v -0.411687 0.754025 -0.170414
v -0.339161 0.655686 0.127578
v -0.268674 0.468211 0.390640
v -0.214954 0.225450 0.591127
v -0.171399 -0.055485 0.726354
v -0.159525 -0.407983 0.770671
v -0.470000 0.754025 -0.158788
v -0.480000 0.655686 0.150069
v -0.480000 0.468211 0.422412
v -0.480000 0.225450 0.629970
v -0.470000 -0.055485 0.769615
v -0.470000 -0.407983 0.815495
vt 0.840979 0.409190
vt 0.809587 0.500555
vt 0.853008 0.500555
vt 0.591365 0.159576
vt 0.500000 0.190969
vt 0.580127 0.201517
vt 0.805714 0.324051
vt 0.799038 0.420428
vt 0.676504 0.194842
vt 0.718911 0.281644
vt 0.749614 0.250941
vt 0.768110 0.345762
vt 0.654793 0.232445
vt 0.500000 0.511076
vt 0.400829 0.420874
vt 0.500000 0.420874
vt 0.602430 0.500555
vt 0.690932 0.449395
vt 0.697668 0.500555
vt 0.397397 0.323348
vt 0.500000 0.323348
vt 0.770262 0.428139
vt 0.779796 0.500555
vt 0.500000 0.588165
vt 0.411187 0.511076
vt 0.500000 0.500555
vt 0.598939 0.474045
vt 0.427584 0.588165
vt 0.328426 0.511076
vt 0.588707 0.449341
vt 0.308416 0.420874
vt 0.671185 0.401722
vt 0.301786 0.323348
vt 0.742310 0.360658
vt 0.229059 0.420874
vt 0.219683 0.323348
vt 0.697845 0.302710
vt 0.742642 0.257913
vt 0.797175 0.328981
vt 0.572429 0.428127
vt 0.257358 0.511076
vt 0.639772 0.360783
vt 0.742642 0.511076
vt 0.691585 0.420874
vt 0.770941 0.420874
vt 0.551215 0.411849
vt 0.598834 0.329370
vt 0.780317 0.323348
vt 0.698214 0.323348
vt 0.639898 0.258245
vt 0.671574 0.203380
vt 0.639898 0.588165
vt 0.588813 0.511076
vt 0.671574 0.511076
vt 0.526511 0.401616
vt 0.599172 0.420874
vt 0.551160 0.309623
vt 0.602603 0.323348
vt 0.572416 0.230294
vt 0.500000 0.420874
vt 0.500000 0.323348
vt 0.500000 0.302888
vt 0.500000 0.220760
vt 0.500000 0.588165
vt 0.500000 0.511076
vt 0.500000 0.398126
vt 0.698214 0.157238
vt 0.602603 0.117635
vt 0.780317 0.220238
vt 0.843317 0.302341
vt 0.500000 0.147548
vt 0.500000 0.104127
vt 0.882920 0.397952
vt 0.500000 0.396954
vt 0.430564 0.465396
vt 0.500000 0.465396
vt 0.650047 0.460350
vt 0.580301 0.500555
vt 0.655340 0.500555
vt 0.419873 0.311077
vt 0.500000 0.311077
vt 0.711956 0.443762
vt 0.719433 0.500555
vt 0.500000 0.524538
vt 0.577564 0.479772
vt 0.500000 0.500555
vt 0.365861 0.465396
vt 0.443207 0.524538
vt 0.569542 0.460405
vt 0.422668 0.396954
vt 0.634528 0.422885
vt 0.345207 0.311077
vt 0.690034 0.390839
vt 0.288724 0.396954
vt 0.350605 0.396954
vt 0.655162 0.345393
vt 0.689702 0.310853
vt 0.732337 0.366416
vt 0.556781 0.443774
vt 0.310298 0.465396
vt 0.609842 0.390713
vt 0.649395 0.396954
vt 0.689702 0.465396
vt 0.711276 0.396954
vt 0.540150 0.431013
vt 0.718911 0.311077
vt 0.577670 0.366027
vt 0.634140 0.268219
vt 0.569436 0.465396
vt 0.609716 0.524538
vt 0.634140 0.465396
vt 0.520783 0.422991
vt 0.577333 0.396954
vt 0.654793 0.311077
vt 0.556793 0.288600
vt 0.609716 0.310521
vt 0.580127 0.311077
vt 0.500000 0.396954
vt 0.500000 0.345215
vt 0.540205 0.350509
vt 0.500000 0.524538
vt 0.556793 0.524538
vt 0.500000 0.420255
vt 0.360102 0.588165
vt 0.572416 0.588165
vt 0.896428 0.500555
vt 0.390284 0.524538
vt 0.281089 0.311077
vt 0.500000 0.311077
vt 0.500000 0.281123
vt 0.500000 0.465396
vn 0.1305 -0.9908 0.0358
vn 0.1351 -0.9906 0.0193
vn 0.1352 -0.9906 0.0192
vn 0.0358 -0.9908 0.1305
vn 0.0193 -0.9906 0.1351
vn 0.0359 -0.9908 0.1304
vn 0.1171 -0.9908 0.0676
vn 0.1304 -0.9908 0.0359
vn 0.0676 -0.9908 0.1171
vn 0.0956 -0.9908 0.0956
vn 0.8585 0.4980 0.1225
vn 0.9270 0.2765 0.2534
vn 0.9522 0.2739 0.1349
vn 0.2619 0.9640 0.0456
vn 0.4789 0.8676 0.1340
vn 0.4967 0.8647 0.0751
vn 0.9517 0.1632 0.2599
vn 0.9771 0.1618 0.1381
vn 0.6810 0.7078 0.1879
vn 0.7030 0.7038 0.1020
vn 0.8341 0.5019 0.2287
vn 0.0854 0.9927 0.0854
vn 0.2493 0.9657 0.0731
vn 0.7490 0.5019 0.4325
vn 0.2269 0.9651 0.1309
vn 0.8322 0.2766 0.4805
vn 0.4309 0.8674 0.2488
vn 0.8544 0.1633 0.4933
vn 0.6118 0.7077 0.3532
vn 0.6795 0.2766 0.6795
vn 0.6976 0.1633 0.6976
vn 0.4996 0.7077 0.4996
vn 0.6116 0.5019 0.6116
vn 0.1854 0.9650 0.1854
vn 0.3519 0.8674 0.3519
vn 0.4805 0.2766 0.8322
vn 0.1309 0.9651 0.2269
vn 0.2488 0.8674 0.4309
vn 0.4933 0.1633 0.8544
vn 0.3532 0.7077 0.6118
vn 0.4325 0.5019 0.7490
vn 0.2287 0.5019 0.8341
vn 0.0731 0.9657 0.2493
vn 0.2534 0.2765 0.9270
vn 0.1340 0.8676 0.4789
vn 0.2599 0.1632 0.9517
vn 0.1879 0.7078 0.6810
vn 0.1349 0.2739 0.9522
vn 0.1381 0.1618 0.9771
vn 0.0751 0.8647 0.4967
vn 0.1020 0.7038 0.7030
vn 0.1225 0.4980 0.8585
vn 0.0456 0.9640 0.2619
vn 0.0356 -0.9908 0.1305
vn 0.0192 -0.9906 0.1352
vn 0.0191 -0.9906 0.1352
vn 0.1305 -0.9908 0.0356
vn -0.9476 -0.2883 -0.1375
vn -0.8055 -0.5497 -0.2213
vn -0.8294 -0.5452 -0.1216
vn -0.4330 -0.8930 -0.1227
vn -0.2266 -0.9730 -0.0435
vn -0.4516 -0.8894 -0.0711
vn -0.9562 -0.1290 -0.2627
vn -0.9816 -0.1278 -0.1417
vn -0.6503 -0.7378 -0.1810
vn -0.6720 -0.7337 -0.1003
vn -0.2149 -0.9744 -0.0655
vn -0.0873 -0.9923 -0.0873
vn -0.7227 -0.5515 -0.4167
vn -0.1971 -0.9738 -0.1138
vn -0.9225 -0.2905 -0.2543
vn -0.3908 -0.8924 -0.2255
vn -0.8588 -0.1291 -0.4958
vn -0.5847 -0.7377 -0.3375
vn -0.6761 -0.2928 -0.6761
vn -0.8280 -0.2921 -0.4785
vn -0.4774 -0.7377 -0.4774
vn -0.5896 -0.5521 -0.5896
vn -0.1613 -0.9736 -0.1613
vn -0.3191 -0.8924 -0.3191
vn -0.4785 -0.2921 -0.8280
vn -0.1138 -0.9738 -0.1971
vn -0.7012 -0.1291 -0.7012
vn -0.2255 -0.8924 -0.3908
vn -0.4167 -0.5515 -0.7227
vn -0.2213 -0.5497 -0.8055
vn -0.3375 -0.7377 -0.5847
vn -0.0655 -0.9744 -0.2149
vn -0.2543 -0.2905 -0.9225
vn -0.4958 -0.1291 -0.8588
vn -0.1810 -0.7378 -0.6503
vn -0.2627 -0.1290 -0.9562
vn -0.1375 -0.2883 -0.9476
vn -0.0711 -0.8894 -0.4516
vn -0.1227 -0.8930 -0.4330
vn -0.1003 -0.7337 -0.6720
vn -0.0435 -0.9730 -0.2266
vn 0.1352 -0.9906 0.0191
vn -0.1417 -0.1278 -0.9816
vn -0.1216 -0.5452 -0.8294
s 1
f 2/1/1 57/2/2 1/3/3
f 6/4/4 93/5/5 87/6/6
f 3/7/7 63/8/8 2/1/1
f 5/9/9 75/10/10 4/11/10
f 4/11/10 69/12/7 3/7/7
f 5/9/9 87/6/6 81/13/9
f 12/14/11 19/15/12 13/16/13
f 9/17/14 16/18/15 10/19/16
f 13/16/13 20/20/17 14/21/18
f 10/19/16 17/22/19 11/23/20
f 11/24/20 18/25/21 12/14/11
f 9/17/14 8/26/22 15/27/23
f 17/28/19 24/29/24 18/25/21
f 15/27/23 8/26/22 21/30/25
f 18/25/21 25/31/26 19/15/12
f 15/27/23 22/32/27 16/18/15
f 20/20/17 25/31/26 26/33/28
f 16/18/15 23/34/29 17/22/19
f 26/33/28 31/35/30 32/36/31
f 22/32/27 29/37/32 23/34/29
f 23/34/29 30/38/33 24/39/24
f 21/30/25 8/26/22 27/40/34
f 25/31/26 30/41/33 31/35/30
f 22/32/27 27/40/34 28/42/35
f 30/43/33 37/44/36 31/45/30
f 28/42/35 33/46/37 34/47/38
f 32/48/31 37/44/36 38/49/39
f 29/37/32 34/47/38 35/50/40
f 30/38/33 35/50/40 36/51/41
f 27/40/34 8/26/22 33/46/37
f 35/52/40 42/53/42 36/54/41
f 33/46/37 8/26/22 39/55/43
f 37/44/36 42/53/42 43/56/44
f 33/46/37 40/57/45 34/47/38
f 38/49/39 43/56/44 44/58/46
f 35/50/40 40/57/45 41/59/47
f 44/58/46 49/60/48 50/61/49
f 41/59/47 46/62/50 47/63/51
f 42/53/42 47/64/51 48/65/52
f 39/55/43 8/26/22 45/66/53
f 43/56/44 48/65/52 49/60/48
f 40/57/45 45/66/53 46/62/50
f 6/4/4 38/67/9 44/68/54
f 3/7/7 32/69/10 4/11/10
f 4/11/10 38/67/9 5/9/9
f 2/1/1 26/70/7 3/7/7
f 7/71/55 44/68/54 50/72/56
f 1/3/3 20/73/57 2/1/1
f 56/74/58 61/75/59 55/76/60
f 59/77/61 52/78/62 53/79/63
f 63/80/64 56/74/58 57/81/65
f 60/82/66 53/79/63 54/83/67
f 61/75/59 54/84/67 55/76/60
f 52/78/62 58/85/68 51/86/69
f 67/87/70 60/88/66 61/75/59
f 58/85/68 64/89/71 51/86/69
f 62/90/72 67/87/70 61/75/59
f 65/91/73 58/85/68 59/77/61
f 69/92/74 62/90/72 63/80/64
f 66/93/75 59/77/61 60/82/66
f 69/92/74 74/94/76 68/95/77
f 72/96/78 65/91/73 66/93/75
f 73/97/79 66/93/75 67/98/70
f 64/89/71 70/99/80 51/86/69
f 68/95/77 73/100/79 67/87/70
f 71/101/81 64/89/71 65/91/73
f 80/102/82 73/103/79 74/104/76
f 71/101/81 76/105/83 70/99/80
f 75/106/84 80/102/82 74/104/76
f 72/96/78 77/107/85 71/101/81
f 79/108/86 72/96/78 73/97/79
f 70/99/80 76/105/83 51/86/69
f 85/109/87 78/110/88 79/111/86
f 76/105/83 82/112/89 51/86/69
f 86/113/90 79/111/86 80/102/82
f 77/107/85 82/112/89 76/105/83
f 81/114/91 86/113/90 80/102/82
f 84/115/92 77/107/85 78/116/88
f 87/117/93 92/118/94 86/113/90
f 84/115/92 89/119/95 83/120/96
f 85/109/87 90/121/97 84/122/92
f 82/112/89 88/123/98 51/86/69
f 92/118/94 85/109/87 86/113/90
f 83/120/96 88/123/98 82/112/89
f 2/1/1 63/8/8 57/2/2
f 6/4/4 7/71/55 93/5/5
f 3/7/7 69/12/7 63/8/8
f 5/9/9 81/13/9 75/10/10
f 4/11/10 75/10/10 69/12/7
f 5/9/9 6/4/4 87/6/6
f 12/14/11 18/25/21 19/15/12
f 9/17/14 15/27/23 16/18/15
f 13/16/13 19/15/12 20/20/17
f 10/19/16 16/18/15 17/22/19
f 11/24/20 17/28/19 18/25/21
f 17/28/19 23/124/29 24/29/24
f 18/25/21 24/29/24 25/31/26
f 15/27/23 21/30/25 22/32/27
f 20/20/17 19/15/12 25/31/26
f 16/18/15 22/32/27 23/34/29
f 26/33/28 25/31/26 31/35/30
f 22/32/27 28/42/35 29/37/32
f 23/34/29 29/37/32 30/38/33
f 25/31/26 24/29/24 30/41/33
f 22/32/27 21/30/25 27/40/34
f 30/43/33 36/54/41 37/44/36
f 28/42/35 27/40/34 33/46/37
f 32/48/31 31/45/30 37/44/36
f 29/37/32 28/42/35 34/47/38
f 30/38/33 29/37/32 35/50/40
f 35/52/40 41/125/47 42/53/42
f 37/44/36 36/54/41 42/53/42
f 33/46/37 39/55/43 40/57/45
f 38/49/39 37/44/36 43/56/44
f 35/50/40 34/47/38 40/57/45
f 44/58/46 43/56/44 49/60/48
f 41/59/47 40/57/45 46/62/50
f 42/53/42 41/125/47 47/64/51
f 43/56/44 42/53/42 48/65/52
f 40/57/45 39/55/43 45/66/53
f 6/4/4 5/9/9 38/67/9
f 3/7/7 26/70/7 32/69/10
f 4/11/10 32/69/10 38/67/9
f 2/1/1 20/73/57 26/70/7
f 7/71/55 6/4/4 44/68/54
f 1/3/3 14/126/99 20/73/57
f 56/74/58 62/90/72 61/75/59
f 59/77/61 58/85/68 52/78/62
f 63/80/64 62/90/72 56/74/58
f 60/82/66 59/77/61 53/79/63
f 61/75/59 60/88/66 54/84/67
f 67/87/70 66/127/75 60/88/66
f 62/90/72 68/95/77 67/87/70
f 65/91/73 64/89/71 58/85/68
f 69/92/74 68/95/77 62/90/72
f 66/93/75 65/91/73 59/77/61
f 69/92/74 75/128/84 74/94/76
f 72/96/78 71/101/81 65/91/73
f 73/97/79 72/96/78 66/93/75
f 68/95/77 74/94/76 73/100/79
f 71/101/81 70/99/80 64/89/71
f 80/102/82 79/111/86 73/103/79
f 71/101/81 77/107/85 76/105/83
f 75/106/84 81/114/91 80/102/82
f 72/96/78 78/116/88 77/107/85
f 79/108/86 78/116/88 72/96/78
f 85/109/87 84/122/92 78/110/88
f 86/113/90 85/109/87 79/111/86
f 77/107/85 83/120/96 82/112/89
f 81/114/91 87/117/93 86/113/90
f 84/115/92 83/120/96 77/107/85
f 87/117/93 93/129/100 92/118/94
f 84/115/92 90/130/97 89/119/95
f 85/109/87 91/131/101 90/121/97
f 92/118/94 91/131/101 85/109/87
f 83/120/96 89/119/95 88/123/98
