# Blender v3.1.2 OBJ File: 'GT_Basic_Blocks_3.blend'
# www.blender.org
o Cube.048_Cube.057
v 3.750000 -0.350000 1.665063
v 3.750000 2.350000 1.665063
v 4.267767 -0.350000 1.267767
v 4.267767 2.350000 1.267767
v 4.665063 -0.350000 0.750000
v 4.665063 2.350000 0.750000
v 3.147048 -0.350000 1.914814
v 3.147048 2.350000 1.914814
v 4.914815 -0.350000 0.147048
v 4.914815 2.350000 0.147048
v 4.987054 2.350000 -0.381006
v 4.987054 -0.350000 -0.381006
v 3.850000 -0.350000 1.838269
v 2.500000 -0.350000 2.000000
v 2.500000 2.350000 2.000000
v 3.850000 2.350000 1.838268
v 4.409188 -0.350000 1.409188
v 4.409188 2.350000 1.409188
v 4.838268 -0.350000 0.850000
v 4.838268 2.350000 0.850000
v 1.250000 -0.350000 1.665063
v 1.250000 2.350000 1.665063
v 5.107868 -0.350000 0.199300
v 5.107868 2.350000 0.199300
v 5.185208 2.350000 -0.353898
v 5.185208 -0.350000 -0.353898
v 0.732233 -0.350000 1.267767
v 0.732233 2.350000 1.267767
v 4.126346 -0.350000 1.126345
v 4.126346 2.350000 1.126346
v 4.491858 -0.350000 0.650000
v 4.491858 2.350000 0.650000
v 4.721761 -0.350000 0.094796
v 4.721761 2.350000 0.094796
v 3.650000 2.350000 1.491858
v 4.788899 2.350000 -0.408114
v 4.788899 -0.350000 -0.408114
v 3.650000 -0.350000 1.491858
v 3.198812 -0.350000 2.108000
v 3.198812 2.350000 2.108000
v 2.500000 -0.350000 2.199999
v 2.500000 2.350000 2.199999
v 0.334937 -0.350000 0.750000
v 0.334937 2.350000 0.750000
v 1.852952 -0.350000 1.914814
v 1.852952 2.350000 1.914814
v 3.095284 -0.350000 1.721629
v 3.095284 2.350000 1.721629
v 2.500000 -0.350000 1.800000
v 2.500000 2.350000 1.800000
v 0.085185 -0.350000 0.147048
v 0.085185 2.350000 0.147048
v 0.012946 2.350000 -0.381006
v 0.012946 -0.350000 -0.381006
v 1.150000 -0.350000 1.838269
v 1.150000 2.350000 1.838268
v 0.590812 -0.350000 1.409188
v 0.590812 2.350000 1.409188
v 0.161732 -0.350000 0.850000
v 0.161732 2.350000 0.850000
v -0.107868 -0.350000 0.199300
v -0.107868 2.350000 0.199300
v -0.185208 2.350000 -0.353898
v -0.185208 -0.350000 -0.353898
v 0.873654 -0.350000 1.126345
v 0.873654 2.350000 1.126346
v 0.508142 -0.350000 0.650000
v 0.508142 2.350000 0.650000
v 0.278239 -0.350000 0.094796
v 0.278239 2.350000 0.094796
v 1.350000 2.350000 1.491858
v 0.211101 2.350000 -0.408114
v 0.211101 -0.350000 -0.408114
v 1.350000 -0.350000 1.491858
v 1.801189 -0.350000 2.108000
v 1.801189 2.350000 2.108000
v 1.904716 -0.350000 1.721629
v 1.904716 2.350000 1.721629
vt 0.514008 0.486548
vt 0.431490 0.368428
vt 0.545016 0.455540
vt 0.545016 0.455540
vt 0.409564 0.406405
vt 0.514008 0.486548
vt 0.546584 0.796557
vt 0.423976 0.204553
vt 0.423976 0.796557
vt 0.576024 0.796557
vt 0.453416 0.204553
vt 0.453416 0.796557
vt 0.702727 0.204553
vt 0.659280 0.796557
vt 0.702727 0.796557
vt 0.431490 0.368428
vt 0.576024 0.424531
vt 0.545016 0.455540
vt 0.546584 0.204553
vt 0.689257 0.796557
vt 0.546584 0.796557
vt 0.659280 0.796557
vt 0.702727 0.204553
vt 0.702727 0.796557
vt 0.453416 0.204553
vt 0.576024 0.796557
vt 0.453416 0.796557
vt 0.423976 0.796557
vt 0.689257 0.204553
vt 0.810552 0.796557
vt 0.810552 0.796557
vt 0.689257 0.204553
vt 0.689257 0.796557
vt 0.632127 0.569066
vt 0.729217 0.689812
vt 0.686888 0.701269
vt 0.576024 0.424531
vt 0.670104 0.547140
vt 0.632127 0.569066
vt 0.729217 0.689812
vt 0.670104 0.547140
vt 0.576024 0.424531
vt 0.686888 0.701269
vt 0.746175 0.811107
vt 0.746175 0.811107
vt 0.702727 0.817051
vt 0.546584 0.796557
vt 0.423976 0.204553
vt 0.423976 0.796557
vt 0.746175 0.204553
vt 0.576024 0.424531
vt 0.453416 0.330451
vt 0.576024 0.796557
vt 0.453416 0.330451
vt 0.746175 0.811107
vt 0.686888 0.701269
vt 0.702727 0.817051
vt 0.514008 0.486548
vt 0.545016 0.455540
vt 0.453416 0.330451
vt 0.712171 0.796557
vt 0.590436 0.204553
vt 0.590436 0.796557
vt 0.670104 0.547140
vt 0.632127 0.569066
vt 0.514008 0.796557
vt 0.409564 0.204553
vt 0.409564 0.796557
vt 0.485992 0.204553
vt 0.485992 0.796557
vt 0.822439 0.796557
vt 0.712171 0.204553
vt 0.546584 0.204553
vt 0.670104 0.547140
vt 0.545016 0.455540
vt 0.632127 0.569066
vt 0.431490 0.368428
vt 0.514008 0.486548
vt 0.409564 0.406405
vt 0.594150 0.590992
vt 0.594150 0.590992
vt 0.644559 0.712726
vt 0.702727 0.817051
vt 0.659280 0.822995
vt 0.644559 0.712726
vt 0.576024 0.424531
vt 0.632127 0.569066
vt 0.729217 0.689812
vt 0.686888 0.701269
vt 0.514008 0.796557
vt 0.485992 0.204553
vt 0.590436 0.796557
vt 0.485992 0.796557
vt 0.746175 0.811107
vt 0.702727 0.817051
vt 0.514008 0.486548
vt 0.632127 0.569066
vt 0.576024 0.424531
vt 0.545016 0.455540
vt 0.594150 0.590992
vt 0.729217 0.689812
vt 0.594150 0.590992
vt 0.423976 0.204553
vt 0.423976 0.796557
vt 0.576024 0.424531
vt 0.746175 0.204553
vt 0.576024 0.796557
vt 0.545016 0.455540
vt 0.409564 0.406405
vt 0.514008 0.486548
vt 0.453416 0.330451
vt 0.431490 0.368428
vt 0.590436 0.204553
vt 0.712171 0.796557
vt 0.590436 0.796557
vt 0.409564 0.204553
vt 0.514008 0.796557
vt 0.409564 0.796557
vt 0.485992 0.204553
vt 0.485992 0.796557
vt 0.712171 0.204553
vt 0.822439 0.796557
vt 0.545016 0.455540
vt 0.514008 0.486548
vt 0.594150 0.590992
vt 0.594150 0.590992
vt 0.644559 0.712726
vt 0.644559 0.712726
vt 0.576024 0.424531
vt 0.514008 0.796557
vt 0.485992 0.204553
vt 0.485992 0.796557
vt 0.514008 0.486548
vt 0.409564 0.406405
vt 0.576024 0.204553
vt 0.659280 0.204553
vt 0.659280 0.204553
vt 0.576024 0.204553
vt 0.423976 0.204553
vt 0.810552 0.204553
vt 0.810552 0.204553
vt 0.546584 0.204553
vt 0.746175 0.796557
vt 0.576024 0.204553
vt 0.514008 0.204553
vt 0.822439 0.204553
vt 0.659280 0.822995
vt 0.670104 0.547140
vt 0.514008 0.204553
vt 0.590436 0.204553
vt 0.670104 0.547140
vt 0.746175 0.796557
vt 0.576024 0.204553
vt 0.514008 0.204553
vt 0.822439 0.204553
vt 0.659280 0.822995
vt 0.659280 0.822995
vt 0.514008 0.204553
vn 0.0000 -1.0000 -0.0000
vn -0.8660 -0.0000 0.5000
vn -0.7071 -0.0000 0.7071
vn -0.5000 -0.0000 0.8660
vn 0.1355 0.0000 -0.9908
vn 0.8660 0.0000 0.5000
vn 0.9649 0.0000 0.2627
vn -0.1355 0.0000 -0.9908
vn 0.5000 -0.0000 0.8660
vn 0.7071 0.0000 0.7071
vn 0.9904 0.0000 0.1385
vn -0.9904 -0.0000 0.1385
vn -0.9649 -0.0000 0.2627
vn 0.0000 1.0000 -0.0000
vn -0.0000 -0.0000 1.0000
vn 0.2588 -0.0000 0.9659
vn -0.9657 0.0000 -0.2596
vn -0.8661 0.0000 -0.5000
vn -0.7071 -0.0000 -0.7071
vn -0.5000 -0.0000 -0.8660
vn -0.9912 0.0000 -0.1323
vn -0.2588 -0.0000 -0.9659
vn 0.0000 -0.0000 -1.0000
vn -0.2588 -0.0000 0.9659
vn 0.8661 0.0000 -0.5000
vn 0.9657 0.0000 -0.2596
vn 0.5000 -0.0000 -0.8660
vn 0.7071 -0.0000 -0.7071
vn 0.9912 0.0000 -0.1323
vn 0.2588 -0.0000 -0.9659
s 1
f 65/1/1 21/2/1 27/3/1
f 3/4/1 38/5/1 29/6/1
f 60/7/2 57/8/3 58/9/3
f 58/10/3 55/11/4 56/12/4
f 12/13/5 36/14/5 11/15/5
f 1/16/1 39/17/1 7/18/1
f 19/19/6 24/20/7 20/21/6
f 72/22/8 54/23/8 53/24/8
f 13/25/9 18/26/10 16/27/9
f 18/28/10 19/19/6 20/21/6
f 23/29/7 25/30/11 24/20/7
f 63/31/12 61/32/13 62/33/13
f 6/34/14 24/35/14 10/36/14
f 6/34/14 18/37/14 20/38/14
f 5/39/1 23/40/1 19/41/1
f 5/39/1 17/42/1 3/4/1
f 9/43/1 26/44/1 23/40/1
f 10/36/14 25/45/14 11/46/14
f 42/47/15 39/48/16 40/49/16
f 11/15/5 26/50/5 12/13/5
f 21/2/1 75/51/1 55/52/1
f 40/53/16 13/25/9 16/27/9
f 1/16/1 17/42/1 13/54/1
f 63/55/14 52/56/14 53/57/14
f 47/58/1 1/16/1 7/18/1
f 4/59/14 16/60/14 18/37/14
f 34/61/17 31/62/18 32/63/18
f 7/18/1 41/64/1 14/65/1
f 30/66/19 38/67/20 35/68/20
f 32/63/18 29/69/19 30/70/19
f 36/71/21 33/72/17 34/61/17
f 62/33/13 59/73/2 60/7/2
f 42/74/14 8/75/14 15/76/14
f 2/77/14 30/78/14 35/79/14
f 10/36/14 32/80/14 6/34/14
f 6/34/14 30/78/14 4/59/14
f 9/43/1 31/81/1 33/82/1
f 5/39/1 29/6/1 31/81/1
f 12/83/1 33/82/1 37/84/1
f 11/46/14 34/85/14 10/36/14
f 40/86/14 2/77/14 8/75/14
f 43/87/1 61/88/1 51/89/1
f 38/67/20 48/90/22 35/68/20
f 47/91/22 50/92/23 48/93/22
f 51/89/1 64/94/1 54/95/1
f 2/77/14 48/96/14 8/75/14
f 44/97/14 58/98/14 28/99/14
f 8/75/14 50/100/14 15/76/14
f 62/101/14 44/97/14 52/56/14
f 49/102/1 7/18/1 14/65/1
f 75/103/24 42/47/15 76/104/24
f 57/105/1 43/87/1 27/3/1
f 64/106/8 53/24/8 54/23/8
f 55/11/4 76/107/24 56/12/4
f 55/52/1 27/3/1 21/2/1
f 45/108/1 74/109/1 77/110/1
f 28/99/14 56/111/14 22/112/14
f 67/113/25 70/114/26 68/115/25
f 45/108/1 41/64/1 75/51/1
f 74/116/27 66/117/28 71/118/27
f 65/119/28 68/115/25 66/120/28
f 69/121/26 72/122/29 70/114/26
f 46/123/14 42/74/14 15/76/14
f 22/112/14 66/124/14 28/99/14
f 68/125/14 52/56/14 44/97/14
f 66/124/14 44/97/14 28/99/14
f 51/89/1 67/126/1 43/87/1
f 43/87/1 65/1/1 27/3/1
f 54/95/1 69/127/1 51/89/1
f 70/128/14 53/57/14 52/56/14
f 46/123/14 56/111/14 76/129/14
f 78/130/30 74/116/27 71/118/27
f 50/92/23 77/131/30 78/132/30
f 22/112/14 78/133/14 71/134/14
f 15/76/14 78/133/14 46/123/14
f 14/65/1 77/110/1 49/102/1
f 65/1/1 74/109/1 21/2/1
f 3/4/1 1/16/1 38/5/1
f 60/7/2 59/73/2 57/8/3
f 58/10/3 57/135/3 55/11/4
f 12/13/5 37/136/5 36/14/5
f 1/16/1 13/54/1 39/17/1
f 19/19/6 23/29/7 24/20/7
f 72/22/8 73/137/8 54/23/8
f 13/25/9 17/138/10 18/26/10
f 18/28/10 17/139/10 19/19/6
f 23/29/7 26/140/11 25/30/11
f 63/31/12 64/141/12 61/32/13
f 6/34/14 20/38/14 24/35/14
f 6/34/14 4/59/14 18/37/14
f 5/39/1 9/43/1 23/40/1
f 5/39/1 19/41/1 17/42/1
f 9/43/1 12/83/1 26/44/1
f 10/36/14 24/35/14 25/45/14
f 42/47/15 41/142/15 39/48/16
f 11/15/5 25/143/5 26/50/5
f 21/2/1 45/108/1 75/51/1
f 40/53/16 39/144/16 13/25/9
f 1/16/1 3/4/1 17/42/1
f 63/55/14 62/101/14 52/56/14
f 47/58/1 38/5/1 1/16/1
f 4/59/14 2/77/14 16/60/14
f 34/61/17 33/72/17 31/62/18
f 7/18/1 39/17/1 41/64/1
f 30/66/19 29/145/19 38/67/20
f 32/63/18 31/62/18 29/69/19
f 36/71/21 37/146/21 33/72/17
f 62/33/13 61/32/13 59/73/2
f 42/74/14 40/86/14 8/75/14
f 2/77/14 4/59/14 30/78/14
f 10/36/14 34/85/14 32/80/14
f 6/34/14 32/80/14 30/78/14
f 9/43/1 5/39/1 31/81/1
f 5/39/1 3/4/1 29/6/1
f 12/83/1 9/43/1 33/82/1
f 11/46/14 36/147/14 34/85/14
f 40/86/14 16/60/14 2/77/14
f 43/87/1 59/148/1 61/88/1
f 38/67/20 47/149/22 48/90/22
f 47/91/22 49/150/23 50/92/23
f 51/89/1 61/88/1 64/94/1
f 2/77/14 35/79/14 48/96/14
f 44/97/14 60/151/14 58/98/14
f 8/75/14 48/96/14 50/100/14
f 62/101/14 60/151/14 44/97/14
f 49/102/1 47/58/1 7/18/1
f 75/103/24 41/142/15 42/47/15
f 57/105/1 59/148/1 43/87/1
f 64/106/8 63/152/8 53/24/8
f 55/11/4 75/153/24 76/107/24
f 55/52/1 57/105/1 27/3/1
f 45/108/1 21/2/1 74/109/1
f 28/99/14 58/98/14 56/111/14
f 67/113/25 69/121/26 70/114/26
f 45/108/1 14/65/1 41/64/1
f 74/116/27 65/154/28 66/117/28
f 65/119/28 67/113/25 68/115/25
f 69/121/26 73/155/29 72/122/29
f 46/123/14 76/129/14 42/74/14
f 22/112/14 71/134/14 66/124/14
f 68/125/14 70/128/14 52/56/14
f 66/124/14 68/125/14 44/97/14
f 51/89/1 69/127/1 67/126/1
f 43/87/1 67/126/1 65/1/1
f 54/95/1 73/156/1 69/127/1
f 70/128/14 72/157/14 53/57/14
f 46/123/14 22/112/14 56/111/14
f 78/130/30 77/158/30 74/116/27
f 50/92/23 49/150/23 77/131/30
f 22/112/14 46/123/14 78/133/14
f 15/76/14 50/100/14 78/133/14
f 14/65/1 45/108/1 77/110/1
