# Blender v2.83.4 OBJ File: 'TAC_ElongatedAngleSlab.blend'
# www.blender.org
mtllib TAC_ElongatedAngleSlab.mtl
o VergeBlock_v2
v -0.200000 0.100000 1.100000
v -0.150000 0.100000 1.100000
v -0.175000 0.125000 1.125000
v -0.150000 0.150000 1.150000
v -0.200000 0.150000 1.150000
v -0.200000 0.300000 1.150000
v -0.150000 0.300000 1.150000
v -0.200000 0.150000 -1.150000
v -0.150000 0.150000 -1.150000
v -0.175000 0.125000 -1.125000
v -0.150000 0.100000 -1.100000
v -0.200000 0.100000 -1.100000
v -0.150000 0.300000 -1.150000
v -0.200000 0.300000 -1.150000
v -0.400000 0.100000 -1.300000
v -0.400000 0.100000 -1.350000
v -0.375000 0.125000 -1.325000
v -0.350000 0.150000 -1.350000
v -0.350000 0.150000 -1.300000
v -0.350000 0.300000 -1.300000
v -0.350000 0.300000 -1.350000
v -0.650000 0.150000 -1.300000
v -0.650000 0.150000 -1.350000
v -0.625000 0.125000 -1.325000
v -0.600000 0.100000 -1.350000
v -0.600000 0.100000 -1.300000
v -0.650000 0.300000 -1.350000
v -0.650000 0.300000 -1.300000
v -0.800000 0.100000 -1.100000
v -0.850000 0.100000 -1.100000
v -0.825000 0.125000 -1.125000
v -0.850000 0.150000 -1.150000
v -0.800000 0.150000 -1.150000
v -0.800000 0.300000 -1.150000
v -0.850000 0.300000 -1.150000
v -0.800000 0.150000 1.150000
v -0.850000 0.150000 1.150000
v -0.825000 0.125000 1.125000
v -0.850000 0.100000 1.100000
v -0.800000 0.100000 1.100000
v -0.850000 0.300000 1.150000
v -0.800000 0.300000 1.150000
v -0.600000 0.100000 1.300000
v -0.600000 0.100000 1.350000
v -0.625000 0.125000 1.325000
v -0.650000 0.150000 1.350000
v -0.650000 0.150000 1.300000
v -0.650000 0.300000 1.300000
v -0.650000 0.300000 1.350000
v -0.350000 0.150000 1.300000
v -0.350000 0.150000 1.350000
v -0.375000 0.125000 1.325000
v -0.400000 0.100000 1.350000
v -0.400000 0.100000 1.300000
v -0.350000 0.300000 1.350000
v -0.350000 0.300000 1.300000
v -0.150000 0.300000 -1.350000
v -0.150000 0.000000 -1.350000
v -0.850000 0.000000 -1.350000
v -0.850000 0.300000 -1.350000
v -0.150000 0.300000 1.350000
v -0.850000 -0.000000 1.350000
v -0.850000 0.300000 1.350000
v -0.150000 -0.000000 1.350000
v -0.350000 0.100000 -1.300000
v -0.391421 0.000000 -1.200000
v -0.608579 0.000000 -1.200000
v -0.650000 0.100000 -1.300000
v -0.700000 0.000000 -1.108579
v -0.800000 0.100000 -1.150000
v -0.700000 -0.000000 1.108579
v -0.800000 0.100000 1.150000
v -0.608579 -0.000000 1.200000
v -0.650000 0.100000 1.300000
v -0.391421 -0.000000 1.200000
v -0.350000 0.100000 1.300000
v -0.200000 0.100000 1.150000
v -0.300000 -0.000000 1.108579
v -0.300000 0.000000 -1.108579
v -0.200000 0.100000 -1.150000
v -0.975000 0.025000 1.500000
v -1.000000 0.025000 1.475000
v -0.975000 -0.000000 1.475000
v -0.975000 0.475000 1.500000
v -0.975000 0.500000 1.475000
v -1.000000 0.475000 1.475000
v 0.439645 0.025000 1.500000
v 0.475000 -0.000000 1.475000
v 0.358578 0.141422 1.000000
v -0.975000 0.025000 -1.500000
v -0.975000 0.000000 -1.475000
v -1.000000 0.025000 -1.475000
v -0.010355 0.475000 1.500000
v -0.025000 0.500000 1.475000
v -0.975000 0.475000 -1.500000
v -1.000000 0.475000 -1.475000
v -0.975000 0.500000 -1.475000
v 0.439645 0.025000 -1.500000
v 0.475000 0.000000 -1.475000
v -0.010355 0.475000 -1.500000
v -0.025000 0.500000 -1.475000
v 0.141422 0.358578 -1.000000
v 0.482322 0.017678 1.475000
v 0.482322 0.017678 -1.475000
v 0.017678 0.482322 1.475000
v 0.017678 0.482322 -1.475000
v 0.358578 0.141422 -1.000000
v 0.141422 0.358578 1.000000
v 0.289914 0.386863 0.675000
v 0.197565 0.396007 0.827971
v 0.386863 0.289914 -0.675000
v 0.396007 0.197565 -0.827971
v 0.396007 0.197565 0.827971
v 0.386863 0.289914 0.675000
v 0.197565 0.396007 -0.827971
v 0.289914 0.386863 -0.675000
vt 0.447796 0.613718
vt 0.447779 0.613718
vt 0.447788 0.613706
vt 0.447779 0.613694
vt 0.447796 0.613694
vt 0.447800 0.613756
vt 0.447784 0.613756
vt 0.447800 0.613706
vt 0.447784 0.613706
vt 0.447788 0.613718
vt 0.447771 0.613718
vt 0.447779 0.613706
vt 0.447771 0.613694
vt 0.447788 0.613694
vt 0.447800 0.613756
vt 0.447784 0.613756
vt 0.447800 0.613706
vt 0.447784 0.613706
vt 0.447795 0.613694
vt 0.447795 0.613710
vt 0.447784 0.613702
vt 0.447772 0.613710
vt 0.447772 0.613694
vt 0.447800 0.613756
vt 0.447784 0.613756
vt 0.447800 0.613706
vt 0.447784 0.613706
vt 0.447795 0.613702
vt 0.447795 0.613719
vt 0.447784 0.613710
vt 0.447772 0.613719
vt 0.447772 0.613702
vt 0.447800 0.613756
vt 0.447784 0.613756
vt 0.447800 0.613706
vt 0.447784 0.613706
vt 0.447771 0.613694
vt 0.447788 0.613694
vt 0.447779 0.613706
vt 0.447788 0.613718
vt 0.447771 0.613718
vt 0.447800 0.613756
vt 0.447784 0.613756
vt 0.447800 0.613706
vt 0.447784 0.613706
vt 0.447779 0.613694
vt 0.447796 0.613694
vt 0.447788 0.613706
vt 0.447796 0.613718
vt 0.447779 0.613718
vt 0.447800 0.613756
vt 0.447784 0.613756
vt 0.447800 0.613706
vt 0.447784 0.613706
vt 0.447772 0.613719
vt 0.447772 0.613702
vt 0.447784 0.613710
vt 0.447795 0.613702
vt 0.447795 0.613719
vt 0.447800 0.613756
vt 0.447784 0.613756
vt 0.447800 0.613706
vt 0.447784 0.613706
vt 0.447772 0.613710
vt 0.447772 0.613694
vt 0.447784 0.613702
vt 0.447795 0.613694
vt 0.447795 0.613710
vt 0.447800 0.613756
vt 0.447784 0.613756
vt 0.447800 0.613706
vt 0.447784 0.613706
vt 0.629178 0.565807
vt 0.629178 0.565757
vt 0.629245 0.565807
vt 0.629245 0.565707
vt 0.629162 0.565740
vt 0.629095 0.565740
vt 0.629012 0.565707
vt 0.629079 0.565757
vt 0.629012 0.565807
vt 0.629079 0.565807
vt 0.609159 0.049802
vt 0.609159 0.049785
vt 0.609226 0.049802
vt 0.609209 0.049735
vt 0.609226 0.049735
vt 0.608993 0.049636
vt 0.608993 0.049569
vt 0.609010 0.049636
vt 0.609060 0.049586
vt 0.609060 0.049569
vt 0.629178 0.565807
vt 0.629178 0.565757
vt 0.629245 0.565807
vt 0.629245 0.565707
vt 0.629162 0.565740
vt 0.629012 0.565707
vt 0.629095 0.565740
vt 0.629079 0.565757
vt 0.629079 0.565807
vt 0.629012 0.565807
vt 0.609226 0.049636
vt 0.609209 0.049636
vt 0.609226 0.049569
vt 0.609159 0.049586
vt 0.609159 0.049569
vt 0.629178 0.565807
vt 0.629178 0.565757
vt 0.629245 0.565807
vt 0.629245 0.565707
vt 0.629162 0.565740
vt 0.629095 0.565740
vt 0.629012 0.565707
vt 0.629079 0.565757
vt 0.629012 0.565807
vt 0.629079 0.565807
vt 0.447684 0.613730
vt 0.447698 0.613683
vt 0.447700 0.613730
vt 0.447770 0.613683
vt 0.447784 0.613730
vt 0.447692 0.613741
vt 0.447777 0.613675
vt 0.447823 0.613691
vt 0.447807 0.613806
vt 0.447760 0.613792
vt 0.447807 0.613789
vt 0.447760 0.613720
vt 0.447807 0.613706
vt 0.447819 0.613798
vt 0.447752 0.613702
vt 0.447782 0.613664
vt 0.447883 0.613683
vt 0.447870 0.613730
vt 0.447867 0.613683
vt 0.447797 0.613730
vt 0.447784 0.613683
vt 0.447875 0.613671
vt 0.447744 0.613721
vt 0.447790 0.613737
vt 0.447760 0.613623
vt 0.447807 0.613620
vt 0.447807 0.613692
vt 0.447760 0.613706
vt 0.447748 0.613615
vt 0.447760 0.613606
vt 0.447748 0.613698
vt 0.447785 0.613749
vt 0.447744 0.613691
vt 0.447815 0.613710
vt 0.447850 0.613741
vt 0.447842 0.613753
vt 0.447842 0.613753
vt 0.447820 0.613773
vt 0.447747 0.613773
vt 0.447717 0.613742
vt 0.447820 0.613640
vt 0.447717 0.613670
vt 0.447747 0.613640
vt 0.447717 0.613671
vt 0.447734 0.613671
vt 0.447717 0.613741
vt 0.447734 0.613741
vt 0.447725 0.613753
vt 0.447725 0.613659
vt 0.447717 0.613671
vt 0.447734 0.613671
vt 0.447717 0.613741
vt 0.447734 0.613741
vt 0.447725 0.613753
vt 0.447725 0.613659
vt 0.629079 0.565807
vt 0.629012 0.565807
vt 0.629079 0.565757
vt 0.629012 0.565707
vt 0.629095 0.565740
vt 0.629245 0.565707
vt 0.629162 0.565740
vt 0.629178 0.565757
vt 0.629245 0.565807
vt 0.629178 0.565807
vt 0.609060 0.049802
vt 0.608993 0.049802
vt 0.609060 0.049785
vt 0.609010 0.049735
vt 0.608993 0.049735
vt 0.629251 0.565697
vt 0.629257 0.565707
vt 0.629245 0.565707
vt 0.629251 0.565697
vt 0.629257 0.565707
vt 0.629245 0.565707
vt 0.629248 0.565690
vt 0.629251 0.565707
vt 0.629245 0.565707
vt 0.629239 0.565717
vt 0.629233 0.565707
vt 0.629245 0.565707
vt 0.629251 0.565865
vt 0.629239 0.565865
vt 0.629251 0.565549
vt 0.629239 0.565549
vt 0.629253 0.565697
vt 0.629260 0.565707
vt 0.629245 0.565707
vt 0.629239 0.565717
vt 0.629233 0.565707
vt 0.629245 0.565707
vt 0.629251 0.565865
vt 0.629239 0.565865
vt 0.629251 0.565549
vt 0.629239 0.565549
vt 0.629242 0.565723
vt 0.629239 0.565707
vt 0.629245 0.565707
vt 0.629248 0.565865
vt 0.629242 0.565865
vt 0.629248 0.565549
vt 0.629242 0.565549
vt 0.629611 0.565713
vt 0.629140 0.565713
vt 0.629611 0.565701
vt 0.629129 0.565701
vt 0.629237 0.565717
vt 0.629230 0.565707
vt 0.629245 0.565707
vt 0.629253 0.565865
vt 0.629237 0.565865
vt 0.629253 0.565549
vt 0.629237 0.565549
vt 0.629472 0.565701
vt 0.629460 0.565713
vt 0.629253 0.565701
vt 0.629449 0.565713
vt 0.629129 0.565713
vt 0.629444 0.565701
vt 0.629129 0.565701
vt 0.629361 0.565713
vt 0.629361 0.565701
vt 0.629129 0.565713
vt 0.629129 0.565701
vt 0.629444 0.565713
vt 0.629449 0.565701
vt 0.629248 0.565701
vt 0.629460 0.565701
vt 0.629472 0.565713
vt 0.629129 0.565713
vt 0.629140 0.565701
vt 0.629611 0.565713
vt 0.629611 0.565701
vt 0.629212 0.565701
vt 0.629361 0.565701
vt 0.629212 0.565713
vt 0.629361 0.565713
vt 0.629403 0.565865
vt 0.629403 0.565549
vt 0.629461 0.565823
vt 0.629253 0.565549
vt 0.629461 0.565590
vt 0.629735 0.565549
vt 0.629694 0.565590
vt 0.629694 0.565823
vt 0.629735 0.565865
vt 0.629253 0.565865
vt 0.629170 0.565936
vt 0.629170 0.565466
vt 0.629320 0.565786
vt 0.629320 0.565466
vt 0.629569 0.565865
vt 0.629569 0.565549
vt 0.629170 0.565466
vt 0.629320 0.565466
vt 0.629170 0.565786
vt 0.629320 0.565936
vt 0.629414 0.565568
vt 0.629472 0.565865
vt 0.629414 0.565846
vt 0.629311 0.565846
vt 0.629311 0.565568
vt 0.629472 0.565549
vt 0.209286 0.095869
vt 0.209331 0.095723
vt 0.209331 0.095932
vt 0.209355 0.095658
vt 0.209360 0.095935
vt 0.209355 0.095934
vt 0.209262 0.095934
vt 0.209257 0.095657
vt 0.209262 0.095658
vt 0.209360 0.095657
vt 0.209257 0.095935
vt 0.209286 0.095659
vn 0.0000 -0.7071 0.7071
vn 0.0000 0.0000 1.0000
vn 0.0000 -0.7071 -0.7071
vn 0.0000 0.0000 -1.0000
vn 0.7071 -0.7071 -0.0000
vn 1.0000 0.0000 0.0000
vn -0.7071 -0.7071 0.0000
vn -1.0000 0.0000 0.0000
vn 0.0000 -1.0000 -0.0000
vn -0.5000 -0.7071 -0.5000
vn -0.5000 -0.7071 0.5000
vn 0.5000 -0.7071 0.5000
vn 0.5000 -0.7071 -0.5000
vn 0.7071 0.0000 0.7071
vn 0.7071 0.0000 -0.7071
vn -0.7071 0.0000 -0.7071
vn -0.7071 0.0000 0.7071
vn -0.5773 -0.5774 0.5774
vn -0.5773 0.5773 0.5774
vn 0.4706 -0.1949 0.8605
vn -0.5774 -0.5774 -0.5774
vn 0.3136 0.7570 0.5733
vn -0.5773 0.5773 -0.5774
vn -0.7071 0.7071 0.0000
vn 0.4706 -0.1949 -0.8605
vn 0.9239 -0.3827 -0.0000
vn 0.3136 0.7570 -0.5733
vn 0.3827 0.9239 0.0000
vn 0.5000 0.5000 -0.7071
vn 0.0000 0.7071 -0.7071
vn 0.0000 0.7071 0.7071
vn 0.5000 0.5000 0.7071
vn 0.0000 1.0000 0.0000
vn 0.7071 0.7071 0.0000
vn 0.8321 -0.5547 -0.0000
vn 0.8320 -0.5547 -0.0000
vn -0.5547 0.8320 0.0000
vn -0.5547 0.8321 0.0000
vn 0.6600 0.6600 0.3590
vn 0.6600 0.6600 -0.3590
vn 0.9951 0.0985 0.0000
vn 0.0985 0.9951 0.0000
usemtl Material
s 1
f 1/1/1 2/2/1 3/3/1
f 3/3/1 2/2/1 4/4/1
f 3/3/1 4/4/1 5/5/1
f 5/6/2 4/7/2 6/8/2
f 6/8/2 4/7/2 7/9/2
f 8/10/3 9/11/3 10/12/3
f 10/12/3 9/11/3 11/13/3
f 10/12/3 11/13/3 12/14/3
f 9/15/4 8/16/4 13/17/4
f 13/17/4 8/16/4 14/18/4
f 15/19/5 16/20/5 17/21/5
f 17/21/5 16/20/5 18/22/5
f 17/21/5 18/22/5 19/23/5
f 19/24/6 18/25/6 20/26/6
f 20/26/6 18/25/6 21/27/6
f 22/28/7 23/29/7 24/30/7
f 24/30/7 23/29/7 25/31/7
f 24/30/7 25/31/7 26/32/7
f 23/33/8 22/34/8 27/35/8
f 27/35/8 22/34/8 28/36/8
f 29/37/3 30/38/3 31/39/3
f 31/39/3 30/38/3 32/40/3
f 31/39/3 32/40/3 33/41/3
f 33/42/4 32/43/4 34/44/4
f 34/44/4 32/43/4 35/45/4
f 36/46/1 37/47/1 38/48/1
f 38/48/1 37/47/1 39/49/1
f 38/48/1 39/49/1 40/50/1
f 37/51/2 36/52/2 41/53/2
f 41/53/2 36/52/2 42/54/2
f 43/55/7 44/56/7 45/57/7
f 45/57/7 44/56/7 46/58/7
f 45/57/7 46/58/7 47/59/7
f 47/60/8 46/61/8 48/62/8
f 48/62/8 46/61/8 49/63/8
f 50/64/5 51/65/5 52/66/5
f 52/66/5 51/65/5 53/67/5
f 52/66/5 53/67/5 54/68/5
f 51/69/6 50/70/6 55/71/6
f 55/71/6 50/70/6 56/72/6
f 15/19/9 26/32/9 16/20/9
f 16/20/9 26/32/9 25/31/9
f 21/73/2 18/74/2 57/75/2
f 57/75/2 18/74/2 58/76/2
f 58/76/2 18/74/2 16/77/2
f 58/76/2 16/77/2 25/78/2
f 58/76/2 25/78/2 59/79/2
f 59/79/2 25/78/2 23/80/2
f 59/79/2 23/80/2 60/81/2
f 60/81/2 23/80/2 27/82/2
f 27/83/9 28/84/9 60/85/9
f 60/85/9 28/84/9 34/86/9
f 60/85/9 34/86/9 35/87/9
f 2/2/9 1/1/9 11/13/9
f 11/13/9 1/1/9 12/14/9
f 7/88/9 61/89/9 6/90/9
f 6/90/9 61/89/9 56/91/9
f 56/91/9 61/89/9 55/92/9
f 30/38/9 29/37/9 39/49/9
f 39/49/9 29/37/9 40/50/9
f 35/93/6 32/94/6 60/95/6
f 60/95/6 32/94/6 59/96/6
f 59/96/6 32/94/6 30/97/6
f 59/96/6 30/97/6 62/98/6
f 62/98/6 30/97/6 39/99/6
f 62/98/6 39/99/6 37/100/6
f 41/101/6 63/102/6 37/100/6
f 37/100/6 63/102/6 62/98/6
f 41/103/9 42/104/9 63/105/9
f 63/105/9 42/104/9 48/106/9
f 63/105/9 48/106/9 49/107/9
f 43/55/9 54/68/9 44/56/9
f 44/56/9 54/68/9 53/67/9
f 49/108/4 46/109/4 63/110/4
f 63/110/4 46/109/4 62/111/4
f 62/111/4 46/109/4 44/112/4
f 62/111/4 44/112/4 53/113/4
f 62/111/4 53/113/4 64/114/4
f 64/114/4 53/113/4 51/115/4
f 64/114/4 51/115/4 61/116/4
f 61/116/4 51/115/4 55/117/4
f 65/118/3 66/119/3 15/120/3
f 15/120/3 66/119/3 67/121/3
f 15/120/3 67/121/3 26/32/3
f 26/32/3 67/121/3 68/122/3
f 26/32/3 68/122/3 24/30/3
f 15/120/3 17/123/3 65/118/3
f 69/124/10 70/125/10 67/121/10
f 67/121/10 70/125/10 68/122/10
f 70/126/7 69/127/7 29/128/7
f 29/128/7 69/127/7 71/129/7
f 29/128/7 71/129/7 40/50/7
f 40/50/7 71/129/7 72/130/7
f 40/50/7 72/130/7 38/48/7
f 29/128/7 31/131/7 70/126/7
f 73/132/11 74/133/11 71/129/11
f 71/129/11 74/133/11 72/130/11
f 74/134/1 73/135/1 43/136/1
f 43/136/1 73/135/1 75/137/1
f 43/136/1 75/137/1 54/68/1
f 54/68/1 75/137/1 76/138/1
f 54/68/1 76/138/1 52/66/1
f 43/136/1 45/139/1 74/134/1
f 77/140/12 76/138/12 78/141/12
f 78/141/12 76/138/12 75/137/12
f 1/142/5 78/143/5 12/14/5
f 12/14/5 78/143/5 79/144/5
f 12/14/5 79/144/5 80/145/5
f 3/146/5 77/147/5 1/142/5
f 1/142/5 77/147/5 78/143/5
f 80/145/5 10/148/5 12/14/5
f 65/149/13 80/150/13 66/151/13
f 66/151/13 80/150/13 79/144/13
f 77/152/14 5/5/14 76/138/14
f 76/138/14 5/5/14 50/64/14
f 76/138/14 50/64/14 52/66/14
f 77/152/14 3/153/14 5/5/14
f 5/5/14 6/8/14 50/64/14
f 50/64/14 6/8/14 56/72/14
f 65/149/15 19/23/15 80/145/15
f 80/145/15 19/23/15 8/10/15
f 80/145/15 8/10/15 10/12/15
f 65/149/15 17/154/15 19/23/15
f 19/23/15 20/26/15 8/10/15
f 8/10/15 20/26/15 14/18/15
f 67/155/9 66/156/9 69/124/9
f 69/124/9 66/156/9 71/129/9
f 71/129/9 66/156/9 79/157/9
f 71/129/9 79/157/9 73/158/9
f 73/158/9 79/157/9 78/159/9
f 73/158/9 78/159/9 75/160/9
f 70/161/16 33/162/16 68/163/16
f 68/163/16 33/162/16 22/164/16
f 68/163/16 22/164/16 24/165/16
f 70/161/16 31/166/16 33/162/16
f 33/162/16 34/44/16 22/164/16
f 22/164/16 34/44/16 28/36/16
f 74/167/17 47/168/17 72/169/17
f 72/169/17 47/168/17 36/170/17
f 72/169/17 36/170/17 38/171/17
f 74/167/17 45/172/17 47/168/17
f 47/168/17 48/62/17 36/170/17
f 36/170/17 48/62/17 42/54/17
f 13/173/8 57/174/8 9/175/8
f 9/175/8 57/174/8 58/176/8
f 9/175/8 58/176/8 11/177/8
f 11/177/8 58/176/8 64/178/8
f 11/177/8 64/178/8 2/179/8
f 2/179/8 64/178/8 4/180/8
f 4/180/8 64/178/8 61/181/8
f 4/180/8 61/181/8 7/182/8
f 21/183/9 57/184/9 20/185/9
f 20/185/9 57/184/9 14/186/9
f 14/186/9 57/184/9 13/187/9
f 81/188/18 82/189/18 83/190/18
f 84/191/19 85/192/19 86/193/19
f 87/194/20 88/195/20 103/196/20
f 90/197/21 91/198/21 92/199/21
f 92/200/7 91/201/7 82/202/7
f 82/202/7 91/201/7 83/203/7
f 93/204/22 105/205/22 94/206/22
f 95/207/23 96/208/23 97/209/23
f 97/210/24 96/211/24 85/212/24
f 85/212/24 96/211/24 86/213/24
f 98/214/25 104/215/25 99/216/25
f 99/217/26 104/218/26 88/219/26
f 88/219/26 104/218/26 103/220/26
f 90/221/3 98/222/3 91/223/3
f 91/223/3 98/222/3 99/224/3
f 100/225/27 101/226/27 106/227/27
f 106/228/28 101/229/28 105/230/28
f 105/230/28 101/229/28 94/231/28
f 104/232/29 98/233/29 106/234/29
f 106/234/29 98/233/29 100/225/29
f 100/235/30 95/236/30 101/237/30
f 101/237/30 95/236/30 97/238/30
f 95/239/16 90/197/16 96/240/16
f 96/240/16 90/197/16 92/199/16
f 85/241/31 84/242/31 94/243/31
f 94/243/31 84/242/31 93/244/31
f 93/245/32 87/246/32 105/205/32
f 105/205/32 87/246/32 103/247/32
f 88/248/1 87/249/1 83/250/1
f 83/250/1 87/249/1 81/251/1
f 81/252/17 84/253/17 82/254/17
f 82/254/17 84/253/17 86/255/17
f 96/256/8 92/200/8 86/257/8
f 86/257/8 92/200/8 82/202/8
f 58/258/9 88/259/9 64/260/9
f 64/260/9 88/259/9 83/261/9
f 64/260/9 83/261/9 62/262/9
f 62/262/9 83/261/9 59/263/9
f 59/263/9 83/261/9 91/264/9
f 59/263/9 91/264/9 58/258/9
f 58/258/9 91/264/9 99/265/9
f 58/258/9 99/265/9 88/259/9
f 98/266/4 90/267/4 100/268/4
f 100/268/4 90/267/4 95/269/4
f 101/270/33 97/210/33 94/271/33
f 94/271/33 97/210/33 85/212/33
f 84/272/2 81/273/2 93/274/2
f 93/274/2 81/273/2 87/275/2
f 89/276/34 104/277/34 107/278/34
f 102/279/34 105/230/34 108/280/34
f 107/278/34 106/228/34 102/279/34
f 108/280/34 103/281/34 89/276/34
f 107/278/34 104/277/34 106/228/34
f 116/282/34 114/283/34 111/284/34
f 113/285/35 107/286/35 112/287/36
f 115/288/37 108/289/38 110/290/38
f 110/290/39 108/289/39 89/291/39
f 112/287/40 107/286/40 102/292/40
f 89/276/34 103/281/34 104/277/34
f 102/279/34 106/228/34 105/230/34
f 112/287/41 114/283/41 113/285/41
f 116/282/42 110/290/42 109/293/42
f 109/293/34 114/283/34 116/282/34
f 108/280/34 105/230/34 103/281/34
f 113/285/35 89/291/35 107/286/35
f 115/288/37 102/292/37 108/289/38
f 89/291/39 113/285/39 110/290/39
f 113/285/39 114/283/39 110/290/39
f 114/283/39 109/293/39 110/290/39
f 102/292/40 115/288/40 112/287/40
f 115/288/40 116/282/40 112/287/40
f 116/282/40 111/284/40 112/287/40
f 112/287/41 111/284/41 114/283/41
f 116/282/42 115/288/42 110/290/42
