# Blender v2.82 (sub 7) OBJ File: 'TACEngineArmor.blend'
# www.blender.org
mtllib TACDoubleAngleHalfBlock.mtl
o EngineBendBlock_v2
v 0.375000 0.000000 -0.375000
v 0.375000 0.000000 0.375000
v 0.350000 0.025000 -0.350000
v 0.350000 0.025000 0.350000
v -0.375000 0.000000 0.375000
v -0.350000 0.025000 0.350000
v -0.350000 0.025000 -0.350000
v -0.375000 0.000000 -0.375000
v -0.100000 0.100000 -0.350000
v -0.150000 0.150000 -0.350000
v -0.350000 0.300000 -0.350000
v -0.150000 0.300000 -0.350000
v 0.350000 0.300000 -0.350000
v 0.150000 0.150000 -0.350000
v 0.100000 0.100000 -0.350000
v 0.150000 0.300000 -0.350000
v 0.350000 0.100000 -0.100000
v 0.350000 0.150000 -0.150000
v 0.350000 0.300000 -0.150000
v 0.350000 0.300000 0.350000
v 0.350000 0.150000 0.150000
v 0.350000 0.100000 0.100000
v 0.350000 0.300000 0.150000
v 0.964645 0.000000 0.500000
v 0.975000 0.000000 0.492678
v 0.975000 0.000000 -0.492678
v 0.964645 0.000000 -0.500000
v -0.964645 0.000000 -0.500000
v -0.975000 0.000000 -0.492678
v -0.975000 0.000000 0.492678
v -0.964645 0.000000 0.500000
v -0.489645 0.475000 -0.500000
v -0.517678 0.482322 -0.475000
v -0.475000 0.500000 -0.475000
v 0.982322 0.017678 0.475000
v 0.982322 0.017678 -0.475000
v 0.489645 0.475000 -0.500000
v 0.475000 0.500000 -0.475000
v 0.517678 0.482322 -0.475000
v -0.489645 0.475000 0.500000
v -0.475000 0.500000 0.475000
v -0.517678 0.482322 0.475000
v -0.982322 0.017678 0.475000
v 0.489645 0.475000 0.500000
v 0.517678 0.482322 0.475000
v 0.475000 0.500000 0.475000
v -0.982322 0.017678 -0.475000
v 0.300000 0.100000 0.100000
v 0.325000 0.125000 0.125000
v 0.300000 0.150000 0.150000
v 0.300000 0.300000 0.150000
v 0.300000 0.150000 -0.150000
v 0.325000 0.125000 -0.125000
v 0.300000 0.100000 -0.100000
v 0.300000 0.300000 -0.150000
v 0.100000 0.100000 -0.300000
v 0.125000 0.125000 -0.325000
v 0.150000 0.150000 -0.300000
v 0.150000 0.300000 -0.300000
v -0.150000 0.150000 -0.300000
v -0.125000 0.125000 -0.325000
v -0.100000 0.100000 -0.300000
v -0.150000 0.300000 -0.300000
v -0.300000 0.100000 -0.100000
v -0.350000 0.100000 -0.100000
v -0.325000 0.125000 -0.125000
v -0.350000 0.150000 -0.150000
v -0.300000 0.150000 -0.150000
v -0.300000 0.300000 -0.150000
v -0.350000 0.300000 -0.150000
v -0.300000 0.150000 0.150000
v -0.350000 0.150000 0.150000
v -0.325000 0.125000 0.125000
v -0.350000 0.100000 0.100000
v -0.300000 0.100000 0.100000
v -0.350000 0.300000 0.150000
v -0.300000 0.300000 0.150000
v -0.100000 0.100000 0.300000
v -0.100000 0.100000 0.350000
v -0.125000 0.125000 0.325000
v -0.150000 0.150000 0.350000
v -0.150000 0.150000 0.300000
v -0.150000 0.300000 0.300000
v -0.150000 0.300000 0.350000
v 0.150000 0.150000 0.300000
v 0.150000 0.150000 0.350000
v 0.125000 0.125000 0.325000
v 0.100000 0.100000 0.350000
v 0.100000 0.100000 0.300000
v 0.150000 0.300000 0.350000
v 0.150000 0.300000 0.300000
v -0.350000 0.300000 0.350000
v 0.150000 0.100000 -0.300000
v 0.108579 0.000000 -0.200000
v -0.108579 0.000000 -0.200000
v -0.150000 0.100000 -0.300000
v -0.200000 0.000000 -0.108579
v -0.300000 0.100000 -0.150000
v -0.200000 0.000000 0.108579
v -0.300000 0.100000 0.150000
v -0.108579 0.000000 0.200000
v -0.150000 0.100000 0.300000
v 0.108579 0.000000 0.200000
v 0.150000 0.100000 0.300000
v 0.300000 0.100000 0.150000
v 0.200000 0.000000 0.108579
v 0.200000 0.000000 -0.108579
v 0.300000 0.100000 -0.150000
vt 0.630743 0.561094
vt 0.630743 0.560755
vt 0.630759 0.561083
vt 0.630759 0.560766
vt 0.631067 0.560837
vt 0.630739 0.560853
vt 0.631056 0.560853
vt 0.630743 0.560608
vt 0.630759 0.560597
vt 0.630743 0.560924
vt 0.630759 0.560936
vt 0.631225 0.560853
vt 0.630886 0.560853
vt 0.631214 0.560837
vt 0.630898 0.560837
vt 0.630751 0.560857
vt 0.630547 0.560890
vt 0.630434 0.560857
vt 0.630525 0.560913
vt 0.630434 0.560981
vt 0.630525 0.560981
vt 0.630751 0.560981
vt 0.630660 0.560913
vt 0.630638 0.560890
vt 0.630660 0.560981
vt 0.630751 0.560857
vt 0.630547 0.560890
vt 0.630434 0.560857
vt 0.630525 0.560913
vt 0.630434 0.560981
vt 0.630525 0.560981
vt 0.630751 0.560981
vt 0.630660 0.560913
vt 0.630638 0.560890
vt 0.630660 0.560981
vt 0.630767 0.560619
vt 0.631033 0.560676
vt 0.630762 0.560622
vt 0.631033 0.561015
vt 0.630762 0.561068
vt 0.630767 0.561071
vt 0.631372 0.561015
vt 0.631639 0.561071
vt 0.631644 0.561068
vt 0.631644 0.560622
vt 0.631372 0.560676
vt 0.631639 0.560619
vt 0.630740 0.560859
vt 0.630730 0.560845
vt 0.630751 0.560845
vt 0.630746 0.560630
vt 0.630746 0.561060
vt 0.630740 0.560859
vt 0.630730 0.560845
vt 0.630751 0.560845
vt 0.630761 0.560831
vt 0.630772 0.560845
vt 0.630751 0.560845
vt 0.630761 0.561173
vt 0.630740 0.561173
vt 0.630761 0.560743
vt 0.630740 0.560743
vt 0.630819 0.560853
vt 0.630522 0.560837
vt 0.630522 0.560853
vt 0.630519 0.560842
vt 0.630761 0.560831
vt 0.630772 0.560845
vt 0.630751 0.560845
vt 0.630761 0.561060
vt 0.630740 0.561060
vt 0.630761 0.560630
vt 0.630740 0.560630
vt 0.630586 0.560837
vt 0.631029 0.560837
vt 0.630592 0.560853
vt 0.631022 0.560853
vt 0.631062 0.560842
vt 0.631059 0.560853
vt 0.631059 0.560837
vt 0.630762 0.560853
vt 0.630755 0.560853
vt 0.631059 0.560853
vt 0.631059 0.560837
vt 0.631062 0.560849
vt 0.631029 0.560853
vt 0.630586 0.560853
vt 0.631022 0.560837
vt 0.630592 0.560837
vt 0.630519 0.560849
vt 0.630522 0.560837
vt 0.630522 0.560853
vt 0.630819 0.560837
vt 0.630826 0.560853
vt 0.630746 0.561181
vt 0.630746 0.560735
vt 0.630755 0.561173
vt 0.630755 0.560743
vt 0.630864 0.561168
vt 0.630649 0.560954
vt 0.630864 0.560296
vt 0.630649 0.560511
vt 0.631059 0.561286
vt 0.630762 0.561286
vt 0.631059 0.560857
vt 0.630762 0.560857
vt 0.631059 0.560630
vt 0.631059 0.561060
vt 0.631192 0.561060
vt 0.630762 0.561060
vt 0.631192 0.560630
vt 0.630762 0.560630
vt 0.471588 0.589670
vt 0.471565 0.589670
vt 0.471577 0.589654
vt 0.471565 0.589638
vt 0.471588 0.589638
vt 0.471594 0.589722
vt 0.471571 0.589722
vt 0.471594 0.589654
vt 0.471571 0.589654
vt 0.471577 0.589670
vt 0.471554 0.589670
vt 0.471565 0.589654
vt 0.471554 0.589638
vt 0.471577 0.589638
vt 0.471594 0.589654
vt 0.471571 0.589654
vt 0.471587 0.589637
vt 0.471587 0.589659
vt 0.471571 0.589648
vt 0.471555 0.589659
vt 0.471555 0.589637
vt 0.471594 0.589722
vt 0.471594 0.589654
vt 0.471571 0.589654
vt 0.471587 0.589648
vt 0.471587 0.589671
vt 0.471571 0.589659
vt 0.471555 0.589671
vt 0.471555 0.589648
vt 0.471571 0.589722
vt 0.471594 0.589654
vt 0.471571 0.589654
vt 0.471554 0.589638
vt 0.471577 0.589638
vt 0.471565 0.589654
vt 0.471577 0.589670
vt 0.471554 0.589670
vt 0.471594 0.589654
vt 0.471571 0.589654
vt 0.471565 0.589638
vt 0.471588 0.589638
vt 0.471577 0.589654
vt 0.471588 0.589670
vt 0.471565 0.589670
vt 0.471594 0.589722
vt 0.471571 0.589722
vt 0.471594 0.589654
vt 0.471571 0.589654
vt 0.471555 0.589671
vt 0.471555 0.589648
vt 0.471571 0.589659
vt 0.471587 0.589648
vt 0.471587 0.589671
vt 0.471571 0.589722
vt 0.471594 0.589654
vt 0.471571 0.589654
vt 0.471555 0.589659
vt 0.471555 0.589637
vt 0.471571 0.589648
vt 0.471587 0.589637
vt 0.471587 0.589659
vt 0.471594 0.589722
vt 0.471594 0.589654
vt 0.471571 0.589654
vt 0.471526 0.589643
vt 0.471526 0.589665
vt 0.630818 0.561004
vt 0.630818 0.560981
vt 0.630909 0.561004
vt 0.630886 0.560913
vt 0.630909 0.560913
vt 0.471560 0.589609
vt 0.471582 0.589609
vt 0.471560 0.589699
vt 0.471582 0.589699
vt 0.630592 0.560777
vt 0.630592 0.560687
vt 0.630615 0.560777
vt 0.630683 0.560710
vt 0.630683 0.560687
vt 0.471582 0.589699
vt 0.471560 0.589699
vt 0.471582 0.589609
vt 0.471560 0.589609
vt 0.630751 0.560857
vt 0.630638 0.560890
vt 0.630434 0.560857
vt 0.630547 0.560890
vt 0.630525 0.560913
vt 0.630660 0.560913
vt 0.630751 0.560981
vt 0.630660 0.560981
vt 0.630525 0.560981
vt 0.630434 0.560981
vt 0.630909 0.560777
vt 0.630886 0.560777
vt 0.630909 0.560687
vt 0.630818 0.560710
vt 0.630818 0.560687
vt 0.471526 0.589665
vt 0.471526 0.589643
vt 0.630751 0.560857
vt 0.630547 0.560890
vt 0.630434 0.560857
vt 0.630525 0.560913
vt 0.630434 0.560981
vt 0.630525 0.560981
vt 0.630751 0.560981
vt 0.630660 0.560913
vt 0.630638 0.560890
vt 0.630660 0.560981
vt 0.471435 0.589686
vt 0.471454 0.589622
vt 0.471458 0.589686
vt 0.471552 0.589622
vt 0.471548 0.589686
vt 0.471571 0.589686
vt 0.471447 0.589702
vt 0.471562 0.589611
vt 0.471625 0.589633
vt 0.471528 0.589659
vt 0.471603 0.589790
vt 0.471539 0.589771
vt 0.471603 0.589767
vt 0.471539 0.589673
vt 0.471603 0.589654
vt 0.471619 0.589778
vt 0.471528 0.589648
vt 0.471569 0.589596
vt 0.471562 0.589696
vt 0.471707 0.589622
vt 0.471688 0.589686
vt 0.471684 0.589622
vt 0.471590 0.589686
vt 0.471594 0.589622
vt 0.471571 0.589622
vt 0.471695 0.589606
vt 0.471517 0.589675
vt 0.471580 0.589696
vt 0.471614 0.589648
vt 0.471539 0.589541
vt 0.471603 0.589537
vt 0.471539 0.589631
vt 0.471603 0.589635
vt 0.471539 0.589654
vt 0.471523 0.589529
vt 0.471539 0.589518
vt 0.471523 0.589643
vt 0.471573 0.589711
vt 0.471517 0.589633
vt 0.471614 0.589659
vt 0.471661 0.589702
vt 0.471661 0.589606
vt 0.471639 0.589606
vt 0.471650 0.589590
vt 0.471650 0.589718
vt 0.471571 0.589606
vt 0.471661 0.589702
vt 0.471661 0.589606
vt 0.471639 0.589606
vt 0.471650 0.589590
vt 0.471650 0.589718
vt 0.471571 0.589606
vt 0.471620 0.589744
vt 0.471522 0.589744
vt 0.471661 0.589703
vt 0.471661 0.589605
vt 0.471480 0.589703
vt 0.471620 0.589563
vt 0.471480 0.589605
vt 0.471522 0.589563
vt 0.471480 0.589606
vt 0.471503 0.589606
vt 0.471480 0.589702
vt 0.471503 0.589702
vt 0.471492 0.589718
vt 0.471492 0.589590
vt 0.471571 0.589606
vt 0.471480 0.589606
vt 0.471503 0.589606
vt 0.471480 0.589702
vt 0.471503 0.589702
vt 0.471492 0.589718
vt 0.471492 0.589590
vt 0.471571 0.589606
vt 0.630592 0.561004
vt 0.630683 0.560981
vt 0.630615 0.560913
vt 0.630592 0.560913
vt 0.630638 0.561168
vt 0.630638 0.560296
vt 0.630852 0.560954
vt 0.630852 0.560511
vn -0.7071 -0.7071 0.0000
vn 0.0000 -0.7071 -0.7071
vn 0.7071 -0.7071 0.0000
vn 0.0000 -0.7071 0.7071
vn -0.0000 0.0000 1.0000
vn -1.0000 -0.0000 0.0000
vn 0.0000 -1.0000 0.0000
vn -0.3136 0.7570 -0.5733
vn 0.9239 -0.3827 0.0000
vn 0.3136 0.7570 -0.5733
vn -0.3136 0.7570 0.5733
vn -0.3827 0.9239 0.0000
vn -0.5000 0.5000 0.7071
vn 0.3136 0.7570 0.5733
vn 0.3827 0.9239 0.0000
vn 0.0000 0.7071 0.7071
vn 0.5000 0.5000 0.7071
vn 0.5000 0.5000 -0.7071
vn 0.0000 0.7071 -0.7071
vn -0.5000 0.5000 -0.7071
vn -0.9239 -0.3827 0.0000
vn -0.7071 0.7071 0.0000
vn 0.7071 0.7071 0.0000
vn 0.0000 1.0000 0.0000
vn 0.0000 0.0000 -1.0000
vn 1.0000 0.0000 0.0000
vn -0.5000 -0.7071 -0.5000
vn -0.5000 -0.7071 0.5000
vn 0.5000 -0.7071 0.5000
vn 0.5000 -0.7071 -0.5000
vn 0.7071 0.0000 0.7071
vn 0.7071 0.0000 -0.7071
vn -0.7071 0.0000 -0.7071
vn -0.7071 0.0000 0.7071
usemtl Steel_-_Satin.005
s 1
f 1/1/1 2/2/1 3/3/1
f 3/3/1 2/2/1 4/4/1
f 2/2/2 5/5/2 4/6/2
f 4/6/2 5/5/2 6/7/2
f 6/8/3 5/9/3 7/10/3
f 7/10/3 5/9/3 8/11/3
f 8/12/4 1/13/4 7/14/4
f 7/14/4 1/13/4 3/15/4
f 3/16/5 9/17/5 7/18/5
f 7/18/5 9/17/5 10/19/5
f 7/18/5 10/19/5 11/20/5
f 11/20/5 10/19/5 12/21/5
f 13/22/5 14/23/5 3/16/5
f 3/16/5 14/23/5 15/24/5
f 3/16/5 15/24/5 9/17/5
f 13/22/5 16/25/5 14/23/5
f 4/26/6 17/27/6 3/28/6
f 3/28/6 17/27/6 18/29/6
f 3/28/6 18/29/6 13/30/6
f 13/30/6 18/29/6 19/31/6
f 20/32/6 21/33/6 4/26/6
f 4/26/6 21/33/6 22/34/6
f 4/26/6 22/34/6 17/27/6
f 20/32/6 23/35/6 21/33/6
f 24/36/7 2/37/7 25/38/7
f 25/38/7 2/37/7 1/39/7
f 25/38/7 1/39/7 26/40/7
f 26/40/7 1/39/7 27/41/7
f 27/41/7 1/39/7 8/42/7
f 27/41/7 8/42/7 28/43/7
f 28/43/7 8/42/7 29/44/7
f 29/44/7 8/42/7 30/45/7
f 30/45/7 8/42/7 5/46/7
f 30/45/7 5/46/7 31/47/7
f 31/47/7 5/46/7 2/37/7
f 31/47/7 2/37/7 24/36/7
f 32/48/8 33/49/8 34/50/8
f 35/51/9 25/38/9 36/52/9
f 36/52/9 25/38/9 26/40/9
f 37/53/10 38/54/10 39/55/10
f 40/56/11 41/57/11 42/58/11
f 34/59/12 33/60/12 41/61/12
f 41/61/12 33/60/12 42/62/12
f 40/56/13 42/63/13 31/64/13
f 31/64/13 42/63/13 43/65/13
f 31/64/13 43/65/13 30/66/13
f 44/67/14 45/68/14 46/69/14
f 39/70/15 38/71/15 45/72/15
f 45/72/15 38/71/15 46/73/15
f 40/74/16 44/75/16 41/76/16
f 41/76/16 44/75/16 46/77/16
f 25/78/17 35/79/17 24/80/17
f 24/80/17 35/79/17 45/81/17
f 24/80/17 45/81/17 44/67/17
f 37/82/18 39/55/18 27/83/18
f 27/83/18 39/55/18 36/84/18
f 27/83/18 36/84/18 26/85/18
f 37/86/19 32/87/19 38/88/19
f 38/88/19 32/87/19 34/89/19
f 29/90/20 47/91/20 28/92/20
f 28/92/20 47/91/20 33/93/20
f 28/92/20 33/93/20 32/94/20
f 29/95/21 30/96/21 47/97/21
f 47/97/21 30/96/21 43/98/21
f 24/99/5 44/100/5 31/101/5
f 31/101/5 44/100/5 40/102/5
f 33/103/22 47/104/22 42/105/22
f 42/105/22 47/104/22 43/106/22
f 45/72/23 35/107/23 39/70/23
f 39/70/23 35/107/23 36/108/23
f 38/109/24 34/110/24 46/111/24
f 46/111/24 34/110/24 41/112/24
f 48/113/4 22/114/4 49/115/4
f 49/115/4 22/114/4 21/116/4
f 49/115/4 21/116/4 50/117/4
f 50/118/5 21/119/5 51/120/5
f 51/120/5 21/119/5 23/121/5
f 52/122/2 18/123/2 53/124/2
f 53/124/2 18/123/2 17/125/2
f 53/124/2 17/125/2 54/126/2
f 18/123/25 52/122/25 19/127/25
f 19/127/25 52/122/25 55/128/25
f 56/129/3 15/130/3 57/131/3
f 57/131/3 15/130/3 14/132/3
f 57/131/3 14/132/3 58/133/3
f 58/134/26 14/132/26 59/135/26
f 59/135/26 14/132/26 16/136/26
f 60/137/1 10/138/1 61/139/1
f 61/139/1 10/138/1 9/140/1
f 61/139/1 9/140/1 62/141/1
f 10/138/6 60/142/6 12/143/6
f 12/143/6 60/142/6 63/144/6
f 64/145/2 65/146/2 66/147/2
f 66/147/2 65/146/2 67/148/2
f 66/147/2 67/148/2 68/149/2
f 68/149/25 67/148/25 69/150/25
f 69/150/25 67/148/25 70/151/25
f 71/152/4 72/153/4 73/154/4
f 73/154/4 72/153/4 74/155/4
f 73/154/4 74/155/4 75/156/4
f 72/157/5 71/158/5 76/159/5
f 76/159/5 71/158/5 77/160/5
f 78/161/1 79/162/1 80/163/1
f 80/163/1 79/162/1 81/164/1
f 80/163/1 81/164/1 82/165/1
f 82/165/6 81/166/6 83/167/6
f 83/167/6 81/166/6 84/168/6
f 85/169/3 86/170/3 87/171/3
f 87/171/3 86/170/3 88/172/3
f 87/171/3 88/172/3 89/173/3
f 86/174/26 85/169/26 90/175/26
f 90/175/26 85/169/26 91/176/26
f 56/177/7 62/141/7 15/178/7
f 15/178/7 62/141/7 9/140/7
f 12/179/7 63/180/7 11/181/7
f 11/181/7 63/180/7 69/182/7
f 11/181/7 69/182/7 70/183/7
f 22/184/7 48/185/7 17/186/7
f 17/186/7 48/185/7 54/187/7
f 23/188/7 20/189/7 51/190/7
f 51/190/7 20/189/7 91/191/7
f 91/191/7 20/189/7 90/192/7
f 65/193/7 64/194/7 74/195/7
f 74/195/7 64/194/7 75/196/7
f 7/197/26 65/198/26 6/199/26
f 6/199/26 65/198/26 74/200/26
f 6/199/26 74/200/26 72/201/26
f 65/198/26 7/197/26 67/202/26
f 67/202/26 7/197/26 11/203/26
f 67/202/26 11/203/26 70/204/26
f 76/205/26 92/206/26 72/201/26
f 72/201/26 92/206/26 6/199/26
f 76/207/7 77/208/7 92/209/7
f 92/209/7 77/208/7 83/210/7
f 92/209/7 83/210/7 84/211/7
f 78/161/7 89/212/7 79/162/7
f 79/162/7 89/212/7 88/213/7
f 6/214/25 88/215/25 4/216/25
f 4/216/25 88/215/25 86/217/25
f 4/216/25 86/217/25 20/218/25
f 20/218/25 86/217/25 90/219/25
f 92/220/25 81/221/25 6/214/25
f 6/214/25 81/221/25 79/222/25
f 6/214/25 79/222/25 88/215/25
f 92/220/25 84/223/25 81/221/25
f 93/224/2 94/225/2 56/226/2
f 56/226/2 94/225/2 95/227/2
f 56/226/2 95/227/2 62/228/2
f 62/228/2 95/227/2 96/229/2
f 62/228/2 96/229/2 61/139/2
f 56/226/2 57/230/2 93/224/2
f 97/231/27 98/232/27 95/233/27
f 95/233/27 98/232/27 96/229/27
f 98/234/1 97/235/1 64/236/1
f 64/236/1 97/235/1 99/237/1
f 64/236/1 99/237/1 75/156/1
f 75/156/1 99/237/1 100/238/1
f 75/156/1 100/238/1 73/154/1
f 64/236/1 66/239/1 98/234/1
f 101/240/28 102/241/28 99/242/28
f 99/242/28 102/241/28 100/238/28
f 102/243/4 101/244/4 78/245/4
f 78/245/4 101/244/4 103/246/4
f 78/245/4 103/246/4 89/247/4
f 89/247/4 103/246/4 104/248/4
f 89/247/4 104/248/4 87/171/4
f 78/245/4 80/249/4 102/243/4
f 105/250/29 104/248/29 106/251/29
f 106/251/29 104/248/29 103/252/29
f 48/253/3 106/254/3 54/255/3
f 54/255/3 106/254/3 107/256/3
f 54/255/3 107/256/3 108/257/3
f 49/258/3 105/259/3 48/253/3
f 48/253/3 105/259/3 106/254/3
f 108/257/3 53/260/3 54/255/3
f 93/261/30 108/262/30 94/263/30
f 94/263/30 108/262/30 107/256/30
f 105/264/31 50/118/31 104/265/31
f 104/265/31 50/118/31 85/266/31
f 104/265/31 85/266/31 87/267/31
f 105/264/31 49/268/31 50/118/31
f 50/118/31 51/120/31 85/266/31
f 85/266/31 51/120/31 91/269/31
f 93/270/32 58/134/32 108/271/32
f 108/271/32 58/134/32 52/272/32
f 108/271/32 52/272/32 53/273/32
f 93/270/32 57/274/32 58/134/32
f 58/134/32 59/135/32 52/272/32
f 52/272/32 59/135/32 55/275/32
f 95/276/7 94/277/7 97/278/7
f 97/278/7 94/277/7 99/279/7
f 99/279/7 94/277/7 107/280/7
f 99/279/7 107/280/7 101/281/7
f 101/281/7 107/280/7 106/282/7
f 101/281/7 106/282/7 103/283/7
f 98/284/33 68/285/33 96/286/33
f 96/286/33 68/285/33 60/287/33
f 96/286/33 60/287/33 61/288/33
f 98/284/33 66/289/33 68/285/33
f 68/285/33 69/290/33 60/287/33
f 60/287/33 69/290/33 63/144/33
f 102/291/34 82/292/34 100/293/34
f 100/293/34 82/292/34 71/294/34
f 100/293/34 71/294/34 73/295/34
f 102/291/34 80/296/34 82/292/34
f 82/292/34 83/297/34 71/294/34
f 71/294/34 83/297/34 77/160/34
f 16/25/7 13/298/7 59/299/7
f 59/299/7 13/298/7 55/300/7
f 55/300/7 13/298/7 19/301/7
f 27/302/25 28/303/25 37/304/25
f 37/304/25 28/303/25 32/305/25
