# Blender v2.82 (sub 7) OBJ File: ''
# www.blender.org
mtllib HE_Slope_Transition_23L_Collider.mtl
o Collider_L_HE_ArmouredBlock_Corner_113.003
v 0.060467 0.430000 -0.500000
v -1.708597 -0.111125 -0.499999
v 0.430000 0.430000 -0.500000
v 0.120000 0.500000 -0.350000
v -2.500000 -0.430000 -0.430000
v 0.500000 0.430000 -0.430000
v -0.016938 0.479525 -0.430000
v 0.120000 0.500000 -0.430000
v -2.430000 -0.500000 -0.430000
v 0.430000 -0.500000 -0.430000
v -2.430000 -0.430000 -0.500000
v -2.430000 -0.500000 -0.349999
v -2.500000 -0.430000 -0.334175
v 0.500000 -0.430000 -0.430000
v 0.430000 -0.430000 -0.500000
v 0.430000 0.500000 -0.350000
v 0.430000 0.500000 -0.430000
v -2.500000 -0.350000 -0.334174
v -2.500000 -0.350000 -0.429999
v -1.708597 -0.037924 -0.429999
v -0.016938 0.479524 -0.350000
v -2.433061 -0.259525 -0.429999
v -2.430000 -0.331790 -0.499999
v 0.430001 0.430000 0.500001
v -1.429999 -0.430000 0.499997
v 0.500001 0.430000 0.430001
v -1.429999 -0.500000 0.429997
v -1.548236 -0.430000 0.429997
v 0.430001 -0.500000 0.430000
v 0.500000 -0.430001 0.430000
v -1.437471 -0.248534 0.429998
v 0.430001 0.500000 0.430001
v 0.066619 0.430000 0.500000
v 0.430000 -0.430001 0.500000
v -1.430001 -0.323138 0.499998
v -1.548237 -0.350000 0.429998
v 0.120000 0.500000 0.430000
v -2.270927 -0.209931 -0.349999
v -2.340769 -0.258506 -0.277692
v -2.462510 -0.299328 -0.343037
v -2.433061 -0.259525 -0.399999
v -0.144623 0.402061 0.430000
v -0.012825 0.469271 0.377658
v 0.036118 0.480084 0.430000
v 0.022657 0.451403 0.461120
v -1.500000 -0.047319 -0.499999
v -1.500000 -0.500000 -0.430000
v -1.500000 -0.038293 -0.491368
v -1.500000 0.025882 -0.429999
v -1.500000 -0.477238 -0.452762
v -1.500000 -0.430000 -0.500000
v -1.500000 -0.142228 -0.499999
v -1.500000 -0.458558 0.429997
v -1.500000 -0.386404 0.458556
v -1.500000 -0.500000 0.375397
v -1.500000 -0.305813 0.429998
v -1.500000 -0.430000 0.458555
v -1.500000 -0.339041 0.458556
v -1.500000 -0.005615 -0.006761
v -1.500000 0.021952 -0.101573
v -1.500000 -0.249224 0.381010
v -1.500000 0.025882 -0.349999
vt 0.050581 0.438185
vt 0.052481 0.450927
vt 0.056378 0.438185
vt 0.085535 0.342865
vt 0.085535 0.320293
vt 0.033003 0.320293
vt 0.033003 0.438185
vt 0.033003 0.494993
vt 0.039002 0.494993
vt 0.151726 0.324944
vt 0.151726 0.305337
vt 0.146667 0.305337
vt 0.146667 0.324944
vt 0.120696 0.416936
vt 0.123760 0.418088
vt 0.127476 0.417268
vt 0.124140 0.415896
vt 0.062300 0.407364
vt 0.062300 0.403088
vt 0.066576 0.403088
vt 0.033003 0.316017
vt 0.028727 0.320293
vt 0.159148 0.490907
vt 0.159514 0.484330
vt 0.154236 0.486600
vt 0.092977 0.311388
vt 0.098428 0.312839
vt 0.097742 0.307001
vt 0.097377 0.338240
vt 0.097724 0.330117
vt 0.091646 0.333881
vt 0.128643 0.414157
vt 0.133921 0.419967
vt 0.030117 0.438185
vt 0.028727 0.438185
vt 0.028727 0.494993
vt 0.057413 0.407364
vt 0.056446 0.403088
vt 0.066576 0.350556
vt 0.062300 0.350556
vt 0.062300 0.403088
vt 0.062300 0.346280
vt 0.057413 0.346280
vt 0.101960 0.338347
vt 0.102309 0.330315
vt 0.102000 0.428430
vt 0.097451 0.429110
vt 0.165315 0.490768
vt 0.159289 0.441583
vt 0.153473 0.442925
vt 0.092352 0.430286
vt 0.091646 0.430339
vt 0.091646 0.443233
vt 0.099177 0.423824
vt 0.098817 0.431857
vt 0.140640 0.432308
vt 0.143544 0.429320
vt 0.143389 0.424567
vt 0.057413 0.320293
vt 0.009767 0.320293
vt 0.009767 0.316017
vt 0.062300 0.316017
vt 0.097333 0.305337
vt 0.097333 0.324944
vt 0.164288 0.486776
vt 0.161137 0.484237
vt 0.062300 0.438185
vt 0.062300 0.320293
vt 0.009767 0.320293
vt 0.009768 0.433909
vt 0.013103 0.438185
vt 0.121359 0.429212
vt 0.147351 0.436150
vt 0.150406 0.432890
vt 0.145697 0.347373
vt 0.096025 0.440629
vt 0.096025 0.435968
vt 0.009768 0.438185
vt 0.115848 0.428669
vt 0.142521 0.338798
vt 0.163848 0.474949
vt 0.168089 0.479671
vt 0.143851 0.353525
vt 0.145666 0.343248
vt 0.143492 0.341963
vt 0.140676 0.344950
vt 0.183186 0.428905
vt 0.177675 0.428362
vt 0.151325 0.437770
vt 0.163827 0.428122
vt 0.209178 0.435842
vt 0.213861 0.441226
vt 0.213152 0.437462
vt 0.056446 0.499269
vt 0.057413 0.494993
vt 0.009768 0.441132
vt 0.159279 0.428802
vt 0.097462 0.441891
vt 0.062300 0.494993
vt 0.448925 0.354839
vt 0.448925 0.435628
vt 0.415106 0.435628
vt 0.274194 0.354839
vt 0.274194 0.363293
vt 0.071708 0.423133
vt 0.017098 0.423134
vt 0.017098 0.368526
vt 0.071706 0.368526
vt 0.031258 0.438185
vt 0.033003 0.438185
vt 0.033003 0.441132
vt 0.028727 0.320293
vt 0.033003 0.316017
vt 0.033003 0.320293
vt 0.153701 0.438588
vt 0.152033 0.441534
vt 0.085535 0.316017
vt 0.089811 0.320293
vt 0.085535 0.320293
vt 0.062300 0.316017
vt 0.009767 0.316017
vt 0.009767 0.403088
vt 0.009767 0.407364
vt 0.062300 0.407364
vt 0.005491 0.320293
vt 0.005492 0.433909
vt 0.033003 0.433909
vt 0.028727 0.433909
vt 0.156120 0.434312
vt 0.150656 0.334869
vt 0.093454 0.438184
vt 0.093454 0.440629
vt 0.089722 0.440629
vt 0.089722 0.434636
vt 0.093454 0.435425
vt 0.150302 0.313046
vt 0.144677 0.314071
vt 0.145188 0.331057
vt 0.145337 0.335811
vt 0.147512 0.337096
vn -0.0000 0.0000 -1.0000
vn 0.0000 1.0000 0.0000
vn -1.0000 0.0000 0.0000
vn -0.5774 -0.5774 -0.5773
vn 0.5773 -0.5773 -0.5774
vn -0.6743 0.4989 -0.5445
vn 0.5774 0.5774 -0.5773
vn -0.1119 0.7487 -0.6534
vn -0.7071 0.0000 -0.7071
vn 0.0000 -0.7071 -0.7071
vn -0.7071 -0.7071 0.0000
vn 0.7071 0.0000 -0.7071
vn 0.7071 0.7071 0.0000
vn -0.1479 0.9890 0.0000
vn -0.0000 0.7071 -0.7071
vn -0.2925 0.9563 0.0000
vn -0.8039 0.5948 0.0000
vn -0.2068 0.6762 -0.7071
vn -0.1887 0.9820 0.0074
vn -0.0000 -1.0000 -0.0000
vn -0.3920 0.7790 0.4894
vn -0.6261 -0.0000 0.7798
vn -0.4265 -0.7204 0.5468
vn -0.2925 0.9562 0.0151
vn -0.3958 0.8709 0.2914
vn -0.3723 0.8624 0.3429
vn -0.3542 0.8980 0.2611
vn -0.5142 0.5613 0.6484
vn -0.5248 0.5402 0.6578
vn -0.4566 -0.6772 0.5770
vn -0.0000 -0.0000 1.0000
vn 1.0000 0.0000 -0.0000
vn -0.3862 -0.6523 0.6523
vn 0.5773 -0.5774 0.5774
vn -0.5126 0.5596 0.6512
vn 0.5773 0.5773 0.5774
vn 0.7071 -0.7071 -0.0000
vn -0.0000 -0.7071 0.7071
vn -0.3179 0.6316 0.7071
vn -0.5094 -0.0000 0.8605
vn 0.7071 -0.0000 0.7071
vn -0.0000 0.7071 0.7071
vn -0.1807 0.7609 0.6232
usemtl Default_OBJ.003
s off
f 52/1/1 2/2/1 46/3/1
f 1/4/1 3/5/1 15/6/1
f 51/7/1 52/1/1 15/6/1
f 11/8/1 23/9/1 2/2/1
f 17/10/2 8/11/2 4/12/2
f 4/12/2 16/13/2 17/10/2
f 13/14/3 18/15/3 19/16/3
f 19/16/3 5/17/3 13/14/3
f 9/18/4 5/19/4 11/20/4
f 15/6/5 14/21/5 10/22/5
f 19/23/6 22/24/6 23/25/6
f 3/26/7 17/27/7 6/28/7
f 7/29/8 8/30/8 1/31/8
f 11/32/9 5/17/9 19/16/9
f 19/16/9 23/33/9 11/32/9
f 50/34/10 47/35/10 9/36/10
f 50/34/10 51/7/10 15/6/10
f 12/37/11 13/38/11 5/19/11
f 5/19/11 9/18/11 12/37/11
f 14/21/12 15/6/12 3/5/12
f 3/39/12 6/40/12 14/41/12
f 6/40/13 17/42/13 16/43/13
f 8/30/14 7/29/14 21/44/14
f 21/44/14 4/45/14 8/30/14
f 17/27/15 3/26/15 1/31/15
f 1/31/15 8/30/15 17/27/15
f 62/46/16 21/44/16 7/29/16 49/47/16
f 22/24/17 19/23/17 18/48/17
f 22/24/18 20/49/18 2/50/18
f 2/50/18 23/25/18 22/24/18
f 48/51/18 46/52/18 2/53/18
f 48/51/18 49/47/18 7/29/18
f 4/54/19 21/55/19 43/56/19 44/57/19 37/58/19
f 16/59/13 32/60/13 26/61/13 6/62/13
f 16/13/2 4/12/2 37/63/2 32/64/2
f 18/48/17 40/65/17 41/66/17 22/24/17
f 47/67/20 10/68/20 29/69/20 27/70/20 55/71/20
f 59/72/21 61/73/21 31/74/21 42/75/21
f 18/15/22 13/14/22 28/76/22 36/77/22
f 55/71/23 27/70/23 53/78/23
f 62/46/24 60/79/24 43/80/24 21/44/24
f 38/81/25 41/66/25 40/65/25 39/82/25
f 42/83/26 45/84/26 44/85/26 43/86/26
f 59/87/27 60/88/27 38/81/27 39/82/27
f 56/89/28 31/74/28 61/73/28
f 38/81/24 60/88/24 62/90/24
f 39/82/21 61/91/21 59/87/21
f 42/75/27 43/80/27 60/79/27 59/72/27
f 40/65/29 18/48/29 36/92/29 56/93/29 61/91/29 39/82/29
f 13/94/30 12/95/30 55/71/30 53/78/30 28/96/30
f 11/8/1 2/2/1 52/1/1 51/7/1
f 9/36/10 11/8/10 51/7/10 50/34/10
f 38/81/16 62/90/16 49/97/16 20/49/16 22/24/16 41/66/16
f 2/53/18 20/98/18 49/47/18 48/51/18
f 15/6/10 10/22/10 47/35/10 50/34/10
f 9/99/20 47/67/20 55/71/20 12/95/20
f 15/6/1 52/1/1 46/3/1 1/4/1
f 7/29/18 1/31/18 46/52/18 48/51/18
usemtl Default_OBJ.002
f 34/100/31 24/101/31 33/102/31
f 25/103/31 34/100/31 33/102/31
f 25/103/31 33/102/31 35/104/31
f 30/105/32 14/106/32 6/107/32
f 6/107/32 26/108/32 30/105/32
f 53/109/33 57/110/33 28/111/33
f 29/112/34 30/113/34 34/114/34
f 58/115/35 56/89/35 36/116/35
f 26/117/36 32/118/36 24/119/36
f 10/68/37 14/120/37 30/121/37
f 30/122/37 29/123/37 10/124/37
f 29/69/38 34/125/38 25/126/38
f 25/127/38 27/128/38 29/112/38
f 31/74/39 35/129/39 33/130/39
f 54/131/40 57/132/40 25/133/40 35/134/40
f 54/131/40 58/135/40 36/77/40 28/76/40
f 34/114/41 30/113/41 26/117/41
f 26/117/41 24/119/41 34/114/41
f 24/136/42 32/137/42 37/138/42
f 37/138/42 33/130/42 24/136/42
f 33/130/43 37/138/43 44/139/43 45/140/43
f 33/130/39 45/140/39 42/75/39 31/74/39
f 35/129/35 31/74/35 56/89/35 58/115/35
f 28/76/40 57/132/40 54/131/40
f 35/134/40 58/135/40 54/131/40
f 27/128/33 25/127/33 57/110/33 53/109/33
