# Blender v2.83.3 OBJ File: 'GT_Electrocharge_Mortar.blend'
# www.blender.org
mtllib GT_Electrocharge_Mortar_Barrel_Collider.mtl
v 0.000000 0.194400 -0.230042
v 0.074394 0.179602 -0.230042
v 0.108003 0.161638 -0.230042
v 0.161638 0.108003 -0.230042
v -0.154537 0.064011 0.158759
v 0.190665 0.037926 -0.230042
v -0.154537 -0.064011 0.158759
v 0.190665 -0.037925 -0.230042
v 0.179602 -0.074394 -0.230042
v 0.137462 -0.137462 -0.230042
v 0.000000 -0.164055 0.158758
v 0.074394 -0.179602 -0.230042
v -0.032632 -0.164055 0.158758
v 0.000000 -0.194400 -0.230042
v -0.074394 0.179602 -0.230042
v -0.108003 0.161638 -0.230042
v -0.118277 0.118278 0.158758
v -0.161638 0.108003 -0.230042
v -0.167269 0.000000 0.158759
v -0.190665 0.037926 -0.230042
v -0.190665 -0.037925 -0.230042
v -0.179602 -0.074394 -0.230042
v 0.000000 0.164055 0.158759
v -0.137462 -0.137462 -0.230042
v 0.000000 0.194400 0.131758
v 0.037926 0.190665 0.131758
v 0.074394 0.179602 0.131758
v 0.108003 0.161638 0.131758
v 0.137462 0.137462 0.131758
v 0.161638 0.108003 0.131758
v 0.179602 0.074394 0.131758
v 0.190665 0.037926 0.131758
v 0.194400 0.000000 0.131758
v 0.190665 -0.037925 0.131758
v 0.179602 -0.074394 0.131758
v 0.137462 -0.137461 0.131758
v 0.108003 -0.161638 0.131758
v 0.074394 -0.179602 0.131758
v 0.037926 -0.190664 0.131758
v 0.000000 -0.194400 0.131758
v -0.092930 -0.139079 0.158760
v -0.074394 -0.179602 -0.230042
v -0.037926 0.190665 0.131758
v -0.074394 0.179602 0.131758
v -0.108003 0.161638 0.131758
v -0.137462 0.137462 0.131758
v -0.161638 0.108003 0.131758
v -0.179602 0.074394 0.131758
v 0.032633 0.164055 0.158759
v 0.118277 0.118278 0.158758
v 0.154537 0.064011 0.158759
v 0.167269 0.000000 0.158759
v 0.154537 -0.064011 0.158759
v 0.092930 -0.139079 0.158760
v 0.032632 -0.164055 0.158758
v -0.190665 0.037926 0.131758
v -0.194400 0.000000 0.131758
v -0.190665 -0.037925 0.131758
v -0.179602 -0.074394 0.131758
v -0.137462 -0.137461 0.131758
v -0.108003 -0.161638 0.131758
v -0.074394 -0.179602 0.131758
v -0.037926 -0.190664 0.131758
v -0.032633 0.164055 0.158759
vt 0.840357 0.425608
vt 0.840357 0.405879
vt 0.842379 0.405422
vt 0.844152 0.404807
vt 0.844152 0.424536
vt 0.779747 0.463896
vt 0.778207 0.463354
vt 0.776448 0.467127
vt 0.777855 0.467953
vt 0.778782 0.465964
vt 0.798511 0.475164
vt 0.800440 0.471028
vt 0.780711 0.461828
vt 0.000000 0.000000
vt 0.842998 0.469659
vt 0.776323 0.467394
vt 0.845179 0.459719
vt 0.000000 0.000000
vt 0.000000 0.000000
vt 0.000000 0.000000
vt 0.419158 0.197506
vt 0.842379 0.397202
vt 0.840357 0.396745
vt 0.838163 0.396464
vt 0.838316 0.395011
vt 0.842998 0.469659
vt 0.844152 0.397817
vt 0.835881 0.396369
vt 0.838160 0.394998
vt 0.838004 0.394985
vt 0.835881 0.416098
vt 0.840357 0.416474
vt 0.842379 0.416931
vt 0.842379 0.397202
vt 0.840357 0.396745
vt 0.840357 0.416474
vt 0.776252 0.471392
vt 0.777001 0.469785
vt 0.838163 0.406160
vt 0.838316 0.404668
vt 0.841473 0.455625
vt 0.777855 0.467953
vt 0.777001 0.469785
vt 0.776252 0.471392
vt 0.776323 0.467394
vt 0.840357 0.425608
vt 0.844152 0.424536
vt 0.844152 0.404807
vt 0.842379 0.405422
vt 0.840357 0.405879
vt 0.779747 0.463896
vt 0.780711 0.461828
vt 0.800440 0.471028
vt 0.798511 0.475164
vt 0.778782 0.465964
vt 0.781639 0.459839
vt 0.783242 0.456400
vt 0.802971 0.465600
vt 0.801367 0.469039
vt 0.776448 0.467127
vt 0.778207 0.463354
vt 0.801367 0.469039
vt 0.000000 0.000000
vt 0.796729 0.478985
vt 0.835881 0.425984
vt 0.802971 0.465600
vt 0.781639 0.459839
vt 0.780226 0.459025
vt 0.842503 0.403907
vt 0.000000 0.000000
vt 0.000000 0.000000
vt 0.000000 0.000000
vt 0.845179 0.459719
vt 0.783242 0.456400
vt 0.796729 0.478985
vt 0.835881 0.406255
vt 0.838163 0.406160
vt 0.841473 0.455625
vt 0.838316 0.404668
vt 0.780101 0.459291
vt 0.845945 0.463209
vt 0.842379 0.416931
vt 0.842503 0.403907
vt 0.780226 0.459025
vt 0.845945 0.463209
vt 0.780101 0.459291
vt 0.000000 0.000000
vt 0.838163 0.396464
vt 0.844152 0.397817
vt 0.838316 0.395011
vt 0.838004 0.394985
vn -0.3827 -0.9239 -0.0053
vn -0.5556 -0.8315 -0.0052
vn -0.7071 -0.7071 -0.0026
vn -0.6792 -0.0000 0.7339
vn -0.6275 0.2599 0.7340
vn -0.6731 0.1339 0.7273
vn -1.0000 0.0000 -0.0052
vn -0.9808 0.1951 -0.0053
vn -0.9892 -0.1467 -0.0026
vn 0.0000 -0.0000 1.0000
vn 0.3079 0.5760 0.7573
vn 0.1740 0.6379 0.7502
vn 0.1767 0.6368 0.7505
vn 0.4427 0.4871 0.7528
vn 0.4453 0.4852 0.7525
vn 0.0000 0.6863 0.7273
vn 0.0000 1.0000 -0.0053
vn 0.1951 0.9808 -0.0052
vn 0.3369 0.9415 -0.0026
vn -0.5957 0.8032 -0.0026
vn -0.3369 0.9415 -0.0026
vn -0.4427 0.4871 0.7528
vn -0.4453 0.4852 0.7525
vn -0.5706 0.3813 0.7273
vn -0.1505 -0.6644 0.7321
vn -0.3980 -0.5347 0.7455
vn -0.3955 -0.5367 0.7453
vn -0.2626 -0.6340 0.7273
vn 0.6275 0.2599 0.7340
vn 0.5706 0.3813 0.7273
vn 0.3827 -0.9239 -0.0053
vn 0.7071 -0.7071 -0.0026
vn 0.5556 -0.8315 -0.0052
vn 1.0000 0.0000 -0.0052
vn 0.9892 -0.1467 -0.0026
vn 0.9808 0.1951 -0.0053
vn 0.9040 -0.4276 0.0000
vn 0.6792 -0.0000 0.7339
vn 0.6731 0.1339 0.7273
vn -0.0000 0.0000 -1.0000
vn -0.9040 -0.4276 0.0000
vn 0.6054 -0.2797 0.7451
vn 0.6020 -0.2861 0.7455
vn 0.3980 -0.5347 0.7455
vn 0.3955 -0.5367 0.7453
vn 0.5175 -0.4247 0.7428
vn 0.8315 0.5556 -0.0053
vn 0.9239 0.3827 -0.0052
vn -0.0000 -1.0000 -0.0053
vn -0.1951 -0.9808 -0.0052
vn 0.1505 -0.6644 0.7321
vn 0.2626 -0.6340 0.7273
vn -0.6054 -0.2797 0.7451
vn -0.6020 -0.2861 0.7455
vn -0.6731 -0.1339 0.7273
vn 0.5957 0.8032 -0.0026
vn 0.7071 0.7071 -0.0052
vn 0.1951 -0.9808 -0.0052
vn -0.5175 -0.4247 0.7428
vn 0.6731 -0.1339 0.7273
vn -0.1951 0.9808 -0.0052
vn -0.8315 0.5556 -0.0053
vn -0.7071 0.7071 -0.0052
vn 0.0000 -0.6863 0.7274
vn -0.3079 0.5760 0.7573
vn -0.1767 0.6368 0.7505
vn -0.1740 0.6379 0.7502
vn -0.9239 0.3827 -0.0052
usemtl _Color_M00_1.014
s 1
f 42/1/1 62/2/1 61/3/2 60/4/3 24/5/3
f 57/6/4 19/7/4 5/8/5 48/9/5 56/10/6
f 57/6/7 56/10/8 20/11/8 21/12/9 58/13/9
f 64/14/10 17/15/10 5/16/10 19/7/10 7/17/10 41/18/10 13/19/10 11/20/10 23/21/10
f 28/22/11 27/23/11 26/24/12 49/25/13 50/26/14 29/27/15
f 26/24/12 25/28/16 23/29/16 49/30/13
f 1/31/17 25/28/17 26/24/18 27/23/19 2/32/19
f 16/33/20 45/34/20 44/35/21 15/36/21
f 48/9/5 5/16/5 17/15/22 46/37/23 47/38/24
f 63/39/25 13/40/25 41/41/26 61/3/27 62/2/28
f 31/42/29 30/43/30 29/44/15 50/26/14 51/45/29
f 12/46/31 10/47/32 36/48/32 37/49/33 38/50/31
f 33/51/34 34/52/35 8/53/35 6/54/36 32/55/36
f 35/56/37 36/57/32 10/58/32 9/59/37
f 33/51/38 32/55/39 31/42/29 51/60/29 52/61/38
f 22/62/40 21/12/40 20/63/40 18/64/40 16/33/40 15/36/40 1/31/40 14/65/40 42/1/40 24/66/40
f 21/12/9 22/62/41 59/67/41 58/13/9
f 35/56/42 53/68/43 54/69/44 37/49/45 36/57/46
f 49/70/10 23/21/10 11/20/10 55/71/10 54/72/10 53/73/10 52/61/10 51/45/10 50/26/10
f 59/67/41 22/62/41 24/66/3 60/74/3
f 4/75/47 30/43/47 31/42/48 32/55/36 6/54/36
f 42/1/1 14/65/49 40/76/49 63/39/50 62/2/1
f 39/77/51 38/50/52 37/49/45 54/78/44 55/79/51
f 59/67/53 7/80/54 19/81/4 57/6/4 58/13/55
f 3/82/56 2/32/19 27/23/19 28/22/56
f 8/53/35 34/52/35 35/56/37 9/59/37
f 3/82/56 28/22/56 29/44/57 30/43/47 4/75/47
f 12/46/31 38/50/31 39/77/58 40/76/49 14/65/49
f 59/67/53 60/74/59 61/3/27 41/83/26 7/84/54
f 35/56/42 34/52/60 33/51/38 52/85/38 53/86/43
f 9/59/40 10/58/40 12/46/40 14/65/40 1/31/40 2/32/40 3/82/40 4/75/40 6/87/40 8/53/40
f 1/31/17 15/36/21 44/35/21 43/88/61 25/28/17
f 16/33/20 18/64/62 47/38/62 46/37/63 45/34/20
f 40/76/64 11/20/64 13/19/25 63/39/25
f 45/34/65 46/89/23 17/15/22 64/90/66 43/88/67 44/35/65
f 43/88/67 64/91/66 23/29/16 25/28/16
f 40/76/64 39/77/51 55/71/51 11/20/64
f 18/64/62 20/11/8 56/10/8 48/9/68 47/38/62
