# Blender v2.83.5 OBJ File: 'GT_Husk_Wheel.blend'
# www.blender.org
v 0.500000 4.318653 3.550001
v 0.500000 4.600000 2.500001
v 0.500000 4.318654 1.450001
v 0.500000 3.550001 3.550001
v 0.500000 3.550001 1.450001
v -0.500000 4.600000 2.500001
v -0.500000 4.318653 3.550001
v -0.500000 4.318654 1.450001
v -0.500000 3.550001 3.550001
v -0.500000 3.550001 1.450001
vt 0.130000 0.370000
vt 0.042154 0.370000
vt 0.010000 0.250000
vt 0.010000 0.250000
vt 0.130000 0.370000
vt 0.130000 0.130000
vt 0.042154 0.130000
vt 0.042154 0.370000
vt 0.130000 0.130000
vt 0.042154 0.130000
vn 1.0000 0.0000 -0.0000
vn -1.0000 -0.0000 -0.0000
vn 0.0000 0.9659 0.2588
vn 0.0000 0.0000 -1.0000
vn 0.0000 0.9659 -0.2588
vn 0.0000 -1.0000 -0.0000
vn 0.0000 0.0000 1.0000
s off
f 5/1/1 3/2/1 2/3/1
f 6/4/2 10/5/2 9/6/2
f 6/4/3 1/7/3 2/3/3
f 10/5/4 3/2/4 5/1/4
f 8/8/5 2/3/5 3/2/5
f 9/6/6 5/1/6 4/9/6
f 7/10/7 4/9/7 1/7/7
f 2/3/1 1/7/1 4/9/1
f 4/9/1 5/1/1 2/3/1
f 9/6/2 7/10/2 6/4/2
f 6/4/2 8/8/2 10/5/2
f 6/4/3 7/10/3 1/7/3
f 10/5/4 8/8/4 3/2/4
f 8/8/5 6/4/5 2/3/5
f 9/6/6 10/5/6 5/1/6
f 7/10/7 9/6/7 4/9/7
