# Blender v2.83.5 OBJ File: 'GT_Husk_Wheel.blend'
# www.blender.org
v 0.500000 2.500000 0.400000
v 0.500000 4.318654 1.450001
v 0.500000 3.550001 0.681347
v 0.500000 2.500000 1.450001
v 0.500000 3.550001 1.450001
v -0.500000 3.550001 0.681347
v -0.500000 4.318654 1.450001
v -0.500000 2.500000 0.400000
v -0.500000 2.500000 1.450001
v -0.500000 3.550001 1.450001
vt 0.250000 0.370000
vt 0.250000 0.490000
vt 0.130000 0.457846
vt 0.130000 0.457846
vt 0.250000 0.490000
vt 0.250000 0.370000
vt 0.042154 0.370000
vt 0.130000 0.370000
vt 0.042154 0.370000
vt 0.130000 0.370000
vn 1.0000 0.0000 0.0000
vn -1.0000 0.0000 0.0000
vn 0.0000 0.2588 -0.9659
vn 0.0000 0.0000 1.0000
vn 0.0000 -1.0000 0.0000
vn 0.0000 0.7071 -0.7071
s off
f 4/1/1 1/2/1 3/3/1
f 6/4/2 8/5/2 9/6/2
f 8/5/3 3/3/3 1/2/3
f 7/7/4 5/8/4 2/9/4
f 9/6/5 1/2/5 4/1/5
f 6/4/6 2/9/6 3/3/6
f 10/10/4 4/1/4 5/8/4
f 2/9/1 5/8/1 3/3/1
f 5/8/1 4/1/1 3/3/1
f 9/6/2 10/10/2 6/4/2
f 10/10/2 7/7/2 6/4/2
f 8/5/3 6/4/3 3/3/3
f 7/7/4 10/10/4 5/8/4
f 9/6/5 8/5/5 1/2/5
f 6/4/6 7/7/6 2/9/6
f 10/10/4 9/6/4 4/1/4
