# Blender v2.80 (sub 75) OBJ File: ''
# www.blender.org
mtllib YK_Outside_Corner_Block.mtl
o BF_Block_111.004
v -0.501484 -0.325840 -0.425389
v -0.501378 -0.375331 -0.375898
v -0.499758 0.375330 0.374763
v -0.499865 0.424822 0.325271
v 0.500568 -0.424954 -0.326408
v 0.375414 -0.375379 -0.500326
v 0.374888 -0.254472 -0.450433
v 0.450568 -0.254407 -0.375522
v 0.500568 -0.375397 -0.375965
v 0.000001 -0.600000 -0.000000
v -0.132022 -0.500000 0.132023
v -0.132022 -0.500000 -0.132023
v 0.132023 -0.500000 0.132023
v 0.132024 -0.500000 -0.132024
v -0.501271 -0.424954 -0.326275
v -0.499865 -0.424954 0.325271
v -0.499651 -0.325840 0.424385
v -0.499651 0.325708 0.424386
v -0.424888 -0.325774 0.500000
v -0.424888 0.325774 0.500000
v 0.424888 -0.501838 -0.325641
v 0.424888 -0.500433 0.325905
v 0.325774 -0.500219 0.425019
v -0.325774 -0.499717 0.424385
v -0.424888 -0.499931 0.325271
v -0.424888 -0.501838 -0.325641
v -0.325774 -0.501550 -0.425389
v 0.325774 -0.501550 -0.425389
v 0.500568 -0.424954 0.325140
v -0.462501 0.462536 0.325206
v -0.424888 0.500502 0.325140
v -0.424888 -0.169150 -0.415197
v -0.501448 -0.325840 -0.425424
v 0.424888 -0.325774 0.500000
v -0.325774 0.424888 0.500000
v -0.375314 0.375348 0.500000
v 0.375348 -0.375314 0.500000
v 0.450568 -0.254407 0.353651
v -0.325774 -0.424888 0.500000
v 0.325774 -0.424888 0.500000
v -0.325774 -0.425019 -0.500219
v 0.325774 -0.425019 -0.500219
v -0.325774 0.462695 0.462128
v -0.325774 0.500502 0.424255
v -0.354285 -0.254472 -0.450433
v 0.415289 -0.169128 0.424254
v 0.424923 -0.325774 0.499965
v 0.374888 -0.254472 -0.450433
v 0.450568 -0.254407 -0.375522
v -0.424888 0.500502 0.325140
v -0.424888 -0.169150 -0.415197
v 0.450568 -0.254407 0.353651
v -0.325774 0.500502 0.424255
v -0.354285 -0.254472 -0.450433
v 0.415289 -0.169128 0.424254
v 0.350392 -0.118155 -0.412264
v 0.412311 -0.118102 -0.350974
v -0.303960 0.499541 0.222285
v -0.303960 -0.048347 -0.383435
v 0.412311 -0.118102 0.245612
v -0.222868 0.499541 0.303378
v -0.246195 -0.118155 -0.412264
v 0.383447 -0.048329 0.303377
vt 0.359349 0.041083
vt 0.285150 0.051410
vt 0.358978 0.191608
vt 0.359001 0.202232
vt 0.171114 0.030463
vt 0.181757 0.019820
vt 0.181757 0.003756
vt 0.160479 0.003710
vt 0.144233 0.022776
vt 0.160471 0.041098
vt 0.160479 0.041098
vt 0.428303 0.304379
vt 0.359190 0.373492
vt 0.359190 0.235265
vt 0.497416 0.373492
vt 0.497416 0.235265
vt 0.275264 0.041525
vt 0.145467 0.041524
vt 0.125722 0.061269
vt 0.125722 0.191067
vt 0.135608 0.200953
vt 0.110659 0.061283
vt 0.110658 0.191080
vt 0.160479 0.003301
vt 0.160479 0.003603
vt 0.181757 0.003649
vt 0.321628 0.003649
vt 0.342905 0.003603
vt 0.342905 0.003301
vt 0.321628 0.003255
vt 0.181757 0.003255
vt 0.144233 0.019806
vt 0.160479 0.003409
vt 0.181757 0.003363
vt 0.181757 0.019792
vt 0.171100 0.030448
vt 0.144233 0.030444
vt 0.350980 0.210328
vt 0.342905 0.218479
vt 0.342905 0.059386
vt 0.359341 0.041083
vt 0.321628 0.202246
vt 0.110658 0.200956
vt 0.144233 0.019806
vt 0.144233 0.041083
vt 0.144233 0.041083
vt 0.359001 0.019806
vt 0.342905 0.003710
vt 0.321628 0.003756
vt 0.321628 0.019820
vt 0.342905 0.041098
vt 0.358955 0.041083
vt 0.321628 0.003363
vt 0.321628 0.019792
vt 0.359303 0.019806
vt 0.342905 0.003409
vt 0.110659 0.051414
vt 0.110659 0.041538
vt 0.110659 0.041538
vt 0.332263 0.191611
vt 0.321628 0.210362
vt 0.321628 0.218479
vt 0.358955 0.180955
vt 0.342905 0.180969
vt 0.160479 0.041069
vt 0.317015 0.041069
vt 0.162540 0.059390
vt 0.359326 0.030459
vt 0.324598 0.022762
vt 0.160479 0.041069
vt 0.342905 0.218479
vt 0.342905 0.059386
vt 0.317015 0.041069
vt 0.162540 0.059390
vt 0.321628 0.218479
vt 0.144233 0.041083
vt 0.144233 0.041083
vt 0.388031 0.698747
vt 0.306060 0.557031
vt 0.302126 0.536532
vt 0.386224 0.394139
vt 0.491933 0.538366
vt 0.487879 0.558802
vt 0.405048 0.699048
vt 0.408625 0.394339
vt 0.644849 0.532430
vt 0.644849 0.602483
vt 0.641174 0.600125
vt 0.641174 0.542810
vt 0.637579 0.609680
vt 0.635225 0.606013
vt 0.570265 0.525647
vt 0.641460 0.525647
vt 0.638401 0.537260
vt 0.580151 0.537260
vt 0.567526 0.609680
vt 0.577910 0.606013
vt 0.560743 0.535169
vt 0.572361 0.545051
vt 0.560743 0.606295
vt 0.572361 0.603244
vn -1.0000 0.0000 0.0022
vn 0.5779 -0.5761 0.5781
vn -0.6038 -0.7971 0.0000
vn 0.0000 -0.7971 0.6038
vn 0.6038 -0.7971 0.0000
vn -0.0000 -0.7971 -0.6038
vn -0.7111 -0.0000 0.7031
vn -0.0003 -1.0000 0.0019
vn 0.5778 -0.5744 -0.5799
vn -0.7291 0.4960 -0.4717
vn 0.0000 -0.0000 1.0000
vn 0.9588 0.2839 0.0098
vn -0.5780 -0.5780 0.5760
vn -0.0006 -0.7081 0.7061
vn 0.0000 -0.6991 -0.7150
vn -0.7083 -0.7059 0.0018
vn -0.5781 0.5771 0.5769
vn -0.5801 0.5761 0.5759
vn 0.0460 0.7179 -0.6946
vn 0.6943 0.7183 -0.0460
vn 0.4716 0.4953 0.7295
vn 0.3956 0.8279 -0.3977
vn -0.5761 -0.5763 -0.5796
vn 0.6756 0.2828 -0.6809
vn -0.2624 0.2112 -0.9416
vn 0.9405 0.2100 0.2673
vn -0.0099 0.2828 -0.9591
vn 0.7094 -0.7048 0.0008
vn -0.0460 -0.7179 0.6946
vn -0.6943 -0.7183 0.0460
vn -0.3956 -0.8279 0.3977
vn 0.9628 0.2702 0.0000
vn 0.6688 0.3095 -0.6760
vn 0.5837 0.6460 0.4918
vn 0.0000 0.2696 -0.9630
vn 0.0043 1.0000 -0.0043
vn -0.4917 0.6458 -0.5841
vn 0.9423 0.3258 0.0773
vn -0.0773 0.3252 -0.9425
usemtl Default_OBJ.003
s 1
f 1/1/1 2/2/1 3/3/1 4/4/1
f 37/5/2 40/6/2 23/7/2 22/8/2 29/9/2 47/10/2 34/11/2
f 10/12/3 11/13/3 12/14/3
f 11/13/4 10/12/4 13/15/4
f 10/12/5 14/16/5 13/15/5
f 14/16/6 10/12/6 12/14/6
f 15/17/1 16/18/1 17/19/1 18/20/1 3/21/1 2/2/1
f 18/20/7 17/19/7 19/22/7 20/23/7
f 21/24/8 22/25/8 23/26/8 24/27/8 25/28/8 26/29/8 27/30/8 28/31/8
f 5/32/9 21/33/9 28/34/9 42/35/9 6/36/9 9/37/9
f 1/1/10 4/4/10 30/38/10 31/39/10 32/40/10 33/41/10
f 34/11/11 35/42/11 36/43/11 37/5/11
f 29/44/12 5/32/12 9/37/12 8/45/12 38/46/12
f 16/47/13 25/48/13 24/49/13 39/50/13 19/51/13 17/52/13
f 23/7/14 40/6/14 39/50/14 24/49/14
f 28/34/15 27/53/15 41/54/15 42/35/15
f 25/48/16 16/47/16 15/55/16 26/56/16
f 37/57/11 36/43/11 20/23/11 19/22/11 39/58/11 40/59/11
f 30/38/17 36/60/17 35/42/17 43/61/17 44/62/17 31/39/17
f 4/4/18 3/3/18 18/63/18 20/64/18 36/60/18 30/38/18
f 7/65/19 45/66/19 32/40/19 31/39/19
f 46/67/20 38/46/20 8/45/20 44/62/20
f 44/62/21 43/61/21 35/42/21 34/11/21 47/10/21 46/67/21
f 44/62/22 8/45/22 7/65/22 31/39/22
f 15/55/23 2/68/23 1/1/23 33/41/23 41/54/23 27/53/23 26/56/23
f 9/37/24 6/36/24 7/65/24 8/45/24
f 41/69/25 33/41/25 32/40/25 45/66/25
f 47/10/26 29/9/26 38/46/26 46/67/26
f 6/36/27 42/35/27 41/69/27 45/66/27 7/65/27
f 5/32/28 29/44/28 22/8/28 21/33/28
f 48/70/29 50/71/29 51/72/29 54/73/29
f 55/74/30 53/75/30 49/76/30 52/77/30
f 53/75/31 50/71/31 48/70/31 49/76/31
f 56/78/19 62/79/19 59/80/19 58/81/19
f 63/82/20 60/83/20 57/84/20 61/85/20
f 61/85/22 57/84/22 56/78/22 58/81/22
f 52/86/32 49/87/32 57/88/32 60/89/32
f 49/87/33 48/90/33 56/91/33 57/88/33
f 53/92/34 55/93/34 63/94/34 61/95/34
f 48/90/35 54/96/35 62/97/35 56/91/35
f 50/98/36 53/92/36 61/95/36 58/99/36
f 51/100/37 50/98/37 58/99/37 59/101/37
f 55/93/38 52/86/38 60/89/38 63/94/38
f 54/96/39 51/100/39 59/101/39 62/97/39
