# Blender v2.80 (sub 75) OBJ File: ''
# www.blender.org
mtllib YK_Wing_Gun_Collider.mtl
o BF_Block_111.002_BF_Block_111.008
v -0.132022 0.500002 0.132023
v 0.145225 0.500001 0.145225
v 0.145225 0.500001 -0.145225
v -0.145224 0.500002 0.145225
v -0.145224 0.500001 -0.145225
v 0.162108 -0.203277 0.507285
v 0.057856 -0.253482 0.507285
v 0.234253 -0.112810 0.507285
v 0.234253 0.112810 0.507285
v -0.057856 -0.253482 0.507285
v -0.234253 -0.112810 -0.046455
v -0.162108 -0.203277 -0.009914
v -0.162108 -0.203277 0.507285
v -0.234252 -0.112810 0.507285
v -0.234253 0.112810 0.507285
v -0.260001 -0.000000 0.507285
v 0.260001 -0.000000 0.507285
v -0.129342 0.203277 -0.396252
v -0.058343 0.237269 -0.443018
v -0.159660 0.076888 -0.410001
v -0.189204 0.091116 -0.378031
v 0.058343 0.237269 -0.443018
v 0.129341 0.203277 -0.396252
v 0.030280 -0.253482 -0.038805
v 0.057856 -0.253482 -0.007851
v -0.030280 -0.253482 -0.038805
v -0.057856 -0.253482 -0.007851
v -0.057856 0.253482 -0.433138
v -0.162108 0.203277 -0.363813
v -0.241536 -0.080899 0.024881
v -0.210001 0.000000 -0.378031
v -0.189204 -0.091116 -0.378031
v 0.234253 0.112810 -0.239247
v 0.260001 0.000000 -0.121044
v 0.162108 0.203277 -0.363813
v -0.234253 0.112810 -0.239247
v 0.234253 -0.112810 -0.046455
v 0.162108 -0.203277 -0.009914
v 0.057856 0.253482 -0.433138
v -0.260001 0.000000 -0.121044
v 0.189204 0.091116 -0.378031
v 0.210001 0.000000 -0.378031
v 0.130933 -0.164185 -0.378031
v 0.046730 -0.204736 -0.378031
v -0.241536 -0.080899 0.385999
v -0.130933 -0.164185 -0.378031
v -0.110488 -0.138548 -0.410001
v -0.039433 -0.172766 -0.410001
v -0.046730 -0.204736 -0.378031
v 0.189204 -0.091116 -0.378031
v 0.159660 -0.076888 -0.410001
v 0.177209 0.000000 -0.410001
v 0.110488 -0.138548 -0.410001
v 0.039433 -0.172766 -0.410001
v 0.159660 0.076888 -0.410001
v -0.177209 0.000000 -0.410001
v -0.159660 -0.076888 -0.410001
v 0.241536 -0.080899 0.385999
v 0.241536 -0.080899 0.024881
v 0.110157 0.060000 1.457697
v 0.071161 0.108899 1.457697
v 0.091272 0.099214 1.457697
v 0.105190 0.081762 1.457697
v -0.110156 0.060000 1.457697
v -0.105189 0.081762 1.457697
v -0.091272 0.099214 1.457697
v -0.071161 0.108899 1.457697
v 0.110157 -0.050000 1.457697
v 0.105190 -0.071762 1.457697
v 0.091272 -0.089214 1.457697
v 0.071161 -0.098899 1.457697
v -0.071161 -0.098899 1.457697
v -0.091272 -0.089214 1.457697
v -0.105189 -0.071762 1.457697
v -0.110156 -0.050000 1.457697
v 0.130757 -0.084281 1.389664
v 0.130757 0.084281 1.389664
v 0.090511 0.130713 1.389664
v -0.090510 0.130713 1.389664
v -0.130757 0.084281 1.389664
v -0.130757 -0.084281 1.389664
v -0.090510 -0.130713 1.389664
v 0.090511 -0.130713 1.389664
v 0.088112 0.060000 1.461616
v 0.066256 0.087407 1.461616
v 0.077528 0.081979 1.461616
v 0.085328 0.072197 1.461616
v -0.088112 0.060000 1.461616
v -0.085328 0.072198 1.461616
v -0.077528 0.081979 1.461616
v -0.066255 0.087408 1.461616
v 0.088112 -0.050000 1.461616
v 0.085328 -0.062197 1.461616
v 0.077528 -0.071979 1.461616
v 0.066256 -0.077407 1.461616
v -0.066255 -0.077407 1.461616
v -0.077528 -0.071979 1.461616
v -0.085328 -0.062197 1.461616
v -0.088112 -0.050000 1.461616
vt 0.000000 0.000000
vt 0.354576 0.508343
vt 0.000000 0.000000
vt 0.000000 0.000000
vt 0.000000 0.000000
vt 0.000000 0.000000
vt 0.000000 0.000000
vt 0.000000 0.000000
vt 0.359189 0.373367
vt 0.442140 0.686702
vt 0.415172 0.686702
vt 0.000000 0.000000
vt 0.000000 0.000000
vt 0.000000 0.000000
vt 0.359189 0.235141
vt 0.382135 0.655455
vt 0.000000 0.000000
vt 0.000000 0.000000
vt 0.382135 0.655455
vt 0.000000 0.000000
vt 0.395833 0.523568
vt 0.388204 0.506515
vt 0.395833 0.523568
vt 0.000000 0.000000
vt 0.000000 0.000000
vt 0.000000 0.000000
vt 0.000000 0.000000
vt 0.000000 0.000000
vt 0.000000 0.000000
vt 0.354576 0.508343
vt 0.000000 0.000000
vt 0.415172 0.488684
vt 0.442140 0.686702
vt 0.497416 0.235141
vt 0.000000 0.000000
vt 0.433531 0.655455
vt 0.912456 0.791973
vt 0.919008 0.791973
vt 0.000000 0.000000
vt 0.951856 0.791973
vt 0.000000 0.000000
vt 0.945304 0.791973
vt 0.000000 0.000000
vt 0.000000 0.000000
vt 0.497416 0.373367
vt 0.433531 0.655455
vt 0.497416 0.235141
vt 0.444631 0.655455
vt 0.000000 0.000000
vt 0.444631 0.655455
vt 0.475769 0.414075
vt 0.463767 0.430648
vt 0.463767 0.422893
vt 0.471893 0.411713
vt 0.375923 0.427249
vt 0.382051 0.419607
vt 0.373871 0.419607
vt 0.366229 0.427249
vt 0.415172 0.427249
vt 0.393390 0.427249
vt 0.396792 0.419607
vt 0.415172 0.419607
vt 0.375923 0.427249
vt 0.382051 0.419607
vt 0.366229 0.427249
vt 0.373871 0.419607
vt 0.475769 0.414075
vt 0.471893 0.411713
vt 0.463767 0.422893
vt 0.463767 0.430648
vt 0.436954 0.427249
vt 0.433553 0.419607
vt 0.415172 0.427249
vt 0.415172 0.419607
vt 0.396792 0.419607
vt 0.393390 0.427249
vt 0.436954 0.427249
vt 0.433553 0.419607
vt 0.354576 0.515743
vt 0.354576 0.515743
vt 0.366577 0.515250
vt 0.000000 0.000000
vt 0.354576 0.686702
vt 0.366577 0.686702
vt 0.388204 0.506515
vt 0.000000 0.000000
vt 0.366577 0.515250
vt 0.388204 0.686702
vt 0.366577 0.686702
vt 0.000000 0.000000
vt 0.415172 0.488684
vt 0.395833 0.657707
vt 0.000000 0.000000
vt 0.388204 0.686702
vt 0.000000 0.000000
vt 0.395833 0.657707
vt 0.393235 0.655455
vt 0.000000 0.000000
vt 0.442140 0.460426
vt 0.415172 0.686702
vt 0.000000 0.000000
vt 0.442140 0.460426
vt 0.000000 0.000000
vt 0.354576 0.686702
vt 0.950559 0.791973
vt 0.954679 0.791452
vt 0.956994 0.791452
vt 0.948220 0.791973
vt 0.950507 0.791452
vt 0.945304 0.791973
vt 0.945304 0.791452
vt 0.948220 0.791973
vt 0.950507 0.791452
vt 0.945304 0.791452
vt 0.950559 0.791973
vt 0.954679 0.791452
vt 0.951856 0.791973
vt 0.956994 0.791452
vt 0.916092 0.791973
vt 0.913806 0.791452
vt 0.919008 0.791452
vt 0.913754 0.791973
vt 0.909634 0.791452
vt 0.907318 0.791452
vt 0.912456 0.791973
vt 0.913754 0.791973
vt 0.909634 0.791452
vt 0.907319 0.791452
vt 0.916092 0.791973
vt 0.913806 0.791452
vt 0.919008 0.791973
vt 0.919008 0.791452
vt 0.000000 0.000000
vt 0.000000 0.000000
vt 0.000000 0.000000
vt 0.393235 0.655455
vt 0.000000 0.000000
vt 0.000000 0.000000
vt 0.000000 0.000000
vt 0.000000 0.000000
vt 0.000000 0.000000
vt 0.000000 0.000000
vt 0.000000 0.000000
vt 0.000000 0.000000
vt 0.000000 0.000000
vt 0.000000 0.000000
vt 0.000000 0.000000
vt 0.000000 0.000000
vt 0.000000 0.000000
vn 0.0000 -0.9898 -0.1422
vn 0.0000 -0.0803 -0.9968
vn 0.9747 0.2237 0.0000
vn 0.0000 0.7596 -0.6504
vn 0.0000 -0.9905 0.1378
vn -0.9749 -0.2225 0.0000
vn 0.9749 -0.2225 -0.0000
vn -0.0000 -1.0000 -0.0000
vn -0.9746 0.2241 0.0000
vn -0.9369 0.3281 0.1205
vn 0.0000 0.0000 1.0000
vn 0.9369 0.3281 0.1205
vn 0.0000 1.0000 0.0000
vn 0.4199 0.8649 0.2751
vn 0.0217 0.9582 0.2853
vn -0.0217 0.9582 0.2853
vn -0.4199 0.8649 0.2751
vn -0.9499 0.2793 -0.1404
vn -0.9384 0.2686 -0.2174
vn 0.9746 0.2241 0.0000
vn 0.6329 0.4265 -0.6462
vn -0.4352 -0.5458 -0.7160
vn -0.1553 -0.6806 -0.7160
vn 0.6981 -0.0000 -0.7160
vn 0.6289 -0.3029 -0.7160
vn 0.4352 -0.5458 -0.7160
vn 0.1553 -0.6806 -0.7160
vn -0.6329 0.4265 -0.6462
vn 0.8127 0.2248 -0.5376
vn 0.5819 0.1587 -0.7977
vn -0.6981 0.0000 -0.7160
vn -0.6289 -0.3029 -0.7160
vn -0.8127 0.2248 -0.5376
vn -0.5819 0.1587 -0.7977
vn 0.2382 -0.9700 -0.0483
vn 0.4216 -0.9068 -0.0000
vn 0.6351 0.2351 -0.7358
vn 0.7774 0.2560 -0.5745
vn -0.3826 -0.9206 -0.0776
vn -0.4167 -0.8995 -0.1313
vn -0.1499 -0.9797 -0.1335
vn 0.4167 -0.8995 -0.1313
vn 0.1499 -0.9797 -0.1335
vn 0.6075 -0.7823 -0.1375
vn 0.6184 -0.7834 -0.0618
vn 0.0000 0.5204 -0.8539
vn -0.6184 -0.7834 -0.0618
vn -0.4339 -0.9010 -0.0000
vn -0.6235 -0.7818 0.0000
vn 0.8714 -0.4658 -0.1538
vn 0.8400 -0.5215 -0.1495
vn -0.7472 -0.6549 0.1128
vn -0.6152 -0.7802 0.1131
vn -0.4313 -0.8956 0.1087
vn -0.1123 -0.0680 -0.9914
vn -0.4087 0.1021 -0.9070
vn -0.0557 -0.0797 -0.9953
vn -0.0395 -0.0820 -0.9958
vn -0.7818 -0.6235 0.0000
vn 0.6152 -0.7802 0.1131
vn 0.7472 -0.6549 0.1128
vn 0.4313 -0.8956 0.1087
vn 0.4087 0.1021 -0.9070
vn 0.0557 -0.0797 -0.9953
vn 0.0395 -0.0820 -0.9958
vn 0.1123 -0.0680 -0.9914
vn 0.6235 -0.7818 -0.0000
vn 0.7818 -0.6235 -0.0000
vn -0.2145 -0.0284 -0.9763
vn -0.6351 0.2351 -0.7358
vn -0.6075 -0.7823 -0.1375
vn -0.9649 -0.1984 -0.1720
vn -0.9718 -0.0725 -0.2243
vn -0.8714 -0.4658 -0.1538
vn -0.8400 -0.5215 -0.1495
vn -0.9427 -0.3061 0.1328
vn -0.8928 -0.4343 0.1197
vn 0.2145 -0.0284 -0.9763
vn -0.9601 0.1170 -0.2540
vn -0.9749 0.2225 0.0000
vn -0.9898 -0.0567 0.1303
vn -0.7908 0.3916 -0.4705
vn -0.6342 0.4817 -0.6048
vn 0.9718 -0.0725 -0.2243
vn 0.9601 0.1170 -0.2540
vn 0.9649 -0.1984 -0.1720
vn 0.9749 0.2225 0.0000
vn -0.9866 0.0903 0.1359
vn 0.8020 0.3832 -0.4582
vn 0.7908 0.3916 -0.4705
vn 0.6342 0.4817 -0.6048
vn -0.7774 0.2560 -0.5745
vn 0.9046 0.2850 -0.3170
vn 0.9678 0.2209 0.1207
vn 0.9887 -0.0654 0.1351
vn 0.9898 0.0567 0.1303
vn 0.0389 0.1706 0.9846
vn 0.1091 0.1368 0.9846
vn 0.1345 0.6661 0.7336
vn 0.1577 0.0759 0.9846
vn 0.1750 0.0213 0.9843
vn 0.6710 0.0623 0.7389
vn -0.1750 0.0213 0.9843
vn -0.1577 0.0759 0.9846
vn -0.6710 0.0623 0.7389
vn -0.1091 0.1368 0.9846
vn -0.0389 0.1706 0.9846
vn -0.1345 0.6661 0.7336
vn 0.1750 -0.0213 0.9843
vn 0.1577 -0.0759 0.9846
vn 0.6684 -0.0570 0.7416
vn 0.1091 -0.1368 0.9846
vn 0.0372 -0.1628 0.9860
vn 0.1279 -0.6186 0.7752
vn -0.0223 -0.0978 0.9950
vn -0.1091 -0.1368 0.9846
vn -0.1279 -0.6186 0.7752
vn -0.1577 -0.0759 0.9846
vn -0.1750 -0.0213 0.9843
vn -0.6684 -0.0570 0.7416
vn -0.3900 0.8594 0.3307
vn -0.6046 0.7233 0.3337
vn 0.6046 0.7233 0.3337
vn 0.3900 0.8594 0.3307
vn 0.9165 -0.3785 0.1297
vn 0.9187 -0.3729 0.1299
vn -0.8916 0.3291 0.3111
vn -0.8683 -0.3451 0.3563
vn -0.5889 -0.6904 0.4201
vn -0.3622 -0.8237 0.4363
vn 0.8368 0.4401 0.3256
vn 0.8916 0.3291 0.3111
vn -0.8265 -0.4135 0.3820
vn 0.5889 -0.6904 0.4202
vn 0.3622 -0.8237 0.4363
vn 0.8683 -0.3451 0.3562
vn 0.8265 -0.4135 0.3820
vn -0.8368 0.4401 0.3256
vn -0.7368 0.6387 0.2219
vn -0.0001 0.0000 1.0000
vn 0.7368 0.6386 0.2219
usemtl Default_OBJ.050
s off
f 24/1/1 26/2/1 49/3/1 44/4/1
f 54/5/2 48/6/2 19/7/2 22/8/2
f 3/9/3 9/10/3 17/11/3 33/12/3
f 39/13/4 28/14/4 5/15/4 3/9/4
f 82/16/5 10/17/5 7/18/5 83/19/5
f 14/20/6 30/21/6 11/22/6
f 59/23/7 8/24/7 37/25/7
f 45/26/6 16/27/6 40/28/6
f 10/17/8 27/29/8 24/30/8 7/18/8
f 17/31/7 59/23/7 34/32/7
f 15/33/9 4/34/9 36/35/9
f 4/34/10 15/33/10 80/36/10
f 95/37/11 92/38/11 84/39/11
f 95/37/11 85/40/11 91/41/11
f 95/37/11 88/42/11 99/43/11
f 9/44/12 2/45/12 77/46/12
s 1
f 1/47/13 4/34/13 2/45/13
f 78/48/14 2/45/15 4/49/16 79/50/17
f 3/9/13 5/15/13 1/47/13 2/45/13
f 4/34/9 5/15/18 36/35/19
f 4/34/13 1/47/13 5/15/13
f 3/9/20 2/45/20 9/44/20
usemtl Default_OBJ.051
f 39/51/21 35/52/21 23/53/21 22/54/21
f 46/55/22 47/56/22 48/57/23 49/58/23
f 42/59/24 50/60/25 51/61/25 52/62/24
f 50/60/25 43/63/26 53/64/26 51/61/25
f 43/63/26 44/65/27 54/66/27 53/64/26
f 28/67/28 19/68/28 18/69/28 29/70/28
f 41/71/29 42/59/24 52/62/24 55/72/30
f 31/73/31 56/74/31 57/75/32 32/76/32
f 32/76/32 57/75/32 47/56/22 46/55/22
f 21/77/33 20/78/34 56/74/31 31/73/31
f 24/30/8 25/79/35 7/18/36
f 41/71/29 55/72/30 23/53/37 35/52/38
f 24/30/8 27/29/8 26/2/8
f 27/80/39 49/3/40 26/2/41
f 44/4/42 25/79/35 24/30/43
f 43/63/44 38/81/45 25/79/35 44/4/42
f 22/54/46 19/7/46 28/14/46 39/51/46
f 12/82/47 27/80/39 10/83/48 13/84/49
f 50/60/50 37/85/51 38/81/45 43/63/44
f 44/65/27 49/3/23 48/6/23 54/66/27
f 82/16/52 13/84/53 10/83/54
f 57/75/55 19/7/56 47/56/57
f 19/7/56 48/57/58 47/56/57
f 11/86/59 12/87/47 13/84/49 14/88/59
f 6/89/60 83/19/61 7/18/62
f 22/8/63 53/64/64 54/66/65
f 22/8/63 51/61/66 53/64/64
f 30/90/6 40/91/6 11/22/6
f 14/20/6 45/92/6 30/21/6
f 6/89/67 38/93/45 37/25/68 8/94/68
f 56/74/69 19/7/56 57/75/55
f 56/74/69 20/78/34 19/7/56
f 20/78/34 18/69/70 19/68/56
f 12/87/47 46/55/71 49/3/40 27/80/39
f 40/91/72 31/73/73 32/76/74 11/22/75
f 34/32/7 59/95/7 37/85/7
f 59/23/7 58/96/7 8/24/7
f 81/97/76 14/88/77 13/84/53 82/16/52
f 23/53/37 55/98/30 22/54/63
f 55/72/30 52/62/78 22/54/63
f 52/62/78 51/61/66 22/8/63
f 45/26/6 40/28/6 30/90/6
f 36/99/79 31/73/73 40/91/72
f 16/100/80 15/33/80 36/35/80
f 16/100/80 36/35/80 40/91/80
f 16/27/6 45/26/6 14/20/6
f 81/97/76 16/100/81 14/88/77
f 36/99/79 21/77/33 31/73/73
f 11/22/75 32/76/74 46/55/71 12/87/47
f 29/70/82 5/101/18 28/67/83
f 42/59/84 33/102/85 34/32/86
f 33/12/87 17/11/87 34/32/87
f 17/31/7 58/96/7 59/23/7
f 58/96/7 17/31/7 8/94/7
f 80/36/88 15/33/88 16/100/81 81/97/76
f 3/9/89 35/52/90 39/51/91
f 21/77/33 29/70/92 18/69/70 20/78/34
f 41/71/29 33/102/85 42/59/84
f 5/101/18 29/70/82 36/99/19
f 29/70/92 21/77/33 36/99/79
f 42/59/84 34/32/86 37/85/51 50/60/50
f 41/103/29 35/52/38 33/102/85
f 35/52/90 3/9/89 33/102/93
f 9/10/94 77/46/95 17/11/96
f 7/104/36 25/79/35 38/93/45 6/89/67
usemtl Default_OBJ.052
f 85/40/97 86/105/98 62/106/98 61/107/99
f 86/105/98 87/108/100 63/109/100 62/106/98
f 87/108/100 84/110/101 60/111/102 63/109/100
f 88/42/103 89/112/104 65/113/104 64/114/105
f 89/112/104 90/115/106 66/116/106 65/113/104
f 90/115/106 91/117/107 67/118/108 66/116/106
f 92/38/109 93/119/110 69/120/110 68/121/111
f 93/119/110 94/122/112 70/123/112 69/120/110
f 94/122/112 95/37/113 71/124/114 70/123/112
f 96/125/115 97/126/116 73/127/116 72/128/117
f 97/126/116 98/129/118 74/130/118 73/127/116
f 98/129/118 99/131/119 75/132/120 74/130/118
f 64/114/105 75/133/120 99/43/119 88/42/103
f 67/118/108 79/134/121 66/116/122
f 61/107/99 62/106/123 78/135/124
f 76/136/125 83/19/61 6/89/60 8/94/126
f 17/11/96 77/46/95 76/137/125 8/94/126
f 96/138/115 72/128/117 71/124/114 95/37/113
f 80/139/127 81/97/128 75/133/120 64/140/105
f 78/135/124 79/50/121 67/141/108 61/142/99
f 72/128/117 73/127/129 82/16/130
f 62/106/123 63/109/131 77/46/132 78/135/124
f 73/127/129 74/130/133 81/97/128 82/16/130
f 70/123/134 71/124/114 83/143/135
f 74/130/133 75/132/120 81/97/128
f 68/144/111 76/136/136 77/145/132 60/146/102
f 61/107/99 67/141/108 91/41/107 85/40/97
f 72/147/117 82/16/130 83/143/135 71/148/114
f 69/120/137 70/149/134 83/19/135 76/136/136
f 68/121/111 69/120/137 76/136/136
f 92/38/109 68/121/111 60/111/102 84/110/101
f 64/114/105 65/113/138 80/139/127
f 79/50/17 4/49/16 80/36/139
f 95/37/11 94/122/11 93/119/11
f 95/37/11 93/119/11 92/38/11
f 95/37/11 84/39/140 87/108/11
f 95/37/11 87/108/11 86/105/11
f 95/37/11 86/105/11 85/40/11
f 95/37/11 91/41/11 90/115/11
f 95/37/11 90/115/11 89/112/11
f 95/37/11 89/112/11 88/42/11
f 95/37/113 99/43/11 98/129/11
f 95/37/113 98/129/11 97/126/11
f 95/37/113 97/126/11 96/125/115
f 66/116/122 79/134/121 80/139/127 65/113/138
f 63/109/131 60/111/102 77/145/132
f 2/45/15 78/48/14 77/46/141
