# Blender v2.91.2 OBJ File: 'Steam Rpller.blend'
# www.blender.org
mtllib OS_SR_Piston_B.mtl
o Piston_B_PistonB_Cube.001_Piston_A_PistonA_Cube.002
v -1.382025 0.113400 -1.037514
v -1.457974 0.113400 -1.037514
v -1.477428 0.170801 -0.191938
v -1.363505 0.170801 -0.191938
v -1.499938 -0.234759 -0.029795
v -1.472789 -0.186557 -0.149371
v -1.472789 -0.206618 -0.149494
v -1.499938 -0.263300 0.024833
v -1.533867 -0.157800 0.029563
v -1.533867 -0.169399 -0.114894
v -1.510484 -0.228085 -0.046351
v -1.510484 -0.208193 0.109304
v -1.495600 0.056962 -1.037514
v -1.495600 -0.056962 -1.037514
v -1.533867 -0.084741 -0.191938
v -1.533867 0.086143 -0.191938
v -1.307067 0.170801 -0.114841
v -1.307067 0.159202 0.029563
v -1.307067 0.146877 0.093091
v -1.307067 0.044399 0.140156
v -1.307067 -0.042996 0.140156
v -1.307067 -0.145475 0.093091
v -1.307067 -0.157800 0.029563
v -1.307067 -0.169399 -0.114788
v -1.307067 -0.169399 -0.114894
v -1.307067 -0.084741 -0.191938
v -1.307067 0.086143 -0.191938
v -1.533867 -0.042996 0.140156
v -1.533867 -0.145475 0.093091
v -1.510484 -0.187104 0.174710
v -1.510484 -0.054675 0.213157
v -1.477428 -0.169399 -0.191938
v -1.330449 -0.208193 0.109304
v -1.330449 -0.228085 -0.046351
v -1.533867 0.044399 0.140156
v -1.510484 0.056077 0.213157
v -1.457974 -0.113400 -1.037514
v -1.382025 -0.113400 -1.037514
v -1.363505 -0.169399 -0.191938
v -1.533867 0.170801 -0.114841
v -1.533867 0.146877 0.093091
v -1.533867 0.159202 0.029563
v -1.340995 -0.234759 -0.029795
v -1.340995 -0.208193 0.109304
v -1.340995 -0.231220 0.153724
v -1.340995 -0.263300 0.024833
v -1.340995 0.188507 0.174710
v -1.340995 0.209595 0.109304
v -1.340995 0.232622 0.153724
v -1.340995 0.208198 0.208612
v -1.499938 0.236161 -0.029795
v -1.499938 0.209595 0.109304
v -1.499938 0.232622 0.153724
v -1.499938 0.264702 0.024832
v -1.510484 0.229488 -0.046351
v -1.499938 0.188507 0.174710
v -1.499938 0.208198 0.208612
v -1.340995 0.236161 -0.029795
v -1.340995 0.264702 0.024832
v -1.499938 -0.054675 0.213157
v -1.499938 -0.187104 0.174710
v -1.499938 -0.206796 0.208612
v -1.499938 -0.060293 0.239917
v -1.472789 0.187960 -0.149371
v -1.472789 0.208021 -0.149494
v -1.510484 0.188507 0.174710
v -1.510484 0.209595 0.109304
v -1.330449 0.229488 -0.046351
v -1.330449 0.209595 0.109304
v -1.330449 0.188507 0.174710
v -1.330449 0.056077 0.213157
v -1.330449 -0.054675 0.213157
v -1.368144 0.187960 -0.149371
v -1.368144 0.208021 -0.149494
v -1.330449 -0.187104 0.174710
v -1.368144 -0.186557 -0.149371
v -1.499938 -0.208193 0.109304
v -1.499938 0.056077 0.213157
v -1.340995 0.056077 0.213157
v -1.340995 -0.054675 0.213157
v -1.340995 -0.187104 0.174710
v -1.368144 -0.206618 -0.149494
v -1.499938 0.061695 0.239917
v -1.340995 -0.060293 0.239917
v -1.340995 0.061695 0.239917
v -1.499938 -0.231220 0.153724
v -1.340995 -0.206796 0.208612
v -1.344400 -0.056962 -1.037514
v -1.344400 0.056962 -1.037514
v -1.354319 0.049599 -1.037514
v -1.354319 -0.049599 -1.037514
v -1.385832 -0.096868 -1.037514
v -1.454168 -0.096868 -1.037514
v -1.485681 -0.049599 -1.037514
v -1.485681 0.049599 -1.037514
v -1.454168 0.096868 -1.037514
v -1.385832 0.096868 -1.037514
v 1.382025 0.113400 -1.037514
v 1.457974 0.113400 -1.037514
v 1.477428 0.170801 -0.191938
v 1.363505 0.170801 -0.191938
v 1.499938 -0.234759 -0.029795
v 1.472789 -0.186558 -0.149371
v 1.472789 -0.206619 -0.149494
v 1.499938 -0.263300 0.024833
v 1.533867 -0.157800 0.029563
v 1.533867 -0.169399 -0.114894
v 1.510484 -0.228085 -0.046351
v 1.510484 -0.208193 0.109304
v 1.495600 0.056961 -1.037514
v 1.495600 -0.056962 -1.037514
v 1.533867 -0.084742 -0.191938
v 1.533867 0.086143 -0.191938
v 1.307067 0.170801 -0.114841
v 1.307067 0.159201 0.029563
v 1.307067 0.146877 0.093091
v 1.307067 0.044399 0.140156
v 1.307067 -0.042997 0.140156
v 1.307067 -0.145476 0.093091
v 1.307067 -0.157800 0.029563
v 1.307067 -0.169399 -0.114788
v 1.307067 -0.169399 -0.114894
v 1.307067 -0.084742 -0.191938
v 1.307067 0.086143 -0.191938
v 1.533867 -0.042997 0.140156
v 1.533867 -0.145476 0.093091
v 1.510484 -0.187105 0.174710
v 1.510484 -0.054675 0.213157
v 1.477428 -0.169399 -0.191938
v 1.330449 -0.208193 0.109304
v 1.330449 -0.228085 -0.046351
v 1.533867 0.044399 0.140156
v 1.510484 0.056077 0.213157
v 1.457974 -0.113400 -1.037514
v 1.382025 -0.113400 -1.037514
v 1.363505 -0.169399 -0.191938
v 1.533867 0.170801 -0.114841
v 1.533867 0.146877 0.093091
v 1.533867 0.159201 0.029563
v 1.340995 -0.234759 -0.029795
v 1.340995 -0.208193 0.109304
v 1.340995 -0.231220 0.153724
v 1.340995 -0.263300 0.024833
v 1.340995 0.188507 0.174710
v 1.340995 0.209594 0.109304
v 1.340995 0.232622 0.153724
v 1.340995 0.208197 0.208612
v 1.499938 0.236160 -0.029795
v 1.499938 0.209594 0.109304
v 1.499938 0.232622 0.153724
v 1.499938 0.264701 0.024832
v 1.510484 0.229487 -0.046351
v 1.499938 0.188507 0.174710
v 1.499938 0.208197 0.208612
v 1.340995 0.236160 -0.029795
v 1.340995 0.264701 0.024832
v 1.499938 -0.054675 0.213157
v 1.499938 -0.187105 0.174710
v 1.499938 -0.206796 0.208612
v 1.499938 -0.060293 0.239917
v 1.472789 0.187959 -0.149371
v 1.472789 0.208020 -0.149494
v 1.510484 0.188507 0.174710
v 1.510484 0.209594 0.109304
v 1.330449 0.229487 -0.046351
v 1.330449 0.209594 0.109304
v 1.330449 0.188507 0.174710
v 1.330449 0.056077 0.213157
v 1.330449 -0.054675 0.213157
v 1.368144 0.187959 -0.149371
v 1.368144 0.208020 -0.149494
v 1.330449 -0.187105 0.174710
v 1.368144 -0.186558 -0.149371
v 1.499938 -0.208193 0.109304
v 1.499938 0.056077 0.213157
v 1.340995 0.056077 0.213157
v 1.340995 -0.054675 0.213157
v 1.340995 -0.187105 0.174710
v 1.368144 -0.206619 -0.149494
v 1.499938 0.061695 0.239917
v 1.340995 -0.060293 0.239917
v 1.340995 0.061695 0.239917
v 1.499938 -0.231220 0.153724
v 1.340995 -0.206796 0.208612
v 1.344400 -0.056962 -1.037514
v 1.344400 0.056961 -1.037514
v 1.354319 0.049599 -1.037514
v 1.354319 -0.049599 -1.037514
v 1.385832 -0.096868 -1.037514
v 1.454168 -0.096868 -1.037514
v 1.485681 -0.049599 -1.037514
v 1.485681 0.049599 -1.037514
v 1.454168 0.096867 -1.037514
v 1.385832 0.096867 -1.037514
vt 0.879989 0.475207
vt 0.918102 0.450195
vt 0.918142 0.460604
vt 0.862577 0.490016
vt 0.860846 0.444777
vt 0.906890 0.451015
vt 0.885042 0.482569
vt 0.835429 0.471873
vt 0.297915 0.443809
vt 0.280474 0.443809
vt 0.280474 0.417464
vt 0.297915 0.417464
vt 0.118192 0.404412
vt 0.115633 0.402624
vt 0.114506 0.400724
vt 0.112885 0.395030
vt 0.112885 0.361346
vt 0.114506 0.355652
vt 0.115633 0.353752
vt 0.118192 0.351964
vt 0.118240 0.351964
vt 0.153075 0.365015
vt 0.153075 0.391361
vt 0.825595 0.383049
vt 0.840596 0.438150
vt 0.814581 0.460535
vt 0.802326 0.389329
vt 0.931447 0.451015
vt 0.906856 0.451015
vt 0.860846 0.444777
vt 0.835429 0.471873
vt 0.885042 0.482569
vt 0.825595 0.336059
vt 0.802326 0.329779
vt 0.297915 0.391361
vt 0.280474 0.391361
vt 0.280474 0.365015
vt 0.297915 0.365015
vt 0.332750 0.404412
vt 0.332798 0.351964
vt 0.335358 0.353752
vt 0.336484 0.355652
vt 0.338105 0.361346
vt 0.338105 0.395030
vt 0.336484 0.400724
vt 0.335358 0.402624
vt 0.118192 0.351964
vt 0.297915 0.404412
vt 0.153075 0.404412
vt 0.297915 0.351964
vt 0.332750 0.351964
vt 0.297915 0.312567
vt 0.297915 0.299515
vt 0.332750 0.299515
vt 0.297915 0.338912
vt 0.280474 0.338912
vt 0.280474 0.312567
vt 0.879989 0.475207
vt 0.835652 0.461421
vt 0.821494 0.473370
vt 0.862577 0.490016
vt 0.814805 0.255581
vt 0.835652 0.244639
vt 0.821494 0.232690
vt 0.803999 0.245364
vt 0.879989 0.230853
vt 0.835652 0.244639
vt 0.821494 0.232690
vt 0.862577 0.216044
vt 0.885042 0.236542
vt 0.931447 0.268095
vt 0.906873 0.268095
vt 0.814805 0.255581
vt 0.803999 0.245364
vt 0.879989 0.230853
vt 0.862577 0.216044
vt 0.802550 0.381764
vt 0.814805 0.450479
vt 0.803999 0.460698
vt 0.794021 0.384679
vt 0.918102 0.255864
vt 0.918142 0.245455
vt 0.931447 0.451015
vt 0.906890 0.451015
vt 0.840596 0.280959
vt 0.814581 0.258575
vt 0.860846 0.274331
vt 0.835429 0.247237
vt 0.906873 0.268095
vt 0.931447 0.268095
vt 0.885042 0.236542
vt 0.840596 0.280959
vt 0.860846 0.274331
vt 0.835429 0.247237
vt 0.814581 0.258575
vt 0.825595 0.336059
vt 0.802326 0.329779
vt 0.825595 0.383049
vt 0.802326 0.389329
vt 0.918102 0.255864
vt 0.918142 0.245455
vt 0.840596 0.438150
vt 0.814581 0.460535
vt 0.917879 0.460240
vt 0.879765 0.486157
vt 0.879765 0.486157
vt 0.917879 0.460240
vt 0.917879 0.258869
vt 0.917879 0.258869
vt 0.879765 0.232952
vt 0.835429 0.247237
vt 0.835429 0.247237
vt 0.879765 0.232952
vt 0.835429 0.471873
vt 0.835429 0.471873
vt 0.802326 0.329779
vt 0.814581 0.258575
vt 0.814581 0.258575
vt 0.802326 0.329779
vt 0.802326 0.389329
vt 0.814581 0.460535
vt 0.814581 0.460535
vt 0.802326 0.389329
vt 0.918142 0.460604
vt 0.794021 0.321382
vt 0.794021 0.384679
vt 0.794021 0.321382
vt 0.821494 0.473370
vt 0.803999 0.460698
vt 0.802550 0.381764
vt 0.802550 0.324296
vt 0.835652 0.461421
vt 0.918102 0.450195
vt 0.814805 0.450479
vt 0.802550 0.324296
vt 0.185227 0.384060
vt 0.270304 0.312693
vt 0.277176 0.318029
vt 0.278219 0.342520
vt 0.278441 0.364409
vt 0.277965 0.389885
vt 0.271814 0.409357
vt 0.184729 0.399682
vt 0.170517 0.391361
vt 0.280474 0.299515
vt 0.170517 0.404412
vt 0.879989 0.475207
vt 0.862577 0.490016
vt 0.918142 0.460604
vt 0.918102 0.450195
vt 0.860846 0.444777
vt 0.835429 0.471873
vt 0.885042 0.482569
vt 0.906890 0.451015
vt 0.118192 0.404412
vt 0.153075 0.391361
vt 0.153075 0.365015
vt 0.118240 0.351964
vt 0.118192 0.351964
vt 0.115633 0.353752
vt 0.114506 0.355652
vt 0.112885 0.361346
vt 0.112885 0.395030
vt 0.114506 0.400724
vt 0.115633 0.402624
vt 0.825595 0.383049
vt 0.802326 0.389329
vt 0.814581 0.460535
vt 0.840596 0.438150
vt 0.906856 0.451015
vt 0.885042 0.482569
vt 0.835429 0.471873
vt 0.860846 0.444777
vt 0.297915 0.365015
vt 0.280474 0.365015
vt 0.280474 0.391361
vt 0.297915 0.391361
vt 0.118192 0.351964
vt 0.153075 0.404412
vt 0.297915 0.312567
vt 0.280474 0.312567
vt 0.280474 0.338912
vt 0.297915 0.338912
vt 0.879989 0.230853
vt 0.862577 0.216044
vt 0.821494 0.232690
vt 0.835652 0.244639
vt 0.297915 0.417464
vt 0.332750 0.404412
vt 0.297915 0.404412
vt 0.814805 0.255581
vt 0.803999 0.245364
vt 0.821494 0.232690
vt 0.835652 0.244639
vt 0.931447 0.451015
vt 0.335358 0.402624
vt 0.336484 0.400724
vt 0.338105 0.395030
vt 0.338105 0.361346
vt 0.336484 0.355652
vt 0.335358 0.353752
vt 0.332798 0.351964
vt 0.879989 0.475207
vt 0.862577 0.490016
vt 0.821494 0.473370
vt 0.835652 0.461421
vt 0.280474 0.417464
vt 0.280474 0.443809
vt 0.297915 0.443809
vt 0.803999 0.245364
vt 0.814805 0.255581
vt 0.862577 0.216044
vt 0.879989 0.230853
vt 0.802550 0.381764
vt 0.794021 0.384679
vt 0.803999 0.460698
vt 0.814805 0.450479
vt 0.918102 0.255864
vt 0.918142 0.245455
vt 0.840596 0.280959
vt 0.814581 0.258575
vt 0.802326 0.329779
vt 0.825595 0.336059
vt 0.860846 0.274331
vt 0.835429 0.247237
vt 0.825595 0.336059
vt 0.802326 0.329779
vt 0.814581 0.258575
vt 0.840596 0.280959
vt 0.860846 0.274331
vt 0.835429 0.247237
vt 0.885042 0.236542
vt 0.906873 0.268095
vt 0.332750 0.299515
vt 0.297915 0.299515
vt 0.918142 0.245455
vt 0.918102 0.255864
vt 0.814581 0.460535
vt 0.840596 0.438150
vt 0.879765 0.486157
vt 0.931447 0.451015
vt 0.917879 0.460240
vt 0.917879 0.258869
vt 0.931447 0.268095
vt 0.879765 0.232952
vt 0.835429 0.247237
vt 0.885042 0.236542
vt 0.879765 0.232952
vt 0.835429 0.471873
vt 0.917879 0.258869
vt 0.931447 0.268095
vt 0.802326 0.389329
vt 0.802326 0.389329
vt 0.814581 0.460535
vt 0.814581 0.258575
vt 0.835429 0.247237
vt 0.814581 0.258575
vt 0.825595 0.383049
vt 0.802326 0.329779
vt 0.802326 0.329779
vt 0.879765 0.486157
vt 0.835429 0.471873
vt 0.917879 0.460240
vt 0.906873 0.268095
vt 0.802326 0.389329
vt 0.918142 0.460604
vt 0.794021 0.321382
vt 0.794021 0.321382
vt 0.794021 0.384679
vt 0.821494 0.473370
vt 0.803999 0.460698
vt 0.814581 0.460535
vt 0.814805 0.450479
vt 0.802550 0.324296
vt 0.918102 0.450195
vt 0.802550 0.381764
vt 0.906890 0.451015
vt 0.835652 0.461421
vt 0.802550 0.324296
vt 0.332750 0.351964
vt 0.297915 0.351964
vt 0.277965 0.389885
vt 0.278441 0.364409
vt 0.185227 0.384060
vt 0.184729 0.399682
vt 0.271814 0.409357
vt 0.278219 0.342520
vt 0.277176 0.318029
vt 0.270304 0.312693
vt 0.170517 0.391361
vt 0.170517 0.404412
vt 0.280474 0.299515
vt 0.170517 0.365015
vt 0.170517 0.365015
vn -0.7437 -0.6555 -0.1311
vn -0.1851 -0.7711 -0.6092
vn -0.4441 -0.5772 -0.6853
vn -0.6637 -0.7474 -0.0312
vn -0.9830 -0.1817 0.0255
vn -0.8834 -0.4011 -0.2424
vn -0.5472 -0.8154 -0.1888
vn -0.6476 -0.7416 0.1753
vn 0.4197 0.8570 -0.2992
vn 0.4738 0.8791 -0.0517
vn -0.4736 0.8792 -0.0521
vn -0.4198 0.8568 -0.2994
vn 0.8835 0.4009 -0.2423
vn 0.9830 0.1817 0.0255
vn 0.9826 0.1552 0.1016
vn 0.9865 0.0278 0.1611
vn 0.9865 -0.0278 0.1611
vn 0.9826 -0.1552 0.1016
vn 0.9830 -0.1817 0.0255
vn 0.9818 -0.1900 0.0049
vn 0.8832 -0.3982 -0.2476
vn 0.9709 -0.2146 -0.1064
vn 0.9708 0.2148 -0.1067
vn -0.9865 -0.0278 0.1611
vn -0.9826 -0.1552 0.1016
vn -0.5301 -0.5884 0.6105
vn -0.5731 -0.1198 0.8107
vn -0.4199 -0.8570 -0.2987
vn 0.6476 -0.7416 0.1753
vn 0.5472 -0.8154 -0.1888
vn -0.9865 0.0278 0.1611
vn -0.5731 0.1198 0.8107
vn -0.9708 0.2147 -0.1072
vn -0.9571 0.2869 -0.0393
vn -0.9571 -0.2872 -0.0389
vn -0.9708 -0.2146 -0.1069
vn -0.8835 0.4009 -0.2423
vn -0.9826 0.1552 0.1016
vn -0.9830 0.1817 0.0255
vn 0.4198 -0.8571 -0.2984
vn -0.4734 -0.8794 -0.0510
vn 0.4736 -0.8793 -0.0506
vn 0.7437 -0.6555 -0.1311
vn 0.7917 -0.5937 0.1437
vn 0.6880 -0.6863 0.2361
vn 0.6637 -0.7474 -0.0312
vn 0.8293 0.3893 0.4009
vn 0.7917 0.5937 0.1437
vn 0.6880 0.6863 0.2361
vn 0.6178 0.4952 0.6108
vn -0.7437 0.6555 -0.1311
vn -0.7917 0.5937 0.1437
vn -0.6880 0.6863 0.2361
vn -0.6637 0.7474 -0.0312
vn -0.5472 0.8154 -0.1888
vn -0.8293 0.3893 0.4009
vn -0.6178 0.4952 0.6108
vn 0.7437 0.6555 -0.1311
vn 0.6637 0.7474 -0.0312
vn -0.7402 -0.0947 0.6657
vn -0.8293 -0.3893 0.4009
vn -0.6178 -0.4952 0.6108
vn -0.6842 -0.0766 0.7253
vn -0.1851 0.7711 -0.6092
vn -0.4441 0.5772 -0.6853
vn -0.5301 0.5885 0.6105
vn -0.6476 0.7416 0.1753
vn 0.5472 0.8154 -0.1888
vn 0.6476 0.7416 0.1753
vn 0.5301 0.5885 0.6105
vn 0.5731 0.1198 0.8107
vn 0.5731 -0.1198 0.8107
vn 0.1851 0.7711 -0.6092
vn 0.4441 0.5772 -0.6853
vn 0.5301 -0.5884 0.6105
vn 0.1851 -0.7711 -0.6092
vn -0.7917 -0.5937 0.1437
vn -0.7402 0.0947 0.6657
vn 0.7402 0.0947 0.6657
vn 0.7402 -0.0947 0.6657
vn 0.8293 -0.3893 0.4009
vn 0.4441 -0.5772 -0.6853
vn -0.6842 0.0766 0.7253
vn 0.6842 -0.0766 0.7253
vn 0.6842 0.0766 0.7253
vn -0.6880 -0.6863 0.2361
vn 0.6178 -0.4952 0.6108
vn -0.0000 0.0000 -1.0000
vn 0.8834 -0.4011 -0.2424
vn -0.9708 0.2148 -0.1067
vn -0.9709 -0.2146 -0.1064
vn -0.8832 -0.3982 -0.2476
vn -0.9818 -0.1900 0.0049
vn 0.9708 -0.2146 -0.1070
vn 0.9571 -0.2872 -0.0389
vn 0.9571 0.2869 -0.0393
vn 0.9708 0.2147 -0.1073
vn -0.4197 0.8570 -0.2991
vn -0.4198 -0.8571 -0.2984
vn -0.4736 -0.8793 -0.0506
vn 0.4734 -0.8794 -0.0510
vn 0.4199 -0.8570 -0.2987
vn 0.4198 0.8568 -0.2994
vn 0.4736 0.8792 -0.0521
vn -0.4738 0.8791 -0.0517
vn 0.9571 -0.2871 -0.0382
vn 0.9572 0.2869 -0.0385
vn -0.9572 0.2869 -0.0385
vn -0.9571 -0.2871 -0.0382
usemtl Material.029
s 1
f 5/1/1 6/2/2 7/3/3 8/4/4
f 9/5/5 10/6/6 11/7/7 12/8/8
f 4/9/9 1/10/10 2/11/11 3/12/12
f 17/13/13 18/14/14 19/15/15 20/16/16 21/17/17 22/18/18 23/19/19 24/20/20 25/21/21 26/22/22 27/23/23
f 28/24/24 29/25/25 30/26/26 31/27/27
f 10/6/6 32/28/28 11/7/7
f 29/25/25 9/5/5 12/8/8 30/26/26
f 24/29/20 23/30/19 33/31/29 34/32/30
f 35/33/31 28/24/24 31/27/27 36/34/32
f 16/35/33 13/36/34 14/37/35 15/38/36
f 40/39/37 16/35/33 15/38/36 10/40/6 9/41/5 29/42/25 28/43/24 35/44/31 41/45/38 42/46/39
f 25/21/21 24/20/20 34/47/30
f 3/12/12 16/48/33 40/39/37
f 27/23/23 4/49/9 17/13/13
f 15/38/36 32/50/28 10/51/6
f 39/52/40 26/53/22 25/54/21
f 32/55/28 37/56/41 38/57/42 39/52/40
f 43/58/43 44/59/44 45/60/45 46/61/46
f 47/62/47 48/63/48 49/64/49 50/65/50
f 51/66/51 52/67/52 53/68/53 54/69/54
f 55/70/55 3/71/12 40/72/37
f 52/67/52 56/73/56 57/74/57 53/68/53
f 48/63/48 58/75/58 59/76/59 49/64/49
f 60/77/60 61/78/61 62/79/62 63/80/63
f 64/81/64 51/66/51 54/69/54 65/82/65
f 34/32/30 39/83/40 25/84/21
f 41/85/38 35/33/31 36/34/32 66/86/66
f 42/87/39 41/85/38 66/86/66 67/88/67
f 17/89/13 4/90/9 68/91/68
f 19/92/15 18/93/14 69/94/69 70/95/70
f 20/96/16 19/92/15 70/95/70 71/97/71
f 21/98/17 20/96/16 71/97/71 72/99/72
f 18/93/14 17/89/13 68/91/68 69/94/69
f 58/75/58 73/100/73 74/101/74 59/76/59
f 23/30/19 22/102/18 75/103/75 33/31/29
f 22/102/18 21/98/17 72/99/72 75/103/75
f 40/72/37 42/87/39 67/88/67 55/70/55
f 6/104/2 5/105/1 11/7/7 32/28/28
f 43/106/43 76/107/76 39/83/40 34/32/30
f 64/108/64 73/109/73 4/90/9 3/71/12
f 76/107/76 6/104/2 32/28/28 39/83/40
f 73/109/73 58/110/58 68/91/68 4/90/9
f 58/110/58 48/111/48 69/94/69 68/91/68
f 52/112/52 51/113/51 55/70/55 67/88/67
f 44/114/44 43/106/43 34/32/30 33/31/29
f 5/105/1 77/115/77 12/8/8 11/7/7
f 78/116/78 56/117/56 66/86/66 36/34/32
f 47/118/47 79/119/79 71/97/71 70/95/70
f 80/120/80 81/121/81 75/103/75 72/99/72
f 61/122/61 60/123/60 31/27/27 30/26/26
f 56/117/56 52/112/52 67/88/67 66/86/66
f 48/111/48 47/118/47 70/95/70 69/94/69
f 79/119/79 80/120/80 72/99/72 71/97/71
f 81/121/81 44/114/44 33/31/29 75/103/75
f 60/123/60 78/116/78 36/34/32 31/27/27
f 77/115/77 61/122/61 30/26/26 12/8/8
f 51/113/51 64/108/64 3/71/12 55/70/55
f 7/3/3 82/124/82 46/61/46 8/4/4
f 83/125/83 63/80/63 84/126/84 85/127/85
f 8/4/4 46/61/46 45/60/45 86/128/86
f 87/129/87 62/79/62 86/128/86 45/60/45
f 59/76/59 54/69/54 53/68/53 49/64/49
f 83/125/83 85/127/85 50/65/50 57/74/57
f 84/126/84 63/80/63 62/79/62 87/129/87
f 57/74/57 50/65/50 49/64/49 53/68/53
f 74/101/74 65/82/65 54/69/54 59/76/59
f 80/130/80 79/131/79 85/127/85 84/126/84
f 77/132/77 5/1/1 8/4/4 86/128/86
f 76/133/76 43/58/43 46/61/46 82/124/82
f 44/59/44 81/134/81 87/129/87 45/60/45
f 56/73/56 78/135/78 83/125/83 57/74/57
f 73/100/73 64/81/64 65/82/65 74/101/74
f 78/135/78 60/77/60 63/80/63 83/125/83
f 79/131/79 47/62/47 50/65/50 85/127/85
f 6/2/2 76/133/76 82/124/82 7/3/3
f 61/78/61 77/132/77 86/128/86 62/79/62
f 81/134/81 80/130/80 84/126/84 87/129/87
f 90/136/88 91/137/88 92/138/88 93/139/88 94/140/88 95/141/88 96/142/88 97/143/88
f 91/137/88 90/136/88 89/144/88 88/145/88
f 96/142/88 95/141/88 13/36/88 2/11/88
f 94/140/88 93/139/88 37/56/88 14/37/88
f 92/138/88 91/137/88 88/145/88 38/57/88
f 90/136/88 97/143/88 1/146/88 89/144/88
f 93/139/88 92/138/88 38/57/88 37/56/88
f 95/141/88 94/140/88 14/37/88 13/36/88
f 97/143/88 96/142/88 2/11/88 1/146/88
f 102/147/43 105/148/46 104/149/82 103/150/76
f 106/151/19 109/152/29 108/153/30 107/154/89
f 114/155/37 124/156/90 123/157/91 122/158/92 121/159/93 120/160/5 119/161/25 118/162/24 117/163/31 116/164/38 115/165/39
f 125/166/17 128/167/72 127/168/75 126/169/18
f 121/170/93 131/171/7 130/172/8 120/173/5
f 112/174/94 111/175/95 110/176/96 113/177/97
f 126/169/18 127/168/75 109/152/29 106/151/19
f 122/158/92 131/178/7 121/159/93
f 124/156/90 114/155/37 101/179/98
f 136/180/99 135/181/100 134/182/101 129/183/102
f 148/184/58 151/185/59 150/186/49 149/187/48
f 100/188/103 137/189/13 113/190/97
f 144/191/56 147/192/57 146/193/53 145/194/52
f 107/154/89 108/153/30 129/195/102
f 137/189/13 139/196/14 138/197/15 132/198/16 125/199/17 126/200/18 106/201/19 107/202/89 112/174/94 113/177/97
f 140/203/1 143/204/4 142/205/86 141/206/77
f 100/188/103 99/207/104 98/208/105 101/209/98
f 149/187/48 150/186/49 154/210/50 153/211/47
f 145/194/52 146/193/53 156/212/54 155/213/51
f 157/214/80 160/215/84 159/216/87 158/217/81
f 161/218/73 162/219/74 151/185/59 148/184/58
f 138/220/15 163/221/70 133/222/71 132/223/16
f 139/224/14 164/225/69 163/221/70 138/220/15
f 117/226/31 168/227/32 167/228/66 116/229/38
f 115/230/39 166/231/67 165/232/55 114/233/37
f 136/180/99 122/234/92 123/235/91
f 155/213/51 156/212/54 171/236/65 170/237/64
f 120/173/5 130/172/8 172/238/26 119/239/25
f 140/240/1 131/171/7 136/241/99 173/242/2
f 170/243/64 101/244/98 165/232/55 155/245/51
f 149/246/48 164/225/69 152/247/68 148/248/58
f 141/249/77 130/172/8 131/171/7 140/240/1
f 161/250/73 100/251/103 101/244/98 170/243/64
f 177/252/60 169/253/27 172/238/26 178/254/61
f 153/255/47 163/221/70 164/225/69 149/246/48
f 145/256/52 166/231/67 167/228/66 144/257/56
f 119/239/25 172/238/26 169/253/27 118/258/24
f 132/223/16 133/222/71 128/167/72 125/166/17
f 176/259/78 168/227/32 169/253/27 177/252/60
f 175/260/79 133/222/71 163/221/70 153/255/47
f 178/254/61 172/238/26 130/172/8 141/249/77
f 102/261/43 108/153/30 109/152/29 174/262/44
f 173/242/2 136/241/99 129/195/102 103/263/76
f 137/264/13 152/247/68 164/225/69 139/224/14
f 152/247/68 137/264/13 100/251/103
f 157/265/80 128/167/72 133/222/71 175/260/79
f 104/149/82 105/148/46 143/204/4 179/266/3
f 180/267/85 182/268/83 181/269/63 160/215/84
f 156/212/54 146/193/53 150/186/49 151/185/59
f 116/229/38 167/228/66 166/231/67 115/230/39
f 103/263/76 129/195/102 108/153/30 102/261/43
f 155/245/51 165/232/55 166/231/67 145/256/52
f 105/148/46 183/270/45 142/205/86 143/204/4
f 184/271/62 142/205/86 183/270/45 159/216/87
f 148/248/58 152/247/68 100/251/103 161/250/73
f 174/262/44 109/152/29 127/168/75 158/272/81
f 118/258/24 169/253/27 168/227/32 117/226/31
f 180/267/85 154/210/50 147/192/57 182/268/83
f 141/206/77 142/205/86 184/271/62 178/273/61
f 175/274/79 180/267/85 160/215/84 157/214/80
f 103/150/76 104/149/82 179/266/3 173/275/2
f 114/233/37 165/232/55 101/244/98
f 153/211/47 154/210/50 180/267/85 175/274/79
f 178/273/61 184/271/62 181/269/63 177/276/60
f 131/171/7 122/277/92 136/241/99
f 144/257/56 167/228/66 168/227/32 176/259/78
f 174/278/44 183/270/45 105/148/46 102/147/43
f 176/279/78 182/268/83 147/192/57 144/191/56
f 181/269/63 184/271/62 159/216/87 160/215/84
f 158/217/81 159/216/87 183/270/45 174/278/44
f 177/276/60 181/269/63 182/268/83 176/279/78
f 158/272/81 127/168/75 128/167/72 157/265/80
f 171/236/65 156/212/54 151/185/59 162/219/74
f 173/275/2 179/266/3 143/204/4 140/203/1
f 154/210/50 150/186/49 146/193/53 147/192/57
f 170/237/64 171/236/65 162/219/74 161/218/73
f 112/174/94 107/280/89 129/281/102
f 192/282/88 110/176/88 111/175/88 191/283/88
f 187/284/88 194/285/88 193/286/88 192/282/88 191/283/88 190/287/88 189/288/88 188/289/88
f 187/284/88 186/290/88 98/291/88 194/285/88
f 191/283/88 111/175/88 134/182/88 190/287/88
f 188/289/88 185/292/88 186/290/88 187/284/88
f 190/287/88 134/182/88 135/181/88 189/288/88
f 193/286/88 99/207/88 110/176/88 192/282/88
f 189/288/88 135/181/88 185/292/88 188/289/88
f 194/285/88 98/291/88 99/207/88 193/286/88
f 26/22/22 88/293/106 89/144/107 27/23/23
f 15/38/36 14/37/35 37/56/41 32/55/28
f 39/52/40 38/57/42 88/145/106 26/53/22
f 27/23/23 89/144/107 1/146/10 4/49/9
f 3/12/12 2/11/11 13/36/34 16/35/33
f 124/156/90 186/290/108 185/294/109 123/157/91
f 129/183/102 134/182/101 111/175/95 112/174/94
f 123/235/91 185/292/109 135/181/100 136/180/99
f 101/179/98 98/291/105 186/290/108 124/156/90
f 113/177/97 110/176/96 99/207/104 100/188/103
