# Blender v2.93.2 OBJ File: 'GT_Fabricator_Scrapper.blend'
# www.blender.org
v -2.050000 3.000000 0.500000
v -2.050000 3.500000 0.500000
v -2.050000 3.500000 -1.150000
v 1.043823 3.000000 0.500605
v 1.043823 3.500000 0.500605
v 1.043823 3.500000 -1.140357
v -2.062246 3.000000 -1.660642
v -2.050000 3.000000 -1.650000
v 1.043823 3.000000 -1.647618
vt 0.625000 0.250000
vt 0.453567 0.500000
vt 0.453567 0.250000
vt 0.625000 0.500000
vt 0.375000 0.750000
vt 0.625000 0.750000
vt 0.375000 1.000000
vt 0.375000 0.210784
vt 0.875000 0.750000
vt 0.375000 0.539216
vt 0.125000 0.539216
vt 0.125000 0.500000
vt 0.125000 0.750000
vt 0.625000 1.000000
vt 0.375000 0.000000
vt 0.625000 0.000000
vt 0.875000 0.500000
vn 0.0029 0.7145 -0.6997
vn 1.0000 -0.0000 0.0000
vn -0.0002 0.0000 1.0000
vn -0.5235 -0.6025 0.6025
vn -0.0000 1.0000 0.0000
vn 0.0000 -1.0000 -0.0000
vn 0.0022 0.7122 -0.7020
vn -1.0000 0.0000 0.0000
s off
f 3/1/1 9/2/1 7/3/1
f 6/4/2 4/5/2 9/2/2
f 5/6/3 1/7/3 4/5/3
f 3/1/4 7/3/4 8/8/4
f 6/4/5 2/9/5 5/6/5
f 9/10/6 8/11/6 7/12/6
f 9/10/6 1/13/6 8/11/6
f 3/1/7 6/4/7 9/2/7
f 6/4/2 5/6/2 4/5/2
f 5/6/3 2/14/3 1/7/3
f 8/8/8 1/15/8 3/1/8
f 1/15/8 2/16/8 3/1/8
f 6/4/5 3/17/5 2/9/5
f 9/10/6 4/5/6 1/13/6
