# Blender v2.82 (sub 7) OBJ File: 'TACUpperOBlockRemaster.blend'
# www.blender.org
mtllib TACUpperOBlockRemaster.mtl
o Solid1.018
v 2.050000 -0.399998 -3.350000
v 2.350000 -0.399998 -3.350000
v 2.350000 -0.399998 -3.050000
v -2.350000 -0.400001 3.050000
v -2.050000 -0.400002 3.350000
v -2.350000 -0.400002 3.350000
v 2.050000 -0.400002 3.350000
v 2.350000 -0.400001 3.050000
v 2.350000 -0.400002 3.350000
v -2.350000 -0.399998 -3.050000
v -2.350000 -0.399998 -3.350000
v -2.050000 -0.399998 -3.350000
v 2.350000 0.399998 3.050000
v 2.050000 0.399998 3.350000
v 2.350000 0.399998 3.350000
v -2.350000 0.400001 -3.050000
v -2.050000 0.400002 -3.350000
v -2.350000 0.400002 -3.350000
v 2.350000 0.400001 -3.050000
v 2.050000 0.400002 -3.350000
v -2.350000 0.399998 3.350000
v -2.050000 0.399998 3.350000
v -2.350000 0.399998 3.050000
v -2.000000 -0.225000 3.000000
v 2.000000 -0.225000 3.000000
v -2.075000 -0.300002 3.075000
v 2.075000 -0.300002 3.075000
v 2.000000 -0.225000 -3.000000
v 2.075000 -0.300000 -3.075000
v -2.075000 -0.300000 -3.075000
v -2.000000 -0.225000 -3.000000
v 2.000000 0.225000 -3.000000
v 2.000000 0.225000 3.000000
v -2.000000 0.225000 3.000000
v -2.075000 -0.300000 -3.200000
v -2.200000 -0.300000 -3.075000
v -2.200000 -0.300002 3.075000
v -2.075000 -0.300002 3.200000
v 2.075000 -0.300002 3.200000
v 2.200000 -0.300002 3.075000
v 2.200000 -0.300000 -3.075000
v 2.075000 -0.300000 -3.200000
v -2.075000 0.300000 3.075000
v 2.075000 0.300000 3.075000
v 2.075000 0.300002 -3.075000
v -2.000000 0.225000 -3.000000
v -2.075000 0.300002 -3.075000
v -2.075000 0.300000 3.200000
v 2.075000 0.300000 3.200000
v 2.200000 0.300000 3.075000
v 2.200000 0.300002 -3.075000
v 2.075000 0.300002 -3.200000
v -2.075000 0.300002 -3.200000
v -2.200000 0.300002 -3.075000
v -2.200000 0.300000 3.075000
v -2.975000 -0.500002 3.975000
v -2.975000 -0.475002 4.000000
v -3.000000 -0.475002 3.975000
v 2.975000 -0.500002 3.975000
v 3.000000 -0.475002 3.975000
v 2.975000 -0.475002 4.000000
v 3.000000 -0.474998 -4.000000
v 2.975000 -0.499998 -3.975000
v -2.975000 0.499998 3.975000
v -3.000000 0.474998 3.975000
v -2.975000 0.474998 4.000000
v -2.975000 -0.499998 -3.975000
v -3.000000 -0.474998 -3.975000
v -2.975000 -0.474998 -4.000000
v 2.975000 0.499998 3.975000
v 2.975000 0.474998 4.000000
v 3.000000 0.474998 3.975000
v -2.975000 0.500002 -3.975000
v -2.975000 0.475002 -4.000000
v -3.000000 0.475002 -3.975000
v 3.000000 0.475002 -4.000000
v 2.975000 0.500002 -3.975000
v 2.050000 -0.487498 -3.350000
v 2.019822 -0.499998 -3.362500
v 2.362500 -0.499998 -3.362500
v 2.350000 -0.487498 -3.350000
v 2.362500 -0.499998 -3.019822
v 2.350000 -0.487498 -3.050000
v -2.350000 -0.487501 3.050000
v -2.362500 -0.500000 3.019822
v -2.019822 -0.500002 3.362500
v -2.050000 -0.487502 3.350000
v -2.362500 -0.500002 3.362500
v -2.350000 -0.487502 3.350000
v 2.050000 -0.487502 3.350000
v 2.019822 -0.500002 3.362500
v 2.362500 -0.500000 3.019822
v 2.350000 -0.487501 3.050000
v 2.362500 -0.500002 3.362500
v 2.350000 -0.487502 3.350000
v -2.350000 -0.487498 -3.050000
v -2.362500 -0.499998 -3.019822
v -2.362500 -0.499998 -3.362500
v -2.350000 -0.487498 -3.350000
v -2.019822 -0.499998 -3.362500
v -2.050000 -0.487498 -3.350000
v 2.350000 0.487498 3.050000
v 2.362500 0.499998 3.019822
v 2.019822 0.499998 3.362500
v 2.050000 0.487498 3.350000
v 2.362500 0.499998 3.362500
v 2.350000 0.487498 3.350000
v -2.350000 0.487501 -3.050000
v -2.362500 0.500000 -3.019822
v -2.019822 0.500002 -3.362500
v -2.050000 0.487502 -3.350000
v -2.362500 0.500002 -3.362500
v -2.350000 0.487502 -3.350000
v 2.350000 0.492996 -3.050000
v 2.362500 0.500000 -3.019822
v 2.362500 0.500002 -3.362500
v 2.350000 0.494019 -3.349552
v 2.350000 0.400002 -3.349761
v 2.019822 0.500002 -3.362500
v 2.050000 0.492415 -3.350000
v -2.350000 0.487498 3.350000
v -2.362500 0.499998 3.362500
v -2.019822 0.499998 3.362500
v -2.050000 0.487498 3.350000
v -2.362500 0.499998 3.019822
v -2.350000 0.487498 3.050000
v 2.212500 0.499998 3.074996
v 2.200000 0.487498 3.075000
v 2.075000 0.487498 3.200000
v 2.072542 0.499998 3.214746
v 2.212500 0.500000 -3.074996
v 2.200000 0.487501 -3.075000
v 2.072542 0.500002 -3.214746
v 2.075000 0.487502 -3.200000
v -2.078018 0.499998 3.214659
v -2.075000 0.487498 3.200000
v -2.200000 0.487498 3.075000
v -2.212500 0.499998 3.080178
v -2.200000 0.487501 -3.075000
v -2.212500 0.500000 -3.080178
v -2.075000 0.487502 -3.200000
v -2.078018 0.500002 -3.214659
v -2.078018 -0.499998 -3.214659
v -2.075000 -0.487498 -3.200000
v -2.200000 -0.487498 -3.075000
v -2.212500 -0.499998 -3.080178
v -2.200000 -0.487501 3.075000
v -2.212500 -0.500000 3.080178
v 2.212500 -0.499998 -3.074996
v 2.200000 -0.487498 -3.075000
v 2.075000 -0.487498 -3.200000
v 2.072542 -0.499998 -3.214746
v 2.212500 -0.500000 3.074996
v 2.200000 -0.487501 3.075000
v 2.072542 -0.500002 3.214746
v 2.075000 -0.487502 3.200000
v -2.075000 -0.487502 3.200000
v -2.078018 -0.500002 3.214659
vt 0.456100 0.407700
vt 0.456100 0.407700
vt 0.456100 0.407700
vt 0.455800 0.407500
vt 0.455800 0.407500
vt 0.455800 0.407500
vt 0.456102 0.407702
vt 0.456200 0.407800
vt 0.455400 0.407800
vt 0.455800 0.407500
vt 0.455800 0.407500
vt 0.651100 0.006400
vt 0.651200 0.006400
vt 0.651200 0.006400
vt 0.455400 0.407200
vt 0.455400 0.407200
vt 0.455514 0.407200
vt 0.455800 0.407500
vt 0.455800 0.407500
vt 0.455800 0.407500
vt 0.455414 0.407327
vt 0.455486 0.407187
vt 0.455486 0.407295
vt 0.455800 0.407500
vt 0.455800 0.407500
vt 0.455800 0.407500
vt 0.455700 0.407500
vt 0.455700 0.407500
vt 0.651100 0.006400
vt 0.651200 0.006400
vt 0.651100 0.006500
vt 0.455400 0.407702
vt 0.455400 0.407702
vt 0.455800 0.407500
vt 0.455800 0.407500
vt 0.455800 0.407500
vt 0.455503 0.407700
vt 0.455500 0.407700
vt 0.455700 0.407500
vt 0.455800 0.407500
vt 0.455800 0.407500
vt 0.455490 0.407700
vt 0.455700 0.407500
vt 0.455700 0.407500
vt 0.651100 0.006400
vt 0.651100 0.006400
vt 0.651200 0.006400
vt 0.456100 0.407303
vt 0.456100 0.407203
vt 0.456100 0.407189
vt 0.455800 0.407500
vt 0.455800 0.407500
vt 0.455800 0.407500
vt 0.456200 0.407200
vt 0.456102 0.407200
vt 0.456100 0.407295
vt 0.651200 0.006500
vt 0.651100 0.006400
vt 0.651200 0.006400
vt 0.456102 0.407702
vt 0.456200 0.407800
vt 0.456102 0.407702
vt 0.455800 0.407500
vt 0.455800 0.407500
vt 0.455800 0.407500
vt 0.456100 0.407700
vt 0.456100 0.407700
vt 0.456100 0.407700
vt 0.455800 0.407500
vt 0.455800 0.407500
vt 0.455800 0.407500
vt 0.455700 0.407500
vt 0.455700 0.407500
vt 0.651200 0.006400
vt 0.651100 0.006400
vt 0.651200 0.006400
vt 0.455400 0.407200
vt 0.455400 0.407200
vt 0.455514 0.407200
vt 0.455800 0.407500
vt 0.455800 0.407500
vt 0.455800 0.407500
vt 0.455400 0.407697
vt 0.455400 0.407303
vt 0.455700 0.407500
vt 0.455800 0.407500
vt 0.455800 0.407500
vt 0.456200 0.407200
vt 0.455700 0.407500
vt 0.455700 0.407500
vt 0.651100 0.006400
vt 0.651200 0.006400
vt 0.651100 0.006500
vt 0.455499 0.407700
vt 0.455511 0.407700
vt 0.455800 0.407500
vt 0.455800 0.407500
vt 0.455800 0.407500
vt 0.455400 0.407702
vt 0.455400 0.407800
vt 0.455800 0.407500
vt 0.456102 0.407200
vt 0.456102 0.407200
vt 0.455700 0.407500
vt 0.455800 0.407500
vt 0.455700 0.407500
vt 0.456100 0.407295
vt 0.456100 0.407187
vt 0.456100 0.407327
vt 0.455500 0.407200
vt 0.455800 0.407500
vt 0.455800 0.407500
vt 0.455800 0.407500
vt 0.651100 0.006400
vt 0.651200 0.006400
vt 0.651200 0.006500
vt 0.457500 0.615200
vt 0.457100 0.615200
vt 0.457500 0.615200
vt 0.457100 0.615200
vt 0.457700 0.615200
vt 0.457000 0.615200
vt 0.457700 0.615200
vt 0.457000 0.615200
vt 0.457100 0.615200
vt 0.457500 0.615200
vt 0.457100 0.615200
vt 0.457500 0.615200
vt 0.457700 0.615200
vt 0.457000 0.615200
vt 0.457700 0.615200
vt 0.457000 0.615200
vt 0.457200 0.615300
vt 0.456600 0.615300
vt 0.457200 0.615200
vt 0.456600 0.615200
vt 0.457200 0.615300
vt 0.456800 0.615300
vt 0.457200 0.615200
vt 0.456800 0.615200
vt 0.457500 0.615000
vt 0.457500 0.615000
vt 0.457500 0.615000
vt 0.456900 0.615000
vt 0.456900 0.615000
vt 0.456900 0.615000
vt 0.456900 0.615400
vt 0.456900 0.615400
vt 0.456900 0.615400
vt 0.457500 0.615400
vt 0.457500 0.615400
vt 0.457500 0.615400
vt 0.457500 0.615200
vt 0.457100 0.615200
vt 0.457500 0.615200
vt 0.457100 0.615200
vt 0.457000 0.615200
vt 0.457700 0.615200
vt 0.457000 0.615200
vt 0.457700 0.615200
vt 0.457100 0.615200
vt 0.457500 0.615200
vt 0.457100 0.615200
vt 0.457500 0.615200
vt 0.457000 0.615200
vt 0.457700 0.615200
vt 0.457000 0.615200
vt 0.457700 0.615200
vt 0.457200 0.615300
vt 0.456600 0.615300
vt 0.457200 0.615200
vt 0.456600 0.615200
vt 0.457500 0.615000
vt 0.457500 0.615400
vt 0.457500 0.615400
vt 0.457500 0.615400
vt 0.456900 0.615400
vt 0.456900 0.615400
vt 0.456900 0.615400
vt 0.456900 0.615000
vt 0.456900 0.615000
vt 0.456900 0.615000
vt 0.457500 0.615000
vt 0.457500 0.615000
vt 0.455800 0.407494
vt 0.455800 0.407400
vt 0.455800 0.407494
vt 0.455800 0.407500
vt 0.455400 0.407500
vt 0.455800 0.407400
vt 0.455800 0.407494
vt 0.455800 0.407400
vt 0.455800 0.407494
vt 0.455800 0.407400
vt 0.455800 0.407400
vt 0.455800 0.407494
vt 0.455400 0.407500
vt 0.455800 0.407500
vt 0.455400 0.407500
vt 0.455800 0.407494
vt 0.455800 0.407500
vt 0.455100 0.407500
vt 0.455100 0.407500
vt 0.455800 0.407400
vt 0.455800 0.407400
vt 0.455800 0.407494
vt 0.455800 0.407500
vt 0.455800 0.407500
vt 0.455800 0.407500
vt 0.455800 0.407500
vt 0.455100 0.407500
vt 0.455100 0.407500
vt 0.455800 0.407500
vt 0.455800 0.407500
vt 0.455800 0.407500
vt 0.455800 0.407500
vt 0.455800 0.407500
vt 0.455800 0.407500
vt 0.455400 0.407500
vt 0.455800 0.407500
vt 0.455800 0.407500
vt 0.455800 0.407500
vt 0.455800 0.407500
vt 0.455400 0.407500
vt 0.455800 0.407500
vt 0.455400 0.407500
vt 0.455100 0.407500
vt 0.455100 0.407500
vt 0.455800 0.407500
vt 0.455800 0.407500
vt 0.457200 0.615300
vt 0.456800 0.615300
vt 0.457200 0.615200
vt 0.456800 0.615200
vt 0.455400 0.407500
vt 0.455100 0.407500
vt 0.455800 0.407500
vt 0.455800 0.407400
vt 0.455400 0.407500
vt 0.455800 0.407500
vt 0.455800 0.407500
vt 0.455800 0.407500
vt 0.455800 0.407500
vt 0.455800 0.407500
vt 0.455800 0.407500
vt 0.456400 0.407500
vt 0.455600 0.407500
vt 0.456400 0.407500
vt 0.455600 0.407500
vt 0.455800 0.407500
vt 0.455800 0.407500
vt 0.455800 0.407500
vt 0.455800 0.407400
vt 0.455800 0.407400
vt 0.455800 0.407500
vt 0.455800 0.407500
vt 0.455800 0.407500
vt 0.455800 0.407500
vt 0.455800 0.407500
vt 0.455800 0.407500
vt 0.455800 0.407400
vt 0.455800 0.407400
vt 0.455800 0.407500
vt 0.455800 0.407500
vt 0.455800 0.407500
vt 0.455800 0.407400
vt 0.455800 0.407400
vt 0.456400 0.407500
vt 0.455600 0.407500
vt 0.456400 0.407500
vt 0.455600 0.407500
vt 0.455600 0.407500
vt 0.456300 0.407500
vt 0.455600 0.407500
vt 0.456300 0.407500
vt 0.455600 0.407500
vt 0.455600 0.407500
vt 0.456400 0.407500
vt 0.456400 0.407500
vt 0.456300 0.407500
vt 0.455600 0.407500
vt 0.456300 0.407500
vt 0.455600 0.407500
vt 0.456300 0.407500
vt 0.456300 0.407500
vt 0.455600 0.407500
vt 0.455600 0.407500
vt 0.455600 0.407500
vt 0.456400 0.407500
vt 0.455600 0.407500
vt 0.456400 0.407500
vt 0.455600 0.407500
vt 0.456300 0.407500
vt 0.455600 0.407500
vt 0.456300 0.407500
vt 0.455800 0.407400
vt 0.456400 0.407400
vt 0.455800 0.407500
vt 0.456400 0.407500
vt 0.455800 0.407500
vt 0.456100 0.407700
vt 0.455800 0.407500
vt 0.455700 0.407500
vt 0.455700 0.407500
vt 0.455800 0.407500
vt 0.455800 0.407500
vt 0.455700 0.407500
vt 0.455800 0.407500
vt 0.455800 0.407500
vt 0.455800 0.407500
vt 0.455800 0.407500
vt 0.456400 0.407500
vt 0.456400 0.407400
vt 0.456600 0.407400
vt 0.456600 0.407500
vt 0.651100 0.006400
vt 0.651200 0.006400
vt 0.651100 0.006400
vt 0.455490 0.407300
vt 0.455490 0.407700
vt 0.455800 0.407500
vt 0.455800 0.407500
vt 0.455700 0.407500
vt 0.455100 0.407500
vt 0.456600 0.407400
vt 0.456600 0.407500
vn -0.0000 -1.0000 -0.0000
vn -1.0000 0.0000 0.0000
vn 0.0000 0.0000 1.0000
vn 0.0000 0.0000 -1.0000
vn -0.7071 0.0000 0.7071
vn -0.7071 0.0000 -0.7071
vn 0.7071 0.0000 0.7071
vn 1.0000 0.0000 0.0000
vn 0.0000 1.0000 0.0000
vn 0.7071 0.0000 -0.7071
vn -0.0015 -0.0022 1.0000
vn -0.0009 -0.0004 1.0000
vn -0.0014 -0.0018 1.0000
vn -0.0008 0.0000 1.0000
vn 0.0000 -0.7071 -0.7071
vn -0.7071 -0.7071 -0.0000
vn 0.0000 -0.7071 0.7071
vn 0.7071 -0.7071 -0.0000
vn 0.0000 0.7071 -0.7071
vn -0.7071 0.7071 0.0000
vn 0.0000 0.7071 0.7071
vn 0.7071 0.7071 0.0000
vn -0.5773 -0.5774 0.5773
vn 0.5773 -0.5774 0.5773
vn -0.5773 0.5774 0.5773
vn -0.5773 -0.5774 -0.5773
vn 0.5773 0.5774 0.5773
vn -0.5773 0.5774 -0.5773
vn 0.5000 -0.7071 -0.5000
vn -0.5000 -0.7071 0.5000
vn 0.5000 -0.7071 0.5000
vn -0.5000 -0.7071 -0.5000
vn 0.5000 0.7071 0.5000
vn -0.5000 0.7071 -0.5000
vn -0.4618 0.8870 0.0014
vn -0.0025 0.8817 0.4719
vn 0.3560 0.8637 -0.3568
vn -0.5000 0.7071 0.5000
vn -0.5788 0.5740 -0.5792
vn -0.5788 0.5740 0.5792
vn 0.5000 0.7071 -0.5000
vn -0.5788 -0.5740 0.5792
vn -0.5788 -0.5740 -0.5792
vn 0.0000 -0.7619 0.6477
vn 0.0000 -0.7619 -0.6477
vn 0.0000 0.7619 -0.6477
vn 0.0000 0.7619 0.6477
usemtl 191,191,191.018
s 1
f 82/1/1 149/2/1 79/3/1
f 81/4/2 83/5/2 2/6/2
f 82/1/1 80/7/1 63/8/1
f 63/8/1 59/9/1 82/1/1
f 63/8/1 80/7/1 79/3/1
f 78/10/3 81/4/3 1/11/3
f 3/12/1 1/13/1 2/14/1
f 88/15/1 56/16/1 85/17/1
f 87/18/4 89/19/4 5/20/4
f 86/21/1 148/22/1 158/23/1
f 9/24/4 90/25/4 7/26/4
f 85/17/1 148/22/1 86/21/1
f 84/27/5 87/18/5 4/28/5
f 6/29/1 4/30/1 5/31/1
f 94/32/1 59/9/1 91/33/1
f 93/34/2 95/35/2 8/36/2
f 92/37/1 153/38/1 149/2/1
f 12/39/6 96/40/6 10/41/6
f 91/33/1 158/23/1 155/42/1
f 90/43/7 93/34/7 7/44/7
f 9/45/1 7/46/1 8/47/1
f 100/48/1 146/49/1 97/50/1
f 99/51/3 101/52/3 11/53/3
f 67/54/1 100/48/1 98/55/1
f 100/48/1 143/56/1 146/49/1
f 97/50/1 67/54/1 98/55/1
f 96/40/8 99/51/8 10/41/8
f 12/57/1 10/58/1 11/59/1
f 106/60/9 70/61/9 103/62/9
f 105/63/4 107/64/4 14/65/4
f 104/66/9 127/67/9 130/68/9
f 18/69/8 108/70/8 16/71/8
f 103/62/9 127/67/9 104/66/9
f 102/72/7 105/63/7 13/73/7
f 15/74/9 13/75/9 14/76/9
f 112/77/9 73/78/9 109/79/9
f 111/80/3 113/81/3 17/82/3
f 119/83/9 73/78/9 110/84/9
f 20/85/10 114/86/10 19/87/10
f 109/79/9 73/78/9 64/88/9
f 108/89/6 111/80/6 16/90/6
f 18/91/9 16/92/9 17/93/9
f 119/83/9 131/94/9 115/95/9
f 117/96/11 120/97/12 118/98/13
f 116/99/9 77/100/9 119/83/9
f 119/83/9 77/100/9 73/78/9
f 115/95/9 77/100/9 116/99/9
f 114/86/2 117/96/2 19/87/2
f 118/98/13 120/97/12 20/101/14
f 125/102/9 64/88/9 122/103/9
f 124/104/5 126/105/5 22/106/5
f 135/107/9 138/108/9 123/109/9
f 125/102/9 138/108/9 140/110/9
f 122/103/9 64/88/9 123/109/9
f 121/111/4 124/112/4 21/113/4
f 23/114/9 21/115/9 22/116/9
f 24/117/15 25/118/15 26/119/15
f 26/119/15 25/118/15 27/120/15
f 25/121/16 28/122/16 27/123/16
f 27/123/16 28/122/16 29/124/16
f 30/125/17 29/126/17 31/127/17
f 31/127/17 29/126/17 28/128/17
f 31/129/18 24/130/18 30/131/18
f 30/131/18 24/130/18 26/132/18
f 28/133/2 25/134/2 32/135/2
f 32/135/2 25/134/2 33/136/2
f 25/137/4 24/138/4 33/139/4
f 33/139/4 24/138/4 34/140/4
f 35/141/1 30/142/1 36/143/1
f 36/143/1 30/142/1 26/144/1
f 36/143/1 26/144/1 37/145/1
f 37/145/1 26/144/1 38/146/1
f 38/146/1 26/144/1 39/147/1
f 39/147/1 26/144/1 27/148/1
f 39/147/1 27/148/1 40/149/1
f 40/149/1 27/148/1 29/150/1
f 40/149/1 29/150/1 41/151/1
f 41/151/1 29/150/1 42/152/1
f 42/152/1 29/150/1 35/141/1
f 35/141/1 29/150/1 30/142/1
f 43/153/19 44/154/19 34/155/19
f 34/155/19 44/154/19 33/156/19
f 32/157/20 33/158/20 45/159/20
f 45/159/20 33/158/20 44/160/20
f 46/161/21 32/162/21 47/163/21
f 47/163/21 32/162/21 45/164/21
f 34/165/22 46/166/22 43/167/22
f 43/167/22 46/166/22 47/168/22
f 24/169/8 31/170/8 34/171/8
f 34/171/8 31/170/8 46/172/8
f 48/173/9 49/174/9 44/175/9
f 44/175/9 49/174/9 50/176/9
f 44/175/9 50/176/9 51/177/9
f 44/175/9 51/177/9 45/178/9
f 45/178/9 51/177/9 52/179/9
f 45/178/9 52/179/9 47/180/9
f 47/180/9 52/179/9 53/181/9
f 47/180/9 53/181/9 54/182/9
f 54/182/9 55/183/9 47/180/9
f 47/180/9 55/183/9 43/184/9
f 43/184/9 55/183/9 48/173/9
f 43/184/9 48/173/9 44/175/9
f 128/185/6 49/186/6 129/187/6
f 49/188/4 48/189/4 129/187/4
f 50/190/6 49/186/6 128/185/6
f 134/191/5 51/192/5 132/193/5
f 48/194/10 55/195/10 136/196/10
f 134/197/3 141/198/3 52/199/3
f 136/196/10 55/195/10 137/200/10
f 55/201/8 54/202/8 137/200/8
f 137/200/8 54/202/8 139/203/8
f 54/204/7 53/205/7 139/206/7
f 139/206/7 53/205/7 141/198/7
f 52/199/3 141/198/3 53/207/3
f 144/208/7 36/209/7 145/210/7
f 36/209/8 37/211/8 145/210/8
f 145/210/8 37/211/8 147/212/8
f 37/213/10 38/214/10 147/215/10
f 150/216/5 42/217/5 151/218/5
f 35/219/3 151/218/3 42/217/3
f 41/220/5 42/217/5 150/216/5
f 156/221/6 40/222/6 154/223/6
f 39/224/4 157/225/4 38/214/4
f 156/226/4 157/225/4 39/224/4
f 147/215/10 38/214/10 157/225/10
f 150/227/2 154/223/2 41/228/2
f 35/229/7 36/209/7 144/208/7
f 41/228/2 154/223/2 40/222/2
f 39/230/6 40/222/6 156/221/6
f 31/231/3 28/232/3 46/233/3
f 46/233/3 28/232/3 32/234/3
f 129/187/4 48/189/4 136/235/4
f 50/236/2 132/193/2 51/237/2
f 52/238/5 51/192/5 134/191/5
f 144/239/3 151/218/3 35/219/3
f 56/240/23 57/241/23 58/242/23
f 59/243/24 60/244/24 61/245/24
f 62/246/18 60/247/18 63/248/18
f 63/248/18 60/247/18 59/249/18
f 64/250/25 65/251/25 66/252/25
f 58/253/5 57/254/5 65/251/5
f 65/251/5 57/254/5 66/252/5
f 67/255/26 68/256/26 69/257/26
f 70/258/27 71/259/27 72/260/27
f 72/260/7 71/259/7 60/261/7
f 60/261/7 71/259/7 61/262/7
f 73/263/28 74/264/28 75/265/28
f 75/265/6 74/264/6 68/266/6
f 68/266/6 74/264/6 69/267/6
f 64/268/20 73/269/20 65/270/20
f 65/270/20 73/269/20 75/271/20
f 76/272/19 74/273/19 77/274/19
f 77/274/19 74/273/19 73/275/19
f 70/276/22 72/277/22 77/278/22
f 77/278/22 72/277/22 76/279/22
f 70/280/21 64/281/21 71/282/21
f 71/282/21 64/281/21 66/283/21
f 67/284/15 69/285/15 63/286/15
f 63/286/15 69/285/15 62/287/15
f 67/288/16 56/289/16 68/290/16
f 68/290/16 56/289/16 58/291/16
f 56/292/17 59/293/17 57/294/17
f 57/294/17 59/293/17 61/295/17
f 62/296/4 69/297/4 76/298/4
f 76/298/4 69/297/4 74/299/4
f 2/6/2 83/5/2 3/300/2
f 63/8/1 79/3/1 67/54/1
f 67/54/1 79/3/1 100/48/1
f 79/3/1 149/2/1 152/301/1
f 11/53/3 101/52/3 12/302/3
f 83/303/10 78/10/10 3/304/10
f 79/3/1 152/301/1 143/56/1
f 79/3/1 143/56/1 100/48/1
f 85/17/1 56/16/1 67/54/1
f 86/21/1 158/23/1 91/33/1
f 91/33/1 56/16/1 86/21/1
f 91/33/1 155/42/1 153/38/1
f 91/33/1 153/38/1 92/37/1
f 89/19/8 84/305/8 6/306/8
f 85/17/1 67/54/1 97/50/1
f 97/50/1 148/22/1 85/17/1
f 97/50/1 146/49/1 148/22/1
f 5/20/4 89/19/4 6/306/4
f 91/33/1 59/9/1 56/16/1
f 59/9/1 94/32/1 92/37/1
f 82/1/1 59/9/1 92/37/1
f 95/35/4 90/25/4 9/24/4
f 7/44/7 93/34/7 8/36/7
f 56/16/1 88/15/1 86/21/1
f 8/36/2 95/35/2 9/24/2
f 101/307/6 96/40/6 12/39/6
f 10/41/8 99/51/8 11/53/8
f 4/28/5 87/18/5 5/20/5
f 1/11/3 81/4/3 2/6/3
f 15/308/2 102/309/2 13/310/2
f 92/37/1 149/2/1 82/1/1
f 6/306/8 84/305/8 4/311/8
f 71/312/3 66/252/3 61/313/3
f 61/313/3 66/252/3 57/254/3
f 68/266/2 58/314/2 75/265/2
f 75/265/2 58/314/2 65/315/2
f 103/62/9 70/61/9 77/100/9
f 104/66/9 130/68/9 135/107/9
f 123/109/9 104/66/9 135/107/9
f 107/64/2 102/309/2 15/308/2
f 103/62/9 77/100/9 115/95/9
f 115/95/9 127/67/9 103/62/9
f 115/95/9 131/94/9 127/67/9
f 20/316/9 19/317/9 118/318/9
f 119/83/9 142/319/9 133/320/9
f 110/84/9 73/78/9 112/77/9
f 110/84/9 140/110/9 142/319/9
f 113/81/8 108/70/8 18/69/8
f 109/79/9 64/88/9 125/102/9
f 125/102/9 140/110/9 109/79/9
f 126/105/8 121/111/8 23/321/8
f 21/113/4 124/112/4 22/322/4
f 64/88/9 70/61/9 104/66/9
f 123/109/9 64/88/9 104/66/9
f 14/65/4 107/64/4 15/308/4
f 16/90/6 111/80/6 17/82/6
f 110/84/9 142/319/9 119/83/9
f 17/82/3 113/81/3 18/69/3
f 119/83/9 133/320/9 131/94/9
f 23/321/8 121/111/8 21/113/8
f 120/323/10 114/86/10 20/85/10
f 19/87/2 117/96/2 118/98/2
f 13/73/7 105/63/7 14/65/7
f 22/106/5 126/105/5 23/321/5
f 128/324/2 132/193/2 50/236/2
f 109/79/9 140/110/9 110/84/9
f 123/109/9 138/108/9 125/102/9
f 70/61/9 106/60/9 104/66/9
f 60/261/8 62/325/8 72/260/8
f 72/260/8 62/325/8 76/326/8
f 79/3/17 80/7/17 81/4/17 78/10/17
f 80/7/16 82/1/16 83/5/16 81/4/16
f 78/10/29 83/303/29 82/1/29 79/3/29
f 85/17/30 86/21/30 87/18/30 84/27/30
f 86/21/15 88/15/15 89/19/15 87/18/15
f 84/305/18 89/19/18 88/15/18 85/17/18
f 91/33/31 92/37/31 93/34/31 90/43/31
f 92/37/16 94/32/16 95/35/16 93/34/16
f 90/25/15 95/35/15 94/32/15 91/33/15
f 97/50/18 98/55/18 99/51/18 96/40/18
f 98/55/17 100/48/17 101/52/17 99/51/17
f 96/40/32 101/307/32 100/48/32 97/50/32
f 103/62/33 104/66/33 105/63/33 102/72/33
f 104/66/19 106/60/19 107/64/19 105/63/19
f 102/309/20 107/64/20 106/60/20 103/62/20
f 109/79/34 110/84/34 111/80/34 108/89/34
f 110/84/21 112/77/21 113/81/21 111/80/21
f 108/70/22 113/81/22 112/77/22 109/79/22
f 115/95/35 116/99/35 117/96/35 114/86/35
f 116/99/36 119/83/36 120/97/36 117/96/36
f 114/86/37 120/323/37 119/83/37 115/95/37
f 122/103/19 123/109/19 124/112/19 121/111/19
f 123/109/38 125/102/38 126/105/38 124/104/38
f 121/111/22 126/105/22 125/102/22 122/103/22
f 128/185/39 129/187/39 130/68/39 127/67/39
f 127/67/20 131/94/20 132/193/20 128/324/20
f 131/94/40 133/320/40 134/191/40 132/193/40
f 136/196/41 137/200/41 138/108/41 135/107/41
f 137/200/22 139/203/22 140/110/22 138/108/22
f 139/206/33 141/198/33 142/319/33 140/110/33
f 144/208/31 145/210/31 146/49/31 143/56/31
f 145/210/18 147/212/18 148/22/18 146/49/18
f 150/216/42 151/218/42 152/301/42 149/2/42
f 149/2/16 153/38/16 154/223/16 150/227/16
f 153/38/43 155/42/43 156/221/43 154/223/43
f 147/215/29 157/225/29 158/23/29 148/22/29
f 143/56/44 152/301/44 151/218/44 144/239/44
f 155/42/45 158/23/45 157/225/45 156/226/45
f 129/187/46 136/235/46 135/107/46 130/68/46
f 133/320/47 142/319/47 141/198/47 134/197/47
f 3/304/10 78/10/10 1/11/10
