# Blender v2.79 (sub 0) OBJ File: ''
# www.blender.org
o Cube.003_Cube.010
v -0.790074 -0.279852 -1.425079
v -0.790074 0.279852 -1.425079
v -0.790074 -0.279852 -1.963435
v -0.790074 0.279852 -1.963435
v 0.790074 -0.279852 -1.425079
v 0.790074 0.279852 -1.425079
v 0.790074 -0.279852 -1.963435
v 0.790074 0.279852 -1.963435
v 0.573576 -0.467470 -1.963435
v -0.573576 -0.467470 -1.963435
v -0.573576 0.467470 -1.963435
v 0.573576 0.467470 -1.963435
v -0.573576 -0.467470 -1.425079
v 0.573576 -0.467470 -1.425079
v 0.573576 0.467470 -1.425079
v -0.573576 0.467470 -1.425079
v 0.269163 -0.585189 -1.963435
v -0.269164 -0.585189 -1.963435
v -0.269163 0.585189 -1.963435
v 0.269164 0.585189 -1.963435
v -0.269163 -0.585189 -1.425079
v 0.269164 -0.585189 -1.425079
v 0.269163 0.585189 -1.425079
v -0.269164 0.585189 -1.425079
vn -1.0000 0.0000 0.0000
vn 0.0000 0.0000 -1.0000
vn 1.0000 0.0000 0.0000
vn -0.0000 0.0000 1.0000
vn 0.6549 -0.7557 -0.0000
vn -0.6549 0.7557 -0.0000
vn 0.6549 0.7557 0.0000
vn -0.3607 0.9327 -0.0000
vn -0.6549 -0.7557 0.0000
vn 0.3607 -0.9327 -0.0000
vn -0.3607 -0.9327 0.0000
vn 0.0000 -1.0000 -0.0000
vn 0.3607 0.9327 0.0000
vn 0.0000 1.0000 -0.0000
s off
f 2//1 3//1 1//1
f 9//2 8//2 7//2
f 8//3 5//3 7//3
f 13//4 2//4 1//4
f 7//5 14//5 9//5
f 4//6 16//6 11//6
f 12//7 6//7 8//7
f 11//8 24//8 19//8
f 10//9 1//9 3//9
f 9//10 22//10 17//10
f 5//4 15//4 14//4
f 24//4 13//4 21//4
f 3//2 11//2 10//2
f 20//2 9//2 17//2
f 11//2 18//2 10//2
f 19//2 17//2 18//2
f 15//4 22//4 14//4
f 23//4 21//4 22//4
f 18//11 13//11 10//11
f 17//12 21//12 18//12
f 20//13 15//13 12//13
f 19//14 23//14 20//14
f 2//1 4//1 3//1
f 9//2 12//2 8//2
f 8//3 6//3 5//3
f 13//4 16//4 2//4
f 7//5 5//5 14//5
f 4//6 2//6 16//6
f 12//7 15//7 6//7
f 11//8 16//8 24//8
f 10//9 13//9 1//9
f 9//10 14//10 22//10
f 5//4 6//4 15//4
f 24//4 16//4 13//4
f 3//2 4//2 11//2
f 20//2 12//2 9//2
f 11//2 19//2 18//2
f 19//2 20//2 17//2
f 15//4 23//4 22//4
f 23//4 24//4 21//4
f 18//11 21//11 13//11
f 17//12 22//12 21//12
f 20//13 23//13 15//13
f 19//14 24//14 23//14
