# Blender v2.79 (sub 0) OBJ File: ''
# www.blender.org
o m_GSO_Wing_Tail_122_Flap.002
v 0.040842 0.031304 -0.064238
v 0.028813 -0.001388 -0.353291
v 0.009548 -0.029715 -0.793214
v 0.000000 0.453246 -0.172039
v 0.000000 0.038169 -0.014440
v -0.040842 0.031304 -0.064238
v -0.015753 0.453246 -0.221837
v 0.000000 -0.030474 -1.009676
v 0.000000 0.453244 -1.009676
v 0.000000 -0.030474 -1.009676
v 0.000000 0.453244 -1.009676
v -0.011337 0.453245 -0.353291
v -0.028813 -0.001388 -0.353291
v -0.003677 0.453244 -0.793214
v -0.009548 -0.029715 -0.793214
v 0.000000 -0.030474 -1.009676
v 0.000000 0.038169 -0.014440
v -0.040842 0.031304 -0.064238
v 0.000000 -0.030474 -1.009676
v -0.028813 -0.001388 -0.353291
v -0.009548 -0.029715 -0.793214
v 0.000000 0.031304 -0.064238
v 0.000000 -0.030474 -1.009676
v 0.000000 -0.001388 -0.353291
v 0.000000 -0.029715 -0.793214
v 0.040842 0.031304 -0.064238
v 0.015753 0.453246 -0.221837
v 0.011337 0.453245 -0.353291
v 0.028813 -0.001388 -0.353291
v 0.003677 0.453244 -0.793214
v 0.009548 -0.029715 -0.793214
v 0.000000 0.453246 -0.172039
v 0.000000 0.038169 -0.014440
v 0.000000 -0.030474 -1.009676
v 0.000000 0.453244 -1.009676
vt 0.785548 0.799571
vt 0.784919 0.824344
vt 0.785012 0.799569
vt 0.786538 0.824350
vt 0.784858 0.840692
vt 0.787153 0.840700
vt 0.784850 0.843517
vt 0.785062 0.787408
vt 0.154992 0.889318
vt 0.217578 0.882240
vt 0.183454 0.790881
vt 0.059740 0.790881
vt 0.059740 0.895452
vt 0.228360 0.880753
vt 0.194237 0.790881
vt 0.012871 0.790881
vt 0.012871 0.895616
vt 0.785548 0.799571
vt 0.786538 0.824350
vt 0.784850 0.787407
vt 0.787153 0.840700
vt 0.154992 0.790881
vt 0.154992 0.889318
vt 0.183454 0.790881
vt 0.217578 0.882240
vt 0.059740 0.790881
vt 0.059740 0.895452
vt 0.194237 0.790881
vt 0.228360 0.880753
vt 0.012871 0.790881
vt 0.012871 0.895616
vt 0.154992 0.790881
vn 0.0000 -0.9994 0.0347
vn 0.0000 -0.9961 0.0883
vn 0.0000 -0.9994 0.0339
vn 0.0000 -0.9960 0.0890
vn 0.0000 -0.9922 0.1245
vn 0.0000 -0.9926 0.1213
vn 0.0000 -0.9906 0.1366
vn 0.0000 -1.0000 0.0035
vn -0.9988 0.0325 -0.0375
vn -0.9326 0.1538 0.3264
vn -0.9913 0.0911 0.0954
vn -0.9995 0.0189 -0.0238
vn -0.9991 0.0076 -0.0406
vn -0.7681 0.2273 0.5986
vn -0.9310 0.1723 0.3217
vn -0.9997 0.0089 -0.0243
vn -0.9990 0.0000 -0.0441
vn 0.0000 0.0000 0.0000
vn -0.9989 0.0384 -0.0255
vn 0.9988 0.0325 -0.0375
vn 0.9913 0.0911 0.0954
vn 0.9326 0.1538 0.3264
vn 0.9995 0.0189 -0.0238
vn 0.9991 0.0076 -0.0406
vn 0.9310 0.1723 0.3217
vn 0.7681 0.2273 0.5986
vn 0.9997 0.0089 -0.0243
vn 0.9990 0.0000 -0.0441
vn 0.9989 0.0384 -0.0255
s 1
f 3/1/1 24/2/2 25/3/3
f 2/4/4 22/5/5 24/2/2
f 1/6/6 17/7/7 22/5/5
f 3/1/1 2/4/4 24/2/2
f 2/4/4 1/6/6 22/5/5
f 19/8/8 3/1/1 25/3/3
f 13/9/9 6/10/10 7/11/11
f 14/12/12 15/13/13 13/9/9
f 6/10/10 5/14/14 4/15/15
f 9/16/16 8/17/17 15/13/13
f 21/18/1 25/3/3 24/2/2
f 20/19/4 24/2/2 22/5/5
f 19/8/18 23/20/18 25/3/18
f 18/21/6 22/5/5 17/7/7
f 13/9/9 7/11/11 12/22/19
f 14/12/12 13/9/9 12/22/19
f 6/10/10 4/15/15 7/11/11
f 9/16/16 15/13/13 14/12/12
f 21/18/1 24/2/2 20/19/4
f 20/19/4 22/5/5 18/21/6
f 19/8/8 25/3/3 21/18/1
f 29/23/20 27/24/21 26/25/22
f 30/26/23 29/23/20 31/27/24
f 26/25/22 32/28/25 33/29/26
f 35/30/27 31/27/24 34/31/28
f 29/23/20 28/32/29 27/24/21
f 30/26/23 28/32/29 29/23/20
f 26/25/22 27/24/21 32/28/25
f 35/30/27 30/26/23 31/27/24
l 10 11
l 16 10
o m_GSO_Wing_Left_312.001_m_GSO_Wing_Left_312.004
v 0.132023 0.500000 -0.132023
v -0.132022 0.500000 -0.132023
v 0.000001 0.600000 -0.000000
v 0.132023 0.500000 0.132023
v 0.000001 0.600000 -0.000000
v -0.132022 0.500000 0.132023
v 0.000001 0.600000 -0.000000
v -0.132022 0.500000 -0.132023
v -0.132022 0.500000 0.132023
v 0.132023 0.500000 0.132023
v 0.132023 0.500000 -0.132023
v 0.000001 0.600000 -0.000000
v 0.132023 0.500000 -1.132023
v -0.132022 0.500000 -1.132023
v 0.000001 0.600000 -1.000000
v 0.132023 0.500000 -0.867977
v 0.000001 0.600000 -1.000000
v -0.132022 0.500000 -0.867977
v 0.000001 0.600000 -1.000000
v -0.132022 0.500000 -1.132023
v -0.132022 0.500000 -0.867977
v 0.132023 0.500000 -0.867977
v 0.132023 0.500000 -1.132023
v 0.000001 0.600000 -1.000000
v -0.186838 0.432367 0.229632
v -0.202552 0.398692 0.220427
v -0.186838 0.384758 0.220427
v -0.209061 0.432403 0.220427
v -0.202552 0.466185 0.220427
v -0.186838 0.480119 0.220427
v 0.179633 0.480118 0.220428
v 0.179633 0.432600 0.229633
v 0.195347 0.466185 0.220428
v 0.201856 0.432408 0.220428
v 0.195347 0.398692 0.220428
v 0.179633 0.384758 0.220428
v -0.209061 0.384758 0.198204
v -0.186838 0.365052 0.198204
v -0.218266 0.432383 0.198204
v -0.209061 0.480119 0.198204
v -0.186838 0.499824 0.198204
v 0.179633 0.499824 0.198204
v 0.201856 0.480118 0.198204
v 0.211061 0.432492 0.198204
v 0.201856 0.384758 0.198204
v 0.179633 0.365052 0.198204
v -0.209061 0.384758 0.198204
v -0.186837 0.365052 -1.196624
v -0.209060 0.384757 -1.196624
v -0.218265 0.432424 -1.196624
v -0.218266 0.432383 0.198204
v -0.209061 0.480119 0.198204
v -0.209060 0.480118 -1.196624
v -0.186837 0.499824 -1.196624
v -0.186838 0.499824 0.198204
v -0.132022 0.500000 -0.867977
v -0.132022 0.500000 -0.132023
v -0.132022 0.500000 0.132023
v -0.132022 0.500000 -1.132023
v 0.132023 0.500000 -0.867977
v 0.132023 0.500000 -0.132023
v 0.179633 0.499824 0.198204
v 0.132023 0.500000 0.132023
v 0.179634 0.499823 -1.196624
v 0.201857 0.480118 -1.196624
v 0.201856 0.480118 0.198204
v 0.211062 0.432371 -1.196624
v 0.211061 0.432492 0.198204
v 0.201857 0.384757 -1.196624
v 0.201856 0.384758 0.198204
v 0.179634 0.365051 -1.196624
v 0.179633 0.365052 0.198204
v -0.186837 0.365052 -1.196624
v -0.186838 0.365052 0.198204
v 0.132023 0.500000 -1.132023
v -0.202551 0.398691 -1.218847
v -0.209060 0.384757 -1.196624
v -0.186837 0.384757 -1.218847
v -0.209060 0.432418 -1.218847
v -0.218265 0.432424 -1.196624
v -0.202551 0.466184 -1.218847
v -0.209060 0.480118 -1.196624
v -0.186837 0.480118 -1.218847
v -0.186837 0.499824 -1.196624
v 0.179634 0.480118 -1.218847
v 0.179634 0.499823 -1.196624
v 0.195348 0.466184 -1.218847
v 0.201857 0.480118 -1.196624
v 0.201857 0.432397 -1.218847
v 0.211062 0.432371 -1.196624
v 0.195348 0.398691 -1.218847
v 0.201857 0.384757 -1.196624
v 0.179634 0.384757 -1.218847
v 0.179634 0.365051 -1.196624
v -0.186837 0.432438 -1.228052
v 0.179634 0.432366 -1.228052
vt 0.317600 0.919814
vt 0.317600 0.851966
vt 0.283677 0.885895
vt 0.249756 0.919814
vt 0.283677 0.885895
vt 0.249756 0.851966
vt 0.283677 0.885895
vt 0.317600 0.851966
vt 0.249756 0.851966
vt 0.249756 0.919814
vt 0.317600 0.919814
vt 0.283677 0.885895
vt 0.317600 0.919814
vt 0.317600 0.851966
vt 0.283677 0.885895
vt 0.249756 0.919814
vt 0.283677 0.885895
vt 0.249756 0.851966
vt 0.283677 0.885895
vt 0.317600 0.851966
vt 0.249756 0.851966
vt 0.249756 0.919814
vt 0.317600 0.919814
vt 0.283677 0.885895
vt 0.549407 0.881493
vt 0.518414 0.876963
vt 0.505617 0.881493
vt 0.549426 0.875086
vt 0.580400 0.876963
vt 0.593197 0.881493
vt 0.593197 0.987148
vt 0.549407 0.987148
vt 0.580400 0.991678
vt 0.549387 0.993555
vt 0.518414 0.991678
vt 0.505616 0.987148
vt 0.505616 0.875086
vt 0.487519 0.878473
vt 0.549374 0.872432
vt 0.593197 0.875086
vt 0.611295 0.881493
vt 0.611295 0.987148
vt 0.593197 0.993555
vt 0.549440 0.996208
vt 0.505616 0.993555
vt 0.487519 0.987148
vt 0.487519 0.875264
vt 0.611295 0.879228
vt 0.611295 0.875264
vt 0.611295 0.878102
vt 0.487519 0.878102
vt 0.487519 0.880940
vt 0.611295 0.880940
vt 0.611295 0.883772
vt 0.487519 0.883772
vt 0.575040 0.890411
vt 0.523774 0.890411
vt 0.492522 0.890411
vt 0.606291 0.890411
vt 0.575040 0.920281
vt 0.523774 0.920281
vt 0.487519 0.926920
vt 0.492522 0.920281
vt 0.611295 0.926920
vt 0.611295 0.929752
vt 0.487519 0.929752
vt 0.611295 0.932590
vt 0.487519 0.932590
vt 0.611295 0.935428
vt 0.487519 0.935428
vt 0.611295 0.938260
vt 0.487519 0.938260
vt 0.611295 0.996208
vt 0.487519 0.996208
vt 0.606291 0.920281
vt 0.580400 0.876962
vt 0.593197 0.875086
vt 0.593197 0.881493
vt 0.549407 0.875086
vt 0.549407 0.872432
vt 0.518414 0.876962
vt 0.505616 0.875086
vt 0.505617 0.881493
vt 0.487519 0.881493
vt 0.505616 0.987148
vt 0.487519 0.987148
vt 0.518414 0.991678
vt 0.505616 0.993555
vt 0.549407 0.993555
vt 0.549407 0.996208
vt 0.580400 0.991678
vt 0.593197 0.993555
vt 0.593197 0.987148
vt 0.611295 0.987148
vt 0.549407 0.881493
vt 0.549407 0.987148
vn 0.0000 0.7971 -0.6038
vn -0.0000 0.7971 0.6038
vn -0.6038 0.7971 0.0000
vn 0.6038 0.7971 0.0000
vn -0.1616 -0.0003 0.9869
vn -0.5992 -0.3055 0.7400
vn -0.2284 -0.5239 0.8206
vn -0.7288 -0.0000 0.6847
vn -0.5992 0.3053 0.7401
vn -0.2284 0.5238 0.8207
vn 0.2284 0.5241 0.8205
vn 0.1616 0.0007 0.9869
vn 0.5994 0.3056 0.7399
vn 0.7288 -0.0005 0.6847
vn 0.5990 -0.3053 0.7403
vn 0.2283 -0.5237 0.8208
vn -0.8283 -0.5014 0.2501
vn -0.3203 -0.8915 0.3203
vn -0.9816 -0.0002 0.1907
vn -0.8284 0.5012 0.2501
vn -0.3206 0.8913 0.3207
vn 0.3207 0.8913 0.3207
vn 0.8283 0.5014 0.2501
vn 0.9817 0.0003 0.1907
vn 0.8284 -0.5013 0.2500
vn 0.3203 -0.8915 0.3203
vn -0.3203 -0.8915 -0.3203
vn -0.8283 -0.5014 -0.2501
vn -0.9816 -0.0001 -0.1907
vn -0.8283 0.5013 -0.2501
vn -0.3206 0.8913 -0.3206
vn -0.3207 0.8913 0.3207
vn -0.0021 1.0000 -0.0000
vn -0.0017 1.0000 0.0013
vn -0.0017 1.0000 -0.0013
vn 0.0025 1.0000 -0.0000
vn 0.3207 0.8912 0.3207
vn 0.0020 1.0000 0.0012
vn 0.3206 0.8913 -0.3207
vn 0.8284 0.5012 -0.2501
vn 0.9816 -0.0003 -0.1907
vn 0.8283 -0.5014 -0.2501
vn 0.8283 -0.5013 0.2501
vn 0.3203 -0.8915 -0.3203
vn 0.0020 1.0000 -0.0013
vn -0.5992 -0.3054 -0.7400
vn -0.2284 -0.5239 -0.8206
vn -0.7288 -0.0001 -0.6847
vn -0.5992 0.3054 -0.7400
vn -0.2284 0.5239 -0.8206
vn -0.3207 0.8913 -0.3207
vn 0.2283 0.5238 -0.8207
vn 0.3207 0.8913 -0.3207
vn 0.5992 0.3053 -0.7401
vn 0.7288 -0.0000 -0.6847
vn 0.5992 -0.3055 -0.7400
vn 0.2284 -0.5240 -0.8206
vn -0.1616 0.0000 -0.9869
vn 0.1616 -0.0003 -0.9869
s 1
f 36/33/30 37/34/30 38/35/30
f 39/36/31 40/37/31 41/38/31
f 42/39/32 43/40/32 44/41/32
f 45/42/33 46/43/33 47/44/33
f 48/45/30 49/46/30 50/47/30
f 51/48/31 52/49/31 53/50/31
f 54/51/32 55/52/32 56/53/32
f 57/54/33 58/55/33 59/56/33
f 60/57/34 61/58/35 62/59/36
f 60/57/34 63/60/37 61/58/35
f 60/57/34 64/61/38 63/60/37
f 60/57/34 65/62/39 64/61/38
f 60/57/34 66/63/40 65/62/39
f 66/63/40 60/57/34 67/64/41
f 62/59/36 67/64/41 60/57/34
f 67/64/41 68/65/42 66/63/40
f 67/64/41 69/66/43 68/65/42
f 67/64/41 70/67/44 69/66/43
f 67/64/41 71/68/45 70/67/44
f 67/64/41 62/59/36 71/68/45
f 72/69/46 62/59/36 61/58/35
f 62/59/36 72/69/46 73/70/47
f 73/70/47 71/68/45 62/59/36
f 74/71/48 61/58/35 63/60/37
f 61/58/35 74/71/48 72/69/46
f 75/72/49 63/60/37 64/61/38
f 63/60/37 75/72/49 74/71/48
f 76/73/50 64/61/38 65/62/39
f 64/61/38 76/73/50 75/72/49
f 65/62/39 77/74/51 76/73/50
f 77/74/51 65/62/39 66/63/40
f 78/75/52 66/63/40 68/65/42
f 66/63/40 78/75/52 77/74/51
f 79/76/53 68/65/42 69/66/43
f 68/65/42 79/76/53 78/75/52
f 80/77/54 69/66/43 70/67/44
f 69/66/43 80/77/54 79/76/53
f 81/78/55 70/67/44 71/68/45
f 70/67/44 81/78/55 80/77/54
f 71/68/45 73/70/47 81/78/55
f 82/79/46 83/80/56 73/70/47
f 83/80/56 82/79/46 84/81/57
f 82/79/46 85/82/58 84/81/57
f 85/82/58 82/79/46 86/83/48
f 87/84/49 85/82/58 86/83/48
f 85/82/58 87/84/49 88/85/59
f 87/84/49 89/86/60 88/85/59
f 89/86/60 87/84/49 90/87/61
f 91/88/62 89/86/60 90/87/61
f 91/88/62 90/87/61 92/89/62
f 92/89/62 90/87/61 93/90/63
f 91/88/62 94/91/64 89/86/60
f 92/89/62 95/92/65 91/88/62
f 95/92/65 92/89/62 96/93/65
f 97/94/66 95/92/65 96/93/65
f 97/94/66 93/90/63 90/87/61
f 97/94/66 96/93/65 98/95/67
f 93/90/63 97/94/66 98/95/67
f 97/94/66 99/96/68 95/92/65
f 97/94/66 100/97/69 99/96/68
f 100/97/69 97/94/66 101/98/52
f 101/98/52 102/99/70 100/97/69
f 102/99/70 101/98/52 103/100/53
f 103/100/53 104/101/71 102/99/70
f 104/101/71 103/100/53 105/102/72
f 105/102/72 106/103/73 104/101/71
f 106/103/73 105/102/72 107/104/55
f 107/104/55 108/105/56 106/103/73
f 108/105/56 107/104/55 109/106/47
f 95/92/65 99/96/68 110/107/74
f 89/86/60 110/107/74 99/96/68
f 110/107/74 89/86/60 94/91/64
f 111/108/75 83/80/56 112/109/57
f 83/80/56 111/108/75 113/110/76
f 112/109/57 114/111/77 111/108/75
f 114/111/77 112/109/57 115/112/58
f 115/112/58 116/113/78 114/111/77
f 116/113/78 115/112/58 117/114/59
f 117/114/59 118/115/79 116/113/78
f 118/115/79 117/114/59 119/116/80
f 119/116/80 120/117/81 118/115/79
f 120/117/81 119/116/80 121/118/82
f 121/118/82 122/119/83 120/117/81
f 122/119/83 121/118/82 123/120/69
f 123/120/69 124/121/84 122/119/83
f 124/121/84 123/120/69 125/122/70
f 125/122/70 126/123/85 124/121/84
f 126/123/85 125/122/70 127/124/71
f 127/124/71 128/125/86 126/123/85
f 128/125/86 127/124/71 129/126/73
f 129/126/73 113/110/76 128/125/86
f 113/110/76 129/126/73 83/80/56
f 130/127/87 116/113/78 118/115/79
f 130/127/87 128/125/86 113/110/76
f 111/108/75 130/127/87 113/110/76
f 130/127/87 111/108/75 114/111/77
f 116/113/78 130/127/87 114/111/77
f 131/128/88 122/119/83 124/121/84
f 126/123/85 131/128/88 124/121/84
f 131/128/88 126/123/85 128/125/86
f 128/125/86 130/127/87 131/128/88
f 118/115/79 131/128/88 130/127/87
f 131/128/88 118/115/79 120/117/81
f 122/119/83 131/128/88 120/117/81
