# Blender v2.82 (sub 7) OBJ File: ''
# www.blender.org
mtllib HE_S_Armored_Window_Collider.mtl
o Collider_HE_ArmourPlate_111.001
v 0.195007 0.366005 -0.365005
v 0.207005 0.333004 -0.347008
v 0.112015 0.500008 -0.500008
v 0.500008 -0.024994 -0.427010
v 0.500000 0.025005 -0.500015
v 0.500008 0.337002 -0.366020
v 0.500008 -0.024994 -0.500015
v 0.500011 -0.499996 -0.475006
v 0.500008 -0.499996 -0.500008
v 0.396004 -0.024994 -0.402008
v 0.299248 -0.002519 -0.402037
v 0.474999 -0.024994 -0.402016
v 0.500000 0.025005 -0.372017
v 0.500011 -0.420996 -0.419022
v 0.472004 0.366005 -0.365021
v 0.472008 0.500004 -0.500008
v 0.475010 0.304005 -0.347015
v 0.500008 0.486004 -0.500008
v 0.447006 0.333008 -0.347015
v 0.475006 0.037006 -0.347015
v 0.475006 -0.420998 -0.402016
v -0.207001 -0.320996 -0.402008
v 0.377007 0.037006 -0.347008
v 0.475010 -0.420994 -0.366005
v 0.475006 -0.281994 -0.366013
v 0.304009 -0.451996 -0.366013
v 0.475006 -0.245995 -0.402016
v 0.428009 -0.245998 -0.402000
v 0.421005 -0.474997 -0.366013
v 0.285008 -0.474995 -0.402016
v 0.421009 -0.474997 -0.402016
v 0.284996 -0.415995 -0.402008
v 0.304005 -0.474995 -0.366013
v 0.447006 -0.281998 -0.366020
v 0.112007 0.393005 -0.500008
v 0.500011 0.393005 -0.500023
v -0.499996 -0.499996 -0.475014
v 0.421005 -0.499996 -0.419014
v 0.480015 0.000008 -0.441002
v 0.377007 0.000004 -0.386009
v 0.480007 0.000004 -0.386025
v 0.480003 0.000004 -0.500023
v -0.195003 0.366001 -0.365005
v -0.207001 0.333004 -0.347015
v -0.480000 0.000008 -0.500015
v -0.499996 -0.024994 -0.427010
v -0.500000 -0.024994 -0.500008
v -0.499996 0.025005 -0.500008
v -0.500004 0.337002 -0.365997
v -0.500000 0.393009 -0.500015
v -0.500000 0.025005 -0.372009
v -0.500004 0.486004 -0.500008
v -0.500004 -0.420996 -0.418999
v -0.500000 -0.499994 -0.500015
v -0.377007 0.000000 -0.386009
v -0.396004 -0.024998 -0.402016
v -0.480000 0.000004 -0.441002
v -0.420998 -0.499996 -0.418999
v -0.474995 0.037006 -0.347008
v -0.475002 -0.024994 -0.402008
v -0.447002 0.333004 -0.347008
v -0.474999 0.304005 -0.347008
v -0.471992 0.366005 -0.365005
v -0.471996 0.500008 -0.500008
v -0.143792 -0.215355 -0.402025
v 0.143799 -0.215359 -0.402016
v -0.377003 0.037003 -0.347008
v -0.475002 -0.281994 -0.366013
v -0.304001 -0.474995 -0.366005
v -0.427998 -0.245998 -0.402008
v -0.420994 -0.474997 -0.366005
v -0.420994 -0.474997 -0.402008
v -0.475002 -0.420994 -0.402008
v -0.474999 -0.245995 -0.402008
v -0.474999 -0.420996 -0.366005
v -0.285004 -0.474995 -0.401993
v -0.303997 -0.451994 -0.366013
v -0.285004 -0.415995 -0.402000
v -0.446995 -0.281994 -0.366005
v -0.111999 0.500008 -0.500008
v -0.111999 0.393005 -0.500015
v 0.207005 -0.320996 -0.402016
v -0.480003 0.000004 -0.386017
v -0.299243 -0.002519 -0.402025
v 0.186005 0.256005 -0.347008
v -0.168757 0.147895 -0.402025
v -0.185997 0.256005 -0.347000
v -0.185997 0.219002 -0.386001
v 0.186005 0.219002 -0.386009
v 0.168764 0.147895 -0.402031
v 0.171005 -0.282998 -0.484001
v 0.377007 0.000004 -0.441017
v -0.170997 -0.282994 -0.484009
v -0.377003 0.000004 -0.441002
v -0.185997 0.219002 -0.441009
v 0.186005 0.219002 -0.441017
vt 0.752922 0.900651
vt 0.723145 0.904763
vt 0.753882 0.904976
vt 0.725933 0.900754
vt 0.768380 0.915491
vt 0.763032 0.926231
vt 0.042215 0.709632
vt 0.044536 0.698260
vt 0.038429 0.706981
vt 0.047152 0.702582
vt 0.703830 0.865954
vt 0.719515 0.902004
vt 0.718628 0.865898
vt 0.704034 0.908502
vt 0.712809 0.917156
vt 0.718937 0.925922
vt 0.035867 0.698079
vt 0.039974 0.641895
vt 0.037038 0.641834
vt 0.046380 0.651400
vt 0.710671 0.862248
vt 0.716989 0.862224
vt 0.703816 0.862274
vt 0.721045 0.862002
vt 0.742063 0.867386
vt 0.732840 0.861604
vt 0.722281 0.867862
vt 0.057440 0.697654
vt 0.060107 0.702667
vt 0.048517 0.697380
vt 0.044763 0.639850
vt 0.056195 0.642157
vt 0.049951 0.651796
vt 0.056433 0.645699
vt 0.722723 0.897841
vt 0.722901 0.925969
vt 0.753776 0.889717
vt 0.799283 0.889726
vt 0.800131 0.900677
vt 0.811001 0.867387
vt 0.830355 0.897867
vt 0.827143 0.900783
vt 0.830798 0.867864
vt 0.092563 0.680396
vt 0.090475 0.670407
vt 0.154510 0.645745
vt 0.120646 0.670578
vt 0.153747 0.697646
vt 0.161013 0.651808
vt 0.162661 0.697332
vt 0.828628 0.796251
vt 0.859075 0.811570
vt 0.838953 0.795160
vt 0.816737 0.810827
vt 0.856541 0.813553
vt 0.819620 0.813179
vt 0.812631 0.820695
vt 0.818564 0.823051
vt 0.816161 0.811806
vt 0.866508 0.808284
vt 0.847112 0.785155
vt 0.818729 0.788175
vt 0.807281 0.809390
vt 0.863079 0.819790
vt 0.855449 0.822798
vt 0.859567 0.812460
vt 0.837596 0.782321
vt 0.827286 0.783546
vt 0.154744 0.642204
vt 0.872968 0.916121
vt 0.909376 0.897347
vt 0.920177 0.916094
vt 0.883747 0.897361
vt 0.046931 0.635623
vt 0.164014 0.635678
vt 0.046932 0.632718
vt 0.164016 0.632773
vt 0.720833 0.855732
vt 0.732628 0.855333
vt 0.804253 0.943388
vt 0.756824 0.943388
vt 0.756824 0.988456
vt 0.879174 0.988457
vt 0.876732 0.991484
vt 0.759267 0.991483
vt 0.831745 0.943389
vt 0.879174 0.943388
vt 0.829933 0.904795
vt 0.799169 0.905007
vt 0.784657 0.915531
vt 0.790010 0.926282
vt 0.169014 0.709543
vt 0.166642 0.698192
vt 0.164049 0.702523
vt 0.172784 0.706876
vt 0.849264 0.865954
vt 0.833565 0.902034
vt 0.849060 0.908538
vt 0.834454 0.865899
vt 0.834144 0.925973
vt 0.840278 0.917199
vt 0.170931 0.641874
vt 0.164578 0.651398
vt 0.175300 0.697971
vt 0.173864 0.641799
vt 0.842417 0.862245
vt 0.836094 0.862221
vt 0.849278 0.862270
vt 0.832034 0.861999
vt 0.820229 0.861600
vt 0.151105 0.702670
vt 0.166151 0.639859
vt 0.830176 0.926020
vt 0.118529 0.680554
vt 0.816709 0.811455
vt 0.856560 0.813377
vt 0.819640 0.813749
vt 0.859053 0.811344
vt 0.828304 0.796641
vt 0.838604 0.795342
vt 0.812805 0.821405
vt 0.816154 0.812446
vt 0.818784 0.823640
vt 0.866419 0.807908
vt 0.846560 0.785174
vt 0.818243 0.788768
vt 0.807226 0.810209
vt 0.863222 0.819481
vt 0.859563 0.812224
vt 0.855654 0.822643
vt 0.836988 0.782533
vt 0.826704 0.783967
vt 0.832246 0.855723
vt 0.820441 0.855324
vt 0.182911 0.698398
vt 0.305260 0.756545
vt 0.182911 0.756545
vt 0.305260 0.698398
vt 0.185354 0.759574
vt 0.302817 0.759574
vt 0.676991 0.906841
vt 0.676427 0.903106
vt 0.703443 0.903199
vt 0.702947 0.906762
vt 0.657913 0.900554
vt 0.657095 0.897256
vt 0.721986 0.900614
vt 0.722829 0.897285
vt 0.658086 0.893940
vt 0.676940 0.899371
vt 0.702886 0.899294
vt 0.721852 0.893940
vt 0.172607 0.032013
vt 0.163950 0.041992
vt 0.141559 0.041992
vt 0.132902 0.032013
vt 0.143215 0.017893
vt 0.162294 0.017893
vt 0.164099 0.013406
vt 0.177765 0.032180
vt 0.127744 0.032180
vt 0.141410 0.013406
vt 0.141410 0.012454
vt 0.164099 0.012454
vt 0.140415 0.046709
vt 0.165094 0.046709
vn 0.0000 0.4788 0.8779
vn 0.0000 0.4790 0.8778
vn -0.8540 -0.0271 0.5196
vn -0.8519 0.0001 0.5237
vn 0.7807 0.6249 -0.0000
vn 0.7808 0.6248 0.0000
vn 0.7811 0.6244 -0.0002
vn 0.7810 0.6245 -0.0003
vn 0.7810 0.6245 -0.0002
vn 1.0000 -0.0000 -0.0000
vn 1.0000 0.0000 -0.0002
vn 1.0000 0.0001 0.0000
vn 0.7810 -0.6246 0.0001
vn 0.7811 -0.6244 -0.0000
vn 0.7809 -0.6246 -0.0001
vn 0.7809 -0.6246 -0.0002
vn 0.0001 -0.7255 0.6883
vn 0.0001 -0.7255 0.6882
vn -0.0001 0.8419 0.5396
vn 0.0001 0.8418 0.5398
vn 0.0001 0.8418 0.5397
vn 0.5006 -0.5005 0.7063
vn 0.4902 -0.4902 0.7207
vn 0.4902 -0.4902 0.7208
vn 0.3526 -0.6559 0.6674
vn 0.5097 0.6929 0.5099
vn 0.5097 0.6930 0.5100
vn 0.5097 0.6930 0.5099
vn 0.7039 -0.0137 0.7102
vn 0.6052 -0.0000 0.7961
vn 0.5623 0.0167 0.8268
vn 0.7069 0.0000 0.7073
vn 0.7069 0.0001 0.7073
vn 0.7069 -0.0001 0.7073
vn 0.0000 0.7097 0.7045
vn 0.3076 0.2655 0.9137
vn 0.3031 0.2927 0.9069
vn 0.5838 0.5429 0.6037
vn 0.3344 0.6688 0.6639
vn 0.0000 -0.0000 1.0000
vn 0.0001 -0.0000 1.0000
vn -0.0000 0.0002 1.0000
vn -0.0000 0.0001 1.0000
vn -0.0002 0.0001 1.0000
vn -0.0000 -0.0001 1.0000
vn 0.0001 -0.0001 1.0000
vn -0.0001 -0.0001 1.0000
vn -0.7165 0.4575 0.5266
vn -0.7165 0.4574 0.5267
vn -0.6884 0.4102 0.5982
vn -0.6884 0.4103 0.5981
vn 0.0000 0.0003 1.0000
vn -0.0001 0.0001 1.0000
vn 0.0002 0.0002 1.0000
vn -0.0001 -0.0000 1.0000
vn -0.0001 0.0004 1.0000
vn -0.0003 0.0002 1.0000
vn -0.0002 0.0002 1.0000
vn 0.0002 0.7070 0.7072
vn -0.0003 0.7071 0.7071
vn -0.0002 0.7071 0.7071
vn -0.0001 0.7070 0.7072
vn -0.0000 -1.0000 0.0000
vn -0.0001 -1.0000 -0.0001
vn 1.0000 0.0000 -0.0001
vn 1.0000 0.0003 -0.0001
vn 1.0000 0.0001 0.0002
vn -0.8843 -0.0004 0.4668
vn -0.8843 -0.0002 0.4669
vn -0.8844 0.0002 0.4666
vn -0.8845 0.0001 0.4666
vn -0.8844 0.0001 0.4667
vn 0.7071 -0.7071 0.0001
vn 0.7071 -0.7071 0.0000
vn -0.5282 0.4444 0.7235
vn -0.5282 0.4443 0.7236
vn -0.5283 0.4444 0.7235
vn -0.5282 0.4444 0.7236
vn 0.0000 -0.5621 0.8271
vn 0.0000 -0.5621 0.8270
vn 0.0001 -0.5623 0.8269
vn 0.0000 -0.5623 0.8269
vn -0.0000 0.9310 0.3651
vn -0.0000 -1.0000 -0.0001
vn -0.0000 -0.0000 -1.0000
vn -0.0000 0.0003 -1.0000
vn -0.0001 0.0003 -1.0000
vn -0.0000 0.0004 -1.0000
vn -0.0000 0.0002 -1.0000
vn 0.0000 -0.0001 -1.0000
vn 0.0000 0.4787 0.8780
vn 0.8519 -0.0000 0.5237
vn 0.8540 -0.0272 0.5196
vn 0.8540 -0.0272 0.5195
vn -0.7809 0.6246 0.0000
vn -0.7809 0.6247 0.0000
vn -1.0000 -0.0000 -0.0000
vn -1.0000 0.0000 -0.0001
vn -1.0000 0.0000 -0.0002
vn -1.0000 0.0001 -0.0001
vn -1.0000 -0.0000 0.0001
vn -1.0000 0.0000 0.0002
vn -0.7810 -0.6246 -0.0001
vn -0.7809 -0.6246 -0.0000
vn -0.7809 -0.6247 -0.0000
vn -0.0000 -0.7255 0.6882
vn -0.0001 -0.7255 0.6883
vn 0.0001 0.8419 0.5397
vn 0.0000 0.8418 0.5398
vn -0.5007 -0.5007 0.7061
vn -0.5008 -0.5007 0.7061
vn -0.4900 -0.4900 0.7210
vn -0.4900 -0.4900 0.7209
vn -0.4899 -0.4900 0.7210
vn -0.4900 -0.4899 0.7210
vn -0.3525 -0.6559 0.6674
vn -0.5098 0.6931 0.5096
vn -0.6048 -0.0000 0.7964
vn -0.6048 0.0001 0.7964
vn -0.7037 -0.0137 0.7104
vn -0.7037 -0.0137 0.7103
vn -0.7072 -0.0000 0.7070
vn -0.5620 0.0167 0.8270
vn -0.5620 0.0166 0.8270
vn -0.3029 0.2924 0.9070
vn -0.3030 0.2924 0.9070
vn -0.3028 0.2925 0.9071
vn -0.3074 0.2656 0.9138
vn -0.3344 0.6689 0.6639
vn -0.5836 0.5430 0.6038
vn 0.6883 0.4101 0.5984
vn 0.7165 0.4575 0.5266
vn -0.0003 -0.0003 1.0000
vn -0.0004 -0.0002 1.0000
vn 0.0003 0.0003 1.0000
vn 0.0004 0.0002 1.0000
vn 0.0002 0.0004 1.0000
vn 0.0002 -0.0000 1.0000
vn 0.0001 0.7072 0.7070
vn 0.0001 -1.0000 0.0002
vn 0.8843 0.0000 0.4668
vn 0.8844 -0.0001 0.4668
vn 0.8843 -0.0001 0.4669
vn 0.8844 0.0000 0.4667
vn 0.8844 0.0001 0.4668
vn -0.7071 -0.7071 0.0000
vn 0.5283 0.4444 0.7234
vn 0.5284 0.4446 0.7233
vn 0.5285 0.4445 0.7233
vn -0.0001 0.9073 0.4205
vn 0.0000 0.9073 0.4205
vn -0.0000 0.9073 0.4204
vn -0.0000 -0.0003 -1.0000
vn 0.0001 -0.0002 -1.0000
vn 0.0001 -0.0004 -1.0000
vn 0.0000 -0.7255 0.6883
vn 0.6395 -0.5578 0.5291
vn -0.0000 0.0001 -1.0000
vn -0.6395 -0.5577 0.5291
vn -0.6395 -0.5577 0.5292
vn 0.7536 -0.6573 0.0000
vn -0.7537 -0.6573 0.0000
vn -0.7536 -0.6573 -0.0000
vn 0.5377 -0.4536 0.7107
vn 0.5378 -0.4535 0.7107
vn -0.5377 -0.4536 0.7107
vn -0.0001 -0.7713 0.6364
vn -0.0000 -0.7714 0.6364
vn 0.0000 -0.7713 0.6364
vn -0.4110 0.3577 0.8386
vn 0.0000 0.4808 0.8769
vn 0.4110 0.3577 0.8385
usemtl Default_OBJ
s off
f 2/1/1 15/2/1 1/3/1
f 15/2/2 2/1/2 19/4/2
f 1/3/3 35/5/3 2/1/3
f 35/5/4 1/3/4 3/6/4
f 42/7/5 4/8/6 7/9/6
f 4/8/7 42/7/8 39/10/9
f 5/11/10 6/12/10 13/13/10
f 6/12/10 5/11/10 36/14/10
f 36/15/10 18/16/10 6/12/10
f 7/17/11 8/18/11 9/19/11
f 4/8/10 8/18/10 7/17/10
f 4/8/12 14/20/10 8/18/10
f 39/21/13 13/13/13 41/22/13
f 39/21/14 5/11/14 13/13/14
f 5/11/15 39/21/15 42/23/16
f 41/24/17 23/25/17 40/26/17
f 23/25/18 41/24/18 20/27/18
f 10/28/19 39/10/19 92/29/19
f 39/10/20 10/28/20 12/30/21
f 8/31/22 14/20/22 38/32/22
f 21/33/23 38/32/23 14/20/23
f 38/32/24 21/33/24 31/34/24
f 20/27/25 41/24/25 13/13/25
f 4/8/26 39/10/27 12/30/28
f 6/12/29 20/27/29 13/13/29
f 20/27/30 6/12/30 17/35/30
f 4/8/31 21/33/31 14/20/31
f 21/33/32 4/8/33 12/30/34
f 15/2/35 3/6/35 1/3/35
f 3/6/35 15/2/35 16/36/35
f 19/4/36 6/12/36 15/2/36
f 6/12/37 19/4/37 17/35/37
f 18/16/38 15/2/38 6/12/38
f 15/2/39 18/16/39 16/36/39
f 23/25/40 2/1/40 85/37/40
f 23/25/40 17/35/40 2/1/40
f 2/1/40 17/35/40 19/4/40
f 20/27/41 17/35/41 23/25/41
f 2/1/40 87/38/40 85/37/40
f 87/38/42 2/1/42 44/39/43
f 44/39/44 67/40/44 87/38/44
f 62/41/45 67/40/40 44/39/40
f 62/41/46 44/39/40 61/42/40
f 59/43/40 67/40/40 62/41/47
f 10/28/48 91/44/49 82/45/48
f 91/44/50 10/28/51 92/29/51
f 10/28/41 21/33/41 12/30/40
f 10/28/40 31/34/40 21/33/40
f 82/45/40 31/34/40 10/28/40
f 82/45/40 72/46/41 31/34/40
f 72/46/41 82/45/40 22/47/40
f 22/47/40 56/48/40 72/46/40
f 72/46/43 56/48/40 73/49/40
f 73/49/41 56/48/41 60/50/41
f 24/51/45 33/52/45 29/53/45
f 25/54/52 33/52/53 24/51/53
f 25/54/54 26/55/55 33/52/40
f 25/54/56 34/56/57 26/55/58
f 34/56/59 27/57/59 28/58/59
f 27/57/60 34/56/61 25/59/62
f 29/53/63 30/60/64 31/61/63
f 30/60/64 29/53/63 33/52/63
f 21/62/65 25/54/66 24/51/65
f 25/54/67 21/62/10 27/63/10
f 30/64/68 26/55/69 32/65/69
f 26/55/70 30/64/71 33/66/72
f 31/67/73 24/51/73 29/53/73
f 24/51/74 31/67/74 21/68/74
f 28/58/75 26/55/76 34/56/77
f 26/55/78 28/58/77 32/65/77
f 38/32/79 72/46/80 58/69/79
f 72/46/81 38/32/82 31/34/82
f 2/70/83 81/71/83 44/72/83
f 81/71/83 2/70/83 35/73/83
f 8/74/63 58/69/63 37/75/63
f 58/69/63 8/74/63 38/32/63
f 37/75/63 9/76/63 8/74/63
f 9/76/84 37/75/84 54/77/84
f 39/78/63 40/26/63 92/79/63
f 40/26/84 39/78/84 41/24/84
f 35/80/85 36/81/85 5/82/85
f 48/83/85 35/80/85 5/82/85
f 5/82/86 45/84/87 48/83/86
f 45/84/88 5/82/86 42/85/89
f 35/80/90 48/83/90 81/86/90
f 81/86/85 48/83/85 50/87/85
f 44/39/1 63/88/1 61/42/1
f 63/88/91 44/39/91 43/89/91
f 43/89/92 81/90/92 80/91/92
f 81/90/93 43/89/93 44/39/94
f 45/92/95 46/93/96 57/94/96
f 46/93/96 45/92/96 47/95/96
f 48/96/97 49/97/97 50/98/97
f 49/97/98 48/96/97 51/99/97
f 52/100/97 50/101/97 49/97/97
f 46/93/99 37/102/99 53/103/100
f 46/93/101 47/104/101 37/102/101
f 37/102/102 47/104/102 54/105/102
f 57/106/103 83/107/103 51/99/103
f 48/96/104 57/106/104 51/99/104
f 57/106/105 48/96/105 45/108/105
f 83/109/106 67/40/106 59/43/106
f 67/40/107 83/109/107 55/110/107
f 56/48/108 57/94/108 60/50/108
f 57/94/109 56/48/109 94/111/109
f 37/112/110 58/69/110 53/103/111
f 58/69/112 73/49/112 53/103/113
f 73/49/114 58/69/114 72/46/115
f 59/43/116 51/99/116 83/109/116
f 46/93/117 60/50/117 57/94/117
f 49/97/118 59/43/118 62/41/119
f 59/43/120 49/97/121 51/99/120
f 46/93/122 73/49/122 60/50/122
f 73/49/123 46/93/123 53/103/124
f 63/88/35 80/91/35 64/113/35
f 80/91/35 63/88/35 43/89/35
f 61/42/125 49/97/126 62/41/127
f 49/97/128 61/42/128 63/88/128
f 52/100/129 63/88/129 64/113/129
f 63/88/130 52/100/130 49/97/130
f 56/48/131 93/114/131 94/111/131
f 93/114/132 56/48/132 22/47/132
f 68/115/133 77/116/134 79/117/133
f 68/115/135 69/118/136 77/116/137
f 68/115/43 75/119/43 69/118/138
f 69/118/138 75/119/40 71/120/40
f 79/117/61 74/121/61 68/122/61
f 74/121/139 79/117/139 70/123/139
f 71/120/63 76/124/63 69/118/140
f 76/124/63 71/120/63 72/125/63
f 73/126/98 68/115/98 74/127/98
f 68/115/101 73/126/101 75/119/101
f 76/128/141 77/116/142 69/129/143
f 77/116/144 76/128/145 78/130/145
f 72/131/146 75/119/146 73/132/146
f 75/119/146 72/131/146 71/120/146
f 70/123/147 77/116/148 78/130/147
f 77/116/148 70/123/149 79/117/149
f 91/44/150 22/47/151 82/45/151
f 22/47/151 91/44/152 93/114/151
f 57/133/63 55/110/63 83/109/63
f 55/110/84 57/133/84 94/134/84
f 9/135/85 47/136/85 7/137/85
f 47/136/85 9/135/85 54/138/85
f 47/136/153 42/139/154 7/137/153
f 42/139/155 47/136/153 45/140/153
f 87/141/156 88/142/156 89/143/156 85/144/156
f 87/141/157 67/145/157 55/146/157 88/142/157
f 81/90/158 50/101/158 52/100/158 64/113/158 80/91/158
f 3/6/158 16/36/158 18/16/158 36/15/158 35/80/158
f 23/147/159 85/144/159 89/143/159 40/148/160
f 88/142/161 55/146/161 94/149/161 95/150/161
f 89/143/63 88/142/63 95/150/63 96/151/63
f 40/148/162 89/143/163 96/151/163 92/152/163
f 11/153/40 90/154/40 86/155/40 84/156/40 65/157/40 66/158/41
f 11/153/164 66/158/164 91/159/165 92/160/164
f 65/157/166 84/156/166 94/161/166 93/162/166
f 66/158/167 65/157/168 93/163/168 91/164/169
f 84/156/170 86/155/170 95/165/170 94/161/170
f 86/155/171 90/154/171 96/166/171 95/165/171
f 90/154/172 11/153/172 92/160/172 96/166/172
