# Blender v2.82 (sub 7) OBJ File: 'SuperHalf.blend'
# www.blender.org
mtllib SuperHalf.mtl
o TAC_Slope1_1.5_v3
v -0.450000 -0.470856 -0.779143
v -0.450000 -0.470856 -0.888785
v 0.450000 -0.470856 -0.779143
v 0.450000 -0.470856 -0.888785
v -0.450000 -0.281215 -0.968785
v -0.450000 -0.390856 -0.968785
v 0.450000 -0.281215 -0.968785
v 0.450000 -0.390856 -0.968785
v 0.475000 -0.267678 -0.982322
v 0.475000 -0.225000 -1.000000
v 0.500000 -0.239645 -0.975000
v 0.500000 -0.475000 -0.739645
v 0.475000 -0.500000 -0.725000
v 0.475000 -0.482322 -0.767678
v -0.475000 -0.225000 -1.000000
v -0.475000 -0.267678 -0.982322
v -0.500000 -0.239645 -0.975000
v 0.500000 0.453287 -0.975000
v 0.475000 0.475000 -1.000000
v 0.475000 0.486132 -0.979199
v 0.500000 -0.475000 0.417431
v 0.475000 -0.486132 0.479199
v 0.475000 -0.500000 0.475000
v -0.475000 -0.482322 -0.767678
v -0.475000 -0.500000 -0.725000
v -0.500000 -0.475000 -0.739645
v -0.500000 0.453287 -0.975000
v -0.475000 0.486132 -0.979199
v -0.475000 0.475000 -1.000000
v -0.500000 -0.475000 0.417431
v -0.475000 -0.500000 0.475000
v -0.475000 -0.486132 0.479199
vt 0.445548 0.612878
vt 0.445601 0.612878
vt 0.445548 0.613312
vt 0.445601 0.613312
vt 0.445437 0.613076
vt 0.445528 0.613168
vt 0.445437 0.613129
vt 0.445475 0.613168
vt 0.445547 0.613312
vt 0.445494 0.613312
vt 0.445547 0.612878
vt 0.445494 0.612878
vt 0.445494 0.613312
vt 0.445494 0.612878
vt 0.445552 0.613076
vt 0.445552 0.613129
vt 0.445461 0.613168
vt 0.445514 0.613168
vt 0.627308 0.566269
vt 0.627289 0.566282
vt 0.627290 0.566264
vt 0.627278 0.566249
vt 0.627295 0.566242
vt 0.627290 0.566264
vt 0.627290 0.566282
vt 0.627272 0.566269
vt 0.627290 0.566264
vt 0.627310 0.566261
vt 0.627294 0.566274
vt 0.627290 0.566264
vt 0.627276 0.566293
vt 0.627283 0.566261
vt 0.627290 0.566264
vt 0.627278 0.566278
vt 0.627273 0.566256
vt 0.627290 0.566264
vt 0.627274 0.566251
vt 0.627294 0.566253
vt 0.627290 0.566264
vt 0.627061 0.566258
vt 0.627519 0.566258
vt 0.627061 0.566269
vt 0.627519 0.566269
vt 0.627629 0.566255
vt 0.627640 0.566272
vt 0.627297 0.566296
vt 0.627283 0.566266
vt 0.627290 0.566264
vt 0.627293 0.566493
vt 0.627286 0.566493
vt 0.627293 0.566034
vt 0.627286 0.566034
vt 0.627365 0.566444
vt 0.627021 0.565713
vt 0.627385 0.566446
vt 0.627025 0.565681
vt 0.627281 0.566095
vt 0.627298 0.566122
vt 0.627281 0.566674
vt 0.627298 0.566681
vt 0.627368 0.566359
vt 0.627350 0.566363
vt 0.627275 0.566228
vt 0.627265 0.566244
vt 0.627519 0.566275
vt 0.627061 0.566275
vt 0.627519 0.566252
vt 0.627061 0.566252
vt 0.627281 0.566681
vt 0.627281 0.566122
vt 0.627298 0.566674
vt 0.627298 0.566095
vt 0.627555 0.565681
vt 0.627559 0.565713
vt 0.627195 0.566446
vt 0.627214 0.566444
vt 0.626940 0.566272
vt 0.626951 0.566255
vt 0.627301 0.566493
vt 0.627279 0.566493
vt 0.627301 0.566034
vt 0.627279 0.566034
vt 0.627315 0.566244
vt 0.627212 0.566359
vt 0.627230 0.566363
vt 0.627760 0.566493
vt 0.627423 0.566493
vt 0.627760 0.566034
vt 0.627423 0.566034
vt 0.627174 0.566613
vt 0.627061 0.566500
vt 0.627509 0.566613
vt 0.627061 0.565941
vt 0.627881 0.566034
vt 0.627881 0.566493
vt 0.628148 0.566493
vt 0.627302 0.566493
vt 0.628148 0.566034
vt 0.627302 0.566034
vt 0.627507 0.566198
vt 0.627519 0.566190
vt 0.627507 0.566328
vt 0.627519 0.566337
vt 0.627061 0.566337
vt 0.627073 0.566198
vt 0.627061 0.566190
vt 0.627073 0.566328
vt 0.627519 0.565941
vt 0.627519 0.566500
vt 0.627071 0.566613
vt 0.627406 0.566613
vn 0.0000 -1.0000 0.0000
vn -1.0000 -0.0000 0.0000
vn 0.0000 0.0000 -1.0000
vn 0.0000 -0.7071 -0.7071
vn 1.0000 -0.0000 0.0000
vn 0.5733 -0.3136 -0.7570
vn 0.5733 -0.7570 -0.3136
vn -0.5733 -0.3136 -0.7570
vn 0.7778 0.5541 -0.2965
vn 0.9282 -0.1079 0.3562
vn -0.5733 -0.7570 -0.3136
vn -0.7778 0.5541 -0.2965
vn 0.0000 0.8817 -0.4718
vn -0.7071 0.0000 -0.7071
vn -0.9282 -0.1079 0.3562
vn 0.0000 -0.2898 0.9571
vn -0.7071 0.5884 0.3922
vn -0.7071 0.5883 0.3922
vn -0.7071 -0.7071 0.0000
vn -0.7071 -0.5000 -0.5000
vn 0.0000 -0.9239 -0.3827
vn 0.7071 -0.7071 0.0000
vn 0.7071 0.5883 0.3922
vn 0.7071 0.5884 0.3922
vn 0.7071 0.0000 -0.7071
vn 0.0000 -0.3827 -0.9239
vn 0.7071 -0.5000 -0.5000
vn 0.0000 0.8321 0.5547
usemtl Steel_-_Satin.001
s 1
f 1/1/1 2/2/1 3/3/1
f 3/3/1 2/2/1 4/4/1
f 1/5/2 5/6/2 2/7/2
f 2/7/2 5/6/2 6/8/2
f 7/9/3 8/10/3 5/11/3
f 5/11/3 8/10/3 6/12/3
f 8/10/4 4/13/4 6/12/4
f 6/12/4 4/13/4 2/14/4
f 3/15/5 4/16/5 7/17/5
f 7/17/5 4/16/5 8/18/5
f 9/19/6 10/20/6 11/21/6
f 12/22/7 13/23/7 14/24/7
f 15/25/8 16/26/8 17/27/8
f 18/28/9 19/29/9 20/30/9
f 21/31/10 22/32/10 23/33/10
f 24/34/11 25/35/11 26/36/11
f 27/37/12 28/38/12 29/39/12
f 28/40/13 20/41/13 29/42/13
f 29/42/13 20/41/13 19/43/13
f 17/27/14 27/44/14 15/25/14
f 15/25/14 27/44/14 29/45/14
f 30/46/15 31/47/15 32/48/15
f 23/49/16 22/50/16 31/51/16
f 31/51/16 22/50/16 32/52/16
f 27/53/17 30/54/18 28/55/17
f 28/55/17 30/54/18 32/56/18
f 31/57/19 30/58/19 25/59/19
f 25/59/19 30/58/19 26/60/19
f 17/61/20 16/62/20 26/63/20
f 26/63/20 16/62/20 24/64/20
f 24/65/21 14/66/21 25/67/21
f 25/67/21 14/66/21 13/68/21
f 12/69/22 21/70/22 13/71/22
f 13/71/22 21/70/22 23/72/22
f 22/73/23 21/74/23 20/75/24
f 20/75/24 21/74/23 18/76/24
f 19/77/25 18/78/25 10/20/25
f 10/20/25 18/78/25 11/21/25
f 10/79/26 9/80/26 15/81/26
f 15/81/26 9/80/26 16/82/26
f 12/22/27 14/83/27 11/84/27
f 11/84/27 14/83/27 9/85/27
f 19/86/3 10/87/3 29/88/3
f 29/88/3 10/87/3 15/89/3
f 17/90/2 26/91/2 27/92/2
f 27/92/2 26/91/2 30/93/2
f 31/51/1 25/94/1 23/49/1
f 23/49/1 25/94/1 13/95/1
f 22/96/28 20/97/28 32/98/28
f 32/98/28 20/97/28 28/99/28
f 1/100/4 24/101/4 5/102/4
f 5/102/4 24/101/4 16/103/4
f 5/102/4 16/103/4 9/104/4
f 1/100/4 3/105/4 24/101/4
f 24/101/4 3/105/4 14/106/4
f 14/106/4 3/105/4 7/107/4
f 14/106/4 7/107/4 9/104/4
f 9/104/4 7/107/4 5/102/4
f 21/108/5 12/109/5 18/110/5
f 18/110/5 12/109/5 11/111/5
