# Blender v2.80 (sub 74) OBJ File: 'standard.blend'
# www.blender.org
mtllib tofuu_standard.mtl
o m_GSO_Block_111_Instance.001_m_GSO_Block_111_Instance.004
v -0.132023 -0.132023 -0.499999
v 0.132023 -0.132023 0.500000
v 0.500000 -0.132023 0.132023
v 0.500000 -0.132023 -0.132022
v 0.600000 -0.000000 0.000001
v 0.500000 0.132023 0.132023
v 0.500000 0.132023 -0.132022
v 0.132023 -0.132023 -0.499999
v -0.000000 0.000000 -0.600000
v 0.132023 0.132023 -0.499999
v -0.132023 0.132023 -0.499999
v -0.500000 -0.132023 -0.132022
v -0.600000 0.000000 0.000001
v -0.500000 0.132023 0.132023
v -0.500000 0.132023 -0.132022
v -0.500000 -0.132023 0.132023
v 0.132023 0.132023 0.500000
v 0.000000 -0.000000 0.600000
v -0.132023 0.132023 0.500000
v -0.132023 -0.132023 0.500000
v -0.132023 -0.500000 0.132023
v -0.132023 -0.500000 -0.132022
v -0.000000 -0.600000 0.000000
v 0.132023 0.500000 0.132023
v 0.000000 0.600000 0.000001
v -0.132023 0.500000 0.132023
v 0.132023 0.500000 -0.132022
v -0.132023 0.500000 -0.132022
v 0.132023 -0.500000 -0.132022
v 0.132023 -0.500000 0.132023
v 0.446688 0.446688 -0.547000
v 0.446688 -0.446688 -0.547000
v 0.446688 0.446688 0.547000
v 0.446688 -0.446688 0.547000
v -0.446688 0.446688 0.547000
v -0.446688 -0.446688 0.547000
v -0.446688 0.446688 -0.547000
v -0.446688 -0.446688 -0.547000
v 0.547000 0.446688 0.446688
v 0.547000 -0.446688 0.446688
v 0.446688 0.547000 0.446688
v 0.446688 -0.547000 0.446688
v -0.446688 -0.547000 0.446688
v -0.446688 0.547000 0.446688
v -0.547000 0.446688 0.446688
v -0.547000 -0.446688 0.446688
v -0.547000 0.446688 -0.446688
v -0.547000 -0.446688 -0.446688
v 0.547000 0.446688 -0.446688
v 0.547000 -0.446688 -0.446688
v 0.446688 0.547000 -0.446688
v 0.446688 -0.547000 -0.446688
v -0.446688 -0.547000 -0.446688
v -0.446688 0.547000 -0.446688
vt 0.329998 0.472495
vt 0.343750 0.500000
vt 0.329998 0.527505
vt 0.329998 0.527505
vt 0.343750 0.500000
vt 0.357502 0.527505
vt 0.329998 0.472495
vt 0.343750 0.500000
vt 0.357502 0.472495
vt 0.329998 0.527505
vt 0.343750 0.500000
vt 0.329998 0.472495
vt 0.357502 0.527505
vt 0.357502 0.472495
vt 0.357502 0.472495
vt 0.357502 0.527505
vt 0.329998 0.472495
vt 0.357502 0.472495
vt 0.329998 0.527505
vt 0.357502 0.527505
vt 0.329998 0.472495
vt 0.343750 0.500000
vt 0.329998 0.527505
vt 0.329998 0.527505
vt 0.343750 0.500000
vt 0.329998 0.472495
vt 0.357502 0.472495
vt 0.357502 0.527505
vt 0.357502 0.527505
vt 0.357502 0.472495
vt 0.297220 0.406940
vt 0.390280 0.406940
vt 0.390280 0.593060
vt 0.297220 0.593060
vt 0.390280 0.406940
vt 0.390280 0.593060
vt 0.297220 0.593060
vt 0.297220 0.406940
vt 0.297220 0.406940
vt 0.297220 0.593060
vt 0.390280 0.593060
vt 0.390280 0.406940
vt 0.297220 0.406940
vt 0.297220 0.593060
vt 0.390280 0.593060
vt 0.390280 0.406940
vt 0.297220 0.593060
vt 0.297220 0.406940
vt 0.390280 0.406940
vt 0.390280 0.593060
vt 0.390280 0.406940
vt 0.297220 0.406940
vt 0.297220 0.593060
vt 0.390280 0.593060
vt 0.297220 0.392292
vt 0.390280 0.392292
vt 0.397604 0.593060
vt 0.397604 0.406940
vt 0.397604 0.593060
vt 0.289896 0.593060
vt 0.289896 0.406940
vt 0.289896 0.593060
vt 0.390280 0.392292
vt 0.297220 0.392292
vt 0.289896 0.406940
vt 0.289896 0.593060
vt 0.397604 0.593060
vt 0.397604 0.406940
vt 0.397604 0.406940
vt 0.390280 0.607708
vt 0.297220 0.607708
vt 0.390280 0.607708
vt 0.297220 0.607708
vt 0.289896 0.406940
vn 0.6038 -0.0000 0.7971
vn 0.7971 -0.0000 -0.6038
vn 0.0000 0.6038 -0.7971
vn -0.7971 0.6038 0.0000
vn -0.7971 -0.6038 -0.0000
vn -0.7971 0.0000 0.6038
vn -0.7971 0.0000 -0.6038
vn -0.6038 0.0000 0.7971
vn 0.0000 -0.6038 0.7971
vn 0.0000 0.6038 0.7971
vn 0.7971 -0.0000 0.6038
vn 0.7971 -0.6038 -0.0000
vn 0.7971 0.6038 0.0000
vn 0.0000 -0.6038 -0.7971
vn -0.6038 0.0000 -0.7971
vn 0.6038 -0.0000 -0.7971
vn 0.6038 -0.7971 0.0000
vn 0.6038 0.7971 0.0000
vn -0.6038 -0.7971 0.0000
vn 0.0000 -0.7971 -0.6038
vn 0.0000 -0.7971 0.6038
vn -0.6038 0.7971 0.0000
vn 0.0000 0.7971 0.6038
vn -0.0000 0.7971 -0.6038
vn 0.3416 0.3416 0.8756
vn -0.3416 0.3416 0.8756
vn -0.3416 -0.3416 0.8756
vn 0.3416 -0.3416 0.8756
vn -0.3416 -0.8756 0.3416
vn -0.3416 -0.8756 -0.3416
vn 0.3416 -0.8756 -0.3416
vn 0.3416 -0.8756 0.3416
vn 0.3416 0.8756 0.3416
vn 0.3416 0.8756 -0.3416
vn -0.3416 0.8756 -0.3416
vn -0.3416 0.8756 0.3416
vn -0.8756 0.3416 0.3416
vn -0.8756 0.3416 -0.3416
vn -0.8756 -0.3416 -0.3416
vn -0.8756 -0.3416 0.3416
vn 0.8756 0.3416 -0.3416
vn 0.8756 0.3416 0.3416
vn 0.8756 -0.3416 0.3416
vn 0.8756 -0.3416 -0.3416
vn -0.3416 0.3416 -0.8756
vn 0.3416 0.3416 -0.8756
vn 0.3416 -0.3416 -0.8756
vn -0.3416 -0.3416 -0.8756
usemtl Default_OBJ
s off
f 1/1/1 9/2/1 11/3/1
f 16/4/2 13/5/2 14/6/2
f 20/7/3 18/8/3 2/9/3
f 3/10/4 5/11/4 4/12/4
f 6/13/5 7/14/5 5/11/5
f 5/11/6 7/14/6 4/12/6
f 6/13/7 5/11/7 3/10/7
f 8/15/8 10/16/8 9/2/8
f 9/2/9 10/16/9 11/3/9
f 8/15/10 9/2/10 1/1/10
f 12/17/11 15/18/11 13/5/11
f 13/5/12 15/18/12 14/6/12
f 12/17/13 13/5/13 16/4/13
f 19/19/14 17/20/14 18/8/14
f 18/8/15 17/20/15 2/9/15
f 19/19/16 18/8/16 20/7/16
f 28/21/17 25/22/17 26/23/17
f 21/24/18 23/25/18 22/26/18
f 27/27/19 24/28/19 25/22/19
f 25/22/20 24/28/20 26/23/20
f 27/27/21 25/22/21 28/21/21
f 30/29/22 29/30/22 23/25/22
f 23/25/23 29/30/23 22/26/23
f 30/29/24 23/25/24 21/24/24
s 1
f 38/31/25 32/32/26 31/33/27 37/34/28
f 51/35/29 41/36/30 44/37/31 54/38/32
f 53/39/33 43/40/34 42/41/35 52/42/36
f 50/43/37 40/44/38 39/45/39 49/46/40
f 46/47/41 48/48/42 47/49/43 45/50/44
f 34/51/45 36/52/46 35/53/47 33/54/48
f 38/55/25 53/39/33 52/42/36 32/56/26
f 40/57/38 50/58/37 52/42/36 42/41/35
f 32/32/26 50/58/37 49/59/40 31/33/27
f 52/42/36 50/58/37 32/56/26
f 38/31/25 37/34/28 47/60/43 48/61/42
f 53/39/33 38/55/25 48/61/42
f 53/39/33 48/61/42 46/62/41 43/40/34
f 36/52/46 34/51/45 42/63/35 43/64/34
f 36/52/46 46/65/41 45/66/44 35/53/47
f 43/64/34 46/65/41 36/52/46
f 34/51/45 33/54/48 39/67/39 40/68/38
f 40/68/38 42/63/35 34/51/45
f 39/67/39 41/36/30 51/35/29 49/69/40
f 33/70/48 35/71/47 44/37/31 41/36/30
f 31/33/27 51/72/29 54/73/32 37/34/28
f 49/59/40 51/72/29 31/33/27
f 39/67/39 33/70/48 41/36/30
f 54/38/32 44/37/31 45/66/44 47/74/43
f 45/66/44 44/37/31 35/71/47
f 47/60/43 37/34/28 54/73/32
o m_GSO_Block_111_Instance.000_m_GSO_Block_111_Instance.006
v 0.445500 0.445500 -0.500000
v 0.445500 -0.445500 -0.500000
v 0.445500 0.445500 0.500000
v 0.445500 -0.445500 0.500000
v -0.445500 0.445500 0.500000
v -0.445500 -0.445500 0.500000
v -0.445500 0.445500 -0.500000
v -0.445500 -0.445500 -0.500000
v 0.500000 0.445500 0.445500
v 0.500000 -0.445500 0.445500
v 0.445500 0.500000 0.445500
v 0.445500 -0.500000 0.445500
v -0.445500 -0.500000 0.445500
v -0.445500 0.500000 0.445500
v -0.500000 0.445500 0.445500
v -0.500000 -0.445500 0.445500
v -0.500000 0.445500 -0.445500
v -0.500000 -0.445500 -0.445500
v 0.500000 0.445500 -0.445500
v 0.500000 -0.445500 -0.445500
v 0.445500 0.500000 -0.445500
v 0.445500 -0.500000 -0.445500
v -0.445500 -0.500000 -0.445500
v -0.445500 0.500000 -0.445500
vt 0.034919 0.696793
vt 0.074954 0.696793
vt 0.074954 0.808168
vt 0.034919 0.808168
vt 0.077402 0.696793
vt 0.117436 0.696793
vt 0.117437 0.808168
vt 0.077402 0.808168
vt 0.114988 0.933168
vt 0.074954 0.933168
vt 0.074954 0.821793
vt 0.114988 0.821793
vt 0.074954 0.933168
vt 0.034919 0.933168
vt 0.034919 0.821793
vt 0.074954 0.821793
vt 0.157471 0.926355
vt 0.117436 0.926355
vt 0.117437 0.814980
vt 0.157471 0.814980
vt 0.117437 0.689980
vt 0.157471 0.689980
vt 0.157471 0.801355
vt 0.117437 0.801355
vt 0.032471 0.821793
vt 0.032471 0.933168
vt 0.117437 0.814980
vt 0.077402 0.814980
vt 0.074954 0.939980
vt 0.034919 0.939980
vt 0.034919 0.689980
vt 0.074954 0.689980
vt 0.032471 0.808168
vt 0.032471 0.696793
vt 0.034919 0.814980
vt 0.074954 0.814980
vt 0.077402 0.689980
vt 0.117436 0.689980
vt 0.074954 0.939980
vt 0.114988 0.939980
vt 0.074954 0.808168
vt 0.074954 0.696793
vt 0.117436 0.933168
vt 0.117436 0.821793
vt 0.074954 0.814980
vt 0.034919 0.814980
vt 0.074954 0.814980
vt 0.114988 0.814980
vn 0.0000 0.0000 -1.0000
vn 0.0000 -0.0000 1.0000
vn 0.0000 -1.0000 -0.0000
vn 0.0000 1.0000 0.0000
vn -1.0000 0.0000 0.0000
vn 1.0000 0.0000 0.0000
vn 0.4606 0.4606 0.7588
vn 0.4606 0.7588 0.4606
vn -0.4606 0.7588 0.4606
vn -0.4606 0.4606 0.7588
vn -0.4606 -0.4606 0.7588
vn -0.7588 0.4606 0.4606
vn -0.7588 -0.4606 0.4606
vn -0.4606 0.7588 -0.4606
vn -0.7588 0.4606 -0.4606
vn 0.4606 -0.4606 -0.7588
vn 0.4606 0.4606 -0.7588
vn 0.7588 0.4606 -0.4606
vn 0.7588 -0.4606 -0.4606
vn -0.4606 0.4606 -0.7588
vn 0.4606 0.7588 -0.4606
vn 0.7588 0.4606 0.4606
vn 0.4606 -0.4606 0.7588
vn 0.7588 -0.4606 0.4606
vn 0.4606 -0.7588 0.4606
vn 0.4606 -0.7588 -0.4606
vn -0.4606 -0.7588 0.4606
vn -0.4606 -0.4606 -0.7588
vn -0.4606 -0.7588 -0.4606
vn -0.7588 -0.4606 -0.4606
usemtl Default_OBJ
s 1
f 55/75/49 56/76/49 62/77/49 61/78/49
f 58/79/50 57/80/50 59/81/50 60/82/50
f 76/83/51 66/84/51 67/85/51 77/86/51
f 78/87/52 68/88/52 65/89/52 75/90/52
f 70/91/53 69/92/53 71/93/53 72/94/53
f 74/95/54 73/96/54 63/97/54 64/98/54
f 57/99/55 65/89/56 68/88/57 59/100/58
f 60/82/59 59/81/58 69/101/60 70/102/61
f 78/87/62 71/103/63 69/104/60 68/88/57
f 68/88/57 69/104/60 59/100/58
f 56/76/64 55/75/65 73/105/66 74/106/67
f 55/75/65 61/78/68 78/107/62 75/108/69
f 63/109/70 73/110/66 75/90/69 65/89/56
f 73/105/66 55/75/65 75/108/69
f 65/89/56 57/99/55 63/109/70
f 58/79/71 64/111/72 63/112/70 57/80/55
f 64/113/72 66/84/73 76/83/74 74/114/67
f 60/82/59 67/115/75 66/116/73 58/79/71
f 64/111/72 58/79/71 66/116/73
f 74/114/67 76/83/74 56/117/64
f 62/118/76 56/117/64 76/83/74 77/86/77
f 62/77/76 72/119/78 71/120/63 61/78/68
f 77/86/77 67/85/75 70/121/61 72/122/78
f 77/86/77 72/122/78 62/118/76
f 78/107/62 61/78/68 71/120/63
f 70/102/61 67/115/75 60/82/59
