# Blender v2.80 (sub 74) OBJ File: ''
# www.blender.org
mtllib tofuu_ven_spoiler.mtl
o tofuu_ven_spoiler_m_GSO_Block_111_Instance.001_m_GSO_Block_111_Instance.008
v -0.520000 0.447482 -0.450498
v -0.200000 0.525023 -0.450704
v -0.450000 0.451445 -0.515500
v -0.500000 0.391530 -0.202453
v -0.141219 0.479621 -0.185645
v -0.520000 0.441944 -0.377918
v -0.220000 0.518517 -0.365446
v -0.500000 0.447482 -0.450498
v -0.300000 0.497641 -0.450671
v -0.450000 0.451445 -0.490500
v -0.460000 0.377287 -0.136615
v -0.300000 0.430474 -0.141929
v -0.500000 0.441944 -0.377918
v -0.300000 0.491445 -0.369473
v -0.300000 0.427573 -0.110682
v -0.440000 0.339603 -0.122784
v -0.500000 0.407573 -0.380682
v -0.500000 0.417573 -0.449070
v -0.445957 0.427573 -0.500682
v -0.481756 0.366763 -0.104330
v -0.462390 0.420897 -0.160865
v -0.475016 0.490386 -0.450559
v -0.480885 0.482519 -0.374567
v -0.250000 0.447482 -0.450498
v -0.250000 0.377287 -0.136615
v -0.225000 0.451445 -0.490500
v -0.250000 0.441944 -0.377918
v -0.187500 0.345155 -0.139882
v -0.187500 0.377483 -0.260534
v -0.187500 0.295155 -0.139882
v -0.187500 0.327483 -0.260534
v 0.520000 0.447482 -0.450498
v 0.200000 0.525023 -0.450704
v 0.450000 0.451445 -0.515500
v 0.000000 0.451445 -0.515500
v 0.000000 0.525023 -0.450705
v 0.500000 0.391530 -0.202453
v 0.141219 0.479621 -0.185645
v 0.000000 0.479621 -0.185645
v 0.520000 0.441944 -0.377918
v 0.220000 0.518517 -0.365446
v 0.000000 0.518517 -0.365447
v 0.500000 0.447482 -0.450498
v 0.300000 0.497641 -0.450671
v 0.450000 0.451445 -0.490500
v 0.000000 0.451445 -0.490500
v 0.000000 0.497641 -0.450671
v 0.000000 0.447482 -0.450498
v 0.460000 0.377287 -0.136615
v 0.300000 0.430474 -0.141929
v 0.000000 0.377287 -0.136615
v 0.000000 0.430474 -0.141929
v 0.500000 0.441944 -0.377918
v 0.300000 0.491445 -0.369473
v 0.000000 0.441944 -0.377918
v 0.000000 0.491445 -0.369473
v 0.300000 0.427573 -0.110682
v 0.000000 0.427573 -0.110682
v 0.440000 0.339603 -0.122784
v 0.000000 0.339603 -0.122784
v 0.500000 0.407573 -0.380682
v 0.000000 0.407573 -0.380682
v 0.000000 0.427573 -0.500682
v 0.000000 0.417573 -0.449070
v 0.500000 0.417573 -0.449070
v 0.445957 0.427573 -0.500682
v 0.000000 0.366763 -0.104330
v 0.481756 0.366763 -0.104330
v 0.462390 0.420897 -0.160865
v 0.475016 0.490386 -0.450559
v 0.480885 0.482519 -0.374567
v 0.250000 0.447482 -0.450498
v 0.250000 0.377287 -0.136615
v 0.225000 0.451445 -0.490500
v 0.250000 0.441944 -0.377918
v 0.000000 0.345155 -0.139882
v 0.000000 0.377483 -0.260534
v 0.187500 0.345155 -0.139882
v 0.187500 0.377483 -0.260534
v 0.000000 0.295155 -0.139882
v 0.000000 0.327483 -0.260534
v 0.187500 0.295155 -0.139882
v 0.187500 0.327483 -0.260534
vt 0.325123 0.519931
vt 0.306219 0.560205
vt 0.388673 0.560205
vt 0.388673 0.519931
vt 0.306219 0.575827
vt 0.388673 0.575827
vt 0.388719 0.583776
vt 0.397422 0.584502
vt 0.388724 0.589055
vt 0.306219 0.593196
vt 0.388673 0.593196
vt 0.354923 0.586573
vt 0.361539 0.575305
vt 0.380927 0.600456
vt 0.381762 0.587516
vt 0.512500 0.964585
vt 0.737500 0.964585
vt 0.737500 0.995010
vt 0.512500 0.995010
vt 0.737500 0.998102
vt 0.512500 0.998102
vt 0.104964 0.901501
vt 0.104982 0.911436
vt 0.109916 0.902286
vt 0.737500 1.000000
vt 0.625000 1.000000
vt 0.512500 1.000000
vt 0.500000 0.994409
vt 0.500000 0.962144
vt 0.500000 0.997950
vt 0.500000 0.995187
vt 0.625000 0.962144
vt 0.750000 0.962144
vt 0.388673 0.511692
vt 0.306219 0.511692
vt 0.388673 0.511692
vt 0.306219 0.511692
vt 0.305942 0.511692
vt 0.388951 0.511692
vt 0.388673 0.511692
vt 0.306219 0.511692
vt 0.388673 0.511692
vt 0.385866 0.511692
vt 0.309026 0.511692
vt 0.306219 0.511692
vt 0.382069 0.582761
vt 0.361413 0.571692
vt 0.625000 0.994409
vt 0.625000 0.997950
vt 0.625000 0.994798
vt 0.304958 0.949723
vt 0.388737 0.601648
vt 0.625000 0.994798
vt 0.750000 0.995187
vt 0.750000 0.995187
vt 0.625000 0.994798
vt 0.625000 0.994409
vt 0.625000 0.962144
vt 0.750000 0.997950
vt 0.750000 0.995187
vt 0.109916 0.901496
vt 0.750000 0.962144
vt 0.625000 0.962144
vt 0.625000 0.994409
vt 0.750000 0.994409
vt 0.750000 0.962144
vt 0.325123 0.519931
vt 0.306219 0.560205
vt 0.306219 0.575827
vt 0.388719 0.583776
vt 0.388724 0.589055
vt 0.397422 0.584502
vt 0.306219 0.593196
vt 0.354923 0.586573
vt 0.380927 0.600456
vt 0.361539 0.575305
vt 0.381762 0.587516
vt 0.512500 0.964585
vt 0.512500 0.995010
vt 0.512500 0.998102
vt 0.104964 0.901501
vt 0.109916 0.902286
vt 0.104982 0.911436
vt 0.512500 1.000000
vt 0.625000 1.000000
vt 0.500000 0.962144
vt 0.500000 0.994409
vt 0.500000 0.995187
vt 0.500000 0.997950
vt 0.625000 0.962144
vt 0.306219 0.511692
vt 0.306219 0.511692
vt 0.305942 0.511692
vt 0.306219 0.511692
vt 0.306219 0.511692
vt 0.309026 0.511692
vt 0.382069 0.582761
vt 0.361413 0.571692
vt 0.625000 0.994409
vt 0.625000 0.994798
vt 0.625000 0.997950
vt 0.304958 0.949723
vt 0.388737 0.601648
vt 0.625000 0.994798
vt 0.625000 0.994798
vt 0.625000 0.962144
vt 0.625000 0.994409
vt 0.625000 0.962144
vt 0.625000 0.994409
vn 0.0406 -0.9203 -0.3892
vn -0.0000 -0.9902 -0.1394
vn -0.0000 -0.9896 -0.1441
vn -0.0000 -0.9171 -0.3986
vn -0.0000 -0.9971 -0.0761
vn 0.5659 -0.5925 0.5733
vn 0.0101 -0.6799 0.7332
vn 0.0853 -0.8058 0.5860
vn 0.0000 -0.6609 0.7505
vn 0.1858 -0.8698 -0.4571
vn 0.1392 -0.9751 -0.1726
vn 0.1407 -0.9719 -0.1886
vn 0.1365 -0.9872 -0.0826
vn 0.0000 0.9659 0.2588
vn 0.0000 0.9858 0.1682
vn 0.0000 0.9971 0.0761
vn -0.2433 0.9699 -0.0103
vn -0.2431 0.9694 0.0348
vn -0.2383 0.9496 -0.2038
vn -0.0000 0.6530 -0.7574
vn -0.2662 0.9251 0.2706
vn -0.2557 0.9511 0.1731
vn -0.2551 0.9522 0.1681
vn -0.0000 0.0994 0.9950
vn 0.0000 -0.8214 -0.5703
vn 0.1333 -0.8979 -0.4196
vn -0.0000 -0.1039 -0.9946
vn 0.0000 0.9670 0.2549
vn 0.0000 0.9778 0.2095
vn 0.0000 0.9785 0.2061
vn 0.0000 0.9865 0.1638
vn 0.5794 0.4619 0.6716
vn 0.8561 0.5143 0.0520
vn 0.8403 0.5396 0.0534
vn 0.8481 0.5266 0.0580
vn 0.6149 0.7851 0.0747
vn 0.5796 0.8098 0.0913
vn 0.5729 0.8136 0.0988
vn -0.0000 -0.9866 -0.1633
vn -0.0362 -0.9770 -0.2102
vn -0.2390 -0.9379 -0.2513
vn -0.0000 -0.9659 -0.2588
vn -0.0000 -0.9966 -0.0829
vn -0.0000 -0.9962 -0.0873
vn -0.0000 -0.9951 -0.0986
vn 0.0000 0.5274 0.8496
vn -0.0000 0.5620 -0.8271
vn 0.1054 -0.8344 0.5409
vn 0.7403 -0.6180 -0.2647
vn 0.7525 -0.5984 -0.2752
vn 0.7664 -0.5744 -0.2875
vn 0.7047 -0.7085 -0.0361
vn 0.7210 -0.6784 -0.1412
vn 0.7218 -0.6759 -0.1486
vn 0.2259 -0.7411 -0.6323
vn 0.1248 -0.9911 -0.0464
vn -0.0000 0.0000 -1.0000
vn -0.4544 -0.8604 -0.2306
vn -0.0000 -0.9585 -0.2852
vn 0.0000 -0.8765 -0.4813
vn 0.0000 -0.1011 0.9949
vn -1.0000 0.0000 0.0000
vn 0.0000 0.0000 1.0000
vn -0.0406 -0.9203 -0.3892
vn -0.5659 -0.5925 0.5733
vn -0.0101 -0.6799 0.7332
vn -0.0853 -0.8058 0.5860
vn -0.1392 -0.9751 -0.1726
vn -0.1858 -0.8698 -0.4571
vn -0.1365 -0.9872 -0.0826
vn -0.1407 -0.9719 -0.1886
vn 0.2433 0.9699 -0.0103
vn 0.2383 0.9496 -0.2038
vn 0.2431 0.9694 0.0348
vn 0.2662 0.9251 0.2706
vn 0.2551 0.9522 0.1681
vn 0.2557 0.9511 0.1731
vn -0.1333 -0.8979 -0.4196
vn -0.5794 0.4619 0.6716
vn -0.8561 0.5143 0.0520
vn -0.8481 0.5266 0.0580
vn -0.8403 0.5396 0.0534
vn -0.6149 0.7851 0.0747
vn -0.5796 0.8098 0.0913
vn -0.5729 0.8136 0.0988
vn 0.2390 -0.9379 -0.2513
vn 0.0362 -0.9770 -0.2102
vn -0.1054 -0.8344 0.5409
vn -0.7403 -0.6180 -0.2647
vn -0.7664 -0.5744 -0.2875
vn -0.7525 -0.5984 -0.2752
vn -0.7047 -0.7085 -0.0361
vn -0.7218 -0.6759 -0.1486
vn -0.7210 -0.6784 -0.1412
vn -0.2259 -0.7411 -0.6323
vn -0.1248 -0.9911 -0.0464
vn 0.4544 -0.8604 -0.2306
vn 1.0000 0.0000 0.0000
usemtl Default_OBJ.021
s 1
f 5/1/1 7/2/2 42/3/3 39/4/4
f 7/2/2 2/5/5 36/6/5 42/3/3
f 1/7/6 3/8/6 22/9/6
f 2/5/7 3/10/8 35/11/9 36/6/9
f 5/12/1 21/13/10 7/14/11
f 7/14/11 23/15/12 22/9/13
f 12/16/14 52/17/14 56/18/15 14/19/15
f 14/19/15 56/18/15 47/20/16 9/21/16
f 8/22/17 9/23/18 10/24/19
f 9/21/20 47/20/20 46/25/20 26/26/20 10/27/20
f 12/16/21 14/19/22 13/28/23 11/29/21
f 14/19/22 9/21/18 8/30/17 13/31/23
f 12/16/24 11/29/24 25/32/24 51/33/24 52/17/24
f 5/1/1 39/4/4 58/34/25 15/35/26
f 15/35/27 58/34/27 67/36/27 20/37/27
f 16/38/28 60/39/28 62/40/29 17/41/30
f 17/41/30 62/40/29 64/42/31 63/43/31 19/44/31 18/45/31
f 1/7/32 18/45/32 19/44/32 3/10/32
f 6/46/33 17/41/34 18/45/35 1/7/35
f 4/47/36 16/38/37 17/41/34
f 16/38/37 4/47/36 20/37/38
f 13/28/39 27/48/40 25/32/41 11/29/42
f 8/30/43 24/49/44 27/50/40 13/28/39
f 10/27/45 26/26/45 24/51/44 8/30/43
f 19/44/46 63/43/46 35/11/46 3/10/46
f 20/37/47 67/36/47 60/39/47 16/38/47
f 22/9/48 3/8/8 2/52/7
f 4/47/49 21/13/50 20/37/51
f 22/9/52 23/15/53 6/46/54 1/7/52
f 23/15/53 21/13/50 4/47/49 6/46/54
f 20/37/55 21/13/10 15/35/26
f 5/12/1 15/35/26 21/13/10
f 7/14/11 21/13/10 23/15/12
f 22/9/13 2/52/56 7/14/11
f 29/53/57 77/54/57 81/55/57 31/56/57
f 25/32/41 27/48/40 29/57/58 28/58/58
f 27/50/40 24/49/44 48/59/44 55/60/59
f 24/51/44 26/26/45 46/25/45 48/61/44
f 27/50/40 55/60/59 77/54/60 29/53/60
f 51/33/61 25/32/61 28/58/61 76/62/61
f 30/63/42 31/64/42 81/65/42 80/66/42
f 28/58/62 29/57/62 31/64/62 30/63/62
f 76/62/63 28/58/63 30/63/63 80/66/63
f 17/41/34 6/46/33 4/47/36
f 38/67/64 39/4/4 42/3/3 41/68/2
f 41/68/2 42/3/3 36/6/5 33/69/5
f 32/70/65 70/71/65 34/72/65
f 33/69/66 36/6/9 35/11/9 34/73/67
f 38/74/64 41/75/68 69/76/69
f 41/75/68 70/71/70 71/77/71
f 50/78/14 54/79/15 56/18/15 52/17/14
f 54/79/15 44/80/16 47/20/16 56/18/15
f 43/81/72 45/82/73 44/83/74
f 44/80/20 45/84/20 74/85/20 46/25/20 47/20/20
f 50/78/75 49/86/75 53/87/76 54/79/77
f 54/79/77 53/88/76 43/89/72 44/80/74
f 50/78/24 52/17/24 51/33/24 73/90/24 49/86/24
f 38/67/64 57/91/78 58/34/25 39/4/4
f 57/91/27 68/92/27 67/36/27 58/34/27
f 59/93/28 61/94/30 62/40/29 60/39/28
f 61/94/30 65/95/31 66/96/31 63/43/31 64/42/31 62/40/29
f 32/70/79 34/73/79 66/96/79 65/95/79
f 40/97/80 32/70/81 65/95/81 61/94/82
f 37/98/83 61/94/82 59/93/84
f 59/93/84 68/92/85 37/98/83
f 53/87/39 49/86/42 73/90/86 75/99/87
f 43/89/43 53/87/39 75/100/87 72/101/44
f 45/84/45 43/89/43 72/102/44 74/85/45
f 66/96/46 34/73/46 35/11/46 63/43/46
f 68/92/47 59/93/47 60/39/47 67/36/47
f 70/71/88 33/103/66 34/72/67
f 37/98/89 68/92/90 69/76/91
f 70/71/92 32/70/92 40/97/93 71/77/94
f 71/77/94 40/97/93 37/98/89 69/76/91
f 68/92/95 57/91/78 69/76/69
f 38/74/64 69/76/69 57/91/78
f 41/75/68 71/77/71 69/76/69
f 70/71/70 41/75/68 33/103/96
f 79/104/57 83/105/57 81/55/57 77/54/57
f 73/90/86 78/106/97 79/107/97 75/99/87
f 75/100/87 55/60/59 48/59/44 72/101/44
f 72/102/44 48/61/44 46/25/45 74/85/45
f 75/100/87 79/104/60 77/54/60 55/60/59
f 51/33/61 76/62/61 78/106/61 73/90/61
f 82/108/42 80/66/42 81/65/42 83/109/42
f 78/106/98 82/108/98 83/109/98 79/107/98
f 76/62/63 80/66/63 82/108/63 78/106/63
f 61/94/82 37/98/83 40/97/80
