# Blender v2.80 (sub 74) OBJ File: 'battery.blend'
# www.blender.org
mtllib tofuu_battery.mtl
o m_GSO_Block_111_Instance.001_m_GSO_Block_111_Instance.004
v -0.132023 1.500000 -0.132022
v 0.000000 1.600000 0.000001
v -0.132023 1.500000 0.132023
v -0.132023 -0.500000 0.132023
v 0.000000 -0.600000 -0.000000
v -0.132023 -0.500000 -0.132022
v 0.132023 1.500000 -0.132022
v 0.132023 1.500000 0.132023
v 0.132023 -0.500000 0.132023
v 0.132023 -0.500000 -0.132022
v -0.446688 -0.446688 -0.547000
v 0.446688 -0.446688 -0.547000
v 0.446688 1.446688 -0.547000
v -0.446688 1.446688 -0.547000
v 0.446688 1.547000 -0.446688
v 0.446688 1.547000 0.446688
v -0.446688 1.547000 0.446688
v -0.446688 1.547000 -0.446688
v -0.446688 -0.547000 -0.446688
v -0.446688 -0.547000 0.446688
v 0.446688 -0.547000 0.446688
v 0.446688 -0.547000 -0.446688
v 0.547000 -0.446688 -0.446688
v 0.547000 -0.446688 0.446688
v 0.547000 1.446688 0.446688
v 0.547000 1.446688 -0.446688
v -0.547000 -0.446688 0.446688
v -0.547000 -0.446688 -0.446688
v -0.547000 1.446688 -0.446688
v -0.547000 1.446688 0.446688
v 0.446688 -0.446688 0.547000
v -0.446688 -0.446688 0.547000
v -0.446688 1.446688 0.547000
v 0.446688 1.446688 0.547000
vt 0.329998 0.472495
vt 0.343750 0.500000
vt 0.329998 0.527505
vt 0.329998 0.527505
vt 0.343750 0.500000
vt 0.329998 0.472495
vt 0.357502 0.472495
vt 0.357502 0.527505
vt 0.357502 0.527505
vt 0.357502 0.472495
vt 0.297220 0.406940
vt 0.390280 0.406940
vt 0.390280 0.593060
vt 0.297220 0.593060
vt 0.390280 0.406940
vt 0.390280 0.593060
vt 0.297220 0.593060
vt 0.297220 0.406940
vt 0.297220 0.406940
vt 0.297220 0.593060
vt 0.390280 0.593060
vt 0.390280 0.406940
vt 0.297220 0.406940
vt 0.297220 0.593060
vt 0.390280 0.593060
vt 0.390280 0.406940
vt 0.297220 0.593060
vt 0.297220 0.406940
vt 0.390280 0.406940
vt 0.390280 0.593060
vt 0.390280 0.406940
vt 0.297220 0.406940
vt 0.297220 0.593060
vt 0.390280 0.593060
vt 0.297220 0.392292
vt 0.390280 0.392292
vt 0.397604 0.593060
vt 0.397604 0.406940
vt 0.397604 0.593060
vt 0.289896 0.593060
vt 0.289896 0.406940
vt 0.289896 0.593060
vt 0.390280 0.392292
vt 0.297220 0.392292
vt 0.289896 0.406940
vt 0.289896 0.593060
vt 0.397604 0.593060
vt 0.397604 0.406940
vt 0.397604 0.406940
vt 0.390280 0.607708
vt 0.297220 0.607708
vt 0.390280 0.607708
vt 0.297220 0.607708
vt 0.289896 0.406940
vn 0.6038 -0.7971 0.0000
vn 0.6038 0.7971 0.0000
vn -0.6038 -0.7971 0.0000
vn 0.0000 -0.7971 -0.6038
vn 0.0000 -0.7971 0.6038
vn -0.6038 0.7971 0.0000
vn 0.0000 0.7971 0.6038
vn 0.0000 0.7971 -0.6038
vn 0.3416 0.3416 0.8756
vn -0.3416 0.3416 0.8756
vn -0.3416 -0.3416 0.8756
vn 0.3416 -0.3416 0.8756
vn -0.3416 -0.8756 0.3416
vn -0.3416 -0.8756 -0.3416
vn 0.3416 -0.8756 -0.3416
vn 0.3416 -0.8756 0.3416
vn 0.3416 0.8756 0.3416
vn 0.3416 0.8756 -0.3416
vn -0.3416 0.8756 -0.3416
vn -0.3416 0.8756 0.3416
vn -0.8756 0.3416 0.3416
vn -0.8756 0.3416 -0.3416
vn -0.8756 -0.3416 -0.3416
vn -0.8756 -0.3416 0.3416
vn 0.8756 0.3416 -0.3416
vn 0.8756 0.3416 0.3416
vn 0.8756 -0.3416 0.3416
vn 0.8756 -0.3416 -0.3416
vn -0.3416 0.3416 -0.8756
vn 0.3416 0.3416 -0.8756
vn 0.3416 -0.3416 -0.8756
vn -0.3416 -0.3416 -0.8756
usemtl Default_OBJ
s off
f 1/1/1 2/2/1 3/3/1
f 4/4/2 5/5/2 6/6/2
f 7/7/3 8/8/3 2/2/3
f 2/2/4 8/8/4 3/3/4
f 7/7/5 2/2/5 1/1/5
f 9/9/6 10/10/6 5/5/6
f 5/5/7 10/10/7 6/6/7
f 9/9/8 5/5/8 4/4/8
s 1
f 11/11/9 12/12/10 13/13/11 14/14/12
f 15/15/13 16/16/14 17/17/15 18/18/16
f 19/19/17 20/20/18 21/21/19 22/22/20
f 23/23/21 24/24/22 25/25/23 26/26/24
f 27/27/25 28/28/26 29/29/27 30/30/28
f 31/31/29 32/32/30 33/33/31 34/34/32
f 11/35/9 19/19/17 22/22/20 12/36/10
f 24/37/22 23/38/21 22/22/20 21/21/19
f 12/12/10 23/38/21 26/39/24 13/13/11
f 22/22/20 23/38/21 12/36/10
f 11/11/9 14/14/12 29/40/27 28/41/26
f 19/19/17 11/35/9 28/41/26
f 19/19/17 28/41/26 27/42/25 20/20/18
f 32/32/30 31/31/29 21/43/19 20/44/18
f 32/32/30 27/45/25 30/46/28 33/33/31
f 20/44/18 27/45/25 32/32/30
f 31/31/29 34/34/32 25/47/23 24/48/22
f 24/48/22 21/43/19 31/31/29
f 25/47/23 16/16/14 15/15/13 26/49/24
f 34/50/32 33/51/31 17/17/15 16/16/14
f 13/13/11 15/52/13 18/53/16 14/14/12
f 26/39/24 15/52/13 13/13/11
f 25/47/23 34/50/32 16/16/14
f 18/18/16 17/17/15 30/46/28 29/54/27
f 30/46/28 17/17/15 33/51/31
f 29/40/27 14/14/12 18/53/16
o m_GSO_Block_111_Instance.000_m_GSO_Block_111_Instance.006
v 0.445500 1.445500 -0.500000
v 0.445500 -0.445500 -0.500000
v 0.445500 1.445500 0.500000
v 0.445500 -0.445500 0.500000
v -0.445500 1.445500 0.500000
v -0.445500 -0.445500 0.500000
v -0.445500 1.445500 -0.500000
v -0.445500 -0.445500 -0.500000
v 0.500000 1.445500 0.445500
v 0.500000 -0.445500 0.445500
v 0.445500 1.500000 0.445500
v 0.445500 -0.500000 0.445500
v -0.445500 -0.500000 0.445500
v -0.445500 1.500000 0.445500
v -0.500000 1.445500 0.445500
v -0.500000 -0.445500 0.445500
v -0.500000 1.445500 -0.445500
v -0.500000 -0.445500 -0.445500
v 0.500000 1.445500 -0.445500
v 0.500000 -0.445500 -0.445500
v 0.445500 1.500000 -0.445500
v 0.445500 -0.500000 -0.445500
v -0.445500 -0.500000 -0.445500
v -0.445500 1.500000 -0.445500
v -0.292456 1.300950 -0.450000
v 0.292456 1.300950 -0.450000
v -0.292456 -0.300950 -0.450000
v 0.292456 -0.300950 -0.450000
v 0.292456 1.300950 0.450000
v 0.292456 -0.300950 0.450000
v -0.292456 1.300950 0.450000
v -0.292456 -0.300950 0.450000
v 0.450000 1.300950 -0.292456
v 0.450000 1.300950 0.292456
v 0.450000 -0.300950 -0.292456
v 0.450000 -0.300950 0.292456
v -0.450000 1.300950 0.292456
v -0.450000 -0.300950 0.292456
v -0.450000 1.300950 -0.292456
v -0.450000 -0.300950 -0.292456
v -0.290531 1.296940 -0.405000
v 0.290531 1.296940 -0.405000
v -0.290531 -0.296941 -0.405000
v 0.290531 -0.296941 -0.405000
v 0.290531 1.296940 0.405000
v 0.290531 -0.296940 0.405000
v -0.290531 1.296940 0.405000
v -0.290531 -0.296940 0.405000
v 0.405000 1.296940 -0.290531
v 0.405000 1.296940 0.290531
v 0.405000 -0.296941 -0.290531
v 0.405000 -0.296941 0.290531
v -0.405000 1.296940 0.290531
v -0.405000 -0.296941 0.290531
v -0.405000 1.296940 -0.290531
v -0.405000 -0.296941 -0.290531
vt 0.117436 0.933168
vt 0.117436 0.821793
vt 0.117436 0.821793
vt 0.117436 0.933168
vt 0.034919 0.814980
vt 0.074954 0.814980
vt 0.074954 0.814980
vt 0.034919 0.814980
vt 0.114988 0.933168
vt 0.074954 0.933168
vt 0.074954 0.821793
vt 0.114988 0.821793
vt 0.074954 0.933168
vt 0.034919 0.933168
vt 0.034919 0.821793
vt 0.074954 0.821793
vt 0.074954 0.814980
vt 0.034919 0.814980
vt 0.034919 0.814980
vt 0.074954 0.814980
vt 0.034919 0.808168
vt 0.034919 0.696793
vt 0.034919 0.696793
vt 0.034919 0.808168
vt 0.032471 0.821793
vt 0.032471 0.933168
vt 0.077402 0.808168
vt 0.117437 0.808168
vt 0.117437 0.814980
vt 0.077402 0.814980
vt 0.074954 0.939980
vt 0.034919 0.939980
vt 0.074954 0.696793
vt 0.034919 0.689980
vt 0.074954 0.689980
vt 0.032471 0.808168
vt 0.032471 0.696793
vt 0.077402 0.696793
vt 0.077402 0.689980
vt 0.117436 0.689980
vt 0.117436 0.696793
vt 0.074954 0.939980
vt 0.114988 0.939980
vt 0.074954 0.808168
vt 0.074954 0.696793
vt 0.074954 0.808168
vt 0.074954 0.814980
vt 0.114988 0.814980
vt 0.114988 0.814980
vt 0.074954 0.814980
vt 0.074954 0.814980
vt 0.114988 0.814980
vt 0.077402 0.808168
vt 0.077402 0.696793
vt 0.077402 0.696793
vt 0.077402 0.808168
vt 0.034919 0.939980
vt 0.074954 0.939980
vt 0.074954 0.939980
vt 0.034919 0.939980
vt 0.032471 0.821793
vt 0.032471 0.933168
vt 0.032471 0.933168
vt 0.032471 0.821793
vt 0.114988 0.939980
vt 0.074954 0.939980
vt 0.117436 0.696793
vt 0.077402 0.689980
vt 0.117436 0.689980
vt 0.074954 0.696793
vt 0.034919 0.689980
vt 0.074954 0.689980
vt 0.074954 0.808168
vt 0.117437 0.814980
vt 0.077402 0.814980
vt 0.117437 0.808168
vt 0.034919 0.808168
vt 0.074954 0.808168
vt 0.034919 0.689980
vt 0.074954 0.689980
vt 0.117437 0.808168
vt 0.034919 0.696793
vt 0.074954 0.814980
vt 0.034919 0.814980
vt 0.034919 0.814980
vt 0.074954 0.814980
vt 0.117436 0.821793
vt 0.117436 0.933168
vt 0.114988 0.939980
vt 0.074954 0.939980
vt 0.117436 0.696793
vt 0.117437 0.814980
vt 0.077402 0.814980
vt 0.074954 0.696793
vt 0.077402 0.689980
vt 0.117436 0.689980
vn -0.1647 0.1622 -0.9729
vn 0.1647 0.1622 -0.9729
vn 0.1575 0.1697 -0.9728
vn -0.1575 0.1697 -0.9728
vn -0.9729 -0.1622 0.1647
vn -0.9729 0.1622 0.1647
vn -0.9728 0.1697 0.1575
vn -0.9728 -0.1697 0.1575
vn 0.0000 -1.0000 -0.0000
vn 0.0000 1.0000 0.0000
vn 0.9729 -0.1622 0.1647
vn 0.9729 -0.1622 -0.1647
vn 0.9728 -0.1697 -0.1575
vn 0.9728 -0.1697 0.1575
vn 0.1647 -0.1622 -0.9729
vn -0.1647 -0.1622 -0.9729
vn -0.1575 -0.1697 -0.9728
vn 0.1575 -0.1697 -0.9728
vn 0.4606 0.4606 0.7588
vn 0.4606 0.7588 0.4606
vn -0.4606 0.7588 0.4606
vn -0.4606 0.4606 0.7588
vn -0.4606 -0.4606 0.7588
vn -0.7588 0.4606 0.4606
vn -0.7588 -0.4606 0.4606
vn -0.4606 0.7588 -0.4606
vn -0.7588 0.4606 -0.4606
vn 0.4606 -0.4606 -0.7588
vn 0.4606 0.4606 -0.7588
vn 0.7588 0.4606 -0.4606
vn 0.7588 -0.4606 -0.4606
vn -0.4606 0.4606 -0.7588
vn 0.4606 0.7588 -0.4606
vn 0.7588 0.4606 0.4606
vn 0.4606 -0.4606 0.7588
vn 0.7588 -0.4606 0.4606
vn 0.4606 -0.7588 0.4606
vn 0.4606 -0.7588 -0.4606
vn -0.4606 -0.7588 0.4606
vn -0.4606 -0.4606 -0.7588
vn -0.4606 -0.7588 -0.4606
vn -0.7588 -0.4606 -0.4606
vn -0.0887 0.9961 0.0000
vn 0.0000 0.9961 0.0887
vn -0.0887 -0.9961 0.0000
vn 0.0000 -0.9961 0.0887
vn 0.9729 0.1622 -0.1647
vn 0.9729 0.1622 0.1647
vn 0.9728 0.1697 0.1575
vn 0.9728 0.1697 -0.1575
vn -0.1647 0.1622 0.9729
vn -0.1647 -0.1622 0.9729
vn -0.1575 -0.1697 0.9728
vn -0.1575 0.1697 0.9728
vn -0.9729 -0.1622 -0.1647
vn -0.9728 -0.1697 -0.1575
vn 0.1647 -0.1622 0.9729
vn 0.1575 -0.1697 0.9728
vn -0.9729 0.1622 -0.1647
vn -0.9728 0.1697 -0.1575
vn 0.1647 0.1622 0.9729
vn 0.1575 0.1697 0.9728
vn 0.9991 -0.0000 -0.0427
vn 0.0427 -0.0000 0.9991
vn 0.9991 0.0000 0.0427
vn 0.0000 -0.9961 -0.0887
vn -0.0427 -0.0000 0.9991
vn 0.0887 -0.9961 0.0000
vn 0.0000 0.9961 -0.0887
vn 0.0887 0.9961 0.0000
vn -0.9991 0.0000 0.0427
vn -0.0427 0.0000 -0.9991
vn -0.9991 -0.0000 -0.0427
vn 0.0427 0.0000 -0.9991
usemtl Default_OBJ
s 1
f 36/55/33 42/56/34 61/57/35 62/58/36
f 51/59/37 52/60/38 74/61/39 73/62/40
f 56/63/41 46/64/41 47/65/41 57/66/41
f 58/67/42 48/68/42 45/69/42 55/70/42
f 53/71/43 43/72/44 68/73/45 67/74/46
f 41/75/47 35/76/48 60/77/49 59/78/50
f 37/79/51 45/69/52 48/68/53 39/80/54
f 40/81/55 39/82/54 49/83/56 50/84/57
f 58/67/58 51/85/59 49/86/56 48/68/53
f 48/68/53 49/86/56 39/80/54
f 36/87/60 35/76/61 53/88/62 54/89/63
f 35/76/61 41/75/64 58/90/58 55/91/65
f 43/72/66 53/71/62 55/70/65 45/69/52
f 53/88/62 35/76/61 55/91/65
f 45/69/52 37/79/51 43/72/66
f 38/92/67 44/93/68 43/94/66 37/95/51
f 44/96/68 46/64/69 56/63/70 54/97/63
f 40/81/55 47/98/71 46/99/69 38/92/67
f 44/93/68 38/92/67 46/99/69
f 54/97/63 56/63/70 36/55/60
f 42/56/72 36/55/60 56/63/70 57/66/73
f 42/100/72 52/60/74 51/59/59 41/75/64
f 57/66/73 47/65/71 50/101/57 52/102/74
f 57/66/73 52/102/74 42/56/72
f 58/90/58 41/75/64 51/59/59
f 50/84/57 47/98/71 40/81/55
f 74/103/75 72/104/75 88/105/75 90/106/75
f 66/107/76 64/108/76 80/109/76 82/110/76
f 71/111/77 73/112/77 89/113/77 87/114/77
f 63/115/78 65/116/78 81/117/78 79/118/78
f 44/96/79 54/97/80 69/119/81 70/120/82
f 38/92/83 37/95/84 63/121/85 64/108/86
f 43/94/44 44/93/79 70/122/82 68/123/45
f 35/76/48 36/87/33 62/124/36 60/77/49
f 49/86/87 51/85/37 73/112/40 71/111/88
f 37/79/84 39/80/89 65/116/90 63/115/85
f 52/102/38 50/101/91 72/104/92 74/103/39
f 40/81/93 38/92/83 64/108/86 66/107/94
f 54/89/80 53/88/43 67/125/46 69/126/81
f 42/100/34 41/75/47 59/78/50 61/127/35
f 50/84/91 49/83/87 71/128/88 72/129/92
f 39/82/89 40/81/93 66/107/94 65/130/90
f 61/127/95 59/78/95 75/131/95 77/132/95
f 69/126/96 67/125/96 83/133/96 85/134/96
f 65/130/97 66/107/97 82/110/97 81/135/97
f 59/78/98 60/77/98 76/136/98 75/131/98
f 73/62/99 74/61/99 90/137/99 89/138/99
f 67/74/100 68/73/100 84/139/100 83/140/100
f 62/58/101 61/57/101 77/141/101 78/142/101
f 70/120/102 69/119/102 85/143/102 86/144/102
f 64/108/103 63/121/103 79/145/103 80/109/103
f 72/129/104 71/128/104 87/146/104 88/147/104
f 60/77/105 62/124/105 78/148/105 76/136/105
f 68/123/106 70/122/106 86/149/106 84/150/106
o m_GSO_Block_111_Instance.002_m_GSO_Block_111_Instance.009
v -0.317552 1.296940 -0.405000
v 0.317552 1.296940 -0.405000
v -0.317552 -0.296941 -0.405000
v 0.317552 -0.296941 -0.405000
v 0.317552 1.296940 0.405000
v 0.317552 -0.296940 0.405000
v -0.317552 1.296940 0.405000
v -0.317552 -0.296940 0.405000
v 0.405000 1.296940 -0.317552
v 0.405000 1.296940 0.317552
v 0.405000 -0.296941 -0.317552
v 0.405000 -0.296941 0.317552
v -0.405000 1.296940 0.317552
v -0.405000 -0.296941 0.317552
v -0.405000 1.296940 -0.317552
v -0.405000 -0.296941 -0.317552
vt 0.132954 0.598010
vt 0.132954 0.401990
vt 0.054546 0.401990
vt 0.054546 0.598010
vt 0.132954 0.401990
vt 0.132954 0.598010
vt 0.054546 0.598010
vt 0.054546 0.401990
vt 0.044745 0.578408
vt 0.142755 0.578408
vt 0.142755 0.421592
vt 0.044745 0.421592
vt 0.044745 0.421592
vt 0.142755 0.421592
vt 0.142755 0.578408
vt 0.044745 0.578408
vn 0.2678 0.3485 -0.8982
vn 0.2678 -0.3485 -0.8982
vn -0.2678 -0.3485 -0.8982
vn -0.2678 0.3485 -0.8982
vn 0.2678 -0.3485 0.8982
vn 0.2678 0.3485 0.8982
vn -0.2678 0.3485 0.8982
vn -0.2678 -0.3485 0.8982
vn -0.8982 -0.3485 0.2678
vn -0.8982 0.3485 0.2678
vn -0.8982 0.3485 -0.2678
vn -0.8982 -0.3485 -0.2678
vn 0.8982 -0.3485 -0.2678
vn 0.8982 0.3485 -0.2678
vn 0.8982 0.3485 0.2678
vn 0.8982 -0.3485 0.2678
usemtl Default_OBJ
s 1
f 92/151/107 94/152/108 93/153/109 91/154/110
f 96/155/111 95/156/112 97/157/113 98/158/114
f 104/159/115 103/160/116 105/161/117 106/162/118
f 101/163/119 99/164/120 100/165/121 102/166/122
