# Blender v2.82 (sub 7) OBJ File: 'GT_Biofuel_Tank.blend'
# www.blender.org
mtllib GT_Large_Biofuel_Tank_LED_3.mtl
v 0.625676 0.069609 -0.490000
v 0.625676 0.075938 -0.490000
v 0.625676 0.056953 -0.490000
v 0.625676 0.063281 -0.490000
v 0.625676 0.088594 -0.490000
v 0.644050 0.088594 -0.490000
v 0.625676 -0.025312 -0.490000
v 0.625676 -0.006328 -0.490000
v 0.625676 0.000000 -0.490000
v 0.625676 -0.018984 -0.490000
v 0.735917 -0.088594 -0.490000
v 0.680796 -0.088594 -0.490000
v 0.772663 -0.088594 -0.490000
v 0.625676 -0.082266 -0.490000
v 0.625676 -0.075937 -0.490000
v 0.625676 -0.056953 -0.490000
v 0.625676 -0.069609 -0.490000
v 0.754290 0.088594 -0.490000
v 0.625676 0.025313 -0.490000
v 0.625676 0.006328 -0.490000
v 0.625676 0.037969 -0.490000
v 0.791037 0.088594 -0.490000
v 0.791037 0.031641 -0.490000
v 0.791037 0.025313 -0.490000
v 0.791037 0.050625 -0.490000
v 0.791037 0.012656 -0.490000
v 0.791037 0.018984 -0.490000
v 0.791037 0.075938 -0.490000
v 0.791037 -0.063281 -0.490000
v 0.791037 -0.056953 -0.490000
v 0.791037 -0.018984 -0.490000
v 0.791037 -0.012656 -0.490000
v 0.791037 -0.025312 -0.490000
v 0.791037 -0.044297 -0.490000
v 0.680796 0.088594 1.490000
v 0.699170 0.088594 1.490000
v 0.625676 -0.025313 1.490000
v 0.625676 -0.082266 1.490000
v 0.791037 -0.088594 1.490000
v 0.680796 -0.088594 1.490000
v 0.662423 -0.088594 1.490000
v 0.717543 -0.088594 1.490000
v 0.699170 -0.088594 1.490000
v 0.625676 0.025312 1.490000
v 0.625676 0.006328 1.490000
v 0.625676 0.082266 1.490000
v 0.625676 -0.050625 1.490000
v 0.625676 -0.063281 1.490000
v 0.625676 -0.006328 1.490000
v 0.625676 -0.018984 1.490000
v 0.625676 -0.012656 1.490000
v 0.754290 0.088594 1.490000
v 0.735917 0.088594 1.490000
v 0.791037 -0.018984 1.490000
v 0.791037 0.031641 1.490000
v 0.791037 0.037969 1.490000
v 0.791037 0.006328 1.490000
v 0.791037 0.012656 1.490000
v 0.791037 -0.000000 1.490000
v 0.791037 0.056953 1.490000
v 0.791037 0.063281 1.490000
v 0.791037 -0.031641 1.490000
v 0.791037 0.018984 1.490000
v 0.791037 0.044297 1.490000
v 0.791037 -0.056953 1.490000
v 0.625676 0.082266 -0.490000
v 0.662423 0.088594 -0.490000
v 0.625676 -0.031641 -0.490000
v 0.625676 -0.044297 -0.490000
v 0.625676 -0.037969 -0.490000
v 0.625676 -0.012656 -0.490000
v 0.717543 -0.088594 -0.490000
v 0.699170 -0.088594 -0.490000
v 0.754290 -0.088594 -0.490000
v 0.644050 -0.088594 -0.490000
v 0.662423 -0.088594 -0.490000
v 0.625676 -0.050625 -0.490000
v 0.625676 -0.063281 -0.490000
v 0.772663 0.088594 -0.490000
v 0.625676 0.018984 -0.490000
v 0.625676 0.012656 -0.490000
v 0.625676 0.044297 -0.490000
v 0.625676 0.050625 -0.490000
v 0.625676 0.031641 -0.490000
v 0.699170 0.088594 -0.490000
v 0.717543 0.088594 -0.490000
v 0.735917 0.088594 -0.490000
v 0.680796 0.088594 -0.490000
v 0.791037 -0.088594 -0.490000
v 0.625676 -0.088594 -0.490000
v 0.791037 0.037969 -0.490000
v 0.791037 0.044297 -0.490000
v 0.791037 0.006328 -0.490000
v 0.791037 0.000000 -0.490000
v 0.791037 0.082266 -0.490000
v 0.791037 0.056953 -0.490000
v 0.791037 0.063281 -0.490000
v 0.791037 0.069609 -0.490000
v 0.791037 -0.069609 -0.490000
v 0.791037 -0.075937 -0.490000
v 0.791037 -0.050625 -0.490000
v 0.791037 -0.082266 -0.490000
v 0.791037 -0.006328 -0.490000
v 0.791037 -0.037969 -0.490000
v 0.791037 -0.031641 -0.490000
v 0.662423 0.088594 1.490000
v 0.717543 0.088594 1.490000
v 0.625676 -0.031641 1.490000
v 0.625676 -0.044297 1.490000
v 0.625676 -0.037969 1.490000
v 0.625676 -0.075938 1.490000
v 0.644050 -0.088594 1.490000
v 0.625676 -0.088594 1.490000
v 0.754290 -0.088594 1.490000
v 0.735917 -0.088594 1.490000
v 0.772663 -0.088594 1.490000
v 0.625676 0.069609 1.490000
v 0.625676 0.075937 1.490000
v 0.625676 0.056953 1.490000
v 0.625676 0.063281 1.490000
v 0.625676 0.018984 1.490000
v 0.625676 0.012656 1.490000
v 0.625676 0.044297 1.490000
v 0.625676 0.050625 1.490000
v 0.625676 0.031641 1.490000
v 0.625676 0.037969 1.490000
v 0.625676 0.088594 1.490000
v 0.644050 0.088594 1.490000
v 0.625676 -0.056953 1.490000
v 0.625676 -0.069609 1.490000
v 0.625676 -0.000000 1.490000
v 0.791037 0.088594 1.490000
v 0.772663 0.088594 1.490000
v 0.791037 0.082266 1.490000
v 0.791037 0.075937 1.490000
v 0.791037 -0.012656 1.490000
v 0.791037 -0.025313 1.490000
v 0.791037 -0.069609 1.490000
v 0.791037 -0.063281 1.490000
v 0.791037 -0.075938 1.490000
v 0.791037 0.025312 1.490000
v 0.791037 -0.044297 1.490000
v 0.791037 -0.037969 1.490000
v 0.791037 -0.050625 1.490000
v 0.791037 0.050625 1.490000
v 0.791037 0.069609 1.490000
v 0.791037 -0.082266 1.490000
v 0.791037 -0.006328 1.490000
vt 1.000000 0.107143
vt 1.000000 0.071429
vt 0.888889 0.000000
vt 0.999999 0.928571
vt 0.888889 1.000000
vt 0.999999 0.892857
vt 0.000000 0.750000
vt 0.000000 0.785714
vt 0.222222 1.000000
vt 0.000000 0.821428
vt 0.333333 1.000000
vt 0.000000 0.857143
vt 0.000000 0.892857
vt 0.111111 1.000000
vt 0.000000 0.928571
vt 0.000000 0.714285
vt 0.000000 0.678571
vt 0.000000 0.964286
vt 0.000000 0.642857
vt 0.000000 1.000000
vt 0.444444 1.000000
vt 0.000000 0.607143
vt 0.000000 0.535714
vt 0.000000 0.571429
vt 0.555555 1.000000
vt 0.666666 1.000000
vt 1.000000 0.642857
vt 1.000000 0.535714
vt 0.000000 0.464286
vt 0.000000 0.500000
vt 1.000000 0.500000
vt 1.000000 0.678571
vt 0.999999 0.714285
vt 0.777777 1.000000
vt 0.999999 0.750000
vt 0.888888 1.000000
vt 0.999999 0.857143
vt 1.000000 0.571429
vt 0.000000 0.392857
vt 0.000000 0.428571
vt 0.444445 0.000000
vt 1.000000 0.607143
vt 0.999999 1.000000
vt 0.999999 0.964286
vt 0.000000 0.321428
vt 0.000000 0.357143
vt 0.333334 0.000000
vt 0.999999 0.928571
vt 0.999999 0.892857
vt 0.999999 0.821428
vt 0.000000 0.214286
vt 0.000000 0.250000
vt 0.222222 0.000000
vt 0.000000 0.285714
vt 1.000000 0.464285
vt 0.999999 0.785714
vt 0.000000 0.107143
vt 0.000000 0.142857
vt 0.111111 0.000000
vt 0.000000 0.178571
vt 0.000000 0.035714
vt 0.000000 0.071429
vt 1.000000 0.428571
vt 0.555556 0.000000
vt 0.000000 0.000000
vt 1.000000 0.392857
vt 1.000000 0.357143
vt 0.777778 0.000000
vt 0.666667 0.000000
vt 1.000000 0.250000
vt 1.000000 0.285714
vt 1.000000 0.321428
vt 1.000000 0.035714
vt 1.000000 0.000000
vt 1.000000 0.142857
vt 1.000000 0.214286
vt 1.000000 0.178571
vt 0.000000 0.250000
vt 0.000000 0.214286
vt 0.222222 0.000000
vt 0.000000 0.178571
vt 0.000000 0.142857
vt 0.000000 0.107143
vt 0.111111 0.000000
vt 0.000000 0.071429
vt 0.000000 0.285714
vt 0.333333 0.000000
vt 0.000000 0.035714
vt 0.000000 0.321429
vt 0.000000 0.000000
vt 0.000000 0.357143
vt 0.000000 0.392857
vt 0.444445 0.000000
vt 0.000000 0.464286
vt 0.000000 0.428572
vt 0.555556 0.000000
vt 0.666667 0.000000
vt 1.000000 0.357143
vt 1.000000 0.464286
vt 0.000000 0.535714
vt 0.000000 0.500000
vt 1.000000 0.500000
vt 0.777778 0.000000
vt 1.000000 0.250000
vt 0.888889 0.000000
vt 1.000000 0.142857
vt 1.000000 0.035714
vt 1.000000 0.000000
vt 1.000000 0.428572
vt 0.000000 0.607143
vt 0.000000 0.571429
vt 0.444444 1.000000
vt 1.000000 0.535714
vt 1.000000 0.071429
vt 1.000000 0.107143
vt 0.000000 0.714286
vt 0.000000 0.678572
vt 0.333333 1.000000
vt 0.000000 0.642857
vt 1.000000 0.178571
vt 1.000000 0.214286
vt 0.000000 0.821428
vt 0.000000 0.785714
vt 0.222222 1.000000
vt 0.000000 0.750000
vt 1.000000 0.285714
vt 1.000000 0.321429
vt 0.000000 0.928571
vt 0.000000 0.892857
vt 0.111111 1.000000
vt 0.000000 0.857143
vt 1.000000 0.392857
vt 0.000000 1.000000
vt 0.000000 0.964286
vt 0.999999 0.571429
vt 0.999999 0.607143
vt 0.555555 1.000000
vt 0.999999 0.642857
vt 0.777777 1.000000
vt 0.666666 1.000000
vt 0.999999 0.750000
vt 0.999999 0.678572
vt 0.999999 0.714286
vt 0.999999 0.785714
vt 0.999999 0.821428
vt 0.999999 0.964286
vt 0.999999 1.000000
vt 0.999999 0.857143
vn -0.0000 0.0000 -1.0000
vn 0.0000 0.0000 1.0000
usemtl _auto_.003
s 1
f 99/1/1 100/2/1 13/3/1
f 135/4/2 133/5/2 146/6/2
f 82/7/1 83/8/1 67/9/1
f 83/8/1 3/10/1 67/9/1
f 82/7/1 67/9/1 88/11/1
f 4/12/1 1/13/1 6/14/1
f 1/13/1 2/15/1 6/14/1
f 21/16/1 82/7/1 88/11/1
f 21/16/1 88/11/1 84/17/1
f 2/15/1 66/18/1 6/14/1
f 84/17/1 88/11/1 19/19/1
f 66/18/1 5/20/1 6/14/1
f 19/19/1 88/11/1 85/21/1
f 80/22/1 19/19/1 85/21/1
f 3/10/1 4/12/1 67/9/1
f 4/12/1 6/14/1 67/9/1
f 20/23/1 81/24/1 85/21/1
f 81/24/1 80/22/1 85/21/1
f 85/21/1 86/25/1 20/23/1
f 86/25/1 87/26/1 24/27/1
f 20/23/1 86/25/1 93/28/1
f 8/29/1 9/30/1 94/31/1
f 9/30/1 20/23/1 93/28/1
f 23/32/1 87/26/1 91/33/1
f 87/26/1 18/34/1 92/35/1
f 18/34/1 79/36/1 97/37/1
f 86/25/1 26/38/1 93/28/1
f 10/39/1 71/40/1 73/41/1
f 71/40/1 8/29/1 73/41/1
f 87/26/1 23/32/1 24/27/1
f 26/38/1 86/25/1 27/42/1
f 79/36/1 22/43/1 95/44/1
f 91/33/1 87/26/1 92/35/1
f 68/45/1 7/46/1 12/47/1
f 7/46/1 10/39/1 73/41/1
f 86/25/1 24/27/1 27/42/1
f 79/36/1 95/44/1 28/48/1
f 98/49/1 97/37/1 79/36/1
f 97/37/1 96/50/1 18/34/1
f 79/36/1 28/48/1 98/49/1
f 77/51/1 69/52/1 76/53/1
f 69/52/1 70/54/1 12/47/1
f 103/55/1 8/29/1 94/31/1
f 70/54/1 68/45/1 12/47/1
f 9/30/1 93/28/1 94/31/1
f 25/56/1 92/35/1 18/34/1
f 25/56/1 18/34/1 96/50/1
f 8/29/1 103/55/1 73/41/1
f 17/57/1 78/58/1 75/59/1
f 78/58/1 16/60/1 76/53/1
f 16/60/1 77/51/1 76/53/1
f 7/46/1 73/41/1 12/47/1
f 14/61/1 15/62/1 75/59/1
f 15/62/1 17/57/1 75/59/1
f 103/55/1 32/63/1 72/64/1
f 75/59/1 90/65/1 14/61/1
f 12/47/1 76/53/1 69/52/1
f 76/53/1 75/59/1 78/58/1
f 32/63/1 31/66/1 72/64/1
f 31/66/1 33/67/1 72/64/1
f 74/68/1 11/69/1 34/70/1
f 11/69/1 72/64/1 33/67/1
f 11/69/1 104/71/1 34/70/1
f 72/64/1 73/41/1 103/55/1
f 105/72/1 11/69/1 33/67/1
f 105/72/1 104/71/1 11/69/1
f 102/73/1 89/74/1 13/3/1
f 13/3/1 74/68/1 29/75/1
f 34/70/1 101/76/1 74/68/1
f 101/76/1 30/77/1 74/68/1
f 74/68/1 30/77/1 29/75/1
f 100/2/1 102/73/1 13/3/1
f 29/75/1 99/1/1 13/3/1
f 109/78/2 47/79/2 41/80/2
f 47/79/2 129/81/2 41/80/2
f 48/82/2 130/83/2 112/84/2
f 130/83/2 111/85/2 112/84/2
f 110/86/2 109/78/2 40/87/2
f 111/85/2 38/88/2 112/84/2
f 108/89/2 110/86/2 40/87/2
f 109/78/2 41/80/2 40/87/2
f 38/88/2 113/90/2 112/84/2
f 37/91/2 108/89/2 40/87/2
f 50/92/2 37/91/2 43/93/2
f 129/81/2 48/82/2 41/80/2
f 48/82/2 112/84/2 41/80/2
f 40/87/2 43/93/2 37/91/2
f 49/94/2 51/95/2 43/93/2
f 51/95/2 50/92/2 43/93/2
f 43/93/2 42/96/2 49/94/2
f 42/96/2 115/97/2 137/98/2
f 49/94/2 42/96/2 148/99/2
f 45/100/2 131/101/2 59/102/2
f 131/101/2 49/94/2 148/99/2
f 115/97/2 114/103/2 142/104/2
f 114/103/2 116/105/2 139/106/2
f 147/107/2 116/105/2 39/108/2
f 148/99/2 42/96/2 136/109/2
f 121/110/2 122/111/2 36/112/2
f 122/111/2 45/100/2 36/112/2
f 57/113/2 45/100/2 59/102/2
f 59/102/2 131/101/2 148/99/2
f 116/105/2 147/107/2 140/114/2
f 140/114/2 138/115/2 116/105/2
f 45/100/2 57/113/2 36/112/2
f 126/116/2 125/117/2 35/118/2
f 125/117/2 44/119/2 35/118/2
f 36/112/2 44/119/2 121/110/2
f 116/105/2 138/115/2 139/106/2
f 139/106/2 65/120/2 114/103/2
f 65/120/2 144/121/2 114/103/2
f 114/103/2 144/121/2 142/104/2
f 44/119/2 36/112/2 35/118/2
f 119/122/2 124/123/2 106/124/2
f 124/123/2 123/125/2 106/124/2
f 35/118/2 123/125/2 126/116/2
f 142/104/2 143/126/2 115/97/2
f 143/126/2 62/127/2 115/97/2
f 123/125/2 35/118/2 106/124/2
f 118/128/2 117/129/2 128/130/2
f 117/129/2 120/131/2 128/130/2
f 106/124/2 120/131/2 119/122/2
f 137/98/2 54/132/2 42/96/2
f 54/132/2 136/109/2 42/96/2
f 115/97/2 62/127/2 137/98/2
f 120/131/2 106/124/2 128/130/2
f 128/130/2 127/133/2 46/134/2
f 46/134/2 118/128/2 128/130/2
f 58/135/2 63/136/2 107/137/2
f 63/136/2 141/138/2 107/137/2
f 58/135/2 107/137/2 57/113/2
f 36/112/2 57/113/2 107/137/2
f 52/139/2 53/140/2 64/141/2
f 53/140/2 107/137/2 141/138/2
f 53/140/2 55/142/2 56/143/2
f 56/143/2 64/141/2 53/140/2
f 53/140/2 141/138/2 55/142/2
f 52/139/2 145/144/2 60/145/2
f 134/146/2 132/147/2 133/5/2
f 133/5/2 52/139/2 61/148/2
f 145/144/2 52/139/2 64/141/2
f 133/5/2 61/148/2 146/6/2
f 60/145/2 61/148/2 52/139/2
f 134/146/2 133/5/2 135/4/2
