# Blender v2.76 (sub 0) OBJ File: ''
# www.blender.org
mtllib BF_pacemaker.mtl
o Plane_Plane.001
v 0.140261 0.450000 -0.338619
v -0.338619 0.450000 0.140261
v -0.338619 0.450000 -0.140260
v -0.140261 0.450000 0.338619
v -0.259169 0.450000 0.259168
v 0.000000 0.450000 0.366519
v 0.259169 0.450000 0.259168
v 0.140261 0.450000 0.338619
v 0.338619 0.450000 0.140261
v 0.000000 0.450000 -0.366519
v -0.140261 0.450000 -0.338619
v 0.259169 0.450000 -0.259168
v 0.338619 0.450000 -0.140260
v 0.366519 0.450000 0.000000
v -0.366519 0.450000 0.000000
v -0.259168 0.450000 -0.259169
v 0.129488 0.450000 -0.312612
v -0.312612 0.450000 0.129488
v -0.312612 0.450000 -0.129488
v -0.129488 0.450000 0.312612
v -0.239263 0.450000 0.239262
v 0.000000 0.450000 0.338369
v 0.239263 0.450000 0.239262
v 0.129488 0.450000 0.312612
v 0.312612 0.450000 0.129488
v 0.000000 0.450000 -0.338369
v -0.129488 0.450000 -0.312612
v 0.239263 0.450000 -0.239262
v 0.312612 0.450000 -0.129488
v 0.338369 0.450000 0.000000
v -0.338369 0.450000 0.000000
v -0.239262 0.450000 -0.239263
v 0.154713 0.450000 0.237377
v 0.154713 0.450000 -0.236941
v -0.274876 0.450000 0.000218
v 0.157297 0.450000 -0.379749
v -0.379749 0.450000 0.157297
v -0.379749 0.450000 -0.157297
v -0.157297 0.450000 0.379749
v -0.290648 0.450000 0.290647
v 0.000000 0.450000 0.411038
v 0.290648 0.450000 0.290647
v 0.157297 0.450000 0.379749
v 0.379749 0.450000 0.157297
v 0.000000 0.450000 -0.411038
v -0.157297 0.450000 -0.379749
v 0.290648 0.450000 -0.290647
v 0.379749 0.450000 -0.157297
v 0.411038 0.450000 0.000000
v -0.411038 0.450000 0.000000
v -0.290647 0.450000 -0.290648
v 0.140261 0.450000 -0.338619
v -0.338619 0.450000 0.140261
v -0.338619 0.450000 -0.140260
v -0.140261 0.450000 0.338619
v -0.259169 0.450000 0.259168
v 0.000000 0.450000 0.366519
v 0.259169 0.450000 0.259168
v 0.140261 0.450000 0.338619
v 0.338619 0.450000 0.140261
v 0.000000 0.450000 -0.366519
v -0.140261 0.450000 -0.338619
v 0.259169 0.450000 -0.259168
v 0.338619 0.450000 -0.140260
v 0.366519 0.450000 0.000000
v -0.366519 0.450000 0.000000
v -0.259168 0.450000 -0.259169
v 0.154713 0.450000 0.237377
v 0.154713 0.450000 -0.236941
v -0.274876 0.450000 0.000218
v 0.500001 0.450000 -0.500001
v -0.450001 0.400000 -0.500001
v -0.500001 0.450000 -0.500001
v 0.450001 0.400000 -0.500001
v -0.450001 -0.450000 -0.500001
v 0.450001 -0.450000 -0.500001
v -0.500001 -0.450000 -0.450001
v -0.450001 0.400000 -0.500001
v -0.450001 -0.450000 -0.500001
v -0.500001 0.400000 -0.450001
v -0.500001 0.400000 -0.450001
v -0.500001 0.450000 -0.500001
v -0.450001 0.400000 -0.500001
v 0.500001 0.450000 0.500001
v 0.500001 0.400000 -0.450001
v 0.500001 0.450000 -0.500001
v 0.500001 0.400000 0.450001
v 0.500001 -0.450000 -0.450001
v 0.500001 -0.450000 0.450001
v 0.450001 -0.450000 -0.500001
v 0.500001 0.400000 -0.450001
v 0.500001 -0.450000 -0.450001
v 0.450001 0.400000 -0.500001
v 0.450001 0.400000 -0.500001
v 0.500001 0.450000 -0.500001
v 0.500001 0.400000 -0.450001
v -0.500001 0.450000 0.500001
v 0.450001 0.400000 0.500001
v 0.500001 0.450000 0.500001
v -0.450001 0.400000 0.500001
v 0.450001 -0.450000 0.500001
v -0.450001 -0.450000 0.500001
v 0.500001 -0.450000 0.450001
v 0.450001 0.400000 0.500001
v 0.450001 -0.450000 0.500001
v 0.500001 0.400000 0.450001
v 0.500001 0.400000 0.450001
v 0.500001 0.450000 0.500001
v 0.450001 0.400000 0.500001
v -0.500001 0.450000 -0.500001
v -0.500001 0.400000 0.450001
v -0.500001 0.450000 0.500001
v -0.500001 0.400000 -0.450001
v -0.500001 -0.450000 0.450001
v -0.500001 -0.450000 -0.450001
v -0.450001 -0.450000 0.500001
v -0.500001 0.400000 0.450001
v -0.500001 -0.450000 0.450001
v -0.450001 0.400000 0.500001
v -0.450001 0.400000 0.500001
v -0.500001 0.450000 0.500001
v -0.500001 0.400000 0.450001
v -0.600001 -0.000000 0.000001
v -0.500000 0.132023 -0.132022
v -0.500001 -0.132023 -0.132022
v -0.500000 0.132023 -0.132022
v -0.600001 -0.000000 0.000001
v -0.500000 0.132023 0.132023
v -0.600001 -0.000000 0.000001
v -0.500000 -0.132023 0.132024
v -0.500000 0.132023 0.132023
v -0.500000 -0.132023 0.132024
v -0.600001 -0.000000 0.000001
v -0.500001 -0.132023 -0.132022
v 0.000000 0.000000 -0.600001
v 0.132023 0.132023 -0.500000
v 0.132023 -0.132022 -0.500000
v 0.132023 0.132023 -0.500000
v 0.000000 0.000000 -0.600001
v -0.132023 0.132023 -0.500001
v 0.000000 0.000000 -0.600001
v -0.132022 -0.132023 -0.500001
v -0.132023 0.132023 -0.500001
v -0.132022 -0.132023 -0.500001
v 0.000000 0.000000 -0.600001
v 0.132023 -0.132022 -0.500000
v 0.600001 0.000000 0.000000
v 0.500000 -0.132022 0.132023
v 0.500001 -0.132023 -0.132023
v 0.500000 -0.132022 0.132023
v 0.600001 0.000000 0.000000
v 0.500001 0.132022 0.132023
v 0.600001 0.000000 0.000000
v 0.500001 0.132022 -0.132023
v 0.500001 0.132022 0.132023
v 0.500001 0.132022 -0.132023
v 0.600001 0.000000 0.000000
v 0.500001 -0.132023 -0.132023
v 0.000000 0.000001 0.600001
v -0.132023 -0.132022 0.500000
v 0.132023 -0.132022 0.500001
v -0.132023 -0.132022 0.500000
v 0.000000 0.000001 0.600001
v -0.132023 0.132023 0.500000
v 0.000000 0.000001 0.600001
v 0.132023 0.132023 0.500000
v -0.132023 0.132023 0.500000
v 0.132023 0.132023 0.500000
v 0.000000 0.000001 0.600001
v 0.132023 -0.132022 0.500001
v 0.500001 0.500000 -0.500001
v -0.500001 0.450000 -0.500001
v -0.500001 0.500000 -0.500001
v 0.500001 0.450000 -0.500001
v 0.500001 0.500000 0.500001
v 0.500001 0.450000 -0.500001
v 0.500001 0.500000 -0.500001
v 0.500001 0.450000 0.500001
v -0.500001 0.500000 0.500001
v 0.500001 0.450000 0.500001
v 0.500001 0.500000 0.500001
v -0.500001 0.450000 0.500001
v -0.500001 0.500000 -0.500001
v -0.500001 0.450000 0.500001
v -0.500001 0.500000 0.500001
v -0.500001 0.450000 -0.500001
v -0.450001 -0.500000 -0.450001
v 0.450001 -0.500000 0.450001
v -0.450001 -0.500000 0.450001
v -0.090457 -0.500000 -0.450001
v 0.450001 -0.500000 -0.450001
v -0.500001 -0.450000 -0.450001
v -0.450001 -0.450000 -0.500001
v -0.450001 -0.500000 -0.450001
v 0.450001 -0.500000 -0.450001
v 0.450001 -0.450000 -0.500001
v 0.500001 -0.450000 -0.450001
v 0.450001 -0.500000 0.450001
v 0.500001 -0.450000 0.450001
v 0.450001 -0.450000 0.500001
v -0.500001 -0.450000 0.450001
v -0.450001 -0.500000 0.450001
v -0.450001 -0.450000 0.500001
v 0.450001 -0.450000 -0.500001
v -0.450001 -0.500000 -0.450001
v -0.450001 -0.450000 -0.500001
v -0.090457 -0.500000 -0.450001
v 0.450001 -0.500000 -0.450001
v 0.450001 -0.500000 -0.450001
v 0.500001 -0.450000 0.450001
v 0.450001 -0.500000 0.450001
v 0.500001 -0.450000 -0.450001
v 0.450001 -0.500000 0.450001
v -0.450001 -0.450000 0.500001
v -0.450001 -0.500000 0.450001
v 0.450001 -0.450000 0.500001
v -0.450001 -0.500000 0.450001
v -0.500001 -0.450000 -0.450001
v -0.450001 -0.500000 -0.450001
v -0.500001 -0.450000 0.450001
v 0.000001 -0.599999 -0.000000
v -0.132022 -0.499999 0.132023
v -0.132022 -0.499999 -0.132023
v -0.132022 -0.499999 0.132023
v 0.000001 -0.599999 -0.000000
v 0.132023 -0.499999 0.132023
v 0.000001 -0.599999 -0.000000
v 0.132023 -0.499999 -0.132023
v 0.132023 -0.499999 0.132023
v 0.132023 -0.499999 -0.132023
v 0.000001 -0.599999 -0.000000
v -0.132022 -0.499999 -0.132023
v 0.415603 0.500000 0.172148
v 0.318089 0.500000 0.318089
v 0.500001 0.500000 0.500001
v 0.297544 0.481191 0.297544
v 0.388760 0.481191 0.161030
v 0.449845 0.500000 0.000000
v 0.420791 0.481191 0.000000
v 0.379749 0.450000 0.157297
v 0.411038 0.450000 0.000000
v 0.290648 0.450000 0.290647
v 0.157297 0.450000 0.379749
v 0.161030 0.481191 0.388760
v 0.172148 0.500000 0.415603
v 0.000000 0.450000 0.411038
v 0.000000 0.481191 0.420791
v 0.000000 0.500000 0.449845
v -0.157297 0.450000 0.379749
v -0.161030 0.481191 0.388760
v -0.172148 0.500000 0.415603
v -0.290647 0.450000 0.290648
v -0.297544 0.481191 0.297544
v -0.318088 0.500000 0.318089
v -0.379749 0.450000 0.157297
v -0.388760 0.481191 0.161030
v -0.415603 0.500000 0.172148
v -0.411038 0.450000 0.000000
v -0.420791 0.481191 0.000000
v -0.449845 0.500000 0.000000
v -0.379749 0.450000 -0.157297
v -0.388760 0.481191 -0.161029
v -0.415603 0.500000 -0.172148
v -0.290648 0.450000 -0.290647
v -0.297544 0.481191 -0.297544
v -0.318089 0.500000 -0.318088
v -0.157297 0.450000 -0.379749
v -0.161030 0.481191 -0.388760
v -0.172148 0.500000 -0.415603
v 0.000000 0.450000 -0.411038
v 0.000000 0.481191 -0.420791
v 0.000000 0.500000 -0.449845
v 0.157297 0.450000 -0.379749
v 0.161030 0.481191 -0.388760
v 0.172148 0.500000 -0.415603
v 0.290648 0.450000 -0.290647
v 0.297544 0.481191 -0.297544
v 0.318089 0.500000 -0.318088
v 0.500001 0.500000 -0.500001
v 0.379749 0.450000 -0.157297
v 0.388760 0.481191 -0.161030
v 0.415603 0.500000 -0.172148
v -0.500001 0.500000 0.500001
v -0.172148 0.500000 0.415603
v -0.318088 0.500000 0.318089
v -0.500001 0.500000 0.500001
v -0.415603 0.500000 0.172148
v -0.449845 0.500000 0.000000
v -0.415603 0.500000 -0.172148
v -0.318089 0.500000 -0.318088
v -0.500001 0.500000 -0.500001
v -0.172148 0.500000 -0.415603
v 0.000000 0.500000 -0.449845
v 0.500001 0.500000 -0.500001
v -0.500001 0.500000 -0.500001
v -0.500001 0.500000 0.500001
vt 0.810634 0.047043
vt 0.810236 0.047309
vt 0.808648 0.045722
vt 0.800270 0.053968
vt 0.800668 0.053702
vt 0.802256 0.055289
vt 0.806668 0.044393
vt 0.806574 0.044863
vt 0.804330 0.044863
vt 0.804236 0.056618
vt 0.804330 0.056148
vt 0.806575 0.056148
vt 0.799340 0.051721
vt 0.799809 0.051628
vt 0.801990 0.045324
vt 0.802256 0.045722
vt 0.800668 0.047309
vt 0.808914 0.055687
vt 0.808648 0.055289
vt 0.810236 0.053702
vt 0.811564 0.051721
vt 0.811095 0.051628
vt 0.811095 0.049383
vt 0.810634 0.053968
vt 0.801990 0.055687
vt 0.808914 0.045324
vt 0.799340 0.049290
vt 0.799809 0.049383
vt 0.811564 0.049290
vt 0.804236 0.044393
vt 0.806668 0.056618
vt 0.800270 0.047043
vt 0.529765 0.031140
vt 0.528801 0.030501
vt 0.530501 0.028800
vt 0.535129 0.027880
vt 0.538672 0.031896
vt 0.533871 0.039080
vt 0.528801 0.037350
vt 0.539051 0.030501
vt 0.539972 0.032723
vt 0.539972 0.035128
vt 0.539051 0.037350
vt 0.522317 0.031518
vt 0.523641 0.031782
vt 0.523641 0.036120
vt 0.525301 0.040128
vt 0.524178 0.040878
vt 0.528369 0.043195
vt 0.532377 0.044855
vt 0.532113 0.046180
vt 0.536715 0.044855
vt 0.540723 0.043195
vt 0.541473 0.044318
vt 0.543790 0.040128
vt 0.545450 0.036120
vt 0.546775 0.036383
vt 0.545450 0.031782
vt 0.543790 0.027774
vt 0.544913 0.027024
vt 0.540723 0.024706
vt 0.536715 0.023046
vt 0.536978 0.021722
vt 0.532377 0.023046
vt 0.528369 0.024706
vt 0.527618 0.023584
vt 0.525301 0.027774
vt 0.532723 0.027880
vt 0.537351 0.028800
vt 0.527880 0.035128
vt 0.527880 0.032723
vt 0.532723 0.039971
vt 0.530501 0.039051
vt 0.537351 0.039051
vt 0.535129 0.039971
vt 0.522317 0.036383
vt 0.527619 0.044318
vt 0.536978 0.046180
vt 0.544913 0.040878
vt 0.546775 0.031518
vt 0.541473 0.023583
vt 0.532113 0.021722
vt 0.524178 0.027024
vt 0.762159 0.118860
vt 0.762159 0.100934
vt 0.778394 0.109897
vt 0.970149 0.920627
vt 0.875880 0.915666
vt 0.870918 0.920627
vt 0.965187 0.915666
vt 0.875880 0.831320
vt 0.965187 0.831320
vt 0.870918 0.831320
vt 0.870918 0.915666
vt 0.970149 0.828839
vt 0.970149 0.823878
vt 0.965187 0.823878
vt 0.970149 0.915666
vt 0.970149 0.831320
vt 0.870918 0.918147
vt 0.870918 0.923108
vt 0.875880 0.923108
vt 0.965187 0.923108
vt 0.970149 0.923108
vt 0.970149 0.918147
vt 0.031246 0.031498
vt 0.060715 0.060967
vt 0.060715 0.002028
vt 0.001776 0.060967
vt 0.001776 0.002028
vt 0.277627 0.890320
vt 0.282687 0.789117
vt 0.277627 0.789117
vt 0.282687 0.890320
vt 0.176425 0.890320
vt 0.277627 0.895380
vt 0.176424 0.895380
vt 0.176425 0.789117
vt 0.171364 0.890320
vt 0.171364 0.789117
vt 0.176424 0.784056
vt 0.277627 0.784057
vt 0.965187 0.828839
vt 0.875880 0.918147
vt 0.965187 0.918147
vt 0.929510 0.828839
vt 0.875880 0.828839
vt 0.875880 0.823878
vt 0.870918 0.828839
vt 0.965187 0.826358
vt 0.875880 0.826358
vt 0.124577 0.931111
vt 0.115805 0.944239
vt 0.132170 0.960604
vt 0.113957 0.942391
vt 0.122162 0.930110
vt 0.127658 0.915624
vt 0.125044 0.915624
vt 0.121352 0.929775
vt 0.124167 0.915624
vt 0.113336 0.941771
vt 0.101340 0.949786
vt 0.101676 0.950597
vt 0.102676 0.953012
vt 0.087190 0.952601
vt 0.087190 0.953478
vt 0.087190 0.956092
vt 0.073040 0.949786
vt 0.072704 0.950597
vt 0.071704 0.953012
vt 0.061043 0.941771
vt 0.060423 0.942391
vt 0.058575 0.944239
vt 0.053028 0.929775
vt 0.052217 0.930110
vt 0.049803 0.931111
vt 0.050213 0.915624
vt 0.049336 0.915624
vt 0.046722 0.915624
vt 0.053028 0.901474
vt 0.052217 0.901138
vt 0.049803 0.900138
vt 0.061043 0.889478
vt 0.060423 0.888857
vt 0.058575 0.887009
vt 0.073040 0.881462
vt 0.072704 0.880652
vt 0.071704 0.878237
vt 0.087190 0.878648
vt 0.087190 0.877770
vt 0.087190 0.875157
vt 0.101340 0.881462
vt 0.101676 0.880652
vt 0.102676 0.878237
vt 0.113336 0.889478
vt 0.113957 0.888857
vt 0.115805 0.887009
vt 0.132170 0.870645
vt 0.121352 0.901474
vt 0.122162 0.901138
vt 0.124577 0.900138
vt 0.087190 0.960604
vt 0.042210 0.915624
vn 0.000000 1.000000 0.000000
vn 0.000000 0.000000 -1.000000
vn -0.707100 0.000000 -0.707100
vn -0.577400 -0.577400 -0.577400
vn 1.000000 0.000000 0.000000
vn 0.707100 0.000000 -0.707100
vn 0.577400 -0.577400 -0.577400
vn 0.000000 0.000000 1.000000
vn 0.707100 -0.000000 0.707100
vn 0.577300 -0.577400 0.577300
vn -1.000000 0.000000 0.000000
vn -0.707100 -0.000000 0.707100
vn -0.577300 -0.577400 0.577300
vn -0.797100 0.000000 -0.603800
vn -0.797100 0.603800 0.000000
vn -0.797100 0.000000 0.603800
vn -0.797100 -0.603800 0.000000
vn 0.603800 0.000000 -0.797100
vn 0.000000 0.603800 -0.797100
vn -0.603800 -0.000000 -0.797100
vn 0.000000 -0.603800 -0.797100
vn 0.797100 -0.603800 0.000000
vn 0.797100 -0.000000 0.603800
vn 0.797100 0.603800 0.000000
vn 0.797100 0.000000 -0.603800
vn -0.000000 -0.603800 0.797100
vn -0.603800 -0.000000 0.797100
vn 0.000000 0.603800 0.797100
vn 0.603800 0.000000 0.797100
vn 0.000000 -1.000000 -0.000000
vn -0.577400 -0.577300 -0.577400
vn 0.577400 -0.577300 -0.577400
vn 0.577300 -0.577400 0.577400
vn -0.577300 -0.577400 0.577400
vn 0.000000 -0.707100 -0.707100
vn 0.707100 -0.707100 -0.000000
vn 0.000000 -0.707100 0.707100
vn -0.707100 -0.707100 -0.000000
vn -0.603800 -0.797100 0.000000
vn 0.000000 -0.797100 0.603800
vn 0.603800 -0.797100 0.000000
vn 0.000000 -0.797100 -0.603800
vn -0.231100 0.968200 -0.095700
vn -0.176900 0.968200 -0.176900
vn -0.551300 0.626100 -0.551300
vn -0.720400 0.626100 -0.298400
vn -0.250200 0.968200 -0.000000
vn -0.779700 0.626100 -0.000000
vn -0.881800 0.298500 -0.365200
vn -0.954400 0.298400 -0.000000
vn -0.674900 0.298400 -0.674900
vn -0.365200 0.298500 -0.881800
vn -0.298400 0.626100 -0.720400
vn -0.095700 0.968200 -0.231100
vn 0.000000 0.298400 -0.954400
vn 0.000000 0.626100 -0.779700
vn 0.000000 0.968200 -0.250200
vn 0.365200 0.298500 -0.881800
vn 0.298400 0.626100 -0.720400
vn 0.095700 0.968200 -0.231100
vn 0.674900 0.298400 -0.674900
vn 0.551400 0.626100 -0.551300
vn 0.176900 0.968200 -0.176900
vn 0.881800 0.298500 -0.365200
vn 0.720400 0.626100 -0.298400
vn 0.231100 0.968200 -0.095700
vn 0.954400 0.298400 0.000000
vn 0.779700 0.626100 0.000000
vn 0.250100 0.968200 -0.000000
vn 0.881800 0.298400 0.365200
vn 0.720400 0.626100 0.298400
vn 0.231100 0.968200 0.095700
vn 0.674900 0.298400 0.674900
vn 0.551300 0.626100 0.551400
vn 0.176900 0.968200 0.176900
vn 0.365200 0.298500 0.881800
vn 0.298400 0.626100 0.720400
vn 0.095800 0.968200 0.231100
vn -0.000000 0.298400 0.954400
vn -0.000000 0.626100 0.779700
vn 0.000000 0.968200 0.250200
vn -0.365200 0.298500 0.881800
vn -0.298400 0.626100 0.720400
vn -0.095700 0.968200 0.231100
vn -0.674900 0.298400 0.674900
vn -0.551300 0.626100 0.551400
vn -0.176900 0.968200 0.176900
vn -0.881800 0.298500 0.365200
vn -0.720400 0.626100 0.298400
vn -0.231100 0.968200 0.095700
vn 0.095700 0.968200 0.231100
vn -0.000000 0.968200 0.250100
usemtl None
s off
f 9/1/1 25/2/1 23/3/1
f 3/4/1 19/5/1 32/6/1
f 8/7/1 24/8/1 22/9/1
f 11/10/1 27/11/1 26/12/1
f 3/4/1 15/13/1 31/14/1
f 4/15/1 20/16/1 21/17/1
f 1/18/1 17/19/1 28/20/1
f 13/21/1 29/22/1 30/23/1
f 13/21/1 12/24/1 28/20/1
f 11/10/1 16/25/1 32/6/1
f 8/7/1 7/26/1 23/3/1
f 2/27/1 18/28/1 31/14/1
f 9/1/1 14/29/1 30/23/1
f 4/15/1 6/30/1 22/9/1
f 1/18/1 10/31/1 26/12/1
f 2/27/1 5/32/1 21/17/1
f 35/33/1 31/34/1 18/35/1
f 20/36/1 33/37/1 35/33/1
f 34/38/1 27/39/1 35/33/1
f 24/40/1 23/41/1 33/37/1
f 33/37/1 25/42/1 30/43/1
f 38/44/1 54/45/1 67/46/1
f 67/46/1 62/47/1 46/48/1
f 46/48/1 62/47/1 61/49/1
f 61/49/1 52/50/1 36/51/1
f 36/51/1 52/50/1 63/52/1
f 63/52/1 64/53/1 48/54/1
f 48/54/1 64/53/1 65/55/1
f 65/55/1 60/56/1 44/57/1
f 44/57/1 60/56/1 58/58/1
f 58/58/1 59/59/1 43/60/1
f 43/60/1 59/59/1 57/61/1
f 57/61/1 55/62/1 39/63/1
f 39/63/1 55/62/1 56/64/1
f 56/64/1 53/65/1 37/66/1
f 37/66/1 53/65/1 66/67/1
f 66/67/1 54/45/1 38/44/1
f 18/35/1 21/68/1 35/33/1
f 20/36/1 22/69/1 33/37/1
f 24/40/1 33/37/1 22/69/1
f 35/33/1 21/68/1 20/36/1
f 32/70/1 19/71/1 35/33/1
f 31/34/1 35/33/1 19/71/1
f 34/38/1 17/72/1 26/73/1
f 26/73/1 27/39/1 34/38/1
f 32/70/1 35/33/1 27/39/1
f 30/43/1 29/74/1 34/38/1
f 28/75/1 17/72/1 34/38/1
f 34/38/1 33/37/1 30/43/1
f 23/41/1 25/42/1 33/37/1
f 29/74/1 28/75/1 34/38/1
f 7/26/1 9/1/1 23/3/1
f 16/25/1 3/4/1 32/6/1
f 6/30/1 8/7/1 22/9/1
f 10/31/1 11/10/1 26/12/1
f 19/5/1 3/4/1 31/14/1
f 5/32/1 4/15/1 21/17/1
f 12/24/1 1/18/1 28/20/1
f 14/29/1 13/21/1 30/23/1
f 29/22/1 13/21/1 28/20/1
f 27/11/1 11/10/1 32/6/1
f 24/8/1 8/7/1 23/3/1
f 15/13/1 2/27/1 31/14/1
f 25/2/1 9/1/1 30/23/1
f 20/16/1 4/15/1 22/9/1
f 17/19/1 1/18/1 26/12/1
f 18/28/1 2/27/1 21/17/1
f 51/76/1 38/44/1 67/46/1
f 51/76/1 67/46/1 46/48/1
f 45/77/1 46/48/1 61/49/1
f 45/77/1 61/49/1 36/51/1
f 47/78/1 36/51/1 63/52/1
f 47/78/1 63/52/1 48/54/1
f 49/79/1 48/54/1 65/55/1
f 49/79/1 65/55/1 44/57/1
f 42/80/1 44/57/1 58/58/1
f 42/80/1 58/58/1 43/60/1
f 41/81/1 43/60/1 57/61/1
f 41/81/1 57/61/1 39/63/1
f 40/82/1 39/63/1 56/64/1
f 40/82/1 56/64/1 37/66/1
f 50/83/1 37/66/1 66/67/1
f 50/83/1 66/67/1 38/44/1
s 1
f 68/84/1 69/85/1 70/86/1
f 71/87/2 72/88/2 73/89/2
f 71/87/2 74/90/2 72/88/2
f 72/88/2 74/90/2 75/91/2
f 75/91/2 74/90/2 76/92/2
f 77/93/3 78/88/3 79/91/3
f 78/88/3 77/93/3 80/94/3
f 81/95/4 82/96/4 83/97/4
f 84/87/5 85/88/5 86/89/5
f 84/87/5 87/90/5 85/88/5
f 85/88/5 87/90/5 88/91/5
f 88/91/5 87/90/5 89/92/5
f 90/93/6 91/88/6 92/91/6
f 91/88/6 90/93/6 93/94/6
f 94/94/7 95/89/7 96/88/7
f 97/87/8 98/88/8 99/89/8
f 97/87/8 100/90/8 98/88/8
f 98/88/8 100/90/8 101/91/8
f 101/91/8 100/90/8 102/92/8
f 103/92/9 104/98/9 105/99/9
f 104/98/9 103/92/9 106/90/9
f 107/100/10 108/101/10 109/102/10
f 110/87/11 111/88/11 112/89/11
f 110/87/11 113/90/11 111/88/11
f 111/88/11 113/90/11 114/91/11
f 114/91/11 113/90/11 115/92/11
f 116/93/12 117/88/12 118/91/12
f 117/88/12 116/93/12 119/94/12
f 120/103/13 121/104/13 122/105/13
f 123/106/14 124/107/14 125/108/14
f 126/107/15 127/106/15 128/109/15
f 129/106/16 130/110/16 131/109/16
f 132/110/17 133/106/17 134/108/17
f 135/106/18 136/108/18 137/107/18
f 138/108/19 139/106/19 140/110/19
f 141/106/20 142/109/20 143/110/20
f 144/109/21 145/106/21 146/107/21
f 147/106/22 148/108/22 149/107/22
f 150/108/23 151/106/23 152/110/23
f 153/106/24 154/109/24 155/110/24
f 156/109/25 157/106/25 158/107/25
f 159/106/26 160/107/26 161/108/26
f 162/107/27 163/106/27 164/109/27
f 165/106/28 166/110/28 167/109/28
f 168/110/29 169/106/29 170/108/29
f 171/111/2 172/112/2 173/113/2
f 172/112/2 171/111/2 174/114/2
f 175/115/5 176/116/5 177/111/5
f 176/116/5 175/115/5 178/117/5
f 179/118/8 180/119/8 181/115/8
f 180/119/8 179/118/8 182/120/8
f 183/113/11 184/121/11 185/118/11
f 184/121/11 183/113/11 186/122/11
f 187/123/30 188/124/30 189/125/30
f 187/123/30 190/126/30 188/124/30
f 188/124/30 190/126/30 191/127/30
f 192/95/31 193/97/31 194/123/31
f 195/127/32 196/128/32 197/129/32
f 198/130/33 199/92/33 200/99/33
f 201/99/34 202/130/34 203/92/34
f 204/128/35 205/123/35 206/97/35
f 204/128/35 207/126/35 205/123/35
f 204/128/35 208/127/35 207/126/35
f 209/127/36 210/100/36 211/124/36
f 210/100/36 209/127/36 212/129/36
f 213/131/37 214/92/37 215/130/37
f 214/92/37 213/131/37 216/91/37
f 217/125/38 218/95/38 219/123/38
f 218/95/38 217/125/38 220/105/38
f 221/106/39 222/107/39 223/108/39
f 224/107/40 225/106/40 226/109/40
f 227/106/41 228/110/41 229/109/41
f 230/110/42 231/106/42 232/108/42
f 233/132/43 234/133/44 235/134/1
f 233/132/43 236/135/45 234/133/44
f 236/135/45 233/132/43 237/136/46
f 238/137/47 237/136/46 233/132/43
f 233/132/43 235/134/1 238/137/47
f 237/136/46 238/137/47 239/138/48
f 239/138/48 240/139/49 237/136/46
f 240/139/49 239/138/48 241/140/50
f 242/141/51 237/136/46 240/139/49
f 237/136/46 242/141/51 236/135/45
f 243/142/52 236/135/45 242/141/51
f 236/135/45 243/142/52 244/143/53
f 244/143/53 234/133/44 236/135/45
f 234/133/44 244/143/53 245/144/54
f 235/134/1 234/133/44 245/144/54
f 246/145/55 244/143/53 243/142/52
f 244/143/53 246/145/55 247/146/56
f 247/146/56 245/144/54 244/143/53
f 245/144/54 247/146/56 248/147/57
f 235/134/1 245/144/54 248/147/57
f 249/148/58 247/146/56 246/145/55
f 247/146/56 249/148/58 250/149/59
f 250/149/59 248/147/57 247/146/56
f 248/147/57 250/149/59 251/150/60
f 252/151/61 250/149/59 249/148/58
f 250/149/59 252/151/61 253/152/62
f 253/152/62 251/150/60 250/149/59
f 251/150/60 253/152/62 254/153/63
f 255/154/64 253/152/62 252/151/61
f 253/152/62 255/154/64 256/155/65
f 256/155/65 254/153/63 253/152/62
f 254/153/63 256/155/65 257/156/66
f 258/157/67 256/155/65 255/154/64
f 256/155/65 258/157/67 259/158/68
f 259/158/68 257/156/66 256/155/65
f 257/156/66 259/158/68 260/159/69
f 261/160/70 259/158/68 258/157/67
f 259/158/68 261/160/70 262/161/71
f 262/161/71 260/159/69 259/158/68
f 260/159/69 262/161/71 263/162/72
f 264/163/73 262/161/71 261/160/70
f 262/161/71 264/163/73 265/164/74
f 265/164/74 263/162/72 262/161/71
f 263/162/72 265/164/74 266/165/75
f 267/166/76 265/164/74 264/163/73
f 265/164/74 267/166/76 268/167/77
f 268/167/77 266/165/75 265/164/74
f 266/165/75 268/167/77 269/168/78
f 270/169/79 268/167/77 267/166/76
f 268/167/77 270/169/79 271/170/80
f 271/170/80 269/168/78 268/167/77
f 269/168/78 271/170/80 272/171/81
f 273/172/82 271/170/80 270/169/79
f 271/170/80 273/172/82 274/173/83
f 274/173/83 272/171/81 271/170/80
f 272/171/81 274/173/83 275/174/84
f 276/175/85 274/173/83 273/172/82
f 274/173/83 276/175/85 277/176/86
f 277/176/86 275/174/84 274/173/83
f 275/174/84 277/176/86 278/177/87
f 275/174/84 278/177/87 279/178/1
f 275/174/84 279/178/1 272/171/81
f 280/179/88 277/176/86 276/175/85
f 277/176/86 280/179/88 281/180/89
f 281/180/89 278/177/87 277/176/86
f 278/177/87 281/180/89 282/181/90
f 279/178/1 278/177/87 282/181/90
f 241/140/50 281/180/89 280/179/88
f 281/180/89 241/140/50 239/138/48
f 239/138/48 282/181/90 281/180/89
f 282/181/90 239/138/48 238/137/47
f 279/178/1 282/181/90 238/137/47
f 238/137/47 235/134/1 279/178/1
f 235/134/1 248/147/57 283/182/1
f 251/150/60 283/182/1 248/147/57
f 284/150/60 285/153/63 286/182/1
f 286/182/1 285/153/63 287/156/66
f 286/182/1 287/156/66 288/159/69
f 289/162/72 290/165/75 291/183/1
f 291/183/1 290/165/75 292/168/91
f 291/183/1 292/168/91 293/171/92
f 293/171/92 294/178/1 291/183/1
f 263/162/72 295/183/1 260/159/69
f 296/182/1 260/159/69 295/183/1
