# This file uses centimeters as units for non-parametric coordinates.

g default
v 0.125000 -0.500000 0.125000
v 0.000000 -0.585772 0.000000
v -0.125000 -0.500000 0.125000
v 0.125000 -0.500000 -0.125000
v -0.125000 -0.500000 -0.125000
v -0.500000 -0.437497 1.250025
v -0.250025 -0.437497 1.500000
v 0.500000 -0.437497 1.250025
v 0.250025 -0.437497 1.500000
v -0.500000 -0.437497 -0.250025
v -0.250025 -0.437497 -0.500000
v 0.500000 -0.437497 -0.250025
v 0.250025 -0.437497 -0.500000
v -0.174770 -0.375000 1.349505
v -0.349505 -0.375000 1.174770
v 0.174770 -0.375000 1.349505
v 0.349505 -0.375000 1.174770
v 0.349505 -0.375000 -0.174770
v 0.174770 -0.375000 -0.349505
v -0.174770 -0.375000 -0.349505
v -0.349505 -0.375000 -0.174770
v -0.437506 -0.375000 1.224139
v -0.437506 -0.375000 -0.224139
v -0.224139 -0.375000 1.437506
v 0.224139 -0.375000 1.437506
v 0.437506 -0.375000 1.224139
v 0.437506 -0.375000 -0.224139
v -0.224139 -0.375000 -0.437506
v 0.224139 -0.375000 -0.437506
v -0.500000 -0.500000 1.500000
v 0.500000 -0.500000 1.500000
v -0.500000 -0.437500 1.500000
v 0.500000 -0.437500 1.500000
v -0.500000 -0.437500 -0.500000
v 0.500000 -0.437500 -0.500000
v -0.500000 -0.500000 -0.500000
v 0.500000 -0.500000 -0.500000
v -0.406969 -0.500000 -0.406969
v 0.406969 -0.500000 -0.406969
v 0.406969 -0.500000 1.406969
v -0.406969 -0.500000 1.406969
v 0.125000 -0.500000 1.125000
v 0.000000 -0.585772 1.000000
v -0.125000 -0.500000 1.125000
v 0.125000 -0.500000 0.875000
v -0.125000 -0.500000 0.875000
vt 0.047922 0.950273
vt 0.000990 0.950273
vt 0.024456 0.926807
vt 0.000990 0.903341
vt 0.047922 0.903341
vt 0.828361 0.690310
vt 0.828361 0.611450
vt 0.844585 0.611450
vt 0.844585 0.690310
vt 0.811883 0.810751
vt 0.815812 0.812089
vt 0.815720 0.877150
vt 0.811792 0.878475
vt 0.823813 0.798773
vt 0.825347 0.802676
vt 0.825250 0.886664
vt 0.823705 0.890567
vt 0.847024 0.798779
vt 0.845483 0.802681
vt 0.858932 0.810794
vt 0.855001 0.812122
vt 0.858862 0.878483
vt 0.854937 0.877150
vt 0.846916 0.890574
vt 0.845376 0.886667
vt 0.813610 0.737641
vt 0.824217 0.727035
vt 0.826671 0.731409
vt 0.817985 0.740095
vt 0.846501 0.727035
vt 0.844047 0.731409
vt 0.857108 0.737641
vt 0.852733 0.740095
vt 0.857108 0.809637
vt 0.852733 0.807183
vt 0.846501 0.820244
vt 0.844047 0.815869
vt 0.824217 0.820244
vt 0.826671 0.815869
vt 0.813610 0.809637
vt 0.817985 0.807183
vt 0.820251 0.619561
vt 0.820251 0.682200
vt 0.852695 0.619561
vt 0.852695 0.682200
vt 0.902103 0.634142
vt 0.898080 0.618050
vt 0.902103 0.618050
vt 0.898080 0.682423
vt 0.898080 0.666332
vt 0.902103 0.682423
vt 0.880169 0.827614
vt 0.908847 0.827614
vt 0.908847 0.891525
vt 0.880169 0.891525
vt 0.898865 0.695758
vt 0.898865 0.604727
vt 0.901710 0.616087
vt 0.901710 0.684363
vt 0.901710 0.616105
vt 0.898865 0.604715
vt 0.901710 0.604715
vt 0.864359 0.668563
vt 0.845526 0.649729
vt 0.864359 0.649729
vt 0.845526 0.668563
vt 0.864359 0.649729
vt 0.864359 0.668563
vt 0.845526 0.668563
vt 0.864359 0.649729
vt 0.864359 0.668563
vt 0.845526 0.668563
vt 0.845526 0.649729
vt 0.864359 0.668563
vt 0.898080 0.682423
vt 0.902103 0.666332
vt 0.902103 0.682423
vt 0.898865 0.695750
vt 0.901710 0.684383
vt 0.901710 0.695750
vt 0.902103 0.618050
vt 0.898080 0.634142
vt 0.898080 0.618050
vt 0.817074 0.608379
vt 0.859328 0.608379
vt 0.855397 0.612310
vt 0.821005 0.612310
vt 0.859327 0.692885
vt 0.855397 0.688954
vt 0.817074 0.692885
vt 0.821005 0.688954
vt 0.901710 0.695758
vt 0.901710 0.604727
vt 0.047922 0.950273
vt 0.000990 0.950273
vt 0.024456 0.926807
vt 0.000990 0.903341
vt 0.047922 0.903341
vn 0.000000 -0.824553 0.565785
vn 0.000000 -0.824553 0.565785
vn 0.000000 -0.824553 0.565785
vn 0.000000 -0.824553 -0.565785
vn 0.000000 -0.824553 -0.565785
vn 0.000000 -0.824553 -0.565785
vn -0.565785 -0.824553 0.000000
vn -0.565785 -0.824553 0.000000
vn -0.565785 -0.824553 0.000000
vn 0.565785 -0.824553 0.000000
vn 0.565785 -0.824553 0.000000
vn 0.565785 -0.824553 0.000000
vn 0.000000 1.000000 0.000000
vn 0.000000 1.000000 0.000000
vn 0.000000 1.000000 0.000000
vn 0.000000 1.000000 0.000000
vn -0.707124 0.707089 0.000000
vn -0.707124 0.707089 0.000000
vn -0.707124 0.707089 0.000000
vn -0.707124 0.707089 0.000000
vn -0.500012 0.707090 0.500012
vn -0.500012 0.707090 0.500012
vn -0.500012 0.707090 0.500012
vn -0.500012 0.707090 0.500012
vn -0.500012 0.707089 -0.500012
vn -0.500012 0.707089 -0.500012
vn -0.500012 0.707089 -0.500012
vn -0.500012 0.707089 -0.500012
vn 0.000000 0.707089 0.707124
vn 0.000000 0.707089 0.707124
vn 0.000000 0.707089 0.707124
vn 0.000000 0.707089 0.707124
vn 0.500012 0.707089 0.500012
vn 0.500012 0.707089 0.500012
vn 0.500012 0.707089 0.500012
vn 0.500012 0.707089 0.500012
vn 0.707124 0.707089 0.000000
vn 0.707124 0.707089 0.000000
vn 0.707124 0.707089 0.000000
vn 0.707124 0.707089 0.000000
vn 0.500013 0.707089 -0.500013
vn 0.500013 0.707089 -0.500013
vn 0.500013 0.707089 -0.500013
vn 0.500013 0.707089 -0.500013
vn 0.000000 0.707089 -0.707125
vn 0.000000 0.707089 -0.707124
vn 0.000000 0.707089 -0.707124
vn 0.000000 0.707089 -0.707125
vn 0.000000 1.000000 0.000000
vn 0.000000 1.000000 0.000000
vn 0.000000 1.000000 0.000000
vn 0.000000 1.000000 0.000000
vn 0.000000 1.000000 0.000000
vn 0.000000 1.000000 0.000000
vn 0.000000 1.000000 0.000000
vn 0.000000 1.000000 0.000000
vn 0.000000 1.000000 0.000000
vn 0.000000 1.000000 0.000000
vn 0.000000 1.000000 0.000000
vn 0.000000 1.000000 0.000000
vn 0.000000 0.000000 1.000000
vn 0.000000 0.000000 1.000000
vn 0.000000 0.000000 1.000000
vn 0.000000 0.000000 -1.000000
vn 0.000000 0.000000 -1.000000
vn 0.000000 0.000000 -1.000000
vn 0.000000 -1.000000 0.000000
vn 0.000000 -1.000000 0.000000
vn 0.000000 -1.000000 0.000000
vn 0.000000 -1.000000 0.000000
vn 1.000000 0.000000 0.000000
vn 1.000000 0.000000 0.000000
vn 1.000000 0.000000 0.000000
vn 1.000000 0.000000 0.000000
vn -1.000000 -0.000000 0.000000
vn -1.000000 -0.000000 0.000000
vn -1.000000 0.000000 0.000000
vn 0.000013 1.000000 0.000013
vn 0.000013 1.000000 0.000013
vn 0.000013 1.000000 0.000013
vn 0.000013 1.000000 -0.000013
vn 0.000013 1.000000 -0.000013
vn 0.000013 1.000000 -0.000013
vn -0.000013 1.000000 -0.000013
vn -0.000013 1.000000 -0.000013
vn -0.000013 1.000000 -0.000013
vn -0.000013 1.000000 0.000013
vn -0.000013 1.000000 0.000013
vn -0.000013 1.000000 0.000013
vn 0.000000 0.000000 1.000000
vn 0.000000 0.000000 1.000000
vn 0.000000 0.000000 1.000000
vn -1.000000 -0.000000 0.000000
vn -1.000000 -0.000000 0.000000
vn -1.000000 0.000000 0.000000
vn 0.000000 0.000000 -1.000000
vn 0.000000 0.000000 -1.000000
vn 0.000000 0.000000 -1.000000
vn 0.000000 -1.000000 0.000000
vn 0.000000 -1.000000 0.000000
vn 0.000000 -1.000000 0.000000
vn 0.000000 -1.000000 0.000000
vn 0.000000 -1.000000 0.000000
vn 0.000000 -1.000000 0.000000
vn 0.000000 -1.000000 0.000000
vn 0.000000 -1.000000 0.000000
vn 0.000000 -1.000000 0.000000
vn 0.000000 -1.000000 0.000000
vn 0.000000 -1.000000 0.000000
vn 0.000000 -1.000000 0.000000
vn 0.000000 -1.000000 0.000000
vn 0.000000 -1.000000 0.000000
vn 0.000000 -1.000000 0.000000
vn 0.000000 -1.000000 0.000000
vn 1.000000 0.000000 0.000000
vn 1.000000 0.000000 0.000000
vn 0.000000 -0.824553 0.565785
vn 0.000000 -0.824553 0.565785
vn 0.000000 -0.824553 0.565785
vn 0.000000 -0.824553 -0.565785
vn 0.000000 -0.824553 -0.565785
vn 0.000000 -0.824553 -0.565785
vn -0.565785 -0.824553 0.000000
vn -0.565785 -0.824553 0.000000
vn -0.565785 -0.824553 0.000000
vn 0.565785 -0.824553 0.000000
vn 0.565785 -0.824553 0.000000
vn 0.565785 -0.824553 0.000000
s off
g geo_body_B
f 1/1/1 3/2/2 2/3/3
f 2/3/4 5/4/5 4/5/6
f 3/2/7 5/4/8 2/3/9
f 4/5/10 1/1/11 2/3/12
s 1
f 20/6/13 14/7/14 16/8/15 19/9/16
s off
f 6/10/17 22/11/18 23/12/19 10/13/20
f 22/11/21 6/10/22 7/14/23 24/15/24
f 10/13/25 23/12/26 28/16/27 11/17/28
f 24/15/29 7/14/30 9/18/31 25/19/32
f 25/19/33 9/18/34 8/20/35 26/21/36
f 26/21/37 8/20/38 12/22/39 27/23/40
f 27/23/41 12/22/42 13/24/43 29/25/44
f 11/17/45 28/16/46 29/25/47 13/24/48
s 1
f 22/26/49 24/27/50 14/28/14 15/29/51
f 24/27/50 25/30/52 16/31/15 14/28/14
f 25/30/52 26/32/53 17/33/54 16/31/15
f 26/32/53 27/34/55 18/35/56 17/33/54
f 27/34/55 29/36/57 19/37/16 18/35/56
f 29/36/57 28/38/58 20/39/13 19/37/16
f 28/38/58 23/40/59 21/41/60 20/39/13
f 23/40/59 22/26/49 15/29/51 21/41/60
f 15/42/51 14/7/14 20/6/13 21/43/60
f 19/9/16 16/8/15 17/44/54 18/45/56
s 2
f 9/46/61 31/47/62 33/48/63
s 3
f 34/49/64 11/50/65 36/51/66
s off
f 38/52/67 39/53/68 40/54/69 41/55/70
s 4
f 31/56/71 37/57/72 12/58/73 8/59/74
s 5
f 6/60/75 30/61/76 32/62/77
s off
f 8/63/78 9/64/79 33/65/80
f 13/66/81 12/67/82 35/68/83
f 10/69/84 11/70/85 34/71/86
f 32/72/87 7/73/88 6/74/89
s 2
f 30/75/90 31/47/62 9/46/61 7/76/91
f 30/75/90 7/76/91 32/77/92
s 5
f 36/78/93 30/61/76 6/60/75 10/79/94
f 36/78/93 10/79/94 34/80/95
s 3
f 37/81/96 13/82/97 35/83/98
f 36/51/66 11/50/65 13/82/97 37/81/96
s off
f 36/84/99 37/85/100 39/86/101 38/87/102
f 37/85/103 31/88/104 40/89/105 39/86/106
f 31/88/107 30/90/108 41/91/109 40/89/110
f 30/90/111 36/84/112 38/87/113 41/91/114
s 4
f 31/56/71 8/59/74 33/92/115
f 12/58/73 37/57/72 35/93/116
s off
f 42/94/117 44/95/118 43/96/119
f 43/96/120 46/97/121 45/98/122
f 44/95/123 46/97/124 43/96/125
f 45/98/126 42/94/127 43/96/128
