# Blender v2.82 (sub 7) OBJ File: 'GT_Gauges_NPC_Computer.blend'
# www.blender.org
mtllib GT_Stabilization_Computer_Lights.mtl
v -0.100000 -0.439735 0.147951
v -0.100000 -0.482714 0.044191
v 0.100000 -0.482714 0.044191
v 0.100000 -0.439735 0.147951
v -0.100000 -0.497373 -0.067157
v 0.100000 -0.497373 -0.067157
v -0.100000 -0.482714 -0.178504
v 0.100000 -0.482714 -0.178504
v -0.100000 -0.439735 -0.282264
v 0.100000 -0.439735 -0.282264
v -0.100000 -0.371366 -0.371364
v 0.100000 -0.371366 -0.371364
v -0.100000 -0.282266 -0.439733
v 0.100000 -0.282266 -0.439733
v -0.100000 -0.178506 -0.482712
v 0.100000 -0.178506 -0.482712
v -0.100000 -0.067159 -0.497371
v 0.100000 -0.067159 -0.497371
v -0.100000 0.044189 -0.482712
v 0.100000 0.044189 -0.482712
v -0.100000 0.147949 -0.439733
v 0.100000 0.147949 -0.439733
v -0.100000 0.237049 -0.371364
v 0.100000 0.237049 -0.371364
v -0.100000 0.305418 -0.282264
v 0.100000 0.305418 -0.282264
v 0.100000 0.348397 -0.178504
v -0.100000 0.348397 -0.178504
v -0.100000 0.363056 -0.067157
v 0.100000 0.363056 -0.067157
v -0.100000 0.348397 0.044191
v 0.100000 0.348397 0.044191
v -0.100000 0.305418 0.147951
v 0.100000 0.305418 0.147951
v -0.100000 0.237049 0.237051
v 0.100000 0.237049 0.237051
v -0.100000 0.147949 0.305420
v 0.100000 0.147949 0.305420
v -0.100000 0.044189 0.348399
v 0.100000 0.044189 0.348399
v -0.100000 -0.067159 0.363058
v 0.100000 -0.067159 0.363058
v -0.100000 -0.178506 0.348399
v 0.100000 -0.282266 0.305420
v 0.100000 -0.178506 0.348399
v -0.100000 -0.282266 0.305420
v -0.100000 -0.371366 0.237051
v 0.100000 -0.371366 0.237051
v -0.064000 -0.494762 -0.047328
v -0.064000 -0.427560 0.163818
v 0.064000 -0.427560 0.163818
v -0.064000 -0.485325 0.024362
v 0.064000 -0.485325 0.024362
v -0.064000 -0.447389 -0.263786
v 0.064000 -0.494762 -0.047328
v -0.064000 -0.475060 -0.196982
v 0.064000 -0.475060 -0.196982
v -0.064000 -0.298133 -0.427558
v 0.064000 -0.447389 -0.263786
v -0.064000 -0.355499 -0.383539
v 0.064000 -0.355499 -0.383539
v -0.064000 -0.086987 -0.494760
v 0.064000 -0.298133 -0.427558
v -0.064000 -0.158677 -0.485323
v 0.064000 -0.158677 -0.485323
v -0.064000 0.129471 -0.447387
v 0.064000 -0.086987 -0.494760
v -0.064000 0.062667 -0.475058
v 0.064000 0.062667 -0.475058
v -0.064000 0.293243 -0.298131
v 0.064000 0.129471 -0.447387
v -0.064000 0.249224 -0.355497
v 0.064000 0.249224 -0.355497
v -0.064000 0.360445 -0.086985
v 0.064000 0.293243 -0.298131
v 0.064000 0.351007 -0.158675
v -0.064000 0.351007 -0.158675
v -0.064000 0.313072 0.129473
v 0.064000 0.360445 -0.086985
v -0.064000 0.340743 0.062669
v 0.064000 0.340743 0.062669
v -0.064000 0.163816 0.293245
v 0.064000 0.313072 0.129473
v -0.064000 0.221182 0.249226
v 0.064000 0.221182 0.249226
v -0.064000 -0.047330 0.360447
v 0.064000 0.163816 0.293245
v -0.064000 0.024360 0.351009
v 0.064000 0.024360 0.351009
v 0.064000 -0.196984 0.340745
v 0.064000 -0.047330 0.360447
v -0.064000 -0.196984 0.340745
v 0.064000 -0.263788 0.313074
v -0.064000 -0.263788 0.313074
v -0.064000 -0.383541 0.221184
v 0.064000 -0.383541 0.221184
v -0.064000 -0.475060 0.062669
v -0.064000 -0.447389 0.129473
v 0.064000 -0.447389 0.129473
v -0.064000 -0.485324 -0.158675
v 0.064000 -0.475060 0.062669
v -0.064000 -0.494762 -0.086986
v 0.064000 -0.494762 -0.086986
v -0.064000 -0.383541 -0.355497
v 0.064000 -0.485324 -0.158675
v -0.064000 -0.427560 -0.298131
v 0.064000 -0.427560 -0.298131
v -0.064000 -0.196983 -0.475058
v 0.064000 -0.383541 -0.355497
v -0.064000 -0.263788 -0.447387
v 0.064000 -0.263788 -0.447387
v -0.064000 0.024360 -0.485322
v 0.064000 -0.196983 -0.475058
v -0.064000 -0.047330 -0.494760
v 0.064000 -0.047330 -0.494760
v -0.064000 0.221182 -0.383539
v 0.064000 0.024360 -0.485322
v -0.064000 0.163816 -0.427558
v 0.064000 0.163816 -0.427558
v 0.064000 0.221182 -0.383539
v -0.064000 0.313072 -0.263786
v 0.064000 0.313072 -0.263786
v 0.064000 0.340743 -0.196982
v -0.064000 0.340743 -0.196982
v -0.064000 0.351007 0.024362
v -0.064000 0.360445 -0.047328
v 0.064000 0.360445 -0.047328
v -0.064000 0.249224 0.221184
v 0.064000 0.351007 0.024362
v -0.064000 0.293243 0.163818
v 0.064000 0.293243 0.163818
v -0.064000 0.062667 0.340745
v 0.064000 0.249224 0.221184
v -0.064000 0.129471 0.313074
v 0.064000 0.129471 0.313074
v -0.064000 -0.158677 0.351009
v 0.064000 0.062667 0.340745
v -0.064000 -0.086988 0.360447
v 0.064000 -0.086988 0.360447
v -0.064000 -0.355499 0.249226
v 0.064000 -0.158677 0.351009
v 0.064000 -0.298133 0.293245
v -0.064000 -0.298133 0.293245
v 0.064000 -0.355499 0.249226
vt 0.079893 0.355099
vt 0.091865 0.360098
vt 0.079893 0.360098
vt 0.306054 0.433621
vt 0.323409 0.441397
vt 0.306054 0.441397
vt 0.303577 0.421131
vt 0.325886 0.431127
vt 0.303577 0.431127
vt 0.306054 0.410143
vt 0.323409 0.417389
vt 0.306054 0.417389
vt 0.079893 0.323812
vt 0.091864 0.328105
vt 0.079893 0.328105
vt 0.081223 0.330791
vt 0.090535 0.327452
vt 0.081223 0.327452
vt 0.303577 0.416146
vt 0.325886 0.406831
vt 0.303577 0.406831
vt 0.306054 0.429596
vt 0.323409 0.421820
vt 0.306054 0.421820
vt 0.079893 0.352424
vt 0.091865 0.347060
vt 0.079893 0.347060
vt 0.081223 0.355680
vt 0.090535 0.351791
vt 0.081223 0.351791
vt 0.079893 0.367150
vt 0.091865 0.362858
vt 0.079893 0.362858
vt 0.306054 0.406417
vt 0.323409 0.400195
vt 0.306054 0.400195
vt 0.091865 0.330674
vt 0.079893 0.335672
vt 0.091865 0.336040
vt 0.306054 0.429320
vt 0.323409 0.421544
vt 0.306054 0.421544
vt 0.079893 0.352233
vt 0.091865 0.346869
vt 0.079893 0.346869
vt 0.081223 0.355531
vt 0.090535 0.351643
vt 0.081223 0.351643
vt 0.303577 0.474095
vt 0.325886 0.466096
vt 0.303577 0.466096
vt 0.306054 0.456800
vt 0.323409 0.463022
vt 0.306054 0.463022
vt 0.303577 0.452349
vt 0.325886 0.461663
vt 0.303577 0.461663
vt 0.081223 0.345389
vt 0.090535 0.349562
vt 0.081223 0.349562
vt 0.303577 0.421487
vt 0.325886 0.431482
vt 0.303577 0.431482
vt 0.090535 0.336679
vt 0.081223 0.332790
vt 0.090535 0.332790
vt 0.303577 0.394044
vt 0.325886 0.402042
vt 0.303577 0.402042
vt 0.306054 0.456524
vt 0.323409 0.462746
vt 0.306054 0.462746
vt 0.093898 0.356518
vt 0.081392 0.355415
vt 0.095287 0.355415
vt 0.093898 0.346829
vt 0.081392 0.348207
vt 0.082782 0.346829
vt 0.082782 0.341849
vt 0.081392 0.340471
vt 0.093898 0.341849
vt 0.095287 0.340471
vt 0.095287 0.348207
vt 0.093898 0.331452
vt 0.081392 0.332736
vt 0.082782 0.331452
vt 0.082782 0.326811
vt 0.081392 0.325527
vt 0.093898 0.326811
vt 0.095287 0.325527
vt 0.095287 0.332736
vt 0.093898 0.320616
vt 0.081392 0.319514
vt 0.082782 0.320616
vt 0.081392 0.325704
vt 0.082782 0.324602
vt 0.093898 0.324602
vt 0.095287 0.325704
vt 0.095287 0.319514
vt 0.093898 0.334290
vt 0.081392 0.332913
vt 0.082782 0.334290
vt 0.081392 0.340648
vt 0.082782 0.339271
vt 0.093898 0.339271
vt 0.095287 0.340648
vt 0.095287 0.332913
vt 0.093898 0.349668
vt 0.081392 0.348384
vt 0.082782 0.349668
vt 0.081392 0.355592
vt 0.082782 0.354309
vt 0.093898 0.354309
vt 0.095287 0.355592
vt 0.095287 0.348384
vt 0.093898 0.320439
vt 0.081392 0.319337
vt 0.082782 0.320439
vt 0.082782 0.324425
vt 0.081392 0.325527
vt 0.093898 0.324425
vt 0.095287 0.325527
vt 0.095287 0.319337
vt 0.093898 0.334113
vt 0.081392 0.332736
vt 0.082782 0.334113
vt 0.081392 0.340471
vt 0.082782 0.339094
vt 0.093898 0.339094
vt 0.095287 0.340471
vt 0.095287 0.332736
vt 0.093898 0.349491
vt 0.081392 0.348207
vt 0.082782 0.349490
vt 0.081392 0.355415
vt 0.082782 0.354132
vt 0.093898 0.354132
vt 0.095287 0.355415
vt 0.095287 0.348207
vt 0.093898 0.360680
vt 0.081392 0.361782
vt 0.082782 0.360680
vt 0.081392 0.355592
vt 0.082782 0.356695
vt 0.093898 0.356695
vt 0.095287 0.355592
vt 0.095287 0.361782
vt 0.093898 0.347006
vt 0.081392 0.348384
vt 0.082782 0.347006
vt 0.081392 0.340648
vt 0.082782 0.342026
vt 0.093898 0.342026
vt 0.095287 0.340648
vt 0.095287 0.348384
vt 0.093898 0.331629
vt 0.081392 0.332913
vt 0.082782 0.331629
vt 0.093898 0.326988
vt 0.081392 0.325704
vt 0.095287 0.325704
vt 0.095287 0.331970
vt 0.093898 0.331970
vt 0.082782 0.326988
vt 0.081392 0.331970
vt 0.093898 0.360503
vt 0.081392 0.361605
vt 0.082782 0.360503
vt 0.082782 0.356518
vt 0.095287 0.361605
vt 0.093898 0.354132
vt 0.082782 0.354132
vt 0.082782 0.349490
vt 0.093898 0.349490
vt 0.093898 0.339094
vt 0.082782 0.339094
vt 0.082782 0.334113
vt 0.093898 0.334113
vt 0.093898 0.324425
vt 0.082782 0.324425
vt 0.081392 0.319337
vt 0.082782 0.320439
vt 0.093898 0.320439
vt 0.095287 0.319337
vt 0.093898 0.326988
vt 0.082782 0.326988
vt 0.082782 0.331629
vt 0.093898 0.331629
vt 0.093898 0.342026
vt 0.082782 0.342026
vt 0.082782 0.347006
vt 0.093898 0.347006
vt 0.093898 0.356695
vt 0.082782 0.356695
vt 0.082782 0.360680
vt 0.081392 0.361782
vt 0.093898 0.360680
vt 0.095287 0.361782
vt 0.093898 0.326811
vt 0.082782 0.326811
vt 0.093898 0.331452
vt 0.095287 0.331793
vt 0.081392 0.331793
vt 0.082782 0.331793
vt 0.093898 0.341849
vt 0.082782 0.341849
vt 0.082782 0.346829
vt 0.093898 0.346829
vt 0.093898 0.356518
vt 0.082782 0.356518
vt 0.081392 0.361605
vt 0.082782 0.360503
vt 0.093898 0.360503
vt 0.095287 0.361605
vt 0.093898 0.354309
vt 0.082782 0.354309
vt 0.082782 0.349668
vt 0.093898 0.349668
vt 0.093898 0.339271
vt 0.082782 0.339271
vt 0.082782 0.334290
vt 0.093898 0.334290
vt 0.095287 0.332913
vt 0.093898 0.324602
vt 0.082782 0.324602
vt 0.082782 0.320616
vt 0.081392 0.319514
vt 0.093898 0.320616
vt 0.095287 0.319514
vt 0.091865 0.355099
vt 0.323409 0.433621
vt 0.325886 0.421131
vt 0.323409 0.410143
vt 0.091865 0.323812
vt 0.090535 0.330791
vt 0.325886 0.416146
vt 0.323409 0.429596
vt 0.091865 0.352424
vt 0.090535 0.355680
vt 0.091865 0.367150
vt 0.323409 0.406417
vt 0.079893 0.330674
vt 0.323409 0.429320
vt 0.091865 0.352233
vt 0.090535 0.355531
vt 0.325886 0.474095
vt 0.323409 0.456800
vt 0.325886 0.452349
vt 0.090535 0.345389
vt 0.325886 0.421487
vt 0.081223 0.336964
vt 0.325886 0.394044
vt 0.323409 0.456523
vt 0.082782 0.331970
vt 0.082782 0.331452
vt 0.093898 0.331793
vn 0.0000 -0.9239 0.3827
vn 0.0000 -0.9914 0.1305
vn 0.0000 -0.9914 -0.1305
vn 0.0000 -0.9239 -0.3827
vn 0.0000 -0.7934 -0.6088
vn 0.0000 -0.6088 -0.7934
vn 0.0000 -0.3827 -0.9239
vn 0.0000 -0.1305 -0.9914
vn 0.0000 0.1305 -0.9914
vn 0.0000 0.3827 -0.9239
vn 0.0000 0.6088 -0.7934
vn 0.0000 0.7934 -0.6088
vn -0.0000 0.9239 -0.3827
vn 0.0000 0.9914 -0.1305
vn 0.0000 0.9914 0.1305
vn 0.0000 0.9239 0.3827
vn 0.0000 0.7934 0.6088
vn 0.0000 0.6088 0.7934
vn 0.0000 0.3827 0.9239
vn 0.0000 0.1305 0.9914
vn 0.0000 -0.1305 0.9914
vn -0.0000 -0.3827 0.9239
vn 0.0000 -0.6088 0.7934
vn 0.0000 -0.7934 0.6088
vn 0.0000 -0.8660 0.5000
vn 0.0000 -0.9659 0.2588
vn 0.0000 -1.0000 -0.0000
vn 0.0000 -0.9659 -0.2588
vn 0.0000 -0.8660 -0.5000
vn 0.0000 -0.7071 -0.7071
vn 0.0000 -0.5000 -0.8660
vn 0.0000 -0.2588 -0.9659
vn 0.0000 0.0000 -1.0000
vn 0.0000 0.2588 -0.9659
vn 0.0000 0.5000 -0.8660
vn 0.0000 0.7071 -0.7071
vn 0.0000 0.8660 -0.5000
vn 0.0000 0.9659 -0.2588
vn 0.0000 1.0000 0.0000
vn 0.0000 0.9659 0.2588
vn 0.0000 0.8660 0.5000
vn 0.0000 0.7071 0.7071
vn 0.0000 0.5000 0.8660
vn 0.0000 0.2588 0.9659
vn 0.0000 -0.0000 1.0000
vn 0.0000 -0.2588 0.9659
vn 0.0000 -0.5000 0.8660
vn 0.0000 -0.7071 0.7071
usemtl Color_M02
s 1
f 97/1/1 99/2/1 98/3/1
f 49/4/2 53/5/2 52/6/2
f 100/7/3 103/8/3 102/9/3
f 54/10/4 57/11/4 56/12/4
f 104/13/5 107/14/5 106/15/5
f 58/16/6 61/17/6 60/18/6
f 108/19/7 111/20/7 110/21/7
f 62/22/8 65/23/8 64/24/8
f 112/25/9 115/26/9 114/27/9
f 66/28/10 69/29/10 68/30/10
f 116/31/11 119/32/11 118/33/11
f 70/34/12 73/35/12 72/36/12
f 122/37/13 124/38/13 123/39/13
f 74/40/14 76/41/14 77/42/14
f 125/43/15 127/44/15 126/45/15
f 78/46/16 81/47/16 80/48/16
f 128/49/17 131/50/17 130/51/17
f 82/52/18 85/53/18 84/54/18
f 132/55/19 135/56/19 134/57/19
f 86/58/20 89/59/20 88/60/20
f 136/61/21 139/62/21 138/63/21
f 90/64/22 94/65/22 93/66/22
f 140/67/23 142/68/23 143/69/23
f 50/70/24 96/71/24 95/72/24
f 51/73/24 1/74/25 4/75/25
f 53/76/2 2/77/26 52/78/2
f 49/79/2 2/77/26 5/80/27
f 55/81/2 5/80/27 6/82/27
f 55/81/2 3/83/26 53/76/2
f 57/84/4 7/85/28 56/86/4
f 54/87/4 7/85/28 9/88/29
f 59/89/4 9/88/29 10/90/29
f 59/89/4 8/91/28 57/84/4
f 61/92/6 11/93/30 60/94/6
f 60/94/6 13/95/31 58/96/6
f 63/97/6 13/95/31 14/98/31
f 61/92/6 14/98/31 12/99/30
f 65/100/8 15/101/32 64/102/8
f 64/102/8 17/103/33 62/104/8
f 67/105/8 17/103/33 18/106/33
f 67/105/8 16/107/32 65/100/8
f 69/108/10 19/109/34 68/110/10
f 68/110/10 21/111/35 66/112/10
f 71/113/10 21/111/35 22/114/35
f 69/108/10 22/114/35 20/115/34
f 73/116/12 23/117/36 72/118/12
f 70/119/12 23/117/36 25/120/37
f 75/121/12 25/120/37 26/122/37
f 75/121/12 24/123/36 73/116/12
f 76/124/14 28/125/38 77/126/14
f 77/126/14 29/127/39 74/128/14
f 79/129/14 29/127/39 30/130/39
f 76/124/14 30/130/39 27/131/38
f 81/132/16 31/133/40 80/134/16
f 80/134/16 33/135/41 78/136/16
f 83/137/16 33/135/41 34/138/41
f 81/132/16 34/138/41 32/139/40
f 85/140/18 35/141/42 84/142/18
f 84/142/18 37/143/43 82/144/18
f 87/145/18 37/143/43 38/146/43
f 87/145/18 36/147/42 85/140/18
f 89/148/20 39/149/44 88/150/20
f 88/150/20 41/151/45 86/152/20
f 91/153/20 41/151/45 42/154/45
f 91/153/20 40/155/44 89/148/20
f 90/156/22 43/157/46 92/158/22
f 93/159/22 46/160/47 44/161/47
f 93/159/22 45/162/46 90/163/22
f 94/164/22 43/165/46 46/160/47
f 96/166/24 47/167/48 95/168/24
f 95/168/24 1/74/25 50/169/24
f 51/73/24 48/170/48 96/166/24
f 99/171/1 1/74/25 98/172/1
f 97/173/1 1/74/25 2/77/26
f 101/174/1 2/77/26 3/83/26
f 101/174/1 4/75/25 99/171/1
f 103/175/3 5/80/27 102/176/3
f 102/176/3 7/85/28 100/177/3
f 105/178/3 7/85/28 8/91/28
f 105/178/3 6/82/27 103/175/3
f 107/179/5 9/88/29 106/180/5
f 106/180/5 11/181/30 104/182/5
f 109/183/5 11/181/30 12/184/30
f 107/179/5 12/184/30 10/90/29
f 111/185/7 13/95/31 110/186/7
f 110/186/7 15/101/32 108/187/7
f 113/188/7 15/101/32 16/107/32
f 111/185/7 16/107/32 14/98/31
f 115/189/9 17/103/33 114/190/9
f 112/191/9 17/103/33 19/109/34
f 117/192/9 19/109/34 20/115/34
f 117/192/9 18/106/33 115/189/9
f 119/193/11 21/111/35 118/194/11
f 116/195/11 21/111/35 23/196/36
f 120/197/11 23/196/36 24/198/36
f 120/197/11 22/114/35 119/193/11
f 122/199/13 25/120/37 121/200/13
f 123/201/13 28/125/38 27/131/38
f 122/199/13 27/202/38 26/122/37
f 121/200/13 28/203/38 124/204/13
f 127/205/15 29/127/39 126/206/15
f 126/206/15 31/133/40 125/207/15
f 129/208/15 31/133/40 32/139/40
f 129/208/15 30/130/39 127/205/15
f 131/209/17 33/135/41 130/210/17
f 130/210/17 35/211/42 128/212/17
f 133/213/17 35/211/42 36/214/42
f 131/209/17 36/214/42 34/138/41
f 135/215/19 37/143/43 134/216/19
f 132/217/19 37/143/43 39/149/44
f 137/218/19 39/149/44 40/155/44
f 135/215/19 40/155/44 38/146/43
f 139/219/21 41/151/45 138/220/21
f 136/221/21 41/151/45 43/157/46
f 141/222/21 43/157/46 45/223/46
f 139/219/21 45/223/46 42/154/45
f 142/224/23 46/160/47 143/225/23
f 140/226/23 46/160/47 47/227/48
f 144/228/23 47/227/48 48/229/48
f 144/228/23 44/161/47 142/224/23
f 97/1/1 101/230/1 99/2/1
f 49/4/2 55/231/2 53/5/2
f 100/7/3 105/232/3 103/8/3
f 54/10/4 59/233/4 57/11/4
f 104/13/5 109/234/5 107/14/5
f 58/16/6 63/235/6 61/17/6
f 108/19/7 113/236/7 111/20/7
f 62/22/8 67/237/8 65/23/8
f 112/25/9 117/238/9 115/26/9
f 66/28/10 71/239/10 69/29/10
f 116/31/11 120/240/11 119/32/11
f 70/34/12 75/241/12 73/35/12
f 122/37/13 121/242/13 124/38/13
f 74/40/14 79/243/14 76/41/14
f 125/43/15 129/244/15 127/44/15
f 78/46/16 83/245/16 81/47/16
f 128/49/17 133/246/17 131/50/17
f 82/52/18 87/247/18 85/53/18
f 132/55/19 137/248/19 135/56/19
f 86/58/20 91/249/20 89/59/20
f 136/61/21 141/250/21 139/62/21
f 90/64/22 92/251/22 94/65/22
f 140/67/23 144/252/23 142/68/23
f 50/70/24 51/253/24 96/71/24
f 51/73/24 50/169/24 1/74/25
f 53/76/2 3/83/26 2/77/26
f 49/79/2 52/78/2 2/77/26
f 55/81/2 49/79/2 5/80/27
f 55/81/2 6/82/27 3/83/26
f 57/84/4 8/91/28 7/85/28
f 54/87/4 56/86/4 7/85/28
f 59/89/4 54/87/4 9/88/29
f 59/89/4 10/90/29 8/91/28
f 61/92/6 12/99/30 11/93/30
f 60/94/6 11/93/30 13/95/31
f 63/97/6 58/96/6 13/95/31
f 61/92/6 63/97/6 14/98/31
f 65/100/8 16/107/32 15/101/32
f 64/102/8 15/101/32 17/103/33
f 67/105/8 62/104/8 17/103/33
f 67/105/8 18/106/33 16/107/32
f 69/108/10 20/115/34 19/109/34
f 68/110/10 19/109/34 21/111/35
f 71/113/10 66/112/10 21/111/35
f 69/108/10 71/113/10 22/114/35
f 73/116/12 24/123/36 23/117/36
f 70/119/12 72/118/12 23/117/36
f 75/121/12 70/119/12 25/120/37
f 75/121/12 26/122/37 24/123/36
f 76/124/14 27/131/38 28/125/38
f 77/126/14 28/125/38 29/127/39
f 79/129/14 74/128/14 29/127/39
f 76/124/14 79/129/14 30/130/39
f 81/132/16 32/139/40 31/133/40
f 80/134/16 31/133/40 33/135/41
f 83/137/16 78/136/16 33/135/41
f 81/132/16 83/137/16 34/138/41
f 85/140/18 36/147/42 35/141/42
f 84/142/18 35/141/42 37/143/43
f 87/145/18 82/144/18 37/143/43
f 87/145/18 38/146/43 36/147/42
f 89/148/20 40/155/44 39/149/44
f 88/150/20 39/149/44 41/151/45
f 91/153/20 86/152/20 41/151/45
f 91/153/20 42/154/45 40/155/44
f 90/156/22 45/223/46 43/157/46
f 93/159/22 94/164/22 46/160/47
f 93/159/22 44/161/47 45/162/46
f 94/164/22 92/254/22 43/165/46
f 96/166/24 48/170/48 47/167/48
f 95/168/24 47/167/48 1/74/25
f 51/73/24 4/75/25 48/170/48
f 99/171/1 4/75/25 1/74/25
f 97/173/1 98/172/1 1/74/25
f 101/174/1 97/173/1 2/77/26
f 101/174/1 3/83/26 4/75/25
f 103/175/3 6/82/27 5/80/27
f 102/176/3 5/80/27 7/85/28
f 105/178/3 100/177/3 7/85/28
f 105/178/3 8/91/28 6/82/27
f 107/179/5 10/90/29 9/88/29
f 106/180/5 9/88/29 11/181/30
f 109/183/5 104/182/5 11/181/30
f 107/179/5 109/183/5 12/184/30
f 111/185/7 14/98/31 13/95/31
f 110/186/7 13/95/31 15/101/32
f 113/188/7 108/187/7 15/101/32
f 111/185/7 113/188/7 16/107/32
f 115/189/9 18/106/33 17/103/33
f 112/191/9 114/190/9 17/103/33
f 117/192/9 112/191/9 19/109/34
f 117/192/9 20/115/34 18/106/33
f 119/193/11 22/114/35 21/111/35
f 116/195/11 118/194/11 21/111/35
f 120/197/11 116/195/11 23/196/36
f 120/197/11 24/198/36 22/114/35
f 122/199/13 26/122/37 25/120/37
f 123/201/13 124/255/13 28/125/38
f 122/199/13 123/256/13 27/202/38
f 121/200/13 25/120/37 28/203/38
f 127/205/15 30/130/39 29/127/39
f 126/206/15 29/127/39 31/133/40
f 129/208/15 125/207/15 31/133/40
f 129/208/15 32/139/40 30/130/39
f 131/209/17 34/138/41 33/135/41
f 130/210/17 33/135/41 35/211/42
f 133/213/17 128/212/17 35/211/42
f 131/209/17 133/213/17 36/214/42
f 135/215/19 38/146/43 37/143/43
f 132/217/19 134/216/19 37/143/43
f 137/218/19 132/217/19 39/149/44
f 135/215/19 137/218/19 40/155/44
f 139/219/21 42/154/45 41/151/45
f 136/221/21 138/220/21 41/151/45
f 141/222/21 136/221/21 43/157/46
f 139/219/21 141/222/21 45/223/46
f 142/224/23 44/161/47 46/160/47
f 140/226/23 143/225/23 46/160/47
f 144/228/23 140/226/23 47/227/48
f 144/228/23 48/229/48 44/161/47
