# Blender v2.80 (sub 75) OBJ File: ''
# www.blender.org
mtllib YK_Front_Prop_Blades_Collider.mtl
o Circle.015
v -1.100565 0.142647 -0.093739
v -1.100566 0.121568 -0.031746
v -0.973489 0.080552 0.088878
v 0.196177 0.333137 0.133509
v 0.196177 0.419453 -0.120343
v 1.099743 0.162487 0.207499
v 1.099743 0.142647 0.093568
v -0.196177 0.419453 0.120343
v -0.196177 0.447032 0.278724
v -0.196177 0.373413 0.278724
v 1.099743 0.109526 0.207499
v -1.100565 0.109527 -0.207669
v 0.196177 0.373413 -0.278724
v 0.196177 0.302917 0.126173
v -0.973490 0.058813 0.083601
v -1.100567 0.080627 -0.041685
v -1.100565 0.162487 -0.207669
v 0.196177 0.447032 -0.278724
v -0.212707 0.110368 1.100721
v -0.277855 0.373258 -0.196297
v 0.127040 0.302762 -0.196297
v 0.078563 0.059654 0.973644
v -0.046724 0.081468 1.100721
v -0.212707 0.163328 1.100721
v -0.036784 0.122409 1.100721
v -0.098778 0.143488 1.100721
v 1.099743 0.121568 0.031574
v 0.972666 0.080552 -0.089049
v -0.196177 0.333137 -0.133508
v 0.093241 0.142647 -1.100238
v 0.031248 0.121568 -1.100238
v -0.089376 0.080552 -0.973163
v -0.133509 0.333137 0.196177
v 0.120343 0.419453 0.196177
v -0.119474 0.419298 -0.196297
v -0.277855 0.446877 -0.196297
v 0.207171 0.109527 -1.100238
v 0.278724 0.373413 0.196177
v -0.126172 0.302917 0.196177
v -0.084099 0.058813 -0.973163
v 0.041187 0.080627 -1.100240
v 0.207171 0.162487 -1.100238
v 0.278724 0.447032 0.196177
v 1.099743 0.080627 0.041514
v 0.972666 0.058813 -0.083772
v 0.083840 0.081393 0.973644
v 0.134377 0.332982 -0.196297
v -0.196177 0.302917 -0.126172
v -0.782979 0.142647 -0.778993
v -0.822827 0.121568 -0.731503
v -0.803017 0.080552 -0.557417
v 0.064463 0.333137 0.228374
v 0.227635 0.419453 0.033912
v 0.706955 0.162177 0.864904
v 0.780189 0.142337 0.777628
v -0.227272 0.419510 -0.033692
v -0.329077 0.447089 0.087636
v -0.329077 0.373470 0.087636
v 0.706955 0.109217 0.864904
v -0.709746 0.109527 -0.866269
v 0.329440 0.373413 -0.087414
v 0.069178 0.302917 0.222754
v -0.799625 0.058813 -0.561460
v -0.816440 0.080627 -0.739118
v -0.709746 0.162487 -0.866269
v 0.329440 0.447032 -0.087414
v -0.870624 0.110368 0.706720
v -0.086672 0.373258 -0.328974
v 0.223496 0.302761 -0.068712
v -0.565815 0.059654 0.796598
v -0.743473 0.081468 0.813412
v -0.870624 0.163328 0.706720
v -0.735859 0.122409 0.819802
v -0.783349 0.143488 0.779953
v 0.820037 0.121258 0.730139
v 0.800226 0.080242 0.556051
v -0.064100 0.333194 -0.228154
v 0.773101 0.141452 -0.782934
v 0.725612 0.120373 -0.822783
v 0.551525 0.079357 -0.802972
v -0.227379 0.333357 0.064515
v -0.032918 0.419673 0.227687
v 0.034654 0.419298 -0.227169
v -0.086672 0.446877 -0.328974
v 0.860377 0.108331 -0.709700
v 0.088410 0.373633 0.329492
v -0.221760 0.303137 0.069230
v 0.555568 0.057618 -0.799580
v 0.733226 0.079432 -0.816394
v 0.860377 0.161292 -0.709700
v 0.088410 0.447252 0.329492
v 0.813648 0.080317 0.737753
v 0.796833 0.058503 0.560094
v -0.561772 0.081393 0.799990
v 0.229116 0.332982 -0.063997
v -0.068816 0.302974 -0.222534
vt 0.614485 0.615493
vt 0.613469 0.615493
vt 0.611493 0.611437
vt 0.611493 0.580495
vt 0.614485 0.580495
vt 0.609256 0.545497
vt 0.611123 0.545497
vt 0.611123 0.580495
vt 0.609256 0.580495
vt 0.609256 0.580495
vt 0.609256 0.545497
vt 0.616352 0.615493
vt 0.616352 0.580495
vt 0.611580 0.580495
vt 0.611580 0.611438
vt 0.613633 0.615493
vt 0.616352 0.615493
vt 0.616352 0.580495
vt 0.609256 0.545497
vt 0.609256 0.580495
vt 0.614028 0.580495
vt 0.614028 0.549553
vt 0.611975 0.545497
vt 0.609256 0.545497
vt 0.612139 0.545497
vt 0.611123 0.545497
vt 0.612139 0.545497
vt 0.614115 0.549552
vt 0.614115 0.580495
vt 0.614485 0.615493
vt 0.613469 0.615493
vt 0.611493 0.611438
vt 0.611493 0.580495
vt 0.614485 0.580495
vt 0.611123 0.580495
vt 0.609256 0.580495
vt 0.616352 0.615493
vt 0.616352 0.580495
vt 0.611580 0.580495
vt 0.611580 0.611437
vt 0.613633 0.615493
vt 0.616352 0.615493
vt 0.616352 0.580495
vt 0.611975 0.545497
vt 0.614028 0.549553
vt 0.614115 0.549552
vt 0.614115 0.580495
vt 0.614028 0.580495
vt 0.614485 0.615493
vt 0.613469 0.615493
vt 0.611493 0.611437
vt 0.611493 0.580495
vt 0.614485 0.580495
vt 0.609256 0.545497
vt 0.611123 0.545497
vt 0.611123 0.580495
vt 0.609256 0.580495
vt 0.609256 0.580495
vt 0.609256 0.545497
vt 0.616352 0.615493
vt 0.616352 0.580495
vt 0.611580 0.580495
vt 0.611580 0.611438
vt 0.613633 0.615493
vt 0.616352 0.615493
vt 0.616352 0.580495
vt 0.609256 0.545497
vt 0.609256 0.580495
vt 0.614028 0.580495
vt 0.614028 0.549553
vt 0.611975 0.545497
vt 0.609256 0.545497
vt 0.612139 0.545497
vt 0.611123 0.545497
vt 0.612139 0.545497
vt 0.614115 0.549552
vt 0.614115 0.580495
vt 0.614485 0.615493
vt 0.613469 0.615493
vt 0.611493 0.611438
vt 0.611493 0.580495
vt 0.614485 0.580495
vt 0.611123 0.580495
vt 0.609256 0.580495
vt 0.616352 0.615493
vt 0.616352 0.580495
vt 0.611580 0.580495
vt 0.611580 0.611437
vt 0.613633 0.615493
vt 0.616352 0.615493
vt 0.616352 0.580495
vt 0.611975 0.545497
vt 0.614028 0.549553
vt 0.614115 0.549552
vt 0.614115 0.580495
vt 0.614028 0.580495
vn -0.1951 0.9099 0.3662
vn 0.2026 0.9647 -0.1680
vn 0.0549 -0.0000 0.9985
vn 0.1908 -0.9606 -0.2021
vn -1.0000 0.0000 -0.0000
vn -0.2025 0.9648 0.1680
vn -0.0547 0.0000 -0.9985
vn -0.2021 -0.9606 -0.1910
vn -0.0000 0.0000 1.0000
vn 0.1952 0.9098 -0.3662
vn -0.3662 0.9099 -0.1950
vn 0.1680 0.9648 0.2025
vn -0.9987 0.0000 0.0502
vn 0.2021 -0.9606 0.1908
vn 0.0000 0.0000 -1.0000
vn -0.1680 0.9648 -0.2025
vn 0.9985 0.0000 -0.0551
vn 0.7066 -0.1669 -0.6876
vn 0.3664 0.9096 0.1960
vn -0.7066 -0.1669 0.6876
vn 0.6876 -0.1669 0.7066
vn -0.6876 -0.1669 -0.7066
vn 1.0000 0.0000 0.0000
vn -0.0140 -0.2359 -0.9717
vn 0.0139 -0.2359 0.9717
vn 0.9717 -0.2359 -0.0088
vn -0.9717 -0.2359 0.0143
vn -0.1909 -0.9606 0.2021
vn -0.3848 0.9099 0.1551
vn 0.2637 0.9646 0.0020
vn -0.6001 0.0000 0.7999
vn 0.2760 -0.9606 -0.0322
vn -0.7660 0.0000 -0.6428
vn -0.2631 0.9648 -0.0014
vn 0.5997 0.0000 -0.8002
vn -0.0321 -0.9606 -0.2762
vn -0.6428 -0.0000 0.7660
vn 0.3857 0.9096 -0.1546
vn -0.1550 0.9098 -0.3849
vn -0.0014 0.9648 0.2631
vn -0.7973 0.0000 -0.6035
vn 0.0317 -0.9604 0.2768
vn 0.6428 0.0000 -0.7660
vn 0.0021 0.9646 -0.2638
vn 0.8027 0.0000 0.5963
vn 0.9833 -0.1669 -0.0726
vn 0.1547 0.9096 0.3856
vn -0.9833 -0.1669 0.0726
vn 0.0726 -0.1669 0.9833
vn -0.0726 -0.1669 -0.9833
vn 0.7660 -0.0000 0.6428
vn 0.6142 -0.2359 -0.7531
vn -0.6138 -0.2359 0.7534
vn 0.7500 -0.2359 0.6179
vn -0.7564 -0.2359 -0.6101
vn -0.2768 -0.9604 0.0317
usemtl Default_OBJ.037
s off
f 1/1/1 2/2/1 3/3/1 4/4/1 5/5/1
f 6/6/2 7/7/2 8/8/2 9/9/2
f 10/10/3 11/11/3 6/6/3 9/9/3
f 12/12/4 13/13/4 14/14/4 15/15/4 16/16/4
f 17/17/5 12/12/5 16/16/5 2/2/5 1/1/5
f 17/17/6 1/1/6 5/5/6 18/18/6
f 13/13/7 12/12/7 17/17/7 18/18/7
f 19/19/8 20/20/8 21/21/8 22/22/8 23/23/8
f 24/24/9 19/19/9 23/23/9 25/25/9 26/26/9
f 7/7/10 27/27/10 28/28/10 29/29/10 8/8/10
f 30/30/11 31/31/11 32/32/11 33/33/11 34/34/11
f 24/24/12 26/26/12 35/35/12 36/36/12
f 20/20/13 19/19/13 24/24/13 36/36/13
f 37/37/14 38/38/14 39/39/14 40/40/14 41/41/14
f 42/42/15 37/37/15 41/41/15 31/31/15 30/30/15
f 42/42/16 30/30/16 34/34/16 43/43/16
f 38/38/17 37/37/17 42/42/17 43/43/17
f 44/44/18 45/45/18 28/28/18 27/27/18
f 26/26/19 25/25/19 46/46/19 47/47/19 35/35/19
f 15/15/20 3/3/20 2/2/20 16/16/20
f 23/23/21 22/22/21 46/46/21 25/25/21
f 40/40/22 32/32/22 31/31/22 41/41/22
f 6/6/23 11/11/23 44/44/23 27/27/23 7/7/23
f 29/29/24 28/28/24 45/45/24 48/48/24
f 4/4/25 3/3/25 15/15/25 14/14/25
f 47/47/26 46/46/26 22/22/26 21/21/26
f 33/33/27 32/32/27 40/40/27 39/39/27
f 11/11/28 10/10/28 48/48/28 45/45/28 44/44/28
f 49/49/29 50/50/29 51/51/29 52/52/29 53/53/29
f 54/54/30 55/55/30 56/56/30 57/57/30
f 58/58/31 59/59/31 54/54/31 57/57/31
f 60/60/32 61/61/32 62/62/32 63/63/32 64/64/32
f 65/65/33 60/60/33 64/64/33 50/50/33 49/49/33
f 65/65/34 49/49/34 53/53/34 66/66/34
f 61/61/35 60/60/35 65/65/35 66/66/35
f 67/67/36 68/68/36 69/69/36 70/70/36 71/71/36
f 72/72/37 67/67/37 71/71/37 73/73/37 74/74/37
f 55/55/38 75/75/38 76/76/38 77/77/38 56/56/38
f 78/78/39 79/79/39 80/80/39 81/81/39 82/82/39
f 72/72/40 74/74/40 83/83/40 84/84/40
f 68/68/41 67/67/41 72/72/41 84/84/41
f 85/85/42 86/86/42 87/87/42 88/88/42 89/89/42
f 90/90/43 85/85/43 89/89/43 79/79/43 78/78/43
f 90/90/44 78/78/44 82/82/44 91/91/44
f 86/86/45 85/85/45 90/90/45 91/91/45
f 92/92/46 93/93/46 76/76/46 75/75/46
f 74/74/47 73/73/47 94/94/47 95/95/47 83/83/47
f 63/63/48 51/51/48 50/50/48 64/64/48
f 71/71/49 70/70/49 94/94/49 73/73/49
f 88/88/50 80/80/50 79/79/50 89/89/50
f 54/54/51 59/59/51 92/92/51 75/75/51 55/55/51
f 77/77/52 76/76/52 93/93/52 96/96/52
f 52/52/53 51/51/53 63/63/53 62/62/53
f 95/95/54 94/94/54 70/70/54 69/69/54
f 81/81/55 80/80/55 88/88/55 87/87/55
f 59/59/56 58/58/56 96/96/56 93/93/56 92/92/56
