# Blender v2.80 (sub 75) OBJ File: ''
# www.blender.org
mtllib YK_Front_Prop_Blades.mtl
o Circle.015
v -1.172782 0.162462 -0.101088
v -1.172783 0.144688 -0.048815
v -1.065631 0.110103 0.052896
v 0.000000 0.307242 0.085905
v 0.000000 0.373924 -0.110204
v 1.172785 0.179191 0.197155
v 1.172785 0.162462 0.101088
v 0.000000 0.373924 0.110204
v 0.000000 0.395230 0.232559
v 0.000000 0.338357 0.232559
v 1.172785 0.134535 0.197155
v -1.172782 0.134535 -0.197154
v 0.000000 0.338357 -0.232559
v 0.000000 0.283896 0.080238
v -1.065632 0.091773 0.048446
v -1.172784 0.110166 -0.057196
v -1.172782 0.179191 -0.197154
v 0.000000 0.395230 -0.232559
v -0.202211 0.135438 1.173484
v -0.232559 0.338357 0.000000
v 0.080237 0.283896 0.000000
v 0.043390 0.092676 1.066332
v -0.062253 0.111069 1.173484
v -0.202211 0.180094 1.173484
v -0.053872 0.145591 1.173484
v -0.106145 0.163365 1.173484
v 1.172785 0.144688 0.048815
v 1.065633 0.110103 -0.052895
v 0.000000 0.307242 -0.085904
v 0.101088 0.162462 -1.172782
v 0.048815 0.144688 -1.172782
v -0.052896 0.110104 -1.065632
v -0.085905 0.307242 0.000000
v 0.110204 0.373924 0.000000
v -0.110204 0.373924 0.000000
v -0.232559 0.395230 0.000000
v 0.197154 0.134535 -1.172782
v 0.232559 0.338357 0.000000
v -0.080237 0.283896 0.000000
v -0.048446 0.091773 -1.065632
v 0.057196 0.110166 -1.172783
v 0.197154 0.179192 -1.172782
v 0.232559 0.395230 0.000000
v 1.172785 0.110166 0.057196
v 1.065633 0.091773 -0.048445
v 0.047840 0.111006 1.066332
v 0.085905 0.307242 0.000000
v 0.000000 0.283896 -0.080237
v -0.833425 0.162462 -0.831288
v -0.867026 0.144688 -0.791244
v -0.850322 0.110104 -0.644454
v -0.055218 0.307242 0.065807
v 0.070838 0.373924 -0.084421
v 0.769565 0.178859 0.903598
v 0.831316 0.162130 0.830007
v -0.070838 0.373924 0.084421
v -0.149485 0.395230 0.178151
v -0.149485 0.338357 0.178151
v 0.769565 0.134202 0.903598
v -0.771675 0.134535 -0.904879
v 0.149485 0.338357 -0.178150
v -0.051575 0.283896 0.061465
v -0.847462 0.091773 -0.647863
v -0.861640 0.110166 -0.797665
v -0.771675 0.179191 -0.904879
v 0.149485 0.395230 -0.178150
v -0.909203 0.135438 0.768962
v -0.178150 0.338357 -0.149485
v 0.061465 0.283896 0.051575
v -0.652186 0.092676 0.844747
v -0.801988 0.111069 0.858926
v -0.909203 0.180094 0.768962
v -0.795568 0.145591 0.864313
v -0.835612 0.163365 0.830713
v 0.864916 0.144356 0.789964
v 0.848211 0.109771 0.643172
v 0.055218 0.307242 -0.065807
v 0.825499 0.161179 -0.833727
v 0.785456 0.143406 -0.867328
v 0.638665 0.108821 -0.850624
v -0.065807 0.307242 -0.055218
v 0.084421 0.373924 0.070838
v -0.084421 0.373924 -0.070838
v -0.178150 0.395230 -0.149485
v 0.899090 0.133252 -0.771976
v 0.178151 0.338357 0.149486
v -0.061465 0.283896 -0.051575
v 0.642074 0.090491 -0.847764
v 0.791876 0.108884 -0.861941
v 0.899090 0.177909 -0.771976
v 0.178151 0.395230 0.149486
v 0.859529 0.109834 0.796384
v 0.845351 0.091441 0.646581
v -0.648777 0.111006 0.847608
v 0.065807 0.307242 0.055218
v 0.051575 0.283896 -0.061465
vt 0.614485 0.615493
vt 0.613469 0.615493
vt 0.611493 0.611437
vt 0.611493 0.580495
vt 0.614485 0.580495
vt 0.609256 0.545497
vt 0.611123 0.545497
vt 0.611123 0.580495
vt 0.609256 0.580495
vt 0.609256 0.580495
vt 0.609256 0.545497
vt 0.616352 0.615493
vt 0.616352 0.580495
vt 0.611580 0.580495
vt 0.611580 0.611438
vt 0.613633 0.615493
vt 0.616352 0.615493
vt 0.616352 0.580495
vt 0.609256 0.545497
vt 0.609256 0.580495
vt 0.614028 0.580495
vt 0.614028 0.549553
vt 0.611975 0.545497
vt 0.609256 0.545497
vt 0.612139 0.545497
vt 0.611123 0.545497
vt 0.612139 0.545497
vt 0.614115 0.549552
vt 0.614115 0.580495
vt 0.614485 0.615493
vt 0.613469 0.615493
vt 0.611493 0.611438
vt 0.611493 0.580495
vt 0.614485 0.580495
vt 0.611123 0.580495
vt 0.609256 0.580495
vt 0.616352 0.615493
vt 0.616352 0.580495
vt 0.611580 0.580495
vt 0.611580 0.611437
vt 0.613633 0.615493
vt 0.616352 0.615493
vt 0.616352 0.580495
vt 0.611975 0.545497
vt 0.614028 0.549553
vt 0.614115 0.549552
vt 0.614115 0.580495
vt 0.614028 0.580495
vt 0.614485 0.615493
vt 0.613469 0.615493
vt 0.611493 0.611437
vt 0.611493 0.580495
vt 0.614485 0.580495
vt 0.609256 0.545497
vt 0.611123 0.545497
vt 0.611123 0.580495
vt 0.609256 0.580495
vt 0.609256 0.580495
vt 0.609256 0.545497
vt 0.616352 0.615493
vt 0.616352 0.580495
vt 0.611580 0.580495
vt 0.611580 0.611438
vt 0.613633 0.615493
vt 0.616352 0.615493
vt 0.616352 0.580495
vt 0.609256 0.545497
vt 0.609256 0.580495
vt 0.614028 0.580495
vt 0.614028 0.549553
vt 0.611975 0.545497
vt 0.609256 0.545497
vt 0.612139 0.545497
vt 0.611123 0.545497
vt 0.612139 0.545497
vt 0.614115 0.549552
vt 0.614115 0.580495
vt 0.614485 0.615493
vt 0.613469 0.615493
vt 0.611493 0.611438
vt 0.611493 0.580495
vt 0.614485 0.580495
vt 0.611123 0.580495
vt 0.609256 0.580495
vt 0.616352 0.615493
vt 0.616352 0.580495
vt 0.611580 0.580495
vt 0.611580 0.611437
vt 0.613633 0.615493
vt 0.616352 0.615493
vt 0.616352 0.580495
vt 0.611975 0.545497
vt 0.614028 0.549553
vt 0.614115 0.549552
vt 0.614115 0.580495
vt 0.614028 0.580495
vn -0.1687 0.9163 0.3632
vn 0.1736 0.9702 -0.1690
vn 0.0302 -0.0000 0.9995
vn 0.1665 -0.9655 -0.2001
vn -1.0000 0.0000 -0.0000
vn -0.1736 0.9702 0.1690
vn -0.0302 0.0000 -0.9995
vn -0.2001 -0.9655 -0.1665
vn -0.0000 0.0000 1.0000
vn 0.1687 0.9163 -0.3632
vn -0.3632 0.9163 -0.1687
vn 0.1690 0.9702 0.1735
vn -0.9997 0.0000 0.0259
vn 0.2001 -0.9655 0.1665
vn 0.0000 0.0000 -1.0000
vn -0.1690 0.9702 -0.1736
vn 0.9995 -0.0000 -0.0302
vn 0.7066 -0.1669 -0.6876
vn 0.3634 0.9161 0.1695
vn -0.7066 -0.1669 0.6876
vn 0.6876 -0.1669 0.7066
vn -0.6876 -0.1669 -0.7066
vn 1.0000 -0.0000 0.0000
vn -0.0135 -0.2359 -0.9717
vn 0.0135 -0.2359 0.9717
vn 0.9717 -0.2359 -0.0087
vn -0.9717 -0.2359 0.0135
vn -0.1665 -0.9655 0.2001
vn -0.3627 0.9163 0.1698
vn 0.2421 0.9701 -0.0174
vn -0.6196 0.0000 0.7849
vn 0.2561 -0.9655 -0.0462
vn -0.7660 0.0000 -0.6428
vn -0.2416 0.9702 0.0178
vn 0.6194 0.0000 -0.7851
vn -0.0462 -0.9655 -0.2561
vn -0.6428 -0.0000 0.7660
vn 0.3634 0.9161 -0.1694
vn -0.1697 0.9163 -0.3628
vn 0.0179 0.9702 0.2415
vn -0.7824 0.0000 -0.6228
vn 0.0458 -0.9654 0.2568
vn 0.6428 0.0000 -0.7660
vn -0.0172 0.9701 -0.2423
vn 0.7876 0.0000 0.6162
vn 0.9833 -0.1669 -0.0726
vn 0.1694 0.9161 0.3634
vn -0.9833 -0.1669 0.0726
vn 0.0726 -0.1669 0.9833
vn -0.0726 -0.1669 -0.9833
vn 0.7660 -0.0000 0.6428
vn 0.6144 -0.2359 -0.7529
vn -0.6142 -0.2359 0.7531
vn 0.7500 -0.2359 0.6179
vn -0.7559 -0.2359 -0.6107
vn -0.2567 -0.9654 0.0459
usemtl Default_OBJ.037
s off
f 1/1/1 2/2/1 3/3/1 4/4/1 5/5/1
f 6/6/2 7/7/2 8/8/2 9/9/2
f 10/10/3 11/11/3 6/6/3 9/9/3
f 12/12/4 13/13/4 14/14/4 15/15/4 16/16/4
f 17/17/5 12/12/5 16/16/5 2/2/5 1/1/5
f 17/17/6 1/1/6 5/5/6 18/18/6
f 13/13/7 12/12/7 17/17/7 18/18/7
f 19/19/8 20/20/8 21/21/8 22/22/8 23/23/8
f 24/24/9 19/19/9 23/23/9 25/25/9 26/26/9
f 7/7/10 27/27/10 28/28/10 29/29/10 8/8/10
f 30/30/11 31/31/11 32/32/11 33/33/11 34/34/11
f 24/24/12 26/26/12 35/35/12 36/36/12
f 20/20/13 19/19/13 24/24/13 36/36/13
f 37/37/14 38/38/14 39/39/14 40/40/14 41/41/14
f 42/42/15 37/37/15 41/41/15 31/31/15 30/30/15
f 42/42/16 30/30/16 34/34/16 43/43/16
f 38/38/17 37/37/17 42/42/17 43/43/17
f 44/44/18 45/45/18 28/28/18 27/27/18
f 26/26/19 25/25/19 46/46/19 47/47/19 35/35/19
f 15/15/20 3/3/20 2/2/20 16/16/20
f 23/23/21 22/22/21 46/46/21 25/25/21
f 40/40/22 32/32/22 31/31/22 41/41/22
f 6/6/23 11/11/23 44/44/23 27/27/23 7/7/23
f 29/29/24 28/28/24 45/45/24 48/48/24
f 4/4/25 3/3/25 15/15/25 14/14/25
f 47/47/26 46/46/26 22/22/26 21/21/26
f 33/33/27 32/32/27 40/40/27 39/39/27
f 11/11/28 10/10/28 48/48/28 45/45/28 44/44/28
f 49/49/29 50/50/29 51/51/29 52/52/29 53/53/29
f 54/54/30 55/55/30 56/56/30 57/57/30
f 58/58/31 59/59/31 54/54/31 57/57/31
f 60/60/32 61/61/32 62/62/32 63/63/32 64/64/32
f 65/65/33 60/60/33 64/64/33 50/50/33 49/49/33
f 65/65/34 49/49/34 53/53/34 66/66/34
f 61/61/35 60/60/35 65/65/35 66/66/35
f 67/67/36 68/68/36 69/69/36 70/70/36 71/71/36
f 72/72/37 67/67/37 71/71/37 73/73/37 74/74/37
f 55/55/38 75/75/38 76/76/38 77/77/38 56/56/38
f 78/78/39 79/79/39 80/80/39 81/81/39 82/82/39
f 72/72/40 74/74/40 83/83/40 84/84/40
f 68/68/41 67/67/41 72/72/41 84/84/41
f 85/85/42 86/86/42 87/87/42 88/88/42 89/89/42
f 90/90/43 85/85/43 89/89/43 79/79/43 78/78/43
f 90/90/44 78/78/44 82/82/44 91/91/44
f 86/86/45 85/85/45 90/90/45 91/91/45
f 92/92/46 93/93/46 76/76/46 75/75/46
f 74/74/47 73/73/47 94/94/47 95/95/47 83/83/47
f 63/63/48 51/51/48 50/50/48 64/64/48
f 71/71/49 70/70/49 94/94/49 73/73/49
f 88/88/50 80/80/50 79/79/50 89/89/50
f 54/54/51 59/59/51 92/92/51 75/75/51 55/55/51
f 77/77/52 76/76/52 93/93/52 96/96/52
f 52/52/53 51/51/53 63/63/53 62/62/53
f 95/95/54 94/94/54 70/70/54 69/69/54
f 81/81/55 80/80/55 88/88/55 87/87/55
f 59/59/56 58/58/56 96/96/56 93/93/56 92/92/56
o Circle.000_Circle.000
v -0.237444 0.192853 0.114348
v -0.263542 0.192853 0.000000
v 0.000000 0.192853 0.000000
v -0.237444 0.192853 -0.114348
v -0.164317 0.192853 -0.206046
v -0.058645 0.192853 -0.256935
v 0.058643 0.192853 -0.256935
v 0.164317 0.192853 -0.206046
v 0.237444 0.192853 -0.114348
v 0.263542 0.192853 0.000000
v 0.237444 0.192853 0.114348
v 0.164317 0.192853 0.206046
v 0.058643 0.192853 0.256936
v -0.058643 0.192853 0.256936
v -0.164317 0.192853 0.206046
v -0.240085 0.443527 0.000000
v -0.216310 0.443527 0.104170
v 0.000000 0.443528 0.000000
v -0.149692 0.443528 0.187707
v -0.053423 0.443528 0.234066
v 0.053423 0.443528 0.234066
v 0.149692 0.443528 0.187707
v 0.216310 0.443528 0.104170
v 0.240085 0.443528 0.000000
v 0.216310 0.443528 -0.104170
v 0.149692 0.443528 -0.187706
v 0.053423 0.443528 -0.234066
v -0.053423 0.443528 -0.234066
v -0.149692 0.443528 -0.187706
v -0.216310 0.443527 -0.104170
v -0.237444 0.257453 -0.114348
v -0.263542 0.257453 0.000000
v -0.237444 0.257453 0.114348
v -0.164317 0.257453 0.206046
v -0.058643 0.257453 0.256936
v 0.058643 0.257453 0.256936
v 0.164317 0.257453 0.206046
v 0.237444 0.257453 0.114348
v 0.263542 0.257453 0.000000
v 0.237444 0.257453 -0.114348
v 0.164317 0.257453 -0.206046
v 0.058643 0.257453 -0.256935
v -0.058644 0.257453 -0.256935
v -0.164317 0.257453 -0.206046
vt 0.408525 0.526357
vt 0.395777 0.529267
vt 0.395777 0.499885
vt 0.383028 0.526357
vt 0.372805 0.518204
vt 0.367131 0.506423
vt 0.367131 0.493347
vt 0.372805 0.481566
vt 0.383028 0.473413
vt 0.395777 0.470503
vt 0.408525 0.473413
vt 0.418748 0.481566
vt 0.424422 0.493347
vt 0.424422 0.506423
vt 0.418748 0.518204
vt 0.395777 0.519943
vt 0.404480 0.517957
vt 0.395777 0.499885
vt 0.411459 0.512391
vt 0.415332 0.504348
vt 0.415332 0.495422
vt 0.411459 0.487379
vt 0.404480 0.481813
vt 0.395777 0.479827
vt 0.387074 0.481813
vt 0.380095 0.487379
vt 0.376221 0.495422
vt 0.376221 0.504348
vt 0.380095 0.512391
vt 0.387074 0.517957
vt 0.383028 0.526357
vt 0.395777 0.529267
vt 0.408525 0.526357
vt 0.418748 0.518204
vt 0.424422 0.506423
vt 0.424422 0.493347
vt 0.418748 0.481566
vt 0.408525 0.473413
vt 0.395777 0.470503
vt 0.383028 0.473413
vt 0.372805 0.481566
vt 0.367131 0.493347
vt 0.367131 0.506423
vt 0.372805 0.518204
vn 0.0000 -1.0000 0.0000
vn -0.0000 1.0000 0.0000
vn -0.9676 0.1220 -0.2208
vn -0.9010 -0.0000 -0.4339
vn -1.0000 0.0000 -0.0000
vn -0.9010 0.0000 0.4339
vn -0.6235 -0.0000 0.7818
vn -0.2225 -0.0000 0.9749
vn 0.2225 -0.0000 0.9749
vn 0.6235 -0.0000 0.7818
vn 0.9010 -0.0000 0.4339
vn 1.0000 -0.0000 -0.0000
vn 0.9010 -0.0000 -0.4339
vn 0.6235 0.0000 -0.7818
vn 0.2225 0.0000 -0.9749
vn -0.2225 0.0000 -0.9749
vn -0.6235 0.0000 -0.7818
vn -0.9676 0.1220 0.2208
vn -0.8939 0.1251 0.4305
vn -0.6186 0.1251 0.7757
vn -0.2208 0.1251 0.9673
vn 0.2208 0.1251 0.9673
vn 0.6186 0.1251 0.7757
vn 0.8939 0.1251 0.4305
vn 0.9921 0.1251 0.0000
vn 0.8939 0.1251 -0.4305
vn 0.6186 0.1251 -0.7757
vn 0.2208 0.1251 -0.9673
vn -0.2208 0.1251 -0.9673
vn -0.6186 0.1251 -0.7757
vn -0.7760 0.1220 -0.6188
usemtl Default_OBJ.037
s off
f 97/97/57 98/98/57 99/99/57
f 98/98/57 100/100/57 99/99/57
f 100/100/57 101/101/57 99/99/57
f 101/101/57 102/102/57 99/99/57
f 102/102/57 103/103/57 99/99/57
f 103/103/57 104/104/57 99/99/57
f 104/104/57 105/105/57 99/99/57
f 105/105/57 106/106/57 99/99/57
f 106/106/57 107/107/57 99/99/57
f 107/107/57 108/108/57 99/99/57
f 108/108/57 109/109/57 99/99/57
f 109/109/57 110/110/57 99/99/57
f 110/110/57 111/111/57 99/99/57
f 111/111/57 97/97/57 99/99/57
f 112/112/58 113/113/58 114/114/58
f 113/113/58 115/115/58 114/114/58
f 115/115/58 116/116/58 114/114/58
f 116/116/58 117/117/58 114/114/58
f 117/117/58 118/118/58 114/114/58
f 118/118/58 119/119/58 114/114/58
f 119/119/58 120/120/58 114/114/58
f 120/120/58 121/121/58 114/114/58
f 121/121/58 122/122/58 114/114/58
f 122/122/58 123/123/58 114/114/58
f 123/123/58 124/124/58 114/114/58
f 124/124/58 125/125/58 114/114/58
f 125/125/58 126/126/58 114/114/58
f 112/112/59 126/126/59 127/127/59 128/128/59
f 126/126/58 112/112/58 114/114/58
s 1
f 127/127/60 100/100/60 98/98/61 128/128/61
f 129/129/62 97/97/62 111/111/63 130/130/63
f 130/130/63 111/111/63 110/110/64 131/131/64
f 131/131/64 110/110/64 109/109/65 132/132/65
f 132/132/65 109/109/65 108/108/66 133/133/66
f 133/133/66 108/108/66 107/107/67 134/134/67
f 134/134/67 107/107/67 106/106/68 135/135/68
f 135/135/68 106/106/68 105/105/69 136/136/69
f 136/136/69 105/105/69 104/104/70 137/137/70
f 137/137/70 104/104/70 103/103/71 138/138/71
f 138/138/71 103/103/71 102/102/72 139/139/72
f 139/139/72 102/102/72 101/101/73 140/140/73
f 140/140/73 101/101/73 100/100/60 127/127/60
f 128/128/61 98/98/61 97/97/62 129/129/62
f 128/128/74 129/129/75 113/113/75 112/112/74
f 129/129/75 130/130/76 115/115/76 113/113/75
f 130/130/76 131/131/77 116/116/77 115/115/76
f 131/131/77 132/132/78 117/117/78 116/116/77
f 132/132/78 133/133/79 118/118/79 117/117/78
f 133/133/79 134/134/80 119/119/80 118/118/79
f 134/134/80 135/135/81 120/120/81 119/119/80
f 135/135/81 136/136/82 121/121/82 120/120/81
f 136/136/82 137/137/83 122/122/83 121/121/82
f 137/137/83 138/138/84 123/123/84 122/122/83
f 138/138/84 139/139/85 124/124/85 123/123/84
f 139/139/85 140/140/86 125/125/86 124/124/85
f 140/140/86 127/127/87 126/126/87 125/125/86
