# Blender v2.83.4 OBJ File: 'TAC_Collider_Polaris_1.blend'
# www.blender.org
mtllib TAC_Collider_Polaris_1.mtl
o TAC_Polaris_Wing_v4.001
v 1.250000 0.400000 0.600000
v -1.625000 0.300000 1.100000
v 1.625000 0.300000 1.100000
v -2.000000 0.200000 1.300000
v 2.000000 0.200000 1.300000
v 1.000000 0.369505 0.475000
v -1.975000 -0.000000 0.500000
v -1.000000 0.369505 0.475000
v -0.150000 0.400000 1.025000
v 0.150000 0.400000 1.025000
v -1.250000 0.400000 0.600000
v -1.250000 0.400000 0.500000
v 1.250000 0.400000 0.500000
v 1.975000 0.200000 0.466667
v -1.975000 0.200000 0.466667
v 1.975000 -0.000000 0.500000
v 2.000000 0.025000 0.475000
v 2.000000 0.025000 1.389645
v 1.975000 -0.000000 1.400000
v 2.000000 0.110355 1.475000
v 1.975000 0.100000 1.500000
v 2.000000 0.175000 1.475000
v 1.975000 0.200000 1.475000
v 1.975000 0.175000 1.500000
v -2.000000 0.175000 1.475000
v -1.975000 0.175000 1.500000
v -1.975000 0.200000 1.475000
v -1.975000 0.100000 1.500000
v -2.000000 0.110355 1.475000
v -1.975000 -0.000000 1.400000
v -2.000000 0.025000 1.389645
v -2.000000 0.025000 0.475000
v -2.000000 0.200000 0.500000
v 0.880000 0.330000 1.350000
v 0.880000 0.380000 1.300000
v -0.880000 0.330000 1.350000
v -0.880000 0.380000 1.300000
v 2.000000 0.200000 0.500000
vt 0.000000 0.000000
vt 0.000000 0.000000
vt 0.000000 0.000000
vt 0.630858 0.560737
vt 0.000000 0.000000
vt 0.000000 0.000000
vt 0.000000 0.000000
vt 0.000000 0.000000
vt 0.630858 0.560737
vt 0.630858 0.560742
vt 0.000000 0.000000
vt 0.000000 0.000000
vt 0.628048 0.560539
vt 0.000000 0.000000
vt 0.630858 0.560732
vt 0.000000 0.000000
vt 0.630858 0.560737
vt 0.630858 0.560738
vt 0.630858 0.560735
vt 0.630858 0.560735
vt 0.630858 0.560737
vt 0.630858 0.560737
vt 0.630858 0.560735
vt 0.630858 0.560743
vt 0.630858 0.560735
vt 0.630857 0.560736
vt 0.630857 0.560736
vt 0.630858 0.560737
vt 0.630858 0.560737
vt 0.630858 0.560737
vt 0.630859 0.560736
vt 0.630858 0.560737
vt 0.630859 0.560736
vt 0.630858 0.560737
vt 0.630858 0.560731
vt 0.630858 0.560736
vt 0.630858 0.560737
vt 0.630860 0.560737
vt 0.630858 0.560737
vt 0.219234 0.032420
vt 0.219237 0.032420
vt 0.219234 0.032420
vt 0.460530 0.611312
vt 0.000000 0.000000
vt 0.000000 0.000000
vt 0.000000 0.000000
vt 0.630859 0.560731
vt 0.630858 0.560737
vt 0.000000 0.000000
vt 0.219237 0.032418
vt 0.000000 0.000000
vt 0.630859 0.560744
vn 0.1322 0.9864 0.0981
vn 0.0000 0.6954 0.7186
vn 0.0000 1.0000 0.0000
vn 0.1405 0.9814 0.1306
vn 0.0000 0.6340 -0.7733
vn -0.1322 0.9864 0.0981
vn -0.0139 0.9993 0.0359
vn 0.0000 -0.0476 -0.9989
vn 0.0000 0.0491 -0.9988
vn -0.1405 0.9814 0.1306
vn 0.0000 0.9974 0.0725
vn 0.0139 0.9993 0.0359
vn 0.7071 -0.7071 -0.0000
vn 0.7071 -0.5000 0.5000
vn 0.5774 0.5774 0.5774
vn -0.5774 0.5774 0.5774
vn 0.7071 0.0000 0.7071
vn -0.7071 -0.5000 0.5000
vn -0.7071 -0.7071 -0.0000
vn -0.2530 0.9487 -0.1897
vn 0.2530 0.9487 -0.1897
vn 0.2577 0.9662 0.0000
vn 0.0000 0.7071 0.7071
vn 0.7035 0.7035 0.1005
vn 0.0000 -0.7071 -0.7071
vn 0.2404 0.9701 0.0343
vn -1.0000 0.0000 0.0000
vn -0.2577 0.9662 0.0000
vn 0.0000 -1.0000 -0.0000
vn 0.0518 0.3440 -0.9375
vn 0.0000 -0.7071 0.7071
vn 0.7971 0.0854 -0.5978
vn 1.0000 0.0000 0.0000
vn -0.7035 0.7035 0.1005
vn -0.2404 0.9701 0.0343
vn -0.0032 0.7071 0.7071
vn 0.0032 0.7071 0.7071
vn -0.7971 0.0854 -0.5978
vn 0.0000 0.0000 1.0000
vn -0.0518 0.3440 -0.9375
vn -0.7071 0.0000 0.7071
usemtl Material.001
s off
f 35/1/1 3/2/1 1/3/1
f 24/4/2 34/5/2 36/6/2
f 11/7/3 10/8/3 1/3/3
f 23/9/4 3/10/4 35/1/4
f 13/11/5 8/12/5 12/13/5
f 13/11/5 6/14/5 8/12/5
f 2/15/6 37/16/6 11/7/6
f 37/16/7 9/17/7 11/7/7
f 32/18/8 15/19/8 14/20/8 17/21/8
f 8/12/9 6/14/9 14/20/9
f 37/16/10 2/15/10 27/22/10
f 35/1/11 9/17/11 37/16/11
f 8/12/9 14/20/9 15/19/9
f 10/8/12 35/1/12 1/3/12
s 1
f 17/21/13 18/23/13 16/24/13
f 16/24/13 18/23/13 19/25/13
f 20/26/14 21/27/14 18/23/14
f 18/23/14 21/27/14 19/25/14
f 22/28/15 23/9/15 24/4/15
f 25/29/16 26/30/16 27/22/16
f 22/28/17 24/4/17 20/26/17
f 20/26/17 24/4/17 21/27/17
f 30/31/18 28/32/18 31/33/18
f 31/33/18 28/32/18 29/34/18
f 30/31/19 31/33/19 7/35/19
f 7/35/19 31/33/19 32/18/19
f 15/19/20 33/36/20 12/37/20
f 38/38/21 14/20/21 13/39/21
f 1/40/22 38/41/22 13/42/22
f 36/6/23 34/5/23 35/1/23 37/43/23
f 23/9/24 22/28/24 5/44/24
f 7/45/25 32/18/25 17/21/25 16/24/25
f 24/4/2 36/6/2 26/30/2
f 3/10/26 23/9/26 5/44/26
f 31/33/27 25/46/27 4/47/27
f 4/47/28 2/15/28 11/7/28
f 33/36/27 32/18/27 31/33/27 4/47/27
f 4/47/28 12/37/28 33/36/28
f 4/47/28 11/7/28 12/13/28
f 11/7/3 9/17/3 10/48/3
f 30/49/29 7/35/29 16/24/29 19/25/29
f 6/14/30 13/11/30 14/20/30
f 19/25/31 21/27/31 28/32/31 30/31/31
f 38/38/32 17/21/32 14/20/32
f 38/41/33 5/50/33 22/28/33
f 38/51/33 20/26/33 18/23/33
f 38/41/33 22/28/33 20/26/33
f 38/51/33 18/23/33 17/21/33
f 25/29/34 27/22/34 4/47/34
f 27/22/35 2/15/35 4/47/35
f 1/3/22 3/2/22 5/52/22
f 1/3/22 5/52/22 38/41/22
f 26/30/36 36/6/36 37/16/36 27/22/36
f 11/7/3 1/3/3 13/11/3 12/13/3
f 34/5/37 24/4/37 23/9/37 35/1/37
f 32/18/38 33/36/38 15/19/38
f 21/27/39 24/4/39 26/30/39 28/32/39
f 12/13/40 8/12/40 15/19/40
f 28/32/41 26/30/41 25/29/41 29/34/41
f 35/1/11 10/8/11 9/17/11
f 31/33/27 29/34/27 25/29/27
