# Blender v2.83.4 OBJ File: 'TAC_Collider_Polaris_3.blend'
# www.blender.org
mtllib TAC_Collider_Polaris_3.mtl
o TAC_Polaris_Wing_v4.002
v -1.025000 -0.200000 0.500000
v -1.000000 -0.186620 0.475000
v -1.300000 -0.200000 0.500000
v -1.975000 -0.175000 0.500000
v -1.000000 0.369505 0.475000
v -1.000000 0.179505 -0.475000
v -1.000000 -0.375000 0.192431
v -1.000000 -0.375000 -0.597256
v -1.250000 0.400000 0.500000
v -1.025000 0.400000 0.500000
v -2.000000 0.175000 -0.475000
v -1.975000 0.200000 -0.475000
v -1.975000 0.175000 -0.500000
v -1.025000 0.200000 -0.500000
v -1.250000 0.200000 -0.500000
v -1.025000 -0.400000 -0.600000
v -1.025000 -0.400000 0.200000
v -2.000000 -0.175000 0.475000
v -1.975000 -0.200000 0.475000
v -2.000000 -0.200000 -0.600000
v -2.000000 -0.200000 0.200000
v -2.000000 0.200000 0.500000
v -1.300000 -0.400000 0.200000
v -1.300000 -0.400000 -0.600000
vt 0.630858 0.560737
vt 0.000000 0.000000
vt 0.000000 0.000000
vt 0.000000 0.000000
vt 0.000000 0.000000
vt 0.630855 0.560737
vt 0.630857 0.560737
vt 0.000000 0.000000
vt 0.000000 0.000000
vt 0.000000 0.000000
vt 0.000000 0.000000
vt 0.000000 0.000000
vt 0.630858 0.560733
vt 0.000000 0.000000
vt 0.630857 0.560739
vt 0.630858 0.560734
vt 0.630858 0.560737
vt 0.630858 0.560737
vt 0.630858 0.560737
vt 0.630858 0.560737
vt 0.630858 0.560731
vt 0.630858 0.560738
vt 0.630857 0.560736
vt 0.630858 0.560740
vt 0.628048 0.560543
vt 0.630859 0.560737
vt 0.630858 0.560738
vt 0.630858 0.560739
vt 0.630854 0.560739
vt 0.630857 0.560739
vt 0.000000 0.000000
vt 0.630858 0.560737
vt 0.630858 0.560733
vt 0.628048 0.560539
vt 0.628048 0.560540
vt 0.628048 0.560543
vt 0.630859 0.560737
vt 0.628048 0.560544
vn -0.0089 0.2582 -0.9660
vn 1.0000 -0.0000 0.0000
vn -1.0000 0.0000 0.0000
vn -0.0000 -0.0000 1.0000
vn 0.0321 0.1680 -0.9853
vn -0.5774 0.5774 -0.5774
vn -0.5774 -0.5774 0.5774
vn -0.2747 -0.9615 -0.0000
vn 0.0000 -0.8321 0.5547
vn -0.0244 0.7069 -0.7069
vn 0.7071 -0.7071 -0.0000
vn -0.0211 -0.8220 0.5691
vn -0.7070 0.7070 -0.0181
vn 0.7071 0.6934 -0.1387
vn 0.0000 0.9806 -0.1961
vn 0.0000 -1.0000 -0.0000
vn -0.2746 -0.9612 0.0250
vn -0.1354 0.9856 -0.1015
vn -0.7063 -0.0471 0.7063
vn 0.0000 0.2425 -0.9701
vn 0.7071 -0.5883 0.3922
vn 0.7555 0.1411 -0.6398
vn -0.7056 -0.7057 0.0641
vn 0.7071 0.0000 0.7071
vn -0.6882 0.2294 -0.6882
vn 0.0000 0.0000 -1.0000
vn 0.0186 0.0907 -0.9957
usemtl Material.001
s off
f 13/1/1 15/2/1 20/3/1
f 2/4/2 8/5/2 6/6/2 5/7/2
f 21/8/3 18/9/3 22/10/3
f 9/11/4 22/10/4 4/12/4 3/13/4
f 21/8/3 22/10/3 11/14/3 20/15/3
f 8/5/5 20/3/5 14/16/5
s 1
f 11/17/6 12/18/6 13/1/6
f 18/19/7 19/20/7 4/21/7
f 23/22/8 21/23/8 24/24/8
f 24/24/8 21/23/8 20/15/8
f 17/25/9 1/26/9 3/13/9 23/22/9
f 13/1/10 12/18/10 15/2/10
f 17/27/11 16/28/11 8/29/11 7/30/11
f 19/31/12 23/22/12 3/13/12 4/21/12
f 12/18/13 11/17/13 22/10/13
f 6/6/14 14/16/14 10/32/14
f 14/16/15 15/33/15 9/34/15 10/35/15
f 16/36/16 17/27/16 23/22/16 24/24/16
f 21/23/17 23/22/17 19/31/17
f 15/2/18 12/18/18 22/10/18 9/11/18
f 18/19/19 4/21/19 22/10/19
f 20/3/20 15/2/20 14/16/20
f 17/27/21 7/30/21 2/37/21 1/26/21
f 8/5/22 14/16/22 6/6/22
f 18/9/23 21/8/23 19/31/23
f 1/26/4 10/35/4 9/11/4 3/13/4
f 10/32/24 2/4/24 5/7/24
f 11/17/25 13/1/25 20/3/25
f 16/36/26 24/38/26 20/15/26
f 16/36/27 20/15/27 8/5/27
f 6/6/14 10/32/14 5/7/14
f 10/35/24 1/26/24 2/37/24
f 2/37/2 7/30/2 8/29/2
