# Blender v2.80 (sub 75) OBJ File: ''
# www.blender.org
mtllib YK_Gauge_Base_Collider.mtl
o BF_Block_111.030
v 0.000001 0.000000 -0.600000
v -0.474231 0.402293 -0.325840
v -0.501271 0.326275 -0.424954
v 0.325774 0.500219 -0.425019
v -0.325774 0.500219 -0.425019
v -0.499865 -0.325271 -0.424954
v 0.424888 0.325641 -0.501838
v -0.325774 -0.424385 -0.499717
v -0.424888 0.325641 -0.501838
v -0.325774 -0.500000 -0.424888
v 0.500568 -0.325140 -0.424954
v -0.401797 0.473258 -0.325901
v -0.273621 0.340505 -0.007147
v -0.273564 0.387334 -0.053611
v -0.338530 0.387264 -0.118437
v 0.325774 -0.500000 -0.424888
v 0.325774 -0.425019 -0.500219
v 0.424888 -0.325905 -0.500433
v -0.401797 -0.472806 -0.325778
v -0.472497 -0.401300 -0.325840
v 0.401797 0.473258 -0.325901
v 0.500568 0.326408 -0.424954
v -0.325774 0.425389 -0.501550
v 0.325774 0.425389 -0.501550
v -0.424888 -0.325271 -0.499931
v 0.401797 -0.472806 -0.325778
v -0.350469 -0.239301 -0.005393
v -0.387133 0.244582 -0.041534
v -0.386200 -0.239364 -0.041423
v -0.273594 -0.381384 -0.053446
v -0.273601 -0.335060 -0.007187
v -0.384157 -0.335230 -0.118362
v 0.473365 -0.401176 -0.325840
v 0.336964 -0.270128 -0.007195
v 0.272048 -0.335060 -0.007187
v 0.336958 -0.381383 -0.118364
v -0.242750 -0.347066 -0.005327
v 0.241197 -0.383239 -0.041437
v 0.241197 -0.347066 -0.005327
v 0.272068 0.340505 -0.007147
v 0.336964 0.275514 -0.007195
v 0.383290 0.340492 -0.118395
v 0.242857 0.312902 0.004965
v -0.244410 0.312902 0.004965
v 0.241197 0.352503 -0.005275
v -0.242750 0.389197 -0.041594
v -0.242750 0.352503 -0.005275
v 0.473365 0.402418 -0.325840
v 0.348972 -0.239280 -0.005337
v 0.385113 0.244667 -0.041478
v 0.348972 0.244667 -0.005337
v 0.234889 -0.313176 0.004965
v -0.236194 -0.313188 0.004965
v -0.384265 -0.270228 -0.053422
v -0.385353 0.275413 -0.053551
v 0.272040 -0.381384 -0.053446
v -0.242750 -0.383239 -0.041437
v 0.241197 0.389197 -0.041594
v 0.272011 0.387334 -0.053611
v 0.385113 -0.239280 -0.041479
v 0.383256 -0.270128 -0.053487
v 0.383256 0.275514 -0.053486
v 0.309430 0.246329 0.004965
v -0.350580 0.244646 -0.005282
v -0.310983 0.246329 0.004965
v -0.338581 0.275519 -0.007160
v 0.309430 -0.238722 0.004965
v -0.338452 -0.270123 -0.007230
v -0.310983 -0.238495 0.004965
v -0.385504 0.340315 -0.118429
v -0.338438 -0.381335 -0.118388
v 0.336906 0.387216 -0.118461
v 0.383264 -0.335054 -0.118396
vt 0.000000 0.000000
vt 0.000000 0.000000
vt 0.649475 0.532484
vt 0.589599 0.532484
vt 0.000000 0.000000
vt 0.560945 0.537218
vt 0.295009 0.061269
vt 0.275264 0.041525
vt 0.000000 0.000000
vt 0.663593 0.640056
vt 0.160479 0.041069
vt 0.309916 0.041512
vt 0.181757 0.019820
vt 0.181757 0.003756
vt 0.160479 0.003710
vt 0.321628 0.019820
vt 0.321628 0.003756
vt 0.160479 0.003409
vt 0.144233 0.019806
vt 0.321628 0.019792
vt 0.321628 0.003363
vt 0.359303 0.019806
vt 0.359001 0.019806
vt 0.342905 0.003409
vt 0.342905 0.003710
vt 0.576272 0.550293
vt 0.571735 0.610161
vt 0.571851 0.550285
vt 0.649475 0.623513
vt 0.589599 0.628053
vt 0.589599 0.623513
vt 0.665220 0.629300
vt 0.668643 0.632090
vt 0.663593 0.634053
vt 0.582787 0.629300
vt 0.584415 0.634053
vt 0.579364 0.632090
vt 0.681226 0.616410
vt 0.679261 0.621457
vt 0.676483 0.618037
vt 0.566773 0.616406
vt 0.571525 0.618037
vt 0.568736 0.621458
vt 0.679261 0.532185
vt 0.681226 0.537232
vt 0.676483 0.535979
vt 0.568757 0.532186
vt 0.571525 0.536018
vt 0.566791 0.537228
vt 0.579367 0.521561
vt 0.584415 0.519597
vt 0.584177 0.523382
vt 0.668640 0.521561
vt 0.663872 0.523384
vt 0.663593 0.519597
vt 0.686835 0.621457
vt 0.144233 0.019806
vt 0.181757 0.003363
vt 0.181757 0.019792
vt 0.576258 0.610169
vt 0.661323 0.532714
vt 0.667052 0.538446
vt 0.667051 0.546479
vt 0.661324 0.546479
vt 0.649475 0.628053
vt 0.687139 0.616410
vt 0.584415 0.513679
vt 0.649475 0.536960
vt 0.589599 0.536960
vt 0.686835 0.532185
vt 0.687139 0.537232
vt 0.653291 0.532714
vt 0.275291 0.041525
vt 0.295036 0.061269
vt 0.125748 0.061269
vt 0.145493 0.041524
vt 0.667281 0.610171
vt 0.667281 0.550295
vt 0.000000 0.000000
vt 0.000000 0.000000
vt 0.185882 0.218479
vt 0.317434 0.218479
vt 0.577749 0.627814
vt 0.585787 0.627823
vt 0.561261 0.532169
vt 0.110659 0.061283
vt 0.584415 0.640056
vt 0.579373 0.639751
vt 0.663593 0.513679
vt 0.668639 0.513982
vt 0.585783 0.532714
vt 0.653295 0.622029
vt 0.661324 0.613988
vt 0.653287 0.627823
vt 0.342905 0.003603
vt 0.321628 0.003649
vt 0.686836 0.521562
vt 0.577742 0.613989
vt 0.571956 0.613976
vt 0.560792 0.616396
vt 0.662809 0.610171
vt 0.165062 0.218479
vt 0.165059 0.218479
vt 0.679251 0.639732
vt 0.686840 0.632087
vt 0.585782 0.538445
vt 0.000000 0.000000
vt 0.342905 0.003301
vt 0.321628 0.003255
vt 0.359349 0.041083
vt 0.342905 0.041069
vt 0.662809 0.550295
vt 0.561059 0.632059
vt 0.000000 0.000000
vt 0.000000 0.000000
vt 0.561084 0.621440
vt 0.668634 0.639751
vt 0.000000 0.000000
vt 0.571937 0.622005
vt 0.110659 0.041538
vt 0.342905 0.041098
vt 0.568759 0.513990
vt 0.579368 0.513982
vt 0.000000 0.000000
vt 0.561279 0.521533
vt 0.309916 0.041512
vt 0.585779 0.622029
vt 0.653292 0.538445
vt 0.572104 0.538424
vt 0.000000 0.000000
vt 0.358955 0.041083
vt 0.000000 0.000000
vt 0.661317 0.627808
vt 0.145467 0.041524
vt 0.572090 0.546467
vt 0.125722 0.061269
vt 0.000000 0.000000
vn 0.0000 -0.9538 0.3004
vn -0.9587 -0.0021 0.2846
vn 0.0000 0.9605 0.2781
vn 0.6171 -0.6174 -0.4878
vn 0.5774 -0.5787 -0.5760
vn 0.6217 -0.6220 -0.4760
vn -0.0001 -0.7082 -0.7060
vn -0.0011 -0.7040 -0.7102
vn -0.0012 -0.7034 -0.7108
vn 0.7120 -0.0002 -0.7022
vn 0.7069 -0.0014 -0.7074
vn 0.7062 -0.0015 -0.7080
vn -0.6246 0.6311 -0.4600
vn -0.5782 0.5817 -0.5721
vn -0.6249 0.6292 -0.4622
vn -0.7073 -0.0020 -0.7069
vn -0.7092 -0.0016 -0.7050
vn -0.7071 -0.0021 -0.7071
vn -0.7001 -0.1639 0.6950
vn -0.6952 0.1627 0.7002
vn -0.7002 -0.1641 0.6948
vn 0.1634 0.6943 0.7009
vn -0.1633 0.6943 0.7009
vn -0.1634 0.6943 0.7009
vn 0.1147 0.2339 0.9655
vn 0.1849 0.2248 0.9567
vn 0.0666 0.2524 0.9653
vn -0.1144 0.2338 0.9655
vn -0.0666 0.2524 0.9653
vn -0.1845 0.2247 0.9568
vn 0.2542 0.0667 0.9649
vn 0.2258 0.1848 0.9565
vn 0.2352 0.1146 0.9652
vn -0.2527 0.0667 0.9652
vn -0.2340 0.1145 0.9655
vn -0.2250 0.1846 0.9567
vn 0.2179 -0.1803 0.9592
vn 0.2506 -0.0684 0.9657
vn 0.2312 -0.1088 0.9668
vn -0.2184 -0.1802 0.9591
vn -0.2320 -0.1085 0.9667
vn -0.2518 -0.0688 0.9653
vn -0.1843 -0.2179 0.9584
vn -0.0801 -0.2755 0.9580
vn -0.1005 -0.2534 0.9621
vn 0.1847 -0.2187 0.9582
vn 0.1012 -0.2538 0.9620
vn 0.0799 -0.2760 0.9578
vn 0.6976 0.1632 0.6976
vn 0.6228 0.4741 0.6224
vn 0.6225 0.4740 0.6227
vn 0.0000 -0.7088 -0.7055
vn 0.6263 0.6285 -0.4613
vn 0.5791 0.5771 -0.5758
vn 0.5795 0.5815 -0.5710
vn 0.6262 0.6300 -0.4593
vn 0.7127 0.0000 -0.7015
vn -0.5777 0.5757 -0.5787
vn -0.7094 -0.0015 -0.7048
vn -0.6950 0.1629 0.7004
vn 0.5518 -0.6591 0.5109
vn 0.6606 -0.5506 0.5103
vn 0.6223 -0.4748 0.6223
vn 0.1633 0.6943 0.7009
vn -0.1632 -0.6971 0.6982
vn 0.1632 -0.6971 0.6982
vn 0.6976 -0.1632 0.6976
vn 0.2538 -0.8740 0.4143
vn 0.5964 -0.6503 0.4706
vn 0.9643 -0.0000 0.2647
vn 0.8737 0.2938 0.3876
vn 0.8711 -0.2939 0.3934
vn 0.9444 0.0560 0.3241
vn 0.9442 -0.0555 0.3246
vn -0.5449 0.6729 0.5003
vn -0.2447 0.8856 0.3947
vn -0.4558 0.7798 0.4291
vn -0.6244 -0.4748 0.6203
vn -0.6242 -0.4744 0.6207
vn 0.6406 -0.6405 -0.4234
vn 0.6421 -0.6420 -0.4191
vn -0.4746 0.6201 0.6247
vn -0.4744 0.6206 0.6243
vn 0.4751 -0.6219 0.6226
vn 0.4750 -0.6219 0.6226
vn -0.4754 -0.6217 0.6225
vn -0.4759 -0.6216 0.6222
vn 0.4750 0.6199 0.6246
vn 0.4752 0.6202 0.6241
vn 0.6679 -0.6676 -0.3289
vn -0.6166 -0.6154 -0.4910
vn -0.6214 -0.6200 -0.4789
vn -0.5745 -0.5757 -0.5818
vn 0.8761 -0.2520 0.4111
vn -0.6208 0.4743 0.6242
vn -0.6210 0.4741 0.6242
vn 0.5977 0.6576 0.4587
vn 0.5474 0.6694 0.5023
vn 0.6662 0.5492 0.5045
vn -0.8789 -0.2511 0.4055
vn -0.8968 -0.2081 0.3906
vn -0.6553 -0.5943 0.4662
vn -0.0798 -0.1708 -0.9821
vn -0.1687 -0.0818 -0.9823
vn -0.0003 -0.0020 -1.0000
vn -0.1672 0.0781 -0.9828
vn -0.0778 0.1679 -0.9827
vn -0.6634 0.6715 -0.3301
vn 0.0786 -0.1704 -0.9822
vn 0.0000 -0.0000 1.0000
vn -0.6678 0.5488 0.5028
vn 0.0000 0.9649 0.2625
vn -0.9564 -0.0018 0.2920
vn -0.9461 0.0535 0.3195
vn -0.7757 0.4596 0.4325
vn -0.0543 0.9489 0.3109
vn 0.0000 0.9590 0.2835
vn -0.8816 0.2463 0.4026
vn 0.2033 0.9018 0.3815
vn 0.2454 0.8848 0.3962
vn 0.6653 0.6698 -0.3296
vn 0.0000 -0.9644 0.2646
vn -0.5533 -0.6596 0.5087
vn -0.6649 -0.5484 0.5071
vn 0.0000 0.7150 -0.6991
vn 0.8782 0.2506 0.4073
vn -0.2087 -0.8933 0.3981
vn -0.2536 -0.8747 0.4130
vn -0.5998 -0.6497 0.4670
vn 0.0778 0.1679 -0.9827
vn 0.2092 -0.8926 0.3993
vn -0.6436 -0.6401 -0.4196
vn -0.6725 -0.6652 -0.3246
vn -0.6419 -0.6386 -0.4245
vn 0.1680 -0.0811 -0.9824
vn 0.1670 0.0784 -0.9828
vn -0.9643 -0.0021 0.2647
usemtl Default_OBJ.021
s off
f 19/1/1 26/2/1 38/3/1 57/4/1
f 20/5/2 29/6/2 2/7/2 3/8/2
f 12/9/3 58/10/3 21/11/3 5/12/3
s 1
f 16/13/4 17/14/5 18/15/6
f 17/14/7 10/16/8 8/17/9
f 7/18/10 11/19/11 18/15/12
f 5/20/13 23/21/14 3/22/15
f 6/23/16 9/24/17 25/25/18
f 27/26/19 28/27/20 29/28/21
f 45/29/22 46/30/23 47/31/24
f 43/32/25 40/33/26 45/34/27
f 44/35/28 47/36/29 13/37/30
f 51/38/31 41/39/32 63/40/33
f 64/41/34 65/42/35 66/43/36
f 34/44/37 49/45/38 67/46/39
f 68/47/40 69/48/41 27/49/42
f 31/50/43 37/51/44 53/52/45
f 35/53/46 52/54/47 39/55/48
f 47/36/29 43/32/25 45/34/27
f 67/46/39 35/53/46 34/44/37
f 31/50/43 69/48/41 68/47/40
f 64/41/34 69/48/41 65/42/35
f 13/37/30 65/42/35 44/35/28
f 51/38/49 62/56/50 41/39/51
f 17/14/7 16/13/52 10/16/8
f 22/57/53 7/18/54 24/58/55
f 4/59/56 22/57/53 24/58/55
f 7/18/10 22/57/57 11/19/11
f 9/24/58 3/22/15 23/21/14
f 6/23/16 3/22/59 9/24/17
f 27/26/19 64/60/60 28/27/20
f 36/61/61 73/62/62 61/63/63
f 61/63/63 34/64/63 36/61/61
f 45/29/22 58/65/64 46/30/23
f 47/36/29 44/35/28 43/32/25
f 67/46/39 52/54/47 35/53/46
f 31/50/43 53/52/45 69/48/41
f 64/41/34 27/49/42 69/48/41
f 13/37/30 66/43/36 65/42/35
f 51/38/49 50/66/49 62/56/50
f 57/67/65 38/3/66 39/68/66 37/69/65
f 49/45/67 34/44/63 61/70/63 60/71/67
f 36/61/61 56/72/68 26/2/69
f 22/73/70 48/74/71 33/75/72 11/76/70
f 50/77/73 60/78/74 33/79/72 48/80/71
f 37/51/44 39/68/48 52/81/47 53/82/45
f 15/83/75 14/84/76 12/9/77
f 27/49/19 29/28/21 54/85/78 68/47/79
f 16/13/4 18/15/6 11/76/80 26/86/81
f 13/37/82 47/36/24 46/87/23 14/88/83
f 35/53/84 39/55/66 38/89/66 56/90/85
f 31/50/86 68/47/79 30/91/87
f 43/32/25 63/40/33 41/39/32 40/92/26
f 40/92/88 41/93/51 59/94/89
f 26/86/81 11/76/80 33/75/90
f 10/16/91 25/95/92 8/96/93
f 61/70/94 73/97/62 33/79/72
f 66/98/95 55/99/96 28/100/20 64/41/60
f 49/45/38 51/101/31 63/102/33 67/103/39
f 48/80/71 21/11/97 72/104/98 42/105/99
f 31/106/86 30/91/87 57/67/65 37/51/65
f 54/85/100 29/6/101 20/5/102
f 8/96/103 25/95/104 1/107/105
f 40/92/88 59/94/89 58/10/64 45/34/22
f 9/108/106 23/109/107 1/107/105
f 3/8/15 2/110/108 12/111/108 5/12/13
f 17/14/109 8/17/103 1/107/105
f 60/71/67 50/77/49 51/101/49 49/112/67
f 44/35/110 65/42/110 69/48/110
f 55/99/96 66/98/95 14/84/83 70/113/111
f 5/12/112 21/11/112 4/59/112
f 44/114/110 53/82/110 52/81/110
f 29/28/113 28/27/114 2/115/115
f 12/9/77 46/87/116 58/10/117
f 44/114/110 67/103/110 63/102/110
f 55/116/118 70/113/111 2/115/115
f 58/10/119 59/117/120 21/118/97
f 48/74/121 22/73/53 4/59/56 21/11/121
f 70/119/111 14/84/83 15/83/75
f 16/120/122 26/86/122 19/121/122 10/16/122
f 71/122/123 30/123/87 68/124/79 32/125/124
f 70/119/111 15/83/75 12/9/77 2/110/115
f 24/58/125 23/21/125 5/12/125 4/126/125
f 66/98/95 13/127/82 14/84/83
f 62/56/126 50/66/73 48/80/71
f 57/67/127 30/123/128 19/1/129
f 34/64/63 35/128/84 56/72/85 36/61/61
f 26/2/69 33/75/72 73/62/62 36/61/61
f 1/107/105 23/109/107 24/58/130
f 68/47/79 54/85/78 32/129/124
f 71/122/123 32/130/124 20/131/102 19/121/129
f 56/90/68 38/89/131 26/2/69
f 62/56/50 42/105/99 72/104/98
f 41/39/51 62/132/50 72/133/98 59/94/89
f 14/88/76 46/87/116 12/9/77
f 60/71/74 61/70/94 33/79/72
f 19/121/132 20/131/133 6/134/134
f 32/129/124 54/135/100 20/5/102
f 18/15/135 1/107/105 7/18/136
f 25/25/104 9/24/106 1/107/105
f 18/15/135 17/14/109 1/107/105
f 6/134/137 20/136/137 3/8/137
f 44/35/110 69/48/110 53/82/110
f 44/114/110 52/81/110 67/103/110
f 28/100/114 55/116/118 2/115/115
f 44/114/110 63/102/110 43/32/110
f 59/94/120 72/133/98 21/11/97
f 6/137/134 25/25/92 10/16/91 19/121/132
f 42/105/99 62/56/126 48/80/71
f 30/123/128 71/122/123 19/121/129
f 7/18/136 1/107/105 24/58/130
