# Blender v2.79 (sub 0) OBJ File: ''
# www.blender.org
mtllib BF_Hollow_Wing_Center_body.mtl
o Cube_Cube.001
v -2.500000 -0.250000 -1.500000
v -2.500000 0.250000 -1.500000
v -2.500000 0.250000 -2.500000
v -2.500000 -0.250000 -2.500000
v 1.500000 -0.250000 -2.500000
v 1.500000 0.250000 -2.500000
v 2.500000 0.250000 -2.500000
v 2.500000 -0.250000 -2.500000
v 2.500000 -0.250000 1.500000
v 2.500000 0.250000 1.500000
v 2.500000 0.250000 2.500000
v 2.500000 -0.250000 2.500000
v -1.500000 -0.250000 2.500000
v -1.500000 0.250000 2.500000
v -2.500000 0.250000 2.500000
v -2.500000 -0.250000 2.500000
v 1.500000 -0.250000 1.500000
v 1.500000 -0.250000 2.500000
v -1.500000 0.250000 1.500000
v -2.500000 0.250000 1.500000
v 1.500000 0.250000 1.500000
v 1.500000 0.250000 2.500000
v 0.500000 0.250000 1.500000
v 0.500000 0.250000 2.500000
v -0.500000 0.250000 1.500000
v -0.500000 0.250000 2.500000
v 1.500000 0.250000 -1.500000
v 2.500000 0.250000 -1.500000
v 1.500000 0.250000 -0.500000
v 2.500000 0.250000 -0.500000
v 1.500000 0.250000 0.500000
v 2.500000 0.250000 0.500000
v 0.500000 0.250000 -2.500000
v 0.500000 0.250000 -1.500000
v -0.500000 0.250000 -2.500000
v -0.500000 0.250000 -1.500000
v -1.500000 0.250000 -2.500000
v -1.500000 0.250000 -1.500000
v -2.500000 0.250000 -0.500000
v -1.500000 0.250000 -0.500000
v -2.500000 0.250000 0.500000
v -1.500000 0.250000 0.500000
v -2.500000 -0.250000 1.500000
v -1.500000 -0.250000 1.500000
v -0.500000 -0.250000 1.500000
v -0.500000 -0.250000 2.500000
v 0.500000 -0.250000 1.500000
v 0.500000 -0.250000 2.500000
v -1.500000 -0.250000 -2.500000
v -1.500000 -0.250000 -1.500000
v -1.500000 -0.250000 -0.500000
v -2.500000 -0.250000 -0.500000
v -1.500000 -0.250000 0.500000
v -2.500000 -0.250000 0.500000
v -0.500000 -0.250000 -2.500000
v -0.500000 -0.250000 -1.500000
v 0.500000 -0.250000 -2.500000
v 0.500000 -0.250000 -1.500000
v 1.500000 -0.250000 -1.500000
v 2.500000 -0.250000 -1.500000
v 2.500000 -0.250000 -0.500000
v 1.500000 -0.250000 -0.500000
v 2.500000 -0.250000 0.500000
v 1.500000 -0.250000 0.500000
v 0.357143 0.250000 2.500000
v 0.214286 0.250000 2.500000
v 0.000000 0.250000 2.500000
v -0.214286 0.250000 2.500000
v -0.357143 0.250000 2.500000
v 0.500000 0.250000 1.642857
v 0.500000 0.250000 1.785714
v 0.500000 0.250000 1.928571
v 0.500000 0.250000 2.071429
v 0.500000 0.250000 2.214286
v 0.500000 0.250000 2.357143
v -0.500000 0.250000 1.642857
v -0.500000 0.250000 1.785714
v -0.500000 0.250000 1.928571
v -0.500000 0.250000 2.071429
v -0.500000 0.250000 2.214286
v -0.500000 0.250000 2.357143
v 0.357143 0.250000 1.500000
v 0.214286 0.250000 1.500000
v 0.071429 0.250000 1.500000
v -0.071429 0.250000 1.500000
v -0.214286 0.250000 1.500000
v -0.357143 0.250000 1.500000
v 0.357143 0.250000 1.642857
v 0.357143 0.250000 1.785714
v 0.357143 0.250000 2.214286
v 0.357143 0.250000 2.357143
v 0.214286 0.250000 1.642857
v 0.214286 0.250000 1.785714
v 0.285714 0.250000 2.000000
v 0.071429 0.250000 1.642857
v 0.071429 0.250000 1.785714
v 0.071429 0.250000 1.928571
v 0.071429 0.250000 2.071429
v 0.142857 0.250000 2.285714
v -0.071429 0.250000 1.642857
v -0.071429 0.250000 1.785714
v -0.071429 0.250000 1.928571
v -0.071429 0.250000 2.071429
v -0.214286 0.250000 1.642857
v -0.214286 0.250000 1.785714
v -0.142857 0.250000 2.285714
v -0.357143 0.250000 1.642857
v -0.357143 0.250000 1.785714
v -0.285714 0.250000 2.000000
v -0.357143 0.250000 2.214286
v -0.357143 0.250000 2.357143
vt 0.234104 0.607099
vt 0.171604 0.607099
vt 0.171604 0.507099
vt 0.234104 0.507099
vt 0.202350 0.660857
vt 0.139850 0.660857
vt 0.139850 0.560857
vt 0.159381 0.701482
vt 0.241413 0.820232
vt 0.303913 0.820232
vt 0.303912 0.920232
vt 0.241413 0.920232
vt 0.163792 0.786005
vt 0.226292 0.786005
vt 0.226292 0.886005
vt 0.163792 0.886005
vt 0.265625 0.724219
vt 0.390625 0.724219
vt 0.390625 0.824219
vt 0.265625 0.824219
vt 0.230469 0.678125
vt 0.105469 0.678125
vt 0.105469 0.578125
vt 0.230469 0.578125
vt 0.390625 0.725000
vt 0.265625 0.725000
vt 0.265625 0.625000
vt 0.390625 0.625000
vt 0.300781 0.721094
vt 0.300781 0.706808
vt 0.300781 0.692523
vt 0.300781 0.678237
vt 0.300781 0.663951
vt 0.300781 0.649665
vt 0.300781 0.635380
vt 0.300781 0.621094
vt 0.193638 0.635380
vt 0.175781 0.635380
vt 0.175781 0.621094
vt 0.193638 0.621094
vt 0.175781 0.721094
vt 0.175781 0.649665
vt 0.175781 0.663951
vt 0.175781 0.678237
vt 0.175781 0.692523
vt 0.175781 0.706808
vt 0.328125 0.753906
vt 0.203125 0.753906
vt 0.203125 0.653906
vt 0.328125 0.653906
vt 0.234375 0.768750
vt 0.359375 0.768750
vt 0.234375 0.668750
vt 0.359375 0.668750
vt 0.359375 0.976562
vt 0.359375 0.876562
vt 0.304687 0.792969
vt 0.304687 0.692969
vt 0.273438 0.734375
vt 0.273438 0.634375
vt 0.078125 0.917969
vt 0.078125 0.817969
vt 0.164063 0.776563
vt 0.289062 0.776563
vt 0.164063 0.676563
vt 0.289062 0.676563
vt 0.101563 0.821875
vt 0.234375 0.552344
vt 0.234375 0.652344
vt 0.101563 0.921875
vt 0.234375 0.599219
vt 0.234375 0.699219
vt 0.351562 0.868750
vt 0.351562 0.968750
vt 0.113281 0.562500
vt 0.238281 0.562500
vt 0.238281 0.662500
vt 0.113281 0.662500
vt 0.320312 0.680469
vt 0.195312 0.680469
vt 0.320312 0.780469
vt 0.195312 0.780469
vt 0.187500 0.632812
vt 0.187500 0.732812
vt 0.312500 0.632812
vt 0.312500 0.732812
vt 0.261719 0.625000
vt 0.261719 0.725000
vt 0.386718 0.625000
vt 0.386718 0.725000
vt 0.367187 0.680469
vt 0.242187 0.680469
vt 0.367187 0.780469
vt 0.242187 0.780469
vt 0.109104 0.561786
vt 0.171604 0.561786
vt 0.171604 0.661786
vt 0.109104 0.661786
vt 0.226292 0.586005
vt 0.163792 0.586005
vt 0.226292 0.600291
vt 0.226292 0.614576
vt 0.226292 0.636005
vt 0.226292 0.657434
vt 0.226292 0.671719
vt 0.226292 0.686005
vt 0.163792 0.686005
vt 0.260944 0.560857
vt 0.260944 0.660857
vt 0.198444 0.660857
vt 0.303913 0.620232
vt 0.241413 0.620232
vt 0.303913 0.720232
vt 0.241413 0.720232
vt 0.241413 0.920232
vt 0.178913 0.920232
vt 0.178913 0.820232
vt 0.241413 0.820232
vt 0.178913 0.720232
vt 0.241412 0.720232
vt 0.178912 0.620232
vt 0.241412 0.620232
vt 0.288792 0.886005
vt 0.226292 0.786005
vt 0.288792 0.786005
vt 0.226292 0.686005
vt 0.288792 0.686005
vt 0.226292 0.586005
vt 0.288792 0.586005
vt 0.878441 0.734882
vt 0.878441 0.834882
vt 0.878441 0.934882
vt 0.815941 0.934882
vt 0.815941 0.834882
vt 0.815941 0.734882
vt 0.815941 0.634882
vt 0.878441 0.634882
vt 0.940941 0.705353
vt 0.940941 0.805353
vt 0.940941 0.905353
vt 0.878441 0.905353
vt 0.878441 0.805353
vt 0.878441 0.705353
vt 0.878441 0.605353
vt 0.940941 0.605353
vt 0.867323 0.839518
vt 0.867323 0.939518
vt 0.804823 0.939518
vt 0.804823 0.839518
vt 0.804823 0.739518
vt 0.804823 0.639518
vt 0.867323 0.639518
vt 0.867323 0.739518
vt 0.867323 0.753804
vt 0.867323 0.768089
vt 0.867323 0.782375
vt 0.867323 0.796661
vt 0.867323 0.810947
vt 0.867323 0.825232
vt 0.893602 0.737943
vt 0.893602 0.637943
vt 0.956102 0.637943
vt 0.956102 0.737943
vt 0.956102 0.837943
vt 0.956102 0.937943
vt 0.893602 0.937943
vt 0.893602 0.837943
vt 0.282924 0.635380
vt 0.282924 0.621094
vt 0.256138 0.642523
vt 0.265067 0.621094
vt 0.238281 0.621094
vt 0.962383 0.034709
vt 0.926669 0.034709
vt 0.944526 0.013281
vt 0.220424 0.642523
vt 0.211495 0.621094
vt 0.282924 0.721094
vt 0.282924 0.706808
vt 0.282924 0.692523
vt 0.273995 0.671094
vt 0.282924 0.649665
vt 0.265067 0.721094
vt 0.265067 0.706808
vt 0.265067 0.692523
vt 0.247210 0.721094
vt 0.247210 0.706808
vt 0.247210 0.692523
vt 0.247210 0.678237
vt 0.247210 0.663951
vt 0.980240 0.063281
vt 0.953454 0.056138
vt 0.229352 0.721094
vt 0.229352 0.706808
vt 0.229352 0.692523
vt 0.953454 0.084709
vt 0.935597 0.084709
vt 0.935597 0.070423
vt 0.953454 0.070423
vt 0.935597 0.056138
vt 0.211495 0.721094
vt 0.211495 0.706808
vt 0.211495 0.692523
vt 0.202567 0.671094
vt 0.229352 0.678237
vt 0.229352 0.663951
vt 0.908811 0.063281
vt 0.193638 0.721094
vt 0.193638 0.706808
vt 0.193638 0.692523
vt 0.193638 0.649665
vn -1.0000 0.0000 0.0000
vn 0.0000 0.0000 -1.0000
vn 1.0000 0.0000 0.0000
vn 0.0000 0.0000 1.0000
vn 0.0000 -1.0000 -0.0000
vn 0.0000 1.0000 0.0000
usemtl None
s 1
f 1/1/1 2/2/1 3/3/1 4/4/1
f 5/5/2 6/6/2 7/7/2 8/8/2
f 9/9/3 10/10/3 11/11/3 12/12/3
f 13/13/4 14/14/4 15/15/4 16/16/4
f 17/17/5 9/18/5 12/19/5 18/20/5
f 19/21/6 20/22/6 15/23/6 14/24/6
f 10/25/6 21/26/6 22/27/6 11/28/6
f 21/26/6 23/29/6 70/30/6 71/31/6 72/32/6 73/33/6 74/34/6 75/35/6 24/36/6 22/27/6
f 111/37/6 81/38/6 26/39/6 69/40/6
f 25/41/6 19/21/6 14/24/6 26/39/6 81/38/6 80/42/6 79/43/6 78/44/6 77/45/6 76/46/6
f 7/47/6 6/48/6 27/49/6 28/50/6
f 28/50/6 27/49/6 29/51/6 30/52/6
f 30/52/6 29/51/6 31/53/6 32/54/6
f 32/54/6 31/53/6 21/26/6 10/25/6
f 6/48/6 33/55/6 34/56/6 27/49/6
f 33/55/6 35/57/6 36/58/6 34/56/6
f 35/57/6 37/59/6 38/60/6 36/58/6
f 37/59/6 3/61/6 2/62/6 38/60/6
f 38/60/6 2/62/6 39/63/6 40/64/6
f 40/64/6 39/63/6 41/65/6 42/66/6
f 42/66/6 41/65/6 20/22/6 19/21/6
f 43/67/5 44/68/5 13/69/5 16/70/5
f 44/68/5 45/71/5 46/72/5 13/69/5
f 45/71/5 47/73/5 48/74/5 46/72/5
f 47/73/5 17/17/5 18/20/5 48/74/5
f 4/75/5 49/76/5 50/77/5 1/78/5
f 1/78/5 50/77/5 51/79/5 52/80/5
f 52/80/5 51/79/5 53/81/5 54/82/5
f 54/82/5 53/81/5 44/68/5 43/67/5
f 49/76/5 55/83/5 56/84/5 50/77/5
f 55/83/5 57/85/5 58/86/5 56/84/5
f 57/85/5 5/87/5 59/88/5 58/86/5
f 5/87/5 8/89/5 60/90/5 59/88/5
f 59/88/5 60/90/5 61/91/5 62/92/5
f 62/92/5 61/91/5 63/93/5 64/94/5
f 64/94/5 63/93/5 9/18/5 17/17/5
f 12/95/4 11/96/4 22/97/4 18/98/4
f 18/98/4 22/97/4 24/99/4 48/100/4
f 48/100/4 24/99/4 65/101/4 66/102/4 67/103/4 68/104/4 69/105/4 26/106/4 46/107/4
f 46/107/4 26/106/4 14/14/4 13/13/4
f 8/8/3 7/108/3 28/109/3 60/110/3
f 60/110/3 28/109/3 30/111/3 61/112/3
f 61/112/3 30/111/3 32/113/3 63/114/3
f 63/114/3 32/113/3 10/10/3 9/9/3
f 4/115/2 3/116/2 37/117/2 49/118/2
f 49/118/2 37/117/2 35/119/2 55/120/2
f 55/120/2 35/119/2 33/121/2 57/122/2
f 57/122/2 33/121/2 6/6/2 5/5/2
f 16/123/1 15/15/1 20/124/1 43/125/1
f 43/125/1 20/124/1 41/126/1 54/127/1
f 54/127/1 41/126/1 39/128/1 52/129/1
f 52/129/1 39/128/1 2/2/1 1/1/1
f 34/130/4 36/131/4 38/132/4 50/133/4 56/134/4 58/135/4 59/136/4 27/137/4
f 40/138/3 42/139/3 19/140/3 44/141/3 53/142/3 51/143/3 50/144/3 38/145/3
f 23/146/2 21/147/2 17/148/2 47/149/2 45/150/2 44/151/2 19/152/2 25/153/2 87/154/2 86/155/2 85/156/2 84/157/2 83/158/2 82/159/2
f 29/160/1 27/161/1 59/162/1 62/163/1 64/164/1 17/165/1 21/166/1 31/167/1
f 75/35/6 91/168/6 65/169/6 24/36/6
f 91/168/6 99/170/6 66/171/6 65/169/6
f 99/170/6 67/172/6 66/171/6
f 99/173/6 106/174/6 67/175/6
f 106/176/6 68/177/6 67/172/6
f 106/176/6 111/37/6 69/40/6 68/177/6
f 23/29/6 82/178/6 88/179/6 70/30/6
f 70/30/6 88/179/6 89/180/6 71/31/6
f 71/31/6 89/180/6 94/181/6 72/32/6
f 72/32/6 94/181/6 73/33/6
f 73/33/6 94/181/6 90/182/6 74/34/6
f 74/34/6 90/182/6 91/168/6 75/35/6
f 82/178/6 83/183/6 92/184/6 88/179/6
f 88/179/6 92/184/6 93/185/6 89/180/6
f 89/180/6 93/185/6 94/181/6
f 94/181/6 99/170/6 90/182/6
f 90/182/6 99/170/6 91/168/6
f 83/183/6 84/186/6 95/187/6 92/184/6
f 92/184/6 95/187/6 96/188/6 93/185/6
f 93/185/6 96/188/6 97/189/6 94/181/6
f 94/181/6 97/189/6 98/190/6
f 94/191/6 98/192/6 99/173/6
f 84/186/6 85/193/6 100/194/6 95/187/6
f 95/187/6 100/194/6 101/195/6 96/188/6
f 96/196/6 101/197/6 102/198/6 97/199/6
f 97/199/6 102/198/6 103/200/6 98/192/6
f 98/192/6 103/200/6 106/174/6 99/173/6
f 85/193/6 86/201/6 104/202/6 100/194/6
f 100/194/6 104/202/6 105/203/6 101/195/6
f 101/195/6 105/203/6 109/204/6 102/205/6
f 102/205/6 109/204/6 103/206/6
f 103/200/6 109/207/6 106/174/6
f 86/201/6 87/208/6 107/209/6 104/202/6
f 104/202/6 107/209/6 108/210/6 105/203/6
f 105/203/6 108/210/6 109/204/6
f 109/204/6 110/211/6 106/176/6
f 106/176/6 110/211/6 111/37/6
f 87/208/6 25/41/6 76/46/6 107/209/6
f 107/209/6 76/46/6 77/45/6 108/210/6
f 108/210/6 77/45/6 78/44/6 109/204/6
f 109/204/6 78/44/6 79/43/6
f 109/204/6 79/43/6 80/42/6 110/211/6
f 110/211/6 80/42/6 81/38/6 111/37/6
