# Blender v2.90.1 OBJ File: 'OS_Fencing.blend'
# www.blender.org
mtllib OS_Fence.mtl
o Fencing_Cube.019
v -0.108799 -0.462000 -0.441986
v -0.165000 -0.391678 -0.441986
v -0.108799 -0.391678 -0.500000
v -0.165000 0.391678 -0.441986
v -0.108799 0.462000 -0.441986
v -0.108799 0.391678 -0.500000
v 0.108799 -0.462000 -0.441986
v 0.108799 -0.391678 -0.500000
v 0.165000 -0.391678 -0.441986
v 0.108799 0.462000 -0.441986
v 0.165000 0.391678 -0.441986
v 0.108799 0.391678 -0.500000
v -0.108799 -0.462000 1.441986
v -0.108799 -0.391678 1.500000
v -0.165000 -0.391678 1.441986
v -0.108799 0.462000 1.441986
v -0.165000 0.391678 1.441986
v -0.108799 0.391678 1.500000
v 0.108799 -0.462000 1.441986
v 0.165000 -0.391678 1.441986
v 0.108799 -0.391678 1.500000
v 0.108799 0.462000 1.441986
v 0.108799 0.391678 1.500000
v 0.165000 0.391678 1.441986
v 0.165000 -0.391678 0.872922
v 0.165000 -0.391678 1.125952
v 0.108799 0.462000 1.125952
v 0.108799 0.462000 0.872922
v -0.108799 -0.462000 1.125952
v -0.108799 -0.462000 0.872922
v -0.165000 0.391678 1.125952
v -0.165000 0.391678 0.872922
v 0.108799 -0.462000 1.125952
v 0.108799 -0.462000 0.872922
v 0.165000 0.391678 1.125952
v 0.165000 0.391678 0.872922
v -0.165000 -0.391678 0.872922
v -0.165000 -0.391678 1.125952
v -0.108799 0.462000 0.872922
v -0.108799 0.462000 1.125952
v 0.108799 -0.462000 -0.126414
v 0.108799 -0.462000 0.126617
v 0.165000 0.391678 -0.126414
v 0.165000 0.391678 0.126617
v -0.165000 -0.391678 0.126617
v -0.165000 -0.391678 -0.126414
v -0.108799 0.462000 0.126617
v -0.108799 0.462000 -0.126414
v 0.165000 -0.391678 0.126617
v 0.165000 -0.391678 -0.126414
v 0.108799 0.462000 -0.126414
v 0.108799 0.462000 0.126617
v -0.108799 -0.462000 -0.126414
v -0.108799 -0.462000 0.126617
v -0.165000 0.391678 -0.126414
v -0.165000 0.391678 0.126617
v 0.195045 0.407086 0.891768
v 0.206619 0.413022 0.922996
v 0.195045 0.407086 1.107628
v 0.206619 0.413022 1.076603
v -0.123628 -0.488981 0.891761
v -0.130289 -0.501102 0.922996
v -0.123628 -0.488981 1.107615
v -0.130289 -0.501102 1.076603
v 0.206619 -0.413022 1.076603
v 0.195045 -0.407086 1.107628
v 0.206619 -0.413022 0.922996
v 0.195045 -0.407086 0.891768
v 0.123628 -0.488981 0.891761
v 0.130289 -0.501102 0.922996
v 0.123628 -0.488981 1.107615
v 0.130289 -0.501102 1.076603
v -0.130289 0.501102 1.076603
v -0.123628 0.488981 1.107615
v -0.123628 0.488981 0.891761
v -0.130289 0.501102 0.922996
v 0.130289 0.501102 0.922996
v 0.123628 0.488981 0.891761
v 0.130289 0.501102 1.076603
v 0.123628 0.488981 1.107615
v -0.206619 -0.413022 1.076603
v -0.195045 -0.407086 1.107628
v -0.195045 -0.407086 0.891768
v -0.206619 -0.413022 0.922996
v -0.206619 0.413022 0.922996
v -0.195045 0.407086 0.891768
v -0.195045 0.407086 1.107628
v -0.206619 0.413022 1.076603
v 0.195045 0.407086 -0.104604
v 0.206619 0.413022 -0.077064
v 0.195045 0.407086 0.104286
v 0.206619 0.413022 0.076542
v 0.206619 -0.413022 0.076542
v 0.195045 -0.407086 0.104286
v 0.206619 -0.413022 -0.077064
v 0.195045 -0.407086 -0.104604
v 0.123628 0.488981 -0.104592
v 0.130289 0.501102 -0.077064
v 0.130289 0.501102 0.076542
v 0.123628 0.488981 0.104293
v -0.123628 -0.488981 -0.104592
v -0.130289 -0.501102 -0.077064
v -0.130289 -0.501102 0.076542
v -0.123628 -0.488981 0.104293
v -0.206619 -0.413022 0.076542
v -0.195045 -0.407086 0.104286
v -0.195045 -0.407086 -0.104604
v -0.206619 -0.413022 -0.077064
v 0.130289 -0.501102 -0.077064
v 0.123628 -0.488981 -0.104592
v 0.123628 -0.488981 0.104293
v 0.130289 -0.501102 0.076542
v -0.123628 0.488981 0.104293
v -0.130289 0.501102 0.076542
v -0.130289 0.501102 -0.077064
v -0.123628 0.488981 -0.104592
v -0.195045 0.407086 -0.104604
v -0.206619 0.413022 -0.077064
v -0.195045 0.407086 0.104286
v -0.206619 0.413022 0.076542
v -0.000000 0.538880 0.999961
v -0.059000 0.500060 1.057898
v -0.059000 0.500060 0.942024
v 0.059000 0.500060 0.942024
v 0.059000 0.500060 1.057898
v 0.000000 -0.539240 0.999961
v 0.059000 -0.500420 1.057898
v 0.059000 -0.500420 0.942024
v -0.059000 -0.500420 0.942024
v -0.059000 -0.500420 1.057898
v -0.000000 0.538880 -0.000039
v -0.059000 0.500060 0.057898
v -0.059000 0.500060 -0.057976
v 0.059000 0.500060 -0.057976
v 0.059000 0.500060 0.057898
v 0.000000 -0.539240 -0.000039
v 0.059000 -0.500420 0.057898
v 0.059000 -0.500420 -0.057976
v -0.059000 -0.500420 -0.057976
v -0.059000 -0.500420 0.057898
v 0.238880 0.000000 0.999961
v 0.200060 0.059000 1.057898
v 0.200060 0.059000 0.942024
v 0.200060 -0.059000 0.942024
v 0.200060 -0.059000 1.057898
v -0.239240 -0.000000 0.999961
v -0.200420 -0.059000 1.057898
v -0.200420 -0.059000 0.942024
v -0.200420 0.059000 0.942024
v -0.200420 0.059000 1.057898
v 0.238880 0.000000 -0.000039
v 0.200060 0.059000 0.057898
v 0.200060 0.059000 -0.057976
v 0.200060 -0.059000 -0.057976
v 0.200060 -0.059000 0.057898
v -0.239240 -0.000000 -0.000039
v -0.200420 -0.059000 0.057898
v -0.200420 -0.059000 -0.057976
v -0.200420 0.059000 -0.057976
v -0.200420 0.059000 0.057898
vt 0.505095 0.722300
vt 0.509493 0.839686
vt 0.469359 0.858632
vt 0.470010 0.742777
vt 0.744757 0.871722
vt 0.773488 0.973954
vt 0.812800 0.962996
vt 0.779429 0.859141
vt 0.521611 0.856535
vt 0.581487 0.880300
vt 0.540520 0.896975
vt 0.480880 0.874917
vt 0.770536 0.847666
vt 0.736177 0.860512
vt 0.769537 0.981679
vt 0.809406 0.970763
vt 0.399253 0.582137
vt 0.416569 0.667426
vt 0.318620 0.697817
vt 0.301303 0.612528
vt 0.480004 0.738483
vt 0.514750 0.718255
vt 0.735291 0.829834
vt 0.700676 0.843601
vt 0.324872 0.728611
vt 0.422822 0.698220
vt 0.431098 0.738981
vt 0.333148 0.769372
vt 0.328218 0.745090
vt 0.426168 0.714699
vt 0.434447 0.755477
vt 0.336497 0.785869
vt 0.290121 0.557457
vt 0.388071 0.527066
vt 0.396347 0.567827
vt 0.298397 0.598218
vt 0.566522 0.744448
vt 0.531580 0.763051
vt 0.286772 0.540960
vt 0.384722 0.510569
vt 0.393001 0.551348
vt 0.295051 0.581739
vt 0.625402 0.897730
vt 0.737728 0.942313
vt 0.697171 0.954914
vt 0.584400 0.913205
vt 0.304649 0.629012
vt 0.402599 0.598620
vt 0.419916 0.683909
vt 0.321966 0.714301
vt 0.770919 0.955487
vt 0.730641 0.967293
vt 0.131207 0.201688
vt 0.020522 0.195552
vt 0.020522 0.165341
vt 0.131207 0.169500
vt 0.196967 0.168803
vt 0.415158 0.154368
vt 0.415158 0.179366
vt 0.196967 0.200660
vt 0.306023 0.150084
vt 0.259574 0.150445
vt 0.259574 0.173579
vt 0.306023 0.173047
vt 0.131207 0.130849
vt 0.196967 0.132308
vt 0.196967 0.164164
vt 0.131207 0.163036
vt 0.306023 0.171491
vt 0.259574 0.170735
vt 0.259574 0.193869
vt 0.306023 0.194454
vt 0.020522 0.169767
vt 0.022989 0.174266
vt 0.022989 0.145376
vt 0.020522 0.139556
vt 0.402828 0.176537
vt 0.402828 0.152450
vt 0.402827 0.190625
vt 0.415158 0.187521
vt 0.415158 0.162523
vt 0.402827 0.166538
vt 0.022989 0.191450
vt 0.022989 0.162560
vt 0.889999 0.348355
vt 0.791050 0.224223
vt 0.988839 0.224223
vt 0.886101 0.348355
vt 0.990958 0.224223
vt 0.990958 0.480573
vt 0.890019 0.354927
vt 0.790823 0.479238
vt 0.790823 0.224223
vt 0.886435 0.354927
vt 0.986876 0.480573
vt 0.789089 0.479238
vt 0.889999 0.348355
vt 0.791050 0.224223
vt 0.988839 0.224223
vt 0.886101 0.348355
vt 0.990958 0.224223
vt 0.990958 0.480573
vt 0.890019 0.354927
vt 0.790823 0.479238
vt 0.790823 0.224223
vt 0.886435 0.354927
vt 0.986876 0.480573
vt 0.789089 0.479238
vt 0.889999 0.348355
vt 0.791050 0.224223
vt 0.988839 0.224223
vt 0.886101 0.348355
vt 0.990958 0.224223
vt 0.990958 0.480573
vt 0.890019 0.354927
vt 0.790823 0.479238
vt 0.790823 0.224223
vt 0.886435 0.354927
vt 0.986876 0.480573
vt 0.789089 0.479238
vt 0.889999 0.348355
vt 0.791050 0.224223
vt 0.988839 0.224223
vt 0.886101 0.348355
vt 0.990958 0.224223
vt 0.990958 0.480573
vt 0.890019 0.354927
vt 0.790823 0.479238
vt 0.790823 0.224223
vt 0.886435 0.354927
vt 0.986876 0.480573
vt 0.789089 0.479238
vt 0.889999 0.348355
vt 0.791050 0.224223
vt 0.988839 0.224223
vt 0.886101 0.348355
vt 0.990958 0.224223
vt 0.990958 0.480573
vt 0.890019 0.354927
vt 0.790823 0.479238
vt 0.790823 0.224223
vt 0.886435 0.354927
vt 0.986876 0.480573
vt 0.789089 0.479238
vt 0.889999 0.348355
vt 0.791050 0.224223
vt 0.988839 0.224223
vt 0.886101 0.348355
vt 0.990958 0.224223
vt 0.990958 0.480573
vt 0.890019 0.354927
vt 0.790823 0.479238
vt 0.790823 0.224223
vt 0.886435 0.354927
vt 0.986876 0.480573
vt 0.789089 0.479238
vt 0.889999 0.348355
vt 0.791050 0.224223
vt 0.988839 0.224223
vt 0.886101 0.348355
vt 0.990958 0.224223
vt 0.990958 0.480573
vt 0.890019 0.354927
vt 0.790823 0.479238
vt 0.790823 0.224223
vt 0.886435 0.354927
vt 0.986876 0.480573
vt 0.789089 0.479238
vt 0.889999 0.348355
vt 0.791050 0.224223
vt 0.988839 0.224223
vt 0.886101 0.348355
vt 0.990958 0.224223
vt 0.990958 0.480573
vt 0.890019 0.354927
vt 0.790823 0.479238
vt 0.790823 0.224223
vt 0.886435 0.354927
vt 0.986876 0.480573
vt 0.789089 0.479238
vt 0.604966 0.763898
vt 0.569968 0.781338
vt 0.670378 0.829168
vt 0.705160 0.814590
vt 0.756893 0.974148
vt 0.718191 0.959724
vt 0.046584 0.183421
vt 0.269303 0.200498
vt 0.262255 0.198311
vt 0.029537 0.180064
vt 0.729770 0.871946
vt 0.782445 0.852619
vt 0.816647 0.957291
vt 0.471354 0.752488
vt 0.470898 0.867556
vt 0.524664 0.721914
vt 0.531898 0.839327
vt 0.684929 0.947327
vt 0.573140 0.905662
vt 0.634545 0.881851
vt 0.745691 0.927896
vt 0.778545 0.941506
vt 0.693974 0.855398
vt 0.562135 0.794453
vt 0.663419 0.841274
vt 0.716762 0.819315
vt 0.615826 0.768137
vt 0.529758 0.889493
vt 0.523403 0.776548
vt 0.591108 0.863856
vt 0.747051 0.834673
vt 0.185038 0.157448
vt 0.393856 0.146106
vt 0.409223 0.149819
vt 0.193608 0.162754
vt 0.043578 0.204513
vt 0.046584 0.201024
vt 0.029537 0.196708
vt 0.027704 0.200743
vt 0.305156 0.162661
vt 0.269303 0.161901
vt 0.262255 0.165686
vt 0.305757 0.166420
vt 0.135563 0.175331
vt 0.043578 0.180285
vt 0.027704 0.176127
vt 0.132574 0.170170
vt 0.046584 0.135691
vt 0.029537 0.139432
vt 0.386428 0.144847
vt 0.397765 0.148182
vt 0.386428 0.198046
vt 0.393856 0.195866
vt 0.409223 0.192660
vt 0.397765 0.195385
vt 0.269303 0.143431
vt 0.046584 0.153294
vt 0.029537 0.157388
vt 0.262255 0.146424
vt 0.043578 0.130878
vt 0.135563 0.123274
vt 0.132574 0.125196
vt 0.027704 0.133768
vt 0.577012 0.748456
vt 0.393856 0.154793
vt 0.386428 0.158138
vt 0.397765 0.161476
vt 0.409223 0.157556
vt 0.305156 0.200993
vt 0.305757 0.198821
vt 0.185038 0.124653
vt 0.193608 0.126581
vt 0.185038 0.176230
vt 0.193608 0.171132
vt 0.185038 0.209025
vt 0.135563 0.210024
vt 0.132574 0.206853
vt 0.193609 0.205866
vt 0.135563 0.157967
vt 0.132574 0.163332
vt 0.269303 0.182028
vt 0.305156 0.181477
vt 0.305757 0.177472
vt 0.262255 0.177995
vt 0.386428 0.184755
vt 0.397765 0.180995
vt 0.043578 0.155105
vt 0.027704 0.159752
vt 0.393856 0.187180
vt 0.409223 0.183790
vt 0.305156 0.143145
vt 0.305757 0.146117
vn 0.0000 0.0000 1.0000
vn 0.0000 0.0000 -1.0000
vn 0.0000 1.0000 0.0000
vn 0.0000 -0.6364 -0.7714
vn 0.0000 0.6364 -0.7714
vn -1.0000 0.0000 0.0000
vn 0.0000 -0.6364 0.7714
vn 0.0000 0.6364 0.7714
vn 0.0000 -1.0000 -0.0000
vn 1.0000 0.0000 0.0000
vn 0.7557 0.6549 0.0000
vn -0.7557 -0.6549 0.0000
vn -0.7557 0.6549 0.0000
vn 0.7557 -0.6549 0.0000
vn -0.5497 0.8354 0.0000
vn 0.0000 0.8308 0.5566
vn 0.0000 0.8308 -0.5566
vn 0.5497 0.8354 0.0000
vn 0.5497 -0.8354 0.0000
vn 0.0000 -0.8308 0.5566
vn 0.0000 -0.8308 -0.5566
vn -0.5497 -0.8354 0.0000
vn 0.8354 0.5497 0.0000
vn 0.8308 0.0000 0.5566
vn 0.8308 0.0000 -0.5566
vn 0.8354 -0.5497 0.0000
vn -0.8354 -0.5497 0.0000
vn -0.8308 0.0000 0.5566
vn -0.8308 0.0000 -0.5566
vn -0.8354 0.5497 0.0000
vn -0.3543 0.7716 -0.5283
vn -0.3803 0.8462 -0.3732
vn -0.8919 0.2968 -0.3413
vn -0.8099 0.2789 -0.5160
vn -0.7897 0.2719 -0.5499
vn -0.7897 -0.2719 -0.5499
vn -0.7321 -0.2709 -0.6250
vn -0.7321 0.2709 -0.6250
vn -0.3803 -0.8462 -0.3732
vn -0.8919 -0.2968 -0.3413
vn -0.3535 -0.3016 -0.8855
vn -0.3535 0.3016 -0.8855
vn 0.3803 -0.8462 -0.3732
vn 0.3535 -0.3016 -0.8855
vn 0.8919 -0.2968 -0.3413
vn 0.3803 0.8462 -0.3732
vn 0.8919 0.2968 -0.3413
vn 0.3535 0.3016 -0.8855
vn -0.3803 -0.8462 0.3732
vn -0.3534 -0.3016 0.8855
vn -0.8919 -0.2968 0.3413
vn -0.3803 0.8462 0.3732
vn -0.8919 0.2968 0.3413
vn -0.3534 0.3016 0.8855
vn 0.3803 -0.8462 0.3732
vn 0.8919 -0.2968 0.3413
vn 0.3535 -0.3016 0.8855
vn 0.3803 0.8462 0.3732
vn 0.3535 0.3016 0.8855
vn 0.8919 0.2968 0.3413
vn -0.3444 0.7501 -0.5645
vn -0.3558 0.7749 0.5224
vn -0.8131 0.2800 0.5104
vn 0.3558 0.7749 0.5224
vn 0.3444 0.7501 -0.5645
vn 0.7897 0.2719 -0.5499
vn 0.8131 0.2800 0.5104
vn 0.3543 0.7716 -0.5283
vn 0.8099 0.2789 -0.5160
vn -0.3543 -0.7716 -0.5283
vn -0.8099 -0.2789 -0.5160
vn -0.3558 -0.7749 0.5224
vn -0.3444 -0.7501 -0.5645
vn -0.8131 -0.2800 0.5104
vn 0.3444 -0.7501 -0.5645
vn 0.3558 -0.7749 0.5224
vn 0.8131 -0.2800 0.5104
vn 0.7897 -0.2719 -0.5499
vn -0.3425 0.7461 0.5709
vn -0.7859 0.2706 0.5560
vn -0.3425 -0.7461 0.5709
vn -0.7859 -0.2706 0.5560
vn 0.3425 0.7461 0.5709
vn 0.7859 0.2706 0.5560
vn 0.3543 -0.7716 -0.5283
vn 0.8099 -0.2789 -0.5160
vn 0.7371 -0.2722 0.6185
vn 0.7371 0.2722 0.6185
vn -0.7336 0.2709 -0.6232
vn -0.3213 0.7113 -0.6251
vn -0.7284 -0.2694 0.6299
vn -0.3196 -0.7076 0.6301
vn -0.3214 0.7111 -0.6254
vn 0.3214 0.7111 -0.6254
vn -0.7284 0.2694 0.6299
vn 0.3230 -0.7147 0.6204
vn 0.7321 -0.2709 -0.6250
vn 0.3214 -0.7111 -0.6254
vn -0.7371 0.2722 0.6185
vn -0.7371 -0.2722 0.6185
vn 0.3196 0.7076 0.6301
vn -0.3196 0.7076 0.6301
vn 0.3425 -0.7461 0.5709
vn 0.7859 -0.2706 0.5560
vn 0.3196 -0.7076 0.6301
vn 0.7284 -0.2694 0.6299
vn -0.3214 -0.7111 -0.6254
vn 0.7284 0.2694 0.6299
vn 0.7321 0.2709 -0.6250
vn 0.3213 0.7113 -0.6251
vn 0.7336 0.2709 -0.6232
vn 0.3230 0.7147 0.6204
vn -0.3213 -0.7113 -0.6251
vn -0.7336 -0.2709 -0.6232
vn 0.3213 -0.7113 -0.6251
vn -0.3230 0.7147 0.6204
vn 0.7336 -0.2709 -0.6232
vn -0.3230 -0.7147 0.6204
vn 0.9187 0.3471 -0.1884
vn 0.9187 -0.3471 -0.1884
vn -0.9149 0.3460 0.2081
vn -0.9149 -0.3460 0.2081
vn 0.4085 -0.8871 0.2150
vn 0.9149 -0.3460 0.2081
vn 0.9185 0.3471 0.1895
vn 0.4100 0.8907 0.1962
vn -0.9146 0.3459 -0.2094
vn -0.4084 0.8868 -0.2163
vn 0.4100 -0.8907 0.1962
vn 0.9185 -0.3471 0.1895
vn -0.4100 0.8907 0.1962
vn -0.4100 0.8910 -0.1950
vn 0.4100 0.8910 -0.1950
vn 0.9149 0.3460 0.2081
vn 0.4085 0.8871 0.2150
vn -0.9185 0.3471 0.1895
vn -0.9185 -0.3471 0.1895
vn 0.9146 0.3459 -0.2094
vn 0.9146 -0.3459 -0.2094
vn -0.9187 -0.3471 -0.1884
vn -0.9187 0.3471 -0.1884
vn -0.9146 -0.3459 -0.2094
vn 0.4084 -0.8868 -0.2163
vn -0.4084 -0.8868 -0.2163
vn 0.4084 0.8868 -0.2163
vn -0.4085 0.8871 0.2150
vn -0.4085 -0.8871 0.2150
vn -0.4100 -0.8910 -0.1950
vn -0.4100 -0.8907 0.1962
vn 0.4100 -0.8910 -0.1950
usemtl Material.027
s off
f 21/1/1 23/2/1 18/3/1 14/4/1
f 3/5/2 6/6/2 12/7/2 8/8/2
f 22/9/3 27/10/3 40/11/3 16/12/3
f 7/13/4 1/14/4 3/5/4 8/8/4
f 5/15/5 10/16/5 12/7/5 6/6/5
f 32/17/6 56/18/6 45/19/6 37/20/6
f 13/21/7 19/22/7 21/1/7 14/4/7
f 22/9/8 16/12/8 18/3/8 23/2/8
f 7/13/9 41/23/9 53/24/9 1/14/9
f 46/25/6 55/26/6 4/27/6 2/28/6
f 26/29/10 35/30/10 24/31/10 20/32/10
f 9/33/10 11/34/10 43/35/10 50/36/10
f 33/37/9 19/22/9 13/21/9 29/38/9
f 15/39/6 17/40/6 31/41/6 38/42/6
f 28/43/3 52/44/3 47/45/3 39/46/3
f 49/47/10 44/48/10 36/49/10 25/50/10
f 51/51/3 10/16/3 5/15/3 48/52/3
f 98/53/3 115/54/3 114/55/3 99/56/3
f 92/57/10 93/58/10 95/59/10 90/60/10
f 99/56/11 92/57/11 90/60/11 98/53/11
f 103/61/12 105/62/12 108/63/12 102/64/12
f 79/65/11 60/66/11 58/67/11 77/68/11
f 64/69/12 81/70/12 84/71/12 62/72/12
f 76/73/13 85/74/13 88/75/13 73/76/13
f 109/77/14 95/59/14 93/58/14 112/78/14
f 85/74/6 84/71/6 81/70/6 88/75/6
f 70/79/14 67/80/14 65/81/14 72/82/14
f 72/82/9 64/69/9 62/72/9 70/79/9
f 112/78/9 103/61/9 102/64/9 109/77/9
f 115/54/13 118/83/13 120/84/13 114/55/13
f 118/83/6 108/63/6 105/62/6 120/84/6
f 77/68/3 76/73/3 73/76/3 79/65/3
f 60/66/10 65/81/10 67/80/10 58/67/10
f 121/85/15 123/86/15 122/87/15
f 121/88/16 122/89/16 125/90/16
f 121/91/17 124/92/17 123/93/17
f 121/94/18 125/95/18 124/96/18
f 126/97/19 128/98/19 127/99/19
f 126/100/20 127/101/20 130/102/20
f 126/103/21 129/104/21 128/105/21
f 126/106/22 130/107/22 129/108/22
f 131/109/15 133/110/15 132/111/15
f 131/112/16 132/113/16 135/114/16
f 131/115/17 134/116/17 133/117/17
f 131/118/18 135/119/18 134/120/18
f 136/121/19 138/122/19 137/123/19
f 136/124/20 137/125/20 140/126/20
f 136/127/21 139/128/21 138/129/21
f 136/130/22 140/131/22 139/132/22
f 141/133/23 143/134/23 142/135/23
f 141/136/24 142/137/24 145/138/24
f 141/139/25 144/140/25 143/141/25
f 141/142/26 145/143/26 144/144/26
f 146/145/27 148/146/27 147/147/27
f 146/148/28 147/149/28 150/150/28
f 146/151/29 149/152/29 148/153/29
f 146/154/30 150/155/30 149/156/30
f 151/157/23 153/158/23 152/159/23
f 151/160/24 152/161/24 155/162/24
f 151/163/25 154/164/25 153/165/25
f 151/166/26 155/167/26 154/168/26
f 156/169/27 158/170/27 157/171/27
f 156/172/28 157/173/28 160/174/28
f 156/175/29 159/176/29 158/177/29
f 156/178/30 160/179/30 159/180/30
f 34/181/9 30/182/9 54/183/9 42/184/9
s 1
f 48/52/31 5/15/32 4/185/33 55/186/34
f 32/187/35 37/188/36 83/189/37 86/190/38
f 1/14/39 2/191/40 3/5/41
f 4/185/33 5/15/32 6/6/42
f 7/13/43 8/8/44 9/192/45
f 10/16/46 11/193/47 12/7/48
f 13/21/49 14/4/50 15/194/51
f 16/12/52 17/195/53 18/3/54
f 19/22/55 20/196/56 21/1/57
f 22/9/58 23/2/59 24/197/60
f 2/191/40 4/185/33 6/6/42 3/5/41
f 11/193/47 9/192/45 8/8/44 12/7/48
f 39/46/61 47/45/62 56/198/63 32/199/35
f 23/2/59 21/1/57 20/196/56 24/197/60
f 17/195/53 15/194/51 14/4/50 18/3/54
f 52/44/64 28/43/65 36/200/66 44/201/67
f 10/16/46 51/51/68 43/202/69 11/193/47
f 1/14/39 53/24/70 46/203/71 2/191/40
f 54/183/72 30/182/73 37/204/36 45/205/74
f 34/181/75 42/184/76 49/206/77 25/207/78
f 16/12/52 40/11/79 31/208/80 17/195/53
f 29/38/81 13/21/49 15/194/51 38/209/82
f 27/10/83 22/9/58 24/197/60 35/210/84
f 41/23/85 7/13/43 9/192/45 50/211/86
f 44/212/67 49/213/77 94/214/87 91/215/88
f 48/216/31 55/217/34 117/218/89 116/219/90
f 29/220/81 38/221/82 82/222/91 63/223/92
f 28/224/65 39/225/61 75/226/93 78/227/94
f 38/221/82 31/228/80 87/229/95 82/222/91
f 49/213/77 42/230/76 111/231/96 94/214/87
f 34/232/75 25/233/78 68/234/97 69/235/98
f 45/236/74 56/237/63 119/238/99 106/239/100
f 40/240/79 27/241/83 80/242/101 74/243/102
f 19/22/55 33/37/103 26/244/104 20/196/56
f 26/245/104 33/246/103 71/247/105 66/248/106
f 31/228/80 40/240/79 74/243/102 87/229/95
f 30/249/73 34/232/75 69/235/98 61/250/107
f 37/188/36 30/249/73 61/250/107 83/189/37
f 27/241/83 35/251/84 59/252/108 80/242/101
f 36/253/66 28/224/65 78/227/94 57/254/109
f 43/255/69 51/256/68 97/257/110 89/258/111
f 52/259/64 44/212/67 91/215/88 100/260/112
f 46/261/71 53/262/70 101/263/113 107/264/114
f 53/262/70 41/265/85 110/266/115 101/263/113
f 56/237/63 47/267/62 113/268/116 119/238/99
f 41/265/85 50/269/86 96/270/117 110/266/115
f 51/256/68 48/216/31 116/219/90 97/257/110
f 55/217/34 46/261/71 107/264/114 117/218/89
f 33/246/103 29/220/81 63/223/92 71/247/105
f 50/269/86 43/255/69 89/258/111 96/270/117
f 47/267/62 52/259/64 100/260/112 113/268/116
f 39/225/61 32/187/35 86/190/38 75/226/93
f 42/230/76 54/271/72 104/272/118 111/231/96
f 35/251/84 26/245/104 66/248/106 59/252/108
f 54/271/72 45/236/74 106/239/100 104/272/118
f 25/233/78 36/253/66 57/254/109 68/234/97
f 68/234/97 57/254/109 58/67/119 67/80/120
f 106/239/100 119/238/99 120/84/121 105/62/122
f 94/214/87 111/231/96 112/78/123 93/58/124
f 80/242/101 59/252/108 60/66/125 79/65/126
f 116/219/90 117/218/89 118/83/127 115/54/128
f 66/248/106 71/247/105 72/82/129 65/81/130
f 74/243/102 80/242/101 79/65/126 73/76/131
f 78/227/94 75/226/93 76/73/132 77/68/133
f 100/260/112 91/215/88 92/57/134 99/56/135
f 82/222/91 87/229/95 88/75/136 81/70/137
f 96/270/117 89/258/111 90/60/138 95/59/139
f 91/215/88 94/214/87 93/58/124 92/57/134
f 86/190/38 83/189/37 84/71/140 85/74/141
f 117/218/89 107/264/114 108/63/142 118/83/127
f 110/266/115 96/270/117 95/59/139 109/77/143
f 107/264/114 101/263/113 102/64/144 108/63/142
f 89/258/111 97/257/110 98/53/145 90/60/138
f 119/238/99 113/268/116 114/55/146 120/84/121
f 113/268/116 100/260/112 99/56/135 114/55/146
f 104/272/118 106/239/100 105/62/122 103/61/147
f 101/263/113 110/266/115 109/77/143 102/64/144
f 111/231/96 104/272/118 103/61/147 112/78/123
f 97/257/110 116/219/90 115/54/128 98/53/145
f 59/252/108 66/248/106 65/81/130 60/66/125
f 83/189/37 61/250/107 62/72/148 84/71/140
f 71/247/105 63/223/92 64/69/149 72/82/129
f 63/223/92 82/222/91 81/70/137 64/69/149
f 61/250/107 69/235/98 70/79/150 62/72/148
f 87/229/95 74/243/102 73/76/131 88/75/136
f 57/254/109 78/227/94 77/68/133 58/67/119
f 69/235/98 68/234/97 67/80/120 70/79/150
f 75/226/93 86/190/38 85/74/141 76/73/132
