# Blender v2.80 (sub 75) OBJ File: ''
# www.blender.org
mtllib YK_Wing_Mid_Flap.mtl
o BF_Block_111.000_BF_Block_111.023
v -0.118333 -0.157697 0.198604
v -0.142640 -0.134089 0.226115
v -0.118333 0.158701 0.198604
v -0.142640 0.135072 0.226115
v 0.508666 -0.019724 0.226115
v 0.508609 -0.045203 0.198604
v 0.213390 0.108660 0.226115
v 0.213390 0.134121 0.198604
v 0.213390 -0.133118 0.198604
v 0.213390 -0.107679 0.226115
v 0.508807 0.043512 0.198604
v 0.508750 0.018043 0.226115
v -0.118333 -0.157697 -1.199870
v -0.142640 -0.134089 -1.227382
v -0.118333 0.158701 -1.199870
v -0.142640 0.135072 -1.227382
v 0.508609 -0.045203 -1.199871
v 0.508666 -0.019724 -1.227382
v 0.213390 0.134122 -1.199870
v 0.213390 0.108660 -1.227382
v 0.213390 -0.107679 -1.227382
v 0.213390 -0.133117 -1.199871
v 0.508750 0.018043 -1.227382
v 0.508807 0.043512 -1.199870
v 0.508609 -0.045203 -1.064745
v 0.508609 -0.045203 0.063479
v 0.508609 -0.045203 -0.753946
v 0.508609 -0.045203 -0.247321
v -0.142640 -0.134089 -1.064745
v -0.142640 -0.134089 0.063479
v -0.142640 -0.134089 -0.753945
v -0.142640 -0.134089 -0.247321
v 0.213390 0.134122 -1.064745
v 0.213390 0.134122 0.063479
v 0.213390 0.134122 -0.753946
v 0.213390 0.134122 -0.247321
v -0.142640 0.135072 -1.064745
v -0.142640 0.135072 0.063479
v -0.142640 0.135072 -0.753946
v -0.142640 0.135072 -0.247321
v 0.508807 0.043512 0.063479
v 0.508807 0.043512 -1.064745
v 0.508807 0.043512 -0.247321
v 0.508807 0.043512 -0.753946
v 0.213390 -0.133118 0.063479
v 0.213390 -0.133117 -1.064745
v 0.213390 -0.133117 -0.247321
v 0.213390 -0.133117 -0.753945
v -0.118333 0.158701 0.063479
v -0.118333 0.158701 -1.064745
v -0.118333 0.158701 -0.247321
v -0.118333 0.158701 -0.753945
v -0.118333 -0.157697 -1.064745
v -0.118333 -0.157697 0.063479
v -0.118333 -0.157697 -0.753945
v -0.118333 -0.157697 -0.247321
vt 0.286660 0.218479
vt 0.286660 0.218479
vt 0.286660 0.218479
vt 0.286660 0.218479
vt 0.289048 0.218479
vt 0.289048 0.218479
vt 0.339588 0.218479
vt 0.339583 0.218479
vt 0.321628 0.218479
vt 0.321628 0.218479
vt 0.339591 0.218479
vt 0.339579 0.218479
vt 0.339579 0.218479
vt 0.339591 0.218479
vt 0.321628 0.218479
vt 0.286660 0.218479
vt 0.286660 0.218479
vt 0.321628 0.218479
vt 0.339588 0.218479
vt 0.339583 0.218479
vt 0.321628 0.218479
vt 0.321628 0.218479
vt 0.289048 0.218479
vt 0.289048 0.218479
vt 0.286660 0.218479
vt 0.321628 0.218479
vt 0.289048 0.218479
vt 0.321628 0.218479
vt 0.339591 0.218479
vt 0.339579 0.218479
vt 0.289048 0.218479
vt 0.321628 0.218479
vt 0.289048 0.218479
vt 0.321628 0.218479
vt 0.339579 0.218479
vt 0.339591 0.218479
vt 0.289048 0.218479
vt 0.321628 0.218479
vt 0.321628 0.218479
vt 0.286660 0.218479
vt 0.286925 0.462295
vt 0.286925 0.445481
vt 0.269224 0.445481
vt 0.269224 0.462295
vt 0.419127 0.502454
vt 0.440292 0.502454
vt 0.440292 0.466133
vt 0.419127 0.466133
vt 0.240371 0.462295
vt 0.240371 0.445481
vt 0.222670 0.445481
vt 0.222670 0.462295
vt 0.222670 0.482571
vt 0.222670 0.481187
vt 0.240371 0.481187
vt 0.240371 0.482571
vt 0.393603 0.466133
vt 0.395346 0.466133
vt 0.395346 0.502454
vt 0.393603 0.502454
vt 0.269224 0.482571
vt 0.269224 0.481187
vt 0.286925 0.481187
vt 0.286925 0.482571
vt 0.222670 0.462295
vt 0.222670 0.445470
vt 0.240371 0.445470
vt 0.240371 0.462295
vt 0.419127 0.466133
vt 0.440307 0.466133
vt 0.440307 0.502454
vt 0.419127 0.502454
vt 0.269224 0.462295
vt 0.269224 0.445470
vt 0.286925 0.445470
vt 0.286925 0.462295
vt 0.286925 0.482571
vt 0.269224 0.482571
vt 0.393603 0.502454
vt 0.393603 0.466133
vt 0.240371 0.482571
vt 0.222670 0.482571
vt 0.286925 0.481187
vt 0.269224 0.481187
vt 0.395346 0.502454
vt 0.395346 0.466133
vt 0.240371 0.481187
vt 0.222670 0.481187
vn -1.0000 0.0000 0.0000
vn -0.6967 -0.7173 -0.0000
vn -0.3401 -0.8408 -0.4212
vn -0.3863 -0.8404 -0.3801
vn -0.0000 0.0000 -1.0000
vn 1.0000 -0.0022 -0.0000
vn 0.0000 -0.0000 1.0000
vn 0.1847 0.9828 0.0000
vn 0.2932 0.9560 0.0000
vn -0.3865 0.8402 0.3803
vn -0.6970 0.7170 0.0000
vn -0.3404 0.8405 0.4215
vn 0.1305 0.7277 0.6734
vn 0.1438 0.7263 0.6722
vn -0.3863 -0.8404 0.3801
vn 0.1279 -0.7282 0.6733
vn 0.1404 -0.7270 0.6722
vn -0.3401 -0.8408 0.4212
vn 0.2196 0.7158 0.6628
vn 0.2136 -0.7171 0.6634
vn 0.1438 0.7263 -0.6722
vn -0.3404 0.8405 -0.4215
vn -0.3865 0.8402 -0.3803
vn 0.1305 0.7277 -0.6734
vn 0.1404 -0.7270 -0.6722
vn 0.1279 -0.7282 -0.6733
vn 0.2196 0.7158 -0.6628
vn 0.2136 -0.7171 -0.6634
vn 0.0739 0.9973 0.0000
vn 0.1807 -0.9835 -0.0000
vn 0.0739 -0.9973 -0.0000
vn 0.2854 -0.9584 -0.0000
usemtl Default_OBJ.004
s 1
f 29/1/1 37/2/1 16/3/1 14/4/1
f 53/5/2 29/1/2 14/4/3 13/6/4
f 23/7/5 18/8/5 21/9/5 20/10/5
f 42/11/6 25/12/6 17/13/6 18/8/6 23/7/6 24/14/6
f 20/10/5 21/9/5 14/4/5 16/3/5
f 7/15/7 4/16/7 2/17/7 10/18/7
f 12/19/7 7/15/7 10/18/7 5/20/7
f 33/21/8 42/11/9 24/14/9 19/22/8
f 3/23/10 49/24/11 38/25/11 4/16/12
f 8/26/13 3/23/10 4/16/12 7/15/14
f 1/27/15 9/28/16 10/18/17 2/17/18
f 11/29/19 8/26/13 7/15/14 12/19/19
f 9/28/16 6/30/20 5/20/20 10/18/17
f 20/10/21 16/3/22 15/31/23 19/22/24
f 14/4/3 21/9/25 22/32/26 13/6/4
f 23/7/27 20/10/21 19/22/24 24/14/27
f 21/9/25 18/8/28 17/13/28 22/32/26
f 37/2/11 50/33/11 15/31/23 16/3/22
f 50/33/29 33/21/8 19/22/8 15/31/29
f 46/34/30 53/5/31 13/6/31 22/32/30
f 11/29/6 12/19/6 5/20/6 6/30/6 26/35/6 41/36/6
f 9/28/30 1/27/31 54/37/31 45/38/30
f 3/23/29 8/26/8 34/39/8 49/24/29
f 2/17/18 30/40/2 54/37/2 1/27/15
f 25/12/32 46/34/30 22/32/30 17/13/32
f 8/26/8 11/29/9 41/36/9 34/39/8
f 4/16/1 38/25/1 30/40/1 2/17/1
f 46/41/30 25/42/32 27/43/32 48/44/30
f 48/45/30 27/46/32 28/47/32 47/48/30
f 47/49/30 28/50/32 26/51/32 45/52/30
f 38/53/11 49/54/11 51/55/11 40/56/11
f 40/57/11 51/58/11 52/59/11 39/60/11
f 39/61/11 52/62/11 50/63/11 37/64/11
f 34/65/8 41/66/9 43/67/9 36/68/8
f 36/69/8 43/70/9 44/71/9 35/72/8
f 35/73/8 44/74/9 42/75/9 33/76/8
f 37/64/1 29/77/1 31/78/1 39/61/1
f 39/60/1 31/79/1 32/80/1 40/57/1
f 40/56/1 32/81/1 30/82/1 38/53/1
f 25/42/6 42/75/6 44/74/6 27/43/6
f 27/46/6 44/71/6 43/70/6 28/47/6
f 28/50/6 43/67/6 41/66/6 26/51/6
f 49/54/29 34/65/8 36/68/8 51/55/29
f 51/58/29 36/69/8 35/72/8 52/59/29
f 52/62/29 35/73/8 33/76/8 50/63/29
f 29/77/2 53/83/2 55/84/2 31/78/2
f 31/79/2 55/85/2 56/86/2 32/80/2
f 32/81/2 56/87/2 54/88/2 30/82/2
f 53/83/31 46/41/30 48/44/30 55/84/31
f 55/85/31 48/45/30 47/48/30 56/86/31
f 56/87/31 47/49/30 45/52/30 54/88/31
f 6/30/32 9/28/30 45/38/30 26/35/32
