# Blender v3.0.1 OBJ File: 'GT_Hologram_Drill.blend'
# www.blender.org
o Cube.001_Cube.002
v -0.217469 0.090079 0.045552
v -0.235387 0.000000 0.045552
v 0.166444 0.166444 0.045552
v 0.217469 0.090079 0.045552
v 0.235387 0.000000 0.045552
v 0.090079 -0.217469 0.045552
v 0.000000 -0.235387 0.045552
v -0.217469 -0.090079 0.045552
v 0.166444 -0.166444 0.045552
v 0.217469 -0.090079 0.045552
v 0.000000 0.235387 0.045552
v -0.166444 -0.166444 0.045552
v -0.166444 0.166444 0.045552
v -0.090079 0.217469 0.045552
v -0.249879 0.103504 -0.026702
v -0.270468 0.000000 -0.026702
v 0.191249 0.191250 -0.026702
v 0.249879 0.103504 -0.026702
v 0.270468 0.000000 -0.026702
v 0.103504 -0.249879 -0.026702
v 0.000000 -0.270468 -0.026702
v -0.249879 -0.103504 -0.026702
v 0.191249 -0.191249 -0.026702
v 0.249879 -0.103504 -0.026702
v 0.103504 0.249879 -0.026702
v 0.000000 0.270468 -0.026702
v -0.191250 -0.191249 -0.026702
v -0.103504 -0.249879 -0.026702
v -0.191250 0.191250 -0.026702
v -0.103504 0.249879 -0.026702
v 0.096791 0.233674 0.009425
v -0.096791 -0.233674 0.009425
v 0.030026 0.229415 0.045552
v 0.057580 0.241474 0.009425
v 0.130033 0.211463 0.009425
v -0.057580 -0.241474 0.009425
v -0.130033 -0.211463 0.009425
v -0.522009 0.216224 -0.037108
v -0.565019 0.000000 -0.037108
v 0.399529 0.399529 -0.037108
v 0.522009 0.216224 -0.037108
v 0.565019 0.000000 -0.037108
v 0.216224 -0.522009 -0.037108
v 0.000000 -0.565019 -0.037108
v -0.522009 -0.216224 -0.037108
v 0.399529 -0.399529 -0.037108
v 0.522009 -0.216224 -0.037108
v 0.216224 0.522009 -0.037108
v 0.000000 0.565019 -0.037108
v -0.399529 -0.399529 -0.037108
v -0.216224 -0.522009 -0.037108
v -0.399529 0.399529 -0.037108
v -0.216224 0.522009 -0.037108
v -0.444663 0.201923 0.022047
v -0.488087 -0.016387 0.022047
v 0.333542 0.356718 0.022047
v 0.457205 0.171643 0.022047
v 0.488087 0.016387 0.022047
v 0.171643 -0.457205 0.022047
v 0.016387 -0.488087 0.022047
v -0.457205 -0.171643 0.022047
v 0.356718 -0.333542 0.022047
v 0.444663 -0.201923 0.022047
v 0.201923 0.444663 0.022047
v -0.016387 0.488087 0.022047
v -0.333542 -0.356718 0.022047
v -0.201923 -0.444663 0.022047
v -0.356718 0.333542 0.022047
v -0.171643 0.457205 0.022047
v -0.342259 0.151389 0.022047
v -0.374140 -0.008888 0.022047
v 0.258273 0.270842 0.022047
v 0.349062 0.134966 0.022047
v 0.374141 0.008888 0.022047
v 0.134966 -0.349062 0.022047
v 0.008888 -0.374141 0.022047
v -0.349062 -0.134966 0.022047
v 0.270842 -0.258273 0.022047
v 0.342260 -0.151389 0.022047
v 0.151389 0.342260 0.022047
v -0.008888 0.374141 0.022047
v -0.258273 -0.270842 0.022047
v -0.151389 -0.342260 0.022047
v -0.270842 0.258273 0.022047
v -0.134966 0.349062 0.022047
v -0.306436 0.126930 -0.025277
v -0.331684 0.000000 -0.025277
v 0.234536 0.234536 -0.025277
v 0.306436 0.126930 -0.025277
v 0.331684 0.000000 -0.025277
v 0.126930 -0.306436 -0.025277
v 0.000000 -0.331684 -0.025277
v -0.306436 -0.126930 -0.025277
v 0.234536 -0.234536 -0.025277
v 0.306436 -0.126930 -0.025277
v 0.126930 0.306436 -0.025277
v 0.000000 0.331684 -0.025277
v -0.234536 -0.234536 -0.025277
v -0.126930 -0.306436 -0.025277
v -0.234536 0.234536 -0.025277
v -0.126930 0.306436 -0.025277
v -0.469078 0.244187 -0.001615
v -0.526818 -0.046091 -0.001615
v 0.339926 0.405108 -0.001615
v 0.504355 0.159023 -0.001615
v 0.244187 0.469078 -0.001615
v -0.046091 0.526818 -0.001615
v 0.405108 -0.339926 -0.001615
v 0.159023 -0.504355 -0.001615
v 0.469078 -0.244187 -0.001615
v 0.526818 0.046091 -0.001615
v -0.405108 0.339926 -0.001615
v -0.159023 0.504355 -0.001615
v -0.244187 -0.469078 -0.001615
v 0.046091 -0.526818 -0.001615
v -0.339926 -0.405108 -0.001615
v -0.504355 -0.159023 -0.001615
v -0.318726 0.165919 -0.001615
v -0.357959 -0.031317 -0.001615
v 0.230970 0.275260 -0.001615
v 0.342695 0.108052 -0.001615
v 0.165918 0.318726 -0.001615
v -0.031317 0.357959 -0.001615
v 0.275260 -0.230970 -0.001615
v 0.108052 -0.342695 -0.001615
v 0.318726 -0.165918 -0.001615
v 0.357959 0.031317 -0.001615
v -0.275260 0.230970 -0.001615
v -0.108052 0.342695 -0.001615
v -0.165918 -0.318726 -0.001615
v 0.031317 -0.357959 -0.001615
v -0.230970 -0.275260 -0.001615
v -0.342695 -0.108052 -0.001615
v -0.140989 -0.183452 0.045552
v -0.030026 -0.229415 0.045552
v 0.140989 0.183452 0.045552
vt 0.706398 0.404152
vt 0.694537 0.390144
vt 0.711249 0.396544
vt 0.731374 0.443233
vt 0.726808 0.442553
vt 0.726613 0.436064
vt 0.667542 0.467888
vt 0.649720 0.463163
vt 0.657111 0.458027
vt 0.680953 0.473004
vt 0.662691 0.475496
vt 0.716829 0.414012
vt 0.731374 0.425238
vt 0.722703 0.427126
vt 0.724220 0.408876
vt 0.678630 0.399492
vt 0.660244 0.398046
vt 0.676632 0.390667
vt 0.695311 0.472547
vt 0.679403 0.481896
vt 0.642566 0.428806
vt 0.647132 0.429486
vt 0.647327 0.435975
vt 0.655710 0.416003
vt 0.665528 0.405428
vt 0.651237 0.444914
vt 0.642566 0.446801
vt 0.647934 0.411325
vt 0.649288 0.423319
vt 0.713696 0.473993
vt 0.697309 0.481372
vt 0.718230 0.456036
vt 0.708413 0.466611
vt 0.722906 0.431611
vt 0.654162 0.420209
vt 0.692987 0.399035
vt 0.724652 0.448721
vt 0.726006 0.460714
vt 0.651034 0.440428
vt 0.719778 0.451831
vt 0.729221 0.458436
vt 0.739914 0.443592
vt 0.732820 0.460945
vt 0.669422 0.396699
vt 0.684427 0.386605
vt 0.685109 0.390772
vt 0.656694 0.408755
vt 0.667153 0.393083
vt 0.668492 0.469404
vt 0.653011 0.459462
vt 0.656510 0.457148
vt 0.718792 0.474089
vt 0.716523 0.470482
vt 0.650198 0.441755
vt 0.646011 0.423649
vt 0.650204 0.424465
vt 0.702290 0.391191
vt 0.719908 0.394383
vt 0.717508 0.397820
vt 0.646056 0.442551
vt 0.703188 0.387093
vt 0.653088 0.406245
vt 0.700872 0.476423
vt 0.682814 0.480114
vt 0.683708 0.476018
vt 0.735773 0.425493
vt 0.735729 0.442768
vt 0.732985 0.407780
vt 0.739914 0.424705
vt 0.729483 0.410090
vt 0.666095 0.472843
vt 0.701559 0.480583
vt 0.726971 0.443543
vt 0.728509 0.454883
vt 0.723627 0.451504
vt 0.684066 0.399419
vt 0.672885 0.397556
vt 0.683096 0.393662
vt 0.665159 0.414544
vt 0.674769 0.405331
vt 0.674082 0.461152
vt 0.664904 0.451755
vt 0.711176 0.461867
vt 0.660034 0.439757
vt 0.660092 0.426549
vt 0.702909 0.399854
vt 0.714066 0.398482
vt 0.710753 0.403242
vt 0.662111 0.450511
vt 0.653145 0.443690
vt 0.658869 0.442595
vt 0.686884 0.400633
vt 0.700040 0.400920
vt 0.662298 0.415696
vt 0.653185 0.422528
vt 0.657409 0.412316
vt 0.699093 0.466577
vt 0.685949 0.466296
vt 0.725942 0.427471
vt 0.725857 0.440671
vt 0.723875 0.416721
vt 0.732831 0.423552
vt 0.727108 0.424638
vt 0.711909 0.406071
vt 0.721082 0.415475
vt 0.683082 0.467362
vt 0.671932 0.468740
vt 0.675240 0.463979
vt 0.701906 0.467785
vt 0.713066 0.469630
vt 0.702880 0.473532
vt 0.723133 0.440071
vt 0.720762 0.452652
vt 0.718406 0.451075
vt 0.676234 0.407707
vt 0.687387 0.403360
vt 0.667510 0.416116
vt 0.667223 0.450271
vt 0.709711 0.459496
vt 0.662739 0.439204
vt 0.662821 0.427148
vt 0.710370 0.408347
vt 0.699415 0.403597
vt 0.698592 0.463857
vt 0.686571 0.463621
vt 0.723241 0.428020
vt 0.718763 0.416956
vt 0.675619 0.458875
vt 0.704132 0.394171
vt 0.657266 0.453727
vt 0.728723 0.413510
vt 0.676050 0.402524
vt 0.658970 0.423673
vt 0.709901 0.464673
vt 0.732746 0.444698
vt 0.681864 0.473042
vt 0.785900 0.445356
vt 0.810548 0.409512
vt 0.846403 0.434172
vt 0.846294 0.446223
vt 0.841567 0.457227
vt 0.832872 0.465648
vt 0.821754 0.470009
vt 0.809732 0.469773
vt 0.798780 0.465027
vt 0.790384 0.456423
vt 0.785982 0.433300
vt 0.790671 0.422268
vt 0.799395 0.413859
vt 0.822576 0.409749
vt 0.833531 0.414499
vt 0.841924 0.423108
vn 0.8996 0.0000 0.4368
vn 0.8311 -0.3443 0.4368
vn 0.3443 0.8311 0.4368
vn 0.5016 0.7507 0.4299
vn -0.8996 0.0000 0.4368
vn -0.8311 -0.3443 0.4368
vn -0.8311 0.3443 0.4368
vn 0.8311 0.3443 0.4368
vn 0.6361 0.6361 0.4368
vn 0.6361 -0.6361 0.4368
vn 0.3443 -0.8311 0.4368
vn -0.6361 0.6361 0.4368
vn -0.3443 -0.8311 0.4368
vn -0.5016 -0.7507 0.4299
vn -0.0000 -0.8996 0.4368
vn -0.6361 -0.6361 0.4368
vn -0.1761 -0.8855 0.4299
vn -0.3443 0.8311 0.4368
vn 0.0000 0.8996 0.4368
vn -0.0000 0.0000 1.0000
vn 0.1761 0.8855 0.4299
vn 0.8003 -0.3315 0.4997
vn -0.8003 0.3315 0.4997
vn -0.7010 -0.0372 0.7122
vn -0.6162 0.1994 0.7619
vn -0.6457 0.0516 0.7619
vn 0.6619 0.2339 0.7122
vn 0.4930 0.4201 0.7619
vn 0.4694 0.5220 0.7122
vn 0.7010 0.0372 0.7122
vn 0.5768 0.2947 0.7619
vn 0.0372 -0.7010 0.7122
vn 0.2947 -0.5768 0.7619
vn 0.2339 -0.6619 0.7122
vn -0.5768 -0.2947 0.7619
vn -0.6619 -0.2339 0.7122
vn 0.5220 -0.4694 0.7122
vn 0.6162 -0.1994 0.7619
vn 0.6334 -0.3027 0.7122
vn 0.3027 0.6334 0.7122
vn 0.0516 0.6457 0.7619
vn -0.0372 0.7010 0.7122
vn 0.4201 -0.4930 0.7619
vn 0.1994 0.6162 0.7619
vn 0.6457 -0.0516 0.7619
vn -0.4694 -0.5220 0.7122
vn -0.1994 -0.6162 0.7619
vn -0.3027 -0.6334 0.7122
vn -0.5220 0.4694 0.7122
vn -0.6334 0.3027 0.7122
vn -0.2947 0.5768 0.7619
vn -0.4201 0.4930 0.7619
vn -0.2339 0.6619 0.7122
vn -0.0516 -0.6457 0.7619
vn -0.4930 -0.4201 0.7619
vn 0.6881 -0.2054 0.6959
vn 0.6683 -0.0025 0.7439
vn 0.7143 -0.0735 0.6959
vn -0.6318 -0.3413 0.6959
vn -0.4743 -0.4708 0.7439
vn -0.5571 -0.4531 0.6959
vn -0.7143 0.0735 0.6959
vn -0.6165 -0.2580 0.7439
vn -0.3413 0.6318 0.6959
vn 0.0025 0.6683 0.7439
vn -0.2580 0.6165 0.7439
vn 0.6318 0.3413 0.6959
vn 0.6165 0.2580 0.7439
vn -0.4531 0.5571 0.6959
vn -0.6184 0.2535 0.7439
vn -0.6881 0.2054 0.6959
vn -0.0735 -0.7143 0.6959
vn -0.2535 -0.6184 0.7439
vn -0.0025 -0.6683 0.7439
vn -0.4708 0.4743 0.7439
vn -0.2054 -0.6881 0.6959
vn -0.6683 0.0025 0.7439
vn 0.5571 0.4531 0.6959
vn 0.2535 0.6184 0.7439
vn 0.2054 0.6881 0.6959
vn 0.4531 -0.5571 0.6959
vn 0.6184 -0.2535 0.7439
vn 0.2580 -0.6165 0.7439
vn 0.4708 -0.4743 0.7439
vn 0.3413 -0.6318 0.6959
vn 0.0735 0.7143 0.6959
vn 0.4743 0.4708 0.7439
vn -0.5809 0.1155 0.8058
vn 0.4924 0.3290 0.8058
vn 0.1155 0.5809 0.8058
vn 0.3290 -0.4924 0.8058
vn 0.5809 -0.1155 0.8058
vn -0.3290 0.4924 0.8058
vn -0.1155 -0.5809 0.8058
vn -0.4924 -0.3290 0.8058
vn 0.7452 -0.1482 0.6501
vn -0.6318 -0.4221 0.6501
vn -0.1482 -0.7452 0.6501
vn -0.4221 0.6318 0.6501
vn -0.7452 0.1482 0.6501
vn 0.4221 -0.6318 0.6501
vn 0.1482 0.7452 0.6501
vn 0.6318 0.4221 0.6501
vn 0.0572 -0.6719 0.7384
vn 0.0494 -0.6996 0.7129
vn 0.0467 -0.7088 0.7038
vn 0.3100 0.5989 0.7384
vn 0.3133 0.6274 0.7129
vn 0.3094 0.5943 0.7423
vn -0.5156 0.4347 0.7384
vn -0.5296 0.4598 0.7129
vn -0.5342 0.4682 0.7038
vn 0.2043 -0.6427 0.7384
vn 0.2221 -0.6652 0.7129
vn 0.2015 -0.6390 0.7423
vn -0.0572 0.6719 0.7384
vn -0.0494 0.6996 0.7129
vn -0.0467 0.7088 0.7038
vn -0.6427 -0.2043 0.7384
vn -0.6652 -0.2221 0.7129
vn -0.6390 -0.2015 0.7423
vn 0.6719 0.0572 0.7384
vn 0.6996 0.0494 0.7129
vn 0.7088 0.0467 0.7038
vn -0.2043 0.6427 0.7384
vn -0.2221 0.6652 0.7129
vn -0.2015 0.6390 0.7423
vn -0.3100 -0.5989 0.7384
vn -0.3133 -0.6274 0.7129
vn -0.3094 -0.5943 0.7423
vn 0.4347 0.5156 0.7384
vn 0.4598 0.5296 0.7129
vn 0.4682 0.5342 0.7038
vn -0.6719 -0.0572 0.7384
vn -0.6996 -0.0494 0.7129
vn -0.7088 -0.0467 0.7038
vn 0.5989 -0.3100 0.7384
vn 0.6274 -0.3133 0.7129
vn 0.5943 -0.3094 0.7423
vn -0.5989 0.3100 0.7384
vn -0.6274 0.3133 0.7129
vn -0.5943 0.3094 0.7423
vn 0.5156 -0.4347 0.7384
vn 0.5296 -0.4598 0.7129
vn 0.5342 -0.4682 0.7038
vn -0.4347 -0.5156 0.7384
vn -0.4598 -0.5296 0.7129
vn -0.4682 -0.5342 0.7038
vn 0.6427 0.2043 0.7384
vn 0.6652 0.2221 0.7129
vn 0.6390 0.2015 0.7423
vn 0.0584 -0.6675 0.7423
vn 0.3144 0.6370 0.7038
vn -0.5133 0.4307 0.7423
vn 0.2282 -0.6727 0.7038
vn -0.0584 0.6675 0.7423
vn -0.6727 -0.2282 0.7038
vn 0.6675 0.0584 0.7423
vn -0.2282 0.6727 0.7038
vn -0.3144 -0.6370 0.7038
vn 0.4307 0.5133 0.7423
vn -0.6675 -0.0584 0.7423
vn 0.6370 -0.3144 0.7038
vn -0.6370 0.3144 0.7038
vn 0.5133 -0.4307 0.7423
vn -0.4307 -0.5133 0.7423
vn 0.6727 0.2282 0.7038
s 1
f 5/1/1 24/2/2 19/3/1
f 25/4/3 31/5/3 35/6/4
f 2/7/5 22/8/6 8/9/6
f 1/10/7 16/11/5 2/7/5
f 4/12/8 17/13/9 3/14/9
f 5/1/1 18/15/8 4/12/8
f 9/16/10 20/17/11 23/18/10
f 13/19/12 15/20/7 1/10/7
f 28/21/13 32/22/13 37/23/14
f 7/24/15 20/17/11 6/25/11
f 12/26/16 22/8/6 27/27/16
f 21/28/15 7/24/15 36/29/17
f 13/19/12 30/30/18 29/31/12
f 11/32/19 30/30/18 14/33/18
f 136/34/20 135/35/20 10/36/20
f 34/37/21 25/4/3 26/38/19
f 134/39/22 34/37/22 33/40/22
f 36/29/23 136/34/23 35/6/23
f 9/16/10 24/2/2 10/36/2
f 35/6/20 31/5/20 34/37/20
f 103/41/24 38/42/25 39/43/26
f 105/44/27 40/45/28 104/46/29
f 111/47/30 41/48/31 105/44/27
f 115/49/32 43/50/33 109/51/34
f 103/41/24 45/52/35 117/53/36
f 108/54/37 47/55/38 110/56/39
f 106/57/40 49/58/41 107/59/42
f 108/54/37 43/50/33 46/60/43
f 104/46/29 48/61/44 106/57/40
f 110/56/39 42/62/45 111/47/30
f 116/63/46 51/64/47 114/65/48
f 112/66/49 38/42/25 102/67/50
f 112/66/49 53/68/51 52/69/52
f 107/59/42 53/68/51 113/70/53
f 115/49/32 51/64/47 44/71/54
f 116/63/46 45/52/35 50/72/55
f 70/73/20 55/74/20 71/75/20
f 72/76/20 57/77/20 56/78/20
f 127/79/20 105/44/20 121/80/20
f 131/81/20 109/51/20 125/82/20
f 133/83/20 103/41/20 117/53/20
f 124/84/20 110/56/20 126/85/20
f 80/86/20 65/87/20 81/88/20
f 75/89/20 62/90/20 78/91/20
f 120/92/20 106/57/20 122/93/20
f 74/94/20 63/95/20 58/96/20
f 132/97/20 114/65/20 130/98/20
f 128/99/20 102/67/20 118/100/20
f 85/101/20 68/102/20 84/103/20
f 123/104/20 113/70/20 129/105/20
f 83/106/20 60/107/20 76/108/20
f 82/109/20 61/110/20 66/111/20
f 86/112/56 119/113/57 87/114/58
f 89/115/59 120/92/60 88/116/61
f 90/117/62 121/80/63 89/115/59
f 91/118/64 131/81/65 125/82/66
f 93/119/67 119/113/57 133/83/68
f 94/120/69 126/85/70 95/121/71
f 97/122/72 122/93/73 123/104/74
f 91/118/64 124/84/75 94/120/69
f 88/116/61 122/93/73 96/123/76
f 95/121/71 127/79/77 90/117/62
f 98/124/78 130/98/79 99/125/80
f 100/126/81 118/100/82 86/112/56
f 100/126/81 129/105/83 128/99/84
f 101/127/85 123/104/74 129/105/83
f 92/128/86 130/98/79 131/81/65
f 93/119/67 132/97/87 98/124/78
f 55/74/88 102/67/50 103/41/24
f 56/78/89 105/44/27 104/46/29
f 64/129/90 107/59/42 65/87/90
f 59/130/91 108/54/37 62/90/91
f 63/95/92 111/47/30 58/96/92
f 69/131/93 112/66/49 68/102/93
f 60/107/94 114/65/48 115/49/32
f 61/110/95 116/63/46 66/111/95
f 70/73/96 119/113/57 118/100/82
f 73/132/97 120/92/60 121/80/63
f 81/88/98 122/93/73 80/86/98
f 75/89/99 124/84/75 125/82/66
f 74/94/100 126/85/70 79/133/100
f 85/101/101 128/99/84 129/105/83
f 76/108/102 130/98/79 83/106/102
f 82/109/103 133/83/68 77/134/103
f 55/74/104 119/113/105 71/75/106
f 54/135/107 118/100/108 102/67/109
f 56/78/110 120/92/111 72/76/112
f 57/77/113 121/80/114 105/44/115
f 58/96/116 127/79/117 74/94/118
f 59/130/119 125/82/120 109/51/121
f 60/107/122 131/81/123 76/108/124
f 61/110/125 133/83/126 117/53/127
f 63/95/128 126/85/129 110/56/130
f 62/90/131 124/84/132 78/91/133
f 65/87/134 123/104/135 81/88/136
f 64/129/137 122/93/138 106/57/139
f 67/136/140 130/98/141 114/65/142
f 66/111/143 132/97/144 82/109/145
f 68/102/146 128/99/147 84/103/148
f 69/131/149 129/105/150 113/70/151
f 94/137/20 88/138/20 100/139/20
f 2/7/20 8/9/20 134/39/20
f 5/1/1 10/36/2 24/2/2
f 35/6/4 136/34/4 3/14/9
f 3/14/9 17/13/9 35/6/4
f 17/13/9 25/4/3 35/6/4
f 2/7/5 16/11/5 22/8/6
f 1/10/7 15/20/7 16/11/5
f 4/12/8 18/15/8 17/13/9
f 5/1/1 19/3/1 18/15/8
f 9/16/10 6/25/11 20/17/11
f 13/19/12 29/31/12 15/20/7
f 37/23/14 134/39/14 12/26/16
f 12/26/16 27/27/16 37/23/14
f 27/27/16 28/21/13 37/23/14
f 7/24/15 21/28/15 20/17/11
f 12/26/16 8/9/6 22/8/6
f 7/24/15 135/35/17 36/29/17
f 36/29/17 32/22/13 28/21/13
f 28/21/13 21/28/15 36/29/17
f 13/19/12 14/33/18 30/30/18
f 11/32/19 26/38/19 30/30/18
f 135/35/20 7/24/20 6/25/20
f 6/25/20 9/16/20 135/35/20
f 9/16/20 10/36/20 135/35/20
f 10/36/20 5/1/20 136/34/20
f 5/1/20 4/12/20 136/34/20
f 4/12/20 3/14/20 136/34/20
f 26/38/19 11/32/19 34/37/21
f 11/32/19 33/40/21 34/37/21
f 34/37/21 31/5/3 25/4/3
f 134/39/22 37/23/22 34/37/22
f 36/29/23 135/35/23 136/34/23
f 9/16/10 23/18/10 24/2/2
f 34/37/20 37/23/20 35/6/20
f 37/23/20 32/22/20 36/29/20
f 35/6/20 37/23/20 36/29/20
f 103/41/24 102/67/50 38/42/25
f 105/44/27 41/48/31 40/45/28
f 111/47/30 42/62/45 41/48/31
f 115/49/32 44/71/54 43/50/33
f 103/41/24 39/43/26 45/52/35
f 108/54/37 46/60/43 47/55/38
f 106/57/40 48/61/44 49/58/41
f 108/54/37 109/51/34 43/50/33
f 104/46/29 40/45/28 48/61/44
f 110/56/39 47/55/38 42/62/45
f 116/63/46 50/72/55 51/64/47
f 112/66/49 52/69/52 38/42/25
f 112/66/49 113/70/53 53/68/51
f 107/59/42 49/58/41 53/68/51
f 115/49/32 114/65/48 51/64/47
f 116/63/46 117/53/36 45/52/35
f 70/73/20 54/135/20 55/74/20
f 72/76/20 73/132/20 57/77/20
f 127/79/20 111/47/20 105/44/20
f 131/81/20 115/49/20 109/51/20
f 133/83/20 119/113/20 103/41/20
f 124/84/20 108/54/20 110/56/20
f 80/86/20 64/129/20 65/87/20
f 75/89/20 59/130/20 62/90/20
f 120/92/20 104/46/20 106/57/20
f 74/94/20 79/133/20 63/95/20
f 132/97/20 116/63/20 114/65/20
f 128/99/20 112/66/20 102/67/20
f 85/101/20 69/131/20 68/102/20
f 123/104/20 107/59/20 113/70/20
f 83/106/20 67/136/20 60/107/20
f 82/109/20 77/134/20 61/110/20
f 86/112/56 118/100/82 119/113/57
f 89/115/59 121/80/63 120/92/60
f 90/117/62 127/79/77 121/80/63
f 91/118/64 92/128/86 131/81/65
f 93/119/67 87/114/58 119/113/57
f 94/120/69 124/84/75 126/85/70
f 97/122/72 96/123/76 122/93/73
f 91/118/64 125/82/66 124/84/75
f 88/116/61 120/92/60 122/93/73
f 95/121/71 126/85/70 127/79/77
f 98/124/78 132/97/87 130/98/79
f 100/126/81 128/99/84 118/100/82
f 100/126/81 101/127/85 129/105/83
f 101/127/85 97/122/72 123/104/74
f 92/128/86 99/125/80 130/98/79
f 93/119/67 133/83/68 132/97/87
f 55/74/88 54/135/88 102/67/50
f 56/78/89 57/77/89 105/44/27
f 64/129/90 106/57/40 107/59/42
f 59/130/91 109/51/34 108/54/37
f 63/95/92 110/56/39 111/47/30
f 69/131/93 113/70/53 112/66/49
f 60/107/94 67/136/94 114/65/48
f 61/110/95 117/53/36 116/63/46
f 70/73/96 71/75/96 119/113/57
f 73/132/97 72/76/97 120/92/60
f 81/88/98 123/104/74 122/93/73
f 75/89/99 78/91/99 124/84/75
f 74/94/100 127/79/77 126/85/70
f 85/101/101 84/103/101 128/99/84
f 76/108/102 131/81/65 130/98/79
f 82/109/103 132/97/87 133/83/68
f 55/74/104 103/41/152 119/113/105
f 54/135/107 70/73/153 118/100/108
f 56/78/110 104/46/154 120/92/111
f 57/77/113 73/132/155 121/80/114
f 58/96/116 111/47/156 127/79/117
f 59/130/119 75/89/157 125/82/120
f 60/107/122 115/49/158 131/81/123
f 61/110/125 77/134/159 133/83/126
f 63/95/128 79/133/160 126/85/129
f 62/90/131 108/54/161 124/84/132
f 65/87/134 107/59/162 123/104/135
f 64/129/137 80/86/163 122/93/138
f 67/136/140 83/106/164 130/98/141
f 66/111/143 116/63/165 132/97/144
f 68/102/146 112/66/166 128/99/147
f 69/131/149 85/101/167 129/105/150
f 100/139/20 86/140/20 87/141/20
f 87/141/20 93/142/20 98/143/20
f 98/143/20 99/144/20 94/137/20
f 99/144/20 92/145/20 94/137/20
f 92/145/20 91/146/20 94/137/20
f 94/137/20 95/147/20 88/138/20
f 95/147/20 90/148/20 88/138/20
f 90/148/20 89/149/20 88/138/20
f 88/138/20 96/150/20 97/151/20
f 97/151/20 101/152/20 88/138/20
f 101/152/20 100/139/20 88/138/20
f 100/139/20 87/141/20 94/137/20
f 87/141/20 98/143/20 94/137/20
f 8/9/20 12/26/20 134/39/20
f 134/39/20 33/40/20 1/10/20
f 33/40/20 11/32/20 14/33/20
f 13/19/20 33/40/20 14/33/20
f 13/19/20 1/10/20 33/40/20
f 1/10/20 2/7/20 134/39/20
