# Blender v2.82 (sub 7) OBJ File: ''
# www.blender.org
mtllib HE_Left_Cockpit_Window_Collider.mtl
o Left_Collider_HE_ArmouredBlock_Corner_113.007
v -0.430000 -0.500000 0.430000
v 2.430000 -0.500001 -0.430000
v 2.430000 -0.500000 -0.331790
v -0.430000 0.500000 -0.350000
v -0.120000 0.500000 -0.430000
v -0.500000 -0.430000 -0.430000
v -0.500000 0.430000 -0.430000
v -0.430000 -0.350000 0.500000
v 2.500000 -0.350000 -0.350000
v 2.500000 -0.430000 -0.350000
v -0.500000 -0.430000 0.430000
v -0.060466 0.430000 -0.500000
v 2.433061 -0.350000 -0.259525
v -0.120000 0.500000 -0.350000
v -0.500000 -0.308995 0.430000
v -0.430000 -0.230502 0.450502
v 0.016938 -0.430000 0.479525
v 2.500000 -0.430001 -0.430000
v -0.430000 -0.500000 -0.430000
v 2.430000 -0.430001 -0.500000
v -0.430000 -0.430000 -0.500000
v -0.430000 0.500000 -0.430000
v -0.430000 0.450502 -0.230503
v 2.500000 -0.350001 -0.430000
v -0.430000 0.430000 -0.500000
v -0.120000 -0.350000 0.500000
v 0.016938 -0.350000 0.479524
v -0.430000 -0.430000 0.500000
v -0.060467 -0.500000 0.430000
v -0.120000 -0.430000 0.500000
v 2.433061 -0.259525 -0.350000
v 2.433061 -0.259525 -0.430000
v 2.433061 -0.430000 -0.259525
v -0.120000 -0.230503 0.450502
v -0.120000 0.450502 -0.230503
v -0.500000 0.430000 -0.308995
v 1.684155 -0.102253 -0.430000
v 1.708597 -0.430000 -0.037924
v 1.688564 -0.102253 -0.229409
v 1.690535 -0.175176 -0.500000
v 2.430000 -0.331791 -0.500000
v 0.018418 -0.229409 0.428480
v 1.708597 -0.350000 -0.037924
v 1.708597 -0.229408 -0.088516
v 2.159703 -0.229408 -0.229409
v 1.684155 -0.102253 -0.350000
v 1.708597 -0.500000 -0.111125
v 1.118909 -0.430001 -0.500000
v 0.523333 -0.430000 -0.500000
v 0.581811 -0.229408 0.256148
v 1.145204 -0.229408 0.083816
v 0.529221 -0.500000 0.249625
v 1.118909 -0.500000 0.069250
v 0.523333 -0.500000 -0.430000
v 1.118909 -0.500001 -0.430000
v 0.529221 0.349624 -0.500000
v 1.087370 -0.046882 -0.500000
v 1.144711 -0.350000 0.134559
v 0.580824 -0.350000 0.307042
v 1.144711 -0.430000 0.134559
v 0.580824 -0.430000 0.307042
v -0.120000 0.031651 0.188349
v -0.430000 0.031651 0.188349
v 1.107381 0.020428 -0.430000
v 0.581811 0.356149 -0.229409
v 1.073747 0.020428 -0.229409
v 1.107381 0.020428 -0.350000
v 0.580825 0.407042 -0.350000
v 0.018418 0.450502 -0.229409
v 0.016939 0.500000 -0.350000
v 0.016939 0.500000 -0.430000
v 0.580825 0.407042 -0.430000
v 0.581811 -0.014193 0.081946
v 0.018418 0.031902 0.183282
v 0.523325 0.366198 -0.358254
v 0.058304 0.444076 -0.361071
v 1.037124 0.009066 -0.354072
v 0.592785 0.338697 -0.360558
v 0.060149 0.403553 -0.261421
v 0.524614 0.321983 -0.253908
v 0.600073 0.299752 -0.263435
v 1.005926 0.011781 -0.262066
v 0.591436 0.337227 -0.379300
v 1.037387 0.009796 -0.379299
v 0.607162 0.000397 -0.014263
v 0.058072 0.442544 -0.379982
v 0.523289 0.365852 -0.379982
v 0.524604 -0.007891 0.019221
v 0.060679 0.032551 0.105422
v 0.046543 0.495120 -0.399997
v 0.062994 0.472150 -0.379993
v 0.064721 0.427763 -0.245061
v 0.048097 0.446891 -0.232021
v 0.046605 0.495513 -0.351021
v 0.063086 0.472756 -0.355524
v 0.609154 0.361229 -0.379718
v 0.604858 0.389396 -0.400185
v 1.083665 0.037841 -0.400578
v 1.055125 0.033827 -0.379718
v 1.054674 0.033062 -0.351135
v 1.083687 0.037119 -0.349511
v 0.605759 0.390047 -0.353456
v 0.610138 0.362421 -0.357706
v 0.609311 0.344176 -0.237494
v 0.615729 0.321543 -0.251116
v 1.049293 0.037654 -0.237405
v 1.021834 0.033896 -0.250674
v 0.619873 0.018349 0.006616
v 0.610597 0.013275 0.043537
v 0.065153 0.052592 0.127259
v 0.048272 0.052364 0.158404
v 0.551222 0.411922 -0.399998
v 0.528206 0.395421 -0.379993
v 0.551947 0.009660 0.066157
v 0.529083 0.012175 0.041085
v 0.529161 0.345545 -0.236821
v 0.552124 0.359644 -0.226708
v 0.528100 0.394832 -0.352389
v 0.551162 0.411541 -0.349011
vt 0.408077 0.415362
vt 0.472733 0.415362
vt 0.472733 0.357036
vt 0.447671 0.357036
vt 0.407678 0.369269
vt 0.145847 0.440717
vt 0.133921 0.419967
vt 0.131283 0.420023
vt 0.142175 0.440952
vt 0.084171 0.338904
vt 0.085001 0.344605
vt 0.080035 0.345337
vt 0.078897 0.339389
vt 0.408627 0.353090
vt 0.408627 0.357918
vt 0.474384 0.357918
vt 0.474384 0.353090
vt 0.120856 0.420206
vt 0.117104 0.420070
vt 0.106104 0.441561
vt 0.110220 0.441067
vt 0.160373 0.298965
vt 0.156424 0.305010
vt 0.132001 0.304837
vt 0.092980 0.304559
vt 0.088450 0.298949
vt 0.162690 0.345302
vt 0.164184 0.339435
vt 0.169330 0.340123
vt 0.167774 0.346428
vt 0.123760 0.418088
vt 0.120696 0.416936
vt 0.131549 0.338931
vt 0.130851 0.344624
vt 0.093370 0.344655
vt 0.092715 0.338974
vt 0.120684 0.414115
vt 0.124140 0.415896
vt 0.128643 0.414157
vt 0.479212 0.357918
vt 0.127476 0.417268
vt 0.175957 0.304688
vt 0.169782 0.306061
vt 0.170334 0.298915
vt 0.115176 0.419885
vt 0.072963 0.343302
vt 0.078666 0.298772
vt 0.079538 0.304808
vt 0.072978 0.304085
vt 0.128470 0.420191
vt 0.164641 0.305329
vt 0.175259 0.343707
vt 0.164184 0.325217
vt 0.155854 0.324423
vt 0.084429 0.304600
vt 0.408221 0.404795
vt 0.448895 0.417237
vt 0.474384 0.417237
vt 0.078897 0.325149
vt 0.072963 0.331012
vt 0.477480 0.357036
vt 0.477480 0.415362
vt 0.084171 0.324422
vt 0.092715 0.324528
vt 0.169330 0.326248
vt 0.154311 0.344605
vt 0.155854 0.338904
vt 0.479212 0.417237
vt 0.455957 0.357690
vt 0.455957 0.416161
vt 0.447730 0.416161
vt 0.397486 0.365917
vt 0.397486 0.357690
vt 0.082997 0.372108
vt 0.072963 0.336902
vt 0.080035 0.339648
vt 0.088670 0.373499
vt 0.102901 0.440735
vt 0.105940 0.441199
vt 0.146684 0.407394
vt 0.150818 0.408420
vt 0.142340 0.442071
vt 0.138681 0.441291
vt 0.131549 0.324463
vt 0.110055 0.441438
vt 0.118387 0.441477
vt 0.125250 0.427985
vt 0.131603 0.440973
vt 0.118552 0.440987
vt 0.165510 0.372485
vt 0.159296 0.374770
vt 0.167774 0.341120
vt 0.175259 0.337448
vt 0.097415 0.407590
vt 0.101814 0.406931
vt 0.154742 0.373524
vt 0.146742 0.372764
vt 0.154311 0.338660
vt 0.162690 0.339601
vt 0.090034 0.371522
vt 0.088725 0.373619
vt 0.082345 0.341066
vt 0.138846 0.441371
vt 0.175259 0.331619
vt 0.110158 0.406901
vt 0.139172 0.406869
vt 0.140763 0.396122
vt 0.140763 0.396122
vt 0.151132 0.367215
vt 0.151132 0.367215
vt 0.101704 0.407179
vt 0.110048 0.407227
vt 0.127099 0.341673
vt 0.127099 0.341673
vt 0.093841 0.341735
vt 0.093841 0.341735
vt 0.146794 0.407448
vt 0.090859 0.374867
vt 0.093407 0.372796
vt 0.093595 0.374407
vt 0.093652 0.340532
vt 0.093370 0.338728
vt 0.130851 0.338686
vt 0.128598 0.340479
vt 0.146012 0.442557
vt 0.155761 0.407521
vt 0.103066 0.442519
vt 0.093031 0.407313
vt 0.097305 0.407349
vt 0.326874 0.379912
vt 0.367547 0.392354
vt 0.342871 0.357918
vt 0.277115 0.357918
vt 0.277115 0.364692
vt 0.277115 0.353090
vt 0.342871 0.353090
vt 0.278765 0.408701
vt 0.278765 0.415362
vt 0.343421 0.415362
vt 0.367685 0.381503
vt 0.327692 0.393736
vt 0.154494 0.364234
vt 0.186410 0.330103
vt 0.178841 0.364208
vt 0.160698 0.331923
vt 0.162951 0.330129
vt 0.153511 0.362445
vt 0.093718 0.375466
vt 0.093718 0.375466
vt 0.092304 0.375712
vt 0.092304 0.375712
vt 0.119033 0.375771
vt 0.119033 0.375771
vt 0.101436 0.375750
vt 0.101436 0.375750
vt 0.133662 0.366060
vt 0.133864 0.364257
vt 0.152404 0.366087
vt 0.099512 0.404571
vt 0.099512 0.404571
vt 0.101217 0.404312
vt 0.101217 0.404312
vt 0.108663 0.404678
vt 0.108663 0.404678
vt 0.152857 0.361254
vt 0.152857 0.361254
vt 0.159198 0.333116
vt 0.159198 0.333116
vt 0.098649 0.405813
vt 0.083884 0.342012
vt 0.083884 0.342012
vt 0.090906 0.370124
vt 0.090906 0.370124
vt 0.085632 0.341667
vt 0.085632 0.341667
vt 0.092769 0.369792
vt 0.092769 0.369792
vt 0.101303 0.369974
vt 0.101303 0.369974
vt 0.089096 0.369485
vt 0.089096 0.369485
vt 0.108551 0.369322
vt 0.108551 0.369322
vt 0.085379 0.340465
vt 0.085001 0.338660
vt 0.149311 0.025735
vt 0.145630 0.011231
vt 0.149864 0.011265
vt 0.153713 0.025829
vt 0.162857 0.028819
vt 0.157509 0.043728
vt 0.153781 0.028808
vt 0.153668 0.043539
vt 0.149801 0.028662
vt 0.144729 0.011408
vt 0.148351 0.025907
vt 0.149071 0.028789
vt 0.152789 0.043672
vt 0.167017 0.011234
vt 0.163746 0.025745
vt 0.109220 0.405703
vt 0.101422 0.405517
vt 0.133587 0.362553
vt 0.093573 0.374456
vt 0.093353 0.372920
vt 0.101709 0.372977
vt 0.101541 0.374680
vt 0.101465 0.371175
vt 0.093003 0.371043
vt 0.101468 0.405413
vt 0.142258 0.398344
vt 0.141363 0.397015
vt 0.133792 0.367193
vt 0.108551 0.369322
vt 0.089124 0.369485
vt 0.171272 0.398312
vn -0.0000 -0.0000 -1.0000
vn 0.2068 -0.7071 0.6762
vn 0.0013 1.0000 0.0004
vn -0.0000 1.0000 0.0000
vn -0.0000 -0.7071 -0.7071
vn 0.2055 0.9787 -0.0000
vn -0.7071 0.5000 0.5000
vn 0.1479 0.0000 0.9890
vn 0.1469 -0.0005 0.9892
vn 0.8039 0.5948 -0.0000
vn 0.0095 0.7046 0.7096
vn 0.0105 0.7050 0.7091
vn 0.0089 0.7052 0.7089
vn 0.5774 -0.5773 -0.5773
vn -0.5774 -0.5774 -0.5773
vn 0.6743 -0.5445 0.4989
vn -0.5774 -0.5773 0.5774
vn 0.6743 0.4989 -0.5445
vn -0.0000 0.7071 -0.7071
vn -0.5773 0.5774 -0.5774
vn 0.6909 0.5112 0.5112
vn -0.5733 0.3136 0.7570
vn 0.1119 -0.6534 0.7487
vn 0.0000 0.3827 0.9239
vn 0.0010 0.3832 0.9237
vn -0.5733 0.7570 0.3135
vn -0.0000 -1.0000 0.0000
vn -0.7071 -0.0000 -0.7071
vn 0.0004 1.0000 -0.0013
vn -0.7071 0.7071 0.0000
vn 1.0000 -0.0000 0.0000
vn 0.0000 0.9239 0.3827
vn -0.0013 0.9240 0.3823
vn -0.0005 0.0010 1.0000
vn 0.0000 0.0000 1.0000
vn -0.0006 0.9247 0.3806
vn -0.0015 0.9245 0.3812
vn -0.0019 0.9240 0.3824
vn 0.1400 0.3808 0.9140
vn 0.1395 0.3818 0.9137
vn 0.1381 0.3821 0.9137
vn -0.7071 -0.7071 0.0000
vn 0.8039 0.0000 0.5948
vn 0.7071 -0.7071 0.0000
vn -1.0000 0.0000 0.0000
vn -0.7071 0.0000 0.7071
vn 0.1031 0.6865 -0.7198
vn 0.1452 0.6885 -0.7106
vn 0.2925 0.0000 0.9563
vn 0.0000 0.7071 0.7071
vn 0.2251 0.9656 0.1304
vn 0.2001 0.7413 0.6406
vn 0.3632 0.6588 0.6588
vn 0.2080 0.9781 -0.0000
vn 0.7071 -0.0000 -0.7071
vn 0.2715 0.3723 0.8875
vn 0.2701 0.3727 0.8878
vn 0.2711 0.3711 0.8882
vn 0.1627 0.9867 0.0000
vn 0.2721 0.3834 0.8826
vn 0.0000 -0.7071 0.7071
vn 0.1698 0.7748 0.6090
vn 0.1689 0.7745 0.6096
vn -0.3822 0.7297 -0.5670
vn 0.2016 0.9792 0.0244
vn 0.9882 -0.1073 -0.1097
vn 0.2711 0.3710 0.8882
vn 0.5805 0.8142 -0.0083
vn 0.1286 0.6969 0.7056
vn 0.1471 0.6916 -0.7071
vn 0.4094 0.5671 -0.7147
vn 0.0667 0.6944 0.7165
vn 0.0671 0.6954 0.7155
vn 0.0661 0.6951 0.7159
vn 0.2304 0.6127 0.7560
vn 0.2327 0.6117 0.7561
vn 0.2313 0.6121 0.7562
vn 0.1866 0.6643 0.7238
vn 0.1835 0.6734 0.7162
vn 0.1836 0.6716 0.7178
vn 0.1853 0.6727 0.7163
vn 0.8060 -0.5919 -0.0075
vn 0.8729 -0.3045 -0.3813
vn 0.8214 -0.5116 -0.2524
vn 0.4125 0.5883 0.6955
vn -0.8060 0.5919 0.0057
vn -0.7420 0.6186 -0.2583
vn -0.0595 0.7415 -0.6683
vn 0.5918 0.8061 -0.0000
vn 0.0001 0.0004 1.0000
vn 0.9864 -0.1643 0.0007
vn -0.9869 0.1446 0.0720
vn -0.9880 0.0986 0.1185
vn 0.1478 0.9159 0.3732
vn -0.9864 0.1643 -0.0006
vn 0.1525 0.9135 0.3771
vn 0.1531 0.9131 0.3780
vn 0.4148 0.5879 0.6945
vn 0.4148 0.5887 0.6938
vn 0.4139 0.5877 0.6951
vn 0.5715 0.7896 0.2235
vn 0.1639 0.9854 -0.0466
vn 0.5937 0.8042 -0.0282
vn 0.1490 0.6676 0.7295
vn 0.1486 0.6664 0.7306
vn 0.1510 0.6664 0.7302
vn 0.1504 0.6671 0.7296
vn 0.5518 0.8186 0.1594
vn 0.1257 0.6375 0.7601
vn 0.5111 0.7989 0.3170
vn 0.1467 0.9114 0.3845
vn 0.0083 0.0113 0.9999
vn 0.1578 0.9875 0.0029
vn 0.5858 0.8105 0.0044
vn 0.9868 -0.1436 -0.0748
vn 0.3790 0.6486 0.6601
vn 0.4240 0.5770 0.6981
vn 0.9532 0.2005 0.2263
vn -0.1250 0.9911 -0.0459
vn 0.9796 0.1974 0.0367
vn 0.9890 0.1448 -0.0310
vn -0.1330 0.9910 0.0178
vn -0.0249 0.9991 0.0352
vn 0.8080 0.5493 0.2131
vn 0.8130 0.5822 -0.0096
vn 0.1150 0.6977 0.7071
vn -0.6006 0.5127 0.6135
vn -0.5900 0.7412 0.3203
vn -0.5826 0.8127 0.0088
vn 0.8000 0.4226 0.4259
vn 0.0926 0.9950 0.0387
vn 0.1576 0.9875 -0.0031
vn 0.2947 0.7791 0.5533
vn 0.2561 0.6763 0.6906
vn 0.2793 0.7366 0.6159
usemtl Default_OBJ.003
s off
f 49/1/1 21/2/1 25/3/1 12/4/1 56/5/1
f 47/6/2 3/7/2 33/8/2 38/9/2
f 14/10/3 70/11/4 71/12/4 5/13/4
f 49/14/5 54/15/5 19/16/5 21/17/5
f 31/18/6 32/19/6 37/20/6 46/21/6
f 15/22/7 16/23/7 63/24/7 23/25/7 36/26/7
f 27/27/8 26/28/9 30/29/8 17/30/8
f 31/18/10 9/31/10 24/32/10 32/19/10
f 62/33/11 74/34/12 69/35/13 35/36/11
f 20/37/14 18/38/14 2/39/14
f 19/16/15 6/40/15 21/17/15
f 10/41/16 33/8/16 3/7/16
f 1/42/17 28/43/17 11/44/17
f 41/45/18 32/19/18 24/32/18
f 12/46/19 5/13/19 71/12/19
f 7/47/20 22/48/20 25/49/20
f 31/18/21 13/50/21 9/31/21
f 8/51/22 16/23/22 15/22/22
f 17/30/23 30/29/23 29/52/23
f 16/23/24 8/51/24 26/53/25 34/54/24
f 36/26/26 23/25/26 4/55/26
f 52/56/27 29/57/27 1/58/27 19/16/27 54/15/27
f 25/49/19 22/48/19 5/59/19 12/60/19
f 7/61/28 25/3/28 21/2/28 6/62/28
f 5/59/4 22/48/4 4/55/4 14/63/29
f 36/26/30 4/55/30 22/48/30 7/47/30
f 10/41/31 18/38/31 24/32/31 9/31/31
f 35/64/32 14/63/33 4/55/32 23/25/32
f 26/53/34 8/51/35 28/43/35 30/65/35
f 69/35/36 70/11/37 14/10/38 35/36/37
f 26/28/39 27/27/40 42/66/41 34/67/40
f 1/58/42 11/68/42 6/40/42 19/16/42
f 33/8/43 10/41/43 9/31/43 13/50/43
f 10/41/44 3/7/44 2/39/44 18/38/44
f 6/69/45 11/70/45 15/71/45 36/72/45 7/73/45
f 8/51/46 15/22/46 11/44/46 28/43/46
f 56/74/47 12/75/47 71/76/47 72/77/47
f 40/78/48 37/79/48 32/19/48 41/45/48
f 58/80/49 60/81/49 38/82/49 43/83/49
f 63/24/50 62/84/50 35/64/50 23/25/50
f 46/85/51 39/86/51 45/87/51 31/18/51
f 44/88/52 45/87/52 39/89/52
f 13/50/53 31/18/53 45/87/53
f 52/90/2 61/91/2 17/92/2 29/93/2
f 64/94/54 67/95/54 46/21/54 37/20/54
f 18/38/55 20/37/55 41/45/55 24/32/55
f 38/9/49 33/8/49 13/50/49 43/83/49
f 59/96/56 50/97/57 42/98/58 27/99/56
f 112/100/59 72/101/59 71/76/59 90/102/59
f 43/103/60 13/50/60 45/87/60 44/88/60
f 29/104/61 30/65/61 28/43/61 1/42/61
f 44/88/62 39/89/62 66/105/63 51/106/62
f 107/107/64 82/108/64 85/109/64 108/110/64
f 46/85/65 67/111/65 66/112/65 39/86/65
f 110/113/66 89/114/66 79/115/66 92/116/66
f 43/103/56 44/88/56 51/106/67 58/117/56
f 58/117/56 51/106/57 50/97/58 59/96/56
f 97/118/68 72/101/68 68/119/68 102/120/68
f 93/121/69 69/122/69 74/123/69 111/124/69
f 47/125/2 38/82/2 60/81/2 53/126/2
f 53/126/2 60/81/2 61/91/2 52/90/2
f 27/99/49 17/92/49 61/91/49 59/96/49
f 59/96/49 61/91/49 60/81/49 58/80/49
f 40/127/70 57/128/70 64/129/70 37/79/70
f 57/128/71 56/74/71 72/77/71 64/129/71
f 47/130/27 53/131/27 55/132/27 2/133/27 3/134/27
f 53/131/27 52/56/27 54/15/27 55/132/27
f 20/135/5 2/133/5 55/132/5 48/136/5
f 48/136/5 55/132/5 54/15/5 49/14/5
f 41/137/1 20/138/1 48/139/1 57/140/1 40/141/1
f 48/139/1 49/1/1 56/5/1 57/140/1
f 16/23/50 34/54/50 62/84/50 63/24/50
f 34/67/72 42/66/73 74/34/74 62/33/72
f 73/142/75 42/143/76 50/144/77
f 111/145/78 74/146/78 73/142/78 114/147/78
f 73/142/79 74/146/80 42/143/81
f 103/148/82 78/149/82 83/150/82 96/151/82
f 108/152/83 85/153/83 81/154/83 105/155/83
f 105/155/84 81/154/84 78/149/84 103/148/84
f 104/156/85 65/157/85 73/142/85 109/158/85
f 99/159/86 84/160/86 77/161/86 100/162/86
f 100/162/87 77/161/87 82/163/87 107/164/87
f 115/165/88 88/166/88 89/167/88 110/168/88
f 98/169/89 64/94/89 72/101/89 97/118/89
f 91/170/90 86/171/90 87/172/90 113/173/90
f 95/174/91 76/175/91 86/171/91 91/170/91
f 118/176/92 75/177/92 80/178/92 116/179/92
f 116/180/93 80/181/93 88/182/93 115/183/93
f 94/184/94 70/185/94 69/122/94 93/121/94
f 113/173/95 87/172/95 75/177/95 118/176/95
f 75/186/96 76/187/96 79/188/97 80/189/96
f 85/190/98 82/191/99 81/192/100
f 77/193/101 78/194/101 81/192/101 82/191/101
f 86/195/102 76/187/102 75/186/102 87/196/102
f 83/197/103 78/194/103 77/193/103 84/198/103
f 80/189/104 79/188/105 89/199/106 88/200/107
f 106/201/108 66/112/108 67/111/108 101/202/108
f 114/147/109 73/142/109 65/157/109 117/203/109
f 102/204/110 68/205/110 65/206/110 104/207/110
f 117/208/111 65/206/111 68/205/111 119/209/111
f 96/151/112 83/150/112 84/160/112 99/159/112
f 119/209/113 68/119/113 72/101/113 112/100/113
f 101/210/114 67/95/114 64/94/114 98/169/114
f 92/116/115 79/115/115 76/175/115 95/174/115
f 109/158/116 73/142/116 66/211/116 106/212/116
f 97/118/117 96/151/117 99/159/117 98/169/117
f 109/158/118 108/110/118 105/213/118 104/156/118
f 107/164/119 106/201/119 101/202/119 100/162/119
f 104/207/120 105/155/120 103/148/120 102/204/120
f 96/151/121 97/118/121 102/120/121 103/148/121
f 98/169/122 99/159/122 100/162/122 101/210/122
f 108/110/123 109/158/123 106/212/123 107/107/123
f 93/121/124 92/116/124 95/174/124 94/184/124
f 91/170/125 90/102/125 94/184/125 95/174/125
f 90/102/126 91/170/126 113/173/126 112/100/126
f 115/183/127 114/214/127 117/215/127 116/180/127
f 116/179/128 117/208/128 119/209/128 118/176/128
f 112/100/129 113/173/129 118/176/129 119/209/129
f 92/116/130 93/121/130 111/124/130 110/113/130
f 110/168/131 111/145/131 114/147/131 115/165/131
f 90/102/132 71/76/132 70/185/132 94/184/132
s 1
f 66/211/133 73/142/134 51/216/135
f 51/216/135 73/142/134 50/144/77
