# Blender v2.79 (sub 0) OBJ File: ''
# www.blender.org
mtllib Titan_Flame.mtl
o m_BoosterRocketFlame_01.003
v -1.464473 -0.471818 -2.074883
v 1.479383 2.472064 -2.074066
v 1.479383 -0.471818 -2.074066
v -1.464473 2.472064 -2.074883
v 1.460099 0.999023 -2.072865
v -0.739930 0.999023 -0.249249
v 0.716271 0.999023 -0.249249
v -1.483756 0.999023 -2.072865
v -0.972983 0.999025 -11.901162
v 0.949324 0.999025 -11.901162
v -0.011829 -0.472902 -2.073682
v -0.011829 1.727124 -0.248432
v -0.011829 0.270921 -0.248432
v -0.011829 2.470949 -2.073681
v -0.011829 1.960198 -11.901162
v -0.011829 0.037882 -11.901162
vt 0.447976 0.027226
vt 0.445147 0.355822
vt 0.528710 0.188695
vt 0.364412 0.194353
vt 0.503781 0.585382
vt 0.642363 0.012999
vt 0.501784 0.294156
vt 0.787976 0.016993
vt 0.996525 0.771372
vt 0.880971 1.002479
vt 0.503781 0.585382
vt 0.642363 0.012999
vt 0.501784 0.294156
vt 0.787976 0.016993
vt 0.996525 0.771372
vt 0.880971 1.002479
vn 0.0003 0.0000 -1.0000
vn 0.0000 1.0000 0.0000
vn 1.0000 0.0000 -0.0000
usemtl None
s 1
f 1/1/1 2/2/1 3/3/1
f 2/2/1 1/1/1 4/4/1
f 5/5/2 6/6/2 7/7/2
f 6/6/2 5/5/2 8/8/2
f 5/5/2 9/9/2 8/8/2
f 9/9/2 5/5/2 10/10/2
f 11/11/3 12/12/3 13/13/3
f 12/12/3 11/11/3 14/14/3
f 11/11/3 15/15/3 14/14/3
f 15/15/3 11/11/3 16/16/3
