# Blender v2.80 (sub 75) OBJ File: ''
# www.blender.org
mtllib YK_Laser_Body_Collider.mtl
o Cube
v -0.109112 0.423015 0.851733
v -0.109112 0.423016 0.416872
v -0.133428 0.363561 0.416872
v -0.133428 0.363561 0.851680
v 0.131188 -0.009975 0.856144
v -0.131148 -0.009975 0.856144
v -0.109112 -0.063854 0.451502
v 0.109152 -0.063854 0.451502
v 0.109152 0.423016 -0.547434
v 0.109152 0.423016 0.416872
v 0.133467 0.363561 0.416872
v 0.133468 0.363561 -0.547434
v 0.128861 0.048246 -0.783390
v 0.128861 0.331482 -0.783390
v 0.176592 0.330038 -0.643854
v 0.176592 0.029123 -0.643854
v -0.109112 -0.063854 0.416872
v 0.109152 -0.063854 0.416872
v 0.109152 0.423015 0.851733
v 0.133467 -0.004400 0.416872
v 0.133467 -0.004400 0.851129
v -0.133427 -0.004400 -0.547434
v -0.133428 -0.004400 0.416872
v -0.176552 0.029123 0.416872
v -0.176551 0.029123 -0.643854
v -0.176552 0.029123 0.851389
v -0.176552 0.330038 0.851567
v -0.176552 0.330038 0.416872
v -0.109112 -0.063853 -0.547434
v -0.048210 0.549998 0.656705
v -0.048210 0.403940 0.734902
v -0.048210 0.410068 0.672282
v -0.048210 0.556126 0.594084
v 0.176591 0.330038 0.416872
v 0.176591 0.029123 0.416872
v 0.072241 -0.008880 -0.743690
v 0.088141 0.029995 -0.743690
v 0.133468 -0.004400 -0.547434
v 0.109152 -0.063853 -0.547434
v -0.088101 0.029995 -0.743690
v -0.096904 0.040742 -0.783509
v -0.049471 0.056019 -0.840110
v 0.049512 0.056019 -0.840110
v 0.055959 0.048971 -0.813999
v 0.088141 0.347056 -0.764686
v 0.072241 0.368042 -0.743690
v 0.093444 0.343328 -0.783450
v 0.053595 0.336306 -0.818783
v -0.088101 0.347056 -0.764686
v -0.072201 -0.008880 -0.743690
v -0.093404 0.343328 -0.783450
v -0.128820 0.331482 -0.783390
v -0.176551 0.330038 -0.643854
v -0.133427 0.363561 -0.547434
v -0.072201 0.368042 -0.743690
v -0.109112 0.423016 -0.547434
v -0.049471 0.332069 -0.840110
v 0.049512 0.332069 -0.840110
v -0.128820 0.048245 -0.783390
v 0.133467 -0.004400 0.898012
v 0.133467 -0.004400 0.898012
v 0.163816 0.035373 0.898012
v 0.163816 0.323788 0.898012
v 0.122934 0.355569 0.898012
v 0.100574 0.410241 0.898012
v -0.100535 0.410241 0.898012
v -0.122895 0.355569 0.898012
v -0.163777 0.323788 0.898012
v -0.163777 0.035373 0.898012
v -0.133428 -0.004400 0.898012
v -0.133428 -0.004400 0.898012
v -0.100069 0.623766 0.535689
v -0.058443 0.660712 0.583175
v 0.058483 0.660712 0.583175
v 0.100109 0.623766 0.535689
v -0.100069 0.599082 0.530524
v 0.100109 0.599082 0.530524
v 0.073456 0.546195 0.559212
v -0.073416 0.546195 0.559212
v -0.040214 0.547079 1.045260
v 0.040254 0.547079 1.045260
v 0.068901 0.521684 1.039946
v 0.068901 0.508002 1.037084
v -0.068860 0.508002 1.037084
v -0.068860 0.521684 1.039946
v -0.068244 0.423016 0.120804
v -0.068244 0.423016 -0.264296
v 0.068284 0.423016 -0.264296
v 0.068284 0.423016 0.120804
v -0.068244 0.615855 -0.252327
v -0.068244 0.615855 0.120805
v -0.068244 0.703339 0.131081
v -0.068244 0.735859 -0.240630
v 0.068284 0.615855 0.120805
v 0.068284 0.615855 -0.252327
v 0.068284 0.703339 0.131081
v 0.068284 0.735859 -0.240630
v 0.068284 0.847580 -0.215580
v 0.068284 0.822290 0.156694
v -0.068244 0.822290 0.156694
v -0.068244 0.847580 -0.215580
v -0.025759 0.401309 0.761777
v 0.025799 0.401309 0.761777
v 0.048250 0.403940 0.734902
v 0.048250 0.410068 0.672282
v 0.025799 0.412699 0.645406
v -0.025759 0.412699 0.645406
v -0.025759 0.558756 0.567209
v 0.025799 0.558756 0.567209
v 0.048250 0.556126 0.594084
v 0.048250 0.549998 0.656705
v -0.025759 0.547367 0.683580
v 0.025799 0.547367 0.683580
v -0.050518 0.468269 1.028769
v 0.050559 0.468269 1.028769
v 0.031077 0.061548 1.670805
v 0.047403 0.090045 1.670805
v 0.069650 0.068210 1.670835
v 0.053920 0.041892 1.670835
v 0.047403 0.090045 0.887920
v 0.047403 0.119892 0.887920
v 0.047403 0.119892 1.670805
v 0.031077 0.148389 0.887920
v -0.031037 0.148389 0.887920
v -0.031037 0.148389 1.670805
v 0.031077 0.148389 1.670805
v -0.047364 0.090045 1.670805
v -0.047364 0.119892 1.670805
v -0.047364 0.119892 0.887920
v -0.047364 0.090045 0.887920
v -0.031037 0.061547 0.887920
v 0.031077 0.061547 0.887920
v -0.031037 0.061548 1.670805
v 0.069650 0.120009 1.670835
v 0.069650 0.120008 1.836292
v 0.069650 0.068209 1.836292
v -0.053880 0.041892 1.670835
v -0.069611 0.120009 1.670835
v -0.053880 0.169467 1.670835
v -0.069611 0.068210 1.670835
v 0.053920 0.169467 1.670835
v 0.053920 0.041892 1.836292
v -0.053880 0.041892 1.836292
v -0.069611 0.068209 1.836292
v -0.053880 0.169467 1.836292
v 0.053920 0.169467 1.836292
v -0.069611 0.120008 1.836292
v 0.093121 0.315112 1.710551
v 0.093121 0.315112 1.799892
v 0.118640 0.253504 1.799892
v 0.118640 0.253504 1.710551
v 0.000020 0.336539 1.710551
v 0.059793 0.337140 1.710551
v 0.099988 0.253504 1.710552
v 0.079932 0.301923 1.710551
v 0.046603 0.323950 1.710551
v 0.000020 0.323482 1.710551
v -0.046563 0.323950 1.710551
v -0.079892 0.301923 1.710551
v -0.099948 0.253504 1.710552
v -0.118601 0.253504 1.710551
v -0.093081 0.315112 1.710551
v -0.059753 0.337140 1.710551
v 0.059793 0.169870 1.710551
v 0.059793 0.169869 1.799892
v 0.000020 0.170470 1.799892
v 0.000020 0.170470 1.710551
v -0.092331 0.235115 1.710551
v -0.079892 0.205087 1.710552
v -0.046563 0.183059 1.710552
v 0.000020 0.183527 1.710551
v 0.046603 0.183059 1.710551
v 0.079932 0.205087 1.710551
v 0.092371 0.235115 1.710551
v 0.093121 0.191898 1.710551
v -0.059753 0.169870 1.710551
v -0.093081 0.191898 1.710551
v -0.059753 0.169869 1.799892
v -0.059753 0.337139 1.799892
v 0.000020 0.336538 1.799892
v -0.079892 0.301923 1.799892
v -0.099948 0.253504 1.799892
v 0.059793 0.337139 1.799892
v -0.118601 0.253504 1.799892
v -0.093081 0.315112 1.799892
v 0.099988 0.253504 1.799892
v 0.092371 0.235114 1.799892
v 0.079933 0.205086 1.799892
v 0.046603 0.183059 1.799892
v 0.000020 0.183527 1.799892
v -0.046563 0.183059 1.799892
v -0.079893 0.205086 1.799892
v -0.092331 0.235114 1.799892
v -0.093081 0.191897 1.799892
v 0.093121 0.191897 1.799892
v 0.176591 0.029123 0.851389
v 0.133467 0.363561 0.851680
v 0.176591 0.330038 0.851567
v -0.133428 -0.004400 0.851129
v 0.096945 0.040742 -0.783509
v 0.000020 0.323482 1.799892
v -0.046563 0.323950 1.799892
v 0.046603 0.323950 1.799892
v 0.079932 0.301923 1.799892
vt 0.301646 0.195542
vt 0.450216 0.195542
vt 0.450216 0.175230
vt 0.301665 0.175230
vt 0.300140 0.047613
vt 0.300140 0.047613
vt 0.438384 0.029205
vt 0.438384 0.029205
vt 0.250080 0.514295
vt 0.132152 0.514295
vt 0.132152 0.503627
vt 0.250080 0.503627
vt 0.344384 0.431826
vt 0.344384 0.481387
vt 0.319967 0.481135
vt 0.319967 0.428480
vt 0.450216 0.029205
vt 0.450216 0.029205
vt 0.301646 0.195542
vt 0.450216 0.195542
vt 0.450216 0.049517
vt 0.301853 0.049517
vt 0.250080 0.437600
vt 0.132152 0.437600
vt 0.132152 0.443615
vt 0.261871 0.443615
vt 0.301764 0.060970
vt 0.301703 0.163777
vt 0.450216 0.163777
vt 0.450216 0.060970
vt 0.250080 0.426932
vt 0.132152 0.426932
vt 0.129730 0.688744
vt 0.117576 0.512544
vt 0.064503 0.553563
vt 0.076657 0.729763
vt 0.261871 0.443615
vt 0.261871 0.497611
vt 0.132152 0.497611
vt 0.132152 0.443615
vt 0.337437 0.421830
vt 0.337437 0.428632
vt 0.303096 0.422614
vt 0.303096 0.412210
vt 0.337437 0.428632
vt 0.344405 0.430513
vt 0.354309 0.433186
vt 0.354309 0.433186
vt 0.349740 0.431953
vt 0.337437 0.486044
vt 0.337437 0.487785
vt 0.303096 0.497404
vt 0.303096 0.487001
vt 0.341634 0.484911
vt 0.349538 0.482778
vt 0.337437 0.486044
vt 0.337437 0.421830
vt 0.303096 0.412210
vt 0.303096 0.422614
vt 0.341634 0.484911
vt 0.344384 0.481387
vt 0.319967 0.481135
vt 0.303096 0.487001
vt 0.337437 0.487785
vt 0.303096 0.497404
vt 0.354309 0.481490
vt 0.354309 0.481490
vt 0.344384 0.431826
vt 0.319967 0.428480
vt 0.285835 0.049517
vt 0.285835 0.049517
vt 0.285835 0.063106
vt 0.285835 0.161642
vt 0.285835 0.172500
vt 0.285835 0.191178
vt 0.285835 0.191178
vt 0.285835 0.172500
vt 0.285835 0.161642
vt 0.285835 0.063106
vt 0.285835 0.049517
vt 0.285835 0.049517
vt 0.519386 0.649082
vt 0.547682 0.630705
vt 0.547682 0.538360
vt 0.519386 0.519983
vt 0.519386 0.649082
vt 0.519386 0.519983
vt 0.547682 0.548736
vt 0.547682 0.620329
vt 0.704679 0.630705
vt 0.704679 0.538360
vt 0.704679 0.519983
vt 0.704679 0.519983
vt 0.704679 0.649082
vt 0.704679 0.649082
vt 0.113018 0.786943
vt 0.087546 0.658239
vt 0.087546 0.658239
vt 0.113018 0.786943
vt 0.152787 0.649485
vt 0.177466 0.774188
vt 0.207384 0.771836
vt 0.193667 0.645456
vt 0.177466 0.774188
vt 0.152787 0.649485
vt 0.207384 0.771836
vt 0.193667 0.645456
vt 0.305587 0.652170
vt 0.305562 0.779292
vt 0.305562 0.779292
vt 0.305587 0.652170
vt 0.140354 0.494940
vt 0.140354 0.494940
vt 0.117576 0.512544
vt 0.064503 0.553563
vt 0.041725 0.571167
vt 0.041725 0.571167
vt 0.053879 0.747367
vt 0.053879 0.747367
vt 0.076657 0.729763
vt 0.129730 0.688744
vt 0.152508 0.671140
vt 0.152508 0.671140
vt 0.704679 0.620329
vt 0.704679 0.548736
vt 0.534757 0.520207
vt 0.555290 0.520207
vt 0.539557 0.520229
vt 0.520595 0.520229
vt 0.086033 0.260776
vt 0.112548 0.260776
vt 0.112548 0.956283
vt 0.086033 0.956283
vt 0.137865 0.260776
vt 0.137865 0.260776
vt 0.137865 0.956283
vt 0.137865 0.956283
vt 0.086033 0.956283
vt 0.112548 0.956283
vt 0.112548 0.260776
vt 0.086033 0.260776
vt 0.018189 0.434153
vt 0.018189 0.439140
vt 0.018189 0.444362
vt 0.018189 0.449349
vt 0.018189 0.449349
vt 0.018189 0.444362
vt 0.018189 0.439140
vt 0.018189 0.434153
vt 0.060716 0.260776
vt 0.060716 0.956283
vt 0.060716 0.956283
vt 0.060716 0.260776
vt 0.576879 0.520229
vt 0.576879 0.639441
vt 0.539557 0.639441
vt 0.534757 0.520207
vt 0.520595 0.520229
vt 0.597327 0.520207
vt 0.576794 0.520207
vt 0.576879 0.520229
vt 0.612514 0.520229
vt 0.555290 0.520207
vt 0.539557 0.520229
vt 0.576794 0.520207
vt 0.597327 0.520207
vt 0.612514 0.520229
vt 0.520595 0.639441
vt 0.520595 0.639441
vt 0.539557 0.639441
vt 0.612514 0.639441
vt 0.612514 0.639441
vt 0.576879 0.639441
vt 0.717452 0.548844
vt 0.717452 0.613215
vt 0.673063 0.613215
vt 0.673064 0.548844
vt 0.732891 0.548844
vt 0.733324 0.548844
vt 0.673064 0.548844
vt 0.707949 0.548844
vt 0.723820 0.548844
vt 0.723483 0.548844
vt 0.723820 0.548844
vt 0.707949 0.548844
vt 0.673064 0.548844
vt 0.673064 0.548844
vt 0.717452 0.548844
vt 0.733324 0.548844
vt 0.612804 0.548844
vt 0.612803 0.613215
vt 0.613236 0.613215
vt 0.613236 0.548844
vt 0.659814 0.548844
vt 0.638179 0.548844
vt 0.622307 0.548844
vt 0.622644 0.548844
vt 0.622307 0.548844
vt 0.638179 0.548844
vt 0.659814 0.548844
vt 0.628676 0.548844
vt 0.612804 0.548844
vt 0.628676 0.548844
vt 0.612803 0.613215
vt 0.733324 0.613215
vt 0.732891 0.613215
vt 0.384410 0.669091
vt 0.384410 0.705533
vt 0.371460 0.705533
vt 0.371460 0.669091
vt 0.733324 0.613215
vt 0.673063 0.613215
vt 0.717452 0.613215
vt 0.673064 0.613215
vt 0.659814 0.613215
vt 0.638179 0.613215
vt 0.622307 0.613215
vt 0.622644 0.613215
vt 0.622307 0.613215
vt 0.638179 0.613215
vt 0.659814 0.613215
vt 0.673063 0.613215
vt 0.628675 0.613215
vt 0.628675 0.613215
vt 0.301764 0.060970
vt 0.301665 0.175230
vt 0.301703 0.163777
vt 0.301853 0.049517
vt 0.450216 0.060970
vt 0.344405 0.430513
vt 0.398199 0.669091
vt 0.398199 0.705533
vt 0.393038 0.705533
vt 0.393038 0.669091
vt 0.344721 0.669091
vt 0.344721 0.705533
vt 0.349882 0.705533
vt 0.349882 0.669091
vt 0.393038 0.669091
vt 0.393038 0.705533
vt 0.349882 0.669091
vt 0.349882 0.705533
vt 0.366541 0.705533
vt 0.358510 0.705533
vt 0.358509 0.669091
vt 0.366541 0.669091
vt 0.371460 0.669091
vt 0.371460 0.705533
vt 0.384410 0.705533
vt 0.384410 0.669091
vt 0.358509 0.669091
vt 0.358510 0.705533
vt 0.366541 0.705533
vt 0.366541 0.669091
vt 0.132152 0.437600
vt 0.250080 0.437600
vt 0.132152 0.514295
vt 0.250080 0.514295
vt 0.450216 0.049517
vt 0.132152 0.497611
vt 0.132152 0.503627
vt 0.250080 0.503627
vt 0.261871 0.497611
vt 0.450216 0.163777
vt 0.450216 0.175230
vt 0.132152 0.426932
vt 0.250080 0.426932
vt 0.707949 0.613215
vt 0.723820 0.613215
vt 0.723483 0.613215
vt 0.723820 0.613215
vt 0.707949 0.613215
vt 0.357521 0.481490
vt 0.354309 0.431826
vt 0.357521 0.433186
vt 0.354309 0.481387
vn -0.9256 0.3786 0.0000
vn -0.9256 0.3785 -0.0000
vn -0.7966 0.6045 -0.0000
vn -0.7968 0.6043 0.0000
vn 0.0000 -0.9913 0.1320
vn 0.8937 0.4327 -0.1189
vn 0.9256 0.3785 0.0000
vn 0.7966 0.6045 0.0000
vn 0.7505 0.6563 -0.0777
vn 0.8145 0.0000 -0.5802
vn 0.8012 0.0000 -0.5984
vn 0.9864 0.0000 -0.1646
vn 0.9876 0.0000 -0.1570
vn 0.0000 -1.0000 -0.0000
vn 0.0000 1.0000 0.0000
vn 0.9256 -0.3785 -0.0000
vn 0.7966 -0.6045 -0.0000
vn 0.8146 -0.5788 0.0365
vn -0.7666 -0.6350 -0.0953
vn -0.7966 -0.6045 -0.0000
vn -0.6137 -0.7895 -0.0000
vn -0.3062 -0.9348 -0.1802
vn -1.0000 -0.0000 0.0000
vn -0.9180 -0.3754 -0.1279
vn -0.9256 -0.3786 -0.0000
vn 1.0000 0.0000 0.0000
vn -0.6137 0.7895 -0.0000
vn 0.8913 -0.3645 -0.2697
vn 0.3370 -0.8265 -0.4510
vn 0.7666 -0.6350 -0.0953
vn 0.9180 -0.3754 -0.1279
vn -0.3370 -0.8265 -0.4510
vn -0.1428 -0.9419 -0.3040
vn -0.0232 -0.9601 -0.2786
vn 0.0418 -0.9552 -0.2929
vn 0.0576 -0.9507 -0.3048
vn 0.2936 0.9125 -0.2849
vn 0.8382 0.4844 -0.2504
vn 0.1946 0.9515 -0.2384
vn 0.0901 0.9612 -0.2608
vn -0.2936 0.9125 -0.2849
vn -0.8913 -0.3645 -0.2697
vn -0.2119 0.9447 -0.2502
vn -0.3426 0.9170 -0.2043
vn -0.4069 0.9070 -0.1086
vn -0.7505 0.6563 -0.0777
vn -0.8382 0.4844 -0.2504
vn -0.8937 0.4327 -0.1189
vn 0.0000 -0.9629 -0.2697
vn -0.3129 0.0000 -0.9498
vn -0.3048 0.0000 -0.9524
vn 0.3048 0.0000 -0.9524
vn 0.3129 0.0000 -0.9498
vn -0.2284 -0.9353 -0.2704
vn 0.0000 0.9629 -0.2697
vn -0.0000 -0.0000 1.0000
vn 0.0000 0.4534 -0.8913
vn 0.0000 0.7893 -0.6141
vn 0.0000 -0.0892 -0.9960
vn 0.0000 -0.4768 -0.8790
vn -0.4588 0.8595 0.2253
vn -0.3900 0.8914 0.2311
vn 0.3900 0.8914 0.2311
vn 0.4588 0.8595 0.2253
vn 0.9836 -0.1785 0.0275
vn 0.9585 0.2609 0.1146
vn 0.9251 0.3558 0.1326
vn 0.9728 -0.2309 0.0171
vn -0.9728 -0.2309 0.0171
vn -0.9251 0.3558 0.1326
vn -0.9585 0.2609 0.1146
vn -0.9836 -0.1785 0.0275
vn 0.0000 -0.0584 0.9983
vn 0.0000 0.0620 -0.9981
vn 0.0000 0.0795 -0.9968
vn 0.0000 0.1582 -0.9874
vn 0.0000 -0.1638 0.9865
vn 0.0000 0.9977 0.0678
vn 0.0000 -0.2105 0.9776
vn 0.0000 0.2188 -0.9758
vn 0.0000 0.9952 0.0974
vn 0.0000 0.4720 0.8816
vn 0.0000 -0.9952 -0.0974
vn 0.0000 -0.2048 0.9788
vn -0.5235 -0.8445 -0.1130
vn -0.6196 -0.7789 -0.0971
vn 0.6196 -0.7789 -0.0971
vn 0.5235 -0.8445 -0.1130
vn 0.0004 -0.0011 -1.0000
vn 0.0012 -0.0002 -1.0000
vn 0.0012 -0.0001 -1.0000
vn 0.0002 -0.0014 -1.0000
vn 0.9664 -0.2572 0.0000
vn 0.9664 0.2572 0.0000
vn 0.5014 0.8652 0.0000
vn -0.5014 0.8652 0.0000
vn -0.9664 -0.2572 0.0000
vn -0.9664 0.2572 0.0000
vn 0.0000 0.0000 -1.0000
vn -0.5014 -0.8652 0.0000
vn 0.5015 -0.8652 0.0000
vn 0.9639 -0.2661 -0.0000
vn 0.9882 0.1534 0.0000
vn -0.0004 -0.0011 -1.0000
vn -0.0002 -0.0014 -1.0000
vn -0.0005 0.0010 -1.0000
vn -0.0012 0.0003 -1.0000
vn -0.0012 0.0002 -1.0000
vn -0.0003 0.0011 -1.0000
vn -0.0012 -0.0002 -1.0000
vn -0.0012 -0.0001 -1.0000
vn 0.0012 0.0003 -1.0000
vn 0.0012 0.0002 -1.0000
vn 0.0005 0.0010 -1.0000
vn 0.0003 0.0011 -1.0000
vn 0.8583 -0.5131 -0.0000
vn -0.9639 -0.2661 -0.0000
vn -0.8583 -0.5131 -0.0000
vn -0.9882 0.1534 0.0000
vn 0.9530 0.3031 0.0000
vn -0.9530 0.3031 0.0000
vn 0.7714 0.6363 0.0000
vn 0.2831 -0.9591 -0.0000
vn -0.0100 -0.9999 -0.0000
vn 0.0100 -0.9999 -0.0000
vn -0.2831 -0.9591 -0.0000
vn -0.2831 0.9591 0.0000
vn 0.7714 -0.6363 -0.0000
vn 0.2831 0.9591 0.0000
vn -0.7714 0.6363 0.0000
vn 0.6137 0.7895 0.0000
vn 0.4069 0.9070 -0.1086
vn 0.6988 -0.7010 0.1423
vn 0.8307 -0.5520 0.0728
vn 0.8923 0.3648 0.2659
vn 0.7662 0.5811 0.2743
vn 0.7660 0.5813 0.2743
vn 0.5919 0.7610 0.2655
vn -0.8306 -0.5520 0.0728
vn -0.6988 -0.7010 0.1423
vn -0.8146 -0.5789 0.0365
vn -0.7662 0.5811 0.2743
vn -0.8923 0.3648 0.2659
vn -0.7660 0.5813 0.2743
vn -0.5919 0.7610 0.2655
vn 0.9643 -0.0001 0.2647
vn 0.0000 0.9639 0.2661
vn -0.9643 -0.0001 0.2647
vn 0.9256 -0.3784 -0.0000
vn 0.6137 -0.7895 0.0000
vn -0.9876 0.0000 -0.1570
vn -0.9864 0.0000 -0.1646
vn -0.8012 0.0000 -0.5984
vn -0.8145 0.0000 -0.5802
vn 0.0000 0.7073 -0.7069
vn 0.1256 -0.9483 -0.2914
vn 0.2110 -0.9428 -0.2581
vn 0.3062 -0.9348 -0.1802
vn 0.9239 0.3827 0.0000
vn -0.7714 -0.6363 -0.0000
vn -0.9239 0.3827 0.0000
vn 0.7968 0.6043 0.0000
vn -0.7071 0.3338 0.6234
vn -0.7071 -0.3338 -0.6234
vn 0.7071 -0.3338 -0.6234
vn 0.7071 0.3338 0.6234
vn 0.0000 -0.4720 -0.8816
vn -0.0382 0.9740 -0.2231
vn 0.0699 0.9667 -0.2463
vn 0.3244 0.9262 -0.1923
usemtl Default_OBJ.003
s 1
f 1/1/1 2/2/2 3/3/3 4/4/4
f 5/5/5 6/6/5 7/7/5 8/8/5
f 9/9/6 10/10/7 11/11/8 12/12/9
f 13/13/10 14/14/11 15/15/12 16/16/13
f 8/8/14 7/7/14 17/17/14 18/18/14
f 1/1/15 19/19/15 10/20/15 2/2/15
f 5/5/16 8/8/16 18/18/16 20/21/17 21/22/18
f 22/23/19 23/24/20 24/25/21 25/26/22
f 26/27/23 27/28/23 28/29/23 24/30/23
f 29/31/24 17/32/25 23/24/20 22/23/19
f 30/33/26 31/34/26 32/35/26 33/36/26
f 4/4/4 3/3/3 28/29/27 27/28/27
f 16/37/13 15/38/12 34/39/26 35/40/26
f 36/41/28 37/42/29 38/43/30 39/44/31
f 40/45/32 41/46/33 42/47/34 43/48/35 44/49/36
f 45/50/37 46/51/38 9/52/6 12/53/9
f 45/50/37 47/54/39 48/55/40 49/56/41
f 40/45/32 50/57/42 29/58/24 22/59/19
f 49/56/41 51/60/43 52/61/44 53/62/45 54/63/46
f 55/64/47 49/56/41 54/63/46 56/65/48
f 50/57/49 36/41/49 39/44/49 29/58/49
f 42/47/50 57/66/51 58/67/52 43/48/53
f 59/68/54 41/46/33 40/45/32 22/59/19 25/69/22
f 56/65/55 9/52/55 46/51/55 55/64/55
f 60/70/56 61/71/56 62/72/56 63/73/56 64/74/56 65/75/56 66/76/56 67/77/56 68/78/56 69/79/56 70/80/56 71/81/56
f 72/82/57 73/83/58 74/84/58 75/85/57
f 76/86/59 77/87/59 78/88/60 79/89/60
f 73/83/61 80/90/62 81/91/63 74/84/64
f 77/87/65 75/85/66 82/92/67 83/93/68
f 84/94/69 85/95/70 72/82/71 76/86/72
f 86/96/14 87/97/14 88/98/14 89/99/14
f 90/100/23 91/101/23 92/102/23 93/103/23
f 86/96/56 89/99/56 94/104/73 91/101/73
f 87/97/23 86/96/23 91/101/23 90/100/23
f 88/98/74 87/97/74 90/100/75 95/105/75
f 89/99/26 88/98/26 95/105/26 94/104/26
f 96/106/26 97/107/26 98/108/26 99/109/26
f 95/105/75 90/100/75 93/103/76 97/107/76
f 94/104/26 95/105/26 97/107/26 96/106/26
f 91/101/73 94/104/73 96/106/77 92/102/77
f 100/110/78 99/109/78 98/108/78 101/111/78
f 92/102/77 96/106/77 99/109/79 100/110/79
f 93/103/23 92/102/23 100/110/23 101/111/23
f 97/107/76 93/103/76 101/111/80 98/108/80
f 31/34/81 102/112/81 103/113/81 104/114/81 105/115/81 106/116/81 107/117/81 32/35/81
f 108/118/82 107/117/82 106/116/82 109/119/82
f 110/120/23 105/115/23 104/114/23 111/121/23
f 112/122/83 30/33/83 33/36/83 108/118/83 109/119/83 110/120/83 111/121/83 113/123/83
f 73/83/61 72/82/71 85/95/70 80/90/62
f 75/85/66 74/84/64 81/91/63 82/92/67
f 83/93/84 82/92/84 81/91/84 80/90/84 85/95/84 84/94/84 114/124/84 115/125/84
f 114/124/85 84/94/69 76/86/72 79/89/86
f 78/88/87 77/87/65 83/93/68 115/125/88
f 79/89/86 78/88/87 115/125/88 114/124/85
f 72/82/57 75/85/57 77/87/59 76/86/59
f 116/126/89 117/127/90 118/128/91 119/129/92
f 120/130/93 121/131/94 122/132/94 117/133/93
f 123/134/95 124/135/96 125/136/96 126/137/95
f 127/138/97 128/139/98 129/140/98 130/141/97
f 131/142/99 130/143/99 129/144/99 124/145/99 123/146/99 121/147/99 120/148/99 132/149/99
f 131/150/100 133/151/100 127/138/97 130/141/97
f 125/136/96 124/135/96 129/140/98 128/139/98
f 116/152/101 132/153/101 120/130/93 117/133/93
f 123/134/95 126/137/95 122/132/94 121/131/94
f 131/150/100 132/153/101 116/152/101 133/151/100
f 118/128/102 134/154/103 135/155/103 136/156/102
f 133/157/104 116/126/89 119/129/92 137/158/105
f 125/159/106 128/160/107 138/161/108 139/162/109
f 127/163/110 133/157/104 137/158/105 140/164/111
f 117/127/90 122/165/112 134/154/113 118/128/91
f 128/160/107 127/163/110 140/164/111 138/161/108
f 122/165/112 126/166/114 141/167/115 134/154/113
f 126/166/114 125/159/106 139/162/109 141/167/115
f 137/158/14 119/129/14 142/168/14 143/169/14
f 119/129/116 118/128/102 136/156/102 142/168/116
f 140/164/117 137/158/118 143/169/118 144/170/117
f 141/167/15 139/162/15 145/171/15 146/172/15
f 138/161/119 140/164/117 144/170/117 147/173/119
f 134/154/103 141/167/120 146/172/120 135/155/103
f 139/162/121 138/161/119 147/173/119 145/171/121
f 143/169/56 142/168/56 136/156/56 135/155/56 146/172/56 145/171/56 147/173/56 144/170/56
f 148/174/122 149/175/122 150/176/26 151/177/26
f 152/178/99 153/179/99 148/174/99 151/177/99 154/180/99 155/181/99 156/182/99 157/183/99 158/184/99 159/185/99 160/186/99 161/187/99 162/188/99 163/189/99
f 164/190/123 165/191/123 166/192/124 167/193/124
f 161/187/99 160/186/99 168/194/99 169/195/99 170/196/99 171/197/99 172/198/99 173/199/99 174/200/99 154/180/99 151/177/99 175/201/99 164/190/99 167/193/99 176/202/99 177/203/99
f 167/193/125 166/192/125 178/204/126 176/202/126
f 163/189/127 179/205/127 180/206/15 152/178/15
f 159/207/128 181/208/128 182/209/26 160/210/26
f 152/178/15 180/206/15 183/211/129 153/179/129
f 161/187/23 184/212/23 185/213/130 162/188/130
f 150/176/56 186/214/56 187/215/56 188/216/56 189/217/56 190/218/56 191/219/56 192/220/56 193/221/56 182/222/56 184/212/56 194/223/56 178/204/56 166/192/56 165/191/56 195/224/56
f 12/12/9 11/11/8 34/39/131 15/38/132
f 62/72/133 61/71/134 21/22/18 196/225/133
f 65/75/135 64/74/136 197/226/137 19/19/135
f 64/74/136 63/73/138 198/227/138 197/226/137
f 70/80/139 69/79/140 26/27/140 199/228/141
f 67/77/142 66/76/143 1/1/143 4/4/144
f 68/78/145 67/77/142 4/4/144 27/28/145
f 63/73/146 62/72/146 196/225/146 198/227/146
f 66/76/147 65/75/147 19/19/147 1/1/147
f 27/28/148 26/27/148 69/79/148 68/78/148
f 60/70/5 71/81/5 6/6/5 5/5/5
f 61/71/134 60/70/149 5/5/16 21/22/18
f 199/228/141 6/6/25 71/81/25 70/80/139
f 21/22/18 20/21/17 35/229/150 196/225/150
f 36/41/99 50/57/99 40/45/32
f 25/69/151 53/62/152 52/61/153 59/68/154
f 49/56/41 55/64/155 46/51/155
f 44/49/36 200/230/156 37/42/29 40/45/32
f 37/42/29 36/41/99 40/45/32
f 37/42/29 200/230/156 13/13/157 16/16/158 38/43/30
f 49/56/41 46/51/155 45/50/37
f 157/231/14 201/232/14 202/233/123 158/234/123
f 171/235/15 190/236/15 189/237/127 172/238/127
f 156/239/126 203/240/126 201/232/14 157/231/14
f 170/241/129 191/242/129 190/236/15 171/235/15
f 160/210/26 182/209/26 193/243/159 192/244/122 169/245/122 168/246/159
f 151/177/26 150/176/26 195/224/128 175/201/128
f 154/247/23 186/248/23 204/249/160 155/250/160
f 177/203/160 194/223/160 184/212/23 161/187/23
f 173/251/130 188/252/130 187/253/161 186/248/23 154/247/23 174/254/161
f 35/40/150 20/255/17 38/256/30 16/37/158
f 2/257/15 10/10/15 9/9/15 56/258/15
f 24/30/21 23/259/20 199/228/141 26/27/21
f 23/259/20 17/17/25 7/7/25 6/6/25 199/228/141
f 28/260/27 3/261/3 54/262/46 53/263/45
f 34/264/131 11/265/8 197/226/162 198/227/131
f 3/261/3 2/257/2 56/258/48 54/262/46
f 11/265/8 10/20/7 19/19/7 197/226/162
f 18/266/14 17/32/14 29/31/14 39/267/14
f 20/255/17 18/266/16 39/267/31 38/256/30
f 24/25/23 28/260/23 53/263/152 25/26/151
f 35/229/26 34/264/26 198/227/26 196/225/26
f 149/175/122 148/174/122 153/179/129 183/211/129
f 165/191/123 164/190/123 175/201/128 195/224/128
f 176/202/126 178/204/126 194/223/160 177/203/160
f 179/205/127 163/189/127 162/188/130 185/213/130
f 181/208/128 159/207/128 158/234/123 202/233/123
f 172/238/127 189/237/127 188/252/130 173/251/130
f 191/242/129 170/241/129 169/245/122 192/244/122
f 203/240/126 156/239/126 155/250/160 204/249/160
f 180/206/56 179/205/56 185/213/56 184/212/56 182/222/56 181/268/56 202/269/56 201/270/56 203/271/56 204/272/56 186/214/56 150/176/56 149/175/56 183/211/56
f 109/119/163 106/116/163 105/115/163 110/120/163
f 111/121/164 104/114/164 103/113/164 113/123/164
f 112/122/165 102/112/165 31/34/165 30/33/165
f 33/36/166 32/35/166 107/117/166 108/118/166
f 113/123/167 103/113/167 102/112/167 112/122/167
f 57/66/168 51/60/43 49/56/41 48/55/40 58/67/169
f 14/14/170 58/273/169 48/55/40 47/54/39
f 43/48/35 13/274/157 200/230/156 44/49/36
f 59/68/54 42/275/34 41/46/33
f 57/66/168 52/276/44 51/60/43
f 14/14/11 13/13/10 43/48/53 58/67/52
f 59/68/154 52/61/153 57/66/51 42/47/50
f 14/14/170 47/54/39 45/50/37 12/53/9 15/15/132
