# Blender v2.82 (sub 7) OBJ File: 'DL_CISlope1.blend'
# www.blender.org
mtllib DLCornerSmallInvertSlope.mtl
o SomeRandomInvertedSlope
v -0.450000 0.350000 0.500000
v -0.350000 0.300000 0.500000
v -0.350000 -0.300000 0.500000
v -0.450000 -0.350000 0.500000
v 0.000000 0.366025 0.000000
v -0.500000 -0.350000 0.450000
v -0.500000 -0.300000 0.350000
v -0.500000 0.300000 0.350000
v -0.500000 0.350000 0.450000
v -0.500000 0.350000 -0.450000
v -0.500000 0.300000 -0.350000
v -0.500000 -0.300000 -0.350000
v -0.500000 -0.350000 -0.450000
v -0.435000 -0.337500 0.485000
v -0.485000 -0.337500 0.435000
v -0.360000 -0.300000 0.485000
v -0.360000 0.300000 0.485000
v -0.435000 0.337500 0.485000
v -0.485000 0.337500 0.435000
v -0.485000 -0.300000 0.360000
v -0.485000 0.300000 0.360000
v -0.450000 -0.350000 -0.500000
v -0.485000 -0.337500 -0.435000
v -0.435000 -0.337500 -0.485000
v -0.485000 -0.300000 -0.360000
v -0.485000 0.300000 -0.360000
v -0.485000 0.337500 -0.435000
v -0.435000 0.337500 -0.485000
v -0.360000 -0.300000 -0.485000
v -0.360000 0.300000 -0.485000
v -0.350000 0.300000 -0.500000
v -0.350000 -0.300000 -0.500000
v -0.450000 0.350000 -0.500000
v 0.500000 -0.350000 -0.450000
v 0.500000 -0.300000 -0.350000
v 0.500000 0.300000 -0.350000
v 0.500000 0.350000 -0.450000
v 0.450000 -0.350000 -0.500000
v 0.450000 0.350000 -0.500000
v 0.350000 0.300000 -0.500000
v 0.350000 -0.300000 -0.500000
v 0.485000 0.337500 -0.435000
v 0.435000 0.337500 -0.485000
v 0.485000 0.300000 -0.360000
v 0.485000 -0.300000 -0.360000
v 0.485000 -0.337500 -0.435000
v 0.435000 -0.337500 -0.485000
v 0.360000 -0.300000 -0.485000
v 0.360000 0.300000 -0.485000
v 0.366026 0.000000 0.366025
v 0.000000 0.366025 0.450000
v -0.026994 0.322309 0.500000
v -0.430484 0.481373 0.450000
v -0.450000 0.435686 0.500000
v -0.429289 -0.500000 0.450000
v -0.450000 -0.450000 0.500000
v 0.450000 -0.500000 0.450000
v 0.500000 -0.450000 0.434839
v 0.450000 -0.313397 0.450000
v 0.434839 -0.450000 0.500000
v 0.321197 -0.025882 0.500000
v 0.366026 0.000000 0.450000
v -0.500000 0.449174 -0.450000
v -0.451704 0.487059 -0.428780
v -0.500000 0.449146 0.450000
v -0.451704 0.487059 0.428780
v -0.475000 0.442473 -0.475000
v -0.440242 0.483988 -0.440242
v -0.450000 -0.500000 -0.429289
v -0.500000 -0.450000 -0.450000
v -0.450000 -0.500000 0.429289
v -0.500000 -0.450000 0.450000
v -0.450000 -0.450000 -0.500000
v -0.429289 -0.500000 -0.450000
v 0.450000 -0.450000 -0.500000
v 0.429289 -0.500000 -0.450000
v 0.450000 -0.500000 -0.429289
v 0.500000 -0.450000 -0.450000
v -0.428780 0.487059 -0.451704
v -0.450000 0.449174 -0.500000
v 0.500000 0.322309 -0.026994
v 0.450000 0.366025 0.000000
v 0.500000 0.435686 -0.450000
v 0.450000 0.481373 -0.430483
v 0.450000 0.449146 -0.500000
v 0.428780 0.487060 -0.451704
v 0.500000 -0.025882 0.321196
v 0.450000 0.000000 0.366025
vt 0.081123 0.882187
vt 0.230243 0.882187
vt 0.230243 0.726306
vt 0.057042 0.823086
vt 0.074362 0.852768
vt 0.057042 0.857431
vt 0.081713 0.569835
vt 0.077742 0.573805
vt 0.205783 0.882187
vt 0.097222 0.882187
vt 0.205783 0.853098
vt 0.081536 0.882187
vt 0.074362 0.577599
vt 0.378950 0.570425
vt 0.074362 0.899507
vt 0.062238 0.876991
vt 0.057042 0.882187
vt 0.109002 0.899507
vt 0.079558 0.894311
vt 0.101862 0.899507
vt 0.309703 0.894311
vt 0.101862 0.894311
vt 0.109002 0.899507
vt 0.079558 0.894311
vt 0.105538 0.894311
vt 0.290997 0.417272
vt 0.275912 0.289047
vt 0.290997 0.296590
vt 0.265855 0.424815
vt 0.265855 0.289047
vt 0.281320 0.458628
vt 0.409545 0.443543
vt 0.288863 0.443543
vt 0.062238 0.805766
vt 0.057042 0.597925
vt 0.062238 0.597925
vt 0.057042 0.847546
vt 0.062238 0.876991
vt 0.057042 0.882187
vt 0.074362 0.899507
vt 0.057042 0.545965
vt 0.074362 0.580605
vt 0.057042 0.580605
vt 0.057042 0.847546
vt 0.062238 0.851010
vt 0.351484 0.597925
vt 0.074362 0.545965
vt 0.109002 0.597925
vt 0.057042 0.570425
vt 0.079558 0.558301
vt 0.074362 0.553105
vt 0.057042 0.605065
vt 0.062238 0.575621
vt 0.057042 0.597925
vt 0.062238 0.805766
vt 0.062238 0.597925
vt 0.057042 0.605065
vt 0.062238 0.575621
vt 0.062238 0.601601
vt 0.409545 0.298724
vt 0.281320 0.283639
vt 0.288863 0.298724
vt 0.265855 0.289047
vt 0.275912 0.424815
vt 0.275912 0.289047
vt 0.290997 0.417272
vt 0.290997 0.296590
vt 0.309703 0.558301
vt 0.101862 0.553105
vt 0.101862 0.558301
vt 0.109002 0.553105
vt 0.079558 0.558301
vt 0.074362 0.553105
vt 0.057042 0.570425
vt 0.309703 0.847546
vt 0.361378 0.570425
vt 0.309703 0.605065
vt 0.057042 0.545965
vt 0.074362 0.580605
vt 0.386124 0.701846
vt 0.357035 0.701846
vt 0.386124 0.593284
vt 0.386124 0.726306
vt 0.357035 0.853098
vt 0.386124 0.853098
vt 0.386124 0.545965
vt 0.403444 0.580605
vt 0.403444 0.545965
vt 0.403444 0.570425
vt 0.380928 0.558301
vt 0.386124 0.553105
vt 0.403444 0.605065
vt 0.398248 0.575621
vt 0.398248 0.805766
vt 0.403444 0.597925
vt 0.398248 0.597925
vt 0.281320 0.283639
vt 0.409545 0.298724
vt 0.288863 0.298724
vt 0.450901 0.289047
vt 0.460958 0.424815
vt 0.460958 0.289047
vt 0.435816 0.417272
vt 0.435816 0.296590
vt 0.351484 0.553105
vt 0.380928 0.558301
vt 0.386124 0.553105
vt 0.101862 0.553105
vt 0.309703 0.558301
vt 0.101862 0.558301
vt 0.351484 0.553105
vt 0.354948 0.558301
vt 0.398248 0.575621
vt 0.403444 0.570425
vt 0.403444 0.605065
vt 0.398248 0.601601
vt 0.109002 0.553105
vt 0.105538 0.558301
vt 0.386124 0.823086
vt 0.403444 0.852768
vt 0.403444 0.823086
vt 0.109002 0.597925
vt 0.380872 0.545965
vt 0.341506 0.692880
vt 0.101862 0.605065
vt 0.309703 0.605065
vt 0.317431 0.716955
vt 0.359056 0.561765
vt 0.361378 0.553105
vt 0.327024 0.553105
vt 0.049902 0.876935
vt 0.049902 0.899507
vt 0.032582 0.882187
vt 0.230243 0.828638
vt 0.220892 0.813494
vt 0.081123 0.868594
vt 0.081536 0.528645
vt 0.074362 0.545965
vt 0.073772 0.577776
vt 0.065702 0.561765
vt 0.057042 0.570425
vt 0.057042 0.882187
vt 0.074362 0.899507
vt 0.074362 0.875012
vt 0.057042 0.570425
vt 0.386124 0.577599
vt 0.403444 0.876935
vt 0.386124 0.882187
vt 0.074362 0.899507
vt 0.074362 0.553105
vt 0.081536 0.528645
vt 0.386124 0.553105
vt 0.372531 0.577185
vt 0.332575 0.726306
vt 0.386124 0.553105
vt 0.386124 0.577185
vt 0.403444 0.570425
vt 0.074362 0.553105
vt 0.196817 0.837569
vt 0.357035 0.882187
vt 0.073772 0.874836
vt 0.074362 0.823086
vt 0.378773 0.569835
vt 0.081536 0.570425
vt 0.105538 0.894311
vt 0.309703 0.899507
vt 0.275912 0.424815
vt 0.417088 0.458628
vt 0.057042 0.805766
vt 0.062238 0.851010
vt 0.074362 0.823086
vt 0.074362 0.857441
vt 0.109002 0.805766
vt 0.386124 0.857431
vt 0.351484 0.805766
vt 0.386124 0.580605
vt 0.062238 0.601601
vt 0.057042 0.805766
vt 0.417088 0.283639
vt 0.265855 0.424815
vt 0.309703 0.553105
vt 0.105538 0.558301
vt 0.084542 0.570425
vt 0.049902 0.570425
vt 0.101862 0.605065
vt 0.049902 0.882187
vt 0.101862 0.847546
vt 0.084542 0.882187
vt 0.327024 0.882187
vt 0.361368 0.882187
vt 0.327024 0.570425
vt 0.057042 0.580605
vt 0.398248 0.601601
vt 0.403444 0.805766
vt 0.417088 0.283639
vt 0.450901 0.424815
vt 0.354948 0.558301
vt 0.309703 0.553105
vt 0.109002 0.805766
vt 0.049902 0.570425
vt 0.084542 0.570425
vt 0.327024 0.570425
vt 0.356705 0.570425
vt 0.357035 0.701846
vt 0.386124 0.528645
vt 0.057042 0.882187
vt 0.403444 0.570425
vt 0.378950 0.528645
vt 0.205783 0.853098
vn 0.2588 0.9659 0.0000
vn -0.7071 0.0000 0.7071
vn 0.0000 0.9659 0.2588
vn 0.9659 0.2588 0.0000
vn 0.0000 -1.0000 -0.0000
vn -0.3590 0.8615 0.3590
vn -0.3147 0.8599 0.4019
vn -0.3370 0.8611 0.3806
vn -0.4286 0.8571 0.2857
vn -0.8320 -0.0000 0.5547
vn -0.4286 -0.8571 0.2857
vn -0.4019 -0.8599 0.3147
vn 0.0000 -0.0000 1.0000
vn -1.0000 -0.0000 0.0000
vn -0.5547 -0.0000 0.8320
vn -0.2857 -0.8571 0.4286
vn -0.3590 -0.8615 0.3590
vn -0.3806 -0.8611 0.3370
vn -0.2857 0.8571 0.4286
vn -0.0000 0.0000 -1.0000
vn -0.3590 0.8615 -0.3590
vn -0.4019 0.8599 -0.3147
vn -0.3806 0.8611 -0.3370
vn -0.2857 0.8571 -0.4286
vn -0.5547 0.0000 -0.8320
vn -0.2857 -0.8571 -0.4286
vn -0.3147 -0.8599 -0.4019
vn -0.7071 0.0000 -0.7071
vn -0.8320 0.0000 -0.5547
vn -0.4286 -0.8571 -0.2857
vn -0.3590 -0.8615 -0.3590
vn -0.3370 -0.8611 -0.3806
vn 0.0000 0.2588 0.9659
vn 0.0000 0.7071 0.7071
vn 0.7071 0.0000 -0.7071
vn 0.3590 -0.8616 -0.3590
vn 0.4019 -0.8599 -0.3147
vn 0.3806 -0.8611 -0.3370
vn 0.2857 -0.8571 -0.4286
vn 0.5547 0.0000 -0.8320
vn 1.0000 -0.0000 0.0000
vn 0.4286 0.8571 -0.2857
vn 0.8320 0.0000 -0.5547
vn 0.4286 -0.8571 -0.2857
vn 0.3590 0.8615 -0.3590
vn 0.3147 0.8599 -0.4019
vn 0.3370 0.8611 -0.3806
vn 0.2857 0.8571 -0.4286
vn -0.4286 0.8571 -0.2857
vn 0.6343 -0.4420 0.6343
vn 0.6017 0.3474 0.7193
vn 0.3506 0.6031 0.7165
vn 0.3463 0.6056 0.7164
vn 0.1846 0.6886 0.7013
vn 0.0000 -0.7071 0.7071
vn 0.6952 0.1824 0.6952
vn 0.6922 0.1791 0.6991
vn -0.3502 0.7561 -0.5528
vn -0.4562 0.7640 -0.4562
vn -0.3502 0.7561 -0.5529
vn -0.6175 0.7866 0.0000
vn -0.6172 0.7868 0.0000
vn -0.3503 0.7557 0.5533
vn -0.3503 0.7556 0.5535
vn -0.3502 0.7555 0.5536
vn -0.7071 -0.7071 -0.0000
vn 0.7071 -0.7071 -0.0000
vn -0.5000 -0.7071 0.5000
vn -0.5000 -0.7071 -0.5000
vn 0.0000 -0.7071 -0.7071
vn 0.5000 -0.7071 -0.5000
vn -0.5528 0.7561 -0.3502
vn 0.7165 0.6056 0.3463
vn 0.7013 0.6886 0.1846
vn 0.7165 0.6031 0.3506
vn 0.5534 0.7556 -0.3503
vn 0.5533 0.7557 -0.3503
vn 0.5536 0.7555 -0.3502
vn 0.0000 0.7868 -0.6172
vn 0.0000 0.7866 -0.6175
vn 0.7193 0.3474 0.6017
vn 0.6991 0.1791 0.6922
vn 0.7071 0.7071 0.0000
vn 0.1846 0.6886 0.7012
vn -0.3504 0.7559 0.5530
vn -0.5529 0.7561 -0.3502
vn 0.5530 0.7559 -0.3504
usemtl Color_M03
s 1
f 53/1/1 51/2/1 5/3/1
f 9/4/2 54/5/2 65/6/2
f 79/7/3 68/8/3 5/3/3
f 62/9/4 59/10/4 50/11/4
f 55/12/5 69/13/5 76/14/5
f 4/15/6 15/16/7 6/17/8
f 3/18/9 14/19/9 4/15/9
f 3/20/10 17/21/10 16/22/10
f 2/23/11 18/24/12 17/25/11
f 17/26/13 14/27/13 16/28/13
f 14/27/2 19/29/2 15/30/2
f 15/31/14 21/32/14 20/33/14
f 21/34/15 7/35/15 20/36/15
f 8/37/16 19/38/16 9/39/16
f 9/39/17 18/24/12 1/40/18
f 72/41/2 4/42/2 6/43/2
f 7/44/19 15/16/7 20/45/19
f 41/46/20 73/47/20 32/48/20
f 13/49/21 24/50/22 22/51/23
f 12/52/24 23/53/24 13/49/24
f 12/54/25 26/55/25 25/56/25
f 11/57/26 27/58/27 26/59/26
f 26/60/14 23/61/14 25/62/14
f 23/63/28 28/64/28 24/65/28
f 24/65/20 30/66/20 29/67/20
f 30/68/29 32/69/29 29/70/29
f 31/71/30 28/72/30 33/73/30
f 33/73/31 27/58/27 10/74/32
f 8/75/14 63/76/14 11/77/14
f 70/78/28 22/79/28 73/47/28
f 88/80/33 50/81/33 59/82/33
f 82/83/34 50/84/34 88/85/34
f 75/86/35 34/87/35 78/88/35
f 37/89/36 43/90/37 39/91/38
f 36/92/39 42/93/39 37/89/39
f 44/94/40 35/95/40 45/96/40
f 46/97/41 44/98/41 45/99/41
f 47/100/35 42/101/35 46/102/35
f 49/103/20 47/100/20 48/104/20
f 41/105/42 47/106/42 38/107/42
f 41/108/43 49/109/43 48/110/43
f 40/111/44 43/90/37 49/112/44
f 38/107/45 46/113/46 34/114/47
f 35/115/48 46/113/46 45/116/48
f 32/117/49 24/50/22 29/118/49
f 39/119/35 83/120/35 37/121/35
f 3/122/13 60/123/13 61/124/13
f 35/125/41 36/126/41 81/127/41
f 67/128/28 80/129/28 33/130/28
f 58/131/50 60/132/50 57/133/50
f 61/124/51 51/134/52 52/135/53
f 53/136/54 52/135/53 51/134/52
f 55/137/55 60/123/55 56/138/55
f 59/82/56 61/124/51 60/123/57
f 64/139/58 67/140/59 63/141/60
f 65/142/61 64/139/62 63/141/62
f 53/1/63 65/142/64 54/143/65
f 71/144/66 70/145/66 69/13/66
f 77/146/67 58/147/67 57/148/67
f 56/149/68 71/144/68 55/12/68
f 73/150/69 69/13/69 70/145/69
f 75/86/70 74/151/70 73/47/70
f 75/152/71 77/146/71 76/14/71
f 79/7/72 67/140/59 68/8/59
f 81/127/73 84/153/74 82/154/75
f 85/155/76 84/156/77 83/157/78
f 79/7/79 85/155/80 80/158/79
f 87/159/81 59/10/56 58/131/82
f 82/154/75 87/159/81 81/127/73
f 50/84/83 51/2/83 62/160/83
f 68/8/1 64/139/1 5/3/1
f 64/139/1 66/161/1 5/3/1
f 66/161/1 53/1/1 5/3/1
f 9/4/2 1/162/2 54/5/2
f 5/3/3 82/83/3 84/156/3
f 84/156/3 86/163/3 5/3/3
f 86/163/3 79/7/3 5/3/3
f 77/146/5 57/148/5 55/12/5
f 55/12/5 71/144/5 69/13/5
f 69/13/5 74/164/5 76/14/5
f 76/14/5 77/146/5 55/12/5
f 4/15/6 14/19/6 15/16/7
f 3/18/9 16/165/9 14/19/9
f 3/20/10 2/166/10 17/21/10
f 2/23/11 1/40/18 18/24/12
f 17/26/13 18/167/13 14/27/13
f 14/27/2 18/167/2 19/29/2
f 15/31/14 19/168/14 21/32/14
f 21/34/15 8/169/15 7/35/15
f 8/37/16 21/170/16 19/38/16
f 9/39/17 19/38/17 18/24/12
f 72/41/2 56/138/2 4/42/2
f 7/44/19 6/17/8 15/16/7
f 33/171/20 80/172/20 31/173/20
f 80/172/20 85/174/20 40/175/20
f 85/174/20 39/119/20 40/175/20
f 41/46/20 38/176/20 75/86/20
f 80/172/20 40/175/20 31/173/20
f 41/46/20 75/86/20 73/47/20
f 73/47/20 22/79/20 32/48/20
f 32/48/20 31/173/20 40/175/20
f 40/175/20 41/46/20 32/48/20
f 13/49/21 23/53/21 24/50/22
f 12/52/24 25/177/24 23/53/24
f 12/54/25 11/178/25 26/55/25
f 11/57/26 10/74/32 27/58/27
f 26/60/14 27/179/14 23/61/14
f 23/63/28 27/180/28 28/64/28
f 24/65/20 28/64/20 30/66/20
f 30/68/29 31/181/29 32/69/29
f 31/71/30 30/182/30 28/72/30
f 33/73/31 28/72/31 27/58/27
f 13/183/14 70/184/14 12/185/14
f 70/184/14 72/186/14 7/187/14
f 72/186/14 6/188/14 7/187/14
f 8/75/14 9/189/14 65/190/14
f 70/184/14 7/187/14 12/185/14
f 8/75/14 65/190/14 63/76/14
f 63/76/14 10/191/14 11/77/14
f 11/77/14 12/185/14 7/187/14
f 7/187/14 8/75/14 11/77/14
f 70/78/28 13/192/28 22/79/28
f 82/83/34 5/3/34 50/84/34
f 75/86/35 38/176/35 34/87/35
f 37/89/36 42/93/36 43/90/37
f 36/92/39 44/193/39 42/93/39
f 44/94/40 36/194/40 35/95/40
f 46/97/41 42/195/41 44/98/41
f 47/100/35 43/196/35 42/101/35
f 49/103/20 43/196/20 47/100/20
f 41/105/42 48/197/42 47/106/42
f 41/108/43 40/198/43 49/109/43
f 40/111/44 39/91/38 43/90/37
f 38/107/45 47/106/45 46/113/46
f 35/115/48 34/114/47 46/113/46
f 32/117/49 22/51/23 24/50/22
f 39/119/35 85/174/35 83/120/35
f 61/124/13 52/135/13 3/122/13
f 52/135/13 54/5/13 2/199/13
f 54/5/13 1/162/13 2/199/13
f 3/122/13 4/42/13 56/138/13
f 52/135/13 2/199/13 3/122/13
f 3/122/13 56/138/13 60/123/13
f 87/159/41 58/131/41 35/125/41
f 58/131/41 78/200/41 35/125/41
f 78/200/41 34/201/41 35/125/41
f 36/126/41 37/202/41 83/203/41
f 36/126/41 83/203/41 81/127/41
f 87/159/41 35/125/41 81/127/41
f 33/130/28 10/191/28 67/128/28
f 10/191/28 63/76/28 67/128/28
f 58/131/82 59/10/56 60/132/57
f 61/124/51 62/204/51 51/134/52
f 53/136/54 54/5/84 52/135/53
f 55/137/55 57/205/55 60/123/55
f 59/82/56 62/204/51 61/124/51
f 64/139/58 68/8/59 67/140/59
f 65/142/61 66/161/61 64/139/62
f 53/1/63 66/161/85 65/142/64
f 71/144/66 72/206/66 70/145/66
f 77/146/67 78/207/67 58/147/67
f 56/149/68 72/206/68 71/144/68
f 73/150/69 74/164/69 69/13/69
f 75/86/70 76/208/70 74/151/70
f 75/152/71 78/207/71 77/146/71
f 79/7/72 80/158/86 67/140/59
f 81/127/73 83/203/74 84/153/74
f 85/155/76 86/163/87 84/156/77
f 79/7/79 86/163/80 85/155/80
f 87/159/81 88/209/81 59/10/56
f 82/154/75 88/209/81 87/159/81
f 50/84/83 5/3/83 51/2/83
o DarkLightBasicBoi
v -0.600000 0.000000 0.000000
v -0.500000 0.130000 0.130000
v -0.500000 0.130000 -0.130000
v -0.500000 -0.130000 0.130000
v -0.500000 -0.130000 -0.130000
v -0.130000 0.130000 0.500000
v 0.000000 -0.000000 0.600000
v 0.130000 0.130000 0.500000
v -0.130000 -0.130000 0.500000
v 0.130000 -0.130000 0.500000
v 0.500000 0.130000 0.130000
v 0.600000 0.000000 0.000000
v 0.500000 0.130000 -0.130000
v 0.500000 -0.130000 0.130000
v 0.500000 -0.130000 -0.130000
v 0.130000 0.130000 -0.500000
v 0.000000 0.000000 -0.600000
v -0.130000 0.130000 -0.500000
v 0.130000 -0.130000 -0.500000
v -0.130000 -0.130000 -0.500000
v 0.130000 -0.500000 0.130000
v 0.000000 -0.600000 -0.000000
v 0.130000 -0.500000 -0.130000
v -0.130000 -0.500000 0.130000
v -0.130000 -0.500000 -0.130000
vt 0.906427 0.218611
vt 0.935980 0.248164
vt 0.935980 0.189058
vt 0.876873 0.248164
vt 0.876873 0.189058
vt 0.876873 0.248164
vt 0.906427 0.218611
vt 0.935980 0.248164
vt 0.876873 0.189058
vt 0.935980 0.189058
vt 0.935980 0.248164
vt 0.906427 0.218611
vt 0.935980 0.189058
vt 0.876873 0.248164
vt 0.876873 0.189058
vt 0.935980 0.248164
vt 0.906427 0.218611
vt 0.876873 0.248164
vt 0.935980 0.189058
vt 0.876873 0.189058
vt 0.935980 0.248164
vt 0.906427 0.218611
vt 0.935980 0.189058
vt 0.876873 0.248164
vt 0.876873 0.189058
vn -0.7926 0.6097 0.0000
vn -0.7926 -0.0000 0.6097
vn -0.7926 -0.6097 -0.0000
vn -0.7926 0.0000 -0.6097
vn 0.0000 0.6097 0.7926
vn -0.6097 -0.0000 0.7926
vn 0.0000 -0.6097 0.7926
vn 0.6097 -0.0000 0.7926
vn 0.7926 0.6097 0.0000
vn 0.7926 -0.0000 0.6097
vn 0.7926 -0.6097 -0.0000
vn 0.7926 0.0000 -0.6097
vn 0.0000 0.6097 -0.7926
vn 0.6097 0.0000 -0.7926
vn 0.0000 -0.6097 -0.7926
vn -0.6097 0.0000 -0.7926
vn 0.6097 -0.7926 0.0000
vn 0.0000 -0.7926 0.6097
vn -0.6097 -0.7926 0.0000
vn 0.0000 -0.7926 -0.6097
usemtl Color_M03.001
s 1
f 89/210/88 90/211/88 91/212/88
f 90/211/89 89/210/89 92/213/89
f 92/213/90 89/210/90 93/214/90
f 91/212/91 93/214/91 89/210/91
f 94/215/92 95/216/92 96/217/92
f 97/218/93 95/216/93 94/215/93
f 95/216/94 97/218/94 98/219/94
f 95/216/95 98/219/95 96/217/95
f 99/220/96 100/221/96 101/222/96
f 102/223/97 100/221/97 99/220/97
f 100/221/98 102/223/98 103/224/98
f 100/221/99 103/224/99 101/222/99
f 104/225/100 105/226/100 106/227/100
f 107/228/101 105/226/101 104/225/101
f 105/226/102 107/228/102 108/229/102
f 105/226/103 108/229/103 106/227/103
f 109/230/104 110/231/104 111/232/104
f 110/231/105 109/230/105 112/233/105
f 110/231/106 112/233/106 113/234/106
f 110/231/107 113/234/107 111/232/107
