# Blender v2.82 (sub 7) OBJ File: 'DL_CISlope1.blend'
# www.blender.org
mtllib DLCornerSmallInvertSlopeCollider.mtl
o SomeRandomInvertedSlope
v 0.000000 0.366025 0.450000
v -0.026994 0.322309 0.500000
v -0.430484 0.481373 0.450000
v -0.450000 0.435686 0.500000
v -0.429289 -0.500000 0.450000
v -0.450000 -0.450000 0.500000
v 0.450000 -0.500000 0.450000
v 0.500000 -0.450000 0.434839
v 0.434839 -0.450000 0.500000
v 0.321197 -0.025882 0.500000
v -0.500000 0.449174 -0.450000
v -0.451704 0.487059 -0.428780
v -0.500000 0.449146 0.450000
v -0.451704 0.487059 0.428780
v -0.450000 -0.500000 -0.429289
v -0.500000 -0.450000 -0.450000
v -0.450000 -0.500000 0.429289
v -0.500000 -0.450000 0.450000
v -0.450000 -0.450000 -0.500000
v -0.429289 -0.500000 -0.450000
v 0.450000 -0.450000 -0.500000
v 0.429289 -0.500000 -0.450000
v 0.450000 -0.500000 -0.429289
v 0.500000 -0.450000 -0.450000
v -0.428780 0.487059 -0.451704
v -0.450000 0.449174 -0.500000
v 0.500000 0.322309 -0.026994
v 0.450000 0.366025 0.000000
v 0.500000 0.435686 -0.450000
v 0.450000 0.481373 -0.430483
v 0.450000 0.449146 -0.500000
v 0.428780 0.487060 -0.451704
v 0.500000 -0.025882 0.321196
v 0.450000 0.000000 0.366025
vt 0.049902 0.876935
vt 0.049902 0.899507
vt 0.032582 0.882187
vt 0.081536 0.882187
vt 0.074362 0.875012
vt 0.074362 0.577599
vt 0.081536 0.570425
vt 0.378950 0.570425
vt 0.386124 0.577599
vt 0.386124 0.882187
vt 0.403444 0.570425
vt 0.403444 0.876935
vt 0.386124 0.553105
vt 0.378773 0.569835
vt 0.386124 0.577185
vt 0.403444 0.570425
vt 0.332575 0.726306
vt 0.205783 0.853098
vt 0.196817 0.837569
vt 0.317431 0.716955
vt 0.081123 0.882187
vt 0.073772 0.874836
vt 0.057042 0.882187
vt 0.074362 0.899507
vt 0.386124 0.545965
vt 0.378950 0.528645
vt 0.081536 0.528645
vt 0.074362 0.545965
vt 0.000000 0.000000
vt 0.372531 0.577185
vt 0.230243 0.882187
vt 0.341506 0.692880
vt 0.386124 0.701846
vt 0.386124 0.726306
vt 0.230243 0.828638
vt 0.220892 0.813494
vt 0.074362 0.852768
vt 0.000000 0.000000
vt 0.380872 0.545965
vt 0.074362 0.553105
vt 0.049902 0.570425
vt 0.057042 0.570425
vt 0.081713 0.569835
vt 0.057042 0.857431
vt 0.000000 0.000000
vt 0.057042 0.570425
vt 0.073772 0.577776
vt 0.000000 0.000000
vt 0.000000 0.000000
vt 0.081536 0.528645
vt 0.386124 0.528645
vt 0.074362 0.545965
vt 0.049902 0.570425
vt 0.356705 0.570425
vt 0.074362 0.899507
vt 0.057042 0.882187
vt 0.386124 0.553105
vn 0.6343 -0.4420 0.6343
vn 0.0000 -1.0000 -0.0000
vn 0.7071 -0.7071 -0.0000
vn 0.5534 0.7556 -0.3503
vn 0.7165 0.6031 0.3506
vn 0.6657 0.3971 0.6318
vn 0.7135 0.3482 0.6081
vn 0.7164 0.6057 0.3463
vn -0.3503 0.7556 0.5534
vn 0.0000 -0.7071 -0.7071
vn 0.2506 0.9351 0.2506
vn 0.1730 0.9696 0.1730
vn 0.6359 0.4057 0.6566
vn 0.5665 0.5623 0.6024
vn 0.4381 0.6200 0.6509
vn 0.3815 0.6400 0.6669
vn 0.0000 -0.0000 1.0000
vn 0.6950 0.1842 0.6950
vn -0.7071 0.0000 -0.7071
vn -0.2201 0.8121 -0.5404
vn 0.0000 0.7867 -0.6173
vn -0.2250 0.8122 -0.5383
vn -0.7071 -0.0000 0.7071
vn -0.5000 -0.7071 -0.5000
vn -0.6173 0.7867 0.0000
vn -0.5404 0.8121 -0.2201
vn -0.5383 0.8122 -0.2250
vn 0.1845 0.6885 0.7014
vn 0.7071 0.0000 -0.7071
vn 0.0000 -0.7071 0.7071
vn 0.0881 0.9922 0.0881
vn -0.0000 1.0000 -0.0000
vn 1.0000 0.0000 0.0000
vn -0.5000 -0.7071 0.5000
vn 0.0000 0.0000 -1.0000
vn -0.7071 -0.7071 -0.0000
vn 0.5000 -0.7071 -0.5000
vn 0.7014 0.6885 0.1845
vn -1.0000 0.0000 0.0000
usemtl Color_M03
s 1
f 8/1/1 9/2/1 7/3/1
f 5/4/2 17/5/2 15/6/2 20/7/2 22/8/2 23/9/2 7/10/2
f 23/9/3 24/11/3 8/12/3 7/10/3
f 31/13/4 32/14/4 30/15/4 29/16/4
f 28/17/5 34/18/6 33/19/7 27/20/8
f 3/21/9 14/22/9 13/23/9 4/24/9
f 21/25/10 22/26/10 20/27/10 19/28/10
f 28/29/11 30/30/12 3/21/12 1/31/11
f 10/32/13 34/33/6 28/34/14 1/35/15 2/36/16
f 4/37/17 6/38/17 9/39/17 10/32/17 2/36/17
f 33/19/7 34/33/6 10/32/13 9/2/18 8/1/18
f 26/40/19 19/28/19 16/41/19 11/42/19
f 25/43/20 32/14/21 31/13/21 26/40/22
f 13/44/23 18/45/23 6/38/23 4/37/23
f 16/46/24 19/28/24 20/7/24 15/6/24
f 14/22/25 12/47/26 11/42/27 13/23/25
f 1/31/15 3/21/28 4/37/28 2/36/16
f 25/48/20 26/40/22 11/42/27 12/47/26
f 24/49/29 21/25/29 31/13/29 29/16/29
f 5/50/30 7/51/30 9/39/30 6/52/30
f 14/22/31 32/14/31 25/48/32 12/47/32
f 8/1/33 24/53/33 29/54/33 27/20/33 33/19/33
f 6/55/34 18/56/34 17/5/34 5/4/34
f 21/25/35 19/28/35 26/40/35 31/13/35
f 18/56/36 16/41/36 15/6/36 17/5/36
f 22/8/37 21/57/37 24/11/37 23/9/37
f 30/15/12 32/14/31 14/22/31 3/21/12
f 28/17/5 27/20/8 29/16/38 30/15/38
f 11/42/39 16/41/39 18/45/39 13/23/39
