# Blender v2.80 (sub 75) OBJ File: ''
# www.blender.org
mtllib YK_Tip_Block.mtl
o BF_Block_111.006
v 0.203876 0.280503 0.204378
v 0.133165 0.364289 0.133668
v 0.133165 -0.364289 0.133668
v 0.203876 -0.280503 0.204378
v 0.500502 -0.424888 -0.326408
v 0.497352 -0.244289 -0.230564
v 0.412957 -0.364289 -0.146155
v 0.424823 -0.500568 -0.326408
v 0.412957 0.364289 -0.146155
v 0.497352 0.244927 -0.230564
v 0.497352 -0.244927 -0.230564
v 0.421614 0.280503 -0.013382
v 0.421614 -0.280503 -0.013382
v 0.486599 -0.188594 -0.078377
v 0.486599 0.188594 -0.078377
v 0.500502 0.424888 -0.326408
v 0.424822 0.501271 -0.326275
v 0.497352 0.244289 -0.230564
v 0.132023 -0.132023 -0.500001
v 0.132023 0.132023 -0.500001
v 0.325641 -0.424888 -0.501838
v 0.325641 0.424888 -0.501838
v 0.424755 0.325774 -0.502052
v 0.424755 -0.325774 -0.502052
v 0.325708 -0.500568 -0.425522
v 0.500502 0.325774 -0.425522
v 0.500502 -0.325774 -0.425522
v 0.325708 0.501484 -0.425389
v 0.477481 -0.244289 -0.210594
v 0.477481 0.244289 -0.210594
v 0.477481 -0.244927 -0.210594
v 0.477481 0.244927 -0.210594
v -0.203876 0.280503 0.204378
v -0.133165 0.364289 0.133668
v -0.133165 -0.364289 0.133668
v -0.203876 -0.280503 0.204378
v -0.500502 -0.424888 -0.326408
v -0.497352 -0.244289 -0.230564
v -0.412957 -0.364289 -0.146155
v -0.424823 -0.500568 -0.326408
v -0.412957 0.364289 -0.146155
v -0.497352 0.244927 -0.230564
v -0.497352 -0.244927 -0.230564
v -0.421614 0.280503 -0.013382
v -0.421614 -0.280503 -0.013382
v -0.486599 -0.188594 -0.078377
v -0.486599 0.188594 -0.078377
v -0.500502 0.424888 -0.326408
v -0.424822 0.501271 -0.326275
v -0.497352 0.244289 -0.230564
v 0.000000 0.000000 -0.600002
v -0.132023 -0.132023 -0.500001
v -0.132023 0.132023 -0.500001
v -0.325641 -0.424888 -0.501838
v -0.325641 0.424888 -0.501838
v -0.424755 0.325774 -0.502052
v -0.424755 -0.325774 -0.502052
v -0.325708 -0.500568 -0.425522
v -0.500502 0.325774 -0.425522
v -0.500502 -0.325774 -0.425522
v -0.325708 0.501484 -0.425389
v -0.477481 -0.244289 -0.210594
v -0.477481 0.244289 -0.210594
v -0.477481 -0.244927 -0.210594
v -0.477481 0.244927 -0.210594
v -0.000000 0.132023 -0.500001
v -0.000000 0.424888 -0.501136
v 0.000000 -0.500568 -0.425522
v 0.000000 -0.132023 -0.500001
v 0.000000 -0.424888 -0.501136
v -0.000000 0.501484 -0.425389
v 0.085141 -0.280503 0.323094
v -0.085141 -0.280503 0.323094
v 0.048967 -0.500568 0.049447
v -0.048967 -0.500568 0.049447
v 0.000000 -0.500568 -0.005282
v -0.085141 0.280503 0.323094
v 0.085140 0.280503 0.323094
v -0.085600 0.364289 0.181225
v 0.085600 0.364289 0.181225
v -0.049033 0.500460 0.049513
v 0.049033 0.500460 0.049513
v -0.000000 0.500748 -0.005150
v 0.085601 -0.364289 0.181224
v -0.085601 -0.364289 0.181224
vt 0.631776 0.584488
vt 0.631665 0.605332
vt 0.648562 0.593021
vt 0.648562 0.584086
vt 0.160479 0.218479
vt 0.190525 0.218479
vt 0.160479 0.200319
vt 0.144233 0.202232
vt 0.303694 0.455827
vt 0.303694 0.555167
vt 0.484678 0.555167
vt 0.484678 0.455827
vt 0.455028 0.426177
vt 0.333345 0.426177
vt 0.630630 0.654725
vt 0.620347 0.634712
vt 0.572110 0.634428
vt 0.562311 0.655068
vt 0.560590 0.622242
vt 0.543870 0.636832
vt 0.648562 0.636650
vt 0.631573 0.622716
vt 0.561017 0.583941
vt 0.544199 0.584131
vt 0.342905 0.218479
vt 0.359303 0.202232
vt 0.342905 0.200327
vt 0.312859 0.218479
vt 0.631776 0.584488
vt 0.648562 0.584086
vt 0.303694 0.501000
vt 0.303694 0.555167
vt 0.484678 0.555167
vt 0.484678 0.501000
vt 0.560784 0.604825
vt 0.544143 0.593089
vt 0.160479 0.218479
vt 0.144233 0.202232
vt 0.160479 0.200319
vt 0.190525 0.218479
vt 0.303694 0.455827
vt 0.333345 0.426177
vt 0.455028 0.426177
vt 0.484678 0.455827
vt 0.630630 0.654725
vt 0.562311 0.655068
vt 0.572110 0.634428
vt 0.620347 0.634712
vt 0.543870 0.636832
vt 0.560590 0.622242
vt 0.648562 0.636650
vt 0.631573 0.622716
vt 0.544199 0.584131
vt 0.561017 0.583941
vt 0.342905 0.218479
vt 0.312859 0.218479
vt 0.342905 0.200327
vt 0.359303 0.202232
vt 0.648562 0.593021
vt 0.631665 0.605332
vt 0.560784 0.604825
vt 0.544143 0.593089
vt 0.484678 0.501000
vt 0.303694 0.501000
vt 0.428303 0.304254
vt 0.497415 0.373367
vt 0.497415 0.304254
vt 0.359190 0.373367
vt 0.160479 0.128726
vt 0.144233 0.121545
vt 0.160479 0.140895
vt 0.310239 0.191054
vt 0.310099 0.126181
vt 0.310099 0.126181
vt 0.310239 0.191054
vt 0.310282 0.210799
vt 0.310282 0.210799
vt 0.295009 0.126181
vt 0.295009 0.191067
vt 0.359129 0.121559
vt 0.346457 0.130916
vt 0.295036 0.191067
vt 0.295036 0.126181
vt 0.321628 0.218479
vt 0.181757 0.218479
vt 0.359349 0.180955
vt 0.321628 0.202218
vt 0.342905 0.180940
vt 0.144233 0.180955
vt 0.160479 0.180940
vt 0.181757 0.202218
vt 0.359129 0.121559
vt 0.342905 0.128935
vt 0.160479 0.128726
vt 0.144233 0.121545
vt 0.359190 0.304254
vt 0.342905 0.128935
vt 0.342905 0.141071
vt 0.295009 0.191067
vt 0.295036 0.191067
vt 0.219650 0.116090
vt 0.159159 0.128897
vt 0.342905 0.141071
vt 0.497415 0.373367
vt 0.359190 0.373367
vt 0.310239 0.191054
vt 0.310282 0.210799
vt 0.310282 0.210799
vt 0.310239 0.191054
vt 0.321628 0.218479
vt 0.181757 0.218479
vt 0.359349 0.180955
vt 0.342905 0.180940
vt 0.321628 0.202218
vt 0.181757 0.202218
vt 0.160479 0.180940
vt 0.144233 0.180955
vt 0.160479 0.140895
vt 0.140143 0.130022
vt 0.363239 0.130003
vn -0.4541 0.7665 0.4542
vn 0.7616 -0.4048 0.5060
vn 0.7071 0.0000 0.7071
vn 0.9975 0.0000 0.0705
vn 0.8637 -0.4498 0.2275
vn 0.8637 0.4498 0.2275
vn 0.4541 -0.7665 0.4541
vn 0.7623 0.4036 0.5059
vn 0.4541 0.7665 0.4541
vn -0.7071 -0.0000 0.7072
vn 0.4541 -0.7665 0.4542
vn -0.7616 -0.4048 0.5060
vn -0.7071 -0.0000 0.7071
vn -0.9975 -0.0000 0.0705
vn -0.8637 -0.4498 0.2275
vn -0.8637 0.4498 0.2275
vn -0.4541 -0.7665 0.4541
vn -0.7623 0.4036 0.5059
vn -0.4541 0.7665 0.4541
vn 0.4541 0.7665 0.4542
vn -0.4541 -0.7665 0.4542
vn -0.0000 0.8610 0.5085
vn 0.0000 -0.8610 0.5085
vn 0.0000 -0.0000 1.0000
vn 0.7071 0.0000 0.7072
vn -0.0000 -0.6038 -0.7971
vn 0.6038 0.0000 -0.7971
vn -0.5324 -0.6580 0.5325
vn -0.0022 -0.0000 -1.0000
vn 0.0000 0.0000 -1.0000
vn -0.0000 1.0000 0.0021
vn -0.0003 1.0000 0.0021
vn -0.0002 1.0000 0.0032
vn -0.0000 1.0000 0.0029
vn -0.0008 -0.7084 -0.7058
vn 0.0000 -0.7084 -0.7058
vn 0.9999 0.0000 0.0152
vn 0.5789 0.5767 -0.5765
vn 0.5780 -0.5782 -0.5758
vn 0.7107 0.0000 -0.7035
vn 0.5327 0.6570 0.5335
vn 0.5325 -0.6580 0.5325
vn 0.0000 0.6038 -0.7971
vn -0.5324 0.6580 0.5325
vn -0.0000 0.7048 -0.7094
vn -0.0008 0.7048 -0.7094
vn 0.0000 -1.0000 0.0000
vn 0.5324 0.6580 0.5325
vn -0.6038 -0.0000 -0.7971
vn 0.0022 0.0000 -1.0000
vn 0.0008 -0.7084 -0.7058
vn -0.9999 -0.0000 0.0152
vn -0.5789 0.5767 -0.5765
vn -0.5780 -0.5782 -0.5758
vn -0.7107 -0.0000 -0.7035
vn -0.5327 0.6570 0.5335
vn -0.5325 -0.6580 0.5325
vn 0.0002 1.0000 0.0032
vn 0.0003 1.0000 0.0021
vn 0.0008 0.7048 -0.7094
vn 0.5324 -0.6580 0.5325
vn 0.0000 -0.6951 0.7189
vn -0.0000 0.6952 0.7188
usemtl Default_OBJ.000
s off
f 33/1/1 77/2/1 79/3/1 34/4/1
f 5/5/2 6/6/2 7/7/2 8/8/2
f 12/9/3 1/10/3 4/11/3 13/12/3 14/13/3 15/14/3
f 10/15/4 15/16/4 14/17/4 11/18/4
f 11/18/5 14/17/5 13/19/5 7/20/5
f 9/21/6 12/22/6 15/16/6 10/15/6
f 7/20/7 13/19/7 4/23/7 3/24/7
f 16/25/8 17/26/8 9/27/8 18/28/8
f 1/29/9 12/22/9 9/21/9 2/30/9
f 77/31/10 33/32/10 36/33/10 73/34/10
f 72/35/11 84/36/11 3/24/11 4/23/11
f 37/37/12 40/38/12 39/39/12 38/40/12
f 44/41/13 47/42/13 46/43/13 45/44/13 36/33/13 33/32/13
f 42/45/14 43/46/14 46/47/14 47/48/14
f 43/46/15 39/49/15 45/50/15 46/47/15
f 41/51/16 42/45/16 47/48/16 44/52/16
f 39/49/17 35/53/17 36/54/17 45/50/17
f 48/55/18 50/56/18 41/57/18 49/58/18
f 33/1/19 34/4/19 41/51/19 44/52/19
f 1/29/20 2/30/20 80/59/20 78/60/20
f 73/61/21 36/54/21 35/53/21 85/62/21
f 79/3/22 77/2/22 78/60/22 80/59/22
f 84/36/23 72/35/23 73/61/23 85/62/23
f 77/31/24 73/34/24 72/63/24 78/64/24
f 78/64/25 72/63/25 4/11/25 1/10/25
s 1
f 51/65/26 19/66/26 69/67/26
f 19/66/27 51/65/27 20/68/27
f 35/69/28 75/70/28 85/71/28
f 21/72/29 70/73/30 67/74/30 22/75/29 23/76/29 24/77/29
f 71/78/31 61/79/32 49/58/32 81/80/33 83/81/34
f 21/72/35 25/82/35 68/83/36 70/73/36
f 26/84/37 16/25/37 18/28/37 6/6/37 5/5/37 27/85/37
f 28/86/38 17/26/38 16/25/38 26/84/38 23/87/38 22/88/38
f 8/8/39 25/89/39 21/90/39 24/91/39 27/85/39 5/5/39
f 26/84/40 27/85/40 24/91/40 23/87/40
f 9/27/41 17/26/41 82/92/41 2/93/41
f 3/94/42 74/95/42 8/8/42 7/7/42
f 66/96/43 20/68/43 51/65/43
f 81/80/44 34/97/44 79/98/44
f 67/74/45 71/78/45 28/99/46 22/75/46
f 75/70/47 40/38/47 58/100/47 68/101/47 76/102/47
f 82/92/48 80/103/48 2/93/48
f 51/65/26 69/67/26 52/104/26
f 52/104/49 53/105/49 51/65/49
f 54/106/50 57/107/50 56/108/50 55/109/50 67/74/30 70/73/30
f 54/106/51 70/73/36 68/83/36 58/100/51
f 59/110/52 60/111/52 37/37/52 38/40/52 50/56/52 48/55/52
f 61/112/53 55/113/53 56/114/53 59/110/53 48/55/53 49/58/53
f 40/38/54 37/37/54 60/111/54 57/115/54 54/116/54 58/117/54
f 59/110/55 56/114/55 57/115/55 60/111/55
f 41/57/56 34/97/56 81/80/56 49/58/56
f 35/69/57 39/39/57 40/38/57 75/70/57
f 66/96/43 51/65/43 53/105/43
f 71/78/31 83/81/34 82/92/58 17/26/59 28/99/59
f 67/74/45 55/109/60 61/79/60 71/78/45
f 74/95/47 76/102/47 68/101/47 25/82/47 8/8/47
f 3/94/61 84/118/61 74/95/61
f 74/95/47 75/119/47 76/102/47
f 81/80/33 82/120/58 83/81/34
f 74/95/62 84/118/62 85/71/62 75/70/62
f 81/80/63 79/98/63 80/103/63 82/92/63
l 31 32
l 29 30
l 64 65
l 62 63
