# This file uses centimeters as units for non-parametric coordinates.

g default
v 1.000000 0.705675 -1.000000
v 1.000000 0.000000 -1.000000
v 0.528650 0.893545 -0.812131
v 1.000000 0.000000 1.000000
v 0.528650 0.947566 -0.866152
v 0.528650 1.699042 -0.114675
v 0.528650 1.645022 -0.060654
v 0.441045 1.645022 0.342057
v 1.000000 1.645022 -0.060654
v 1.000000 0.987079 1.000000
v 0.441045 1.488771 1.078979
v 0.441045 1.978957 0.588793
v 1.000000 1.645022 0.342057
v 0.441045 1.198435 0.788643
v 0.441045 1.645022 0.254857
v -1.000000 0.705675 -1.000000
v -1.000000 0.000000 -1.000000
v -0.528650 0.893545 -0.812131
v -1.000000 0.000000 1.000000
v -0.528650 0.947566 -0.866152
v -0.528650 1.699042 -0.114675
v -0.528650 1.645022 -0.060654
v -0.441045 1.645022 0.342057
v -1.000000 1.645022 -0.060654
v -1.000000 0.987079 1.000000
v -0.441045 1.488771 1.078979
v -0.441045 1.978957 0.588793
v -1.000000 1.645022 0.342057
v -0.441045 1.198435 0.788643
v -0.441045 1.645022 0.254857
vt 0.608869 0.625681
vt 0.622079 0.748506
vt 0.265156 0.295361
vt 1.358818 -1.810613
vt 0.622761 0.999749
vt 0.530313 0.590721
vt 0.530313 0.382582
vt 0.530313 0.382582
vt 0.528945 0.332243
vt 0.623292 0.000004
vt 0.625000 0.382582
vt 0.625000 0.150010
vt 0.625000 0.250000
vt 0.625000 0.500000
vt 0.625000 0.332243
vt 0.625000 0.086466
vt 0.874996 0.000004
vt 0.874997 0.107244
vt 0.757582 0.250000
vt 0.707243 0.250000
vt 0.528945 0.208550
vt 0.875000 0.061908
vt 0.875000 0.250000
vt 0.852763 0.086466
vt 0.625000 0.688092
vt 0.532127 0.343143
vt 0.265156 0.295361
vt 1.358818 -1.810613
vt 0.622079 0.748506
vt 0.622761 0.999749
vt 0.530313 0.590721
vt 0.530313 0.382582
vt 0.530313 0.382582
vt 0.623292 0.000004
vt 0.625000 0.150010
vt 0.608869 0.625681
vt 0.625000 0.382582
vt 0.532127 0.343143
vt 0.625000 0.250000
vt 0.625000 0.500000
vt 0.528945 0.208550
vt 0.625000 0.332243
vt 0.528945 0.332243
vt 0.625000 0.086466
vt 0.874996 0.000004
vt 0.874997 0.107244
vt 0.757582 0.250000
vt 0.707243 0.250000
vt 0.852763 0.086466
vt 0.875000 0.250000
vt 0.625000 0.688092
vt 0.875000 0.061908
vn 0.000000 0.707107 -0.707107
vn 0.000000 0.707107 -0.707107
vn 0.000000 0.707107 -0.707107
vn 0.000000 0.707107 -0.707107
vn 0.000000 -1.000000 0.000000
vn 0.000000 -1.000000 0.000000
vn 0.000000 -1.000000 0.000000
vn 0.000000 -1.000000 0.000000
vn 0.000000 -0.707106 -0.707108
vn 0.000000 -0.707106 -0.707108
vn 0.000000 -0.707106 -0.707108
vn 0.000000 -0.707106 -0.707108
vn 1.000000 0.000000 0.000000
vn 1.000000 0.000000 0.000000
vn 1.000000 0.000000 0.000000
vn 1.000000 0.000000 0.000000
vn 0.000000 0.707107 -0.707107
vn 0.000000 0.707107 -0.707107
vn 0.000000 0.707107 -0.707107
vn 0.000000 0.707107 -0.707107
vn 0.000000 0.707107 0.707107
vn 0.000000 0.707107 0.707107
vn 0.000000 0.707107 0.707107
vn 0.000000 0.707107 0.707107
vn 0.000000 0.707107 0.707107
vn 0.000000 0.707107 0.707107
vn 0.000000 0.707107 0.707107
vn 0.000000 0.707107 0.707107
vn 0.000000 -0.707107 0.707107
vn 0.000000 -0.707107 0.707107
vn 0.000000 -0.707107 0.707107
vn 0.000000 -0.707107 0.707107
vn 1.000000 0.000000 0.000000
vn 1.000000 0.000000 0.000000
vn 1.000000 0.000000 0.000000
vn 1.000000 0.000000 0.000000
vn 1.000000 0.000000 0.000000
vn 1.000000 0.000000 0.000000
vn 1.000000 -0.000000 0.000000
vn 1.000000 -0.000000 0.000000
vn 1.000000 -0.000000 0.000000
vn 1.000000 -0.000000 0.000000
vn 0.000000 0.707107 -0.707107
vn 0.000000 0.707107 -0.707107
vn 0.000000 0.707107 -0.707107
vn 0.000000 0.707107 -0.707107
vn 0.000000 0.000000 -1.000000
vn 0.000000 0.000000 -1.000000
vn 0.000000 0.000000 -1.000000
vn 0.000000 0.000000 -1.000000
vn 1.000000 -0.000001 0.000000
vn 1.000000 -0.000001 0.000000
vn 1.000000 -0.000001 0.000000
vn 0.000000 1.000000 0.000000
vn 0.000000 1.000000 0.000000
vn 0.000000 1.000000 0.000000
vn 0.000000 1.000000 0.000000
vn 0.000000 1.000000 0.000000
vn 0.000000 1.000000 0.000000
vn 0.000000 1.000000 0.000000
vn 0.000000 0.707107 -0.707107
vn 0.000000 0.707107 -0.707107
vn 0.000000 0.707107 -0.707107
vn 0.000000 0.707107 -0.707107
vn -1.000000 0.000000 0.000000
vn -1.000000 0.000000 0.000000
vn -1.000000 0.000000 0.000000
vn -1.000000 0.000000 0.000000
vn 0.000000 0.000000 1.000000
vn 0.000000 0.000000 1.000000
vn 0.000000 0.000000 1.000000
vn 0.000000 0.000000 1.000000
vn 0.000000 0.707108 0.707105
vn 0.000000 0.707108 0.707105
vn 0.000000 0.707108 0.707105
vn 0.000000 0.707108 0.707105
vn 0.000000 0.707107 -0.707107
vn 0.000000 0.707107 -0.707107
vn 0.000000 0.707107 -0.707107
vn 0.000000 0.707107 -0.707107
vn 0.000000 1.000000 0.000000
vn 0.000000 1.000000 0.000000
vn 0.000000 1.000000 0.000000
vn 0.000000 1.000000 0.000000
vn 0.000000 0.707107 0.707107
vn 0.000000 0.707107 0.707107
vn 0.000000 0.707107 0.707107
vn 0.000000 0.707107 0.707107
vn -1.000000 0.000000 0.000000
vn -1.000000 0.000000 0.000000
vn -1.000000 0.000000 0.000000
vn -1.000000 0.000000 0.000000
vn -1.000000 0.000000 0.000000
vn -1.000000 0.000000 0.000000
vn -1.000000 -0.000000 0.000000
vn -1.000000 -0.000000 0.000000
vn -1.000000 -0.000000 0.000000
vn -1.000000 -0.000000 0.000000
vn 0.000000 0.707107 0.707107
vn 0.000000 0.707107 0.707107
vn 0.000000 0.707107 0.707107
vn 0.000000 0.707107 0.707107
vn -1.000000 0.000000 0.000000
vn -1.000000 0.000000 0.000000
vn -1.000000 0.000000 0.000000
vn 0.000000 1.000000 -0.000000
vn 0.000000 1.000000 -0.000000
vn 0.000000 1.000000 -0.000000
vn 0.000000 1.000000 0.000000
vn 0.000000 1.000000 0.000000
vn 0.000000 1.000000 0.000000
vn 0.000000 1.000000 0.000000
s off
g col_body
f 3/3/1 1/4/2 16/28/3 18/27/4
f 2/2/5 4/5/6 19/30/7 17/29/8
f 5/6/9 3/3/10 18/27/11 20/31/12
f 7/8/13 3/3/14 5/6/15 6/7/16
f 1/1/17 3/3/18 7/8/19 9/11/20
f 11/13/21 12/14/22 27/40/23 26/39/24
f 14/21/25 10/12/26 13/15/27 8/9/28
f 14/16/29 11/13/30 26/39/31 29/44/32
f 4/10/33 2/17/34 1/18/35 9/19/36 13/20/37 10/12/38
f 8/24/39 12/23/40 11/13/41 14/16/42
f 12/14/43 15/25/44 30/51/45 27/40/46
f 16/36/47 1/1/48 2/2/49 17/29/50
f 15/22/51 12/23/52 8/24/53
f 7/8/54 15/26/55 9/11/56
f 9/11/57 15/26/58 8/9/59 13/15/60
f 5/6/61 20/31/62 21/32/63 6/7/64
f 22/33/65 21/32/66 20/31/67 18/27/68
f 10/12/69 25/35/70 19/34/71 4/10/72
f 6/7/73 21/32/74 22/33/75 7/8/76
f 16/36/77 24/37/78 22/33/79 18/27/80
f 7/8/81 22/33/82 30/38/83 15/26/84
f 29/41/85 23/43/86 28/42/87 25/35/88
f 19/34/89 25/35/90 28/48/91 24/47/92 16/46/93 17/45/94
f 23/49/95 29/44/96 26/39/97 27/50/98
f 14/21/99 29/41/100 25/35/101 10/12/102
f 30/52/103 23/49/104 27/50/105
f 22/33/106 24/37/107 30/38/108
f 24/37/109 28/42/110 23/43/111 30/38/112
