# Blender v2.82 (sub 7) OBJ File: ''
# www.blender.org
mtllib HE_Three_Block_Collider.mtl
o Collider_HE_Block_112.001
v 0.500001 0.260000 0.500004
v 0.620002 0.500000 0.380005
v 0.500001 0.500000 0.260002
v 0.380001 0.500000 0.380005
v 0.380001 0.380000 0.500004
v 0.620002 0.380000 0.500004
v -0.620003 0.500001 -0.379997
v -1.500005 -0.380000 0.380005
v -1.500005 -0.380000 -0.379997
v -1.380004 -0.500000 0.380005
v -1.380004 -0.380000 0.500004
v -1.380004 -0.500000 -0.379997
v -1.380004 -0.380000 -0.499996
v -1.500005 0.380000 0.380005
v -1.380004 0.380000 0.500004
v -1.380004 0.500000 0.380005
v -1.380004 0.380000 -0.499996
v -1.500005 0.380000 -0.379997
v -0.380001 0.380000 0.500004
v -0.620001 0.380000 0.500004
v -0.620002 -0.380000 0.500004
v -0.620002 0.500000 0.380005
v -0.500001 0.500000 0.260002
v -0.380001 0.500000 0.380005
v -0.500001 0.260000 0.500004
v -0.380001 -0.500000 0.380005
v -0.380002 -0.380000 0.500004
v -0.620002 -0.500000 0.380005
v -0.500002 -0.260000 0.500004
v -0.380002 0.500001 -0.379997
v -0.620003 0.380000 -0.499996
v -1.380004 0.500001 -0.379997
v -0.380002 0.380000 -0.499996
v -0.500002 0.260000 -0.499996
v -0.500002 0.500000 -0.259994
v -0.620002 -0.380000 -0.499996
v -0.500002 -0.500000 -0.259995
v -0.380001 -0.380000 -0.499996
v -0.380001 -0.500000 -0.379997
v -0.500001 -0.260000 -0.499996
v -0.620002 -0.500000 -0.379997
v -0.500002 -0.500000 0.260002
v 0.000000 0.500000 0.000004
v 0.000000 0.380000 0.500004
v 0.000000 0.440000 0.440004
v 0.000000 0.500000 0.380005
v 0.000000 0.000000 0.500004
v 0.000000 -0.440000 0.440004
v 0.000000 0.500001 -0.379997
v 0.000000 0.440000 -0.439997
v 0.000000 0.000000 -0.499996
v 0.000000 -0.440000 -0.439997
v 0.000000 -0.380000 -0.499996
v 0.000000 -0.500000 0.000004
v 0.000000 -0.500000 0.380005
v 0.000000 -0.500000 -0.379997
v -1.000000 0.500000 0.380005
v -1.000000 0.500000 0.000007
v -1.000000 0.500001 -0.379997
v -1.000000 0.440000 0.440005
v -1.000000 -0.000003 0.500004
v -1.000000 0.380000 0.500004
v -1.000000 -0.440000 0.440005
v -1.000000 -0.380000 0.500004
v -1.000000 0.380000 -0.499996
v -1.000000 0.440001 -0.439996
v -1.000000 0.000003 -0.499996
v -1.000000 -0.380000 -0.499996
v -1.000000 -0.440001 -0.439996
v -1.000000 -0.500000 -0.379997
v -1.000000 -0.500000 0.380005
v -1.000000 -0.500000 0.000007
v 1.380001 0.500000 0.380005
v 1.380001 0.500001 -0.379997
v 1.500001 -0.380000 -0.379997
v 1.500001 0.380000 -0.379997
v 1.500001 -0.380000 0.380005
v 1.380001 -0.500000 0.380005
v 1.500001 0.380000 0.380005
v 1.380001 -0.380000 -0.499996
v 1.380001 0.380000 0.500004
v 1.380001 -0.380000 0.500004
v 1.380001 0.380000 -0.499996
v 1.380001 -0.500000 -0.379997
v 1.000000 0.500000 0.380005
v 1.000000 0.500000 0.000004
v 1.000000 0.500001 -0.379997
v 1.000000 0.440000 0.440004
v 1.000000 0.380000 0.500004
v 1.000000 -0.380000 0.500004
v 1.000000 -0.440000 0.440004
v 1.000000 0.440000 -0.439997
v 1.000000 0.380000 -0.499996
v 1.000000 -0.440000 -0.439997
v 1.000000 -0.500000 -0.379997
v 1.000000 -0.500000 0.000004
v 1.000000 -0.500000 0.380005
v 0.620002 -0.500000 0.380005
v 0.620001 -0.380000 0.500004
v 0.380001 -0.500000 0.380005
v 0.500000 -0.260000 0.500004
v 0.380000 -0.380000 0.500004
v 0.620001 0.380000 -0.499996
v 0.620001 0.500001 -0.379997
v 0.500001 -0.260000 -0.499996
v 0.620002 -0.380000 -0.499996
v 0.500000 0.260000 -0.499996
v 0.500000 0.500000 -0.259994
v 0.380000 0.380000 -0.499996
v 0.380000 0.500001 -0.379997
v 0.380000 -0.500000 -0.379997
v 0.380001 -0.380000 -0.499996
v 0.620001 -0.500000 -0.379997
v 0.500001 -0.500000 0.260002
v 0.500001 -0.500000 -0.259995
v 1.000003 0.000000 0.500004
v 1.000003 0.000000 -0.499996
v 1.000003 -0.380000 -0.499996
v 0.000003 -0.380000 0.500004
v 0.000003 0.380000 -0.499996
vt 0.714815 0.873690
vt 0.726409 0.885285
vt 0.726410 0.862096
vt 0.714815 0.885285
vt 0.738004 0.885285
vt 0.738004 0.873690
vt 0.726410 0.811854
vt 0.738004 0.800259
vt 0.714815 0.800259
vt 0.678100 0.879487
vt 0.678100 0.873690
vt 0.774719 0.879487
vt 0.774719 0.885285
vt 0.714815 0.800259
vt 0.726410 0.788665
vt 0.726410 0.811854
vt 0.714815 0.788665
vt 0.669284 0.836975
vt 0.635161 0.802852
vt 0.635161 0.871097
vt 0.669284 0.871097
vt 0.669284 0.802852
vt 0.703406 0.802852
vt 0.703406 0.871097
vt 0.714181 0.860322
vt 0.714181 0.813628
vt 0.724957 0.871097
vt 0.724957 0.802852
vt 0.738004 0.788665
vt 0.738004 0.800259
vt 0.678100 0.794462
vt 0.678100 0.800259
vt 0.774719 0.794462
vt 0.774719 0.788665
vt 0.738004 0.873690
vt 0.726410 0.885285
vt 0.726410 0.862096
vt 0.738004 0.885285
vt 0.714815 0.885285
vt 0.714815 0.873690
vt 0.774719 0.879487
vt 0.774719 0.873690
vt 0.678100 0.879487
vt 0.678100 0.885285
vt 0.699235 0.860462
vt 0.770792 0.788905
vt 0.770792 0.860462
vt 0.699235 0.788905
vt 0.641384 0.788665
vt 0.641384 0.800259
vt 0.629790 0.800259
vt 0.641384 0.788665
vt 0.629790 0.800259
vt 0.641384 0.800259
vt 0.629790 0.873690
vt 0.641384 0.873690
vt 0.641384 0.885285
vt 0.641384 0.873690
vt 0.629790 0.873690
vt 0.641384 0.885285
vt 0.699235 0.777607
vt 0.770792 0.777607
vt 0.770792 0.871760
vt 0.699235 0.871760
vt 0.678100 0.879487
vt 0.714815 0.873690
vt 0.714815 0.885285
vt 0.678100 0.885285
vt 0.678100 0.873690
vt 0.774719 0.879487
vt 0.738004 0.885285
vt 0.738004 0.873690
vt 0.774719 0.873690
vt 0.726410 0.862096
vt 0.738004 0.800259
vt 0.726410 0.811854
vt 0.714815 0.800259
vt 0.678100 0.836974
vt 0.678100 0.800259
vt 0.726410 0.885285
vt 0.774719 0.794462
vt 0.738004 0.788665
vt 0.774719 0.788665
vt 0.678100 0.794462
vt 0.678100 0.788665
vt 0.726410 0.788665
vt 0.714815 0.788665
vt 0.774719 0.879487
vt 0.738004 0.873690
vt 0.738004 0.885285
vt 0.774719 0.885285
vt 0.678100 0.879487
vt 0.714815 0.885285
vt 0.714815 0.873690
vt 0.678100 0.873690
vt 0.678100 0.885285
vt 0.678100 0.836975
vt 0.678100 0.800259
vt 0.726410 0.862096
vt 0.714815 0.800259
vt 0.726410 0.811854
vt 0.738004 0.800259
vt 0.724957 0.871097
vt 0.724957 0.802852
vt 0.714181 0.813628
vt 0.726409 0.885285
vt 0.678100 0.794462
vt 0.714815 0.788665
vt 0.678100 0.788665
vt 0.774719 0.794462
vt 0.774719 0.800259
vt 0.714181 0.860322
vt 0.726410 0.788665
vt 0.738004 0.788665
vt 0.669284 0.871097
vt 0.669284 0.836975
vt 0.703406 0.871097
vt 0.635161 0.802852
vt 0.669284 0.802852
vt 0.714181 0.860322
vt 0.703406 0.802852
vt 0.714181 0.813628
vt 0.724957 0.871097
vt 0.724957 0.802852
vt 0.703406 0.802852
vt 0.759079 0.802852
vt 0.759079 0.836975
vt 0.759079 0.871097
vt 0.703406 0.871097
vt 0.774720 0.788665
vt 0.774719 0.873690
vt 0.774719 0.836975
vt 0.774719 0.800259
vt 0.774719 0.836975
vt 0.774719 0.885285
vt 0.759079 0.836975
vt 0.759079 0.802852
vt 0.759079 0.871097
vt 0.635161 0.871097
vt 0.759079 0.871097
vt 0.793202 0.871097
vt 0.759079 0.836975
vt 0.793202 0.802852
vt 0.759079 0.802852
vt 0.770792 0.860462
vt 0.699235 0.788905
vt 0.699235 0.860462
vt 0.770792 0.788905
vt 0.811435 0.800259
vt 0.811435 0.788665
vt 0.823030 0.800259
vt 0.823030 0.800259
vt 0.811435 0.788665
vt 0.811435 0.800259
vt 0.811435 0.873690
vt 0.823030 0.873690
vt 0.811435 0.885285
vt 0.823030 0.873690
vt 0.811435 0.873690
vt 0.811435 0.885285
vt 0.770792 0.777607
vt 0.699235 0.777607
vt 0.699235 0.871760
vt 0.770792 0.871760
vt 0.774719 0.885285
vt 0.774719 0.836975
vt 0.774719 0.800259
vt 0.774719 0.873690
vt 0.774719 0.836975
vt 0.774719 0.800259
vt 0.774719 0.794462
vt 0.774720 0.788665
vt 0.759079 0.836975
vt 0.793202 0.871097
vt 0.759079 0.871097
vt 0.793202 0.802852
vt 0.759079 0.802852
vt 0.678100 0.794462
vt 0.714815 0.788665
vt 0.678100 0.788665
vt 0.726410 0.788665
vt 0.738004 0.788665
vt 0.669284 0.871097
vt 0.669284 0.836975
vt 0.703406 0.871097
vt 0.714181 0.860322
vt 0.703406 0.802852
vt 0.714181 0.813628
vt 0.724957 0.871097
vt 0.724957 0.802852
vt 0.669284 0.802852
vt 0.678100 0.800259
vt 0.678100 0.836975
vt 0.678100 0.885285
vt 0.678100 0.788665
vt 0.678100 0.873690
vt 0.678100 0.836974
vt 0.669284 0.802852
vt 0.669284 0.836975
vt 0.669284 0.871097
vn 0.5774 0.5774 -0.5773
vn 0.5774 0.5773 -0.5773
vn -0.5774 0.5773 -0.5773
vn -0.5773 0.5773 -0.5774
vn 0.0000 0.0000 -1.0000
vn 0.0000 0.7071 -0.7071
vn 0.5774 -0.5774 0.5773
vn 0.5774 -0.5773 0.5773
vn -0.0000 1.0000 0.0000
vn -0.5774 -0.5773 0.5773
vn -0.5773 -0.5774 0.5774
vn 0.0000 -0.7071 0.7071
vn -0.5774 0.5774 0.5773
vn -0.5774 0.5773 0.5773
vn 0.5774 0.5773 0.5773
vn 0.5773 0.5773 0.5774
vn 0.0000 -0.0000 1.0000
vn -0.0000 0.7071 0.7071
vn -1.0000 0.0000 0.0000
vn -0.5773 -0.5774 -0.5774
vn -0.5773 0.5773 0.5774
vn -0.7071 -0.7071 -0.0000
vn -0.7071 0.7071 0.0000
vn -0.7071 -0.0000 0.7071
vn -0.7071 0.0000 -0.7071
vn -0.5774 -0.5774 0.5774
vn -0.5774 -0.5774 0.5773
vn 0.0000 -0.7071 -0.7071
vn 0.5774 -0.5773 -0.5774
vn 0.5774 -0.5773 -0.5773
vn -0.5774 -0.5773 -0.5773
vn -0.5774 -0.5774 -0.5773
vn 0.0000 -1.0000 -0.0000
vn 1.0000 0.0000 0.0000
vn 0.5773 -0.5773 0.5774
vn 0.5773 -0.5773 -0.5774
vn 0.5773 0.5773 -0.5774
vn 0.7071 -0.7071 -0.0000
vn 0.7071 0.7071 -0.0000
vn 0.7071 0.0000 0.7071
vn 0.7071 -0.0000 -0.7071
usemtl Default_OBJ
s off
f 109/1/1 108/2/1 107/3/1
f 108/2/2 109/1/2 110/4/2
f 104/5/3 107/3/3 108/2/3
f 107/3/4 104/5/4 103/6/4
f 105/7/5 103/6/5 106/8/5
f 105/7/5 107/3/5 103/6/5
f 112/9/5 107/3/5 105/7/5
f 109/1/5 107/3/5 112/9/5
f 50/10/6 110/4/6 109/1/6 120/11/6
f 92/12/6 103/6/6 104/5/6 87/13/6
f 102/14/7 114/15/7 101/16/7
f 114/15/8 102/14/8 100/17/8
f 58/18/9 32/19/9 16/20/9 57/21/9
f 59/22/9 32/19/9 58/18/9
f 7/23/9 22/24/9 23/25/9
f 23/25/9 35/26/9 7/23/9
f 35/26/9 23/25/9 24/27/9
f 24/27/9 30/28/9 35/26/9
f 98/29/10 101/16/10 114/15/10
f 101/16/11 98/29/11 99/30/11
f 48/31/12 102/14/12 119/32/12
f 91/33/12 98/29/12 97/34/12
f 6/35/13 3/36/13 1/37/13
f 3/36/14 6/35/14 2/38/14
f 4/39/15 1/37/15 3/36/15
f 1/37/16 4/39/16 5/40/16
f 101/16/17 5/40/17 102/14/17
f 101/16/17 1/37/17 5/40/17
f 99/30/17 1/37/17 101/16/17
f 6/35/17 1/37/17 99/30/17
f 88/41/18 2/38/18 6/35/18 89/42/18
f 45/43/18 5/40/18 4/39/18 46/44/18
f 18/45/19 8/46/19 14/47/19
f 8/46/19 18/45/19 9/48/19
f 10/49/11 11/50/11 8/51/11
f 12/52/20 9/53/20 13/54/20
f 14/55/21 15/56/21 16/57/21
f 17/58/4 18/59/4 32/60/4
f 8/46/22 12/61/22 10/62/22
f 12/61/22 8/46/22 9/48/22
f 18/45/23 16/63/23 32/64/23
f 16/63/23 18/45/23 14/47/23
f 14/55/24 11/50/24 15/56/24
f 11/50/24 14/55/24 8/51/24
f 17/58/25 9/53/25 18/59/25
f 9/53/25 17/58/25 13/54/25
f 60/65/18 20/66/18 22/67/18 57/68/18
f 60/65/18 16/57/18 15/56/18 62/69/18
f 45/70/18 24/71/18 19/72/18 44/73/18
f 19/72/17 25/74/17 27/75/17
f 27/75/17 25/74/17 29/76/17
f 29/76/17 25/74/17 20/66/17
f 29/76/17 20/66/17 21/77/17
f 61/78/17 62/69/17 15/56/17
f 61/78/17 15/56/17 11/50/17 64/79/17
f 25/74/16 22/67/16 20/66/16
f 22/67/15 25/74/15 23/80/15
f 23/80/14 19/72/14 24/71/14
f 19/72/13 23/80/13 25/74/13
f 48/81/12 26/82/12 55/83/12
f 63/84/12 21/77/12 64/79/12
f 63/84/12 10/49/12 71/85/12
f 29/76/26 26/82/26 27/75/26
f 26/82/27 29/76/27 42/86/27
f 42/86/8 21/77/8 28/87/8
f 21/77/7 42/86/7 29/76/7
f 50/88/6 33/89/6 30/90/6 49/91/6
f 66/92/6 7/93/6 31/94/6 65/95/6
f 66/92/6 17/58/6 32/60/6 59/96/6
f 67/97/5 13/54/5 17/58/5 65/95/5
f 67/97/5 68/98/5 13/54/5
f 31/94/5 34/99/5 36/100/5
f 36/100/5 34/99/5 40/101/5
f 40/101/5 34/99/5 33/89/5
f 40/101/5 33/89/5 38/102/5
f 2/103/9 104/104/9 108/105/9
f 34/99/4 30/90/4 33/89/4
f 30/90/3 34/99/3 35/106/3
f 35/106/2 31/94/2 7/93/2
f 31/94/1 35/106/1 34/99/1
f 69/107/28 41/108/28 70/109/28
f 69/107/28 13/54/28 68/98/28
f 52/110/28 38/102/28 53/111/28
f 108/105/9 3/112/9 2/103/9
f 40/101/29 41/108/29 36/100/29
f 41/108/30 40/101/30 37/113/30
f 37/113/31 38/102/31 39/114/31
f 38/102/32 37/113/32 40/101/32
f 71/115/33 72/116/33 28/117/33
f 72/116/33 12/118/33 70/119/33
f 42/120/33 28/117/33 41/121/33
f 41/121/33 37/122/33 42/120/33
f 26/123/33 42/120/33 37/122/33
f 37/122/33 39/124/33 26/123/33
f 3/112/9 108/105/9 110/125/9
f 56/126/33 54/127/33 39/124/33
f 39/124/33 54/127/33 55/128/33 26/123/33
f 110/125/9 4/129/9 3/112/9
f 38/102/28 52/110/28 56/130/28 39/114/28
f 38/102/5 33/89/5 120/131/5 51/132/5
f 38/102/5 51/132/5 53/111/5
f 33/89/6 50/88/6 120/131/6
f 26/82/12 48/81/12 119/133/12 27/75/12
f 19/72/17 27/75/17 119/133/17 47/134/17
f 19/72/17 47/134/17 44/73/17
f 24/71/18 45/70/18 46/135/18
f 30/28/9 43/136/9 49/137/9
f 24/27/9 46/138/9 43/136/9 30/28/9
f 28/117/33 72/116/33 70/119/33 41/121/33
f 10/139/33 12/118/33 72/116/33 71/115/33
f 13/54/28 69/107/28 70/109/28 12/52/28
f 41/108/28 69/107/28 68/98/28 36/100/28
f 31/94/5 36/100/5 68/98/5 67/97/5
f 31/94/5 67/97/5 65/95/5
f 7/93/6 66/92/6 59/96/6
f 17/58/6 66/92/6 65/95/6
f 10/49/12 63/84/12 64/79/12 11/50/12
f 21/77/12 63/84/12 71/85/12 28/87/12
f 21/77/17 20/66/17 62/69/17 61/78/17
f 21/77/17 61/78/17 64/79/17
f 20/66/18 60/65/18 62/69/18
f 16/57/18 60/65/18 57/68/18
f 7/23/9 59/22/9 58/18/9 22/24/9
f 22/24/9 58/18/9 57/21/9
f 85/140/9 73/141/9 86/142/9
f 86/142/9 73/141/9 74/143/9 87/144/9
f 79/145/34 75/146/34 76/147/34
f 75/146/34 79/145/34 77/148/34
f 82/149/35 78/150/35 77/151/35
f 75/152/36 84/153/36 80/154/36
f 81/155/16 79/156/16 73/157/16
f 76/158/37 83/159/37 74/160/37
f 75/146/38 78/161/38 84/162/38
f 78/161/38 75/146/38 77/148/38
f 79/145/39 74/163/39 73/164/39
f 74/163/39 79/145/39 76/147/39
f 77/151/40 81/155/40 82/149/40
f 81/155/40 77/151/40 79/156/40
f 76/158/41 80/154/41 83/159/41
f 80/154/41 76/158/41 75/152/41
f 88/41/18 81/155/18 73/157/18 85/165/18
f 116/166/17 82/149/17 81/155/17 89/42/17
f 116/166/17 90/167/17 82/149/17
f 91/33/12 82/149/12 90/167/12
f 92/12/6 74/160/6 83/159/6 93/168/6
f 117/169/5 93/168/5 83/159/5
f 117/169/5 83/159/5 80/154/5 118/170/5
f 94/171/28 84/153/28 95/172/28
f 96/173/33 78/174/33 97/175/33
f 84/176/33 78/174/33 96/173/33 95/177/33
f 84/153/28 94/171/28 118/170/28 80/154/28
f 74/160/6 92/12/6 87/13/6
f 82/149/12 91/33/12 97/34/12 78/150/12
f 81/155/18 88/41/18 89/42/18
f 52/178/28 111/179/28 56/180/28
f 94/171/28 106/8/28 118/170/28
f 105/7/29 111/179/29 112/9/29
f 111/179/30 105/7/30 115/181/30
f 115/181/31 106/8/31 113/182/31
f 106/8/32 115/181/32 105/7/32
f 55/183/33 54/184/33 100/185/33
f 114/186/33 100/185/33 111/187/33
f 111/187/33 115/188/33 114/186/33
f 98/189/33 114/186/33 115/188/33
f 115/188/33 113/190/33 98/189/33
f 95/177/33 96/173/33 113/190/33
f 113/190/33 96/173/33 97/175/33 98/189/33
f 106/8/28 94/171/28 95/172/28 113/182/28
f 106/8/5 103/6/5 93/168/5 117/169/5
f 106/8/5 117/169/5 118/170/5
f 103/6/6 92/12/6 93/168/6
f 98/29/12 91/33/12 90/167/12 99/30/12
f 6/35/17 99/30/17 90/167/17 116/166/17
f 6/35/17 116/166/17 89/42/17
f 2/38/18 88/41/18 85/165/18
f 104/104/9 86/142/9 87/144/9
f 2/103/9 85/140/9 86/142/9 104/104/9
f 100/185/33 54/184/33 56/191/33 111/187/33
f 111/179/28 52/178/28 53/192/28 112/9/28
f 109/1/5 112/9/5 53/192/5 51/193/5
f 109/1/5 51/193/5 120/11/5
f 110/4/6 50/10/6 49/194/6
f 102/14/12 48/31/12 55/195/12 100/17/12
f 102/14/17 5/40/17 44/196/17 47/197/17
f 102/14/17 47/197/17 119/32/17
f 5/40/18 45/43/18 44/196/18
f 110/125/9 49/198/9 43/199/9 4/129/9
f 4/129/9 43/199/9 46/200/9
