# Blender v2.82 (sub 7) OBJ File: ''
# www.blender.org
mtllib HE_Three_Block.mtl
o HE_Block_112
v 0.500001 0.260000 0.500004
v 0.620002 0.500000 0.380005
v -0.132023 -0.132023 0.500004
v -0.000001 -0.000001 0.600002
v -0.132023 0.132023 0.500004
v 0.500001 0.500000 0.260002
v 0.380001 0.500000 0.380005
v 0.380001 0.380000 0.500004
v 0.620002 0.380000 0.500004
v 0.132023 -0.500000 -0.132019
v -0.132023 0.132023 -0.499996
v 0.132023 -0.500000 0.132027
v -0.132023 -0.132023 -0.499996
v -0.000001 0.000001 -0.599995
v -0.132024 0.500000 -0.132019
v 0.132023 0.500000 -0.132019
v 0.132023 0.500000 0.132027
v -0.132024 0.500000 0.132027
v -0.000000 -0.600000 0.000004
v -0.132024 -0.500000 0.132027
v -0.000000 0.600001 0.000004
v -0.132024 -0.500000 -0.132019
v -0.620003 0.500001 -0.379997
v 0.132023 0.132023 -0.499996
v 0.132023 -0.132023 -0.499996
v 0.132023 0.132023 0.500004
v 0.132023 -0.132023 0.500004
v 0.867979 -0.500000 -0.132019
v 0.867979 -0.500000 0.132027
v 0.867979 0.500000 0.132027
v 1.000002 0.600001 0.000004
v 0.867979 0.500000 -0.132019
v -1.132026 -0.132023 -0.499996
v -1.132026 0.132023 -0.499996
v -1.500004 -0.132023 -0.132019
v -1.132025 -0.132023 0.500004
v -0.867980 -0.132023 0.500004
v -1.132025 0.132023 0.500004
v -0.867980 0.132023 0.500004
v -1.000003 -0.000001 0.600006
v -0.867980 -0.132023 -0.499996
v -1.000003 0.000001 -0.599995
v -0.867980 0.132023 -0.499996
v -1.500004 0.132023 0.132027
v -1.500004 -0.132023 0.132027
v -1.500004 0.132023 -0.132019
v -1.600004 -0.000000 0.000004
v -1.132026 0.500000 -0.132019
v -0.867979 -0.500000 -0.132019
v -0.867979 -0.500000 0.132027
v -1.132026 0.500000 0.132027
v -0.867979 0.500000 0.132027
v -0.867979 0.500000 -0.132019
v -1.000003 0.600001 0.000004
v -1.132026 -0.500000 -0.132019
v -1.132026 -0.500000 0.132027
v -1.000003 -0.600000 0.000004
v -1.500005 -0.380000 0.380005
v -1.500005 -0.380000 -0.379997
v -1.380004 -0.500000 0.380005
v -1.380004 -0.380000 0.500004
v -1.380004 -0.500000 -0.379997
v -1.380004 -0.380000 -0.499996
v -1.500005 0.380000 0.380005
v -1.380004 0.380000 0.500004
v -1.380004 0.500000 0.380005
v -1.380004 0.380000 -0.499996
v -1.500005 0.380000 -0.379997
v -0.380001 0.380000 0.500004
v 0.867979 -0.132023 -0.499996
v -0.620001 0.380000 0.500004
v -0.620002 -0.380000 0.500004
v -0.620002 0.500000 0.380005
v -0.500001 0.500000 0.260002
v -0.380001 0.500000 0.380005
v -0.500001 0.260000 0.500004
v -0.380001 -0.500000 0.380005
v 0.867979 -0.132023 0.500004
v -0.380002 -0.380000 0.500004
v -0.620002 -0.500000 0.380005
v -0.500002 -0.260000 0.500004
v 0.867979 0.132023 0.500004
v -0.380002 0.500001 -0.379997
v -0.620003 0.380000 -0.499996
v -1.380004 0.500001 -0.379997
v -0.380002 0.380000 -0.499996
v -0.500002 0.260000 -0.499996
v -0.500002 0.500000 -0.259994
v -0.620002 -0.380000 -0.499996
v -0.500002 -0.500000 -0.259995
v -0.380001 -0.380000 -0.499996
v -0.380001 -0.500000 -0.379997
v -0.500001 -0.260000 -0.499996
v -0.620002 -0.500000 -0.379997
v -0.500002 -0.500000 0.260002
v 0.867979 0.132023 -0.499996
v 0.000000 -0.132023 0.500004
v 0.000000 0.132023 0.500004
v 0.000000 0.132023 -0.499996
v 0.000000 -0.132023 -0.499996
v 0.000000 0.500000 -0.132019
v 0.000000 0.500000 0.132027
v 0.000000 -0.500000 0.132027
v 0.000000 -0.500000 -0.132019
v 0.000000 0.500000 0.000004
v 0.000000 0.380000 0.500004
v 0.000000 0.440000 0.440004
v 0.000000 0.500000 0.380005
v 0.000000 0.000000 0.500004
v 0.000000 -0.440000 0.440004
v 0.000000 0.500001 -0.379997
v 0.000000 0.440000 -0.439997
v 0.000000 0.000000 -0.499996
v 0.000000 -0.440000 -0.439997
v 0.000000 -0.380000 -0.499996
v 0.000000 -0.500000 0.000004
v 0.000000 -0.500000 0.380005
v 0.000000 -0.500000 -0.379997
v -1.000000 0.500000 0.380005
v -1.000000 0.500000 0.000007
v -1.000000 0.500001 -0.379997
v -1.000000 -0.132023 0.500004
v -1.000000 0.132023 0.500004
v -1.000000 0.132023 -0.499996
v -1.000000 -0.132023 -0.499996
v -1.000000 0.500000 -0.132019
v -1.000000 0.500000 0.132027
v -1.000000 -0.500000 0.132027
v -1.000000 -0.500000 -0.132019
v -1.000000 0.440000 0.440005
v -1.000000 -0.000003 0.500004
v -1.000000 0.380000 0.500004
v -1.000000 -0.440000 0.440005
v -1.000000 -0.380000 0.500004
v -1.000000 0.380000 -0.499996
v -1.000000 0.440001 -0.439996
v -1.000000 0.000003 -0.499996
v -1.000000 -0.380000 -0.499996
v -1.000000 -0.440001 -0.439996
v -1.000000 -0.500000 -0.379997
v -1.000000 -0.500000 0.380005
v -1.000000 -0.500000 0.000007
v 1.600002 -0.000000 0.000004
v 1.132023 -0.132023 0.500004
v 0.999999 -0.000001 0.600002
v 1.132023 0.132023 0.500004
v 1.500001 0.132023 0.132027
v 1.500001 0.132023 -0.132019
v 1.500001 -0.132023 0.132027
v 1.500001 -0.132023 -0.132019
v 0.999999 0.000001 -0.599995
v 1.132022 0.132023 -0.499996
v 1.132022 -0.132023 -0.499996
v 1.132023 -0.500000 -0.132019
v 1.132023 -0.500000 0.132027
v 1.132023 0.500000 0.132027
v 1.132023 0.500000 -0.132019
v 1.000000 -0.600000 0.000004
v 1.380001 0.500000 0.380005
v 1.380001 0.500001 -0.379997
v 1.500001 -0.380000 -0.379997
v 1.500001 0.380000 -0.379997
v 1.500001 -0.380000 0.380005
v 1.380001 -0.500000 0.380005
v 1.500001 0.380000 0.380005
v 1.380001 -0.380000 -0.499996
v 1.380001 0.380000 0.500004
v 1.380001 -0.380000 0.500004
v 1.380001 0.380000 -0.499996
v 1.380001 -0.500000 -0.379997
v 1.000000 -0.132023 0.500004
v 1.000000 0.132023 0.500004
v 1.000000 0.132023 -0.499996
v 1.000000 0.500000 -0.132019
v 1.000000 0.500000 0.132027
v 1.000000 -0.500000 0.132027
v 1.000000 0.500000 0.380005
v 1.000000 0.500000 0.000004
v 1.000000 0.500001 -0.379997
v 1.000000 0.440000 0.440004
v 1.000000 0.380000 0.500004
v 1.000000 -0.380000 0.500004
v 1.000000 -0.440000 0.440004
v 1.000000 0.440000 -0.439997
v 1.000000 0.380000 -0.499996
v 1.000000 -0.440000 -0.439997
v 1.000000 -0.500000 -0.379997
v 1.000000 -0.500000 0.000004
v 1.000000 -0.500000 0.380005
v 0.620002 -0.500000 0.380005
v 0.620001 -0.380000 0.500004
v 0.380001 -0.500000 0.380005
v 0.500000 -0.260000 0.500004
v 0.380000 -0.380000 0.500004
v 0.620001 0.380000 -0.499996
v 0.620001 0.500001 -0.379997
v 0.500001 -0.260000 -0.499996
v 0.620002 -0.380000 -0.499996
v 0.500000 0.260000 -0.499996
v 0.500000 0.500000 -0.259994
v 0.380000 0.380000 -0.499996
v 0.380000 0.500001 -0.379997
v 0.380000 -0.500000 -0.379997
v 0.380001 -0.380000 -0.499996
v 0.620001 -0.500000 -0.379997
v 0.500001 -0.500000 0.260002
v 0.500001 -0.500000 -0.259995
v 1.000003 -0.132023 -0.499996
v 1.000003 -0.500000 -0.132019
v 1.000003 0.000000 0.500004
v 1.000003 0.000000 -0.499996
v 1.000003 -0.380000 -0.499996
v 0.000003 -0.380000 0.500004
v 0.000003 0.380000 -0.499996
vt 0.714815 0.873690
vt 0.726409 0.885285
vt 0.726410 0.862096
vt 0.075352 0.002666
vt 0.004325 0.002666
vt 0.039500 0.038249
vt 0.714815 0.885285
vt 0.738004 0.885285
vt 0.738004 0.873690
vt 0.004325 0.073845
vt 0.075352 0.073845
vt 0.039500 0.038249
vt 0.726410 0.811854
vt 0.738004 0.800259
vt 0.714815 0.800259
vt 0.004325 0.038256
vt 0.075352 0.038256
vt 0.039839 0.002666
vt 0.004325 0.002666
vt 0.039500 0.038249
vt 0.678100 0.879487
vt 0.678100 0.873690
vt 0.004325 0.073845
vt 0.039839 0.073845
vt 0.774719 0.879487
vt 0.774719 0.885285
vt 0.004325 0.073845
vt 0.039500 0.038249
vt 0.004325 0.002666
vt 0.714815 0.800259
vt 0.726410 0.788665
vt 0.726410 0.811854
vt 0.714815 0.788665
vt 0.669284 0.836975
vt 0.635161 0.802852
vt 0.635161 0.871097
vt 0.669284 0.871097
vt 0.669284 0.802852
vt 0.703406 0.802852
vt 0.703406 0.871097
vt 0.714181 0.860322
vt 0.714181 0.813628
vt 0.724957 0.871097
vt 0.724957 0.802852
vt 0.738004 0.788665
vt 0.738004 0.800259
vt 0.678100 0.794462
vt 0.678100 0.800259
vt 0.774719 0.794462
vt 0.774719 0.788665
vt 0.738004 0.873690
vt 0.726410 0.885285
vt 0.726410 0.862096
vt 0.738004 0.885285
vt 0.714815 0.885285
vt 0.714815 0.873690
vt 0.774719 0.879487
vt 0.774719 0.873690
vt 0.678100 0.879487
vt 0.678100 0.885285
vt 0.039839 0.073845
vt 0.075352 0.073845
vt 0.075352 0.002666
vt 0.039839 0.002666
vt 0.075352 0.002666
vt 0.004325 0.002666
vt 0.039500 0.038249
vt 0.075352 0.073845
vt 0.075352 0.002666
vt 0.039500 0.038249
vt 0.075352 0.038255
vt 0.075352 0.002666
vt 0.039500 0.038249
vt 0.004325 0.002666
vt 0.004325 0.038255
vt 0.004325 0.073845
vt 0.075352 0.073845
vt 0.075352 0.073845
vt 0.004325 0.073845
vt 0.004325 0.038257
vt 0.075352 0.038257
vt 0.004325 0.073845
vt 0.004325 0.002666
vt 0.039839 0.002666
vt 0.004325 0.002666
vt 0.039500 0.038249
vt 0.075352 0.073845
vt 0.075352 0.002666
vt 0.039500 0.038249
vt 0.004325 0.073845
vt 0.039839 0.073845
vt 0.075352 0.073845
vt 0.075352 0.002666
vt 0.004325 0.073845
vt 0.004325 0.002666
vt 0.039839 0.002666
vt 0.039839 0.073845
vt 0.699235 0.860462
vt 0.770792 0.788905
vt 0.770792 0.860462
vt 0.699235 0.788905
vt 0.641384 0.788665
vt 0.641384 0.800259
vt 0.629790 0.800259
vt 0.641384 0.788665
vt 0.629790 0.800259
vt 0.641384 0.800259
vt 0.629790 0.873690
vt 0.641384 0.873690
vt 0.641384 0.885285
vt 0.641384 0.873690
vt 0.629790 0.873690
vt 0.641384 0.885285
vt 0.699235 0.777607
vt 0.770792 0.777607
vt 0.770792 0.871760
vt 0.699235 0.871760
vt 0.678100 0.879487
vt 0.714815 0.873690
vt 0.714815 0.885285
vt 0.678100 0.885285
vt 0.678100 0.873690
vt 0.774719 0.879487
vt 0.738004 0.885285
vt 0.738004 0.873690
vt 0.774719 0.873690
vt 0.075352 0.073845
vt 0.075352 0.002666
vt 0.075352 0.073845
vt 0.004325 0.073845
vt 0.726410 0.862096
vt 0.738004 0.800259
vt 0.726410 0.811854
vt 0.714815 0.800259
vt 0.678100 0.836974
vt 0.678100 0.800259
vt 0.726410 0.885285
vt 0.774719 0.794462
vt 0.738004 0.788665
vt 0.774719 0.788665
vt 0.075352 0.002666
vt 0.004325 0.002666
vt 0.678100 0.794462
vt 0.678100 0.788665
vt 0.726410 0.788665
vt 0.714815 0.788665
vt 0.774719 0.879487
vt 0.738004 0.873690
vt 0.738004 0.885285
vt 0.774719 0.885285
vt 0.004325 0.038255
vt 0.678100 0.879487
vt 0.714815 0.885285
vt 0.714815 0.873690
vt 0.678100 0.873690
vt 0.678100 0.885285
vt 0.678100 0.836975
vt 0.678100 0.800259
vt 0.726410 0.862096
vt 0.714815 0.800259
vt 0.726410 0.811854
vt 0.738004 0.800259
vt 0.075352 0.038255
vt 0.724957 0.871097
vt 0.724957 0.802852
vt 0.714181 0.813628
vt 0.726409 0.885285
vt 0.678100 0.794462
vt 0.714815 0.788665
vt 0.678100 0.788665
vt 0.774719 0.794462
vt 0.774719 0.800259
vt 0.714181 0.860322
vt 0.726410 0.788665
vt 0.738004 0.788665
vt 0.669284 0.871097
vt 0.669284 0.836975
vt 0.703406 0.871097
vt 0.635161 0.802852
vt 0.669284 0.802852
vt 0.714181 0.860322
vt 0.703406 0.802852
vt 0.714181 0.813628
vt 0.724957 0.871097
vt 0.724957 0.802852
vt 0.703406 0.802852
vt 0.759079 0.802852
vt 0.759079 0.836975
vt 0.759079 0.871097
vt 0.703406 0.871097
vt 0.004325 0.073845
vt 0.039500 0.038249
vt 0.004325 0.002666
vt 0.774720 0.788665
vt 0.774719 0.873690
vt 0.774719 0.836975
vt 0.039500 0.038249
vt 0.004325 0.002666
vt 0.004325 0.073845
vt 0.039839 0.073845
vt 0.774719 0.800259
vt 0.774719 0.836975
vt 0.774719 0.885285
vt 0.039839 0.002666
vt 0.759079 0.836975
vt 0.759079 0.802852
vt 0.759079 0.871097
vt 0.075352 0.038256
vt 0.075352 0.002666
vt 0.039500 0.038249
vt 0.004325 0.002666
vt 0.004325 0.038256
vt 0.004325 0.073845
vt 0.075352 0.073845
vt 0.039500 0.038249
vt 0.635161 0.871097
vt 0.075352 0.002666
vt 0.004325 0.002666
vt 0.039500 0.038249
vt 0.075352 0.038256
vt 0.075352 0.002666
vt 0.004325 0.002666
vt 0.004325 0.038256
vt 0.075352 0.073845
vt 0.004325 0.073845
vt 0.075352 0.073845
vt 0.004325 0.073845
vt 0.075352 0.073845
vt 0.075352 0.002666
vt 0.075352 0.073845
vt 0.075352 0.002666
vt 0.039839 0.002666
vt 0.039839 0.073845
vt 0.759079 0.871097
vt 0.793202 0.871097
vt 0.759079 0.836975
vt 0.793202 0.802852
vt 0.759079 0.802852
vt 0.770792 0.860462
vt 0.699235 0.788905
vt 0.699235 0.860462
vt 0.770792 0.788905
vt 0.811435 0.800259
vt 0.811435 0.788665
vt 0.823030 0.800259
vt 0.823030 0.800259
vt 0.811435 0.788665
vt 0.811435 0.800259
vt 0.811435 0.873690
vt 0.823030 0.873690
vt 0.811435 0.885285
vt 0.823030 0.873690
vt 0.811435 0.873690
vt 0.811435 0.885285
vt 0.770792 0.777607
vt 0.699235 0.777607
vt 0.699235 0.871760
vt 0.770792 0.871760
vt 0.774719 0.885285
vt 0.774719 0.836975
vt 0.774719 0.800259
vt 0.774719 0.873690
vt 0.774719 0.836975
vt 0.774719 0.800259
vt 0.774719 0.794462
vt 0.774720 0.788665
vt 0.759079 0.836975
vt 0.793202 0.871097
vt 0.759079 0.871097
vt 0.793202 0.802852
vt 0.759079 0.802852
vt 0.678100 0.794462
vt 0.714815 0.788665
vt 0.678100 0.788665
vt 0.726410 0.788665
vt 0.738004 0.788665
vt 0.669284 0.871097
vt 0.669284 0.836975
vt 0.703406 0.871097
vt 0.714181 0.860322
vt 0.703406 0.802852
vt 0.714181 0.813628
vt 0.724957 0.871097
vt 0.724957 0.802852
vt 0.669284 0.802852
vt 0.678100 0.800259
vt 0.678100 0.836975
vt 0.678100 0.885285
vt 0.678100 0.788665
vt 0.678100 0.873690
vt 0.678100 0.836974
vt 0.669284 0.802852
vt 0.669284 0.836975
vt 0.669284 0.871097
vn 0.5774 0.5774 -0.5773
vn -0.6038 0.0000 -0.7971
vn 0.5774 0.5773 -0.5773
vn -0.5774 0.5773 -0.5773
vn -0.5773 0.5773 -0.5774
vn -0.6038 0.0000 0.7971
vn 0.0000 0.0000 -1.0000
vn 0.0000 0.6038 -0.7971
vn 0.0000 -0.6038 -0.7971
vn 0.0000 0.7971 -0.6038
vn 0.0000 0.7071 -0.7071
vn 0.0000 0.7971 0.6038
vn -0.6038 0.7971 0.0000
vn -0.6038 -0.7971 0.0000
vn 0.5774 -0.5774 0.5773
vn 0.5774 -0.5773 0.5773
vn -0.0000 1.0000 0.0000
vn -0.5774 -0.5773 0.5773
vn -0.5773 -0.5774 0.5774
vn 0.0000 -0.7071 0.7071
vn -0.5774 0.5774 0.5773
vn -0.5774 0.5773 0.5773
vn 0.5774 0.5773 0.5773
vn 0.5773 0.5773 0.5774
vn 0.0000 -0.0000 1.0000
vn -0.0000 0.7071 0.7071
vn 0.0000 -0.7971 -0.6038
vn 0.0000 -0.7971 0.6038
vn -0.7971 -0.6038 -0.0000
vn 0.0000 -0.6038 0.7971
vn 0.0000 0.6038 0.7971
vn 0.6038 0.0000 0.7971
vn 0.6038 0.0000 -0.7971
vn -0.7971 0.6038 0.0000
vn -0.7971 0.0000 0.6038
vn -0.7971 0.0000 -0.6038
vn 0.6038 -0.7971 0.0000
vn 0.6038 0.7971 0.0000
vn -1.0000 0.0000 0.0000
vn -0.5773 -0.5774 -0.5774
vn -0.5773 0.5773 0.5774
vn -0.7071 -0.7071 -0.0000
vn -0.7071 0.7071 0.0000
vn -0.7071 -0.0000 0.7071
vn -0.7071 0.0000 -0.7071
vn -0.5774 -0.5774 0.5774
vn -0.5774 -0.5774 0.5773
vn 0.0000 -0.7071 -0.7071
vn 0.5774 -0.5773 -0.5774
vn 0.5774 -0.5773 -0.5773
vn -0.5774 -0.5773 -0.5773
vn -0.5774 -0.5774 -0.5773
vn 0.0000 -1.0000 -0.0000
vn 0.7971 0.0000 -0.6038
vn 0.7971 0.0000 0.6038
vn 0.7971 0.6038 0.0000
vn 0.7971 -0.6038 -0.0000
vn 1.0000 0.0000 0.0000
vn 0.5773 -0.5773 0.5774
vn 0.5773 -0.5773 -0.5774
vn 0.5773 0.5773 -0.5774
vn 0.7071 -0.7071 -0.0000
vn 0.7071 0.7071 -0.0000
vn 0.7071 0.0000 0.7071
vn 0.7071 -0.0000 -0.7071
usemtl Default_OBJ
s off
f 201/1/1 200/2/1 199/3/1
f 13/4/2 11/5/2 14/6/2
f 200/2/3 201/1/3 202/7/3
f 196/8/4 199/3/4 200/2/4
f 199/3/5 196/8/5 195/9/5
f 5/10/6 3/11/6 4/12/6
f 197/13/7 195/9/7 198/14/7
f 197/13/7 199/3/7 195/9/7
f 204/15/7 199/3/7 197/13/7
f 201/1/7 199/3/7 204/15/7
f 14/6/8 11/5/8 99/16/8
f 100/17/9 13/4/9 14/6/9
f 101/18/10 15/19/10 21/20/10
f 112/21/11 202/7/11 201/1/11 214/22/11
f 21/20/12 18/23/12 102/24/12
f 21/20/13 15/19/13 18/23/13
f 184/25/11 195/9/11 196/8/11 179/26/11
f 22/27/14 19/28/14 20/29/14
f 194/30/15 206/31/15 193/32/15
f 206/31/16 194/30/16 192/33/16
f 120/34/17 85/35/17 66/36/17 119/37/17
f 121/38/17 85/35/17 120/34/17
f 23/39/17 73/40/17 74/41/17
f 74/41/17 88/42/17 23/39/17
f 88/42/17 74/41/17 75/43/17
f 75/43/17 83/44/17 88/42/17
f 190/45/18 193/32/18 206/31/18
f 193/32/19 190/45/19 191/46/19
f 110/47/20 194/30/20 213/48/20
f 183/49/20 190/45/20 189/50/20
f 9/51/21 6/52/21 1/53/21
f 6/52/22 9/51/22 2/54/22
f 7/55/23 1/53/23 6/52/23
f 1/53/24 7/55/24 8/56/24
f 193/32/25 8/56/25 194/30/25
f 193/32/25 1/53/25 8/56/25
f 191/46/25 1/53/25 193/32/25
f 9/51/25 1/53/25 191/46/25
f 180/57/26 2/54/26 9/51/26 181/58/26
f 107/59/26 8/56/26 7/55/26 108/60/26
f 104/61/27 10/62/27 19/28/27
f 19/28/28 12/63/28 103/64/28
f 33/65/2 34/66/2 42/67/2
f 35/68/29 45/69/29 47/70/29
f 122/71/30 37/72/30 40/73/30
f 40/73/31 39/74/31 123/75/31
f 40/73/32 37/72/32 39/74/32
f 38/76/6 36/77/6 40/73/6
f 41/78/33 42/67/33 43/79/33
f 42/67/8 34/66/8 124/80/8
f 125/81/9 33/65/9 42/67/9
f 46/82/34 47/70/34 44/83/34
f 47/70/35 45/69/35 44/83/35
f 46/82/36 35/68/36 47/70/36
f 126/84/10 48/85/10 54/86/10
f 49/87/37 50/88/37 57/89/37
f 54/86/12 51/90/12 127/91/12
f 54/86/13 48/85/13 51/90/13
f 52/92/38 53/93/38 54/86/38
f 55/94/14 57/89/14 56/95/14
f 57/89/28 50/88/28 128/96/28
f 129/97/27 49/87/27 57/89/27
f 68/98/39 58/99/39 64/100/39
f 58/99/39 68/98/39 59/101/39
f 60/102/19 61/103/19 58/104/19
f 62/105/40 59/106/40 63/107/40
f 64/108/41 65/109/41 66/110/41
f 67/111/5 68/112/5 85/113/5
f 58/99/42 62/114/42 60/115/42
f 62/114/42 58/99/42 59/101/42
f 68/98/43 66/116/43 85/117/43
f 66/116/43 68/98/43 64/100/43
f 64/108/44 61/103/44 65/109/44
f 61/103/44 64/108/44 58/104/44
f 67/111/45 59/106/45 68/112/45
f 59/106/45 67/111/45 63/107/45
f 130/118/26 71/119/26 73/120/26 119/121/26
f 130/118/26 66/110/26 65/109/26 132/122/26
f 107/123/26 75/124/26 69/125/26 106/126/26
f 17/127/38 16/128/38 21/20/38
f 10/62/37 12/63/37 19/28/37
f 25/129/33 14/6/33 24/130/33
f 69/125/25 76/131/25 79/132/25
f 79/132/25 76/131/25 81/133/25
f 81/133/25 76/131/25 71/119/25
f 81/133/25 71/119/25 72/134/25
f 131/135/25 132/122/25 65/109/25
f 131/135/25 65/109/25 61/103/25 134/136/25
f 76/131/24 73/120/24 71/119/24
f 73/120/23 76/131/23 74/137/23
f 74/137/22 69/125/22 75/124/22
f 69/125/21 74/137/21 76/131/21
f 110/138/20 77/139/20 117/140/20
f 4/12/32 27/141/32 26/142/32
f 133/143/20 72/134/20 134/136/20
f 133/143/20 60/102/20 141/144/20
f 81/133/46 77/139/46 79/132/46
f 77/139/47 81/133/47 95/145/47
f 95/145/16 72/134/16 80/146/16
f 72/134/15 95/145/15 81/133/15
f 112/147/11 86/148/11 83/149/11 111/150/11
f 4/12/31 26/142/31 98/151/31
f 136/152/11 23/153/11 84/154/11 135/155/11
f 136/152/11 67/111/11 85/113/11 121/156/11
f 137/157/7 63/107/7 67/111/7 135/155/7
f 137/157/7 138/158/7 63/107/7
f 84/154/7 87/159/7 89/160/7
f 89/160/7 87/159/7 93/161/7
f 93/161/7 87/159/7 86/148/7
f 93/161/7 86/148/7 91/162/7
f 97/163/30 27/141/30 4/12/30
f 2/164/17 196/165/17 200/166/17
f 87/159/5 83/149/5 86/148/5
f 83/149/4 87/159/4 88/167/4
f 88/167/3 84/154/3 23/153/3
f 84/154/1 88/167/1 87/159/1
f 139/168/48 94/169/48 140/170/48
f 139/168/48 63/107/48 138/158/48
f 114/171/48 91/162/48 115/172/48
f 200/166/17 6/173/17 2/164/17
f 93/161/49 94/169/49 89/160/49
f 94/169/50 93/161/50 90/174/50
f 90/174/51 91/162/51 92/175/51
f 91/162/52 90/174/52 93/161/52
f 141/176/53 142/177/53 80/178/53
f 142/177/53 62/179/53 140/180/53
f 95/181/53 80/178/53 94/182/53
f 94/182/53 90/183/53 95/181/53
f 77/184/53 95/181/53 90/183/53
f 90/183/53 92/185/53 77/184/53
f 6/173/17 200/166/17 202/186/17
f 118/187/53 116/188/53 92/185/53
f 92/185/53 116/188/53 117/189/53 77/184/53
f 202/186/17 7/190/17 6/173/17
f 28/191/14 158/192/14 29/193/14
f 91/162/48 114/171/48 118/194/48 92/175/48
f 91/162/7 86/148/7 214/195/7 113/196/7
f 91/162/7 113/196/7 115/172/7
f 86/148/11 112/147/11 214/195/11
f 31/197/13 32/198/13 30/199/13
f 31/197/12 30/199/12 175/200/12
f 77/139/20 110/138/20 213/201/20 79/132/20
f 69/125/25 79/132/25 213/201/25 109/202/25
f 69/125/25 109/202/25 106/126/25
f 75/124/26 107/123/26 108/203/26
f 174/204/10 32/198/10 31/197/10
f 83/44/17 105/205/17 111/206/17
f 75/43/17 108/207/17 105/205/17 83/44/17
f 22/27/27 104/61/27 19/28/27
f 20/29/28 19/28/28 103/64/28
f 208/208/9 70/209/9 151/210/9
f 151/210/8 96/211/8 173/212/8
f 82/213/6 78/214/6 145/215/6
f 70/209/2 96/211/2 151/210/2
f 5/10/31 4/12/31 98/151/31
f 3/11/30 97/163/30 4/12/30
f 80/178/53 142/177/53 140/180/53 94/182/53
f 60/216/53 62/179/53 142/177/53 141/176/53
f 63/107/48 139/168/48 140/170/48 62/105/48
f 94/169/48 139/168/48 138/158/48 89/160/48
f 84/154/7 89/160/7 138/158/7 137/157/7
f 84/154/7 137/157/7 135/155/7
f 23/153/11 136/152/11 121/156/11
f 67/111/11 136/152/11 135/155/11
f 60/102/20 133/143/20 134/136/20 61/103/20
f 72/134/20 133/143/20 141/144/20 80/146/20
f 72/134/25 71/119/25 132/122/25 131/135/25
f 72/134/25 131/135/25 134/136/25
f 71/119/26 130/118/26 132/122/26
f 66/110/26 130/118/26 119/121/26
f 55/94/27 129/97/27 57/89/27
f 56/95/28 57/89/28 128/96/28
f 52/92/12 54/86/12 127/91/12
f 53/93/10 126/84/10 54/86/10
f 41/78/9 125/81/9 42/67/9
f 43/79/8 42/67/8 124/80/8
f 38/76/31 40/73/31 123/75/31
f 36/77/30 122/71/30 40/73/30
f 23/39/17 121/38/17 120/34/17 73/40/17
f 73/40/17 120/34/17 119/37/17
f 150/217/54 148/218/54 143/219/54
f 171/220/30 144/221/30 145/215/30
f 145/215/31 146/222/31 172/223/31
f 145/215/32 144/221/32 146/222/32
f 149/224/55 143/219/55 147/225/55
f 143/219/56 148/218/56 147/225/56
f 149/224/57 150/217/57 143/219/57
f 153/226/33 151/210/33 152/227/33
f 154/228/37 155/229/37 158/192/37
f 156/230/38 157/231/38 31/197/38
f 158/192/28 155/229/28 176/232/28
f 209/233/27 154/228/27 158/192/27
f 177/234/17 159/235/17 178/236/17
f 178/236/17 159/235/17 160/237/17 179/238/17
f 165/239/58 161/240/58 162/241/58
f 161/240/58 165/239/58 163/242/58
f 168/243/59 164/244/59 163/245/59
f 161/246/60 170/247/60 166/248/60
f 167/249/24 165/250/24 159/251/24
f 162/252/61 169/253/61 160/254/61
f 161/240/62 164/255/62 170/256/62
f 164/255/62 161/240/62 163/242/62
f 165/239/63 160/257/63 159/258/63
f 160/257/63 165/239/63 162/241/63
f 163/245/64 167/249/64 168/243/64
f 167/249/64 163/245/64 165/250/64
f 162/252/65 166/248/65 169/253/65
f 166/248/65 162/252/65 161/246/65
f 180/57/26 167/249/26 159/251/26 177/259/26
f 210/260/25 168/243/25 167/249/25 181/58/25
f 210/260/25 182/261/25 168/243/25
f 183/49/20 168/243/20 182/261/20
f 184/25/11 160/254/11 169/253/11 185/262/11
f 211/263/7 185/262/7 169/253/7
f 211/263/7 169/253/7 166/248/7 212/264/7
f 186/265/48 170/247/48 187/266/48
f 188/267/53 164/268/53 189/269/53
f 170/270/53 164/268/53 188/267/53 187/271/53
f 170/247/48 186/265/48 212/264/48 166/248/48
f 160/254/11 184/25/11 179/26/11
f 168/243/20 183/49/20 189/50/20 164/244/20
f 167/249/26 180/57/26 181/58/26
f 156/230/12 31/197/12 175/200/12
f 157/231/10 174/204/10 31/197/10
f 153/226/9 208/208/9 151/210/9
f 152/227/8 151/210/8 173/212/8
f 114/272/48 203/273/48 118/274/48
f 186/265/48 198/14/48 212/264/48
f 197/13/49 203/273/49 204/15/49
f 203/273/50 197/13/50 207/275/50
f 207/275/51 198/14/51 205/276/51
f 198/14/52 207/275/52 197/13/52
f 117/277/53 116/278/53 192/279/53
f 206/280/53 192/279/53 203/281/53
f 203/281/53 207/282/53 206/280/53
f 190/283/53 206/280/53 207/282/53
f 207/282/53 205/284/53 190/283/53
f 187/271/53 188/267/53 205/284/53
f 205/284/53 188/267/53 189/269/53 190/283/53
f 198/14/48 186/265/48 187/266/48 205/276/48
f 198/14/7 195/9/7 185/262/7 211/263/7
f 198/14/7 211/263/7 212/264/7
f 195/9/11 184/25/11 185/262/11
f 190/45/20 183/49/20 182/261/20 191/46/20
f 9/51/25 191/46/25 182/261/25 210/260/25
f 9/51/25 210/260/25 181/58/25
f 2/54/26 180/57/26 177/259/26
f 196/165/17 178/236/17 179/238/17
f 2/164/17 177/234/17 178/236/17 196/165/17
f 28/191/27 209/233/27 158/192/27
f 29/193/28 158/192/28 176/232/28
f 82/213/31 145/215/31 172/223/31
f 78/214/30 171/220/30 145/215/30
f 192/279/53 116/278/53 118/285/53 203/281/53
f 203/273/48 114/272/48 115/286/48 204/15/48
f 201/1/7 204/15/7 115/286/7 113/287/7
f 201/1/7 113/287/7 214/22/7
f 202/7/11 112/21/11 111/288/11
f 194/30/20 110/47/20 117/289/20 192/33/20
f 194/30/25 8/56/25 106/290/25 109/291/25
f 194/30/25 109/291/25 213/48/25
f 8/56/26 107/59/26 106/290/26
f 17/127/12 21/20/12 102/24/12
f 16/128/10 101/18/10 21/20/10
f 25/129/9 100/17/9 14/6/9
f 24/130/8 14/6/8 99/16/8
f 202/186/17 111/292/17 105/293/17 7/190/17
f 7/190/17 105/293/17 108/294/17
