# Blender v2.82 (sub 7) OBJ File: 'SuperSuperHalf.blend'
# www.blender.org
mtllib SuperSuperHalf.mtl
o TAC_SuperSlope2_v6
v 0.440000 -0.937678 0.800000
v 0.440000 -0.937678 0.897678
v -0.440000 -0.937678 0.800000
v -0.440000 -0.937678 0.897678
v 0.440000 -0.825000 0.800000
v 0.440000 -0.897678 0.937678
v 0.440000 -0.800000 0.825000
v 0.440000 -0.800000 0.937678
v -0.440000 -0.825000 0.800000
v -0.440000 -0.800000 0.825000
v -0.440000 -0.897678 0.937678
v -0.440000 -0.800000 0.937678
v -0.475000 -0.800000 0.825000
v -0.475000 -0.800000 0.975000
v 0.475000 -0.800000 0.975000
v 0.475000 -0.800000 0.825000
v 0.475000 -0.825000 0.800000
v -0.475000 -0.825000 0.800000
v -0.350000 -0.921751 -0.421751
v -0.350000 -0.759117 -0.259117
v -0.350000 -0.921044 -0.422459
v -0.350000 -0.758410 -0.259824
v 0.350000 -0.921751 -0.421751
v 0.350000 -0.921044 -0.422459
v 0.350000 -0.759117 -0.259117
v 0.350000 -0.758410 -0.259824
v 0.350000 0.259117 0.759117
v -0.350000 0.259117 0.759117
v 0.350000 0.259824 0.758410
v -0.350000 0.259824 0.758410
v 0.350000 0.421751 0.921751
v 0.350000 0.422459 0.921044
v -0.350000 0.421751 0.921751
v -0.350000 0.422459 0.921044
v 0.485000 -0.271213 0.242929
v 0.475000 -0.271213 0.228787
v 0.060000 -0.271213 0.242929
v 0.050000 -0.271213 0.228787
v -0.475000 -0.982322 -0.482322
v -0.475000 -0.271213 0.228787
v -0.050000 -0.285355 0.214645
v -0.050000 -0.271213 0.228787
v 0.475000 -0.982322 -0.482322
v 0.050000 -0.285355 0.214645
v 0.495000 -0.278284 0.250000
v 0.500000 -0.975000 -0.439645
v 0.500000 0.439645 0.975000
v 0.495000 -0.250000 0.278284
v 0.475000 -0.228787 0.271213
v 0.485000 -0.242929 0.271213
v 0.475000 0.482322 0.982322
v 0.060000 -0.242929 0.271213
v 0.050000 -0.228787 0.271213
v 0.050000 -0.214645 0.285355
v -0.050000 -0.214645 0.285355
v -0.475000 -0.228787 0.271213
v -0.050000 -0.228787 0.271213
v -0.475000 0.482322 0.982322
v -0.485000 -0.271213 0.242929
v -0.060000 -0.271213 0.242929
v -0.050000 -0.285355 0.242929
v -0.060000 -0.278284 0.250000
v -0.485000 -0.242929 0.271213
v -0.060000 -0.242929 0.271213
v -0.050000 -0.242929 0.285355
v -0.060000 -0.250000 0.278284
v -0.050000 -0.292426 0.250000
v -0.050000 -0.250000 0.292426
v 0.050000 -0.242929 0.285355
v 0.050000 -0.250000 0.292426
v 0.050000 -0.285355 0.242929
v 0.050000 -0.292426 0.250000
v -0.495000 -0.278284 0.250000
v -0.495000 -0.250000 0.278284
v 0.060000 -0.278284 0.250000
v 0.060000 -0.250000 0.278284
v -0.500000 -0.975000 -0.439645
v -0.500000 0.439645 0.975000
v 0.500000 -0.775000 0.775000
v 0.500000 -0.975000 0.775000
v 0.475000 -0.975000 0.800000
v 0.475000 -1.000000 0.775000
v -0.500000 -0.775000 0.775000
v 0.500000 -0.775000 0.975000
v 0.475000 -0.775000 1.000000
v 0.475000 -1.000000 -0.475000
v -0.500000 -0.975000 0.775000
v -0.475000 -1.000000 0.775000
v -0.475000 -0.975000 0.800000
v -0.500000 -0.775000 0.975000
v -0.475000 -0.775000 1.000000
v 0.475000 0.475000 1.000000
v -0.475000 -1.000000 -0.475000
v -0.475000 0.475000 1.000000
vt 0.440339 0.615776
vt 0.440308 0.615776
vt 0.440339 0.615490
vt 0.440308 0.615490
vt 0.440330 0.615655
vt 0.440294 0.615655
vt 0.440330 0.615623
vt 0.440317 0.615610
vt 0.440286 0.615647
vt 0.440286 0.615610
vt 0.440285 0.615655
vt 0.440285 0.615623
vt 0.440321 0.615655
vt 0.440330 0.615647
vt 0.440298 0.615610
vt 0.440330 0.615610
vt 0.440308 0.615776
vt 0.440308 0.615490
vt 0.440308 0.615490
vt 0.440308 0.615776
vt 0.628992 0.566010
vt 0.628955 0.566010
vt 0.628992 0.565999
vt 0.628943 0.565999
vt 0.628955 0.566296
vt 0.628943 0.566307
vt 0.628992 0.566307
vt 0.628992 0.566296
vt 0.628792 0.566159
vt 0.628781 0.566159
vt 0.628792 0.566147
vt 0.628781 0.566147
vt 0.629078 0.566147
vt 0.629090 0.566147
vt 0.629078 0.566159
vt 0.629090 0.566159
vt 0.628935 0.566153
vt 0.629010 0.566153
vt 0.628935 0.566153
vt 0.629010 0.566153
vt 0.628935 0.566153
vt 0.629163 0.566153
vt 0.628935 0.566153
vt 0.629163 0.566153
vt 0.628935 0.566153
vt 0.629010 0.566153
vt 0.628935 0.566153
vt 0.629010 0.566153
vt 0.628935 0.566153
vt 0.629163 0.566153
vt 0.628935 0.566153
vt 0.629163 0.566153
vt 0.838098 0.549522
vt 0.941213 0.549522
vt 0.838098 0.583389
vt 0.941213 0.583389
vt 0.628935 0.566153
vt 0.629163 0.566153
vt 0.628935 0.566153
vt 0.629163 0.566153
vt 0.628935 0.566153
vt 0.629010 0.566153
vt 0.628935 0.566153
vt 0.629010 0.566153
vt 0.628935 0.566153
vt 0.629163 0.566153
vt 0.628935 0.566153
vt 0.629163 0.566153
vt 0.628935 0.566153
vt 0.629010 0.566153
vt 0.628935 0.566153
vt 0.629010 0.566153
vt 0.838098 0.583389
vt 0.941213 0.583389
vt 0.838098 0.549522
vt 0.941213 0.549522
vt 0.629085 0.566151
vt 0.629081 0.566155
vt 0.628947 0.566151
vt 0.628943 0.566155
vt 0.628971 0.566039
vt 0.628943 0.565999
vt 0.629046 0.566039
vt 0.629270 0.565999
vt 0.629264 0.566137
vt 0.629270 0.566137
vt 0.628971 0.566267
vt 0.628943 0.566307
vt 0.629046 0.566267
vt 0.629270 0.566307
vt 0.629264 0.566169
vt 0.629270 0.566169
vt 0.628839 0.566018
vt 0.628842 0.566016
vt 0.628837 0.566024
vt 0.629028 0.566274
vt 0.629025 0.566290
vt 0.628653 0.565744
vt 0.628835 0.566005
vt 0.628825 0.566008
vt 0.628831 0.566008
vt 0.628637 0.565741
vt 0.628933 0.566229
vt 0.628933 0.566091
vt 0.628938 0.566226
vt 0.628938 0.566088
vt 0.629514 0.566267
vt 0.629296 0.566169
vt 0.629514 0.566039
vt 0.629296 0.566137
vt 0.629290 0.565999
vt 0.629290 0.566137
vt 0.629588 0.566267
vt 0.629616 0.566307
vt 0.629290 0.566307
vt 0.629290 0.566169
vt 0.629616 0.565999
vt 0.629588 0.566039
vt 0.628859 0.566151
vt 0.628997 0.566151
vt 0.628862 0.566155
vt 0.629000 0.566155
vt 0.628937 0.566154
vt 0.628935 0.566149
vt 0.628941 0.566149
vt 0.628937 0.566146
vt 0.628933 0.566004
vt 0.628938 0.566007
vt 0.628933 0.566142
vt 0.628938 0.566145
vt 0.628933 0.566152
vt 0.628937 0.566146
vt 0.628939 0.566152
vt 0.628941 0.566149
vt 0.440288 0.615633
vt 0.440308 0.615633
vt 0.440288 0.615636
vt 0.440308 0.615636
vt 0.440308 0.615633
vt 0.440308 0.615636
vt 0.440308 0.615633
vt 0.440308 0.615636
vt 0.393129 0.984922
vt 0.393096 0.984922
vt 0.393129 0.984902
vt 0.393096 0.984902
vt 0.440288 0.615640
vt 0.440288 0.615627
vt 0.440147 0.615640
vt 0.440147 0.615627
vt 0.440327 0.615640
vt 0.440327 0.615627
vt 0.440468 0.615627
vt 0.440468 0.615640
vt 0.628930 0.566149
vt 0.628935 0.566149
vt 0.628933 0.566146
vt 0.628932 0.566160
vt 0.628794 0.566156
vt 0.628791 0.566160
vt 0.628937 0.566152
vt 0.628931 0.566152
vt 0.628933 0.566146
vt 0.628930 0.566149
vt 0.628932 0.566160
vt 0.628926 0.566153
vt 0.628932 0.566160
vt 0.628926 0.566153
vt 0.628932 0.566160
vt 0.628794 0.566156
vt 0.628791 0.566160
vt 0.440332 0.615638
vt 0.440299 0.615638
vt 0.628929 0.566160
vt 0.628935 0.566153
vt 0.440312 0.615609
vt 0.440312 0.615641
vt 0.628929 0.566160
vt 0.628935 0.566153
vt 0.628792 0.566156
vt 0.628792 0.566160
vt 0.628934 0.566160
vt 0.628792 0.566156
vt 0.628792 0.566160
vt 0.628934 0.566160
vt 0.629032 0.566018
vt 0.629034 0.566024
vt 0.629028 0.566016
vt 0.628842 0.566274
vt 0.629218 0.565744
vt 0.628845 0.566290
vt 0.629234 0.565741
vt 0.629045 0.566008
vt 0.629036 0.566005
vt 0.629039 0.566008
vt 0.628917 0.566162
vt 0.628928 0.566145
vt 0.628935 0.566153
vt 0.628924 0.566153
vt 0.628929 0.566143
vt 0.628935 0.566153
vt 0.628945 0.566170
vt 0.628928 0.566162
vt 0.628935 0.566153
vt 0.628924 0.566153
vt 0.628929 0.566143
vt 0.628935 0.566153
vt 0.628931 0.566137
vt 0.628941 0.566150
vt 0.628935 0.566153
vt 0.628941 0.566163
vt 0.628929 0.566163
vt 0.628935 0.566153
vt 0.628781 0.566147
vt 0.629090 0.566147
vt 0.628781 0.566159
vt 0.629090 0.566159
vt 0.628789 0.566159
vt 0.628838 0.566147
vt 0.628789 0.566147
vt 0.628941 0.566163
vt 0.628929 0.566163
vt 0.628935 0.566153
vt 0.629090 0.566159
vt 0.628781 0.566159
vt 0.629090 0.566147
vt 0.628781 0.566147
vt 0.628949 0.566161
vt 0.628933 0.566159
vt 0.628935 0.566153
vt 0.628945 0.566140
vt 0.628941 0.566156
vt 0.628935 0.566153
vt 0.628932 0.566307
vt 0.628932 0.565999
vt 0.628941 0.566072
vt 0.628941 0.566467
vt 0.628929 0.566072
vt 0.628929 0.566478
vt 0.628919 0.566156
vt 0.628933 0.566147
vt 0.628935 0.566153
vt 0.629090 0.566156
vt 0.628781 0.566156
vt 0.629090 0.566150
vt 0.628781 0.566150
vt 0.629049 0.566147
vt 0.629037 0.566159
vt 0.628643 0.566147
vt 0.628643 0.566159
vt 0.629228 0.566159
vt 0.628833 0.566159
vt 0.629228 0.566147
vt 0.628822 0.566147
vt 0.628941 0.566039
vt 0.628929 0.566088
vt 0.628941 0.566104
vt 0.628941 0.566478
vt 0.628929 0.566467
vt 0.628941 0.566072
vt 0.628929 0.566072
vt 0.628929 0.566104
vt 0.628929 0.566039
vt 0.628941 0.566039
vt 0.629081 0.566147
vt 0.629081 0.566159
vt 0.629033 0.566147
vt 0.629016 0.566159
vt 0.628943 0.566010
vt 0.628943 0.565999
vt 0.628980 0.566010
vt 0.628992 0.565999
vt 0.628980 0.566296
vt 0.628992 0.566307
vt 0.628943 0.566307
vt 0.628943 0.566296
vt 0.628700 0.565983
vt 0.628765 0.565983
vt 0.628700 0.566377
vt 0.629159 0.565918
vt 0.628765 0.565918
vt 0.629349 0.566307
vt 0.628943 0.566307
vt 0.629349 0.565999
vt 0.628943 0.565999
vt 0.628943 0.565999
vt 0.629349 0.565999
vt 0.628943 0.566307
vt 0.629349 0.566307
vt 0.629106 0.565918
vt 0.629106 0.565983
vt 0.628711 0.565918
vt 0.629171 0.566377
vt 0.629171 0.565983
vn 0.0000 -1.0000 0.0000
vn 1.0000 0.0000 0.0000
vn -1.0000 0.0000 0.0000
vn 0.0000 -0.7071 0.7071
vn 0.0000 0.0000 1.0000
vn 0.0000 -0.7070 -0.7073
vn 0.0000 -0.7072 -0.7070
vn -0.0000 -0.7069 -0.7073
vn 0.0000 0.7071 0.7071
vn 0.0000 0.7071 -0.7071
vn 0.0000 -0.7071 -0.7071
vn 0.0000 0.7073 0.7069
vn 0.0000 0.7072 0.7070
vn 0.0000 1.0000 0.0000
vn 0.7071 0.5000 -0.5000
vn 0.7072 0.5000 -0.4999
vn 0.0000 0.0000 -1.0000
vn 0.7071 0.5000 0.5000
vn 0.7071 -0.5000 -0.5000
vn -0.7071 0.5000 0.5000
vn -0.7071 -0.5000 -0.5000
vn -0.7071 0.5000 -0.5000
vn -0.7072 0.5000 -0.4999
vn 0.9045 -0.3015 0.3015
vn 0.5773 -0.5774 0.5773
vn -0.9045 -0.3015 0.3015
vn 0.5773 -0.5773 0.5774
vn 0.8605 -0.1949 -0.4706
vn -0.5773 -0.5774 0.5773
vn -0.7071 0.0000 0.7071
vn -0.5773 -0.5773 0.5774
vn 0.8605 0.4706 0.1949
vn -0.8605 -0.1949 -0.4706
vn 0.0000 -0.3827 -0.9239
vn -0.7071 -0.7071 0.0000
vn -0.8605 0.4706 0.1949
vn 0.0000 0.9239 0.3827
vn 0.7071 0.0000 0.7071
vn 0.7071 -0.7071 0.0000
usemtl Steel_-_Satin
s 1
f 1/1/1 2/2/1 3/3/1
f 3/3/1 2/2/1 4/4/1
f 1/5/2 5/6/2 2/7/2
f 2/7/2 5/6/2 6/8/2
f 6/8/2 5/6/2 7/9/2
f 6/8/2 7/9/2 8/10/2
f 3/11/3 4/12/3 9/13/3
f 9/13/3 4/12/3 10/14/3
f 10/14/3 4/12/3 11/15/3
f 10/14/3 11/15/3 12/16/3
f 2/2/4 6/17/4 4/4/4
f 4/4/4 6/17/4 11/18/4
f 12/19/5 11/18/5 8/20/5
f 8/20/5 11/18/5 6/17/5
f 10/21/1 12/22/1 13/23/1
f 13/23/1 12/22/1 14/24/1
f 14/24/1 12/22/1 8/25/1
f 14/24/1 8/25/1 15/26/1
f 15/26/1 8/25/1 16/27/1
f 16/27/1 8/25/1 7/28/1
f 5/29/4 17/30/4 7/31/4
f 7/31/4 17/30/4 16/32/4
f 10/33/4 13/34/4 9/35/4
f 9/35/4 13/34/4 18/36/4
f 19/37/3 20/38/3 21/39/3
f 21/39/3 20/38/3 22/40/3
f 23/41/6 19/42/7 24/43/8
f 24/43/8 19/42/7 21/44/7
f 25/45/2 23/46/2 26/47/2
f 26/47/2 23/46/2 24/48/2
f 20/49/9 25/50/9 22/51/9
f 22/51/9 25/50/9 26/52/9
f 22/53/10 26/54/10 21/55/10
f 21/55/10 26/54/10 24/56/10
f 27/57/11 28/58/11 29/59/11
f 29/59/11 28/58/11 30/60/11
f 31/61/2 27/62/2 32/63/2
f 32/63/2 27/62/2 29/64/2
f 33/65/9 31/66/12 34/67/13
f 34/67/13 31/66/12 32/68/12
f 28/69/3 33/70/3 30/71/3
f 30/71/3 33/70/3 34/72/3
f 34/73/10 32/74/10 30/75/10
f 30/75/10 32/74/10 29/76/10
f 35/77/14 36/78/14 37/79/14
f 37/79/14 36/78/14 38/80/14
f 19/81/10 39/82/10 20/83/10
f 20/83/10 39/82/10 40/84/10
f 20/83/10 40/84/10 41/85/10
f 41/85/10 40/84/10 42/86/10
f 19/81/10 23/87/10 39/82/10
f 39/82/10 23/87/10 43/88/10
f 43/88/10 23/87/10 25/89/10
f 43/88/10 25/89/10 36/90/10
f 36/90/10 25/89/10 44/91/10
f 36/90/10 44/91/10 38/92/10
f 25/89/10 20/83/10 44/91/10
f 44/91/10 20/83/10 41/85/10
f 35/93/15 45/94/15 36/95/15
f 36/95/15 45/94/15 46/96/15
f 36/95/15 46/96/15 43/97/15
f 46/96/15 45/94/15 47/98/15
f 47/98/15 45/94/15 48/99/16
f 47/98/15 48/99/16 49/100/15
f 49/100/15 48/99/16 50/101/15
f 49/100/15 51/102/15 47/98/15
f 50/103/17 52/104/17 49/105/17
f 49/105/17 52/104/17 53/106/17
f 27/107/10 54/108/10 28/109/10
f 28/109/10 54/108/10 55/110/10
f 28/109/10 55/110/10 56/111/10
f 56/111/10 55/110/10 57/112/10
f 31/113/10 51/114/10 27/107/10
f 27/107/10 51/114/10 49/115/10
f 27/107/10 49/115/10 54/108/10
f 54/108/10 49/115/10 53/116/10
f 51/114/10 31/113/10 58/117/10
f 58/117/10 31/113/10 33/118/10
f 58/117/10 33/118/10 28/109/10
f 56/111/10 58/117/10 28/109/10
f 59/119/14 60/120/14 40/121/14
f 40/121/14 60/120/14 42/122/14
f 42/123/18 60/124/18 61/125/18
f 61/125/18 60/124/18 62/126/18
f 63/127/17 56/128/17 64/129/17
f 64/129/17 56/128/17 57/130/17
f 57/131/19 65/132/19 64/133/19
f 64/133/19 65/132/19 66/134/19
f 61/135/2 65/136/2 67/137/2
f 67/137/2 65/136/2 68/138/2
f 65/136/11 69/139/11 68/138/11
f 68/138/11 69/139/11 70/140/11
f 69/139/3 71/141/3 70/140/3
f 70/140/3 71/141/3 72/142/3
f 71/141/9 61/135/9 72/142/9
f 72/142/9 61/135/9 67/137/9
f 72/143/10 67/144/10 70/145/10
f 70/145/10 67/144/10 68/146/10
f 61/135/10 62/147/10 65/136/10
f 65/136/10 62/147/10 66/148/10
f 66/148/10 62/147/10 73/149/10
f 66/148/10 73/149/10 74/150/10
f 71/141/10 69/139/10 75/151/10
f 75/151/10 69/139/10 76/152/10
f 75/151/10 76/152/10 48/153/10
f 48/153/10 45/154/10 75/151/10
f 38/80/20 71/155/20 37/156/20
f 37/156/20 71/155/20 75/157/20
f 37/79/9 75/158/9 35/159/9
f 35/159/9 75/158/9 45/160/9
f 53/161/21 52/162/21 69/163/21
f 69/163/21 52/162/21 76/164/21
f 53/161/3 69/165/3 54/166/3
f 42/123/2 61/167/2 41/168/2
f 64/133/11 66/169/11 63/170/11
f 63/170/11 66/169/11 74/171/11
f 44/172/14 41/173/14 71/141/14
f 71/141/14 41/173/14 61/135/14
f 71/174/3 38/80/3 44/175/3
f 65/136/17 55/176/17 69/139/17
f 69/139/17 55/176/17 54/177/17
f 65/178/2 57/131/2 55/179/2
f 60/180/9 59/119/9 62/181/9
f 62/181/9 59/119/9 73/182/9
f 52/183/11 50/103/11 76/184/11
f 76/184/11 50/103/11 48/185/11
f 59/186/22 40/187/22 73/188/22
f 73/188/22 40/187/22 77/189/22
f 73/188/22 77/189/22 78/190/22
f 40/187/22 39/191/22 77/189/22
f 58/192/22 56/193/22 78/190/22
f 78/190/22 56/193/22 74/194/23
f 78/190/22 74/194/23 73/188/22
f 56/193/22 63/195/22 74/194/23
f 79/196/24 16/197/24 17/198/24
f 80/199/25 81/200/25 82/201/25
f 83/202/26 18/203/26 13/204/26
f 84/205/27 85/206/27 15/207/27
f 46/208/28 86/209/28 43/210/28
f 87/211/29 88/212/29 89/213/29
f 81/214/4 89/215/4 82/216/4
f 82/216/4 89/215/4 88/217/4
f 83/202/30 87/218/30 18/219/30
f 18/219/30 87/218/30 89/220/30
f 90/221/31 14/222/31 91/223/31
f 14/224/4 15/225/4 91/226/4
f 91/226/4 15/225/4 85/227/4
f 47/228/32 51/229/32 92/230/32
f 77/231/33 39/232/33 93/233/33
f 43/88/34 86/234/34 39/82/34
f 39/82/34 86/234/34 93/235/34
f 87/236/35 77/237/35 88/238/35
f 88/238/35 77/237/35 93/239/35
f 78/240/36 94/241/36 58/242/36
f 51/243/37 58/244/37 92/245/37
f 92/245/37 58/244/37 94/246/37
f 94/247/30 78/248/30 91/249/30
f 91/249/30 78/248/30 90/250/30
f 84/251/38 47/252/38 85/253/38
f 85/253/38 47/252/38 92/254/38
f 14/24/35 90/255/35 13/256/35
f 13/256/35 90/255/35 83/257/35
f 86/258/39 46/259/39 82/260/39
f 82/260/39 46/259/39 80/261/39
f 79/262/39 84/263/39 16/197/39
f 16/197/39 84/263/39 15/264/39
f 81/265/38 80/266/38 17/267/38
f 17/267/38 80/266/38 79/268/38
f 9/269/5 18/270/5 3/271/5
f 3/271/5 18/270/5 89/272/5
f 3/271/5 89/272/5 1/273/5
f 1/273/5 89/272/5 81/274/5
f 1/273/5 81/274/5 17/275/5
f 17/275/5 5/276/5 1/273/5
f 87/277/3 83/278/3 77/279/3
f 77/279/3 83/278/3 78/280/3
f 78/280/3 83/278/3 90/281/3
f 86/282/1 82/283/1 93/284/1
f 93/284/1 82/283/1 88/285/1
f 94/286/5 91/287/5 92/288/5
f 92/288/5 91/287/5 85/289/5
f 84/290/2 79/291/2 47/292/2
f 47/292/2 79/291/2 46/293/2
f 46/293/2 79/291/2 80/294/2
