# This file uses centimeters as units for non-parametric coordinates.

g default
v -0.500000 -0.458349 0.500000
v 1.500000 -0.458349 0.500000
v -0.500000 1.005091 0.500000
v 1.500000 1.005091 0.500000
v -0.500000 1.005091 -1.500000
v 1.500000 1.005091 -1.500000
v -0.500000 -0.458349 -1.500000
v 1.500000 -0.458349 -1.500000
v 0.037144 1.005091 -0.037144
v 0.962856 1.005091 -0.037144
v 0.962856 1.005091 -0.962856
v 0.037144 1.005091 -0.962856
v 0.037144 1.500000 -0.037144
v 0.962856 1.500000 -0.037144
v 0.962856 1.500000 -0.962856
v 0.037144 1.500000 -0.962856
vt 0.375000 0.000000
vt 0.625000 0.000000
vt 0.375004 0.468188
vt 0.625000 0.468163
vt 0.375012 0.281903
vt 0.624987 0.281900
vt 0.375000 0.750000
vt 0.625000 0.750000
vt 0.375000 1.000000
vt 0.625000 1.000000
vt 0.875000 0.000000
vt 0.874987 0.468100
vt 0.125000 0.000000
vt 0.125022 0.468147
vt 0.351138 0.228229
vt 0.646818 0.226091
vt 0.647864 0.522864
vt 0.352182 0.522814
vt 0.375000 0.250000
vt 0.625000 0.250000
vt 0.625000 0.500000
vt 0.375000 0.500000
vt 0.375000 0.250000
vt 0.625000 0.250000
vt 0.625000 0.500000
vt 0.375000 0.500000
vn 0.000000 0.000000 1.000000
vn 0.000000 0.000000 1.000000
vn 0.000000 0.000000 1.000000
vn 0.000000 0.000000 1.000000
vn 0.000000 1.000000 0.000000
vn 0.000000 1.000000 0.000000
vn 0.000000 1.000000 0.000000
vn 0.000000 1.000000 0.000000
vn 0.000000 0.000000 -1.000000
vn 0.000000 0.000000 -1.000000
vn 0.000000 0.000000 -1.000000
vn 0.000000 0.000000 -1.000000
vn 0.000000 -1.000000 0.000000
vn 0.000000 -1.000000 0.000000
vn 0.000000 -1.000000 0.000000
vn 0.000000 -1.000000 0.000000
vn 1.000000 0.000000 0.000000
vn 1.000000 0.000000 0.000000
vn 1.000000 0.000000 0.000000
vn 1.000000 0.000000 0.000000
vn -1.000000 0.000000 0.000000
vn -1.000000 0.000000 0.000000
vn -1.000000 0.000000 0.000000
vn -1.000000 0.000000 0.000000
vn 0.000000 1.000000 0.000000
vn 0.000000 1.000000 0.000000
vn 0.000000 1.000000 0.000000
vn 0.000000 1.000000 0.000000
vn 0.000000 1.000000 0.000000
vn 0.000000 1.000000 0.000000
vn 0.000000 1.000000 0.000000
vn 0.000000 1.000000 0.000000
vn 0.000000 1.000000 -0.000000
vn 0.000000 1.000000 -0.000000
vn 0.000000 1.000000 -0.000000
vn 0.000000 1.000000 -0.000000
vn 0.000000 1.000000 0.000000
vn 0.000000 1.000000 0.000000
vn 0.000000 1.000000 0.000000
vn 0.000000 1.000000 0.000000
vn 0.000000 0.000000 1.000000
vn 0.000000 0.000000 1.000000
vn 0.000000 0.000000 1.000000
vn 0.000000 0.000000 1.000000
vn 1.000000 0.000000 0.000000
vn 1.000000 0.000000 0.000000
vn 1.000000 0.000000 0.000000
vn 1.000000 0.000000 0.000000
vn 0.000000 0.000000 -1.000000
vn 0.000000 0.000000 -1.000000
vn 0.000000 0.000000 -1.000000
vn 0.000000 0.000000 -1.000000
vn -1.000000 0.000000 0.000000
vn -1.000000 0.000000 0.000000
vn -1.000000 0.000000 0.000000
vn -1.000000 0.000000 0.000000
s off
g col_body
f 1/1/1 2/2/2 4/4/3 3/3/4
f 13/23/5 14/24/6 15/25/7 16/26/8
f 5/5/9 6/6/10 8/8/11 7/7/12
f 7/7/13 8/8/14 2/10/15 1/9/16
f 2/2/17 8/11/18 6/12/19 4/4/20
f 7/13/21 1/1/22 3/3/23 5/14/24
f 3/15/25 4/16/26 10/20/27 9/19/28
f 4/16/29 6/17/30 11/21/31 10/20/32
f 6/17/33 5/18/34 12/22/35 11/21/36
f 5/18/37 3/15/38 9/19/39 12/22/40
f 9/19/41 10/20/42 14/24/43 13/23/44
f 10/20/45 11/21/46 15/25/47 14/24/48
f 11/21/49 12/22/50 16/26/51 15/25/52
f 12/22/53 9/19/54 13/23/55 16/26/56
