# Blender v2.82 (sub 7) OBJ File: 'HS Sentinel Cab.blend'
# www.blender.org
mtllib HS Sentinel Cab.mtl
o HS_Sentinel_Cab_HS_Inset_Slope_Cube_HS_One_Block.002
v -0.130883 -0.500000 0.133220
v -0.130883 -0.500000 -0.130826
v 0.001139 -0.600000 0.001198
v 0.133162 -0.500000 0.133220
v 0.001139 -0.600000 0.001198
v 0.133162 -0.500000 -0.130825
v 0.001139 -0.600000 0.001198
v -0.130883 -0.500000 -0.130826
v 0.133162 -0.500000 -0.130825
v 0.133162 -0.500000 0.133220
v -0.130883 -0.500000 0.133220
v 0.001139 -0.600000 0.001198
v -0.130883 -0.132023 -0.513059
v -0.130883 0.132023 -0.513059
v 0.001139 0.000000 -0.613061
v 0.133164 -0.132023 -0.513060
v 0.001139 0.000000 -0.613061
v 0.133164 0.132023 -0.513060
v 0.001139 0.000000 -0.613061
v -0.130883 0.132023 -0.513059
v 0.133164 0.132023 -0.513060
v 0.133164 -0.132023 -0.513060
v -0.130883 -0.132023 -0.513059
v 0.001139 0.000000 -0.613061
v -0.130883 -0.500000 1.087945
v -0.130883 -0.500000 0.823900
v 0.001139 -0.600000 0.955923
v 0.133162 -0.500000 1.087945
v 0.001139 -0.600000 0.955923
v 0.133162 -0.500000 0.823901
v 0.001139 -0.600000 0.955923
v -0.130883 -0.500000 0.823900
v 0.133162 -0.500000 0.823901
v 0.133162 -0.500000 1.087945
v -0.130883 -0.500000 1.087945
v 0.001139 -0.600000 0.955923
v 0.500000 0.500000 -0.514928
v 0.500000 -0.500000 1.485072
v -0.500000 0.500000 -0.514928
v -0.500000 -0.500000 1.485072
v 0.276831 0.449921 -0.141130
v 0.276831 -0.289586 1.372312
v 0.337776 0.366025 0.485072
v 0.337776 0.000000 1.217123
v -0.276831 -0.289586 1.372312
v -0.276831 0.449921 -0.141130
v -0.337776 0.000000 1.217123
v -0.337776 0.366025 0.485072
v 0.500000 0.500000 -0.514928
v -0.500000 0.500000 -0.514928
v -0.405700 0.612528 -0.452123
v -0.405700 0.489360 -0.447275
v -0.406443 0.612528 -0.452196
v -0.407388 0.489360 -0.447441
v -0.407156 0.612528 -0.452412
v -0.409012 0.489360 -0.447933
v -0.407814 0.612528 -0.452764
v -0.410507 0.489360 -0.448733
v -0.408391 0.612528 -0.453237
v -0.411819 0.489360 -0.449809
v -0.408864 0.612528 -0.453813
v -0.412895 0.489360 -0.451120
v -0.409215 0.612528 -0.454471
v -0.413694 0.489360 -0.452616
v -0.409432 0.612528 -0.455185
v -0.414187 0.489360 -0.454239
v -0.409505 0.612528 -0.455927
v -0.414353 0.489360 -0.455927
v -0.409432 0.612528 -0.456669
v -0.414187 0.489360 -0.457615
v -0.409215 0.612528 -0.457383
v -0.413694 0.489360 -0.459238
v -0.408864 0.612528 -0.458041
v -0.412895 0.489360 -0.460734
v -0.408391 0.612528 -0.458617
v -0.411819 0.489360 -0.462045
v -0.407814 0.612528 -0.459091
v -0.410507 0.489360 -0.463121
v -0.407156 0.612528 -0.459442
v -0.409012 0.489360 -0.463921
v -0.406443 0.612528 -0.459659
v -0.407388 0.489360 -0.464413
v -0.405700 0.612528 -0.459732
v -0.405700 0.489360 -0.464579
v -0.404958 0.612528 -0.459659
v -0.404012 0.489360 -0.464413
v -0.404244 0.612528 -0.459442
v -0.402389 0.489360 -0.463921
v -0.403587 0.612528 -0.459091
v -0.400893 0.489360 -0.463121
v -0.403010 0.612528 -0.458617
v -0.399582 0.489360 -0.462045
v -0.402537 0.612528 -0.458041
v -0.398506 0.489360 -0.460734
v -0.402185 0.612528 -0.457383
v -0.397707 0.489360 -0.459238
v -0.401969 0.612528 -0.456669
v -0.397214 0.489360 -0.457615
v -0.401896 0.612528 -0.455927
v -0.397048 0.489360 -0.455927
v -0.401969 0.612528 -0.455185
v -0.397214 0.489360 -0.454239
v -0.402185 0.612528 -0.454471
v -0.397707 0.489360 -0.452616
v -0.402537 0.612528 -0.453813
v -0.398506 0.489360 -0.451120
v -0.403010 0.612528 -0.453237
v -0.399582 0.489360 -0.449809
v -0.403587 0.612528 -0.452764
v -0.400893 0.489360 -0.448733
v -0.404244 0.612528 -0.452412
v -0.402389 0.489360 -0.447933
v -0.404958 0.612528 -0.452196
v -0.404012 0.489360 -0.447441
v 0.387870 -0.500000 -0.514928
v 0.500000 -0.387870 -0.514928
v 0.500000 -0.500000 -0.290667
v -0.500000 -0.500000 -0.297727
v -0.500000 -0.391400 -0.514928
v -0.391400 -0.500000 -0.514928
v 0.337810 -0.343336 1.401116
v -0.002400 -0.500000 1.485072
v 0.500000 -0.500000 1.485072
v -0.500000 -0.500000 1.485072
v 0.002400 -0.500000 1.485072
v -0.337810 -0.343336 1.401116
v 0.337776 0.000000 1.217123
v 0.500000 -0.134037 1.104346
v 0.337810 -0.343336 1.401116
v -0.337776 0.000000 1.217123
v -0.337810 -0.343336 1.401116
v -0.500000 -0.133823 1.104745
v 0.276831 0.366025 0.485072
v 0.337776 0.458013 -0.201535
v -0.337776 0.458013 -0.201535
v -0.276831 0.366025 0.485072
v 0.276831 0.000000 1.217123
v -0.276831 0.000000 1.217123
v 0.337776 -0.343304 1.401099
v -0.337776 -0.343304 1.401099
v 0.337776 0.366025 0.485072
v 0.500000 0.432589 -0.011768
v 0.500000 -0.122331 1.098072
v 0.337776 0.000000 1.217123
v -0.500000 0.431406 -0.002933
v -0.340235 0.366025 0.485072
v -0.340235 0.001906 1.213311
v -0.500000 -0.118264 1.096407
vt 0.152344 0.675588
vt 0.179494 0.648437
vt 0.402344 0.648437
vt 0.402344 0.898437
vt 0.180376 0.898437
vt 0.152344 0.870405
vt 0.625000 0.500000
vt 0.875000 0.500000
vt 0.875000 0.500000
vt 0.625000 0.500000
vt 0.162213 0.855001
vt 0.162221 0.855009
vt 0.123047 0.814453
vt 0.233752 0.814453
vt 0.162213 0.855001
vt 0.202088 0.829658
vt 0.202088 0.853198
vt 0.202087 0.853199
vt 0.196628 0.841344
vt 0.196628 0.841511
vt 0.202087 0.829656
vt 0.808823 0.077257
vt 0.820083 0.077257
vt 0.820083 0.083625
vt 0.808823 0.083625
vt 0.802171 0.043217
vt 0.818923 0.043217
vt 0.818923 0.058346
vt 0.802171 0.058346
vt 0.821874 0.037707
vt 0.821874 0.067762
vt 0.806154 0.067762
vt 0.806154 0.037707
vt 0.271025 0.683594
vt 0.271025 0.808594
vt 0.271025 0.808594
vt 0.271025 0.808594
vt 0.271025 0.683594
vt 0.408663 0.754018
vt 0.239775 0.754018
vt 0.199219 0.714844
vt 0.449219 0.714844
vt 0.244600 0.828125
vt 0.244600 0.703125
vt 0.245215 0.703125
vt 0.245215 0.827474
vt 0.244600 0.828125
vt 0.248047 0.855009
vt 0.162221 0.855009
vt 0.248047 0.855009
vt 0.414174 0.959444
vt 0.500000 0.959444
vt 0.500000 0.959444
vt 0.414166 0.959452
vt 0.414166 0.959452
vt 0.375000 0.750000
vt 0.375000 0.750000
vt 0.375000 0.875600
vt 0.375000 0.874400
vt 0.375000 1.000000
vt 0.375000 1.000000
vt 0.324695 0.608189
vt 0.294653 0.622802
vt 0.290763 0.621760
vt 0.309924 0.603882
vt 0.324219 0.607712
vt 0.485705 1.000000
vt 0.414174 0.959444
vt 0.642575 0.833272
vt 0.642575 0.833644
vt 0.642552 0.833644
vt 0.642552 0.833272
vt 0.650911 0.825733
vt 0.650911 0.838329
vt 0.650124 0.838329
vt 0.650124 0.825733
vt 0.649337 0.838329
vt 0.649337 0.825733
vt 0.642505 0.833272
vt 0.642505 0.833644
vt 0.642482 0.833644
vt 0.642482 0.833272
vt 0.642458 0.833644
vt 0.642458 0.833272
vt 0.633213 0.799247
vt 0.633213 0.814034
vt 0.632289 0.814034
vt 0.632289 0.799247
vt 0.631365 0.814034
vt 0.631365 0.799247
vt 0.630441 0.814034
vt 0.630441 0.799247
vt 0.629516 0.814034
vt 0.629516 0.799247
vt 0.628592 0.814034
vt 0.628592 0.799247
vt 0.627668 0.814034
vt 0.627668 0.799247
vt 0.626744 0.814034
vt 0.626744 0.799247
vt 0.625820 0.814034
vt 0.625820 0.799247
vt 0.624895 0.814034
vt 0.624895 0.799247
vt 0.623971 0.814034
vt 0.623971 0.799247
vt 0.623047 0.814034
vt 0.623047 0.799247
vt 0.622123 0.814034
vt 0.622123 0.799247
vt 0.621198 0.814034
vt 0.621198 0.799247
vt 0.620274 0.814034
vt 0.620274 0.799247
vt 0.619350 0.814034
vt 0.619350 0.799247
vt 0.618426 0.814034
vt 0.618426 0.799247
vt 0.617501 0.814034
vt 0.617501 0.799247
vt 0.616577 0.814034
vt 0.616577 0.799247
vt 0.615653 0.814034
vt 0.615653 0.799247
vt 0.614729 0.814034
vt 0.614729 0.799247
vt 0.613805 0.814034
vt 0.613805 0.799247
vt 0.612880 0.814034
vt 0.612880 0.799247
vt 0.611956 0.814034
vt 0.611956 0.799247
vt 0.611032 0.814034
vt 0.611032 0.799247
vt 0.610108 0.814034
vt 0.610108 0.799247
vt 0.296822 0.485388
vt 0.250000 0.490000
vt 0.203179 0.485389
vt 0.158156 0.471731
vt 0.116663 0.449553
vt 0.080295 0.419706
vt 0.050447 0.383337
vt 0.028269 0.341844
vt 0.014612 0.296822
vt 0.010000 0.250000
vt 0.014611 0.203179
vt 0.028269 0.158156
vt 0.050447 0.116663
vt 0.080294 0.080294
vt 0.116663 0.050447
vt 0.158156 0.028269
vt 0.203178 0.014612
vt 0.250000 0.010000
vt 0.296822 0.014612
vt 0.341844 0.028269
vt 0.383337 0.050447
vt 0.419706 0.080294
vt 0.449553 0.116663
vt 0.471731 0.158156
vt 0.485388 0.203178
vt 0.490000 0.250000
vt 0.485388 0.296822
vt 0.471731 0.341844
vt 0.449553 0.383337
vt 0.419706 0.419706
vt 0.383337 0.449553
vt 0.341844 0.471731
vt 0.609183 0.814034
vt 0.609183 0.799247
vt 0.608259 0.814034
vt 0.608259 0.799247
vt 0.627784 0.808875
vt 0.627893 0.808864
vt 0.627997 0.808832
vt 0.628094 0.808780
vt 0.628179 0.808711
vt 0.628248 0.808626
vt 0.628300 0.808530
vt 0.628332 0.808425
vt 0.628342 0.808316
vt 0.628332 0.808207
vt 0.628300 0.808102
vt 0.628248 0.808005
vt 0.628179 0.807921
vt 0.628094 0.807851
vt 0.627997 0.807799
vt 0.627893 0.807768
vt 0.627784 0.807757
vt 0.627675 0.807768
vt 0.627570 0.807799
vt 0.627473 0.807851
vt 0.627388 0.807921
vt 0.627319 0.808005
vt 0.627267 0.808102
vt 0.627235 0.808207
vt 0.627225 0.808316
vt 0.627235 0.808425
vt 0.627267 0.808530
vt 0.627319 0.808626
vt 0.627388 0.808711
vt 0.627473 0.808780
vt 0.627570 0.808832
vt 0.627675 0.808864
vt 0.323530 0.638672
vt 0.351562 0.638672
vt 0.351562 0.666704
vt 0.236328 0.697072
vt 0.236328 0.669922
vt 0.263478 0.669922
vt 0.125000 0.654103
vt 0.152150 0.626953
vt 0.346967 0.626953
vt 0.375000 0.654986
vt 0.375000 0.876953
vt 0.125000 0.876953
vt 0.118681 0.796987
vt 0.118681 0.882812
vt 0.118681 0.882812
vt 0.078125 0.820707
vt 0.078125 0.757812
vt 0.214538 0.837175
vt 0.217464 0.836390
vt 0.248047 0.851272
vt 0.248047 0.851272
vt 0.233752 0.855102
vt 0.348116 0.806641
vt 0.348116 0.720815
vt 0.388672 0.681641
vt 0.388672 0.745640
vt 0.348731 0.806641
vt 0.624350 0.794998
vt 0.624350 0.801366
vt 0.623110 0.801366
vt 0.623110 0.794384
vt 0.682116 0.779496
vt 0.670856 0.779496
vt 0.669616 0.778882
vt 0.683355 0.778882
vt 0.606156 0.812217
vt 0.606156 0.805849
vt 0.607395 0.805235
vt 0.607395 0.812217
vt 0.654902 0.790412
vt 0.654902 0.805540
vt 0.653058 0.805540
vt 0.653058 0.790412
vt 0.622048 0.834994
vt 0.622048 0.819865
vt 0.623892 0.819865
vt 0.623892 0.834994
vt 0.643601 0.780251
vt 0.627881 0.780251
vt 0.624965 0.776942
vt 0.643601 0.776942
vt 0.689889 0.830459
vt 0.705609 0.830459
vt 0.705609 0.833767
vt 0.686973 0.833767
vt 0.620130 0.791102
vt 0.620130 0.821158
vt 0.617214 0.824466
vt 0.617214 0.787794
vt 0.356194 0.697661
vt 0.339553 0.759766
vt 0.279569 0.819750
vt 0.123047 0.662798
vt 0.151079 0.634766
vt 0.373047 0.634766
vt 0.373047 0.634766
vt 0.123047 0.884766
vt 0.123047 0.884766
vt 0.285156 0.703125
vt 0.285156 0.785185
vt 0.199219 0.574219
vt 0.199219 0.574219
vt 0.432070 0.760219
vt 0.449219 0.824219
vt 0.449219 0.824219
vt 0.226369 0.824219
vt 0.199219 0.797069
vt 0.061421 0.061665
vt 0.061421 0.001052
vt 0.031116 0.031363
vt 0.000811 0.061665
vt 0.031116 0.031363
vt 0.000811 0.001052
vt 0.031116 0.031363
vt 0.061421 0.001052
vt 0.000811 0.001052
vt 0.000811 0.061665
vt 0.061421 0.061665
vt 0.031116 0.031363
vt 0.061458 0.000888
vt 0.000848 0.000888
vt 0.031152 0.031198
vt 0.061458 0.061501
vt 0.031152 0.031198
vt 0.000848 0.061501
vt 0.031152 0.031198
vt 0.000848 0.000888
vt 0.000848 0.061501
vt 0.061458 0.061501
vt 0.061458 0.000888
vt 0.031152 0.031198
vt 0.061421 0.061665
vt 0.061421 0.001052
vt 0.031116 0.031363
vt 0.000811 0.061665
vt 0.031116 0.031363
vt 0.000811 0.001052
vt 0.031116 0.031363
vt 0.061421 0.001052
vt 0.000811 0.001052
vt 0.000811 0.061665
vt 0.061421 0.061665
vt 0.031116 0.031363
vn -0.0000 -0.0000 -1.0000
vn 0.0000 0.0000 1.0000
vn 0.1651 0.5932 0.7880
vn 0.0000 0.4723 0.8814
vn 0.0000 0.9911 0.1328
vn 0.0000 0.8944 0.4472
vn 0.0000 0.4731 0.8810
vn -0.7072 0.3340 0.6231
vn -0.1646 0.5929 0.7883
vn 0.0979 -0.0391 -0.9944
vn 0.2901 -0.0391 -0.9562
vn 0.4710 -0.0391 -0.8813
vn 0.6339 -0.0391 -0.7724
vn 0.7724 -0.0391 -0.6339
vn 0.8813 -0.0391 -0.4710
vn 0.9562 -0.0391 -0.2901
vn 0.9944 -0.0391 -0.0980
vn 0.9944 -0.0391 0.0980
vn 0.9562 -0.0391 0.2901
vn 0.8812 -0.0391 0.4710
vn 0.7724 -0.0391 0.6339
vn 0.6339 -0.0391 0.7724
vn 0.4711 -0.0391 0.8812
vn 0.2900 -0.0391 0.9562
vn 0.0980 -0.0391 0.9944
vn -0.0980 -0.0391 0.9944
vn -0.2900 -0.0391 0.9562
vn -0.4711 -0.0391 0.8812
vn -0.6339 -0.0391 0.7724
vn -0.7724 -0.0391 0.6339
vn -0.8812 -0.0391 0.4711
vn -0.9562 -0.0391 0.2901
vn -0.9944 -0.0391 0.0979
vn -0.9944 -0.0391 -0.0979
vn -0.9562 -0.0391 -0.2901
vn -0.8812 -0.0391 -0.4711
vn -0.7724 -0.0391 -0.6339
vn -0.6339 -0.0391 -0.7724
vn -0.4710 -0.0391 -0.8813
vn 0.0000 1.0000 0.0000
vn -0.2901 -0.0391 -0.9562
vn -0.0979 -0.0391 -0.9944
vn 0.0000 -1.0000 0.0000
vn 0.6667 -0.6667 -0.3333
vn -0.6667 -0.6667 -0.3333
vn 0.7082 0.3335 0.6223
vn 0.7080 0.6316 0.3158
vn 1.0000 0.0000 0.0000
vn -0.7071 0.6325 0.3162
vn -1.0000 0.0000 0.0000
vn -0.6038 -0.7971 0.0000
vn 0.6038 -0.7971 0.0000
vn 0.0000 -0.7971 -0.6038
vn 0.0000 -0.7971 0.6038
vn -0.6038 0.0000 -0.7971
vn 0.6038 0.0000 -0.7971
vn -0.0000 0.6038 -0.7971
vn -0.0000 -0.6038 -0.7971
usemtl Material
s off
f 120/1/1 119/2/1 39/3/1 37/4/1 116/5/1 115/6/1
f 37/7/2 39/8/2 50/9/2 49/10/2
f 121/11/3 122/12/3 123/13/3 128/14/3 129/15/3
f 139/16/4 140/17/4 126/18/4 125/19/4 122/20/4 121/21/4
f 41/22/5 46/23/5 136/24/5 133/25/5
f 133/26/6 136/27/6 138/28/6 137/29/6
f 137/30/4 138/31/4 45/32/4 42/33/4
f 43/34/2 44/35/2 127/36/2 144/37/2 141/38/2
f 135/39/5 134/40/5 49/41/5 50/42/5
f 47/43/6 48/44/6 146/45/6 147/46/6 130/47/6
f 44/48/7 139/49/7 121/11/7 129/15/7 127/50/7
f 140/51/7 47/52/7 130/53/7 131/54/7 126/55/7
f 38/56/2 123/57/2 122/58/2 125/59/2 124/60/2 40/61/2
f 147/62/8 148/63/8 132/64/8 131/65/8 130/66/8
f 131/54/9 132/67/9 124/60/9 125/68/9 126/55/9
f 51/69/10 52/70/10 54/71/10 53/72/10
f 53/73/11 54/74/11 56/75/11 55/76/11
f 55/76/12 56/75/12 58/77/12 57/78/12
f 57/79/13 58/80/13 60/81/13 59/82/13
f 59/82/14 60/81/14 62/83/14 61/84/14
f 61/85/15 62/86/15 64/87/15 63/88/15
f 63/88/16 64/87/16 66/89/16 65/90/16
f 65/90/17 66/89/17 68/91/17 67/92/17
f 67/92/18 68/91/18 70/93/18 69/94/18
f 69/94/19 70/93/19 72/95/19 71/96/19
f 71/96/20 72/95/20 74/97/20 73/98/20
f 73/98/21 74/97/21 76/99/21 75/100/21
f 75/100/22 76/99/22 78/101/22 77/102/22
f 77/102/23 78/101/23 80/103/23 79/104/23
f 79/104/24 80/103/24 82/105/24 81/106/24
f 81/106/25 82/105/25 84/107/25 83/108/25
f 83/108/26 84/107/26 86/109/26 85/110/26
f 85/110/27 86/109/27 88/111/27 87/112/27
f 87/112/28 88/111/28 90/113/28 89/114/28
f 89/114/29 90/113/29 92/115/29 91/116/29
f 91/116/30 92/115/30 94/117/30 93/118/30
f 93/118/31 94/117/31 96/119/31 95/120/31
f 95/120/32 96/119/32 98/121/32 97/122/32
f 97/122/33 98/121/33 100/123/33 99/124/33
f 99/124/34 100/123/34 102/125/34 101/126/34
f 101/126/35 102/125/35 104/127/35 103/128/35
f 103/128/36 104/127/36 106/129/36 105/130/36
f 105/130/37 106/129/37 108/131/37 107/132/37
f 107/132/38 108/131/38 110/133/38 109/134/38
f 109/134/39 110/133/39 112/135/39 111/136/39
f 54/137/40 52/138/40 114/139/40 112/140/40 110/141/40 108/142/40 106/143/40 104/144/40 102/145/40 100/146/40 98/147/40 96/148/40 94/149/40 92/150/40 90/151/40 88/152/40 86/153/40 84/154/40 82/155/40 80/156/40 78/157/40 76/158/40 74/159/40 72/160/40 70/161/40 68/162/40 66/163/40 64/164/40 62/165/40 60/166/40 58/167/40 56/168/40
f 111/136/41 112/135/41 114/169/41 113/170/41
f 113/170/42 114/169/42 52/171/42 51/172/42
f 51/173/43 53/174/43 55/175/43 57/176/43 59/177/43 61/178/43 63/179/43 65/180/43 67/181/43 69/182/43 71/183/43 73/184/43 75/185/43 77/186/43 79/187/43 81/188/43 83/189/43 85/190/43 87/191/43 89/192/43 91/193/43 93/194/43 95/195/43 97/196/43 99/197/43 101/198/43 103/199/43 105/200/43 107/201/43 109/202/43 111/203/43 113/204/43
f 115/205/44 116/206/44 117/207/44
f 118/208/45 119/209/45 120/210/45
f 118/211/43 120/212/43 115/213/43 117/214/43 38/215/43 40/216/43
f 134/217/5 43/218/5 141/219/5 142/220/5 49/221/5
f 128/222/46 143/223/46 144/224/46 127/225/46 129/226/46
f 48/227/5 135/228/5 50/229/5 145/230/5 146/231/5
f 41/232/5 133/233/5 43/234/5 134/235/5
f 46/236/5 41/237/5 134/238/5 135/239/5
f 136/240/5 46/241/5 135/242/5 48/243/5
f 133/244/6 137/245/6 44/246/6 43/247/6
f 138/248/6 136/249/6 48/250/6 47/251/6
f 137/252/4 42/253/4 139/254/4 44/255/4
f 45/256/4 138/257/4 47/258/4 140/259/4
f 42/260/4 45/261/4 140/262/4 139/263/4
f 143/223/47 142/264/47 141/265/47 144/266/47
f 117/267/48 116/268/48 37/269/48 49/270/48 142/264/48 143/223/48 128/222/48 123/271/48 38/272/48
f 147/46/49 146/45/49 145/273/49 148/274/49
f 40/275/50 124/276/50 132/64/50 148/63/50 145/277/50 50/278/50 39/279/50 119/280/50 118/281/50
s 1
f 1/282/51 2/283/51 3/284/51
f 4/285/52 5/286/52 6/287/52
f 7/288/53 8/289/53 9/290/53
f 10/291/54 11/292/54 12/293/54
f 13/294/55 14/295/55 15/296/55
f 16/297/56 17/298/56 18/299/56
f 19/300/57 20/301/57 21/302/57
f 22/303/58 23/304/58 24/305/58
f 25/306/51 26/307/51 27/308/51
f 28/309/52 29/310/52 30/311/52
f 31/312/53 32/313/53 33/314/53
f 34/315/54 35/316/54 36/317/54
