# Blender v2.80 (sub 75) OBJ File: ''
# www.blender.org
mtllib YK_Wing_Gun_Front_Collider.mtl
o Cylinder.002_Cylinder.005
v 0.059763 0.261836 -0.363468
v 0.052137 0.228430 -0.421781
v -0.052137 0.228430 -0.421781
v -0.059763 0.261836 -0.363468
v -0.178138 0.085786 -0.457450
v 0.197717 0.000000 -0.457450
v 0.123275 -0.154582 -0.457450
v -0.197717 0.000000 -0.457450
v -0.059763 -0.261836 -0.095771
v 0.059763 -0.261836 -0.095771
v 0.052137 -0.228430 0.044268
v -0.052137 -0.228430 0.044268
v 0.029225 -0.128045 0.418443
v -0.029225 -0.128045 0.418443
v 0.052137 0.228430 0.044268
v 0.059763 0.261836 -0.095771
v -0.059763 0.261836 -0.095771
v -0.052137 0.228430 0.044268
v 0.029225 0.128045 0.418443
v -0.029225 0.128045 0.418443
v 0.043997 0.192760 -0.457450
v 0.167451 -0.209976 -0.095771
v 0.059763 -0.261836 -0.110064
v 0.059763 -0.261836 -0.363468
v 0.167451 -0.209976 -0.363468
v -0.059763 -0.261836 -0.110064
v -0.059763 -0.261836 -0.363468
v -0.043997 0.192760 -0.457450
v 0.052137 -0.228430 -0.421781
v -0.052137 -0.228430 -0.421781
v 0.059763 0.261836 -0.344113
v -0.059763 0.261836 -0.344113
v 0.073613 -0.000000 0.494797
v 0.066323 -0.031939 0.494797
v 0.118330 -0.056985 0.418443
v 0.131339 -0.000000 0.418443
v 0.045898 -0.057553 0.494797
v 0.081888 -0.102684 0.418443
v 0.016382 -0.071767 0.494797
v -0.016380 -0.071767 0.494797
v -0.045898 -0.057553 0.494797
v -0.081888 -0.102684 0.418443
v -0.066323 -0.031939 0.494797
v -0.118330 -0.056985 0.418443
v -0.073613 -0.000000 0.494797
v -0.131336 -0.000000 0.418443
v -0.066323 0.031941 0.494797
v -0.118330 0.056985 0.418443
v -0.045898 0.057553 0.494797
v -0.081888 0.102684 0.418443
v -0.016380 0.071770 0.494797
v 0.016382 0.071770 0.494797
v 0.045898 0.057553 0.494797
v 0.081888 0.102684 0.418443
v 0.066323 0.031941 0.494797
v 0.118332 0.056985 0.418443
v 0.146086 -0.183187 0.044268
v -0.146086 0.183187 0.044268
v -0.211101 0.101661 0.044268
v 0.234305 -0.000000 0.044267
v 0.211101 0.101661 0.044267
v -0.234305 -0.000000 0.044268
v -0.211101 -0.101661 0.044268
v -0.146086 -0.183187 0.044268
v 0.146086 0.183187 0.044268
v -0.146086 0.183187 -0.421781
v -0.123275 0.154582 -0.457450
v -0.211101 0.101661 -0.421781
v -0.146086 -0.183187 -0.421781
v -0.123275 -0.154582 -0.457450
v -0.043997 -0.192760 -0.457450
v 0.234305 0.000000 -0.421781
v 0.211101 -0.101660 -0.421781
v 0.178138 -0.085786 -0.457450
v 0.146086 -0.183187 -0.421781
v 0.043997 -0.192760 -0.457450
v 0.146086 0.183187 -0.421781
v 0.123275 0.154582 -0.457450
v 0.211101 0.101661 -0.421781
v 0.178138 0.085786 -0.457450
v -0.234305 0.000000 -0.421781
v -0.178138 -0.085786 -0.457450
v -0.211101 -0.101660 -0.421781
v -0.241973 0.116528 -0.363468
v -0.268570 0.000000 -0.363468
v -0.167451 -0.209976 -0.363468
v -0.167451 0.209976 -0.363468
v 0.268570 0.000000 -0.095771
v 0.268570 0.000000 -0.363468
v 0.241973 0.116528 -0.363468
v 0.241973 0.116528 -0.095771
v 0.167451 0.209976 -0.363468
v -0.241973 -0.116528 -0.363468
v -0.241972 -0.116528 -0.095771
v -0.268570 0.000000 -0.095771
v 0.167451 0.209976 -0.095771
v 0.241973 -0.116528 -0.363468
v 0.241973 -0.116528 -0.095771
v 0.211101 -0.101661 0.044267
v -0.241973 0.116528 -0.095771
v -0.167451 -0.209976 -0.095771
v -0.167451 0.209976 -0.095771
vt 0.000000 0.000000
vt 0.464116 0.427249
vt 0.464116 0.427249
vt 0.475769 0.515743
vt 0.433553 0.419607
vt 0.000000 0.000000
vt 0.382051 0.419607
vt 0.415172 0.419607
vt 0.000000 0.000000
vt 0.000000 0.000000
vt 0.000000 0.000000
vt 0.366229 0.615634
vt 0.000000 0.000000
vt 0.933615 0.791452
vt 0.933615 0.791452
vt 0.000000 0.000000
vt 0.000000 0.000000
vt 0.000000 0.000000
vt 0.000000 0.000000
vt 0.956994 0.791452
vt 0.956994 0.791452
vt 0.000000 0.000000
vt 0.366577 0.686702
vt 0.000000 0.000000
vt 0.354576 0.515743
vt 0.366577 0.515743
vt 0.000000 0.000000
vt 0.000000 0.000000
vt 0.000000 0.000000
vt 0.456473 0.419607
vt 0.000000 0.000000
vt 0.000000 0.000000
vt 0.000000 0.000000
vt 0.000000 0.000000
vt 0.945304 0.791973
vt 0.942388 0.791973
vt 0.940102 0.791452
vt 0.945304 0.791452
vt 0.940050 0.791973
vt 0.935930 0.791452
vt 0.938752 0.791973
vt 0.938752 0.791973
vt 0.940050 0.791973
vt 0.935930 0.791452
vt 0.942388 0.791973
vt 0.940102 0.791452
vt 0.945304 0.791973
vt 0.945304 0.791452
vt 0.948220 0.791973
vt 0.950507 0.791452
vt 0.950559 0.791973
vt 0.954679 0.791452
vt 0.951856 0.791973
vt 0.951856 0.791973
vt 0.950559 0.791973
vt 0.954679 0.791452
vt 0.948220 0.791973
vt 0.950507 0.791452
vt 0.366229 0.615634
vt 0.375923 0.615634
vt 0.464116 0.615634
vt 0.454422 0.615634
vt 0.436954 0.615634
vt 0.000000 0.000000
vt 0.415172 0.615634
vt 0.436954 0.615634
vt 0.415172 0.615634
vt 0.393390 0.615634
vt 0.375923 0.615634
vt 0.454422 0.615634
vt 0.454422 0.427249
vt 0.448293 0.419607
vt 0.436954 0.427249
vt 0.375923 0.427249
vt 0.382051 0.419607
vt 0.373871 0.419607
vt 0.366229 0.427249
vt 0.415172 0.427249
vt 0.393390 0.427249
vt 0.396792 0.419607
vt 0.415172 0.419607
vt 0.375923 0.427249
vt 0.366229 0.427249
vt 0.373871 0.419607
vt 0.454422 0.427249
vt 0.448293 0.419607
vt 0.456473 0.419607
vt 0.436954 0.427249
vt 0.433553 0.419607
vt 0.415172 0.427249
vt 0.396792 0.419607
vt 0.393390 0.427249
vt 0.354576 0.665532
vt 0.354576 0.686702
vt 0.442140 0.515743
vt 0.415172 0.515743
vt 0.366577 0.515743
vt 0.000000 0.000000
vt 0.000000 0.000000
vt 0.415172 0.686702
vt 0.415172 0.515743
vt 0.000000 0.000000
vt 0.442140 0.686702
vt 0.463767 0.515743
vt 0.442140 0.515743
vt 0.000000 0.000000
vt 0.388204 0.515743
vt 0.388204 0.686702
vt 0.415172 0.686702
vt 0.354576 0.686702
vt 0.463767 0.686702
vt 0.000000 0.000000
vt 0.388204 0.686702
vt 0.475769 0.515743
vt 0.475769 0.515743
vt 0.393390 0.615634
vt 0.000000 0.000000
vt 0.442140 0.686702
vt 0.463767 0.515743
vt 0.000000 0.000000
vt 0.388204 0.515743
vt 0.000000 0.000000
vt 0.000000 0.000000
vt 0.000000 0.000000
vt 0.366577 0.686702
vt 0.464116 0.615634
vt 0.463767 0.686702
vt 0.475769 0.686702
vt 0.000000 0.000000
vt 0.354576 0.665532
vt 0.000000 0.000000
vt 0.475769 0.515743
vt 0.000000 0.000000
vt 0.000000 0.000000
vt 0.354576 0.515743
vn 0.0000 0.8677 -0.4971
vn 0.0000 0.0000 -1.0000
vn 0.0000 -0.9727 0.2320
vn 0.0000 -0.9658 0.2591
vn 0.0000 0.9727 0.2320
vn 0.0000 0.9658 0.2591
vn 0.4339 -0.9010 -0.0000
vn 0.0000 -1.0000 -0.0000
vn 0.0000 -0.8677 -0.4971
vn 0.0000 1.0000 0.0000
vn 0.7977 -0.0000 0.6031
vn 0.7187 -0.3461 0.6031
vn 0.4974 -0.6237 0.6031
vn 0.1775 -0.7777 0.6031
vn -0.1775 -0.7777 0.6031
vn -0.4974 -0.6237 0.6031
vn -0.7187 -0.3461 0.6031
vn -0.7977 -0.0000 0.6031
vn -0.7187 0.3461 0.6031
vn -0.4974 0.6237 0.6031
vn -0.1775 0.7777 0.6031
vn 0.1775 0.7777 0.6031
vn 0.4974 0.6237 0.6031
vn 0.7187 0.3461 0.6031
vn 0.4191 -0.8702 0.2591
vn 0.6011 -0.7538 0.2653
vn 0.0000 0.0000 1.0000
vn -0.6011 0.7538 0.2653
vn -0.4191 0.8702 0.2591
vn -0.8687 0.4183 0.2653
vn 0.8687 0.4183 0.2653
vn 0.9642 -0.0000 0.2653
vn -0.9642 -0.0000 0.2653
vn -0.8687 -0.4183 0.2653
vn -0.6011 -0.7538 0.2653
vn 0.6011 0.7538 0.2653
vn -0.4352 0.5458 -0.7160
vn -0.6289 0.3029 -0.7160
vn -0.4352 -0.5458 -0.7160
vn -0.0937 -0.4105 -0.9070
vn -0.1553 -0.6806 -0.7160
vn -0.1553 0.6806 -0.7160
vn 0.6981 0.0000 -0.7160
vn 0.6289 -0.3029 -0.7160
vn 0.4352 -0.5458 -0.7160
vn 0.1553 -0.6806 -0.7160
vn 0.0937 -0.4105 -0.9070
vn 0.1553 0.6806 -0.7160
vn 0.4352 0.5458 -0.7160
vn 0.6289 0.3029 -0.7160
vn -0.6981 0.0000 -0.7160
vn -0.6289 -0.3029 -0.7160
vn -0.2958 -0.9553 0.0000
vn 0.2138 -0.9769 0.0000
vn 0.2225 -0.9749 0.0000
vn -0.2225 -0.9749 -0.0000
vn -0.7768 0.3741 -0.5066
vn -0.8622 0.0000 -0.5066
vn -0.5376 -0.6741 -0.5066
vn -0.3765 -0.7818 -0.4971
vn 0.3765 -0.7818 -0.4971
vn 0.5376 -0.6741 -0.5066
vn -0.6235 0.7818 0.0000
vn -0.2958 0.9553 0.0000
vn -0.2225 0.9749 0.0000
vn 1.0000 0.0000 0.0000
vn 0.9010 0.4339 0.0000
vn 0.5376 0.6741 -0.5066
vn 0.7768 0.3741 -0.5066
vn -1.0000 -0.0000 0.0000
vn -0.9010 -0.4339 0.0000
vn 0.4220 -0.8764 0.2320
vn 0.6056 -0.7594 0.2377
vn 0.6056 0.7594 0.2377
vn 0.8752 0.4215 0.2377
vn 0.9010 -0.4339 -0.0000
vn 0.2958 0.9552 0.0000
vn 0.2225 0.9749 0.0000
vn 0.9713 -0.0000 0.2377
vn 0.8752 -0.4215 0.2377
vn 0.4191 0.8702 0.2591
vn -0.9713 -0.0000 0.2377
vn -0.8752 0.4215 0.2377
vn 0.8687 -0.4183 0.2653
vn -0.4191 -0.8702 0.2591
vn -0.3765 0.7818 -0.4971
vn -0.5376 0.6741 -0.5066
vn -0.7768 -0.3741 -0.5066
vn 0.7818 -0.6235 -0.0000
vn 0.6235 0.7818 0.0000
vn -0.9010 0.4339 0.0000
vn 0.7768 -0.3741 -0.5066
vn -0.6235 -0.7818 0.0000
vn 0.4220 0.8764 0.2320
vn -0.6056 -0.7594 0.2377
vn -0.4220 -0.8764 0.2320
vn -0.4339 0.9010 0.0000
vn 0.8622 0.0000 -0.5066
vn -0.6056 0.7594 0.2377
vn -0.8752 -0.4215 0.2377
vn -0.4220 0.8764 0.2320
vn 0.4339 0.9010 0.0000
vn -0.4339 -0.9010 0.0000
vn 0.3765 0.7818 -0.4971
usemtl Default_OBJ.030
s off
f 1/1/1 2/2/1 3/3/1 4/4/1
f 5/5/2 6/6/2 7/7/2 8/8/2
f 9/9/3 10/10/3 11/11/3 12/12/3
f 12/13/4 11/11/4 13/14/4 14/15/4
f 15/16/5 16/17/5 17/18/5 18/19/5
f 19/20/6 15/16/6 18/19/6 20/21/6
f 5/5/2 21/22/2 6/6/2
f 22/23/7 23/24/7 24/25/7 25/26/7
f 24/27/8 23/24/8 26/28/8 27/29/8
f 28/30/2 21/22/2 5/5/2
f 29/31/9 24/25/9 27/29/9 30/32/9
f 16/17/10 31/33/10 32/34/10 17/18/10
s 1
f 33/35/11 34/36/12 35/37/12 36/38/11
f 34/36/12 37/39/13 38/40/13 35/37/12
f 37/39/13 39/41/14 13/14/14 38/40/13
f 39/41/14 40/42/15 14/15/15 13/14/14
f 40/42/15 41/43/16 42/44/16 14/15/15
f 41/43/16 43/45/17 44/46/17 42/44/16
f 43/45/17 45/47/18 46/48/18 44/46/17
f 45/47/18 47/49/19 48/50/19 46/48/18
f 47/49/19 49/51/20 50/52/20 48/50/19
f 49/51/20 51/53/21 20/21/21 50/52/20
f 51/53/21 52/54/22 19/20/22 20/21/21
f 52/54/22 53/55/23 54/56/23 19/20/22
f 53/55/23 55/57/24 56/58/24 54/56/23
f 55/57/24 33/35/11 36/38/11 56/58/24
f 13/14/25 11/59/25 57/60/26 38/40/26
f 53/55/27 52/54/27 51/53/27
f 53/55/27 51/53/27 49/51/27
f 53/55/27 49/51/27 47/49/27
f 53/55/27 47/49/27 45/47/27
f 53/55/27 45/47/27 43/45/27
f 53/55/27 43/45/27 41/43/27
f 53/55/27 41/43/27 40/42/27
f 53/55/27 40/42/27 39/41/27
f 53/55/27 39/41/27 37/39/27
f 53/55/27 37/39/27 34/36/27
f 53/55/27 34/36/27 33/35/27
f 53/55/27 33/35/27 55/57/27
f 50/52/28 20/21/29 18/61/29 58/62/28
f 59/63/30 48/50/30 50/64/28 58/62/28
f 56/58/31 36/38/32 60/65/32 61/66/31
f 46/48/33 62/67/33 63/68/34 44/46/34
f 44/46/34 63/68/34 64/69/35 42/44/35
f 54/56/36 56/58/31 61/66/31 65/70/36
usemtl Default_OBJ.031
f 66/71/37 67/72/37 5/5/38 68/73/38
f 69/74/39 70/75/39 71/76/40 30/77/41
f 3/3/42 28/30/42 67/72/37 66/71/37
f 72/78/43 73/79/44 74/80/44 6/81/43
f 73/79/44 75/82/45 7/7/45 74/80/44
f 75/82/45 29/83/46 76/84/47 7/7/45
f 2/2/48 77/85/49 78/86/49 21/87/48
f 77/85/49 79/88/50 80/89/50 78/86/49
f 79/88/50 72/78/43 6/81/43 80/89/50
f 81/90/51 8/8/51 82/91/52 83/92/52
f 83/92/52 82/91/52 70/75/39 69/74/39
f 68/73/38 5/5/38 8/8/51 81/90/51
f 26/93/53 23/24/54 10/10/55 9/94/56
f 84/95/57 68/73/57 81/90/58 85/96/58
f 86/97/59 69/98/59 30/32/60 27/29/60
f 29/83/61 75/82/62 25/26/62 24/25/61
f 87/99/63 32/34/64 4/4/65
f 88/100/66 89/101/66 90/102/67 91/103/67
f 77/85/68 92/104/68 90/105/69 79/88/69
f 85/106/70 93/107/71 94/108/71 95/109/70
f 11/59/72 10/110/72 22/23/73 57/60/73
f 65/70/74 61/66/75 91/103/75 96/111/74
f 97/112/76 89/101/66 88/100/66 98/113/76
f 31/33/77 1/114/78 4/4/65 32/115/64
f 60/65/79 99/116/80 98/113/80 88/100/79
f 54/56/36 65/70/36 15/16/81 19/20/81
f 61/66/75 60/117/79 88/100/79 91/103/75
f 62/67/82 59/63/83 100/118/83 95/109/82
f 35/37/84 99/116/84 60/65/32 36/38/32
f 42/44/35 64/69/35 12/13/85 14/15/85
f 4/4/86 3/3/86 66/71/87 87/119/87
f 93/107/88 85/96/58 81/90/58 83/92/88
f 25/120/89 97/121/76 98/113/76 22/23/89
f 91/103/67 90/102/67 92/122/90 96/111/90
f 84/95/57 87/119/87 66/71/87 68/73/57
f 84/123/91 85/96/70 95/109/70 100/118/91
f 75/82/62 73/79/92 97/121/92 25/26/62
f 93/124/71 86/97/93 101/125/93 94/108/71
f 15/126/94 65/70/74 96/111/74 16/17/94
f 64/69/95 101/125/95 9/9/96 12/12/96
f 102/127/63 17/128/97 32/34/64 87/99/63
f 79/88/69 90/105/69 89/101/98 72/129/98
f 22/23/7 10/110/55 23/130/54
f 58/62/99 102/127/99 100/118/83 59/63/83
f 7/7/2 76/84/47 71/131/40
f 7/7/2 71/131/40 70/75/2
f 7/7/2 70/75/2 82/91/2
f 7/7/2 82/91/2 8/8/2
f 93/124/88 83/92/88 69/98/59 86/97/59
f 7/7/2 6/6/2 74/80/2
f 21/87/2 78/86/2 6/6/2
f 78/86/2 80/89/2 6/81/2
f 73/79/92 72/129/98 89/101/98 97/121/92
f 1/114/78 31/132/77 96/133/90
f 1/114/78 96/133/90 92/122/90
f 57/60/73 22/23/73 98/113/80 99/116/80
f 87/99/63 84/95/91 100/118/91 102/127/63
f 76/84/47 29/83/46 30/77/41 71/76/40
f 2/134/48 21/87/48 28/30/42 3/3/42
f 63/68/100 94/108/100 101/125/95 64/69/95
f 67/72/2 28/30/2 5/5/2
f 102/127/99 58/62/99 18/19/101 17/18/101
f 31/33/77 16/17/102 96/111/90
f 38/40/26 57/60/26 99/116/84 35/37/84
f 86/97/93 27/135/103 26/28/53
f 9/94/56 101/125/93 86/97/93
f 9/94/56 86/97/93 26/28/53
f 62/67/82 95/109/82 94/108/100 63/68/100
f 1/114/104 92/104/68 77/85/68 2/2/104
f 48/50/30 59/63/30 62/67/33 46/48/33
