# Blender v2.81 (sub 16) OBJ File: ''
# www.blender.org
mtllib GT_Corner_Trunk_Block_Collider.mtl
o GT_Short_Trunk_Block.002_GT_Short_Trunk_Block.000
v 0.386393 0.103550 0.320001
v 0.199782 -0.346324 0.500001
v 0.346192 -0.199914 0.500001
v 0.179977 0.229809 -0.005862
v 0.254535 0.139962 -0.037571
v 0.282689 0.282688 0.500001
v 0.103551 0.386393 0.320001
v 0.282866 0.282865 0.320001
v 0.399773 0.000023 0.500001
v -0.386393 0.103550 0.320001
v -0.199782 -0.346324 0.500001
v -0.346192 -0.199914 0.500001
v 0.000000 0.399773 0.500001
v 0.000000 0.271578 -0.029977
v -0.179977 0.229809 -0.005862
v -0.254535 0.139962 -0.037571
v -0.282689 0.282688 0.500001
v -0.103551 0.386393 0.320001
v -0.282866 0.282865 0.320001
v 0.000000 -0.399728 0.500001
v -0.399773 0.000023 0.500001
v -0.386393 -0.320001 -0.103550
v -0.199781 -0.500001 0.346324
v -0.346192 -0.500001 0.199914
v -0.179977 0.005862 -0.229809
v -0.254535 0.037571 -0.139962
v -0.282689 -0.500001 -0.282688
v -0.103551 -0.320001 -0.386393
v -0.282866 -0.320001 -0.282865
v -0.399773 -0.500001 -0.000023
v 0.386393 -0.320001 -0.103550
v 0.199782 -0.500001 0.346324
v 0.346192 -0.500001 0.199914
v 0.000000 -0.500001 -0.399773
v 0.000000 0.029977 -0.271578
v 0.179977 0.005862 -0.229809
v 0.254535 0.037571 -0.139962
v 0.282689 -0.500001 -0.282688
v 0.103551 -0.320001 -0.386393
v 0.282866 -0.320001 -0.282865
v 0.000000 -0.500001 0.399728
v 0.399773 -0.500001 -0.000023
vt 0.000000 0.000000
vt 0.905863 0.889902
vt 0.919048 0.889902
vt 0.188124 0.956145
vt 0.219357 0.990431
vt 0.000000 0.000000
vt 0.892679 0.889902
vt 0.905863 0.889902
vt 0.159020 0.944090
vt 0.136161 0.922779
vt 0.000000 0.000000
vt 0.159020 0.944090
vt 0.136161 0.922779
vt 0.188905 0.953231
vt 0.000000 0.000000
vt 0.879495 0.883310
vt 0.000000 0.000000
vt 0.367297 0.779245
vt 0.134028 0.987414
vt 0.134028 0.987414
vt 0.000000 0.000000
vt 0.919048 0.889902
vt 0.117463 0.898411
vt 0.105709 0.870035
vt 0.367297 0.779245
vt 0.905863 0.883310
vt 0.905863 0.889902
vt 0.000000 0.000000
vt 0.000000 0.000000
vt 0.219357 0.957240
vt 0.188905 0.990431
vt 0.101700 0.839583
vt 0.905863 0.889902
vt 0.000000 0.000000
vt 0.892679 0.889902
vt 0.117463 0.898411
vt 0.000000 0.000000
vt 0.105709 0.870035
vt 0.159020 0.944090
vt 0.136161 0.922779
vt 0.188905 0.953231
vt 0.134028 0.987414
vt 0.367297 0.779245
vt 0.134028 0.987414
vt 0.117463 0.898411
vt 0.000000 0.000000
vt 0.159020 0.987414
vt 0.188124 0.855217
vt 0.879495 0.883310
vt 0.892679 0.883310
vt 0.892679 0.889902
vt 0.159020 0.987414
vt 0.188124 0.855217
vt 0.905863 0.883310
vt 0.188124 0.956145
vt 0.219357 0.990431
vt 0.117463 0.898411
vt 0.159020 0.944090
vt 0.136161 0.922779
vt 0.370313 0.839583
vt 0.367297 0.808350
vt 0.367297 0.808350
vt 0.219357 0.957240
vt 0.101700 0.839583
vt 0.188905 0.990431
vt 0.000000 0.000000
vt 0.370313 0.839583
vt 0.370313 0.839583
vt 0.892679 0.889902
vt 0.370313 0.839583
vt 0.367297 0.808350
vt 0.905863 0.883310
vt 0.101700 0.839583
vt 0.117463 0.780754
vt 0.160529 0.737688
vt 0.136161 0.756386
vt 0.117463 0.780754
vt 0.160529 0.941477
vt 0.160529 0.941477
vt 0.367297 0.779245
vt 0.105709 0.870035
vt 0.879495 0.883310
vt 0.892679 0.883310
vt 0.905863 0.883310
vt 0.105709 0.870035
vt 0.136161 0.756386
vt 0.117463 0.780754
vt 0.101700 0.839583
vt 0.160529 0.941477
vt 0.160529 0.941477
vt 0.117463 0.780754
vt 0.160529 0.737688
vt 0.879495 0.883310
vt 0.367297 0.808350
vn -0.2568 0.3690 -0.8933
vn 0.0000 0.0741 -0.9972
vn 0.6702 0.6693 -0.3206
vn -0.5000 -0.0013 -0.8660
vn -0.3783 0.9135 0.1498
vn 0.4791 0.8298 -0.2864
vn 0.9039 0.3025 -0.3025
vn 0.5773 -0.5774 0.5774
vn 0.2568 0.8933 -0.3690
vn 0.0000 0.3117 -0.9502
vn 0.9135 -0.1497 -0.3784
vn -0.4791 0.2864 -0.8298
vn 0.5774 -0.5774 0.5774
vn 0.2506 0.6845 -0.6845
vn -0.2568 0.8933 -0.3690
vn -0.5000 0.8660 0.0013
vn 0.0000 -1.0000 0.0000
vn 0.2568 0.3690 -0.8933
vn -0.6702 0.3206 -0.6693
vn -0.9135 0.3784 0.1497
vn 0.3783 -0.1498 -0.9135
vn -0.5773 -0.5774 0.5774
vn -0.8660 -0.0013 -0.5000
vn 0.1857 -0.6948 0.6948
vn 0.4828 0.6192 -0.6192
vn -0.6702 0.6693 -0.3206
vn -0.1857 -0.6948 0.6948
vn -0.2506 0.6845 -0.6845
vn 0.0000 0.9972 -0.0741
vn 0.8660 0.5000 0.0013
vn 0.5000 0.8660 0.0013
vn 0.9351 -0.2506 0.2506
vn -0.0000 -0.0000 1.0000
vn 0.8364 0.2593 -0.4829
vn -0.9039 0.3025 -0.3025
vn 0.8364 0.4829 -0.2593
vn -0.9978 0.0471 -0.0471
vn -0.3783 -0.1498 -0.9135
vn 0.9978 0.0471 -0.0471
vn 0.6702 0.3206 -0.6693
vn 0.8660 -0.0013 -0.5000
vn -0.9351 -0.2506 0.2506
vn -0.4791 0.8298 -0.2864
vn 0.4791 0.2864 -0.8298
vn -0.8660 0.5000 0.0013
vn 0.5000 -0.0013 -0.8660
vn -0.5774 -0.5774 0.5774
vn -0.9135 -0.1497 -0.3784
vn -0.4828 0.6192 -0.6192
vn 0.0000 0.9502 -0.3117
vn 0.9135 0.3784 0.1497
vn 0.3783 0.9135 0.1498
vn -0.8364 0.4829 -0.2593
vn -0.8364 0.2593 -0.4829
usemtl Color_M02.001
s 1
f 28/1/1 25/2/1 35/3/1
f 28/1/2 39/4/2 34/5/2
f 8/6/3 5/7/3 4/8/3
f 28/9/4 27/10/4 29/11/4
f 18/12/5 17/13/5 13/14/5
f 7/15/6 8/6/6 4/8/6
f 37/16/7 5/7/7 31/17/7
f 33/18/8 2/19/8 32/20/8
f 1/21/7 31/17/7 5/7/7
f 7/15/9 4/8/9 14/22/9
f 28/1/10 35/3/10 39/4/10
f 38/23/11 31/17/11 42/24/11
f 28/1/12 29/11/12 25/2/12
f 33/18/8 3/25/13 2/19/8
f 35/3/14 14/22/14 4/26/14
f 15/27/15 18/28/15 14/22/15
f 18/12/16 19/29/16 17/13/16
f 34/30/17 41/31/17 30/32/17
f 36/33/18 39/34/18 35/3/18
f 29/11/19 26/35/19 25/2/19
f 17/36/20 10/37/20 21/38/20
f 39/39/21 38/40/21 34/41/21
f 11/42/22 24/43/22 23/44/22
f 27/45/23 22/46/23 29/11/23
f 2/47/24 41/48/24 32/20/24
f 4/26/25 5/49/25 37/50/25
f 19/29/26 15/27/26 16/51/26
f 23/52/27 20/53/27 11/42/27
f 14/22/28 35/3/28 25/54/28
f 7/15/29 18/55/29 13/56/29
f 6/57/30 1/21/30 8/6/30
f 7/58/31 6/59/31 8/6/31
f 42/60/32 3/61/32 33/62/32
f 13/63/33 21/64/33 20/65/33
f 40/66/34 37/16/34 31/17/34
f 22/46/35 10/37/35 26/35/35
f 5/7/36 8/6/36 1/21/36
f 22/46/37 21/67/37 10/37/37
f 28/9/38 34/41/38 27/10/38
f 9/68/39 31/17/39 1/21/39
f 40/66/40 36/33/40 37/69/40
f 38/23/41 40/66/41 31/17/41
f 30/70/42 12/71/42 21/67/42
f 37/50/25 36/72/25 4/26/25
f 36/72/14 35/3/14 4/26/14
f 15/27/43 19/29/43 18/28/43
f 42/73/17 33/74/17 41/31/17
f 33/74/17 32/75/17 41/31/17
f 41/31/17 23/76/17 24/77/17
f 42/73/17 41/31/17 34/30/17
f 24/77/17 30/32/17 41/31/17
f 30/32/17 27/78/17 34/30/17
f 34/30/17 38/79/17 42/73/17
f 36/33/44 40/66/44 39/34/44
f 17/36/45 19/29/45 10/37/45
f 39/39/46 40/66/46 38/40/46
f 11/42/47 12/80/47 24/43/47
f 27/45/48 30/81/48 22/46/48
f 2/47/24 20/53/24 41/48/24
f 23/52/27 41/48/27 20/53/27
f 25/54/49 26/82/49 16/83/49
f 16/83/49 15/84/49 25/54/49
f 15/84/28 14/22/28 25/54/28
f 7/15/50 14/22/50 18/55/50
f 6/57/51 9/85/51 1/21/51
f 7/58/52 13/14/52 6/59/52
f 42/60/32 9/68/32 3/61/32
f 2/86/33 3/87/33 20/65/33
f 3/87/33 9/88/33 20/65/33
f 9/88/33 6/89/33 13/63/33
f 13/63/33 17/90/33 21/64/33
f 21/64/33 12/91/33 20/65/33
f 12/91/33 11/92/33 20/65/33
f 13/63/33 20/65/33 9/88/33
f 19/29/53 16/93/53 10/37/53
f 16/93/35 26/35/35 10/37/35
f 26/35/54 29/11/54 22/46/54
f 22/46/37 30/70/37 21/67/37
f 9/68/39 42/60/39 31/17/39
f 30/70/42 24/94/42 12/71/42
