# Blender v2.81 (sub 16) OBJ File: ''
# www.blender.org
mtllib GT_Long_Junction_Trunk_Block_Collider.mtl
o Cube_Cube.006
v -0.386346 1.267618 0.456668
v -0.386348 0.732416 -0.456667
v -0.296681 1.375915 -0.483738
v -0.296681 0.624085 -0.483738
v 0.296636 0.624093 -0.483739
v 0.296636 1.375907 -0.483739
v -0.103551 2.500000 -0.386348
v 0.103505 2.500000 -0.386348
v 0.103505 -0.500000 -0.386348
v -0.103551 -0.500000 -0.386348
v -0.296675 0.624051 0.483742
v -0.296675 1.375950 0.483742
v 0.296630 1.375942 0.483743
v 0.296630 0.624058 0.483743
v 0.103505 2.500000 0.386393
v -0.103551 2.500000 0.386393
v -0.103551 -0.500000 0.386393
v 0.103505 -0.500000 0.386393
v 0.386348 1.267581 -0.456667
v 0.386348 0.732420 -0.456668
v 0.386346 0.732386 0.456668
v 0.386347 2.500000 -0.103505
v 0.386347 2.500000 0.103550
v 0.386347 -0.500000 0.103550
v 0.386347 -0.500000 -0.103505
v 0.282820 2.500000 -0.282820
v 0.282820 -0.500000 -0.282820
v 0.386346 1.267615 0.456668
v 0.282820 2.500000 0.282865
v 0.282820 -0.500000 0.282865
v -0.386346 0.732383 0.456668
v -0.386394 -0.500000 0.103550
v -0.282866 -0.500000 0.282865
v -0.386394 2.500000 0.103550
v -0.386393 2.500000 -0.103505
v -0.386393 -0.500000 -0.103505
v -0.386348 1.267584 -0.456667
v -0.282866 2.500000 -0.282820
v -0.282866 -0.500000 -0.282820
v -0.282866 2.500000 0.282865
vt 0.625000 1.000000
vt 0.625000 1.000000
vt 0.625000 1.000000
vt 0.375000 0.750000
vt 0.375000 0.750000
vt 0.375000 0.750000
vt 0.625000 0.750000
vt 0.625000 0.750000
vt 0.375000 1.000000
vt 0.375000 1.000000
vt 0.375000 1.000000
vt 0.625000 0.250000
vt 0.375000 0.250000
vt 0.625000 0.250000
vt 0.625000 0.500000
vt 0.375000 0.500000
vt 0.375000 0.500000
vt 0.375000 0.500000
vt 0.125000 0.750000
vt 0.375000 0.250000
vt 0.375000 0.500000
vt 0.375000 0.250000
vt 0.625000 0.500000
vt 0.375000 1.000000
vt 0.375000 0.250000
vt 0.625000 0.750000
vt 0.625000 1.000000
vt 0.375000 0.750000
vt 0.625000 0.500000
vt 0.625000 0.500000
vt 0.625000 0.750000
vt 0.875000 0.500000
vt 0.375000 0.250000
vt 0.375000 0.000000
vt 0.375000 0.000000
vt 0.625000 0.500000
vt 0.375000 0.750000
vt 0.375000 0.500000
vt 0.625000 0.750000
vt 0.625000 0.000000
vt 0.625000 0.000000
vt 0.625000 0.000000
vt 0.625000 0.250000
vt 0.625000 0.250000
vt 0.625000 0.250000
vt 0.375000 0.000000
vt 0.125000 0.500000
vt 0.125000 0.500000
vt 0.125000 0.500000
vt 0.125000 0.750000
vt 0.125000 0.750000
vt 0.875000 0.500000
vt 0.875000 0.500000
vt 0.875000 0.750000
vt 0.875000 0.750000
vt 0.875000 0.750000
vn -0.4591 0.1617 0.8735
vn 0.4590 -0.1618 0.8736
vn 0.2889 0.0000 0.9574
vn -0.4937 -0.1589 0.8550
vn -0.2890 0.0000 -0.9573
vn 0.2889 0.0000 -0.9574
vn 0.0000 -1.0000 -0.0000
vn -0.0000 -0.0000 -1.0000
vn 0.0000 -0.0863 -0.9963
vn 0.0000 0.0863 -0.9963
vn -0.2890 -0.0000 0.9573
vn -0.4592 -0.1618 -0.8735
vn -0.0000 -0.0000 1.0000
vn 0.0000 0.0863 0.9963
vn -0.0000 -0.0863 0.9963
vn 0.4590 0.1618 -0.8736
vn 0.0000 1.0000 0.0000
vn -1.0000 0.0000 -0.0000
vn 0.8573 0.1418 -0.4949
vn 0.8573 -0.1418 0.4949
vn 0.4936 -0.1589 -0.8550
vn 0.4937 0.1589 0.8550
vn 1.0000 -0.0000 0.0000
vn -0.8573 -0.1418 -0.4949
vn -0.8573 0.1418 0.4950
vn -0.4936 0.1589 -0.8550
vn 0.8573 0.1418 0.4949
vn 0.8573 -0.1418 -0.4949
vn -0.4937 0.1589 0.8550
vn -0.8573 0.1418 -0.4949
vn -0.8573 -0.1418 0.4950
vn 0.4937 -0.1589 0.8550
vn -0.4591 -0.1617 0.8735
vn -0.4936 -0.1589 -0.8550
vn 0.4936 0.1589 -0.8550
vn 0.4590 -0.1618 -0.8736
vn 0.4590 0.1618 0.8736
vn -0.4592 0.1618 -0.8735
usemtl None
s off
f 12/1/1 40/2/1 1/3/1
f 14/4/2 30/5/2 21/6/2
f 13/7/3 21/6/3 28/8/3
f 11/9/4 33/10/4 17/11/4
f 3/12/5 2/13/5 37/14/5
f 6/15/6 20/16/6 5/17/6
f 25/18/7 30/5/7 32/19/7
f 3/12/8 5/17/8 4/20/8
f 4/20/9 9/21/9 10/22/9
f 3/12/10 8/23/10 6/15/10
f 12/1/11 31/24/11 11/9/11
f 4/20/12 39/25/12 2/13/12
f 13/7/13 11/9/13 14/4/13
f 12/1/14 15/26/14 16/27/14
f 11/9/15 18/28/15 14/4/15
f 6/15/16 26/29/16 19/30/16
f 23/31/17 26/29/17 35/32/17
f 36/33/18 32/34/18 31/35/18
f 22/36/19 19/30/19 26/29/19
f 24/37/20 21/6/20 30/5/20
f 5/17/21 27/38/21 9/21/21
f 13/7/22 29/39/22 15/26/22
f 20/16/23 21/6/23 25/18/23
f 36/33/24 2/13/24 39/25/24
f 34/40/25 1/41/25 40/42/25
f 3/12/26 38/43/26 7/44/26
f 28/8/27 23/31/27 29/39/27
f 20/16/28 25/18/28 27/38/28
f 12/1/29 16/27/29 40/2/29
f 37/14/30 35/45/30 38/43/30
f 31/35/31 32/34/31 33/46/31
f 14/4/32 18/28/32 30/5/32
f 13/7/3 14/4/3 21/6/3
f 11/9/33 31/24/33 33/10/33
f 3/12/5 4/20/5 2/13/5
f 6/15/6 19/30/6 20/16/6
f 32/19/7 36/47/7 9/21/7
f 36/47/7 39/48/7 9/21/7
f 39/48/7 10/49/7 9/21/7
f 9/21/7 27/38/7 25/18/7
f 25/18/7 24/37/7 30/5/7
f 30/5/7 18/28/7 17/50/7
f 17/50/7 33/51/7 30/5/7
f 33/51/7 32/19/7 30/5/7
f 9/21/7 25/18/7 32/19/7
f 3/12/8 6/15/8 5/17/8
f 4/20/9 5/17/9 9/21/9
f 3/12/10 7/44/10 8/23/10
f 12/1/11 1/3/11 31/24/11
f 4/20/34 10/22/34 39/25/34
f 13/7/13 12/1/13 11/9/13
f 12/1/14 13/7/14 15/26/14
f 11/9/15 17/11/15 18/28/15
f 6/15/35 8/23/35 26/29/35
f 26/29/17 8/23/17 7/52/17
f 7/52/17 38/53/17 26/29/17
f 38/53/17 35/32/17 26/29/17
f 35/32/17 34/54/17 40/55/17
f 40/55/17 16/56/17 15/26/17
f 15/26/17 29/39/17 23/31/17
f 23/31/17 22/36/17 26/29/17
f 35/32/17 40/55/17 15/26/17
f 15/26/17 23/31/17 35/32/17
f 31/35/18 1/41/18 37/14/18
f 1/41/18 34/40/18 35/45/18
f 37/14/18 1/41/18 35/45/18
f 37/14/18 2/13/18 31/35/18
f 2/13/18 36/33/18 31/35/18
f 5/17/36 20/16/36 27/38/36
f 13/7/37 28/8/37 29/39/37
f 20/16/23 19/30/23 28/8/23
f 19/30/23 22/36/23 28/8/23
f 22/36/23 23/31/23 28/8/23
f 28/8/23 21/6/23 20/16/23
f 21/6/23 24/37/23 25/18/23
f 3/12/38 37/14/38 38/43/38
