# Blender v2.82 (sub 7) OBJ File: 'GT_Stump_Shield.blend'
# www.blender.org
mtllib GT_Light_Screen_Collider.mtl
o Icosphere_Icosphere.001
v 0.099500 0.290999 0.306234
v -0.260499 0.290999 0.189261
v -0.260499 0.290999 -0.189261
v 0.099500 0.290999 -0.306234
v 0.321993 0.290998 0.000000
v 0.000000 0.490000 0.000000
v 0.342381 0.130000 0.111245
v 0.342381 0.130000 -0.111245
v 0.000000 0.130000 0.360000
v 0.211603 0.130000 0.291246
v -0.342381 0.130000 0.111245
v -0.211603 0.130000 0.291246
v -0.211603 0.130000 -0.291246
v -0.342381 0.130000 -0.111245
v 0.211603 0.130000 -0.291246
v 0.000000 0.130000 -0.360000
v 0.247748 0.319265 0.179999
v -0.094633 0.319266 0.291244
v -0.306233 0.319265 0.000000
v -0.094633 0.319266 -0.291244
v 0.247748 0.319265 -0.179999
v 0.058484 0.436236 0.179998
v 0.189263 0.436235 0.000000
v -0.153116 0.436235 0.111244
v -0.153116 0.436235 -0.111244
v 0.058484 0.436236 -0.179998
v -0.282866 -0.439999 0.282865
v 0.282820 -0.439999 -0.282820
v 0.386347 -0.439998 -0.103505
v 0.386347 -0.439999 0.103551
v -0.386393 -0.439998 0.103550
v -0.386393 -0.439999 -0.103506
v -0.282866 -0.439999 -0.282820
v -0.100963 -0.479999 -0.376689
v -0.195023 -0.479999 -0.337728
v -0.100963 -0.479999 0.376734
v -0.000023 -0.479999 0.390023
v 0.192189 -0.491054 -0.332899
v -0.000023 -0.491054 -0.384403
v -0.319150 -0.499999 -0.186907
v -0.384448 -0.491055 0.000023
v -0.320303 -0.499999 0.184937
v -0.192235 -0.491055 0.332944
v 0.099474 -0.491055 0.371348
v 0.192189 -0.491055 0.332944
v 0.332261 -0.491055 0.193350
v 0.384402 -0.491054 0.000023
v 0.320257 -0.499998 -0.184892
vt 0.720174 0.069726
vt 0.710120 0.069726
vt 0.715147 0.078433
vt 0.740281 0.069726
vt 0.730227 0.069726
vt 0.735254 0.078433
vt 0.659851 0.069726
vt 0.649797 0.069726
vt 0.654824 0.078433
vt 0.679959 0.069726
vt 0.669905 0.069726
vt 0.674932 0.078433
vt 0.700066 0.069726
vt 0.690012 0.069726
vt 0.695039 0.078433
vt 0.684985 0.078433
vt 0.690012 0.087140
vt 0.664878 0.078433
vt 0.669905 0.087140
vt 0.644771 0.078433
vt 0.649797 0.087140
vt 0.639744 0.069726
vt 0.725200 0.078433
vt 0.730227 0.087140
vt 0.705093 0.078433
vt 0.710120 0.087140
vt 0.695039 0.061019
vt 0.684985 0.061019
vt 0.674932 0.061019
vt 0.664878 0.061019
vt 0.654824 0.061019
vt 0.644771 0.061019
vt 0.735254 0.061019
vt 0.725200 0.061019
vt 0.715147 0.061019
vt 0.705093 0.061019
vt 0.134028 0.924912
vt 0.000000 0.000000
vt 0.000000 0.000000
vt 0.000000 0.000000
vt 0.304687 0.754253
vt 0.114850 0.899920
vt 0.000000 0.000000
vt 0.304687 0.754253
vt 0.000000 0.000000
vt 0.000000 0.000000
vt 0.304687 0.754253
vt 0.840283 0.855809
vt 0.208007 0.819357
vt 0.000000 0.000000
vt 0.266900 0.819768
vt 0.323864 0.779245
vt 0.773085 0.855809
vt 0.840282 0.858037
vt 0.806684 0.858037
vt 0.279695 0.735075
vt 0.773085 0.855809
vt 0.279695 0.735075
vt 0.304687 0.754253
vt 0.773085 0.855809
vt 0.114850 0.779245
vt 0.279695 0.944090
vt 0.840282 0.855809
vt 0.840283 0.855809
vt 0.208007 0.819357
vt 0.000000 0.000000
vt 0.304687 0.754253
vt 0.907046 0.855809
vt 0.279695 0.735075
vt 0.134028 0.754253
vt 0.323864 0.779245
vt 0.907046 0.855809
vt 0.818645 0.777528
vt 0.875952 0.762173
vt 0.933259 0.777528
vt 0.972576 0.821001
vt 0.990567 0.876787
vt 0.974863 0.934703
vt 0.933259 0.976047
vt 0.904829 0.984557
vt 0.846288 0.987496
vt 0.818645 0.976047
vt 0.779328 0.932573
vt 0.764381 0.876787
vt 0.779676 0.820393
vt 0.266900 0.819768
vt 0.000000 0.000000
vt 0.773085 0.858037
vt 0.000000 0.000000
vt 0.159020 0.944090
vt 0.000000 0.000000
vt 0.000000 0.000000
vt 0.000000 0.000000
vt 0.389007 0.811428
vt 0.941079 0.858037
vt 0.000000 0.000000
vt 0.159020 0.944090
vt 0.000000 0.000000
vt 0.000000 0.000000
vt 0.000000 0.000000
vt 0.323864 0.779245
vt 0.000000 0.000000
vt 0.773085 0.858037
vt 0.000000 0.000000
vt 0.941079 0.855809
vt 0.806684 0.858037
vt 0.974678 0.858037
vn 0.4089 0.6617 0.6284
vn -0.4713 0.6617 0.5831
vn -0.7002 0.6617 -0.2680
vn 0.0385 0.6617 -0.7488
vn 0.7240 0.6617 -0.1947
vn 0.2680 0.9435 -0.1947
vn 0.4911 0.7947 -0.3568
vn 0.4089 0.6617 -0.6284
vn -0.1024 0.9435 -0.3151
vn -0.1876 0.7947 -0.5773
vn -0.4713 0.6617 -0.5831
vn -0.3313 0.9435 0.0000
vn -0.6071 0.7947 0.0000
vn -0.7002 0.6617 0.2680
vn -0.1024 0.9435 0.3151
vn -0.1876 0.7947 0.5773
vn 0.0385 0.6617 0.7488
vn 0.2680 0.9435 0.1947
vn 0.4911 0.7947 0.3568
vn 0.7240 0.6617 0.1947
vn 0.8897 0.3304 -0.3151
vn 0.5746 0.3304 -0.7488
vn -0.0247 0.3304 -0.9435
vn -0.5346 0.3304 -0.7779
vn -0.9050 0.3304 -0.2680
vn -0.9050 0.3304 0.2680
vn -0.5346 0.3304 0.7779
vn -0.0247 0.3304 0.9435
vn 0.5746 0.3304 0.7488
vn 0.8897 0.3304 0.3151
vn -0.8336 0.0680 0.5482
vn 0.9969 0.0788 0.0000
vn 0.6539 -0.1428 -0.7429
vn 0.5768 -0.7314 -0.3637
vn 0.2955 -0.6637 -0.6871
vn 0.9347 0.1185 0.3352
vn 0.6922 0.5076 0.5130
vn 0.5765 0.1124 0.8093
vn 0.4231 -0.6484 0.6329
vn 0.6122 -0.6631 0.4307
vn 0.9446 -0.1304 0.3011
vn 0.0038 -0.6676 -0.7445
vn -0.2928 -0.6486 -0.7025
vn -0.2801 -0.5466 -0.7891
vn -0.5744 -0.7332 0.3640
vn -0.9485 -0.1325 0.2878
vn -0.7366 -0.6764 0.0007
vn 0.9484 -0.1326 -0.2880
vn 0.7294 -0.6841 -0.0066
vn -0.5708 -0.7379 -0.3600
vn -0.6560 -0.1516 -0.7393
vn -0.2928 -0.6871 0.6649
vn -0.6572 -0.1395 0.7407
vn -0.9481 -0.1346 -0.2879
vn -0.9508 0.1229 -0.2843
vn -0.7335 0.4369 -0.5206
vn -0.5878 0.1194 -0.8002
vn 0.2149 -0.6791 0.7018
vn -0.2409 -0.6712 0.7010
vn -0.2676 0.5094 -0.8179
vn -0.0068 0.1131 -0.9935
vn 0.2806 0.4344 -0.8559
vn 0.6005 0.1133 -0.7916
vn 0.7011 0.5096 -0.4988
vn 0.9464 0.1230 -0.2984
vn -0.0289 -0.5190 0.8543
vn -0.0204 0.1174 0.9929
vn -0.2698 0.5090 0.8173
vn -0.5920 0.1183 0.7971
vn -0.9508 0.1230 0.2843
vn -0.8595 0.5111 0.0000
vn 0.2761 0.4367 0.8562
usemtl Color_M02
s off
f 1/1/1 17/2/1 22/3/1
f 2/4/2 18/5/2 24/6/2
f 3/7/3 19/8/3 25/9/3
f 4/10/4 20/11/4 26/12/4
f 5/13/5 21/14/5 23/15/5
f 23/15/6 26/16/6 6/17/6
f 23/15/7 21/14/7 26/16/7
f 21/14/8 4/10/8 26/16/8
f 26/12/9 25/18/9 6/19/9
f 26/12/10 20/11/10 25/18/10
f 20/11/11 3/7/11 25/18/11
f 25/9/12 24/20/12 6/21/12
f 25/9/13 19/8/13 24/20/13
f 19/8/14 2/22/14 24/20/14
f 24/6/15 22/23/15 6/24/15
f 24/6/16 18/5/16 22/23/16
f 18/5/17 1/1/17 22/23/17
f 22/3/18 23/25/18 6/26/18
f 22/3/19 17/2/19 23/25/19
f 17/2/20 5/13/20 23/25/20
f 8/27/21 21/14/21 5/13/21
f 15/28/22 4/10/22 21/14/22
f 16/29/23 20/11/23 4/10/23
f 13/30/24 3/7/24 20/11/24
f 14/31/25 19/8/25 3/7/25
f 11/32/26 2/22/26 19/8/26
f 12/33/27 18/5/27 2/4/27
f 9/34/28 1/1/28 18/5/28
f 10/35/29 17/2/29 1/1/29
f 7/36/30 5/13/30 17/2/30
f 27/37/31 12/38/31 2/39/31 11/40/31 31/41/31 42/42/31
f 8/27/32 5/13/32 7/43/32 30/44/32 47/45/32 29/46/32
s 1
f 28/47/33 48/48/34 38/49/35
f 7/36/36 17/2/37 10/50/38 45/51/39 46/52/40 30/44/41
f 39/53/42 35/54/43 34/55/44
f 42/56/45 31/41/46 41/57/47
f 48/58/34 29/59/48 47/60/49
f 40/61/50 33/62/51 35/63/43
f 42/64/45 43/65/52 27/66/53
f 32/67/54 40/68/50 41/69/47
f 14/31/55 3/7/56 13/30/57 33/70/51 40/71/50 32/67/54
f 30/44/41 46/72/40 47/45/49
f 35/73/43 39/74/42 38/75/35 48/76/34 47/77/49 46/78/40 45/79/39 44/80/58 36/81/59 43/82/52 42/83/45 41/84/47 40/85/50
f 35/86/43 33/62/51 13/30/57 20/11/60 16/87/61 39/88/42 34/89/44
f 28/90/33 38/49/35 39/91/42 16/29/61 4/10/62 15/92/63
f 28/93/33 15/28/63 21/14/64 8/27/65 29/59/48 48/94/34
f 43/65/52 36/95/59 37/96/66 9/34/67 18/5/68 12/38/69 27/97/53
f 31/98/46 11/32/70 19/8/71 14/99/55 32/100/54 41/101/47
f 45/51/39 10/35/38 1/1/72 9/102/67 37/103/66 44/104/58
f 36/105/59 44/106/58 37/107/66
