# Blender v2.91.2 OBJ File: ''
# www.blender.org
mtllib OS_Corner_SlopeC.mtl
o Cube.041_Cube.081
v -0.459478 0.098151 0.422929
v -0.444365 -0.459005 0.467075
v 0.497158 0.039254 -0.426005
v 0.467075 -0.459004 -0.444365
v 0.000000 -0.001533 -0.534503
v -0.463918 0.487790 -0.461035
v -0.469688 0.027749 -0.469449
v -0.534503 -0.001533 -0.000000
v 0.001114 -0.538051 0.001114
v -0.466554 -0.457317 -0.463566
v 0.265804 0.169456 0.054658
v 0.025083 -0.455392 -0.505782
v 0.027114 -0.502491 -0.459421
v -0.432244 0.153631 0.447405
v -0.027924 0.312295 -0.508328
v -0.507158 0.311401 -0.021389
v 0.261339 0.037709 0.145090
v -0.427237 0.405043 -0.074121
v 0.202331 -0.435095 0.205386
v -0.504708 -0.456833 0.034986
v -0.460562 -0.501571 0.032725
v -0.418053 -0.427800 0.501404
v 0.493724 -0.431203 -0.426647
v 0.473337 -0.433121 -0.293190
v 0.453321 0.140466 -0.443807
v 0.395252 -0.433699 -0.059322
v 0.353830 -0.470202 -0.079218
v 0.065569 0.316628 -0.192413
v -0.425674 0.040157 0.497060
v 0.357723 0.039581 0.010344
v 0.451650 0.039025 -0.189462
v 0.399718 0.170719 -0.217326
v -0.072198 0.404588 -0.430273
v -0.061874 -0.433555 0.396893
v -0.079218 -0.470202 0.353830
v 0.170668 -0.470731 0.170668
v -0.207547 0.417035 -0.204643
v -0.139403 0.338133 -0.014088
v 0.043405 0.170778 0.271438
v 0.081327 0.040007 0.314826
v -0.191209 0.040206 0.452077
v -0.219308 0.170950 0.400294
vt 0.000000 0.000000
vt 0.000000 0.000000
vt 0.000000 0.000000
vt 0.000000 0.000000
vt 0.000000 0.000000
vt 0.000000 0.000000
vt 0.000000 0.000000
vt 0.000000 0.000000
vt 0.372189 0.655111
vt 0.504803 0.800981
vt 0.479727 0.795117
vt 0.185791 0.336950
vt 0.035838 0.149587
vt 0.120228 0.149516
vt 0.000000 0.000000
vt 0.615750 0.869331
vt 0.008892 0.013958
vt 0.000000 0.000000
vt 0.036039 0.160223
vt 0.000000 0.000000
vt 0.000000 0.000000
vt 0.000000 0.000000
vt 0.462801 0.814850
vt 0.429144 0.713005
vt 0.291120 0.623407
vt 0.391039 0.174681
vt 0.299537 0.809589
vt 0.306093 0.483530
vt 0.391375 0.176492
vt 0.020661 0.056689
vt 0.749863 0.698174
vt 0.000000 0.000000
vt 0.482630 0.693774
vt 0.038031 0.126392
vt 0.000000 0.000000
vt 0.000000 0.000000
vt 0.576905 0.836022
vt 0.000000 0.000000
vt 0.614792 0.947966
vt 0.594198 0.905848
vt 0.658681 0.907247
vt 0.680375 0.793262
vt 0.691668 0.667536
vt 0.728443 0.803409
vt 0.667680 0.946144
vt 0.723779 0.846783
vt 0.762531 0.853228
vt 0.655242 0.836438
vt 0.736899 0.684819
vt 0.757147 0.698500
vt 0.543310 0.664894
vt 0.575667 0.790370
vt 0.562692 0.945416
vt 0.476562 0.693143
vt 0.000000 0.000000
vt 0.188109 0.312373
vt 0.000000 0.000000
vt 0.000000 0.000000
vt 0.000000 0.000000
vt 0.442579 0.493950
vt 0.042808 0.175200
vt 0.051190 0.171473
vt 0.768677 0.818174
vt 0.279506 0.419616
vt 0.617883 0.657362
vt 0.547863 0.662899
vt 0.617892 0.655949
vt 0.614476 0.978711
vt 0.510348 0.631771
vt 0.051123 0.172582
vt 0.639682 0.788839
vt 0.177972 0.701349
vt 0.186408 0.613396
vt 0.687123 0.665390
vt 0.424329 0.688687
vn -0.0873 -0.9926 -0.0846
vn 0.1705 -0.0201 -0.9852
vn 0.2066 0.4386 0.8746
vn 0.1593 0.4466 0.8805
vn 0.1701 0.3985 0.9013
vn -0.1119 -0.0400 -0.9929
vn -0.1138 0.0411 -0.9926
vn -0.9867 -0.0313 0.1598
vn -0.8351 0.3380 0.4340
vn -0.8344 0.1797 0.5211
vn -0.8576 0.0817 0.5078
vn -0.9932 0.0407 -0.1088
vn -0.9922 -0.0059 -0.1247
vn -0.9935 -0.0394 -0.1069
vn -0.9285 -0.3578 -0.0988
vn 0.1778 0.0680 -0.9817
vn 0.1661 0.0966 -0.9814
vn 0.1005 -0.9924 -0.0710
vn 0.1374 -0.9904 0.0122
vn -0.9837 0.0963 0.1518
vn -0.1577 -0.9849 0.0716
vn -0.0716 -0.9924 0.0999
vn -0.9076 0.3322 0.2568
vn 0.6401 0.4027 0.6543
vn 0.6228 0.4283 0.6547
vn 0.2152 0.9544 0.2067
vn 0.2316 0.9140 0.3331
vn 0.3665 0.9116 0.1862
vn 0.8576 0.1560 0.4900
vn 0.8176 -0.4133 0.4009
vn 0.9149 0.2104 0.3446
vn 0.3069 0.9018 -0.3042
vn 0.6913 0.6953 0.1964
vn 0.7572 0.6477 -0.0839
vn 0.5795 0.7235 0.3752
vn 0.8646 -0.4722 0.1717
vn 0.7165 -0.5533 -0.4249
vn 0.9245 -0.2832 -0.2550
vn 0.4119 -0.3996 0.8189
vn 0.5269 0.1797 0.8307
vn 0.3125 0.1417 0.9393
vn -0.2842 0.9074 0.3096
vn 0.2196 0.7765 0.5906
vn -0.2864 -0.3403 0.8956
vn -0.6301 0.0359 0.7757
vn 0.3312 0.7567 0.5637
vn 0.7510 0.0825 0.6552
vn 0.9324 0.1854 -0.3103
vn -0.7124 -0.6828 0.1623
vn -0.7043 -0.7097 0.0182
vn -0.7182 -0.6926 0.0670
vn -0.0256 -0.6873 -0.7259
vn 0.0195 -0.7027 -0.7112
vn 0.1311 -0.7341 -0.6663
vn -0.0624 0.8993 0.4329
vn 0.6380 -0.3991 0.6585
vn 0.3035 -0.8281 0.4713
vn 0.4452 -0.8252 0.3477
vn -0.3133 -0.6174 0.7216
vn 0.1750 0.9777 0.1160
vn -0.7121 -0.7000 -0.0538
vn 0.2948 0.6960 -0.6547
vn -0.0582 -0.7016 -0.7102
vn -0.6220 0.7286 0.2868
vn 0.2145 -0.9644 0.1548
vn 0.1642 -0.9727 0.1642
vn 0.2684 -0.9600 0.0797
vn 0.1740 -0.9443 0.2794
vn 0.0204 -0.9593 0.2816
vn -0.0156 -0.9928 0.1190
vn -0.9438 -0.0196 0.3300
vn 0.5017 -0.8470 0.1756
usemtl Material.011
s off
f 13/1/1 9/2/1 21/3/1 10/4/1
f 25/5/2 4/6/2 12/7/2 5/8/2
f 29/9/3 41/10/4 42/11/5 14/12/5
f 12/13/6 10/14/6 7/15/6 5/8/6
f 7/16/7 6/17/7 15/18/7 5/8/7
f 20/19/8 2/20/8 1/21/8 8/22/8
f 29/23/9 14/12/10 1/24/11
f 7/25/12 8/22/12 16/26/13 6/27/12
f 20/19/14 8/22/14 7/15/14 10/28/15
f 15/29/16 25/5/17 5/8/17
f 9/2/18 13/30/18 4/31/19
f 1/21/20 16/32/20 8/22/20
f 2/33/21 21/34/22 9/2/22
f 14/12/23 16/32/23 1/21/23
f 40/35/24 11/36/24 39/37/24
f 40/35/25 17/38/25 11/36/25
s 1
f 37/39/26 38/40/27 28/41/28
f 30/42/29 26/43/30 31/44/31
f 33/45/32 32/46/33 25/47/34
f 28/41/28 11/48/35 32/46/33
f 24/49/36 4/31/37 23/50/38
f 34/51/39 40/52/40 41/10/41
f 18/53/42 42/11/43 38/40/27
f 18/53/42 38/40/27 37/39/26
f 22/54/44 41/10/41 29/9/45
f 11/48/35 30/42/29 31/55/31 32/46/33
f 41/56/41 40/35/40 39/57/46 42/11/43
f 11/48/35 17/38/47 30/58/29
f 3/59/48 25/47/34 32/46/33 31/60/31
f 2/33/49 20/61/50 21/34/51
f 13/62/52 12/7/53 4/31/54
f 23/50/38 3/63/48 31/44/31 24/49/36
f 18/53/42 14/12/55 42/11/43
f 38/40/27 42/11/43 39/64/46
f 22/54/44 34/51/39 41/10/41
f 34/51/39 19/65/56 40/52/40
f 19/65/56 34/51/39 35/66/57 36/67/58
f 34/51/39 22/54/44 2/33/59 35/66/57
f 37/39/26 6/68/60 18/53/42
f 33/45/32 6/68/60 37/39/26
f 19/65/56 17/69/47 40/52/40
f 20/61/50 10/28/61 21/70/51
f 26/43/30 30/42/29 17/71/47 19/65/56
f 6/68/60 33/45/32 15/18/62
f 3/72/48 4/73/37 25/5/34
f 3/63/48 23/50/38 4/31/37
f 28/41/28 38/40/27 11/48/35
f 10/14/63 12/13/53 13/62/52
f 25/47/34 15/18/62 33/45/32
f 16/26/64 18/53/42 6/68/60
f 38/40/27 39/37/46 11/36/35
f 33/45/32 37/39/26 28/41/28
f 27/74/65 9/2/66 4/31/67
f 27/74/65 36/67/68 9/2/66
f 36/67/68 35/66/69 9/2/66
f 35/66/69 2/33/70 9/2/66
f 29/75/45 1/24/71 2/20/59
f 22/54/44 29/9/45 2/33/59
f 33/45/32 28/41/28 32/46/33
f 14/12/55 18/53/42 16/26/64
f 27/74/72 26/43/30 19/65/56 36/67/58
f 31/44/31 26/43/30 24/49/36
f 4/31/37 24/49/36 26/43/30 27/74/72
