# Blender v2.91.2 OBJ File: ''
# www.blender.org
mtllib OS_Wide_SlopeC.mtl
o Cube.010_Cube.117
v -0.476542 -0.457824 -0.456325
v -0.501342 0.037891 -0.436458
v 0.487701 0.509793 -0.457033
v 0.486909 0.514649 1.455996
v -0.452132 0.149893 1.453770
v -0.500168 0.037711 1.437276
v -0.481716 -0.455030 1.454951
v 0.495699 -0.464202 -0.461913
v 0.496041 -0.462611 1.462601
v 0.000000 -0.001533 -0.534503
v 0.000000 -0.001533 1.534503
v 0.538363 -0.001539 0.000825
v 0.538341 -0.001540 0.999424
v -0.001650 -0.538380 0.000603
v -0.001636 -0.538414 0.998971
v -0.450125 0.156115 -0.452287
v 0.113929 0.415592 -0.428928
v 0.071005 0.400379 1.429175
v -0.041492 -0.486374 1.489063
v -0.015130 -0.499284 -0.464007
v -0.039937 -0.457519 -0.502242
v 0.054587 0.327742 -0.504813
v 0.053489 0.327521 1.504648
vt 0.000000 0.000000
vt 0.000000 0.000000
vt 0.000000 0.000000
vt 0.000000 0.000000
vt 0.300918 0.968149
vt 0.048768 0.115127
vt 0.000000 0.000000
vt 0.000000 0.000000
vt 0.300918 0.832819
vt 0.050980 0.169208
vt 0.000000 0.000000
vt 0.481238 0.190181
vt 0.028333 0.970705
vt 0.028475 0.492935
vt 0.476632 0.188361
vt 0.020752 0.170634
vt 0.300918 0.495544
vt 0.000000 0.000000
vt 0.400340 0.187051
vt 0.573708 0.762875
vt 0.017008 0.104832
vt 0.000000 0.000000
vt 0.000000 0.000000
vt 0.981897 0.968503
vt 0.889401 0.348187
vt 0.027270 0.937752
vt 0.000000 0.000000
vt 0.000000 0.000000
vt 0.000000 0.000000
vt 0.022589 0.025086
vt 0.081771 0.040649
vt 0.385029 0.151788
vt 0.014284 0.270330
vt 0.000000 0.000000
vt 0.447245 0.176748
vt 0.778297 0.916930
vt 0.473993 0.925267
vt 0.462083 0.805997
vt 0.787702 0.837475
vt 0.717534 0.811624
vt 0.787420 0.777919
vt 0.465246 0.777914
vt 0.478889 0.715338
vt 0.299957 0.721281
vt 0.650043 0.441360
vt 0.042575 0.171940
vt 0.602890 0.536439
vt 0.166095 0.211253
vt 0.294838 0.696030
vt 0.299957 0.721281
vt 0.300918 0.832819
vt 0.090181 0.033085
vt 0.747223 0.973017
vt 0.000000 0.000000
vt 0.828638 0.941824
vn -0.0905 -0.9926 -0.0809
vn -0.1672 -0.9859 -0.0000
vn -0.0866 0.0626 -0.9943
vn -0.1460 -0.0170 -0.9891
vn -0.2196 -0.0880 -0.9716
vn 0.0686 -0.9940 -0.0856
vn 0.1499 -0.9887 0.0008
vn 0.1475 -0.9891 -0.0000
vn -0.0783 -0.9920 0.0990
vn 0.0493 -0.9928 0.1094
vn -0.1405 0.1120 -0.9837
vn -0.1556 0.2107 -0.9651
vn 0.0774 0.0768 -0.9940
vn 0.1505 0.0062 -0.9886
vn 0.0739 -0.0768 -0.9943
vn -0.1339 -0.0315 0.9905
vn -0.1006 -0.1304 0.9863
vn 0.9949 0.0087 -0.1004
vn 0.9958 -0.0913 0.0000
vn 0.9958 -0.0917 -0.0001
vn 0.9970 0.0197 -0.0745
vn 0.0781 0.0775 0.9939
vn -0.1383 0.1118 0.9841
vn 0.0532 -0.0977 0.9938
vn 0.1508 0.0081 0.9885
vn 0.9951 0.0991 0.0000
vn 0.9951 0.0987 0.0002
vn 0.9949 0.0100 0.1008
vn -0.3260 0.8888 0.3222
vn -0.3168 0.8912 -0.3245
vn -0.7296 0.6641 -0.1629
vn -0.6907 0.7033 0.1682
vn -0.9070 -0.4168 0.0599
vn -0.8830 0.1399 0.4481
vn -0.8478 0.0588 -0.5270
vn -0.9653 -0.2592 -0.0324
vn -0.1702 -0.9854 0.0010
vn 0.0037 -0.6740 -0.7387
vn -0.1752 -0.6881 -0.7041
vn -0.0297 -0.6845 -0.7284
vn 0.0026 -0.6955 -0.7185
vn -0.2918 0.7305 -0.6174
vn -0.2603 0.9620 0.0826
vn -0.2594 0.9616 -0.0900
vn -0.2885 0.7214 0.6295
usemtl Material.017
s off
f 1/1/1 20/2/1 14/3/1
f 15/4/2 1/5/2 14/3/2
f 16/6/3 10/7/4 21/8/4 1/9/5
f 20/10/6 8/11/6 14/12/6
f 8/13/7 9/14/7 15/15/7
f 8/13/8 15/15/8 14/12/8
f 19/16/9 7/17/9 15/4/9
f 9/14/10 19/16/10 15/15/10
f 22/18/11 10/7/11 16/6/12
f 22/19/13 3/20/13 10/7/13
f 3/20/14 8/11/14 10/7/14
f 8/11/15 21/8/15 10/7/15
f 19/21/16 11/22/16 5/23/16 7/24/17
f 3/20/18 12/25/18 8/26/18
f 12/27/19 13/28/19 9/29/19
f 12/27/20 9/29/20 8/13/21
f 4/30/22 23/31/22 11/22/22
f 23/32/23 5/23/23 11/22/23
f 19/21/24 9/33/24 11/22/24
f 9/33/25 4/30/25 11/22/25
f 4/34/26 13/35/26 12/27/26
f 4/34/27 12/27/27 3/20/27
f 13/35/28 4/34/28 9/29/28
s 1
f 18/36/29 17/37/30 16/38/31 5/39/32
f 7/40/33 6/41/34 2/42/35 1/43/36
f 15/4/37 7/17/33 1/5/36
f 2/44/35 16/6/31 1/9/36
f 20/2/38 1/45/39 21/46/40
f 5/39/32 16/38/31 2/47/35 6/48/34
f 5/49/32 6/50/34 7/51/33
f 8/26/41 20/10/38 21/46/40
f 16/38/31 17/37/30 22/52/42
f 4/53/43 3/54/44 17/55/30 18/36/29
f 4/53/43 18/36/29 23/31/45
f 3/20/44 22/52/42 17/55/30
f 18/36/29 5/39/32 23/31/45
