# Blender v2.82 (sub 7) OBJ File: 'DLEDEnd.blend'
# www.blender.org
mtllib DLEDTracksEndCollider.mtl
o EDTrackEnd
v 1.500000 1.500000 -0.450000
v 1.400000 1.000000 -0.350000
v -0.450000 1.500000 -0.500000
v -0.450000 2.300000 -0.500000
v 1.450000 2.300000 -0.500000
v 1.450000 1.500000 -0.500000
v -0.250000 1.500000 0.500000
v 1.250000 1.500000 0.500000
v -0.250000 1.000000 -0.350000
v -0.250000 1.500000 2.500000
v -0.250000 1.149999 3.350000
v -0.250000 1.149999 2.887500
v -0.250000 0.800000 1.037500
v -0.250000 0.800000 -0.350000
v -0.400000 1.000000 -0.350000
v -0.400000 0.800000 -0.350000
v -0.150000 0.300000 -0.118750
v -0.300000 0.300000 -0.118750
v -0.150000 0.300000 1.268750
v -0.300000 0.300000 1.268750
v -0.150000 0.649999 3.118750
v -0.300000 0.649999 3.118750
v -0.400000 1.149999 3.350000
v -0.450000 1.499999 3.500000
v 1.450000 1.499999 3.500000
v 1.450000 2.099999 3.500000
v -0.450000 2.099999 3.500000
v -0.500000 2.099999 3.450000
v -0.250000 2.349999 2.815001
v 1.250000 2.349999 2.815001
v 1.500000 2.099999 3.450000
v 1.500000 1.499999 3.450000
v 1.400000 1.149999 3.350000
v 1.250000 1.149999 2.887500
v 1.300000 0.649999 3.118750
v 1.150000 0.649999 3.118750
v 1.250000 1.149999 3.350000
v 1.250000 1.500000 2.500000
v 1.250000 1.000000 -0.350000
v 1.250000 0.800000 -0.350000
v 1.250000 0.800000 1.037500
v 1.400000 0.800000 -0.350000
v 1.300000 0.300000 -0.118750
v 1.150000 0.300000 -0.118750
v 1.300000 0.300000 1.268750
v 1.150000 0.300000 1.268750
v 1.250000 2.500000 -0.315000
v 1.500000 2.300000 -0.450000
v 1.471260 2.322990 -0.478736
v -0.250000 2.500000 -0.315000
v -0.471264 2.322990 -0.478736
v -0.500000 2.300000 -0.450000
v -0.500000 1.500000 -0.450000
v -0.500000 1.499999 3.450000
v 1.250000 1.309806 -0.450971
v 1.300000 1.350000 -0.500000
v 1.270412 1.259175 -0.479587
v 1.250000 1.255279 -0.477639
v -0.300000 1.350000 -0.500000
v -0.250000 1.309806 -0.450971
v -0.250000 1.255279 -0.477639
v -0.270412 1.259175 -0.479587
v -0.250000 1.899999 3.500000
v 1.250000 1.899999 3.500000
vt 0.000000 0.000000
vt 0.238725 0.526113
vt 0.000000 0.000000
vt 0.969579 0.359554
vt 0.921921 0.356392
vt 0.848232 0.289187
vt 0.848232 0.295385
vt 0.906335 0.281666
vt 0.000000 0.000000
vt 0.000000 0.000000
vt 0.238725 0.521136
vt 0.348928 0.748780
vt 0.351044 0.751069
vt 0.000000 0.000000
vt 0.792455 0.289187
vt 0.710898 0.977086
vt 0.000000 0.000000
vt 0.348928 0.669147
vt 0.333996 0.654216
vt 0.174730 0.654216
vt 0.159799 0.669147
vt 0.000000 0.000000
vt 0.000000 0.000000
vt 0.697943 0.832392
vt 0.689944 0.832392
vt 0.695277 0.805726
vt 0.703277 0.805726
vt 0.169046 0.536067
vt 0.169046 0.674181
vt 0.203885 0.858332
vt 0.203885 0.904370
vt 0.278541 0.919301
vt 0.238725 0.819760
vt 0.238725 0.620677
vt 0.219793 0.526016
vt 0.214365 0.523361
vt 0.188954 0.536067
vt 0.967998 0.361135
vt 0.961674 0.339474
vt 0.914240 0.339474
vt 0.907916 0.361135
vt 0.909497 0.270599
vt 0.914240 0.270599
vt 0.907916 0.281666
vt 0.961674 0.270599
vt 0.967998 0.281666
vt 0.961674 0.294315
vt 0.000000 0.000000
vt 0.329019 0.768689
vt 0.159799 0.748780
vt 0.157682 0.751069
vt 0.154822 0.914324
vt 0.000000 0.000000
vt 0.159799 0.919301
vt 0.906335 0.359554
vt 0.179707 0.768689
vt 0.966417 0.270599
vt 0.969579 0.281666
vt 0.000000 0.000000
vt 0.000000 0.000000
vt 0.000000 0.000000
vt 0.177675 0.645175
vt 0.164776 0.619377
vt 0.843584 0.289187
vt 0.843584 0.295385
vt 0.715110 0.787060
vt 0.707110 0.787060
vt 0.712443 0.813726
vt 0.720443 0.813726
vt 0.329019 0.619377
vt 0.329019 0.644787
vt 0.331051 0.645175
vt 0.343951 0.619377
vt 0.179707 0.644787
vt 0.154822 0.669147
vt 0.188954 0.536067
vt 0.921921 0.356392
vt 0.932989 0.359554
vt 0.238725 0.526113
vt 0.710898 0.952420
vt 0.000000 0.000000
vt 0.000000 0.000000
vt 0.000000 0.000000
vt 0.684231 0.964753
vt 0.710898 0.977086
vt 0.000000 0.000000
vt 0.710898 0.952420
vt 0.710898 0.977086
vt 0.000000 0.000000
vt 0.000000 0.000000
vt 0.665565 0.792090
vt 0.188954 0.536067
vt 0.914240 0.294315
vt 0.710898 0.977086
vt 0.684231 0.964753
vt 0.715110 0.787060
vt 0.000000 0.000000
vt 0.000000 0.000000
vt 0.179707 0.539551
vt 0.157682 0.523252
vt 0.797103 0.289187
vt 0.797103 0.295385
vt 0.697943 0.832392
vt 0.695277 0.787060
vt 0.689944 0.813726
vt 0.697943 0.813726
vt 0.703277 0.787060
vt 0.792455 0.295385
vt 0.712443 0.832392
vt 0.707110 0.805726
vt 0.715110 0.805726
vt 0.720443 0.832392
vt 0.203885 0.858332
vt 0.169046 0.674181
vt 0.169046 0.536067
vt 0.188954 0.536067
vt 0.214365 0.523361
vt 0.219793 0.526016
vt 0.238725 0.620677
vt 0.238725 0.819760
vt 0.278541 0.919301
vt 0.203885 0.904370
vt 0.000000 0.000000
vt 0.932989 0.359554
vt 0.000000 0.000000
vt 0.000000 0.000000
vt 0.712443 0.832392
vt 0.179707 0.619377
vt 0.703277 0.787060
vt 0.692231 0.779757
vt 0.665565 0.792090
vt 0.684231 0.964753
vt 0.353905 0.526113
vt 0.707110 0.787060
vt 0.154822 0.526113
vn 1.0000 0.0000 0.0000
vn -0.7238 -0.6900 -0.0000
vn 0.7071 0.0000 -0.7071
vn -1.0000 0.0000 0.0000
vn 0.0000 0.0000 -1.0000
vn 0.7238 -0.6900 -0.0000
vn 0.0000 -0.4198 0.9076
vn 0.0000 0.9394 0.3428
vn 0.0000 -0.3939 0.9191
vn -0.3651 -0.1826 0.9129
vn 0.0000 0.6790 -0.7341
vn -0.7071 0.0000 0.7071
vn -0.2623 0.9286 0.2623
vn 0.2623 0.9286 0.2623
vn 0.0000 0.9989 0.0479
vn 0.6556 -0.3746 0.6556
vn 0.0950 -0.9939 0.0554
vn 0.0004 -0.9981 0.0613
vn 0.0000 -0.9981 0.0613
vn -0.0004 -0.9981 0.0613
vn -0.0950 -0.9939 0.0554
vn -0.3015 -0.3015 -0.9045
vn 0.0000 -0.4198 -0.9076
vn 0.0000 -0.4472 -0.8944
vn 0.0000 -0.2429 -0.9701
vn 0.0000 -0.2193 -0.9757
vn -0.5911 -0.4948 -0.6370
vn -0.4233 -0.3852 -0.8201
vn -0.1918 -0.9802 0.0489
vn -0.6097 -0.5064 -0.6097
vn -0.9734 -0.2290 0.0045
vn -0.9893 0.1455 -0.0105
vn -0.9888 0.1167 -0.0930
vn -0.9899 0.1374 -0.0340
vn 0.9888 0.1167 -0.0930
vn 0.9893 0.1455 -0.0105
vn 0.9899 0.1374 -0.0340
vn 0.6804 -0.2722 -0.6804
vn 0.3651 -0.1826 0.9129
vn 0.7071 0.0000 0.7071
vn 0.9848 -0.1728 0.0174
vn -0.6556 -0.3746 0.6556
vn -0.6471 0.7614 0.0377
vn 0.3015 -0.3015 -0.9045
vn 0.9179 0.0000 -0.3969
vn -0.0623 0.9972 -0.0404
vn -0.6804 -0.2722 -0.6804
vn 0.5911 -0.4948 -0.6370
vn 0.4233 -0.3852 -0.8201
vn 0.6097 -0.5064 -0.6097
vn 0.0000 -0.9826 0.1859
vn 0.9734 -0.2290 0.0045
vn 0.0623 0.9972 -0.0404
vn 0.0000 -1.0000 -0.0000
vn 0.0000 0.0000 1.0000
vn -0.9848 -0.1728 0.0174
vn 0.6471 0.7614 0.0377
vn -0.9179 0.0000 -0.3969
vn -0.7071 0.0000 -0.7071
vn 0.1918 -0.9802 0.0489
usemtl Color_M03
s off
f 32/1/1 1/2/1 48/3/1 31/4/1
f 33/5/1 42/6/1 2/7/1
f 54/8/2 53/9/2 62/10/2
f 6/11/3 5/12/3 49/13/3 48/3/3 1/2/3
f 15/14/4 16/15/4 23/16/4
f 5/17/5 6/18/5 56/19/5 59/20/5 3/21/5 4/22/5
f 57/23/6 1/2/6 32/1/6
s 1
f 11/24/7 23/25/7 22/26/7 21/27/7
f 40/28/4 41/29/4 34/30/4 37/31/4 64/32/4 38/33/4 8/34/4 55/35/4 58/36/4 39/37/4
f 26/38/8 30/39/8 29/40/8 27/41/8
f 23/42/9 11/43/9 24/44/9
f 37/45/10 25/46/10 64/47/10
f 50/48/11 47/49/11 49/13/11 5/17/11 4/50/11 51/51/11
f 28/52/12 54/8/12 24/53/12 27/54/12
f 28/55/13 27/41/13 29/40/13
f 26/38/14 31/4/14 30/39/14
f 47/49/15 50/56/15 29/40/15 30/39/15
f 33/57/16 32/58/16 25/46/16
f 58/59/17 32/58/18 25/60/19 24/53/19 54/8/20 61/61/21
f 59/20/22 62/62/22 15/63/22 3/21/22
f 25/46/9 37/45/9 33/57/9
f 40/64/5 39/65/5 2/7/5 42/6/5
f 43/66/23 44/67/23 40/68/23 42/69/23
f 39/70/24 58/71/24 57/72/24 2/73/24
f 62/62/25 59/20/26 56/19/26 57/72/25
f 3/21/27 59/20/22 62/62/28
f 54/8/20 62/62/29 61/74/21
f 53/75/30 3/21/27 62/10/28
f 15/76/31 23/77/31 54/78/31 53/79/31
f 34/80/32 39/81/33 44/82/34 46/83/32 36/84/32 37/85/32
f 9/86/35 12/87/36 11/88/36 21/89/36 19/90/36 17/91/37
f 2/92/38 6/11/38 1/2/38
f 57/72/25 58/71/24 61/74/24 62/62/25
f 63/93/39 24/44/39 11/43/39
f 26/38/40 25/46/40 32/1/40 31/4/40
f 33/94/41 35/95/41 45/96/41 43/97/41 42/6/41
f 54/8/42 23/42/42 24/44/42
f 52/98/43 28/55/43 29/40/43 50/99/43 51/100/43
f 2/73/44 57/72/44 56/19/44 6/18/44
f 14/101/45 9/102/35 17/91/37
f 11/88/46 12/103/46 9/86/46 15/63/46 23/16/46
f 15/63/47 53/75/47 3/21/47
f 18/104/23 16/105/23 14/106/23 17/107/23
f 14/101/5 16/15/5 15/108/5 9/102/5
f 56/19/44 6/18/48 57/23/49
f 6/11/48 1/2/50 57/23/49
f 37/109/7 36/110/7 35/111/7 33/112/7
f 12/113/1 13/114/1 14/115/1 9/116/1 61/117/1 60/118/1 7/119/1 10/120/1 63/121/1 11/122/1
f 22/26/51 20/123/51 19/90/51 21/89/51
f 33/5/52 2/92/52 1/2/52 32/124/52
f 45/125/51 35/95/51 36/126/51 46/83/51
f 37/45/53 33/57/53 2/7/53 39/65/53 34/127/53
f 9/128/24 15/63/24 62/62/24 61/74/24
f 17/107/54 19/129/54 20/123/54 18/104/54
f 25/60/55 26/38/55 27/54/55 24/53/55
f 16/130/56 18/131/56 20/123/56 22/132/56 23/16/56
f 54/8/4 28/52/4 52/98/4 53/9/4
f 30/39/57 31/4/57 48/133/57 49/13/57 47/49/57
f 39/37/33 40/28/58 44/67/34
f 46/134/54 44/67/54 43/97/54 45/96/54
f 3/21/59 53/75/59 52/135/59 51/100/59 4/22/59
f 58/71/17 57/72/60 32/1/18
