# Blender v2.80 (sub 75) OBJ File: ''
# www.blender.org
mtllib YK_Shotgun_Body.mtl
o BF_Block_111.002_BF_Block_111.002
v -0.264092 0.070278 -0.003779
v -0.201363 0.208613 -0.003779
v -0.201363 0.440988 -0.003780
v -0.223629 0.473859 -0.003780
v -0.816827 0.473859 -0.003779
v -0.839092 0.440988 -0.003779
v -0.839092 0.208613 -0.003779
v -0.776364 0.070278 -0.003779
v -0.949183 0.173582 -0.102455
v -0.949183 0.477340 -0.102455
v -0.949183 0.477340 -0.947405
v -0.949183 0.173582 -0.947405
v -0.170223 0.580148 -0.102456
v -0.170223 0.580148 -0.947406
v -0.870233 0.580149 -0.947405
v -0.870233 0.580149 -0.102455
v -0.091273 0.173582 -0.947405
v -0.091273 0.477340 -0.947406
v -0.091273 0.477340 -0.102456
v -0.091273 0.173582 -0.102455
v -0.197852 -0.040899 -0.947405
v -0.197852 -0.040899 -0.102455
v -0.842604 -0.040900 -0.102455
v -0.842604 -0.040900 -0.947405
v -0.810674 0.012207 -1.000512
v -0.619856 0.012207 -1.000512
v -0.420599 0.012207 -1.000512
v -0.229781 0.012207 -1.000512
v -0.168176 0.523267 -0.051701
v -0.131038 0.469090 -0.051650
v -0.131039 0.189805 -0.051648
v -0.828770 0.012927 -0.051706
v -0.909416 0.189805 -0.051648
v -0.211686 0.012927 -0.051706
v -0.909416 0.469090 -0.051649
v -0.872280 0.523268 -0.051700
v -0.844056 0.527042 -1.000512
v -0.896077 0.459301 -1.000512
v -0.896077 0.191316 -1.000512
v -0.144379 0.459301 -1.000513
v -0.196400 0.527042 -1.000513
v -0.144379 0.191316 -1.000512
v -0.619857 0.527042 -1.000512
v -0.588960 0.447211 -1.000512
v -0.451496 0.447211 -1.000512
v -0.482871 0.393271 -0.960571
v -0.557584 0.393271 -0.960571
v -0.420599 0.527042 -1.000512
v -0.588959 0.092038 -1.000512
v -0.451496 0.092038 -1.000512
v -0.482871 0.145978 -0.960571
v -0.557584 0.145978 -0.960571
vt 0.105203 0.404906
vt 0.113469 0.422774
vt 0.112994 0.457927
vt 0.109806 0.463732
vt 0.033638 0.482122
vt 0.031227 0.478104
vt 0.032682 0.445698
vt 0.040813 0.424564
vt 0.029577 0.449919
vt 0.027689 0.490944
vt 0.094835 0.523947
vt 0.095544 0.488557
vt 0.125400 0.483827
vt 0.183149 0.521321
vt 0.102857 0.534760
vt 0.036077 0.503170
vt 0.192180 0.467449
vt 0.192847 0.506259
vt 0.136707 0.465558
vt 0.136902 0.419880
vt 0.178775 0.443896
vt 0.122451 0.393141
vt 0.042783 0.418004
vt 0.106938 0.461466
vt 0.667654 0.539403
vt 0.641122 0.539403
vt 0.613417 0.539403
vt 0.586885 0.539403
vt 0.582445 0.532019
vt 0.672094 0.532019
vt 0.121573 0.472244
vt 0.126917 0.462671
vt 0.127258 0.420427
vt 0.039482 0.421589
vt 0.029241 0.448080
vt 0.116407 0.397806
vt 0.027473 0.486362
vt 0.031413 0.492940
vt 0.672296 0.610988
vt 0.679529 0.601569
vt 0.686913 0.604077
vt 0.675936 0.618372
vt 0.679529 0.564307
vt 0.686913 0.561841
vt 0.575010 0.601569
vt 0.582243 0.610988
vt 0.578603 0.618372
vt 0.567626 0.604077
vt 0.575010 0.564307
vt 0.567626 0.561841
vt 0.113558 0.469013
vt 0.104430 0.491472
vt 0.103913 0.522595
vt 0.109232 0.529644
vt 0.133472 0.525483
vt 0.133804 0.464257
vt 0.705055 0.532006
vt 0.705055 0.603047
vt 0.677178 0.586833
vt 0.677178 0.548221
vt 0.613417 0.610988
vt 0.641122 0.610988
vt 0.155890 0.459068
vt 0.137125 0.472804
vt 0.152417 0.469359
vt 0.156087 0.521601
vt 0.182831 0.517009
vt 0.189108 0.507246
vt 0.188577 0.473528
vt 0.178008 0.453873
vt 0.152494 0.512353
vt 0.136951 0.515177
vt 0.146475 0.504887
vt 0.146490 0.474851
vt 0.138118 0.476701
vt 0.138007 0.506499
vt 0.521500 0.603048
vt 0.549376 0.586833
vt 0.521500 0.532006
vt 0.549376 0.548221
vt 0.548122 0.631992
vt 0.553899 0.640520
vt 0.539512 0.653339
vt 0.529877 0.639283
vt 0.564397 0.535813
vt 0.548122 0.571703
vt 0.529877 0.566823
vt 0.550800 0.520933
vt 0.707802 0.640520
vt 0.713578 0.631992
vt 0.731824 0.639283
vt 0.722189 0.653339
vt 0.713578 0.571703
vt 0.697304 0.535813
vt 0.710900 0.520933
vt 0.731824 0.566823
vn 0.0000 0.0000 1.0000
vn -1.0000 0.0000 0.0000
vn 0.0000 1.0000 0.0000
vn 1.0000 -0.0000 0.0000
vn 0.0000 -1.0000 -0.0000
vn -0.8955 -0.4450 -0.0000
vn 0.8955 -0.4450 -0.0000
vn -0.7931 0.6091 0.0000
vn 0.0000 -0.7071 -0.7071
vn 0.6648 0.4918 0.5623
vn 0.7875 0.0000 0.6163
vn -0.7134 -0.3414 0.6120
vn 0.7134 -0.3414 0.6120
vn 0.0000 -0.6860 0.7276
vn -0.6648 0.4918 0.5623
vn 0.0000 0.6658 0.7461
vn -0.5608 0.4307 -0.7071
vn -0.6317 -0.3081 -0.7113
vn 0.5608 0.4307 -0.7071
vn 0.6317 -0.3081 -0.7113
vn 0.7071 -0.0000 -0.7071
vn 0.0000 0.0000 -1.0000
vn 0.0000 -0.5951 -0.8037
vn -0.7071 0.0000 -0.7071
vn 0.7931 0.6091 0.0000
vn -0.0000 0.7071 -0.7071
vn -0.7864 0.0000 -0.6177
vn 0.0000 0.5951 -0.8037
vn 0.7864 0.0000 -0.6177
vn -0.4495 0.3072 0.8388
vn -0.5059 -0.2303 0.8313
vn 0.4495 0.3072 0.8388
vn 0.5059 -0.2303 0.8313
vn 0.0000 -0.6412 0.7673
vn 0.5627 0.0000 0.8267
vn 0.0000 0.6962 0.7178
vn -0.5627 0.0000 0.8267
vn -0.7875 0.0000 0.6164
usemtl Default_OBJ.010
s off
f 1/1/1 2/2/1 3/3/1 4/4/1 5/5/1 6/6/1 7/7/1 8/8/1
s 1
f 9/9/2 10/10/2 11/11/2 12/12/2
f 13/13/3 14/14/3 15/15/3 16/16/3
f 17/17/4 18/18/4 19/19/4 20/20/4
f 21/21/5 22/22/5 23/23/5 24/24/5
f 24/24/6 23/23/6 9/9/6 12/12/6
f 22/22/7 21/21/7 17/17/7 20/20/7
f 16/16/8 15/15/8 11/11/8 10/10/8
f 25/25/9 26/26/9 27/27/9 28/28/9 21/29/9 24/30/9
f 29/31/10 30/32/10 19/19/10 13/13/10
f 20/20/11 19/19/11 30/32/11 31/33/11
f 32/34/12 33/35/12 9/9/12 23/23/12
f 31/33/13 34/36/13 22/22/13 20/20/13
f 23/23/14 22/22/14 34/36/14 32/34/14
f 35/37/15 36/38/15 16/16/15 10/10/15
f 13/13/16 16/16/16 36/38/16 29/31/16
f 37/39/17 38/40/17 11/41/17 15/42/17
f 39/43/18 25/25/18 24/30/18 12/44/18
f 40/45/19 41/46/19 14/47/19 18/48/19
f 28/28/20 42/49/20 17/50/20 21/29/20
f 42/49/21 40/45/21 18/48/21 17/50/21
f 25/51/22 39/52/22 38/53/22 37/54/22 43/55/22 26/56/22
f 44/57/23 45/58/23 46/59/23 47/60/23
f 38/40/24 39/43/24 12/44/24 11/41/24
f 14/14/25 13/13/25 19/19/25 18/18/25
f 41/46/26 48/61/26 43/62/26 37/39/26 15/42/26 14/47/26
f 27/63/22 26/56/22 49/64/22 50/65/22
f 27/63/22 48/66/22 41/67/22 40/68/22 42/69/22 28/70/22
f 43/55/22 48/66/22 45/71/22 44/72/22
f 26/56/22 43/55/22 44/72/22 49/64/22
f 48/66/22 27/63/22 50/65/22 45/71/22
f 46/73/22 51/74/22 52/75/22 47/76/22
f 45/58/27 50/77/27 51/78/27 46/59/27
f 50/77/28 49/79/28 52/80/28 51/78/28
f 49/79/29 44/57/29 47/60/29 52/80/29
f 6/81/30 5/82/30 36/83/30 35/84/30
f 8/85/31 7/86/31 33/87/31 32/88/31
f 4/89/32 3/90/32 30/91/32 29/92/32
f 2/93/33 1/94/33 34/95/33 31/96/33
f 32/88/34 34/95/34 1/94/34 8/85/34
f 3/90/35 2/93/35 31/96/35 30/91/35
f 5/82/36 4/89/36 29/92/36 36/83/36
f 35/84/37 33/87/37 7/86/37 6/81/37
f 10/10/38 9/9/38 33/35/38 35/37/38
