# Blender v2.80 (sub 75) OBJ File: 'untitled.blend'
# www.blender.org
mtllib YK_Shotgun_Base.mtl
o BF_Block_111.000_BF_Block_111.000
v -0.784245 -0.188274 -0.061339
v -0.938648 -0.188274 -0.215742
v -0.993921 -0.299995 -0.178105
v -0.821893 -0.299995 -0.006077
v -0.938648 -0.188274 -0.784258
v -0.784245 -0.188274 -0.938661
v -0.821893 -0.299995 -0.993924
v -0.993921 -0.299995 -0.821896
v -0.617782 -0.188274 -1.007613
v -0.500825 -0.188274 -1.007613
v -0.500731 -0.299996 -1.073591
v -0.629561 -0.299996 -1.073591
v -1.007599 -0.188274 -0.382205
v -1.007599 -0.188274 -0.500000
v -1.073588 -0.299996 -0.500000
v -1.073588 -0.299996 -0.370436
v -0.617782 -0.188274 0.007612
v -0.629561 -0.299996 0.073590
v -1.007599 -0.188274 -0.617795
v -1.073588 -0.299996 -0.629565
v -0.999999 -0.599999 -0.000000
v -1.132022 -0.499999 0.132023
v -1.132022 -0.499999 -0.132023
v -0.867977 -0.499999 0.132023
v -0.867976 -0.499999 -0.132024
v -0.999999 -0.599999 -1.000000
v -0.867976 -0.499999 -1.132024
v -0.867977 -0.499999 -0.867977
v -1.132022 -0.499999 -1.132023
v -1.132022 -0.499999 -0.867977
v -0.500731 -0.299996 0.073590
v -0.500826 -0.188274 0.007612
v -0.215729 -0.188274 -0.061339
v -0.178102 -0.299995 -0.006077
v -0.006074 -0.299995 -0.178105
v -0.061326 -0.188274 -0.215742
v -0.061326 -0.188274 -0.784258
v -0.006074 -0.299995 -0.821896
v -0.178102 -0.299995 -0.993924
v -0.215729 -0.188274 -0.938661
v -0.382192 -0.188274 -1.007613
v -0.370433 -0.299996 -1.073591
v 0.007625 -0.188274 -0.382205
v 0.073593 -0.299996 -0.370436
v 0.073593 -0.299996 -0.500000
v 0.007625 -0.188274 -0.500000
v -0.382192 -0.188274 0.007612
v -0.370433 -0.299996 0.073590
v 0.007625 -0.188274 -0.617795
v 0.073593 -0.299996 -0.629565
v 0.000001 -0.599998 -0.000000
v 0.132024 -0.499998 -0.132023
v 0.132024 -0.499998 0.132023
v -0.132021 -0.499998 0.132023
v -0.132022 -0.499998 -0.132024
v 0.000001 -0.599999 -1.000000
v 0.132024 -0.499999 -1.132023
v 0.132024 -0.499999 -0.867977
v -0.132021 -0.499999 -0.867977
v -0.132022 -0.499999 -1.132024
v 0.300000 -0.499998 -1.000000
v 0.300000 -0.499998 -0.700000
v 0.300000 -0.362149 -0.700000
v 0.300000 -0.362149 -1.000000
v -0.643155 -0.499999 -1.133708
v -0.500777 -0.499999 -1.133708
v -0.500777 -0.362149 -1.133708
v -0.643155 -0.362149 -1.133708
v 0.300000 -0.499998 -0.000000
v 0.000000 -0.499998 0.300000
v 0.000000 -0.362149 0.300000
v 0.300000 -0.362149 -0.000000
v 0.133697 -0.499998 -0.643144
v 0.133697 -0.499998 -0.500000
v 0.133697 -0.362149 -0.500000
v 0.133697 -0.362149 -0.643144
v -0.300000 -0.499999 -1.300000
v -0.300000 -0.362149 -1.300000
v -0.356867 -0.362149 -1.133708
v -0.356867 -0.499999 -1.133708
v -0.700000 -0.499998 0.300000
v -1.000000 -0.499999 0.300000
v -1.000000 -0.362149 0.300000
v -0.700000 -0.362149 0.300000
v 0.300000 -0.499998 -0.300000
v 0.300000 -0.362149 -0.300000
v 0.133697 -0.362149 -0.356857
v 0.133697 -0.499998 -0.356857
v 0.000000 -0.499999 -1.300000
v 0.000000 -0.362149 -1.300000
v -1.300000 -0.499999 -0.700000
v -1.300000 -0.499999 -1.000000
v -1.300000 -0.362149 -1.000000
v -1.300000 -0.362149 -0.700000
v -0.300000 -0.362149 0.300000
v -0.300000 -0.499998 0.300000
v -0.356867 -0.499998 0.133708
v -0.356867 -0.362149 0.133708
v -1.133719 -0.499999 -0.500000
v -1.133719 -0.499999 -0.643144
v -1.133719 -0.362149 -0.643144
v -1.133719 -0.362149 -0.500000
v -1.300000 -0.362149 -0.300000
v -1.300000 -0.499999 -0.300000
v -1.133719 -0.499999 -0.356857
v -1.133719 -0.362149 -0.356857
v -0.700000 -0.362149 -1.300000
v -0.700000 -0.499999 -1.300000
v -0.500778 -0.499998 0.133708
v -0.500778 -0.362149 0.133708
v -0.643155 -0.362149 0.133708
v -0.643155 -0.499998 0.133708
v -1.000000 -0.499999 -1.300000
v -1.000000 -0.362149 -1.300000
v -1.300000 -0.499999 -0.000000
v -1.300000 -0.362149 -0.000000
v -1.237850 -0.299999 -0.025744
v -0.974256 -0.299999 0.237850
v -0.974256 -0.299999 -1.237850
v -1.237850 -0.299999 -0.974257
v -0.025744 -0.299998 0.237850
v 0.237850 -0.299998 -0.025744
v 0.237850 -0.299998 -0.974257
v -0.025744 -0.299999 -1.237850
v -0.687590 -0.299998 0.071557
v -0.500778 -0.299998 0.071557
v -1.071569 -0.299999 -0.687576
v -1.071569 -0.299999 -0.500000
v -0.500777 -0.299999 -1.071558
v -0.687590 -0.299999 -1.071558
v -1.071569 -0.299999 -0.312425
v 0.071547 -0.299998 -0.500000
v 0.071547 -0.299998 -0.687578
v 0.071547 -0.299998 -0.312423
v -0.312437 -0.299998 0.071557
v -0.312437 -0.299999 -1.071558
v -1.237850 -0.299999 -0.744432
v -1.237850 -0.299999 -0.255568
v -0.744436 -0.299998 0.237850
v -0.744436 -0.299999 -1.237850
v 0.237850 -0.299998 -0.744434
v 0.237850 -0.299998 -0.255566
v -0.255570 -0.299998 0.237850
v -0.255570 -0.299999 -1.237850
vt 0.653811 0.622001
vt 0.653811 0.642388
vt 0.607660 0.649686
vt 0.607660 0.626972
vt 0.653811 0.642388
vt 0.653811 0.622001
vt 0.607660 0.626972
vt 0.607660 0.649686
vt 0.653811 0.600022
vt 0.653811 0.584579
vt 0.607660 0.584567
vt 0.607660 0.601577
vt 0.653811 0.651492
vt 0.653811 0.651492
vt 0.607660 0.660206
vt 0.607660 0.660206
vt 0.653811 0.600022
vt 0.607660 0.601577
vt 0.653811 0.651492
vt 0.607660 0.660206
vt 0.428303 0.304379
vt 0.359190 0.373492
vt 0.359190 0.235265
vt 0.497416 0.373492
vt 0.497416 0.235265
vt 0.428303 0.304379
vt 0.497416 0.235265
vt 0.497416 0.373492
vt 0.359190 0.235265
vt 0.359190 0.373492
vt 0.607660 0.584567
vt 0.653811 0.584579
vt 0.653811 0.546936
vt 0.607660 0.541967
vt 0.607660 0.519253
vt 0.653811 0.526549
vt 0.653811 0.526549
vt 0.607660 0.519253
vt 0.607660 0.541967
vt 0.653811 0.546936
vt 0.653811 0.568915
vt 0.607660 0.567362
vt 0.653811 0.517444
vt 0.607660 0.508734
vt 0.607660 0.508734
vt 0.653811 0.517444
vt 0.653811 0.568915
vt 0.607660 0.567362
vt 0.653811 0.517444
vt 0.607660 0.508734
vt 0.428303 0.304379
vt 0.359190 0.235265
vt 0.359190 0.373492
vt 0.497416 0.373492
vt 0.497416 0.235265
vt 0.428303 0.304379
vt 0.359190 0.235265
vt 0.359190 0.373492
vt 0.497416 0.373492
vt 0.497416 0.235265
vt 0.107329 0.066409
vt 0.107329 0.092278
vt 0.163626 0.092278
vt 0.163626 0.066409
vt 0.082237 0.066409
vt 0.082237 0.092278
vt 0.082237 0.092278
vt 0.082237 0.066409
vt 0.294987 0.066409
vt 0.294987 0.092278
vt 0.351284 0.092278
vt 0.351284 0.066409
vt 0.174296 0.066409
vt 0.174296 0.092278
vt 0.201158 0.092278
vt 0.201158 0.066409
vt 0.051031 0.066409
vt 0.082237 0.066409
vt 0.082237 0.092278
vt 0.051031 0.092278
vt 0.351284 0.066409
vt 0.351284 0.092278
vt 0.351284 0.092278
vt 0.351284 0.066409
vt 0.238689 0.066409
vt 0.228020 0.066409
vt 0.228020 0.092278
vt 0.238689 0.092278
vt 0.051031 0.066409
vt 0.051031 0.092278
vt 0.163626 0.066409
vt 0.163626 0.092278
vt 0.107329 0.092278
vt 0.107329 0.066409
vt 0.351284 0.092278
vt 0.320078 0.092278
vt 0.320078 0.066409
vt 0.351284 0.066409
vt 0.201158 0.066409
vt 0.201158 0.092278
vt 0.174296 0.092278
vt 0.174296 0.066409
vt 0.238689 0.092278
vt 0.228020 0.092278
vt 0.228020 0.066409
vt 0.238689 0.066409
vt 0.051031 0.092278
vt 0.051031 0.066409
vt 0.320078 0.092278
vt 0.320078 0.066409
vt 0.320078 0.066409
vt 0.320078 0.092278
vt 0.051031 0.066409
vt 0.051031 0.092278
vt 0.294987 0.092278
vt 0.294987 0.066409
vt 0.339621 0.103940
vt 0.290156 0.103940
vt 0.112160 0.103941
vt 0.062694 0.103941
vt 0.339621 0.103941
vt 0.290156 0.103941
vt 0.112160 0.103941
vt 0.062694 0.103941
vt 0.308415 0.103941
vt 0.308415 0.103941
vt 0.201158 0.103941
vt 0.165958 0.103941
vt 0.093900 0.103941
vt 0.093900 0.103941
vt 0.236358 0.103941
vt 0.201158 0.103941
vt 0.165957 0.103941
vt 0.236358 0.103941
vt 0.308415 0.103941
vt 0.093900 0.103941
vt 0.155288 0.103941
vt 0.247027 0.103941
vt 0.339621 0.103941
vt 0.062694 0.103941
vt 0.155288 0.103941
vt 0.247028 0.103941
vt 0.339621 0.103941
vt 0.062694 0.103941
vn -0.4763 0.5135 0.7138
vn -0.7137 0.5136 0.4763
vn -0.7132 0.5136 0.4771
vn -0.4771 0.5135 0.7132
vn -0.7137 0.5136 -0.4763
vn -0.4763 0.5135 -0.7138
vn -0.4771 0.5136 -0.7132
vn -0.7132 0.5136 -0.4771
vn -0.1685 0.5143 -0.8409
vn 0.0000 0.5085 -0.8611
vn -0.1663 0.5144 -0.8413
vn -0.8408 0.5144 0.1685
vn -0.8610 0.5086 0.0000
vn -0.8413 0.5144 0.1663
vn -0.1685 0.5143 0.8409
vn -0.1663 0.5144 0.8413
vn -0.8408 0.5144 -0.1685
vn -0.8413 0.5144 -0.1663
vn -0.6038 -0.7971 0.0000
vn 0.0000 -0.7971 0.6038
vn 0.6038 -0.7971 0.0000
vn -0.0000 -0.7971 -0.6038
vn 0.0000 0.5085 0.8611
vn 0.4763 0.5135 0.7138
vn 0.4771 0.5135 0.7132
vn 0.7132 0.5135 0.4771
vn 0.7138 0.5135 0.4763
vn 0.7138 0.5135 -0.4763
vn 0.7132 0.5135 -0.4771
vn 0.4771 0.5135 -0.7132
vn 0.4763 0.5135 -0.7138
vn 0.1685 0.5143 -0.8409
vn 0.1663 0.5143 -0.8413
vn 0.8409 0.5143 0.1685
vn 0.8413 0.5143 0.1663
vn 0.8611 0.5084 0.0000
vn 0.1685 0.5143 0.8409
vn 0.1663 0.5143 0.8413
vn 0.8409 0.5143 -0.1685
vn 0.8413 0.5143 -0.1663
vn 1.0000 0.0000 0.0000
vn 0.0000 0.0000 -1.0000
vn 0.7071 -0.0000 0.7071
vn -0.9462 0.0000 -0.3236
vn 0.0000 -0.0000 1.0000
vn 0.3235 0.0000 -0.9462
vn 0.7071 0.0000 -0.7071
vn -1.0000 -0.0000 0.0000
vn -0.9462 0.0000 0.3236
vn -0.5816 -0.0000 0.8135
vn -0.3235 0.0000 -0.9462
vn 0.9462 0.0000 -0.3235
vn -0.3235 0.0000 0.9462
vn 0.3235 0.0000 0.9462
vn 0.9462 0.0000 0.3235
vn -0.7071 0.0000 0.7071
vn 0.0000 -1.0000 0.0000
vn -0.7071 0.0000 -0.7071
vn -0.2597 0.7345 0.6269
vn -0.6269 0.7345 0.2597
vn -0.6269 0.7345 -0.2597
vn -0.2597 0.7345 -0.6269
vn 0.2597 0.7345 0.6269
vn 0.6269 0.7345 0.2597
vn 0.6269 0.7345 -0.2597
vn 0.2597 0.7345 -0.6269
vn 0.0000 0.7071 0.7071
vn 0.3670 0.7757 0.5133
vn -0.7071 0.7071 0.0000
vn -0.5134 0.7757 0.3670
vn 0.3670 0.7757 -0.5133
vn 0.0000 0.7071 -0.7071
vn -0.5134 0.7757 -0.3670
vn 0.7071 0.7071 0.0000
vn 0.5134 0.7757 0.3670
vn 0.5134 0.7757 -0.3670
vn -0.3670 0.7757 0.5134
vn -0.3670 0.7757 -0.5134
vn -0.0000 1.0000 -0.0000
usemtl Default_OBJ.006
s 1
f 1/1/1 2/2/2 3/3/3 4/4/4
f 5/5/5 6/6/6 7/7/7 8/8/8
f 9/9/9 10/10/10 11/11/10 12/12/11
f 13/13/12 14/14/13 15/15/13 16/16/14
f 17/17/15 1/1/1 4/4/4 18/18/16
f 19/19/17 5/5/5 8/8/8 20/20/18
f 2/2/2 13/13/12 16/16/14 3/3/3
f 6/6/6 9/9/9 12/12/11 7/7/7
f 21/21/19 22/22/19 23/23/19
f 22/22/20 21/21/20 24/24/20
f 21/21/21 25/25/21 24/24/21
f 25/25/22 21/21/22 23/23/22
f 26/26/21 27/27/21 28/28/21
f 27/27/22 26/26/22 29/29/22
f 26/26/19 30/30/19 29/29/19
f 30/30/20 26/26/20 28/28/20
f 31/31/23 32/32/23 17/17/15 18/18/16
f 15/15/13 14/14/13 19/19/17 20/20/18
f 33/33/24 34/34/25 35/35/26 36/36/27
f 37/37/28 38/38/29 39/39/30 40/40/31
f 41/41/32 42/42/33 11/11/10 10/10/10
f 43/43/34 44/44/35 45/45/36 46/46/36
f 47/47/37 48/48/38 34/34/25 33/33/24
f 49/49/39 50/50/40 38/38/29 37/37/28
f 36/36/27 35/35/26 44/44/35 43/43/34
f 40/40/31 39/39/30 42/42/33 41/41/32
f 51/51/21 52/52/21 53/53/21
f 53/53/20 54/54/20 51/51/20
f 51/51/19 54/54/19 55/55/19
f 55/55/22 52/52/22 51/51/22
f 56/56/21 57/57/21 58/58/21
f 58/58/20 59/59/20 56/56/20
f 56/56/19 59/59/19 60/60/19
f 60/60/22 57/57/22 56/56/22
f 31/31/23 48/48/38 47/47/37 32/32/23
f 45/45/36 50/50/40 49/49/39 46/46/36
f 61/61/41 64/62/41 63/63/41 62/64/41
f 65/65/42 68/66/42 67/67/42 66/68/42
f 69/69/43 72/70/43 71/71/43 70/72/43
f 73/73/41 76/74/41 75/75/41 74/76/41
f 77/77/44 80/78/44 79/79/44 78/80/44
f 66/68/42 67/67/42 79/79/42 80/78/42
f 81/81/45 84/82/45 83/83/45 82/84/45
f 85/85/46 88/86/46 87/87/46 86/88/46
f 89/89/47 90/90/47 64/62/47 61/61/47
f 91/91/48 94/92/48 93/93/48 92/94/48
f 95/95/49 98/96/50 97/97/50 96/98/49
f 85/85/41 86/88/41 72/70/41 69/69/41
f 77/77/42 78/80/42 90/90/42 89/89/42
f 70/72/45 71/71/45 95/95/45 96/98/45
f 99/99/48 102/100/48 101/101/48 100/102/48
f 103/103/51 106/104/51 105/105/51 104/106/51
f 74/76/41 75/75/41 87/87/41 88/86/41
f 107/107/52 68/66/52 65/65/52 108/108/52
f 91/91/53 100/102/53 101/101/53 94/92/53
f 97/97/50 98/96/50 110/109/45 109/110/45
f 105/105/48 106/104/48 102/100/48 99/99/48
f 63/63/54 76/74/54 73/73/54 62/64/54
f 81/81/55 112/111/55 111/112/55 84/82/55
f 113/113/42 114/114/42 107/107/42 108/108/42
f 82/84/56 83/83/56 116/115/56 115/116/56
f 109/110/45 110/109/45 111/112/45 112/111/45
f 80/78/57 89/89/57 73/73/57
f 92/94/58 93/93/58 114/114/58 113/113/58
f 115/116/48 116/115/48 103/103/48 104/106/48
f 83/83/59 118/117/59 117/118/60 116/115/60
f 93/93/61 120/119/61 119/120/62 114/114/62
f 121/121/63 71/71/63 72/70/64 122/122/64
f 123/123/65 64/62/65 90/90/66 124/124/66
f 110/109/67 126/125/67 125/126/68 111/112/68
f 102/100/69 128/127/69 127/128/70 101/101/70
f 68/66/71 130/129/71 129/130/72 67/67/72
f 106/104/73 131/131/73 128/127/69 102/100/69
f 132/132/74 75/75/74 76/74/75 133/133/75
f 134/134/76 87/87/76 75/75/74 132/132/74
f 126/125/67 110/109/67 98/96/77 135/135/77
f 136/136/78 79/79/78 67/67/72 129/130/72
f 120/119/61 93/93/61 94/92/70 137/137/70
f 137/137/70 94/92/70 101/101/70 127/128/70
f 138/138/73 103/103/73 116/115/60 117/118/60
f 131/131/73 106/104/73 103/103/73 138/138/73
f 118/117/59 83/83/59 84/82/68 139/139/68
f 139/139/68 84/82/68 111/112/68 125/126/68
f 140/140/71 107/107/71 114/114/62 119/120/62
f 130/129/71 68/66/71 107/107/71 140/140/71
f 141/141/75 63/63/75 64/62/65 123/123/65
f 133/133/75 76/74/75 63/63/75 141/141/75
f 122/122/64 72/70/64 86/88/76 142/142/76
f 142/142/76 86/88/76 87/87/76 134/134/76
f 143/143/77 95/95/77 71/71/63 121/121/63
f 135/135/77 98/96/77 95/95/77 143/143/77
f 124/124/66 90/90/66 78/80/78 144/144/78
f 144/144/78 78/80/78 79/79/78 136/136/78
f 117/118/79 118/117/79 139/139/79 125/126/79 126/125/79 135/135/79 143/143/79 121/121/79 122/122/79 142/142/79 134/134/79 132/132/79 133/133/79 141/141/79 123/123/79 124/124/79 144/144/79 136/136/79 129/130/79 130/129/79 140/140/79 119/120/79 120/119/79 137/137/79 127/128/79 128/127/79 131/131/79 138/138/79
f 2/2/79 1/1/79 17/17/79 32/32/79 47/47/79 33/33/79 36/36/79 43/43/79 46/46/79 49/49/79 37/37/79 40/40/79 41/41/79 10/10/79 9/9/79 6/6/79 5/5/79 19/19/79 14/14/79 13/13/79
f 82/84/57 115/116/57 112/111/57
f 115/116/57 104/106/57 105/105/57
f 115/116/57 105/105/57 112/111/57
f 112/111/57 81/81/57 82/84/57
f 97/97/57 109/110/57 74/76/57
f 109/110/57 112/111/57 105/105/57
f 99/99/57 109/110/57 105/105/57
f 70/72/57 96/98/57 97/97/57
f 109/110/57 99/99/57 74/76/57
f 100/102/57 91/91/57 92/94/57
f 99/99/57 100/102/57 66/68/57
f 74/76/57 99/99/57 66/68/57
f 69/69/57 70/72/57 88/86/57
f 70/72/57 97/97/57 88/86/57
f 88/86/57 85/85/57 69/69/57
f 73/73/57 74/76/57 80/78/57
f 74/76/57 88/86/57 97/97/57
f 66/68/57 100/102/57 65/65/57
f 100/102/57 92/94/57 65/65/57
f 92/94/57 113/113/57 65/65/57
f 113/113/57 108/108/57 65/65/57
f 66/68/57 80/78/57 74/76/57
f 61/61/57 62/64/57 73/73/57
f 80/78/57 77/77/57 89/89/57
f 89/89/57 61/61/57 73/73/57
