# Blender v2.80 (sub 75) OBJ File: ''
# www.blender.org
mtllib YK_Shotgun_Gimbal.mtl
o BF_Block_111.001_BF_Block_111.002
v 0.073015 -0.206994 0.381585
v 0.073014 -0.206994 -0.422042
v 0.204783 -0.206994 -0.367462
v 0.327004 -0.206994 -0.245240
v 0.381584 -0.206994 -0.113472
v 0.381584 -0.206994 0.073015
v 0.327004 -0.206994 0.204783
v 0.204783 -0.206994 0.327004
v 0.073015 -0.074658 0.381585
v 0.204783 -0.074658 0.327004
v 0.327004 -0.074658 0.204783
v 0.381584 -0.074658 0.073015
v 0.381584 -0.074658 -0.113472
v 0.327004 -0.074658 -0.245240
v 0.204783 -0.074658 -0.367462
v 0.073015 -0.074658 -0.422042
v 0.551283 -0.006995 -0.113472
v 0.551283 -0.006995 0.073015
v 0.551283 -0.101406 -0.113472
v 0.476022 -0.206994 -0.113472
v 0.551283 -0.101406 0.073015
v 0.476022 -0.206994 0.073015
v 0.408728 -0.008920 -0.113472
v 0.551283 0.169224 -0.113472
v 0.551283 0.169224 0.073015
v 0.408728 0.169224 -0.113472
v 0.408728 0.169224 0.073015
v 0.408728 -0.008920 0.073015
v 0.551283 0.209224 0.110312
v 0.408728 0.209224 0.110312
v 0.408728 0.209224 -0.150769
v 0.551283 0.209224 -0.150769
v 0.551283 0.259224 0.123367
v 0.408728 0.259224 0.123367
v 0.408728 0.259224 -0.163823
v 0.551283 0.259224 -0.163823
v 0.551283 0.319224 0.123367
v 0.551283 0.319224 -0.163823
v 0.408728 0.319224 0.123367
v 0.408728 0.319224 -0.163823
v 0.551283 0.359224 0.109007
v 0.408728 0.359224 0.109007
v 0.408728 0.359224 -0.149464
v 0.551283 0.359224 -0.149464
v 0.551283 0.399224 0.083160
v 0.408728 0.399224 0.083160
v 0.408728 0.399224 -0.123617
v 0.551283 0.399224 -0.123617
v 0.591283 0.219122 -0.073592
v 0.591283 0.219122 0.033135
v 0.591283 0.242014 -0.094937
v 0.591283 0.270629 0.061951
v 0.591283 0.242014 0.054480
v 0.591283 0.270629 -0.102408
v 0.591283 0.304967 0.061951
v 0.591283 0.304967 -0.102408
v 0.591283 0.327859 0.053733
v 0.591283 0.350752 0.038941
v 0.591283 0.350752 -0.079398
v 0.591283 0.327860 -0.094190
v -0.020000 -0.206994 -0.422042
v -0.020000 -0.206994 0.381585
v -0.020000 -0.074658 0.381585
v -0.020000 -0.074658 -0.422042
v -0.113015 -0.206994 0.381585
v -0.113014 -0.206994 -0.422042
v -0.244783 -0.206994 -0.367462
v -0.367004 -0.206994 -0.245240
v -0.421584 -0.206994 -0.113472
v -0.421584 -0.206994 0.073015
v -0.367004 -0.206994 0.204783
v -0.244783 -0.206994 0.327004
v -0.113015 -0.074658 0.381585
v -0.244783 -0.074658 0.327004
v -0.367004 -0.074658 0.204783
v -0.421584 -0.074658 0.073015
v -0.421584 -0.074658 -0.113472
v -0.367004 -0.074658 -0.245240
v -0.244783 -0.074658 -0.367462
v -0.113015 -0.074658 -0.422042
v -0.591283 -0.006995 -0.113472
v -0.591283 -0.006995 0.073015
v -0.591283 -0.101406 -0.113472
v -0.516022 -0.206994 -0.113472
v -0.591283 -0.101406 0.073015
v -0.516022 -0.206994 0.073015
v -0.448728 -0.008920 -0.113472
v -0.591283 0.169224 -0.113472
v -0.591283 0.169224 0.073015
v -0.448728 0.169224 -0.113472
v -0.448728 0.169224 0.073015
v -0.448728 -0.008920 0.073015
v -0.591283 0.209224 0.110312
v -0.448728 0.209224 0.110312
v -0.448728 0.209224 -0.150769
v -0.591283 0.209224 -0.150769
v -0.591283 0.259224 0.123367
v -0.448728 0.259224 0.123367
v -0.448728 0.259224 -0.163823
v -0.591283 0.259224 -0.163823
v -0.591283 0.319224 0.123367
v -0.591283 0.319224 -0.163823
v -0.448728 0.319224 0.123367
v -0.448728 0.319224 -0.163823
v -0.591283 0.359224 0.109007
v -0.448728 0.359224 0.109007
v -0.448728 0.359224 -0.149464
v -0.591283 0.359224 -0.149464
v -0.591283 0.399224 0.083160
v -0.448728 0.399224 0.083160
v -0.448728 0.399224 -0.123617
v -0.591283 0.399224 -0.123617
v -0.631283 0.219122 -0.073592
v -0.631283 0.219122 0.033135
v -0.631283 0.242014 -0.094937
v -0.631283 0.270629 0.061951
v -0.631283 0.242014 0.054480
v -0.631283 0.270629 -0.102408
v -0.631283 0.304967 0.061951
v -0.631283 0.304967 -0.102408
v -0.631283 0.327859 0.053733
v -0.631283 0.350752 0.038941
v -0.631283 0.350752 -0.079398
v -0.631283 0.327860 -0.094190
vt 0.320231 0.542930
vt 0.320231 0.542930
vt 0.469435 0.542930
vt 0.469435 0.542930
vt 0.459302 0.542930
vt 0.436609 0.542930
vt 0.412145 0.542930
vt 0.377521 0.542930
vt 0.353057 0.542930
vt 0.330365 0.542930
vt 0.320231 0.567499
vt 0.330365 0.567500
vt 0.353057 0.567500
vt 0.377521 0.567500
vt 0.412145 0.567500
vt 0.436609 0.567500
vt 0.459302 0.567500
vt 0.469435 0.567500
vt 0.469435 0.567500
vt 0.320231 0.567499
vt 0.412145 0.580062
vt 0.412145 0.639797
vt 0.377521 0.639797
vt 0.377521 0.580062
vt 0.412145 0.562533
vt 0.377521 0.562533
vt 0.412145 0.542930
vt 0.377521 0.542930
vt 0.412145 0.579705
vt 0.377521 0.579705
vt 0.470726 0.482761
vt 0.393690 0.482761
vt 0.377521 0.639797
vt 0.412145 0.639797
vt 0.649456 0.520498
vt 0.649456 0.520498
vt 0.667945 0.540326
vt 0.667945 0.540326
vt 0.640268 0.556581
vt 0.629687 0.545233
vt 0.557013 0.520498
vt 0.538524 0.540326
vt 0.557013 0.520498
vt 0.538524 0.540326
vt 0.532053 0.565112
vt 0.532053 0.565112
vt 0.674416 0.565112
vt 0.674416 0.594854
vt 0.643972 0.587787
vt 0.643972 0.570765
vt 0.674416 0.565112
vt 0.532053 0.594854
vt 0.532053 0.594854
vt 0.576782 0.545233
vt 0.566201 0.556581
vt 0.674416 0.594854
vt 0.667298 0.614682
vt 0.667298 0.614682
vt 0.539171 0.614682
vt 0.539171 0.614682
vt 0.562497 0.587787
vt 0.566571 0.599135
vt 0.551984 0.634511
vt 0.551984 0.634511
vt 0.639898 0.599135
vt 0.654485 0.634511
vt 0.654485 0.634511
vt 0.562497 0.570765
vt 0.632565 0.610483
vt 0.573904 0.610483
vt 0.320231 0.542930
vt 0.330365 0.542930
vt 0.353057 0.542930
vt 0.377521 0.542930
vt 0.412145 0.542930
vt 0.436609 0.542930
vt 0.459302 0.542930
vt 0.469435 0.542930
vt 0.320231 0.567499
vt 0.469435 0.567500
vt 0.459302 0.567500
vt 0.436609 0.567500
vt 0.412145 0.567500
vt 0.377521 0.567500
vt 0.353057 0.567500
vt 0.330365 0.567500
vt 0.412145 0.580062
vt 0.377521 0.580062
vt 0.377521 0.639797
vt 0.412145 0.639797
vt 0.412145 0.562533
vt 0.377521 0.562533
vt 0.377521 0.542930
vt 0.412145 0.542930
vt 0.412145 0.579705
vt 0.377521 0.579705
vt 0.393690 0.482761
vt 0.470726 0.482761
vt 0.377521 0.639797
vt 0.412145 0.639797
vt 0.649456 0.520498
vt 0.667945 0.540326
vt 0.667945 0.540326
vt 0.649456 0.520498
vt 0.629687 0.545233
vt 0.640268 0.556581
vt 0.538524 0.540326
vt 0.557013 0.520498
vt 0.538524 0.540326
vt 0.557013 0.520498
vt 0.532053 0.565112
vt 0.532053 0.565112
vt 0.674416 0.565112
vt 0.643972 0.570765
vt 0.643972 0.587787
vt 0.674416 0.594854
vt 0.674416 0.565112
vt 0.532053 0.594854
vt 0.532053 0.594854
vt 0.566201 0.556581
vt 0.576782 0.545233
vt 0.674416 0.594854
vt 0.667298 0.614682
vt 0.667298 0.614682
vt 0.539171 0.614682
vt 0.539171 0.614682
vt 0.566571 0.599135
vt 0.562497 0.587787
vt 0.551984 0.634511
vt 0.551984 0.634511
vt 0.639898 0.599135
vt 0.654485 0.634511
vt 0.654485 0.634511
vt 0.562497 0.570765
vt 0.573904 0.610483
vt 0.632565 0.610483
vn -0.0000 -1.0000 -0.0000
vn 0.0000 1.0000 0.0000
vn -0.3948 0.9188 0.0000
vn -0.3995 0.9167 0.0027
vn 0.1951 -0.0000 0.9808
vn 0.0000 -0.0000 1.0000
vn 0.8315 0.0000 -0.5556
vn 0.3977 0.0008 -0.9175
vn 0.5556 0.0000 -0.8315
vn 0.1951 -0.0000 -0.9808
vn 0.8315 0.0000 0.5556
vn 0.5556 -0.0000 0.8315
vn 0.3973 -0.0008 0.9177
vn 1.0000 0.0000 0.0000
vn 0.8143 -0.5804 -0.0000
vn 0.0000 0.0000 -1.0000
vn -0.9243 0.3817 0.0000
vn -1.0000 -0.0000 0.0000
vn 0.0000 -0.6820 -0.7314
vn 0.0000 -0.4820 -0.8762
vn 0.8416 -0.4855 -0.2366
vn 0.8507 -0.2548 -0.4598
vn 0.8506 -0.2513 -0.4618
vn 0.8324 -0.5247 -0.1784
vn 0.0000 -0.6820 0.7314
vn 0.0000 -0.4820 0.8762
vn 0.0000 -0.1273 0.9919
vn 0.8418 -0.0706 -0.5352
vn 0.8441 0.0943 -0.5279
vn 0.8439 0.0888 -0.5290
vn 0.8417 -0.0665 -0.5358
vn 0.0000 -0.1273 -0.9919
vn 0.0000 0.1715 0.9852
vn 0.8507 -0.2548 0.4598
vn 0.8416 -0.4855 0.2366
vn 0.8324 -0.5247 0.1784
vn 0.8506 -0.2513 0.4618
vn 0.0000 0.1715 -0.9852
vn 0.0000 0.4432 -0.8964
vn 0.0000 0.4432 0.8964
vn 0.8460 0.2379 0.4772
vn 0.8441 0.0943 0.5279
vn 0.8439 0.0888 0.5290
vn 0.8459 0.2346 0.4790
vn 0.0000 0.8783 0.4782
vn 0.8460 0.2379 -0.4772
vn 0.8459 0.2346 -0.4790
vn 0.0000 0.8783 -0.4782
vn 0.8493 0.4516 0.2732
vn 0.8396 0.5008 0.2105
vn 0.8418 -0.0706 0.5352
vn 0.8417 -0.0665 0.5358
vn 0.8493 0.4516 -0.2732
vn 0.8396 0.5008 -0.2105
vn 0.3995 0.9167 0.0027
vn 0.3948 0.9188 0.0000
vn -0.1951 -0.0000 0.9808
vn -0.8315 0.0000 -0.5556
vn -0.5556 0.0000 -0.8315
vn -0.3976 0.0006 -0.9176
vn -0.1951 -0.0000 -0.9808
vn -0.8315 -0.0000 0.5556
vn -0.5556 -0.0000 0.8315
vn -0.3973 -0.0006 0.9177
vn -0.8143 -0.5804 -0.0000
vn 0.9243 0.3817 0.0000
vn -0.8416 -0.4855 -0.2366
vn -0.8324 -0.5247 -0.1784
vn -0.8506 -0.2513 -0.4618
vn -0.8507 -0.2548 -0.4598
vn -0.8418 -0.0706 -0.5352
vn -0.8417 -0.0665 -0.5358
vn -0.8439 0.0888 -0.5290
vn -0.8441 0.0943 -0.5279
vn -0.8507 -0.2548 0.4598
vn -0.8506 -0.2513 0.4618
vn -0.8324 -0.5247 0.1784
vn -0.8416 -0.4855 0.2366
vn -0.8460 0.2379 0.4772
vn -0.8459 0.2346 0.4790
vn -0.8439 0.0888 0.5290
vn -0.8441 0.0943 0.5279
vn -0.8459 0.2346 -0.4790
vn -0.8460 0.2379 -0.4772
vn -0.8493 0.4516 0.2732
vn -0.8396 0.5008 0.2105
vn -0.8417 -0.0665 0.5358
vn -0.8418 -0.0706 0.5352
vn -0.8493 0.4516 -0.2732
vn -0.8396 0.5008 -0.2105
usemtl Default_OBJ.010
s 1
f 1/1/1 62/2/1 61/3/1 2/4/1 3/5/1 4/6/1 5/7/1 6/8/1 7/9/1 8/10/1
f 9/11/2 10/12/2 11/13/2 12/14/3 13/15/4 14/16/2 15/17/2 16/18/2 64/19/2 63/20/2
f 1/1/5 9/11/5 63/20/6 62/2/6
f 4/6/7 14/16/7 13/15/8 5/7/9
f 2/4/10 16/18/10 15/17/9 3/5/9
f 7/9/11 11/13/11 10/12/12 8/10/12
f 3/5/9 15/17/9 14/16/7 4/6/7
f 8/10/12 10/12/12 9/11/5 1/1/5
f 6/8/12 12/14/13 11/13/11 7/9/11
f 17/21/14 24/22/14 25/23/14 18/24/14
f 19/25/14 17/21/14 18/24/14 21/26/14
f 5/7/1 20/27/1 22/28/1 6/8/1
f 21/26/15 22/28/15 20/27/15 19/25/15
f 17/21/16 19/25/16 13/15/8 23/29/16
f 12/14/3 28/30/17 23/29/17 13/15/4
f 28/30/6 12/14/13 21/26/6 18/24/6
f 64/19/16 16/18/10 2/4/10 61/3/16
f 28/30/18 27/31/18 26/32/18 23/29/18
f 27/33/6 28/30/6 18/24/6 25/23/6
f 12/14/13 6/8/12 22/28/6 21/26/6
f 19/25/16 20/27/16 5/7/9 13/15/8
f 26/34/16 24/22/16 17/21/16 23/29/16
f 24/35/19 26/36/19 31/37/20 32/38/20
f 24/35/21 32/38/22 51/39/23 49/40/24
f 26/36/18 27/41/18 30/42/18 31/37/18
f 27/41/25 25/43/25 29/44/26 30/42/26
f 30/42/26 29/44/26 33/45/27 34/46/27
f 36/47/28 38/48/29 56/49/30 54/50/31
f 32/38/20 31/37/20 35/51/32 36/47/32
f 31/37/18 30/42/18 34/46/18 35/51/18
f 34/46/27 33/45/27 37/52/33 39/53/33
f 29/44/34 25/43/35 50/54/36 53/55/37
f 36/47/32 35/51/32 40/56/38 38/48/38
f 35/51/18 34/46/18 39/53/18 40/56/18
f 38/48/38 40/56/38 43/57/39 44/58/39
f 40/56/18 39/53/18 42/59/18 43/57/18
f 39/53/33 37/52/33 41/60/40 42/59/40
f 41/60/41 37/52/42 55/61/43 57/62/44
f 42/59/40 41/60/40 45/63/45 46/64/45
f 38/48/29 44/58/46 60/65/47 56/49/30
f 44/58/39 43/57/39 47/66/48 48/67/48
f 43/57/18 42/59/18 46/64/18 47/66/18
f 47/66/48 46/64/45 45/63/45 48/67/48
f 50/54/14 49/40/14 51/39/14 53/55/14
f 53/55/14 51/39/14 54/50/14 52/68/14
f 52/68/14 54/50/14 56/49/14 55/61/14
f 55/61/14 56/49/14 60/65/14 57/62/14
f 57/62/14 60/65/14 59/69/14 58/70/14
f 45/63/49 41/60/41 57/62/44 58/70/50
f 37/52/42 33/45/51 52/68/52 55/61/43
f 48/67/53 45/63/49 58/70/50 59/69/54
f 33/45/51 29/44/34 53/55/37 52/68/52
f 44/58/46 48/67/53 59/69/54 60/65/47
f 25/43/35 24/35/21 49/40/24 50/54/36
f 32/38/22 36/47/28 54/50/31 51/39/23
f 65/71/1 72/72/1 71/73/1 70/74/1 69/75/1 68/76/1 67/77/1 66/78/1 61/3/1 62/2/1
f 73/79/2 63/20/2 64/19/2 80/80/2 79/81/2 78/82/2 77/83/55 76/84/56 75/85/2 74/86/2
f 65/71/57 62/2/6 63/20/6 73/79/57
f 68/76/58 69/75/59 77/83/60 78/82/58
f 66/78/61 67/77/59 79/81/59 80/80/61
f 71/73/62 72/72/63 74/86/63 75/85/62
f 67/77/59 68/76/58 78/82/58 79/81/59
f 72/72/63 65/71/57 73/79/57 74/86/63
f 70/74/63 71/73/62 75/85/62 76/84/64
f 81/87/18 82/88/18 89/89/18 88/90/18
f 83/91/18 85/92/18 82/88/18 81/87/18
f 69/75/1 70/74/1 86/93/1 84/94/1
f 85/92/65 83/91/65 84/94/65 86/93/65
f 81/87/16 87/95/16 77/83/60 83/91/16
f 76/84/56 77/83/55 87/95/66 92/96/66
f 92/96/6 82/88/6 85/92/6 76/84/64
f 64/19/16 61/3/16 66/78/61 80/80/61
f 92/96/14 87/95/14 90/97/14 91/98/14
f 91/99/6 89/89/6 82/88/6 92/96/6
f 76/84/64 85/92/6 86/93/6 70/74/63
f 83/91/16 77/83/60 69/75/59 84/94/16
f 90/100/16 87/95/16 81/87/16 88/90/16
f 88/101/19 96/102/20 95/103/20 90/104/19
f 88/101/67 113/105/68 115/106/69 96/102/70
f 90/104/14 95/103/14 94/107/14 91/108/14
f 91/108/25 94/107/26 93/109/26 89/110/25
f 94/107/26 98/111/27 97/112/27 93/109/26
f 100/113/71 118/114/72 120/115/73 102/116/74
f 96/102/20 100/113/32 99/117/32 95/103/20
f 95/103/14 99/117/14 98/111/14 94/107/14
f 98/111/27 103/118/33 101/119/33 97/112/27
f 93/109/75 117/120/76 114/121/77 89/110/78
f 100/113/32 102/116/38 104/122/38 99/117/32
f 99/117/14 104/122/14 103/118/14 98/111/14
f 102/116/38 108/123/39 107/124/39 104/122/38
f 104/122/14 107/124/14 106/125/14 103/118/14
f 103/118/33 106/125/40 105/126/40 101/119/33
f 105/126/79 121/127/80 119/128/81 101/119/82
f 106/125/40 110/129/45 109/130/45 105/126/40
f 102/116/74 120/115/73 124/131/83 108/123/84
f 108/123/39 112/132/48 111/133/48 107/124/39
f 107/124/14 111/133/14 110/129/14 106/125/14
f 111/133/48 112/132/48 109/130/45 110/129/45
f 114/121/18 117/120/18 115/106/18 113/105/18
f 117/120/18 116/134/18 118/114/18 115/106/18
f 116/134/18 119/128/18 120/115/18 118/114/18
f 119/128/18 121/127/18 124/131/18 120/115/18
f 121/127/18 122/135/18 123/136/18 124/131/18
f 109/130/85 122/135/86 121/127/80 105/126/79
f 101/119/82 119/128/81 116/134/87 97/112/88
f 112/132/89 123/136/90 122/135/86 109/130/85
f 97/112/88 116/134/87 117/120/76 93/109/75
f 108/123/84 124/131/83 123/136/90 112/132/89
f 89/110/78 114/121/77 113/105/68 88/101/67
f 96/102/70 115/106/69 118/114/72 100/113/71
