# This file uses centimeters as units for non-parametric coordinates.

g default
v 0.096594 0.096595 0.430306
v -0.000000 0.136605 0.430306
v -0.096594 0.096595 0.430306
v -0.136605 0.000000 0.430306
v -0.096594 -0.096594 0.430306
v -0.000000 -0.136604 0.430306
v 0.096594 -0.096594 0.430306
v 0.136604 0.000000 0.430306
v 0.059654 0.059654 0.807826
v -0.000000 0.084364 0.807826
v -0.059654 0.059654 0.807826
v -0.084364 0.000000 0.807826
v -0.059654 -0.059654 0.807826
v -0.000000 -0.084364 0.807826
v 0.059654 -0.059654 0.807826
v 0.084364 0.000000 0.807826
v 0.059654 0.059654 0.619519
v -0.000000 0.084364 0.619519
v -0.000000 0.000000 0.619519
v -0.059654 0.059654 0.619519
v -0.084364 0.000000 0.619519
v -0.059654 -0.059654 0.619519
v -0.000000 -0.084364 0.619519
v 0.059654 -0.059654 0.619519
v 0.084364 0.000000 0.619519
v 0.096594 0.096595 0.791195
v 0.085524 0.085524 0.807826
v -0.000000 0.136605 0.791195
v -0.000000 0.120950 0.807826
v -0.096594 0.096595 0.791195
v -0.085524 0.085524 0.807826
v -0.136605 0.000000 0.791195
v -0.120949 0.000000 0.807826
v -0.096594 -0.096594 0.791195
v -0.085524 -0.085523 0.807826
v -0.000000 -0.136604 0.791195
v -0.000000 -0.120949 0.807826
v 0.096594 -0.096594 0.791195
v 0.085524 -0.085523 0.807826
v 0.136604 0.000000 0.791195
v 0.120949 0.000000 0.807826
vt 0.422023 0.947822
vt 0.416535 0.953311
vt 0.412654 0.943941
vt 0.408773 0.953311
vt 0.403284 0.947822
vt 0.403284 0.940060
vt 0.408773 0.934572
vt 0.416535 0.934572
vt 0.422023 0.940060
vt 0.471395 0.959831
vt 0.481697 0.959831
vt 0.481697 0.992350
vt 0.471395 0.992350
vt 0.399281 0.959831
vt 0.409583 0.959831
vt 0.409583 0.992350
vt 0.399281 0.992350
vt 0.419885 0.959831
vt 0.419885 0.992350
vt 0.430187 0.959831
vt 0.430187 0.992350
vt 0.440489 0.959831
vt 0.440489 0.992350
vt 0.450791 0.959831
vt 0.450791 0.992350
vt 0.461093 0.959831
vt 0.461093 0.992350
vt 0.454315 0.942471
vt 0.452577 0.941751
vt 0.452577 0.930623
vt 0.454315 0.929903
vt 0.445428 0.951358
vt 0.444708 0.949620
vt 0.432860 0.951358
vt 0.433580 0.949620
vt 0.423973 0.942471
vt 0.425711 0.941751
vt 0.423973 0.929903
vt 0.425711 0.930623
vt 0.432860 0.921016
vt 0.433580 0.922755
vt 0.445428 0.921016
vt 0.444708 0.922755
vt 0.331233 0.947408
vt 0.342653 0.947408
vt 0.342653 0.990074
vt 0.331233 0.990074
vt 0.354073 0.947408
vt 0.354073 0.990074
vt 0.365493 0.947408
vt 0.365493 0.990074
vt 0.376912 0.947408
vt 0.376912 0.990074
vt 0.388332 0.947408
vt 0.388332 0.990074
vt 0.296973 0.947408
vt 0.308393 0.947408
vt 0.308393 0.990074
vt 0.296973 0.990074
vt 0.319813 0.947408
vt 0.319813 0.990074
vt 0.443025 0.945557
vt 0.448513 0.940068
vt 0.435263 0.945557
vt 0.429775 0.940068
vt 0.429775 0.932306
vt 0.435263 0.926818
vt 0.443025 0.926818
vt 0.448513 0.932306
vn 0.000000 0.000000 1.000000
vn 0.000000 0.000000 1.000000
vn 0.000000 0.000000 1.000000
vn 0.000000 0.000000 1.000000
vn 0.000000 0.000000 1.000000
vn 0.000000 0.000000 1.000000
vn 0.000000 0.000000 1.000000
vn 0.000000 0.000000 1.000000
vn 0.000000 0.000000 1.000000
vn -0.707106 -0.707107 0.000000
vn -0.000000 -1.000000 0.000000
vn -0.000000 -1.000000 0.000000
vn -0.707106 -0.707107 0.000000
vn 0.707107 -0.707107 0.000000
vn 0.707107 -0.707107 0.000000
vn 1.000000 0.000000 0.000000
vn 1.000000 0.000000 0.000000
vn 0.707109 0.707105 0.000000
vn 0.707109 0.707105 0.000000
vn 0.000000 1.000000 0.000000
vn 0.000000 1.000000 0.000000
vn -0.707109 0.707105 0.000000
vn -0.707109 0.707105 0.000000
vn -1.000000 0.000000 0.000000
vn -1.000000 0.000000 0.000000
vn 0.514874 0.514873 0.685428
vn 0.514874 0.514872 0.685428
vn 0.728144 -0.000001 0.685424
vn 0.728144 -0.000001 0.685424
vn 0.000000 0.728138 0.685430
vn 0.000000 0.728139 0.685430
vn -0.514874 0.514873 0.685428
vn -0.514874 0.514873 0.685428
vn -0.728144 -0.000001 0.685424
vn -0.728144 -0.000001 0.685424
vn -0.514877 -0.514875 0.685424
vn -0.514877 -0.514875 0.685424
vn -0.000000 -0.728143 0.685425
vn -0.000000 -0.728143 0.685425
vn 0.514877 -0.514875 0.685424
vn 0.514877 -0.514875 0.685424
vn 0.707107 0.707106 0.000000
vn 0.000000 1.000000 0.000000
vn 0.000000 1.000000 0.000000
vn 0.707107 0.707106 0.000000
vn -0.707108 0.707106 0.000000
vn -0.707107 0.707106 0.000000
vn -1.000000 0.000000 0.000000
vn -1.000000 0.000000 0.000000
vn -0.707108 -0.707106 0.000000
vn -0.707108 -0.707106 0.000000
vn 0.000000 -1.000000 0.000000
vn 0.000000 -1.000000 0.000000
vn 0.707107 -0.707106 0.000000
vn 0.707107 -0.707106 0.000000
vn 1.000000 0.000000 0.000000
vn 1.000000 0.000000 0.000000
vn 0.000000 0.000000 1.000000
vn -0.000000 0.000000 1.000000
vn -0.000000 0.000000 1.000000
vn 0.000000 0.000000 1.000000
vn -0.000000 0.000000 1.000000
vn -0.000000 0.000000 1.000000
vn -0.000001 0.000000 1.000000
vn -0.000001 0.000000 1.000000
vn -0.000000 0.000000 1.000000
vn -0.000000 0.000000 1.000000
vn -0.000000 0.000000 1.000000
vn 0.000000 0.000000 1.000000
vn -0.000000 0.000000 1.000000
vn 0.000000 0.000000 1.000000
vn 0.000000 0.000000 1.000000
vn 0.000000 0.000000 1.000000
s 1
g geo_cannon_barrel
f 17/1/1 18/2/2 19/3/3
f 18/2/2 20/4/4 19/3/3
f 20/4/4 21/5/5 19/3/3
f 21/5/5 22/6/6 19/3/3
f 22/6/6 23/7/7 19/3/3
f 23/7/7 24/8/8 19/3/3
f 24/8/8 25/9/9 19/3/3
f 25/9/9 17/1/1 19/3/3
s 2
f 9/10/10 10/11/11 18/12/12 17/13/13
f 10/14/11 11/15/14 20/16/15 18/17/12
f 11/15/14 12/18/16 21/19/17 20/16/15
f 12/18/16 13/20/18 22/21/19 21/19/17
f 13/20/18 14/22/20 23/23/21 22/21/19
f 14/22/20 15/24/22 24/25/23 23/23/21
f 15/24/22 16/26/24 25/27/25 24/25/23
f 16/26/24 9/10/10 17/13/13 25/27/25
s 3
f 26/28/26 27/29/27 41/30/28 40/31/29
f 27/29/27 26/28/26 28/32/30 29/33/31
f 29/33/31 28/32/30 30/34/32 31/35/33
f 31/35/33 30/34/32 32/36/34 33/37/35
f 33/37/35 32/36/34 34/38/36 35/39/37
f 35/39/37 34/38/36 36/40/38 37/41/39
f 37/41/39 36/40/38 38/42/40 39/43/41
f 39/43/41 38/42/40 40/31/29 41/30/28
s 4
f 1/44/42 2/45/43 28/46/44 26/47/45
f 2/45/43 3/48/46 30/49/47 28/46/44
f 3/48/46 4/50/48 32/51/49 30/49/47
f 4/50/48 5/52/50 34/53/51 32/51/49
f 5/52/50 6/54/52 36/55/53 34/53/51
f 6/56/52 7/57/54 38/58/55 36/59/53
f 7/57/54 8/60/56 40/61/57 38/58/55
f 8/60/56 1/44/42 26/47/45 40/61/57
s 5
f 27/29/58 29/33/59 10/62/60 9/63/61
f 29/33/59 31/35/62 11/64/63 10/62/60
f 31/35/62 33/37/64 12/65/65 11/64/63
f 33/37/64 35/39/66 13/66/67 12/65/65
f 35/39/66 37/41/68 14/67/69 13/66/67
f 37/41/68 39/43/70 15/68/71 14/67/69
f 39/43/70 41/30/72 16/69/73 15/68/71
f 41/30/72 27/29/58 9/63/61 16/69/73
