# Blender v2.78 (sub 0) OBJ File: 'BarrelDetail.blend'
# www.blender.org
mtllib BarrelDetail.mtl
o Solid1
v 0.027500 -0.100000 0.425000
v -0.027500 -0.100000 0.425000
v 0.027500 -0.100000 -0.000000
v -0.027500 -0.100000 -0.000000
v -0.027500 -0.000000 0.500000
v -0.027500 0.100000 0.425000
v -0.027500 0.100000 0.000000
v 0.027500 0.100000 0.425000
v 0.027500 0.100000 0.000000
v 0.027500 -0.000000 0.500000
vt 0.4727 0.5387
vt 0.4706 0.5387
vt 0.4727 0.5219
vt 0.4706 0.5219
vt 0.4666 0.5417
vt 0.4627 0.5387
vt 0.4627 0.5219
vt 0.4727 0.5387
vt 0.4706 0.5387
vt 0.4727 0.5219
vt 0.4706 0.5219
vt 0.4767 0.5417
vt 0.4807 0.5387
vt 0.4807 0.5219
vt 0.4706 0.5140
vt 0.4727 0.5140
vt 0.4706 0.5436
vt 0.4727 0.5436
vt 0.4706 0.5241
vt 0.4656 0.5241
vt 0.4706 0.5219
vt 0.4656 0.5219
vn 0.0000 -1.0000 -0.0000
vn -1.0000 -0.0000 0.0000
vn 0.0000 1.0000 0.0000
vn 1.0000 -0.0000 0.0000
vn 0.0000 0.0000 -1.0000
vn 0.0000 -0.7071 0.7071
vn 0.0000 0.7071 0.7071
usemtl 191,191,191
s 1
f 1/1/1 2/2/1 3/3/1
f 3/3/1 2/2/1 4/4/1
f 5/5/2 6/6/2 2/2/2
f 2/2/2 6/6/2 4/4/2
f 4/4/2 6/6/2 7/7/2
f 6/8/3 8/9/3 7/10/3
f 7/10/3 8/9/3 9/11/3
f 10/12/4 1/1/4 8/13/4
f 8/13/4 1/1/4 9/14/4
f 9/14/4 1/1/4 3/3/4
f 7/15/5 9/16/5 4/4/5
f 4/4/5 9/16/5 3/3/5
f 5/17/6 2/2/6 10/18/6
f 10/18/6 2/2/6 1/1/6
f 6/19/7 5/20/7 8/21/7
f 8/21/7 5/20/7 10/22/7
