# Blender v2.82 (sub 7) OBJ File: 'TAC AAMBayDoorMinor.blend'
# www.blender.org
mtllib TAC AAMBayDoorMinor.mtl
o TAC_Hammeram_DoorsMinor_v3
v 0.000000 0.050010 2.750000
v 0.050000 0.050010 2.750000
v 0.000000 0.050010 -2.750000
v 0.050000 0.050010 -2.750000
v -0.025000 -0.125000 2.000000
v 0.000000 -0.150000 2.025000
v -0.050000 -0.100000 2.000000
v -0.050000 -0.100000 2.200000
v 0.000000 -0.150000 2.175000
v -0.025000 -0.125000 2.200000
v -0.025000 -0.125000 1.000000
v 0.000000 -0.150000 1.025000
v -0.050000 -0.100000 1.000000
v -0.050000 -0.100000 1.200000
v 0.000000 -0.150000 1.175000
v -0.025000 -0.125000 1.200000
v -0.025000 -0.125000 -0.100000
v 0.000000 -0.150000 -0.075000
v -0.050000 -0.100000 -0.100000
v -0.050000 -0.100000 0.100000
v 0.000000 -0.150000 0.075000
v -0.025000 -0.125000 0.100000
v -0.025000 -0.125000 -1.200000
v 0.000000 -0.150000 -1.175000
v -0.050000 -0.100000 -1.200000
v -0.050000 -0.100000 -1.000000
v 0.000000 -0.150000 -1.025000
v -0.025000 -0.125000 -1.000000
v -0.025000 -0.125000 -2.200000
v 0.000000 -0.150000 -2.175000
v -0.050000 -0.100000 -2.200000
v -0.050000 -0.100000 -2.000000
v 0.000000 -0.150000 -2.025000
v -0.025000 -0.125000 -2.000000
v -0.020000 -0.050000 -2.200000
v -0.050000 -0.020000 -2.200000
v -0.020000 -0.050000 -2.800000
v -0.050000 -0.020000 -2.800000
v 0.850000 -0.050000 -2.200000
v 0.850000 -0.050000 -2.800000
v -0.020000 -0.050000 -2.000000
v 0.850000 -0.050000 -2.000000
v -0.020000 -0.050000 -1.200000
v 0.850000 -0.050000 -1.200000
v -0.050000 -0.020000 -1.200000
v -0.050000 0.020000 -2.800000
v -0.050000 -0.020000 -2.000000
v -0.050000 -0.020000 -1.000000
v -0.050000 -0.020000 -0.100000
v -0.050000 -0.020000 0.100000
v -0.050000 0.020000 2.800000
v -0.050000 -0.020000 1.000000
v -0.050000 -0.020000 1.200000
v -0.050000 -0.020000 2.000000
v -0.050000 -0.020000 2.200000
v -0.050000 -0.020000 2.800000
v -0.020000 -0.050000 2.200000
v -0.020000 -0.050000 2.800000
v -0.020000 -0.050000 2.000000
v -0.020000 -0.050000 1.200000
v 0.850000 -0.050000 2.200000
v 0.850000 -0.050000 2.800000
v -0.020000 -0.050000 -1.000000
v 0.850000 -0.050000 -1.000000
v -0.020000 -0.050000 -0.100000
v 0.850000 -0.050000 -0.100000
v -0.020000 -0.050000 1.000000
v -0.020000 -0.050000 0.100000
v 0.850000 -0.050000 1.000000
v 0.850000 -0.050000 0.100000
v 0.850000 -0.050000 2.000000
v 0.850000 -0.050000 1.200000
v 0.750000 -0.150000 1.175000
v 0.775000 -0.125000 1.200000
v 0.750000 -0.150000 1.025000
v 0.775000 -0.125000 1.000000
v 0.750000 -0.150000 2.175000
v 0.775000 -0.125000 2.200000
v 0.750000 -0.150000 2.025000
v 0.775000 -0.125000 2.000000
v 0.750000 -0.150000 0.075000
v 0.775000 -0.125000 0.100000
v 0.775000 -0.125000 -0.100000
v 0.750000 -0.150000 -0.075000
v 0.750000 -0.150000 -2.025000
v 0.775000 -0.125000 -2.000000
v 0.775000 -0.125000 -2.200000
v 0.750000 -0.150000 -2.175000
v 0.750000 -0.150000 -1.025000
v 0.775000 -0.125000 -1.000000
v 0.775000 -0.125000 -1.200000
v 0.750000 -0.150000 -1.175000
v 0.850000 0.025000 2.800000
v 0.850000 0.025000 -2.800000
v -0.045000 0.025000 -2.800000
v 0.675000 0.050000 -0.425000
v 0.130000 0.050000 -0.425000
v 0.675000 0.050000 0.425000
v 0.130000 0.050000 0.425000
v -0.045000 0.025000 2.800000
v 0.000000 0.050000 2.750000
v 0.050000 0.050000 2.750000
v 0.000000 0.050000 -2.750000
v 0.050000 0.050000 -2.750000
v 0.825000 0.050000 -2.775000
v -0.020000 0.050000 -2.775000
v 0.825000 0.050000 2.775000
v -0.020000 0.050000 2.775000
vt 0.630302 0.560925
vt 0.630309 0.560925
vt 0.630302 0.560925
vt 0.630309 0.560925
vt 0.630302 0.560925
vt 0.631085 0.560925
vt 0.630302 0.560925
vt 0.631085 0.560925
vt 0.630302 0.560925
vt 0.630302 0.560925
vt 0.631085 0.560925
vt 0.631085 0.560925
vt 0.078687 0.963377
vt 0.078680 0.963377
vt 0.078687 0.962594
vt 0.078680 0.962594
vt 0.468569 0.549845
vt 0.468564 0.549842
vt 0.468574 0.549845
vt 0.468574 0.549817
vt 0.468564 0.549820
vt 0.468569 0.549817
vt 0.468569 0.549845
vt 0.468564 0.549842
vt 0.468574 0.549845
vt 0.468574 0.549817
vt 0.468564 0.549820
vt 0.468569 0.549817
vt 0.468569 0.549845
vt 0.468564 0.549842
vt 0.468574 0.549845
vt 0.468574 0.549817
vt 0.468564 0.549820
vt 0.468569 0.549817
vt 0.468569 0.549845
vt 0.468564 0.549842
vt 0.468574 0.549845
vt 0.468574 0.549817
vt 0.468564 0.549820
vt 0.468569 0.549817
vt 0.468569 0.549845
vt 0.468564 0.549842
vt 0.468574 0.549845
vt 0.468574 0.549817
vt 0.468564 0.549820
vt 0.468569 0.549817
vt 0.630299 0.561039
vt 0.630305 0.561039
vt 0.630299 0.561124
vt 0.630305 0.561124
vt 0.630238 0.561238
vt 0.630362 0.561238
vt 0.630238 0.561324
vt 0.630362 0.561324
vt 0.630362 0.561210
vt 0.630238 0.561210
vt 0.630362 0.561096
vt 0.630238 0.561096
vt 0.630530 0.560922
vt 0.630302 0.560928
vt 0.630416 0.560922
vt 0.630387 0.560922
vt 0.468683 0.549828
vt 0.468655 0.549828
vt 0.468683 0.549817
vt 0.468655 0.549817
vt 0.468797 0.549817
vt 0.468825 0.549817
vt 0.468797 0.549828
vt 0.468825 0.549828
vt 0.630558 0.560922
vt 0.630686 0.560922
vt 0.630715 0.560922
vt 0.468982 0.549828
vt 0.468953 0.549828
vt 0.468982 0.549817
vt 0.468953 0.549817
vt 0.631099 0.560928
vt 0.630843 0.560922
vt 0.630871 0.560922
vt 0.469138 0.549828
vt 0.469110 0.549828
vt 0.469138 0.549817
vt 0.469110 0.549817
vt 0.630985 0.560922
vt 0.631014 0.560922
vt 0.631099 0.560922
vt 0.469252 0.549817
vt 0.469281 0.549817
vt 0.469252 0.549828
vt 0.469281 0.549828
vt 0.630302 0.560922
vt 0.630299 0.560413
vt 0.630299 0.560328
vt 0.630305 0.560413
vt 0.630305 0.560328
vt 0.630299 0.560441
vt 0.630305 0.560441
vt 0.630299 0.560555
vt 0.630305 0.560555
vt 0.630362 0.560612
vt 0.630238 0.560612
vt 0.630362 0.560527
vt 0.630238 0.560527
vt 0.630362 0.561067
vt 0.630238 0.561067
vt 0.630362 0.560939
vt 0.630238 0.560939
vt 0.630305 0.561011
vt 0.630299 0.561011
vt 0.630305 0.560897
vt 0.630299 0.560897
vt 0.630299 0.560584
vt 0.630305 0.560584
vt 0.630299 0.560712
vt 0.630305 0.560712
vt 0.630238 0.560783
vt 0.630362 0.560783
vt 0.630238 0.560911
vt 0.630362 0.560911
vt 0.630238 0.560641
vt 0.630362 0.560641
vt 0.630238 0.560754
vt 0.630362 0.560754
vt 0.630305 0.560868
vt 0.630299 0.560868
vt 0.630305 0.560740
vt 0.630299 0.560740
vt 0.468660 0.549834
vt 0.468553 0.549834
vt 0.468663 0.549829
vt 0.468550 0.549829
vt 0.468579 0.549941
vt 0.468579 0.549963
vt 0.468574 0.549938
vt 0.468559 0.549938
vt 0.468574 0.549966
vt 0.468559 0.549966
vt 0.468523 0.549820
vt 0.468523 0.549842
vt 0.468553 0.549834
vt 0.468550 0.549829
vt 0.468660 0.549834
vt 0.468663 0.549829
vt 0.468697 0.549838
vt 0.468693 0.549831
vt 0.468580 0.549842
vt 0.468569 0.549831
vt 0.468697 0.549827
vt 0.468579 0.549870
vt 0.468579 0.549892
vt 0.468574 0.549867
vt 0.468559 0.549867
vt 0.468574 0.549895
vt 0.468559 0.549895
vt 0.468493 0.549829
vt 0.468489 0.549834
vt 0.468690 0.549831
vt 0.468679 0.549842
vt 0.468566 0.549831
vt 0.468562 0.549827
vt 0.468489 0.549834
vt 0.468553 0.549834
vt 0.468550 0.549829
vt 0.468660 0.549834
vt 0.468663 0.549829
vt 0.468559 0.550016
vt 0.468574 0.550016
vt 0.468574 0.550045
vt 0.468579 0.550020
vt 0.468579 0.550041
vt 0.468559 0.550045
vt 0.468523 0.549820
vt 0.468523 0.549842
vt 0.468489 0.549834
vt 0.468553 0.549834
vt 0.468550 0.549829
vt 0.468660 0.549834
vt 0.468663 0.549829
vt 0.468559 0.550165
vt 0.468574 0.550165
vt 0.468574 0.550194
vt 0.468579 0.550169
vt 0.468579 0.550190
vt 0.468559 0.550194
vt 0.468523 0.549820
vt 0.468523 0.549842
vt 0.468489 0.549834
vt 0.468553 0.549834
vt 0.468550 0.549829
vt 0.468660 0.549834
vt 0.468663 0.549829
vt 0.468559 0.550094
vt 0.468574 0.550094
vt 0.468574 0.550123
vt 0.468579 0.550098
vt 0.468579 0.550119
vt 0.468559 0.550123
vt 0.468523 0.549820
vt 0.468523 0.549842
vt 0.468489 0.549834
vt 0.630302 0.560918
vt 0.630387 0.560918
vt 0.630302 0.560929
vt 0.630416 0.560918
vt 0.630530 0.560918
vt 0.630558 0.560918
vt 0.630686 0.560918
vt 0.630715 0.560918
vt 0.631099 0.560929
vt 0.630843 0.560918
vt 0.630871 0.560918
vt 0.630985 0.560918
vt 0.631014 0.560918
vt 0.631099 0.560918
vt 0.468690 0.549831
vt 0.468679 0.549842
vt 0.468566 0.549831
vt 0.468562 0.549827
vt 0.468697 0.549838
vt 0.468693 0.549831
vt 0.468580 0.549842
vt 0.468569 0.549831
vt 0.468697 0.549827
vt 0.468693 0.549831
vt 0.468580 0.549842
vt 0.468569 0.549831
vt 0.468697 0.549838
vt 0.468693 0.549831
vt 0.468580 0.549842
vt 0.468569 0.549831
vt 0.468697 0.549827
vt 0.468690 0.549831
vt 0.468679 0.549842
vt 0.468566 0.549831
vt 0.630295 0.560932
vt 0.630295 0.560921
vt 0.630299 0.560925
vt 0.468523 0.549820
vt 0.468690 0.549831
vt 0.468679 0.549842
vt 0.468566 0.549831
vt 0.468562 0.549827
vt 0.468697 0.549838
vt 0.468693 0.549831
vt 0.468580 0.549842
vt 0.468569 0.549831
vt 0.468697 0.549827
vt 0.468690 0.549831
vt 0.468679 0.549842
vt 0.468566 0.549831
vt 0.468562 0.549827
vt 0.630334 0.560928
vt 0.630207 0.560928
vt 0.630331 0.560923
vt 0.630210 0.560923
vt 0.630300 0.560730
vt 0.630305 0.560726
vt 0.630300 0.561519
vt 0.630305 0.561523
vt 0.630395 0.560928
vt 0.630274 0.560928
vt 0.630398 0.560923
vt 0.630271 0.560923
vt 0.630341 0.561299
vt 0.630363 0.561320
vt 0.630242 0.561320
vt 0.630264 0.561298
vt 0.630242 0.560530
vt 0.207560 0.012670
vt 0.229740 0.012670
vt 0.229740 0.047263
vt 0.630341 0.560551
vt 0.630264 0.560552
vt 0.630430 0.560918
vt 0.630306 0.560918
vt 0.630302 0.560922
vt 0.630302 0.560928
vt 0.630300 0.560328
vt 0.630305 0.560331
vt 0.630299 0.560328
vt 0.630305 0.561121
vt 0.630299 0.561124
vt 0.630300 0.561124
vt 0.630426 0.560918
vt 0.630429 0.560929
vt 0.630430 0.560922
vt 0.630430 0.560928
vt 0.630302 0.560918
vt 0.207560 0.047263
vt 0.630363 0.560530
vn 0.0000 0.0000 1.0000
vn -1.0000 0.0000 0.0000
vn 0.0000 0.0000 -1.0000
vn 1.0000 0.0000 0.0000
vn 0.0000 1.0000 0.0000
vn -0.7071 -0.7071 0.0000
vn 0.0000 -1.0000 0.0000
vn 0.0000 -0.7071 0.7071
vn 0.7071 -0.7071 0.0000
vn 0.0000 -0.7071 -0.7071
vn 0.0000 0.7071 -0.7071
vn 0.7071 0.7071 0.0000
vn 0.0000 0.7071 0.7071
vn -0.7071 0.7071 0.0000
usemtl Steel_-_Satin.006
s 1
f 101/1/1 102/2/1 1/3/1
f 1/3/1 102/2/1 2/4/1
f 103/5/2 101/6/2 3/7/2
f 3/7/2 101/6/2 1/8/2
f 104/9/3 103/5/3 4/10/3
f 4/10/3 103/5/3 3/7/3
f 102/2/4 104/11/4 2/4/4
f 2/4/4 104/11/4 4/12/4
f 4/13/5 3/14/5 2/15/5
f 2/15/5 3/14/5 1/16/5
f 5/17/6 6/18/6 7/19/6
f 7/19/6 6/18/6 8/20/6
f 8/20/6 6/18/6 9/21/6
f 8/20/6 9/21/6 10/22/6
f 11/23/6 12/24/6 13/25/6
f 13/25/6 12/24/6 14/26/6
f 14/26/6 12/24/6 15/27/6
f 14/26/6 15/27/6 16/28/6
f 17/29/6 18/30/6 19/31/6
f 19/31/6 18/30/6 20/32/6
f 20/32/6 18/30/6 21/33/6
f 20/32/6 21/33/6 22/34/6
f 23/35/6 24/36/6 25/37/6
f 25/37/6 24/36/6 26/38/6
f 26/38/6 24/36/6 27/39/6
f 26/38/6 27/39/6 28/40/6
f 29/41/6 30/42/6 31/43/6
f 31/43/6 30/42/6 32/44/6
f 32/44/6 30/42/6 33/45/6
f 32/44/6 33/45/6 34/46/6
f 35/47/6 36/48/6 37/49/6
f 37/49/6 36/48/6 38/50/6
f 39/51/7 35/52/7 40/53/7
f 40/53/7 35/52/7 37/54/7
f 41/55/7 42/56/7 43/57/7
f 43/57/7 42/56/7 44/58/7
f 45/59/2 46/60/2 47/61/2
f 47/61/2 46/60/2 36/62/2
f 47/63/2 36/64/2 32/65/2
f 32/65/2 36/64/2 31/66/2
f 25/67/2 26/68/2 45/69/2
f 45/69/2 26/68/2 48/70/2
f 45/59/2 48/71/2 46/60/2
f 46/60/2 48/71/2 49/72/2
f 46/60/2 49/72/2 50/73/2
f 50/74/2 49/75/2 20/76/2
f 20/76/2 49/75/2 19/77/2
f 46/60/2 50/73/2 51/78/2
f 51/78/2 50/73/2 52/79/2
f 51/78/2 52/79/2 53/80/2
f 53/81/2 52/82/2 14/83/2
f 14/83/2 52/82/2 13/84/2
f 53/80/2 54/85/2 51/78/2
f 51/78/2 54/85/2 55/86/2
f 51/78/2 55/86/2 56/87/2
f 7/88/2 8/89/2 54/90/2
f 54/90/2 8/89/2 55/91/2
f 46/60/2 38/92/2 36/62/2
f 57/93/6 58/94/6 55/95/6
f 55/95/6 58/94/6 56/96/6
f 59/97/6 54/98/6 60/99/6
f 60/99/6 54/98/6 53/100/6
f 57/101/7 61/102/7 58/103/7
f 58/103/7 61/102/7 62/104/7
f 63/105/7 64/106/7 65/107/7
f 65/107/7 64/106/7 66/108/7
f 47/109/6 41/110/6 45/111/6
f 45/111/6 41/110/6 43/112/6
f 67/113/6 52/114/6 68/115/6
f 68/115/6 52/114/6 50/116/6
f 69/117/7 67/118/7 70/119/7
f 70/119/7 67/118/7 68/120/7
f 71/121/7 59/122/7 72/123/7
f 72/123/7 59/122/7 60/124/7
f 48/125/6 63/126/6 49/127/6
f 49/127/6 63/126/6 65/128/6
f 15/129/8 73/130/8 16/131/8
f 16/131/8 73/130/8 74/132/8
f 73/133/9 75/134/9 74/135/9
f 74/135/9 75/134/9 72/136/9
f 72/136/9 75/134/9 76/137/9
f 72/136/9 76/137/9 69/138/9
f 73/139/7 15/27/7 75/140/7
f 75/140/7 15/27/7 12/24/7
f 77/141/8 78/142/8 9/143/8
f 9/143/8 78/142/8 10/144/8
f 8/145/1 10/144/1 57/146/1
f 57/146/1 10/144/1 78/147/1
f 57/146/1 78/147/1 61/148/1
f 57/146/1 55/149/1 8/145/1
f 77/150/9 79/151/9 78/152/9
f 78/152/9 79/151/9 61/153/9
f 61/153/9 79/151/9 80/154/9
f 61/153/9 80/154/9 71/155/9
f 79/156/10 6/18/10 80/157/10
f 80/157/10 6/18/10 5/17/10
f 71/158/3 80/159/3 59/160/3
f 59/160/3 80/159/3 5/17/3
f 59/160/3 5/17/3 7/19/3
f 7/19/3 54/161/3 59/160/3
f 76/162/10 75/140/10 11/23/10
f 11/23/10 75/140/10 12/24/10
f 81/163/8 82/164/8 21/165/8
f 21/165/8 82/164/8 22/166/8
f 70/167/9 82/168/9 83/169/9
f 83/169/9 82/168/9 81/170/9
f 83/169/9 81/170/9 84/171/9
f 83/169/9 66/172/9 70/167/9
f 81/173/7 21/33/7 84/174/7
f 84/174/7 21/33/7 18/30/7
f 84/174/10 18/30/10 83/175/10
f 83/175/10 18/30/10 17/29/10
f 85/176/8 86/177/8 33/178/8
f 33/178/8 86/177/8 34/179/8
f 42/180/9 86/181/9 87/182/9
f 87/182/9 86/181/9 85/183/9
f 87/182/9 85/183/9 88/184/9
f 87/182/9 39/185/9 42/180/9
f 85/186/7 33/45/7 88/187/7
f 88/187/7 33/45/7 30/42/7
f 88/187/10 30/42/10 87/188/10
f 87/188/10 30/42/10 29/41/10
f 89/189/8 90/190/8 27/191/8
f 27/191/8 90/190/8 28/192/8
f 64/193/9 90/194/9 91/195/9
f 91/195/9 90/194/9 89/196/9
f 91/195/9 89/196/9 92/197/9
f 91/195/9 44/198/9 64/193/9
f 89/199/7 27/39/7 92/200/7
f 92/200/7 27/39/7 24/36/7
f 92/200/10 24/36/10 91/201/10
f 91/201/10 24/36/10 23/35/10
f 62/202/4 61/203/4 93/204/4
f 93/204/4 61/203/4 71/205/4
f 93/204/4 71/205/4 72/206/4
f 72/206/4 69/207/4 93/204/4
f 93/204/4 69/207/4 70/208/4
f 93/204/4 70/208/4 66/209/4
f 93/204/4 66/209/4 94/210/4
f 94/210/4 66/209/4 64/211/4
f 94/210/4 64/211/4 44/212/4
f 44/212/4 42/213/4 94/210/4
f 94/210/4 42/213/4 39/214/4
f 94/210/4 39/214/4 40/215/4
f 69/216/3 76/217/3 67/218/3
f 67/218/3 76/217/3 11/23/3
f 67/218/3 11/23/3 13/25/3
f 13/25/3 52/219/3 67/218/3
f 20/220/1 22/166/1 68/221/1
f 68/221/1 22/166/1 82/222/1
f 68/221/1 82/222/1 70/223/1
f 68/221/1 50/224/1 20/220/1
f 32/65/1 34/179/1 41/225/1
f 41/225/1 34/179/1 86/226/1
f 41/225/1 86/226/1 42/227/1
f 41/225/1 47/63/1 32/65/1
f 26/228/1 28/192/1 63/229/1
f 63/229/1 28/192/1 90/230/1
f 63/229/1 90/230/1 64/231/1
f 63/229/1 48/232/1 26/228/1
f 39/233/3 87/234/3 35/235/3
f 35/235/3 87/234/3 29/41/3
f 35/235/3 29/41/3 31/43/3
f 31/236/3 36/237/3 35/238/3
f 77/239/7 9/21/7 79/156/7
f 79/156/7 9/21/7 6/18/7
f 44/240/3 91/241/3 43/242/3
f 43/242/3 91/241/3 23/35/3
f 43/242/3 23/35/3 25/37/3
f 25/37/3 45/243/3 43/242/3
f 14/244/1 16/131/1 60/245/1
f 60/245/1 16/131/1 74/246/1
f 60/245/1 74/246/1 72/247/1
f 60/245/1 53/248/1 14/244/1
f 66/249/3 83/250/3 65/251/3
f 65/251/3 83/250/3 17/29/3
f 65/251/3 17/29/3 19/31/3
f 19/31/3 49/252/3 65/251/3
f 94/253/11 95/254/11 105/255/11
f 105/255/11 95/254/11 106/256/11
f 107/257/12 93/258/12 105/259/12
f 105/259/12 93/258/12 94/260/12
f 107/261/13 108/262/13 93/263/13
f 93/263/13 108/262/13 100/264/13
f 96/265/5 105/266/5 106/267/5
f 97/268/5 106/267/5 108/269/5
f 99/270/5 98/271/5 96/272/5
f 98/273/5 99/274/5 108/269/5
f 62/275/1 93/263/1 58/276/1
f 58/276/1 93/263/1 100/264/1
f 58/276/1 100/264/1 56/277/1
f 56/277/1 100/264/1 51/278/1
f 100/279/14 108/280/14 51/281/14
f 51/281/14 108/280/14 106/282/14
f 51/281/14 106/282/14 46/283/14
f 46/283/14 106/282/14 95/284/14
f 94/253/3 37/285/3 95/286/3
f 95/286/3 37/285/3 38/287/3
f 95/286/3 38/287/3 46/288/3
f 94/253/3 40/289/3 37/285/3
f 99/270/5 96/272/5 97/290/5
f 98/273/5 107/291/5 105/266/5
f 96/265/5 106/267/5 97/268/5
f 98/273/5 105/266/5 96/265/5
f 98/273/5 108/269/5 107/291/5
f 97/268/5 108/269/5 99/274/5
