# Blender v2.80 (sub 75) OBJ File: ''
# www.blender.org
mtllib YK_Four_Block.mtl
o BF_Block_111.002
v 0.325774 0.424888 0.500000
v 0.424888 0.325774 0.500000
v 0.500568 0.325708 0.424255
v 0.500568 0.424822 0.325140
v 0.424888 0.500502 0.325140
v 0.325774 0.500502 0.424255
v 0.500568 -0.424954 0.325140
v 0.500568 -0.325840 0.424254
v 0.424888 -0.325774 0.500000
v 0.325774 -0.424888 0.500000
v 0.325774 -0.500219 0.425019
v 0.424888 -0.500433 0.325905
v -1.499865 0.424822 0.325271
v -1.499651 0.325708 0.424386
v -1.424888 0.325774 0.500000
v -1.325774 0.424888 0.500000
v -1.325774 0.500502 0.424255
v -1.424888 0.500502 0.325140
v -1.499865 -0.424954 0.325271
v -1.424888 -0.499931 0.325271
v -1.325774 -0.499717 0.424385
v -1.325774 -0.424888 0.500000
v -1.424888 -0.325774 0.500000
v -1.499651 -0.325840 0.424385
v 0.500568 -0.424954 -1.326408
v 0.424888 -0.501838 -1.325641
v 0.325774 -0.501550 -1.425389
v 0.325774 -0.425019 -1.500219
v 0.424888 -0.325905 -1.500433
v 0.500568 -0.325840 -1.425522
v 0.500568 0.424823 -1.326408
v 0.500568 0.325708 -1.425522
v 0.424888 0.325641 -1.501838
v 0.325774 0.424755 -1.502052
v 0.325774 0.500502 -1.425522
v 0.424888 0.500502 -1.326408
v -1.501271 -0.424954 -1.326275
v -1.501484 -0.325840 -1.425389
v -1.424888 -0.325905 -1.500433
v -1.325774 -0.425019 -1.500219
v -1.325774 -0.501550 -1.425389
v -1.424888 -0.501838 -1.325641
v -1.501484 0.325708 -1.425389
v -1.501271 0.424822 -1.326275
v -1.424888 0.500502 -1.326408
v -1.325774 0.500502 -1.425522
v -1.325774 0.424755 -1.502052
v -1.424888 0.325641 -1.501838
v 0.600001 0.000000 0.000000
v 0.500001 -0.132023 0.132023
v 0.500001 -0.132023 -0.132023
v 0.500001 0.132022 0.132023
v 0.500001 0.132022 -0.132023
v 0.000000 0.000001 0.600002
v -0.132023 -0.132022 0.500001
v 0.132023 -0.132022 0.500002
v -0.132023 0.132023 0.500001
v 0.132023 0.132023 0.500001
v -0.000001 0.600000 0.000000
v 0.132022 0.500000 0.132023
v 0.132022 0.500000 -0.132023
v -0.132023 0.500000 0.132023
v -0.132023 0.500000 -0.132023
v 0.000001 -0.600000 -0.000000
v -0.132022 -0.500000 0.132023
v -0.132022 -0.500000 -0.132023
v 0.132023 -0.500000 0.132023
v 0.132024 -0.500000 -0.132024
v -1.600001 -0.000000 0.000001
v -1.500001 0.132023 -0.132022
v -1.500001 -0.132023 -0.132022
v -1.500001 0.132023 0.132024
v -1.500001 -0.132023 0.132024
v -1.000000 0.000001 0.600002
v -1.132023 -0.132022 0.500001
v -0.867977 -0.132022 0.500002
v -1.132023 0.132023 0.500001
v -0.867977 0.132023 0.500001
v -1.000001 0.600000 0.000000
v -0.867978 0.500000 0.132023
v -0.867978 0.500000 -0.132023
v -1.132023 0.500000 0.132023
v -1.132023 0.500000 -0.132023
v -0.999999 -0.600000 -0.000000
v -1.132022 -0.500000 0.132023
v -1.132022 -0.500000 -0.132023
v -0.867977 -0.500000 0.132023
v -0.867976 -0.500000 -0.132024
v 0.000000 0.000000 -1.600002
v 0.132023 0.132023 -1.500001
v 0.132023 -0.132023 -1.500001
v -0.132023 0.132023 -1.500001
v -0.132023 -0.132023 -1.500001
v 0.600001 0.000000 -1.000000
v 0.500001 -0.132023 -0.867977
v 0.500001 -0.132023 -1.132023
v 0.500001 0.132022 -0.867977
v 0.500001 0.132022 -1.132023
v -0.000001 0.600000 -1.000000
v 0.132022 0.500000 -0.867977
v 0.132022 0.500000 -1.132023
v -0.132023 0.500000 -0.867977
v -0.132023 0.500000 -1.132023
v 0.000001 -0.600000 -1.000000
v -0.132022 -0.500000 -0.867977
v -0.132022 -0.500000 -1.132023
v 0.132023 -0.500000 -0.867977
v 0.132024 -0.500000 -1.132024
v -1.600001 0.000000 -0.999999
v -1.500001 0.132023 -1.132022
v -1.500001 -0.132023 -1.132022
v -1.500001 0.132023 -0.867976
v -1.500001 -0.132023 -0.867976
v -1.000000 0.000000 -1.600002
v -0.867977 0.132023 -1.500001
v -0.867977 -0.132023 -1.500001
v -1.132023 0.132023 -1.500001
v -1.132023 -0.132023 -1.500001
v -1.000001 0.600000 -1.000000
v -0.867978 0.500000 -0.867977
v -0.867978 0.500000 -1.132023
v -1.132023 0.500000 -0.867977
v -1.132023 0.500000 -1.132023
v -0.999999 -0.600000 -1.000000
v -1.132022 -0.500000 -0.867977
v -1.132022 -0.500000 -1.132023
v -0.867977 -0.500000 -0.867977
v -0.867976 -0.500000 -1.132024
v -0.422125 -0.401854 0.445742
v -0.577875 -0.401854 0.445742
v -0.422125 0.401839 0.445742
v -0.577875 0.401839 0.445742
v -0.422125 0.473353 -1.375359
v -0.577875 0.473353 -1.375359
v -0.577875 0.401714 -1.447739
v -0.422125 0.401714 -1.447739
v -0.422125 0.473353 0.374105
v -0.577875 0.473353 0.374105
v -0.422125 0.473353 -0.578378
v -0.422125 0.473353 -0.422628
v -0.577875 0.473353 -0.422628
v -0.577875 0.473353 -0.578378
v -0.577875 -0.473687 -0.578378
v -0.577875 -0.473554 -0.422628
v -0.422125 -0.473575 -0.422627
v -0.422125 -0.473708 -0.578377
v -0.664681 0.500502 -1.425522
v -0.335319 0.500502 -1.425522
v -0.664680 0.500502 0.424255
v -0.335319 0.500502 0.424255
v -0.664681 -0.499943 0.424670
v -0.335319 -0.499993 0.424734
v -0.664681 -0.425019 -1.500219
v -0.335319 -0.425019 -1.500219
v -0.664680 -0.424888 0.500000
v -0.335319 -0.424888 0.500000
v -0.664680 0.424888 0.500000
v -0.335319 0.424888 0.500000
v -0.335319 -0.501550 -1.425389
v -0.664681 -0.501550 -1.425389
v -0.335319 0.424755 -1.502052
v -0.664681 0.424755 -1.502052
v -1.500498 -0.424954 -0.335821
v -1.500638 -0.424954 -0.665183
v 0.500568 0.424823 -0.665182
v 0.500568 0.424822 -0.335821
v 0.424888 0.500502 -0.335821
v 0.424888 0.500502 -0.665182
v -0.335319 -0.500722 -0.335821
v -0.664681 -0.500700 -0.335821
v -0.664681 -0.500841 -0.665183
v -0.335319 -0.500863 -0.665183
v -0.664681 0.500502 -0.335822
v -0.335319 0.500502 -0.335822
v -0.335319 0.500502 -0.665183
v -0.664681 0.500502 -0.665183
v 0.500568 -0.424954 -0.335821
v 0.500568 -0.424954 -0.665182
v -1.424888 -0.500980 -0.665182
v -1.424888 -0.500790 -0.335821
v 0.424888 -0.501066 -0.335821
v 0.424888 -0.501206 -0.665182
v -1.500638 0.424822 -0.665183
v -1.500498 0.424822 -0.335821
v -1.424888 0.500502 -0.335821
v -1.424888 0.500502 -0.665183
v -0.577875 -0.472838 0.374498
v -0.422125 -0.472886 0.374558
v -0.577875 -0.401977 -1.446005
v -0.422125 -0.401977 -1.446005
v -0.422125 -0.474358 -1.375233
v -0.577875 -0.474358 -1.375233
v -1.446374 0.401777 -0.578377
v -1.446241 0.401777 -0.422627
v -1.374731 0.473353 -0.422627
v -1.374731 0.473353 -0.578377
v 0.374731 0.473353 -0.422627
v 0.374731 0.473353 -0.578377
v 0.446307 -0.401916 -0.422627
v 0.446307 -0.401916 -0.578377
v 0.446307 0.401777 -0.578377
v 0.446307 0.401777 -0.422627
v 0.374731 -0.473900 -0.422627
v 0.374731 -0.474033 -0.578377
v -1.446241 -0.401916 -0.422628
v -1.446374 -0.401916 -0.578378
v -1.374731 -0.473819 -0.578377
v -1.374731 -0.473639 -0.422627
vt 0.319533 0.182059
vt 0.335915 0.165677
vt 0.348424 0.165666
vt 0.348424 0.182048
vt 0.335915 0.194556
vt 0.319533 0.194556
vt 0.348424 0.041594
vt 0.348424 0.057976
vt 0.335915 0.057987
vt 0.319533 0.041605
vt 0.319533 0.029154
vt 0.335915 0.029118
vt 0.017786 0.182048
vt 0.017821 0.165666
vt 0.030178 0.165677
vt 0.046560 0.182059
vt 0.046560 0.194556
vt 0.030178 0.194556
vt 0.017786 0.041594
vt 0.030178 0.029201
vt 0.046560 0.029237
vt 0.046560 0.041605
vt 0.030178 0.057987
vt 0.017821 0.057976
vt 0.209179 0.197336
vt 0.251357 0.112393
vt 0.291111 0.115370
vt 0.291111 0.187726
vt 0.281473 0.197364
vt 0.209782 0.183324
vt 0.209782 0.054937
vt 0.322122 0.054937
vt 0.337096 0.069912
vt 0.337096 0.168350
vt 0.322122 0.183324
vt 0.024313 0.043891
vt 0.036405 0.031606
vt 0.052242 0.031652
vt 0.052242 0.043881
vt 0.036405 0.059717
vt 0.024313 0.059728
vt 0.024313 0.179670
vt 0.024313 0.163834
vt 0.036405 0.163823
vt 0.052242 0.179660
vt 0.052242 0.191763
vt 0.036405 0.191763
vt 0.344171 0.043891
vt 0.344205 0.059728
vt 0.331966 0.059717
vt 0.316130 0.043881
vt 0.316130 0.031652
vt 0.331966 0.031606
vt 0.344205 0.163834
vt 0.344171 0.179670
vt 0.331966 0.191763
vt 0.316130 0.191763
vt 0.316130 0.179660
vt 0.331966 0.163823
vt 0.197342 0.043881
vt 0.197342 0.031652
vt 0.167742 0.027295
vt 0.167742 0.014234
vt 0.040516 0.014126
vt 0.040385 0.027295
vt 0.181757 0.218479
vt 0.244719 0.218479
vt 0.243690 0.218479
vt 0.160479 0.218479
vt 0.160479 0.218479
vt 0.291111 0.099356
vt 0.258348 0.095886
vt 0.299548 0.011046
vt 0.281473 0.017424
vt 0.291111 0.027124
vt 0.111233 0.080577
vt 0.235343 0.109542
vt 0.193165 0.197330
vt 0.120871 0.197302
vt 0.111233 0.124367
vt 0.190099 0.171605
vt 0.190099 0.043219
vt 0.302419 0.043219
vt 0.317393 0.058193
vt 0.317394 0.156631
vt 0.302419 0.171605
vt 0.076411 0.197006
vt 0.061437 0.182031
vt 0.061437 0.083594
vt 0.076411 0.068619
vt 0.188732 0.068619
vt 0.188732 0.197006
vt 0.634016 0.524678
vt 0.617470 0.524680
vt 0.617470 0.524666
vt 0.634016 0.524664
vt 0.169437 0.182059
vt 0.169437 0.194556
vt 0.213612 0.197006
vt 0.213612 0.068619
vt 0.325932 0.068619
vt 0.340907 0.083594
vt 0.340907 0.182031
vt 0.325932 0.197006
vt 0.040408 0.027295
vt 0.040516 0.014126
vt 0.167742 0.014273
vt 0.167742 0.027295
vt 0.167742 0.172843
vt 0.167742 0.185805
vt 0.040385 0.185805
vt 0.040408 0.172843
vt 0.196656 0.194556
vt 0.196656 0.182059
vt 0.197342 0.191763
vt 0.197342 0.179660
vt 0.160479 0.218479
vt 0.243690 0.218479
vt 0.244719 0.218479
vt 0.181757 0.218479
vt 0.160479 0.218479
vt 0.321628 0.003255
vt 0.303552 0.009633
vt 0.244389 0.093537
vt 0.111233 0.070877
vt 0.111233 0.027124
vt 0.192128 0.175501
vt 0.192128 0.047115
vt 0.304448 0.047115
vt 0.319423 0.062089
vt 0.319423 0.160527
vt 0.304448 0.175501
vt 0.039953 0.160527
vt 0.039953 0.062089
vt 0.054927 0.047115
vt 0.167247 0.047115
vt 0.167247 0.175501
vt 0.054927 0.175501
vt 0.171029 0.031652
vt 0.171029 0.043881
vt 0.196656 0.041605
vt 0.196656 0.029191
vt 0.323259 0.185805
vt 0.195948 0.185805
vt 0.195948 0.172843
vt 0.323282 0.172843
vt 0.258666 0.218479
vt 0.247754 0.210871
vt 0.188576 0.120150
vt 0.342905 0.218479
vt 0.321628 0.218479
vt 0.323259 0.185805
vt 0.323259 0.172843
vt 0.195948 0.172843
vt 0.195948 0.185805
vt 0.323390 0.014367
vt 0.195948 0.014258
vt 0.195948 0.027295
vt 0.323259 0.027295
vt 0.167742 0.185805
vt 0.167742 0.172843
vt 0.040385 0.172843
vt 0.040385 0.185805
vt 0.057626 0.069912
vt 0.072601 0.054937
vt 0.184901 0.054937
vt 0.184901 0.183324
vt 0.072601 0.183324
vt 0.057626 0.168350
vt 0.195948 0.027295
vt 0.195948 0.014306
vt 0.323282 0.014453
vt 0.323282 0.027295
vt 0.169437 0.029199
vt 0.169437 0.041605
vt 0.171029 0.179660
vt 0.171029 0.191763
vt 0.052898 0.171605
vt 0.037924 0.156631
vt 0.037924 0.058193
vt 0.052898 0.043219
vt 0.165218 0.043219
vt 0.165218 0.171605
vt 0.195948 0.172843
vt 0.195948 0.185805
vt 0.197342 0.043881
vt 0.197342 0.031652
vt 0.160479 0.218479
vt 0.243690 0.218479
vt 0.195948 0.027295
vt 0.195948 0.014306
vt 0.167742 0.172843
vt 0.167742 0.185805
vt 0.197342 0.191763
vt 0.197342 0.179660
vt 0.171029 0.031652
vt 0.171029 0.043881
vt 0.167742 0.014273
vt 0.167742 0.027295
vt 0.195948 0.185805
vt 0.195948 0.172843
vt 0.244719 0.218479
vt 0.169437 0.029199
vt 0.169437 0.041605
vt 0.251357 0.112393
vt 0.291111 0.115370
vt 0.195948 0.014258
vt 0.195948 0.027295
vt 0.196656 0.041605
vt 0.196656 0.029191
vt 0.291111 0.099356
vt 0.258348 0.095886
vt 0.244719 0.218479
vt 0.243690 0.218479
vt 0.258666 0.218479
vt 0.247754 0.210871
vt 0.167742 0.027295
vt 0.167742 0.014234
vt 0.244245 0.208635
vt 0.154384 0.098364
vt 0.154384 0.098364
vt 0.244245 0.208635
vt 0.258666 0.218479
vt 0.258666 0.218479
vt 0.188732 0.068619
vt 0.188732 0.197006
vt 0.188576 0.120150
vt 0.321628 0.218479
vt 0.000000 0.000000
vt 0.617470 0.625274
vt 0.634016 0.625274
vt 0.634016 0.625274
vt 0.617470 0.625274
vt 0.617470 0.625274
vt 0.634016 0.625274
vt 0.617470 0.617664
vt 0.617470 0.625274
vt 0.634016 0.625274
vt 0.634016 0.617664
vt 0.617470 0.617677
vt 0.634016 0.617677
vt 0.634016 0.532297
vt 0.617470 0.532297
vt 0.634016 0.524751
vt 0.617470 0.524756
vt 0.634016 0.532284
vt 0.634016 0.524595
vt 0.617470 0.524595
vt 0.617470 0.532284
vt 0.525219 0.617670
vt 0.532816 0.625274
vt 0.532816 0.625274
vt 0.525205 0.617670
vt 0.718669 0.625274
vt 0.718669 0.625274
vt 0.726273 0.532291
vt 0.726273 0.617670
vt 0.726273 0.617670
vt 0.726273 0.532291
vt 0.718669 0.524629
vt 0.718669 0.524643
vt 0.525205 0.532291
vt 0.532816 0.524652
vt 0.532816 0.524671
vt 0.525219 0.532291
vt 0.171029 0.179660
vt 0.171029 0.191763
vt 0.167247 0.047115
vt 0.167247 0.175501
vt 0.167742 0.185805
vt 0.167742 0.172843
vt 0.169437 0.182059
vt 0.169437 0.194556
vt 0.160479 0.218479
vt 0.192128 0.175501
vt 0.192128 0.047115
vt 0.165218 0.043219
vt 0.165218 0.171605
vt 0.209179 0.197336
vt 0.190099 0.171605
vt 0.190099 0.043219
vt 0.196656 0.194556
vt 0.196656 0.182059
vt 0.209782 0.183324
vt 0.209782 0.054937
vt 0.235343 0.109542
vt 0.193165 0.197330
vt 0.244389 0.093537
vt 0.111233 0.070877
vt 0.299548 0.011046
vt 0.111233 0.080577
vt 0.213612 0.197006
vt 0.213612 0.068619
vt 0.184901 0.054937
vt 0.184901 0.183324
vt 0.303552 0.009633
vt 0.428326 0.304379
vt 0.359213 0.373492
vt 0.359213 0.235266
vt 0.497438 0.373492
vt 0.497438 0.235265
vt 0.428302 0.304254
vt 0.359189 0.235141
vt 0.497416 0.235141
vt 0.359189 0.373367
vt 0.497416 0.373367
vt 0.428302 0.304379
vt 0.497415 0.373492
vt 0.497415 0.235265
vt 0.359189 0.373492
vt 0.359189 0.235265
vt 0.428303 0.304379
vt 0.359190 0.373492
vt 0.359190 0.235265
vt 0.497416 0.373492
vt 0.497416 0.235265
vt 0.428326 0.304379
vt 0.497439 0.235266
vt 0.359213 0.235266
vt 0.497439 0.373492
vt 0.359213 0.373492
vt 0.428302 0.304254
vt 0.359189 0.235141
vt 0.497416 0.235141
vt 0.359189 0.373367
vt 0.497416 0.373367
vt 0.428302 0.304379
vt 0.497415 0.373492
vt 0.497415 0.235265
vt 0.359189 0.373492
vt 0.359189 0.235265
vt 0.428303 0.304379
vt 0.359190 0.373492
vt 0.359190 0.235265
vt 0.497416 0.373492
vt 0.497416 0.235265
vt 0.428303 0.304254
vt 0.497415 0.373367
vt 0.497416 0.235141
vt 0.359190 0.373367
vt 0.359190 0.235141
vt 0.428326 0.304379
vt 0.359213 0.373492
vt 0.359213 0.235266
vt 0.497438 0.373492
vt 0.497438 0.235265
vt 0.428302 0.304379
vt 0.497415 0.373492
vt 0.497415 0.235265
vt 0.359189 0.373492
vt 0.359189 0.235265
vt 0.428303 0.304379
vt 0.359190 0.373492
vt 0.359190 0.235265
vt 0.497416 0.373492
vt 0.497416 0.235265
vt 0.428326 0.304379
vt 0.497439 0.235266
vt 0.359213 0.235266
vt 0.497439 0.373492
vt 0.359213 0.373492
vt 0.428303 0.304254
vt 0.497415 0.373367
vt 0.497416 0.235141
vt 0.359190 0.373367
vt 0.359190 0.235141
vt 0.428302 0.304379
vt 0.497415 0.373492
vt 0.497415 0.235265
vt 0.359189 0.373492
vt 0.359189 0.235265
vt 0.428303 0.304379
vt 0.359190 0.373492
vt 0.359190 0.235265
vt 0.497416 0.373492
vt 0.497416 0.235265
vn 0.5775 0.5775 0.5770
vn 0.5778 -0.5763 0.5780
vn -0.5791 0.5766 0.5764
vn -0.5780 -0.5780 0.5760
vn -0.0004 -1.0000 0.0010
vn -0.7111 -0.0000 0.7031
vn 0.7074 -0.0000 0.7068
vn 1.0000 0.0000 0.0000
vn 0.5772 -0.5751 -0.5798
vn 0.5782 0.5780 -0.5758
vn -0.5756 -0.5760 -0.5804
vn -0.5767 0.5789 -0.5765
vn 0.0000 -0.6991 -0.7150
vn 0.7112 -0.7030 0.0003
vn -0.0000 1.0000 0.0000
vn 0.7068 -0.0008 -0.7074
vn -0.0004 -1.0000 0.0007
vn -0.0000 -1.0000 0.0012
vn -1.0000 0.0000 0.0011
vn -0.0000 -0.0000 1.0000
vn -0.0001 -1.0000 0.0009
vn -0.0000 0.7077 0.7065
vn -0.7089 -0.7053 0.0008
vn -0.7032 -0.0008 -0.7110
vn -0.7053 0.7089 0.0003
vn 0.0000 0.7107 -0.7035
vn 0.0003 -1.0000 0.0009
vn -0.0000 -0.0022 -1.0000
vn -0.0003 -0.7067 0.7075
vn -0.7089 0.7053 0.0003
vn 0.7071 0.7071 0.0000
vn 0.7076 -0.7066 0.0003
vn -0.7076 -0.7066 0.0008
vn -0.0003 -0.7096 0.7046
vn 0.5984 0.5984 -0.5329
vn 0.5343 -0.5909 -0.6044
vn 0.0000 0.9544 -0.2985
vn -0.5992 -0.5974 -0.5330
vn -0.5981 0.5987 0.5328
vn 0.5323 0.6017 -0.5955
vn -0.5343 -0.5909 -0.6044
vn -0.5993 -0.5971 0.5331
vn -0.5986 0.5981 -0.5329
vn -0.2985 0.9544 0.0000
vn 0.5325 -0.5996 0.5974
vn -0.0004 -0.9545 -0.2983
vn 0.5999 -0.5965 -0.5333
vn -0.5326 -0.5991 0.5978
vn -0.0004 -0.9545 0.2984
vn 0.2985 0.9544 0.0000
vn 0.6004 -0.5959 0.5334
vn 0.0000 0.9544 0.2985
vn 0.5300 -0.0000 0.8480
vn -0.0002 -0.7081 0.7061
vn -0.0002 -1.0000 0.0009
vn -0.0001 -1.0000 0.0008
vn -0.7071 0.7071 0.0003
vn 0.7094 -0.7048 0.0003
vn -0.7083 -0.7059 0.0007
vn -1.0000 -0.0000 0.0009
vn 0.0001 -1.0000 0.0010
vn -0.0004 -1.0000 0.0009
vn -0.5323 0.6017 -0.5955
vn -0.5301 -0.0018 -0.8480
vn 0.5983 0.5984 0.5329
vn 0.5327 0.5989 0.5979
vn 0.5301 -0.0018 -0.8480
vn -0.8479 -0.0000 0.5301
vn -0.2989 -0.9543 0.0009
vn -0.8480 0.0000 -0.5300
vn -0.5327 0.5989 0.5979
vn 0.8480 -0.0000 0.5301
vn 0.2989 -0.9543 0.0009
vn 0.0002 -0.9544 0.2985
vn -0.2982 -0.9545 0.0008
vn 0.0001 -0.9544 -0.2984
vn -0.5300 -0.0000 0.8480
vn 0.8480 0.0000 -0.5300
vn 0.2981 -0.9545 0.0008
vn 0.7971 -0.6038 -0.0000
vn 0.7971 -0.0000 0.6038
vn 0.7971 0.6038 0.0000
vn 0.7971 0.0000 -0.6038
vn -0.0000 -0.6038 0.7971
vn -0.6038 0.0000 0.7971
vn 0.0000 0.6038 0.7971
vn 0.6038 0.0000 0.7971
vn 0.6038 0.7971 0.0000
vn 0.0000 0.7971 0.6038
vn -0.6038 0.7971 0.0000
vn 0.0000 0.7971 -0.6038
vn -0.6038 -0.7971 0.0000
vn 0.0000 -0.7971 0.6038
vn 0.6038 -0.7971 0.0000
vn -0.0000 -0.7971 -0.6038
vn -0.7971 -0.0000 -0.6038
vn -0.7971 0.6038 0.0000
vn -0.7971 0.0000 0.6038
vn -0.7971 -0.6038 -0.0000
vn 0.6038 0.0000 -0.7971
vn 0.0000 0.6038 -0.7971
vn -0.6038 0.0000 -0.7971
vn 0.0000 -0.6038 -0.7971
usemtl Default_OBJ.001
s off
f 1/1/1 2/2/1 3/3/1 4/4/1 5/5/1 6/6/1
f 7/7/2 8/8/2 9/9/2 10/10/2 11/11/2 12/12/2
f 13/13/3 14/14/3 15/15/3 16/16/3 17/17/3 18/18/3
f 19/19/4 20/20/4 21/21/4 22/22/4 23/23/4 24/24/4
f 152/25/5 169/26/5 181/27/5 12/28/5 11/29/5
f 14/14/6 24/24/6 23/23/6 15/15/6
f 8/8/7 3/3/7 2/2/7 9/9/7
f 165/30/8 178/31/8 25/32/8 30/33/8 32/34/8 31/35/8
f 25/36/9 26/37/9 27/38/9 28/39/9 29/40/9 30/41/9
f 31/42/10 32/43/10 33/44/10 34/45/10 35/46/10 36/47/10
f 37/48/11 38/49/11 39/50/11 40/51/11 41/52/11 42/53/11
f 43/54/12 44/55/12 45/56/12 46/57/12 47/58/12 48/59/12
f 153/60/13 160/61/13 41/52/13 40/51/13
f 178/62/14 182/63/14 26/64/14 25/65/14
f 35/66/15 148/67/15 175/68/15 168/69/15 36/70/15
f 33/44/16 32/43/16 30/41/16 29/40/16
f 182/71/17 172/72/17 159/73/17 27/74/17 26/75/17
f 180/76/18 170/77/18 151/78/18 21/79/18 20/80/18
f 184/81/19 163/82/19 19/83/19 24/84/19 14/85/19 13/86/19
f 16/87/20 15/88/20 23/89/20 22/90/20 155/91/20 157/92/20
f 145/93/21 144/94/21 143/95/21 146/96/21
f 157/97/22 149/98/22 17/17/22 16/16/22
f 158/99/20 156/100/20 10/101/20 9/102/20 2/103/20 1/104/20
f 37/105/23 42/106/23 179/107/23 164/108/23
f 38/49/24 43/54/24 48/59/24 39/50/24
f 183/109/25 186/110/25 45/111/25 44/112/25
f 1/1/22 6/6/22 150/113/22 158/114/22
f 47/58/26 46/57/26 147/115/26 162/116/26
f 167/117/15 174/118/15 150/119/15 6/120/15 5/121/15
f 41/122/27 160/123/27 171/124/27 179/125/27 42/126/27
f 162/127/28 153/128/28 40/129/28 39/130/28 48/131/28 47/132/28
f 33/133/28 29/134/28 28/135/28 154/136/28 161/137/28 34/138/28
f 27/38/13 159/139/13 154/140/13 28/39/13
f 11/11/29 10/10/29 156/141/29 152/142/29
f 18/143/30 185/144/30 184/145/30 13/146/30
f 149/147/15 173/148/15 185/149/15 18/150/15 17/151/15
f 5/152/31 4/153/31 166/154/31 167/155/31
f 12/156/32 181/157/32 177/158/32 7/159/32
f 168/160/31 165/161/31 31/162/31 36/163/31
f 8/164/8 7/165/8 177/166/8 166/167/8 4/168/8 3/169/8
f 163/170/33 180/171/33 20/172/33 19/173/33
f 151/174/34 155/175/34 22/22/34 21/21/34
f 161/176/26 148/177/26 35/46/26 34/45/26
f 44/178/19 43/179/19 38/180/19 37/181/19 164/182/19 183/183/19
f 167/155/35 166/154/35 202/184/35 197/185/35
f 160/61/36 153/60/36 189/186/36 192/187/36
f 174/118/37 167/117/37 197/188/37 140/189/37
f 180/171/38 163/170/38 205/190/38 208/191/38
f 186/110/39 183/109/39 193/192/39 196/193/39
f 162/116/40 147/115/40 134/194/40 135/195/40
f 154/140/41 159/139/41 191/196/41 190/197/41
f 164/108/42 179/107/42 207/198/42 206/199/42
f 184/145/43 185/144/43 195/200/43 194/201/43
f 150/119/44 174/118/44 140/189/44 137/202/44
f 155/175/45 151/174/45 187/203/45 130/204/45
f 181/27/46 169/26/46 145/205/46 203/206/46
f 177/158/47 181/157/47 203/207/47 199/208/47
f 152/142/48 156/141/48 129/209/48 188/210/48
f 172/72/49 182/71/49 204/211/49 146/212/49
f 175/68/44 148/67/44 133/213/44 139/214/44
f 173/148/50 149/147/50 138/215/50 141/216/50
f 182/63/51 178/62/51 200/217/51 204/218/51
f 176/219/52 186/220/52 196/221/52 142/222/52
f 147/223/50 176/219/50 142/222/50 134/224/50
f 157/92/53 155/91/53 130/225/53 132/226/53
f 185/149/37 173/148/37 141/216/37 195/227/37
f 186/220/15 176/219/15 147/223/15 46/228/15 45/229/15
f 141/230/15 140/231/15 139/232/15 142/233/15
f 141/230/15 138/234/15 137/235/15 140/231/15
f 135/236/26 134/237/26 133/238/26 136/239/26
f 138/234/22 132/240/22 131/241/22 137/235/22
f 129/242/20 131/241/20 132/240/20 130/243/20
f 188/244/54 129/242/54 130/243/54 187/245/54
f 190/246/13 191/247/13 192/248/13 189/249/13
f 136/239/28 190/246/28 189/249/28 135/236/28
f 145/93/55 188/244/55 187/245/55 144/94/55
f 191/247/56 146/96/56 143/95/56 192/248/56
f 134/237/15 142/233/15 139/232/15 133/238/15
f 194/250/57 195/251/57 196/252/57 193/253/57
f 140/231/15 197/254/15 198/255/15 139/232/15
f 200/256/8 201/257/8 202/258/8 199/259/8
f 204/260/58 200/256/58 199/259/58 203/261/58
f 206/262/59 207/263/59 208/264/59 205/265/59
f 197/254/31 202/258/31 201/257/31 198/255/31
f 193/253/60 206/262/60 205/265/60 194/250/60
f 207/263/61 143/95/61 144/94/61 208/264/61
f 195/251/15 141/230/15 142/233/15 196/252/15
f 146/96/62 204/260/62 203/261/62 145/93/62
f 148/177/63 161/176/63 136/266/63 133/267/63
f 161/137/64 154/136/64 190/268/64 136/269/64
f 165/161/65 168/160/65 198/270/65 201/271/65
f 149/98/66 157/97/66 132/272/66 138/273/66
f 168/69/52 175/68/52 139/214/52 198/274/52
f 153/128/67 162/127/67 135/275/67 189/276/67
f 183/183/68 164/182/68 206/277/68 193/278/68
f 169/26/69 152/25/69 188/279/69 145/205/69
f 163/82/70 184/81/70 194/280/70 205/281/70
f 158/114/71 150/113/71 137/282/71 131/283/71
f 178/31/72 165/30/72 201/284/72 200/285/72
f 151/78/73 170/77/73 144/286/73 187/287/73
f 179/125/74 171/124/74 143/288/74 207/289/74
f 159/73/75 172/72/75 146/212/75 191/290/75
f 170/77/76 180/76/76 208/291/76 144/286/76
f 156/100/77 158/99/77 131/292/77 129/293/77
f 166/167/78 177/166/78 199/294/78 202/295/78
f 171/124/79 160/123/79 192/296/79 143/288/79
s 1
f 49/297/80 50/298/80 51/299/80
f 50/298/81 49/297/81 52/300/81
f 49/297/82 53/301/82 52/300/82
f 53/301/83 49/297/83 51/299/83
f 54/302/84 55/303/84 56/304/84
f 55/303/85 54/302/85 57/305/85
f 54/302/86 58/306/86 57/305/86
f 58/306/87 54/302/87 56/304/87
f 59/307/88 60/308/88 61/309/88
f 60/308/89 59/307/89 62/310/89
f 59/307/90 63/311/90 62/310/90
f 63/311/91 59/307/91 61/309/91
f 64/312/92 65/313/92 66/314/92
f 65/313/93 64/312/93 67/315/93
f 64/312/94 68/316/94 67/315/94
f 68/316/95 64/312/95 66/314/95
f 69/317/96 70/318/96 71/319/96
f 70/318/97 69/317/97 72/320/97
f 69/317/98 73/321/98 72/320/98
f 73/321/99 69/317/99 71/319/99
f 74/322/84 75/323/84 76/324/84
f 75/323/85 74/322/85 77/325/85
f 74/322/86 78/326/86 77/325/86
f 78/326/87 74/322/87 76/324/87
f 79/327/88 80/328/88 81/329/88
f 80/328/89 79/327/89 82/330/89
f 79/327/90 83/331/90 82/330/90
f 83/331/91 79/327/91 81/329/91
f 84/332/92 85/333/92 86/334/92
f 85/333/93 84/332/93 87/335/93
f 84/332/94 88/336/94 87/335/94
f 88/336/95 84/332/95 86/334/95
f 89/337/100 90/338/100 91/339/100
f 90/338/101 89/337/101 92/340/101
f 89/337/102 93/341/102 92/340/102
f 93/341/103 89/337/103 91/339/103
f 94/342/80 95/343/80 96/344/80
f 95/343/81 94/342/81 97/345/81
f 94/342/82 98/346/82 97/345/82
f 98/346/83 94/342/83 96/344/83
f 99/347/88 100/348/88 101/349/88
f 100/348/89 99/347/89 102/350/89
f 99/347/90 103/351/90 102/350/90
f 103/351/91 99/347/91 101/349/91
f 104/352/92 105/353/92 106/354/92
f 105/353/93 104/352/93 107/355/93
f 104/352/94 108/356/94 107/355/94
f 108/356/95 104/352/95 106/354/95
f 109/357/96 110/358/96 111/359/96
f 110/358/97 109/357/97 112/360/97
f 109/357/98 113/361/98 112/360/98
f 113/361/99 109/357/99 111/359/99
f 114/362/100 115/363/100 116/364/100
f 115/363/101 114/362/101 117/365/101
f 114/362/102 118/366/102 117/365/102
f 118/366/103 114/362/103 116/364/103
f 119/367/88 120/368/88 121/369/88
f 120/368/89 119/367/89 122/370/89
f 119/367/90 123/371/90 122/370/90
f 123/371/91 119/367/91 121/369/91
f 124/372/92 125/373/92 126/374/92
f 125/373/93 124/372/93 127/375/93
f 124/372/94 128/376/94 127/375/94
f 128/376/95 124/372/95 126/374/95
