# Blender v2.91.2 OBJ File: 'curved slope update.blend'
# www.blender.org
mtllib OS_Small_CornerC.mtl
o Cube.106_Cube.235
v 1.000000 -0.001533 -0.534503
v 1.408797 0.167045 -0.476688
v 1.465308 0.035308 -0.479128
v 1.155116 -0.487428 -0.489470
v 1.440431 -0.429903 -0.491009
v 0.854925 0.401910 -0.494129
v -0.170818 -0.483987 -0.493113
v -0.483240 -0.436033 -0.483878
v 0.002106 0.000813 -0.538493
v -0.483104 0.436568 -0.483259
v -0.081872 0.465652 -0.503903
v 0.542564 0.525506 -0.471114
v 0.798920 0.417451 -0.018888
v 1.372946 0.170498 -0.078654
v -0.492254 -0.484424 -0.192236
v -0.466394 -0.469151 -0.466393
v -0.534504 -0.001533 -0.000000
v -0.504078 0.465675 -0.083792
v -0.462262 0.476340 -0.462486
v -0.470697 0.531745 0.504344
v -0.534504 -0.001533 1.000000
v -0.490316 -0.486575 1.141328
v -0.481860 -0.432393 1.459312
v -0.479126 0.035175 1.465315
v -0.477876 0.169375 1.407047
v -0.502516 0.362638 0.906514
v -0.462888 0.414987 0.876400
v 0.000000 -0.536506 -0.001378
v 1.001377 -0.536506 -0.000000
v 1.378700 -0.472935 -0.084005
v 1.456779 -0.449475 -0.468520
v 0.000000 -0.536506 1.001378
v -0.464623 -0.462566 1.443914
v 0.764398 -0.471281 0.959949
v -0.213164 -0.433185 1.449394
v 1.427759 -0.433525 -0.067615
v -0.010842 0.416399 0.782392
v -0.111094 0.525877 0.468176
v 0.388727 0.421014 0.536016
v 0.334432 0.525879 0.123903
v 0.189253 -0.435220 1.350456
v 0.322735 0.036834 1.297016
v -0.086096 0.038132 1.435727
v 0.793297 0.037897 0.995472
v 0.894995 -0.435725 0.894993
v 0.998296 0.038030 0.789497
v 0.199261 -0.470205 1.297785
v 0.564900 -0.432997 1.160918
v 1.182107 0.170497 0.428503
v 1.182066 -0.470202 0.445682
v 0.428502 0.170497 1.182107
v -0.080696 0.169349 1.373992
v 1.231606 -0.433525 0.454502
v 0.567928 0.039780 1.162568
v 1.244448 0.038133 0.439008
v 1.435726 0.038134 -0.086095
v 0.856046 0.171554 0.856041
vt 0.000000 0.000000
vt 0.323765 0.556086
vt 0.429608 0.757652
vt 0.000000 0.000000
vt 0.406812 0.703191
vt 0.504431 0.698282
vt 0.000000 0.000000
vt 0.042593 0.051161
vt -0.278462 -0.108692
vt 0.013739 0.036053
vt 0.000000 0.000000
vt 0.465992 0.716256
vt 0.000000 0.000000
vt 0.442889 0.632442
vt 0.276365 0.389485
vt 0.000000 0.000000
vt 0.379441 0.452917
vt 0.000000 0.000000
vt 0.215436 0.488801
vt 0.000000 0.000000
vt 1.858358 2.482972
vt 0.000000 0.000000
vt 0.000000 0.000000
vt 0.252108 0.103881
vt 0.406652 0.702950
vt 0.446112 0.765711
vt 0.327060 0.561776
vt 0.461568 0.792660
vt 0.000000 0.000000
vt 0.390774 0.182756
vt 0.542723 0.869571
vt 0.000000 0.000000
vt 0.000000 0.000000
vt 0.398355 0.163843
vt 0.000000 0.000000
vt 0.355801 0.730511
vt 0.400889 0.699414
vt 0.889206 0.338894
vt 0.110331 0.045250
vt 0.000000 0.000000
vt 0.400872 0.699427
vt 0.247255 0.767729
vt 0.485587 0.720897
vt 0.505902 0.698365
vt 0.477916 0.722795
vt 0.479661 0.720651
vt 0.526428 0.687284
vt 0.532544 0.689418
vt 0.610967 0.839660
vt 0.646230 0.890455
vt 0.689817 0.825960
vt 0.687896 0.882550
vt 0.646304 0.831467
vt 0.567250 0.669046
vt 0.578556 0.709984
vt 0.507224 0.738768
vt 0.692500 0.691814
vt 0.695550 0.642553
vt 0.692242 0.691852
vt 0.577058 0.669850
vt 0.683357 0.647582
vt 0.641282 0.648591
vt 0.608899 0.728062
vt 0.512752 0.760317
vt 0.286761 0.759811
vt 0.320207 0.748223
vt 0.599090 0.894880
vt 0.478877 0.725724
vt 0.608899 0.728062
vt 0.512425 0.760488
vt 0.240324 0.377010
vt 0.617237 0.654196
vt 0.623890 0.656482
vt 0.633481 0.698288
vt 0.604232 0.704492
vt 0.457716 0.772567
vt 0.507224 0.738768
vt 0.000000 0.000000
vt 0.357989 0.370212
vt 2.021413 2.701893
vt 0.000000 0.000000
vt 0.000000 0.000000
vt 0.214381 0.567904
vt 0.692829 0.716609
vn 0.1127 0.0667 -0.9914
vn 0.0124 -0.0883 -0.9960
vn 0.0862 0.1298 -0.9878
vn -0.0415 -0.0784 -0.9961
vn -0.1125 0.0007 -0.9937
vn -0.0559 0.0640 -0.9964
vn 0.0270 0.2486 -0.9682
vn 0.2922 0.9216 0.2555
vn 0.3975 0.9172 0.0278
vn -0.8616 -0.4958 -0.1089
vn -0.8982 -0.3213 -0.3001
vn -0.7597 -0.5805 -0.2930
vn -0.9966 -0.0703 -0.0425
vn -0.9944 0.0002 -0.1056
vn -0.9969 0.0548 -0.0563
vn -0.0440 0.7923 -0.6085
vn -0.0493 0.9971 -0.0576
vn -0.6426 0.7646 -0.0494
vn -0.9961 -0.0791 0.0400
vn -0.9918 0.0585 0.1134
vn -0.9897 0.1104 0.0913
vn -0.9686 0.2470 0.0272
vn -0.6724 0.6788 0.2952
vn -0.9971 0.0759 0.0047
vn -0.0689 -0.9948 -0.0750
vn -0.9960 -0.0890 0.0007
vn -0.0012 -0.9947 -0.1030
vn 0.1437 -0.9886 -0.0439
vn 0.0101 0.0887 -0.9960
vn 0.0030 -0.0928 -0.9957
vn -0.0768 -0.9934 0.0853
vn 0.0377 -0.9986 0.0377
vn -0.1032 -0.9947 -0.0008
vn -0.3376 -0.8044 0.4888
vn 0.1369 -0.4763 0.8685
vn -0.5347 -0.3510 0.7687
vn 0.8134 -0.4044 -0.4181
vn 0.8794 -0.4304 0.2038
vn 0.3363 -0.9393 0.0677
vn 0.1278 0.9317 0.3400
vn 0.0742 0.9817 0.1756
vn -0.2819 0.8999 0.3326
vn 0.2381 0.9338 0.2671
vn 0.1483 0.9830 0.1080
vn 0.3309 0.9350 0.1276
vn 0.2599 0.9649 0.0381
vn 0.3803 0.9247 0.0146
vn 0.2973 -0.4869 0.8213
vn 0.3833 0.2080 0.8999
vn 0.1909 0.2129 0.9583
vn 0.6281 0.2220 0.7458
vn 0.6540 -0.4530 0.6058
vn 0.7576 0.2102 0.6180
vn 0.0980 -0.9722 0.2127
vn 0.2962 -0.8814 0.3681
vn 0.4649 -0.4733 0.7482
vn 0.1167 0.0191 -0.9930
vn 0.9152 0.1810 -0.3600
vn 0.2916 -0.2409 -0.9257
vn 0.6229 0.7002 0.3488
vn 0.7983 0.5673 0.2023
vn 0.1381 -0.9863 0.0907
vn 0.1630 -0.9834 0.0802
vn 0.1814 -0.9808 0.0724
vn 0.1224 -0.9877 0.0973
vn -0.1028 -0.5048 -0.8571
vn -0.2883 -0.5876 -0.7561
vn 0.1638 0.9807 0.1065
vn 0.0924 -0.9831 0.1578
vn 0.0668 -0.9823 0.1748
vn 0.0579 -0.9818 0.1807
vn 0.0322 -0.9798 0.1975
vn -0.0398 0.9602 0.2766
vn -0.7106 0.6669 0.2242
vn 0.1365 -0.6960 -0.7050
vn -0.3676 0.1831 0.9118
vn -0.9930 0.0043 0.1178
vn 0.3472 0.6893 0.6359
vn 0.2293 0.7007 0.6756
vn 0.0572 0.6898 0.7217
vn 0.7877 -0.4489 0.4220
vn 0.2566 -0.9540 0.1550
vn 0.5414 0.2169 0.8123
vn 0.8648 0.2080 0.4569
vn 0.9585 0.2015 0.2018
vn 0.5109 0.6978 0.5021
vn -0.8366 -0.5359 0.1136
vn -0.5682 0.5948 -0.5687
vn -0.4292 0.7938 -0.4309
vn -0.0804 0.4942 -0.8656
vn -0.8647 0.4957 -0.0815
vn 0.9100 0.4083 0.0720
usemtl Material.003
s off
f 1/1/1 2/2/1 3/3/1
f 4/4/2 1/1/2 5/5/2
f 6/6/3 2/2/3 1/1/3
f 7/7/4 8/8/4 9/9/4
f 8/8/5 10/10/5 9/9/5
f 10/10/6 11/11/6 9/9/6
f 12/12/7 6/13/7 11/11/7
f 2/2/8 13/14/9 14/15/9
f 15/16/10 8/8/11 16/17/12
f 15/16/13 17/18/13 8/19/13
f 17/18/14 10/10/14 8/8/14
f 17/18/15 18/20/15 10/10/15
f 19/21/16 12/12/16 11/11/16
f 19/21/17 20/22/17 12/12/17
f 18/20/18 20/22/18 19/21/18
f 21/23/19 22/24/19 23/25/19
f 24/26/20 25/27/20 21/23/20
f 25/28/21 26/29/21 21/23/21
f 26/30/22 20/22/22 18/20/22
f 26/29/23 25/27/23 27/31/23
f 17/18/24 21/23/24 26/30/24 18/20/24
f 7/7/25 28/32/25 15/16/25 16/33/25
f 15/16/26 22/24/26 21/23/26 17/18/26
f 4/34/27 29/35/27 28/32/27 7/7/27
f 30/36/28 29/35/28 4/34/28 31/37/28
f 9/38/29 11/11/29 6/13/29 1/1/29
f 1/1/30 4/4/30 7/7/30 9/9/30
f 22/39/31 32/40/31 33/41/31
f 34/42/32 32/40/32 28/32/32 29/35/32
f 22/39/33 15/16/33 28/32/33 32/40/33
s 1
f 33/43/34 35/44/35 23/45/36
f 31/46/37 36/47/38 30/48/39
f 37/49/40 38/50/41 27/31/42
f 39/51/43 38/50/41 37/49/40
f 40/52/44 39/51/43 13/53/45
f 12/12/46 13/14/45 6/6/47
f 41/54/48 42/55/49 43/56/50
f 44/57/51 45/58/52 46/59/53
f 41/54/48 35/44/35 33/43/34 47/60/54
f 34/61/55 45/58/52 48/62/56
f 1/1/57 3/3/58 5/5/59
f 13/14/45 49/63/60 14/64/61
f 50/65/62 29/35/63 30/36/64
f 50/65/62 34/42/65 29/35/63
f 8/8/66 7/7/66 16/17/67
f 6/6/47 13/14/45 2/2/68
f 34/42/69 47/66/70 32/40/71
f 47/66/70 33/41/72 32/40/71
f 27/31/42 20/67/73 26/30/74
f 20/67/73 40/52/44 12/12/46
f 4/34/75 5/68/59 31/46/37
f 38/50/41 40/52/44 20/67/73
f 23/25/36 24/26/76 21/23/77
f 51/69/78 37/49/40 52/70/79
f 25/27/80 52/70/79 27/31/42
f 52/71/79 37/49/40 27/31/42
f 53/72/81 50/73/82 30/48/39 36/47/38
f 43/56/50 24/26/76 23/45/36 35/44/35
f 27/31/42 38/50/41 20/67/73
f 39/51/43 40/52/44 38/50/41
f 12/12/46 40/52/44 13/14/45
f 48/62/56 54/74/83 42/55/49 41/54/48
f 35/44/35 41/54/48 43/56/50
f 44/57/51 54/74/83 48/62/56 45/58/52
f 53/72/81 55/75/84 46/59/53 45/58/52
f 31/46/37 3/76/58 56/77/85 36/47/38
f 36/47/38 56/77/85 55/75/84 53/72/81
f 3/76/58 31/46/37 5/68/59
f 45/58/52 34/61/55 50/73/82 53/72/81
f 48/62/56 41/54/48 47/60/54 34/61/55
f 25/27/80 24/26/76 43/56/50 52/70/79
f 51/69/78 42/55/49 54/78/83
f 51/69/78 54/74/83 44/57/51 57/79/86
f 49/63/60 57/79/86 46/59/53 55/75/84
f 22/39/87 33/43/34 23/45/36
f 51/69/78 39/51/43 37/49/40
f 10/10/88 19/80/89 11/11/90
f 42/55/49 51/69/78 52/70/79 43/56/50
f 44/57/51 46/81/53 57/79/86
f 39/51/43 51/69/78 57/82/86
f 18/20/91 19/21/89 10/83/88
f 13/53/45 39/51/43 57/84/86 49/63/60
f 56/77/85 3/76/58 2/2/92 14/64/61
f 14/64/61 49/63/60 55/75/84 56/77/85
