# Blender v2.82 (sub 7) OBJ File: 'PlugLEDs.blend'
# www.blender.org
mtllib PlugLEDs.mtl
o TACPlugPlug_v2
v 4.975000 0.800000 3.800000
v 4.975000 -0.800000 3.800000
v 4.975000 0.800000 3.000000
v 4.975000 -0.800000 3.000000
v 4.975000 0.800000 2.900000
v 4.975000 -0.800000 2.900000
v 4.975000 0.800000 2.100000
v 4.975000 -0.800000 2.100000
v 4.975000 0.800000 2.000000
v 4.975000 -0.800000 2.000000
v 4.975000 0.800000 1.200000
v 4.975000 -0.800000 1.200000
v 4.825000 0.800000 1.200000
v 4.825000 -0.800000 1.200000
v 4.825000 -0.800000 2.000000
v 4.825000 -0.800000 2.100000
v 4.825000 -0.800000 2.900000
v 4.825000 0.800000 2.900000
v 4.825000 -0.800000 3.000000
v 4.825000 -0.800000 3.800000
v 4.825000 0.800000 3.800000
v 4.825000 0.800000 2.000000
v 4.825000 0.800000 2.100000
v 4.825000 0.800000 3.000000
v 0.800000 -4.975000 3.800000
v -0.800000 -4.975000 3.800000
v 0.800000 -4.975000 3.000000
v -0.800000 -4.975000 3.000000
v 0.800000 -4.975000 2.900000
v -0.800000 -4.975000 2.900000
v 0.800000 -4.975000 2.100000
v -0.800000 -4.975000 2.100000
v 0.800000 -4.975000 2.000000
v -0.800000 -4.975000 2.000000
v 0.800000 -4.975000 1.200000
v -0.800000 -4.975000 1.200000
v 0.800000 -4.825000 1.200000
v -0.800000 -4.825000 1.200000
v -0.800000 -4.825000 2.000000
v -0.800000 -4.825000 2.100000
v -0.800000 -4.825000 2.900000
v 0.800000 -4.825000 2.900000
v -0.800000 -4.825000 3.000000
v -0.800000 -4.825000 3.800000
v 0.800000 -4.825000 3.800000
v 0.800000 -4.825000 2.000000
v 0.800000 -4.825000 2.100000
v 0.800000 -4.825000 3.000000
v -4.975000 -0.800000 3.800000
v -4.975000 0.800000 3.800000
v -4.975000 -0.800000 3.000000
v -4.975000 0.800000 3.000000
v -4.975000 -0.800000 2.900000
v -4.975000 0.800000 2.900000
v -4.975000 -0.800000 2.100000
v -4.975000 0.800000 2.100000
v -4.975000 -0.800000 2.000000
v -4.975000 0.800000 2.000000
v -4.975000 -0.800000 1.200000
v -4.975000 0.800000 1.200000
v -4.825000 -0.800000 1.200000
v -4.825000 0.800000 1.200000
v -4.825000 0.800000 2.000000
v -4.825000 0.800000 2.100000
v -4.825000 0.800000 2.900000
v -4.825000 -0.800000 2.900000
v -4.825000 0.800000 3.000000
v -4.825000 0.800000 3.800000
v -4.825000 -0.800000 3.800000
v -4.825000 -0.800000 2.000000
v -4.825000 -0.800000 2.100000
v -4.825000 -0.800000 3.000000
v -0.800000 4.975000 3.800000
v 0.800000 4.975000 3.800000
v -0.800000 4.975000 3.000000
v 0.800000 4.975000 3.000000
v -0.800000 4.975000 2.900000
v 0.800000 4.975000 2.900000
v -0.800000 4.975000 2.100000
v 0.800000 4.975000 2.100000
v -0.800000 4.975000 2.000000
v 0.800000 4.975000 2.000000
v -0.800000 4.975000 1.200000
v 0.800000 4.975000 1.200000
v -0.800000 4.825000 1.200000
v 0.800000 4.825000 1.200000
v 0.800000 4.825000 2.000000
v 0.800000 4.825000 2.100000
v 0.800000 4.825000 2.900000
v -0.800000 4.825000 2.900000
v 0.800000 4.825000 3.000000
v 0.800000 4.825000 3.800000
v -0.800000 4.825000 3.800000
v -0.800000 4.825000 2.000000
v -0.800000 4.825000 2.100000
v -0.800000 4.825000 3.000000
vt 0.060557 0.064412
vt 0.060736 0.064412
vt 0.060557 0.064501
vt 0.060736 0.064501
vt 0.060557 0.188528
vt 0.060736 0.188528
vt 0.060557 0.188618
vt 0.060736 0.188618
vt 0.054356 0.312645
vt 0.054536 0.312645
vt 0.054356 0.312735
vt 0.054536 0.312735
vt 0.054267 0.312608
vt 0.054446 0.312608
vt 0.054267 0.312625
vt 0.054446 0.312625
vt 0.054446 0.312608
vt 0.054446 0.312625
vt 0.060557 0.188593
vt 0.060647 0.188593
vt 0.060557 0.188610
vt 0.060647 0.188610
vt 0.060467 0.188593
vt 0.060647 0.188593
vt 0.060467 0.188610
vt 0.060647 0.188610
vt 0.060557 0.064577
vt 0.060647 0.064577
vt 0.060557 0.064594
vt 0.060647 0.064594
vt 0.060467 0.064577
vt 0.060647 0.064577
vt 0.060467 0.064594
vt 0.060647 0.064594
vt 0.054267 0.312608
vt 0.054267 0.312625
vt 0.054446 0.312625
vt 0.054446 0.312608
vt 0.054446 0.312625
vt 0.060647 0.188610
vt 0.060467 0.188593
vt 0.060467 0.188610
vt 0.060647 0.064577
vt 0.060647 0.064594
vt 0.060467 0.064577
vt 0.060467 0.064594
vt 0.060557 0.064412
vt 0.060736 0.064412
vt 0.060557 0.064501
vt 0.060736 0.064501
vt 0.060557 0.188528
vt 0.060736 0.188528
vt 0.060557 0.188618
vt 0.060736 0.188618
vt 0.054356 0.312645
vt 0.054536 0.312645
vt 0.054356 0.312735
vt 0.054536 0.312735
vt 0.054267 0.312608
vt 0.054446 0.312608
vt 0.054267 0.312625
vt 0.054446 0.312625
vt 0.054446 0.312608
vt 0.054446 0.312625
vt 0.060557 0.188593
vt 0.060647 0.188593
vt 0.060557 0.188610
vt 0.060647 0.188610
vt 0.060467 0.188593
vt 0.060647 0.188593
vt 0.060467 0.188610
vt 0.060647 0.188610
vt 0.060557 0.064577
vt 0.060647 0.064577
vt 0.060557 0.064594
vt 0.060647 0.064594
vt 0.060467 0.064577
vt 0.060647 0.064577
vt 0.060467 0.064594
vt 0.060647 0.064594
vt 0.054267 0.312608
vt 0.054267 0.312625
vt 0.054446 0.312625
vt 0.054446 0.312608
vt 0.054446 0.312625
vt 0.060647 0.188610
vt 0.060467 0.188593
vt 0.060467 0.188610
vt 0.060647 0.064577
vt 0.060647 0.064594
vt 0.060467 0.064577
vt 0.060467 0.064594
vt 0.060557 0.064412
vt 0.060736 0.064412
vt 0.060557 0.064501
vt 0.060736 0.064501
vt 0.060557 0.188528
vt 0.060736 0.188528
vt 0.060557 0.188618
vt 0.060736 0.188618
vt 0.054356 0.312645
vt 0.054536 0.312645
vt 0.054356 0.312735
vt 0.054536 0.312735
vt 0.054267 0.312608
vt 0.054446 0.312608
vt 0.054267 0.312625
vt 0.054446 0.312625
vt 0.054446 0.312608
vt 0.054446 0.312625
vt 0.060557 0.188593
vt 0.060647 0.188593
vt 0.060557 0.188610
vt 0.060647 0.188610
vt 0.060467 0.188593
vt 0.060647 0.188593
vt 0.060467 0.188610
vt 0.060647 0.188610
vt 0.060557 0.064577
vt 0.060647 0.064577
vt 0.060557 0.064594
vt 0.060647 0.064594
vt 0.060467 0.064577
vt 0.060647 0.064577
vt 0.060467 0.064594
vt 0.060647 0.064594
vt 0.054267 0.312608
vt 0.054267 0.312625
vt 0.054446 0.312625
vt 0.054446 0.312608
vt 0.054446 0.312625
vt 0.060647 0.188610
vt 0.060467 0.188593
vt 0.060467 0.188610
vt 0.060647 0.064577
vt 0.060647 0.064594
vt 0.060467 0.064577
vt 0.060467 0.064594
vt 0.060557 0.064412
vt 0.060736 0.064412
vt 0.060557 0.064501
vt 0.060736 0.064501
vt 0.060557 0.188528
vt 0.060736 0.188528
vt 0.060557 0.188618
vt 0.060736 0.188618
vt 0.054356 0.312645
vt 0.054536 0.312645
vt 0.054356 0.312735
vt 0.054536 0.312735
vt 0.054267 0.312608
vt 0.054446 0.312608
vt 0.054267 0.312625
vt 0.054446 0.312625
vt 0.054446 0.312608
vt 0.054446 0.312625
vt 0.060557 0.188593
vt 0.060647 0.188593
vt 0.060557 0.188610
vt 0.060647 0.188610
vt 0.060467 0.188593
vt 0.060647 0.188593
vt 0.060467 0.188610
vt 0.060647 0.188610
vt 0.060557 0.064577
vt 0.060647 0.064577
vt 0.060557 0.064594
vt 0.060647 0.064594
vt 0.060467 0.064577
vt 0.060647 0.064577
vt 0.060467 0.064594
vt 0.060647 0.064594
vt 0.054267 0.312608
vt 0.054267 0.312625
vt 0.054446 0.312625
vt 0.054446 0.312608
vt 0.054446 0.312625
vt 0.060647 0.188610
vt 0.060467 0.188593
vt 0.060467 0.188610
vt 0.060647 0.064577
vt 0.060647 0.064594
vt 0.060467 0.064577
vt 0.060467 0.064594
vn 1.0000 0.0000 0.0000
vn 0.0000 0.0000 -1.0000
vn 0.0000 -1.0000 0.0000
vn 0.0000 0.0000 1.0000
vn 0.0000 1.0000 0.0000
vn -1.0000 0.0000 0.0000
usemtl Steel_-_Satin
s 1
f 1/1/1 2/2/1 3/3/1
f 3/3/1 2/2/1 4/4/1
f 5/5/1 6/6/1 7/7/1
f 7/7/1 6/6/1 8/8/1
f 9/9/1 10/10/1 11/11/1
f 11/11/1 10/10/1 12/12/1
f 11/13/2 12/14/2 13/15/2
f 13/15/2 12/14/2 14/16/2
f 12/14/3 10/17/3 14/16/3
f 14/16/3 10/17/3 15/18/3
f 8/19/3 6/20/3 16/21/3
f 16/21/3 6/20/3 17/22/3
f 6/23/4 5/24/4 17/25/4
f 17/25/4 5/24/4 18/26/4
f 4/27/3 2/28/3 19/29/3
f 19/29/3 2/28/3 20/30/3
f 2/31/4 1/32/4 20/33/4
f 20/33/4 1/32/4 21/34/4
f 10/35/4 9/9/4 15/36/4
f 15/36/4 9/9/4 22/37/4
f 9/9/5 11/38/5 22/37/5
f 22/37/5 11/38/5 13/39/5
f 5/24/5 7/7/5 18/26/5
f 18/26/5 7/7/5 23/40/5
f 7/41/2 8/19/2 23/42/2
f 23/42/2 8/19/2 16/21/2
f 1/32/5 3/43/5 21/34/5
f 21/34/5 3/43/5 24/44/5
f 3/45/2 4/27/2 24/46/2
f 24/46/2 4/27/2 19/29/2
f 25/47/3 26/48/3 27/49/3
f 27/49/3 26/48/3 28/50/3
f 29/51/3 30/52/3 31/53/3
f 31/53/3 30/52/3 32/54/3
f 33/55/3 34/56/3 35/57/3
f 35/57/3 34/56/3 36/58/3
f 35/59/2 36/60/2 37/61/2
f 37/61/2 36/60/2 38/62/2
f 36/60/6 34/63/6 38/62/6
f 38/62/6 34/63/6 39/64/6
f 32/65/6 30/66/6 40/67/6
f 40/67/6 30/66/6 41/68/6
f 30/69/4 29/70/4 41/71/4
f 41/71/4 29/70/4 42/72/4
f 28/73/6 26/74/6 43/75/6
f 43/75/6 26/74/6 44/76/6
f 26/77/4 25/78/4 44/79/4
f 44/79/4 25/78/4 45/80/4
f 34/81/4 33/55/4 39/82/4
f 39/82/4 33/55/4 46/83/4
f 33/55/1 35/84/1 46/83/1
f 46/83/1 35/84/1 37/85/1
f 29/70/1 31/53/1 42/72/1
f 42/72/1 31/53/1 47/86/1
f 31/87/2 32/65/2 47/88/2
f 47/88/2 32/65/2 40/67/2
f 25/78/1 27/89/1 45/80/1
f 45/80/1 27/89/1 48/90/1
f 27/91/2 28/73/2 48/92/2
f 48/92/2 28/73/2 43/75/2
f 49/93/6 50/94/6 51/95/6
f 51/95/6 50/94/6 52/96/6
f 53/97/6 54/98/6 55/99/6
f 55/99/6 54/98/6 56/100/6
f 57/101/6 58/102/6 59/103/6
f 59/103/6 58/102/6 60/104/6
f 59/105/2 60/106/2 61/107/2
f 61/107/2 60/106/2 62/108/2
f 60/106/5 58/109/5 62/108/5
f 62/108/5 58/109/5 63/110/5
f 56/111/5 54/112/5 64/113/5
f 64/113/5 54/112/5 65/114/5
f 54/115/4 53/116/4 65/117/4
f 65/117/4 53/116/4 66/118/4
f 52/119/5 50/120/5 67/121/5
f 67/121/5 50/120/5 68/122/5
f 50/123/4 49/124/4 68/125/4
f 68/125/4 49/124/4 69/126/4
f 58/127/4 57/101/4 63/128/4
f 63/128/4 57/101/4 70/129/4
f 57/101/3 59/130/3 70/129/3
f 70/129/3 59/130/3 61/131/3
f 53/116/3 55/99/3 66/118/3
f 66/118/3 55/99/3 71/132/3
f 55/133/2 56/111/2 71/134/2
f 71/134/2 56/111/2 64/113/2
f 49/124/3 51/135/3 69/126/3
f 69/126/3 51/135/3 72/136/3
f 51/137/2 52/119/2 72/138/2
f 72/138/2 52/119/2 67/121/2
f 73/139/5 74/140/5 75/141/5
f 75/141/5 74/140/5 76/142/5
f 77/143/5 78/144/5 79/145/5
f 79/145/5 78/144/5 80/146/5
f 81/147/5 82/148/5 83/149/5
f 83/149/5 82/148/5 84/150/5
f 83/151/2 84/152/2 85/153/2
f 85/153/2 84/152/2 86/154/2
f 84/152/1 82/155/1 86/154/1
f 86/154/1 82/155/1 87/156/1
f 80/157/1 78/158/1 88/159/1
f 88/159/1 78/158/1 89/160/1
f 78/161/4 77/162/4 89/163/4
f 89/163/4 77/162/4 90/164/4
f 76/165/1 74/166/1 91/167/1
f 91/167/1 74/166/1 92/168/1
f 74/169/4 73/170/4 92/171/4
f 92/171/4 73/170/4 93/172/4
f 82/173/4 81/147/4 87/174/4
f 87/174/4 81/147/4 94/175/4
f 81/147/6 83/176/6 94/175/6
f 94/175/6 83/176/6 85/177/6
f 77/162/6 79/145/6 90/164/6
f 90/164/6 79/145/6 95/178/6
f 79/179/2 80/157/2 95/180/2
f 95/180/2 80/157/2 88/159/2
f 73/170/6 75/181/6 93/172/6
f 93/172/6 75/181/6 96/182/6
f 75/183/2 76/165/2 96/184/2
f 96/184/2 76/165/2 91/167/2
