# Blender v2.90.0 OBJ File: 'GT_Poly_Track.blend'
# www.blender.org
v -0.493301 3.475000 7.359008
v -0.493301 3.417004 7.459459
v -0.475000 2.213627 7.165773
v -0.493301 3.264886 7.475000
v 0.450000 3.443321 7.484813
v 0.450000 3.500000 7.386642
v -0.450000 2.674923 7.416779
v 0.450000 2.674923 7.416779
v 0.450000 2.200915 7.175261
v -0.493301 1.550000 -0.474977
v -0.493301 3.472191 -0.462166
v 0.450000 1.550000 -0.499977
v 2.234431 3.012214 6.676453
v 2.234430 3.229322 -0.270163
v 2.234431 3.027193 -0.276382
v 0.450058 1.111495 0.445654
v -0.499941 1.149920 0.492332
v -0.450000 1.102664 6.114599
v -0.500000 1.198133 6.152854
v 0.450000 1.144110 6.197073
v 0.475000 1.109949 6.105533
v 2.168130 3.263682 6.783097
v 2.168131 3.004510 6.758767
vt 0.125201 0.821405
vt 0.000000 0.000000
vt 0.124580 0.821077
vt 0.245948 0.831575
vt 0.000000 0.000000
vt 0.000000 0.000000
vt 0.228281 0.819903
vt 0.722179 0.868982
vt 0.000000 0.000000
vt 0.124580 0.821077
vt 0.000000 0.000000
vt 0.243015 0.826187
vt 0.646099 0.972975
vt 0.108893 0.832355
vt 0.103267 0.849669
vt 0.105231 0.853226
vt 0.230663 0.839681
vt 0.245900 0.831656
vt 0.245900 0.839681
vt 0.644740 0.868772
vt 0.246323 0.851600
vt 0.000000 0.000000
vt 0.246323 0.724581
vt 0.644740 0.876427
vt 0.123249 0.821844
vt 0.238281 0.852803
vt 0.230663 0.725837
vt 0.288478 0.667159
vt 0.245900 0.709904
vt 0.246323 0.726143
vt 0.245900 0.725837
vt 0.248441 0.830731
vt 0.230240 0.848937
vt 0.230663 0.831656
vt 0.000000 0.000000
vt 0.000000 0.000000
vt 0.000000 0.000000
vt 0.246029 0.821654
vt 0.000000 0.000000
vt 0.104249 0.852963
vt 0.230663 0.709904
vt 0.000000 0.000000
vt 0.644740 0.781367
vt 0.000000 0.000000
vt 0.245900 0.704663
vt 0.230663 0.839844
vt 0.000000 0.000000
vt 0.245900 0.851730
vt 0.230663 0.848577
vt 0.246000 0.724365
vt 0.532155 0.875722
vt 0.533877 0.868981
vt 0.722277 0.876039
vt 0.230663 0.704663
vt 0.245900 0.706325
vt 0.230663 0.706325
vt 0.000000 0.000000
vt 0.644740 0.868739
vt 0.230663 0.851730
vt 0.533425 0.869055
vt 0.722854 0.869388
vn -0.8852 -0.4652 0.0040
vn -0.0561 -0.9225 -0.3819
vn 0.7315 -0.6819 -0.0015
vn -0.0111 -0.9071 -0.4207
vn 0.7346 -0.6784 -0.0034
vn 0.6265 -0.7071 -0.3279
vn -0.9978 -0.0270 0.0609
vn -0.9999 -0.0156 0.0018
vn -1.0000 -0.0044 0.0008
vn -0.0053 -0.2880 0.9576
vn 0.2088 -0.5683 0.7959
vn 0.1947 -0.2754 0.9414
vn 0.5155 -0.4591 0.7235
vn 0.1834 -0.0766 0.9800
vn 0.6008 -0.6812 0.4183
vn 0.3396 -0.7068 0.6205
vn 0.3689 -0.0869 0.9254
vn -1.0000 -0.0002 0.0058
vn -1.0000 0.0022 -0.0017
vn -1.0000 0.0020 -0.0020
vn -0.0319 -0.9995 -0.0066
vn 0.0369 -0.9993 0.0043
vn -0.0408 -0.9991 -0.0080
vn 0.0455 -0.9989 0.0057
vn -0.8026 -0.5964 0.0034
vn -1.0000 0.0000 -0.0068
vn -0.9568 -0.0973 0.2741
vn 0.0750 0.9968 -0.0288
vn 0.0890 0.9960 -0.0040
vn 0.0866 0.9962 -0.0032
vn -0.0271 -0.5899 0.8070
vn -1.0000 0.0000 0.0000
vn 0.6001 -0.6810 0.4196
vn -0.0710 -0.5889 0.8051
vn 0.2827 0.8307 0.4796
vn 0.1343 0.8582 0.4955
vn 0.1087 0.8609 0.4970
vn 0.0301 0.0344 -0.9990
vn -0.0265 0.0067 -0.9996
vn 0.0452 0.0406 -0.9982
vn -0.0119 -0.0056 0.9999
vn -0.0653 -0.4004 0.9140
vn 0.9677 0.2518 0.0079
vn 0.9687 0.2482 0.0078
vn 1.0000 0.0059 0.0002
vn -0.0376 0.8654 0.4997
vn 0.0649 0.9957 -0.0654
vn -0.0127 0.9182 -0.3958
vn 0.0729 0.0307 -0.9969
vn 0.0745 0.0407 -0.9964
vn -0.0296 0.1016 0.9944
vn 0.7801 -0.0585 0.6229
vn 1.0000 0.0000 0.0000
s off
f 19/1/1 17/2/1 18/3/1
f 16/4/2 17/2/2 10/5/2
f 13/6/3 16/7/3 15/8/3
f 16/4/4 10/5/4 12/9/4
f 13/6/5 21/10/5 16/7/5
f 16/11/6 12/12/6 15/13/6
s 1
f 3/14/7 4/15/8 1/16/9
f 7/17/10 9/18/11 8/19/12
f 23/20/13 5/21/14 8/19/12
f 21/10/15 23/22/13 20/23/16
f 23/20/13 22/24/17 5/21/14
f 19/25/18 11/26/19 17/2/20
f 16/11/21 18/27/22 17/2/23
f 16/11/21 20/28/24 18/27/22
f 23/22/13 8/19/12 9/29/11
f 16/7/25 21/30/25 20/31/25
f 11/26/19 10/32/26 17/2/20
f 4/33/8 3/34/7 7/17/27
f 23/22/13 9/29/11 20/35/16
f 22/36/28 14/37/29 11/38/30
f 7/17/10 3/39/31 9/18/11
f 4/15/8 2/40/32 1/16/9
f 21/10/15 13/6/33 23/22/13
f 20/35/16 3/41/31 19/42/34
f 1/16/9 11/26/19 19/25/18
f 22/43/35 6/44/36 5/45/37
f 12/9/38 10/46/39 11/47/40
f 5/48/14 4/49/41 8/19/12
f 18/27/42 20/50/16 19/42/34
f 19/25/18 3/14/7 1/16/9
f 22/51/43 13/52/44 14/53/45
f 2/54/46 6/55/36 1/56/46
f 11/38/30 1/57/47 22/36/28
f 1/57/47 6/55/48 22/36/28
f 20/35/16 9/29/11 3/41/31
f 11/47/40 14/37/49 15/58/50
f 15/58/50 12/9/38 11/47/40
f 2/59/51 4/49/41 5/48/14
f 4/49/41 7/17/10 8/19/12
f 23/60/52 13/52/52 22/51/52
f 13/52/44 15/61/53 14/53/45
f 2/54/46 5/45/37 6/55/36
