# Blender v2.82 (sub 7) OBJ File: ''
# www.blender.org
mtllib HS Inset Slope.mtl
o HS_Inset_Slope_Cube_HS_One_Block.005
v 0.500000 -0.500000 -0.276001
v 0.500000 -0.389572 -0.496856
v 0.500000 0.386807 -0.496856
v 0.500000 0.500000 -0.384990
v 0.500000 0.500000 -0.384940
v 0.500000 -0.444042 1.503144
v 0.500000 -0.468683 1.503144
v 0.500000 -0.500000 1.440509
v -0.500000 -0.500000 -0.277745
v -0.390445 -0.500000 -0.496856
v 0.389572 -0.500000 -0.496856
v -0.500000 -0.500000 1.440509
v -0.500000 -0.390444 -0.496856
v -0.500000 0.387371 -0.496856
v -0.387371 0.500000 -0.496856
v 0.386807 0.500000 -0.496856
v 0.434108 0.453407 -0.291755
v -0.434108 0.453407 -0.291755
v -0.434108 0.453374 -0.291771
v 0.434108 0.453374 -0.291771
v -0.500000 -0.468683 1.503144
v -0.500000 -0.444042 1.503144
v -0.500000 0.500000 -0.384940
v -0.500000 0.500000 -0.384990
v 0.434108 -0.397449 1.409959
v -0.434108 -0.397449 1.409959
v 0.434108 -0.397482 1.409942
v -0.434108 -0.397482 1.409942
v 0.414617 0.419352 -0.274328
v 0.414617 -0.403941 1.372258
v -0.414617 0.419352 -0.274328
v -0.414617 -0.403941 1.372258
v -0.132020 -0.500000 0.153220
v -0.132020 -0.500000 -0.110826
v 0.000002 -0.600000 0.021198
v 0.132025 -0.500000 0.153220
v 0.000002 -0.600000 0.021198
v 0.132025 -0.500000 -0.110825
v 0.000002 -0.600000 0.021198
v -0.132020 -0.500000 -0.110826
v 0.132025 -0.500000 -0.110825
v 0.132025 -0.500000 0.153220
v -0.132020 -0.500000 0.153220
v 0.000002 -0.600000 0.021198
v -0.132020 -0.132023 -0.493059
v -0.132020 0.132023 -0.493059
v 0.000002 0.000000 -0.593061
v 0.132027 -0.132023 -0.493060
v 0.000002 0.000000 -0.593061
v 0.132027 0.132023 -0.493060
v 0.000002 0.000000 -0.593061
v -0.132020 0.132023 -0.493059
v 0.132027 0.132023 -0.493060
v 0.132027 -0.132023 -0.493060
v -0.132020 -0.132023 -0.493059
v 0.000002 0.000000 -0.593061
v -0.132020 -0.500000 1.107945
v -0.132020 -0.500000 0.843900
v 0.000002 -0.600000 0.975923
v 0.132025 -0.500000 1.107945
v 0.000002 -0.600000 0.975923
v 0.132025 -0.500000 0.843901
v 0.000002 -0.600000 0.975923
v -0.132020 -0.500000 0.843900
v 0.132025 -0.500000 0.843901
v 0.132025 -0.500000 1.107945
v -0.132020 -0.500000 1.107945
v 0.000002 -0.600000 0.975923
vt 0.375000 0.527607
vt 0.402607 0.500000
vt 0.596702 0.500000
vt 0.625000 0.513983
vt 0.625000 0.513990
vt 0.388990 0.750000
vt 0.382829 0.750000
vt 0.375000 0.742171
vt 0.125000 0.527389
vt 0.152389 0.500000
vt 0.347393 0.500000
vt 0.125000 0.742171
vt 0.145571 0.664938
vt 0.172960 0.637549
vt 0.367414 0.637549
vt 0.395571 0.665707
vt 0.395571 0.859251
vt 0.367273 0.887549
vt 0.173178 0.887549
vt 0.145571 0.859942
vt 0.641473 0.525638
vt 0.858527 0.525638
vt 0.858527 0.525638
vt 0.641473 0.525638
vt 0.109498 0.732869
vt 0.359498 0.732869
vt 0.359498 0.740699
vt 0.109498 0.740699
vt 0.292918 0.700394
vt 0.299078 0.700394
vt 0.299078 0.950394
vt 0.292918 0.950394
vt 0.227313 0.750617
vt 0.227313 0.723228
vt 0.254702 0.723228
vt 0.318896 0.704626
vt 0.291289 0.704626
vt 0.291289 0.677019
vt 0.204478 0.525595
vt 0.212308 0.517766
vt 0.218468 0.517766
vt 0.454478 0.753776
vt 0.454478 0.753782
vt 0.426321 0.767766
vt 0.231867 0.767766
vt 0.204478 0.740377
vt 0.277756 0.629822
vt 0.277756 0.658120
vt 0.249458 0.658120
vt 0.208162 0.698425
vt 0.236319 0.698425
vt 0.236319 0.712408
vt 0.138238 0.659702
vt 0.166537 0.645718
vt 0.360081 0.645718
vt 0.388238 0.659702
vt 0.388238 0.659708
vt 0.138238 0.659708
vt 0.263225 0.662055
vt 0.263225 0.874769
vt 0.246752 0.886417
vt 0.246752 0.650407
vt 0.350063 0.776770
vt 0.133009 0.776770
vt 0.116536 0.765121
vt 0.366536 0.765121
vt 0.362464 0.871669
vt 0.362464 0.658955
vt 0.378937 0.647306
vt 0.378937 0.883317
vt 0.126808 0.775557
vt 0.343862 0.775557
vt 0.360335 0.787205
vt 0.110335 0.787205
vt 0.858527 0.738352
vt 0.641473 0.738352
vt 0.641473 0.738352
vt 0.858527 0.738352
vt 0.637915 0.805906
vt 0.637915 0.823929
vt 0.637502 0.823637
vt 0.637502 0.806198
vt 0.511257 0.804673
vt 0.728310 0.804673
vt 0.723438 0.808118
vt 0.516129 0.808118
vt 0.614035 0.809257
vt 0.614035 0.789575
vt 0.614486 0.789894
vt 0.614486 0.808938
vt 0.746913 0.803460
vt 0.529859 0.803460
vt 0.534732 0.800015
vt 0.742040 0.800015
vt 0.595918 0.763475
vt 0.687055 0.763475
vt 0.687055 0.853959
vt 0.595918 0.853959
vt 0.061421 0.061665
vt 0.061421 0.001052
vt 0.031116 0.031363
vt 0.000811 0.061665
vt 0.031116 0.031363
vt 0.000811 0.001052
vt 0.031116 0.031363
vt 0.061421 0.001052
vt 0.000811 0.001052
vt 0.000811 0.061665
vt 0.061421 0.061665
vt 0.031116 0.031363
vt 0.061458 0.000888
vt 0.000848 0.000888
vt 0.031152 0.031198
vt 0.061458 0.061501
vt 0.031152 0.031198
vt 0.000848 0.061501
vt 0.031152 0.031198
vt 0.000848 0.000888
vt 0.000848 0.061501
vt 0.061458 0.061501
vt 0.061458 0.000888
vt 0.031152 0.031198
vt 0.061421 0.061665
vt 0.061421 0.001052
vt 0.031116 0.031363
vt 0.000811 0.061665
vt 0.031116 0.031363
vt 0.000811 0.001052
vt 0.031116 0.031363
vt 0.061421 0.001052
vt 0.000811 0.001052
vt 0.000811 0.061665
vt 0.061421 0.061665
vt 0.031116 0.031363
vn 1.0000 0.0000 0.0000
vn 0.0000 -1.0000 -0.0000
vn -0.0000 0.0000 -1.0000
vn 0.0000 -0.4468 0.8946
vn 0.0000 -0.8944 0.4472
vn 0.0000 0.0000 1.0000
vn -0.6667 -0.6667 -0.3333
vn 0.6667 -0.6667 -0.3333
vn -1.0000 -0.0000 0.0000
vn 0.5751 0.5751 -0.5819
vn -0.5760 0.5760 -0.5800
vn 0.0000 1.0000 0.0000
vn -0.0000 0.8944 0.4472
vn -0.0000 0.4481 -0.8940
vn -1.0000 0.0001 0.0000
vn 1.0000 0.0001 -0.0000
vn -0.7577 0.5837 0.2919
vn 0.0000 0.4562 0.8899
vn 0.7577 0.5837 0.2919
vn 0.0000 0.9856 -0.1689
vn -0.6038 -0.7971 0.0000
vn 0.6038 -0.7971 0.0000
vn 0.0000 -0.7971 -0.6038
vn 0.0000 -0.7971 0.6038
vn -0.6038 0.0000 -0.7971
vn 0.6038 0.0000 -0.7971
vn -0.0000 0.6038 -0.7971
vn -0.0000 -0.6038 -0.7971
usemtl Material.001
s off
f 1/1/1 2/2/1 3/3/1 4/4/1 5/5/1 6/6/1 7/7/1 8/8/1
f 9/9/2 10/10/2 11/11/2 1/1/2 8/8/2 12/12/2
f 10/13/3 13/14/3 14/15/3 15/16/3 16/17/3 3/18/3 2/19/3 11/20/3
f 17/21/4 18/22/4 19/23/4 20/24/4
f 12/25/5 8/26/5 7/27/5 21/28/5
f 7/29/6 6/30/6 22/31/6 21/32/6
f 9/33/7 13/34/7 10/35/7
f 2/36/8 1/37/8 11/38/8
f 12/39/9 21/40/9 22/41/9 23/42/9 24/43/9 14/44/9 13/45/9 9/46/9
f 16/47/10 4/48/10 3/49/10
f 15/50/11 14/51/11 24/52/11
f 4/53/12 16/54/12 15/55/12 24/56/12 23/57/12 5/58/12
f 17/59/13 25/60/13 6/61/13 5/62/13
f 18/63/13 17/64/13 5/65/13 23/66/13
f 26/67/13 18/68/13 23/69/13 22/70/13
f 25/71/13 26/72/13 22/73/13 6/74/13
f 26/75/14 25/76/14 27/77/14 28/78/14
f 25/76/15 17/21/15 20/24/15 27/77/15
f 18/22/16 26/75/16 28/78/16 19/23/16
f 27/79/17 20/80/17 29/81/17 30/82/17
f 20/83/18 19/84/18 31/85/18 29/86/18
f 19/87/19 28/88/19 32/89/19 31/90/19
f 28/91/20 27/92/20 30/93/20 32/94/20
f 29/95/13 31/96/13 32/97/13 30/98/13
s 1
f 33/99/21 34/100/21 35/101/21
f 36/102/22 37/103/22 38/104/22
f 39/105/23 40/106/23 41/107/23
f 42/108/24 43/109/24 44/110/24
f 45/111/25 46/112/25 47/113/25
f 48/114/26 49/115/26 50/116/26
f 51/117/27 52/118/27 53/119/27
f 54/120/28 55/121/28 56/122/28
f 57/123/21 58/124/21 59/125/21
f 60/126/22 61/127/22 62/128/22
f 63/129/23 64/130/23 65/131/23
f 66/132/24 67/133/24 68/134/24
