# Blender v2.82 (sub 7) OBJ File: 'TACFiveBlockRemaster.blend'
# www.blender.org
mtllib TACFiveBlockRemaster.mtl
o Solid1.013
v 0.700000 -0.175000 0.800000
v 0.700000 -0.300000 0.675000
v 0.700000 0.300000 0.675000
v 0.700000 0.300000 -0.075000
v 0.700000 0.175000 0.800000
v 0.700000 -0.300000 -0.075000
v 1.475000 0.475000 1.000000
v 1.475000 -0.475000 1.000000
v -1.475000 0.500000 0.975000
v -1.475000 0.500000 -0.975000
v 1.475000 0.500000 -0.975000
v 1.475000 0.500000 0.975000
v -1.475000 0.475000 1.000000
v -1.475000 -0.475000 1.000000
v -0.700000 0.300000 0.675000
v -0.700000 0.300000 -0.075000
v -0.700000 -0.300000 0.675000
v -0.700000 -0.300000 -0.075000
v -0.700000 -0.175000 0.800000
v -0.700000 0.175000 0.800000
v -1.475000 -0.500000 0.975000
v -1.475000 -0.500000 -0.975000
v 1.475000 -0.500000 -0.975000
v 1.475000 -0.500000 0.975000
v -1.500000 -0.475000 -0.975000
v -1.500000 -0.475000 0.975000
v -1.500000 0.475000 -0.975000
v -1.500000 0.475000 0.975000
v -0.575000 -0.300000 -0.075000
v -0.575000 -0.300000 -0.200000
v 0.575000 -0.300000 -0.200000
v 0.575000 -0.300000 -0.075000
v 0.575000 -0.300000 0.675000
v -0.575000 -0.300000 0.675000
v -0.575000 0.300000 0.675000
v -0.575000 0.175000 0.800000
v -0.575000 -0.175000 0.800000
v 1.475000 -0.475000 -1.000000
v -1.475000 -0.475000 -1.000000
v 1.475000 0.475000 -1.000000
v -1.475000 0.475000 -1.000000
v 1.500000 0.475000 -0.975000
v 1.500000 0.475000 0.975000
v 1.500000 -0.475000 -0.975000
v 1.500000 -0.475000 0.975000
v 0.500000 0.225000 0.000000
v 0.500000 -0.225000 -0.000000
v 0.500000 0.225000 0.643934
v 0.500000 0.143934 0.725000
v 0.500000 -0.143934 0.725000
v 0.500000 -0.225000 0.643934
v 0.575000 0.175000 0.800000
v 0.575000 0.300000 0.675000
v 0.575000 -0.175000 0.800000
v -0.500000 0.225000 0.643934
v -0.500000 0.143934 0.725000
v -0.500000 0.225000 0.000000
v -0.500000 -0.143934 0.725000
v -0.500000 -0.225000 0.643934
v -0.500000 -0.225000 -0.000000
v -0.575000 0.300000 -0.075000
v 0.575000 0.300000 -0.075000
v -0.575000 0.300000 -0.200000
v 0.575000 0.300000 -0.200000
v -0.800000 0.225000 0.925000
v -0.800000 0.425000 0.725000
v -0.800000 0.425000 0.925000
v -0.800000 -0.425000 0.725000
v -0.800000 -0.225000 0.925000
v -0.800000 -0.425000 0.925000
v 0.800000 0.425000 0.725000
v 0.800000 0.225000 0.925000
v 0.800000 0.425000 0.925000
v 0.800000 -0.225000 0.925000
v 0.800000 -0.425000 0.725000
v 0.800000 -0.425000 0.925000
v 0.700000 0.491161 0.983839
v 0.712487 0.499597 0.975403
v 0.700000 0.483839 0.991161
v 0.712500 0.475000 1.000000
v 0.712500 0.500000 -0.080178
v 0.700000 0.487500 -0.075000
v 0.700000 -0.487500 -0.075000
v 0.712500 -0.500000 -0.080178
v 0.700000 -0.491161 0.983839
v 0.712500 -0.500000 0.975000
v 0.700000 -0.483839 0.991161
v 0.712487 -0.475403 0.999597
v -0.700000 0.491161 0.983839
v -0.712500 0.500000 0.975000
v -0.700000 0.487500 -0.075000
v -0.712500 0.500000 -0.082870
v -0.575000 0.487500 -0.200000
v -0.586003 0.500000 -0.209475
v 0.575000 0.487500 -0.200000
v 0.583087 0.500000 -0.209591
v -0.712500 0.475000 1.000000
v -0.700000 0.483839 0.991161
v -0.700000 -0.483839 0.991161
v -0.712500 -0.475000 1.000000
v -0.712500 -0.500000 0.975000
v -0.700000 -0.491161 0.983839
v -0.712500 -0.500000 -0.082870
v -0.700000 -0.487500 -0.075000
v -0.586003 -0.500000 -0.209475
v -0.575000 -0.487500 -0.200000
v 0.583087 -0.500000 -0.209591
v 0.575000 -0.487500 -0.200000
v 0.700000 0.437500 0.937500
v 0.712500 0.425000 0.925000
v 0.712500 0.225000 0.925000
v 0.700000 0.194822 0.937500
v 0.712500 -0.225000 0.925000
v 0.700000 -0.194822 0.937500
v 0.700000 0.437500 0.694822
v 0.712500 0.425000 0.725000
v 0.700000 -0.437500 0.694822
v 0.712500 -0.425000 0.725000
v 0.700000 -0.437500 0.937500
v 0.712500 -0.425000 0.925000
v -0.700000 0.437500 0.937500
v -0.712500 0.425000 0.925000
v -0.712500 0.425000 0.725000
v -0.700000 0.437500 0.694822
v -0.700000 0.194822 0.937500
v -0.712500 0.225000 0.925000
v -0.712500 -0.225000 0.925000
v -0.700000 -0.194822 0.937500
v -0.700000 -0.437500 0.937500
v -0.712500 -0.425000 0.925000
v -0.700000 -0.437500 0.694822
v -0.712500 -0.425000 0.725000
vt 0.629612 0.560592
vt 0.629612 0.560592
vt 0.629612 0.560592
vt 0.629812 0.560600
vt 0.629812 0.560791
vt 0.629812 0.560592
vt 0.629703 0.560592
vt 0.629612 0.560592
vt 0.629513 0.560791
vt 0.630112 0.560892
vt 0.629811 0.560695
vt 0.630112 0.560695
vt 0.629812 0.560792
vt 0.629612 0.560892
vt 0.629810 0.560694
vt 0.629712 0.560592
vt 0.629712 0.560992
vt 0.629812 0.560904
vt 0.629812 0.560992
vt 0.629812 0.560904
vt 0.629812 0.560904
vt 0.629812 0.560992
vt 0.629529 0.560592
vt 0.629595 0.560592
vt 0.629712 0.560904
vt 0.629712 0.560992
vt 0.629915 0.560694
vt 0.630112 0.560892
vt 0.629812 0.560694
vt 0.629812 0.560579
vt 0.629812 0.560579
vt 0.629812 0.560492
vt 0.630215 0.560592
vt 0.630412 0.560592
vt 0.630215 0.560592
vt 0.630612 0.560392
vt 0.630415 0.560687
vt 0.630415 0.560392
vt 0.629812 0.560992
vt 0.629812 0.560904
vt 0.629812 0.560992
vt 0.630612 0.560692
vt 0.629529 0.560592
vt 0.629595 0.560592
vt 0.629595 0.560592
vt 0.629612 0.560192
vt 0.629810 0.560390
vt 0.629810 0.560390
vt 0.629779 0.560592
vt 0.629713 0.560592
vt 0.629626 0.560592
vt 0.630012 0.560492
vt 0.629712 0.560586
vt 0.629712 0.560492
vt 0.629812 0.560492
vt 0.629812 0.560492
vt 0.629812 0.560586
vt 0.629812 0.560586
vt 0.629812 0.560492
vt 0.629812 0.560492
vt 0.629812 0.560398
vt 0.629612 0.560592
vt 0.629809 0.560592
vt 0.629612 0.560592
vt 0.629809 0.560592
vt 0.629812 0.560579
vt 0.629812 0.560492
vt 0.629513 0.560791
vt 0.629612 0.560592
vt 0.630112 0.560192
vt 0.629612 0.560792
vt 0.629812 0.560592
vt 0.629812 0.560592
vt 0.629812 0.560686
vt 0.630009 0.560692
vt 0.629812 0.560692
vt 0.630009 0.560397
vt 0.629812 0.560579
vt 0.629812 0.560579
vt 0.629812 0.560492
vt 0.629812 0.560592
vt 0.629812 0.560592
vt 0.629812 0.560592
vt 0.629812 0.560791
vt 0.629812 0.560592
vt 0.629612 0.560389
vt 0.629612 0.560192
vt 0.629814 0.560389
vt 0.629812 0.560792
vt 0.630112 0.560192
vt 0.629712 0.560592
vt 0.629612 0.560592
vt 0.629812 0.560492
vt 0.629712 0.560579
vt 0.629712 0.560492
vt 0.629812 0.560492
vt 0.629712 0.560579
vt 0.629712 0.560492
vt 0.629915 0.560390
vt 0.629812 0.560498
vt 0.629812 0.560592
vt 0.629812 0.560498
vt 0.629712 0.560498
vt 0.630012 0.560498
vt 0.629712 0.560592
vt 0.630012 0.560592
vt 0.629612 0.560892
vt 0.629612 0.560695
vt 0.629812 0.560398
vt 0.629812 0.560392
vt 0.630312 0.560392
vt 0.629812 0.560692
vt 0.630312 0.560692
vt 0.427500 0.613900
vt 0.427500 0.614100
vt 0.427400 0.614100
vt 0.427400 0.614100
vt 0.427100 0.614100
vt 0.427100 0.614100
vt 0.427100 0.614100
vt 0.427100 0.613900
vt 0.427100 0.613900
vt 0.427400 0.613900
vt 0.427300 0.613800
vt 0.427300 0.613800
vt 0.427300 0.613700
vt 0.427300 0.613700
vt 0.427400 0.613800
vt 0.427500 0.613800
vt 0.427400 0.613900
vt 0.427500 0.613900
vt 0.427500 0.613800
vt 0.427500 0.613800
vt 0.427500 0.613700
vt 0.427500 0.613700
vt 0.629812 0.560392
vt 0.630612 0.560392
vt 0.629812 0.560692
vt 0.630612 0.560692
vt 0.630312 0.560692
vt 0.629812 0.560692
vt 0.630312 0.560392
vt 0.629812 0.560392
vt 0.427400 0.614000
vt 0.427300 0.614000
vt 0.427400 0.613900
vt 0.427400 0.613800
vt 0.427300 0.613800
vt 0.427300 0.613900
vt 0.427600 0.613700
vt 0.427700 0.613700
vt 0.427600 0.613800
vt 0.427700 0.613800
vt 0.629812 0.560592
vt 0.427100 0.613900
vt 0.427100 0.613900
vt 0.427100 0.613800
vt 0.427100 0.613800
vt 0.427800 0.613700
vt 0.427900 0.613700
vt 0.427800 0.613800
vt 0.427900 0.613800
vt 0.629612 0.560792
vt 0.629812 0.560992
vt 0.427300 0.613900
vt 0.427300 0.613800
vt 0.427300 0.614000
vt 0.427400 0.613800
vt 0.427400 0.613900
vt 0.427400 0.614000
vt 0.427600 0.613800
vt 0.427300 0.613800
vt 0.427600 0.613700
vt 0.427300 0.613700
vt 0.427500 0.613900
vt 0.427500 0.613800
vt 0.427600 0.613800
vt 0.427500 0.613800
vt 0.427500 0.613800
vt 0.427500 0.613700
vt 0.427800 0.613800
vt 0.427600 0.613800
vt 0.427700 0.613800
vt 0.427500 0.613800
vt 0.427500 0.613800
vt 0.427200 0.613800
vt 0.427500 0.613800
vt 0.427600 0.613800
vt 0.427600 0.613800
vt 0.427700 0.613800
vt 0.427800 0.613800
vt 0.427200 0.613800
vt 0.427200 0.613800
vt 0.427400 0.613800
vt 0.427400 0.613800
vt 0.427700 0.613800
vt 0.427400 0.613800
vt 0.427700 0.613800
vt 0.427400 0.613800
vt 0.427500 0.613800
vt 0.427500 0.613800
vt 0.427500 0.613700
vt 0.427500 0.613800
vt 0.427400 0.613800
vt 0.427200 0.613800
vt 0.427400 0.613800
vt 0.427200 0.613800
vt 0.427500 0.613700
vt 0.427500 0.613600
vt 0.427500 0.613600
vt 0.427400 0.613700
vt 0.427400 0.613700
vt 0.427400 0.613700
vt 0.427400 0.613700
vt 0.629812 0.560686
vt 0.630012 0.560586
vt 0.427500 0.613900
vt 0.427500 0.614100
vt 0.427400 0.614100
vt 0.427400 0.614100
vt 0.427100 0.614100
vt 0.427100 0.614100
vt 0.427100 0.614100
vt 0.427100 0.613900
vt 0.427100 0.613900
vt 0.427400 0.613900
vt 0.659500 0.006500
vt 0.659600 0.006600
vt 0.659500 0.006600
vt 0.659600 0.006500
vt 0.659500 0.006600
vt 0.659500 0.006500
vt 0.629812 0.560579
vt 0.629812 0.560492
vt 0.659500 0.006600
vt 0.659600 0.006500
vt 0.659600 0.006600
vt 0.659600 0.006600
vt 0.659500 0.006500
vt 0.659600 0.006500
vt 0.629812 0.560904
vt 0.629812 0.560992
vt 0.629612 0.560592
vt 0.629779 0.560592
vt 0.629812 0.560904
vt 0.629812 0.560592
vt 0.629812 0.560592
vt 0.629712 0.560904
vt 0.630412 0.560592
vt 0.629612 0.560592
vt 0.630412 0.560592
vt 0.629612 0.560592
vt 0.630212 0.560592
vt 0.629712 0.560592
vt 0.630212 0.560592
vt 0.629712 0.560592
vt 0.629812 0.560692
vt 0.629812 0.560392
vt 0.629812 0.560592
vt 0.629812 0.560592
vt 0.629812 0.560592
vt 0.630212 0.560592
vt 0.629712 0.560592
vt 0.630212 0.560592
vt 0.629712 0.560592
vt 0.629812 0.560692
vt 0.629812 0.560392
vt 0.629812 0.560592
vt 0.629812 0.560592
vt 0.629812 0.560592
vt 0.629812 0.560692
vt 0.629812 0.560392
vt 0.629812 0.560592
vt 0.629812 0.560592
vt 0.629812 0.560592
vt 0.629712 0.560592
vt 0.630212 0.560592
vt 0.629712 0.560592
vt 0.630212 0.560592
vt 0.629612 0.560592
vt 0.630412 0.560592
vt 0.629612 0.560592
vt 0.630412 0.560592
vt 0.629812 0.560492
vt 0.629812 0.560592
vt 0.629812 0.560592
vt 0.630112 0.560389
vt 0.629812 0.560392
vt 0.629812 0.560392
vt 0.629812 0.560692
vt 0.629812 0.560592
vt 0.629812 0.560592
vt 0.629812 0.560592
vt 0.629712 0.560592
vt 0.630212 0.560592
vt 0.629712 0.560592
vt 0.630212 0.560592
vt 0.629812 0.560492
vt 0.629812 0.560592
vt 0.629812 0.560592
vt 0.629809 0.560592
vt 0.629612 0.560592
vt 0.629809 0.560592
vt 0.629812 0.560492
vt 0.629812 0.560592
vt 0.629812 0.560592
vt 0.629812 0.560492
vt 0.629812 0.560592
vt 0.629812 0.560592
vt 0.630215 0.560592
vt 0.630412 0.560592
vt 0.630215 0.560592
vt 0.630212 0.560592
vt 0.630212 0.560592
vt 0.630412 0.560592
vt 0.630412 0.560592
vt 0.629612 0.560592
vt 0.629612 0.560592
vt 0.629812 0.560592
vt 0.629812 0.560592
vt 0.630212 0.560592
vt 0.630212 0.560592
vn -1.0000 0.0000 0.0000
vn -0.0003 1.0000 0.0002
vn -0.0001 1.0000 0.0001
vn -0.0005 1.0000 0.0004
vn -0.0000 1.0000 0.0000
vn 0.0000 0.7071 0.7071
vn 0.0000 -0.7071 0.7071
vn -0.0000 -1.0000 -0.0000
vn -0.0003 -0.0002 1.0000
vn -0.0002 -0.0002 1.0000
vn -0.0005 -0.0004 1.0000
vn 0.0000 -0.0000 1.0000
vn 1.0000 0.0000 0.0000
vn -0.7071 0.0000 0.7071
vn 0.0000 0.0000 -1.0000
vn 0.7071 0.0000 0.7071
vn 0.7071 0.5000 0.5000
vn 0.7071 0.7071 0.0000
vn 0.7071 -0.5000 0.5000
vn 0.7071 -0.7071 -0.0000
vn -0.7071 0.7071 0.0000
vn -0.7071 0.5000 0.5000
vn -0.7071 -0.7071 -0.0000
vn -0.7071 -0.5000 0.5000
vn 0.0000 0.7071 -0.7071
vn 0.7071 0.0000 -0.7071
vn 0.5774 0.5774 -0.5774
vn -0.7071 0.0000 -0.7071
vn -0.5774 0.5774 -0.5774
vn 0.5774 0.5773 0.5774
vn 0.0000 -0.7071 -0.7071
vn 0.5774 -0.5773 -0.5774
vn -0.5774 0.5773 0.5774
vn -0.5774 -0.5773 -0.5774
vn 0.5774 -0.5774 0.5774
vn -0.5774 -0.5774 0.5774
vn -0.7061 0.7081 -0.0024
vn -0.5621 0.8270 0.0003
vn -0.5597 0.8287 0.0003
vn -0.7063 -0.7079 -0.0024
vn -0.5795 -0.8149 -0.0000
vn -0.7076 -0.7066 -0.0024
vn -0.5773 -0.0003 0.8166
vn -0.5599 -0.0000 0.8285
vn -0.5775 -0.0003 0.8164
vn 0.5795 0.8149 -0.0000
vn 0.7064 0.7078 -0.0024
vn 0.5773 0.8165 0.0000
vn 0.4635 0.7554 0.4632
vn 0.4622 0.7568 0.4622
vn 0.4636 0.7553 0.4632
vn 0.0001 0.6041 0.7969
vn 0.0000 0.6087 0.7934
vn -0.5000 0.7071 0.5000
vn 0.5774 -0.0000 0.8165
vn 0.5773 -0.0000 0.8165
vn 0.7064 -0.7078 -0.0024
vn 0.5795 -0.8149 -0.0000
vn 0.5774 -0.8165 -0.0000
vn 0.4622 -0.7568 0.4621
vn 0.4635 -0.7554 0.4632
vn 0.4636 -0.7553 0.4632
vn 0.0000 -0.6087 0.7934
vn 0.0001 -0.6041 0.7969
vn -0.5000 -0.7071 0.5000
vn -0.7076 0.7066 -0.0024
vn -0.5774 -0.8165 -0.0000
vn -0.5598 -0.0000 0.8286
vn 0.7079 0.7063 -0.0024
vn 0.4621 0.7570 0.4621
vn 0.7079 -0.7063 -0.0024
vn 0.4621 -0.7570 0.4621
usemtl 191,191,191.013
s 1
f 114/1/1 1/2/1 2/3/1
f 115/4/1 82/5/1 3/6/1
f 115/4/1 3/6/1 112/7/1
f 2/3/1 117/8/1 114/1/1
f 2/3/1 83/9/1 117/8/1
f 12/10/2 81/11/3 78/12/4
f 3/6/1 82/5/1 4/13/1
f 11/14/5 96/15/5 81/11/3
f 112/7/1 3/6/1 5/16/1
f 112/7/1 5/16/1 1/2/1
f 71/17/6 111/18/6 72/19/6
f 118/20/5 120/21/5 75/22/5
f 85/23/1 119/24/1 117/8/1
f 113/25/7 118/20/7 74/26/7
f 107/27/8 23/28/8 84/29/8
f 123/30/8 122/31/8 66/32/8
f 86/33/7 24/34/7 88/35/7
f 8/36/9 80/37/10 88/38/11
f 73/39/8 116/40/8 71/41/8
f 7/42/12 80/37/10 8/36/9
f 89/43/13 121/44/13 124/45/13
f 10/46/5 92/47/5 94/48/5
f 99/49/13 128/50/13 125/51/13
f 64/52/12 93/53/12 63/54/12
f 64/55/14 4/56/14 95/57/14
f 95/57/14 4/56/14 82/58/14
f 6/59/14 31/60/14 83/61/14
f 98/62/13 121/44/13 89/43/13
f 100/63/7 14/64/7 101/65/7
f 122/31/15 126/66/15 67/67/15
f 91/68/13 124/45/13 15/69/13
f 9/70/5 92/47/5 10/46/5
f 91/68/13 15/69/13 16/71/13
f 16/72/16 63/73/16 91/74/16
f 97/75/12 13/76/12 100/77/12
f 130/78/5 132/79/5 70/80/5
f 129/81/13 102/82/13 131/83/13
f 131/83/13 104/84/13 17/85/13
f 101/86/8 21/87/8 103/88/8
f 17/85/13 104/84/13 18/89/13
f 103/88/8 21/87/8 22/90/8
f 128/50/13 17/85/13 19/91/13
f 128/50/13 19/91/13 20/92/13
f 68/93/7 127/94/7 69/95/7
f 125/51/13 20/92/13 15/69/13
f 67/67/15 126/66/15 65/96/15
f 65/96/6 123/97/6 66/98/6
f 103/88/8 22/90/8 105/99/8
f 106/100/16 18/101/16 104/102/16
f 106/103/12 108/104/12 30/105/12
f 30/105/12 108/104/12 31/106/12
f 84/29/8 23/28/8 24/107/8
f 84/29/8 24/107/8 86/108/8
f 83/61/14 31/60/14 108/109/14
f 25/110/1 26/111/1 27/112/1
f 27/112/1 26/111/1 28/113/1
f 17/114/8 18/115/8 29/116/8
f 29/116/8 18/115/8 30/117/8
f 29/116/8 30/117/8 31/118/8
f 29/116/8 31/118/8 32/119/8
f 32/119/8 31/118/8 6/120/8
f 32/119/8 6/120/8 33/121/8
f 33/121/8 6/120/8 2/122/8
f 29/116/8 34/123/8 17/114/8
f 35/124/6 15/125/6 36/126/6
f 36/126/6 15/125/6 20/127/6
f 36/128/12 20/129/12 37/130/12
f 37/130/12 20/129/12 19/131/12
f 37/132/7 19/133/7 34/134/7
f 34/134/7 19/133/7 17/135/7
f 38/136/15 39/137/15 40/138/15
f 40/138/15 39/137/15 41/139/15
f 42/140/13 43/141/13 44/142/13
f 44/142/13 43/141/13 45/143/13
f 46/144/1 47/145/1 48/146/1
f 48/146/1 47/145/1 49/147/1
f 49/147/1 47/145/1 50/148/1
f 50/148/1 47/145/1 51/149/1
f 52/150/6 5/151/6 53/152/6
f 53/152/6 5/151/6 3/153/6
f 30/154/16 18/101/16 106/100/16
f 107/27/8 22/90/8 23/28/8
f 105/99/8 22/90/8 107/27/8
f 54/155/12 1/156/12 52/157/12
f 52/157/12 1/156/12 5/158/12
f 33/159/7 2/160/7 54/161/7
f 54/161/7 2/160/7 1/162/7
f 6/163/1 83/9/1 2/3/1
f 75/22/5 120/21/5 76/164/5
f 55/165/13 56/166/13 57/167/13
f 57/167/13 56/166/13 58/168/13
f 57/167/13 58/168/13 59/169/13
f 59/169/13 60/170/13 57/167/13
f 46/171/12 57/172/12 47/173/12
f 47/173/12 57/172/12 60/174/12
f 35/175/17 36/176/17 55/177/17
f 55/177/17 36/176/17 56/178/17
f 58/179/16 56/178/16 37/180/16
f 37/180/16 56/178/16 36/176/16
f 61/181/18 35/182/18 57/183/18
f 57/183/18 35/182/18 55/177/18
f 59/184/19 58/179/19 34/134/19
f 34/134/19 58/179/19 37/132/19
f 62/185/6 61/186/6 46/187/6
f 46/187/6 61/186/6 57/172/6
f 59/188/20 34/189/20 60/190/20
f 60/190/20 34/189/20 29/191/20
f 62/192/21 46/193/21 53/194/21
f 53/194/21 46/193/21 48/195/21
f 47/196/7 60/197/7 32/198/7
f 32/198/7 60/197/7 29/199/7
f 52/200/22 53/201/22 49/202/22
f 49/202/22 53/201/22 48/203/22
f 51/204/23 47/205/23 33/206/23
f 33/206/23 47/205/23 32/207/23
f 52/208/14 49/202/14 54/209/14
f 54/209/14 49/202/14 50/210/14
f 54/211/24 50/212/24 33/213/24
f 33/213/24 50/212/24 51/214/24
f 91/74/16 63/73/16 93/215/16
f 10/46/5 94/48/5 96/15/5
f 128/50/13 20/92/13 125/51/13
f 11/14/5 81/11/3 12/10/2
f 10/46/5 96/15/5 11/14/5
f 95/216/12 93/53/12 64/52/12
f 3/217/5 4/218/5 62/219/5
f 62/219/5 4/218/5 64/220/5
f 62/219/5 64/220/5 63/221/5
f 62/219/5 63/221/5 61/222/5
f 61/222/5 63/221/5 16/223/5
f 61/222/5 16/223/5 35/224/5
f 35/224/5 16/223/5 15/225/5
f 62/219/5 53/226/5 3/217/5
f 65/227/13 66/228/13 67/229/13
f 68/230/13 69/231/13 70/232/13
f 66/32/8 122/31/8 67/67/8
f 127/233/15 130/78/15 69/234/15
f 69/234/15 130/78/15 70/80/15
f 131/83/13 102/82/13 104/84/13
f 121/44/13 98/62/13 125/51/13
f 125/51/13 15/69/13 124/45/13
f 131/83/13 17/85/13 128/50/13
f 71/235/1 72/236/1 73/237/1
f 74/238/1 75/239/1 76/240/1
f 74/26/7 118/20/7 75/22/7
f 76/164/15 113/241/15 74/242/15
f 114/1/1 87/243/1 79/244/1
f 99/49/13 129/81/13 128/50/13
f 132/79/7 127/94/7 68/93/7
f 119/24/1 87/243/1 114/1/1
f 83/9/1 85/23/1 117/8/1
f 72/19/15 110/245/15 73/39/15
f 109/246/1 77/247/1 115/4/1
f 111/18/15 110/245/15 72/19/15
f 115/4/1 77/247/1 82/5/1
f 89/43/13 124/45/13 91/68/13
f 126/66/6 123/97/6 65/96/6
f 79/244/1 112/7/1 114/1/1
f 116/248/6 111/18/6 71/17/6
f 10/249/25 11/250/25 41/251/25
f 41/251/25 11/250/25 40/252/25
f 11/253/18 12/254/18 42/255/18
f 42/255/18 12/254/18 43/256/18
f 40/138/26 42/257/26 38/136/26
f 38/136/26 42/257/26 44/258/26
f 11/259/27 42/260/27 40/261/27
f 9/262/21 10/263/21 28/264/21
f 28/264/21 10/263/21 27/265/21
f 27/112/28 41/266/28 25/110/28
f 25/110/28 41/266/28 39/267/28
f 10/268/29 41/269/29 27/270/29
f 114/1/1 112/7/1 1/2/1
f 110/245/8 116/40/8 73/39/8
f 43/141/16 7/271/16 45/143/16
f 45/143/16 7/271/16 8/272/16
f 12/273/30 7/274/30 43/275/30
f 24/276/20 23/277/20 45/278/20
f 45/278/20 23/277/20 44/279/20
f 23/280/31 22/281/31 38/282/31
f 38/282/31 22/281/31 39/283/31
f 23/284/32 38/285/32 44/286/32
f 90/287/5 92/47/5 9/70/5
f 26/288/14 14/289/14 28/290/14
f 28/290/14 14/289/14 13/76/14
f 9/291/33 28/292/33 13/293/33
f 22/294/23 21/295/23 25/296/23
f 25/296/23 21/295/23 26/297/23
f 22/298/34 25/299/34 39/300/34
f 120/21/15 113/241/15 76/164/15
f 90/301/6 9/302/6 97/303/6
f 24/304/35 45/305/35 8/306/35
f 125/51/13 98/62/13 99/49/13
f 70/80/5 132/79/5 68/93/5
f 21/307/36 14/308/36 26/309/36
f 81/11/37 77/247/38 78/12/39
f 84/29/40 85/23/41 83/9/42
f 79/244/43 88/38/44 80/37/45
f 89/43/46 92/47/47 90/287/48
f 91/74/49 94/48/50 92/47/51
f 93/53/52 96/15/53 94/48/52
f 96/15/54 82/58/54 81/11/54
f 97/75/55 99/49/56 98/62/55
f 103/88/57 102/82/58 101/86/59
f 105/99/60 104/102/61 103/88/62
f 107/27/63 106/103/64 105/99/64
f 83/61/65 107/27/65 84/29/65
f 80/310/6 7/311/6 78/312/6
f 111/18/28 109/246/28 110/245/28
f 109/246/23 116/40/23 110/245/23
f 116/248/22 112/7/22 111/18/22
f 117/8/24 113/25/24 114/1/24
f 119/24/21 118/20/21 117/8/21
f 113/241/28 119/24/28 114/1/28
f 123/30/20 121/44/20 122/31/20
f 121/44/26 126/66/26 122/31/26
f 129/81/26 127/233/26 128/50/26
f 129/81/18 132/79/18 130/78/18
f 132/79/19 128/50/19 127/94/19
f 123/97/17 125/51/17 124/45/17
f 79/244/1 109/246/1 112/7/1
f 77/247/1 109/246/1 79/244/1
f 87/313/7 85/314/7 88/35/7
f 85/314/7 86/33/7 88/35/7
f 88/35/7 24/34/7 8/315/7
f 78/312/6 7/311/6 12/316/6
f 102/82/7 99/49/7 101/65/7
f 99/49/7 100/63/7 101/65/7
f 97/303/6 9/302/6 13/317/6
f 101/65/7 14/64/7 21/318/7
f 102/82/13 129/81/13 99/49/13
f 87/243/1 119/24/1 85/23/1
f 100/77/12 13/76/12 14/289/12
f 98/319/6 89/320/6 97/303/6
f 89/320/6 90/301/6 97/303/6
f 81/11/37 82/5/66 77/247/38
f 84/29/40 86/108/67 85/23/41
f 79/244/43 87/243/68 88/38/44
f 89/43/46 91/68/69 92/47/47
f 91/74/49 93/215/70 94/48/50
f 93/53/52 95/216/53 96/15/53
f 96/15/54 95/57/54 82/58/54
f 97/75/55 100/77/56 99/49/56
f 103/88/57 104/84/71 102/82/58
f 105/99/60 106/100/72 104/102/61
f 107/27/63 108/104/63 106/103/64
f 83/61/65 108/109/65 107/27/65
f 77/321/6 79/322/6 78/312/6
f 79/322/6 80/310/6 78/312/6
f 111/18/28 112/7/28 109/246/28
f 109/246/23 115/4/23 116/40/23
f 116/248/22 115/4/22 112/7/22
f 117/8/24 118/20/24 113/25/24
f 119/24/21 120/21/21 118/20/21
f 113/241/28 120/21/28 119/24/28
f 123/30/20 124/45/20 121/44/20
f 121/44/26 125/51/26 126/66/26
f 129/81/26 130/78/26 127/233/26
f 129/81/18 131/83/18 132/79/18
f 132/79/19 131/83/19 128/50/19
f 123/97/17 126/66/17 125/51/17
