# Blender v2.82 (sub 7) OBJ File: 'BF Neon Tube Lights.blend'
# www.blender.org
mtllib BF Neon Tube Light End.mtl
o BF_Neon_Tube_Light_Endpiece_Cylinder.009
v -0.300000 -0.500983 -0.225000
v 0.500000 -0.500982 -0.225000
v -0.300000 -0.500983 0.225000
v 0.500000 -0.500982 0.225000
v -0.300000 -0.464903 0.220558
v 0.500000 -0.464903 0.220558
v -0.300000 -0.431154 0.207761
v 0.500000 -0.431154 0.207761
v -0.300000 -0.400051 0.186980
v 0.500000 -0.400051 0.186980
v -0.300000 -0.372789 0.159013
v 0.500000 -0.372789 0.159013
v -0.300000 -0.353706 0.129947
v 0.500000 -0.353706 0.129947
v -0.300000 -0.353706 -0.129948
v 0.500000 -0.353706 -0.129948
v -0.300000 -0.372789 -0.159014
v 0.500000 -0.372789 -0.159014
v -0.300000 -0.400051 -0.186980
v 0.500000 -0.400051 -0.186980
v -0.300000 -0.431154 -0.207761
v 0.500000 -0.431154 -0.207761
v -0.300000 -0.464903 -0.220558
v 0.500000 -0.464903 -0.220558
v -0.150000 -0.480096 -0.247550
v 0.450000 -0.480096 -0.247550
v 0.450000 -0.480096 0.247550
v -0.150000 -0.480096 0.247550
v -0.150000 -0.460982 0.245196
v 0.450000 -0.460982 0.245196
v -0.150000 -0.423463 0.230970
v 0.450000 -0.423463 0.230970
v -0.150000 -0.388886 0.207867
v 0.450000 -0.388886 0.207867
v -0.150000 -0.358579 0.176777
v 0.450000 -0.358579 0.176777
v -0.200000 -0.333706 -0.138893
v 0.500000 -0.333706 -0.138893
v -0.150000 -0.358579 -0.176777
v 0.450000 -0.358579 -0.176777
v -0.150000 -0.388886 -0.207868
v 0.450000 -0.388886 -0.207868
v -0.150000 -0.423464 -0.230970
v 0.450000 -0.423464 -0.230970
v -0.150000 -0.460982 -0.245196
v 0.450000 -0.460982 -0.245196
v 0.487500 -0.500982 0.225000
v 0.487500 -0.500982 -0.225000
v 0.487500 -0.464903 0.220558
v 0.487500 -0.431154 0.207761
v 0.487500 -0.400051 0.186980
v 0.487500 -0.372789 0.159013
v 0.487500 -0.353706 0.129947
v 0.487500 -0.353706 -0.129948
v 0.487500 -0.372789 -0.159014
v 0.487500 -0.400051 -0.186980
v 0.487500 -0.431154 -0.207761
v 0.487500 -0.464903 -0.220558
v -0.200000 -0.333706 -0.000000
v 0.470000 -0.333706 -0.000000
v 0.500000 -0.353706 -0.000000
v 0.487500 -0.353706 -0.000000
v -0.200000 -0.500000 -0.250000
v 0.500000 -0.500000 -0.250000
v 0.500000 -0.500000 0.250000
v -0.200000 -0.500000 0.250000
v -0.200000 -0.460982 0.245196
v 0.500000 -0.460982 0.245196
v -0.200000 -0.423463 0.230970
v 0.500000 -0.423463 0.230970
v -0.200000 -0.388886 0.207867
v 0.500000 -0.388886 0.207867
v -0.200000 -0.358579 0.176777
v 0.500000 -0.358579 0.176777
v -0.200000 -0.333706 0.138892
v 0.500000 -0.333706 0.138892
v -0.200000 -0.358579 -0.176777
v 0.500000 -0.358579 -0.176777
v -0.200000 -0.388886 -0.207868
v 0.500000 -0.388886 -0.207868
v -0.200000 -0.423464 -0.230970
v 0.500000 -0.423464 -0.230970
v -0.200000 -0.460982 -0.245196
v 0.500000 -0.460982 -0.245196
v 0.500000 -0.333706 -0.000000
v -0.150000 -0.333706 -0.000000
v 0.470000 -0.343706 -0.000000
v -0.150000 -0.343706 -0.000000
v -0.100000 -0.333706 0.138892
v -0.150000 -0.333706 0.113892
v -0.199975 -0.333706 0.138892
v -0.150000 -0.346394 0.158218
v 0.470000 -0.333706 0.113892
v 0.420000 -0.333706 0.138892
v 0.460004 -0.346138 0.157828
v 0.499975 -0.333706 0.138892
v -0.150000 -0.333706 -0.113893
v -0.100000 -0.333706 -0.138893
v -0.150000 -0.346394 -0.158218
v -0.199975 -0.333706 -0.138893
v 0.420000 -0.333706 -0.138893
v 0.470000 -0.333706 -0.113893
v 0.499975 -0.333706 -0.138893
v 0.460004 -0.346138 -0.157828
v 0.420000 -0.343706 0.138892
v 0.470000 -0.343706 0.113892
v -0.150000 -0.343706 0.113892
v -0.100000 -0.343706 0.138892
v 0.470000 -0.343706 -0.113893
v 0.420000 -0.343706 -0.138893
v -0.100000 -0.343706 -0.138893
v -0.150000 -0.343706 -0.113893
vt 0.669792 0.801822
vt 0.669792 0.801822
vt 0.669792 0.801822
vt 0.669792 0.801822
vt 0.669792 0.801822
vt 0.669792 0.801822
vt 0.669792 0.801822
vt 0.669792 0.801822
vt 0.669792 0.801822
vt 0.669792 0.801822
vt 0.669792 0.801822
vt 0.669792 0.801822
vt 0.293722 0.673201
vt 0.293722 0.835573
vt 0.287922 0.835573
vt 0.287922 0.673201
vt 0.276082 0.835573
vt 0.276082 0.673201
vt 0.264242 0.835573
vt 0.264242 0.673201
vt 0.252403 0.835573
vt 0.252403 0.673201
vt 0.240563 0.659677
vt 0.234170 0.673201
vt 0.205044 0.673201
vt 0.205044 0.659670
vt 0.240563 0.659670
vt 0.169525 0.659677
vt 0.163486 0.673201
vt 0.157686 0.673201
vt 0.157686 0.659670
vt 0.169525 0.659670
vt 0.157686 0.835573
vt 0.145846 0.835573
vt 0.145846 0.673201
vt 0.134007 0.835573
vt 0.134007 0.673201
vt 0.122167 0.835573
vt 0.122167 0.673201
vt 0.116367 0.835573
vt 0.116367 0.673201
vt 0.271038 0.849104
vt 0.281620 0.849104
vt 0.281620 0.849104
vt 0.271038 0.849104
vt 0.698389 0.833448
vt 0.699861 0.833448
vt 0.701418 0.833448
vt 0.699441 0.833448
vt 0.290435 0.849104
vt 0.287922 0.849104
vt 0.299761 0.849104
vt 0.696623 0.833448
vt 0.697465 0.833448
vt 0.276082 0.849104
vt 0.694808 0.833448
vt 0.695488 0.833448
vt 0.260167 0.849104
vt 0.264242 0.849104
vt 0.692974 0.833448
vt 0.693511 0.833448
vt 0.249182 0.849104
vt 0.252403 0.849104
vt 0.691387 0.833448
vt 0.691535 0.833448
vt 0.239675 0.849104
vt 0.240563 0.849104
vt 0.679823 0.833448
vt 0.685605 0.833448
vt 0.679675 0.833448
vt 0.678236 0.833448
vt 0.677699 0.833448
vt 0.170413 0.849104
vt 0.160906 0.849104
vt 0.157686 0.849104
vt 0.169525 0.849104
vt 0.676403 0.833448
vt 0.675722 0.833448
vt 0.149922 0.849104
vt 0.145846 0.849104
vt 0.674587 0.833448
vt 0.673745 0.833448
vt 0.139050 0.849104
vt 0.134007 0.849104
vt 0.672821 0.833448
vt 0.671769 0.833448
vt 0.128469 0.849104
vt 0.122167 0.849104
vt 0.671349 0.833448
vt 0.669792 0.833448
vt 0.119654 0.849104
vt 0.110327 0.849104
vt 0.943554 0.945217
vt 0.952368 0.945217
vt 0.781588 0.945216
vt 0.790402 0.945217
vt 0.800984 0.945217
vt 0.811856 0.945216
vt 0.822840 0.945217
vt 0.832347 0.945217
vt 0.866978 0.945217
vt 0.901609 0.945216
vt 0.911116 0.945217
vt 0.922100 0.945217
vt 0.932972 0.945217
vt 0.139050 0.849104
vt 0.128469 0.849104
vt 0.260167 0.849104
vt 0.170413 0.849104
vt 0.160906 0.849104
vt 0.119654 0.849104
vt 0.249182 0.849104
vt 0.149922 0.849104
vt 0.290435 0.849104
vt 0.239675 0.849104
vt 0.110327 0.659670
vt 0.119654 0.659670
vt 0.299761 0.659670
vt 0.290435 0.659670
vt 0.772261 0.566348
vt 0.781588 0.755782
vt 0.169525 0.849093
vt 0.175919 0.835573
vt 0.205044 0.835573
vt 0.205044 0.849104
vt 0.205044 0.849104
vt 0.205044 0.849104
vt 0.246481 0.835573
vt 0.240563 0.822479
vt 0.240563 0.686296
vt 0.246603 0.673201
vt 0.287922 0.659670
vt 0.276082 0.659670
vt 0.264242 0.659670
vt 0.252403 0.659670
vt 0.240563 0.849093
vt 0.234170 0.835573
vt 0.205044 0.835573
vt 0.234170 0.835573
vt 0.175919 0.673201
vt 0.205044 0.673201
vt 0.175919 0.673201
vt 0.175919 0.835573
vt 0.145846 0.659670
vt 0.134007 0.659670
vt 0.122167 0.659670
vt 0.169525 0.822479
vt 0.169525 0.686296
vt 0.169525 0.686296
vt 0.169525 0.822479
vt 0.163608 0.835573
vt 0.820010 0.076458
vt 0.819377 0.077753
vt 0.816497 0.077753
vt 0.816497 0.061696
vt 0.819377 0.061696
vt 0.820010 0.062991
vt 0.813617 0.077753
vt 0.812984 0.076458
vt 0.812985 0.062991
vt 0.813617 0.061696
vt 0.234170 0.673201
vt 0.240563 0.673201
vt 0.240563 0.835573
vt 0.169525 0.673201
vt 0.169525 0.835573
vt 0.240563 0.686296
vt 0.240563 0.822479
vn -1.0000 -0.0000 0.0000
vn -0.0000 0.1222 0.9925
vn 0.0000 0.2401 0.9707
vn -0.0000 0.4580 0.8890
vn -0.0000 0.6393 0.7690
vn -0.0000 0.7796 0.6263
vn -0.0000 0.9582 0.2862
vn 0.0000 0.9895 0.1448
vn 0.0000 1.0000 -0.0000
vn -0.0985 0.9951 -0.0000
vn -0.0957 0.9954 -0.0000
vn -0.0000 0.9582 -0.2862
vn -0.0000 0.8907 -0.4545
vn -0.0000 0.7796 -0.6263
vn -0.1084 0.7741 -0.6237
vn -0.1051 0.8313 -0.5458
vn -0.0000 0.6393 -0.7690
vn -0.0000 0.4580 -0.8890
vn -0.0000 0.2401 -0.9707
vn -0.0000 0.1222 -0.9925
vn 0.0000 -0.4580 -0.8890
vn 0.0000 -0.2401 -0.9707
vn -0.2412 0.2345 0.9417
vn -0.2419 0.1186 0.9630
vn -0.1211 0.1213 0.9852
vn -0.1204 0.2376 0.9639
vn 1.0000 0.0000 0.0000
vn -0.2347 0.4475 0.8629
vn -0.1173 0.4537 0.8834
vn -0.2259 0.6251 0.7471
vn -0.1130 0.6341 0.7650
vn -0.2166 0.7629 0.6091
vn -0.1084 0.7741 0.6237
vn -0.2114 0.8170 0.5364
vn -0.1051 0.8313 0.5458
vn -0.1961 0.9806 -0.0000
vn -0.2166 0.7629 -0.6091
vn -0.2114 0.8170 -0.5364
vn -0.2259 0.6251 -0.7471
vn -0.1130 0.6341 -0.7650
vn -0.2347 0.4475 -0.8629
vn -0.1173 0.4537 -0.8834
vn -0.2412 0.2345 -0.9417
vn -0.1204 0.2376 -0.9639
vn -0.2419 0.1186 -0.9630
vn -0.1211 0.1213 -0.9852
vn 0.0000 -0.2401 0.9707
vn 0.0000 -0.4580 0.8890
vn 0.0000 -0.6393 -0.7690
vn 0.0000 -0.7796 0.6263
vn 0.0000 -0.8359 0.5488
vn 0.0000 -0.1222 0.9925
vn 0.0000 -0.7796 -0.6263
vn 0.0000 -0.6393 0.7690
vn 0.0000 -0.1222 -0.9925
vn 0.0000 -0.8359 -0.5488
vn 0.0000 -0.9992 -0.0393
vn 0.0000 -0.9997 -0.0262
vn 0.0000 -1.0000 -0.0053
vn 0.0000 -0.9992 0.0393
vn 0.0000 -1.0000 0.0053
vn 0.0000 -0.9997 0.0262
vn -0.0000 0.9565 -0.2919
vn -0.0000 0.9917 -0.1283
vn 0.0000 -1.0000 0.0000
vn 0.0000 0.8876 0.4607
vn -0.0000 0.8770 0.4806
vn -0.0000 0.8733 0.4871
vn -0.0000 0.8907 0.4545
vn -0.0000 0.9565 0.2919
vn 0.0000 0.8359 0.5488
vn -0.2298 0.0000 0.9732
vn 0.2298 0.0000 0.9732
vn -0.0000 0.8876 -0.4607
vn -0.0000 0.8359 -0.5488
vn -0.0000 0.9917 0.1283
vn -0.0000 0.9895 -0.1448
vn -0.0000 0.8733 -0.4871
vn -0.0000 0.8770 -0.4806
vn 0.2298 -0.0000 -0.9732
vn 0.4472 -0.0000 -0.8944
vn -0.4472 0.0000 0.8944
vn -0.4472 -0.0000 -0.8944
vn -0.2298 -0.0000 -0.9732
vn 0.4472 0.0000 0.8944
usemtl Material.009
s off
f 3/1/1 5/2/1 7/3/1 9/4/1 11/5/1 13/6/1 15/7/1 17/8/1 19/9/1 21/10/1 23/11/1 1/12/1
s 1
f 28/13/2 27/14/2 30/15/3 29/16/3
f 29/16/3 30/15/3 32/17/4 31/18/4
f 31/18/4 32/17/4 34/19/5 33/20/5
f 33/20/5 34/19/5 36/21/6 35/22/6
f 91/23/7 90/24/8 86/25/9 59/26/10 75/27/11
f 100/28/12 99/29/13 39/30/14 77/31/15 37/32/16
f 39/30/14 40/33/14 42/34/17 41/35/17
f 41/35/17 42/34/17 44/36/18 43/37/18
f 43/37/18 44/36/18 46/38/19 45/39/19
f 45/39/19 46/38/19 26/40/20 25/41/20
f 8/42/21 6/43/22 49/44/22 50/45/21
f 5/46/23 3/47/24 66/48/25 67/49/26
f 4/50/27 6/43/27 68/51/27 65/52/27
f 7/53/28 5/46/23 67/49/26 69/54/29
f 6/43/27 8/42/27 70/55/27 68/51/27
f 9/56/30 7/53/28 69/54/29 71/57/31
f 8/42/27 10/58/27 72/59/27 70/55/27
f 11/60/32 9/56/30 71/57/31 73/61/33
f 10/58/27 12/62/27 74/63/27 72/59/27
f 13/64/34 11/60/32 73/61/33 75/65/35
f 12/62/27 14/66/27 76/67/27 74/63/27
f 15/68/36 13/64/36 75/65/11 59/69/10 37/70/11
f 17/71/37 15/68/38 37/70/16 77/72/15
f 16/73/27 18/74/27 78/75/27 38/76/27
f 19/77/39 17/71/37 77/72/15 79/78/40
f 18/74/27 20/79/27 80/80/27 78/75/27
f 21/81/41 19/77/39 79/78/40 81/82/42
f 20/79/27 22/83/27 82/84/27 80/80/27
f 23/85/43 21/81/41 81/82/42 83/86/44
f 22/83/27 24/87/27 84/88/27 82/84/27
f 1/89/45 23/85/43 83/86/44 63/90/46
f 24/87/27 2/91/27 64/92/27 84/88/27
f 49/93/27 47/94/27 48/95/27 58/96/27 57/97/27 56/98/27 55/99/27 54/100/27 62/101/27 53/102/27 52/103/27 51/104/27 50/105/27
f 24/87/47 22/83/48 57/106/48 58/107/47
f 10/58/49 8/42/21 50/45/21 51/108/49
f 18/74/50 16/73/51 54/109/51 55/110/50
f 2/91/52 24/87/47 58/107/47 48/111/52
f 12/62/53 10/58/49 51/108/49 52/112/53
f 20/79/54 18/74/50 55/110/50 56/113/54
f 6/43/22 4/50/55 47/114/55 49/44/22
f 14/66/56 12/62/53 52/112/53 53/115/56
f 22/83/48 20/79/54 56/113/54 57/106/48
f 63/116/57 64/92/57 2/91/57 48/111/58 1/117/59
f 66/118/60 3/119/61 47/114/62 4/50/60 65/52/60
f 48/95/58 47/94/62 3/120/61 1/121/59
f 103/122/63 102/123/64 60/124/9 85/125/9 38/76/9
f 14/66/27 61/126/27 85/125/27 76/67/27
f 61/126/65 14/66/65 53/115/65 62/127/65
f 16/73/65 61/126/65 62/127/65 54/109/65
f 61/126/27 16/73/27 38/76/27 85/125/27
f 35/22/6 36/21/6 95/128/66 94/129/67 89/130/68 92/131/69
f 25/41/20 26/40/20 64/92/20 63/116/46
f 27/14/2 28/13/2 66/118/25 65/52/2
f 28/13/2 29/16/3 67/132/26 66/118/25
f 30/15/3 27/14/2 65/52/2 68/51/3
f 29/16/3 31/18/4 69/133/29 67/132/26
f 32/17/4 30/15/3 68/51/3 70/55/4
f 31/18/4 33/20/5 71/134/31 69/133/29
f 34/19/5 32/17/4 70/55/4 72/59/5
f 33/20/5 35/22/6 73/135/33 71/134/31
f 36/21/6 34/19/5 72/59/5 74/63/6
f 96/136/70 95/128/66 36/21/6 74/63/6 76/67/71
f 93/137/1 60/124/1 87/138/1 106/139/1
f 97/140/27 86/25/27 88/141/27 112/142/27
f 60/124/1 102/123/1 109/143/1 87/138/1
f 39/30/14 41/35/17 79/144/40 77/31/15
f 42/34/17 40/33/14 78/75/14 80/80/17
f 41/35/17 43/37/18 81/145/42 79/144/40
f 44/36/18 42/34/17 80/80/17 82/84/18
f 43/37/18 45/39/19 83/146/44 81/145/42
f 46/38/19 44/36/18 82/84/18 84/88/19
f 45/39/19 25/41/20 63/116/46 83/146/44
f 26/40/20 46/38/19 84/88/19 64/92/20
f 101/147/72 98/148/73 111/149/73 110/150/72
f 35/22/6 92/131/69 91/23/7 75/27/35 73/135/33
f 40/33/14 104/151/74 103/122/63 38/76/75 78/75/14
f 105/152/9 106/153/9 87/154/9 88/155/9 107/156/9 108/157/9
f 87/154/9 109/158/9 110/159/9 111/160/9 112/161/9 88/155/9
f 86/25/27 90/24/27 107/162/27 88/141/27
f 60/124/9 93/137/76 96/136/70 76/67/9 85/125/9
f 86/25/9 97/140/77 100/28/12 37/32/11 59/26/10
f 99/29/13 98/148/78 101/147/79 104/151/74 40/33/14 39/30/14
f 89/130/68 90/163/8 91/23/7 92/131/69
f 93/137/76 94/164/67 95/128/66 96/136/70
f 97/140/77 98/165/78 99/29/13 100/28/12
f 101/147/79 102/166/64 103/122/63 104/151/74
f 89/130/80 108/167/80 107/162/81 90/24/81
f 101/147/72 110/150/72 109/143/82 102/123/82
f 93/137/83 106/139/83 105/168/84 94/129/84
f 111/149/73 98/148/73 97/140/85 112/142/85
f 89/130/80 94/129/84 105/168/84 108/167/80
o BF_Block_Smooth_111.005_BF_Block_Smooth_111.007
v -0.000000 -0.600002 -0.000002
v -0.132022 -0.500002 -0.132023
v 0.132023 -0.500002 -0.132023
v -0.132022 -0.500002 -0.132023
v -0.000000 -0.600002 -0.000002
v -0.132023 -0.500002 0.132023
v -0.000000 -0.600002 -0.000002
v 0.132023 -0.500002 0.132023
v -0.132023 -0.500002 0.132023
v 0.132023 -0.500002 0.132023
v -0.000000 -0.600002 -0.000002
v 0.132023 -0.500002 -0.132023
v -0.132022 -0.495002 -0.132023
v 0.132023 -0.495002 -0.132023
v -0.132022 -0.495002 -0.132023
v -0.132023 -0.495002 0.132023
v 0.132023 -0.495002 0.132023
v -0.132023 -0.495002 0.132023
v 0.132023 -0.495002 0.132023
v 0.132023 -0.495002 -0.132023
vt 0.031246 0.031498
vt 0.060715 0.060967
vt 0.060715 0.002028
vt 0.060715 0.060967
vt 0.031246 0.031498
vt 0.001776 0.060967
vt 0.031246 0.031498
vt 0.001776 0.002028
vt 0.001776 0.060967
vt 0.001776 0.002028
vt 0.031246 0.031498
vt 0.060715 0.002028
vt 0.060715 0.060967
vt 0.060715 0.002028
vt 0.060715 0.002028
vt 0.001776 0.002028
vt 0.001776 0.060967
vt 0.060715 0.060967
vt 0.001776 0.002028
vt 0.001776 0.060967
vn -0.0000 -0.7971 -0.6038
vn -0.6038 -0.7971 -0.0000
vn 0.0000 -0.7971 0.6038
vn 0.6038 -0.7971 0.0000
vn -0.0000 0.0000 -1.0000
vn 1.0000 0.0000 -0.0000
vn -1.0000 0.0000 -0.0000
vn 0.0000 0.0000 1.0000
usemtl Default_OBJ.008
s off
f 113/169/86 114/170/86 115/171/86
f 116/172/87 117/173/87 118/174/87
f 119/175/88 120/176/88 121/177/88
f 122/178/89 123/179/89 124/180/89
f 115/171/90 114/170/90 125/181/90 126/182/90
f 122/178/91 124/180/91 132/183/91 131/184/91
f 116/172/92 118/174/92 128/185/92 127/186/92
f 121/177/93 120/176/93 129/187/93 130/188/93
