# This file uses centimeters as units for non-parametric coordinates.

g default
v 1.423880 0.882683 0.105869
v 1.207107 1.207106 0.105869
v 0.882684 1.423879 0.105869
v 0.500000 1.500000 0.105869
v 0.117317 1.423880 0.105869
v -0.207106 1.207107 0.105869
v -0.423879 0.882684 0.105869
v -0.500000 0.500000 0.105869
v -0.423880 0.117317 0.105869
v -0.207107 -0.207107 0.105869
v 0.117316 -0.423879 0.105869
v 0.500000 -0.500000 0.105869
v 0.882683 -0.423880 0.105869
v 1.207107 -0.207107 0.105869
v 1.423880 0.117317 0.105869
v 1.500000 0.500000 0.105869
v 1.423880 0.882683 2.162236
v 1.207107 1.207106 2.162236
v 0.882684 1.423879 2.162236
v 0.500000 1.500000 2.162236
v 0.117317 1.423880 2.162236
v -0.207106 1.207107 2.162236
v -0.423879 0.882684 2.162236
v -0.500000 0.500000 2.162236
v -0.423880 0.117317 2.162236
v -0.207107 -0.207107 2.162236
v 0.117316 -0.423879 2.162236
v 0.500000 -0.500000 2.162236
v 0.882683 -0.423880 2.162236
v 1.207107 -0.207107 2.162236
v 1.423880 0.117317 2.162236
v 1.500000 0.500000 2.162236
v 0.500000 0.500000 2.162236
v 1.245516 0.808802 0.105869
v 1.070593 1.070593 0.105869
v 0.808803 1.245516 0.105869
v 0.500000 1.306940 0.105869
v 0.191198 1.245516 0.105869
v -0.070593 1.070593 0.105869
v -0.245516 0.808803 0.105869
v -0.306940 0.500000 0.105869
v -0.245516 0.191198 0.105869
v -0.070593 -0.070593 0.105869
v 0.191197 -0.245516 0.105869
v 0.500000 -0.306940 0.105869
v 0.808803 -0.245516 0.105869
v 1.070593 -0.070593 0.105869
v 1.245516 0.191197 0.105869
v 1.306940 0.500000 0.105869
v 1.135166 0.763094 -0.480411
v 0.986135 0.986134 -0.480411
v 0.500000 0.500000 -0.480411
v 0.763094 1.135165 -0.480411
v 0.500000 1.187498 -0.480411
v 0.236906 1.135166 -0.480411
v 0.013866 0.986135 -0.480411
v -0.135166 0.763094 -0.480411
v -0.187498 0.500000 -0.480411
v -0.135166 0.236906 -0.480411
v 0.013865 0.013865 -0.480411
v 0.236906 -0.135166 -0.480411
v 0.500000 -0.187498 -0.480411
v 0.763094 -0.135166 -0.480411
v 0.986135 0.013865 -0.480411
v 1.135166 0.236906 -0.480411
v 1.187498 0.500000 -0.480411
v -0.500000 -0.500000 3.500000
v 1.499998 -0.500000 3.500000
v -0.500000 1.500000 3.500000
v 1.499998 1.500000 3.500000
v -0.500000 1.500000 2.162236
v 1.499998 1.500000 2.162236
v -0.500000 -0.500000 2.162236
v 1.499998 -0.500000 2.162236
vt 0.644356 0.096456
vt 0.610485 0.045765
vt 0.559794 0.011894
vt 0.500000 0.000000
vt 0.440206 0.011894
vt 0.389515 0.045765
vt 0.355644 0.096456
vt 0.343750 0.156250
vt 0.355644 0.216044
vt 0.389515 0.266735
vt 0.440206 0.300606
vt 0.500000 0.312500
vt 0.559794 0.300606
vt 0.610485 0.266735
vt 0.644356 0.216044
vt 0.656250 0.156250
vt 0.375000 0.312500
vt 0.390625 0.312500
vt 0.406250 0.312500
vt 0.421875 0.312500
vt 0.437500 0.312500
vt 0.453125 0.312500
vt 0.468750 0.312500
vt 0.484375 0.312500
vt 0.500000 0.312500
vt 0.515625 0.312500
vt 0.531250 0.312500
vt 0.546875 0.312500
vt 0.562500 0.312500
vt 0.578125 0.312500
vt 0.593750 0.312500
vt 0.609375 0.312500
vt 0.625000 0.312500
vt 0.375000 0.688440
vt 0.390625 0.688440
vt 0.406250 0.688440
vt 0.421875 0.688440
vt 0.437500 0.688440
vt 0.453125 0.688440
vt 0.468750 0.688440
vt 0.484375 0.688440
vt 0.500000 0.688440
vt 0.515625 0.688440
vt 0.531250 0.688440
vt 0.546875 0.688440
vt 0.562500 0.688440
vt 0.578125 0.688440
vt 0.593750 0.688440
vt 0.609375 0.688440
vt 0.625000 0.688440
vt 0.644356 0.783956
vt 0.610485 0.733265
vt 0.559794 0.699394
vt 0.500000 0.687500
vt 0.440206 0.699394
vt 0.389515 0.733265
vt 0.355644 0.783956
vt 0.343750 0.843750
vt 0.355644 0.903544
vt 0.389515 0.954235
vt 0.440206 0.988106
vt 0.500000 1.000000
vt 0.559794 0.988106
vt 0.610485 0.954235
vt 0.644356 0.903544
vt 0.656250 0.843750
vt 0.500000 0.150000
vt 0.500000 0.837500
vt 0.610485 0.045765
vt 0.644356 0.096456
vt 0.559794 0.011894
vt 0.500000 0.000000
vt 0.440206 0.011894
vt 0.389515 0.045765
vt 0.355644 0.096456
vt 0.343750 0.156250
vt 0.355644 0.216044
vt 0.389515 0.266735
vt 0.440206 0.300606
vt 0.500000 0.312500
vt 0.559794 0.300606
vt 0.610485 0.266735
vt 0.644356 0.216044
vt 0.656250 0.156250
vt 0.610485 0.045765
vt 0.644356 0.096456
vt 0.559794 0.011894
vt 0.500000 0.000000
vt 0.440206 0.011894
vt 0.389515 0.045765
vt 0.355644 0.096456
vt 0.343750 0.156250
vt 0.355644 0.216044
vt 0.389515 0.266735
vt 0.440206 0.300606
vt 0.500000 0.312500
vt 0.559794 0.300606
vt 0.610485 0.266735
vt 0.644356 0.216044
vt 0.656250 0.156250
vt 0.375000 0.000000
vt 0.625000 0.000000
vt 0.625000 0.250000
vt 0.375000 0.250000
vt 0.625000 0.500000
vt 0.375000 0.500000
vt 0.625000 0.750000
vt 0.375000 0.750000
vt 0.625000 1.000000
vt 0.375000 1.000000
vt 0.875000 0.000000
vt 0.875000 0.250000
vt 0.125000 0.000000
vt 0.125000 0.250000
vn 0.923880 0.382683 0.000000
vn 0.707107 0.707106 0.000000
vn 0.707107 0.707106 0.000000
vn 0.923880 0.382683 0.000000
vn 0.382684 0.923879 0.000000
vn 0.382684 0.923879 0.000000
vn 0.000000 1.000000 0.000000
vn 0.000000 1.000000 0.000000
vn -0.382683 0.923880 0.000000
vn -0.382683 0.923880 0.000000
vn -0.707106 0.707107 0.000000
vn -0.707106 0.707107 0.000000
vn -0.923879 0.382684 0.000000
vn -0.923879 0.382684 0.000000
vn -1.000000 0.000000 0.000000
vn -1.000000 0.000000 0.000000
vn -0.923880 -0.382683 0.000000
vn -0.923880 -0.382683 0.000000
vn -0.707107 -0.707107 0.000000
vn -0.707107 -0.707107 0.000000
vn -0.382684 -0.923880 0.000000
vn -0.382684 -0.923880 0.000000
vn -0.000000 -1.000000 0.000000
vn -0.000000 -1.000000 0.000000
vn 0.382683 -0.923880 0.000000
vn 0.382683 -0.923880 0.000000
vn 0.707107 -0.707107 0.000000
vn 0.707107 -0.707107 0.000000
vn 0.923880 -0.382683 0.000000
vn 0.923880 -0.382683 0.000000
vn 1.000000 -0.000000 0.000000
vn 1.000000 -0.000000 0.000000
vn -0.000000 0.000000 -1.000000
vn -0.000000 0.000000 -1.000000
vn -0.000000 0.000000 -1.000000
vn 0.000000 0.000000 -1.000000
vn 0.000000 0.000000 -1.000000
vn -0.000000 0.000000 -1.000000
vn -0.000001 0.000000 -1.000000
vn -0.000000 0.000000 -1.000000
vn 0.000000 0.000000 -1.000000
vn 0.000000 0.000000 -1.000000
vn 0.000000 0.000000 -1.000000
vn 0.000000 0.000000 -1.000000
vn 0.000000 0.000000 -1.000000
vn 0.000000 0.000000 -1.000000
vn 0.000000 0.000000 -1.000000
vn -0.000000 0.000000 -1.000000
vn 0.000000 0.000000 -1.000000
vn 0.000000 0.000000 1.000000
vn 0.000000 0.000000 1.000000
vn -0.000000 0.000000 1.000000
vn 0.000000 0.000000 1.000000
vn 0.000000 0.000000 1.000000
vn 0.000000 0.000000 1.000000
vn 0.000000 0.000000 1.000000
vn 0.000000 0.000000 1.000000
vn 0.000000 0.000000 1.000000
vn 0.000000 0.000000 1.000000
vn 0.000000 0.000000 1.000000
vn 0.000000 0.000000 1.000000
vn 0.000000 0.000000 1.000000
vn -0.000000 0.000000 1.000000
vn -0.000000 0.000000 1.000000
vn 0.000000 0.000000 1.000000
vn 0.000000 0.000000 1.000000
vn -0.000000 0.000000 -1.000000
vn -0.000000 0.000000 -1.000000
vn -0.000000 0.000000 -1.000000
vn -0.000000 0.000000 -1.000000
vn -0.000000 0.000000 -1.000000
vn -0.000000 0.000000 -1.000000
vn -0.000000 0.000000 -1.000000
vn -0.000000 0.000000 -1.000000
vn 0.000000 0.000000 -1.000000
vn 0.000000 0.000000 -1.000000
vn 0.000000 0.000000 -1.000000
vn 0.000000 0.000000 -1.000000
vn -0.000000 0.000000 -1.000000
vn -0.000000 0.000000 -1.000000
vn -0.000000 0.000000 -1.000000
vn -0.000000 0.000000 -1.000000
vn 0.000000 0.000000 -1.000000
vn 0.000000 0.000000 -1.000000
vn 0.000000 0.000000 -1.000000
vn 0.000000 0.000000 -1.000000
vn -0.000000 0.000000 -1.000000
vn -0.000000 0.000000 -1.000000
vn -0.000000 0.000000 -1.000000
vn -0.000000 0.000000 -1.000000
vn -0.000001 0.000000 -1.000000
vn -0.000001 0.000000 -1.000000
vn -0.000001 0.000000 -1.000000
vn -0.000001 0.000000 -1.000000
vn 0.000000 0.000000 -1.000000
vn 0.000000 0.000000 -1.000000
vn 0.000000 0.000000 -1.000000
vn 0.000000 0.000000 -1.000000
vn 0.000000 0.000000 -1.000000
vn 0.000000 0.000000 -1.000000
vn 0.000000 0.000000 -1.000000
vn 0.000000 0.000000 -1.000000
vn 0.000000 0.000000 -1.000000
vn 0.000000 0.000000 -1.000000
vn 0.000000 0.000000 -1.000000
vn 0.000000 0.000000 -1.000000
vn 0.000000 0.000000 -1.000000
vn 0.000000 0.000000 -1.000000
vn 0.000000 0.000000 -1.000000
vn 0.000000 0.000000 -1.000000
vn 0.000000 0.000000 -1.000000
vn 0.000000 0.000000 -1.000000
vn 0.000000 0.000000 -1.000000
vn 0.000000 0.000000 -1.000000
vn 0.000000 0.000000 -1.000000
vn 0.000000 0.000000 -1.000000
vn 0.000000 0.000000 -1.000000
vn 0.000000 0.000000 -1.000000
vn 0.000000 0.000000 -1.000000
vn 0.000000 0.000000 -1.000000
vn 0.000000 0.000000 -1.000000
vn 0.000000 0.000000 -1.000000
vn 0.000000 0.000000 -1.000000
vn 0.000000 0.000000 -1.000000
vn 0.000000 0.000000 -1.000000
vn 0.000000 0.000000 -1.000000
vn 0.000000 0.000000 -1.000000
vn 0.000000 0.000000 -1.000000
vn 0.000000 0.000000 -1.000000
vn 0.000000 0.000000 -1.000000
vn 0.692874 0.692874 -0.199628
vn 0.905283 0.374981 -0.199628
vn 0.905283 0.374981 -0.199628
vn 0.692874 0.692874 -0.199628
vn 0.374981 0.905283 -0.199628
vn 0.374981 0.905283 -0.199628
vn 0.000000 0.979872 -0.199628
vn 0.000000 0.979872 -0.199628
vn -0.374980 0.905284 -0.199628
vn -0.374980 0.905284 -0.199628
vn -0.692874 0.692874 -0.199628
vn -0.692874 0.692874 -0.199628
vn -0.905283 0.374981 -0.199628
vn -0.905283 0.374981 -0.199628
vn -0.979872 0.000000 -0.199628
vn -0.979872 0.000000 -0.199628
vn -0.905284 -0.374980 -0.199628
vn -0.905284 -0.374980 -0.199628
vn -0.692874 -0.692874 -0.199628
vn -0.692874 -0.692874 -0.199628
vn -0.374981 -0.905283 -0.199628
vn -0.374981 -0.905283 -0.199628
vn -0.000000 -0.979872 -0.199628
vn -0.000000 -0.979872 -0.199628
vn 0.374981 -0.905283 -0.199628
vn 0.374981 -0.905283 -0.199628
vn 0.692874 -0.692874 -0.199628
vn 0.692874 -0.692874 -0.199628
vn 0.905283 -0.374981 -0.199628
vn 0.905283 -0.374981 -0.199628
vn 0.979872 -0.000000 -0.199628
vn 0.979872 -0.000000 -0.199628
vn 0.000000 0.000000 1.000000
vn 0.000000 0.000000 1.000000
vn 0.000000 0.000000 1.000000
vn 0.000000 0.000000 1.000000
vn 0.000000 1.000000 0.000000
vn 0.000000 1.000000 0.000000
vn 0.000000 1.000000 0.000000
vn 0.000000 1.000000 0.000000
vn 0.000000 0.000000 -1.000000
vn 0.000000 0.000000 -1.000000
vn 0.000000 0.000000 -1.000000
vn 0.000000 0.000000 -1.000000
vn 0.000000 -1.000000 0.000000
vn 0.000000 -1.000000 0.000000
vn 0.000000 -1.000000 0.000000
vn 0.000000 -1.000000 0.000000
vn 1.000000 0.000000 0.000000
vn 1.000000 0.000000 0.000000
vn 1.000000 0.000000 0.000000
vn 1.000000 0.000000 0.000000
vn -1.000000 0.000000 0.000000
vn -1.000000 0.000000 0.000000
vn -1.000000 0.000000 0.000000
vn -1.000000 0.000000 0.000000
s 1
g col_body
f 1/17/1 2/18/2 18/35/3 17/34/4
f 2/18/2 3/19/5 19/36/6 18/35/3
f 3/19/5 4/20/7 20/37/8 19/36/6
f 4/20/7 5/21/9 21/38/10 20/37/8
f 5/21/9 6/22/11 22/39/12 21/38/10
f 6/22/11 7/23/13 23/40/14 22/39/12
f 7/23/13 8/24/15 24/41/16 23/40/14
f 8/24/15 9/25/17 25/42/18 24/41/16
f 9/25/17 10/26/19 26/43/20 25/42/18
f 10/26/19 11/27/21 27/44/22 26/43/20
f 11/27/21 12/28/23 28/45/24 27/44/22
f 12/28/23 13/29/25 29/46/26 28/45/24
f 13/29/25 14/30/27 30/47/28 29/46/26
f 14/30/27 15/31/29 31/48/30 30/47/28
f 15/31/29 16/32/31 32/49/32 31/48/30
f 16/32/31 1/33/1 17/50/4 32/49/32
s 2
f 51/85/33 50/86/34 52/67/35
f 53/87/36 51/85/33 52/67/35
f 54/88/37 53/87/36 52/67/35
f 55/89/38 54/88/37 52/67/35
f 56/90/39 55/89/38 52/67/35
f 57/91/40 56/90/39 52/67/35
f 58/92/41 57/91/40 52/67/35
f 59/93/42 58/92/41 52/67/35
f 60/94/43 59/93/42 52/67/35
f 61/95/44 60/94/43 52/67/35
f 62/96/45 61/95/44 52/67/35
f 63/97/46 62/96/45 52/67/35
f 64/98/47 63/97/46 52/67/35
f 65/99/48 64/98/47 52/67/35
f 66/100/49 65/99/48 52/67/35
f 50/86/34 66/100/49 52/67/35
s 3
f 17/65/50 18/64/51 33/68/52
f 18/64/51 19/63/53 33/68/52
f 19/63/53 20/62/54 33/68/52
f 20/62/54 21/61/55 33/68/52
f 21/61/55 22/60/56 33/68/52
f 22/60/56 23/59/57 33/68/52
f 23/59/57 24/58/58 33/68/52
f 24/58/58 25/57/59 33/68/52
f 25/57/59 26/56/60 33/68/52
f 26/56/60 27/55/61 33/68/52
f 27/55/61 28/54/62 33/68/52
f 28/54/62 29/53/63 33/68/52
f 29/53/63 30/52/64 33/68/52
f 30/52/64 31/51/65 33/68/52
f 31/51/65 32/66/66 33/68/52
f 32/66/66 17/65/50 33/68/52
s off
f 2/2/67 1/1/68 34/70/69 35/69/70
f 3/3/71 2/2/72 35/69/73 36/71/74
f 4/4/75 3/3/76 36/71/77 37/72/78
f 5/5/79 4/4/80 37/72/81 38/73/82
f 6/6/83 5/5/84 38/73/85 39/74/86
f 7/7/87 6/6/88 39/74/89 40/75/90
f 8/8/91 7/7/92 40/75/93 41/76/94
f 9/9/95 8/8/96 41/76/97 42/77/98
f 10/10/99 9/9/100 42/77/101 43/78/102
f 11/11/103 10/10/104 43/78/105 44/79/106
f 12/12/107 11/11/108 44/79/109 45/80/110
f 13/13/111 12/12/112 45/80/113 46/81/114
f 14/14/115 13/13/116 46/81/117 47/82/118
f 15/15/119 14/14/120 47/82/121 48/83/122
f 16/16/123 15/15/124 48/83/125 49/84/126
f 1/1/127 16/16/128 49/84/129 34/70/130
s 4
f 35/69/131 34/70/132 50/86/133 51/85/134
f 36/71/135 35/69/131 51/85/134 53/87/136
f 37/72/137 36/71/135 53/87/136 54/88/138
f 38/73/139 37/72/137 54/88/138 55/89/140
f 39/74/141 38/73/139 55/89/140 56/90/142
f 40/75/143 39/74/141 56/90/142 57/91/144
f 41/76/145 40/75/143 57/91/144 58/92/146
f 42/77/147 41/76/145 58/92/146 59/93/148
f 43/78/149 42/77/147 59/93/148 60/94/150
f 44/79/151 43/78/149 60/94/150 61/95/152
f 45/80/153 44/79/151 61/95/152 62/96/154
f 46/81/155 45/80/153 62/96/154 63/97/156
f 47/82/157 46/81/155 63/97/156 64/98/158
f 48/83/159 47/82/157 64/98/158 65/99/160
f 49/84/161 48/83/159 65/99/160 66/100/162
f 34/70/132 49/84/161 66/100/162 50/86/133
s off
f 67/101/163 68/102/164 70/103/165 69/104/166
f 69/104/167 70/103/168 72/105/169 71/106/170
f 71/106/171 72/105/172 74/107/173 73/108/174
f 73/108/175 74/107/176 68/109/177 67/110/178
f 68/102/179 74/111/180 72/112/181 70/103/182
f 73/113/183 67/101/184 69/104/185 71/114/186
