# Blender v2.79 (sub 0) OBJ File: ''
# www.blender.org
mtllib BF_Massive_Halo_Mount.mtl
o Cube_Cube.005
v -0.500000 -2.500000 2.500000
v -0.500000 2.500000 2.500000
v -0.500000 2.500000 0.833334
v -0.500000 2.500000 -0.833333
v -0.500000 2.500000 -2.500000
v -0.500000 -2.500000 -2.500000
v 0.155349 1.168507 -1.833333
v 0.310699 -0.162987 -1.166667
v 0.603237 -1.759788 -0.813707
v 0.289530 -2.303145 -0.813707
v 0.289530 -2.303145 0.813707
v 0.603237 -1.759788 0.813707
v 0.310699 -0.162988 1.166667
v 0.155349 1.168506 1.833333
v 0.155349 1.168506 0.611111
v 0.603237 -1.759788 -0.333334
v 0.603237 -1.759788 0.333332
v 0.310699 -0.162987 0.388889
v 0.310699 -0.162987 -0.388889
v 0.155349 1.168506 -0.611111
v 0.196383 -2.464480 1.000000
v 0.466048 -1.494481 1.000000
v 0.466048 -1.494481 -0.333334
v 0.466048 -1.494481 0.333332
v 0.196383 -2.464479 -1.000000
v 0.466048 -1.494481 -1.000000
v 0.130198 -2.211155 0.813707
v 0.443906 -1.667798 0.813707
v 0.443906 -1.667798 -0.333334
v 0.443906 -1.667798 0.333332
v 0.130198 -2.211155 -0.813707
v 0.443906 -1.667798 -0.813707
v -0.474939 1.600000 -1.600000
v -0.474939 2.400000 -1.600000
v -0.474939 1.600000 -2.400000
v -0.474939 2.400000 -2.400000
v 0.500000 1.850807 -1.850807
v 0.500000 2.149193 -1.850807
v 0.500000 1.850807 -2.149193
v 0.500000 2.149193 -2.149193
v -0.474939 -2.400000 1.600000
v -0.474939 -2.400000 2.400000
v -0.474939 -1.600000 1.600000
v -0.474939 -1.600000 2.400000
v 0.500000 -2.149192 1.850807
v 0.500000 -2.149192 2.149193
v 0.500000 -1.850807 1.850807
v 0.500000 -1.850807 2.149192
v -0.474939 -1.600000 -1.600000
v -0.474939 -1.600000 -2.400000
v -0.474939 -2.400000 -1.600000
v -0.474939 -2.400000 -2.400000
v 0.500000 -1.850807 -1.850807
v 0.500000 -1.850808 -2.149193
v 0.500000 -2.149193 -1.850807
v 0.500000 -2.149193 -2.149193
v -0.474939 1.600000 2.400000
v -0.474939 2.400000 2.400000
v -0.474939 1.600000 1.600000
v -0.474939 2.400000 1.600000
v 0.500000 1.850808 2.149193
v 0.500000 2.149193 2.149193
v 0.500000 1.850807 1.850808
v 0.500000 2.149193 1.850808
v 0.500000 2.500000 -2.500000
v 0.500000 1.500000 -2.500000
v 0.500000 1.500000 -1.500000
v 0.500000 2.500000 -1.500000
v 0.500000 -1.500000 2.500000
v 0.500000 -1.500000 1.500000
v 0.500000 -2.500000 1.500000
v 0.500000 -2.500000 2.500000
v 0.500000 -2.500000 -2.500000
v 0.500000 -2.500000 -1.500000
v 0.500000 -1.500000 -1.500000
v 0.500000 -1.500000 -2.500000
v 0.500000 2.500000 1.500000
v 0.500000 1.500000 1.500000
v 0.500000 1.500000 2.500000
v 0.500000 2.500000 2.500000
v 0.625000 2.000000 -2.000000
v 0.625000 -2.000000 2.000000
v 0.625000 -2.000000 -2.000000
v 0.625000 2.000000 2.000000
v -0.499952 1.850807 1.850808
v -0.499952 2.149193 1.850807
v -0.499952 1.850807 2.149192
v -0.499952 2.149193 2.149192
v -0.499952 -2.149193 -1.850807
v -0.499952 -2.149193 -2.149192
v -0.499952 -1.850807 -1.850807
v -0.499952 -1.850807 -2.149192
v -0.499952 -1.850808 1.850807
v -0.499952 -1.850808 2.149193
v -0.499952 -2.149193 1.850807
v -0.499952 -2.149193 2.149193
v -0.499952 1.850808 -2.149193
v -0.499952 2.149193 -2.149193
v -0.499952 1.850808 -1.850807
v -0.499952 2.149193 -1.850808
v -0.624952 2.000000 2.000000
v -0.624952 -2.000000 -2.000000
v -0.624952 -2.000000 2.000000
v -0.624952 2.000000 -2.000000
vt 0.253906 0.570312
vt 0.253906 0.570312
vt 0.253906 0.570312
vt 0.253906 0.570312
vt 0.253906 0.570312
vt 0.253906 0.570312
vt 0.061418 0.001177
vt 0.061418 0.061726
vt 0.030797 0.031528
vt 0.253906 0.570312
vt 0.253906 0.570312
vt 0.253906 0.570312
vt 0.253906 0.570312
vt 0.253906 0.570312
vt 0.253906 0.570312
vt 0.253906 0.570312
vt 0.253906 0.570312
vt 0.000254 0.061880
vt 0.000100 0.001330
vt 0.030797 0.031528
vt 0.253906 0.570312
vt 0.253906 0.570312
vt 0.253906 0.570312
vt 0.253906 0.570312
vt 0.253906 0.570312
vt 0.253906 0.570312
vt 0.253906 0.570312
vt 0.253906 0.570312
vt 0.000100 0.001330
vt 0.061422 0.001177
vt 0.030799 0.031528
vt 0.253906 0.570312
vt 0.253906 0.570312
vt 0.253906 0.570312
vt 0.253906 0.570312
vt 0.253906 0.570312
vt 0.253906 0.570312
vt 0.253906 0.570312
vt 0.253906 0.570312
vt 0.253906 0.570312
vt 0.253906 0.570312
vt 0.253906 0.570312
vt 0.253906 0.570312
vt 0.253906 0.570312
vt 0.253906 0.570312
vt 0.253906 0.570312
vt 0.253906 0.570312
vt 0.253906 0.570312
vt 0.253906 0.570312
vt 0.253906 0.570312
vt 0.253906 0.570312
vt 0.253906 0.570312
vt 0.253906 0.570312
vt 0.253906 0.570312
vt 0.253906 0.570312
vt 0.253906 0.570312
vt 0.253906 0.570312
vt 0.000100 0.001330
vt 0.061422 0.001177
vt 0.030799 0.031528
vt 0.061419 0.061726
vt 0.000254 0.061880
vt 0.000254 0.061880
vt 0.000100 0.001331
vt 0.061417 0.001177
vt 0.061418 0.061726
vt 0.061419 0.061725
vt 0.000254 0.061879
vt 0.061418 0.001177
vt 0.061418 0.061726
vt 0.030797 0.031528
vt 0.000254 0.061880
vt 0.000100 0.001330
vt 0.030797 0.031528
vt 0.000100 0.001330
vt 0.061422 0.001177
vt 0.030799 0.031528
vt 0.000100 0.001330
vt 0.061422 0.001177
vt 0.030799 0.031528
vt 0.061419 0.061726
vt 0.000254 0.061880
vt 0.000254 0.061880
vt 0.000100 0.001331
vt 0.061417 0.001177
vt 0.061418 0.061726
vt 0.061419 0.061725
vt 0.000254 0.061879
vt 0.231103 0.971260
vt 0.433731 0.977461
vt 0.429597 0.864534
vt 0.425463 0.751607
vt 0.421330 0.638681
vt 0.218701 0.632480
vt 0.363168 0.730049
vt 0.303625 0.614987
vt 0.457646 0.510723
vt 0.282890 0.620604
vt 0.368865 0.638589
vt 0.368865 0.638589
vt 0.282890 0.620604
vt 0.116961 0.850033
vt 0.073824 0.967556
vt 0.049216 0.518106
vt 0.385467 1.006367
vt 0.338681 0.806367
vt 0.338681 0.706367
vt 0.385467 0.506367
vt 0.209035 0.818863
vt 0.200124 0.935566
vt 0.063981 0.938027
vt 0.107118 0.820504
vt 0.226856 0.585458
vt 0.217945 0.702161
vt 0.150256 0.702981
vt 0.193394 0.585458
vt 0.293782 0.585458
vt 0.353324 0.700520
vt 0.285635 0.701340
vt 0.260319 0.585458
vt 0.412867 0.815582
vt 0.310951 0.817223
vt 0.472410 0.930644
vt 0.336267 0.933105
vt 0.680437 0.569963
vt 0.699552 0.688170
vt 0.551008 0.689081
vt 0.572320 0.571603
vt 0.293062 0.591713
vt 0.428600 0.660156
vt 0.261129 0.569848
vt 0.291974 0.621096
vt 0.270162 0.614987
vt 0.236699 0.614987
vt 0.381657 0.663587
vt 0.412554 0.683341
vt 0.315012 0.624960
vt 0.293062 0.591713
vt 0.381657 0.663587
vt 0.315012 0.624960
vt 0.291974 0.621096
vt 0.303625 0.515254
vt 0.482254 0.960173
vt 0.422711 0.845111
vt 0.203237 0.515254
vt 0.203237 0.614987
vt 0.160099 0.732510
vn -1.0000 -0.0000 0.0000
vn -0.1020 0.0000 -0.9948
vn 0.7665 0.6422 0.0000
vn -0.1020 0.0000 0.9948
vn -0.1020 -0.9948 0.0000
vn -0.1020 0.9948 -0.0000
vn 0.7665 -0.6422 0.0000
vn 0.7665 0.0000 -0.6422
vn 1.0000 0.0000 0.0000
vn 0.7665 0.0000 0.6422
vn -0.7665 0.6422 0.0000
vn -0.7665 -0.6422 0.0000
vn -0.7665 0.0000 0.6422
vn -0.7665 -0.0000 -0.6422
vn 0.8962 -0.0601 -0.4396
vn 0.8575 -0.0620 -0.5107
vn 0.8604 -0.0925 -0.5012
vn -0.5000 -0.8660 -0.0000
vn -0.3536 -0.6124 -0.7071
vn 0.7701 -0.0217 0.6375
vn 0.7131 -0.0000 0.7010
vn 0.8604 -0.0925 0.5012
vn 0.0509 -0.9987 -0.0000
vn 0.9592 0.2829 0.0000
vn 0.8972 0.4416 0.0000
vn 0.9441 0.3295 0.0000
vn 0.9933 0.1159 0.0000
vn 0.8593 -0.4184 0.2941
vn 0.9447 0.1002 0.3122
vn 0.9469 0.1172 0.2995
vn 0.8584 -0.4163 0.2998
vn 0.8883 0.4593 0.0000
vn 0.8593 -0.4184 -0.2941
vn 0.8584 -0.4163 -0.2998
vn 0.9447 0.1002 -0.3122
vn 0.9469 0.1172 -0.2995
vn 0.8660 -0.5000 -0.0000
vn 0.3536 0.6124 -0.7071
vn 0.3536 0.6124 0.7071
vn -0.3536 -0.6124 0.7071
vn 0.8816 -0.2451 -0.4035
vn 0.7131 0.0000 -0.7010
vn 0.7701 -0.0217 -0.6375
vn 0.8816 -0.2451 0.4035
vn 0.8575 -0.0620 0.5107
vn 0.8962 -0.0601 0.4396
usemtl None.008
s off
f 33/1/1 34/2/1 36/3/1 35/4/1
f 35/4/2 36/3/2 65/5/2 66/6/2
f 47/7/3 48/8/3 82/9/3
f 67/10/4 68/11/4 34/2/4 33/1/4
f 35/4/5 66/6/5 67/10/5 33/1/5
f 65/5/6 36/3/6 34/2/6 68/11/6
f 41/12/1 42/13/1 44/14/1 43/15/1
f 43/15/6 44/14/6 69/16/6 70/17/6
f 55/18/7 56/19/7 83/20/7
f 71/21/5 72/22/5 42/13/5 41/12/5
f 43/15/2 70/17/2 71/21/2 41/12/2
f 69/16/4 44/14/4 42/13/4 72/22/4
f 49/23/1 50/24/1 52/25/1 51/26/1
f 51/26/5 52/25/5 73/27/5 74/28/5
f 63/29/8 64/30/8 84/31/8
f 75/32/6 76/33/6 50/24/6 49/23/6
f 51/26/4 74/28/4 75/32/4 49/23/4
f 73/27/2 52/25/2 50/24/2 76/33/2
f 57/34/1 58/35/1 60/36/1 59/37/1
f 59/37/2 60/36/2 77/38/2 78/39/2
f 79/40/4 80/41/4 58/35/4 57/34/4
f 59/37/5 78/39/5 79/40/5 57/34/5
f 77/38/6 60/36/6 58/35/6 80/41/6
f 40/42/9 39/43/9 66/6/9 65/5/9
f 39/43/9 37/44/9 67/10/9 66/6/9
f 38/45/9 40/42/9 65/5/9 68/11/9
f 37/44/9 38/45/9 68/11/9 67/10/9
f 48/46/9 47/47/9 70/17/9 69/16/9
f 47/47/9 45/48/9 71/21/9 70/17/9
f 46/49/9 48/46/9 69/16/9 72/22/9
f 45/48/9 46/49/9 72/22/9 71/21/9
f 56/50/9 55/51/9 74/28/9 73/27/9
f 55/51/9 53/52/9 75/32/9 74/28/9
f 54/53/9 56/50/9 73/27/9 76/33/9
f 53/52/9 54/53/9 76/33/9 75/32/9
f 64/54/9 63/55/9 78/39/9 77/38/9
f 63/55/9 61/56/9 79/40/9 78/39/9
f 62/57/9 64/54/9 77/38/9 80/41/9
f 61/56/9 62/57/9 80/41/9 79/40/9
f 39/58/8 40/59/8 81/60/8
f 40/59/3 38/61/3 81/60/3
f 38/61/10 37/62/10 81/60/10
f 37/62/7 39/58/7 81/60/7
f 48/8/10 46/63/10 82/9/10
f 46/63/7 45/64/7 82/9/7
f 45/64/8 47/7/8 82/9/8
f 56/19/8 54/65/8 83/20/8
f 54/65/3 53/66/3 83/20/3
f 53/66/10 55/18/10 83/20/10
f 64/30/3 62/67/3 84/31/3
f 62/67/10 61/68/10 84/31/10
f 61/68/7 63/29/7 84/31/7
f 91/69/11 92/70/11 102/71/11
f 95/72/12 96/73/12 103/74/12
f 99/75/13 100/76/13 104/77/13
f 87/78/13 88/79/13 101/80/13
f 88/79/11 86/81/11 101/80/11
f 86/81/14 85/82/14 101/80/14
f 85/82/12 87/78/12 101/80/12
f 92/70/14 90/83/14 102/71/14
f 90/83/12 89/84/12 102/71/12
f 89/84/13 91/69/13 102/71/13
f 96/73/13 94/85/13 103/74/13
f 94/85/11 93/86/11 103/74/11
f 93/86/14 95/72/14 103/74/14
f 100/76/11 98/87/11 104/77/11
f 98/87/14 97/88/14 104/77/14
f 97/88/12 99/75/12 104/77/12
s 1
f 1/89/1 2/90/1 3/91/1 4/92/1 5/93/1 6/94/1
f 8/95/15 26/96/16 6/97/17
f 17/98/18 12/99/19 28/100/19 30/101/18
f 14/102/20 2/103/21 1/104/22
f 6/105/23 25/106/23 21/107/23 1/108/23
f 15/109/24 3/110/25 2/111/25 14/112/26
f 24/113/27 18/114/27 13/115/27 22/116/27
f 18/114/27 15/109/24 14/112/26 13/115/27
f 26/117/27 8/118/27 19/119/27 23/120/27
f 23/120/27 19/119/27 18/114/27 24/113/27
f 8/118/27 7/121/26 20/122/24 19/119/27
f 19/119/27 20/122/24 15/109/24 18/114/27
f 7/121/26 5/123/25 4/124/25 20/122/24
f 20/125/24 4/126/25 3/127/25 15/128/24
f 11/129/28 12/99/29 22/130/30 21/131/31
f 17/98/32 16/132/32 23/133/32 24/134/32
f 10/135/33 11/129/28 21/131/31 25/136/34
f 16/132/32 9/137/35 26/96/36 23/133/32
f 12/99/29 17/98/32 24/134/32 22/130/30
f 9/137/35 10/135/33 25/136/34 26/96/36
f 28/100/37 27/138/37 31/139/37 32/140/37 29/141/37 30/101/37
f 11/129/38 10/135/39 31/139/39 27/138/38
f 12/99/19 11/129/38 27/138/38 28/100/19
f 10/135/39 9/137/40 32/140/40 31/139/39
f 9/137/40 16/132/18 29/141/18 32/140/40
f 16/132/18 17/98/18 30/101/18 29/141/18
f 25/142/41 6/97/17 26/96/16
f 6/97/17 5/143/42 7/144/43
f 8/95/15 6/97/17 7/144/43
f 1/104/22 21/145/44 22/146/45
f 22/146/45 13/147/46 1/104/22
f 13/147/46 14/102/20 1/104/22
