# Blender v2.79 (sub 0) OBJ File: ''
# www.blender.org
mtllib BF_Massive_Halo_B.mtl
o Cube_Cube.005
v -0.500000 -2.500000 2.500000
v -0.500000 2.500000 2.500000
v -0.500000 2.500000 0.833334
v -0.500000 2.500000 -0.833333
v -0.500000 2.500000 -2.500000
v -0.500000 -2.500000 -2.500000
v -0.344651 1.168507 -1.833333
v -0.189301 -0.162987 -1.166667
v -0.033952 -1.494481 -0.500000
v -0.033952 -2.494481 -0.500000
v 0.938094 -3.975561 -0.885769
v 0.938094 -4.206147 -1.144611
v -0.033952 -2.494481 0.500000
v -0.033952 -1.494481 0.500000
v -0.189301 -0.162988 1.166667
v -0.344651 1.168506 1.833333
v -0.344651 1.168506 0.611111
v 0.938094 -3.975561 0.885766
v 2.038094 -3.975561 0.885766
v 2.038094 -3.975561 -0.885769
v -0.033952 -1.494481 -0.166667
v -0.033952 -1.494481 0.166666
v 0.938094 -4.527032 -0.241400
v 0.938094 -4.527032 0.241395
v 0.938094 -4.206147 1.144608
v 2.038094 -4.206147 -1.144611
v 2.038094 -4.206147 1.144608
v 2.038094 -4.527032 0.241395
v 2.038094 -4.527032 -0.241400
v 1.671427 -4.170108 -1.144611
v 1.304760 -4.170108 -1.144611
v 2.038094 -4.682505 -0.458410
v 2.038094 -4.313420 -2.146648
v 1.304760 -4.170108 1.144608
v 1.671427 -4.170108 1.144608
v 0.938094 -4.682505 0.458404
v 0.938094 -4.313422 2.146645
v 1.671427 -4.527032 0.241395
v 1.671427 -4.527032 -0.241400
v 1.304760 -4.527032 0.241395
v 1.304760 -4.682505 0.458404
v 2.038094 -4.682505 0.458404
v 1.671427 -4.682505 0.458404
v 1.304760 -4.527032 -0.241400
v 0.938094 -4.313420 -2.146648
v 0.938094 -4.682505 -0.458410
v 1.304760 -4.313422 2.146645
v 1.671427 -4.313422 2.146645
v 1.671427 -4.682505 -0.458410
v 1.671427 -4.313420 -2.146648
v 2.038094 -4.313422 2.146645
v 1.304760 -4.313420 -2.146648
v 1.304760 -4.682505 -0.458410
v -0.189301 -0.162987 0.388889
v -0.189301 -0.162987 -0.388889
v -0.344651 1.168506 -0.611111
v 2.038094 -3.620015 1.595471
v 2.038094 -3.806373 2.992211
v 1.671427 -3.806373 2.992211
v 1.671427 -3.613674 1.595471
v 1.304760 -3.613674 1.595471
v 2.038094 -3.620014 -1.595474
v 1.671427 -3.613674 -1.595474
v 1.304760 -3.806373 2.992211
v 2.038094 -3.806372 -2.992214
v 1.671427 -3.806372 -2.992214
v 1.304760 -3.613674 -1.595474
v 1.304760 -3.806372 -2.992214
v 0.938094 -3.620015 1.595471
v 0.938094 -3.806373 2.992211
v 0.938094 -3.620014 -1.595474
v 0.938094 -3.806372 -2.992214
vt 0.231103 0.971260
vt 0.433731 0.977461
vt 0.429597 0.864534
vt 0.425463 0.751607
vt 0.421330 0.638681
vt 0.218701 0.632480
vt 0.457646 0.510723
vt 0.482254 0.960173
vt 0.422711 0.845111
vt 0.363168 0.730049
vt 0.303625 0.614987
vt 0.303625 0.515254
vt 0.412554 0.683341
vt 0.478128 0.613281
vt 0.397361 0.842114
vt 0.368861 0.872564
vt 0.203237 0.515254
vt 0.203237 0.614987
vt 0.160099 0.732510
vt 0.116961 0.850033
vt 0.073824 0.967556
vt 0.049216 0.518106
vt 0.385467 1.006367
vt 0.338681 0.806367
vt 0.338681 0.706367
vt 0.385467 0.506367
vt 0.209035 0.818863
vt 0.200124 0.935566
vt 0.063981 0.938027
vt 0.107118 0.820504
vt 0.535264 0.825495
vt 0.586387 0.768896
vt 0.571687 0.810236
vt 0.538901 0.860024
vt 0.270162 0.614987
vt 0.236699 0.614987
vt 0.203237 0.524147
vt 0.303625 0.524147
vt 0.261129 0.569848
vt 0.361517 0.569848
vt 0.361517 0.756027
vt 0.328054 0.756027
vt 0.294592 0.756027
vt 0.261129 0.756027
vt 0.428600 0.660156
vt 0.461839 0.750038
vt 0.428600 0.941358
vt 0.414153 0.902294
vt 0.537145 0.850888
vt 0.551187 0.830113
vt 0.571562 0.831137
vt 0.559097 0.849593
vt 0.551069 0.849716
vt 0.543844 0.850253
vt 0.535881 0.860540
vt 0.536498 0.851914
vt 0.579329 0.807728
vt 0.575247 0.827570
vt 0.560651 0.840322
vt 0.547536 0.851483
vt 0.534067 0.859967
vt 0.528160 0.848207
vt 0.559219 0.816590
vt 0.571149 0.809000
vt 0.558248 0.833242
vt 0.551120 0.847515
vt 0.545004 0.860636
vt 0.534532 0.862169
vt 0.548015 0.860635
vt 0.556717 0.847846
vt 0.559639 0.854352
vt 0.546507 0.868915
vt 0.534838 0.856137
vt 0.544214 0.842455
vt 0.551721 0.841551
vt 0.542470 0.855262
vt 0.533015 0.855083
vt 0.525850 0.856261
vt 0.534759 0.843581
vt 0.541785 0.842381
vt 0.530042 0.824168
vt 0.569156 0.773715
vt 0.581173 0.763503
vt 0.545050 0.815300
vt 0.536867 0.827665
vt 0.547154 0.815195
vt 0.537099 0.843561
vt 0.527699 0.856941
vt 0.566058 0.834206
vt 0.577914 0.814293
vt 0.601312 0.781939
vt 0.578001 0.827144
vt 0.546507 0.868915
vt 0.548015 0.860635
vt 0.558785 0.839753
vt 0.582826 0.800583
vt 0.589288 0.803127
vt 0.567917 0.839870
vt 0.538407 0.855195
vt 0.558676 0.824602
vt 0.565228 0.825517
vt 0.546273 0.854397
vt 0.529805 0.845330
vt 0.560087 0.802746
vt 0.554348 0.820963
vt 0.531011 0.856200
vt 0.543447 0.841306
vt 0.579249 0.789278
vt 0.579190 0.796889
vt 0.550818 0.840353
vt 0.564147 0.860964
vt 0.547314 0.860055
vt 0.536002 0.843809
vt 0.543046 0.842744
vt 0.534318 0.855467
vt 0.527131 0.856510
vt 0.582826 0.800583
vt 0.589288 0.803127
vt 0.550482 0.841802
vt 0.558541 0.841238
vt 0.550040 0.853859
vt 0.541893 0.854514
vt 0.579190 0.796889
vt 0.577914 0.814293
vt 0.601312 0.781939
vt 0.575247 0.827570
vt 0.560651 0.840322
vt 0.571149 0.809000
vt 0.558248 0.833242
vt 0.226856 0.585458
vt 0.217945 0.702161
vt 0.150256 0.702981
vt 0.193394 0.585458
vt 0.293782 0.585458
vt 0.353324 0.700520
vt 0.285635 0.701340
vt 0.260319 0.585458
vt 0.412867 0.815582
vt 0.310951 0.817223
vt 0.472410 0.930644
vt 0.336267 0.933105
vt 0.680437 0.569963
vt 0.699552 0.688170
vt 0.551008 0.689081
vt 0.572320 0.571603
vt 0.553008 0.837526
vt 0.545794 0.838190
vt 0.569656 0.802132
vt 0.571930 0.807866
vt 0.561904 0.823551
vt 0.568838 0.824372
vt 0.555359 0.845004
vt 0.547434 0.845387
vt 0.556724 0.821112
vt 0.540291 0.845718
vt 0.557306 0.810279
vt 0.535521 0.842225
vt 0.560924 0.837057
vt 0.577150 0.810416
vt 0.540124 0.836752
vt 0.574856 0.787536
vt 0.546273 0.854397
vt 0.538407 0.855195
vt 0.531011 0.856200
vt 0.547536 0.851483
vt 0.535881 0.860540
vt 0.529805 0.845330
vt 0.559097 0.849593
vt 0.564147 0.860964
vt 0.551120 0.847515
vt 0.545004 0.860636
vt 0.528160 0.848207
vt 0.537145 0.850888
vt 0.579249 0.789278
vn -1.0000 0.0000 0.0000
vn 0.9739 0.0000 -0.2269
vn -0.0745 0.2053 -0.9759
vn 0.9739 -0.0000 0.2269
vn 0.0118 -0.9999 -0.0000
vn 0.9933 0.1159 0.0000
vn 0.0000 1.0000 0.0000
vn 0.9311 0.3648 0.0000
vn -0.8978 -0.4403 0.0000
vn -0.0745 0.2053 0.9759
vn 1.0000 -0.0000 0.0000
vn 0.0000 0.7816 -0.6237
vn 0.0000 0.7816 0.6237
vn 0.0000 -1.0000 -0.0000
vn 0.0000 -0.8129 -0.5824
vn 0.0000 -0.9769 -0.2136
vn 0.0000 -0.9769 0.2136
vn 0.0000 -0.8129 0.5824
vn 0.0000 -0.8576 -0.5143
vn 0.0358 0.6191 0.7845
vn -0.0358 0.6191 -0.7845
vn 0.0000 0.9906 0.1367
vn 0.0086 0.9909 -0.1345
vn 0.0000 0.9906 -0.1367
vn -0.0086 0.9909 -0.1345
vn 0.0086 0.9909 0.1345
vn -0.0086 0.9909 0.1345
vn 0.0000 -0.8576 0.5143
vn -0.0358 0.6191 0.7845
vn 0.0000 0.6295 0.7770
vn 0.0358 0.6191 -0.7845
vn 0.0000 0.6295 -0.7770
usemtl None.008
s 1
f 1/1/1 2/2/1 3/3/1 4/4/1 5/5/1 6/6/1
f 6/7/2 5/8/2 7/9/2 8/10/2 9/11/2 10/12/2
f 10/13/3 9/14/3 11/15/3 12/16/3
f 13/17/4 14/18/4 15/19/4 16/20/4 2/21/4 1/22/4
f 6/23/5 10/24/5 13/25/5 1/26/5
f 17/27/6 3/28/6 2/29/6 16/30/6
f 11/31/7 18/32/7 19/33/7 20/34/7
f 9/11/8 21/35/8 22/36/8 14/18/8 18/37/8 11/38/8
f 13/39/9 10/40/9 12/41/9 23/42/9 24/43/9 25/44/9
f 14/45/10 13/46/10 25/47/10 18/48/10
f 26/49/11 20/50/11 19/51/11 27/52/11 28/53/11 29/54/11
f 12/55/12 11/56/12 20/57/12 26/58/12 30/59/12 31/60/12
f 26/49/11 29/54/11 32/61/11 33/62/11
f 18/63/13 25/64/13 34/65/13 35/66/13 27/67/13 19/68/13
f 25/69/1 24/70/1 36/71/1 37/72/1
f 38/73/14 39/74/14 29/75/14 28/76/14
f 24/77/15 40/78/15 41/79/15 36/80/15
f 38/81/15 28/82/15 42/83/15 43/84/15
f 24/85/14 23/86/14 44/87/14 40/88/14
f 40/88/14 44/87/14 39/74/14 38/73/14
f 23/89/1 12/90/1 45/91/1 46/92/1
f 25/69/1 37/72/1 70/93/1 69/94/1
f 49/95/16 50/96/16 33/97/16 32/98/16
f 48/99/17 43/100/17 42/101/17 51/102/17
f 37/103/17 36/104/17 41/105/17 47/106/17
f 47/106/17 41/105/17 43/100/17 48/99/17
f 46/107/16 45/108/16 52/109/16 53/110/16
f 53/110/16 52/109/16 50/96/16 49/95/16
f 28/53/11 27/52/11 51/111/11 42/112/11
f 40/78/15 38/81/15 43/84/15 41/79/15
f 29/113/18 39/114/18 49/115/18 32/116/18
f 33/97/19 50/96/19 66/117/19 65/118/19
f 44/119/18 23/120/18 46/121/18 53/122/18
f 50/96/19 52/109/19 68/123/19 66/117/19
f 45/91/1 12/90/1 71/124/1 72/125/1
f 39/114/18 44/119/18 53/122/18 49/115/18
f 30/59/20 26/58/20 62/126/20 63/127/20
f 34/65/21 25/64/21 69/128/21 61/129/21
f 22/130/6 54/131/6 15/132/6 14/133/6
f 54/131/6 17/27/6 16/30/6 15/132/6
f 9/134/6 8/135/6 55/136/6 21/137/6
f 21/137/6 55/136/6 54/131/6 22/130/6
f 8/135/6 7/138/6 56/139/6 55/136/6
f 55/136/6 56/139/6 17/27/6 54/131/6
f 7/138/6 5/140/6 4/141/6 56/139/6
f 56/142/6 4/143/6 3/144/6 17/145/6
f 60/146/22 61/147/22 64/148/22 59/149/22
f 63/150/23 62/151/23 65/152/23 66/153/23
f 67/154/24 63/150/24 66/153/24 68/155/24
f 71/156/25 67/154/25 68/155/25 72/157/25
f 57/158/26 60/146/26 59/149/26 58/159/26
f 61/147/27 69/160/27 70/161/27 64/148/27
f 48/99/28 51/102/28 58/162/28 59/163/28
f 47/106/28 48/99/28 59/163/28 64/164/28
f 12/55/29 31/60/29 67/165/29 71/166/29
f 37/103/28 47/106/28 64/164/28 70/167/28
f 31/60/30 30/59/30 63/127/30 67/165/30
f 51/111/11 27/52/11 57/168/11 58/169/11
f 27/67/31 35/66/31 60/170/31 57/171/31
f 26/49/11 33/62/11 65/172/11 62/173/11
f 35/66/32 34/65/32 61/129/32 60/170/32
f 52/109/19 45/108/19 72/174/19 68/123/19
