# Blender v2.82 (sub 7) OBJ File: ''
# www.blender.org
mtllib IEC DirectionalShield ShieldPlate.mtl
o Cylinder_Cylinder.003
v -0.138400 0.000000 -4.092799
v 0.121600 0.000000 -4.092799
v -0.138400 -0.798465 -4.014157
v 0.121600 -0.798465 -4.014157
v -0.138400 -1.566246 -3.781253
v 0.121600 -1.566246 -3.781253
v -0.138400 -2.273837 -3.403038
v 0.121600 -2.273837 -3.403038
v -0.138400 -2.894045 -2.894045
v 0.121600 -2.894045 -2.894045
v -0.138400 -3.403038 -2.273837
v 0.121600 -3.403038 -2.273837
v -0.138400 -3.781253 -1.566246
v 0.121600 -3.781253 -1.566246
v -0.138400 -4.014157 -0.798466
v 0.121600 -4.014157 -0.798466
v -0.138400 -4.092799 -0.000000
v 0.121600 -4.092799 -0.000000
v -0.138400 -4.014157 0.798465
v 0.121600 -4.014157 0.798465
v -0.138400 -3.781253 1.566246
v 0.121600 -3.781253 1.566246
v -0.138400 -3.403038 2.273837
v 0.121600 -3.403038 2.273837
v -0.138400 -2.894046 2.894046
v 0.121600 -2.894046 2.894046
v -0.138400 -2.273837 3.403038
v 0.121600 -2.273837 3.403038
v -0.138400 -1.566246 3.781253
v 0.121600 -1.566246 3.781253
v -0.138400 -0.798464 4.014157
v 0.121600 -0.798464 4.014157
v -0.138400 0.000001 4.092799
v 0.121600 0.000001 4.092799
v -0.138400 0.798467 4.014156
v 0.121600 0.798467 4.014156
v -0.138400 1.566248 3.781252
v 0.121600 1.566248 3.781252
v -0.138400 2.273839 3.403036
v 0.121600 2.273839 3.403036
v -0.138400 2.894048 2.894044
v 0.121600 2.894048 2.894044
v -0.138400 3.403039 2.273835
v 0.121600 3.403039 2.273835
v -0.138400 3.781254 1.566243
v 0.121600 3.781254 1.566243
v -0.138400 4.014157 0.798462
v 0.121600 4.014157 0.798462
v -0.138400 4.092799 -0.000004
v 0.121600 4.092799 -0.000004
v -0.138400 4.014156 -0.798470
v 0.121600 4.014156 -0.798470
v -0.138400 3.781251 -1.566250
v 0.121600 3.781251 -1.566250
v -0.138400 3.403035 -2.273841
v 0.121600 3.403035 -2.273841
v -0.138400 2.894042 -2.894049
v 0.121600 2.894042 -2.894049
v -0.138400 2.273832 -3.403041
v 0.121600 2.273832 -3.403041
v -0.138400 1.566241 -3.781255
v 0.121600 1.566241 -3.781255
v -0.138400 0.798459 -4.014158
v 0.121600 0.798459 -4.014158
v -0.333400 -0.000000 -4.550000
v -0.333400 -0.887661 -4.462573
v -0.073400 -0.887661 -4.462573
v -0.073400 0.000000 -4.550000
v -0.333400 -1.741210 -4.203652
v -0.073400 -1.741210 -4.203652
v -0.333400 -2.527845 -3.783187
v -0.073400 -2.527845 -3.783187
v -0.333400 -3.217336 -3.217336
v -0.073400 -3.217336 -3.217336
v -0.333400 -3.783187 -2.527844
v -0.073400 -3.783187 -2.527844
v -0.333400 -4.203652 -1.741210
v -0.073400 -4.203652 -1.741210
v -0.333400 -4.462573 -0.887661
v -0.073400 -4.462573 -0.887661
v -0.333400 -4.550000 -0.000000
v -0.073400 -4.550000 -0.000000
v -0.333400 -4.462574 0.887660
v -0.073400 -4.462574 0.887660
v -0.333400 -4.203652 1.741209
v -0.073400 -4.203652 1.741209
v -0.333400 -3.783187 2.527844
v -0.073400 -3.783187 2.527844
v -0.333400 -3.217336 3.217336
v -0.073400 -3.217336 3.217336
v -0.333400 -2.527844 3.783187
v -0.073400 -2.527844 3.783187
v -0.333400 -1.741209 4.203652
v -0.073400 -1.741209 4.203652
v -0.333400 -0.887660 4.462574
v -0.073400 -0.887660 4.462574
v -0.333400 0.000001 4.550000
v -0.073400 0.000001 4.550000
v -0.333400 0.887663 4.462573
v -0.073400 0.887663 4.462573
v -0.333400 1.741212 4.203651
v -0.073400 1.741212 4.203651
v -0.333400 2.527847 3.783185
v -0.073400 2.527847 3.783185
v -0.333400 3.217338 3.217334
v -0.073400 3.217338 3.217334
v -0.333400 3.783189 2.527842
v -0.073400 3.783189 2.527842
v -0.333400 4.203653 1.741206
v -0.073400 4.203653 1.741206
v -0.333400 4.462574 0.887657
v -0.073400 4.462574 0.887657
v -0.333400 4.550000 -0.000004
v -0.073400 4.550000 -0.000004
v -0.333400 4.462572 -0.887666
v -0.073400 4.462572 -0.887666
v -0.333400 4.203650 -1.741214
v -0.073400 4.203650 -1.741214
v -0.333400 3.783184 -2.527849
v -0.073400 3.783184 -2.527849
v -0.333400 3.217332 -3.217340
v -0.073400 3.217332 -3.217340
v -0.333400 2.527840 -3.783190
v -0.073400 2.527840 -3.783190
v -0.333400 1.741204 -4.203655
v -0.073400 1.741204 -4.203655
v -0.333400 0.887654 -4.462574
v -0.073400 0.887654 -4.462574
vt 0.507712 0.836414
vt 0.507712 0.831959
vt 0.507991 0.831959
vt 0.507991 0.836414
vt 0.508269 0.831959
vt 0.508269 0.836414
vt 0.508548 0.831959
vt 0.508548 0.836414
vt 0.508826 0.831959
vt 0.508826 0.836414
vt 0.509105 0.831959
vt 0.509105 0.836414
vt 0.509383 0.831959
vt 0.509383 0.836414
vt 0.509662 0.831959
vt 0.509662 0.836414
vt 0.509940 0.831959
vt 0.509940 0.836414
vt 0.510219 0.831959
vt 0.510219 0.836414
vt 0.510497 0.831959
vt 0.510497 0.836414
vt 0.510776 0.831959
vt 0.510776 0.836414
vt 0.511054 0.831959
vt 0.511054 0.836414
vt 0.511332 0.831959
vt 0.511332 0.836414
vt 0.511611 0.831959
vt 0.511611 0.836414
vt 0.511889 0.831959
vt 0.511889 0.836414
vt 0.512168 0.831959
vt 0.512168 0.836414
vt 0.512446 0.831959
vt 0.512446 0.836414
vt 0.512725 0.831959
vt 0.512725 0.836414
vt 0.513003 0.831959
vt 0.513003 0.836414
vt 0.513282 0.831959
vt 0.513282 0.836414
vt 0.513560 0.831959
vt 0.513560 0.836414
vt 0.513839 0.831959
vt 0.513839 0.836414
vt 0.514117 0.831959
vt 0.514117 0.836414
vt 0.514395 0.831959
vt 0.514395 0.836414
vt 0.514674 0.831959
vt 0.514674 0.836414
vt 0.514952 0.831959
vt 0.514952 0.836414
vt 0.515231 0.831959
vt 0.515231 0.836414
vt 0.515509 0.831959
vt 0.515509 0.836414
vt 0.515788 0.831959
vt 0.515788 0.836414
vt 0.516066 0.831959
vt 0.516066 0.836414
vt 0.514020 0.836755
vt 0.514396 0.836718
vt 0.514771 0.836755
vt 0.515132 0.836865
vt 0.515464 0.837042
vt 0.515756 0.837281
vt 0.515995 0.837573
vt 0.516173 0.837906
vt 0.516282 0.838266
vt 0.516319 0.838642
vt 0.516282 0.839017
vt 0.516173 0.839378
vt 0.515995 0.839710
vt 0.515756 0.840002
vt 0.515464 0.840241
vt 0.515132 0.840419
vt 0.514771 0.840528
vt 0.514395 0.840565
vt 0.514020 0.840528
vt 0.513659 0.840419
vt 0.513327 0.840241
vt 0.513035 0.840002
vt 0.512796 0.839710
vt 0.512618 0.839378
vt 0.512509 0.839017
vt 0.512472 0.838642
vt 0.512509 0.838266
vt 0.512618 0.837906
vt 0.512796 0.837573
vt 0.513035 0.837281
vt 0.513327 0.837042
vt 0.513659 0.836864
vt 0.516345 0.831959
vt 0.516345 0.836414
vt 0.516623 0.831959
vt 0.516623 0.836414
vt 0.509940 0.836718
vt 0.509565 0.836755
vt 0.509204 0.836864
vt 0.508871 0.837042
vt 0.508580 0.837281
vt 0.508341 0.837573
vt 0.508163 0.837905
vt 0.508053 0.838266
vt 0.508016 0.838642
vt 0.508053 0.839017
vt 0.508163 0.839378
vt 0.508341 0.839710
vt 0.508580 0.840002
vt 0.508871 0.840241
vt 0.509204 0.840419
vt 0.509565 0.840528
vt 0.509940 0.840565
vt 0.510315 0.840528
vt 0.510676 0.840419
vt 0.511009 0.840241
vt 0.511300 0.840002
vt 0.511540 0.839710
vt 0.511717 0.839378
vt 0.511827 0.839017
vt 0.511864 0.838641
vt 0.511827 0.838266
vt 0.511717 0.837905
vt 0.511540 0.837573
vt 0.511300 0.837281
vt 0.511009 0.837042
vt 0.510676 0.836864
vt 0.510315 0.836755
vt 0.509940 0.836503
vt 0.509523 0.836544
vt 0.513978 0.836544
vt 0.514395 0.836503
vt 0.509122 0.836666
vt 0.513577 0.836666
vt 0.508752 0.836864
vt 0.513207 0.836864
vt 0.508428 0.837129
vt 0.512883 0.837129
vt 0.508162 0.837454
vt 0.512617 0.837454
vt 0.507964 0.837823
vt 0.512420 0.837823
vt 0.507843 0.838224
vt 0.512298 0.838224
vt 0.507802 0.838642
vt 0.512257 0.838642
vt 0.507843 0.839059
vt 0.512298 0.839059
vt 0.507964 0.839460
vt 0.512420 0.839460
vt 0.508162 0.839830
vt 0.512617 0.839830
vt 0.508428 0.840154
vt 0.512883 0.840154
vt 0.508752 0.840420
vt 0.513207 0.840420
vt 0.509122 0.840617
vt 0.513577 0.840617
vt 0.509523 0.840739
vt 0.513978 0.840739
vt 0.509940 0.840780
vt 0.514395 0.840780
vt 0.510357 0.840739
vt 0.514813 0.840739
vt 0.510759 0.840617
vt 0.515214 0.840617
vt 0.511128 0.840420
vt 0.515584 0.840420
vt 0.511452 0.840154
vt 0.515908 0.840154
vt 0.511718 0.839830
vt 0.516174 0.839830
vt 0.511916 0.839460
vt 0.516371 0.839460
vt 0.512038 0.839059
vt 0.516493 0.839059
vt 0.512079 0.838642
vt 0.516534 0.838642
vt 0.512038 0.838224
vt 0.516493 0.838224
vt 0.511916 0.837823
vt 0.516371 0.837823
vt 0.511718 0.837454
vt 0.516174 0.837454
vt 0.511452 0.837129
vt 0.515908 0.837129
vt 0.511128 0.836864
vt 0.515584 0.836864
vt 0.510759 0.836666
vt 0.515214 0.836666
vt 0.510357 0.836544
vt 0.514813 0.836544
vn 0.0000 -0.0980 -0.9952
vn 0.0000 -0.2903 -0.9569
vn 0.0000 -0.4714 -0.8819
vn 0.0000 -0.6344 -0.7730
vn 0.0000 -0.7730 -0.6344
vn 0.0000 -0.8819 -0.4714
vn 0.0000 -0.9569 -0.2903
vn 0.0000 -0.9952 -0.0980
vn 0.0000 -0.9952 0.0980
vn 0.0000 -0.9569 0.2903
vn 0.0000 -0.8819 0.4714
vn 0.0000 -0.7730 0.6344
vn 0.0000 -0.6344 0.7730
vn 0.0000 -0.4714 0.8819
vn 0.0000 -0.2903 0.9569
vn 0.0000 -0.0980 0.9952
vn 0.0000 0.0980 0.9952
vn 0.0000 0.2903 0.9569
vn 0.0000 0.4714 0.8819
vn 0.0000 0.6344 0.7730
vn 0.0000 0.7730 0.6344
vn 0.0000 0.8819 0.4714
vn 0.0000 0.9569 0.2903
vn 0.0000 0.9952 0.0980
vn 0.0000 0.9952 -0.0980
vn 0.0000 0.9569 -0.2903
vn 0.0000 0.8819 -0.4714
vn 0.0000 0.7730 -0.6344
vn 0.0000 0.6344 -0.7730
vn 0.0000 0.4714 -0.8819
vn 1.0000 0.0000 -0.0000
vn 0.0000 0.2903 -0.9569
vn -0.0000 0.0980 -0.9952
vn -1.0000 -0.0000 0.0000
vn -0.9191 0.0386 0.3920
vn 0.9191 -0.0386 -0.3920
vn -0.9191 0.1143 0.3770
vn 0.9191 -0.1143 -0.3770
vn -0.9191 0.1857 0.3474
vn 0.9191 -0.1857 -0.3474
vn -0.9191 0.2499 0.3045
vn 0.9191 -0.2499 -0.3045
vn -0.9191 0.3045 0.2499
vn 0.9191 -0.3045 -0.2499
vn -0.9191 0.3474 0.1857
vn 0.9191 -0.3474 -0.1857
vn -0.9191 0.3770 0.1143
vn 0.9191 -0.3770 -0.1143
vn -0.9191 0.3920 0.0386
vn 0.9191 -0.3920 -0.0386
vn -0.9191 0.3920 -0.0386
vn 0.9191 -0.3920 0.0386
vn -0.9191 0.3770 -0.1143
vn 0.9191 -0.3770 0.1143
vn -0.9191 0.3474 -0.1857
vn 0.9191 -0.3474 0.1857
vn -0.9191 0.3045 -0.2499
vn 0.9191 -0.3045 0.2499
vn -0.9191 0.2499 -0.3045
vn 0.9191 -0.2499 0.3045
vn -0.9191 0.1857 -0.3474
vn 0.9191 -0.1857 0.3474
vn -0.9191 0.1143 -0.3770
vn 0.9191 -0.1143 0.3770
vn -0.9191 0.0386 -0.3920
vn 0.9191 -0.0386 0.3920
vn -0.9191 -0.0386 -0.3920
vn 0.9191 0.0386 0.3920
vn -0.9191 -0.1143 -0.3770
vn 0.9191 0.1143 0.3770
vn -0.9191 -0.1857 -0.3474
vn 0.9191 0.1857 0.3474
vn -0.9191 -0.2499 -0.3045
vn 0.9191 0.2499 0.3045
vn -0.9191 -0.3045 -0.2499
vn 0.9191 0.3045 0.2499
vn -0.9191 -0.3474 -0.1857
vn 0.9191 0.3474 0.1857
vn -0.9191 -0.3770 -0.1143
vn 0.9191 0.3770 0.1143
vn -0.9191 -0.3920 -0.0386
vn 0.9191 0.3920 0.0386
vn -0.9191 -0.3920 0.0386
vn 0.9191 0.3920 -0.0386
vn -0.9191 -0.3770 0.1143
vn 0.9191 0.3770 -0.1143
vn -0.9191 -0.3474 0.1857
vn 0.9191 0.3474 -0.1857
vn -0.9191 -0.3045 0.2499
vn 0.9191 0.3045 -0.2499
vn -0.9191 -0.2499 0.3045
vn 0.9191 0.2499 -0.3045
vn -0.9191 -0.1857 0.3474
vn 0.9191 0.1857 -0.3474
vn -0.9191 -0.1143 0.3770
vn 0.9191 0.1143 -0.3770
vn -0.9191 -0.0386 0.3920
vn 0.9191 0.0386 -0.3920
usemtl Material.004
s off
f 65/1/1 68/2/1 67/3/1 66/4/1
f 66/4/2 67/3/2 70/5/2 69/6/2
f 69/6/3 70/5/3 72/7/3 71/8/3
f 71/8/4 72/7/4 74/9/4 73/10/4
f 73/10/5 74/9/5 76/11/5 75/12/5
f 75/12/6 76/11/6 78/13/6 77/14/6
f 77/14/7 78/13/7 80/15/7 79/16/7
f 79/16/8 80/15/8 82/17/8 81/18/8
f 81/18/9 82/17/9 84/19/9 83/20/9
f 83/20/10 84/19/10 86/21/10 85/22/10
f 85/22/11 86/21/11 88/23/11 87/24/11
f 87/24/12 88/23/12 90/25/12 89/26/12
f 89/26/13 90/25/13 92/27/13 91/28/13
f 91/28/14 92/27/14 94/29/14 93/30/14
f 93/30/15 94/29/15 96/31/15 95/32/15
f 95/32/16 96/31/16 98/33/16 97/34/16
f 97/34/17 98/33/17 100/35/17 99/36/17
f 99/36/18 100/35/18 102/37/18 101/38/18
f 101/38/19 102/37/19 104/39/19 103/40/19
f 103/40/20 104/39/20 106/41/20 105/42/20
f 105/42/21 106/41/21 108/43/21 107/44/21
f 107/44/22 108/43/22 110/45/22 109/46/22
f 109/46/23 110/45/23 112/47/23 111/48/23
f 111/48/24 112/47/24 114/49/24 113/50/24
f 113/50/25 114/49/25 116/51/25 115/52/25
f 115/52/26 116/51/26 118/53/26 117/54/26
f 117/54/27 118/53/27 120/55/27 119/56/27
f 119/56/28 120/55/28 122/57/28 121/58/28
f 121/58/29 122/57/29 124/59/29 123/60/29
f 123/60/30 124/59/30 126/61/30 125/62/30
f 4/63/31 2/64/31 64/65/31 62/66/31 60/67/31 58/68/31 56/69/31 54/70/31 52/71/31 50/72/31 48/73/31 46/74/31 44/75/31 42/76/31 40/77/31 38/78/31 36/79/31 34/80/31 32/81/31 30/82/31 28/83/31 26/84/31 24/85/31 22/86/31 20/87/31 18/88/31 16/89/31 14/90/31 12/91/31 10/92/31 8/93/31 6/94/31
f 125/62/32 126/61/32 128/95/32 127/96/32
f 127/96/33 128/95/33 68/97/33 65/98/33
f 1/99/34 3/100/34 5/101/34 7/102/34 9/103/34 11/104/34 13/105/34 15/106/34 17/107/34 19/108/34 21/109/34 23/110/34 25/111/34 27/112/34 29/113/34 31/114/34 33/115/34 35/116/34 37/117/34 39/118/34 41/119/34 43/120/34 45/121/34 47/122/34 49/123/34 51/124/34 53/125/34 55/126/34 57/127/34 59/128/34 61/129/34 63/130/34
f 3/100/35 1/99/35 65/131/35 66/132/35
f 2/64/36 4/63/36 67/133/36 68/134/36
f 5/101/37 3/100/37 66/132/37 69/135/37
f 4/63/38 6/94/38 70/136/38 67/133/38
f 7/102/39 5/101/39 69/135/39 71/137/39
f 6/94/40 8/93/40 72/138/40 70/136/40
f 9/103/41 7/102/41 71/137/41 73/139/41
f 8/93/42 10/92/42 74/140/42 72/138/42
f 11/104/43 9/103/43 73/139/43 75/141/43
f 10/92/44 12/91/44 76/142/44 74/140/44
f 13/105/45 11/104/45 75/141/45 77/143/45
f 12/91/46 14/90/46 78/144/46 76/142/46
f 15/106/47 13/105/47 77/143/47 79/145/47
f 14/90/48 16/89/48 80/146/48 78/144/48
f 17/107/49 15/106/49 79/145/49 81/147/49
f 16/89/50 18/88/50 82/148/50 80/146/50
f 19/108/51 17/107/51 81/147/51 83/149/51
f 18/88/52 20/87/52 84/150/52 82/148/52
f 21/109/53 19/108/53 83/149/53 85/151/53
f 20/87/54 22/86/54 86/152/54 84/150/54
f 23/110/55 21/109/55 85/151/55 87/153/55
f 22/86/56 24/85/56 88/154/56 86/152/56
f 25/111/57 23/110/57 87/153/57 89/155/57
f 24/85/58 26/84/58 90/156/58 88/154/58
f 27/112/59 25/111/59 89/155/59 91/157/59
f 26/84/60 28/83/60 92/158/60 90/156/60
f 29/113/61 27/112/61 91/157/61 93/159/61
f 28/83/62 30/82/62 94/160/62 92/158/62
f 31/114/63 29/113/63 93/159/63 95/161/63
f 30/82/64 32/81/64 96/162/64 94/160/64
f 33/115/65 31/114/65 95/161/65 97/163/65
f 32/81/66 34/80/66 98/164/66 96/162/66
f 35/116/67 33/115/67 97/163/67 99/165/67
f 34/80/68 36/79/68 100/166/68 98/164/68
f 37/117/69 35/116/69 99/165/69 101/167/69
f 36/79/70 38/78/70 102/168/70 100/166/70
f 39/118/71 37/117/71 101/167/71 103/169/71
f 38/78/72 40/77/72 104/170/72 102/168/72
f 41/119/73 39/118/73 103/169/73 105/171/73
f 40/77/74 42/76/74 106/172/74 104/170/74
f 43/120/75 41/119/75 105/171/75 107/173/75
f 42/76/76 44/75/76 108/174/76 106/172/76
f 45/121/77 43/120/77 107/173/77 109/175/77
f 44/75/78 46/74/78 110/176/78 108/174/78
f 47/122/79 45/121/79 109/175/79 111/177/79
f 46/74/80 48/73/80 112/178/80 110/176/80
f 49/123/81 47/122/81 111/177/81 113/179/81
f 48/73/82 50/72/82 114/180/82 112/178/82
f 51/124/83 49/123/83 113/179/83 115/181/83
f 50/72/84 52/71/84 116/182/84 114/180/84
f 53/125/85 51/124/85 115/181/85 117/183/85
f 52/71/86 54/70/86 118/184/86 116/182/86
f 55/126/87 53/125/87 117/183/87 119/185/87
f 54/70/88 56/69/88 120/186/88 118/184/88
f 57/127/89 55/126/89 119/185/89 121/187/89
f 56/69/90 58/68/90 122/188/90 120/186/90
f 59/128/91 57/127/91 121/187/91 123/189/91
f 58/68/92 60/67/92 124/190/92 122/188/92
f 61/129/93 59/128/93 123/189/93 125/191/93
f 60/67/94 62/66/94 126/192/94 124/190/94
f 63/130/95 61/129/95 125/191/95 127/193/95
f 62/66/96 64/65/96 128/194/96 126/192/96
f 1/99/97 63/130/97 127/193/97 65/131/97
f 64/65/98 2/64/98 68/134/98 128/194/98
