# Blender v2.82 (sub 7) OBJ File: ''
# www.blender.org
mtllib IEC DirectionalShield ShieldPattern.mtl
o honeycomb.003
v 0.186600 -1.467083 3.290625
v 0.186600 -2.100364 2.925000
v 0.186600 -0.059792 3.290625
v 0.186600 -0.693073 2.925000
v 0.186600 -1.326354 3.290625
v 0.186600 1.347500 3.290625
v 0.186600 0.714218 2.925000
v 0.186600 0.080937 3.290625
v 0.186600 2.121510 2.925000
v 0.186600 1.488229 3.290625
v 0.186600 -2.170729 2.071875
v 0.186600 -2.804010 1.706250
v 0.186600 -2.170729 2.803125
v 0.186600 -0.763437 2.071875
v 0.186600 -1.396719 1.706250
v 0.186600 -2.029999 2.071875
v 0.186600 -2.029999 2.803125
v 0.186600 -1.396719 3.168750
v 0.186600 -0.763437 2.803125
v 0.186600 0.643854 2.071875
v 0.186600 0.010573 1.706250
v 0.186600 -0.622708 2.071875
v 0.186600 -0.622708 2.803125
v 0.186600 0.010573 3.168750
v 0.186600 0.643854 2.803125
v 0.186600 2.051146 2.071875
v 0.186600 1.417864 1.706250
v 0.186600 0.784583 2.071875
v 0.186600 0.784583 2.803125
v 0.186600 1.417864 3.168750
v 0.186600 2.051146 2.803125
v 0.186600 2.825156 1.706250
v 0.186600 2.191875 2.071875
v 0.186600 2.191875 2.803125
v 0.186600 -2.874374 0.853125
v 0.186600 -2.874374 1.584375
v 0.186600 -1.467083 0.853125
v 0.186600 -2.100364 0.487500
v 0.186600 -2.733645 0.853125
v 0.186600 -2.733645 1.584375
v 0.186600 -2.100364 1.950000
v 0.186600 -1.467083 1.584375
v 0.186600 -0.059792 0.853125
v 0.186600 -0.693073 0.487500
v 0.186600 -1.326354 0.853125
v 0.186600 -1.326354 1.584375
v 0.186600 -0.693073 1.950000
v 0.186600 -0.059792 1.584375
v 0.186600 1.347500 0.853125
v 0.186600 0.714218 0.487500
v 0.186600 0.080937 0.853125
v 0.186600 0.080937 1.584375
v 0.186600 0.714218 1.950000
v 0.186600 1.347500 1.584375
v 0.186600 2.754791 0.853125
v 0.186600 2.121510 0.487500
v 0.186600 1.488229 0.853125
v 0.186600 1.488229 1.584375
v 0.186600 2.121510 1.950000
v 0.186600 2.754791 1.584375
v 0.186600 2.895520 0.853125
v 0.186600 2.895520 1.584375
v 0.186600 -2.170729 -0.365625
v 0.186600 -2.804010 -0.731250
v 0.186600 -2.804010 0.731250
v 0.186600 -2.170729 0.365625
v 0.186600 -0.763437 -0.365625
v 0.186600 -1.396719 -0.731250
v 0.186600 -2.029999 -0.365625
v 0.186600 -2.029999 0.365625
v 0.186600 -1.396719 0.731250
v 0.186600 -0.763437 0.365625
v 0.186600 0.643854 -0.365625
v 0.186600 0.010573 -0.731250
v 0.186600 -0.622708 -0.365625
v 0.186600 -0.622708 0.365625
v 0.186600 0.010573 0.731250
v 0.186600 0.643854 0.365625
v 0.186600 2.051146 -0.365625
v 0.186600 1.417864 -0.731250
v 0.186600 0.784583 -0.365625
v 0.186600 0.784583 0.365625
v 0.186600 1.417864 0.731250
v 0.186600 2.051146 0.365625
v 0.186600 2.825156 -0.731250
v 0.186600 2.191875 -0.365625
v 0.186600 2.191875 0.365625
v 0.186600 2.825156 0.731250
v 0.186600 -2.874374 -1.584375
v 0.186600 -2.874374 -0.853125
v 0.186600 -1.467083 -1.584375
v 0.186600 -2.100364 -1.950000
v 0.186600 -2.733645 -1.584375
v 0.186600 -2.733645 -0.853125
v 0.186600 -2.100364 -0.487500
v 0.186600 -1.467083 -0.853125
v 0.186600 -0.059792 -1.584375
v 0.186600 -0.693073 -1.950000
v 0.186600 -1.326354 -1.584375
v 0.186600 -1.326354 -0.853125
v 0.186600 -0.693073 -0.487500
v 0.186600 -0.059792 -0.853125
v 0.186600 1.347500 -1.584375
v 0.186600 0.714218 -1.950000
v 0.186600 0.080937 -1.584375
v 0.186600 0.080937 -0.853125
v 0.186600 0.714218 -0.487500
v 0.186600 1.347500 -0.853125
v 0.186600 2.754791 -1.584375
v 0.186600 2.121510 -1.950000
v 0.186600 1.488229 -1.584375
v 0.186600 1.488229 -0.853125
v 0.186600 2.121510 -0.487500
v 0.186600 2.754791 -0.853125
v 0.186600 2.895520 -1.584375
v 0.186600 2.895520 -0.853125
v 0.186600 -2.170729 -2.803125
v 0.186600 -2.804010 -1.706250
v 0.186600 -2.170729 -2.071875
v 0.186600 -0.763437 -2.803125
v 0.186600 -1.396719 -3.168750
v 0.186600 -2.029999 -2.803125
v 0.186600 -2.029999 -2.071875
v 0.186600 -1.396719 -1.706250
v 0.186600 -0.763437 -2.071875
v 0.186600 0.643854 -2.803125
v 0.186600 0.010573 -3.168750
v 0.186600 -0.622708 -2.803125
v 0.186600 -0.622708 -2.071875
v 0.186600 0.010573 -1.706250
v 0.186600 0.643854 -2.071875
v 0.186600 2.051146 -2.803125
v 0.186600 1.417864 -3.168750
v 0.186600 0.784583 -2.803125
v 0.186600 0.784583 -2.071875
v 0.186600 1.417864 -1.706250
v 0.186600 2.051146 -2.071875
v 0.186600 2.191875 -2.803125
v 0.186600 2.191875 -2.071875
v 0.186600 2.825156 -1.706250
v 0.186600 -2.100364 -2.925000
v 0.186600 -1.467083 -3.290625
v 0.186600 -1.326354 -3.290625
v 0.186600 -0.693073 -2.925000
v 0.186600 -0.059792 -3.290625
v 0.186600 0.080937 -3.290625
v 0.186600 0.714218 -2.925000
v 0.186600 1.347500 -3.290625
v 0.186600 1.488229 -3.290625
v 0.186600 2.121510 -2.925000
vt 0.525908 0.801275
vt 0.525433 0.801000
vt 0.525380 0.801092
vt 0.525855 0.801366
vt 0.525327 0.801000
vt 0.526964 0.801275
vt 0.526489 0.801000
vt 0.526436 0.801092
vt 0.526912 0.801366
vt 0.526383 0.801000
vt 0.528021 0.801275
vt 0.527545 0.801000
vt 0.527493 0.801092
vt 0.527968 0.801366
vt 0.527440 0.801000
vt 0.525433 0.805941
vt 0.525380 0.805849
vt 0.525327 0.805941
vt 0.525908 0.805666
vt 0.525855 0.805575
vt 0.526489 0.805941
vt 0.526436 0.805849
vt 0.526383 0.805941
vt 0.526964 0.805666
vt 0.526912 0.805575
vt 0.527545 0.805941
vt 0.527493 0.805849
vt 0.527440 0.805941
vt 0.528021 0.805666
vt 0.527968 0.805575
vt 0.525380 0.802190
vt 0.524904 0.801915
vt 0.524852 0.802007
vt 0.525327 0.802281
vt 0.524799 0.801915
vt 0.524904 0.801366
vt 0.524799 0.801366
vt 0.524852 0.801275
vt 0.526436 0.802190
vt 0.525961 0.801915
vt 0.525908 0.802007
vt 0.526383 0.802281
vt 0.525855 0.801915
vt 0.525961 0.801366
vt 0.527493 0.802190
vt 0.527017 0.801915
vt 0.526964 0.802007
vt 0.527440 0.802281
vt 0.526912 0.801915
vt 0.527017 0.801366
vt 0.524852 0.803105
vt 0.524376 0.802830
vt 0.524324 0.802922
vt 0.524799 0.803196
vt 0.524271 0.802830
vt 0.524376 0.802281
vt 0.524271 0.802281
vt 0.524324 0.802190
vt 0.525908 0.803105
vt 0.525433 0.802830
vt 0.525380 0.802922
vt 0.525855 0.803196
vt 0.525327 0.802830
vt 0.525433 0.802281
vt 0.526964 0.803105
vt 0.526489 0.802830
vt 0.526436 0.802922
vt 0.526912 0.803196
vt 0.526383 0.802830
vt 0.526489 0.802281
vt 0.528021 0.803105
vt 0.527545 0.802830
vt 0.527493 0.802922
vt 0.527968 0.803196
vt 0.527440 0.802830
vt 0.527545 0.802281
vt 0.528021 0.802007
vt 0.527968 0.801915
vt 0.525380 0.804019
vt 0.524904 0.803745
vt 0.524852 0.803836
vt 0.525327 0.804111
vt 0.524799 0.803745
vt 0.524904 0.803196
vt 0.526436 0.804019
vt 0.525961 0.803745
vt 0.525908 0.803836
vt 0.526383 0.804111
vt 0.525855 0.803745
vt 0.525961 0.803196
vt 0.527493 0.804019
vt 0.527017 0.803745
vt 0.526964 0.803836
vt 0.527440 0.804111
vt 0.526912 0.803745
vt 0.527017 0.803196
vt 0.524852 0.804934
vt 0.524376 0.804660
vt 0.524324 0.804751
vt 0.524799 0.805026
vt 0.524271 0.804660
vt 0.524376 0.804111
vt 0.524271 0.804111
vt 0.524324 0.804019
vt 0.525908 0.804934
vt 0.525433 0.804660
vt 0.525380 0.804751
vt 0.525855 0.805026
vt 0.525327 0.804660
vt 0.525433 0.804111
vt 0.526964 0.804934
vt 0.526489 0.804660
vt 0.526436 0.804751
vt 0.526912 0.805026
vt 0.526383 0.804660
vt 0.526489 0.804111
vt 0.528021 0.804934
vt 0.527545 0.804660
vt 0.527493 0.804751
vt 0.527968 0.805026
vt 0.527440 0.804660
vt 0.527545 0.804111
vt 0.528021 0.803836
vt 0.527968 0.803745
vt 0.524904 0.805575
vt 0.524852 0.805666
vt 0.524799 0.805575
vt 0.524904 0.805026
vt 0.525961 0.805575
vt 0.525961 0.805026
vt 0.527017 0.805575
vt 0.527017 0.805026
vt 0.528549 0.802190
vt 0.528074 0.801915
vt 0.528496 0.802281
vt 0.528074 0.801366
vt 0.528602 0.802830
vt 0.528496 0.802830
vt 0.528549 0.802922
vt 0.528602 0.802281
vt 0.528549 0.804019
vt 0.528074 0.803745
vt 0.528496 0.804111
vt 0.528074 0.803196
vt 0.528602 0.804660
vt 0.528496 0.804660
vt 0.528549 0.804751
vt 0.528602 0.804111
vt 0.528074 0.805575
vt 0.528074 0.805026
vn 1.0000 -0.0000 0.0000
usemtl Material.005
s off
f 4/1/1 5/2/1 18/3/1 19/4/1
f 5/2/1 1/5/1 18/3/1
f 7/6/1 8/7/1 24/8/1 25/9/1
f 8/7/1 3/10/1 24/8/1
f 9/11/1 10/12/1 30/13/1 31/14/1
f 10/12/1 6/15/1 30/13/1
f 143/16/1 121/17/1 142/18/1
f 143/16/1 144/19/1 120/20/1 121/17/1
f 146/21/1 127/22/1 145/23/1
f 146/21/1 147/24/1 126/25/1 127/22/1
f 149/26/1 133/27/1 148/28/1
f 149/26/1 150/29/1 132/30/1 133/27/1
f 15/31/1 16/32/1 41/33/1 42/34/1
f 16/32/1 11/35/1 41/33/1
f 16/32/1 17/36/1 13/37/1 11/35/1
f 17/36/1 2/38/1 13/37/1
f 17/36/1 18/3/1 1/5/1 2/38/1
f 21/39/1 22/40/1 47/41/1 48/42/1
f 22/40/1 14/43/1 47/41/1
f 22/40/1 23/44/1 19/4/1 14/43/1
f 23/44/1 4/1/1 19/4/1
f 23/44/1 24/8/1 3/10/1 4/1/1
f 27/45/1 28/46/1 53/47/1 54/48/1
f 28/46/1 20/49/1 53/47/1
f 28/46/1 29/50/1 25/9/1 20/49/1
f 29/50/1 7/6/1 25/9/1
f 29/50/1 30/13/1 6/15/1 7/6/1
f 38/51/1 39/52/1 65/53/1 66/54/1
f 39/52/1 35/55/1 65/53/1
f 39/52/1 40/56/1 36/57/1 35/55/1
f 40/56/1 12/58/1 36/57/1
f 40/56/1 41/33/1 11/35/1 12/58/1
f 44/59/1 45/60/1 71/61/1 72/62/1
f 45/60/1 37/63/1 71/61/1
f 45/60/1 46/64/1 42/34/1 37/63/1
f 46/64/1 15/31/1 42/34/1
f 46/64/1 47/41/1 14/43/1 15/31/1
f 50/65/1 51/66/1 77/67/1 78/68/1
f 51/66/1 43/69/1 77/67/1
f 51/66/1 52/70/1 48/42/1 43/69/1
f 52/70/1 21/39/1 48/42/1
f 52/70/1 53/47/1 20/49/1 21/39/1
f 56/71/1 57/72/1 83/73/1 84/74/1
f 57/72/1 49/75/1 83/73/1
f 57/72/1 58/76/1 54/48/1 49/75/1
f 58/76/1 27/45/1 54/48/1
f 58/76/1 59/77/1 26/78/1 27/45/1
f 68/79/1 69/80/1 95/81/1 96/82/1
f 69/80/1 63/83/1 95/81/1
f 69/80/1 70/84/1 66/54/1 63/83/1
f 70/84/1 38/51/1 66/54/1
f 70/84/1 71/61/1 37/63/1 38/51/1
f 74/85/1 75/86/1 101/87/1 102/88/1
f 75/86/1 67/89/1 101/87/1
f 75/86/1 76/90/1 72/62/1 67/89/1
f 76/90/1 44/59/1 72/62/1
f 76/90/1 77/67/1 43/69/1 44/59/1
f 80/91/1 81/92/1 107/93/1 108/94/1
f 81/92/1 73/95/1 107/93/1
f 81/92/1 82/96/1 78/68/1 73/95/1
f 82/96/1 50/65/1 78/68/1
f 82/96/1 83/73/1 49/75/1 50/65/1
f 92/97/1 93/98/1 118/99/1 119/100/1
f 93/98/1 89/101/1 118/99/1
f 93/98/1 94/102/1 90/103/1 89/101/1
f 94/102/1 64/104/1 90/103/1
f 94/102/1 95/81/1 63/83/1 64/104/1
f 98/105/1 99/106/1 124/107/1 125/108/1
f 99/106/1 91/109/1 124/107/1
f 99/106/1 100/110/1 96/82/1 91/109/1
f 100/110/1 68/79/1 96/82/1
f 100/110/1 101/87/1 67/89/1 68/79/1
f 104/111/1 105/112/1 130/113/1 131/114/1
f 105/112/1 97/115/1 130/113/1
f 105/112/1 106/116/1 102/88/1 97/115/1
f 106/116/1 74/85/1 102/88/1
f 106/116/1 107/93/1 73/95/1 74/85/1
f 110/117/1 111/118/1 136/119/1 137/120/1
f 111/118/1 103/121/1 136/119/1
f 111/118/1 112/122/1 108/94/1 103/121/1
f 112/122/1 80/91/1 108/94/1
f 112/122/1 113/123/1 79/124/1 80/91/1
f 121/17/1 122/125/1 141/126/1 142/18/1
f 122/125/1 117/127/1 141/126/1
f 122/125/1 123/128/1 119/100/1 117/127/1
f 123/128/1 92/97/1 119/100/1
f 123/128/1 124/107/1 91/109/1 92/97/1
f 127/22/1 128/129/1 144/19/1 145/23/1
f 128/129/1 120/20/1 144/19/1
f 128/129/1 129/130/1 125/108/1 120/20/1
f 129/130/1 98/105/1 125/108/1
f 129/130/1 130/113/1 97/115/1 98/105/1
f 133/27/1 134/131/1 147/24/1 148/28/1
f 134/131/1 126/25/1 147/24/1
f 134/131/1 135/132/1 131/114/1 126/25/1
f 135/132/1 104/111/1 131/114/1
f 135/132/1 136/119/1 103/121/1 104/111/1
f 32/133/1 33/134/1 59/77/1 60/135/1
f 33/134/1 26/78/1 59/77/1
f 33/134/1 34/136/1 31/14/1 26/78/1
f 34/136/1 9/11/1 31/14/1
f 61/137/1 55/138/1 88/139/1
f 61/137/1 62/140/1 60/135/1 55/138/1
f 62/140/1 32/133/1 60/135/1
f 85/141/1 86/142/1 113/123/1 114/143/1
f 86/142/1 79/124/1 113/123/1
f 86/142/1 87/144/1 84/74/1 79/124/1
f 87/144/1 56/71/1 84/74/1
f 87/144/1 88/139/1 55/138/1 56/71/1
f 115/145/1 109/146/1 140/147/1
f 115/145/1 116/148/1 114/143/1 109/146/1
f 116/148/1 85/141/1 114/143/1
f 138/149/1 132/30/1 150/29/1
f 138/149/1 139/150/1 137/120/1 132/30/1
f 139/150/1 110/117/1 137/120/1
f 139/150/1 140/147/1 109/146/1 110/117/1
