# Blender v2.82 (sub 7) OBJ File: 'VEN_Charge_Capacitor.blend'
# www.blender.org
mtllib VEN_Charge_Capacitor_LED.mtl
v 0.551910 0.628841 -0.158650
v 0.551735 0.740515 -0.084632
v 0.551626 0.841977 0.002894
v 0.551592 0.928810 0.100171
v 0.551706 0.766283 -0.065321
v 0.551862 0.657864 -0.141659
v 0.448379 0.867451 0.027130
v 0.448130 0.657864 -0.141659
v 0.448400 0.928810 0.100171
v 0.448366 0.841977 0.002894
v 0.448258 0.740515 -0.084632
v 0.552169 0.498460 -0.217753
v 0.552109 0.532790 -0.203164
v 0.552400 0.400905 -0.246193
v 0.551613 0.867451 0.027130
v 0.447593 0.400905 -0.246193
v 0.447883 0.532790 -0.203164
v 0.448287 0.766283 -0.065321
v 0.448083 0.628841 -0.158650
v 0.447823 0.498460 -0.217753
vt 0.100431 0.024653
vt 0.101356 0.081840
vt 0.030129 0.082193
vt 0.031001 0.025030
vt 0.096409 0.408039
vt 0.096255 0.476998
vt 0.024772 0.477194
vt 0.023890 0.408279
vt 0.098484 0.149244
vt 0.099161 0.220425
vt 0.026486 0.220732
vt 0.026849 0.149588
vt 0.099296 0.265374
vt 0.099498 0.335918
vt 0.026825 0.336170
vt 0.026469 0.265669
vt 0.096164 0.534436
vt 0.095706 0.589235
vt 0.026282 0.589384
vt 0.025070 0.534621
vn -0.0000 0.2799 -0.9600
vn -0.0000 0.6695 -0.7429
vn -0.0000 0.4205 -0.9073
vn -0.0000 0.5679 -0.8231
vn -0.0000 0.7657 -0.6432
usemtl _auto_.001
s 1
f 16/1/1 20/2/1 12/3/1 14/4/1
f 18/5/2 10/6/2 3/7/2 5/8/2
f 17/9/3 19/10/3 1/11/3 13/12/3
f 8/13/4 11/14/4 2/15/4 6/16/4
f 7/17/5 9/18/5 4/19/5 15/20/5
