# Blender v2.91.2 OBJ File: 'Barrel Bombs.blend'
# www.blender.org
mtllib OS_Med_Fuel_LED3.mtl
o 3_Battery_LEDs_GT_Eco_Battery.010
v -0.411014 0.499999 0.174684
v -0.411014 0.500001 0.041630
v -0.411014 0.322204 0.272569
v -0.411014 0.677795 0.272569
v -0.411014 0.677795 0.149304
v -0.411014 0.677795 -0.091422
v -0.411014 0.500001 -0.091422
v -0.411014 0.322205 -0.091422
v -0.411014 0.322204 0.149304
v 1.411015 0.499999 0.174683
v 1.411015 0.500001 0.041630
v 1.411015 0.677795 0.272568
v 1.411015 0.322204 0.272568
v 1.411015 0.322204 0.149304
v 1.411015 0.322205 -0.091423
v 1.411015 0.500001 -0.091423
v 1.411015 0.677795 -0.091423
v 1.411015 0.677795 0.149304
vt 0.111106 0.390413
vt 0.111106 0.492413
vt 0.060107 0.492413
vt 0.060107 0.390413
vt 0.009107 0.492413
vt 0.009107 0.390413
vt 0.111106 0.517913
vt 0.111106 0.619913
vt 0.060107 0.619913
vt 0.060107 0.517913
vt 0.009107 0.619913
vt 0.009107 0.517913
vt 0.009107 0.390413
vt 0.009107 0.492413
vt 0.060107 0.492413
vt 0.060107 0.390413
vt 0.111106 0.492413
vt 0.111106 0.390413
vt 0.009107 0.517913
vt 0.009107 0.619913
vt 0.060107 0.619913
vt 0.060107 0.517913
vt 0.111106 0.619913
vt 0.111106 0.517913
vn -1.0000 0.0000 0.0000
vn 1.0000 0.0000 0.0000
usemtl Material.026
s 1
f 4/1/1 5/2/1 2/3/1 1/4/1
f 1/4/1 2/3/1 9/5/1 3/6/1
f 5/7/1 6/8/1 7/9/1 2/10/1
f 2/10/1 7/9/1 8/11/1 9/12/1
f 13/13/2 14/14/2 11/15/2 10/16/2
f 10/16/2 11/15/2 18/17/2 12/18/2
f 14/19/2 15/20/2 16/21/2 11/22/2
f 11/22/2 16/21/2 17/23/2 18/24/2
