# Blender v2.82 (sub 7) OBJ File: 'DLNeia.blend'
# www.blender.org
mtllib DLNeiaBarrelCollider.mtl
o Barrel_Cylinder.001
v -0.000000 0.402824 -0.930349
v 0.154154 0.372160 -0.930349
v 0.284840 0.284839 -0.930349
v 0.372161 0.154154 -0.930349
v 0.402824 -0.000001 -0.930349
v 0.372161 -0.154155 -0.930349
v 0.284840 -0.284840 -0.930349
v 0.154154 -0.372162 -0.930349
v -0.000000 -0.402825 -0.930349
v -0.154154 -0.372162 -0.930349
v -0.284840 -0.284840 -0.930349
v -0.372161 -0.154155 -0.930349
v -0.402824 -0.000001 -0.930349
v -0.372161 0.154154 -0.930349
v -0.284840 0.284839 -0.930349
v -0.154154 0.372160 -0.930349
v -0.000000 0.486258 -0.621258
v -0.000000 0.499999 0.306015
v 0.191342 0.461939 0.306015
v 0.186083 0.449244 -0.621258
v 0.353553 0.353553 0.306015
v 0.343837 0.343836 -0.621258
v 0.461940 0.191341 0.306015
v 0.449244 0.186083 -0.621258
v 0.500000 -0.000001 0.306015
v 0.486259 -0.000001 -0.621258
v 0.461940 -0.191342 0.306015
v 0.449244 -0.186084 -0.621258
v 0.353553 -0.353554 0.306015
v 0.343837 -0.343838 -0.621258
v 0.191342 -0.461940 0.306015
v 0.186083 -0.449245 -0.621258
v -0.000000 -0.500001 0.306015
v -0.000000 -0.486260 -0.621258
v -0.191342 -0.461940 0.306015
v -0.186083 -0.449245 -0.621258
v -0.353554 -0.353554 0.306015
v -0.343837 -0.343838 -0.621258
v -0.461940 -0.191342 0.306015
v -0.449245 -0.186084 -0.621258
v -0.500000 -0.000001 0.306015
v -0.486259 -0.000001 -0.621258
v -0.461940 0.191341 0.306015
v -0.449245 0.186083 -0.621258
v -0.353554 0.353553 0.306015
v -0.343837 0.343837 -0.621258
v -0.191342 0.461939 0.306015
v -0.186083 0.449244 -0.621258
v 0.126891 0.306341 0.769651
v -0.000000 0.331581 0.769651
v 0.234464 0.234463 0.769651
v 0.306341 0.126890 0.769651
v 0.331582 -0.000001 0.769651
v 0.306341 -0.126892 0.769651
v 0.234464 -0.234464 0.769651
v 0.126891 -0.306342 0.769651
v -0.000000 -0.331582 0.769651
v -0.126891 -0.306342 0.769651
v -0.234464 -0.234464 0.769651
v -0.306342 -0.126892 0.769651
v -0.331582 -0.000001 0.769651
v -0.306342 0.126890 0.769651
v -0.234464 0.234463 0.769651
v -0.126891 0.306341 0.769651
vt 0.365733 0.458183
vt 0.356726 0.393391
vt 0.383465 0.393391
vt 0.383465 0.458183
vt 0.426276 0.363883
vt 0.410146 0.393391
vt 0.432873 0.393391
vt 0.416231 0.378916
vt 0.383406 0.458183
vt 0.383406 0.393391
vt 0.401139 0.458183
vt 0.383465 0.458183
vt 0.383465 0.393391
vt 0.356726 0.393391
vt 0.365733 0.458183
vt 0.350641 0.458183
vt 0.401198 0.458183
vt 0.410205 0.393391
vt 0.432873 0.393391
vt 0.365674 0.458183
vt 0.356667 0.393391
vt 0.416172 0.458183
vt 0.334057 0.393391
vt 0.410146 0.393391
vt 0.401139 0.458183
vt 0.686261 0.260108
vt 0.686261 0.284665
vt 0.701045 0.284665
vt 0.698508 0.260108
vt 0.686294 0.260108
vt 0.686294 0.284665
vt 0.671510 0.284665
vt 0.674046 0.260108
vt 0.701045 0.284665
vt 0.686261 0.284665
vt 0.686261 0.260108
vt 0.698508 0.260108
vt 0.671476 0.284665
vt 0.658943 0.284665
vt 0.663630 0.260108
vt 0.674013 0.260108
vt 0.658943 0.284665
vt 0.000000 0.000000
vt 0.356667 0.393391
vt 0.671476 0.284665
vt 0.686294 0.260108
vt 0.686294 0.284665
vt 0.701079 0.284665
vt 0.698542 0.260108
vt 0.350700 0.458183
vt 0.333998 0.393391
vt 0.708891 0.260108
vt 0.674046 0.260108
vt 0.708925 0.260108
vt 0.698542 0.260108
vt 0.663663 0.260108
vt 0.674013 0.260108
vt 0.708925 0.260108
vt 0.713612 0.284665
vt 0.701079 0.284665
vt 0.000000 0.000000
vt 0.350700 0.378916
vt 0.365733 0.388961
vt 0.000000 0.000000
vt 0.410205 0.393391
vt 0.000000 0.000000
vt 0.000000 0.000000
vt 0.713579 0.284665
vt 0.658976 0.284665
vt 0.401198 0.458183
vt 0.416231 0.458183
vt 0.713579 0.284665
vt 0.000000 0.000000
vt 0.663663 0.260108
vt 0.658976 0.284665
vt 0.671510 0.284665
vt 0.432815 0.393391
vt 0.000000 0.000000
vt 0.000000 0.000000
vt 0.000000 0.000000
vt 0.000000 0.000000
vt 0.365674 0.458183
vt 0.350641 0.458183
vt 0.383406 0.458183
vt 0.383406 0.393391
vt 0.340655 0.328417
vt 0.350700 0.313384
vt 0.365733 0.303340
vt 0.383465 0.299812
vt 0.401198 0.303340
vt 0.416231 0.313384
vt 0.426276 0.328417
vt 0.429803 0.346150
vt 0.401198 0.388961
vt 0.383465 0.392488
vt 0.340655 0.363883
vt 0.337127 0.346150
vt 0.000000 0.000000
vt 0.663630 0.260108
vn -0.2365 -0.5710 0.7861
vn -0.3776 -0.9116 0.1625
vn 0.0000 -0.9867 0.1625
vn 0.0000 -0.6181 0.7861
vn 0.5710 0.2365 0.7861
vn 0.9116 0.3776 0.1625
vn 0.6977 0.6977 0.1625
vn 0.4371 0.4371 0.7861
vn 0.6181 0.0000 0.7861
vn 0.9867 0.0000 0.1625
vn 0.0000 0.6181 0.7861
vn 0.0000 0.9867 0.1625
vn -0.3776 0.9116 0.1625
vn -0.2365 0.5710 0.7861
vn 0.4371 -0.4371 0.7861
vn 0.2365 -0.5710 0.7861
vn 0.3776 -0.9116 0.1625
vn 0.6977 -0.6977 0.1625
vn 0.5710 -0.2365 0.7861
vn 0.9116 -0.3776 0.1625
vn -0.4371 0.4371 0.7861
vn -0.6977 0.6977 0.1625
vn -0.9116 0.3776 0.1625
vn -0.5710 0.2365 0.7861
vn -0.6517 0.0000 -0.7585
vn -0.9906 0.0000 -0.1367
vn -0.9152 0.3791 -0.1367
vn -0.6021 0.2494 -0.7585
vn 0.0000 -0.6517 -0.7585
vn 0.0000 -0.9906 -0.1367
vn -0.3791 -0.9152 -0.1367
vn -0.2494 -0.6021 -0.7585
vn 0.9152 0.3791 -0.1367
vn 0.9906 0.0000 -0.1367
vn 0.6517 0.0000 -0.7585
vn 0.6021 0.2494 -0.7585
vn 0.9152 -0.3791 -0.1367
vn 0.7005 -0.7005 -0.1367
vn 0.4608 -0.4608 -0.7585
vn 0.6021 -0.2494 -0.7585
vn -0.7005 -0.7005 -0.1367
vn -0.6977 -0.6977 0.1625
vn -0.9116 -0.3776 0.1625
vn -0.9152 -0.3791 -0.1367
vn 0.0000 0.6517 -0.7585
vn 0.0000 0.9906 -0.1367
vn 0.3791 0.9152 -0.1367
vn 0.2494 0.6021 -0.7585
vn -0.4371 -0.4371 0.7861
vn -0.4608 0.4608 -0.7585
vn -0.2494 0.6021 -0.7585
vn 0.4608 0.4608 -0.7585
vn 0.2494 -0.6021 -0.7585
vn -0.4608 -0.4608 -0.7585
vn -0.6021 -0.2494 -0.7585
vn 0.3791 -0.9152 -0.1367
vn 0.3776 0.9116 0.1625
vn -0.7005 0.7005 -0.1367
vn 0.2365 0.5710 0.7861
vn 0.7005 0.7005 -0.1367
vn -0.3791 0.9152 -0.1367
vn -0.9867 0.0000 0.1625
vn -0.5710 -0.2365 0.7861
vn -0.6181 0.0000 0.7861
usemtl Material.005
s 1
f 58/1/1 35/2/2 33/3/3 57/4/4
f 52/5/5 23/6/6 21/7/7 51/8/8
f 53/9/9 25/10/10 23/6/6 52/11/5
f 50/12/11 18/13/12 47/14/13 64/15/14
f 55/16/15 56/17/16 31/18/17 29/19/18
f 54/20/19 27/21/20 25/10/10 53/9/9
f 57/4/4 33/3/3 31/18/17 56/17/16
f 63/22/21 45/23/22 43/24/23 62/25/24
f 13/26/25 42/27/26 44/28/27 14/29/28
f 9/30/29 34/31/30 36/32/31 10/33/32
f 24/34/33 26/35/34 5/36/35 4/37/36
f 28/38/37 30/39/38 7/40/39 6/41/40
f 38/42/41 37/43/42 39/44/43 40/45/44
f 1/46/45 17/47/46 20/48/47 2/49/48
f 59/50/49 37/51/42 35/2/2 58/1/1
f 15/52/50 16/53/51 1/46/45 2/49/48 3/54/52 4/37/36 5/36/35 6/41/40 7/40/39 8/55/53 9/30/29 10/33/32 11/56/54 12/57/55 13/26/25 14/29/28
f 8/55/53 7/58/39 30/59/38 32/60/56
f 28/38/37 26/35/34 25/10/10 27/61/20
f 63/62/21 64/63/14 47/14/13 45/23/22
f 20/48/47 17/47/46 18/64/12 19/65/57
f 36/32/31 34/31/30 33/3/3 35/66/2
f 30/39/38 28/38/37 27/61/20 29/67/18
f 44/28/27 46/68/58 15/52/50 14/29/28
f 10/33/32 36/32/31 38/69/41 11/56/54
f 19/65/57 49/70/59 51/71/8 21/7/7
f 22/72/60 21/73/7 23/6/6 24/34/33
f 38/69/41 36/32/31 35/66/2 37/43/42
f 16/53/51 15/74/50 46/75/58 48/76/61
f 44/28/27 43/24/23 45/77/22 46/68/58
f 48/76/61 17/47/46 1/46/45 16/53/51
f 20/48/47 19/78/57 21/7/7 22/72/60
f 42/27/26 41/79/62 43/24/23 44/28/27
f 24/34/33 23/80/6 25/10/10 26/35/34
f 42/27/26 40/45/44 39/44/43 41/79/62
f 32/60/56 30/59/38 29/67/18 31/81/17
f 60/82/63 39/44/43 37/51/42 59/83/49
f 61/84/64 62/25/24 43/24/23 41/85/62
f 61/84/64 41/85/62 39/44/43 60/86/63
f 34/31/30 32/60/56 31/81/17 33/3/3
f 20/48/47 22/72/60 3/54/52 2/49/48
f 60/86/63 59/87/49 58/88/1 57/89/4 56/90/16 55/91/15 54/92/19 53/93/9 52/5/5 51/8/8 49/94/59 50/95/11 64/63/14 63/62/21 62/96/24 61/97/64
f 55/16/15 29/19/18 27/21/20 54/92/19
f 46/75/58 45/98/22 47/14/13 48/76/61
f 12/57/55 11/99/54 38/42/41 40/45/44
f 4/37/36 3/54/52 22/72/60 24/34/33
f 5/36/35 26/35/34 28/38/37 6/41/40
f 9/30/29 8/55/53 32/60/56 34/31/30
f 40/45/44 42/27/26 13/26/25 12/57/55
f 48/76/61 47/14/13 18/13/12 17/47/46
f 18/13/12 50/12/11 49/70/59 19/65/57
