# Blender v2.82 (sub 7) OBJ File: 'DLNeia.blend'
# www.blender.org
mtllib DLNeiaVertical.mtl
o Vertical_Cube.007
v -0.531098 0.415770 0.033009
v 0.531097 0.415770 0.033009
v -0.645258 -0.267241 0.518701
v -0.535223 -0.193459 0.547666
v -0.656699 -0.247303 0.518036
v -0.430249 0.364827 0.547666
v -0.531098 0.415770 0.518009
v -0.655538 -0.046006 -0.451995
v -0.643329 -0.057012 -0.466991
v -0.646794 -0.068927 -0.451579
v -0.516708 0.411519 -0.466991
v -0.531098 0.415770 -0.451991
v 0.656699 -0.247303 0.518036
v 0.535223 -0.193459 0.547666
v 0.645258 -0.267241 0.518701
v 0.430249 0.364827 0.547666
v 0.531097 0.415770 0.518009
v 0.643329 -0.057012 -0.466991
v 0.655538 -0.046006 -0.451995
v 0.646794 -0.068927 -0.451579
v 0.531097 0.415770 -0.451991
v 0.516708 0.411519 -0.466991
v 0.330235 -0.267363 -0.451519
v 0.310346 -0.267363 -0.466991
v -0.310347 -0.267363 -0.466991
v -0.330235 -0.267363 -0.451519
v -0.330235 0.608052 -0.451991
v -0.330235 0.590136 -0.466991
v 0.330235 0.590136 -0.466991
v 0.330235 0.608052 -0.451991
v -0.330235 -0.369635 0.518312
v -0.315635 -0.263726 0.547666
v 0.315635 -0.263726 0.547666
v 0.330235 -0.369635 0.518312
v 0.330235 0.608052 0.518009
v 0.292669 0.496610 0.547666
v -0.292669 0.496610 0.547666
v -0.330235 0.608052 0.518009
v -0.655853 -0.088397 0.033009
v -0.646050 -0.110051 0.033009
v 0.655852 -0.088397 0.033009
v 0.646050 -0.110051 0.033009
v -0.330235 -0.267363 0.016998
v -0.313322 -0.267363 0.033009
v -0.330235 -0.270457 0.047686
v -0.343661 -0.260676 0.033009
v 0.313322 -0.267363 0.033009
v 0.330235 -0.267363 0.016998
v 0.343661 -0.260676 0.033009
v 0.330235 -0.270457 0.047686
v 0.167476 -0.519645 -0.358747
v 0.187250 -0.519645 -0.343253
v -0.187250 -0.519645 -0.343253
v -0.167477 -0.519645 -0.358747
v -0.170338 -0.519645 -0.075236
v -0.187250 -0.519645 -0.091247
v 0.187250 -0.519645 -0.091247
v 0.170337 -0.519645 -0.075236
v -0.292790 0.306561 -0.536991
v -0.364539 0.041070 -0.536991
v -0.175856 -0.078124 -0.536991
v 0.292790 0.306561 -0.536991
v 0.187126 0.407773 -0.536991
v 0.364539 0.041070 -0.536991
v 0.175856 -0.078124 -0.536991
v -0.187126 0.407773 -0.536991
v -0.642403 -0.257359 0.533009
v -0.516618 0.411606 0.533009
v 0.516618 0.411606 0.533009
v 0.642403 -0.257359 0.533009
v 0.330235 -0.357252 0.533009
v -0.330235 0.590136 0.533009
v -0.330235 -0.357252 0.533009
v 0.330235 0.590136 0.533009
vt 0.782613 0.305553
vt 0.782613 0.264257
vt 0.754971 0.264223
vt 0.228204 0.684366
vt 0.065034 0.853985
vt 0.065025 0.630905
vt 0.838821 0.285272
vt 0.843576 0.312335
vt 0.868039 0.303729
vt 0.391375 0.698628
vt 0.228204 0.853985
vt 0.784097 0.285272
vt 0.826536 0.263135
vt 0.839082 0.285272
vt 0.126915 0.870025
vt 0.059338 0.706855
vt 0.126915 0.543685
vt 0.868208 0.264223
vt 0.840566 0.305553
vt 0.868278 0.306840
vt 0.839082 0.306840
vt 0.840566 0.264257
vt 0.126915 0.712242
vt 0.122398 0.706855
vt 0.020664 0.706855
vt 0.810435 0.285272
vt 0.842045 0.263135
vt 0.851545 0.285272
vt 0.796643 0.316338
vt 0.795159 0.317743
vt 0.796894 0.341215
vt 0.228204 0.853985
vt 0.391375 0.698628
vt 0.228204 0.684366
vt 0.783894 0.285591
vt 0.839285 0.285591
vt 0.785909 0.352307
vt 0.796894 0.263135
vt 0.784358 0.285272
vt 0.766250 0.344841
vt 0.779603 0.312335
vt 0.755140 0.303729
vt 0.455369 0.706855
vt 0.353636 0.706855
vt 0.349119 0.712242
vt 0.796159 0.301876
vt 0.785898 0.335631
vt 0.827020 0.301876
vt 0.810435 0.285272
vt 0.842045 0.263135
vt 0.819933 0.263135
vt 0.064801 0.624197
vt 0.059987 0.627522
vt 0.065025 0.630905
vt 0.396420 0.694925
vt 0.391235 0.690917
vt 0.059987 0.627522
vt 0.064801 0.624197
vt 0.396420 0.694925
vt 0.391235 0.690917
vt 0.126915 0.701917
vt 0.349119 0.701917
vt 0.343429 0.706855
vt 0.228204 0.677081
vt 0.064210 0.852584
vt 0.017082 0.630905
vt 0.021891 0.627522
vt 0.064179 0.852555
vt 0.017473 0.698628
vt 0.059338 0.853985
vt 0.126915 0.869866
vt 0.021580 0.875072
vt 0.133606 0.875072
vt 0.416695 0.853985
vt 0.349119 0.912647
vt 0.349119 0.918675
vt 0.458561 0.698628
vt 0.411854 0.852555
vt 0.228204 0.677081
vt 0.411824 0.852584
vt 0.458952 0.630905
vt 0.416695 0.853985
vt 0.840566 0.262968
vt 0.059338 0.853985
vt 0.126915 0.912647
vt 0.126915 0.918675
vt 0.349119 0.869866
vt 0.454454 0.875072
vt 0.455619 0.869886
vt 0.126915 0.912647
vt 0.126915 0.918675
vt 0.782613 0.262968
vt 0.755221 0.262968
vt 0.349119 0.912647
vt 0.349119 0.918675
vt 0.795159 0.263135
vt 0.782613 0.285272
vt 0.828020 0.263135
vt 0.795159 0.263135
vt 0.782613 0.285272
vt 0.828020 0.263135
vt 0.840566 0.285272
vt 0.065034 0.853985
vt 0.349119 0.543685
vt 0.349119 0.870025
vt 0.416695 0.706855
vt 0.416695 0.870025
vt 0.856928 0.344841
vt 0.837281 0.335631
vt 0.840566 0.360513
vt 0.795170 0.344512
vt 0.782613 0.360513
vt 0.828009 0.344512
vt 0.764626 0.291756
vt 0.766258 0.344848
vt 0.755221 0.286149
vt 0.858553 0.291756
vt 0.856920 0.344848
vt 0.849342 0.340744
vt 0.840566 0.277384
vt 0.867958 0.286149
vt 0.773837 0.340744
vt 0.782613 0.277384
vt 0.837270 0.352307
vt 0.840566 0.360513
vt 0.782613 0.360513
vt 0.754901 0.306840
vt 0.781435 0.306840
vt 0.391374 0.853985
vt 0.796643 0.263135
vt 0.059338 0.870025
vt 0.059338 0.543685
vt 0.841744 0.306840
vt 0.784097 0.306840
vt 0.020414 0.869886
vt 0.819933 0.263135
vt 0.795159 0.339856
vt 0.826285 0.341215
vt 0.826536 0.316338
vt 0.828020 0.339856
vt 0.828020 0.317743
vt 0.391374 0.853985
vt 0.826285 0.263135
vt 0.851545 0.285272
vt 0.132605 0.706855
vt 0.021580 0.694925
vt 0.454454 0.694925
vt 0.454142 0.627522
vt 0.867958 0.262968
vt 0.342428 0.875072
vt 0.840566 0.285272
vt 0.416695 0.543685
vn -0.3033 -0.9324 -0.1965
vn 0.9808 0.1858 0.0592
vn 0.1544 -0.2444 -0.9573
vn 0.9705 0.2402 0.0204
vn 0.0000 -0.3943 0.9190
vn -0.6915 0.7224 0.0000
vn 0.4247 -0.8616 -0.2781
vn 0.0000 -0.9785 -0.2062
vn -0.4459 -0.8951 0.0000
vn 0.8700 -0.4931 0.0000
vn 0.0000 -1.0000 0.0000
vn -0.9705 0.2402 0.0204
vn 0.0000 0.0000 1.0000
vn 0.0000 -0.3943 -0.9190
vn -0.2667 0.0721 -0.9611
vn 0.4459 -0.8951 -0.0000
vn 0.0000 0.0000 -1.0000
vn 0.0000 -0.3469 -0.9379
vn -0.8700 -0.4931 0.0000
vn -0.7793 -0.4320 0.4539
vn -0.8360 -0.3269 -0.4407
vn 0.7793 -0.4320 0.4539
vn 0.8360 -0.3269 -0.4407
vn -0.5240 -0.8474 -0.0854
vn -0.0945 -0.9905 -0.0998
vn -0.9026 -0.4086 -0.1354
vn -0.6736 0.1267 0.7282
vn -0.6828 0.1840 -0.7071
vn -0.4403 -0.6970 -0.5660
vn 0.5236 0.5469 -0.6533
vn 0.6828 0.1840 -0.7071
vn 0.9105 -0.4122 -0.0336
vn 0.6947 0.1316 0.7072
vn 0.2405 -0.7423 0.6254
vn -0.5236 0.5469 0.6533
vn 0.4198 -0.6699 -0.6123
vn -0.5223 0.5453 -0.6556
vn 0.0000 0.6419 -0.7668
vn -0.2475 -0.7734 0.5836
vn 0.0000 -0.7648 0.6443
vn 0.5223 0.5453 0.6556
vn 0.0000 0.6419 0.7667
vn -0.9337 -0.3568 -0.0318
vn 0.8540 -0.4953 -0.1589
vn -0.5629 -0.5741 0.5946
vn 0.5629 -0.5741 0.5946
vn -0.5062 -0.5661 -0.6506
vn 0.5062 -0.5661 -0.6506
vn -0.9808 0.1858 0.0592
vn 0.0000 1.0000 0.0000
vn 0.6915 0.7224 0.0000
vn 0.2667 0.0721 -0.9611
vn 0.0000 0.3584 -0.9336
vn 0.2009 0.2097 -0.9569
vn -0.2009 0.2097 -0.9569
vn -0.1544 -0.2444 -0.9573
vn -0.1522 0.0286 0.9879
vn 0.1522 0.0286 0.9879
vn 0.0472 -0.1475 0.9879
vn -0.1071 0.1118 0.9879
vn -0.0472 -0.1475 0.9879
vn 0.0000 -0.1548 0.9879
vn 0.1071 0.1118 0.9879
vn 0.0000 0.1548 0.9879
vn -0.4247 -0.8616 -0.2781
vn -0.4381 -0.8796 -0.1854
vn 0.9707 0.2402 0.0000
vn 0.9656 0.2602 0.0000
vn 0.3033 -0.9324 -0.1965
vn 0.4381 -0.8796 -0.1854
vn -0.4477 -0.8911 -0.0749
vn -0.5311 -0.8473 0.0000
vn -0.9656 0.2602 0.0000
vn 0.5311 -0.8473 0.0000
vn 0.4477 -0.8911 -0.0749
vn 0.0945 -0.9905 -0.0998
vn 0.5240 -0.8474 -0.0854
vn -0.8540 -0.4953 -0.1589
vn -0.6947 0.1316 0.7072
vn -0.6904 0.1866 -0.6990
vn -0.4198 -0.6699 -0.6123
vn 0.5223 0.5453 -0.6556
vn 0.6904 0.1866 -0.6990
vn 0.9337 -0.3568 -0.0318
vn 0.6736 0.1267 0.7282
vn 0.2475 -0.7734 0.5836
vn -0.5223 0.5453 0.6556
vn 0.4403 -0.6970 -0.5660
vn -0.5236 0.5469 -0.6533
vn -0.2405 -0.7423 0.6254
vn 0.5236 0.5469 0.6533
vn 0.0000 0.6419 0.7668
vn -0.9105 -0.4122 -0.0336
vn 0.9026 -0.4086 -0.1354
vn -0.5083 -0.5663 -0.6488
vn 0.5083 -0.5663 -0.6488
vn -0.9707 0.2402 0.0000
usemtl Material.003
s off
f 45/1/1 31/2/1 3/3/1
f 41/4/2 17/5/2 13/6/2
f 24/7/3 64/8/3 18/9/3
f 19/10/4 2/11/4 41/4/4
f 44/12/5 58/13/5 47/14/5
f 27/15/6 1/16/6 38/17/6
f 15/18/7 50/19/7 42/20/7
f 31/2/8 47/21/8 34/22/8
f 43/23/9 46/24/9 40/25/9
f 48/26/10 52/27/10 23/28/10
f 55/29/11 56/30/11 54/31/11
f 1/32/12 8/33/12 39/34/12
f 32/35/13 33/36/13 37/37/13
f 24/7/14 54/38/14 25/39/14
f 11/40/15 60/41/15 9/42/15
f 42/43/16 49/44/16 48/45/16
f 61/46/17 60/41/17 59/47/17
f 25/39/18 65/48/18 24/7/18
f 43/49/19 53/50/19 56/51/19
f 3/52/20 67/53/20 5/54/20
f 8/33/21 9/55/21 10/56/21
f 13/6/22 70/57/22 15/58/22
f 18/59/23 19/10/23 20/60/23
f 43/23/24 45/61/24 46/24/24
f 48/45/25 50/62/25 47/63/25
f 40/64/26 5/54/26 39/34/26
f 68/65/27 5/66/27 67/67/27
f 11/68/28 8/69/28 12/70/28
f 26/71/29 9/72/29 25/73/29
f 21/74/30 29/75/30 30/76/30
f 19/77/31 22/78/31 21/74/31
f 20/60/32 41/4/32 42/79/32
f 69/80/33 13/81/33 17/82/33
f 15/18/34 71/83/34 34/22/34
f 7/84/35 72/85/35 38/86/35
f 23/87/36 18/88/36 20/89/36
f 12/70/37 28/90/37 11/68/37
f 30/76/38 28/90/38 27/91/38
f 3/3/39 73/92/39 67/93/39
f 34/22/40 73/92/40 31/2/40
f 17/82/41 74/94/41 69/80/41
f 38/86/42 74/94/42 35/95/42
f 10/56/43 39/34/43 8/33/43
f 42/79/44 13/6/44 15/58/44
f 56/96/45 44/12/45 43/97/45
f 57/98/46 47/14/46 58/13/46
f 25/39/47 53/99/47 26/100/47
f 52/101/48 24/7/48 23/102/48
f 7/103/49 39/34/49 5/54/49
f 27/15/50 35/104/50 30/105/50
f 2/106/51 21/107/51 30/105/51
f 22/108/52 64/8/52 62/109/52
f 29/110/53 66/111/53 28/112/53
f 29/110/54 62/109/54 63/113/54
f 28/112/55 59/47/55 11/40/55
f 25/39/56 60/41/56 61/46/56
f 4/114/57 68/115/57 67/116/57
f 14/117/58 69/118/58 16/119/58
f 14/117/59 71/120/59 70/121/59
f 37/37/60 68/115/60 6/122/60
f 4/114/61 73/123/61 32/35/61
f 32/35/62 71/120/62 33/36/62
f 36/124/63 69/118/63 74/125/63
f 36/124/64 72/126/64 37/37/64
f 3/3/65 40/127/65 45/1/65
f 40/127/66 46/128/66 45/1/66
f 41/4/67 2/11/67 17/5/67
f 24/7/3 65/48/3 64/8/3
f 19/10/68 21/129/68 2/11/68
f 44/12/5 55/130/5 58/13/5
f 12/131/6 1/16/6 27/15/6
f 1/16/6 7/132/6 38/17/6
f 34/22/69 50/19/69 15/18/69
f 50/19/70 49/133/70 42/20/70
f 31/2/8 45/1/8 44/134/8
f 44/134/8 47/21/8 31/2/8
f 47/21/8 50/19/8 34/22/8
f 40/25/71 10/135/71 43/23/71
f 10/135/72 26/71/72 43/23/72
f 48/26/10 57/136/10 52/27/10
f 56/30/11 53/137/11 54/31/11
f 54/31/11 51/138/11 58/139/11
f 51/138/11 52/140/11 57/141/11
f 58/139/11 51/138/11 57/141/11
f 58/139/11 55/29/11 54/31/11
f 1/32/73 12/142/73 8/33/73
f 33/36/13 14/117/13 16/119/13
f 16/119/13 36/124/13 33/36/13
f 36/124/13 37/37/13 33/36/13
f 37/37/13 6/122/13 32/35/13
f 6/122/13 4/114/13 32/35/13
f 24/7/14 51/143/14 54/38/14
f 11/40/15 59/47/15 60/41/15
f 48/45/74 23/87/74 20/89/74
f 20/89/75 42/43/75 48/45/75
f 59/47/17 66/111/17 61/46/17
f 66/111/17 63/113/17 61/46/17
f 63/113/17 62/109/17 65/48/17
f 62/109/17 64/8/17 65/48/17
f 65/48/17 61/46/17 63/113/17
f 25/39/18 61/46/18 65/48/18
f 43/49/19 26/144/19 53/50/19
f 43/23/76 44/145/76 45/61/76
f 48/45/77 49/44/77 50/62/77
f 40/64/78 3/52/78 5/54/78
f 68/65/79 7/84/79 5/66/79
f 11/68/80 9/146/80 8/69/80
f 26/71/81 10/135/81 9/72/81
f 21/74/82 22/78/82 29/75/82
f 19/77/83 18/147/83 22/78/83
f 20/60/84 19/10/84 41/4/84
f 69/80/85 70/148/85 13/81/85
f 15/18/86 70/149/86 71/83/86
f 7/84/87 68/65/87 72/85/87
f 23/87/88 24/150/88 18/88/88
f 12/70/89 27/91/89 28/90/89
f 30/76/38 29/75/38 28/90/38
f 3/3/90 31/2/90 73/92/90
f 34/22/40 71/83/40 73/92/40
f 17/82/91 35/95/91 74/94/91
f 38/86/92 72/85/92 74/94/92
f 10/56/93 40/64/93 39/34/93
f 42/79/94 41/4/94 13/6/94
f 56/96/45 55/130/45 44/12/45
f 57/98/46 48/151/46 47/14/46
f 25/39/95 54/38/95 53/99/95
f 52/101/96 51/143/96 24/7/96
f 7/103/97 1/32/97 39/34/97
f 27/15/50 38/17/50 35/104/50
f 30/105/51 35/104/51 2/106/51
f 35/104/51 17/152/51 2/106/51
f 22/108/52 18/9/52 64/8/52
f 29/110/53 63/113/53 66/111/53
f 29/110/54 22/108/54 62/109/54
f 28/112/55 66/111/55 59/47/55
f 25/39/56 9/42/56 60/41/56
f 4/114/57 6/122/57 68/115/57
f 14/117/58 70/121/58 69/118/58
f 14/117/59 33/36/59 71/120/59
f 37/37/60 72/126/60 68/115/60
f 4/114/61 67/116/61 73/123/61
f 32/35/62 73/123/62 71/120/62
f 36/124/63 16/119/63 69/118/63
f 36/124/64 74/125/64 72/126/64
