# Blender v2.82 (sub 7) OBJ File: 'DLNeia.blend'
# www.blender.org
mtllib DLNeiaVerticalCollider.mtl
o Vertical_Cube.007
v -0.645258 -0.267241 0.518701
v -0.656699 -0.247303 0.518036
v -0.531098 0.415770 0.518009
v -0.655538 -0.046006 -0.451995
v -0.643329 -0.057012 -0.466991
v -0.646794 -0.068927 -0.451579
v -0.516708 0.411519 -0.466991
v -0.531098 0.415770 -0.451991
v 0.656699 -0.247303 0.518036
v 0.645258 -0.267241 0.518701
v 0.531097 0.415770 0.518009
v 0.643329 -0.057012 -0.466991
v 0.655538 -0.046006 -0.451995
v 0.646794 -0.068927 -0.451579
v 0.531097 0.415770 -0.451991
v 0.516708 0.411519 -0.466991
v 0.310346 -0.267363 -0.466991
v -0.310347 -0.267363 -0.466991
v -0.330235 0.608052 -0.451991
v -0.330235 0.590136 -0.466991
v 0.330235 0.590136 -0.466991
v 0.330235 0.608052 -0.451991
v -0.330235 -0.369635 0.518312
v 0.330235 -0.369635 0.518312
v 0.330235 0.608052 0.518009
v -0.330235 0.608052 0.518009
v -0.655853 -0.088397 0.033009
v 0.655852 -0.088397 0.033009
v 0.167476 -0.519645 -0.358747
v 0.187250 -0.519645 -0.343253
v -0.187250 -0.519645 -0.343253
v -0.167477 -0.519645 -0.358747
v -0.170338 -0.519645 -0.075236
v -0.187250 -0.519645 -0.091247
v 0.187250 -0.519645 -0.091247
v 0.170337 -0.519645 -0.075236
v -0.364539 0.041070 -0.536991
v -0.175856 -0.078124 -0.536991
v 0.187126 0.407773 -0.536991
v 0.364539 0.041070 -0.536991
v 0.175856 -0.078124 -0.536991
v -0.187126 0.407773 -0.536991
v -0.642403 -0.257359 0.533009
v -0.516618 0.411606 0.533009
v 0.516618 0.411606 0.533009
v 0.642403 -0.257359 0.533009
v 0.330235 -0.357252 0.533009
v -0.330235 0.590136 0.533009
v -0.330235 -0.357252 0.533009
v 0.330235 0.590136 0.533009
vt 0.349119 0.918675
vt 0.349119 0.912647
vt 0.126915 0.912647
vt 0.126915 0.918675
vt 0.059338 0.543685
vt 0.126915 0.543685
vt 0.126915 0.870025
vt 0.059338 0.870025
vt 0.754971 0.264223
vt 0.000000 0.000000
vt 0.842045 0.263135
vt 0.755140 0.303729
vt 0.784358 0.285272
vt 0.796894 0.263135
vt 0.396420 0.694925
vt 0.796894 0.341215
vt 0.391235 0.690917
vt 0.065034 0.853985
vt 0.391374 0.853985
vt 0.391375 0.698628
vt 0.228204 0.684366
vt 0.065025 0.630905
vt 0.064801 0.624197
vt 0.059987 0.627522
vt 0.065025 0.630905
vt 0.059987 0.627522
vt 0.064801 0.624197
vt 0.396420 0.694925
vt 0.391375 0.698628
vt 0.391235 0.690917
vt 0.411824 0.852584
vt 0.454142 0.627522
vt 0.458952 0.630905
vt 0.416695 0.853985
vt 0.349119 0.918675
vt 0.349119 0.912647
vt 0.064179 0.852555
vt 0.021580 0.694925
vt 0.017473 0.698628
vt 0.059338 0.853985
vt 0.842045 0.263135
vt 0.826285 0.341215
vt 0.000000 0.000000
vt 0.458561 0.698628
vt 0.454454 0.694925
vt 0.411854 0.852555
vt 0.416695 0.853985
vt 0.868208 0.264223
vt 0.867958 0.262968
vt 0.840566 0.262968
vt 0.840566 0.264257
vt 0.840566 0.360513
vt 0.828009 0.344512
vt 0.795170 0.344512
vt 0.782613 0.360513
vt 0.059338 0.853985
vt 0.064210 0.852584
vt 0.126915 0.912647
vt 0.126915 0.918675
vt 0.819933 0.263135
vt 0.000000 0.000000
vt 0.000000 0.000000
vt 0.065034 0.853985
vt 0.228204 0.684366
vt 0.391374 0.853985
vt 0.782613 0.264257
vt 0.782613 0.262968
vt 0.755221 0.262968
vt 0.349119 0.543685
vt 0.349119 0.870025
vt 0.796159 0.301876
vt 0.827020 0.301876
vt 0.838821 0.285272
vt 0.826285 0.263135
vt 0.819933 0.263135
vt 0.779603 0.312335
vt 0.766250 0.344841
vt 0.796643 0.316338
vt 0.000000 0.000000
vt 0.826536 0.316338
vt 0.795159 0.317743
vt 0.795159 0.339856
vt 0.828020 0.339856
vt 0.828020 0.317743
vt 0.017082 0.630905
vt 0.021891 0.627522
vt 0.867958 0.286149
vt 0.856920 0.344848
vt 0.840566 0.360513
vt 0.782613 0.360513
vt 0.766258 0.344848
vt 0.755221 0.286149
vt 0.782613 0.277384
vt 0.840566 0.277384
vt 0.843576 0.312335
vt 0.868039 0.303729
vt 0.856928 0.344841
vt 0.416695 0.543685
vt 0.416695 0.870025
vn 0.0000 0.6419 -0.7668
vn -0.6915 0.7224 0.0000
vn -0.6748 -0.7233 -0.1468
vn -0.3311 -0.5242 -0.7846
vn -0.4798 -0.6349 -0.6055
vn -0.9734 0.2280 0.0231
vn -0.9004 -0.4262 -0.0876
vn -0.7793 -0.4320 0.4539
vn -0.8360 -0.3269 -0.4407
vn 0.7793 -0.4320 0.4539
vn 0.8360 -0.3269 -0.4407
vn 0.6840 0.1291 0.7179
vn 0.5230 0.5461 0.6544
vn -0.6866 0.1853 -0.7030
vn 0.4798 -0.6349 -0.6055
vn 0.6866 0.1853 -0.7030
vn 0.9004 -0.4262 -0.0876
vn 0.5230 0.5461 -0.6544
vn 0.2439 -0.7575 0.6055
vn 0.0000 0.3584 -0.9336
vn -0.5230 0.5461 0.6544
vn 0.6748 -0.7233 -0.1468
vn 0.2978 -0.9408 0.1617
vn 0.0000 0.6419 0.7667
vn -0.5230 0.5461 -0.6544
vn 0.4827 -0.8758 0.0000
vn 0.9734 0.2280 0.0231
vn -0.2439 -0.7575 0.6055
vn 0.0000 1.0000 0.0000
vn 0.0000 -0.3742 -0.9274
vn -0.4827 -0.8758 0.0000
vn -0.1544 -0.2444 -0.9573
vn -0.2293 0.1109 -0.9670
vn -0.2978 -0.9408 0.1617
vn 0.0000 -1.0000 -0.0000
vn -0.6840 0.1291 0.7180
vn -0.0000 0.0000 1.0000
vn 0.1544 -0.2444 -0.9573
vn 0.2293 0.1109 -0.9670
vn 0.0000 0.0000 -1.0000
vn 0.0000 -0.7648 0.6443
vn 0.0000 -0.9695 0.2450
vn 0.3311 -0.5242 -0.7846
vn 0.6915 0.7224 0.0000
usemtl Material.003
s off
f 22/1/1 21/2/1 20/3/1 19/4/1
f 3/5/2 26/6/2 19/7/2 8/8/2
f 1/9/3 6/10/3 31/11/3
f 5/12/4 18/13/4 32/14/4
f 5/15/5 32/16/5 31/11/5 6/17/5
f 3/18/6 8/19/6 4/20/6 27/21/6 2/22/6
f 2/22/7 4/20/7 6/10/7 1/9/7
f 1/23/8 43/24/8 2/22/8
f 4/20/9 5/15/9 6/17/9
f 9/25/10 46/26/10 10/27/10
f 12/28/11 13/29/11 14/30/11
f 45/31/12 46/32/12 9/33/12 11/34/12
f 11/34/13 25/35/13 50/36/13 45/31/13
f 7/37/14 5/38/14 4/39/14 8/40/14
f 30/41/15 29/42/15 12/28/15 14/43/15
f 13/44/16 12/45/16 16/46/16 15/47/16
f 13/29/17 9/25/17 10/27/17 14/43/17
f 15/47/18 16/46/18 21/2/18 22/1/18
f 10/48/19 46/49/19 47/50/19 24/51/19
f 21/52/20 39/53/20 42/54/20 20/55/20
f 3/56/21 44/57/21 48/58/21 26/59/21
f 30/41/22 14/43/22 10/27/22
f 35/60/23 10/61/23 24/51/23 36/62/23
f 26/59/24 48/58/24 50/36/24 25/35/24
f 8/40/25 19/4/25 20/3/25 7/37/25
f 30/41/26 10/61/26 35/60/26
f 11/63/27 9/25/27 28/64/27 13/29/27 15/65/27
f 1/9/28 23/66/28 49/67/28 43/68/28
f 19/7/29 26/6/29 25/69/29 22/70/29
f 18/13/30 38/71/30 41/72/30 17/73/30 29/74/30 32/14/30
f 1/9/31 31/11/31 34/75/31
f 18/13/32 5/12/32 37/76/32 38/71/32
f 37/76/33 5/12/33 7/77/33 20/55/33 42/54/33
f 33/78/34 23/66/34 1/9/34 34/79/34
f 36/80/35 33/78/35 34/81/35 31/82/35 32/16/35 29/42/35 30/83/35 35/84/35
f 44/57/36 3/56/36 2/85/36 43/86/36
f 46/87/37 45/88/37 50/89/37 48/90/37 44/91/37 43/92/37 49/93/37 47/94/37
f 17/73/38 41/72/38 40/95/38 12/96/38
f 16/97/39 12/96/39 40/95/39 39/53/39 21/52/39
f 41/72/40 38/71/40 37/76/40 42/54/40 39/53/40 40/95/40
f 24/51/41 47/50/41 49/67/41 23/66/41
f 23/66/42 33/78/42 36/62/42 24/51/42
f 17/73/43 12/96/43 29/74/43
f 25/69/44 11/98/44 15/99/44 22/70/44
