# This file uses centimeters as units for non-parametric coordinates.

g default
v -0.500000 -0.500000 1.500000
v -0.500000 1.500000 -0.500000
v 1.500000 -0.500000 -0.500000
v -0.500000 -0.500000 -0.500000
v -0.298331 -0.298331 1.307520
v 1.307520 -0.298331 -0.298331
v -0.298331 1.307520 -0.298331
vt 0.375000 0.250000
vt 0.375000 0.500000
vt 0.625000 0.625000
vt 0.375000 0.750000
vt 0.125000 0.000000
vt 0.125000 0.250000
vt 0.375000 0.250000
vt 0.625000 0.625000
vt 0.375000 0.500000
vn 0.577350 0.577350 0.577350
vn 0.577350 0.577350 0.577350
vn 0.577350 0.577350 0.577350
vn 0.000000 0.000000 -1.000000
vn 0.000000 0.000000 -1.000000
vn 0.000000 0.000000 -1.000000
vn -1.000000 0.000000 0.000000
vn -1.000000 0.000000 0.000000
vn -1.000000 0.000000 0.000000
vn 0.000000 -1.000000 0.000000
vn 0.000000 -1.000000 0.000000
vn 0.000000 -1.000000 0.000000
vn 0.706740 -0.032205 0.706740
vn 0.706740 -0.032205 0.706740
vn 0.706740 -0.032205 0.706740
vn 0.706740 -0.032205 0.706740
vn 0.706740 0.706740 -0.032205
vn 0.706740 0.706740 -0.032205
vn 0.706740 0.706740 -0.032205
vn 0.706740 0.706740 -0.032205
vn -0.032205 0.706740 0.706740
vn -0.032205 0.706740 0.706740
vn -0.032205 0.706740 0.706740
vn -0.032205 0.706740 0.706740
s off
g col_armor_corner
f 5/7/1 6/8/2 7/9/3
f 2/2/4 3/3/5 4/4/6
f 4/5/7 1/1/8 2/6/9
f 3/3/10 1/1/11 4/4/12
f 1/1/13 3/3/14 6/8/15 5/7/16
f 3/3/17 2/2/18 7/9/19 6/8/20
f 2/2/21 1/1/22 5/7/23 7/9/24
