# Blender v2.80 (sub 75) OBJ File: ''
# www.blender.org
mtllib YK_Heavy_BR_Base.mtl
o Plane.002
v 0.439939 -0.291082 0.946957
v 0.350000 -0.300000 0.966667
v 0.350000 -0.403663 1.109887
v 0.320000 0.400000 -0.533333
v 0.406667 0.340000 -0.533333
v 0.320000 0.109158 -0.560807
v 0.350000 0.347014 0.153037
v 0.372867 0.325298 0.166717
v 0.386667 0.370000 -0.533333
v 0.320000 0.347014 0.143037
v 0.346667 0.400000 -0.533333
v 0.338052 -0.104832 0.431514
v 0.320000 0.089898 0.259455
v 0.350000 -0.340000 -0.833333
v 0.500000 -0.346893 -0.820820
v 0.500000 -0.500000 -0.833333
v 0.349000 -0.500000 -0.833333
v 0.500000 -0.500000 0.966667
v 0.348706 -0.131079 -0.661949
v 0.430000 0.109158 -0.560807
v 0.391988 0.300278 0.180741
v 0.000000 -0.500000 -0.833333
v 0.350000 -0.500000 0.980407
v 0.457204 -0.131377 -0.673480
v 0.000000 -0.500000 0.953592
v 0.000000 -0.340000 -0.833333
v 0.458354 -0.500000 1.066667
v 0.418339 -0.500000 1.131320
v 0.350000 -0.500000 1.166667
v 0.350000 -0.340000 0.716667
v 0.000000 -0.340000 0.656667
v 0.000000 -0.600002 0.599985
v 0.000000 -0.500004 0.467965
v 0.132027 -0.500004 0.467973
v 0.000000 -0.500002 -0.267993
v 0.000000 -0.600002 -0.400015
v 0.132027 -0.500000 -0.267989
v 0.424807 -0.111901 0.453406
v 0.132027 -0.500004 -0.532027
v 0.132027 -0.500000 0.732011
v 0.000000 -0.500002 0.732007
v 0.000000 -0.500004 -0.532035
v 0.410000 0.089898 0.259455
v -0.439939 -0.291082 0.946957
v -0.350000 -0.403663 1.109887
v -0.350000 -0.300000 0.966667
v -0.320000 0.400000 -0.533333
v -0.320000 0.109158 -0.560807
v -0.406667 0.340000 -0.533333
v -0.350000 0.347014 0.153037
v -0.386667 0.370000 -0.533333
v -0.372867 0.325298 0.166717
v -0.320000 0.347014 0.143037
v -0.346667 0.400000 -0.533333
v -0.338052 -0.104832 0.431514
v -0.320000 0.089898 0.259455
v -0.350000 -0.340000 -0.833333
v -0.500000 -0.500000 -0.833333
v -0.500000 -0.346893 -0.820820
v -0.349000 -0.500000 -0.833333
v -0.500000 -0.500000 0.966667
v -0.348706 -0.131079 -0.661949
v -0.430000 0.109158 -0.560807
v -0.391988 0.300278 0.180741
v -0.350000 -0.500000 0.980407
v -0.457204 -0.131377 -0.673480
v -0.350000 -0.500000 1.166667
v -0.418339 -0.500000 1.131320
v -0.458354 -0.500000 1.066667
v -0.350000 -0.340000 0.716667
v -0.132027 -0.500004 0.467973
v -0.132027 -0.500000 -0.267989
v -0.424807 -0.111901 0.453406
v -0.132027 -0.500004 -0.532027
v -0.132027 -0.500000 0.732011
v -0.410000 0.089898 0.259455
vt 0.209230 0.693287
vt 0.206662 0.708192
vt 0.176813 0.708192
vt 0.167074 0.734769
vt 0.149861 0.734769
vt 0.081013 0.734769
vt 0.151874 0.537871
vt 0.145644 0.533947
vt 0.158467 0.734769
vt 0.151874 0.540740
vt 0.167074 0.734769
vt 0.256691 0.506473
vt 0.299104 0.488351
vt 0.303299 0.401958
vt 0.134614 0.955697
vt 0.146088 0.955697
vt 0.088715 0.955697
vt 0.078115 0.507343
vt 0.088715 0.955697
vt 0.088715 0.439334
vt 0.250974 0.391305
vt 0.205471 0.373255
vt 0.081013 0.734769
vt 0.138466 0.529924
vt 0.021938 0.113956
vt 0.021938 0.180875
vt 0.369710 0.181067
vt 0.303299 0.401958
vt 0.250909 0.390091
vt 0.357489 0.113956
vt 0.157732 0.148473
vt 0.261617 0.100983
vt 0.261617 0.148473
vt 0.088715 0.410647
vt 0.088715 0.392100
vt 0.088715 0.381960
vt 0.319140 0.181067
vt 0.021938 0.113956
vt 0.307635 0.113956
vt 0.427983 0.302979
vt 0.427983 0.232548
vt 0.357548 0.232552
vt 0.134614 0.511051
vt 0.146088 0.439334
vt 0.427983 0.373411
vt 0.427983 0.302979
vt 0.357548 0.373413
vt 0.058461 0.454200
vt 0.014186 0.404029
vt 0.029713 0.404029
vt 0.158029 0.100983
vt 0.021938 0.181067
vt 0.050428 0.404029
vt 0.005698 0.404029
vt 0.019333 0.427164
vt 0.216125 0.560762
vt 0.255151 0.508779
vt 0.357548 0.232552
vt 0.088715 0.435392
vt 0.116351 0.398249
vt 0.357548 0.373413
vt 0.427983 0.373411
vt 0.148647 0.444988
vt 0.214183 0.562838
vt 0.053727 0.404029
vt 0.427983 0.232548
vt 0.078115 0.507343
vt 0.203969 0.374572
vt 0.299104 0.488351
vt 0.209230 0.693287
vt 0.176813 0.708192
vt 0.206662 0.708192
vt 0.167074 0.734769
vt 0.081013 0.734769
vt 0.149861 0.734769
vt 0.151874 0.537871
vt 0.158467 0.734769
vt 0.145644 0.533947
vt 0.151874 0.540740
vt 0.167074 0.734769
vt 0.256691 0.506473
vt 0.303299 0.401958
vt 0.299104 0.488351
vt 0.134614 0.955697
vt 0.088715 0.955697
vt 0.146088 0.955697
vt 0.078115 0.507343
vt 0.088715 0.955697
vt 0.088715 0.439334
vt 0.205471 0.373255
vt 0.250974 0.391305
vt 0.081013 0.734769
vt 0.138466 0.529924
vt 0.369710 0.181067
vt 0.021938 0.180875
vt 0.250909 0.390091
vt 0.303299 0.401958
vt 0.157732 0.148473
vt 0.088715 0.381960
vt 0.088715 0.392100
vt 0.088715 0.410647
vt 0.319140 0.181067
vt 0.357548 0.232552
vt 0.134614 0.511051
vt 0.146088 0.439334
vt 0.357548 0.373413
vt 0.058461 0.454200
vt 0.029713 0.404029
vt 0.014186 0.404029
vt 0.158029 0.100983
vt 0.021938 0.181067
vt 0.050428 0.404029
vt 0.019333 0.427164
vt 0.005698 0.404029
vt 0.216125 0.560762
vt 0.255151 0.508779
vt 0.357548 0.232552
vt 0.088715 0.435392
vt 0.116351 0.398249
vt 0.357548 0.373413
vt 0.148647 0.444988
vt 0.214183 0.562838
vt 0.053727 0.404029
vt 0.078115 0.507343
vt 0.203969 0.374572
vt 0.299104 0.488351
vn 0.6627 0.6551 0.3628
vn 0.0199 0.8736 0.4862
vn 0.4480 0.5662 0.6919
vn 0.0400 0.0578 -0.9975
vn 0.0446 0.0848 -0.9954
vn -0.0155 0.2547 -0.9669
vn 0.4318 0.8991 0.0715
vn 0.7428 0.6673 0.0544
vn 0.7238 0.6877 0.0561
vn -0.0252 0.9967 0.0771
vn 0.3097 0.9481 0.0723
vn -0.9984 -0.0561 -0.0012
vn -0.9980 -0.0635 -0.0015
vn -0.9940 -0.0663 -0.0875
vn -0.0160 0.3250 -0.9456
vn 0.0576 0.3384 -0.9392
vn 0.0417 0.0391 -0.9984
vn -1.0000 0.0000 0.0000
vn -0.0000 -1.0000 -0.0000
vn -0.9993 -0.0376 -0.0088
vn -0.9999 -0.0091 -0.0075
vn -0.1353 0.3124 -0.9403
vn 0.0000 0.9969 0.0781
vn 0.9539 0.2980 0.0366
vn 0.9948 0.0984 0.0264
vn 0.9415 0.3347 0.0399
vn -0.0256 0.5035 -0.8636
vn 0.0202 0.5019 -0.8647
vn 0.0000 0.0000 -1.0000
vn -0.0340 0.9585 0.2829
vn 0.0000 1.0000 0.0000
vn 0.0000 0.9756 0.2195
vn 0.0000 -0.7971 -0.6038
vn -1.0000 -0.0075 0.0002
vn 0.0000 -0.7971 0.6038
vn 0.6087 0.4689 0.6400
vn 0.8305 0.3302 0.4485
vn 0.5050 0.5127 0.6943
vn 0.9382 0.2806 0.2024
vn 1.0000 -0.0000 0.0000
vn 0.9972 0.0735 0.0109
vn 0.6887 0.6415 0.3379
vn -0.0873 0.7914 0.6051
vn 0.0000 0.8690 0.4948
vn -0.0397 0.8543 0.5183
vn 0.6038 -0.7972 0.0000
vn 0.6995 0.4297 0.5711
vn 0.9890 0.1451 0.0270
vn -0.0902 0.5299 0.8433
vn -0.1122 0.3758 0.9199
vn -0.6627 0.6551 0.3628
vn -0.4480 0.5662 0.6919
vn -0.0199 0.8736 0.4862
vn -0.0400 0.0578 -0.9975
vn 0.0155 0.2547 -0.9669
vn -0.0446 0.0848 -0.9954
vn -0.4318 0.8991 0.0715
vn -0.7238 0.6877 0.0561
vn -0.7428 0.6673 0.0544
vn 0.0252 0.9967 0.0771
vn -0.3097 0.9481 0.0723
vn 0.9980 -0.0622 0.0082
vn 0.9940 -0.0663 -0.0875
vn 0.9980 -0.0635 -0.0015
vn 0.0160 0.3250 -0.9456
vn -0.0417 0.0391 -0.9984
vn -0.0576 0.3384 -0.9392
vn 0.9999 -0.0091 -0.0075
vn 0.9993 -0.0376 -0.0088
vn 0.1353 0.3124 -0.9403
vn -0.9539 0.2980 0.0366
vn -0.9415 0.3347 0.0399
vn -0.9948 0.0984 0.0264
vn 0.0233 0.4903 -0.8712
vn -0.0081 0.5421 -0.8403
vn 0.0340 0.9585 0.2829
vn 1.0000 -0.0075 0.0002
vn -0.8305 0.3302 0.4485
vn -0.6087 0.4689 0.6400
vn -0.5050 0.5127 0.6943
vn -0.9382 0.2806 0.2024
vn -0.9972 0.0735 0.0109
vn 0.0825 0.8196 0.5669
vn -0.6933 0.6330 0.3446
vn 0.0397 0.8543 0.5183
vn -0.6038 -0.7972 0.0000
vn -0.6995 0.4297 0.5711
vn -0.9890 0.1451 0.0270
vn 0.0902 0.5299 0.8433
vn 0.1122 0.3758 0.9199
usemtl Default_OBJ
s 1
f 1/1/1 2/2/2 3/3/3
f 4/4/4 5/5/5 6/6/6
f 7/7/7 8/8/8 9/9/9
f 10/10/10 7/7/7 11/11/11
f 12/12/12 13/13/13 6/14/14
f 14/15/15 15/16/16 16/17/17
f 13/18/13 10/10/18 4/4/18
f 17/19/19 16/17/19 18/20/19
f 12/12/12 19/21/20 14/22/21
f 20/23/22 6/6/6 5/5/5
f 10/10/10 11/11/11 4/4/23
f 21/24/24 20/23/25 5/5/26
f 22/25/19 17/26/19 23/27/19
f 19/21/27 6/14/6 20/28/22 24/29/28
f 22/25/19 23/27/19 25/30/19
f 14/31/15 22/32/29 26/33/29
f 17/19/19 18/20/19 27/34/19 28/35/19 29/36/19
f 30/37/30 26/38/31 31/39/32
f 32/40/33 33/41/33 34/42/33
f 30/43/18 2/44/34 14/15/21
f 35/45/35 36/46/35 37/47/35
f 1/48/1 28/49/36 27/50/37
f 9/9/29 4/4/4 11/11/29
f 14/31/15 17/51/29 22/32/29
f 30/37/30 14/52/31 26/38/31
f 7/7/7 9/9/9 11/11/11
f 23/53/18 29/54/18 3/55/18
f 28/49/36 1/48/1 3/55/3 29/54/38
f 18/20/39 16/17/40 15/16/41
f 12/12/12 6/14/14 19/21/20
f 5/5/5 4/4/4 9/9/29
f 1/56/1 38/57/42 12/12/43
f 8/8/8 5/5/26 9/9/9
f 25/30/44 23/27/45 30/37/30
f 13/18/13 4/4/18 6/6/14
f 25/30/44 30/37/30 31/39/32
f 14/15/15 16/17/17 17/19/29
f 36/46/46 39/58/46 37/47/46
f 23/59/18 3/60/18 30/43/18
f 32/40/46 34/42/46 40/61/46
f 41/62/35 32/40/35 40/61/35
f 18/20/39 15/16/41 1/63/1
f 12/12/12 14/22/21 2/64/34
f 30/43/18 3/60/18 2/44/34
f 27/50/37 18/65/39 1/48/1
f 36/46/33 42/66/33 39/58/33
f 21/24/24 43/67/47 20/23/25
f 1/56/1 12/12/43 2/64/2
f 8/8/8 21/24/24 5/5/26
f 14/22/15 19/21/27 24/29/28 15/68/16
f 20/28/25 43/69/47 38/57/42 24/29/48
f 15/68/41 24/29/48 38/57/42 1/56/1
f 12/12/43 38/57/42 43/69/47 13/13/49
f 13/18/49 43/67/47 21/24/50 8/8/50 7/7/50 10/10/50
f 44/70/51 45/71/52 46/72/53
f 47/73/54 48/74/55 49/75/56
f 50/76/57 51/77/58 52/78/59
f 53/79/60 54/80/61 50/76/57
f 55/81/62 48/82/63 56/83/64
f 57/84/65 58/85/66 59/86/67
f 56/87/64 47/73/40 53/79/40
f 60/88/19 61/89/19 58/85/19
f 55/81/62 57/90/68 62/91/69
f 63/92/70 49/75/56 48/74/55
f 53/79/60 47/73/23 54/80/61
f 64/93/71 49/75/72 63/92/73
f 22/25/19 65/94/19 60/95/19
f 62/91/74 66/96/75 63/97/70 48/82/55
f 22/25/19 25/30/19 65/94/19
f 57/98/65 26/33/29 22/32/29
f 60/88/19 67/99/19 68/100/19 69/101/19 61/89/19
f 70/102/76 31/39/32 26/38/31
f 32/40/33 71/103/33 33/41/33
f 70/104/40 57/84/68 46/105/77
f 35/45/35 72/106/35 36/46/35
f 44/107/51 69/108/78 68/109/79
f 51/77/29 54/80/29 47/73/54
f 57/98/65 22/32/29 60/110/29
f 70/102/76 26/38/31 57/111/31
f 50/76/57 54/80/61 51/77/58
f 65/112/40 45/113/40 67/114/40
f 68/109/79 67/114/80 45/113/52 44/107/51
f 61/89/81 59/86/82 58/85/18
f 55/81/62 62/91/69 48/82/63
f 49/75/56 51/77/29 47/73/54
f 44/115/51 55/81/83 73/116/84
f 52/78/59 51/77/58 49/75/72
f 25/30/44 70/102/76 65/94/85
f 56/87/64 48/74/63 47/73/40
f 25/30/44 31/39/32 70/102/76
f 57/84/65 60/88/29 58/85/66
f 36/46/86 72/106/86 74/117/86
f 65/118/40 70/104/40 45/119/40
f 32/40/86 75/120/86 71/103/86
f 41/62/35 75/120/35 32/40/35
f 61/89/81 44/121/51 59/86/82
f 55/81/62 46/122/77 57/90/68
f 70/104/40 46/105/77 45/119/40
f 69/108/78 44/107/51 61/123/81
f 36/46/33 74/117/33 42/66/33
f 64/93/71 63/92/73 76/124/87
f 44/115/51 46/122/53 55/81/83
f 52/78/59 49/75/72 64/93/71
f 57/90/65 59/125/67 66/96/75 62/91/74
f 63/97/73 66/96/88 73/116/84 76/126/87
f 59/125/82 44/115/51 73/116/84 66/96/88
f 55/81/83 56/83/89 76/126/87 73/116/84
f 56/87/89 53/79/90 50/76/90 52/78/90 64/93/90 76/124/87
