# Blender v2.93.1 OBJ File: 'GT_Delivery_Cannon.blend'
# www.blender.org
v -0.289202 -0.303736 0.375739
v -0.358804 -0.303736 0.306137
v -0.324003 -0.303736 0.366414
v -0.349479 -0.303736 0.340938
v -0.358804 -0.303736 -0.273877
v -0.289202 -0.303736 -0.343478
v -0.349479 -0.303736 -0.308678
v -0.324003 -0.303736 -0.334153
v 0.360413 -0.303736 0.306137
v 0.290811 -0.303736 0.375739
v 0.351088 -0.303736 0.340938
v 0.325612 -0.303736 0.366414
v 0.290811 -0.303736 -0.343478
v 0.360413 -0.303736 -0.273877
v 0.325612 -0.303736 -0.334153
v 0.351088 -0.303736 -0.308678
v -0.297041 0.651395 0.299126
v -0.358804 0.617951 0.306137
v -0.341404 0.648566 0.304162
v -0.354142 0.635873 0.305608
v -0.280459 0.659190 0.318457
v -0.289202 0.646326 0.375739
v -0.286739 0.670962 0.359601
v -0.288542 0.662563 0.371415
v -0.293376 0.656911 0.312804
v -0.349479 0.632077 0.340938
v -0.333673 0.660212 0.333012
v -0.345244 0.649309 0.338814
v -0.290382 0.658118 0.315799
v -0.324003 0.642480 0.366414
v -0.314531 0.667948 0.352154
v -0.321465 0.658963 0.362593
v -0.280459 0.415378 -0.286197
v -0.289202 0.356319 -0.343478
v -0.286739 0.393970 -0.327340
v -0.288542 0.376044 -0.339154
v -0.297041 0.423173 -0.266866
v -0.358804 0.384075 -0.273877
v -0.341404 0.416283 -0.271901
v -0.354142 0.402424 -0.273347
v -0.290382 0.416450 -0.283538
v -0.324003 0.359994 -0.334153
v -0.314531 0.396961 -0.319893
v -0.321465 0.379558 -0.330332
v -0.293376 0.417657 -0.280544
v -0.349479 0.370135 -0.308678
v -0.333673 0.404662 -0.300751
v -0.345244 0.389080 -0.306554
v 0.282068 0.659190 0.318457
v 0.290811 0.646326 0.375739
v 0.288348 0.670962 0.359601
v 0.290151 0.662563 0.371415
v 0.298650 0.651395 0.299126
v 0.360413 0.617951 0.306137
v 0.343013 0.648566 0.304162
v 0.355751 0.635873 0.305608
v 0.291991 0.658118 0.315799
v 0.325612 0.642480 0.366414
v 0.316140 0.667948 0.352154
v 0.323074 0.658963 0.362593
v 0.294985 0.656911 0.312804
v 0.351088 0.632077 0.340938
v 0.335282 0.660212 0.333012
v 0.346853 0.649309 0.338814
v 0.298650 0.423173 -0.266866
v 0.360413 0.384075 -0.273877
v 0.343013 0.416283 -0.271901
v 0.355751 0.402424 -0.273347
v 0.282068 0.415378 -0.286197
v 0.290811 0.356319 -0.343478
v 0.288348 0.393970 -0.327340
v 0.290151 0.376044 -0.339154
v 0.294985 0.417657 -0.280544
v 0.351088 0.370135 -0.308678
v 0.335282 0.404662 -0.300751
v 0.346853 0.389080 -0.306554
v 0.291991 0.416450 -0.283538
v 0.325612 0.359994 -0.334153
v 0.316140 0.396961 -0.319893
v 0.323074 0.379558 -0.330332
v -0.284276 0.669273 0.343463
v -0.305059 0.667027 0.337894
v -0.317867 0.661863 0.325086
v -0.324003 0.652629 0.302187
v -0.305059 0.407540 -0.305634
v -0.284276 0.405295 -0.311202
v -0.317867 0.412705 -0.292825
v -0.324003 0.421939 -0.269926
v 0.319476 0.412705 -0.292825
v 0.325612 0.421939 -0.269926
v 0.306668 0.407540 -0.305634
v 0.285885 0.405295 -0.311202
v 0.306668 0.667027 0.337894
v 0.285885 0.669273 0.343463
v 0.319476 0.661863 0.325086
v 0.325612 0.652629 0.302187
vt 0.533181 0.640201
vt 0.530958 0.721849
vt 0.530958 0.640201
vt 0.589858 0.640201
vt 0.592081 0.721849
vt 0.589858 0.722757
vt 0.536217 0.640201
vt 0.533181 0.722757
vt 0.589858 0.698995
vt 0.586822 0.640201
vt 0.586822 0.700211
vt 0.586822 0.723092
vt 0.586822 0.640201
vt 0.536217 0.697790
vt 0.533181 0.640201
vt 0.533181 0.698110
vt 0.536217 0.640201
vt 0.586822 0.640201
vt 0.536217 0.640201
vt 0.530958 0.640201
vt 0.530958 0.698995
vt 0.589858 0.640201
vt 0.586822 0.697790
vt 0.589858 0.698110
vt 0.592081 0.640201
vt 0.592081 0.698995
vt 0.533181 0.640201
vt 0.536217 0.720616
vt 0.533181 0.721849
vt 0.586822 0.640201
vt 0.589858 0.698995
vt 0.586822 0.700211
vt 0.536217 0.640201
vt 0.534834 0.677138
vt 0.536432 0.675244
vt 0.536647 0.676652
vt 0.534007 0.675894
vt 0.536275 0.674213
vt 0.533402 0.724195
vt 0.536217 0.723092
vt 0.536275 0.724509
vt 0.533716 0.678255
vt 0.532337 0.677564
vt 0.533402 0.674983
vt 0.533366 0.723352
vt 0.530958 0.722757
vt 0.531291 0.724195
vt 0.533181 0.680253
vt 0.536389 0.723287
vt 0.533872 0.724303
vt 0.536263 0.722180
vt 0.533181 0.721849
vt 0.534834 0.733284
vt 0.536432 0.735178
vt 0.534007 0.734528
vt 0.536432 0.701074
vt 0.533402 0.699817
vt 0.534007 0.701335
vt 0.536275 0.699510
vt 0.532337 0.732858
vt 0.533716 0.732167
vt 0.531328 0.700648
vt 0.532337 0.702007
vt 0.531663 0.730341
vt 0.533181 0.730169
vt 0.589167 0.702007
vt 0.586776 0.701812
vt 0.586650 0.703021
vt 0.589673 0.700648
vt 0.589323 0.732167
vt 0.591377 0.730341
vt 0.590702 0.732858
vt 0.589167 0.702007
vt 0.586776 0.701812
vt 0.589673 0.700648
vt 0.588206 0.733284
vt 0.589032 0.734528
vt 0.589032 0.701335
vt 0.591712 0.700648
vt 0.589637 0.699817
vt 0.586607 0.735178
vt 0.586392 0.733770
vt 0.586607 0.701074
vt 0.586764 0.699510
vt 0.588206 0.677138
vt 0.586607 0.675244
vt 0.589032 0.675894
vt 0.586764 0.674213
vt 0.589637 0.674983
vt 0.589637 0.724195
vt 0.589323 0.678255
vt 0.590702 0.677564
vt 0.591712 0.677057
vt 0.533366 0.723352
vt 0.530958 0.722757
vt 0.589858 0.680253
vt 0.591377 0.680081
vt 0.536389 0.723287
vt 0.536263 0.722180
vt 0.531663 0.680081
vt 0.536217 0.720616
vt 0.586392 0.676652
vt 0.586764 0.724509
vt 0.586650 0.703021
vt 0.589858 0.730169
vt 0.533181 0.640201
vt 0.536114 0.679066
vt 0.536980 0.678833
vt 0.535853 0.679327
vt 0.536114 0.731356
vt 0.536647 0.733770
vt 0.535853 0.731095
vt 0.535533 0.729902
vt 0.587186 0.731095
vt 0.586925 0.731356
vt 0.586059 0.731588
vt 0.586925 0.679066
vt 0.587186 0.679327
vt 0.587506 0.680520
vt 0.535533 0.680520
vt 0.586059 0.678833
vt 0.587506 0.729902
vt 0.536980 0.731588
vt 0.592081 0.640201
vt 0.589858 0.640201
vt 0.589858 0.640201
vt 0.531328 0.677057
vt 0.590702 0.702007
vt 0.531291 0.724195
vt 0.533872 0.724303
vn -0.5000 0.0000 0.8660
vn -0.8796 0.1348 0.4561
vn -0.8660 0.0000 0.5000
vn 0.5000 0.0000 0.8660
vn 0.8796 0.1348 0.4561
vn 0.5193 0.1397 0.8431
vn -0.1305 0.0000 0.9914
vn -0.5193 0.1397 0.8431
vn -0.8429 0.1149 -0.5256
vn -0.9914 0.0000 -0.1305
vn -0.9769 0.1222 -0.1756
vn 0.1366 0.1341 0.9815
vn 0.1305 0.0000 0.9914
vn -0.1250 0.1044 -0.9866
vn -0.5000 0.0000 -0.8660
vn -0.4823 0.1060 -0.8696
vn -0.9914 0.0000 0.1305
vn 0.1305 0.0000 -0.9914
vn -0.1305 0.0000 -0.9914
vn -0.8660 0.0000 -0.5000
vn 0.5000 0.0000 -0.8660
vn 0.1250 0.1044 -0.9866
vn 0.4823 0.1060 -0.8696
vn 0.8660 0.0000 -0.5000
vn 0.8429 0.1149 -0.5256
vn 0.8660 0.0000 0.5000
vn 0.9887 0.1264 0.0807
vn 0.9914 0.0000 -0.1305
vn 0.9769 0.1222 -0.1756
vn 0.9914 0.0000 0.1305
vn -0.0793 0.9658 -0.2468
vn -0.0839 0.9603 0.2661
vn -0.0207 0.9724 -0.2325
vn -0.3036 0.9347 0.1847
vn -0.1359 0.5678 0.8119
vn -0.4978 0.5587 0.6634
vn -0.1366 0.1341 0.9815
vn -0.1293 0.9444 -0.3023
vn -0.4847 0.8735 -0.0455
vn -0.8078 0.5173 0.2825
vn -0.1356 0.9254 -0.3540
vn -0.5106 0.8211 -0.2551
vn -0.8746 0.4799 -0.0693
vn -0.0702 0.8780 -0.4736
vn -0.0595 0.6887 -0.7226
vn -0.2352 0.6987 -0.6756
vn -0.3994 0.3897 -0.8298
vn -0.1020 0.3815 -0.9187
vn -0.4176 0.7419 -0.5246
vn -0.1204 0.8955 -0.4284
vn -0.7120 0.4224 -0.5609
vn -0.4887 0.7882 -0.3741
vn -0.1327 0.9135 -0.3846
vn -0.8426 0.4565 -0.2857
vn 0.1204 0.8955 -0.4284
vn 0.4887 0.7882 -0.3741
vn 0.4176 0.7419 -0.5246
vn 0.8426 0.4565 -0.2857
vn 0.7120 0.4224 -0.5609
vn 0.0702 0.8780 -0.4736
vn 0.2352 0.6987 -0.6756
vn 0.3994 0.3897 -0.8298
vn 0.0595 0.6887 -0.7226
vn 0.0174 0.8748 -0.4842
vn 0.1020 0.3815 -0.9187
vn 0.0793 0.9658 -0.2468
vn 0.0839 0.9603 0.2661
vn 0.3036 0.9347 0.1847
vn 0.1359 0.5678 0.8119
vn 0.4978 0.5587 0.6634
vn 0.1293 0.9444 -0.3023
vn 0.4847 0.8735 -0.0455
vn 0.8078 0.5173 0.2825
vn 0.1356 0.9254 -0.3540
vn 0.5106 0.8211 -0.2551
vn 0.8746 0.4799 -0.0693
vn -0.9887 0.1264 0.0807
vn 0.0207 0.9724 -0.2325
vn 0.1327 0.9135 -0.3846
vn -0.0000 0.9274 -0.3740
vn -0.0174 0.8748 -0.4842
s 1
f 3/1/1 26/2/2 4/3/3
f 12/4/4 62/5/5 58/6/6
f 1/7/7 30/8/8 3/1/1
f 46/9/9 5/10/10 38/11/11
f 50/12/12 1/7/7 10/13/13
f 34/14/14 8/15/15 42/16/16
f 2/17/17 38/11/11 5/10/10
f 34/14/14 13/18/18 6/19/19
f 10/13/13 58/6/6 50/12/12
f 42/16/16 7/20/20 46/21/9
f 15/22/21 70/23/22 78/24/23
f 16/25/24 78/24/23 74/26/25
f 11/27/26 54/28/27 62/29/5
f 14/30/28 74/31/25 66/32/29
f 66/32/29 9/33/30 14/30/28
f 82/34/31 23/35/32 81/36/33
f 31/37/34 24/38/35 23/35/32
f 32/39/36 22/40/37 24/41/35
f 83/42/38 31/37/34 82/34/31
f 27/43/39 32/44/36 31/37/34
f 28/45/40 30/46/8 32/47/36
f 84/48/41 27/43/39 83/42/38
f 19/49/42 28/45/40 27/50/39
f 20/51/43 26/52/2 28/45/40
f 85/53/44 35/54/45 43/55/46
f 35/56/45 44/57/47 43/58/46
f 36/59/48 42/16/16 44/57/47
f 85/53/44 47/60/49 87/61/50
f 43/58/46 48/62/51 47/63/49
f 44/57/47 46/21/9 48/62/51
f 87/61/50 39/64/52 88/65/53
f 47/66/49 40/67/54 39/68/52
f 48/69/51 38/11/11 40/67/54
f 89/70/55 67/71/56 75/72/57
f 75/73/57 68/74/58 76/75/59
f 76/75/59 66/32/29 74/31/25
f 91/76/60 75/72/57 79/77/61
f 79/78/61 76/79/59 80/80/62
f 80/80/62 74/26/25 78/24/23
f 91/76/60 71/81/63 92/82/64
f 71/83/63 80/80/62 72/84/65
f 72/84/65 78/24/23 70/23/22
f 93/85/66 51/86/67 59/87/68
f 59/87/68 52/88/69 60/89/70
f 60/90/70 50/12/12 58/6/6
f 95/91/71 59/87/68 63/92/72
f 63/92/72 60/89/70 64/93/73
f 64/94/73 58/95/6 62/29/5
f 96/96/74 63/92/72 55/97/75
f 55/98/75 64/94/73 56/99/76
f 56/99/76 62/29/5 54/28/27
f 88/65/53 19/100/42 84/48/41
f 39/68/52 20/51/43 19/49/42
f 40/67/54 18/101/77 20/51/43
f 81/36/33 51/86/67 94/102/78
f 51/86/67 24/38/35 52/88/69
f 24/41/35 50/12/12 52/103/69
f 54/28/27 68/74/58 56/99/76
f 56/99/76 67/104/56 55/98/75
f 55/97/75 90/105/79 96/96/74
f 70/23/22 36/59/48 72/84/65
f 36/59/48 71/83/63 72/84/65
f 35/54/45 92/82/64 71/81/63
f 4/106/3 18/101/77 2/17/17
f 29/107/80 81/36/33 21/108/80
f 29/107/80 83/42/38 82/34/31
f 25/109/80 84/48/41 83/42/38
f 41/110/80 86/111/81 85/53/44
f 41/110/80 87/61/50 45/112/80
f 45/112/80 88/65/53 37/113/80
f 73/114/80 90/105/79 89/70/55
f 77/115/80 89/70/55 91/76/60
f 77/115/80 92/82/64 69/116/80
f 57/117/80 94/102/78 93/85/66
f 57/117/80 95/91/71 61/118/80
f 61/118/80 96/96/74 53/119/80
f 17/120/80 88/65/53 84/48/41
f 21/108/80 94/102/78 49/121/80
f 53/119/80 90/105/79 65/122/80
f 69/116/80 86/111/81 33/123/80
f 3/1/1 30/8/8 26/2/2
f 12/4/4 11/124/26 62/5/5
f 1/7/7 22/40/37 30/8/8
f 46/9/9 7/125/20 5/10/10
f 50/12/12 22/40/37 1/7/7
f 34/14/14 6/19/19 8/15/15
f 2/17/17 18/101/77 38/11/11
f 34/14/14 70/23/22 13/18/18
f 10/13/13 12/4/4 58/6/6
f 42/16/16 8/15/15 7/20/20
f 15/22/21 13/18/18 70/23/22
f 16/25/24 15/22/21 78/24/23
f 11/27/26 9/33/30 54/28/27
f 14/30/28 16/126/24 74/31/25
f 66/32/29 54/28/27 9/33/30
f 82/34/31 31/37/34 23/35/32
f 31/37/34 32/44/36 24/38/35
f 32/39/36 30/8/8 22/40/37
f 83/42/38 27/43/39 31/37/34
f 27/43/39 28/127/40 32/44/36
f 28/45/40 26/52/2 30/46/8
f 84/48/41 19/100/42 27/43/39
f 19/49/42 20/51/43 28/45/40
f 20/51/43 18/101/77 26/52/2
f 85/53/44 86/111/81 35/54/45
f 35/56/45 36/59/48 44/57/47
f 36/59/48 34/14/14 42/16/16
f 85/53/44 43/55/46 47/60/49
f 43/58/46 44/57/47 48/62/51
f 44/57/47 42/16/16 46/21/9
f 87/61/50 47/60/49 39/64/52
f 47/66/49 48/69/51 40/67/54
f 48/69/51 46/9/9 38/11/11
f 89/70/55 90/105/79 67/71/56
f 75/73/57 67/104/56 68/74/58
f 76/75/59 68/74/58 66/32/29
f 91/76/60 89/70/55 75/72/57
f 79/78/61 75/128/57 76/79/59
f 80/80/62 76/79/59 74/26/25
f 91/76/60 79/77/61 71/81/63
f 71/83/63 79/78/61 80/80/62
f 72/84/65 80/80/62 78/24/23
f 93/85/66 94/102/78 51/86/67
f 59/87/68 51/86/67 52/88/69
f 60/90/70 52/103/69 50/12/12
f 95/91/71 93/85/66 59/87/68
f 63/92/72 59/87/68 60/89/70
f 64/94/73 60/129/70 58/95/6
f 96/96/74 95/91/71 63/92/72
f 55/98/75 63/130/72 64/94/73
f 56/99/76 64/94/73 62/29/5
f 88/65/53 39/64/52 19/100/42
f 39/68/52 40/67/54 20/51/43
f 40/67/54 38/11/11 18/101/77
f 81/36/33 23/35/32 51/86/67
f 51/86/67 23/35/32 24/38/35
f 24/41/35 22/40/37 50/12/12
f 54/28/27 66/32/29 68/74/58
f 56/99/76 68/74/58 67/104/56
f 55/97/75 67/71/56 90/105/79
f 70/23/22 34/14/14 36/59/48
f 36/59/48 35/56/45 71/83/63
f 35/54/45 86/111/81 92/82/64
f 4/106/3 26/52/2 18/101/77
f 29/107/80 82/34/31 81/36/33
f 29/107/80 25/109/80 83/42/38
f 25/109/80 17/120/80 84/48/41
f 41/110/80 33/123/80 86/111/81
f 41/110/80 85/53/44 87/61/50
f 45/112/80 87/61/50 88/65/53
f 73/114/80 65/122/80 90/105/79
f 77/115/80 73/114/80 89/70/55
f 77/115/80 91/76/60 92/82/64
f 57/117/80 49/121/80 94/102/78
f 57/117/80 93/85/66 95/91/71
f 61/118/80 95/91/71 96/96/74
f 17/120/80 37/113/80 88/65/53
f 21/108/80 81/36/33 94/102/78
f 53/119/80 96/96/74 90/105/79
f 69/116/80 92/82/64 86/111/81
