# Blender v2.82 (sub 7) OBJ File: ''
# www.blender.org
mtllib DLHejoBase.mtl
o HejoAPBase
v 1.500000 -0.500000 2.125000
v 0.500000 -0.400000 2.500000
v 0.500000 -0.500000 2.500000
v 1.500000 -0.500000 -0.125000
v -0.500000 -0.500000 2.125000
v -0.500000 -0.400000 -0.125000
v -0.500000 -0.500000 -0.125000
v -0.500000 -0.400000 2.125000
v 1.500000 -0.400000 2.125000
v 1.500000 -0.400000 -0.125000
v 0.500000 -0.400000 -0.500000
v 0.500000 -0.500000 -0.500000
vt 0.401327 0.731107
vt 0.248868 0.746353
vt 0.248868 0.731107
vt 0.401327 0.567214
vt 0.401327 0.910246
vt 0.248868 0.967419
vt 0.241245 0.910246
vt 0.256491 0.567214
vt 0.241245 0.567214
vt 0.096409 0.746353
vt 0.096409 0.731107
vt 0.401327 0.910246
vt 0.401327 0.567214
vt 0.248868 0.510042
vt 0.241245 0.567214
vt 0.256491 0.910246
vt 0.241245 0.910246
vt 0.248868 0.731107
vt 0.401327 0.746353
vt 0.401327 0.731107
vt 0.096409 0.731107
vt 0.248868 0.746353
vt 0.401327 0.746353
vt 0.096409 0.910246
vt 0.096409 0.567214
vt 0.248868 0.510042
vt 0.256491 0.910246
vt 0.096409 0.567214
vt 0.096409 0.910246
vt 0.248868 0.967419
vt 0.256491 0.567214
vt 0.096409 0.746353
vn 0.3511 0.0000 0.9363
vn 0.0000 -1.0000 -0.0000
vn -1.0000 -0.0000 0.0000
vn -0.3511 0.0000 0.9363
vn 0.0000 1.0000 0.0000
vn 1.0000 0.0000 0.0000
vn 0.3511 0.0000 -0.9363
vn -0.3511 0.0000 -0.9363
usemtl Color_M03.001
s 1
f 1/1/1 2/2/1 3/3/1
f 4/4/2 1/5/2 3/6/2
f 5/7/3 6/8/3 7/9/3
f 3/3/4 8/10/4 5/11/4
f 9/12/5 10/13/5 11/14/5
f 4/15/6 9/16/6 1/17/6
f 12/18/7 10/19/7 4/20/7
f 7/21/8 11/22/8 12/18/8
f 1/1/1 9/23/1 2/2/1
f 3/6/2 5/24/2 7/25/2
f 7/25/2 12/26/2 3/6/2
f 12/26/2 4/4/2 3/6/2
f 5/7/3 8/27/3 6/8/3
f 3/3/4 2/2/4 8/10/4
f 11/14/5 6/28/5 8/29/5
f 8/29/5 2/30/5 11/14/5
f 2/30/5 9/12/5 11/14/5
f 4/15/6 10/31/6 9/16/6
f 12/18/7 11/22/7 10/19/7
f 7/21/8 6/32/8 11/22/8
o DarkLightBrudger6
v 0.130000 -0.500000 1.130000
v 0.000000 -0.600000 1.000000
v 0.130000 -0.500000 0.870000
v -0.130000 -0.500000 1.130000
v -0.130000 -0.500000 0.870000
v 0.130000 -0.500000 2.130000
v 0.000000 -0.600000 2.000000
v 0.130000 -0.500000 1.870000
v -0.130000 -0.500000 2.130000
v -0.130000 -0.500000 1.870000
v 0.130000 -0.500000 0.130000
v 0.000000 -0.600000 -0.000000
v 0.130000 -0.500000 -0.130000
v -0.130000 -0.500000 0.130000
v -0.130000 -0.500000 -0.130000
v 1.130000 -0.500000 1.130000
v 1.000000 -0.600000 1.000000
v 1.130000 -0.500000 0.870000
v 0.870000 -0.500000 1.130000
v 0.870000 -0.500000 0.870000
v 1.130000 -0.500000 2.130000
v 1.000000 -0.600000 2.000000
v 1.130000 -0.500000 1.870000
v 0.870000 -0.500000 2.130000
v 0.870000 -0.500000 1.870000
v 1.130000 -0.500000 0.130000
v 1.000000 -0.600000 -0.000000
v 1.130000 -0.500000 -0.130000
v 0.870000 -0.500000 0.130000
v 0.870000 -0.500000 -0.130000
vt 0.936288 0.248472
vt 0.906735 0.218919
vt 0.936288 0.189366
vt 0.877181 0.248472
vt 0.877181 0.189366
vt 0.936288 0.248472
vt 0.906735 0.218919
vt 0.936288 0.189366
vt 0.877181 0.248472
vt 0.877181 0.189366
vt 0.936288 0.248472
vt 0.906735 0.218919
vt 0.936288 0.189366
vt 0.877181 0.248472
vt 0.877181 0.189366
vt 0.936288 0.248472
vt 0.906735 0.218919
vt 0.936288 0.189366
vt 0.877181 0.248472
vt 0.877181 0.189366
vt 0.936288 0.248472
vt 0.906735 0.218919
vt 0.936288 0.189366
vt 0.877181 0.248472
vt 0.877181 0.189366
vt 0.936288 0.248472
vt 0.906735 0.218919
vt 0.936288 0.189366
vt 0.877181 0.248472
vt 0.877181 0.189366
vn 0.6097 -0.7926 0.0000
vn 0.0000 -0.7926 0.6097
vn -0.6097 -0.7926 0.0000
vn 0.0000 -0.7926 -0.6097
usemtl Color_M03.002
s 1
f 13/33/9 14/34/9 15/35/9
f 14/34/10 13/33/10 16/36/10
f 14/34/11 16/36/11 17/37/11
f 14/34/12 17/37/12 15/35/12
f 18/38/9 19/39/9 20/40/9
f 19/39/10 18/38/10 21/41/10
f 19/39/11 21/41/11 22/42/11
f 19/39/12 22/42/12 20/40/12
f 23/43/9 24/44/9 25/45/9
f 24/44/10 23/43/10 26/46/10
f 24/44/11 26/46/11 27/47/11
f 24/44/12 27/47/12 25/45/12
f 28/48/9 29/49/9 30/50/9
f 29/49/10 28/48/10 31/51/10
f 29/49/11 31/51/11 32/52/11
f 29/49/12 32/52/12 30/50/12
f 33/53/9 34/54/9 35/55/9
f 34/54/10 33/53/10 36/56/10
f 34/54/11 36/56/11 37/57/11
f 34/54/12 37/57/12 35/55/12
f 38/58/9 39/59/9 40/60/9
f 39/59/10 38/58/10 41/61/10
f 39/59/11 41/61/11 42/62/11
f 39/59/12 42/62/12 40/60/12
