# Blender v2.91.0 OBJ File: 'GT_Magnets.blend'
# www.blender.org
v 3.441273 -0.464581 -0.461818
v 2.909436 -0.464581 0.909436
v 2.015890 -0.464581 1.425325
v 2.899946 0.473035 -0.461818
v 3.245485 0.221289 -0.461818
v 3.441273 -0.200393 -0.461818
v 1.840935 0.473035 0.772387
v 1.500000 -0.200393 1.492399
v 2.015659 -0.200393 1.424537
v 2.431172 0.473035 0.431171
v 2.908899 -0.200393 0.908963
v 3.225628 -0.200393 0.496365
v 3.441273 -0.200393 0.015751
v -0.441273 -0.464581 -0.461817
v 2.698496 0.221289 0.718969
v 1.956411 0.221289 1.147412
v 0.090564 -0.464581 0.909436
v 0.984111 -0.464581 1.425326
v 0.100054 0.473035 -0.461817
v -0.245485 0.221289 -0.461817
v -0.441273 -0.200393 -0.461817
v 1.159065 0.473035 0.772387
v 0.984342 -0.200393 1.424537
v 0.568829 0.473035 0.431171
v 0.091102 -0.200393 0.908963
v -0.225628 -0.200393 0.496365
v -0.441272 -0.200393 0.015752
v 1.500000 -0.464581 1.500000
v 3.441273 -0.464581 0.017638
v 3.232051 -0.464581 0.500000
v 0.301505 0.221289 0.718969
v 1.043590 0.221289 1.147412
v -0.441272 -0.464581 0.017639
v -0.232051 -0.464581 0.500000
vt 0.610177 0.799435
vt 0.633129 0.847699
vt 0.857893 0.450085
vt 0.632185 0.871100
vt 0.633129 0.847699
vt 0.857893 0.450085
vt 0.636088 0.821905
vt 0.629285 0.797796
vt 0.632185 0.871100
vt 0.636088 0.821905
vt 0.629285 0.797796
vt 0.610177 0.799435
vt 0.690531 0.870527
vt 0.702196 0.843617
vt 0.690540 0.843718
vt 0.000000 0.000000
vt 0.821346 0.442780
vt 0.702196 0.843617
vt 0.690540 0.843718
vt 0.688266 0.843857
vt 0.670569 0.938148
vt 0.625418 0.913873
vt 0.670569 0.938148
vt 0.669398 0.956708
vt 0.647651 0.796373
vt 0.000000 0.000000
vt 0.000000 0.000000
vt 0.634582 0.871570
vt 0.704028 0.818036
vt 0.000000 0.000000
vt 0.821346 0.442780
vt 0.688266 0.843857
vt 0.844806 0.405627
vt 0.647673 0.821956
vt 0.635551 0.847990
vt 0.635551 0.847990
vt 0.646251 0.871817
vt 0.647187 0.848145
vt 0.844806 0.405627
vt 0.646251 0.871817
vt 0.647187 0.848145
vt 0.625418 0.913873
vt 0.647673 0.821956
vt 0.669398 0.956708
vt 0.634582 0.871570
vt 0.000000 0.000000
vt 0.704028 0.818036
vt 0.647651 0.796373
vt 0.000000 0.000000
vt 0.671817 0.938074
vt 0.671817 0.938074
vt 0.672570 0.822789
vt 0.672570 0.822789
vt 0.700732 0.777680
vt 0.704520 0.843830
vt 0.704520 0.843830
vt 0.625233 0.791284
vt 0.702196 0.870529
vt 0.692108 0.795395
vt 0.692108 0.795395
vt 0.607922 0.883419
vt 0.607922 0.883419
vt 0.672766 0.804866
vt 0.682995 0.787435
vt 0.700732 0.777680
vt 0.682995 0.787435
vt 0.672766 0.804866
vt 0.625233 0.791284
vt 0.648935 0.821922
vt 0.648935 0.821922
vn -0.6703 0.6740 0.3105
vn 0.6589 0.5567 0.5058
vn -0.9070 0.4211 0.0000
vn -0.6589 0.5567 0.5058
vn 0.9070 0.4211 0.0000
vn 0.6703 0.6740 0.3105
vn -0.6825 0.6637 0.3062
vn 0.6825 0.6637 0.3062
vn 0.0000 0.3160 0.9488
vn 0.3232 0.0069 0.9463
vn 0.3054 0.2822 0.9095
vn 0.4162 0.7360 0.5339
vn 0.0818 0.9462 0.3130
vn 0.2027 0.7076 0.6769
vn -0.3232 0.0069 0.9463
vn -0.3054 0.2822 0.9095
vn 0.6079 0.1767 0.7741
vn -0.3753 0.9097 0.1778
vn -0.4162 0.7360 0.5339
vn -0.2381 0.9451 0.2237
vn 0.3753 0.9097 0.1778
vn 0.5681 0.7798 0.2632
vn -0.9780 0.0015 0.2084
vn -1.0000 0.0000 0.0000
vn -0.9780 0.0053 0.2084
vn -0.6079 0.1767 0.7741
vn -0.6579 0.0065 0.7531
vn -0.0818 0.9462 0.3130
vn -0.2027 0.7076 0.6769
vn -0.8584 0.0205 0.5126
vn 0.8584 0.0205 0.5126
vn 0.6579 0.0065 0.7531
vn 0.8583 0.0279 0.5124
vn -0.8583 0.0279 0.5124
vn 0.2381 0.9451 0.2237
vn 0.9780 0.0053 0.2084
vn 0.9780 0.0015 0.2084
vn -0.5681 0.7798 0.2632
vn 1.0000 0.0000 0.0000
vn -0.0000 -0.0000 -1.0000
vn 0.0000 -1.0000 0.0000
vn -0.0000 0.0288 0.9996
s off
f 20/1/1 26/2/1 31/3/1
f 11/4/2 12/5/2 15/6/2
f 27/7/3 20/1/3 21/8/3
f 25/9/4 31/3/4 26/2/4
f 13/10/5 6/11/5 5/12/5
f 12/5/6 5/12/6 15/6/6
f 20/1/7 27/7/7 26/2/7
f 12/5/8 13/10/8 5/12/8
s 1
f 8/13/9 3/14/10 9/15/11
f 15/6/12 7/16/13 16/17/14
f 18/18/15 8/13/9 23/19/16
f 11/4/17 16/17/14 9/20/11
f 19/21/18 31/3/19 24/22/20
f 4/23/21 15/6/12 5/24/22
f 27/7/23 14/25/24 33/26/25
f 18/27/15 25/28/26 17/29/27
f 31/3/19 22/30/28 24/22/20
f 32/31/29 25/9/26 23/32/16
f 9/20/11 16/33/14 8/13/9
f 33/34/25 26/35/30 27/7/23
f 12/36/31 2/37/32 30/38/33
f 16/33/14 22/30/28 32/39/29
f 23/32/16 8/13/9 32/39/29
f 17/40/27 26/35/30 34/41/34
f 4/23/21 10/42/35 15/6/12
f 12/36/31 29/43/36 13/10/37
f 19/21/18 20/44/38 31/3/19
f 11/45/17 3/46/10 2/47/32
f 1/48/39 13/10/37 29/49/36
f 4/50/21 19/51/18 24/22/20
f 1/52/40 14/53/40 19/54/40
f 3/55/41 18/56/41 1/57/41
f 32/39/29 8/13/9 16/33/14
f 8/13/9 28/58/42 3/14/10
f 15/6/12 10/42/35 7/16/13
f 18/18/15 28/58/42 8/13/9
f 11/4/17 15/6/12 16/17/14
f 27/7/23 21/8/24 14/25/24
f 18/27/15 23/19/16 25/28/26
f 31/3/19 32/31/29 22/30/28
f 32/31/29 31/3/19 25/9/26
f 33/34/25 34/41/34 26/35/30
f 12/36/31 11/59/17 2/37/32
f 16/33/14 7/16/13 22/30/28
f 17/40/27 25/60/26 26/35/30
f 12/36/31 30/38/33 29/43/36
f 11/45/17 9/15/11 3/46/10
f 1/48/39 6/11/39 13/10/37
f 24/22/20 22/61/28 7/62/13
f 7/62/13 10/42/35 24/22/20
f 10/42/35 4/50/21 24/22/20
f 21/63/40 20/64/40 14/53/40
f 20/64/40 19/54/40 14/53/40
f 19/54/40 4/65/40 1/52/40
f 4/65/40 5/66/40 1/52/40
f 5/66/40 6/67/40 1/52/40
f 3/55/41 28/58/41 18/56/41
f 18/56/41 17/29/41 14/68/41
f 17/29/41 34/41/41 14/68/41
f 34/41/41 33/69/41 14/68/41
f 14/68/41 1/57/41 18/56/41
f 1/57/41 29/70/41 30/38/41
f 2/47/41 1/57/41 30/38/41
f 2/47/41 3/55/41 1/57/41
