# Blender v3.0.1 OBJ File: 'GT_Bioreactor.blend'
# www.blender.org
o Cylinder.003
v 0.991951 1.121831 0.142757
v 1.001788 1.145180 0.119408
v 1.024144 1.161922 0.102666
v 0.926232 1.121845 0.142742
v 0.945954 1.168659 0.095929
v 0.995376 1.107450 0.157137
v 0.941024 1.086735 0.177852
v 1.043879 1.211730 0.052858
v 1.045777 1.167873 0.096715
v 0.992414 1.201978 0.062609
vt 0.328735 0.441025
vt 0.316536 0.495954
vt 0.140842 0.492276
vt 0.394950 0.654207
vt 0.452489 0.679016
vt 0.300063 0.812811
vt 0.439504 0.855485
vt 0.181437 0.676412
vt 0.337956 0.587113
vt 0.189402 0.359441
vn 0.0000 0.7071 0.7071
s 1
f 6/1/1 1/2/1 4/3/1
f 3/4/1 9/5/1 10/6/1
f 9/5/1 8/7/1 10/6/1
f 10/6/1 5/8/1 3/4/1
f 3/4/1 5/8/1 2/9/1
f 5/8/1 4/3/1 1/2/1
f 4/3/1 7/10/1 6/1/1
f 5/8/1 1/2/1 2/9/1
