# Blender v2.79 (sub 0) OBJ File: ''
# www.blender.org
mtllib BF_Flak_Base2.mtl
o Torus.001
v -1.385819 -0.115971 -0.574025
v -1.247237 -0.365971 -0.516623
v -1.350000 -0.365971 -0.000000
v 0.000000 -0.346911 -0.000000
v 0.000000 0.134029 0.000000
v -1.247237 0.134029 -0.516623
v -1.350000 0.134029 0.000000
v -1.060660 -0.115971 -1.060660
v -0.954594 -0.365971 -0.954594
v -0.954594 0.134029 -0.954594
v -0.574026 -0.115971 -1.385819
v -0.516623 -0.365971 -1.247237
v -0.516623 0.134029 -1.247237
v 0.000000 -0.365971 -1.350000
v 0.000000 0.134029 -1.350000
v 0.574025 -0.115971 -1.385819
v 0.516623 -0.365971 -1.247237
v 0.516623 0.134029 -1.247237
v 1.060660 -0.115971 -1.060660
v 0.954594 -0.365971 -0.954594
v 0.954594 0.134029 -0.954594
v 1.385819 -0.115971 -0.574025
v 1.247237 -0.365971 -0.516623
v 1.247237 0.134029 -0.516623
v 1.350000 -0.365971 -0.000000
v 1.350000 0.134029 0.000000
v 1.385820 -0.115971 0.574025
v 1.247238 -0.365971 0.516622
v 1.247238 0.134029 0.516622
v 1.060660 -0.115971 1.060660
v 0.954594 -0.365971 0.954594
v 0.954594 0.134029 0.954594
v 0.574025 -0.115971 1.385819
v 0.516623 -0.365971 1.247237
v 0.516623 0.134029 1.247237
v 0.000000 -0.365971 1.350000
v 0.000000 0.134029 1.350000
v -0.574026 -0.115971 1.385819
v -0.516623 -0.365971 1.247237
v -0.516623 0.134029 1.247237
v -1.060660 -0.115971 1.060661
v -0.954594 -0.365971 0.954595
v -0.954594 0.134029 0.954595
v -1.385819 -0.115971 0.574026
v -1.247237 -0.365971 0.516623
v -1.247237 0.134029 0.516623
v 2.500000 -0.500000 0.500000
v 2.500000 -0.166247 0.500000
v 2.500000 -0.500000 -0.500000
v 2.500000 -0.166247 -0.500000
v 3.500000 -0.500000 0.500000
v 3.500000 -0.166247 0.500000
v 3.500000 -0.500000 -0.500000
v 3.500000 -0.166247 -0.500000
v -3.500000 -0.500000 0.500000
v -3.500000 -0.166247 0.500000
v -3.500000 -0.500000 -0.500000
v -3.500000 -0.166247 -0.500000
v -2.500000 -0.500000 0.500000
v -2.500000 -0.166247 0.500000
v -2.500000 -0.500000 -0.500000
v -2.500000 -0.166247 -0.500000
v 0.500000 -0.500000 -2.500000
v 0.500000 -0.166247 -2.500000
v -0.500000 -0.500000 -2.500000
v -0.500000 -0.166247 -2.500000
v 0.500000 -0.500000 -3.500000
v 0.500000 -0.166247 -3.500000
v -0.500000 -0.500000 -3.500000
v -0.500000 -0.166247 -3.500000
v 0.500000 -0.500000 3.500000
v 0.500000 -0.166247 3.500000
v -0.500000 -0.500000 3.500000
v -0.500000 -0.166247 3.500000
v 0.500000 -0.500000 2.500000
v 0.500000 -0.166247 2.500000
v -0.500000 -0.500000 2.500000
v -0.500000 -0.166247 2.500000
v 0.258311 -0.461639 2.494474
v -0.000000 -0.461639 2.700000
v -0.000000 -0.336638 -3.000000
v -0.000000 -0.461638 -2.700000
v 0.287012 -0.336639 2.771638
v 0.258311 -0.211639 2.494474
v -0.000000 -0.336639 3.000000
v 0.258311 -0.461638 -2.494474
v -0.287013 -0.336639 2.771638
v -0.258312 -0.461639 2.494474
v -0.287013 -0.336638 -2.771638
v -0.000000 -0.211638 -2.700000
v 0.258311 -0.211638 -2.494474
v -0.258312 -0.461638 -2.494474
v 0.287012 -0.336638 -2.771638
v -0.258312 -0.211638 -2.494474
v -0.000000 -0.211639 2.700000
v -0.258312 -0.211639 2.494474
v 2.494474 -0.211638 -0.258312
v 2.700000 -0.211638 -0.000000
v 2.771638 -0.336638 -0.287013
v 2.771640 -0.336639 0.287012
v 2.494476 -0.461639 0.258311
v -3.000000 -0.336638 -0.000000
v -2.700000 -0.211638 -0.000000
v -2.494474 -0.211638 -0.258312
v -2.494474 -0.461638 -0.258312
v -2.700000 -0.461638 -0.000000
v -2.494474 -0.461639 0.258311
v -2.771638 -0.336639 0.287013
v 3.000000 -0.336638 -0.000000
v 2.700000 -0.461638 -0.000000
v -2.771638 -0.336638 -0.287013
v -2.494474 -0.211639 0.258311
v 2.494474 -0.461638 -0.258312
v 2.494476 -0.211639 0.258311
v 0.500000 -0.500000 0.500000
v 0.500000 -0.166247 0.500000
v -0.500000 -0.500000 0.500000
v -0.500000 -0.166247 0.500000
v 0.500000 -0.500000 -0.500000
v 0.500000 -0.166247 -0.500000
v -0.500000 -0.500000 -0.500000
v -0.500000 -0.166247 -0.500000
vt 0.226562 0.726562
vt 0.226562 0.726562
vt 0.226562 0.726562
vt 0.226562 0.726562
vt 0.226562 0.726562
vt 0.226562 0.726562
vt 0.226562 0.726562
vt 0.226562 0.726562
vt 0.257812 0.699219
vt 0.257812 0.699219
vt 0.257812 0.699219
vt 0.257812 0.699219
vt 0.257812 0.699219
vt 0.257812 0.699219
vt 0.257812 0.699219
vt 0.257812 0.699219
vt 0.167969 0.625000
vt 0.167969 0.625000
vt 0.167969 0.625000
vt 0.167969 0.625000
vt 0.167969 0.625000
vt 0.167969 0.625000
vt 0.167969 0.625000
vt 0.167969 0.625000
vt 0.238281 0.687500
vt 0.238281 0.687500
vt 0.238281 0.687500
vt 0.238281 0.687500
vt 0.238281 0.687500
vt 0.238281 0.687500
vt 0.238281 0.687500
vt 0.238281 0.687500
vt 0.152344 0.742187
vt 0.152344 0.742187
vt 0.152344 0.742187
vt 0.152344 0.742187
vt 0.152344 0.742187
vt 0.152344 0.742187
vt 0.152344 0.742187
vt 0.152344 0.742187
vt 0.390625 0.625000
vt 0.089844 0.578125
vt 0.089844 0.578125
vt 0.390625 0.625000
vt 0.089844 0.578125
vt 0.390625 0.625000
vt 0.390625 0.867188
vt 0.240234 0.601562
vt 0.390625 0.867188
vt 0.085937 0.863281
vt 0.085937 0.863281
vt 0.390625 0.867188
vt 0.390625 0.867188
vt 0.085937 0.863281
vt 0.089844 0.578125
vt 0.390625 0.625000
vt 0.390625 0.867188
vt 0.085937 0.863281
vt 0.089844 0.578125
vt 0.390625 0.625000
vt 0.390625 0.867188
vt 0.085937 0.863281
vt 0.089844 0.578125
vt 0.390625 0.625000
vt 0.390625 0.867188
vt 0.085937 0.863281
vt 0.089844 0.578125
vt 0.390625 0.625000
vt 0.390625 0.867188
vt 0.085937 0.863281
vt 0.089844 0.578125
vt 0.390625 0.625000
vt 0.390625 0.867188
vt 0.085937 0.863281
vt 0.089844 0.578125
vt 0.390625 0.625000
vt 0.390625 0.867188
vt 0.085937 0.863281
vt 0.390625 0.625000
vt 0.089844 0.578125
vt 0.089844 0.578125
vt 0.390625 0.625000
vt 0.089844 0.578125
vt 0.390625 0.625000
vt 0.390625 0.867188
vt 0.085937 0.863281
vt 0.085937 0.863281
vt 0.390625 0.867188
vt 0.390625 0.867188
vt 0.085937 0.863281
vt 0.089844 0.578125
vt 0.085937 0.863281
vt 0.085937 0.863281
vt 0.089844 0.578125
vt 0.390625 0.867188
vt 0.085937 0.863281
vt 0.390625 0.867188
vt 0.390625 0.625000
vt 0.390625 0.625000
vt 0.390625 0.867188
vt 0.390625 0.625000
vt 0.390625 0.867188
vt 0.089844 0.578125
vt 0.390625 0.625000
vt 0.390625 0.867188
vt 0.085937 0.863281
vt 0.089844 0.578125
vt 0.390625 0.625000
vt 0.390625 0.867188
vt 0.085937 0.863281
vt 0.089844 0.578125
vt 0.390625 0.625000
vt 0.390625 0.867188
vt 0.085937 0.863281
vt 0.089844 0.578125
vt 0.390625 0.625000
vt 0.390625 0.867188
vt 0.085937 0.863281
vt 0.089844 0.578125
vt 0.390625 0.625000
vt 0.390625 0.867188
vt 0.085937 0.863281
vt 0.085937 0.863281
vt 0.089844 0.578125
vt 0.390625 0.867188
vt 0.085937 0.863281
vt 0.089844 0.578125
vt 0.390625 0.625000
vt 0.390625 0.625000
vt 0.390625 0.867188
vt 0.089844 0.578125
vt 0.390625 0.625000
vt 0.390625 0.867188
vt 0.085937 0.863281
vt 0.089844 0.578125
vt 0.390625 0.625000
vt 0.390625 0.867188
vt 0.085937 0.863281
vt 0.089844 0.578125
vt 0.390625 0.625000
vt 0.390625 0.867188
vt 0.085937 0.863281
vt 0.089844 0.578125
vt 0.390625 0.625000
vt 0.390625 0.867188
vt 0.085937 0.863281
vt 0.089844 0.578125
vt 0.085937 0.863281
vt 0.089844 0.578125
vt 0.390625 0.625000
vt 0.390625 0.867188
vt 0.085937 0.863281
vt 0.089844 0.578125
vt 0.390625 0.625000
vt 0.390625 0.867188
vt 0.085937 0.863281
vt 0.089844 0.578125
vt 0.390625 0.625000
vt 0.089844 0.578125
vt 0.390625 0.625000
vt 0.085937 0.863281
vt 0.390625 0.867188
vt 0.390625 0.867188
vt 0.085937 0.863281
vt 0.390625 0.625000
vt 0.089844 0.578125
vt 0.089844 0.578125
vt 0.390625 0.625000
vt 0.390625 0.625000
vt 0.390625 0.867188
vt 0.089844 0.578125
vt 0.390625 0.625000
vt 0.390625 0.867188
vt 0.085937 0.863281
vt 0.089844 0.578125
vt 0.390625 0.625000
vt 0.390625 0.867188
vt 0.085937 0.863281
vt 0.089844 0.578125
vt 0.390625 0.625000
vt 0.390625 0.867188
vt 0.085937 0.863281
vt 0.089844 0.578125
vt 0.390625 0.625000
vt 0.390625 0.867188
vt 0.085937 0.863281
vt 0.089844 0.578125
vt 0.390625 0.625000
vt 0.390625 0.867188
vt 0.085937 0.863281
vt 0.089844 0.578125
vt 0.390625 0.625000
vt 0.390625 0.867188
vt 0.085937 0.863281
vt 0.085937 0.863281
vt 0.390625 0.867188
vt 0.390625 0.867188
vt 0.085937 0.863281
vt 0.089844 0.578125
vt 0.390625 0.625000
vt 0.390625 0.625000
vt 0.390625 0.867188
vt 0.089844 0.578125
vt 0.390625 0.625000
vt 0.390625 0.867188
vt 0.085937 0.863281
vt 0.089844 0.578125
vt 0.390625 0.625000
vt 0.390625 0.867188
vt 0.085937 0.863281
vt 0.089844 0.578125
vt 0.390625 0.625000
vt 0.390625 0.867188
vt 0.085937 0.863281
vt 0.089844 0.578125
vt 0.390625 0.625000
vt 0.390625 0.867188
vt 0.085937 0.863281
vt 0.089844 0.578125
vt 0.390625 0.625000
vt 0.390625 0.867188
vt 0.085937 0.863281
vt 0.089844 0.578125
vt 0.390625 0.625000
vt 0.390625 0.867188
vt 0.085937 0.863281
vt 0.089844 0.578125
vt 0.390625 0.625000
vt 0.390625 0.867188
vt 0.085937 0.863281
vt 0.089844 0.578125
vt 0.390625 0.625000
vt 0.390625 0.867188
vt 0.085937 0.863281
vt 0.089844 0.578125
vt 0.390625 0.625000
vt 0.390625 0.625000
vt 0.390625 0.867188
vt 0.085937 0.863281
vt 0.089844 0.578125
vt 0.390625 0.867188
vt 0.085937 0.863281
vt 0.085937 0.863281
vt 0.089844 0.578125
vt 0.390625 0.625000
vt 0.390625 0.867188
vt 0.390625 0.867188
vt 0.085937 0.863281
vt 0.085937 0.863281
vt 0.089844 0.578125
vt 0.089844 0.578125
vt 0.390625 0.625000
vt 0.390625 0.867188
vt 0.085937 0.863281
vt 0.089844 0.578125
vt 0.390625 0.625000
vt 0.390625 0.867188
vt 0.085937 0.863281
vt 0.089844 0.578125
vt 0.390625 0.625000
vt 0.390625 0.867188
vt 0.085937 0.863281
vt 0.089844 0.578125
vt 0.390625 0.625000
vt 0.390625 0.867188
vt 0.085937 0.863281
vt 0.089844 0.578125
vt 0.390625 0.625000
vt 0.390625 0.867188
vt 0.085937 0.863281
vt 0.089844 0.578125
vt 0.390625 0.625000
vt 0.390625 0.867188
vt 0.085937 0.863281
vt 0.089844 0.578125
vt 0.390625 0.625000
vt 0.390625 0.867188
vt 0.085937 0.863281
vt 0.089844 0.578125
vt 0.390625 0.625000
vt 0.390625 0.867188
vt 0.085937 0.863281
vt 0.085937 0.863281
vt 0.089844 0.578125
vt 0.390625 0.867188
vt 0.085937 0.863281
vt 0.390625 0.625000
vt 0.390625 0.867188
vt 0.089844 0.578125
vt 0.390625 0.625000
vt 0.085937 0.863281
vt 0.089844 0.578125
vt 0.390625 0.625000
vt 0.390625 0.867188
vt 0.085937 0.863281
vt 0.089844 0.578125
vt 0.089844 0.578125
vt 0.390625 0.625000
vn -1.0000 -0.0000 0.0000
vn 0.0000 0.0000 -1.0000
vn 1.0000 0.0000 0.0000
vn 0.0000 0.0000 1.0000
vn 0.0000 -1.0000 -0.0000
vn 0.0000 1.0000 0.0000
vn -0.0764 -0.9966 0.0304
vn 0.0439 -0.8334 -0.5509
vn 0.0454 -0.8293 -0.5569
vn 0.0141 -0.9999 -0.0000
vn 0.0141 -0.9999 0.0028
vn 0.0120 -0.9999 -0.0050
vn 0.2656 0.9583 0.1057
vn 0.2984 0.8394 0.4542
vn 0.3003 0.7836 0.5438
vn -0.7166 -0.5072 -0.4788
vn 0.0120 -0.9999 0.0080
vn 0.0100 -0.9999 0.0100
vn 0.0076 -0.9999 0.0114
vn -0.7166 0.5072 -0.4788
vn -0.4788 -0.5072 -0.7166
vn 0.0054 -0.9999 0.0130
vn -0.4788 0.5072 -0.7166
vn 0.5509 -0.8334 -0.0439
vn -0.0304 -0.9966 0.0764
vn 0.5569 -0.8293 -0.0454
vn 0.0028 -0.9999 0.0141
vn 0.4542 0.8394 0.2984
vn 0.1057 0.9583 0.2656
vn 0.5438 0.7836 0.3003
vn 0.9170 -0.3716 -0.1453
vn -0.0028 -0.9999 0.0141
vn -0.0054 -0.9999 0.0130
vn -0.0076 -0.9999 0.0114
vn 0.5509 -0.8334 0.0439
vn 0.9170 -0.3716 0.1453
vn 0.5569 -0.8293 0.0454
vn 0.4788 -0.5072 -0.7166
vn -0.0100 -0.9999 0.0100
vn 0.4788 0.5072 -0.7166
vn 0.7166 -0.5072 -0.4788
vn -0.0120 -0.9999 0.0080
vn 0.7166 0.5072 -0.4788
vn -0.2984 0.8394 -0.4542
vn -0.2771 0.4962 -0.8228
vn -0.3003 0.7836 -0.5438
vn -0.0141 -0.9999 0.0028
vn -0.0141 -0.9999 -0.0000
vn -0.0134 -0.9999 -0.0027
vn -0.0439 -0.8334 -0.5509
vn 0.0764 -0.9966 0.0304
vn -0.0454 -0.8293 -0.5569
vn 0.1453 -0.3716 -0.9170
vn -0.0130 -0.9999 -0.0054
vn -0.2656 0.9583 -0.1057
vn 0.7166 -0.5072 0.4788
vn -0.0120 -0.9999 -0.0080
vn 0.7166 0.5072 0.4788
vn 0.4788 -0.5072 0.7166
vn -0.0080 -0.9999 -0.0120
vn -0.0054 -0.9999 -0.0130
vn -0.0027 -0.9999 -0.0134
vn 0.4788 0.5072 0.7166
vn 0.0304 -0.9966 0.0764
vn -0.5509 -0.8334 -0.0439
vn -0.5569 -0.8293 -0.0454
vn 0.0000 -0.9999 -0.0141
vn -0.1057 0.9583 0.2656
vn -0.4542 0.8394 0.2984
vn -0.5438 0.7836 0.3003
vn -0.5509 -0.8334 0.0439
vn 0.0304 -0.9966 -0.0764
vn -0.5569 -0.8293 0.0454
vn 0.0028 -0.9999 -0.0141
vn -0.9170 -0.3716 -0.1453
vn -0.4788 -0.5072 0.7166
vn 0.0080 -0.9999 -0.0120
vn 0.0100 -0.9999 -0.0100
vn -0.4788 0.5072 0.7166
vn -0.7166 -0.5072 0.4788
vn 0.0130 -0.9999 -0.0054
vn -0.7166 0.5072 0.4788
vn -0.2984 0.8394 0.4542
vn -0.2656 0.9583 0.1057
vn -0.3003 0.7836 0.5438
vn -0.2771 0.4962 0.8228
vn -0.2926 -0.8827 -0.3678
vn -0.2926 0.8827 -0.3678
vn 0.2926 -0.8827 -0.3678
vn 0.2926 0.8827 -0.3678
vn 0.2926 -0.8827 0.3678
vn 0.2926 0.8827 0.3678
vn -0.2926 -0.8827 0.3678
vn -0.2926 0.8827 0.3678
vn -0.0304 -0.9966 -0.0764
vn 0.8228 0.4962 0.2771
vn 0.4542 0.8394 -0.2984
vn 0.8228 0.4962 -0.2771
vn 0.5438 0.7836 -0.3003
vn -0.4542 0.8394 -0.2984
vn -0.1057 0.9583 -0.2656
vn -0.5438 0.7836 -0.3003
vn -0.9170 -0.3716 0.1453
vn -0.8228 0.4962 -0.2771
vn 0.1057 0.9583 -0.2656
vn -0.8228 0.4962 0.2771
vn -0.3678 -0.8827 -0.2926
vn -0.3678 0.8827 -0.2926
vn 0.3678 -0.8827 -0.2926
vn 0.3678 0.8827 -0.2926
vn 0.3678 -0.8827 0.2926
vn 0.3678 0.8827 0.2926
vn -0.3678 -0.8827 0.2926
vn -0.3678 0.8827 0.2926
vn -0.1453 -0.3716 -0.9170
vn 0.2984 0.8394 -0.4542
vn 0.2656 0.9583 -0.1057
vn 0.3003 0.7836 -0.5438
vn -0.0439 -0.8334 0.5509
vn -0.1453 -0.3716 0.9170
vn -0.0454 -0.8293 0.5569
vn 0.0439 -0.8334 0.5509
vn -0.0764 -0.9966 -0.0304
vn 0.0454 -0.8293 0.5569
vn 0.1453 -0.3716 0.9170
vn 0.2771 0.4962 -0.8228
vn 0.2771 0.4962 0.8228
vn 0.0764 -0.9966 -0.0304
usemtl None.009
s off
f 47/1/1 48/2/1 50/3/1 49/4/1
f 49/4/2 50/3/2 54/5/2 53/6/2
f 53/6/3 54/5/3 52/7/3 51/8/3
f 51/8/4 52/7/4 48/2/4 47/1/4
f 49/4/5 53/6/5 51/8/5 47/1/5
f 54/5/6 50/3/6 48/2/6 52/7/6
f 55/9/1 56/10/1 58/11/1 57/12/1
f 57/12/2 58/11/2 62/13/2 61/14/2
f 61/14/3 62/13/3 60/15/3 59/16/3
f 59/16/4 60/15/4 56/10/4 55/9/4
f 57/12/5 61/14/5 59/16/5 55/9/5
f 62/13/6 58/11/6 56/10/6 60/15/6
f 63/17/4 64/18/4 66/19/4 65/20/4
f 65/20/1 66/19/1 70/21/1 69/22/1
f 69/22/2 70/21/2 68/23/2 67/24/2
f 67/24/3 68/23/3 64/18/3 63/17/3
f 65/20/5 69/22/5 67/24/5 63/17/5
f 70/21/6 66/19/6 64/18/6 68/23/6
f 71/25/4 72/26/4 74/27/4 73/28/4
f 73/28/1 74/27/1 78/29/1 77/30/1
f 77/30/2 78/29/2 76/31/2 75/32/2
f 75/32/3 76/31/3 72/26/3 71/25/3
f 73/28/5 77/30/5 75/32/5 71/25/5
f 78/29/6 74/27/6 72/26/6 76/31/6
f 115/33/4 116/34/4 118/35/4 117/36/4
f 117/36/1 118/35/1 122/37/1 121/38/1
f 121/38/2 122/37/2 120/39/2 119/40/2
f 119/40/3 120/39/3 116/34/3 115/33/3
f 117/36/5 121/38/5 119/40/5 115/33/5
f 122/37/6 118/35/6 116/34/6 120/39/6
s 1
f 25/41/7 23/42/8 113/43/9 110/44/7
f 3/45/10 2/46/11 4/47/12
f 5/48/6 6/49/6 7/50/6
f 26/51/13 29/52/14 114/53/15 98/54/13
f 1/55/16 8/56/16 9/57/16 2/58/16
f 2/59/17 9/60/18 4/47/19
f 5/48/6 10/61/6 6/62/6
f 6/63/20 10/64/20 8/65/20 1/66/20
f 8/67/21 11/68/21 12/69/21 9/70/21
f 9/71/18 12/72/22 4/47/19
f 5/48/6 13/73/6 10/74/6
f 10/75/23 13/76/23 11/77/23 8/78/23
f 17/79/24 14/80/25 82/81/25 86/82/26
f 12/83/22 14/84/27 4/47/19
f 5/48/6 15/85/6 13/86/6
f 35/87/28 37/88/29 95/89/29 84/90/30
f 16/91/31 17/92/24 86/93/26 93/94/31
f 14/80/32 17/79/33 4/47/34
f 5/48/6 18/95/6 15/96/6
f 34/97/35 33/98/36 83/99/36 79/100/37
f 16/91/38 19/101/38 20/102/38 17/92/38
f 17/103/33 20/104/39 4/47/34
f 5/48/6 21/105/6 18/106/6
f 18/107/40 21/108/40 19/109/40 16/110/40
f 19/111/41 22/112/41 23/113/41 20/114/41
f 20/115/39 23/116/42 4/47/34
f 5/48/6 24/117/6 21/118/6
f 21/119/43 24/120/43 22/121/43 19/122/43
f 6/63/44 1/66/45 111/123/45 104/124/46
f 23/42/47 25/41/48 4/47/49
f 5/48/6 26/125/6 24/126/6
f 2/46/50 3/45/51 106/127/51 105/128/52
f 23/113/8 22/112/53 99/129/53 113/130/9
f 25/131/48 28/132/54 4/47/49
f 5/48/6 29/52/6 26/51/6
f 7/50/55 6/49/44 104/133/46 103/134/55
f 27/135/56 30/136/56 31/137/56 28/138/56
f 28/139/54 31/140/57 4/47/49
f 5/48/6 32/141/6 29/142/6
f 29/143/58 32/144/58 30/145/58 27/146/58
f 30/147/59 33/98/59 34/97/59 31/148/59
f 31/149/60 34/150/61 4/47/62
f 5/48/6 35/151/6 32/152/6
f 32/153/63 35/154/63 33/155/63 30/156/63
f 14/84/64 12/83/65 92/157/66 82/158/64
f 34/159/61 36/160/67 4/47/62
f 5/48/6 37/88/6 35/87/6
f 37/161/68 40/162/69 96/163/70 95/164/68
f 39/165/71 36/166/72 80/167/72 88/168/73
f 36/166/67 39/165/74 4/47/62
f 5/48/6 40/162/6 37/161/6
f 12/69/65 11/68/75 89/169/75 92/170/66
f 38/171/76 41/172/76 42/173/76 39/174/76
f 39/175/77 42/176/78 4/47/12
f 5/48/6 43/177/6 40/178/6
f 40/179/79 43/180/79 41/181/79 38/182/79
f 41/183/80 44/184/80 45/185/80 42/186/80
f 42/187/78 45/188/81 4/47/12
f 5/48/6 46/189/6 43/190/6
f 43/191/82 46/192/82 44/193/82 41/194/82
f 46/195/83 7/196/84 103/197/84 112/198/85
f 45/199/81 3/200/10 4/47/12
f 5/48/6 7/196/6 46/195/6
f 44/193/86 46/192/83 112/201/85 108/202/86
f 89/203/87 81/204/87 82/205/87 92/206/87
f 94/207/88 90/208/88 81/209/88 89/210/88
f 81/211/89 93/212/89 86/213/89 82/214/89
f 90/215/90 91/216/90 93/217/90 81/218/90
f 83/219/91 85/220/91 80/221/91 79/222/91
f 84/223/92 95/224/92 85/225/92 83/226/92
f 85/227/93 87/228/93 88/229/93 80/230/93
f 95/231/94 96/232/94 87/233/94 85/234/94
f 36/160/95 34/159/35 79/235/37 80/236/95
f 33/155/96 35/154/28 84/237/30 83/238/96
f 18/107/97 16/110/98 93/239/98 91/240/99
f 13/86/100 15/85/101 90/241/101 94/242/102
f 38/171/103 39/174/71 88/243/73 87/244/103
f 11/77/104 13/76/100 94/245/102 89/246/104
f 15/96/105 18/95/97 91/247/99 90/248/105
f 40/179/69 38/182/106 87/249/106 96/250/70
f 102/251/107 111/252/107 105/253/107 106/254/107
f 103/255/108 104/256/108 111/257/108 102/258/108
f 99/259/109 109/260/109 110/261/109 113/262/109
f 97/263/110 98/264/110 109/265/110 99/266/110
f 109/267/111 100/268/111 101/269/111 110/270/111
f 98/271/112 114/272/112 100/273/112 109/274/112
f 108/275/113 102/276/113 106/277/113 107/278/113
f 112/279/114 103/280/114 102/281/114 108/282/114
f 1/55/115 2/58/50 105/283/52 111/284/115
f 24/126/116 26/125/117 98/285/117 97/286/118
f 45/185/119 44/184/120 108/287/120 107/288/121
f 28/132/122 25/131/123 110/289/123 101/290/124
f 27/135/125 28/138/122 101/291/124 100/292/125
f 22/121/126 24/120/116 97/293/118 99/294/126
f 29/143/14 27/146/127 100/295/127 114/296/15
f 3/200/128 45/199/119 107/297/121 106/298/128
