# Blender v2.82 (sub 7) OBJ File: 'BF Neon Tube Lights.blend'
# www.blender.org
mtllib BF Neon Tube Light.mtl
o BF_Neon_Tube_Light_Cylinder.003
v -0.500000 -0.500983 -0.225000
v 0.500000 -0.500982 -0.225000
v -0.500000 -0.500983 0.225000
v 0.500000 -0.500982 0.225000
v -0.500000 -0.464903 0.220558
v 0.500000 -0.464903 0.220558
v -0.500000 -0.431154 0.207761
v 0.500000 -0.431154 0.207761
v -0.500000 -0.400051 0.186980
v 0.500000 -0.400051 0.186980
v -0.500000 -0.372789 0.159013
v 0.500000 -0.372789 0.159013
v -0.500000 -0.353706 0.129947
v 0.500000 -0.353706 0.129947
v -0.500000 -0.353706 -0.129948
v 0.500000 -0.353706 -0.129948
v -0.500000 -0.372789 -0.159014
v 0.500000 -0.372789 -0.159014
v -0.500000 -0.400051 -0.186980
v 0.500000 -0.400051 -0.186980
v -0.500000 -0.431154 -0.207761
v 0.500000 -0.431154 -0.207761
v -0.500000 -0.464903 -0.220558
v 0.500000 -0.464903 -0.220558
v -0.450000 -0.480096 -0.247550
v 0.450000 -0.480096 -0.247550
v 0.450000 -0.480096 0.247550
v -0.450000 -0.480096 0.247550
v -0.450000 -0.460982 0.245196
v 0.450000 -0.460982 0.245196
v -0.450000 -0.423463 0.230970
v 0.450000 -0.423463 0.230970
v -0.450000 -0.388886 0.207867
v 0.450000 -0.388886 0.207867
v -0.450000 -0.358579 0.176777
v 0.450000 -0.358579 0.176777
v -0.450000 -0.358579 -0.176777
v 0.450000 -0.358579 -0.176777
v -0.450000 -0.388886 -0.207868
v 0.450000 -0.388886 -0.207868
v -0.450000 -0.423464 -0.230970
v 0.450000 -0.423464 -0.230970
v -0.450000 -0.460982 -0.245196
v 0.450000 -0.460982 -0.245196
v 0.487500 -0.500982 0.225000
v 0.487500 -0.500982 -0.225000
v -0.487500 -0.500983 0.225000
v -0.487500 -0.500983 -0.225000
v -0.487500 -0.464903 0.220558
v 0.487500 -0.464903 0.220558
v -0.487500 -0.431154 0.207761
v 0.487500 -0.431154 0.207761
v -0.487500 -0.400051 0.186980
v 0.487500 -0.400051 0.186980
v -0.487500 -0.372789 0.159013
v 0.487500 -0.372789 0.159013
v -0.487500 -0.353706 0.129947
v 0.487500 -0.353706 0.129947
v -0.487500 -0.353706 -0.129948
v 0.487500 -0.353706 -0.129948
v -0.487500 -0.372789 -0.159014
v 0.487500 -0.372789 -0.159014
v -0.487500 -0.400051 -0.186980
v 0.487500 -0.400051 -0.186980
v -0.487500 -0.431154 -0.207761
v 0.487500 -0.431154 -0.207761
v -0.487500 -0.464903 -0.220558
v 0.487500 -0.464903 -0.220558
v -0.470000 -0.333706 -0.000000
v 0.470000 -0.333706 -0.000000
v -0.500000 -0.353706 -0.000000
v 0.500000 -0.353706 -0.000000
v -0.487500 -0.353706 -0.000000
v 0.487500 -0.353706 -0.000000
v -0.500000 -0.500000 -0.250000
v 0.500000 -0.500000 -0.250000
v 0.500000 -0.500000 0.250000
v -0.500000 -0.500000 0.250000
v -0.500000 -0.460982 0.245196
v 0.500000 -0.460982 0.245196
v -0.500000 -0.423463 0.230970
v 0.500000 -0.423463 0.230970
v -0.500000 -0.388886 0.207867
v 0.500000 -0.388886 0.207867
v -0.500000 -0.358579 0.176777
v 0.500000 -0.358579 0.176777
v -0.500000 -0.333706 0.138892
v 0.500000 -0.333706 0.138892
v -0.500000 -0.333706 -0.000000
v -0.500000 -0.333706 -0.138893
v 0.500000 -0.333706 -0.000000
v 0.500000 -0.333706 -0.138893
v -0.500000 -0.358579 -0.176777
v 0.500000 -0.358579 -0.176777
v -0.500000 -0.388886 -0.207868
v 0.500000 -0.388886 -0.207868
v -0.500000 -0.423464 -0.230970
v 0.500000 -0.423464 -0.230970
v -0.500000 -0.460982 -0.245196
v 0.500000 -0.460982 -0.245196
v 0.470000 -0.343706 -0.000000
v -0.470000 -0.343706 -0.000000
v -0.420000 -0.333706 0.138892
v -0.470000 -0.333706 0.113892
v -0.499975 -0.333706 0.138892
v -0.460004 -0.346138 0.157828
v 0.470000 -0.333706 0.113892
v 0.420000 -0.333706 0.138892
v 0.460004 -0.346138 0.157828
v 0.499975 -0.333706 0.138892
v -0.470000 -0.333706 -0.113893
v -0.420000 -0.333706 -0.138893
v -0.460004 -0.346138 -0.157828
v -0.499975 -0.333706 -0.138893
v 0.420000 -0.333706 -0.138893
v 0.470000 -0.333706 -0.113893
v 0.499975 -0.333706 -0.138893
v 0.460004 -0.346138 -0.157828
v 0.420000 -0.343706 0.138892
v 0.470000 -0.343706 0.113892
v -0.470000 -0.343706 0.113892
v -0.420000 -0.343706 0.138892
v 0.470000 -0.343706 -0.113893
v 0.420000 -0.343706 -0.138893
v -0.420000 -0.343706 -0.138893
v -0.470000 -0.343706 -0.113893
vt 0.275585 0.725405
vt 0.275585 0.774595
vt 0.273912 0.774595
vt 0.273912 0.725405
vt 0.270496 0.774595
vt 0.270496 0.725405
vt 0.267080 0.774595
vt 0.267080 0.725405
vt 0.263664 0.774595
vt 0.263664 0.725405
vt 0.260248 0.722675
vt 0.258403 0.725405
vt 0.250000 0.725405
vt 0.250000 0.722672
vt 0.260248 0.722672
vt 0.821774 0.066858
vt 0.821956 0.067117
vt 0.821956 0.071464
vt 0.821774 0.071723
vt 0.820943 0.071723
vt 0.820943 0.066858
vt 0.241597 0.725405
vt 0.250000 0.725405
vt 0.241597 0.725405
vt 0.236336 0.725405
vt 0.236336 0.774595
vt 0.232920 0.774595
vt 0.232920 0.725405
vt 0.229504 0.774595
vt 0.229504 0.725405
vt 0.226088 0.774595
vt 0.226088 0.725405
vt 0.224415 0.774595
vt 0.224415 0.725405
vt 0.230959 0.722672
vt 0.227906 0.722672
vt 0.227906 0.722672
vt 0.230959 0.722672
vt 0.269041 0.777328
vt 0.272094 0.777328
vt 0.272094 0.777328
vt 0.269041 0.777328
vt 0.272094 0.722672
vt 0.274637 0.722672
vt 0.277328 0.722672
vt 0.273912 0.722672
vt 0.274637 0.777328
vt 0.273912 0.777328
vt 0.277328 0.777328
vt 0.269041 0.722672
vt 0.270496 0.722672
vt 0.270496 0.777328
vt 0.265904 0.722672
vt 0.267080 0.722672
vt 0.265904 0.777328
vt 0.267080 0.777328
vt 0.262735 0.722672
vt 0.263664 0.722672
vt 0.262735 0.777328
vt 0.263664 0.777328
vt 0.259992 0.722672
vt 0.259992 0.777328
vt 0.260248 0.777328
vt 0.250000 0.722672
vt 0.250000 0.777328
vt 0.240008 0.777328
vt 0.239752 0.777328
vt 0.250000 0.777328
vt 0.237265 0.722672
vt 0.240008 0.722672
vt 0.239752 0.722672
vt 0.236336 0.722672
vt 0.237265 0.777328
vt 0.236336 0.777328
vt 0.234096 0.722672
vt 0.232920 0.722672
vt 0.234096 0.777328
vt 0.232920 0.777328
vt 0.229504 0.722672
vt 0.230959 0.777328
vt 0.229504 0.777328
vt 0.226088 0.722672
vt 0.227906 0.777328
vt 0.226088 0.777328
vt 0.225363 0.722672
vt 0.222672 0.722672
vt 0.225363 0.777328
vt 0.222672 0.777328
vt 0.872020 0.888942
vt 0.874563 0.888942
vt 0.825289 0.888942
vt 0.827832 0.888942
vt 0.830885 0.888942
vt 0.834022 0.888942
vt 0.837191 0.888942
vt 0.839934 0.888942
vt 0.849926 0.888942
vt 0.859918 0.888942
vt 0.862661 0.888942
vt 0.865830 0.888942
vt 0.868966 0.888942
vt 0.874563 0.834286
vt 0.872020 0.834286
vt 0.868966 0.834286
vt 0.865830 0.834286
vt 0.862661 0.834286
vt 0.859918 0.834286
vt 0.849926 0.834286
vt 0.839934 0.834286
vt 0.837191 0.834286
vt 0.834022 0.834286
vt 0.830885 0.834286
vt 0.827832 0.834286
vt 0.825289 0.834286
vt 0.259992 0.777328
vt 0.250000 0.777328
vt 0.265904 0.722672
vt 0.269041 0.722672
vt 0.230959 0.777328
vt 0.227906 0.777328
vt 0.237265 0.722672
vt 0.240008 0.722672
vt 0.265904 0.777328
vt 0.225363 0.722672
vt 0.240008 0.777328
vt 0.237265 0.777328
vt 0.262735 0.722672
vt 0.225363 0.777328
vt 0.234096 0.722672
vt 0.262735 0.777328
vt 0.272094 0.722672
vt 0.274637 0.722672
vt 0.234096 0.777328
vt 0.259992 0.722672
vt 0.274637 0.777328
vt 0.250000 0.722672
vt 0.825289 0.834286
vt 0.261955 0.774595
vt 0.260248 0.771979
vt 0.260248 0.728022
vt 0.261955 0.725405
vt 0.260248 0.777326
vt 0.258403 0.774595
vt 0.250000 0.774595
vt 0.250000 0.774595
vt 0.258403 0.774595
vt 0.239752 0.777326
vt 0.241597 0.774595
vt 0.238045 0.774595
vt 0.239752 0.722674
vt 0.241597 0.774595
vt 0.239752 0.771979
vt 0.239752 0.728022
vt 0.239752 0.728022
vt 0.239752 0.771979
vt 0.820112 0.071723
vt 0.819929 0.071464
vt 0.819929 0.067117
vt 0.820112 0.066858
vt 0.258403 0.725405
vt 0.238045 0.725405
vt 0.260248 0.725405
vt 0.260248 0.774595
vt 0.239752 0.725405
vt 0.239752 0.774595
vt 0.260248 0.728022
vt 0.260248 0.771979
vn -0.0000 0.1222 0.9925
vn 0.0000 0.2401 0.9707
vn -0.0000 0.4580 0.8890
vn -0.0000 0.6393 0.7690
vn 0.0000 0.7796 0.6263
vn -0.0000 0.9565 0.2919
vn 0.0000 0.9917 0.1283
vn -0.0000 1.0000 -0.0000
vn 1.0000 -0.0000 0.0000
vn -0.0000 0.7796 -0.6263
vn -0.0000 0.6393 -0.7690
vn -0.0000 0.4580 -0.8890
vn -0.0000 0.2401 -0.9707
vn -0.0000 0.1222 -0.9925
vn 0.0000 -0.4580 0.8890
vn 0.0000 -0.2401 0.9707
vn 0.0000 -0.4580 -0.8890
vn 0.0000 -0.2401 -0.9707
vn -1.0000 0.0000 0.0000
vn 0.0000 -1.0000 0.0000
vn 0.0000 -0.6393 -0.7690
vn 0.0000 -0.8359 0.5488
vn 0.0000 -0.7796 0.6263
vn 0.0000 -0.1222 0.9925
vn 0.0000 -0.7796 -0.6263
vn 0.0000 -0.6393 0.7690
vn 0.0000 -0.1222 -0.9925
vn 0.0000 -0.8359 -0.5488
vn 0.0000 -0.9992 -0.0393
vn 0.0000 -0.9997 -0.0262
vn 0.0000 -0.9992 0.0393
vn 0.0000 -0.9997 0.0262
vn 0.0000 0.8876 0.4607
vn -0.0000 0.8770 0.4806
vn 0.0000 0.8359 0.5488
vn -0.0000 0.9565 -0.2919
vn -0.0000 0.9917 -0.1283
vn -0.0000 0.8876 -0.4607
vn -0.0000 0.8359 -0.5488
vn -0.2298 0.0000 0.9732
vn 0.2298 0.0000 0.9732
vn -0.0000 0.8770 -0.4806
vn 0.2298 -0.0000 -0.9732
vn 0.4472 -0.0000 -0.8944
vn -0.4472 0.0000 0.8944
vn -0.4472 -0.0000 -0.8944
vn -0.2298 -0.0000 -0.9732
vn 0.4472 0.0000 0.8944
usemtl Material.006
s 1
f 28/1/1 27/2/1 30/3/2 29/4/2
f 29/4/2 30/3/2 32/5/3 31/6/3
f 31/6/3 32/5/3 34/7/4 33/8/4
f 33/8/4 34/7/4 36/9/5 35/10/5
f 105/11/6 104/12/7 69/13/8 89/14/8 87/15/8
f 121/16/8 122/17/8 119/18/8 120/19/8 101/20/8 102/21/8
f 111/22/9 69/13/9 102/23/9 126/24/9
f 37/25/10 38/26/10 40/27/11 39/28/11
f 39/28/11 40/27/11 42/29/12 41/30/12
f 41/30/12 42/29/12 44/31/13 43/32/13
f 43/32/13 44/31/13 26/33/14 25/34/14
f 21/35/15 23/36/16 67/37/16 65/38/15
f 8/39/17 6/40/18 50/41/18 52/42/17
f 5/43/19 3/44/19 78/45/19 79/46/19
f 4/47/9 6/40/9 80/48/9 77/49/9
f 7/50/19 5/43/19 79/46/19 81/51/19
f 6/40/9 8/39/9 82/52/9 80/48/9
f 9/53/19 7/50/19 81/51/19 83/54/19
f 8/39/9 10/55/9 84/56/9 82/52/9
f 11/57/19 9/53/19 83/54/19 85/58/19
f 10/55/9 12/59/9 86/60/9 84/56/9
f 13/61/19 11/57/19 85/58/19 87/15/19
f 12/59/9 14/62/9 88/63/9 86/60/9
f 71/64/19 13/61/19 87/15/19 89/14/19
f 72/65/9 16/66/9 92/67/9 91/68/9
f 17/69/19 15/70/19 90/71/19 93/72/19
f 16/66/9 18/73/9 94/74/9 92/67/9
f 19/75/19 17/69/19 93/72/19 95/76/19
f 18/73/9 20/77/9 96/78/9 94/74/9
f 21/35/19 19/75/19 95/76/19 97/79/19
f 20/77/9 22/80/9 98/81/9 96/78/9
f 23/36/19 21/35/19 97/79/19 99/82/19
f 22/80/9 24/83/9 100/84/9 98/81/9
f 1/85/19 23/36/19 99/82/19 75/86/19
f 24/83/9 2/87/9 76/88/9 100/84/9
f 50/89/9 45/90/9 46/91/9 68/92/9 66/93/9 64/94/9 62/95/9 60/96/9 74/97/9 58/98/9 56/99/9 54/100/9 52/101/9
f 47/102/19 49/103/19 51/104/19 53/105/19 55/106/19 57/107/19 73/108/19 59/109/19 61/110/19 63/111/19 65/112/19 67/113/19 48/114/19
f 72/65/20 14/62/20 58/115/20 74/116/20
f 7/50/17 9/53/21 53/117/21 51/118/17
f 24/83/16 22/80/15 66/119/15 68/120/16
f 15/70/22 17/69/23 61/121/23 59/122/22
f 10/55/21 8/39/17 52/42/17 54/123/21
f 23/36/16 1/85/24 48/124/24 67/37/16
f 18/73/23 16/66/22 60/125/22 62/126/23
f 9/53/21 11/57/25 55/127/25 53/117/21
f 2/87/24 24/83/16 68/120/16 46/128/24
f 17/69/23 19/75/26 63/129/26 61/121/23
f 12/59/25 10/55/21 54/123/21 56/130/25
f 3/44/27 5/43/18 49/131/18 47/132/27
f 20/77/26 18/73/23 62/126/23 64/133/26
f 11/57/25 13/61/28 57/134/28 55/127/25
f 6/40/18 4/47/27 45/135/27 50/41/18
f 19/75/26 21/35/15 65/38/15 63/129/26
f 14/62/28 12/59/25 56/130/25 58/115/28
f 5/43/18 7/50/17 51/118/17 49/131/18
f 22/80/15 20/77/26 64/133/26 66/119/15
f 71/64/20 15/70/20 59/122/20 73/136/20
f 75/86/29 76/88/29 2/87/29 46/128/30 1/85/29
f 78/45/31 3/44/31 47/132/32 45/135/32 4/47/31 77/49/31
f 46/91/30 45/90/32 47/102/32 48/114/20 1/137/29
f 13/61/20 71/64/20 73/136/20 57/134/20
f 16/66/20 72/65/20 74/116/20 60/125/20
f 14/62/9 72/65/9 91/68/9 88/63/9
f 15/70/19 71/64/19 89/14/19 90/71/19
f 35/10/5 36/9/5 109/138/33 108/139/34 103/140/34 106/141/33
f 25/34/14 26/33/14 76/88/14 75/86/14
f 27/2/1 28/1/1 78/45/1 77/49/1
f 28/1/1 29/4/2 79/46/2 78/45/1
f 30/3/2 27/2/1 77/49/1 80/48/2
f 29/4/2 31/6/3 81/51/3 79/46/2
f 32/5/3 30/3/2 80/48/2 82/52/3
f 31/6/3 33/8/4 83/54/4 81/51/3
f 34/7/4 32/5/3 82/52/3 84/56/4
f 33/8/4 35/10/5 85/58/5 83/54/4
f 36/9/5 34/7/4 84/56/4 86/60/5
f 110/142/6 109/138/33 36/9/5 86/60/5 88/63/35
f 107/143/19 70/144/19 101/145/19 120/146/19
f 117/147/36 116/148/37 70/144/8 91/68/8 92/67/8
f 38/26/10 118/149/38 117/147/36 92/67/39 94/74/10
f 69/13/8 111/22/37 114/150/36 90/71/8 89/14/8
f 70/144/19 116/148/19 123/151/19 101/145/19
f 37/25/10 39/28/11 95/76/11 93/72/10
f 40/27/11 38/26/10 94/74/10 96/78/11
f 39/28/11 41/30/12 97/79/12 95/76/11
f 42/29/12 40/27/11 96/78/11 98/81/12
f 41/30/12 43/32/13 99/82/13 97/79/12
f 44/31/13 42/29/12 98/81/12 100/84/13
f 43/32/13 25/34/14 75/86/14 99/82/13
f 26/33/14 44/31/13 100/84/13 76/88/14
f 35/10/5 106/141/33 105/11/6 87/15/35 85/58/5
f 115/152/40 112/153/41 125/154/41 124/155/40
f 102/21/8 101/20/8 123/156/8 124/157/8 125/158/8 126/159/8
f 69/13/9 104/12/9 121/160/9 102/23/9
f 70/144/8 107/143/7 110/142/6 88/63/8 91/68/8
f 114/150/36 113/161/38 37/25/10 93/72/10 90/71/39
f 113/161/38 112/153/42 115/152/42 118/149/38 38/26/10 37/25/10
f 103/140/34 104/162/7 105/11/6 106/141/33
f 107/143/7 108/163/34 109/138/33 110/142/6
f 111/22/37 112/164/42 113/161/38 114/150/36
f 115/152/42 116/165/37 117/147/36 118/149/38
f 103/140/43 122/166/43 121/160/44 104/12/44
f 115/152/40 124/155/40 123/151/45 116/148/45
f 107/143/46 120/146/46 119/167/47 108/139/47
f 125/154/41 112/153/41 111/22/48 126/24/48
f 103/140/43 108/139/47 119/167/47 122/166/43
o BF_Block_Smooth_111.002_BF_Block_Smooth_111.004
v -0.000000 -0.600002 -0.000002
v -0.132022 -0.500002 -0.132023
v 0.132023 -0.500002 -0.132023
v -0.132022 -0.500002 -0.132023
v -0.000000 -0.600002 -0.000002
v -0.132023 -0.500002 0.132023
v -0.000000 -0.600002 -0.000002
v 0.132023 -0.500002 0.132023
v -0.132023 -0.500002 0.132023
v 0.132023 -0.500002 0.132023
v -0.000000 -0.600002 -0.000002
v 0.132023 -0.500002 -0.132023
v -0.132022 -0.495002 -0.132023
v 0.132023 -0.495002 -0.132023
v -0.132022 -0.495002 -0.132023
v -0.132023 -0.495002 0.132023
v 0.132023 -0.495002 0.132023
v -0.132023 -0.495002 0.132023
v 0.132023 -0.495002 0.132023
v 0.132023 -0.495002 -0.132023
vt 0.031246 0.031498
vt 0.060715 0.060967
vt 0.060715 0.002028
vt 0.060715 0.060967
vt 0.031246 0.031498
vt 0.001776 0.060967
vt 0.031246 0.031498
vt 0.001776 0.002028
vt 0.001776 0.060967
vt 0.001776 0.002028
vt 0.031246 0.031498
vt 0.060715 0.002028
vt 0.060715 0.060967
vt 0.060715 0.002028
vt 0.060715 0.002028
vt 0.001776 0.002028
vt 0.001776 0.060967
vt 0.060715 0.060967
vt 0.001776 0.002028
vt 0.001776 0.060967
vn -0.0000 -0.7971 -0.6038
vn -0.6038 -0.7971 -0.0000
vn 0.0000 -0.7971 0.6038
vn 0.6038 -0.7971 0.0000
vn -0.0000 0.0000 -1.0000
vn 1.0000 0.0000 -0.0000
vn -1.0000 0.0000 -0.0000
vn 0.0000 0.0000 1.0000
usemtl Default_OBJ.005
s off
f 127/168/49 128/169/49 129/170/49
f 130/171/50 131/172/50 132/173/50
f 133/174/51 134/175/51 135/176/51
f 136/177/52 137/178/52 138/179/52
f 129/170/53 128/169/53 139/180/53 140/181/53
f 136/177/54 138/179/54 146/182/54 145/183/54
f 130/171/55 132/173/55 142/184/55 141/185/55
f 135/176/56 134/175/56 143/186/56 144/187/56
