# Blender v2.82 (sub 7) OBJ File: 'HE_Knife_Wing_A.blend'
# www.blender.org
mtllib HE_Knife_Wing_Collider.mtl
o Kinfe_Wing_Collider_m_HE_Wing_Middle_312_Instance.002
v 0.499999 -0.050000 -0.000000
v -0.500001 -0.100000 0.300000
v -0.500001 -0.140000 0.540000
v -0.170001 -0.140000 0.540000
v -0.900001 -0.100000 0.300000
v -1.500000 -0.140000 0.540000
v -1.500000 -0.050000 0.000000
v -1.500000 -0.140000 1.300000
v -0.830001 -0.140000 0.540000
v -0.100001 0.100000 0.300000
v -0.500001 0.140000 0.540000
v -0.500001 0.100000 0.300000
v -0.900001 0.100000 0.300000
v -1.500000 0.140000 1.300000
v 0.499999 0.140000 0.540000
v 0.499999 -0.140000 0.540000
v 0.499999 -0.020000 -0.500000
v -0.500001 0.040000 2.500000
v -0.500001 -0.040000 2.500000
v 0.300000 0.040000 3.500000
v -1.500000 0.140000 0.540000
v -1.500000 0.020000 -0.500000
v -1.300001 0.020000 -0.400000
v -1.300001 -0.020000 -0.400000
v -1.200001 -0.050000 0.000000
v -0.100001 -0.100000 0.300000
v 0.300000 -0.040000 3.500000
v -1.170000 -0.140000 1.300000
v -1.170000 0.140000 1.300000
v -1.300000 -0.040000 1.500000
v -1.300000 0.040000 1.500000
v 0.499999 0.140000 3.300000
v 0.499999 -0.140000 3.300000
v -1.500000 -0.020000 -0.500000
v -1.500000 0.050000 0.000000
v -1.200001 0.050000 0.000000
v 0.199999 -0.050000 -0.000000
v 0.499999 0.050000 -0.000000
v 0.499999 0.020000 -0.500000
v 0.199999 0.050000 -0.000000
v 0.299999 -0.020000 -0.400000
v 0.299999 0.020000 -0.400000
v 0.169999 -0.140000 0.540000
v -1.170001 -0.140000 0.540000
vt 0.278963 0.284913
vt 0.281387 0.331312
vt 0.254728 0.331312
vt 0.254728 0.284913
vt 0.303320 0.310690
vt 0.279085 0.284913
vt 0.281508 0.331312
vt 0.308975 0.331312
vt 0.445717 0.387463
vt 0.445717 0.394851
vt 0.404044 0.391355
vt 0.404245 0.388605
vt 0.335633 0.331312
vt 0.335633 0.310690
vt 0.303198 0.310690
vt 0.308853 0.331312
vt 0.335511 0.310690
vt 0.335511 0.331312
vt 0.374983 0.383225
vt 0.402469 0.389550
vt 0.374382 0.388330
vt 0.355068 0.421117
vt 0.355068 0.453938
vt 0.369319 0.453938
vt 0.369319 0.421117
vt 0.303320 0.310690
vt 0.362291 0.331312
vt 0.254850 0.331312
vt 0.335633 0.310690
vt 0.279085 0.284913
vt 0.254850 0.284913
vt 0.374829 0.395266
vt 0.366783 0.393233
vt 0.374420 0.390203
vt 0.362170 0.331312
vt 0.335511 0.310690
vt 0.303198 0.310690
vt 0.254728 0.331312
vt 0.278963 0.284913
vt 0.254728 0.284913
vt 0.369319 0.421117
vt 0.441439 0.334746
vt 0.441439 0.453938
vt 0.370428 0.241399
vt 0.367821 0.285718
vt 0.376511 0.285718
vt 0.373904 0.241399
vt 0.360000 0.331775
vt 0.384332 0.331775
vt 0.373904 0.241399
vt 0.376511 0.285718
vt 0.367821 0.285718
vt 0.370428 0.241399
vt 0.402535 0.390160
vt 0.393042 0.389961
vt 0.393061 0.389353
vt 0.000000 0.000000
vt 0.000000 0.000000
vt 0.000000 0.000000
vt 0.384332 0.394343
vt 0.360000 0.394343
vt 0.360000 0.331775
vt 0.384332 0.331775
vt 0.000000 0.000000
vt 0.000000 0.000000
vt 0.000000 0.000000
vt 0.000000 0.000000
vt 0.000000 0.000000
vt 0.000000 0.000000
vt 0.000000 0.000000
vt 0.000000 0.000000
vt 0.000000 0.000000
vt 0.366793 0.384994
vt 0.441439 0.453938
vt 0.355068 0.453938
vt 0.355068 0.421117
vt 0.000000 0.000000
vt 0.270885 0.250543
vt 0.254728 0.241951
vt 0.000000 0.000000
vt 0.270885 0.250543
vt 0.254728 0.241951
vt 0.254850 0.284913
vt 0.271007 0.250543
vt 0.254850 0.241951
vt 0.271007 0.250543
vt 0.254850 0.241951
vt 0.000000 0.000000
vt 0.441439 0.334746
vt 0.254850 0.331312
vt 0.000000 0.000000
vt 0.000000 0.000000
vt 0.000000 0.000000
vn -0.0000 -0.9864 -0.1644
vn 1.0000 -0.0000 -0.0000
vn -0.2833 -0.9306 0.2316
vn -0.0000 -1.0000 -0.0000
vn 0.0000 0.9864 -0.1644
vn 0.0000 0.8944 0.4472
vn 0.0000 1.0000 0.0000
vn -1.0000 0.0000 0.0000
vn 0.7071 -0.0000 0.7071
vn -0.7809 0.0000 0.6247
vn 0.0439 -0.9970 -0.0638
vn -0.0439 0.9970 -0.0638
vn -0.2833 0.9306 0.2316
vn 0.0000 -0.8944 0.4472
vn -0.7071 0.0000 0.7071
vn 0.0299 -0.9978 -0.0599
vn -0.0000 -0.9972 -0.0748
vn 0.0439 0.9970 -0.0638
vn 0.0000 0.9972 -0.0748
vn 0.0299 0.9978 -0.0599
vn -0.0299 -0.9978 -0.0599
vn -0.0299 0.9978 -0.0599
vn -0.0439 -0.9970 -0.0638
vn 0.0000 0.9935 -0.1135
vn -0.0000 0.0000 -1.0000
vn -0.0000 -0.9935 -0.1135
usemtl Default_OBJ
s off
f 25/1/1 44/2/1 6/3/1 7/4/1
f 26/5/1 37/6/1 43/7/1
f 43/7/1 4/8/1 26/5/1
f 16/9/2 15/10/2 32/11/2 33/12/2
f 26/5/1 4/8/1 3/13/1 2/14/1
f 44/2/1 5/15/1 9/16/1
f 5/15/1 44/2/1 25/1/1
f 2/17/1 3/18/1 9/16/1 5/15/1
f 28/19/3 33/12/3 27/20/3 30/21/3
f 8/22/4 6/23/4 44/24/4 28/25/4
f 10/26/5 11/27/5 15/28/5
f 11/27/5 10/26/5 12/29/5
f 15/28/5 40/30/5 10/26/5
f 38/31/5 40/30/5 15/28/5
f 29/32/6 14/33/6 31/34/6
f 11/35/5 12/36/5 13/37/5
f 13/37/5 21/38/5 11/35/5
f 21/38/5 13/37/5 36/39/5
f 21/38/5 36/39/5 35/40/5
f 29/41/7 32/42/7 15/43/7
f 39/44/2 38/45/2 1/46/2 17/47/2
f 1/46/2 38/45/2 15/48/2 16/49/2
f 34/50/8 7/51/8 35/52/8 22/53/8
f 32/11/9 20/54/9 27/20/9 33/12/9
f 18/55/10 19/56/10 27/20/10 20/54/10
f 2/57/1 5/58/1 25/59/1
f 8/60/8 14/61/8 21/62/8 6/63/8
f 6/63/8 21/62/8 35/52/8 7/51/8
f 37/64/1 26/65/1 2/57/1
f 41/66/11 37/64/11 2/57/11
f 42/67/7 22/68/7 23/69/7
f 36/70/5 13/71/5 12/72/5
f 23/69/12 36/70/12 12/72/12
f 31/34/10 30/21/10 19/56/10 18/55/10
f 32/11/13 29/32/13 31/34/13 20/54/13
f 28/19/14 30/21/14 8/73/14
f 28/25/4 44/24/4 16/74/4
f 21/75/7 14/76/7 29/41/7
f 42/67/7 39/77/7 22/68/7
f 8/73/15 30/21/15 31/34/15 14/33/15
f 24/78/16 7/4/16 34/79/16
f 7/4/17 24/78/17 25/1/17
f 40/80/18 42/67/18 12/72/18
f 35/40/19 36/39/19 23/81/19
f 23/81/20 22/82/20 35/40/20
f 1/83/17 37/6/17 41/84/17
f 41/84/21 17/85/21 1/83/21
f 42/86/22 38/31/22 39/87/22
f 38/31/19 42/86/19 40/30/19
f 10/88/5 40/80/5 12/72/5
f 28/25/4 16/74/4 33/89/4
f 37/6/1 1/83/1 16/90/1 43/7/1
f 15/43/7 21/75/7 29/41/7
f 24/91/4 34/92/4 41/66/4
f 2/57/23 25/59/23 24/91/23
f 34/92/4 17/93/4 41/66/4
f 42/67/24 23/69/24 12/72/24
f 39/77/25 17/93/25 34/92/25 22/68/25
f 2/57/26 24/91/26 41/66/26
