# Blender v2.82 (sub 7) OBJ File: 'HE_Knife_Wing_A.blend'
# www.blender.org
mtllib HE_Knife_Wing_A.mtl
o Knife_Wing_m_HE_Wing_Middle_312_Instance
v 0.499999 -0.050000 -0.000000
v -0.500001 -0.100000 0.300000
v -0.500001 -0.140000 0.540000
v -0.170001 -0.140000 0.540000
v -0.900001 -0.100000 0.300000
v -1.500000 -0.140000 0.540000
v -1.500000 -0.050000 0.000000
v -1.500000 -0.140000 1.300000
v -0.830001 -0.140000 0.540000
v -0.100001 0.100000 0.300000
v -0.500001 0.140000 0.540000
v -0.500001 0.100000 0.300000
v -0.900001 0.100000 0.300000
v -1.500000 0.140000 1.300000
v 0.499999 0.140000 0.540000
v 0.499999 -0.140000 0.540000
v 0.499999 -0.020000 -0.500000
v -0.500001 0.040000 2.500000
v -0.500001 -0.040000 2.500000
v 0.300000 0.040000 3.500000
v -1.500000 0.140000 0.540000
v -1.500000 0.020000 -0.500000
v -1.300001 0.020000 -0.400000
v -1.300001 -0.020000 -0.400000
v -1.200001 -0.050000 0.000000
v -0.100001 -0.100000 0.300000
v 0.300000 -0.040000 3.500000
v -1.170000 -0.140000 1.300000
v -1.170000 0.140000 1.300000
v -1.300000 -0.040000 1.500000
v -1.300000 0.040000 1.500000
v 0.499999 0.140000 3.300000
v 0.499999 -0.140000 3.300000
v -1.500000 -0.020000 -0.500000
v -1.500000 0.050000 0.000000
v -1.200001 0.050000 0.000000
v 0.199999 -0.050000 -0.000000
v 0.499999 0.050000 -0.000000
v 0.499999 0.020000 -0.500000
v 0.199999 0.050000 -0.000000
v 0.299999 -0.020000 -0.400000
v 0.299999 0.020000 -0.400000
v 0.169999 -0.140000 0.540000
v -1.170001 -0.140000 0.540000
v 0.499999 -0.130000 0.870000
v 0.499999 0.130000 0.870000
v 0.499999 0.130000 1.130000
v 0.499999 -0.130000 1.130000
v 0.499999 -0.130000 1.130000
v 0.499999 -0.130000 0.870000
v 0.599999 -0.000000 1.000000
v 0.499999 0.130000 1.130000
v 0.599999 -0.000000 1.000000
v 0.499999 0.130000 0.870000
v 0.599999 -0.000000 1.000000
v 0.499999 -0.130000 0.870000
v 0.499999 0.130000 0.870000
v 0.499999 0.130000 1.130000
v 0.499999 -0.130000 1.130000
v 0.599999 -0.000000 1.000000
v -1.500000 -0.130000 1.130000
v -1.500000 0.130000 1.130000
v -1.600001 0.000000 1.000000
v -1.500000 -0.130000 0.870000
v -1.600001 0.000000 1.000000
v -1.500000 0.130000 0.870000
v -1.600001 0.000000 1.000000
v -1.500000 0.130000 1.130000
v -1.500000 0.130000 0.870000
v -1.500000 -0.130000 0.870000
v -1.500000 -0.130000 1.130000
v -1.600001 0.000000 1.000000
v 0.499999 -0.130000 2.130000
v 0.499999 -0.130000 1.870000
v 0.599999 -0.000000 2.000000
v 0.499999 0.130000 2.130000
v 0.599999 -0.000000 2.000000
v 0.499999 0.130000 1.870000
v 0.599999 -0.000000 2.000000
v 0.499999 -0.130000 1.870000
v 0.499999 0.130000 1.870000
v 0.499999 0.130000 2.130000
v 0.499999 -0.130000 2.130000
v 0.599999 -0.000000 2.000000
v 0.499999 -0.130000 3.130000
v 0.499999 -0.130000 2.870000
v 0.599999 -0.000000 3.000000
v 0.499999 0.130000 3.130000
v 0.599999 -0.000000 3.000000
v 0.499999 0.130000 2.870000
v 0.599999 -0.000000 3.000000
v 0.499999 -0.130000 2.870000
v 0.499999 0.130000 2.870000
v 0.499999 0.130000 3.130000
v 0.499999 -0.130000 3.130000
v 0.599999 -0.000000 3.000000
vt 0.278963 0.284913
vt 0.281387 0.331312
vt 0.254728 0.331312
vt 0.254728 0.284913
vt 0.303320 0.310690
vt 0.279085 0.284913
vt 0.281508 0.331312
vt 0.308975 0.331312
vt 0.445717 0.387463
vt 0.445717 0.394851
vt 0.404044 0.391355
vt 0.404245 0.388605
vt 0.335633 0.331312
vt 0.335633 0.310690
vt 0.303198 0.310690
vt 0.308853 0.331312
vt 0.335511 0.310690
vt 0.335511 0.331312
vt 0.374983 0.383225
vt 0.402469 0.389550
vt 0.374382 0.388330
vt 0.355068 0.421117
vt 0.355068 0.453938
vt 0.369319 0.453938
vt 0.369319 0.421117
vt 0.303320 0.310690
vt 0.362291 0.331312
vt 0.254850 0.331312
vt 0.335633 0.310690
vt 0.279085 0.284913
vt 0.254850 0.284913
vt 0.374829 0.395266
vt 0.366783 0.393233
vt 0.374420 0.390203
vt 0.362170 0.331312
vt 0.335511 0.310690
vt 0.303198 0.310690
vt 0.254728 0.331312
vt 0.278963 0.284913
vt 0.254728 0.284913
vt 0.369319 0.421117
vt 0.441439 0.334746
vt 0.441439 0.453938
vt 0.370428 0.241399
vt 0.367821 0.285718
vt 0.376511 0.285718
vt 0.373904 0.241399
vt 0.360000 0.331775
vt 0.384332 0.331775
vt 0.373904 0.241399
vt 0.376511 0.285718
vt 0.367821 0.285718
vt 0.370428 0.241399
vt 0.402535 0.390160
vt 0.393042 0.389961
vt 0.393061 0.389353
vt 0.282583 0.410791
vt 0.271221 0.413226
vt 0.271221 0.416472
vt 0.282583 0.418907
vt 0.384332 0.394343
vt 0.360000 0.394343
vt 0.360000 0.331775
vt 0.384332 0.331775
vt 0.465999 0.418907
vt 0.477361 0.416472
vt 0.477361 0.413226
vt 0.465999 0.410791
vt 0.300437 0.423139
vt 0.300437 0.406730
vt 0.340204 0.423139
vt 0.340204 0.406730
vt 0.496027 0.416472
vt 0.496027 0.413226
vt 0.366793 0.384994
vt 0.441439 0.453938
vt 0.355068 0.453938
vt 0.355068 0.421117
vt 0.408377 0.406730
vt 0.408377 0.423139
vt 0.448144 0.423139
vt 0.448144 0.406730
vt 0.270885 0.250543
vt 0.254728 0.241951
vt 0.252554 0.413226
vt 0.252554 0.416472
vt 0.270885 0.250543
vt 0.254728 0.241951
vt 0.254850 0.284913
vt 0.271007 0.250543
vt 0.254850 0.241951
vt 0.271007 0.250543
vt 0.254850 0.241951
vt 0.441439 0.334746
vt 0.254850 0.331312
vt 0.075351 0.073845
vt 0.075351 0.002667
vt 0.039499 0.038249
vt 0.004325 0.073845
vt 0.039499 0.038249
vt 0.004325 0.002667
vt 0.039499 0.038249
vt 0.075351 0.002667
vt 0.004325 0.002667
vt 0.004325 0.073845
vt 0.075351 0.073845
vt 0.039499 0.038249
vt 0.075351 0.002667
vt 0.004325 0.002667
vt 0.039499 0.038249
vt 0.075351 0.073845
vt 0.039499 0.038249
vt 0.004325 0.073845
vt 0.039499 0.038249
vt 0.004325 0.002667
vt 0.004325 0.073845
vt 0.075351 0.073845
vt 0.075351 0.002667
vt 0.039499 0.038249
vt 0.075351 0.073845
vt 0.075351 0.002667
vt 0.039499 0.038249
vt 0.004325 0.073845
vt 0.039499 0.038249
vt 0.004325 0.002667
vt 0.039499 0.038249
vt 0.075351 0.002667
vt 0.004325 0.002667
vt 0.004325 0.073845
vt 0.075351 0.073845
vt 0.039499 0.038249
vt 0.075351 0.073845
vt 0.075351 0.002667
vt 0.039499 0.038249
vt 0.004325 0.073845
vt 0.039499 0.038249
vt 0.004325 0.002667
vt 0.039499 0.038249
vt 0.075351 0.002667
vt 0.004325 0.002667
vt 0.004325 0.073845
vt 0.075351 0.073845
vt 0.039499 0.038249
vn -0.0000 -0.9864 -0.1644
vn 1.0000 -0.0000 -0.0000
vn -0.2833 -0.9306 0.2316
vn -0.0000 -1.0000 -0.0000
vn 0.0000 0.9864 -0.1644
vn 0.0000 0.8944 0.4472
vn 0.0000 1.0000 0.0000
vn -1.0000 0.0000 0.0000
vn 0.7071 -0.0000 0.7071
vn -0.7809 0.0000 0.6247
vn 0.9701 0.0000 -0.2425
vn -0.9701 0.0000 -0.2425
vn 0.7071 -0.0000 -0.7071
vn -0.0000 0.0000 -1.0000
vn -0.4472 0.0000 -0.8944
vn -0.2833 0.9306 0.2316
vn 0.0000 -0.8944 0.4472
vn -0.7071 0.0000 0.7071
vn 0.0299 -0.9978 -0.0599
vn -0.0000 -0.9972 -0.0748
vn 0.4472 0.0000 -0.8944
vn 0.0000 0.9972 -0.0748
vn 0.0299 0.9978 -0.0599
vn -0.0299 -0.9978 -0.0599
vn -0.0299 0.9978 -0.0599
vn -0.7071 0.0000 -0.7071
vn 0.7926 -0.6097 0.0000
vn 0.7926 0.6097 0.0000
vn 0.7926 0.0000 -0.6097
vn 0.7926 0.0000 0.6097
vn -0.7926 0.0000 0.6097
vn -0.7926 0.0000 -0.6097
vn -0.7926 0.6097 0.0000
vn -0.7926 -0.6097 0.0000
usemtl Default_OBJ
s off
f 25/1/1 44/2/1 6/3/1 7/4/1
f 26/5/1 37/6/1 43/7/1
f 43/7/1 4/8/1 26/5/1
f 16/9/2 15/10/2 32/11/2 33/12/2
f 26/5/1 4/8/1 3/13/1 2/14/1
f 44/2/1 5/15/1 9/16/1
f 5/15/1 44/2/1 25/1/1
f 2/17/1 3/18/1 9/16/1 5/15/1
f 28/19/3 33/12/3 27/20/3 30/21/3
f 8/22/4 6/23/4 44/24/4 28/25/4
f 10/26/5 11/27/5 15/28/5
f 11/27/5 10/26/5 12/29/5
f 15/28/5 40/30/5 10/26/5
f 38/31/5 40/30/5 15/28/5
f 29/32/6 14/33/6 31/34/6
f 11/35/5 12/36/5 13/37/5
f 13/37/5 21/38/5 11/35/5
f 21/38/5 13/37/5 36/39/5
f 21/38/5 36/39/5 35/40/5
f 29/41/7 32/42/7 15/43/7
f 39/44/2 38/45/2 1/46/2 17/47/2
f 1/46/2 38/45/2 15/48/2 16/49/2
f 34/50/8 7/51/8 35/52/8 22/53/8
f 32/11/9 20/54/9 27/20/9 33/12/9
f 18/55/10 19/56/10 27/20/10 20/54/10
f 25/57/11 24/58/11 23/59/11 36/60/11
f 8/61/8 14/62/8 21/63/8 6/64/8
f 6/64/8 21/63/8 35/52/8 7/51/8
f 40/65/12 42/66/12 41/67/12 37/68/12
f 13/69/13 25/57/13 36/60/13
f 25/57/13 13/69/13 5/70/13
f 5/70/14 13/69/14 12/71/14 2/72/14
f 41/67/15 42/66/15 39/73/15 17/74/15
f 31/34/10 30/21/10 19/56/10 18/55/10
f 32/11/16 29/32/16 31/34/16 20/54/16
f 28/19/17 30/21/17 8/75/17
f 28/25/4 44/24/4 16/76/4
f 21/77/7 14/78/7 29/41/7
f 2/79/14 12/80/14 10/81/14 26/82/14
f 8/75/18 30/21/18 31/34/18 14/33/18
f 24/83/19 7/4/19 34/84/19
f 7/4/20 24/83/20 25/1/20
f 34/85/21 22/86/21 23/59/21 24/58/21
f 35/40/22 36/39/22 23/87/22
f 23/87/23 22/88/23 35/40/23
f 1/89/20 37/6/20 41/90/20
f 41/90/24 17/91/24 1/89/24
f 42/92/25 38/31/25 39/93/25
f 38/31/22 42/92/22 40/30/22
f 26/82/26 10/81/26 40/65/26 37/68/26
f 28/25/4 16/76/4 33/94/4
f 37/6/1 1/89/1 16/95/1 43/7/1
f 15/43/7 21/77/7 29/41/7
usemtl Default_OBJ.001
s 1
f 49/96/27 50/97/27 51/98/27
f 52/99/28 53/100/28 54/101/28
f 55/102/29 56/103/29 57/104/29
f 58/105/30 59/106/30 60/107/30
f 61/108/31 62/109/31 63/110/31
f 64/111/32 65/112/32 66/113/32
f 67/114/33 68/115/33 69/116/33
f 70/117/34 71/118/34 72/119/34
f 73/120/27 74/121/27 75/122/27
f 76/123/28 77/124/28 78/125/28
f 79/126/29 80/127/29 81/128/29
f 82/129/30 83/130/30 84/131/30
f 85/132/27 86/133/27 87/134/27
f 88/135/28 89/136/28 90/137/28
f 91/138/29 92/139/29 93/140/29
f 94/141/30 95/142/30 96/143/30
l 45 46
l 47 48
l 48 45
l 47 46
