# This file uses centimeters as units for non-parametric coordinates.

g default
v 0.158731 0.526923 0.000000
v 0.023737 0.526923 5.768058
v 0.023737 0.290152 5.655630
v 0.099371 0.040345 5.311430
v 0.139028 -0.163462 4.835727
v 0.158731 -0.362165 4.260043
v 0.158731 -0.472372 3.635137
v 0.158731 -0.472372 0.000000
v -0.000000 0.526923 0.000000
v -0.000000 0.526923 5.881450
v -0.000000 0.224422 5.747926
v -0.000000 -0.101742 5.311430
v -0.000000 -0.305548 4.835727
v -0.000000 -0.504251 4.260043
v -0.000000 -0.614458 3.635137
v -0.000000 -0.614458 0.000000
v 0.158731 0.526923 3.635137
v 0.158731 0.526923 4.260043
v 0.139028 0.526923 4.835727
v 0.099371 0.526923 5.311430
v -0.158731 0.526923 0.000000
v -0.023737 0.526923 5.768058
v -0.023737 0.290152 5.655630
v -0.099371 0.040345 5.311430
v -0.139028 -0.163462 4.835727
v -0.158731 -0.362165 4.260043
v -0.158731 -0.472372 3.635137
v -0.158731 -0.472372 0.000000
v -0.158731 0.526923 3.635137
v -0.158731 0.526923 4.260043
v -0.139028 0.526923 4.835727
v -0.099371 0.526923 5.311430
v 0.253140 0.478285 3.972417
v 0.253140 0.614458 3.972417
v 0.253140 0.614458 0.000000
v 0.253140 -0.349772 0.000123
v 0.253140 -0.349772 0.816887
v 0.253140 -0.003283 1.197537
v 0.253140 -0.003283 3.764194
v -0.253140 0.478285 3.972417
v -0.253140 0.614458 3.972417
v -0.253140 0.614458 0.000000
v -0.253140 -0.349772 0.000123
v -0.253140 -0.349772 0.816887
v -0.253140 -0.003283 1.197537
v -0.253140 -0.003283 3.764194
vt 0.430036 0.958715
vt 0.444964 0.958715
vt 0.444964 0.968050
vt 0.431683 0.968050
vt 0.459291 0.967628
vt 0.459291 0.958293
vt 0.454548 0.958293
vt 0.454548 0.967628
vt 0.223708 0.553949
vt 0.224737 0.554438
vt 0.224737 0.554931
vt 0.223422 0.554350
vt 0.222622 0.552453
vt 0.222004 0.552453
vt 0.221736 0.550385
vt 0.221118 0.550385
vt 0.220872 0.547882
vt 0.220254 0.547882
vt 0.220393 0.545166
vt 0.219775 0.545166
vt 0.220393 0.529363
vt 0.219775 0.529363
vt 0.444964 0.904412
vt 0.430036 0.904412
vt 0.459291 0.903989
vt 0.456919 0.903989
vt 0.454548 0.903989
vt 0.458996 0.976228
vt 0.454843 0.976228
vt 0.444964 0.976650
vt 0.434651 0.976650
vt 0.456565 0.990155
vt 0.457274 0.990155
vt 0.458404 0.983334
vt 0.455435 0.983334
vt 0.437695 0.983757
vt 0.444964 0.983757
vt 0.444964 0.990578
vt 0.441427 0.988898
vt 0.430036 0.958715
vt 0.431683 0.968050
vt 0.444964 0.968050
vt 0.444964 0.958715
vt 0.223708 0.553949
vt 0.223422 0.554350
vt 0.224737 0.554931
vt 0.224737 0.554438
vt 0.222622 0.552453
vt 0.222004 0.552453
vt 0.221736 0.550385
vt 0.221118 0.550385
vt 0.220872 0.547882
vt 0.220254 0.547882
vt 0.220393 0.545166
vt 0.219775 0.545166
vt 0.220393 0.529363
vt 0.219775 0.529363
vt 0.444964 0.904412
vt 0.430036 0.904412
vt 0.434651 0.976650
vt 0.444964 0.976650
vt 0.437695 0.983757
vt 0.441427 0.988898
vt 0.444964 0.990578
vt 0.444964 0.983757
vt 0.456919 0.991849
vt 0.110155 0.000000
vt 0.000000 0.096158
vt 0.239573 0.686929
vt 0.135044 0.000000
vt 0.513524 0.908235
vt 0.204904 0.803701
vt 0.286245 1.000000
vt 0.110155 0.000000
vt 0.135044 0.000000
vt 0.239573 0.686929
vt 0.000000 0.096158
vt 0.135044 0.000000
vt 0.135044 0.000000
vt 0.110155 0.000000
vt 0.110155 0.000000
vt 0.513524 0.908235
vt 0.513524 0.908235
vt 0.286245 1.000000
vt 0.286245 1.000000
vt 0.204904 0.803701
vt 0.204904 0.803701
vt 0.239573 0.686929
vt 0.239573 0.686929
vt 0.000000 0.096158
vt 0.000000 0.096158
vt 0.513524 0.908235
vt 0.286245 1.000000
vt 0.204904 0.803701
vn 1.000000 0.000000 0.000000
vn 1.000000 0.000000 0.000000
vn 0.999889 0.000000 0.014893
vn 0.999927 0.000000 0.012098
vn 0.000000 1.000000 0.000000
vn 0.000000 1.000000 0.000000
vn 0.000000 1.000000 0.000000
vn 0.000000 1.000000 0.000000
vn 0.912388 -0.275128 0.303073
vn 0.976355 -0.089703 0.196682
vn 0.976355 -0.089703 0.196682
vn 0.917450 -0.264513 0.297185
vn 0.808705 -0.490382 0.324840
vn 0.775510 -0.549245 0.311311
vn 0.701258 -0.658232 0.273802
vn 0.691453 -0.671023 0.267622
vn 0.666163 -0.719819 0.195158
vn 0.665443 -0.723804 0.182463
vn 0.666822 -0.744936 0.020474
vn 0.666853 -0.744971 0.018044
vn 0.666962 -0.745092 0.000000
vn 0.666962 -0.745092 0.000000
vn 1.000000 0.000000 0.000000
vn 1.000000 0.000000 0.000000
vn 0.000000 1.000000 0.000000
vn 0.000000 1.000000 0.000000
vn 0.000000 1.000000 0.000000
vn 0.000000 1.000000 0.000000
vn 0.000000 1.000000 0.000000
vn 0.998601 0.000000 0.052878
vn 0.998864 0.000000 0.047642
vn 0.000000 1.000000 0.000000
vn 0.000000 1.000000 0.000000
vn 0.000000 1.000000 0.000000
vn 0.000000 1.000000 0.000000
vn 0.994464 -0.005897 0.104909
vn 0.992667 -0.010103 0.120459
vn 0.980411 -0.030250 0.194626
vn 0.980411 -0.030250 0.194626
vn -1.000000 0.000000 0.000000
vn -0.999927 0.000000 0.012098
vn -0.999889 0.000000 0.014893
vn -1.000000 0.000000 0.000000
vn -0.912388 -0.275127 0.303073
vn -0.917450 -0.264513 0.297184
vn -0.976355 -0.089703 0.196681
vn -0.976355 -0.089703 0.196681
vn -0.808705 -0.490382 0.324840
vn -0.775510 -0.549245 0.311311
vn -0.701258 -0.658233 0.273802
vn -0.691452 -0.671024 0.267622
vn -0.666163 -0.719819 0.195158
vn -0.665443 -0.723804 0.182463
vn -0.666822 -0.744936 0.020474
vn -0.666853 -0.744971 0.018044
vn -0.666962 -0.745092 0.000000
vn -0.666962 -0.745092 0.000000
vn -1.000000 0.000000 0.000000
vn -1.000000 0.000000 0.000000
vn -0.998864 0.000000 0.047643
vn -0.998601 0.000000 0.052878
vn -0.994464 -0.005897 0.104910
vn -0.980411 -0.030250 0.194626
vn -0.980411 -0.030250 0.194626
vn -0.992667 -0.010103 0.120459
vn 0.000000 1.000000 -0.000001
vn 1.000000 0.000000 0.000000
vn 1.000000 0.000000 0.000000
vn 1.000000 0.000000 0.000000
vn 1.000000 0.000000 0.000000
vn 1.000000 0.000000 0.000000
vn 1.000000 0.000000 0.000000
vn 1.000000 0.000000 0.000000
vn -1.000000 0.000000 0.000000
vn -1.000000 0.000000 0.000000
vn -1.000000 0.000000 0.000000
vn -1.000000 0.000000 0.000000
vn 0.000000 0.000000 1.000000
vn 0.000000 0.000000 1.000000
vn 0.000000 0.000000 1.000000
vn 0.000000 0.000000 1.000000
vn 0.000000 1.000000 0.000000
vn 0.000000 1.000000 0.000000
vn 0.000000 1.000000 0.000000
vn 0.000000 1.000000 0.000000
vn 0.000000 -1.000000 0.000000
vn 0.000000 -1.000000 0.000000
vn 0.000000 -1.000000 0.000000
vn 0.000000 -1.000000 0.000000
vn 0.000000 -0.739511 0.673145
vn 0.000000 -0.739511 0.673145
vn 0.000000 -0.739511 0.673145
vn 0.000000 -0.739511 0.673145
vn 0.000000 -1.000000 0.000000
vn 0.000000 -1.000000 0.000000
vn 0.000000 -1.000000 0.000000
vn 0.000000 -1.000000 0.000000
vn 0.000000 -0.396874 0.917873
vn 0.000000 -0.396874 0.917873
vn 0.000000 -0.396874 0.917873
vn 0.000000 -0.396874 0.917873
vn -1.000000 0.000000 0.000000
vn -1.000000 0.000000 0.000000
vn -1.000000 0.000000 0.000000
s 1
g col_blade
f 7/1/1 17/2/2 18/3/3 6/4/4
s 2
f 18/5/5 17/6/6 29/7/7 30/8/8
s 3
f 3/9/9 2/10/10 10/11/11 11/12/12
f 4/13/13 3/9/9 11/12/12 12/14/14
f 5/15/15 4/13/13 12/14/14 13/16/16
f 6/17/17 5/15/15 13/16/16 14/18/18
f 7/19/19 6/17/17 14/18/18 15/20/20
f 8/21/21 7/19/19 15/20/20 16/22/22
s 1
f 1/23/23 17/2/2 7/1/1 8/24/24
s 2
f 17/6/6 1/25/25 9/26/26 21/27/27 29/7/7
f 19/28/28 18/5/5 30/8/8 31/29/29
s 1
f 6/4/4 18/3/3 19/30/30 5/31/31
s 2
f 22/32/32 2/33/33 20/34/34 32/35/35
s 1
f 4/36/36 20/37/37 2/38/38 3/39/39
f 5/31/31 19/30/30 20/37/37 4/36/36
s 2
f 20/34/34 19/28/28 31/29/29 32/35/35
s 5
f 27/40/40 26/41/41 30/42/42 29/43/43
s 6
f 23/44/44 11/45/45 10/46/46 22/47/47
f 24/48/48 12/49/49 11/45/45 23/44/44
f 25/50/50 13/51/51 12/49/49 24/48/48
f 26/52/52 14/53/53 13/51/51 25/50/50
f 27/54/54 15/55/55 14/53/53 26/52/52
f 28/56/56 16/57/57 15/55/55 27/54/54
s 5
f 21/58/58 28/59/59 27/40/40 29/43/43
f 26/41/41 25/60/60 31/61/61 30/42/42
f 24/62/62 23/63/63 22/64/64 32/65/65
f 25/60/60 24/62/62 32/65/65 31/61/61
s 2
f 10/66/66 2/33/33 22/32/32
s 7
f 33/67/67 39/68/68 38/69/69 34/70/70
f 34/70/70 38/69/69 35/71/71
f 35/71/71 38/69/69 37/72/72 36/73/73
s 8
f 40/74/74 41/75/75 45/76/76 46/77/77
s off
f 34/78/78 41/79/79 40/80/80 33/81/81
f 35/82/82 42/83/83 41/79/84 34/78/85
f 37/86/86 44/87/87 43/85/88 36/84/89
f 38/88/90 45/89/91 44/87/92 37/86/93
f 39/90/94 46/91/95 45/89/96 38/88/97
f 33/81/98 40/80/99 46/91/100 39/90/101
s 8
f 41/75/75 42/92/102 45/76/76
f 42/92/102 43/93/103 44/94/104 45/76/76
