# Blender v2.93.0 OBJ File: 'GT_Leaf_Blocks_2.0.blend'
# www.blender.org
v 0.483192 -0.484137 -0.483197
v 0.481811 -0.485271 1.483303
v -0.483591 -0.484481 1.482149
v -0.486931 -0.316587 1.492620
v -0.496720 -0.109947 1.419109
v -0.495537 0.153394 1.150968
v -0.485652 0.488863 -0.479414
v -0.484271 -0.484990 -0.481478
v 0.310118 0.490876 1.487819
v 0.113055 0.493160 1.425756
v -0.142483 0.495747 1.167989
v 0.485274 0.481808 1.483304
v 0.481927 0.486298 -0.481920
vt 0.362537 0.977814
vt 0.230175 0.707457
vt 0.361998 0.708810
vt 0.000000 0.000000
vt 0.549358 0.762687
vt 0.000000 0.000000
vt 0.360205 0.705453
vt 0.362287 0.839439
vt 0.337769 0.841155
vt 0.625533 0.941772
vt 0.229754 0.979976
vt 0.595078 0.975799
vt 0.549358 0.943133
vt 0.000000 0.000000
vt 0.550215 0.762802
vt 0.360475 0.840287
vt 0.230563 0.841109
vt 0.361012 0.979986
vt 0.229677 0.705854
vt 0.360837 0.706987
vt 0.592206 0.943366
vt 0.549358 0.788117
vt 0.228146 0.731050
vt 0.229375 0.706403
vt 0.664636 0.762810
vt 0.000000 0.000000
vt 0.252850 0.979837
vt 0.229691 0.979108
vt 0.621426 0.976294
vt 0.337844 0.979520
vn -0.0003 -1.0000 0.0000
vn 0.0004 -1.0000 -0.0003
vn 0.0009 -1.0000 -0.0006
vn -0.3892 0.3900 0.8345
vn -0.0833 0.0559 0.9950
vn -0.0642 0.0777 0.9949
vn 0.0098 -0.0092 0.9999
vn 0.0258 -0.0001 0.9997
vn -0.9998 -0.0177 -0.0069
vn -0.9997 -0.0240 0.0006
vn -0.9984 -0.0416 -0.0392
vn -0.6481 0.6485 0.3994
vn -0.6411 0.6457 0.4147
vn -0.6927 0.7073 0.1413
vn -0.0022 0.0017 -1.0000
vn -0.0026 0.0021 -1.0000
vn 1.0000 -0.0022 0.0000
vn 1.0000 -0.0001 -0.0010
vn 1.0000 0.0013 -0.0017
vn 0.0069 1.0000 -0.0031
vn 0.0026 1.0000 -0.0047
vn 0.0187 0.9998 -0.0026
vn -0.4104 0.4040 0.8175
vn -0.0008 -1.0000 0.0003
vn -0.0012 -0.0623 0.9981
vn -1.0000 -0.0014 -0.0064
vn -1.0000 -0.0055 -0.0048
vn -0.9976 -0.0239 0.0656
vn -0.0018 0.0013 -1.0000
vn 1.0000 -0.0036 0.0007
vn 0.0350 0.9990 -0.0292
vn 0.0267 0.9995 -0.0163
vn 0.0483 0.9920 -0.1170
s 1
f 2/1/1 8/2/2 1/3/3
f 10/4/4 4/5/5 9/6/6
f 2/7/7 12/8/8 9/9/6
f 6/10/9 3/11/10 5/12/11
f 6/13/12 11/14/13 7/15/14
f 13/16/15 8/2/15 7/17/16
f 12/18/17 1/19/18 13/20/19
f 13/20/20 7/15/21 11/21/22
f 11/14/13 5/12/23 10/4/4
f 2/1/1 3/11/24 8/2/2
f 10/4/4 5/22/23 4/5/5
f 9/9/6 4/23/5 2/7/7
f 4/23/5 3/24/25 2/7/7
f 6/10/9 7/25/26 8/26/27
f 8/26/27 3/11/10 6/10/9
f 3/11/10 4/27/28 5/12/11
f 13/16/15 1/3/29 8/2/15
f 12/18/17 2/28/30 1/19/18
f 11/21/22 10/29/31 12/18/32
f 10/29/31 9/30/33 12/18/32
f 12/18/32 13/20/20 11/21/22
f 11/14/13 6/10/12 5/12/23
