# Blender v2.80 (sub 75) OBJ File: 'GT_Recycled_Block_Corner.blend'
# www.blender.org
mtllib GT_Long_Wide_Leaf_Block_Collider.mtl
o GT_Long_Wide_Leaf_Block
v 1.471630 0.475001 -0.487478
v 1.449980 0.493303 -0.474978
v 1.462480 0.493303 -0.471629
v 1.449980 0.500001 -0.449978
v 1.471630 0.493303 -0.462479
v 1.474980 0.493303 -0.449978
v 1.493280 0.475002 -0.449978
v 1.487480 0.475001 -0.471629
v 1.499980 0.450002 -0.449978
v 1.493280 0.450001 -0.474978
v 1.493280 -0.449998 -0.474978
v 1.499980 -0.449999 -0.449978
v 1.493280 -0.303617 1.475070
v 1.499980 -0.449999 1.450020
v 1.493280 -0.105663 1.416430
v 1.499980 -0.118382 1.394170
v 1.493280 0.080267 1.243140
v 1.493280 0.368609 0.593701
v 1.474980 0.386334 0.598328
v 1.474980 0.259570 0.970032
v 1.474980 0.094714 1.254650
v 1.474980 -0.300968 1.493340
v 1.474980 -0.096352 1.432720
v 1.474980 -0.449998 1.493320
v 1.487480 -0.474998 1.471670
v 1.493280 -0.449998 1.475020
v 1.493280 -0.474999 1.450020
v 1.474980 -0.493300 1.450020
v 1.493280 -0.474999 -0.449978
v 1.471630 -0.493300 1.462520
v 1.449980 -0.499998 1.450020
v 1.474980 -0.493300 -0.449978
v 1.449980 -0.499998 -0.449978
v 1.449980 -0.493300 -0.474978
v 1.462480 -0.493300 -0.471629
v 1.471630 -0.493300 -0.462479
v 1.487480 -0.474998 -0.471629
v 1.471630 -0.474998 -0.487478
v 1.474980 -0.449998 -0.493280
v 1.449980 0.450001 -0.499978
v 1.449980 0.475001 -0.493280
v 1.449980 -0.449998 -0.499978
v 1.449980 -0.474998 -0.493280
v 1.474980 0.450001 -0.493280
v 1.449980 0.392822 0.600022
v 1.449980 0.265687 0.972814
v 1.449980 -0.092944 1.438690
v 1.449980 -0.449998 1.500020
v 1.449980 -0.299999 1.500020
v 1.471630 -0.474998 1.487520
v 1.449980 -0.474998 1.493320
v 1.449980 -0.493300 1.475020
v 1.462480 -0.493300 1.471670
v -0.450025 -0.499998 1.450020
v -0.450025 -0.493300 1.475020
v -0.450025 -0.474998 1.493320
v -0.450025 -0.449998 1.500020
v -0.450025 -0.299999 1.500020
v -0.475025 -0.300968 1.493340
v -0.475025 -0.096352 1.432720
v -0.450025 -0.092944 1.438690
v -0.475025 0.094714 1.254650
v -0.450025 0.265687 0.972814
v -0.475025 0.259570 0.970032
v -0.450025 0.392822 0.600022
v -0.475025 0.386334 0.598328
v -0.500025 0.450002 -0.449978
v -0.475025 0.493303 -0.449978
v -0.487525 0.475001 -0.471629
v -0.493326 0.475002 -0.449978
v -0.493326 0.450001 -0.474978
v -0.500025 -0.449999 -0.449978
v -0.493326 -0.303617 1.475070
v -0.500025 -0.449999 1.450020
v -0.493326 -0.449998 1.475020
v -0.493326 -0.105663 1.416430
v -0.500025 -0.118382 1.394170
v -0.493326 0.080267 1.243140
v -0.493326 0.368609 0.593701
v -0.475025 -0.449998 1.493320
v -0.471676 -0.474998 1.487520
v -0.462525 -0.493300 1.471670
v -0.471675 -0.493300 1.462520
v -0.475025 -0.493300 1.450020
v -0.487525 -0.474998 1.471670
v -0.493326 -0.474999 1.450020
v -0.493326 -0.474999 -0.449978
v -0.487525 -0.474998 -0.471629
v -0.493326 -0.449998 -0.474978
v -0.475025 -0.493300 -0.449978
v -0.450025 -0.499998 -0.449978
v -0.471675 -0.493300 -0.462479
v -0.462525 -0.493300 -0.471629
v -0.450025 -0.493300 -0.474978
v -0.450025 0.500001 -0.449978
v -0.450025 0.100001 1.258870
v -0.450025 0.493303 -0.474978
v -0.450025 0.475001 -0.493280
v -0.450025 0.450001 -0.499978
v -0.450025 -0.449998 -0.499978
v -0.450025 -0.474998 -0.493280
v -0.475025 -0.449998 -0.493280
v -0.471676 -0.474998 -0.487478
v -0.475025 0.450001 -0.493280
v -0.471676 0.475001 -0.487478
v -0.462525 0.493303 -0.471629
v -0.471675 0.493303 -0.462479
v 1.449980 0.100001 1.258870
vt 0.100917 0.975394
vt 0.365822 0.975394
vt 0.367565 0.978412
vt 0.365822 0.978879
vt 0.100917 0.978879
vt 0.099174 0.978412
vt 0.000000 0.000000
vt 0.529707 0.878934
vt 0.739247 0.878934
vt 0.365822 0.710489
vt 0.739247 0.853507
vt 0.000000 0.000000
vt 0.000000 0.000000
vt 0.000000 0.000000
vt 0.000000 0.000000
vt 0.000000 0.000000
vt 0.529707 0.853507
vt 0.000000 0.000000
vt 0.485676 0.704629
vt 0.485676 0.548919
vt 0.481351 0.548919
vt 0.481351 0.704629
vt 0.100917 0.710489
vt 0.097898 0.977136
vt 0.097431 0.975394
vt 0.097431 0.710489
vt 0.097898 0.708746
vt 0.368841 0.708746
vt 0.367565 0.707471
vt 0.628449 0.968970
vt 0.627046 0.966515
vt 0.152630 0.548919
vt 0.177740 0.978879
vt 0.606618 0.975437
vt 0.369308 0.774958
vt 0.368841 0.771472
vt 0.371051 0.771472
vt 0.371859 0.774958
vt 0.629476 0.970767
vt 0.650547 0.951128
vt 0.648954 0.949859
vt 0.303222 0.710489
vt 0.306707 0.710489
vt 0.306707 0.707471
vt 0.303221 0.707004
vt 0.097898 0.980622
vt 0.095689 0.978412
vt 0.365822 0.774958
vt 0.369308 0.795736
vt 0.365822 0.795871
vt 0.152629 0.704629
vt 0.152629 0.548919
vt 0.148304 0.548919
vt 0.148304 0.704629
vt 0.309259 0.710489
vt 0.309259 0.708746
vt 0.177740 0.975394
vt 0.177740 0.710489
vt 0.481351 0.704629
vt 0.627046 0.966515
vt 0.365822 0.707004
vt 0.100917 0.707004
vt 0.099174 0.707471
vt 0.365822 0.710489
vt 0.367565 0.707471
vt 0.368841 0.708746
vt 0.095689 0.707471
vt 0.094880 0.710489
vt 0.365822 0.774958
vt 0.369308 0.774958
vt 0.368841 0.771472
vt 0.365822 0.771472
vt 0.739247 0.920047
vt 0.739247 0.951594
vt 0.742004 0.951128
vt 0.742004 0.919740
vt 0.174255 0.978412
vt 0.174255 0.975394
vt 0.177740 0.978879
vt 0.094880 0.975394
vt 0.097431 0.795736
vt 0.097431 0.774958
vt 0.100917 0.774958
vt 0.100917 0.795871
vt 0.099174 0.707471
vt 0.100917 0.707004
vt 0.365822 0.707004
vt 0.368841 0.977136
vt 0.526950 0.951128
vt 0.529707 0.951594
vt 0.529707 0.920047
vt 0.526950 0.919740
vt 0.650547 0.951128
vt 0.629476 0.970767
vt 0.628449 0.968970
vt 0.648954 0.949859
vt 0.369308 0.710489
vt 0.742004 0.878747
vt 0.306707 0.707471
vt 0.306707 0.710489
vt 0.303222 0.710489
vt 0.303221 0.707004
vt 0.094880 0.795367
vt 0.094880 0.774958
vt 0.174255 0.705261
vt 0.177740 0.704452
vt 0.177740 0.707004
vt 0.174255 0.707471
vt 0.368841 0.903924
vt 0.369308 0.900439
vt 0.365822 0.900439
vt 0.365822 0.903924
vt 0.369308 0.710489
vt 0.369308 0.975394
vt 0.680754 0.878237
vt 0.668728 0.919740
vt 0.682708 0.878747
vt 0.306707 0.705261
vt 0.303221 0.704452
vt 0.097898 0.771472
vt 0.095689 0.771472
vt 0.177740 0.975394
vt 0.174255 0.975394
vt 0.174255 0.978412
vt 0.365822 0.771472
vt 0.371859 0.795367
vt 0.174255 0.710489
vt 0.365822 0.768920
vt 0.367565 0.768920
vt 0.100917 0.710489
vt 0.097898 0.708746
vt 0.174255 0.707471
vt 0.174255 0.710489
vt 0.177740 0.710489
vt 0.177740 0.707004
vt 0.488843 0.704629
vt 0.488843 0.548919
vt 0.097431 0.710489
vt 0.526950 0.878747
vt 0.309259 0.710489
vt 0.682708 0.878747
vt 0.680754 0.878237
vt 0.742004 0.874203
vt 0.742004 0.853131
vt 0.171703 0.708746
vt 0.100917 0.771472
vt 0.097898 0.771472
vt 0.097431 0.774958
vt 0.100917 0.774958
vt 0.606910 0.977452
vt 0.171703 0.977136
vt 0.171703 0.975394
vt 0.097431 0.900439
vt 0.097898 0.903924
vt 0.100917 0.903924
vt 0.100917 0.900439
vt 0.365822 0.906476
vt 0.367565 0.906476
vt 0.000000 0.000000
vt 0.000000 0.000000
vt 0.099174 0.906476
vt 0.100917 0.704452
vt 0.000000 0.000000
vt 0.100917 0.704452
vt 0.365822 0.704452
vt 0.095689 0.707471
vt 0.303221 0.704452
vt 0.306707 0.705261
vt 0.529707 0.874786
vt 0.526950 0.874203
vt 0.526950 0.853131
vt 0.171703 0.710489
vt 0.100917 0.771472
vt 0.100917 0.768920
vt 0.606910 0.977452
vt 0.000000 0.000000
vt 0.485676 0.548919
vt 0.481351 0.548919
vt 0.481351 0.548919
vt 0.485676 0.548919
vt 0.371051 0.978412
vt 0.368841 0.980622
vt 0.000000 0.000000
vt 0.198149 0.978886
vt 0.174255 0.705261
vt 0.365822 0.768920
vt 0.367565 0.768920
vt 0.094880 0.710489
vt 0.099174 0.768920
vt 0.488843 0.704629
vt 0.485676 0.704629
vt 0.488843 0.548919
vt 0.668728 0.919740
vn 0.0000 -0.9659 0.2588
vn 0.0000 0.9948 0.1015
vn 0.0000 0.6818 0.7316
vn 0.0000 0.2840 0.9588
vn -0.8589 0.1278 -0.4959
vn -0.8589 -0.1278 -0.4959
vn -0.9834 -0.1282 -0.1282
vn -0.9895 0.0750 -0.1239
vn -0.1031 -0.9893 -0.1031
vn -0.1538 -0.9878 0.0232
vn -0.4615 -0.8509 0.2508
vn -0.5147 -0.8556 0.0547
vn -0.5147 -0.8556 -0.0547
vn -0.4615 -0.8509 -0.2508
vn 0.4640 0.8553 -0.2304
vn 0.2508 0.8509 -0.4615
vn 0.1372 0.9859 -0.0961
vn -0.8873 0.2227 0.4039
vn -0.9979 0.0255 0.0592
vn -0.9865 -0.1197 0.1115
vn -0.8703 -0.1208 0.4776
vn -0.8756 0.0713 0.4777
vn 0.4957 -0.1279 0.8590
vn 0.4380 -0.4823 0.7586
vn 0.7586 -0.4823 0.4380
vn 0.8703 -0.1208 0.4776
vn -0.4921 0.4319 0.7558
vn -0.5553 0.6522 0.5160
vn -0.9356 0.2838 0.2101
vn -0.8880 0.4505 -0.0919
vn -0.7586 0.4823 -0.4380
vn -0.3168 -0.8001 0.5094
vn -0.4380 -0.4823 0.7586
vn -0.7586 -0.4823 0.4380
vn 0.1281 -0.1282 0.9834
vn 0.4929 0.1248 0.8611
vn 0.1738 0.0922 0.9805
vn -0.1281 0.1281 -0.9834
vn -0.1281 -0.1281 -0.9834
vn -0.4959 -0.1278 -0.8589
vn -0.4959 0.1278 -0.8589
vn -0.5135 0.8580 0.0101
vn -0.4640 0.8553 -0.2304
vn 0.9865 -0.1197 0.1115
vn 0.9834 -0.1282 -0.1282
vn 0.9895 0.0750 -0.1239
vn 0.9979 0.0255 0.0592
vn 0.0547 0.8556 -0.5147
vn -0.0547 0.8556 -0.5147
vn -0.2508 0.8509 -0.4615
vn -0.1372 0.9859 -0.0961
vn 0.1031 -0.9893 -0.1031
vn 0.2508 -0.8509 -0.4615
vn 0.4615 -0.8509 -0.2508
vn -0.7586 -0.4823 -0.4380
vn -0.8653 -0.4883 -0.1129
vn 0.1281 -0.1281 -0.9834
vn 0.4959 -0.1278 -0.8589
vn 0.4380 -0.4823 -0.7586
vn 0.1129 -0.4883 -0.8653
vn 0.1299 0.9026 0.4105
vn 0.1738 0.8008 0.5732
vn 0.5553 0.6522 0.5160
vn 0.6151 0.7186 0.3245
vn 0.8653 -0.4883 0.1129
vn -0.8653 -0.4883 0.1129
vn -0.4928 0.1248 0.8611
vn -0.4957 -0.1279 0.8590
vn -0.1281 -0.1282 0.9834
vn -0.1738 0.0922 0.9805
vn -0.2508 -0.8509 -0.4615
vn -0.0547 -0.8556 -0.5147
vn 0.0547 -0.8556 -0.5147
vn 0.4615 -0.8509 0.2508
vn 0.3168 -0.8001 0.5094
vn 0.1538 -0.9878 0.0232
vn -0.1738 0.8008 0.5732
vn -0.1299 0.9026 0.4105
vn -0.6151 0.7186 0.3245
vn 0.4922 0.4319 0.7558
vn 0.8873 0.2227 0.4039
vn 0.9356 0.2838 0.2101
vn 0.5135 0.8580 0.0101
vn 0.1730 0.9532 0.2481
vn 0.5567 0.8109 0.1805
vn 0.7586 0.4823 -0.4380
vn 0.8880 0.4505 -0.0919
vn 0.8589 0.1278 -0.4959
vn 0.8589 -0.1278 -0.4959
vn 0.7586 -0.4823 -0.4380
vn 0.4380 0.4823 -0.7586
vn 0.4959 0.1278 -0.8589
vn 0.1281 0.1281 -0.9834
vn 0.1129 0.4883 -0.8653
vn 0.5147 -0.8556 -0.0547
vn 0.5147 -0.8556 0.0547
vn -0.9360 0.3427 0.0803
vn -0.5567 0.8109 0.1805
vn -0.4380 0.4823 -0.7586
vn 0.1129 -0.4883 0.8653
vn 0.8756 0.0713 0.4777
vn 0.8653 -0.4883 -0.1129
vn 0.0987 -0.7036 0.7037
vn -0.1730 0.9532 0.2481
vn 0.9360 0.3427 0.0803
vn 0.2650 0.4783 0.8372
vn -0.1129 -0.4883 -0.8653
vn -0.4380 -0.4823 -0.7586
vn -0.1129 0.4883 -0.8653
vn -0.2650 0.4783 0.8372
vn -0.1129 -0.4883 0.8653
vn -0.0987 -0.7036 0.7037
usemtl _Color_M00_1.009
s off
f 54/1/1 31/2/1 53/3/1 52/4/1 55/5/1 82/6/1
f 95/7/2 65/8/2 45/9/2 4/10/2
f 47/11/3 108/12/3 96/13/3 61/14/3
f 49/15/4 47/16/4 61/17/4 58/18/4
s 1
f 71/19/5 89/20/6 72/21/7 67/22/8
f 91/23/9 54/1/10 83/24/11 84/25/12 90/26/13 92/27/14
f 5/28/15 3/29/16 4/10/17
f 76/30/18 77/31/19 74/32/20 75/33/21 73/34/22
f 24/35/23 50/36/24 25/37/25 26/38/26
f 76/30/18 60/39/27 62/40/28 78/41/29
f 67/42/8 70/43/30 69/44/31 71/45/5
f 83/24/11 82/6/32 81/46/33 85/47/34
f 48/48/35 24/35/23 22/49/36 49/50/37
f 99/51/38 100/52/39 102/53/40 104/54/41
f 68/55/42 107/56/43 69/44/31 70/43/30
f 14/57/44 12/58/45 9/59/46 16/60/47
f 2/61/48 97/62/49 106/63/50 95/7/51 4/10/17 3/29/16
f 33/64/52 35/65/53 36/66/54
f 88/67/55 92/27/14 90/26/13 87/68/56
f 42/69/57 39/70/58 38/71/59 43/72/60
f 46/73/61 108/74/62 21/75/63 20/76/64
f 25/77/25 27/78/65 14/57/44 26/79/26
f 84/25/12 83/24/11 85/47/34 86/80/66
f 59/81/67 80/82/68 57/83/69 58/84/70
f 93/85/71 94/86/72 34/87/73 35/65/53 33/64/52 91/23/9
f 30/88/74 53/3/75 31/2/76
f 62/89/28 96/90/77 63/91/78 64/92/79
f 21/93/63 23/94/80 15/95/81 17/96/82
f 6/97/83 5/28/15 4/10/17 45/9/84 19/98/85
f 8/99/86 7/100/87 9/101/46 10/102/88
f 73/103/22 75/104/21 80/82/68 59/81/67
f 38/105/59 39/106/58 11/107/89 37/108/90
f 1/109/91 44/110/92 40/111/93 41/112/94
f 54/1/10 82/6/32 83/24/11
f 31/2/76 33/64/52 36/66/54 32/113/95 28/114/96 30/88/74
f 79/115/97 78/41/29 62/89/28 64/116/79 66/117/98
f 105/118/99 104/119/41 71/45/5 69/44/31
f 81/120/33 80/82/68 75/104/21 85/121/34
f 74/122/20 86/123/66 85/124/34 75/33/21
f 92/27/14 93/85/71 91/23/9
f 50/36/24 24/35/23 48/48/35 51/125/100
f 24/35/23 26/38/26 13/126/101 22/49/36
f 12/58/45 29/127/102 37/108/90 11/107/89
f 50/36/24 51/125/100 52/128/103 53/129/75
f 95/130/51 106/63/50 107/131/43
f 77/31/19 76/30/18 78/41/29 79/115/97 70/43/30 67/42/8
f 88/132/55 87/133/56 72/134/7 89/135/6
f 104/136/41 102/137/40 89/20/6 71/19/5
f 14/57/44 27/78/65 29/127/102 12/58/45
f 95/130/51 107/131/43 68/138/42 66/139/98 65/8/104
f 7/100/87 6/140/83 19/141/85 18/142/105
f 47/16/106 49/50/37 22/49/36 23/94/80
f 21/143/63 108/12/62 47/11/106 23/144/80
f 35/65/53 38/71/59 37/108/90 36/145/54
f 101/146/107 103/147/108 102/148/40 100/149/39
f 15/95/81 23/94/80 22/150/36 13/126/101
f 46/73/61 20/76/64 19/98/85 45/9/84
f 32/113/95 36/66/54 37/108/90 29/127/102
f 42/69/57 43/72/60 101/146/107 100/149/39
f 25/77/25 30/151/74 28/152/96 27/78/65
f 104/153/41 105/154/99 98/155/109 99/156/38
f 84/25/12 86/80/66 87/68/56 90/26/13
f 1/109/91 41/112/94 2/157/48 3/158/16
f 99/156/38 40/159/93 42/160/57 100/52/39
f 74/32/20 77/31/19 67/22/8 72/21/7
f 108/74/62 46/73/61 63/91/78 96/90/77
f 106/161/50 97/62/49 98/162/109 105/154/99
f 94/163/72 101/164/107 43/165/60 34/87/73
f 69/166/31 107/131/43 106/161/50 105/154/99
f 8/99/86 10/102/88 44/167/92 1/168/91
f 61/14/110 96/169/77 62/170/28 60/171/27
f 27/78/65 28/152/96 32/172/95 29/127/102
f 88/132/55 89/135/6 102/148/40 103/147/108
f 52/128/103 51/125/100 56/173/111 55/174/112
f 59/175/67 60/39/27 76/30/18 73/34/22
f 98/162/109 41/176/94 40/159/93 99/156/38
f 64/92/79 63/91/78 65/8/104 66/139/98
f 40/111/93 44/110/92 39/177/58 42/178/57
f 10/102/88 9/101/46 12/179/45 11/180/89
f 25/181/25 50/182/24 53/3/75 30/88/74
f 103/147/108 101/146/107 94/86/72 93/85/71
f 57/183/69 56/173/111 51/125/100 48/48/35
f 14/57/44 16/60/47 15/95/81 13/184/101 26/79/26
f 93/85/71 92/27/14 88/132/55 103/185/108
f 86/123/66 74/122/20 72/134/7 87/133/56
f 3/29/16 5/28/15 8/99/86 1/168/91
f 48/48/35 49/50/37 58/84/70 57/83/69
f 91/23/9 33/64/52 31/2/76 54/1/10
f 34/186/73 43/72/60 38/71/59 35/187/53
f 97/62/49 2/157/48 41/176/94 98/162/109
f 66/117/98 68/138/42 70/188/30 79/115/97
f 46/73/61 45/9/84 65/8/104 63/91/78
f 59/81/67 58/18/70 61/17/110 60/171/27
f 56/173/111 81/120/33 82/189/32 55/174/112
f 81/120/33 56/173/111 57/83/69 80/82/68
f 15/95/81 16/60/47 9/59/46 7/100/87 18/142/105 17/96/82
f 44/190/92 10/191/88 11/180/89 39/192/58
f 6/140/83 7/100/87 8/99/86 5/28/15
f 20/193/64 21/93/63 17/96/82 18/142/105 19/141/85
