# Blender v2.82 (sub 7) OBJ File: 'DLPulseBattery.blend'
# www.blender.org
mtllib DLPulseBatteryLEDs.mtl
o Pulse_Battery.001
v -0.225993 0.490000 1.114780
v -0.216218 0.500000 1.114780
v -0.212868 0.500000 1.106690
v -0.219780 0.490000 1.099780
v -0.186507 0.500000 1.186510
v -0.193420 0.490000 1.193420
v -0.114780 0.500000 1.216220
v -0.106693 0.500000 1.212870
v -0.103343 0.500000 1.204780
v -0.133053 0.500000 1.133050
v -0.204780 0.500000 1.103340
v -0.114780 0.490000 1.225990
v -0.099780 0.490000 1.219780
v -0.204780 0.490000 1.093570
v -0.126141 0.490000 1.126140
v -0.093567 0.490000 1.204780
v -0.204780 0.490000 0.906433
v -0.189780 0.490000 0.900220
v -0.126141 0.490000 0.873860
v -0.093567 0.490000 0.795220
v -0.048643 0.480000 0.902716
v -0.097285 0.480000 1.000000
v -0.048643 0.480000 1.097280
v 0.048642 0.480000 1.097280
v 0.093566 0.490000 1.204780
v 0.099780 0.490000 1.219780
v 0.114780 0.490000 1.225990
v 0.193419 0.490000 1.193420
v 0.225993 0.490000 1.114780
v -0.225993 0.490000 0.885220
v -0.219780 0.490000 0.900220
v -0.204780 0.500000 0.896658
v -0.212868 0.500000 0.893308
v -0.133053 0.500000 0.866947
v -0.103343 0.500000 0.795220
v -0.099780 0.490000 0.780220
v -0.106693 0.500000 0.787133
v -0.114780 0.490000 0.774007
v -0.114780 0.500000 0.783783
v -0.186507 0.500000 0.813493
v -0.193420 0.490000 0.806581
v -0.216218 0.500000 0.885220
v 0.048642 0.480000 0.902716
v 0.097284 0.480000 1.000000
v 0.204780 0.490000 1.093570
v 0.126140 0.490000 1.126140
v 0.103342 0.500000 1.204780
v 0.133052 0.500000 1.133050
v 0.106692 0.500000 1.212870
v 0.114780 0.500000 1.216220
v 0.186507 0.500000 1.186510
v 0.216217 0.500000 1.114780
v 0.212867 0.500000 1.106690
v 0.204780 0.500000 1.103340
v 0.219780 0.490000 1.099780
v 0.036808 0.500000 1.078140
v 0.075876 0.500000 1.000000
v -0.036809 0.500000 1.078140
v -0.075877 0.500000 1.000000
v 0.036808 0.500000 0.921863
v -0.036809 0.500000 0.921863
v 0.204780 0.490000 0.906433
v 0.219780 0.490000 0.900220
v 0.225993 0.490000 0.885220
v 0.219780 0.490000 0.870220
v 0.193419 0.490000 0.806581
v 0.114780 0.490000 0.774007
v 0.099780 0.490000 0.780220
v 0.093566 0.490000 0.795220
v 0.126140 0.490000 0.873860
v 0.204780 0.500000 0.896658
v 0.133052 0.500000 0.866947
v 0.212867 0.500000 0.893308
v 0.216217 0.500000 0.885220
v 0.186507 0.500000 0.813493
v 0.114780 0.500000 0.783783
v 0.106692 0.500000 0.787133
v 0.103342 0.500000 0.795220
v 0.114780 -0.490000 -0.225993
v 0.193419 -0.490000 -0.193419
v 0.219780 -0.490000 -0.129780
v 0.225993 -0.490000 -0.114780
v 0.219780 -0.490000 -0.099780
v 0.204780 -0.490000 -0.093567
v 0.126140 -0.490000 -0.126140
v 0.093566 -0.490000 -0.204780
v -0.114780 -0.490000 -0.225993
v -0.099780 -0.490000 -0.219780
v -0.093567 -0.490000 -0.204780
v -0.126141 -0.490000 -0.126140
v -0.204780 -0.490000 -0.093567
v -0.219780 -0.490000 -0.099780
v -0.225993 -0.490000 -0.114780
v -0.219780 -0.490000 -0.129780
v -0.193420 -0.490000 -0.193419
v -0.114780 -0.500000 -0.216217
v -0.186507 -0.500000 -0.186507
v -0.106693 -0.500000 -0.212867
v -0.103343 -0.500000 -0.204780
v -0.133053 -0.500000 -0.133053
v -0.204780 -0.500000 -0.103342
v -0.212868 -0.500000 -0.106692
v -0.216218 -0.500000 -0.114780
v 0.048642 -0.480000 -0.097285
v 0.097284 -0.480000 0.000000
v 0.048642 -0.480000 0.097285
v -0.048643 -0.480000 0.097285
v -0.093567 -0.490000 0.204780
v -0.099780 -0.490000 0.219780
v -0.114780 -0.490000 0.225993
v -0.193420 -0.490000 0.193420
v -0.225993 -0.490000 0.114780
v -0.219780 -0.490000 0.099780
v -0.204780 -0.490000 0.093567
v -0.126141 -0.490000 0.126140
v -0.103343 -0.500000 0.204780
v -0.133053 -0.500000 0.133053
v -0.106693 -0.500000 0.212867
v -0.114780 -0.500000 0.216217
v -0.186507 -0.500000 0.186507
v -0.216218 -0.500000 0.114780
v -0.212868 -0.500000 0.106692
v -0.204780 -0.500000 0.103343
v -0.097285 -0.480000 0.000000
v -0.048643 -0.480000 -0.097285
v -0.036809 -0.500000 -0.078137
v 0.036808 -0.500000 -0.078137
v -0.075877 -0.500000 0.000000
v 0.075876 -0.500000 0.000000
v 0.036808 -0.500000 0.078137
v -0.036809 -0.500000 0.078137
v 0.093566 -0.490000 0.204780
v 0.099780 -0.490000 0.219780
v 0.114780 -0.490000 0.225993
v 0.193419 -0.490000 0.193420
v 0.225993 -0.490000 0.114780
v 0.219780 -0.490000 0.099780
v 0.216217 -0.500000 0.114780
v 0.212867 -0.500000 0.106692
v 0.186507 -0.500000 0.186507
v 0.114780 -0.500000 0.216217
v 0.106692 -0.500000 0.212867
v 0.103342 -0.500000 0.204780
v 0.133052 -0.500000 0.133053
v 0.126140 -0.490000 0.126140
v 0.204780 -0.500000 0.103343
v 0.204780 -0.490000 0.093567
v 0.099780 -0.490000 -0.219780
v 0.114780 -0.500000 -0.216217
v 0.106692 -0.500000 -0.212867
v 0.186507 -0.500000 -0.186507
v 0.216217 -0.500000 -0.114780
v 0.212867 -0.500000 -0.106692
v 0.204780 -0.500000 -0.103342
v 0.133052 -0.500000 -0.133053
v 0.103342 -0.500000 -0.204780
vt 0.042484 0.056714
vt 0.040451 0.053666
vt 0.040451 0.056714
vt 0.040451 0.072697
vt 0.042484 0.071293
vt 0.012890 0.056714
vt 0.018929 0.071293
vt 0.029793 0.060428
vt 0.033507 0.049462
vt 0.035150 0.051495
vt 0.033507 0.051495
vt 0.018929 0.051495
vt 0.013571 0.051495
vt 0.015215 0.049462
vt 0.012166 0.049462
vt 0.029793 0.051495
vt 0.031198 0.049462
vt 0.012118 0.196538
vt 0.010625 0.198384
vt 0.009350 0.196538
vt 0.014886 0.196538
vt 0.025355 0.198384
vt 0.012118 0.198384
vt 0.035578 0.173226
vt 0.037424 0.186463
vt 0.035578 0.187739
vt 0.035578 0.170458
vt 0.037424 0.173226
vt 0.028727 0.198384
vt 0.031495 0.196538
vt 0.028727 0.196538
vt 0.015490 0.198384
vt 0.014214 0.196538
vt 0.028727 0.171116
vt 0.015490 0.176599
vt 0.025355 0.186463
vt 0.035578 0.189836
vt 0.037424 0.191328
vt 0.037424 0.189836
vt 0.035578 0.175323
vt 0.040598 0.452449
vt 0.038186 0.433477
vt 0.038186 0.452449
vt 0.011536 0.436230
vt 0.031601 0.431822
vt 0.028841 0.429062
vt 0.038186 0.456068
vt 0.040598 0.454401
vt 0.008214 0.424028
vt 0.006263 0.426441
vt 0.004595 0.424028
vt 0.025519 0.426441
vt 0.008214 0.426441
vt 0.038186 0.449709
vt 0.040598 0.430736
vt 0.040598 0.448041
vt 0.038186 0.427117
vt 0.038186 0.430736
vt 0.029927 0.424028
vt 0.031879 0.426441
vt 0.033546 0.424028
vt 0.012623 0.426441
vt 0.010955 0.424028
vt 0.033079 0.577480
vt 0.043792 0.563637
vt 0.040000 0.563637
vt 0.017942 0.560128
vt 0.033079 0.563671
vt 0.020038 0.563671
vt 0.020038 0.577480
vt 0.009325 0.563637
vt 0.017942 0.580870
vt 0.033079 0.549796
vt 0.020038 0.549796
vt 0.035176 0.546404
vt 0.020038 0.563671
vt 0.035176 0.560128
vt 0.017942 0.560128
vt 0.017942 0.546404
vt 0.027508 0.329725
vt 0.011116 0.327641
vt 0.027508 0.327641
vt 0.012557 0.316877
vt 0.008748 0.299542
vt 0.006364 0.301926
vt 0.029194 0.329725
vt 0.036283 0.320686
vt 0.034198 0.323813
vt 0.034198 0.320686
vt 0.034198 0.317560
vt 0.036283 0.305735
vt 0.025140 0.327641
vt 0.008748 0.329725
vt 0.023699 0.329725
vt 0.007062 0.329725
vt 0.008748 0.327641
vt 0.005621 0.327641
vt 0.034198 0.301926
vt 0.036283 0.300241
vt 0.034198 0.298800
vt 0.036283 0.316877
vt 0.034198 0.318318
vt 0.018929 0.047430
vt 0.033507 0.049462
vt 0.033507 0.047430
vt 0.033507 0.077332
vt 0.018929 0.071293
vt 0.029793 0.060429
vt 0.036555 0.049462
vt 0.035150 0.047430
vt 0.038419 0.056714
vt 0.040451 0.053666
vt 0.040451 0.056714
vt 0.038419 0.071292
vt 0.031198 0.049462
vt 0.015215 0.047430
vt 0.029793 0.047430
vt 0.012166 0.049462
vt 0.015215 0.049462
vt 0.040451 0.075006
vt 0.038419 0.076650
vt 0.040451 0.078055
vt 0.038419 0.075006
vt 0.040451 0.071958
vt 0.035578 0.189836
vt 0.033733 0.176599
vt 0.035578 0.175323
vt 0.035578 0.192604
vt 0.033733 0.189836
vt 0.028727 0.194693
vt 0.031495 0.196538
vt 0.028727 0.196538
vt 0.015490 0.194693
vt 0.014214 0.196538
vt 0.025355 0.186463
vt 0.028727 0.171116
vt 0.030838 0.173226
vt 0.035578 0.173226
vt 0.033733 0.171734
vt 0.033733 0.173226
vt 0.033733 0.186463
vt 0.012118 0.196538
vt 0.010625 0.194693
vt 0.009350 0.196538
vt 0.026630 0.196538
vt 0.012118 0.194693
vt 0.017942 0.567213
vt 0.033079 0.563670
vt 0.020038 0.563670
vt 0.020038 0.549795
vt 0.009325 0.563637
vt 0.017942 0.546403
vt 0.040000 0.563637
vt 0.033079 0.577478
vt 0.020038 0.577478
vt 0.033079 0.549795
vt 0.043792 0.563637
vt 0.035176 0.580870
vt 0.020038 0.563670
vt 0.035176 0.567213
vt 0.017942 0.567213
vt 0.017942 0.580870
vt 0.032114 0.301926
vt 0.034198 0.298800
vt 0.034198 0.301926
vt 0.032114 0.316877
vt 0.025140 0.327641
vt 0.008748 0.325556
vt 0.023699 0.325556
vt 0.007062 0.325556
vt 0.008748 0.327641
vt 0.005621 0.327641
vt 0.034198 0.320686
vt 0.032114 0.322372
vt 0.034198 0.323813
vt 0.032114 0.305735
vt 0.034198 0.304294
vt 0.012557 0.316878
vt 0.029892 0.320686
vt 0.027508 0.323071
vt 0.027508 0.327641
vt 0.029194 0.325556
vt 0.027508 0.325556
vt 0.011116 0.327641
vt 0.008214 0.426441
vt 0.006263 0.424028
vt 0.004595 0.426441
vt 0.027187 0.426441
vt 0.008214 0.424028
vt 0.038186 0.448830
vt 0.035773 0.452449
vt 0.035773 0.435144
vt 0.038186 0.456068
vt 0.038186 0.452449
vt 0.029927 0.426441
vt 0.031879 0.424028
vt 0.033546 0.426441
vt 0.029927 0.424028
vt 0.010955 0.426441
vt 0.012623 0.424028
vt 0.024433 0.449127
vt 0.028841 0.429063
vt 0.031601 0.431822
vt 0.038186 0.430736
vt 0.035773 0.428785
vt 0.035773 0.430736
vt 0.035773 0.448041
vt 0.042484 0.075006
vt 0.040451 0.078055
vt 0.040451 0.075006
vt 0.040451 0.059023
vt 0.042484 0.055070
vt 0.033507 0.077331
vt 0.035831 0.075006
vt 0.035150 0.076651
vt 0.015215 0.054389
vt 0.013571 0.055070
vt 0.036555 0.049462
vt 0.017524 0.049462
vt 0.015215 0.051495
vt 0.026630 0.196538
vt 0.037424 0.171734
vt 0.030219 0.198384
vt 0.010007 0.189836
vt 0.010625 0.191328
vt 0.012118 0.191946
vt 0.030838 0.173226
vt 0.030219 0.171734
vt 0.035578 0.192604
vt 0.037424 0.176599
vt 0.040598 0.435144
vt 0.004369 0.453535
vt 0.024433 0.449127
vt 0.005177 0.455487
vt 0.007128 0.456295
vt 0.030792 0.429870
vt 0.027187 0.424028
vt 0.040598 0.428784
vt 0.029927 0.426441
vt 0.035176 0.580870
vt 0.035176 0.560128
vt 0.013117 0.563637
vt 0.033079 0.563671
vt 0.012557 0.329725
vt 0.027508 0.323071
vt 0.029892 0.320686
vt 0.029194 0.322372
vt 0.023699 0.305735
vt 0.007062 0.300241
vt 0.030635 0.327641
vt 0.036283 0.322372
vt 0.034198 0.304295
vt 0.036283 0.301926
vt 0.017524 0.049462
vt 0.012890 0.056715
vt 0.013571 0.055071
vt 0.015215 0.054390
vt 0.035831 0.075007
vt 0.035151 0.076651
vt 0.038419 0.055071
vt 0.040451 0.072697
vt 0.013571 0.047430
vt 0.040451 0.059023
vt 0.038419 0.060428
vt 0.033733 0.191328
vt 0.030219 0.194693
vt 0.012118 0.191946
vt 0.010007 0.189836
vt 0.010625 0.191328
vt 0.015490 0.176599
vt 0.030219 0.171734
vt 0.035578 0.170458
vt 0.035578 0.187739
vt 0.025355 0.194693
vt 0.035176 0.567213
vt 0.013117 0.563637
vt 0.035176 0.546403
vt 0.033079 0.563670
vt 0.032114 0.300241
vt 0.034198 0.318318
vt 0.032114 0.320686
vt 0.006364 0.301926
vt 0.023699 0.305735
vt 0.007062 0.300241
vt 0.008748 0.299542
vt 0.029194 0.322372
vt 0.030635 0.327641
vt 0.012557 0.325556
vt 0.025519 0.424028
vt 0.038186 0.433477
vt 0.035773 0.454400
vt 0.007128 0.456295
vt 0.004369 0.453535
vt 0.005177 0.455487
vt 0.011536 0.436231
vt 0.030792 0.429871
vt 0.038186 0.427117
vt 0.038186 0.449708
vt 0.042484 0.076651
vt 0.042484 0.060428
vn -0.6857 0.6702 -0.2840
vn -0.6857 0.6702 0.2840
vn 0.0000 1.0000 0.0000
vn 0.2840 0.6701 0.6858
vn 0.2841 0.6700 0.6858
vn -0.2840 0.6702 0.6857
vn -0.2841 0.6701 0.6858
vn -0.2841 0.6700 0.6858
vn -0.2840 0.6701 -0.6858
vn -0.2839 0.6701 -0.6858
vn 0.2841 0.6701 -0.6858
vn 0.2840 0.6701 -0.6857
vn 0.2840 0.6702 -0.6857
vn 0.2840 0.6702 0.6856
vn 0.2840 0.6703 0.6856
vn 0.2840 0.6702 0.6857
vn 0.6856 0.6703 0.2840
vn 0.6856 0.6703 -0.2840
vn 0.2840 0.6703 -0.6856
vn -0.2840 0.6703 -0.6856
vn -0.6856 0.6703 -0.2840
vn -0.6857 0.6702 0.2839
vn -0.2840 0.6701 0.6858
vn -0.2839 0.6701 0.6858
vn 0.2841 0.6701 0.6858
vn 0.2840 0.6701 0.6857
vn 0.6857 0.6702 0.2840
vn 0.6857 0.6703 -0.2840
vn 0.2840 0.6701 -0.6858
vn 0.2839 0.6701 -0.6858
vn -0.2840 0.6701 -0.6857
vn -0.2841 0.6701 -0.6858
vn -0.2840 0.6702 -0.6857
vn 0.6461 0.6915 0.3231
vn 0.6461 0.6915 0.3230
vn 0.6461 0.6916 0.3230
vn 0.0000 0.6914 0.7225
vn -0.6461 0.6915 0.3231
vn -0.6461 0.6915 0.3230
vn 0.6461 0.6915 -0.3230
vn 0.0000 0.6915 -0.7223
vn -0.6461 0.6915 -0.3230
vn -0.2840 0.6703 0.6856
vn 0.6856 0.6702 -0.2840
vn -0.6856 0.6703 0.2840
vn -0.6856 0.6702 0.2840
vn -0.2840 -0.6703 -0.6856
vn 0.0000 -1.0000 0.0000
vn 0.2840 -0.6703 -0.6856
vn 0.6856 -0.6703 -0.2840
vn 0.6856 -0.6703 0.2840
vn 0.2840 -0.6703 0.6856
vn -0.2840 -0.6703 0.6856
vn -0.2840 -0.6702 0.6856
vn -0.6857 -0.6702 0.2840
vn -0.6857 -0.6702 -0.2840
vn -0.6856 -0.6702 -0.2840
vn -0.6856 -0.6703 0.2840
vn -0.2840 -0.6702 -0.6857
vn 0.0000 -0.6915 -0.7223
vn -0.6461 -0.6915 -0.3230
vn 0.6461 -0.6915 -0.3230
vn 0.6461 -0.6915 0.3230
vn 0.0000 -0.6915 0.7223
vn -0.6461 -0.6915 0.3230
vn -0.6856 -0.6703 -0.2840
vn 0.2839 -0.6703 -0.6856
vn 0.2840 -0.6702 -0.6857
vn 0.6856 -0.6702 -0.2840
vn 0.6857 0.6703 0.2840
vn 0.6857 0.6702 -0.2840
vn 0.2839 0.6701 0.6858
vn 0.2841 0.6700 -0.6858
vn 0.6857 0.6702 -0.2839
vn -0.2841 0.6700 -0.6858
vn -0.2840 -0.6702 -0.6856
vn 0.6856 -0.6702 0.2840
vn -0.2840 -0.6702 0.6857
vn -0.2839 -0.6703 -0.6856
vn 0.6857 -0.6702 -0.2840
vn 0.2840 -0.6702 0.6856
vn 0.6857 0.6702 0.2839
usemtl FrontColor.001
s 1
f 2/1/1 4/2/1 1/3/1
f 2/1/2 6/4/2 5/5/2
f 2/6/3 5/7/3 10/8/3
f 12/9/4 8/10/4 7/11/5
f 5/12/6 12/9/7 7/11/8
f 3/13/9 14/14/9 4/15/10
f 14/14/11 10/16/12 15/17/13
f 17/18/6 33/19/6 31/20/6
f 18/21/14 34/22/15 32/23/16
f 20/24/17 34/25/17 19/26/17
f 36/27/18 35/28/18 20/24/18
f 39/29/19 36/30/19 38/31/19
f 40/32/20 38/31/20 41/33/20
f 39/34/3 40/35/3 34/36/3
f 30/37/2 33/38/2 42/39/2
f 42/39/1 41/40/21 30/37/1
f 47/41/21 46/42/1 25/43/21
f 48/44/3 52/45/3 54/46/3
f 47/41/2 26/47/2 49/48/22
f 27/49/23 49/50/23 26/51/24
f 27/49/25 51/52/26 50/53/5
f 28/54/27 52/55/17 51/56/27
f 55/57/18 52/55/28 29/58/18
f 45/59/29 53/60/29 55/61/30
f 48/62/31 45/59/32 46/63/33
f 56/64/34 44/65/35 57/66/36
f 23/67/37 56/68/37 58/69/37
f 58/70/38 22/71/39 23/72/38
f 57/66/3 60/73/3 61/74/3
f 60/73/40 44/65/40 43/75/40
f 61/76/41 43/77/41 21/78/41
f 22/71/42 61/74/42 21/79/42
f 71/80/6 70/81/43 62/82/6
f 72/83/3 76/84/3 78/85/3
f 62/82/14 73/86/16 71/80/16
f 74/87/17 63/88/17 64/89/17
f 65/90/18 75/91/44 74/87/18
f 66/92/13 76/93/19 75/94/13
f 77/95/20 67/96/20 68/97/20
f 69/98/21 77/99/21 68/100/21
f 72/101/45 69/98/45 70/102/46
f 97/103/47 87/104/47 96/105/47
f 103/106/48 97/107/48 100/108/48
f 96/105/49 88/109/49 98/110/49
f 99/111/50 88/112/50 89/113/50
f 89/113/51 100/114/51 99/111/51
f 90/115/52 101/116/52 100/117/52
f 92/118/53 101/116/54 91/119/53
f 93/120/55 102/121/55 92/122/55
f 103/123/56 93/120/56 94/124/57
f 108/125/50 117/126/50 115/127/50
f 109/128/51 116/129/51 108/125/51
f 119/130/52 109/131/52 110/132/52
f 120/133/53 110/132/53 111/134/53
f 120/135/48 116/136/48 119/137/48
f 112/138/56 122/139/56 121/140/56
f 120/141/58 112/138/55 121/140/55
f 114/142/47 122/143/47 113/144/59
f 115/145/49 123/146/49 114/142/49
f 125/147/60 127/148/60 126/149/60
f 126/150/61 124/151/61 125/152/61
f 129/153/48 130/154/48 131/155/48
f 127/156/62 105/157/62 129/153/62
f 130/154/63 105/157/63 106/158/63
f 131/159/64 106/160/64 107/161/64
f 124/151/65 131/155/65 107/162/65
f 138/163/50 137/164/50 136/165/50
f 136/165/51 140/166/51 138/163/51
f 135/167/52 141/168/52 140/169/52
f 142/170/53 134/171/53 133/172/53
f 132/173/58 142/174/58 133/175/58
f 144/176/66 132/173/66 145/177/66
f 144/178/48 141/179/48 143/180/48
f 147/181/49 139/182/49 146/183/67
f 146/183/47 145/184/47 147/181/47
f 79/185/47 150/186/47 148/187/47
f 80/188/68 149/189/49 79/185/49
f 81/190/50 152/191/50 151/192/69
f 83/193/51 152/191/51 82/194/51
f 84/195/52 153/196/52 83/197/52
f 154/198/53 85/199/53 155/200/53
f 155/201/48 152/202/48 154/203/48
f 86/204/66 150/205/66 156/206/66
f 155/207/58 86/204/58 156/206/58
f 9/208/27 13/209/70 16/210/17
f 15/211/71 9/208/18 16/210/18
f 2/1/1 3/212/1 4/2/1
f 2/1/2 1/3/2 6/4/2
f 5/7/3 7/213/3 9/214/3
f 7/213/3 8/215/3 9/214/3
f 9/214/3 10/8/3 5/7/3
f 10/8/3 11/216/3 2/6/3
f 11/216/3 3/217/3 2/6/3
f 12/9/4 13/218/72 8/10/4
f 5/12/6 6/219/6 12/9/7
f 3/13/9 11/220/9 14/14/9
f 14/14/11 11/220/73 10/16/12
f 17/18/6 32/23/6 33/19/6
f 32/23/16 17/18/16 18/21/14
f 18/21/14 19/221/15 34/22/15
f 20/24/17 35/28/17 34/25/17
f 36/27/18 37/222/18 35/28/18
f 39/29/19 37/223/19 36/30/19
f 40/32/20 39/29/20 38/31/20
f 40/35/3 42/224/3 34/36/3
f 42/224/3 33/225/3 32/226/3
f 34/36/3 42/224/3 32/226/3
f 34/36/3 35/227/3 39/34/3
f 35/227/3 37/228/3 39/34/3
f 30/37/2 31/229/2 33/38/2
f 42/39/1 40/230/21 41/40/21
f 47/41/21 48/231/1 46/42/1
f 48/44/3 47/232/3 51/233/3
f 47/232/3 49/234/3 50/235/3
f 51/233/3 47/232/3 50/235/3
f 51/233/3 52/45/3 48/44/3
f 52/45/3 53/236/3 54/46/3
f 47/41/2 25/43/45 26/47/2
f 27/49/23 50/53/23 49/50/23
f 27/49/25 28/237/16 51/52/26
f 28/54/27 29/58/17 52/55/17
f 55/57/18 53/238/74 52/55/28
f 45/59/29 54/239/73 53/60/29
f 48/62/31 54/239/75 45/59/32
f 56/64/34 24/240/34 44/65/35
f 23/67/37 24/241/37 56/68/37
f 58/70/38 59/242/39 22/71/39
f 61/74/3 59/242/3 57/66/3
f 59/242/3 58/70/3 57/66/3
f 58/70/3 56/64/3 57/66/3
f 60/73/40 57/66/40 44/65/40
f 61/76/41 60/243/41 43/77/41
f 22/71/42 59/242/42 61/74/42
f 71/80/6 72/244/43 70/81/43
f 72/83/3 71/245/3 74/246/3
f 71/245/3 73/247/3 74/246/3
f 74/246/3 75/248/3 72/83/3
f 75/248/3 76/84/3 72/83/3
f 76/84/3 77/249/3 78/85/3
f 62/82/14 63/250/14 73/86/16
f 74/87/17 73/251/17 63/88/17
f 74/87/18 64/89/18 65/90/18
f 65/90/18 66/252/71 75/91/44
f 66/92/13 67/96/19 76/93/19
f 77/95/20 76/93/20 67/96/20
f 69/98/21 78/253/21 77/99/21
f 72/101/45 78/253/45 69/98/45
f 97/103/47 95/254/76 87/104/47
f 97/107/48 96/255/48 100/108/48
f 96/255/48 98/256/48 99/257/48
f 100/108/48 96/255/48 99/257/48
f 100/108/48 101/258/48 103/106/48
f 101/258/48 102/259/48 103/106/48
f 96/105/49 87/104/49 88/109/49
f 99/111/50 98/260/50 88/112/50
f 89/113/51 90/261/77 100/114/51
f 90/115/52 91/119/52 101/116/52
f 92/118/53 102/262/78 101/116/54
f 93/120/55 103/123/55 102/121/55
f 95/263/66 97/264/66 94/124/57
f 97/264/66 103/123/56 94/124/57
f 108/125/50 116/129/50 117/126/50
f 109/128/51 118/265/51 116/129/51
f 119/130/52 118/266/52 109/131/52
f 120/133/53 119/130/53 110/132/53
f 120/135/48 121/267/48 123/268/48
f 121/267/48 122/269/48 123/268/48
f 123/268/48 117/270/48 120/135/48
f 117/270/48 116/136/48 120/135/48
f 116/136/48 118/271/48 119/137/48
f 112/138/56 113/272/56 122/139/56
f 120/141/58 111/273/58 112/138/55
f 114/142/47 123/146/79 122/143/47
f 115/145/49 117/274/49 123/146/49
f 125/147/60 104/275/60 127/148/60
f 126/150/61 128/276/61 124/151/61
f 131/155/48 128/276/48 129/153/48
f 128/276/48 126/150/48 129/153/48
f 126/150/48 127/156/48 129/153/48
f 127/156/62 104/277/62 105/157/62
f 130/154/63 129/153/63 105/157/63
f 131/159/64 130/278/64 106/160/64
f 124/151/65 128/276/65 131/155/65
f 138/163/50 139/279/50 137/164/50
f 136/165/51 135/280/77 140/166/51
f 135/167/52 134/171/52 141/168/52
f 142/170/53 141/168/53 134/171/53
f 132/173/58 143/281/58 142/174/58
f 144/176/66 143/281/66 132/173/66
f 144/178/48 146/282/48 140/283/48
f 146/282/48 139/284/48 138/285/48
f 140/283/48 146/282/48 138/285/48
f 140/283/48 141/179/48 144/178/48
f 141/179/48 142/286/48 143/180/48
f 147/181/49 137/287/49 139/182/49
f 146/183/47 144/288/47 145/184/47
f 79/185/47 149/189/47 150/186/47
f 80/188/68 151/289/68 149/189/49
f 151/192/69 80/290/80 81/190/50
f 81/190/50 82/194/50 152/191/50
f 83/193/51 153/291/51 152/191/51
f 84/195/52 154/198/81 153/196/52
f 154/198/53 84/195/53 85/199/53
f 155/201/48 156/292/48 149/293/48
f 156/292/48 150/294/48 149/293/48
f 149/293/48 151/295/48 155/201/48
f 151/295/48 152/202/48 155/201/48
f 152/202/48 153/296/48 154/203/48
f 86/204/66 148/297/66 150/205/66
f 155/207/58 85/298/58 86/204/58
f 9/208/27 8/299/82 13/209/70
f 15/211/71 10/300/71 9/208/18
