# Blender v2.80 (sub 75) OBJ File: ''
# www.blender.org
mtllib YK_Shirogane_MeshCollider.mtl
o YK_Nakata_BF_Block_111.007
v 0.037326 -0.030932 0.199118
v 0.020445 -0.093904 0.199118
v 0.016966 0.111530 0.199118
v 0.040423 0.094216 0.199118
v -0.040519 0.036318 0.199118
v -0.040423 0.094216 0.199118
v 0.040519 0.036318 0.199118
v 0.000000 -0.144303 0.198889
v -0.016966 0.111530 0.199118
v -0.020446 -0.093904 0.199118
v -0.037326 -0.030932 0.199118
v 0.037326 -0.024628 0.567799
v 0.020445 -0.087599 0.567799
v 0.000000 -0.137453 0.567799
v -0.020446 -0.087599 0.567799
v 0.016966 0.109355 0.565239
v 0.040423 0.092042 0.565239
v -0.040519 0.042623 0.567799
v -0.040423 0.092042 0.565239
v 0.040519 0.042623 0.567799
v -0.016966 0.109355 0.565239
v -0.037326 -0.024628 0.567799
v -0.037326 0.126469 2.853460
v -0.020445 0.063868 2.859913
v -0.019445 0.111839 3.070846
v -0.035520 0.170426 3.060200
v 0.000000 0.014349 2.865662
v 0.000000 0.065680 3.079234
v 0.040423 0.242276 2.837164
v 0.016966 0.259488 2.835390
v 0.016144 0.295187 3.037528
v 0.038457 0.279053 3.040461
v 0.020446 0.063868 2.859913
v 0.037326 0.126469 2.853460
v 0.035520 0.170426 3.060200
v 0.019445 0.111839 3.070846
v -0.016966 0.259488 2.835390
v -0.016144 0.295187 3.037528
v -0.040422 0.242276 2.837164
v -0.038457 0.279053 3.040461
v 0.040519 0.193326 2.846568
v 0.038582 0.233064 3.048817
v -0.040519 0.193326 2.846568
v -0.038582 0.233064 3.048817
v 0.000000 0.136169 3.288924
v 0.018401 0.179273 3.279353
v 0.012882 0.268913 3.390816
v 0.000000 0.233726 3.399298
v 0.033593 0.234866 3.268921
v 0.036466 0.294240 3.257782
v 0.025526 0.348421 3.371650
v 0.023515 0.307360 3.381547
v 0.036381 0.335350 3.243391
v 0.015269 0.350637 3.240522
v 0.010689 0.380759 3.356021
v 0.025466 0.370187 3.358570
v -0.015269 0.350637 3.240522
v -0.036380 0.335350 3.243391
v -0.025466 0.370187 3.358570
v -0.010689 0.380759 3.356021
v -0.036466 0.294240 3.257782
v -0.033593 0.234866 3.268921
v -0.023515 0.307360 3.381547
v -0.025526 0.348421 3.371650
v -0.018401 0.179273 3.279353
v -0.012880 0.268913 3.390816
v 0.000000 0.431208 3.505926
v -0.040519 0.056055 1.117886
v -0.040423 0.105475 1.115327
v -0.040422 0.196666 2.547664
v -0.040519 0.148238 2.557342
v 0.040423 0.105475 1.115327
v 0.040519 0.056055 1.117886
v 0.040519 0.148238 2.557342
v 0.040423 0.196666 2.547664
v 0.037326 -0.011196 1.117886
v 0.020445 -0.074166 1.117886
v 0.020446 0.019542 2.576179
v 0.037326 0.081775 2.567069
v -0.016966 0.122788 1.115327
v -0.016966 0.213777 2.545160
v 0.000000 -0.124020 1.117886
v -0.020445 -0.074166 1.117886
v -0.020445 0.019542 2.576179
v 0.000000 -0.029728 2.583389
v -0.037326 -0.011196 1.117886
v -0.037326 0.081775 2.567069
v 0.016966 0.122788 1.115327
v 0.016966 0.213777 2.545160
v -0.040423 0.154940 2.215354
v -0.040519 0.105545 2.218321
v 0.000000 -0.074524 2.219804
v 0.020446 -0.024671 2.219393
v 0.037326 0.038298 2.218874
v -0.037326 0.038298 2.218874
v 0.040519 0.105545 2.218321
v -0.020445 -0.024671 2.219393
v 0.040423 0.154940 2.215354
v 0.016966 0.172253 2.215212
v -0.016966 0.172253 2.215212
v 0.037326 0.007310 1.683117
v 0.040519 0.074525 1.685204
v -0.037326 0.007310 1.683117
v -0.020445 -0.055626 1.681163
v 0.040423 0.124007 1.684180
v 0.016966 0.141311 1.684718
v -0.016966 0.141311 1.684718
v -0.040423 0.124007 1.684180
v 0.000000 -0.105454 1.679615
v -0.040519 0.074525 1.685204
v 0.020446 -0.055626 1.681163
vt 0.278180 0.373647
vt 0.275641 0.373869
vt 0.276759 0.389577
vt 0.279298 0.389355
vt 0.278180 0.373647
vt 0.280211 0.373460
vt 0.281308 0.389179
vt 0.279298 0.389355
vt 0.389377 0.504741
vt 0.391251 0.504905
vt 0.387357 0.546703
vt 0.385483 0.546539
vt 0.389377 0.504741
vt 0.383110 0.504192
vt 0.380108 0.546364
vt 0.385483 0.546539
vt 0.288938 0.433652
vt 0.296201 0.434452
vt 0.292251 0.476546
vt 0.284988 0.475744
vt 0.391251 0.504905
vt 0.387357 0.546703
vt 0.275641 0.373869
vt 0.276759 0.389577
vt 0.296201 0.434452
vt 0.288938 0.433652
vt 0.284988 0.475744
vt 0.292251 0.476546
vt 0.383110 0.504192
vt 0.380108 0.546364
vt 0.279175 0.487354
vt 0.281723 0.487407
vt 0.280574 0.496551
vt 0.278172 0.496304
vt 0.283741 0.487477
vt 0.282466 0.496745
vt 0.379041 0.807466
vt 0.380922 0.807427
vt 0.382765 0.830853
vt 0.380990 0.831035
vt 0.281723 0.487407
vt 0.279175 0.487354
vt 0.278172 0.496304
vt 0.280574 0.496551
vt 0.380922 0.807427
vt 0.382765 0.830853
vt 0.379041 0.807466
vt 0.380990 0.831035
vt 0.287437 0.487622
vt 0.294603 0.489051
vt 0.291756 0.512466
vt 0.284872 0.511666
vt 0.373649 0.808077
vt 0.375928 0.831554
vt 0.294603 0.489051
vt 0.287437 0.487622
vt 0.284872 0.511666
vt 0.291756 0.512466
vt 0.373649 0.808077
vt 0.375928 0.831554
vt 0.280405 0.505915
vt 0.278631 0.505659
vt 0.275432 0.510718
vt 0.276882 0.510955
vt 0.287312 0.585488
vt 0.293734 0.586906
vt 0.293889 0.601228
vt 0.289347 0.600478
vt 0.385057 0.854748
vt 0.386739 0.854565
vt 0.388846 0.868043
vt 0.387676 0.868234
vt 0.386739 0.854565
vt 0.385057 0.854748
vt 0.387676 0.868234
vt 0.388846 0.868043
vt 0.293734 0.586906
vt 0.287312 0.585488
vt 0.289347 0.600478
vt 0.293889 0.601228
vt 0.278631 0.505659
vt 0.275432 0.510718
vt 0.276351 0.505412
vt 0.273848 0.510459
vt 0.380463 0.856002
vt 0.385189 0.869522
vt 0.380463 0.856002
vt 0.385189 0.869522
vt 0.276351 0.505412
vt 0.273848 0.510459
vt 0.269317 0.516188
vt 0.392808 0.885643
vt 0.293126 0.559003
vt 0.289120 0.556733
vt 0.288959 0.576340
vt 0.289120 0.556733
vt 0.293126 0.559003
vt 0.376066 0.609324
vt 0.381440 0.609499
vt 0.376997 0.773967
vt 0.371659 0.774613
vt 0.381440 0.609499
vt 0.376066 0.609324
vt 0.371659 0.774613
vt 0.376997 0.773967
vt 0.278265 0.413028
vt 0.280804 0.412806
vt 0.282454 0.475179
vt 0.279911 0.475011
vt 0.383314 0.609663
vt 0.378874 0.773843
vt 0.285102 0.409781
vt 0.292409 0.409774
vt 0.293927 0.472844
vt 0.286620 0.472851
vt 0.286248 0.395769
vt 0.293548 0.395446
vt 0.294808 0.428945
vt 0.287501 0.428939
vt 0.282814 0.412630
vt 0.280804 0.412806
vt 0.282454 0.475179
vt 0.284467 0.475312
vt 0.278265 0.413028
vt 0.279911 0.475011
vt 0.383314 0.609663
vt 0.378874 0.773843
vt 0.292409 0.409774
vt 0.285102 0.409781
vt 0.286620 0.472851
vt 0.293927 0.472844
vt 0.293548 0.395446
vt 0.286248 0.395769
vt 0.287501 0.428939
vt 0.294808 0.428945
vt 0.375802 0.735615
vt 0.370425 0.735486
vt 0.284920 0.459686
vt 0.282909 0.459844
vt 0.280368 0.460044
vt 0.295812 0.486257
vt 0.288600 0.485080
vt 0.286483 0.525227
vt 0.293789 0.525352
vt 0.288600 0.485080
vt 0.295812 0.486257
vt 0.293789 0.525352
vt 0.286483 0.525227
vt 0.280368 0.460044
vt 0.282909 0.459844
vt 0.370425 0.735486
vt 0.375802 0.735615
vt 0.377677 0.735762
vt 0.377677 0.735762
vt 0.284761 0.447401
vt 0.292067 0.447540
vt 0.296279 0.508614
vt 0.288974 0.508777
vt 0.279623 0.437141
vt 0.282153 0.436836
vt 0.372395 0.674298
vt 0.377761 0.674650
vt 0.379629 0.674875
vt 0.379629 0.674875
vt 0.377761 0.674650
vt 0.284156 0.436594
vt 0.372395 0.674298
vt 0.282153 0.436836
vt 0.279623 0.437141
vt 0.292067 0.447540
vt 0.284761 0.447401
vt 0.288974 0.508777
vt 0.296279 0.508614
vt 0.286687 0.411097
vt 0.293979 0.411555
vt 0.291902 0.476601
vt 0.284628 0.475904
vt 0.293979 0.411555
vt 0.286687 0.411097
vt 0.284628 0.475904
vt 0.291902 0.476601
vt 0.291699 0.570300
vt 0.284769 0.570333
vt 0.287258 0.595142
vt 0.293834 0.595073
vt 0.284769 0.570333
vt 0.291699 0.570300
vt 0.293834 0.595073
vt 0.287258 0.595142
vn 0.9475 -0.3196 0.0056
vn 0.9879 -0.1552 0.0027
vn 0.9880 -0.1543 0.0032
vn 0.9476 -0.3195 0.0067
vn -0.9475 -0.3196 0.0056
vn -0.9259 -0.3777 0.0067
vn -0.9256 -0.3785 0.0080
vn -0.9476 -0.3195 0.0067
vn 0.5938 0.8046 0.0048
vn 0.3122 0.9500 0.0056
vn 0.3135 0.9496 -0.0088
vn 0.5938 0.8046 -0.0074
vn -1.0000 0.0018 -0.0000
vn -0.9997 -0.0231 0.0004
vn -0.9997 -0.0228 0.0005
vn -1.0000 0.0019 -0.0000
vn 0.9997 -0.0231 0.0004
vn 0.9997 -0.0228 0.0005
vn 0.9259 -0.3777 0.0067
vn 0.9256 -0.3785 0.0080
vn -0.3122 0.9500 0.0056
vn -0.3135 0.9496 -0.0088
vn -0.5938 0.8046 0.0048
vn -0.5938 0.8046 -0.0074
vn -0.9879 -0.1552 0.0027
vn -0.9880 -0.1543 0.0032
vn 1.0000 0.0018 -0.0000
vn 1.0000 0.0019 -0.0000
vn -0.9876 -0.1532 0.0327
vn -0.9466 -0.3162 0.0629
vn -0.9456 -0.3124 0.0908
vn -0.9872 -0.1518 0.0485
vn -0.9246 -0.3737 0.0732
vn -0.9233 -0.3694 0.1051
vn 0.5929 0.7945 -0.1314
vn 0.3129 0.9369 -0.1560
vn 0.3144 0.9265 -0.2069
vn 0.5923 0.7868 -0.1732
vn 0.9466 -0.3162 0.0629
vn 0.9876 -0.1532 0.0327
vn 0.9872 -0.1518 0.0485
vn 0.9456 -0.3124 0.0908
vn -0.3129 0.9369 -0.1560
vn -0.3144 0.9265 -0.2069
vn -0.5929 0.7945 -0.1314
vn -0.5923 0.7868 -0.1732
vn 0.9246 -0.3738 0.0732
vn 0.9233 -0.3694 0.1051
vn 0.9997 -0.0220 0.0088
vn 0.9997 -0.0210 0.0150
vn -1.0000 0.0029 0.0042
vn -0.9997 -0.0220 0.0088
vn -0.9997 -0.0210 0.0150
vn -1.0000 0.0044 0.0088
vn 1.0000 0.0029 0.0042
vn 1.0000 0.0044 0.0088
vn 0.9216 -0.3413 0.1850
vn 0.9405 -0.2884 0.1797
vn 0.9198 -0.2287 0.3189
vn 0.9066 -0.2798 0.3160
vn 0.9831 -0.1420 0.1154
vn 0.9983 -0.0081 0.0574
vn 0.9909 0.0233 0.1324
vn 0.9685 -0.1092 0.2238
vn 0.5921 0.7815 -0.1965
vn 0.3143 0.9190 -0.2381
vn 0.3166 0.9137 -0.2549
vn 0.5927 0.7807 -0.1979
vn -0.3143 0.9190 -0.2381
vn -0.5921 0.7815 -0.1965
vn -0.5927 0.7807 -0.1979
vn -0.3166 0.9137 -0.2549
vn -0.9983 -0.0081 0.0574
vn -0.9831 -0.1420 0.1154
vn -0.9685 -0.1092 0.2238
vn -0.9909 0.0233 0.1324
vn -0.9405 -0.2884 0.1797
vn -0.9216 -0.3413 0.1850
vn -0.9066 -0.2798 0.3160
vn -0.9198 -0.2287 0.3189
vn 0.9988 0.0205 0.0435
vn 0.9928 0.0581 0.1048
vn -0.9988 0.0206 0.0435
vn -0.9928 0.0581 0.1048
vn 0.9617 -0.0709 0.2647
vn 0.0000 0.9565 -0.2918
vn -0.9617 -0.0709 0.2647
vn -0.9997 -0.0228 0.0007
vn -1.0000 0.0019 -0.0001
vn -1.0000 0.0019 -0.0003
vn -0.9997 -0.0228 0.0032
vn 1.0000 0.0019 -0.0001
vn 0.9997 -0.0228 0.0007
vn 0.9997 -0.0228 0.0032
vn 1.0000 0.0019 -0.0003
vn 0.9880 -0.1544 0.0044
vn 0.9473 -0.3201 0.0092
vn 0.9470 -0.3180 0.0445
vn 0.9878 -0.1540 0.0216
vn -0.5935 0.8045 -0.0229
vn -0.3126 0.9495 -0.0271
vn -0.3129 0.9404 -0.1332
vn -0.5928 0.7974 -0.1129
vn -0.9251 -0.3795 0.0109
vn -0.9473 -0.3201 0.0092
vn -0.9470 -0.3180 0.0445
vn -0.9249 -0.3765 0.0527
vn -0.9880 -0.1544 0.0044
vn -0.9878 -0.1540 0.0216
vn 0.9251 -0.3795 0.0109
vn 0.9249 -0.3766 0.0527
vn 0.3126 0.9495 -0.0271
vn 0.5935 0.8045 -0.0229
vn 0.5928 0.7974 -0.1129
vn 0.3129 0.9404 -0.1332
vn -1.0000 0.0019 -0.0002
vn -0.9997 -0.0232 0.0022
vn 0.9248 -0.3788 0.0336
vn 0.9468 -0.3205 0.0291
vn 0.9876 -0.1560 0.0144
vn -0.9876 -0.1560 0.0144
vn 0.9997 -0.0232 0.0022
vn -0.9468 -0.3205 0.0291
vn 1.0000 0.0019 -0.0002
vn 0.5928 0.8021 -0.0728
vn 0.3139 0.9454 -0.0874
vn -0.3139 0.9454 -0.0874
vn -0.5928 0.8021 -0.0728
vn -0.9249 -0.3788 0.0336
vn 0.9879 -0.1550 0.0071
vn 0.9997 -0.0230 0.0011
vn -0.9879 -0.1550 0.0071
vn -0.9471 -0.3205 0.0145
vn 0.5931 0.8043 -0.0362
vn 0.3129 0.9488 -0.0432
vn -0.3129 0.9488 -0.0432
vn -0.5931 0.8043 -0.0362
vn -0.9250 -0.3797 0.0169
vn -0.9997 -0.0230 0.0011
vn 0.9250 -0.3797 0.0169
vn 0.9471 -0.3205 0.0145
usemtl Default_OBJ.059
s 1
f 2/1/1 1/2/2 12/3/3 13/4/4
f 10/5/5 8/6/6 14/7/7 15/8/8
f 4/9/9 3/10/10 16/11/11 17/12/12
f 6/13/13 5/14/14 18/15/15 19/16/16
f 1/17/2 7/18/17 20/19/18 12/20/3
f 8/6/19 2/1/1 13/4/4 14/7/20
f 3/10/10 9/21/21 21/22/22 16/11/11
f 9/21/21 6/13/23 19/16/24 21/22/22
f 11/23/25 10/5/5 15/8/8 22/24/26
f 5/25/14 11/26/25 22/27/26 18/28/15
f 7/29/17 4/9/27 17/12/28 20/30/18
f 23/31/29 24/32/30 25/33/31 26/34/32
f 24/32/30 27/35/33 28/36/34 25/33/31
f 29/37/35 30/38/36 31/39/37 32/40/38
f 33/41/39 34/42/40 35/43/41 36/44/42
f 30/38/36 37/45/43 38/46/44 31/39/37
f 37/45/43 39/47/45 40/48/46 38/46/44
f 27/35/47 33/41/39 36/44/42 28/36/48
f 34/49/40 41/50/49 42/51/50 35/52/41
f 39/47/51 43/53/52 44/54/53 40/48/54
f 43/55/52 23/56/29 26/57/32 44/58/53
f 41/59/49 29/37/55 32/40/56 42/60/50
f 45/61/57 46/62/58 47/63/59 48/64/60
f 49/65/61 50/66/62 51/67/63 52/68/64
f 53/69/65 54/70/66 55/71/67 56/72/68
f 57/73/69 58/74/70 59/75/71 60/76/72
f 61/77/73 62/78/74 63/79/75 64/80/76
f 65/81/77 45/61/78 48/64/79 66/82/80
f 62/83/74 65/81/77 66/82/80 63/84/75
f 50/85/62 53/69/81 56/72/82 51/86/63
f 58/74/83 61/87/73 64/88/76 59/75/84
f 54/70/66 57/73/69 60/76/72 55/71/67
f 46/62/58 49/89/61 52/90/64 47/63/59
f 48/64/60 47/63/59 67/91/85
f 56/72/68 55/71/67 67/92/86
f 51/86/63 56/72/82 67/92/85
f 55/71/67 60/76/72 67/92/86
f 59/75/84 64/88/76 67/92/87
f 64/93/76 63/94/75 67/95/87
f 52/96/64 51/97/63 67/95/85
f 66/82/80 48/64/79 67/91/87
f 63/84/75 66/82/80 67/91/87
f 60/76/72 59/75/71 67/92/86
f 47/63/59 52/90/64 67/91/85
f 19/16/16 18/15/15 68/98/88 69/99/89
f 70/100/90 71/101/91 43/53/52 39/47/51
f 20/30/18 17/12/28 72/102/92 73/103/93
f 74/104/94 75/105/95 29/37/55 41/59/49
f 13/4/4 12/3/3 76/106/96 77/107/97
f 78/108/98 79/109/99 34/42/40 33/41/39
f 21/22/22 19/16/24 69/99/100 80/110/101
f 81/111/102 70/100/103 39/47/45 37/45/43
f 12/112/3 20/113/18 73/114/93 76/115/96
f 79/116/99 74/117/94 41/118/49 34/119/40
f 15/8/8 14/7/7 82/120/104 83/121/105
f 84/122/106 85/123/107 27/35/33 24/32/30
f 22/24/26 15/8/8 83/121/105 86/124/108
f 87/125/109 84/122/106 24/32/30 23/31/29
f 14/7/20 13/4/4 77/107/97 82/120/110
f 85/123/111 78/108/98 33/41/39 27/35/47
f 17/12/12 16/11/11 88/126/112 72/102/113
f 75/105/114 89/127/115 30/38/36 29/37/35
f 18/128/15 22/129/26 86/130/108 68/131/88
f 71/132/91 87/133/109 23/134/29 43/135/52
f 16/11/11 21/22/22 80/110/101 88/126/112
f 89/127/115 81/111/102 37/45/43 30/38/36
f 90/136/116 91/137/117 71/101/91 70/100/90
f 92/138/118 93/139/119 78/108/98 85/123/111
f 93/139/119 94/140/120 79/109/99 78/108/98
f 91/141/117 95/142/121 87/143/109 71/144/91
f 94/145/120 96/146/122 74/147/94 79/148/99
f 95/149/121 97/150/123 84/122/106 87/125/109
f 96/151/122 98/152/124 75/105/95 74/104/94
f 98/152/125 99/153/126 89/127/115 75/105/114
f 100/154/127 90/136/128 70/100/103 81/111/102
f 99/153/126 100/154/127 81/111/102 89/127/115
f 97/150/123 92/138/129 85/123/107 84/122/106
f 101/155/130 102/156/131 96/157/122 94/158/120
f 103/159/132 104/160/133 97/150/123 95/149/121
f 102/161/131 105/162/92 98/152/124 96/151/122
f 105/162/134 106/163/135 99/153/126 98/152/125
f 107/164/136 108/165/137 90/136/128 100/154/127
f 106/163/135 107/164/136 100/154/127 99/153/126
f 104/160/133 109/166/138 92/138/129 97/150/123
f 108/165/89 110/167/139 91/137/117 90/136/116
f 109/166/140 111/168/141 93/139/119 92/138/118
f 111/168/141 101/169/130 94/140/120 93/139/119
f 110/170/139 103/171/132 95/172/121 91/173/117
f 76/174/96 73/175/93 102/176/131 101/177/130
f 86/124/108 83/121/105 104/160/133 103/159/132
f 73/103/93 72/102/92 105/162/92 102/161/131
f 72/102/113 88/126/112 106/163/135 105/162/134
f 80/110/101 69/99/100 108/165/137 107/164/136
f 88/126/112 80/110/101 107/164/136 106/163/135
f 83/121/105 82/120/104 109/166/138 104/160/133
f 69/99/89 68/98/88 110/167/139 108/165/89
f 82/120/110 77/107/97 111/168/141 109/166/140
f 77/107/97 76/106/96 101/169/130 111/168/141
f 68/178/88 86/179/108 103/180/132 110/181/139
f 31/39/37 38/46/44 57/73/69 54/70/66
f 25/33/31 28/36/34 45/61/78 65/81/77
f 40/48/54 44/54/53 61/87/73 58/74/83
f 38/46/44 40/48/46 58/74/70 57/73/69
f 32/40/38 31/39/37 54/70/66 53/69/65
f 44/182/53 26/183/32 62/184/74 61/185/73
f 28/36/48 36/44/42 46/62/58 45/61/57
f 36/44/42 35/43/41 49/89/61 46/62/58
f 42/60/50 32/40/56 53/69/81 50/85/62
f 26/34/32 25/33/31 65/81/77 62/83/74
f 35/186/41 42/187/50 50/188/62 49/189/61
