# Blender v2.80 (sub 75) OBJ File: ''
# www.blender.org
mtllib YK_Hover_Small_Jet.mtl
o BF_Block_111.002
v -0.163982 -0.163022 -0.193477
v -0.193544 -0.163022 -0.164441
v -0.192836 -0.163022 0.163522
v 0.163982 -0.163022 -0.193477
v 0.193190 -0.163022 -0.164492
v 0.193190 -0.163022 0.163472
v 0.163982 -0.163022 0.192705
v -0.163982 -0.163022 0.192705
v -0.180380 -0.201464 -0.212782
v -0.212898 -0.201464 -0.180842
v -0.212120 -0.201464 0.179918
v 0.180380 -0.201464 -0.212782
v 0.212509 -0.201464 -0.180898
v 0.212509 -0.201464 0.179862
v 0.180380 -0.201464 0.212019
v -0.180380 -0.201464 0.212019
v -0.180380 -0.259126 -0.212782
v -0.212898 -0.259126 -0.180842
v -0.212120 -0.259126 0.179918
v 0.180380 -0.259126 -0.212782
v 0.212509 -0.259126 -0.180898
v 0.212509 -0.259126 0.179862
v 0.180380 -0.259126 0.212019
v -0.180380 -0.259126 0.212019
v -0.162342 -0.297568 -0.191547
v -0.191608 -0.297569 -0.162801
v -0.190908 -0.297568 0.161883
v 0.162342 -0.297569 -0.191547
v 0.191258 -0.297569 -0.162852
v 0.191258 -0.297568 0.161833
v 0.162342 -0.297568 0.190774
v -0.162342 -0.297568 0.190774
v -0.259747 -0.416097 -0.306214
v -0.306573 -0.416098 -0.260220
v -0.305452 -0.416097 0.259273
v 0.259748 -0.416098 -0.306214
v 0.306013 -0.416098 -0.260302
v 0.306013 -0.416097 0.259193
v 0.259748 -0.416097 0.305499
v -0.259747 -0.416097 0.305499
v -0.259747 -0.480167 -0.306214
v -0.306573 -0.480167 -0.260220
v -0.305452 -0.480167 0.259273
v 0.259748 -0.480167 -0.306214
v 0.306013 -0.480167 -0.260302
v 0.306013 -0.480167 0.259193
v 0.259748 -0.480167 0.305499
v -0.259747 -0.480167 0.305499
v -0.233773 -0.496185 -0.275636
v -0.275916 -0.496185 -0.234242
v -0.274907 -0.496185 0.233303
v 0.233773 -0.496185 -0.275636
v 0.275412 -0.496185 -0.234315
v 0.275412 -0.496185 0.233231
v 0.233773 -0.496185 0.274906
v -0.233773 -0.496185 0.274906
v -0.204533 -0.496185 -0.241215
v -0.241405 -0.496185 -0.204998
v -0.240522 -0.496185 0.204067
v 0.204533 -0.496185 -0.241215
v 0.240964 -0.496185 -0.205062
v 0.240964 -0.496185 0.204004
v 0.204533 -0.496185 0.240467
v -0.204533 -0.496185 0.240467
v -0.184080 -0.404656 -0.217137
v -0.217264 -0.404656 -0.184542
v -0.216470 -0.404656 0.183617
v 0.184080 -0.404656 -0.217137
v 0.216867 -0.404656 -0.184599
v 0.216867 -0.404656 0.183560
v 0.184080 -0.404656 0.216376
v -0.184080 -0.404656 0.216376
vt 0.363183 0.469176
vt 0.363370 0.555844
vt 0.370995 0.563555
vt 0.457662 0.563555
vt 0.465381 0.555830
vt 0.465381 0.469163
vt 0.457662 0.461503
vt 0.370995 0.461503
vt 0.370995 0.563555
vt 0.363370 0.555844
vt 0.363370 0.555844
vt 0.370995 0.563555
vt 0.457662 0.563555
vt 0.465381 0.555830
vt 0.465381 0.469163
vt 0.457662 0.461503
vt 0.370995 0.461503
vt 0.363183 0.469176
vt 0.465381 0.469163
vt 0.465381 0.555830
vt 0.465381 0.555830
vt 0.465381 0.469163
vt 0.457662 0.563555
vt 0.457662 0.461503
vt 0.363183 0.469176
vt 0.370995 0.461503
vt 0.457662 0.563555
vt 0.457662 0.563555
vt 0.465381 0.555830
vt 0.457662 0.461503
vt 0.370995 0.461503
vt 0.363183 0.469176
vt 0.363370 0.555844
vt 0.370995 0.563555
vt 0.465381 0.469163
vt 0.465381 0.555830
vt 0.465381 0.469163
vt 0.457662 0.461503
vt 0.370995 0.461503
vt 0.363183 0.469176
vt 0.363370 0.555844
vt 0.370995 0.563555
vt 0.457662 0.563555
vt 0.457662 0.563555
vt 0.465381 0.555830
vt 0.457662 0.461503
vt 0.370995 0.461503
vt 0.363183 0.469176
vt 0.363370 0.555844
vt 0.370995 0.563555
vt 0.370995 0.563555
vt 0.370995 0.563555
vt 0.457662 0.563555
vt 0.465381 0.469163
vt 0.457662 0.461503
vt 0.370995 0.461503
vt 0.363183 0.469176
vt 0.363370 0.555844
vt 0.363183 0.469176
vt 0.370995 0.461503
vt 0.370995 0.461503
vt 0.363183 0.469176
vt 0.465381 0.469163
vt 0.457662 0.461503
vt 0.363370 0.555844
vt 0.465381 0.555830
vt 0.457662 0.461503
vt 0.465381 0.469163
vt 0.465381 0.555830
vt 0.457662 0.563555
vt 0.370995 0.563555
vt 0.363370 0.555844
vn 0.0000 1.0000 -0.0000
vn -0.3853 0.0000 0.9228
vn -0.9245 0.0000 0.3811
vn 0.8021 0.5247 0.2852
vn 0.2855 0.5247 0.8020
vn 0.3502 0.5355 0.7685
vn 0.7687 0.5355 0.3499
vn 0.8013 0.5251 -0.2868
vn 0.7677 0.5358 -0.3514
vn -0.2819 0.5239 -0.8038
vn 0.2839 0.5243 -0.8029
vn 0.3488 0.5351 -0.7694
vn -0.3469 0.5349 -0.7704
vn -0.8005 0.5258 -0.2877
vn -0.7669 0.5364 -0.3524
vn -0.2875 0.5251 0.8010
vn -0.8029 0.5240 0.2843
vn -0.7696 0.5348 0.3489
vn -0.3521 0.5358 0.7675
vn 0.7448 -0.5726 -0.3427
vn 0.7457 -0.5723 0.3412
vn 0.7815 -0.5605 0.2741
vn 0.7806 -0.5609 -0.2756
vn 0.3829 0.0000 0.9238
vn 0.3809 -0.0000 -0.9246
vn 0.9231 0.0000 -0.3845
vn -0.9226 0.0000 -0.3858
vn 0.9240 0.0000 0.3825
vn -0.3785 -0.0000 -0.9256
vn 0.6176 0.7610 0.1985
vn 0.1987 0.7610 0.6175
vn 0.2690 0.7748 0.5721
vn 0.5723 0.7748 0.2687
vn -0.3384 -0.5717 -0.7475
vn 0.3401 -0.5719 -0.7465
vn 0.2728 -0.5601 -0.7822
vn -0.2709 -0.5597 -0.7832
vn -0.7439 -0.5732 -0.3436
vn -0.7798 -0.5616 -0.2764
vn -0.3433 -0.5726 0.7445
vn -0.7467 -0.5716 0.3402
vn -0.7823 -0.5598 0.2732
vn -0.2763 -0.5609 0.7804
vn 0.3415 -0.5723 0.7456
vn 0.2744 -0.5606 0.7813
vn 0.6169 0.7613 -0.1996
vn 0.5714 0.7750 -0.2698
vn -0.1961 0.7603 -0.6193
vn 0.1976 0.7606 -0.6184
vn 0.2680 0.7745 -0.5730
vn -0.2667 0.7743 -0.5739
vn -0.6160 0.7619 -0.2001
vn -0.5705 0.7755 -0.2703
vn -0.2002 0.7614 0.6166
vn -0.6185 0.7604 0.1980
vn -0.5732 0.7743 0.2681
vn -0.2703 0.7750 0.5713
vn 0.3443 -0.9243 0.1644
vn 0.1646 -0.9244 0.3442
vn 0.1137 -0.9166 0.3834
vn 0.3834 -0.9166 0.1136
vn 0.0000 -1.0000 0.0000
vn 0.3437 -0.9244 -0.1650
vn 0.3829 -0.9167 -0.1142
vn -0.1633 -0.9241 -0.3454
vn 0.1640 -0.9242 -0.3448
vn 0.1130 -0.9164 -0.3840
vn -0.1122 -0.9162 -0.3846
vn -0.3431 -0.9247 -0.1653
vn -0.3822 -0.9170 -0.1144
vn -0.1653 -0.9244 0.3436
vn -0.3450 -0.9241 0.1641
vn -0.3841 -0.9163 0.1134
vn -0.1145 -0.9167 0.3827
vn 0.8674 -0.3149 0.3853
vn 0.3787 -0.3137 0.8707
vn 0.3357 -0.3091 0.8898
vn 0.8868 -0.3104 0.3425
vn 0.3848 -0.3144 -0.8678
vn 0.8697 -0.3137 -0.3810
vn 0.8888 -0.3091 -0.3382
vn 0.3421 -0.3099 -0.8871
vn -0.3826 -0.3142 -0.8688
vn -0.3398 -0.3097 -0.8880
vn -0.3809 -0.3139 0.8697
vn -0.8681 -0.3144 0.3841
vn -0.8874 -0.3099 0.3413
vn -0.3379 -0.3093 0.8889
vn -0.8690 -0.3142 -0.3823
vn -0.8882 -0.3097 -0.3395
usemtl Default_OBJ.002
s 1
f 2/1/1 3/2/1 8/3/1 7/4/1 6/5/1 5/6/1 4/7/1 1/8/1
f 16/9/2 11/10/3 19/11/3 24/12/2
f 6/5/4 7/4/5 15/13/6 14/14/7
f 5/6/8 6/5/4 14/14/7 13/15/9
f 1/8/10 4/7/11 12/16/12 9/17/13
f 2/1/14 1/8/10 9/17/13 10/18/15
f 8/3/16 3/2/17 11/10/18 16/9/19
f 7/4/5 8/3/16 16/9/19 15/13/6
f 4/7/11 5/6/8 13/15/9 12/16/12
f 3/2/17 2/1/14 10/18/15 11/10/18
f 21/19/20 22/20/21 30/21/22 29/22/23
f 15/13/24 16/9/2 24/12/2 23/23/24
f 12/16/25 13/15/26 21/19/26 20/24/25
f 11/10/3 10/18/27 18/25/27 19/11/3
f 14/14/28 15/13/24 23/23/24 22/20/28
f 13/15/26 14/14/28 22/20/28 21/19/26
f 9/17/29 12/16/25 20/24/25 17/26/29
f 10/18/27 9/17/29 17/26/29 18/25/27
f 30/21/30 31/27/31 39/28/32 38/29/33
f 17/26/34 20/24/35 28/30/36 25/31/37
f 18/25/38 17/26/34 25/31/37 26/32/39
f 24/12/40 19/11/41 27/33/42 32/34/43
f 23/23/44 24/12/40 32/34/43 31/27/45
f 20/24/35 21/19/20 29/22/23 28/30/36
f 19/11/41 18/25/38 26/32/39 27/33/42
f 22/20/21 23/23/44 31/27/45 30/21/22
f 37/35/26 38/29/28 46/36/28 45/37/26
f 29/22/46 30/21/30 38/29/33 37/35/47
f 25/31/48 28/30/49 36/38/50 33/39/51
f 26/32/52 25/31/48 33/39/51 34/40/53
f 32/34/54 27/33/55 35/41/56 40/42/57
f 31/27/31 32/34/54 40/42/57 39/28/32
f 28/30/49 29/22/46 37/35/47 36/38/50
f 27/33/55 26/32/52 34/40/53 35/41/56
f 46/36/58 47/43/59 55/44/60 54/45/61
f 33/39/29 36/38/25 44/46/25 41/47/29
f 34/40/27 33/39/29 41/47/29 42/48/27
f 40/42/2 35/41/3 43/49/3 48/50/2
f 39/28/24 40/42/2 48/50/2 47/43/24
f 36/38/25 37/35/26 45/37/26 44/46/25
f 35/41/3 34/40/27 42/48/27 43/49/3
f 38/29/28 39/28/24 47/43/24 46/36/28
f 55/44/62 56/51/62 64/52/62 63/53/62
f 45/37/63 46/36/58 54/45/61 53/54/64
f 41/47/65 44/46/66 52/55/67 49/56/68
f 42/48/69 41/47/65 49/56/68 50/57/70
f 48/50/71 43/49/72 51/58/73 56/51/74
f 47/43/59 48/50/71 56/51/74 55/44/60
f 44/46/66 45/37/63 53/54/64 52/55/67
f 43/49/72 42/48/69 50/57/70 51/58/73
f 58/59/75 57/60/76 65/61/77 66/62/78
f 52/55/62 53/54/62 61/63/62 60/64/62
f 51/58/62 50/57/62 58/59/62 59/65/62
f 54/45/62 55/44/62 63/53/62 62/66/62
f 53/54/62 54/45/62 62/66/62 61/63/62
f 49/56/62 52/55/62 60/64/62 57/60/62
f 50/57/62 49/56/62 57/60/62 58/59/62
f 56/51/62 51/58/62 59/65/62 64/52/62
f 66/62/62 65/61/62 68/67/62 69/68/62 70/69/62 71/70/62 72/71/62 67/72/62
f 64/52/79 59/65/80 67/72/81 72/71/82
f 63/53/83 64/52/79 72/71/82 71/70/84
f 60/64/85 61/63/86 69/68/87 68/67/88
f 59/65/80 58/59/75 66/62/78 67/72/81
f 62/66/89 63/53/83 71/70/84 70/69/90
f 61/63/86 62/66/89 70/69/90 69/68/87
f 57/60/76 60/64/85 68/67/88 65/61/77
