# Blender v2.91.2 OBJ File: 'Barrel Gun.blend'
# www.blender.org
mtllib OS_Organ_Mortar_Gun.mtl
o BV_Barrel1_BC_Verticle_Sphere.026_BV_Barrel1_BC_Verticle_Sphere.127
v -0.051559 0.024910 -0.278337
v -0.055767 0.029137 -0.274865
v -0.024910 0.051559 -0.278337
v -0.054072 0.018844 -0.278337
v -0.060035 0.018831 -0.274865
v -0.054072 -0.018844 -0.278337
v -0.060035 -0.018831 -0.274865
v -0.051559 -0.024910 -0.278337
v -0.055767 -0.029136 -0.274865
v -0.024910 -0.051559 -0.278337
v -0.018844 -0.054072 -0.278337
v -0.029136 -0.055767 -0.274865
v -0.052820 -0.079393 -0.255378
v -0.018831 -0.060035 -0.274865
v 0.018831 -0.060035 -0.274865
v -0.018789 -0.093489 -0.255378
v 0.018790 -0.093489 -0.255378
v -0.018716 -0.099476 -0.251907
v -0.057106 -0.083576 -0.251907
v -0.018661 -0.099500 0.304277
v 0.018716 -0.099476 -0.251907
v 0.018660 -0.099500 0.304277
v 0.057106 -0.083576 -0.251907
v 0.057163 -0.083552 0.304277
v 0.083576 -0.057106 -0.251907
v 0.052821 -0.079393 -0.255378
v 0.029136 -0.055767 -0.274865
v 0.079393 -0.052821 -0.255378
v 0.055767 -0.029136 -0.274865
v 0.093489 -0.018790 -0.255378
v 0.093489 0.018789 -0.255378
v 0.060035 -0.018831 -0.274865
v 0.099477 -0.018716 -0.251907
v 0.099500 -0.018661 0.304277
v 0.099477 0.018716 -0.251907
v 0.099500 0.018659 0.304277
v 0.083576 0.057106 -0.251907
v 0.079393 0.052820 -0.255378
v 0.057106 0.083576 -0.251907
v 0.083552 0.057163 0.304277
v 0.057163 0.083552 0.304277
v 0.093830 0.067482 0.326813
v 0.067482 0.093830 0.326813
v 0.093828 0.067485 0.354928
v 0.114064 0.018630 0.326813
v 0.114064 -0.018631 0.326813
v 0.114065 0.018628 0.354928
v 0.114065 -0.018628 0.354928
v 0.075523 0.018633 0.384224
v 0.065058 0.018593 0.388217
v 0.075523 -0.018633 0.384224
v 0.066578 0.040227 0.384224
v 0.040227 0.066578 0.384224
v 0.059151 0.032856 0.388217
v 0.032855 0.059150 0.388217
v 0.059132 0.032898 0.304401
v 0.048207 0.021990 0.256873
v 0.032898 0.059133 0.304401
v 0.065076 0.018551 0.304401
v 0.049637 0.018538 0.256873
v 0.065076 -0.018550 0.304401
v 0.049637 -0.018538 0.256873
v 0.065058 -0.018594 0.388217
v 0.059132 -0.032898 0.304401
v 0.059151 -0.032856 0.388217
v 0.032898 -0.059132 0.304401
v 0.048207 -0.021990 0.256873
v 0.021990 -0.048208 0.256873
v 0.018538 -0.049637 0.256873
v -0.018538 -0.049637 0.256873
v 0.018550 -0.065076 0.304401
v -0.018551 -0.065076 0.304401
v 0.018594 -0.065059 0.388217
v 0.018633 -0.075523 0.384224
v -0.018593 -0.065058 0.388217
v 0.032856 -0.059151 0.388217
v 0.040227 -0.066578 0.384224
v 0.066578 -0.040227 0.384224
v 0.067485 -0.093828 0.354928
v 0.067482 -0.093830 0.326813
v 0.093828 -0.067485 0.354928
v 0.018628 -0.114065 0.354928
v 0.018631 -0.114065 0.326813
v -0.018628 -0.114065 0.354928
v -0.067485 -0.093828 0.354928
v -0.018630 -0.114064 0.326813
v -0.018633 -0.075523 0.384224
v -0.040227 -0.066578 0.384224
v -0.032856 -0.059151 0.388217
v -0.066578 -0.040227 0.384224
v -0.059150 -0.032856 0.388217
v -0.075522 -0.018633 0.384224
v -0.093828 -0.067485 0.354928
v -0.114065 -0.018628 0.354928
v -0.093829 -0.067482 0.326813
v -0.114065 -0.018631 0.326813
v -0.067482 -0.093830 0.326813
v -0.083552 -0.057163 0.304277
v -0.083576 -0.057106 -0.251907
v -0.099500 -0.018660 0.304277
v -0.057163 -0.083552 0.304277
v -0.099500 0.018659 0.304277
v -0.099476 -0.018716 -0.251907
v -0.099476 0.018716 -0.251907
v -0.093489 -0.018790 -0.255378
v -0.093489 0.018789 -0.255378
v -0.079393 -0.052821 -0.255378
v -0.079393 0.052821 -0.255378
v -0.083576 0.057106 -0.251907
v -0.052820 0.079393 -0.255378
v -0.018789 0.093489 -0.255378
v -0.029136 0.055768 -0.274865
v -0.057106 0.083576 -0.251907
v -0.057163 0.083552 0.304277
v -0.018716 0.099477 -0.251907
v -0.018661 0.099500 0.304277
v 0.018716 0.099477 -0.251907
v 0.018789 0.093489 -0.255378
v 0.018660 0.099500 0.304277
v 0.018631 0.114064 0.326813
v -0.018630 0.114064 0.326813
v 0.018628 0.114065 0.354928
v 0.018633 0.075522 0.384224
v 0.067485 0.093828 0.354928
v -0.018628 0.114065 0.354928
v -0.067485 0.093828 0.354928
v -0.018633 0.075522 0.384224
v -0.040227 0.066578 0.384224
v -0.018593 0.065058 0.388217
v 0.018594 0.065058 0.388217
v -0.018550 0.065076 0.304401
v -0.032856 0.059150 0.388217
v -0.059150 0.032856 0.388217
v -0.032898 0.059132 0.304401
v -0.021990 0.048208 0.256873
v -0.059133 0.032898 0.304401
v -0.048208 0.021990 0.256873
v -0.065076 0.018550 0.304401
v -0.049637 0.018538 0.256873
v -0.065076 -0.018550 0.304401
v -0.065059 0.018593 0.388217
v -0.065059 -0.018594 0.388217
v -0.075522 0.018633 0.384224
v -0.114065 0.018628 0.354928
v -0.066578 0.040227 0.384224
v -0.093828 0.067485 0.354928
v -0.093829 0.067482 0.326813
v -0.067482 0.093830 0.326813
v -0.114065 0.018630 0.326813
v -0.083552 0.057163 0.304277
v -0.049637 -0.018538 0.256873
v -0.059133 -0.032898 0.304401
v -0.032898 -0.059133 0.304401
v -0.048208 -0.021990 0.256873
v -0.021990 -0.048208 0.256873
v -0.018538 0.049637 0.256873
v 0.018538 0.049637 0.256873
v 0.018550 0.065076 0.304401
v 0.021990 0.048208 0.256873
v 0.018831 0.060035 -0.274865
v 0.052821 0.079393 -0.255378
v 0.029136 0.055768 -0.274865
v 0.055767 0.029137 -0.274865
v 0.024910 0.051559 -0.278337
v 0.051559 0.024910 -0.278337
v 0.018844 0.054073 -0.278337
v -0.018844 0.054073 -0.278337
v -0.018831 0.060035 -0.274865
v 0.054073 0.018844 -0.278337
v 0.054073 -0.018844 -0.278337
v 0.060035 0.018831 -0.274865
v 0.051559 -0.024910 -0.278337
v 0.024910 -0.051559 -0.278337
v 0.018844 -0.054072 -0.278337
v 0.093830 -0.067482 0.326813
v 0.083552 -0.057163 0.304277
vt 0.342404 0.440922
vt 0.344862 0.441486
vt 0.351284 0.432836
vt 0.348832 0.432265
vt 0.340335 0.442076
vt 0.341347 0.443447
vt 0.324819 0.445661
vt 0.325842 0.447030
vt 0.321894 0.445661
vt 0.320871 0.447030
vt 0.306378 0.442075
vt 0.305367 0.443446
vt 0.304309 0.440921
vt 0.301852 0.441485
vt 0.315149 0.454709
vt 0.299679 0.451134
vt 0.288073 0.444658
vt 0.297883 0.432265
vt 0.295430 0.432835
vt 0.281665 0.436027
vt 0.279212 0.436613
vt 0.285595 0.445211
vt 0.298687 0.452516
vt 0.198004 0.459120
vt 0.198023 0.307333
vt 0.211282 0.307333
vt 0.211300 0.459120
vt 0.223210 0.307333
vt 0.223191 0.459120
vt 0.021692 0.459120
vt 0.021711 0.307333
vt 0.034970 0.307333
vt 0.034989 0.459120
vt 0.281665 0.426869
vt 0.279212 0.426283
vt 0.046898 0.307333
vt 0.046879 0.459120
vt 0.288074 0.418238
vt 0.285596 0.417685
vt 0.295430 0.430062
vt 0.301853 0.421412
vt 0.299680 0.411763
vt 0.305368 0.419451
vt 0.298689 0.410381
vt 0.315151 0.408188
vt 0.314100 0.406820
vt 0.320873 0.415868
vt 0.060157 0.307333
vt 0.060176 0.459120
vt 0.072086 0.307333
vt 0.072066 0.459120
vt 0.085344 0.307333
vt 0.085364 0.459120
vt 0.331565 0.408189
vt 0.332617 0.406820
vt 0.347036 0.411764
vt 0.348027 0.410382
vt 0.097273 0.307333
vt 0.097254 0.459120
vt 0.957942 0.447519
vt 0.960347 0.450653
vt 0.966487 0.442619
vt 0.964092 0.439473
vt 0.967809 0.427734
vt 0.971203 0.427725
vt 0.960348 0.450652
vt 0.966487 0.442620
vt 0.971203 0.427724
vt 0.971203 0.416365
vt 0.971203 0.416365
vt 0.967809 0.416356
vt 0.962221 0.416364
vt 0.962221 0.427726
vt 0.960136 0.434310
vt 0.315336 0.262122
vt 0.316885 0.260545
vt 0.311453 0.255113
vt 0.309876 0.256661
vt 0.319811 0.263975
vt 0.319831 0.261765
vt 0.953996 0.442344
vt 0.327533 0.263975
vt 0.327513 0.261765
vt 0.650921 0.286021
vt 0.650873 0.256292
vt 0.647728 0.256297
vt 0.647769 0.286026
vt 0.714389 0.285934
vt 0.714356 0.256205
vt 0.711923 0.256208
vt 0.711971 0.285937
vt 0.703975 0.245399
vt 0.706209 0.244473
vt 0.703978 0.239108
vt 0.701746 0.240038
vt 0.703976 0.245984
vt 0.706212 0.246905
vt 0.705634 0.256217
vt 0.705667 0.285946
vt 0.701761 0.251352
vt 0.703996 0.252276
vt 0.701348 0.251766
vt 0.702278 0.253998
vt 0.703202 0.256220
vt 0.703250 0.285949
vt 0.696913 0.256229
vt 0.696946 0.285958
vt 0.695986 0.253996
vt 0.690034 0.251782
vt 0.695401 0.253996
vt 0.701332 0.239624
vt 0.695964 0.237409
vt 0.695379 0.237410
vt 0.690017 0.239639
vt 0.689604 0.240054
vt 0.687389 0.245421
vt 0.687390 0.246007
vt 0.689619 0.251368
vt 0.694481 0.256232
vt 0.689109 0.254016
vt 0.694528 0.285961
vt 0.688191 0.256241
vt 0.688225 0.285970
vt 0.316885 0.236107
vt 0.315336 0.234529
vt 0.309876 0.239990
vt 0.311453 0.241539
vt 0.308022 0.244464
vt 0.310233 0.244485
vt 0.308022 0.252187
vt 0.310233 0.252167
vt 0.953996 0.401746
vt 0.960348 0.393438
vt 0.966487 0.401469
vt 0.960136 0.409780
vt 0.948963 0.399019
vt 0.948962 0.387267
vt 0.966487 0.401470
vt 0.960347 0.393437
vt 0.948963 0.387268
vt 0.940280 0.387267
vt 0.940280 0.387268
vt 0.940279 0.399019
vt 0.935247 0.401746
vt 0.928895 0.393438
vt 0.928895 0.393437
vt 0.319831 0.234886
vt 0.319811 0.232676
vt 0.327513 0.234886
vt 0.327533 0.232676
vt 0.929106 0.409780
vt 0.922755 0.401470
vt 0.330459 0.236107
vt 0.332008 0.234529
vt 0.927021 0.416364
vt 0.918039 0.416365
vt 0.918040 0.416365
vt 0.922755 0.401470
vt 0.921434 0.416356
vt 0.925150 0.404617
vt 0.931300 0.396571
vt 0.186094 0.307333
vt 0.186113 0.459120
vt 0.172816 0.459120
vt 0.172835 0.307333
vt 0.940273 0.391708
vt 0.918040 0.427725
vt 0.921434 0.427734
vt 0.160926 0.459120
vt 0.160907 0.307333
vt 0.331563 0.454710
vt 0.332614 0.456078
vt 0.348025 0.452517
vt 0.347034 0.451135
vt 0.314098 0.456078
vt 0.358641 0.444659
vt 0.361118 0.445213
vt 0.365050 0.436028
vt 0.367502 0.436615
vt 0.365050 0.426871
vt 0.351285 0.430063
vt 0.367503 0.426284
vt 0.147648 0.307333
vt 0.147629 0.459120
vt 0.135738 0.459120
vt 0.135719 0.307333
vt 0.122442 0.459120
vt 0.122460 0.307333
vt 0.361120 0.417686
vt 0.358642 0.418239
vt 0.110551 0.459120
vt 0.110532 0.307333
vt 0.948963 0.456822
vt 0.948970 0.452382
vt 0.940273 0.452382
vt 0.940279 0.456822
vt 0.940280 0.456822
vt 0.948962 0.456822
vt 0.948963 0.445071
vt 0.940279 0.445071
vt 0.928895 0.450653
vt 0.928895 0.450652
vt 0.935247 0.442344
vt 0.339322 0.252187
vt 0.337111 0.252167
vt 0.335891 0.255113
vt 0.337468 0.256661
vt 0.330459 0.260545
vt 0.332008 0.262122
vt 0.653305 0.256289
vt 0.653339 0.286018
vt 0.659643 0.286009
vt 0.659594 0.256280
vt 0.662060 0.286006
vt 0.662027 0.256277
vt 0.339322 0.244465
vt 0.337111 0.244485
vt 0.668364 0.285997
vt 0.668316 0.256268
vt 0.696885 0.235174
vt 0.694452 0.235177
vt 0.689087 0.237408
vt 0.670782 0.285994
vt 0.670748 0.256265
vt 0.687370 0.239130
vt 0.685153 0.244501
vt 0.677086 0.285985
vt 0.677037 0.256256
vt 0.335891 0.241539
vt 0.337468 0.239990
vt 0.927021 0.427726
vt 0.918039 0.427724
vt 0.922755 0.442620
vt 0.929106 0.434310
vt 0.922755 0.442620
vt 0.931300 0.447519
vt 0.925150 0.439473
vt 0.679503 0.285982
vt 0.679470 0.256253
vt 0.685157 0.246933
vt 0.687387 0.252298
vt 0.685807 0.285973
vt 0.685759 0.256244
vt 0.702256 0.237390
vt 0.344863 0.421412
vt 0.341348 0.419452
vt 0.325843 0.415868
vt 0.340337 0.420823
vt 0.342405 0.421977
vt 0.324821 0.417237
vt 0.348832 0.430633
vt 0.321895 0.417237
vt 0.306379 0.420822
vt 0.304310 0.421976
vt 0.297883 0.430632
vt 0.948970 0.391708
vt 0.957942 0.396571
vt 0.964092 0.404616
vn -0.4333 0.2739 -0.8586
vn -0.4266 0.2815 -0.8595
vn -0.2815 0.4266 -0.8595
vn -0.2739 0.4333 -0.8586
vn -0.5001 0.1127 -0.8586
vn -0.5007 0.1026 -0.8595
vn -0.5001 -0.1127 -0.8586
vn -0.5007 -0.1026 -0.8595
vn -0.4333 -0.2739 -0.8586
vn -0.4266 -0.2815 -0.8595
vn -0.2739 -0.4333 -0.8586
vn -0.2815 -0.4266 -0.8595
vn -0.1127 -0.5001 -0.8586
vn -0.1026 -0.5007 -0.8595
vn -0.4266 -0.2810 -0.8597
vn -0.2810 -0.4265 -0.8597
vn -0.1029 -0.5003 -0.8597
vn 0.1127 -0.5001 -0.8586
vn 0.1026 -0.5007 -0.8595
vn 0.1029 -0.5003 -0.8597
vn 0.0895 -0.5004 -0.8612
vn -0.0895 -0.5004 -0.8612
vn -0.2905 -0.4171 -0.8612
vn -0.5556 -0.8315 -0.0000
vn -0.1951 -0.9808 -0.0000
vn 0.1951 -0.9808 -0.0000
vn 0.5556 -0.8315 -0.0000
vn 0.2810 -0.4266 -0.8597
vn 0.2905 -0.4171 -0.8612
vn 0.8315 -0.5556 -0.0000
vn 0.4266 -0.2810 -0.8597
vn 0.4171 -0.2905 -0.8612
vn 0.2815 -0.4266 -0.8595
vn 0.4266 -0.2815 -0.8595
vn 0.5003 -0.1029 -0.8597
vn 0.5007 -0.1026 -0.8595
vn 0.5004 -0.0895 -0.8612
vn 0.5003 0.1029 -0.8597
vn 0.5004 0.0895 -0.8612
vn 0.5007 0.1026 -0.8595
vn 0.9808 -0.1951 -0.0000
vn 0.9808 0.1951 -0.0000
vn 0.8315 0.5556 -0.0000
vn 0.4266 0.2810 -0.8597
vn 0.4171 0.2905 -0.8612
vn 0.2810 0.4265 -0.8597
vn 0.2905 0.4171 -0.8612
vn 0.5556 0.8315 -0.0000
vn 0.4593 0.7098 -0.5340
vn 0.4775 0.6961 -0.5361
vn 0.6961 0.4775 -0.5361
vn 0.7098 0.4593 -0.5340
vn 0.8267 0.1772 -0.5340
vn 0.8299 0.1546 -0.5361
vn 0.8299 -0.1546 -0.5361
vn 0.8267 -0.1772 -0.5340
vn 0.5997 -0.1335 0.7890
vn 0.6015 -0.1091 0.7914
vn 0.6015 0.1091 0.7914
vn 0.5997 0.1335 0.7890
vn 0.5025 0.3482 0.7914
vn 0.5185 0.3297 0.7890
vn 0.3556 0.0637 0.9325
vn 0.3551 0.0806 0.9314
vn 0.3551 -0.0806 0.9314
vn 0.3556 -0.0637 0.9325
vn 0.2965 0.2064 0.9325
vn 0.3081 0.1941 0.9314
vn 0.3482 0.5025 0.7914
vn 0.3297 0.5185 0.7890
vn 0.2064 0.2965 0.9325
vn 0.1941 0.3081 0.9314
vn -0.5555 -0.8315 -0.0001
vn -0.5520 -0.8201 0.1509
vn -0.8200 -0.5520 0.1509
vn -0.8315 -0.5555 -0.0001
vn -0.9702 -0.1896 0.1509
vn -0.9808 -0.1952 -0.0001
vn -0.7965 -0.5232 0.3032
vn -0.5231 -0.7965 0.3032
vn -0.9331 -0.1933 0.3032
vn -0.9702 0.1896 0.1509
vn -0.9808 0.1952 -0.0001
vn -0.9331 0.1933 0.3032
vn -0.7965 0.5232 0.3032
vn -0.8201 0.5520 0.1509
vn -0.8315 0.5555 -0.0001
vn -0.5520 0.8200 0.1509
vn -0.5555 0.8315 -0.0001
vn -0.5232 0.7965 0.3032
vn 0.0000 -0.0000 1.0000
vn -0.1933 0.9331 0.3032
vn -0.1896 0.9702 0.1509
vn 0.1933 0.9331 0.3032
vn 0.1895 0.9702 0.1509
vn -0.1952 0.9808 -0.0001
vn 0.1952 0.9808 -0.0001
vn -0.0806 -0.3551 0.9314
vn -0.0637 -0.3556 0.9325
vn 0.0637 -0.3556 0.9325
vn 0.0806 -0.3551 0.9314
vn 0.2064 -0.2965 0.9325
vn 0.1941 -0.3081 0.9314
vn 0.2965 -0.2064 0.9325
vn 0.3081 -0.1941 0.9314
vn 0.3297 -0.5185 0.7890
vn 0.3482 -0.5025 0.7914
vn 0.5025 -0.3482 0.7914
vn 0.5185 -0.3297 0.7890
vn 0.1335 -0.5997 0.7890
vn 0.1091 -0.6015 0.7914
vn -0.1335 -0.5997 0.7890
vn -0.1091 -0.6015 0.7914
vn -0.3297 -0.5185 0.7890
vn -0.3482 -0.5025 0.7914
vn -0.1941 -0.3081 0.9314
vn -0.2064 -0.2965 0.9325
vn -0.3081 -0.1941 0.9314
vn -0.2965 -0.2064 0.9325
vn -0.5185 -0.3297 0.7890
vn -0.5025 -0.3482 0.7914
vn -0.3551 -0.0806 0.9313
vn -0.3556 -0.0637 0.9325
vn -0.5997 -0.1335 0.7890
vn -0.6015 -0.1091 0.7914
vn -0.8315 -0.5556 -0.0000
vn -0.9808 -0.1951 0.0000
vn -0.8267 -0.1772 -0.5340
vn -0.7098 -0.4593 -0.5340
vn -0.6961 -0.4775 -0.5361
vn -0.8299 -0.1546 -0.5361
vn -0.4593 -0.7098 -0.5340
vn -0.4775 -0.6961 -0.5361
vn -0.1772 -0.8267 -0.5340
vn -0.1546 -0.8299 -0.5361
vn -0.8299 0.1546 -0.5361
vn -0.8267 0.1772 -0.5340
vn -0.9808 0.1951 -0.0000
vn -0.5003 -0.1029 -0.8597
vn -0.5004 -0.0895 -0.8612
vn -0.5004 0.0895 -0.8612
vn -0.5003 0.1029 -0.8597
vn -0.4171 -0.2905 -0.8612
vn -0.4266 0.2810 -0.8597
vn -0.4171 0.2905 -0.8612
vn -0.2810 0.4266 -0.8597
vn -0.2905 0.4171 -0.8612
vn -0.1029 0.5003 -0.8597
vn -0.1026 0.5007 -0.8595
vn -0.0895 0.5004 -0.8612
vn -0.8315 0.5556 -0.0000
vn -0.5556 0.8315 -0.0000
vn -0.1951 0.9808 -0.0000
vn 0.0895 0.5004 -0.8612
vn 0.1029 0.5003 -0.8597
vn 0.1951 0.9808 -0.0000
vn 0.1546 0.8299 -0.5361
vn 0.1771 0.8267 -0.5340
vn -0.1772 0.8267 -0.5340
vn -0.1546 0.8299 -0.5361
vn 0.1335 0.5997 0.7890
vn 0.1091 0.6015 0.7914
vn -0.1091 0.6015 0.7914
vn -0.1335 0.5997 0.7890
vn -0.3482 0.5025 0.7914
vn -0.3297 0.5185 0.7890
vn -0.2064 0.2965 0.9325
vn -0.1941 0.3081 0.9314
vn -0.0806 0.3551 0.9314
vn -0.0637 0.3556 0.9325
vn 0.0806 0.3551 0.9314
vn 0.0637 0.3556 0.9325
vn -0.1895 -0.9702 0.1509
vn -0.1951 -0.9808 -0.0001
vn 0.1952 -0.9808 -0.0001
vn 0.1895 -0.9702 0.1509
vn 0.5555 -0.8315 -0.0001
vn 0.5520 -0.8201 0.1509
vn -0.2965 0.2064 0.9325
vn -0.3081 0.1941 0.9314
vn 0.8315 -0.5555 -0.0001
vn 0.8201 -0.5520 0.1509
vn 0.5232 -0.7965 0.3032
vn 0.1933 -0.9331 0.3032
vn 0.7965 -0.5231 0.3032
vn 0.9808 -0.1952 -0.0001
vn 0.9702 -0.1895 0.1509
vn 0.9331 -0.1933 0.3032
vn 0.9702 0.1895 0.1509
vn 0.9331 0.1933 0.3032
vn 0.9808 0.1952 -0.0001
vn -0.3551 0.0806 0.9313
vn -0.3556 0.0637 0.9325
vn -0.5997 0.1335 0.7890
vn -0.6015 0.1091 0.7914
vn -0.5025 0.3482 0.7914
vn -0.5185 0.3297 0.7890
vn -0.4775 0.6961 -0.5361
vn -0.4593 0.7098 -0.5340
vn -0.7098 0.4593 -0.5340
vn -0.6961 0.4775 -0.5361
vn 0.8315 0.5555 -0.0001
vn 0.8201 0.5520 0.1509
vn 0.7965 0.5231 0.3032
vn 0.5520 0.8201 0.1509
vn 0.5231 0.7965 0.3032
vn 0.5555 0.8315 -0.0001
vn -0.1933 -0.9331 0.3032
vn 0.1026 0.5007 -0.8595
vn 0.2815 0.4266 -0.8595
vn 0.4266 0.2815 -0.8595
vn 0.2739 0.4333 -0.8586
vn 0.1127 0.5001 -0.8586
vn 0.4333 0.2739 -0.8586
vn -0.1127 0.5001 -0.8586
vn 0.5001 0.1127 -0.8586
vn 0.5001 -0.1127 -0.8586
vn 0.4333 -0.2739 -0.8586
vn 0.2739 -0.4333 -0.8586
vn 0.1771 -0.8267 -0.5340
vn 0.1546 -0.8299 -0.5361
vn 0.4593 -0.7098 -0.5340
vn 0.4775 -0.6961 -0.5361
vn 0.7098 -0.4593 -0.5340
vn 0.6961 -0.4775 -0.5361
usemtl Material.085
s 1
f 1/1/1 2/2/2 112/3/3 3/4/4
f 1/1/1 4/5/5 5/6/6 2/2/2
f 6/7/7 7/8/8 5/6/6 4/5/5
f 6/7/7 8/9/9 9/10/10 7/8/8
f 10/11/11 12/12/12 9/10/10 8/9/9
f 10/11/11 11/13/13 14/14/14 12/12/12
f 107/15/15 9/10/10 12/12/12 13/16/16
f 16/17/17 13/16/16 12/12/12 14/14/14
f 174/18/18 15/19/19 14/14/14 11/13/13
f 16/17/17 14/14/14 15/19/19 17/20/20
f 17/20/20 21/21/21 18/22/22 16/17/17
f 13/16/16 16/17/17 18/22/22 19/23/23
f 101/24/24 19/25/24 18/26/25 20/27/25
f 20/27/25 18/26/25 21/28/26 22/29/26
f 22/30/26 21/31/26 23/32/27 24/33/27
f 17/20/20 26/34/28 23/35/29 21/21/21
f 24/33/27 23/32/27 25/36/30 176/37/30
f 23/35/29 26/34/28 28/38/31 25/39/32
f 26/34/28 17/20/20 15/19/19 27/40/33
f 26/34/28 27/40/33 29/41/34 28/38/31
f 30/42/35 28/38/31 29/41/34 32/43/36
f 28/38/31 30/42/35 33/44/37 25/39/32
f 33/44/37 30/42/35 31/45/38 35/46/39
f 171/47/40 31/45/38 30/42/35 32/43/36
f 176/37/30 25/36/30 33/48/41 34/49/41
f 34/49/41 33/48/41 35/50/42 36/51/42
f 36/51/42 35/50/42 37/52/43 40/53/43
f 31/45/38 38/54/44 37/55/45 35/46/39
f 37/55/45 38/54/44 161/56/46 39/57/47
f 40/53/43 37/52/43 39/58/48 41/59/48
f 41/60/49 43/61/50 42/62/51 40/63/52
f 36/64/53 40/63/52 42/62/51 45/65/54
f 43/61/48 124/66/48 44/67/43 42/62/43
f 44/67/43 47/68/42 45/65/42 42/62/43
f 45/65/42 47/68/42 48/69/41 46/70/41
f 46/70/55 34/71/56 36/64/53 45/65/54
f 51/72/57 48/69/58 47/68/59 49/73/60
f 49/73/60 47/68/59 44/67/61 52/74/62
f 49/75/63 50/76/64 63/77/65 51/78/66
f 50/76/64 49/75/63 52/79/67 54/80/68
f 124/66/69 53/81/70 52/74/62 44/67/61
f 53/82/71 55/83/72 54/80/68 52/79/67
f 55/84/73 58/85/74 56/86/75 54/87/76
f 54/88/76 56/89/75 59/90/77 50/91/78
f 57/92/79 56/93/75 58/94/74 159/95/80
f 57/92/79 60/96/81 59/97/77 56/93/75
f 50/91/78 59/90/77 61/98/82 63/99/83
f 62/100/84 61/101/82 59/97/77 60/96/81
f 62/100/84 67/102/85 64/103/86 61/101/82
f 63/99/83 61/98/82 64/104/86 65/105/87
f 65/105/87 64/104/86 66/106/88 76/107/89
f 68/108/90 66/106/88 64/103/86 67/102/85
f 70/109/91 69/110/91 68/108/91 67/102/91 62/100/91 60/96/91 57/92/91 159/95/91 157/111/91 156/112/91 135/113/91 137/114/91 139/115/91 151/116/91 154/117/91 155/118/91
f 68/108/90 69/110/92 71/119/93 66/106/88
f 71/119/93 69/110/92 70/109/94 72/120/95
f 73/121/96 71/119/93 72/122/95 75/123/97
f 76/107/89 66/106/88 71/119/93 73/121/96
f 75/124/98 87/125/99 74/126/100 73/127/101
f 73/127/101 74/126/100 77/128/102 76/129/103
f 78/130/104 65/131/105 76/129/103 77/128/102
f 77/132/106 79/133/107 81/134/108 78/135/109
f 74/136/110 82/137/111 79/133/107 77/132/106
f 175/138/30 81/134/30 79/133/27 80/139/27
f 79/133/27 82/137/26 83/140/26 80/139/27
f 83/140/26 82/137/26 84/141/25 86/142/25
f 82/137/111 74/136/110 87/143/112 84/141/113
f 88/144/114 85/145/115 84/141/113 87/143/112
f 84/141/25 85/145/24 97/146/24 86/142/25
f 89/147/116 88/148/117 87/125/99 75/124/98
f 91/149/118 90/150/119 88/148/117 89/147/116
f 90/151/120 93/152/121 85/145/115 88/144/114
f 142/153/122 92/154/123 90/150/119 91/149/118
f 92/155/124 94/156/125 93/152/121 90/151/120
f 93/152/126 94/156/127 96/157/127 95/158/126
f 97/146/24 85/145/24 93/152/126 95/158/126
f 100/159/128 98/160/129 95/158/130 96/157/131
f 95/158/130 98/160/129 101/161/132 97/146/133
f 99/162/126 98/163/126 100/164/127 103/165/127
f 98/163/126 99/162/126 19/25/24 101/24/24
f 101/161/132 20/166/134 86/142/135 97/146/133
f 100/159/128 96/157/131 149/167/136 102/168/137
f 103/165/127 100/164/127 102/169/138 104/170/138
f 105/171/139 103/172/140 104/173/141 106/174/142
f 105/171/139 107/15/15 99/175/143 103/172/140
f 106/174/142 5/6/6 7/8/8 105/171/139
f 107/15/15 105/171/139 7/8/8 9/10/10
f 13/16/16 19/23/23 99/175/143 107/15/15
f 106/174/142 108/176/144 2/2/2 5/6/6
f 108/176/144 106/174/142 104/173/141 109/177/145
f 110/178/146 112/3/3 2/2/2 108/176/144
f 108/176/144 109/177/145 113/179/147 110/178/146
f 110/178/146 111/180/148 168/181/149 112/3/3
f 111/180/148 110/178/146 113/179/147 115/182/150
f 109/183/151 150/184/151 114/185/152 113/186/152
f 113/186/152 114/185/152 116/187/153 115/188/153
f 111/180/148 115/182/150 117/189/154 118/190/155
f 119/191/156 117/192/156 115/188/153 116/187/153
f 161/56/46 118/190/155 117/189/154 39/57/47
f 41/59/48 39/58/48 117/192/156 119/191/156
f 120/193/157 119/194/158 116/195/159 121/196/160
f 41/60/49 119/194/158 120/193/157 43/61/50
f 121/196/153 125/197/153 122/198/156 120/193/156
f 122/198/156 124/66/48 43/61/48 120/193/156
f 123/199/161 122/198/162 125/197/163 127/200/164
f 53/81/70 124/66/69 122/198/162 123/199/161
f 121/196/153 148/201/152 126/202/152 125/197/153
f 125/197/163 126/202/165 128/203/166 127/200/164
f 128/204/167 132/205/168 129/206/169 127/207/170
f 130/208/171 123/209/172 127/207/170 129/206/169
f 158/210/173 130/211/174 129/212/175 131/213/176
f 132/214/177 134/215/178 131/213/176 129/212/175
f 132/205/168 128/204/167 145/216/179 133/217/180
f 133/218/181 136/219/182 134/215/178 132/214/177
f 135/113/183 156/112/184 131/220/176 134/221/178
f 136/222/182 137/114/185 135/113/183 134/221/178
f 141/223/186 138/224/187 136/219/182 133/218/181
f 139/115/188 137/114/185 136/222/182 138/225/187
f 140/226/189 151/116/190 139/115/188 138/225/187
f 142/227/191 140/228/189 138/224/187 141/223/186
f 92/154/123 142/153/122 141/229/192 143/230/193
f 143/230/193 141/229/192 133/217/180 145/216/179
f 94/156/125 92/155/124 143/231/194 144/232/195
f 146/233/196 144/232/195 143/231/194 145/234/197
f 146/233/196 145/234/197 128/203/166 126/202/165
f 126/202/152 148/201/152 147/235/151 146/233/151
f 147/235/151 149/167/138 144/232/138 146/233/151
f 148/201/198 114/236/199 150/237/200 147/235/201
f 150/237/200 102/168/137 149/167/136 147/235/201
f 104/170/138 102/169/138 150/184/151 109/183/151
f 96/157/127 94/156/127 144/232/138 149/167/138
f 116/195/159 114/236/199 148/201/198 121/196/160
f 91/238/202 152/239/203 140/228/189 142/227/191
f 154/117/204 151/116/190 140/226/189 152/240/203
f 154/117/204 152/240/203 153/241/205 155/118/206
f 89/242/207 153/243/205 152/239/203 91/238/202
f 70/109/94 155/118/206 153/241/205 72/120/95
f 75/123/97 72/122/95 153/243/205 89/242/207
f 157/111/208 158/244/173 131/220/176 156/112/184
f 157/111/208 159/95/80 58/94/74 158/244/173
f 58/85/74 55/84/73 130/211/174 158/210/173
f 55/83/72 53/82/71 123/209/172 130/208/171
f 168/181/149 111/180/148 118/190/155 160/245/209
f 118/190/155 161/56/46 162/246/210 160/245/209
f 162/246/210 161/56/46 38/54/44 163/247/211
f 164/248/212 166/249/213 160/245/209 162/246/210
f 163/247/211 165/250/214 164/248/212 162/246/210
f 160/245/209 166/249/213 167/251/215 168/181/149
f 167/251/215 3/4/4 112/3/3 168/181/149
f 169/252/216 165/250/214 163/247/211 171/47/40
f 32/43/36 170/253/217 169/252/216 171/47/40
f 38/54/44 31/45/38 171/47/40 163/247/211
f 172/254/218 170/253/217 32/43/36 29/41/34
f 27/40/33 173/255/219 172/254/218 29/41/34
f 174/18/18 173/255/219 27/40/33 15/19/19
f 86/142/135 20/166/134 22/256/220 83/140/221
f 22/256/220 24/257/222 80/139/223 83/140/221
f 78/135/109 81/134/108 48/69/58 51/72/57
f 48/69/41 81/134/30 175/138/30 46/70/41
f 176/258/224 34/71/56 46/70/55 175/138/225
f 176/258/224 175/138/225 80/139/223 24/257/222
f 65/131/105 78/130/104 51/78/66 63/77/65
