# Blender v2.82 (sub 7) OBJ File: 'HE_Strato_Wing_Small_A.blend'
# www.blender.org
mtllib HE_Spread_Wing_Small_Aileron.mtl
o Aileron_Aeleron_m_HE_Wing_Middle_312_Flap_Instance
v -0.607754 -0.030000 -0.220000
v -0.405355 -0.020000 -0.370000
v -0.386954 -0.030000 -0.220000
v -0.589354 -0.050000 0.260000
v -0.405355 -0.050000 0.260000
v -0.938954 -0.050000 0.260000
v -0.920555 -0.030000 -0.220000
v -1.196554 -0.040000 -0.020000
v -1.141355 -0.030000 -0.220000
v -0.957355 -0.010000 -0.520000
v -1.104555 -0.010000 -0.520000
v -0.405355 0.020000 -0.370000
v -0.607754 0.030000 -0.220000
v -0.386954 0.030000 -0.220000
v -0.589354 0.050000 0.260000
v -0.938954 0.050000 0.260000
v -0.920555 0.030000 -0.220000
v -1.196554 0.040000 -0.020000
v -1.141355 0.030000 -0.220000
v -0.957355 0.010000 -0.520000
v -1.104555 0.010000 -0.520000
v -0.626154 -0.000000 0.300000
v -0.902154 -0.000000 0.300000
v -0.589355 -0.020000 -0.370000
v -0.589355 0.020000 -0.370000
v -0.074155 -0.030000 -0.220000
v 0.109846 -0.010000 -0.520000
v 0.146645 -0.030000 -0.220000
v -0.037353 -0.010000 -0.520000
v -0.055755 -0.050000 0.260000
v 0.201845 -0.040000 -0.020000
v -0.368554 -0.000000 0.300000
v -0.405355 0.050000 0.260000
v -0.074155 0.030000 -0.220000
v 0.109846 0.010000 -0.520000
v -0.037352 0.010000 -0.520000
v 0.146645 0.030000 -0.220000
v -0.055755 0.050000 0.260000
v 0.201845 0.040000 -0.020000
v -0.092554 -0.000000 0.300000
vt 0.449888 0.159546
vt 0.426760 0.142368
vt 0.424657 0.159546
vt 0.447785 0.214442
vt 0.426760 0.214442
vt 0.436576 0.264048
vt 0.398731 0.209152
vt 0.396629 0.264048
vt 0.434474 0.209152
vt 0.369678 0.178732
vt 0.333192 0.151077
vt 0.335718 0.217592
vt 0.362347 0.151018
vt 0.337985 0.109436
vt 0.357422 0.109397
vt 0.426760 0.142368
vt 0.449888 0.159546
vt 0.424657 0.159546
vt 0.447785 0.214442
vt 0.398731 0.209152
vt 0.436576 0.264048
vt 0.396629 0.264048
vt 0.434474 0.209152
vt 0.416774 0.152271
vt 0.380831 0.180014
vt 0.414340 0.218904
vt 0.388035 0.152244
vt 0.412015 0.110563
vt 0.392855 0.110545
vt 0.323532 0.225517
vt 0.323532 0.230516
vt 0.285540 0.230516
vt 0.285540 0.225517
vt 0.485605 0.219187
vt 0.480045 0.180265
vt 0.491166 0.180265
vt 0.478655 0.219187
vt 0.492556 0.219187
vt 0.481435 0.152462
vt 0.489776 0.152462
vt 0.484215 0.110759
vt 0.486995 0.110759
vt 0.283540 0.231516
vt 0.267544 0.229516
vt 0.267544 0.231516
vt 0.283540 0.229516
vt 0.343528 0.232515
vt 0.323532 0.228516
vt 0.323532 0.232515
vt 0.343528 0.228516
vt 0.489776 0.152462
vt 0.482825 0.131611
vt 0.488386 0.131611
vt 0.481435 0.152462
vt 0.287540 0.227516
vt 0.321533 0.233515
vt 0.321533 0.227516
vt 0.287540 0.233515
vt 0.486995 0.110759
vt 0.481435 0.152462
vt 0.489776 0.152462
vt 0.484215 0.110759
vt 0.291784 0.151392
vt 0.267333 0.109760
vt 0.262446 0.151389
vt 0.286895 0.109760
vt 0.289334 0.217915
vt 0.255106 0.179107
vt 0.375603 0.264048
vt 0.337758 0.209152
vt 0.335655 0.264048
vt 0.373501 0.209152
vt 0.427259 0.406361
vt 0.427259 0.336307
vt 0.443279 0.346314
vt 0.443279 0.396353
vt 0.425511 0.235515
vt 0.323532 0.235515
vt 0.425511 0.230516
vt 0.447785 0.142368
vt 0.457518 0.152441
vt 0.481467 0.110737
vt 0.462307 0.110737
vt 0.486252 0.152438
vt 0.459918 0.219079
vt 0.493441 0.180205
vt 0.337758 0.209152
vt 0.375603 0.264048
vt 0.335655 0.264048
vt 0.373501 0.209152
vt 0.426760 0.214442
vt 0.447785 0.142368
vt 0.481435 0.152462
vt 0.486995 0.110759
vt 0.484215 0.110759
vt 0.489776 0.152462
vt 0.480045 0.180265
vt 0.491166 0.180265
vt 0.485605 0.219187
vt 0.492556 0.219187
vt 0.478655 0.219187
vt 0.463504 0.225517
vt 0.463504 0.230516
vt 0.425511 0.225517
vt 0.481500 0.231516
vt 0.465504 0.229516
vt 0.465504 0.231516
vt 0.481500 0.229516
vt 0.489776 0.152462
vt 0.484215 0.110759
vt 0.486995 0.110759
vt 0.481435 0.152462
vt 0.427511 0.227516
vt 0.461504 0.233515
vt 0.461504 0.227516
vt 0.427511 0.233515
vt 0.488386 0.131611
vt 0.481435 0.152462
vt 0.489776 0.152462
vt 0.482825 0.131611
vt 0.285540 0.235515
vt 0.463504 0.235515
vn 0.0000 -0.9978 -0.0665
vn 0.0000 -0.9991 -0.0416
vn 0.0021 -0.9991 -0.0416
vn 0.0030 -0.9988 -0.0481
vn 0.0009 -0.9988 -0.0486
vn 0.0000 -0.9988 -0.0499
vn 0.0000 0.9978 -0.0665
vn 0.0000 0.9991 -0.0416
vn 0.0021 0.9991 -0.0416
vn 0.0030 0.9988 -0.0481
vn 0.0009 0.9988 -0.0486
vn 0.0000 0.9988 -0.0499
vn 0.0000 -0.6247 0.7809
vn -0.7359 -0.0000 0.6771
vn -0.9640 -0.0000 -0.2660
vn -0.9926 0.0000 -0.1218
vn 0.0000 0.0000 -1.0000
vn -0.9926 0.0000 -0.1217
vn 0.9926 0.0000 -0.1218
vn -0.0105 -0.9989 -0.0459
vn -0.0078 -0.9990 -0.0448
vn -0.0119 -0.9988 -0.0466
vn 0.0000 0.6247 0.7809
vn -0.0078 0.9990 -0.0448
vn -0.0105 0.9989 -0.0459
vn -0.0119 0.9988 -0.0466
vn 0.9640 0.0000 -0.2661
vn 0.7359 -0.0000 0.6771
usemtl Default_OBJ.002
s 1
f 1/1/1 2/2/1 3/3/1
f 3/3/2 4/4/2 1/1/2
f 4/4/2 3/3/2 5/5/2
f 6/6/3 1/7/2 4/8/2
f 1/7/2 6/6/3 7/9/4
f 8/10/5 7/11/4 6/12/3
f 7/11/4 8/10/5 9/13/6
f 9/13/1 10/14/1 7/11/1
f 10/14/1 9/13/1 11/15/1
f 12/16/7 13/17/7 14/18/7
f 15/19/8 14/18/8 13/17/8
f 13/20/8 16/21/9 15/22/8
f 16/21/9 13/20/8 17/23/10
f 17/24/10 18/25/11 16/26/9
f 18/25/11 17/24/10 19/27/12
f 20/28/7 19/27/7 17/24/7
f 19/27/7 20/28/7 21/29/7
f 4/30/13 22/31/13 23/32/13
f 23/32/13 6/33/13 4/30/13
f 23/34/14 18/35/14 8/36/14
f 18/35/14 23/34/14 16/37/14
f 6/38/14 23/34/14 8/36/14
f 19/39/15 8/36/15 18/35/15
f 8/36/15 19/39/15 9/40/15
f 21/41/16 9/40/16 19/39/16
f 9/40/16 21/41/16 11/42/16
f 20/43/17 11/44/17 21/45/17
f 11/44/17 20/43/17 10/46/17
f 12/47/17 24/48/17 25/49/17
f 24/48/17 12/47/17 2/50/17
f 1/51/18 25/52/18 24/53/18
f 25/52/18 1/51/18 13/54/18
f 7/55/17 13/56/17 1/57/17
f 13/56/17 7/55/17 17/58/17
f 10/59/19 17/60/19 7/61/19
f 17/60/19 10/59/19 20/62/19
f 26/63/1 27/64/1 28/65/1
f 27/64/1 26/63/1 29/66/1
f 28/65/20 30/67/21 26/63/2
f 30/67/21 28/65/20 31/68/22
f 5/69/2 26/70/2 30/71/21
f 26/70/2 5/69/2 3/72/2
f 32/73/13 22/74/13 4/75/13 5/76/13
f 33/77/23 15/78/23 22/31/23 32/79/23
f 2/2/1 1/1/1 24/80/1
f 34/81/7 35/82/7 36/83/7
f 35/82/7 34/81/7 37/84/7
f 38/85/24 37/84/25 34/81/8
f 37/84/25 38/85/24 39/86/26
f 34/87/8 33/88/8 38/89/24
f 33/88/8 34/87/8 14/90/8
f 14/18/8 15/19/8 33/91/8
f 13/17/7 12/16/7 25/92/7
f 37/93/19 27/94/19 35/95/19
f 27/94/19 37/93/19 28/96/19
f 39/97/27 28/96/27 37/93/27
f 28/96/27 39/97/27 31/98/27
f 31/98/28 40/99/28 30/100/28
f 31/98/28 39/97/28 40/99/28
f 39/97/28 38/101/28 40/99/28
f 30/102/13 40/103/13 32/79/13
f 32/79/13 5/104/13 30/102/13
f 35/105/17 29/106/17 36/107/17
f 29/106/17 35/105/17 27/108/17
f 26/109/16 36/110/16 29/111/16
f 36/110/16 26/109/16 34/112/16
f 3/113/17 34/114/17 26/115/17
f 34/114/17 3/113/17 14/116/17
f 2/117/19 14/118/19 3/119/19
f 14/118/19 2/117/19 12/120/19
f 16/121/23 22/31/23 15/78/23
f 22/31/23 16/121/23 23/32/23
f 33/77/23 40/103/23 38/122/23
f 40/103/23 33/77/23 32/79/23
