# Blender v2.82 (sub 7) OBJ File: 'HE_Strato_Wing_Small_A.blend'
# www.blender.org
mtllib HE_Spread_Wing_Small.mtl
o Wing_Knife_Wing_m_HE_Wing_Middle_312_Instance
v -1.200001 -0.050000 -0.000000
v -1.500000 -0.140000 0.540000
v -1.500000 -0.050000 -0.000000
v -0.100001 -0.100000 0.300000
v 0.199999 -0.050000 -0.000000
v 0.499999 0.140000 0.540000
v -0.500001 -0.312642 0.540000
v -0.500001 -0.100000 0.300000
v -0.900001 -0.100000 0.300000
v -0.830001 -0.312642 0.540000
v -0.100001 0.100000 0.300000
v -0.500001 0.140000 0.540000
v -0.500001 0.100000 0.300000
v 0.199999 0.050000 0.000000
v 0.499999 0.050000 0.000000
v -0.900001 0.100000 0.300000
v -1.200001 0.050000 0.000000
v -1.500000 0.050000 0.000000
v 0.499999 0.020000 -0.500000
v 0.499999 -0.050000 -0.000000
v 0.499999 -0.020000 -0.500000
v -1.500000 -0.020000 -0.500000
v -1.500000 0.020000 -0.500000
v -1.300001 -0.020000 -0.400000
v -1.300001 0.020000 -0.400000
v 0.299999 0.020000 -0.400000
v 0.299999 -0.020000 -0.400000
v -0.500001 -0.312642 1.300000
v -0.846378 -0.312642 1.288517
v 0.499999 0.140000 1.300000
v -1.170000 0.140000 0.540000
v -0.830001 0.140000 0.540000
v -1.500000 0.140000 0.540000
v 0.499999 -0.140000 0.540000
v -0.830001 0.040000 1.500000
v 0.300000 0.040000 1.500000
v -0.870000 0.130000 1.500000
v -1.300000 -0.040000 1.500000
v -1.500000 0.140000 1.300000
v 0.499999 -0.140000 1.300000
v -1.500000 -0.140000 1.300000
v -1.300000 0.040000 1.500000
v -1.170001 0.140000 1.300000
v -0.830001 0.140000 1.300000
v 0.300000 -0.040000 1.500000
v -0.850001 -0.470000 0.810000
v -0.870000 -0.500000 0.870000
v -1.150000 -0.470000 0.810000
v -1.130001 -0.500000 1.130000
v -1.170000 0.040000 1.500000
v -1.170000 -0.040000 1.500000
v -0.830001 -0.040000 1.500000
v 0.499999 0.130000 1.130000
v 0.599999 -0.000000 1.000000
v 0.499999 0.130000 0.870000
v 0.499999 -0.130000 0.870000
v 0.499999 -0.130000 1.130000
v -1.130000 -0.500000 0.870000
v -1.000001 -0.600000 1.000000
v -0.870001 -0.500000 1.130000
v -1.500000 0.130000 1.130000
v -1.500000 -0.130000 0.870000
v -1.600001 0.000000 1.000000
v -1.500000 0.130000 0.870000
v -1.500000 -0.130000 1.130000
v -1.000000 -0.000000 1.600000
v -1.130000 0.130000 1.500000
v -1.170001 -0.312642 0.540000
v -1.153623 -0.312640 1.288519
v -1.109970 -0.400000 1.260000
v -0.890031 -0.400000 1.260000
v -1.150001 -0.463053 1.140378
v -1.109972 -0.470000 1.190000
v -0.890001 -0.470000 1.190000
v -0.850001 -0.470000 1.133431
v -1.140928 -0.132732 1.445362
v -1.089968 -0.130000 1.500000
v -1.130000 -0.130000 1.500000
v -0.910032 -0.130000 1.500000
v -0.859073 -0.132732 1.445362
v -0.870000 -0.130000 1.500000
v 0.499999 -0.000000 0.540000
v 0.499999 0.140000 0.900000
v -1.500000 0.000000 1.300000
v -1.500000 0.000000 0.900000
v 0.499999 -0.000000 1.300000
v 0.499999 -0.000000 0.900000
v -1.500000 0.140000 0.900000
v 0.499999 -0.140000 0.900000
v -1.500000 0.000000 0.540000
v -1.500000 -0.140000 0.900000
v 0.169999 0.040000 1.500000
v 0.130000 0.130000 1.500000
v -0.170001 0.140000 1.300000
v 0.169999 0.140000 1.300000
v 0.149999 -0.470000 0.810000
v 0.130000 -0.500000 0.870000
v -0.150000 -0.470000 0.810000
v -0.130001 -0.500000 1.130000
v -0.170000 0.040000 1.500000
v -0.153623 -0.312640 1.288519
v -0.170000 -0.040000 1.500000
v 0.169999 -0.040000 1.500000
v -0.130000 -0.500000 0.870000
v -0.000001 -0.600000 1.000000
v 0.129999 -0.500000 1.130000
v 0.000000 -0.000000 1.600000
v -0.130000 0.130000 1.500000
v 0.169999 -0.312642 0.540000
v -0.170001 -0.312642 0.540000
v -0.109970 -0.400000 1.260000
v 0.109969 -0.400000 1.260000
v 0.153622 -0.312642 1.288517
v -0.150001 -0.463053 1.140378
v -0.109972 -0.470000 1.190000
v 0.109999 -0.470000 1.190000
v 0.149999 -0.470000 1.133431
v -0.140928 -0.132732 1.445362
v -0.089968 -0.130000 1.500000
v -0.130000 -0.130000 1.500000
v 0.089968 -0.130000 1.500000
v 0.140927 -0.132732 1.445362
v 0.130000 -0.130000 1.500000
v -0.170001 0.140000 0.540000
v 0.169999 0.140000 0.540000
vt 0.278963 0.284913
vt 0.281387 0.331312
vt 0.254728 0.331312
vt 0.254728 0.284913
vt 0.303320 0.310690
vt 0.279085 0.284913
vt 0.281508 0.331312
vt 0.308975 0.331312
vt 0.335633 0.331312
vt 0.335633 0.310690
vt 0.303198 0.310690
vt 0.308853 0.331312
vt 0.335511 0.310690
vt 0.335511 0.331312
vt 0.303320 0.310690
vt 0.362291 0.331312
vt 0.254850 0.331312
vt 0.335633 0.310690
vt 0.279085 0.284913
vt 0.254850 0.284913
vt 0.362170 0.331312
vt 0.335511 0.310690
vt 0.303198 0.310690
vt 0.254728 0.331312
vt 0.278963 0.284913
vt 0.254728 0.284913
vt 0.370428 0.241399
vt 0.367821 0.285718
vt 0.376511 0.285718
vt 0.373904 0.241399
vt 0.360000 0.331775
vt 0.384332 0.331775
vt 0.373904 0.241399
vt 0.376511 0.285718
vt 0.367821 0.285718
vt 0.370428 0.241399
vt 0.282583 0.410791
vt 0.271221 0.413226
vt 0.271221 0.416472
vt 0.282583 0.418907
vt 0.384332 0.331775
vt 0.360000 0.331775
vt 0.465999 0.418907
vt 0.477361 0.416472
vt 0.477361 0.413226
vt 0.465999 0.410791
vt 0.300437 0.423139
vt 0.300437 0.406730
vt 0.340204 0.423139
vt 0.340204 0.406730
vt 0.496027 0.416472
vt 0.496027 0.413226
vt 0.408377 0.406730
vt 0.408377 0.423139
vt 0.448144 0.423139
vt 0.448144 0.406730
vt 0.270885 0.250543
vt 0.254728 0.241951
vt 0.252554 0.413226
vt 0.252554 0.416472
vt 0.270885 0.250543
vt 0.254728 0.241951
vt 0.254850 0.284913
vt 0.271007 0.250543
vt 0.254850 0.241951
vt 0.271007 0.250543
vt 0.254850 0.241951
vt 0.254850 0.331312
vt 0.424575 0.327894
vt 0.397916 0.327894
vt 0.397916 0.360545
vt 0.397916 0.393196
vt 0.424575 0.393196
vt 0.429171 0.369862
vt 0.427375 0.352369
vt 0.430884 0.360583
vt 0.105216 0.325114
vt 0.144012 0.306240
vt 0.105216 0.306240
vt 0.144012 0.325114
vt 0.105216 0.325108
vt 0.144012 0.306234
vt 0.105215 0.306234
vt 0.144012 0.325108
vt 0.424453 0.327894
vt 0.397795 0.393196
vt 0.397795 0.360545
vt 0.397795 0.327894
vt 0.424453 0.393196
vt 0.435772 0.266159
vt 0.459437 0.209897
vt 0.435772 0.209897
vt 0.459437 0.266159
vt 0.362170 0.331312
vt 0.254728 0.396614
vt 0.362170 0.396614
vt 0.254728 0.363963
vt 0.370881 0.400426
vt 0.396901 0.368003
vt 0.396991 0.399540
vt 0.330562 0.231719
vt 0.300593 0.247819
vt 0.300490 0.232158
vt 0.303387 0.411600
vt 0.308491 0.417612
vt 0.304616 0.420267
vt 0.299688 0.414740
vt 0.321487 0.397096
vt 0.359812 0.397096
vt 0.359812 0.401741
vt 0.321487 0.401741
vt 0.388087 0.411603
vt 0.388087 0.418095
vt 0.387155 0.424441
vt 0.378549 0.422792
vt 0.387778 0.408296
vt 0.386159 0.407265
vt 0.383276 0.410995
vt 0.321487 0.369051
vt 0.329822 0.365968
vt 0.329179 0.369995
vt 0.322693 0.363711
vt 0.362170 0.396614
vt 0.364518 0.409104
vt 0.370941 0.421144
vt 0.362170 0.413799
vt 0.360494 0.418095
vt 0.360494 0.411603
vt 0.369849 0.414804
vt 0.330769 0.263040
vt 0.360739 0.246940
vt 0.360842 0.262600
vt 0.475138 0.333810
vt 0.449119 0.366232
vt 0.449029 0.334695
vt 0.321466 0.371188
vt 0.308490 0.352038
vt 0.321466 0.352038
vt 0.321466 0.390337
vt 0.321466 0.410068
vt 0.321466 0.429218
vt 0.323139 0.384091
vt 0.344362 0.377651
vt 0.344686 0.359069
vt 0.344686 0.368363
vt 0.327458 0.352038
vt 0.362898 0.416684
vt 0.388144 0.395379
vt 0.390458 0.419144
vt 0.360584 0.395379
vt 0.307217 0.437025
vt 0.290597 0.425145
vt 0.321487 0.384112
vt 0.359812 0.384112
vt 0.314410 0.433246
vt 0.438930 0.370671
vt 0.427175 0.373242
vt 0.445235 0.334287
vt 0.439789 0.356092
vt 0.431281 0.355671
vt 0.431046 0.334576
vt 0.432162 0.359035
vt 0.438440 0.359504
vt 0.438486 0.361519
vt 0.439686 0.361100
vt 0.430606 0.367874
vt 0.440156 0.373575
vt 0.444288 0.353085
vt 0.075351 0.073845
vt 0.004325 0.073845
vt 0.039499 0.038249
vt 0.431818 0.360931
vt 0.437948 0.368599
vt 0.360584 0.417643
vt 0.388144 0.417643
vt 0.004325 0.062423
vt 0.004325 0.013547
vt 0.004325 0.002667
vt 0.075351 0.073845
vt 0.075351 0.002667
vt 0.039499 0.038249
vt 0.004325 0.073845
vt 0.004325 0.002667
vt 0.075351 0.073845
vt 0.075351 0.002667
vt 0.039499 0.038249
vt 0.004325 0.073845
vt 0.004325 0.002667
vt 0.075351 0.002667
vt 0.004325 0.002667
vt 0.039499 0.038249
vt 0.075351 0.073845
vt 0.004325 0.073845
vt 0.452041 0.393196
vt 0.452041 0.327894
vt 0.075351 0.002667
vt 0.370592 0.414890
vt 0.366054 0.426900
vt 0.428209 0.376629
vt 0.438851 0.376445
vt 0.425658 0.337779
vt 0.447597 0.338140
vt 0.366834 0.413799
vt 0.387590 0.407259
vt 0.386724 0.371221
vt 0.360635 0.231279
vt 0.330666 0.247379
vt 0.330562 0.231719
vt 0.449209 0.397769
vt 0.475228 0.365347
vt 0.475318 0.396884
vt 0.396811 0.336466
vt 0.370792 0.368889
vt 0.370702 0.337352
vt 0.300697 0.263480
vt 0.330666 0.247379
vt 0.330769 0.263040
vt 0.429171 0.369862
vt 0.427375 0.352369
vt 0.430884 0.360583
vt 0.388087 0.411603
vt 0.388087 0.418095
vt 0.387155 0.424441
vt 0.362292 0.396614
vt 0.362291 0.413799
vt 0.364210 0.413799
vt 0.364640 0.409104
vt 0.362170 0.396614
vt 0.364518 0.409104
vt 0.370941 0.421144
vt 0.362170 0.413799
vt 0.360494 0.418095
vt 0.360494 0.411603
vt 0.369849 0.414804
vt 0.362898 0.416684
vt 0.388144 0.395379
vt 0.390458 0.419144
vt 0.360584 0.395379
vt 0.438930 0.370671
vt 0.427175 0.373242
vt 0.445235 0.334287
vt 0.439789 0.356092
vt 0.431281 0.355671
vt 0.431046 0.334576
vt 0.432162 0.359035
vt 0.438440 0.359504
vt 0.438486 0.361519
vt 0.439686 0.361100
vt 0.430606 0.367874
vt 0.440156 0.373575
vt 0.444288 0.353085
vt 0.075351 0.073845
vt 0.004325 0.073845
vt 0.039499 0.038249
vt 0.431818 0.360931
vt 0.437948 0.368599
vt 0.360584 0.417643
vt 0.388144 0.417643
vt 0.004325 0.062423
vt 0.004325 0.013547
vt 0.004325 0.002667
vt 0.075351 0.073845
vt 0.075351 0.002667
vt 0.039499 0.038249
vt 0.004325 0.073845
vt 0.004325 0.002667
vt 0.075351 0.002667
vt 0.386159 0.407265
vt 0.370592 0.414890
vt 0.366054 0.426900
vt 0.428209 0.376629
vt 0.438851 0.376445
vt 0.425658 0.337779
vt 0.447597 0.338140
vt 0.366834 0.413799
vt 0.366937 0.413799
vt 0.332050 0.400388
vt 0.365511 0.413799
vt 0.316645 0.327771
vt 0.352459 0.327770
vt 0.435579 0.266400
vt 0.435579 0.209749
vt 0.459655 0.209749
vt 0.459655 0.266400
vt 0.388273 0.327770
vt 0.360000 0.394343
vt 0.424087 0.327771
vn -0.2526 -0.9218 -0.2940
vn -0.2892 -0.8544 -0.4316
vn -0.0000 -0.7485 -0.6632
vn 0.2892 -0.8544 -0.4316
vn 0.0000 0.9864 -0.1644
vn 1.0000 0.0000 0.0000
vn -1.0000 0.0000 0.0000
vn 0.9701 0.0000 -0.2425
vn -0.9701 0.0000 -0.2425
vn 0.7071 0.0000 -0.7071
vn 0.0000 0.0000 -1.0000
vn -0.4472 0.0000 -0.8944
vn 0.0299 -0.9978 -0.0599
vn 0.0000 -0.9972 -0.0748
vn 0.4472 0.0000 -0.8944
vn 0.0000 0.9972 -0.0748
vn 0.0299 0.9978 -0.0599
vn -0.0299 -0.9978 -0.0599
vn -0.0299 0.9978 -0.0599
vn -0.7071 0.0000 -0.7071
vn 0.2526 -0.9218 -0.2940
vn 0.4636 -0.8861 -0.0000
vn 0.4458 -0.8951 0.0098
vn 0.9997 -0.0230 0.0000
vn 0.0000 -1.0000 0.0000
vn -0.0003 -0.9446 -0.3283
vn 0.2399 -0.9446 -0.2240
vn -0.2818 -0.9361 -0.2104
vn 0.0133 -0.9361 -0.3515
vn 0.2630 -0.9361 -0.2335
vn 0.0145 -0.9895 -0.1441
vn -0.4636 -0.8861 0.0000
vn -0.4458 -0.8951 0.0098
vn 0.0000 1.0000 0.0000
vn -0.0006 1.0000 -0.0002
vn -0.0002 1.0000 0.0006
vn -0.0005 1.0000 0.0005
vn -0.0000 0.0000 1.0000
vn 0.6738 -0.5204 0.5247
vn -0.6738 -0.5204 0.5247
vn -0.0262 -0.6117 0.7906
vn 0.0272 -0.5696 0.8215
vn -0.0000 -0.6129 0.7902
vn 0.3180 -0.6818 0.6589
vn -0.3180 -0.6818 0.6589
vn -0.7071 0.0000 0.7071
vn 0.0000 0.8944 0.4472
vn 0.0000 0.9988 0.0499
vn 0.7071 0.0000 0.7071
vn 0.0000 -0.8640 -0.5035
vn -0.0000 -0.6644 0.7474
vn 0.9958 -0.0892 0.0218
vn 0.0000 -0.7071 0.7071
vn -0.8782 -0.4782 0.0101
vn 0.8321 -0.5547 0.0000
vn -0.9987 -0.0456 0.0219
vn -0.6097 0.0000 0.7926
vn 0.0000 -0.8944 -0.4472
vn -0.8321 -0.5547 -0.0000
vn 0.0000 -0.8944 0.4472
vn -0.9926 -0.1218 0.0026
vn 0.8955 0.3980 0.1990
vn -0.8955 0.3980 0.1990
vn 0.0000 -0.6097 0.7926
vn 0.7926 -0.6097 -0.0000
vn 0.7926 0.6097 0.0000
vn 0.7926 -0.0000 -0.6097
vn 0.7926 0.0000 0.6097
vn 0.0000 -0.7926 -0.6097
vn 0.0000 -0.7926 0.6097
vn 0.6097 -0.7926 -0.0000
vn -0.6097 -0.7926 -0.0000
vn -0.7926 0.0000 0.6097
vn -0.7926 0.0000 -0.6097
vn -0.7926 0.6097 0.0000
vn -0.7926 -0.6097 -0.0000
vn -0.2678 -0.9446 -0.1899
vn 0.6097 0.0000 0.7926
vn 0.0000 0.6097 0.7926
vn -0.7001 -0.5172 0.4923
vn 0.6969 -0.5210 0.4928
vn 0.6137 -0.4967 0.6137
vn -0.6137 -0.4967 0.6137
vn 0.6994 -0.5084 0.5024
vn -0.6996 -0.5084 0.5021
vn 0.0000 -0.9988 0.0499
vn -0.8320 -0.5547 -0.0000
usemtl Default_OBJ
s off
f 1/1/1 68/2/1 2/3/1 3/4/1
f 4/5/2 5/6/2 109/7/2
f 109/7/3 110/8/3 4/5/3
f 4/5/3 110/8/3 7/9/3 8/10/3
f 68/2/3 9/11/3 10/12/3
f 9/11/4 68/2/4 1/1/4
f 8/13/3 7/14/3 10/12/3 9/11/3
f 11/15/5 12/16/5 6/17/5
f 12/16/5 11/15/5 13/18/5
f 6/17/5 14/19/5 11/15/5
f 15/20/5 14/19/5 6/17/5
f 12/21/5 13/22/5 16/23/5
f 16/23/5 33/24/5 12/21/5
f 33/24/5 16/23/5 17/25/5
f 33/24/5 17/25/5 18/26/5
f 19/27/6 15/28/6 20/29/6 21/30/6
f 20/29/6 15/28/6 6/31/6 34/32/6
f 22/33/7 3/34/7 18/35/7 23/36/7
f 1/37/8 24/38/8 25/39/8 17/40/8
f 2/41/7 33/42/7 18/35/7 3/34/7
f 14/43/9 26/44/9 27/45/9 5/46/9
f 16/47/10 1/37/10 17/40/10
f 1/37/10 16/47/10 9/48/10
f 9/48/11 16/47/11 13/49/11 8/50/11
f 27/45/12 26/44/12 19/51/12 21/52/12
f 8/53/11 13/54/11 11/55/11 4/56/11
f 24/57/13 3/4/13 22/58/13
f 3/4/14 24/57/14 1/1/14
f 22/59/15 23/60/15 25/39/15 24/38/15
f 18/26/16 17/25/16 25/61/16
f 25/61/17 23/62/17 18/26/17
f 20/63/14 5/6/14 27/64/14
f 27/64/18 21/65/18 20/63/18
f 26/66/19 15/20/19 19/67/19
f 15/20/16 26/66/16 14/19/16
f 4/56/20 11/55/20 14/43/20 5/46/20
f 5/6/21 20/63/21 34/68/21 109/7/21
usemtl Default_OBJ_NONE
f 109/69/22 34/70/22 89/71/22 40/72/22
f 40/72/23 113/73/23 109/69/23
f 46/74/24 29/75/24 75/76/24
f 28/77/25 110/78/26 101/79/25
f 110/78/27 28/77/25 7/80/28
f 29/81/25 7/82/29 28/83/25
f 7/82/30 29/81/25 10/84/31
f 68/85/32 41/86/32 91/87/32 2/88/32
f 41/86/33 68/85/33 69/89/33
f 43/90/34 32/91/35 31/92/36
f 32/91/37 43/90/34 44/93/34
f 31/94/37 39/95/34 43/96/34
f 39/95/34 31/94/35 33/24/34 88/97/34
f 30/98/6 87/99/6 83/100/6
f 34/101/6 87/102/6 89/103/6
f 103/104/38 45/105/38 36/106/38 92/107/38
f 100/108/38 35/109/38 52/110/38 102/111/38
f 52/112/38 35/113/38 37/114/38
f 29/115/39 52/116/39 81/117/39 80/118/39
f 51/119/38 42/120/38 38/121/38
f 42/120/38 51/119/38 50/122/38
f 69/123/40 76/124/40 78/125/40 51/126/40
f 50/127/38 51/128/38 78/129/38
f 33/130/7 85/131/7 88/132/7
f 41/133/7 85/134/7 91/135/7
f 28/136/41 52/137/41 29/138/41
f 101/139/42 52/137/42 28/136/42
f 45/105/43 52/137/43 101/139/43
f 45/105/43 101/139/43 113/140/43
f 40/141/44 45/105/44 113/140/44
f 69/142/45 38/121/45 41/143/45
f 42/120/46 41/143/46 38/121/46
f 41/143/46 42/120/46 39/144/46 84/145/46
f 39/144/47 50/122/47 43/146/47
f 50/122/47 39/144/47 42/120/47
f 37/147/48 43/148/48 67/149/48
f 43/148/48 37/147/48 44/150/48
f 36/106/47 30/151/47 95/152/47 92/107/47
f 100/108/47 94/153/47 44/154/47 35/109/47
f 45/105/49 30/151/49 36/106/49
f 30/151/49 45/105/49 40/141/49 86/155/49
f 38/121/43 69/142/43 51/119/43
f 48/156/50 10/157/50 46/74/50
f 77/158/51 70/159/51 71/160/51 79/161/51
f 29/75/52 46/74/52 10/157/52
f 74/162/53 70/159/53 73/163/53
f 48/156/54 49/164/54 72/165/54
f 75/76/55 47/166/55 46/74/55
f 70/159/53 74/162/53 71/160/53
f 68/167/56 72/165/56 69/168/56
f 67/169/57 78/170/57 66/171/57
f 47/166/55 75/76/55 60/172/55
f 58/173/58 46/74/58 47/166/58
f 46/74/58 58/173/58 48/156/58
f 49/164/59 48/156/59 58/173/59
f 60/172/60 73/163/60 49/164/60
f 73/163/60 60/172/60 74/162/60
f 72/165/61 68/167/61 48/156/61
f 44/150/62 37/147/62 35/174/62
f 43/148/63 50/175/63 67/149/63
f 78/170/64 77/176/64 79/177/64 81/178/64 66/171/64
f 57/179/65 56/180/65 54/181/65
f 53/182/66 54/181/66 55/183/66
f 54/181/67 56/180/67 55/183/67
f 53/182/68 57/179/68 54/181/68
f 58/184/69 47/185/69 59/186/69
f 49/187/70 59/186/70 60/188/70
f 59/186/71 47/185/71 60/188/71
f 49/187/72 58/184/72 59/186/72
f 65/189/73 61/190/73 63/191/73
f 62/192/74 63/191/74 64/193/74
f 63/191/75 61/190/75 64/193/75
f 62/192/76 65/189/76 63/191/76
f 101/194/25 110/195/77 109/69/25 113/73/25
f 66/171/78 81/178/78 37/196/78
f 67/169/79 66/171/79 37/196/79
f 37/114/38 81/117/38 52/112/38
f 78/197/38 67/198/38 50/127/38
f 10/199/50 48/156/50 68/200/50
f 73/163/80 72/165/80 49/164/80
f 75/76/81 74/162/81 60/172/81
f 79/161/82 71/160/82 29/75/82 80/201/82
f 76/202/83 69/168/83 70/159/83 77/158/83
f 71/160/84 74/162/84 75/76/84 29/75/84
f 73/163/85 70/159/85 69/168/85 72/165/85
f 76/124/86 77/203/86 78/125/86
f 79/204/86 80/205/86 81/117/86
f 91/206/7 90/207/7 2/208/7
f 91/206/7 85/131/7 90/207/7
f 85/131/7 33/130/7 90/207/7
f 88/209/7 84/210/7 39/211/7
f 88/209/7 85/134/7 84/210/7
f 85/134/7 41/133/7 84/210/7
f 89/212/6 86/213/6 40/214/6
f 89/212/6 87/99/6 86/213/6
f 87/99/6 30/98/6 86/213/6
f 83/215/6 82/216/6 6/217/6
f 83/215/6 87/102/6 82/216/6
f 87/102/6 34/101/6 82/216/6
f 96/218/24 113/219/24 117/220/24
f 103/221/38 92/222/38 93/223/38
f 113/224/39 103/225/39 123/226/39 122/227/39
f 101/228/40 118/229/40 120/230/40 102/231/40
f 100/232/38 102/233/38 120/234/38
f 93/235/48 94/236/48 108/237/48
f 94/236/48 93/235/48 95/238/48
f 98/239/50 109/240/50 96/218/50
f 119/241/51 111/242/51 112/243/51 121/244/51
f 113/219/52 96/218/52 109/240/52
f 116/245/53 111/242/53 115/246/53
f 98/239/54 99/247/54 114/248/54
f 117/220/55 97/249/55 96/218/55
f 111/242/53 116/245/53 112/243/53
f 110/250/56 114/248/56 101/251/56
f 108/252/57 120/253/57 107/254/57
f 97/249/55 117/220/55 106/255/55
f 104/256/58 96/218/58 97/249/58
f 96/218/58 104/256/58 98/239/58
f 99/247/87 98/239/87 104/256/87
f 106/255/60 115/246/60 99/247/60
f 115/246/60 106/255/60 116/245/60
f 114/248/61 110/250/61 98/239/61
f 95/238/62 93/235/62 92/257/62
f 94/236/63 100/258/63 108/237/63
f 120/253/64 119/259/64 121/260/64 123/261/64 107/254/64
f 104/262/69 97/263/69 105/264/69
f 99/265/70 105/264/70 106/266/70
f 105/264/71 97/263/71 106/266/71
f 99/265/72 104/262/72 105/264/72
f 107/254/78 123/261/78 93/267/78
f 108/252/79 107/254/79 93/267/79
f 93/223/38 123/268/38 103/221/38
f 120/269/38 108/270/38 100/232/38
f 109/271/50 98/239/50 110/272/50
f 115/246/80 114/248/80 99/247/80
f 117/220/81 116/245/81 106/255/81
f 121/244/82 112/243/82 113/219/82 122/273/82
f 118/274/83 101/251/83 111/242/83 119/241/83
f 112/243/84 116/245/84 117/220/84 113/219/84
f 115/246/85 111/242/85 101/251/85 114/248/85
f 118/229/86 119/275/86 120/230/86
f 121/276/86 122/277/86 123/278/86
f 32/279/36 44/150/34 94/236/34 124/280/35
f 95/281/34 125/282/35 124/283/36 94/284/34
f 125/285/36 95/238/34 30/286/34 6/287/34
