# This file uses centimeters as units for non-parametric coordinates.

g default
v 0.160861 0.230176 -0.313344
v 0.160861 0.196530 -0.346990
v 0.160861 0.150569 -0.359305
v 0.160861 0.104608 -0.346990
v 0.160861 0.070962 -0.313344
v 0.160861 0.058647 -0.267383
v 0.160861 0.070962 -0.221421
v 0.160861 0.104608 -0.187775
v 0.160861 0.150569 -0.175460
v 0.160861 0.196530 -0.187775
v 0.160861 0.230176 -0.221421
v 0.160861 0.242491 -0.267383
v -0.160861 0.230176 -0.313344
v -0.160861 0.196530 -0.346990
v -0.160861 0.150569 -0.359305
v -0.160861 0.104608 -0.346990
v -0.160861 0.070962 -0.313344
v -0.160861 0.058647 -0.267383
v -0.160861 0.070962 -0.221421
v -0.160861 0.104608 -0.187775
v -0.160861 0.150569 -0.175460
v -0.160861 0.196530 -0.187775
v -0.160861 0.230176 -0.221421
v -0.160861 0.242492 -0.267383
v -0.313473 0.040273 0.179793
v -0.156752 0.040273 0.336513
v -0.313473 0.138433 0.179793
v -0.156752 0.138433 0.336513
v 0.313473 0.040273 0.179793
v 0.156752 0.040273 0.336513
v 0.313473 0.138433 0.179793
v 0.156752 0.138433 0.336513
v -0.313473 0.138433 -0.194079
v -0.188096 0.138433 -0.319455
v -0.313473 0.040273 -0.194079
v -0.188096 0.040273 -0.319455
v 0.313473 0.138433 -0.194079
v 0.188096 0.138433 -0.319455
v 0.313473 0.040273 -0.194079
v 0.188096 0.040273 -0.319455
v 0.387089 -0.014752 -0.160337
v 0.296265 -0.014752 -0.296265
v 0.160338 -0.014752 -0.387089
v 0.000000 -0.014752 -0.418982
v -0.160337 -0.014752 -0.387089
v -0.296265 -0.014752 -0.296265
v -0.387089 -0.014752 -0.160338
v -0.418982 -0.014752 -0.000000
v -0.387089 -0.014752 0.160337
v -0.296265 -0.014752 0.296265
v -0.160338 -0.014752 0.387089
v -0.000000 -0.014752 0.418982
v 0.160337 -0.014752 0.387089
v 0.296265 -0.014752 0.296265
v 0.387089 -0.014752 0.160338
v 0.418982 -0.014752 0.000000
v 0.387089 0.050423 -0.160337
v 0.296265 0.050423 -0.296265
v 0.160338 0.050423 -0.387089
v 0.000000 0.050423 -0.418982
v -0.160337 0.050423 -0.387089
v -0.296265 0.050423 -0.296265
v -0.387089 0.050423 -0.160338
v -0.418982 0.050423 -0.000000
v -0.387089 0.050423 0.160337
v -0.296265 0.050423 0.296265
v -0.160338 0.050423 0.387089
v -0.000000 0.050423 0.418982
v 0.160337 0.050423 0.387089
v 0.296265 0.050423 0.296265
v 0.387089 0.050423 0.160338
v 0.418982 0.050423 0.000000
v 0.233966 0.050423 0.424544
v 0.430880 0.050423 0.227629
v 0.233966 0.443465 0.424544
v 0.430880 0.443465 0.227629
v 0.182414 0.443465 0.372992
v 0.379329 0.443465 0.176071
v 0.182414 0.050423 0.372992
v 0.379329 0.050423 0.176078
v 0.233966 0.256755 0.424544
v 0.182414 0.256755 0.372992
v 0.379329 0.050423 0.049936
v 0.430880 0.050423 0.049936
v 0.379329 0.317336 0.049936
v 0.430880 0.317336 0.049936
v 0.430880 0.443465 0.176065
v -0.233966 0.050423 0.424544
v -0.430880 0.050423 0.227629
v -0.233966 0.443465 0.424544
v -0.430880 0.443465 0.227629
v -0.182414 0.443465 0.372992
v -0.379329 0.443465 0.176071
v -0.182414 0.050423 0.372992
v -0.379329 0.050423 0.176078
v -0.233966 0.256755 0.424544
v -0.182414 0.256755 0.372992
v -0.379329 0.050423 0.049936
v -0.430880 0.050423 0.049936
v -0.379329 0.317336 0.049936
v -0.430880 0.317336 0.049936
v -0.430880 0.443465 0.176065
v -0.500000 0.091816 0.198192
v -0.250025 0.091816 0.448167
v -0.500000 0.164591 0.198192
v -0.250025 0.164591 0.448167
v 0.500000 0.091816 0.198192
v 0.250025 0.091816 0.448167
v 0.500000 0.164591 0.198192
v 0.250025 0.164591 0.448167
v -0.500000 0.091816 0.084610
v 0.500000 0.091816 0.084610
v -0.500000 0.164591 0.084610
v 0.500000 0.164591 0.084610
v -0.213120 0.094823 0.392163
v 0.213120 0.094823 0.392163
v -0.419466 0.094823 0.185818
v -0.419466 0.161584 0.185818
v -0.419466 0.161584 0.084610
v -0.213120 0.161584 0.392163
v 0.213120 0.161584 0.392163
v 0.419466 0.094823 0.185818
v 0.419466 0.161584 0.185818
v 0.419466 0.161584 0.084610
v -0.419466 0.094823 0.084610
v 0.419466 0.094823 0.084610
vt 0.422794 0.989669
vt 0.417232 0.995231
vt 0.402035 0.995231
vt 0.396473 0.989669
vt 0.409634 0.997267
vt 0.394437 0.982071
vt 0.424830 0.982071
vt 0.396473 0.974472
vt 0.422794 0.974472
vt 0.402035 0.968910
vt 0.417232 0.968910
vt 0.409634 0.966874
vt 0.417232 0.995231
vt 0.417232 0.968910
vt 0.422794 0.974472
vt 0.422794 0.989669
vt 0.409634 0.966874
vt 0.409634 0.997267
vt 0.424830 0.982071
vt 0.402035 0.995231
vt 0.402035 0.968910
vt 0.396473 0.989669
vt 0.396473 0.974472
vt 0.394437 0.982071
vt 0.416111 0.909614
vt 0.423489 0.909614
vt 0.423489 0.959497
vt 0.416111 0.959497
vt 0.497266 0.909614
vt 0.408733 0.959497
vt 0.489889 0.909614
vt 0.489889 0.959497
vt 0.482511 0.909614
vt 0.482511 0.959497
vt 0.438244 0.909614
vt 0.445622 0.909614
vt 0.445622 0.959497
vt 0.438244 0.959497
vt 0.453000 0.909614
vt 0.453000 0.959497
vt 0.460378 0.909614
vt 0.460378 0.959497
vt 0.467755 0.909614
vt 0.467755 0.959497
vt 0.430867 0.909614
vt 0.430867 0.959497
vt 0.475133 0.909614
vt 0.475133 0.959497
vt 0.408733 0.909614
vt 0.497266 0.959497
vt 0.419925 0.948326
vt 0.419925 0.943263
vt 0.436095 0.943263
vt 0.436095 0.948326
vt 0.418308 0.987224
vt 0.418308 0.982161
vt 0.437712 0.982161
vt 0.437712 0.987224
vt 0.444179 0.956410
vt 0.449242 0.956410
vt 0.449242 0.975694
vt 0.444179 0.975694
vt 0.411841 0.975694
vt 0.406778 0.975694
vt 0.406778 0.956410
vt 0.411841 0.956410
vt 0.411841 0.943263
vt 0.411841 0.948326
vt 0.444179 0.943263
vt 0.444179 0.948326
vt 0.437712 0.909429
vt 0.444179 0.915896
vt 0.444179 0.935180
vt 0.411841 0.982161
vt 0.406778 0.982161
vt 0.444179 0.982161
vt 0.449242 0.982161
vt 0.411841 0.915896
vt 0.418308 0.909429
vt 0.411841 0.935180
vt 0.177478 0.681235
vt 0.177478 0.676308
vt 0.179442 0.676308
vt 0.179442 0.681235
vt 0.177478 0.671382
vt 0.179442 0.671382
vt 0.177478 0.666455
vt 0.179442 0.666455
vt 0.177478 0.745284
vt 0.177478 0.740357
vt 0.179442 0.740357
vt 0.179442 0.745284
vt 0.177478 0.735431
vt 0.179442 0.735431
vt 0.177478 0.730504
vt 0.179442 0.730504
vt 0.177478 0.725577
vt 0.179442 0.725577
vt 0.177478 0.720650
vt 0.179442 0.720650
vt 0.177478 0.715723
vt 0.179442 0.715723
vt 0.177478 0.710796
vt 0.179442 0.710796
vt 0.177478 0.705870
vt 0.179442 0.705870
vt 0.177478 0.700943
vt 0.179442 0.700943
vt 0.177478 0.696016
vt 0.179442 0.696016
vt 0.177478 0.691089
vt 0.179442 0.691089
vt 0.177478 0.686162
vt 0.179442 0.686162
vt 0.137790 0.719402
vt 0.133377 0.716453
vt 0.133377 0.697214
vt 0.137790 0.694265
vt 0.152616 0.697214
vt 0.152616 0.716453
vt 0.148202 0.719402
vt 0.148202 0.694265
vt 0.142996 0.720437
vt 0.137790 0.719402
vt 0.137790 0.694265
vt 0.142996 0.693229
vt 0.148202 0.694265
vt 0.148202 0.719402
vt 0.142996 0.720437
vt 0.142996 0.693229
vt 0.156600 0.706833
vt 0.155565 0.712039
vt 0.155565 0.701627
vt 0.130428 0.701627
vt 0.130428 0.712039
vt 0.129392 0.706833
vt 0.133377 0.697214
vt 0.133377 0.716453
vt 0.130428 0.712039
vt 0.130428 0.701627
vt 0.129392 0.706833
vt 0.152616 0.716453
vt 0.152616 0.697214
vt 0.155565 0.701627
vt 0.155565 0.712039
vt 0.156600 0.706833
vt 0.193578 0.841677
vt 0.208779 0.830415
vt 0.208778 0.851868
vt 0.193578 0.851868
vt 0.328902 0.846771
vt 0.328902 0.814891
vt 0.337249 0.814890
vt 0.337248 0.846771
vt 0.209775 0.822342
vt 0.199734 0.822342
vt 0.199734 0.807365
vt 0.220871 0.807366
vt 0.379287 0.854362
vt 0.379287 0.810614
vt 0.390740 0.810614
vt 0.390740 0.854362
vt 0.364667 0.779126
vt 0.368840 0.783299
vt 0.347459 0.804680
vt 0.343286 0.800507
vt 0.220871 0.822342
vt 0.337248 0.868146
vt 0.328902 0.868146
vt 0.365274 0.796601
vt 0.371001 0.790874
vt 0.220871 0.800582
vt 0.206517 0.800582
vt 0.333076 0.810717
vt 0.218477 0.844984
vt 0.218477 0.830415
vt 0.193578 0.830415
vt 0.211593 0.851868
vt 0.193578 0.841677
vt 0.193578 0.851868
vt 0.208779 0.851868
vt 0.208778 0.830415
vt 0.328902 0.846771
vt 0.337248 0.846771
vt 0.337249 0.814890
vt 0.328902 0.814891
vt 0.200839 0.813329
vt 0.215815 0.802232
vt 0.215816 0.823370
vt 0.200839 0.823370
vt 0.379287 0.854362
vt 0.390740 0.854362
vt 0.390740 0.810614
vt 0.379287 0.810614
vt 0.364667 0.779126
vt 0.343286 0.800507
vt 0.347459 0.804680
vt 0.368840 0.783299
vt 0.200839 0.802232
vt 0.337248 0.868146
vt 0.328902 0.868146
vt 0.361716 0.880837
vt 0.319482 0.880837
vt 0.324135 0.876185
vt 0.357063 0.876184
vt 0.216095 0.852433
vt 0.188539 0.852433
vt 0.188539 0.841682
vt 0.216095 0.841682
vt 0.357063 0.880837
vt 0.324135 0.880837
vt 0.319482 0.876185
vt 0.361716 0.876185
vt 0.186206 0.842581
vt 0.167196 0.842582
vt 0.167196 0.831831
vt 0.186206 0.831831
vt 0.371001 0.790874
vt 0.365274 0.796601
vt 0.222599 0.802232
vt 0.222599 0.816587
vt 0.333076 0.810717
vt 0.218477 0.844984
vt 0.218477 0.830415
vt 0.193578 0.830415
vt 0.211593 0.851868
vt 0.123279 0.724906
vt 0.118509 0.724906
vt 0.118509 0.692134
vt 0.123279 0.692134
vt 0.176692 0.683196
vt 0.171922 0.683196
vt 0.171922 0.675752
vt 0.176692 0.675752
vt 0.118509 0.741289
vt 0.123279 0.741289
vt 0.123279 0.675752
vt 0.118509 0.675752
vt 0.181777 0.683196
vt 0.177008 0.683196
vt 0.177008 0.675752
vt 0.181777 0.675752
vt 0.147434 0.692134
vt 0.147434 0.724906
vt 0.143764 0.722488
vt 0.143764 0.694553
vt 0.131052 0.741289
vt 0.130241 0.736011
vt 0.171591 0.741289
vt 0.164148 0.741289
vt 0.164959 0.736011
vt 0.171591 0.736011
vt 0.147765 0.724906
vt 0.147765 0.692134
vt 0.151435 0.694553
vt 0.151435 0.722488
vt 0.131052 0.675752
vt 0.130241 0.681030
vt 0.164148 0.675752
vt 0.171591 0.675752
vt 0.171591 0.681030
vt 0.164959 0.681030
vt 0.123608 0.741289
vt 0.123608 0.736011
vt 0.123608 0.675752
vt 0.123608 0.681030
vt 0.178847 0.683326
vt 0.183616 0.683326
vt 0.183419 0.688604
vt 0.179044 0.688604
vt 0.178577 0.688604
vt 0.173807 0.688604
vt 0.174004 0.683326
vt 0.178380 0.683326
vn 0.000000 0.866026 -0.500000
vn 0.000000 0.500000 -0.866025
vn 0.000000 0.500000 -0.866025
vn 0.000000 0.866026 -0.500000
vn -0.000000 0.000000 -1.000000
vn -0.000000 -0.000000 -1.000000
vn -0.000000 -0.500000 -0.866025
vn -0.000000 -0.500000 -0.866025
vn 0.000000 -0.866026 -0.500000
vn 0.000000 -0.866026 -0.499999
vn 0.000000 -1.000000 0.000000
vn 0.000000 -1.000000 0.000000
vn 0.000000 -0.866026 0.500000
vn 0.000000 -0.866026 0.500000
vn 0.000000 -0.500000 0.866025
vn 0.000000 -0.500000 0.866025
vn 0.000000 0.000000 1.000000
vn 0.000000 -0.000000 1.000000
vn 0.000000 0.500000 0.866025
vn 0.000000 0.500000 0.866025
vn 0.000000 0.866025 0.500000
vn 0.000000 0.866025 0.500000
vn 0.000000 1.000000 0.000000
vn 0.000000 1.000000 0.000000
vn 1.000000 -0.000000 -0.000000
vn 1.000000 0.000000 0.000000
vn 1.000000 0.000000 0.000000
vn 1.000000 -0.000000 -0.000000
vn 1.000000 0.000000 0.000000
vn 1.000000 0.000000 0.000000
vn 1.000000 0.000000 0.000000
vn -1.000000 0.000000 -0.000000
vn -1.000000 0.000000 -0.000000
vn -1.000000 0.000000 0.000000
vn -1.000000 0.000000 0.000000
vn -1.000000 0.000000 0.000000
vn -1.000000 0.000000 0.000000
vn -1.000000 0.000000 0.000000
vn -1.000000 0.000000 0.000000
vn 1.000000 -0.000000 0.000000
vn 1.000000 -0.000000 0.000000
vn 1.000000 -0.000000 0.000000
vn 1.000000 -0.000000 0.000000
vn 1.000000 0.000000 0.000000
vn -1.000000 0.000000 0.000000
vn -1.000000 0.000000 0.000000
vn -1.000000 0.000000 0.000000
vn -1.000000 0.000000 0.000000
vn 0.000000 0.000000 1.000000
vn 0.000000 0.000000 1.000000
vn 0.000000 0.000000 1.000000
vn 0.000000 0.000000 1.000000
vn 0.000000 0.000000 -1.000000
vn 0.000000 0.000000 -1.000000
vn 0.000000 0.000000 -1.000000
vn 0.000000 0.000000 -1.000000
vn 1.000000 0.000000 0.000000
vn 1.000000 0.000000 0.000000
vn 1.000000 0.000000 0.000000
vn 1.000000 0.000000 0.000000
vn -1.000000 0.000000 0.000000
vn -1.000000 0.000000 0.000000
vn -1.000000 0.000000 0.000000
vn -1.000000 0.000000 0.000000
vn 0.000000 1.000000 0.000000
vn 0.000000 1.000000 -0.000000
vn 0.000000 1.000000 -0.000000
vn 0.000000 1.000000 0.000000
vn -0.707107 0.000000 0.707107
vn -0.707107 0.000000 0.707107
vn -0.707107 0.000000 0.707107
vn -0.707107 0.000000 0.707107
vn 0.707107 0.000000 0.707107
vn 0.707107 0.000000 0.707107
vn 0.707107 0.000000 0.707107
vn 0.707107 0.000000 0.707107
vn 0.000000 -1.000000 -0.000000
vn 0.000000 -1.000000 -0.000000
vn 0.000000 -1.000000 0.000000
vn 0.000000 -1.000000 0.000000
vn -0.707107 0.000000 -0.707107
vn -0.707107 0.000000 -0.707107
vn -0.707107 0.000000 -0.707107
vn -0.707107 0.000000 -0.707107
vn 0.707107 0.000000 -0.707107
vn 0.707107 0.000000 -0.707107
vn 0.707107 0.000000 -0.707107
vn 0.707107 0.000000 -0.707107
vn 0.000000 1.000000 -0.000000
vn 0.000000 1.000000 -0.000000
vn 0.000000 1.000000 0.000000
vn 0.000000 1.000000 0.000000
vn 0.000000 -1.000000 0.000000
vn 0.000000 -1.000000 -0.000000
vn 0.000000 -1.000000 -0.000000
vn 0.000000 -1.000000 0.000000
vn 0.923880 0.000000 -0.382683
vn 0.707107 0.000000 -0.707107
vn 0.707107 0.000000 -0.707107
vn 0.923880 0.000000 -0.382683
vn 0.382684 0.000000 -0.923879
vn 0.382684 0.000000 -0.923879
vn 0.000001 0.000000 -1.000000
vn 0.000001 0.000000 -1.000000
vn -0.382683 0.000000 -0.923880
vn -0.382683 0.000000 -0.923880
vn -0.707106 0.000000 -0.707107
vn -0.707106 0.000000 -0.707107
vn -0.923879 0.000000 -0.382684
vn -0.923879 0.000000 -0.382684
vn -1.000000 0.000000 -0.000000
vn -1.000000 0.000000 -0.000000
vn -0.923880 0.000000 0.382683
vn -0.923880 0.000000 0.382683
vn -0.707107 0.000000 0.707107
vn -0.707107 0.000000 0.707107
vn -0.382684 0.000000 0.923879
vn -0.382684 0.000000 0.923879
vn 0.000000 0.000000 1.000000
vn 0.000000 0.000000 1.000000
vn 0.382683 0.000000 0.923880
vn 0.382683 0.000000 0.923880
vn 0.707107 0.000000 0.707107
vn 0.707107 0.000000 0.707107
vn 0.923880 0.000000 0.382684
vn 0.923880 0.000000 0.382684
vn 1.000000 0.000000 0.000000
vn 1.000000 0.000000 0.000000
vn 0.000000 -1.000000 -0.000000
vn 0.000000 -1.000000 0.000000
vn 0.000000 -1.000000 0.000000
vn 0.000000 -1.000000 -0.000000
vn 0.000000 -1.000000 -0.000000
vn 0.000000 -1.000000 -0.000000
vn 0.000000 -1.000000 0.000000
vn 0.000000 -1.000000 0.000000
vn 0.000000 1.000000 -0.000000
vn 0.000000 1.000000 -0.000000
vn 0.000000 1.000000 -0.000000
vn 0.000000 1.000000 -0.000000
vn 0.000000 1.000000 0.000000
vn 0.000000 1.000000 0.000000
vn 0.000000 -1.000000 0.000000
vn 0.000000 -1.000000 0.000000
vn 0.000000 -1.000000 0.000000
vn 0.000000 -1.000000 -0.000000
vn 0.000000 -1.000000 -0.000000
vn 0.000000 -1.000000 0.000000
vn 0.000000 -1.000000 0.000000
vn 0.000000 -1.000000 0.000000
vn 0.000000 1.000000 0.000000
vn 0.000000 1.000000 0.000000
vn 0.000000 1.000000 0.000000
vn 0.000000 1.000000 0.000000
vn 0.000000 1.000000 0.000000
vn 0.000000 1.000000 0.000000
vn 0.000000 1.000000 0.000000
vn 0.000000 1.000000 0.000000
vn 0.000000 1.000000 0.000000
vn 0.000000 1.000000 0.000000
vn 0.707107 0.000000 0.707107
vn 0.707107 0.000000 0.707107
vn 0.707107 0.000000 0.707107
vn 0.707107 0.000000 0.707107
vn 0.000000 1.000000 -0.000000
vn 0.000000 1.000000 -0.000000
vn 0.000000 1.000000 -0.000000
vn 0.000000 1.000000 -0.000000
vn -0.707113 -0.000007 -0.707100
vn -0.707114 -0.000008 -0.707099
vn -0.707114 -0.000008 -0.707100
vn -0.707113 -0.000006 -0.707101
vn 0.000000 -1.000000 -0.000000
vn 0.000000 -1.000000 -0.000000
vn 0.000000 -1.000000 -0.000000
vn 0.000000 -1.000000 -0.000000
vn 0.000001 0.000000 -1.000000
vn 0.000001 0.000000 -1.000000
vn 0.000001 0.000000 -1.000000
vn 0.000001 0.000000 -1.000000
vn -0.707106 0.000000 -0.707107
vn -0.707106 0.000000 0.707108
vn -0.707106 0.000000 0.707108
vn -0.707106 0.000000 0.707108
vn -0.707106 0.000000 0.707108
vn 0.000000 -1.000000 0.000000
vn 0.000000 -1.000000 0.000000
vn 0.000000 -1.000000 0.000000
vn 0.000000 -1.000000 0.000000
vn -1.000000 0.000000 0.000000
vn -1.000000 0.000000 0.000000
vn -1.000000 0.000000 0.000000
vn -1.000000 0.000000 0.000000
vn 0.000000 1.000000 0.000000
vn 0.000000 1.000000 0.000000
vn 0.000000 1.000000 0.000000
vn 1.000000 0.000000 0.000000
vn 1.000000 0.000000 0.000000
vn 1.000000 0.000000 0.000000
vn -0.000043 0.707116 -0.707098
vn -0.000043 0.707116 -0.707098
vn -0.000043 0.707116 -0.707098
vn -0.000043 0.707116 -0.707098
vn 0.707107 0.000000 0.707107
vn 1.000000 0.000000 0.000000
vn 1.000000 0.000000 0.000000
vn -0.707107 0.000000 0.707107
vn -0.707107 0.000000 0.707107
vn -0.707107 0.000000 0.707107
vn -0.707107 0.000000 0.707107
vn 0.000000 1.000000 0.000000
vn 0.000000 1.000000 0.000000
vn 0.000000 1.000000 0.000000
vn 0.000000 1.000000 0.000000
vn 0.707113 -0.000007 -0.707100
vn 0.707113 -0.000006 -0.707101
vn 0.707114 -0.000008 -0.707100
vn 0.707114 -0.000008 -0.707099
vn 0.000000 -1.000000 0.000000
vn 0.000000 -1.000000 0.000000
vn 0.000000 -1.000000 0.000000
vn 0.000000 -1.000000 0.000000
vn -0.000001 0.000000 -1.000000
vn -0.000001 0.000000 -1.000000
vn -0.000001 0.000000 -1.000000
vn -0.000001 0.000000 -1.000000
vn 0.707106 0.000000 -0.707107
vn 0.707106 0.000000 0.707108
vn 0.707106 0.000000 0.707108
vn 0.707106 0.000000 0.707108
vn 0.707106 0.000000 0.707108
vn 0.000000 -1.000000 0.000001
vn 0.000000 -1.000000 0.000001
vn 0.000000 -1.000000 0.000001
vn 0.000000 -1.000000 0.000001
vn 0.000000 0.000000 1.000000
vn 0.000000 0.000000 1.000000
vn 0.000000 0.000000 1.000000
vn 0.000000 0.000000 1.000000
vn 0.000000 1.000000 0.000000
vn 0.000000 1.000000 0.000000
vn 0.000000 1.000000 0.000000
vn 0.000000 1.000000 0.000000
vn 0.000000 0.000000 -1.000000
vn 0.000000 0.000000 -1.000000
vn 0.000000 0.000000 -1.000000
vn 0.000000 0.000000 -1.000000
vn 0.000000 -1.000000 0.000000
vn 0.000000 -1.000000 0.000000
vn 0.000000 -1.000000 0.000000
vn 0.000000 -1.000000 0.000000
vn 1.000000 0.000000 0.000000
vn 1.000000 0.000000 0.000000
vn 1.000000 0.000000 0.000000
vn 1.000000 0.000000 0.000000
vn 0.000000 1.000000 0.000000
vn 0.000000 1.000000 0.000000
vn 0.000000 1.000000 0.000000
vn -1.000000 0.000000 0.000000
vn -1.000000 0.000000 0.000000
vn -1.000000 0.000000 0.000000
vn 0.000043 0.707115 -0.707098
vn 0.000043 0.707115 -0.707098
vn 0.000043 0.707116 -0.707098
vn 0.000043 0.707115 -0.707098
vn -0.707107 0.000000 0.707107
vn -1.000000 0.000000 0.000000
vn -1.000000 0.000000 0.000000
vn 0.000000 0.000000 1.000000
vn 0.000000 0.000000 1.000000
vn 0.000000 0.000000 1.000000
vn 0.000000 0.000000 1.000000
vn 1.000000 0.000000 0.000000
vn 1.000000 0.000000 0.000000
vn 1.000000 0.000000 0.000000
vn 1.000000 0.000000 0.000000
vn -0.707107 0.000000 0.707107
vn -0.707107 0.000000 0.707107
vn -0.707107 0.000000 0.707107
vn -0.707107 0.000000 0.707107
vn 0.707107 0.000000 0.707107
vn 0.707107 0.000000 0.707107
vn 0.707107 0.000000 0.707107
vn 0.707107 0.000000 0.707107
vn -1.000000 0.000000 0.000000
vn -1.000000 0.000000 0.000000
vn -1.000000 0.000000 0.000000
vn -1.000000 0.000000 0.000000
vn -0.017159 -0.998956 -0.042330
vn 0.017159 -0.998956 -0.042330
vn 0.013008 -0.998900 -0.045062
vn -0.013008 -0.998900 -0.045062
vn 0.034235 -0.999214 -0.020003
vn 0.033539 -0.999137 -0.024514
vn 0.037312 0.999304 0.000000
vn 0.034235 0.999214 -0.020003
vn 0.033539 0.999137 -0.024515
vn 0.037312 0.999304 0.000000
vn 0.017159 0.998956 -0.042330
vn -0.017159 0.998956 -0.042330
vn -0.013008 0.998900 -0.045062
vn 0.013008 0.998900 -0.045062
vn -0.034235 -0.999214 -0.020003
vn -0.033539 -0.999137 -0.024514
vn -0.034235 0.999214 -0.020003
vn -0.037312 0.999304 0.000000
vn -0.037312 0.999304 0.000000
vn -0.033539 0.999137 -0.024515
vn 0.037312 -0.999304 0.000000
vn 0.037312 -0.999304 0.000000
vn -0.037312 -0.999304 0.000000
vn -0.037312 -0.999304 0.000000
vn 0.000000 -0.000000 -1.000000
vn 0.000000 -0.000000 -1.000000
vn 0.000000 -0.000000 -1.000000
vn 0.000000 -0.000000 -1.000000
vn -0.000000 0.000000 -1.000000
vn -0.000000 0.000000 -1.000000
vn -0.000000 0.000000 -1.000000
vn -0.000000 0.000000 -1.000000
s 1
g geo_gunBase
f 1/25/1 2/26/2 14/27/3 13/28/4
f 2/26/2 3/45/5 15/46/6 14/27/3
f 3/45/5 4/35/7 16/38/8 15/46/6
f 4/35/7 5/36/9 17/37/10 16/38/8
f 5/36/9 6/39/11 18/40/12 17/37/10
f 6/39/11 7/41/13 19/42/14 18/40/12
f 7/41/13 8/43/15 20/44/16 19/42/14
f 8/43/15 9/47/17 21/48/18 20/44/16
f 9/47/17 10/33/19 22/34/20 21/48/18
f 10/33/19 11/31/21 23/32/22 22/34/20
f 11/31/21 12/29/23 24/50/24 23/32/22
f 12/49/23 1/25/1 13/28/4 24/30/24
s 2
f 11/1/25 10/2/26 8/3/27 7/4/28
f 2/11/29 4/10/30 3/12/31
s 4
f 23/13/32 19/14/33 20/15/34 22/16/35
f 18/17/36 24/18/37 13/20/38 17/21/39
s 2
f 5/8/40 1/9/41 12/7/42 6/6/43
f 5/8/40 4/10/30 2/11/29 1/9/41
f 11/1/25 7/4/28 6/6/43 12/7/42
f 8/3/27 10/2/26 9/5/44
s 4
f 17/21/39 13/20/38 14/22/45 16/23/46
f 16/23/46 14/22/45 15/24/47
f 18/17/36 19/14/33 23/13/32 24/18/37
f 22/16/35 20/15/34 21/19/48
s off
f 28/51/49 26/52/50 30/53/51 32/54/52
f 36/55/53 34/56/54 38/57/55 40/58/56
f 31/59/57 29/60/58 39/61/59 37/62/60
f 33/63/61 35/64/62 25/65/63 27/66/64
s 5
f 27/66/65 28/51/66 34/56/67 33/63/68
s off
f 25/67/69 26/52/70 28/51/71 27/68/72
f 30/53/73 29/69/74 31/70/75 32/54/76
s 6
f 30/53/77 40/71/78 39/72/79 29/73/80
s off
f 33/63/81 34/74/82 36/75/83 35/64/84
f 38/76/85 37/62/86 39/61/87 40/77/88
s 5
f 38/57/89 32/54/90 31/59/91 37/62/92
f 34/56/67 28/51/66 32/54/90 38/57/89
s 6
f 35/78/93 36/79/94 26/52/95 25/80/96
f 26/52/95 36/79/94 40/71/78 30/53/77
s 7
f 41/81/97 42/82/98 58/83/99 57/84/100
f 42/82/98 43/85/101 59/86/102 58/83/99
f 43/85/101 44/87/103 60/88/104 59/86/102
f 44/89/103 45/90/105 61/91/106 60/92/104
f 45/90/105 46/93/107 62/94/108 61/91/106
f 46/93/107 47/95/109 63/96/110 62/94/108
f 47/95/109 48/97/111 64/98/112 63/96/110
f 48/97/111 49/99/113 65/100/114 64/98/112
f 49/99/113 50/101/115 66/102/116 65/100/114
f 50/101/115 51/103/117 67/104/118 66/102/116
f 51/103/117 52/105/119 68/106/120 67/104/118
f 52/105/119 53/107/121 69/108/122 68/106/120
f 53/107/121 54/109/123 70/110/124 69/108/122
f 54/109/123 55/111/125 71/112/126 70/110/124
f 55/111/125 56/113/127 72/114/128 71/112/126
f 56/113/127 41/81/97 57/84/100 72/114/128
s 8
f 51/115/129 50/116/130 46/117/131 45/118/132
f 42/119/133 54/120/134 53/121/135 43/122/136
s 10
f 60/123/137 61/124/138 67/125/139 68/126/140
f 60/123/137 68/126/140 69/127/141 59/128/142
s 8
f 43/122/136 53/121/135 52/129/143 44/130/144
f 56/131/145 55/132/146 41/133/147
f 41/133/147 55/132/146 54/120/134 42/119/133
f 51/115/129 45/118/132 44/130/144 52/129/143
f 47/134/148 49/135/149 48/136/150
f 46/117/131 50/116/130 49/135/149 47/134/148
s 10
f 66/137/151 62/138/152 63/139/153 65/140/154
f 67/125/139 61/124/138 62/138/152 66/137/151
f 65/140/154 63/139/153 64/141/155
f 58/142/156 70/143/157 71/144/158 57/145/159
f 59/128/142 69/127/141 70/143/157 58/142/156
f 57/145/159 71/144/158 72/146/160
s 11
f 81/147/161 74/148/162 76/149/163 75/150/164
s off
f 75/151/165 76/152/166 78/153/167 77/154/168
s 12
f 82/155/169 77/156/170 78/157/171 80/158/172
s off
f 79/159/173 80/160/174 74/161/175 73/162/176
f 84/163/177 83/164/178 85/165/179 86/166/180
s 12
f 82/155/169 80/158/172 79/167/181
s off
f 82/168/182 81/169/183 75/151/184 77/154/185
f 74/161/186 80/160/187 83/170/188 84/171/189
f 83/172/190 80/158/191 78/157/192 85/173/193
f 78/153/194 76/152/195 87/174/196
s 13
f 86/175/197 74/148/198 84/176/199
s off
f 85/165/200 78/153/201 87/174/202 86/166/203
s 11
f 73/177/204 74/148/162 81/147/161
s 13
f 76/149/205 74/148/198 86/175/197 87/178/206
s 14
f 96/179/207 90/180/208 91/181/209 89/182/210
s off
f 90/183/211 92/184/212 93/185/213 91/186/214
s 15
f 97/187/215 95/188/216 93/189/217 92/190/218
s off
f 94/191/219 88/192/220 89/193/221 95/194/222
f 99/195/223 101/196/224 100/197/225 98/198/226
s 15
f 97/187/215 94/199/227 95/188/216
s off
f 97/200/228 92/184/229 90/183/230 96/201/231
f 73/202/232 88/203/233 94/204/234 79/205/235
f 81/206/236 96/207/237 88/208/238 73/209/239
f 82/210/240 97/211/241 96/212/242 81/213/243
f 79/214/244 94/215/245 97/216/246 82/217/247
f 89/193/248 99/218/249 98/219/250 95/194/251
f 98/220/252 100/221/253 93/189/254 95/188/255
f 93/185/256 102/222/257 91/186/258
s 16
f 101/223/259 99/224/260 89/182/261
s off
f 100/197/262 101/196/263 102/222/264 93/185/265
s 14
f 88/225/266 96/179/207 89/182/210
s 16
f 91/181/267 102/226/268 101/223/259 89/182/261
s off
f 106/227/269 104/228/270 108/229/271 110/230/272
f 109/231/273 107/232/274 112/233/275 114/234/276
f 103/235/277 104/228/278 106/227/279 105/236/280
f 109/237/281 110/230/282 108/229/283 107/238/284
f 113/239/285 111/240/286 103/241/287 105/242/288
s 17
f 108/243/289 104/244/290 115/245/291 116/246/292
f 104/244/290 103/247/293 117/248/294 115/245/291
s 18
f 113/249/295 105/250/296 118/251/297 119/252/298
f 106/253/299 110/254/300 121/255/301 120/256/302
f 105/250/296 106/253/299 120/256/302 118/251/297
s 17
f 107/257/303 108/243/289 116/246/292 122/258/304
s 18
f 109/259/305 114/260/306 124/261/307 123/262/308
f 110/254/300 109/259/305 123/262/308 121/255/301
s 17
f 103/247/293 111/263/309 125/264/310 117/248/294
f 112/265/311 107/257/303 122/258/304 126/266/312
s off
f 114/267/313 112/268/314 126/269/315 124/270/316
f 111/271/317 113/272/318 119/273/319 125/274/320
