# Blender v2.93.1 OBJ File: 'GT_Biodomes.blend'
# www.blender.org
v 1.499611 0.271771 1.499242
v 1.918833 0.261136 3.063801
v 2.309486 0.261136 2.901987
v 2.644947 0.261136 2.644579
v 2.902356 0.261136 2.309118
v 3.064170 0.261136 1.918464
v 3.119361 0.261136 1.499242
v 2.644947 0.261136 0.353906
v 2.902356 0.261136 0.689367
v 3.064170 0.261136 1.080021
v 1.499611 0.261136 3.118993
v 1.080389 0.261136 3.063801
v 0.689735 0.261136 2.901987
v 0.354275 0.261136 2.644579
v 0.096866 0.261136 2.309118
v -0.064948 0.261136 1.918464
v -0.120139 0.261136 1.499242
v 0.354275 0.261136 0.353905
v 0.096866 0.261136 0.689367
v -0.064948 0.261136 1.080021
v 1.499611 0.261136 -0.120508
v 1.918833 0.261136 -0.065317
v 1.080389 0.261136 -0.065317
v 0.689735 0.261136 0.096497
v 2.309487 0.261136 0.096497
v 1.499611 0.261136 1.080021
v 1.499611 0.261136 0.689367
v 1.499611 0.266454 0.353906
v 1.499611 0.261136 0.096497
v 1.499611 0.250501 1.918464
v 1.499611 0.271771 2.309118
v 1.499611 0.266454 2.644579
v 1.499611 0.261136 2.901987
v 1.918832 0.271771 1.080021
v 1.918833 0.261136 0.689367
v 1.918832 0.250501 0.353906
v 1.918833 0.255819 0.096497
v 1.918832 0.255819 2.644579
v 1.918832 0.266454 1.499242
v 1.918832 0.261136 2.901987
v 1.918832 0.266454 2.309118
v 1.918832 0.277088 1.918464
v 2.305034 0.266454 0.689367
v 2.302099 0.245184 1.080021
v 2.307553 0.261136 0.353906
v 2.290349 0.277088 2.644579
v 2.298951 0.271771 1.499242
v 2.288415 0.261136 2.901987
v 2.292868 0.255819 2.309118
v 2.295802 0.261136 1.918464
v 2.288349 0.261136 2.910743
v 2.644947 0.266454 1.080021
v 2.644947 0.250501 1.918464
v 2.644947 0.255819 1.499242
v 2.644947 0.261136 2.309118
v 2.644947 0.234549 0.689367
v 2.902359 0.266454 1.080021
v 2.902363 0.266454 1.499242
v 2.902368 0.261136 1.918464
v 1.080389 0.271771 1.499242
v 1.080389 0.255819 2.901987
v 1.080390 0.277088 1.080021
v 1.080390 0.261136 0.353906
v 1.080389 0.245184 0.689367
v 1.080390 0.266454 0.096497
v 1.080389 0.271771 1.918464
v 1.080389 0.271771 2.309118
v 1.080389 0.271771 2.644579
v 0.689735 0.255819 0.689367
v 0.689735 0.239866 2.309118
v 0.689735 0.261136 1.499242
v 0.689735 0.261136 0.353905
v 0.689735 0.266454 1.918464
v 0.689735 0.255819 1.080021
v 0.689735 0.261136 2.644579
v 0.354275 0.255819 0.689367
v 0.354275 0.250501 1.499242
v 0.354275 0.261136 1.080021
v 0.354275 0.250501 2.309118
v 0.354275 0.277088 1.918464
v 0.096866 0.266454 1.499242
v 0.096866 0.250501 1.918464
v 0.096866 0.266454 1.080021
vt 0.631917 0.323381
vt 0.647885 0.307413
vt 0.647885 0.323381
vt 0.615949 0.307413
vt 0.631917 0.307413
vt 0.647885 0.339349
vt 0.631917 0.339349
vt 0.615949 0.339349
vt 0.615949 0.323381
vt 0.647885 0.354229
vt 0.631917 0.354229
vt 0.572324 0.339349
vt 0.578487 0.339349
vt 0.578487 0.354229
vt 0.631917 0.367006
vt 0.588292 0.354229
vt 0.588292 0.367006
vt 0.647885 0.367006
vt 0.631917 0.376811
vt 0.601069 0.367006
vt 0.601069 0.376811
vt 0.647885 0.382974
vt 0.631917 0.385076
vt 0.615949 0.376811
vt 0.615949 0.382974
vt 0.691510 0.307413
vt 0.685347 0.307413
vt 0.685347 0.292533
vt 0.631917 0.292533
vt 0.675542 0.292533
vt 0.675542 0.279755
vt 0.615949 0.279755
vt 0.631917 0.279755
vt 0.631917 0.269951
vt 0.662036 0.279755
vt 0.662765 0.269951
vt 0.615949 0.263788
vt 0.631917 0.261685
vt 0.661962 0.269951
vt 0.661960 0.269617
vt 0.662483 0.339349
vt 0.662595 0.354229
vt 0.662363 0.323381
vt 0.647885 0.376811
vt 0.662691 0.367006
vt 0.662765 0.376811
vt 0.647885 0.292533
vt 0.647885 0.263788
vt 0.662243 0.307413
vt 0.647885 0.279755
vt 0.647885 0.269951
vt 0.675542 0.323381
vt 0.675542 0.339349
vt 0.675542 0.307413
vt 0.675542 0.367006
vt 0.662132 0.292533
vt 0.675542 0.354229
vt 0.685347 0.354229
vt 0.685347 0.323381
vt 0.685347 0.339349
vt 0.693612 0.323381
vt 0.691510 0.339349
vt 0.615949 0.269951
vt 0.601069 0.269951
vt 0.615949 0.292533
vt 0.601069 0.279755
vt 0.615949 0.354229
vt 0.601069 0.323381
vt 0.615949 0.367006
vt 0.601069 0.307413
vt 0.601069 0.292533
vt 0.588292 0.279755
vt 0.588292 0.292533
vt 0.588292 0.339349
vt 0.588292 0.323381
vt 0.588292 0.307413
vt 0.601069 0.339349
vt 0.601069 0.354229
vt 0.578487 0.307413
vt 0.578487 0.292533
vt 0.578487 0.323381
vt 0.572324 0.307413
vt 0.570222 0.323381
vn 0.0032 1.0000 0.0063
vn 0.0072 1.0000 -0.0010
vn 0.0059 1.0000 0.0004
vn 0.0056 1.0000 -0.0002
vn -0.0063 1.0000 -0.0018
vn 0.0169 0.9996 -0.0220
vn 0.0096 0.9998 -0.0159
vn -0.0196 0.9993 -0.0327
vn -0.0120 0.9999 0.0047
vn 0.0055 0.9999 -0.0108
vn -0.0055 1.0000 0.0016
vn -0.0314 0.9995 -0.0061
vn -0.0061 1.0000 -0.0068
vn 0.0134 0.9999 -0.0042
vn 0.0072 0.9999 -0.0075
vn 0.0121 0.9999 0.0030
vn 0.0047 0.9999 0.0122
vn 0.0031 1.0000 -0.0074
vn 0.0078 1.0000 -0.0031
vn -0.0000 1.0000 0.0079
vn -0.0046 1.0000 -0.0003
vn -0.0003 0.9996 0.0272
vn 0.0000 1.0000 -0.0000
vn -0.0005 1.0000 -0.0061
vn -0.0003 0.9996 -0.0272
vn 0.0042 1.0000 0.0059
vn -0.0168 0.9999 0.0021
vn 0.0048 1.0000 -0.0047
vn -0.0061 1.0000 -0.0039
vn 0.0179 0.9998 -0.0033
vn -0.0132 0.9995 0.0290
vn 0.0172 0.9997 0.0199
vn 0.0043 1.0000 0.0084
vn 0.0048 0.9999 0.0096
vn 0.0155 0.9985 0.0523
vn 0.0003 0.9996 -0.0272
vn -0.0088 0.9997 0.0229
vn 0.0052 1.0000 -0.0022
vn 0.0201 0.9998 -0.0009
vn 0.0241 0.9997 -0.0105
vn -0.0026 0.9997 0.0248
vn 0.0004 1.0000 0.0059
vn -0.0092 0.9999 0.0044
vn 0.0110 0.9998 0.0167
vn 0.0244 0.9997 0.0074
vn -0.0113 0.9998 0.0171
vn 0.0000 0.9999 -0.0103
vn -0.0094 0.9999 0.0066
vn -0.0264 0.9996 -0.0031
vn -0.0037 1.0000 -0.0055
vn -0.0234 0.9979 0.0611
vn 0.0162 0.9998 -0.0153
vn -0.0163 0.9998 -0.0129
vn -0.0636 0.9979 -0.0074
vn -0.0057 1.0000 0.0080
vn 0.0164 0.9998 -0.0068
vn 0.0245 0.9997 0.0000
vn 0.0314 0.9995 -0.0061
vn -0.0060 0.9999 0.0088
vn 0.0093 0.9999 -0.0045
vn -0.0248 0.9997 0.0013
vn -0.0107 0.9998 -0.0148
vn -0.0156 0.9999 -0.0068
vn -0.0208 0.9997 -0.0112
vn -0.0042 0.9998 0.0216
vn -0.0011 0.9998 0.0208
vn -0.0248 0.9997 0.0023
vn 0.0094 0.9997 -0.0245
vn 0.0191 0.9998 -0.0008
vn 0.0168 0.9999 -0.0037
vn 0.0006 1.0000 -0.0025
vn -0.0423 0.9991 0.0095
vn -0.0109 0.9998 -0.0184
vn 0.0099 0.9999 0.0115
vn 0.0091 1.0000 0.0039
vn 0.0446 0.9986 -0.0286
vn 0.0199 0.9997 0.0158
vn 0.0500 0.9987 0.0053
vn -0.0245 0.9997 -0.0000
s 1
f 1/1/1 42/2/2 39/3/3
f 1/1/1 66/4/4 30/5/5
f 1/1/1 34/6/6 26/7/7
f 1/1/1 62/8/8 60/9/9
f 26/7/7 35/10/10 27/11/11
f 20/12/12 83/13/13 19/14/14
f 35/10/10 28/15/15 27/11/11
f 19/14/14 76/16/16 18/17/17
f 36/18/18 29/19/19 28/15/15
f 18/17/17 72/20/20 24/21/21
f 29/19/19 22/22/22 21/23/23
f 24/21/21 65/24/24 23/25/25
f 6/26/26 59/27/27 5/28/23
f 66/4/4 31/29/28 30/5/5
f 5/28/23 55/30/29 4/31/30
f 31/29/28 68/32/31 32/33/32
f 68/32/31 33/34/33 32/33/32
f 46/35/34 3/36/35 4/31/30
f 33/34/33 12/37/36 11/38/23
f 3/36/35 48/39/37 51/40/23
f 35/10/10 44/41/38 43/42/39
f 34/6/6 47/43/40 44/41/38
f 37/44/41 45/45/42 25/46/43
f 42/2/2 31/29/28 41/47/44
f 2/48/23 33/34/33 11/38/23
f 39/3/3 50/49/45 47/43/40
f 36/18/18 43/42/39 45/45/42
f 22/22/22 37/44/41 25/46/43
f 38/50/46 33/34/33 40/51/47
f 41/47/44 32/33/32 38/50/46
f 44/41/38 54/52/48 52/53/49
f 47/43/40 53/54/50 54/52/48
f 25/46/43 45/45/42 8/55/51
f 49/56/52 42/2/2 41/47/44
f 51/40/23 40/51/47 2/48/23
f 45/45/42 56/57/53 8/55/51
f 43/42/39 52/53/49 56/57/53
f 48/39/37 38/50/46 40/51/47
f 46/35/34 41/47/44 38/50/46
f 8/55/51 56/57/53 9/58/54
f 55/30/29 50/49/45 49/56/52
f 52/53/49 9/58/54 56/57/53
f 54/52/48 59/27/27 58/59/55
f 52/53/49 58/59/55 57/60/56
f 4/31/30 49/56/52 46/35/34
f 58/59/55 6/26/26 7/61/57
f 59/27/27 55/30/29 5/28/23
f 58/59/55 10/62/58 57/60/56
f 9/58/54 57/60/56 10/62/58
f 23/25/25 29/19/19 21/23/23
f 12/37/36 61/63/59 13/64/60
f 67/65/61 75/66/62 68/32/31
f 62/8/8 27/11/11 64/67/63
f 62/8/8 71/68/64 60/9/9
f 63/69/65 29/19/19 65/24/24
f 61/63/59 75/66/62 13/64/60
f 67/65/61 73/70/66 70/71/67
f 60/9/9 73/70/66 66/4/4
f 63/69/65 27/11/11 28/15/15
f 13/64/60 75/66/62 14/72/68
f 73/70/66 79/73/69 70/71/67
f 71/68/64 78/74/70 77/75/71
f 24/21/21 63/69/65 65/24/24
f 71/68/64 80/76/72 73/70/66
f 74/77/73 64/67/63 69/78/74
f 75/66/62 79/73/69 14/72/68
f 69/78/74 63/69/65 72/20/20
f 76/16/16 74/77/73 69/78/74
f 77/75/71 82/79/75 80/76/72
f 79/73/69 82/79/75 15/80/76
f 78/74/70 81/81/77 77/75/71
f 18/17/17 69/78/74 72/20/20
f 14/72/68 79/73/69 15/80/76
f 15/80/76 82/79/75 16/82/78
f 19/14/14 78/74/70 76/16/16
f 81/81/77 20/12/12 17/83/79
f 81/81/77 16/82/78 82/79/75
f 1/1/1 30/5/5 42/2/2
f 1/1/1 60/9/9 66/4/4
f 1/1/1 39/3/3 34/6/6
f 1/1/1 26/7/7 62/8/8
f 26/7/7 34/6/6 35/10/10
f 35/10/10 36/18/18 28/15/15
f 36/18/18 37/44/41 29/19/19
f 29/19/19 37/44/41 22/22/22
f 66/4/4 67/65/61 31/29/28
f 31/29/28 67/65/61 68/32/31
f 68/32/31 61/63/59 33/34/33
f 46/35/34 48/39/37 3/36/35
f 33/34/33 61/63/59 12/37/36
f 35/10/10 34/6/6 44/41/38
f 34/6/6 39/3/3 47/43/40
f 37/44/41 36/18/18 45/45/42
f 42/2/2 30/5/5 31/29/28
f 2/48/23 40/51/47 33/34/33
f 39/3/3 42/2/2 50/49/45
f 36/18/18 35/10/10 43/42/39
f 38/50/46 32/33/32 33/34/33
f 41/47/44 31/29/28 32/33/32
f 44/41/38 47/43/40 54/52/48
f 47/43/40 50/49/45 53/54/50
f 49/56/52 50/49/45 42/2/2
f 51/40/23 48/39/37 40/51/47
f 45/45/42 43/42/39 56/57/53
f 43/42/39 44/41/38 52/53/49
f 48/39/37 46/35/34 38/50/46
f 46/35/34 49/56/52 41/47/44
f 55/30/29 53/54/50 50/49/45
f 52/53/49 57/60/56 9/58/54
f 54/52/48 53/54/50 59/27/27
f 52/53/49 54/52/48 58/59/55
f 4/31/30 55/30/29 49/56/52
f 58/59/55 59/27/27 6/26/26
f 59/27/27 53/54/50 55/30/29
f 58/59/55 7/61/57 10/62/58
f 23/25/25 65/24/24 29/19/19
f 67/65/61 70/71/67 75/66/62
f 62/8/8 26/7/7 27/11/11
f 62/8/8 74/77/73 71/68/64
f 63/69/65 28/15/15 29/19/19
f 61/63/59 68/32/31 75/66/62
f 67/65/61 66/4/4 73/70/66
f 60/9/9 71/68/64 73/70/66
f 63/69/65 64/67/63 27/11/11
f 73/70/66 80/76/72 79/73/69
f 71/68/64 74/77/73 78/74/70
f 24/21/21 72/20/20 63/69/65
f 71/68/64 77/75/71 80/76/72
f 74/77/73 62/8/8 64/67/63
f 75/66/62 70/71/67 79/73/69
f 69/78/74 64/67/63 63/69/65
f 76/16/16 78/74/70 74/77/73
f 77/75/71 81/81/77 82/79/75
f 79/73/69 80/76/72 82/79/75
f 78/74/70 83/13/13 81/81/77
f 18/17/17 76/16/16 69/78/74
f 19/14/14 83/13/13 78/74/70
f 81/81/77 83/13/13 20/12/12
f 81/81/77 17/83/79 16/82/78
