# Blender v2.82 (sub 7) OBJ File: 'HE_Left_Tank_Tusk.blend'
# www.blender.org
mtllib HE_Left_Tank_Tusk_Collider.mtl
o Collider_Plane.002
v 1.943923 -0.203172 -1.155367
v 1.946906 1.370979 -0.216904
v -1.276019 1.367505 1.433744
v -1.797937 1.043863 1.601682
v -1.307004 -0.202878 0.359088
v -1.924634 0.447815 1.415731
v -1.302340 -0.037801 0.655640
v -1.439214 0.205132 0.983516
v -1.690452 0.353841 1.235134
v 1.017564 1.453317 0.335875
v -1.840955 0.792054 1.538588
v 1.948720 1.062223 -0.286978
v 1.949308 0.792009 -0.363338
v 1.947284 0.408297 -0.530019
v 1.946413 0.304217 -0.597913
v 1.945544 0.162624 -0.711463
v 1.943901 -0.067535 -0.937729
v 2.000000 -0.297250 -1.048504
v -1.364107 -0.297250 0.504740
v -1.859801 0.697545 1.510888
v 1.947259 0.697630 -0.399901
v -1.797937 1.043863 1.651682
v 1.948720 1.062223 -0.236978
v -1.276019 1.367505 1.483744
v 1.017564 1.453317 0.385875
v 1.946906 1.370979 -0.166904
v -1.840955 0.792054 1.588588
v 1.949308 0.792009 -0.313338
v 1.943901 -0.067535 -0.887729
v -1.302340 -0.037801 0.705640
v -1.439214 0.205132 1.033516
v 1.945544 0.162624 -0.661463
v -1.690452 0.353841 1.285134
v 1.946413 0.304217 -0.547913
v -1.924634 0.447815 1.465731
v 1.947284 0.408297 -0.480019
v 1.943923 -0.203172 -1.105367
v -1.307004 -0.202878 0.409088
v -1.859801 0.697545 1.560888
v 1.947259 0.697630 -0.349901
v -1.844444 1.056384 1.663629
v -1.816550 1.053712 1.614391
v -1.279624 1.386467 1.441932
v -1.285026 1.402795 1.484394
v 1.027430 1.489444 0.377060
v 1.021513 1.472597 0.340323
v 1.968180 1.388570 -0.221844
v 2.000000 1.403709 -0.198953
v 1.969208 1.064719 -0.296553
v 2.000000 1.057372 -0.280864
v 2.000000 -0.066852 -0.916886
v 1.966360 -0.062669 -0.941831
v 1.966367 -0.214136 -1.184929
v 2.000000 -0.242180 -1.197759
v -1.329848 -0.213955 0.350723
v -1.364107 -0.243069 0.369406
v -1.728061 0.303999 1.256131
v -1.705559 0.338773 1.231198
v -1.949044 0.436240 1.420043
v -1.985500 0.406767 1.456920
v -1.324687 -0.044866 0.657365
v -1.357944 -0.067897 0.691193
v -1.458639 0.193152 0.981929
v -1.487599 0.162848 1.010641
v -1.899263 0.731611 1.583235
v -1.871094 0.734340 1.534313
v 1.968830 0.751172 -0.385868
v 2.000000 0.732633 -0.373789
v 1.968353 0.412556 -0.537972
v 2.000000 0.407840 -0.519798
v 1.967829 0.309057 -0.604774
v 2.000000 0.305132 -0.584735
v 1.967306 0.167686 -0.717304
v 2.000000 0.163970 -0.695400
v -1.357944 -0.067897 0.691193
v -1.364107 -0.297250 0.504740
v -1.807986 1.001788 1.781695
v -1.844444 1.013379 1.771046
v -1.285026 1.359841 1.591683
v -1.295120 1.318751 1.617683
v 1.021601 1.405842 0.507134
v 1.027430 1.446413 0.484546
v 2.000000 1.358954 -0.077656
v 1.969882 1.320995 -0.038149
v -1.862915 0.677028 1.701463
v -1.899263 0.688558 1.690773
v -1.689452 0.249645 1.383923
v -1.728061 0.260414 1.373772
v -1.985500 0.363763 1.564335
v -1.948759 0.352269 1.574956
v -1.487599 0.117241 1.170546
v -1.449818 0.108607 1.182493
v 2.000000 1.012432 -0.159067
v 1.969016 1.001788 -0.114661
v 2.000000 0.687579 -0.251682
v 1.968925 0.677028 -0.207606
v 2.000000 0.362736 -0.397556
v 1.968805 0.352269 -0.353829
v 2.000000 0.259434 -0.451874
v 1.968750 0.249645 -0.408105
v 2.000000 0.116476 -0.519761
v 1.968855 0.110011 -0.474720
v -1.329109 -0.582289 0.900367
v 1.968946 -0.527485 -0.707225
v -1.322428 -0.066030 1.038968
v -1.357944 -0.067897 1.020022
v -1.328989 -0.293013 0.967191
v -1.364107 -0.297250 0.947558
v 1.941348 -0.611911 -0.978123
v 2.000000 -0.559073 -0.997280
v 2.000000 -0.562363 -1.012617
v -1.364107 -0.561911 0.574629
v -1.305080 -0.611911 0.559868
v -1.305089 -0.611046 0.845973
v -1.364107 -0.561911 0.886342
v -1.329145 -0.582319 0.900340
v 2.000000 -0.507365 -0.746959
v 1.941493 -0.563432 -0.738512
v 1.968946 -0.527485 -0.707225
v -1.364107 -0.297250 0.504740
v 1.599309 0.900000 1.000000
v 1.800000 0.730000 1.000000
v 1.800000 0.730000 -0.229076
v 1.599309 0.900000 -0.073320
v 0.200000 0.730000 1.000000
v 0.400690 0.900000 1.000000
v 0.400690 0.900000 0.618453
v 0.200000 0.730000 0.669820
v 1.800000 0.314651 1.000000
v 1.622920 0.100000 1.000000
v 1.624894 -0.551663 -0.572406
v 1.800000 -0.436829 -0.735473
v 0.377080 0.100000 1.000000
v 0.200000 0.314651 1.000000
v 0.200000 -0.371150 0.082008
v 0.370382 -0.551663 0.056861
v 1.800000 -0.069155 0.625049
v 1.622920 -0.203667 0.703340
v 0.200000 -0.082711 0.611806
v 0.377080 -0.203667 0.703340
vt 0.667411 0.894424
vt 0.665788 0.898477
vt 0.678032 0.901503
vt 0.679653 0.897454
vt 0.751329 0.890698
vt 0.751329 0.894742
vt 0.677495 0.853011
vt 0.677495 0.848960
vt 0.692745 0.827248
vt 0.691058 0.831820
vt 0.677996 0.828751
vt 0.679690 0.824160
vt 0.646442 0.831820
vt 0.646442 0.827248
vt 0.655167 0.889663
vt 0.653546 0.893712
vt 0.667450 0.820658
vt 0.665751 0.825260
vt 0.653507 0.819762
vt 0.655207 0.815154
vt 0.646015 0.808535
vt 0.644225 0.813387
vt 0.639457 0.809802
vt 0.635435 0.805280
vt 0.637315 0.800187
vt 0.646442 0.789600
vt 0.646442 0.795226
vt 0.753854 0.853772
vt 0.753854 0.848671
vt 0.649613 0.817375
vt 0.651336 0.812706
vt 0.628630 0.795226
vt 0.630706 0.789600
vt 0.769191 0.901503
vt 0.768341 0.902273
vt 0.751979 0.896084
vt 0.677431 0.854061
vt 0.647200 0.833436
vt 0.665354 0.899563
vt 0.677591 0.902594
vt 0.751329 0.895839
vt 0.677569 0.854146
vt 0.653113 0.894794
vt 0.665350 0.899561
vt 0.689768 0.832710
vt 0.677726 0.829870
vt 0.677595 0.829839
vt 0.665508 0.826382
vt 0.665354 0.826338
vt 0.653329 0.820928
vt 0.653113 0.820831
vt 0.649483 0.818526
vt 0.649244 0.818375
vt 0.644205 0.814409
vt 0.643928 0.814191
vt 0.639796 0.810217
vt 0.639548 0.809978
vt 0.769191 0.897454
vt 0.639448 0.809881
vt 0.634194 0.804158
vt 0.656358 0.500000
vt 0.656358 0.750000
vt 0.843642 0.750000
vt 0.843642 0.500000
vt 0.152360 0.500000
vt 0.152669 0.625000
vt 0.347331 0.625000
vt 0.348378 0.500000
vt 0.375000 0.777669
vt 0.375000 0.972331
vt 0.442079 1.000000
vt 0.571875 1.000000
vt 0.625000 0.968642
vt 0.625000 0.781358
vt 0.571875 0.750000
vt 0.442079 0.750000
vt 0.414811 0.500000
vt 0.411175 0.604629
vt 0.596890 0.500000
vt 0.375000 0.277360
vt 0.375000 0.473378
vt 0.625000 0.468642
vt 0.625000 0.281358
vt 0.596890 0.250000
vt 0.403950 0.250000
vt 0.875000 0.750000
vt 0.875000 0.500000
vt 0.442079 0.000000
vt 0.399798 0.112000
vt 0.571875 0.000000
vt 0.125000 0.637222
vt 0.125000 0.750000
vt 0.152669 0.750000
vt 0.125000 0.509190
vt 0.125000 0.621768
vt 0.347331 0.750000
vt 0.764274 0.881303
vt 0.764274 0.883188
vt 0.756252 0.873703
vt 0.756252 0.871819
vt 0.651301 0.812210
vt 0.651301 0.814094
vt 0.655224 0.816653
vt 0.655224 0.814769
vt 0.752031 0.848282
vt 0.752031 0.850167
vt 0.648232 0.793082
vt 0.648232 0.791198
vt 0.648126 0.819673
vt 0.648126 0.821558
vt 0.769681 0.893582
vt 0.769681 0.891697
vt 0.647567 0.871819
vt 0.647567 0.873703
vt 0.638410 0.861345
vt 0.638410 0.859460
vt 0.679873 0.823930
vt 0.679873 0.825814
vt 0.691511 0.828456
vt 0.691511 0.826571
vt 0.769079 0.892741
vt 0.769079 0.894626
vt 0.648060 0.822936
vt 0.648060 0.821052
vt 0.751776 0.864846
vt 0.648311 0.806874
vt 0.648338 0.810559
vt 0.753588 0.870185
vt 0.639670 0.872048
vt 0.639671 0.872049
vt 0.640668 0.873430
vt 0.640102 0.872247
vt 0.639266 0.871424
vt 0.627426 0.793458
vt 0.634889 0.914304
vt 0.634597 0.787159
vt 0.645973 0.872841
vt 0.644254 0.877135
vt 0.649650 0.886198
vt 0.651293 0.882095
vt 0.765475 0.882095
vt 0.765475 0.886198
vt 0.773694 0.893712
vt 0.773694 0.889663
vt 0.752760 0.847967
vt 0.752595 0.859525
vt 0.751882 0.859460
vt 0.648233 0.799401
vt 0.647516 0.799246
vt 0.647516 0.790083
vt 0.756252 0.808504
vt 0.756872 0.808052
vt 0.764756 0.813541
vt 0.764274 0.814109
vt 0.648125 0.816162
vt 0.647452 0.816322
vt 0.647469 0.812421
vt 0.648153 0.812238
vt 0.772530 0.817215
vt 0.771751 0.817651
vt 0.647486 0.807092
vt 0.648180 0.806901
vt 0.444730 0.285308
vt 0.445091 0.286695
vt 0.322486 0.287330
vt 0.323175 0.285312
vt 0.647516 0.798409
vt 0.648233 0.798226
vt 0.770041 0.828451
vt 0.769681 0.827064
vt 0.769079 0.830626
vt 0.768300 0.840489
vt 0.767706 0.840118
vt 0.677810 0.855552
vt 0.677684 0.856278
vt 0.647458 0.853111
vt 0.648137 0.852448
vt 0.647425 0.840904
vt 0.648079 0.840810
vt 0.756872 0.871759
vt 0.751041 0.852317
vt 0.751156 0.853032
vt 0.647437 0.829085
vt 0.648060 0.830625
vt 0.751657 0.850483
vt 0.768026 0.838532
vt 0.647431 0.838532
vt 0.647413 0.850569
vt 0.677710 0.853777
vt 0.769780 0.826291
vt 0.647434 0.826291
vt 0.648126 0.827067
vt 0.565668 0.554268
vt 0.700420 0.548316
vt 0.755021 0.554027
vt 0.755127 0.575442
vt 0.535004 0.576715
vt 0.532477 0.594180
vt 0.755162 0.594183
vt 0.679181 0.895119
vt 0.679181 0.897004
vt 0.669689 0.894626
vt 0.669689 0.892741
vt 0.751041 0.888789
vt 0.751041 0.890674
vt 0.767706 0.897004
vt 0.767706 0.895119
vt 0.669688 0.821052
vt 0.669688 0.822936
vt 0.677810 0.847407
vt 0.677810 0.849292
vt 0.648137 0.826571
vt 0.648137 0.828456
vt 0.764242 0.810181
vt 0.647439 0.810181
vt 0.647438 0.814050
vt 0.772521 0.814050
vt 0.637275 0.860800
vt 0.630672 0.848671
vt 0.628630 0.853772
vt 0.630791 0.855529
vt 0.632953 0.857286
vt 0.640645 0.913029
vt 0.640645 0.776620
vt 0.646442 0.804158
vt 0.753688 0.863973
vt 0.609418 0.918775
vt 0.607186 0.795951
vt 0.323110 0.288869
vt 0.444129 0.288871
vt 0.512069 0.706114
vt 0.655307 0.709147
vt 0.661963 0.695178
vt 0.517076 0.695550
vt 0.674095 0.680119
vt 0.522255 0.681779
vt 0.688279 0.671723
vt 0.524857 0.673924
vt 0.700255 0.666769
vt 0.526403 0.668474
vt 0.700312 0.654331
vt 0.529428 0.654331
vt 0.771751 0.888110
vt 0.771751 0.889995
vt 0.645964 0.807930
vt 0.645964 0.809814
vt 0.666127 0.891697
vt 0.666127 0.893582
vt 0.656714 0.889995
vt 0.656714 0.888110
vt 0.632187 0.850167
vt 0.632187 0.848282
vt 0.637289 0.799401
vt 0.637289 0.801286
vt 0.632176 0.791198
vt 0.632176 0.793082
vt 0.666130 0.821558
vt 0.666130 0.819673
vt 0.646442 0.800187
vt 0.768300 0.895598
vt 0.751156 0.889098
vt 0.677684 0.847575
vt 0.647458 0.826385
vt 0.667514 0.892580
vt 0.679552 0.895598
vt 0.647516 0.792700
vt 0.646442 0.791643
vt 0.753854 0.791610
vt 0.752760 0.792707
vt 0.652604 0.881155
vt 0.656278 0.888273
vt 0.631770 0.847967
vt 0.638143 0.859525
vt 0.641624 0.866821
vt 0.647115 0.871759
vt 0.646442 0.853682
vt 0.646442 0.840627
vt 0.646442 0.828387
vt 0.646442 0.816144
vt 0.646442 0.812273
vt 0.646442 0.806952
vt 0.646442 0.798252
vt 0.641742 0.874149
vt 0.637275 0.860800
vt 0.607191 0.795949
vt 0.618430 0.794653
vt 0.634184 0.863973
vt 0.628630 0.853772
vt 0.628630 0.853772
vt 0.765475 0.887212
vt 0.772802 0.893971
vt 0.641755 0.874936
vt 0.643719 0.877659
vt 0.643928 0.877948
vt 0.648699 0.886262
vt 0.641743 0.874920
vt 0.607185 0.795950
vt 0.606083 0.797647
vt 0.608260 0.917964
vt 0.609053 0.919218
vt 0.646442 0.805879
vt 0.646442 0.806114
vt 0.755059 0.871018
vt 0.755502 0.871268
vt 0.646442 0.809484
vt 0.753657 0.865900
vn -0.9866 0.1515 0.0607
vn 0.1417 0.9190 0.3679
vn 1.0000 0.0000 0.0000
vn 0.2810 0.8960 0.3438
vn -0.9707 0.2230 0.0893
vn -0.1638 -0.9210 -0.3535
vn -0.0703 0.5457 0.8350
vn 0.4852 0.3948 0.7802
vn -0.3275 -0.1741 0.9287
vn 0.3799 0.4172 0.8256
vn -0.3449 -0.2599 0.9020
vn 0.8355 -0.1278 0.5344
vn 0.8259 -0.1550 0.5421
vn 0.8184 -0.2358 0.5240
vn 0.8119 -0.2725 0.5163
vn 0.8132 -0.2499 0.5256
vn 0.8189 -0.1965 0.5392
vn -0.4147 0.8448 0.3382
vn 0.6934 -0.6950 0.1900
vn 0.0000 1.0000 0.0000
vn 0.0853 -0.9369 0.3390
vn 0.0000 0.0000 1.0000
vn -1.0000 0.0000 0.0000
vn -0.4444 0.3155 -0.8384
vn 0.6464 0.7630 0.0000
vn -0.6464 0.7630 0.0000
vn 0.6464 -0.5332 0.5458
vn -0.6490 -0.6676 0.3649
vn 0.6534 -0.7305 0.1988
vn -0.6464 -0.5332 0.5458
vn 0.0000 -0.6988 0.7153
vn 0.4703 0.8825 0.0000
vn 0.4120 0.9112 0.0000
vn 0.6096 0.7927 0.0000
vn 0.7977 0.6030 0.0000
vn -1.0000 0.0068 0.0000
vn -1.0000 0.0077 0.0000
vn -1.0000 0.0027 0.0000
vn -1.0000 0.0054 0.0000
vn 0.0001 1.0000 0.0000
vn 0.0000 -1.0000 0.0000
vn 0.8712 0.4909 0.0000
vn -1.0000 -0.0037 0.0000
vn -1.0000 -0.0043 0.0000
vn -1.0000 -0.0059 0.0000
vn 0.0522 -0.9943 0.0933
vn -0.4610 -0.1998 0.8646
vn -0.4524 -0.2337 0.8606
vn -0.4548 -0.2246 0.8618
vn 0.4071 -0.3475 0.8447
vn 0.4093 -0.3654 0.8360
vn 0.3963 -0.4246 0.8140
vn -0.8122 -0.5736 -0.1065
vn -0.7426 -0.6488 -0.1660
vn -0.5821 -0.7644 -0.2773
vn -0.6121 -0.7477 -0.2576
vn -0.5430 -0.7838 -0.3015
vn -0.2480 0.8437 -0.4760
vn -0.2511 0.8438 -0.4743
vn -0.2977 0.7729 -0.5604
vn -0.2962 0.7774 -0.5549
vn -0.2887 0.7470 -0.5989
vn -0.2886 0.7474 -0.5984
vn -0.2506 0.8294 -0.4993
vn -0.2486 0.8306 -0.4983
vn -0.3379 0.6543 -0.6766
vn -0.3409 0.6474 -0.6816
vn -0.3653 0.5686 -0.7371
vn -0.3643 0.5744 -0.7330
vn -0.3862 0.4426 -0.8093
vn -0.3644 0.5464 -0.7541
vn -0.3648 0.4731 -0.8019
vn -0.3653 0.4788 -0.7983
vn -0.3266 0.6276 -0.7067
vn -0.3827 0.4026 -0.8315
vn -0.4133 0.3418 -0.8440
vn -0.4228 0.3333 -0.8427
vn -0.4004 0.3818 -0.8330
vn -0.4306 0.2846 -0.8565
vn -0.4371 0.2822 -0.8540
vn -0.4380 0.2814 -0.8538
vn -0.4436 0.2975 -0.8454
vn -0.4449 0.2982 -0.8445
vn -0.4347 0.2507 -0.8650
vn -0.4384 0.2573 -0.8612
vn -0.4310 0.2227 -0.8744
vn -0.4333 0.2817 -0.8561
vn -0.4338 0.2814 -0.8559
vn -0.4441 0.2594 -0.8576
vn 0.4330 -0.2774 0.8577
vn 0.4316 -0.2692 0.8610
vn 0.4320 -0.2715 0.8600
vn 0.4197 -0.3355 0.8434
vn 0.4189 -0.3398 0.8420
vn -0.4347 0.2862 -0.8539
vn -0.4342 0.2751 -0.8578
vn -0.4340 0.2706 -0.8593
vn -0.4337 0.2653 -0.8611
vn 0.9857 -0.1684 0.0000
vn 0.2372 -0.9715 0.0000
vn 0.3522 -0.9359 0.0000
vn 0.5270 -0.8499 0.0000
vn -1.0000 -0.0022 0.0000
vn -0.0446 -0.9990 0.0000
vn -0.0053 -1.0000 0.0000
vn -0.0883 -0.9961 0.0000
vn 0.3918 -0.4585 0.7977
vn 0.3986 -0.4326 0.8087
vn 0.4042 -0.4104 0.8174
vn -0.9997 0.0256 0.0016
vn -0.9998 0.0203 0.0081
vn -0.9999 0.0101 0.0041
vn -0.9999 0.0138 0.0032
vn 0.3944 -0.4358 0.8090
vn -0.4169 -0.1780 -0.8914
vn 0.4206 -0.3108 0.8523
vn 0.4141 -0.2171 0.8839
vn -0.2304 0.8409 -0.4897
vn -0.2908 0.7413 -0.6049
vn -0.2671 0.7842 -0.5601
vn -0.3451 0.6204 -0.7043
vn -0.3335 0.6487 -0.6840
vn -0.3765 0.5284 -0.7610
vn -0.3649 0.5652 -0.7399
vn -0.4059 0.4167 -0.8134
vn -0.3945 0.4638 -0.7933
vn -0.4110 0.3931 -0.8225
vn 0.3724 0.9281 0.0000
vn -1.0000 0.0069 0.0000
vn -1.0000 0.0064 0.0000
vn 0.9679 -0.2513 0.0000
vn 0.9996 -0.0282 0.0000
vn -1.0000 0.0016 0.0000
vn -1.0000 0.0057 0.0000
vn -1.0000 -0.0002 0.0000
vn -1.0000 -0.0001 0.0000
vn 0.4738 0.7026 -0.5309
vn 0.4896 0.6605 -0.5693
vn 0.4485 0.7584 -0.4730
vn -0.5720 0.7368 -0.3604
vn -0.4447 0.8142 -0.3733
vn -0.3652 0.8512 -0.3770
vn -0.1769 0.9057 -0.3852
vn -0.1892 0.9045 -0.3823
vn -0.1516 0.9078 -0.3910
vn -0.8198 0.3296 -0.4683
vn -0.8225 0.3208 -0.4698
vn -0.8382 0.2615 -0.4786
vn -0.4206 -0.0879 -0.9030
vn -0.6904 -0.0568 -0.7212
vn -0.6710 -0.0903 -0.7360
vn -0.6417 -0.1371 -0.7546
vn -0.7227 0.6115 -0.3220
vn -0.7759 0.4406 -0.4516
vn -0.7613 0.5038 -0.4081
vn -0.7910 0.2930 -0.5371
vn -0.7550 0.1060 -0.6471
vn -0.7750 0.1871 -0.6036
vn -0.8004 0.3876 -0.4574
vn 0.4962 0.1983 -0.8453
vn 0.4872 0.2208 -0.8449
vn 0.4882 0.2184 -0.8450
vn 0.4983 0.3102 -0.8096
vn 0.4915 0.2849 -0.8229
vn 0.5058 0.4053 -0.7615
vn 0.5052 0.4141 -0.7572
vn 0.5015 0.4958 -0.7090
vn 0.5018 0.5059 -0.7016
vn 0.5052 0.5613 -0.6555
vn 0.5065 0.5732 -0.6442
vn -0.9999 0.0157 0.0000
vn -0.9996 0.0269 0.0000
vn 0.4134 -0.2451 0.8769
vn -0.8701 -0.4908 -0.0458
vn -0.3084 -0.9398 0.1469
vn -0.3100 -0.9239 0.2241
vn -0.3064 -0.9470 0.0963
vn -0.3228 -0.7265 0.6067
vn -0.3239 -0.7992 0.5064
vn -0.3197 -0.8621 0.3932
vn -0.4458 -0.2585 0.8570
vn 0.2897 -0.7693 0.5694
vn 0.6914 -0.7077 0.1452
vn 0.6885 -0.7091 0.1521
vn 0.6900 -0.7084 0.1485
vn -0.6269 -0.7782 0.0376
vn -0.5500 -0.8140 0.1868
vn -0.6059 -0.7913 0.0821
vn 0.6917 -0.7075 0.1445
vn -0.6428 -0.7660 0.0011
usemtl Material.001
s off
f 65/1/1 86/2/1 78/3/1 41/4/1
f 44/5/2 79/6/2 82/7/2 45/8/2
f 48/9/3 83/10/3 93/11/3 50/12/3
f 45/8/4 82/7/4 83/13/4 48/14/4
f 60/15/5 89/16/5 86/2/5 65/1/5
f 68/17/3 95/18/3 97/19/3 70/20/3
f 74/21/3 101/22/3 117/23/3 110/24/3 51/25/3
f 54/26/6 18/27/6 19/28/6 56/29/6
f 50/12/3 93/11/3 95/18/3 68/17/3
f 70/20/3 97/19/3 99/30/3 72/31/3
f 72/31/3 99/30/3 101/22/3 74/21/3
f 51/25/3 18/32/3 54/33/3
f 78/34/7 77/35/7 80/36/7 79/6/7
f 82/7/8 81/37/8 84/38/8 83/13/8
f 86/2/9 85/39/9 77/40/9 78/3/9
f 79/6/10 80/41/10 81/42/10 82/7/10
f 89/16/11 90/43/11 85/44/11 86/2/11
f 83/10/12 84/45/12 94/46/12 93/11/12
f 93/11/13 94/47/13 96/48/13 95/18/13
f 95/18/14 96/49/14 98/50/14 97/19/14
f 97/19/15 98/51/15 100/52/15 99/30/15
f 99/30/16 100/53/16 102/54/16 101/22/16
f 101/22/17 102/55/17 104/56/17 119/57/17 117/23/17
f 41/58/18 78/34/18 79/6/18 44/5/18
f 117/23/19 119/57/19 118/59/19
f 51/25/3 110/24/3 111/60/3 18/32/3
f 127/61/20 126/62/20 121/63/20 124/64/20
f 131/65/21 138/66/21 140/67/21 136/68/21
f 133/69/22 130/70/22 129/71/22 122/72/22 121/73/22 126/74/22 125/75/22 134/76/22
f 135/77/23 139/78/23 134/76/23 125/75/23 128/79/23
f 131/80/24 136/81/24 135/77/24 128/79/24 127/82/24 124/83/24 123/84/24 132/85/24
f 121/63/25 122/86/25 123/87/25 124/64/25
f 127/61/26 128/79/26 125/75/26 126/62/26
f 129/88/3 137/89/3 132/85/3 123/84/3 122/90/3
f 138/66/27 137/91/27 129/92/27 130/93/27
f 140/67/28 139/78/28 135/77/28 136/68/28
f 131/65/29 132/94/29 137/95/29 138/66/29
f 133/96/30 134/76/30 139/78/30 140/67/30
f 138/66/31 130/93/31 133/96/31 140/67/31
s 1
f 9/97/32 33/98/33 31/99/34 8/100/35
f 15/101/36 34/102/37 36/103/38 14/104/39
f 5/105/40 38/106/40 37/107/40 1/108/40
f 21/109/41 40/110/41 39/111/41 20/112/41
f 8/113/35 31/114/34 30/115/42 7/116/42
f 12/117/43 23/118/44 26/119/45 2/120/45
f 11/121/20 27/122/20 28/123/20 13/124/20
f 113/125/46 109/126/46 118/127/46 114/128/46
f 116/129/47 103/130/47 107/131/48 108/132/49 115/133/47
f 105/134/50 102/135/51 92/136/52
f 64/137/53 91/138/54 88/139/55 57/140/56
f 57/141/56 88/142/55 89/143/57 60/144/57
f 5/105/58 55/145/59 61/146/60 7/147/61
f 17/148/62 52/149/63 53/150/64 1/108/65
f 8/151/66 63/152/67 58/153/68 9/154/69
f 14/155/70 69/156/70 71/157/71 15/158/71
f 9/154/69 58/153/68 59/159/72 6/160/73
f 15/158/71 71/157/71 73/161/74 16/162/74
f 20/163/75 66/164/76 67/165/77 21/166/78
f 16/162/74 73/161/74 52/167/63 17/168/62
f 6/160/73 59/159/72 66/169/76 20/170/75
f 11/171/79 66/169/76 42/172/80 4/173/81
f 1/108/65 53/150/64 55/145/59 5/105/58
f 10/174/82 46/175/83 47/176/84 2/177/85
f 2/177/85 47/176/84 49/178/86 12/179/86
f 7/147/61 61/146/60 63/180/67 8/100/66
f 3/181/87 43/182/88 46/175/83 10/174/82
f 12/179/86 49/178/86 67/183/77 13/184/89
f 80/185/90 77/186/91 94/187/92 84/188/90 81/189/90
f 85/190/93 96/191/94 94/187/92 77/186/91
f 21/192/78 67/183/77 69/156/70 14/155/70
f 24/193/95 25/194/95 26/195/95 23/196/96 22/197/97
f 27/198/98 22/197/97 23/196/96 28/199/98
f 4/200/99 22/201/99 27/202/99 11/203/99
f 3/204/100 24/205/101 22/206/102 4/207/102
f 13/208/103 28/209/103 23/118/44 12/117/43
f 10/210/104 25/211/105 24/205/101 3/204/100
f 2/212/106 26/213/106 25/211/105 10/210/104
f 87/214/107 100/215/107 98/216/108 90/217/109
f 62/218/110 56/219/111 19/220/112 120/221/112 76/222/113
f 92/136/52 102/135/51 100/223/114 87/224/114
f 90/217/109 98/216/108 96/191/94 85/190/93
f 18/27/115 111/225/115 109/126/115 113/125/115 112/226/115 19/28/115
f 104/227/116 102/135/51 103/228/117
f 13/229/89 67/165/77 66/164/76 11/230/79
f 37/231/118 38/232/118 30/233/119 29/234/120
f 30/233/119 31/235/121 32/236/122 29/234/120
f 31/235/121 33/237/123 34/238/124 32/236/122
f 33/237/123 35/239/125 36/240/126 34/238/124
f 35/239/125 39/241/127 40/242/127 36/240/126
f 6/243/128 35/244/128 33/98/33 9/97/32
f 16/245/129 32/246/130 34/102/37 15/101/36
f 20/247/131 39/248/131 35/249/131 6/250/131
f 7/116/132 30/115/132 38/251/132 5/252/132
f 17/253/133 29/254/134 32/246/130 16/245/129
f 1/255/135 37/256/135 29/254/134 17/253/133
f 14/104/39 36/103/38 40/257/136 21/258/136
f 52/149/137 51/259/138 54/26/139 53/150/139
f 42/260/140 41/58/140 44/5/141 43/261/142
f 46/262/143 45/8/144 48/14/145 47/263/145
f 66/264/146 65/1/147 41/4/148 42/265/148
f 53/266/149 54/267/149 56/268/149 55/269/149
f 58/270/150 57/140/151 60/15/152 59/271/152
f 55/272/153 56/219/153 62/218/154 61/273/155
f 61/273/155 62/218/154 75/274/156 64/137/157 63/275/158
f 63/275/158 64/137/157 57/140/151 58/270/150
f 43/261/142 44/5/141 45/8/144 46/262/143
f 59/271/159 60/15/159 65/1/147 66/264/146
f 47/176/160 48/276/160 50/277/161 49/178/162
f 49/178/162 50/277/161 68/278/163 67/183/164
f 67/183/164 68/278/163 70/279/165 69/156/166
f 69/156/166 70/279/165 72/280/167 71/157/168
f 71/157/168 72/280/167 74/281/169 73/161/170
f 73/161/170 74/281/169 51/282/138 52/167/137
f 4/173/81 42/172/80 43/182/88 3/181/87
f 108/132/171 106/283/172 75/284/172 62/218/110 76/222/113
f 103/285/117 102/135/51 107/286/173
f 112/287/23 115/133/23 108/132/171 76/288/113 120/289/112 19/220/112
f 107/286/173 102/135/51 105/134/50
f 75/274/174 106/283/174 91/138/54 64/137/53
f 88/142/175 87/290/176 90/291/177 89/143/177
f 106/283/178 105/292/178 92/293/179 91/138/180
f 91/138/180 92/294/179 87/295/176 88/139/175
f 108/132/49 107/131/48 105/296/181 106/283/181
f 103/228/182 116/297/182 114/298/182 118/299/182 119/300/182 104/227/182
f 109/126/183 111/301/184 110/302/185
f 114/128/186 116/303/187 115/304/188
f 109/126/183 110/302/185 117/305/189 118/127/189
f 114/128/186 115/304/188 112/306/190 113/125/190
