# WaveFront *.obj file (generated by CINEMA 4D)

mtllib ./DisplacementSphere_col.mtl

v -0.28613522648811 -0.44668391346931 -0.61741560697556
v -0.42702630162239 0.42702630162239 -0.17365930974483
v 0.16088819503784 -0.42702630162239 -0.71578818559647
v 0.42702630162239 0.35890647768974 -0.71578818559647
v 0.51202195882797 -0.51202195882797 -2.05148100852966
v 0.51202195882797 0.51202195882797 -2.05148100852966
v -0.51202195882797 -0.51202195882797 -2.05148100852966
v -0.51202195882797 0.51202195882797 -2.05148100852966
v -0.48059391975403 -0.01026776432991 0.30257079005241
v -0.05012906342745 0.51202195882797 -0.26651602983475
v 0.23389692604542 0 -0.00274528586306
v 0 -0.15143564343452 -0.00274528586306
v 0.31642958521843 0.31642958521843 -1.02711319923401
v 0.51202195882797 0 -2.05148100852966
v 0.31642958521843 -0.31642958521843 -1.02711319923401
v 0 0.51202195882797 -2.05148100852966
v -0.51202195882797 0 -2.05148100852966
v 0 -0.51202195882797 -2.05148100852966
v -0.31642958521843 0.31642958521843 -1.02711319923401
v -0.31642958521843 -0.31642958521843 -1.02711319923401
v 0 0 0.99461227655411
v 0.51202195882797 0 -1.02711319923401
v 0 0 -2.05148100852966
v -0.51202195882797 0 -1.02711319923401
v 0 0.51202195882797 -1.02711319923401
v 0 -0.51202195882797 -1.02711319923401
# 26 vertices

vn 0 0 1
vn 1 0 0
vn 0 0 -1
vn -1 0 0
vn 0 1 0
vn 0 -1 0
# 6 normals

vt 0.85841751098633 0.26571214199066 0
vt 0.92409682273865 0.27354121208191 0
vt 0.9790672659874 0.22637820243835 0
vt 0.92515599727631 0.18027448654175 0
vt 0.85947668552399 0.18810343742371 0
vt 0.92515599727631 0.2274374961853 0
vt 0.98097079992294 0.22637820243835 0
vt 0.92600035667419 0.1792151927948 0
vt 0.86032104492188 0.18704426288605 0
vt 0.92409682273865 0.22637820243835 0
vt 0.92409682273865 0.1792151927948 0
vt 0.86032104492188 0.26571214199066 0
vt 0.92600035667419 0.22637820243835 0
vt 0.83164447546005 0.22637820243835 0
vt 0.83164447546005 0.19723153114319 0
vt 0.59166991710663 0.44911134243011 0
vt 0.59166991710663 0.41610360145569 0
vt 0.5032833814621 0.39570069313049 0
vt 0.59166991710663 0.48211932182312 0
vt 0.5032833814621 0.44911134243011 0
vt 0.80620568990707 0.65766435861588 0
vt 0.80620568990707 0.7036697268486 0
vt 0.8522110581398 0.7036697268486 0
vt 0.80620568990707 0.74967503547668 0
vt 0.8522110581398 0.74967503547668 0
vt 0.89821636676788 0.74967503547668 0
vt 0.8522110581398 0.65766435861588 0
vt 0.89821636676788 0.7036697268486 0
vt 0.50313150882721 0.39541709423065 0
vt 0.50313150882721 0.44882798194885 0
vt 0.5915179848671 0.44882798194885 0
vt 0.50313150882721 0.50223869085312 0
vt 0.5915179848671 0.48183584213257 0
vt 0.83141249418259 0.2266161441803 0
vt 0.83141249418259 0.25576293468475 0
vt 0.86008900403976 0.2659500837326 0
vt 0.83141249418259 0.19746947288513 0
vt 0.92576831579208 0.2266161441803 0
vt 0.83080017566681 0.19829070568085 0
vt 0.83080017566681 0.2274374961853 0
vt 0.59126842021942 0.41495156288147 0
vt 0.50288182497025 0.39454817771912 0
vt 0.50288182497025 0.4479593038559 0
vt 0.59126842021942 0.4479593038559 0
vt 0.50288182497025 0.50137025117874 0
vt 0.83080017566681 0.25658416748047 0
vt 0.50288188457489 0.50197327136993 0
vt 0.59126842021942 0.48157072067261 0
vt 0.59126842021942 0.44856250286102 0
vt 0.82974094152451 0.25552499294281 0
vt 0.82974094152451 0.22637820243835 0
vt 0.85841751098633 0.18704426288605 0
vt 0.50288188457489 0.44856250286102 0
vt 0.59126842021942 0.41555500030518 0
vt 0.9801265001297 0.2274374961853 0
vt 0.83164447546005 0.25552499294281 0
vt 0.5032833814621 0.50252175331116 0
vt 0.89821636676788 0.65766435861588 0
vt 0.5915179848671 0.41582024097443 0
vt 0.86008900403976 0.18728220462799 0
vt 0.59126842021942 0.48096740245819 0
vt 0.85947668552399 0.26677143573761 0
vt 0.82974094152451 0.19723153114319 0
vt 0.50288188457489 0.39515221118927 0
# 64 texture coordinates

o Cube
usemtl Mat
f 21/3/1 9/2/1 1/1/1
f 10/6/1 2/5/1 9/4/1
f 4/9/1 10/8/1 21/7/1
f 11/11/1 21/3/1 12/10/1
f 22/14/2 11/13/2 3/12/2
f 13/15/2 4/9/2 11/13/2
f 6/18/2 13/17/2 22/16/2
f 14/20/2 22/16/2 15/19/2
f 23/23/3 14/22/3 5/21/3
f 16/25/3 6/24/3 14/22/3
f 8/26/3 16/25/3 23/23/3
f 17/28/3 23/23/3 18/27/3
f 24/31/4 17/30/4 7/29/4
f 19/33/4 8/32/4 17/30/4
f 2/36/4 19/35/4 24/34/4
f 9/38/4 24/34/4 20/37/4
f 25/40/5 19/39/5 2/5/5
f 16/43/5 8/42/5 19/41/5
f 6/45/5 16/43/5 25/44/5
f 13/46/5 25/40/5 10/6/5
f 26/49/6 20/48/6 7/47/6
f 12/10/6 1/1/6 20/50/6
f 3/52/6 12/10/6 26/51/6
f 15/54/6 26/49/6 18/53/6
f 12/10/1 21/3/1 1/1/1
f 21/55/1 10/6/1 9/4/1
f 11/13/1 4/9/1 21/7/1
f 3/52/1 11/11/1 12/10/1
f 15/56/2 22/14/2 3/12/2
f 22/14/2 13/15/2 11/13/2
f 14/20/2 6/18/2 22/16/2
f 5/57/2 14/20/2 15/19/2
f 18/27/3 23/23/3 5/21/3
f 23/23/3 16/25/3 14/22/3
f 17/28/3 8/26/3 23/23/3
f 7/58/3 17/28/3 18/27/3
f 20/59/4 24/31/4 7/29/4
f 24/31/4 19/33/4 17/30/4
f 9/38/4 2/36/4 24/34/4
f 1/60/4 9/38/4 20/37/4
f 10/6/5 25/40/5 2/5/5
f 25/44/5 16/43/5 19/41/5
f 13/61/5 6/45/5 25/44/5
f 4/62/5 13/46/5 10/6/5
f 18/53/6 26/49/6 7/47/6
f 26/51/6 12/10/6 20/50/6
f 15/63/6 3/52/6 26/51/6
f 5/64/6 15/54/6 18/53/6

