# Blender v2.80 (sub 75) OBJ File: 'GT_Mini_Thruster.blend'
# www.blender.org
mtllib GT_Mini_Thruster_Collider.mtl
o GT_Mini_Thruster
v -0.121315 -0.452667 0.476275
v 0.121269 -0.452667 0.476275
v 0.452645 -0.121291 0.476275
v -0.331399 0.331377 0.476275
v -0.452691 -0.121291 0.476275
v -0.331399 -0.331375 0.476275
v 0.319059 -0.319081 0.493661
v 0.435851 0.116793 0.493661
v 0.319059 0.319083 0.493661
v 0.116769 0.435875 0.493661
v -0.116815 0.435875 0.493661
v -0.435897 0.116793 0.493661
v -0.425553 -0.114019 0.065333
v -0.322647 -0.322623 0.112771
v -0.322647 0.322625 0.112771
v -0.425553 0.114021 0.065333
v -0.114043 0.425531 0.065333
v 0.113997 0.425531 0.065333
v 0.425507 0.114021 0.065334
v 0.311487 0.311511 0.065333
v 0.311487 -0.311509 0.065334
v 0.440690 -0.118088 0.112771
v -0.118112 -0.440712 0.112771
v 0.118066 -0.440712 0.112771
v -0.064705 -0.242549 -0.212808
v 0.064659 -0.242549 -0.212808
v 0.174708 -0.174313 -0.215360
v 0.238303 -0.064163 -0.215360
v 0.238303 0.064165 -0.215360
v 0.174708 0.174315 -0.215360
v 0.063572 0.238479 -0.215360
v -0.063618 0.238479 -0.215360
v -0.177736 0.177292 -0.212808
v -0.238349 0.064165 -0.215360
v -0.242418 -0.065258 -0.212808
v -0.177736 -0.177290 -0.212808
vt 0.232067 0.847560
vt 0.252437 0.847560
vt 0.699540 0.888037
vt 0.654557 0.888037
vt 0.188246 0.847560
vt 0.208616 0.847560
vt 0.603671 0.877604
vt 0.557794 0.888037
vt 0.603511 0.877604
vt 0.614361 0.831650
vt 0.642812 0.831650
vt 0.653663 0.877604
vt 0.208981 0.768708
vt 0.231631 0.768708
vt 0.251245 0.780032
vt 0.262570 0.799647
vt 0.262570 0.822296
vt 0.251245 0.841911
vt 0.231631 0.853235
vt 0.208981 0.853235
vt 0.189367 0.841911
vt 0.178042 0.822296
vt 0.178042 0.799647
vt 0.189367 0.780032
vt 0.681896 0.899345
vt 0.654718 0.888037
vt 0.603671 0.877604
vt 0.681143 0.870822
vt 0.208545 0.847560
vt 0.653663 0.877604
vt 0.602616 0.888037
vt 0.232138 0.847560
vt 0.654718 0.888037
vt 0.602776 0.888037
vt 0.667670 0.923984
vt 0.697256 0.877604
vt 0.653823 0.877604
vt 0.188175 0.847560
vt 0.557633 0.888037
vt 0.188246 0.847560
vt 0.560238 0.877604
vt 0.602776 0.888037
vt 0.208616 0.847560
vt 0.252437 0.847560
vt 0.232067 0.847560
vt 0.654557 0.888037
vt 0.699540 0.888037
vt 0.208545 0.847560
vt 0.000000 0.000000
vt 0.575278 0.870641
vt 0.653823 0.877604
vt 0.667670 0.846002
vt 0.642593 0.832392
vt 0.642812 0.938336
vt 0.614361 0.938336
vt 0.603511 0.877604
vt 0.681896 0.870641
vt 0.697256 0.877604
vt 0.589503 0.923984
vt 0.575278 0.899345
vt 0.252508 0.847560
vt 0.232138 0.847560
vt 0.699701 0.888037
vt 0.614777 0.814984
vt 0.000000 0.000000
vt 0.000000 0.000000
vt 0.642396 0.814984
vt 0.614581 0.832392
vt 0.590037 0.846563
vt 0.576030 0.870822
vt 0.576030 0.899163
vt 0.000000 0.000000
vt 0.642396 0.814984
vt 0.667137 0.923423
vt 0.000000 0.000000
vt 0.602616 0.888037
vt 0.560078 0.877604
vt 0.000000 0.000000
vt 0.000000 0.000000
vt 0.697096 0.877604
vt 0.252508 0.847560
vt 0.589503 0.846002
vt 0.560238 0.877604
vt 0.557633 0.888037
vn 0.2587 0.9656 -0.0250
vn 0.7069 0.7069 -0.0250
vn 0.6753 0.6754 -0.2964
vn 0.2472 0.9225 -0.2964
vn -0.7158 -0.6969 -0.0433
vn -0.9739 -0.2215 -0.0491
vn -0.9175 -0.2363 -0.3199
vn -0.6813 -0.6791 -0.2734
vn -0.2483 -0.9266 -0.2824
vn -0.2188 -0.8172 -0.5333
vn 0.2044 -0.8166 -0.5398
vn 0.2635 -0.9266 -0.2683
vn -0.0089 -0.0154 0.9998
vn 0.8034 0.1958 -0.5623
vn 0.9163 0.2524 -0.3111
vn 0.9340 -0.2502 -0.2549
vn 0.8080 -0.2166 -0.5480
vn -0.2214 0.9748 -0.0267
vn -0.2381 0.9204 -0.3102
vn -0.9688 0.2449 -0.0370
vn -0.9163 0.2489 -0.3139
vn 0.5821 0.5819 -0.5680
vn -0.4415 0.8968 -0.0281
vn -0.6839 0.6839 -0.2540
vn 0.7068 -0.7068 -0.0286
vn 0.6699 -0.6677 -0.3248
vn 0.8308 -0.5559 -0.0281
vn 0.2969 -0.9544 -0.0318
vn -0.2587 -0.9654 -0.0340
vn -0.7958 0.2326 -0.5591
vn -0.7972 -0.2278 -0.5590
vn 0.5921 -0.5842 -0.5550
vn 0.2129 0.7950 -0.5680
vn -0.2273 0.7961 -0.5608
vn -0.5924 0.5922 -0.5463
vn 0.9549 0.2957 -0.0267
vn -0.0041 -0.0038 -1.0000
vn -0.5830 -0.6087 -0.5382
vn 0.9974 0.0660 -0.0281
vn -0.8968 0.4415 -0.0281
usemtl _auto_
s 1
f 10/1/1 9/2/2 20/3/3 18/4/4
f 6/5/5 5/6/6 13/7/7 14/8/8
f 23/9/9 25/10/10 26/11/11 24/12/12
f 1/13/13 2/14/13 7/15/13 3/16/13 8/17/13 9/18/13 10/19/13 11/20/13 4/21/13 12/22/13 5/23/13 6/24/13
f 29/25/14 19/26/15 22/27/16 28/28/17
f 11/29/18 10/1/1 18/30/4 17/31/19
f 5/6/6 12/32/20 16/33/21 13/34/7
f 29/25/14 30/35/22 20/36/3 19/37/15
f 4/38/23 11/29/18 17/31/19 15/39/24
f 7/40/25 21/41/26 22/42/16 3/43/27
f 7/44/25 2/45/28 24/46/12 21/47/26
f 2/45/28 1/48/29 23/9/9 24/46/12
f 34/49/30 35/50/31 13/34/7 16/51/21
f 27/52/32 21/47/26 24/12/12 26/53/11
f 18/30/4 31/54/33 32/55/34 17/56/19
f 21/41/26 27/52/32 28/57/17 22/27/16
f 15/58/24 33/59/35 34/60/30 16/51/21
f 9/61/2 8/62/36 19/37/15 20/63/3
f 32/64/34 33/59/35 15/39/24 17/65/19
f 27/66/37 26/67/37 25/68/37 36/69/37 35/70/37 34/71/37 33/72/37 32/64/37 31/73/37 30/74/37 29/75/37 28/28/37
f 25/10/10 23/76/9 14/77/8 36/69/38
f 8/62/36 3/43/39 22/42/16 19/26/15
f 30/78/22 31/79/33 18/4/4 20/80/3
f 12/32/20 4/81/40 15/58/24 16/33/21
f 13/7/7 35/50/31 36/82/38 14/83/8
f 1/48/29 6/5/5 14/84/8 23/76/9
