# Blender v2.91.2 OBJ File: 'Relic Turret.blend'
# www.blender.org
mtllib KV_Turrent_Base.mtl
o Base_Cube.001
v 1.600000 -0.496426 0.500000
v 1.578864 -0.496426 0.714599
v 1.516267 -0.496426 0.920952
v 1.414616 -0.496426 1.111127
v 1.277817 -0.496426 1.277817
v 1.111127 -0.496426 1.414616
v 0.920952 -0.496426 1.516268
v 0.714599 -0.496426 1.578864
v 0.500000 -0.496426 1.600000
v 0.285401 -0.496426 1.578864
v 0.079049 -0.496426 1.516268
v -0.111127 -0.496426 1.414616
v -0.277817 -0.496426 1.277817
v -0.414617 -0.496426 1.111127
v -0.516267 -0.496426 0.920952
v -0.578864 -0.496426 0.714599
v -0.600000 -0.496426 0.499999
v -0.578864 -0.496426 0.285400
v -0.516267 -0.496426 0.079048
v -0.414616 -0.496426 -0.111128
v -0.277817 -0.496426 -0.277818
v -0.111127 -0.496426 -0.414617
v 0.079049 -0.496426 -0.516268
v 0.285402 -0.496426 -0.578864
v 0.500001 -0.496426 -0.600000
v 0.714601 -0.496426 -0.578863
v 0.920953 -0.496426 -0.516267
v 1.111128 -0.496426 -0.414616
v 1.277818 -0.496426 -0.277816
v 1.414617 -0.496426 -0.111126
v 1.516268 -0.496426 0.079050
v 1.578864 -0.496426 0.285402
v 1.600000 -0.188425 0.500000
v 1.578864 -0.188425 0.714599
v 1.578864 -0.188425 0.285402
v 1.516268 -0.188425 0.079050
v 1.414617 -0.188425 -0.111126
v 1.277818 -0.188425 -0.277816
v 1.111128 -0.188425 -0.414616
v 0.920953 -0.188425 -0.516267
v 0.714601 -0.188425 -0.578863
v 0.500001 -0.188425 -0.600000
v 0.285402 -0.188425 -0.578864
v 0.079049 -0.188425 -0.516268
v -0.111127 -0.188425 -0.414617
v -0.277817 -0.188425 -0.277818
v -0.414616 -0.188425 -0.111128
v -0.516267 -0.188425 0.079048
v -0.578864 -0.188425 0.285400
v -0.600000 -0.188425 0.499999
v -0.578864 -0.188425 0.714599
v -0.516267 -0.188425 0.920952
v -0.414617 -0.188425 1.111127
v -0.277817 -0.188425 1.277817
v -0.111127 -0.188425 1.414616
v 0.079049 -0.188425 1.516268
v 0.285401 -0.188425 1.578864
v 0.500000 -0.188425 1.600000
v 0.714599 -0.188425 1.578864
v 0.920952 -0.188425 1.516268
v 1.111127 -0.188425 1.414616
v 1.277817 -0.188425 1.277817
v 1.414616 -0.188425 1.111127
v 1.516267 -0.188425 0.920952
v -0.060076 -0.490081 1.059742
v -0.060076 -0.490081 1.059742
v -0.060076 -0.490081 0.937883
v -0.060076 -0.490081 0.937883
v 0.057923 -0.489466 1.059742
v -0.000887 -0.527364 0.998812
v 0.057923 -0.489466 0.937883
v 0.057923 -0.489466 1.059742
v 0.057923 -0.489466 0.937883
v 0.939923 -0.489704 1.059741
v 0.939923 -0.489704 1.059741
v 0.939923 -0.489704 0.937883
v 0.939923 -0.489704 0.937883
v 1.057923 -0.489844 1.059741
v 0.998880 -0.527364 0.998812
v 1.057923 -0.489844 0.937883
v 1.057923 -0.489844 1.059741
v 1.057923 -0.489844 0.937883
v 0.940258 -0.490081 -0.060076
v 0.940258 -0.490081 -0.060076
v 1.062117 -0.490081 -0.060076
v 1.062117 -0.490081 -0.060076
v 0.940258 -0.489466 0.057923
v 1.001188 -0.527364 -0.000887
v 1.062117 -0.489466 0.057923
v 0.940258 -0.489466 0.057923
v 1.062117 -0.489466 0.057923
v -0.059741 -0.489704 -0.060077
v -0.059741 -0.489704 -0.060077
v 0.062117 -0.489704 -0.060077
v 0.062117 -0.489704 -0.060077
v -0.059741 -0.489844 0.057923
v 0.001188 -0.527364 -0.001120
v 0.062117 -0.489844 0.057923
v -0.059741 -0.489844 0.057923
v 0.062117 -0.489844 0.057923
vt 0.193524 0.977724
vt 0.193524 0.977724
vt 0.065635 0.978855
vt 0.065635 0.978855
vt 0.193487 0.929374
vt 0.283772 0.963812
vt 0.249989 0.998588
vt 0.249989 0.929036
vt 0.317337 0.998588
vt 0.317337 0.929036
vt 0.193487 0.929374
vt 0.065598 0.930505
vt 0.065598 0.930505
vt 0.193524 0.977724
vt 0.193524 0.977724
vt 0.065635 0.978855
vt 0.065635 0.978855
vt 0.193487 0.929374
vt 0.284377 0.963812
vt 0.250727 0.998587
vt 0.250727 0.929036
vt 0.318076 0.998587
vt 0.318076 0.929036
vt 0.193487 0.929374
vt 0.065598 0.930505
vt 0.065598 0.930505
vt 0.750000 0.441840
vt 0.787426 0.438154
vt 0.823414 0.427237
vt 0.856581 0.409509
vt 0.885652 0.385652
vt 0.909509 0.356581
vt 0.927237 0.323414
vt 0.938154 0.287426
vt 0.941840 0.250000
vt 0.938154 0.212574
vt 0.927237 0.176586
vt 0.909509 0.143419
vt 0.885652 0.114348
vt 0.856581 0.090491
vt 0.823414 0.072763
vt 0.787426 0.061846
vt 0.750000 0.058160
vt 0.712574 0.061846
vt 0.676586 0.072763
vt 0.643419 0.090491
vt 0.614348 0.114349
vt 0.590491 0.143419
vt 0.572763 0.176586
vt 0.561846 0.212574
vt 0.558160 0.250000
vt 0.561846 0.287426
vt 0.572763 0.323414
vt 0.590491 0.356581
vt 0.614349 0.385652
vt 0.643419 0.409509
vt 0.676586 0.427237
vt 0.712574 0.438154
vt 0.234599 0.789191
vt 0.234599 0.902799
vt 0.227499 0.902799
vt 0.227499 0.789191
vt 0.014483 0.789191
vt 0.014483 0.902799
vt 0.007382 0.902799
vt 0.007382 0.789191
vt 0.021583 0.789191
vt 0.021583 0.902799
vt 0.028684 0.789191
vt 0.028684 0.902799
vt 0.035784 0.789191
vt 0.035784 0.902799
vt 0.042885 0.789191
vt 0.042885 0.902799
vt 0.049986 0.789191
vt 0.049986 0.902799
vt 0.057086 0.789191
vt 0.057086 0.902799
vt 0.064187 0.789191
vt 0.064187 0.902799
vt 0.071287 0.789191
vt 0.071287 0.902799
vt 0.078388 0.789191
vt 0.078388 0.902799
vt 0.085488 0.789191
vt 0.085488 0.902799
vt 0.092589 0.789191
vt 0.092589 0.902799
vt 0.099689 0.789191
vt 0.099689 0.902799
vt 0.106790 0.789191
vt 0.106790 0.902799
vt 0.113890 0.789191
vt 0.113890 0.902799
vt 0.120991 0.789191
vt 0.120991 0.902799
vt 0.128091 0.789191
vt 0.128091 0.902799
vt 0.135192 0.789191
vt 0.135192 0.902799
vt 0.142293 0.789191
vt 0.142293 0.902799
vt 0.149393 0.789191
vt 0.149393 0.902799
vt 0.156494 0.789191
vt 0.156494 0.902799
vt 0.163594 0.789191
vt 0.163594 0.902799
vt 0.170695 0.789191
vt 0.170695 0.902799
vt 0.177795 0.789191
vt 0.177795 0.902799
vt 0.184896 0.789191
vt 0.184896 0.902799
vt 0.191996 0.789191
vt 0.191996 0.902799
vt 0.199097 0.789191
vt 0.199097 0.902799
vt 0.206197 0.789191
vt 0.206197 0.902799
vt 0.213298 0.789191
vt 0.213298 0.902799
vt 0.220398 0.789191
vt 0.220398 0.902799
vt 0.193524 0.977724
vt 0.193524 0.977724
vt 0.065635 0.978855
vt 0.065635 0.978855
vt 0.193487 0.929374
vt 0.285694 0.963360
vt 0.250918 0.929578
vt 0.320469 0.929578
vt 0.250918 0.996926
vt 0.320469 0.996926
vt 0.193487 0.929374
vt 0.065598 0.930505
vt 0.065598 0.930505
vt 0.193524 0.977724
vt 0.193524 0.977724
vt 0.065635 0.978855
vt 0.065635 0.978855
vt 0.193487 0.929374
vt 0.284956 0.963227
vt 0.250181 0.929577
vt 0.319731 0.929577
vt 0.250181 0.996926
vt 0.319731 0.996926
vt 0.193487 0.929374
vt 0.065598 0.930505
vt 0.065598 0.930505
vn -0.1151 -0.3758 0.9195
vn 0.0000 0.0000 0.0000
vn -0.1461 -0.4767 0.8668
vn 0.1191 -0.3746 0.9195
vn 0.0052 -1.0000 -0.0000
vn 0.1510 -0.4751 0.8669
vn -0.1175 -0.3750 0.9195
vn -0.1491 -0.4757 0.8669
vn 0.1167 -0.3753 0.9195
vn -0.0012 -1.0000 0.0000
vn 0.1480 -0.4761 0.8669
vn 0.7279 -0.6857 -0.0000
vn 0.7139 -0.6857 0.1420
vn 0.6725 -0.6857 0.2786
vn 0.6052 -0.6857 0.4044
vn 0.5147 -0.6857 0.5147
vn 0.4044 -0.6857 0.6052
vn 0.2786 -0.6857 0.6725
vn 0.1420 -0.6857 0.7139
vn 0.0000 -0.6857 0.7279
vn -0.1420 -0.6857 0.7139
vn -0.2786 -0.6857 0.6725
vn -0.4044 -0.6857 0.6052
vn -0.5147 -0.6857 0.5147
vn -0.6052 -0.6857 0.4044
vn -0.6725 -0.6857 0.2786
vn -0.7139 -0.6857 0.1420
vn -0.7279 -0.6857 -0.0000
vn -0.7139 -0.6857 -0.1420
vn -0.6725 -0.6857 -0.2786
vn -0.6052 -0.6857 -0.4044
vn -0.5147 -0.6857 -0.5147
vn -0.4044 -0.6857 -0.6052
vn -0.2785 -0.6857 -0.6725
vn -0.1420 -0.6857 -0.7139
vn 0.0000 -0.6857 -0.7279
vn 0.1420 -0.6857 -0.7139
vn 0.2786 -0.6857 -0.6725
vn 0.4044 -0.6857 -0.6052
vn 0.5147 -0.6857 -0.5147
vn 0.6052 -0.6857 -0.4044
vn 0.6725 -0.6857 -0.2786
vn 0.7139 -0.6857 -0.1420
vn 1.0000 0.0000 -0.0000
vn 0.9808 0.0000 0.1951
vn 0.9808 0.0000 -0.1951
vn 0.9239 0.0000 -0.3827
vn 0.8315 0.0000 -0.5556
vn 0.7071 0.0000 -0.7071
vn 0.5556 0.0000 -0.8315
vn 0.3827 0.0000 -0.9239
vn 0.1951 0.0000 -0.9808
vn 0.0000 0.0000 -1.0000
vn -0.1951 0.0000 -0.9808
vn -0.3827 0.0000 -0.9239
vn -0.5556 0.0000 -0.8315
vn -0.7071 0.0000 -0.7071
vn -0.8315 0.0000 -0.5556
vn -0.9239 0.0000 -0.3827
vn -0.9808 0.0000 -0.1951
vn -1.0000 -0.0000 -0.0000
vn -0.9808 -0.0000 0.1951
vn -0.9239 -0.0000 0.3827
vn -0.8315 -0.0000 0.5556
vn -0.7071 -0.0000 0.7071
vn -0.5556 -0.0000 0.8315
vn -0.3827 -0.0000 0.9239
vn -0.1951 -0.0000 0.9808
vn 0.0000 -0.0000 1.0000
vn 0.1951 -0.0000 0.9808
vn 0.3827 -0.0000 0.9239
vn 0.5556 -0.0000 0.8315
vn 0.7071 -0.0000 0.7071
vn 0.8315 -0.0000 0.5556
vn 0.9239 -0.0000 0.3827
vn -0.1492 -0.4748 0.8673
vn 0.1492 -0.4749 0.8673
vn -0.1180 -0.3743 0.9198
vn 0.0000 -1.0000 0.0052
vn 0.1180 -0.3742 0.9198
vn -0.1497 -0.4754 0.8669
vn 0.1497 -0.4754 0.8669
vn -0.1182 -0.3758 0.9191
vn 0.0000 -1.0000 -0.0012
vn 0.1182 -0.3758 0.9191
usemtl Material.009
s 1
f 65/1/1 66/2/2 67/3/2
f 65/1/1 67/3/2 68/4/3
f 69/5/4 66/2/2 65/1/1
f 70/6/5 65/7/1 68/8/3
f 70/6/5 69/9/4 65/7/1
f 70/6/5 71/10/6 69/9/4
f 69/5/4 72/11/2 66/2/2
f 71/12/6 72/11/2 69/5/4
f 71/12/6 73/13/2 72/11/2
f 68/4/3 67/3/2 73/13/2
f 68/4/3 73/13/2 71/12/6
f 70/6/5 68/8/3 71/10/6
f 74/14/7 75/15/2 76/16/2
f 74/14/7 76/16/2 77/17/8
f 78/18/9 75/15/2 74/14/7
f 79/19/10 74/20/7 77/21/8
f 79/19/10 78/22/9 74/20/7
f 79/19/10 80/23/11 78/22/9
f 78/18/9 81/24/2 75/15/2
f 80/25/11 81/24/2 78/18/9
f 80/25/11 82/26/2 81/24/2
f 77/17/8 76/16/2 82/26/2
f 77/17/8 82/26/2 80/25/11
f 79/19/10 77/21/8 80/23/11
f 1/27/12 2/28/13 3/29/14 4/30/15 5/31/16 6/32/17 7/33/18 8/34/19 9/35/20 10/36/21 11/37/22 12/38/23 13/39/24 14/40/25 15/41/26 16/42/27 17/43/28 18/44/29 19/45/30 20/46/31 21/47/32 22/48/33 23/49/34 24/50/35 25/51/36 26/52/37 27/53/38 28/54/39 29/55/40 30/56/41 31/57/42 32/58/43
f 1/59/12 33/60/44 34/61/45 2/62/13
f 32/63/43 35/64/46 33/65/44 1/66/12
f 31/67/42 36/68/47 35/64/46 32/63/43
f 30/69/41 37/70/48 36/68/47 31/67/42
f 29/71/40 38/72/49 37/70/48 30/69/41
f 28/73/39 39/74/50 38/72/49 29/71/40
f 27/75/38 40/76/51 39/74/50 28/73/39
f 26/77/37 41/78/52 40/76/51 27/75/38
f 25/79/36 42/80/53 41/78/52 26/77/37
f 24/81/35 43/82/54 42/80/53 25/79/36
f 23/83/34 44/84/55 43/82/54 24/81/35
f 22/85/33 45/86/56 44/84/55 23/83/34
f 21/87/32 46/88/57 45/86/56 22/85/33
f 20/89/31 47/90/58 46/88/57 21/87/32
f 19/91/30 48/92/59 47/90/58 20/89/31
f 18/93/29 49/94/60 48/92/59 19/91/30
f 17/95/28 50/96/61 49/94/60 18/93/29
f 16/97/27 51/98/62 50/96/61 17/95/28
f 15/99/26 52/100/63 51/98/62 16/97/27
f 14/101/25 53/102/64 52/100/63 15/99/26
f 13/103/24 54/104/65 53/102/64 14/101/25
f 12/105/23 55/106/66 54/104/65 13/103/24
f 11/107/22 56/108/67 55/106/66 12/105/23
f 10/109/21 57/110/68 56/108/67 11/107/22
f 9/111/20 58/112/69 57/110/68 10/109/21
f 8/113/19 59/114/70 58/112/69 9/111/20
f 7/115/18 60/116/71 59/114/70 8/113/19
f 6/117/17 61/118/72 60/116/71 7/115/18
f 5/119/16 62/120/73 61/118/72 6/117/17
f 4/121/15 63/122/74 62/120/73 5/119/16
f 3/123/14 64/124/75 63/122/74 4/121/15
f 2/62/13 34/61/45 64/124/75 3/123/14
f 83/125/76 84/126/2 85/127/2
f 83/125/76 85/127/2 86/128/77
f 87/129/78 84/126/2 83/125/76
f 88/130/79 83/131/76 86/132/77
f 88/130/79 87/133/78 83/131/76
f 88/130/79 89/134/80 87/133/78
f 87/129/78 90/135/2 84/126/2
f 89/136/80 90/135/2 87/129/78
f 89/136/80 91/137/2 90/135/2
f 86/128/77 85/127/2 91/137/2
f 86/128/77 91/137/2 89/136/80
f 88/130/79 86/132/77 89/134/80
f 92/138/81 93/139/2 94/140/2
f 92/138/81 94/140/2 95/141/82
f 96/142/83 93/139/2 92/138/81
f 97/143/84 92/144/81 95/145/82
f 97/143/84 96/146/83 92/144/81
f 97/143/84 98/147/85 96/146/83
f 96/142/83 99/148/2 93/139/2
f 98/149/85 99/148/2 96/142/83
f 98/149/85 100/150/2 99/148/2
f 95/141/82 94/140/2 100/150/2
f 95/141/82 100/150/2 98/149/85
f 97/143/84 95/145/82 98/147/85
