# Blender v2.80 (sub 75) OBJ File: ''
# www.blender.org
mtllib YK_Hover.mtl
o BF_Block_111.016
v 0.500000 0.340000 0.420000
v 0.500000 0.421628 0.320000
v 0.424365 0.500000 0.320000
v 0.320000 0.500000 0.424365
v 0.320000 0.421628 0.500000
v 0.420000 0.340000 0.500000
v -1.500000 0.340000 0.420000
v -1.420000 0.340000 0.500000
v -1.320000 0.421628 0.500000
v -1.320000 0.500000 0.424365
v -1.424365 0.500000 0.320000
v -1.500000 0.421628 0.320000
v 0.500000 0.340000 -1.420000
v 0.420000 0.340000 -1.500000
v 0.320000 0.421629 -1.500000
v 0.320000 0.500000 -1.424364
v 0.424365 0.500000 -1.320000
v 0.500000 0.421628 -1.320000
v -1.500000 0.340000 -1.420000
v -1.500000 0.421628 -1.320000
v -1.424365 0.500000 -1.320000
v -1.320000 0.500000 -1.424364
v -1.320000 0.421629 -1.500000
v -1.420000 0.340000 -1.500000
v 0.000000 0.000000 -0.600002
v 0.132023 0.132023 -0.500001
v 0.132023 -0.132023 -0.500001
v -0.132023 0.132023 -0.500001
v -0.132023 -0.132023 -0.500001
v 0.600001 0.000000 0.000000
v 0.500001 -0.132023 0.132023
v 0.500001 -0.132023 -0.132023
v 0.500001 0.132022 0.132023
v 0.500001 0.132022 -0.132023
v 0.000000 0.000001 0.600002
v -0.132023 -0.132022 0.500001
v 0.132023 -0.132022 0.500002
v -0.132023 0.132023 0.500001
v 0.132023 0.132023 0.500001
v -0.000001 0.600000 0.000000
v 0.132022 0.500000 0.132023
v 0.132022 0.500000 -0.132023
v -0.132023 0.500000 0.132023
v -0.132023 0.500000 -0.132023
v 0.000000 0.000000 -1.600002
v 0.132023 0.132023 -1.500001
v 0.132023 -0.132023 -1.500001
v -0.132023 0.132023 -1.500001
v -0.132023 -0.132023 -1.500001
v 0.600001 0.000000 -1.000000
v 0.500001 -0.132023 -0.867977
v 0.500001 -0.132023 -1.132023
v 0.500001 0.132022 -0.867977
v 0.500001 0.132022 -1.132023
v 0.000000 0.000001 -0.399998
v 0.132023 -0.132022 -0.499998
v -0.132023 -0.132022 -0.499999
v -0.132023 0.132023 -0.499999
v 0.132023 0.132023 -0.499999
v -0.000001 0.600000 -1.000000
v 0.132022 0.500000 -0.867977
v 0.132022 0.500000 -1.132023
v -0.132023 0.500000 -0.867977
v -0.132023 0.500000 -1.132023
v -1.600001 -0.000000 0.000001
v -1.500001 0.132023 -0.132022
v -1.500001 -0.132023 -0.132022
v -1.500001 0.132023 0.132024
v -1.500001 -0.132023 0.132024
v -1.000000 0.000000 -0.600002
v -0.867977 0.132023 -0.500001
v -0.867977 -0.132023 -0.500001
v -1.132023 0.132023 -0.500001
v -1.132023 -0.132023 -0.500001
v -1.000000 0.000001 0.600002
v -1.132023 -0.132022 0.500001
v -0.867977 -0.132022 0.500002
v -1.132023 0.132023 0.500001
v -0.867977 0.132023 0.500001
v -1.000001 0.600000 0.000000
v -0.867978 0.500000 0.132023
v -0.867978 0.500000 -0.132023
v -1.132023 0.500000 0.132023
v -1.132023 0.500000 -0.132023
v -1.600001 0.000000 -0.999999
v -1.500001 0.132023 -1.132022
v -1.500001 -0.132023 -1.132022
v -1.500001 0.132023 -0.867976
v -1.500001 -0.132023 -0.867976
v -1.000000 0.000000 -1.600002
v -0.867977 0.132023 -1.500001
v -0.867977 -0.132023 -1.500001
v -1.132023 0.132023 -1.500001
v -1.132023 -0.132023 -1.500001
v -1.000000 0.000001 -0.399998
v -1.132023 -0.132022 -0.499999
v -0.867977 -0.132022 -0.499998
v -1.132023 0.132023 -0.499999
v -0.867977 0.132023 -0.499999
v -1.000001 0.600000 -1.000000
v -0.867978 0.500000 -0.867977
v -0.867978 0.500000 -1.132023
v -1.132023 0.500000 -0.867977
v -1.132023 0.500000 -1.132023
v 0.420000 -0.501536 0.500000
v 0.500000 -0.501536 0.420000
v 0.500000 -0.500689 -0.500000
v 0.500000 0.422383 -0.500000
v 0.240362 -1.121757 0.054739
v 0.054739 -1.121757 0.240362
v -0.500000 -1.121757 0.240362
v -0.500000 -1.121757 -0.500000
v 0.240362 -1.121757 -0.500000
v 0.136536 -0.763472 0.349530
v 0.349530 -0.763472 0.136536
v 0.349530 -0.763472 -0.500000
v 0.424365 0.500000 -0.500000
v -0.500000 0.500000 -0.500000
v -0.500000 0.500000 0.424365
v -0.500000 0.422383 0.500000
v -0.500000 -0.500690 0.500000
v -0.500000 -0.763472 0.349530
v -1.500000 -0.501536 0.420000
v -1.420000 -0.501536 0.500000
v -1.500000 0.422383 -0.500000
v -1.500000 -0.500689 -0.500000
v -1.240362 -1.121757 0.054739
v -1.240362 -1.121757 -0.500000
v -1.054739 -1.121757 0.240362
v -1.349530 -0.763472 0.136536
v -1.136536 -0.763472 0.349530
v -1.349530 -0.763472 -0.500000
v -1.424365 0.500000 -0.500000
v 0.500000 -0.501536 -1.420000
v 0.420000 -0.501536 -1.500000
v 0.240362 -1.121757 -1.054739
v -0.500000 -1.121757 -1.240363
v 0.054739 -1.121757 -1.240363
v 0.349530 -0.763471 -1.136536
v 0.136536 -0.763472 -1.349531
v -0.500000 0.500000 -1.424364
v -0.500000 0.422383 -1.500000
v -0.500000 -0.500689 -1.500000
v -0.500000 -0.763472 -1.349531
v -1.420000 -0.501536 -1.500000
v -1.500000 -0.501536 -1.420000
v -1.240362 -1.121757 -1.054739
v -1.054739 -1.121757 -1.240363
v -1.136536 -0.763472 -1.349531
v -1.349530 -0.763471 -1.136536
vt 0.160479 0.218479
vt 0.160479 0.218479
vt 0.160479 0.218479
vt 0.181757 0.218479
vt 0.190136 0.218479
vt 0.181757 0.218479
vt 0.160479 0.218479
vt 0.181757 0.218479
vt 0.190136 0.218479
vt 0.181757 0.218479
vt 0.160479 0.218479
vt 0.160479 0.218479
vt 0.160479 0.218479
vt 0.181757 0.218479
vt 0.190136 0.218479
vt 0.181757 0.218479
vt 0.160479 0.218479
vt 0.160479 0.218479
vt 0.160479 0.218479
vt 0.160479 0.218479
vt 0.160479 0.218479
vt 0.181757 0.218479
vt 0.190136 0.218479
vt 0.181757 0.218479
vt 0.428303 0.304254
vt 0.497415 0.373367
vt 0.497416 0.235141
vt 0.359190 0.373367
vt 0.359190 0.235141
vt 0.428326 0.304379
vt 0.359213 0.373492
vt 0.359213 0.235266
vt 0.497438 0.373492
vt 0.497438 0.235265
vt 0.428302 0.304254
vt 0.359189 0.235141
vt 0.497416 0.235141
vt 0.359189 0.373367
vt 0.497416 0.373367
vt 0.428302 0.304379
vt 0.497415 0.373492
vt 0.497415 0.235265
vt 0.359189 0.373492
vt 0.359189 0.235265
vt 0.428303 0.304254
vt 0.497415 0.373367
vt 0.497416 0.235141
vt 0.359190 0.373367
vt 0.359190 0.235141
vt 0.428326 0.304379
vt 0.359213 0.373492
vt 0.359213 0.235266
vt 0.497438 0.373492
vt 0.497438 0.235265
vt 0.428302 0.304254
vt 0.497416 0.235141
vt 0.359189 0.235141
vt 0.359189 0.373367
vt 0.497416 0.373367
vt 0.428302 0.304379
vt 0.497415 0.373492
vt 0.497415 0.235265
vt 0.359189 0.373492
vt 0.359189 0.235265
vt 0.428326 0.304379
vt 0.497439 0.235266
vt 0.359213 0.235266
vt 0.497439 0.373492
vt 0.359213 0.373492
vt 0.428303 0.304254
vt 0.497415 0.373367
vt 0.497416 0.235141
vt 0.359190 0.373367
vt 0.359190 0.235141
vt 0.428302 0.304254
vt 0.359189 0.235141
vt 0.497416 0.235141
vt 0.359189 0.373367
vt 0.497416 0.373367
vt 0.428302 0.304379
vt 0.497415 0.373492
vt 0.497415 0.235265
vt 0.359189 0.373492
vt 0.359189 0.235265
vt 0.428326 0.304379
vt 0.497439 0.235266
vt 0.359213 0.235266
vt 0.497439 0.373492
vt 0.359213 0.373492
vt 0.428303 0.304254
vt 0.497415 0.373367
vt 0.497416 0.235141
vt 0.359190 0.373367
vt 0.359190 0.235141
vt 0.428302 0.304254
vt 0.359189 0.235141
vt 0.497416 0.235141
vt 0.359189 0.373367
vt 0.497416 0.373367
vt 0.428302 0.304379
vt 0.497415 0.373492
vt 0.497415 0.235265
vt 0.359189 0.373492
vt 0.359189 0.235265
vt 0.181757 0.218479
vt 0.160479 0.218479
vt 0.160479 0.218479
vt 0.160479 0.218479
vt 0.160479 0.218479
vt 0.181757 0.218479
vt 0.251692 0.218479
vt 0.251692 0.218479
vt 0.160479 0.218479
vt 0.181757 0.218479
vt 0.160479 0.218479
vt 0.160479 0.218479
vt 0.160479 0.218479
vt 0.254637 0.218479
vt 0.257582 0.218479
vt 0.258845 0.218479
vt 0.258845 0.218479
vt 0.251693 0.218479
vt 0.160479 0.218479
vt 0.181757 0.218479
vt 0.160479 0.218479
vt 0.160479 0.218479
vt 0.160479 0.218479
vt 0.160479 0.218479
vt 0.181757 0.218479
vt 0.160479 0.218479
vt 0.181757 0.218479
vt 0.160479 0.218479
vt 0.160479 0.218479
vt 0.160479 0.218479
vt 0.181757 0.218479
vt 0.160479 0.218479
vt 0.251692 0.218479
vt 0.181757 0.218479
vt 0.160479 0.218479
vt 0.181757 0.218479
vt 0.257582 0.218479
vt 0.258845 0.218479
vt 0.258845 0.218479
vt 0.251693 0.218479
vt 0.181757 0.218479
vt 0.160479 0.218479
vt 0.160479 0.218479
vt 0.181757 0.218479
vt 0.181757 0.218479
vt 0.160479 0.218479
vn 0.5597 0.6111 0.5597
vn -0.5597 0.6111 0.5597
vn 0.5597 0.6111 -0.5597
vn -0.5597 0.6111 -0.5597
vn 0.6038 0.0000 -0.7971
vn 0.0000 0.6038 -0.7971
vn -0.6038 0.0000 -0.7971
vn 0.0000 -0.6038 -0.7971
vn 0.7971 -0.6038 -0.0000
vn 0.7971 -0.0000 0.6038
vn 0.7971 0.6038 0.0000
vn 0.7971 0.0000 -0.6038
vn -0.0000 -0.6038 0.7971
vn -0.6038 0.0000 0.7971
vn 0.0000 0.6038 0.7971
vn 0.6038 0.0000 0.7971
vn 0.6038 0.7971 0.0000
vn 0.0000 0.7971 0.6038
vn -0.6038 0.7971 0.0000
vn 0.0000 0.7971 -0.6038
vn -0.7971 -0.0000 -0.6038
vn -0.7971 0.6038 0.0000
vn -0.7971 0.0000 0.6038
vn -0.7971 -0.6038 -0.0000
vn 0.7071 -0.0000 0.7071
vn 0.6325 -0.4470 0.6325
vn 1.0000 0.0000 0.0000
vn 0.9844 -0.1757 -0.0001
vn 0.9664 -0.2572 -0.0000
vn -0.0000 -1.0000 -0.0000
vn 0.5851 -0.5615 0.5851
vn 0.9057 -0.4240 -0.0002
vn 0.9178 -0.3969 -0.0000
vn 0.6617 -0.3527 0.6617
vn 0.9566 -0.2915 -0.0000
vn 0.0000 1.0000 0.0000
vn 0.0003 0.6962 0.7179
vn 0.0000 0.6962 0.7179
vn 0.0000 -0.2572 0.9664
vn -0.0001 -0.1757 0.9844
vn -0.0000 -0.0000 1.0000
vn 0.0000 -0.2915 0.9566
vn -0.0002 -0.4240 0.9057
vn 0.0000 -0.3969 0.9178
vn 0.7179 0.6962 0.0000
vn 0.7179 0.6962 0.0003
vn -0.7071 -0.0000 0.7071
vn -0.6325 -0.4470 0.6325
vn -1.0000 0.0000 0.0000
vn -0.9664 -0.2572 -0.0000
vn -0.9844 -0.1757 -0.0001
vn -0.5851 -0.5615 0.5851
vn -0.9178 -0.3969 -0.0000
vn -0.9057 -0.4240 -0.0002
vn -0.6617 -0.3527 0.6617
vn -0.9566 -0.2915 -0.0000
vn -0.0003 0.6962 0.7179
vn 0.0001 -0.1757 0.9844
vn 0.0002 -0.4240 0.9057
vn -0.7179 0.6962 0.0000
vn -0.7179 0.6962 0.0003
vn 0.7071 0.0000 -0.7071
vn 0.6325 -0.4470 -0.6325
vn 0.9844 -0.1757 0.0001
vn 0.5851 -0.5615 -0.5851
vn 0.9057 -0.4240 0.0002
vn 0.6617 -0.3527 -0.6617
vn 0.0003 0.6962 -0.7179
vn 0.0000 0.6962 -0.7179
vn 0.0000 -0.2572 -0.9664
vn 0.0000 0.0000 -1.0000
vn -0.0001 -0.1757 -0.9844
vn 0.0000 -0.2915 -0.9566
vn 0.0000 -0.3969 -0.9178
vn -0.0002 -0.4240 -0.9057
vn 0.7179 0.6962 -0.0003
vn -0.7071 0.0000 -0.7071
vn -0.6325 -0.4470 -0.6325
vn -0.9844 -0.1757 0.0001
vn -0.5851 -0.5615 -0.5851
vn -0.9057 -0.4240 0.0002
vn -0.6617 -0.3527 -0.6617
vn -0.0003 0.6962 -0.7179
vn 0.0001 -0.1757 -0.9844
vn 0.0002 -0.4240 -0.9057
vn -0.7179 0.6962 -0.0003
usemtl Default_OBJ.004
s off
f 1/1/1 2/2/1 3/3/1 4/4/1 5/5/1 6/6/1
f 7/7/2 8/8/2 9/9/2 10/10/2 11/11/2 12/12/2
f 13/13/3 14/14/3 15/15/3 16/16/3 17/17/3 18/18/3
f 19/19/4 20/20/4 21/21/4 22/22/4 23/23/4 24/24/4
s 1
f 25/25/5 26/26/5 27/27/5
f 26/26/6 25/25/6 28/28/6
f 25/25/7 29/29/7 28/28/7
f 29/29/8 25/25/8 27/27/8
f 30/30/9 31/31/9 32/32/9
f 31/31/10 30/30/10 33/33/10
f 30/30/11 34/34/11 33/33/11
f 34/34/12 30/30/12 32/32/12
f 35/35/13 36/36/13 37/37/13
f 36/36/14 35/35/14 38/38/14
f 35/35/15 39/39/15 38/38/15
f 39/39/16 35/35/16 37/37/16
f 40/40/17 41/41/17 42/42/17
f 41/41/18 40/40/18 43/43/18
f 40/40/19 44/44/19 43/43/19
f 44/44/20 40/40/20 42/42/20
f 45/45/5 46/46/5 47/47/5
f 46/46/6 45/45/6 48/48/6
f 45/45/7 49/49/7 48/48/7
f 49/49/8 45/45/8 47/47/8
f 50/50/9 51/51/9 52/52/9
f 51/51/10 50/50/10 53/53/10
f 50/50/11 54/54/11 53/53/11
f 54/54/12 50/50/12 52/52/12
f 55/55/6 56/56/6 57/57/6
f 57/57/5 58/58/5 55/55/5
f 55/55/8 58/58/8 59/59/8
f 59/59/7 56/56/7 55/55/7
f 60/60/17 61/61/17 62/62/17
f 61/61/18 60/60/18 63/63/18
f 60/60/19 64/64/19 63/63/19
f 64/64/20 60/60/20 62/62/20
f 65/65/21 66/66/21 67/67/21
f 66/66/22 65/65/22 68/68/22
f 65/65/23 69/69/23 68/68/23
f 69/69/24 65/65/24 67/67/24
f 70/70/5 71/71/5 72/72/5
f 71/71/6 70/70/6 73/73/6
f 70/70/7 74/74/7 73/73/7
f 74/74/8 70/70/8 72/72/8
f 75/75/13 76/76/13 77/77/13
f 76/76/14 75/75/14 78/78/14
f 75/75/15 79/79/15 78/78/15
f 79/79/16 75/75/16 77/77/16
f 80/80/17 81/81/17 82/82/17
f 81/81/18 80/80/18 83/83/18
f 80/80/19 84/84/19 83/83/19
f 84/84/20 80/80/20 82/82/20
f 85/85/21 86/86/21 87/87/21
f 86/86/22 85/85/22 88/88/22
f 85/85/23 89/89/23 88/88/23
f 89/89/24 85/85/24 87/87/24
f 90/90/5 91/91/5 92/92/5
f 91/91/6 90/90/6 93/93/6
f 90/90/7 94/94/7 93/93/7
f 94/94/8 90/90/8 92/92/8
f 95/95/13 96/96/13 97/97/13
f 96/96/14 95/95/14 98/98/14
f 95/95/15 99/99/15 98/98/15
f 99/99/16 95/95/16 97/97/16
f 100/100/17 101/101/17 102/102/17
f 101/101/18 100/100/18 103/103/18
f 100/100/19 104/104/19 103/103/19
f 104/104/20 100/100/20 102/102/20
f 6/6/25 105/105/26 106/106/26 1/1/25
f 1/1/27 106/106/28 107/107/29 108/108/27 2/2/27
f 109/109/30 110/110/30 111/111/30 112/112/30 113/113/30
f 105/105/26 114/114/31 115/115/31 106/106/26
f 106/106/28 115/115/32 116/116/33 107/107/29
f 114/114/31 110/110/34 109/109/34 115/115/31
f 115/115/32 109/109/35 113/113/35 116/116/33
f 3/3/36 117/117/36 118/118/36 119/119/36 4/4/36
f 4/4/37 119/119/38 120/120/38 5/5/37
f 121/121/39 105/105/40 6/6/41 5/5/41 120/120/41
f 111/111/42 110/110/42 114/114/43 122/122/44
f 122/122/44 114/114/43 105/105/40 121/121/39
f 117/117/45 3/3/46 2/2/46 108/108/45
f 8/8/47 7/7/47 123/123/48 124/124/48
f 7/7/49 12/12/49 125/125/49 126/126/50 123/123/51
f 127/127/30 128/128/30 112/112/30 111/111/30 129/129/30
f 124/124/48 123/123/48 130/130/52 131/131/52
f 123/123/51 126/126/50 132/132/53 130/130/54
f 131/131/52 130/130/52 127/127/55 129/129/55
f 130/130/54 132/132/53 128/128/56 127/127/56
f 11/11/36 10/10/36 119/119/36 118/118/36 133/133/36
f 10/10/57 9/9/57 120/120/38 119/119/38
f 121/121/39 120/120/41 9/9/41 8/8/41 124/124/58
f 111/111/42 122/122/44 131/131/59 129/129/42
f 122/122/44 121/121/39 124/124/58 131/131/59
f 133/133/60 125/125/60 12/12/61 11/11/61
f 14/14/62 13/13/62 134/134/63 135/135/63
f 13/13/27 18/18/27 108/108/27 107/107/29 134/134/64
f 136/136/30 113/113/30 112/112/30 137/137/30 138/138/30
f 135/135/63 134/134/63 139/139/65 140/140/65
f 134/134/64 107/107/29 116/116/33 139/139/66
f 140/140/65 139/139/65 136/136/67 138/138/67
f 139/139/66 116/116/33 113/113/35 136/136/35
f 17/17/36 16/16/36 141/141/36 118/118/36 117/117/36
f 16/16/68 15/15/68 142/142/69 141/141/69
f 143/143/70 142/142/71 15/15/71 14/14/71 135/135/72
f 137/137/73 144/144/74 140/140/75 138/138/73
f 144/144/74 143/143/70 135/135/72 140/140/75
f 117/117/45 108/108/45 18/18/76 17/17/76
f 24/24/77 145/145/78 146/146/78 19/19/77
f 19/19/49 146/146/79 126/126/50 125/125/49 20/20/49
f 147/147/30 148/148/30 137/137/30 112/112/30 128/128/30
f 145/145/78 149/149/80 150/150/80 146/146/78
f 146/146/79 150/150/81 132/132/53 126/126/50
f 149/149/80 148/148/82 147/147/82 150/150/80
f 150/150/81 147/147/56 128/128/56 132/132/53
f 21/21/36 133/133/36 118/118/36 141/141/36 22/22/36
f 22/22/83 141/141/69 142/142/69 23/23/83
f 143/143/70 145/145/84 24/24/71 23/23/71 142/142/71
f 137/137/73 148/148/73 149/149/85 144/144/74
f 144/144/74 149/149/85 145/145/84 143/143/70
f 133/133/60 21/21/86 20/20/86 125/125/60
o BF_Block_111.017
v 0.240362 -1.121757 0.054739
v 0.240362 -1.121757 -0.500000
v -0.500000 -1.121757 -0.500000
v -0.500000 -1.121757 0.240362
v 0.054739 -1.121757 0.240362
v -1.240362 -1.121757 0.054739
v -1.054739 -1.121757 0.240362
v -1.240362 -1.121757 -0.500000
v 0.240362 -1.121757 -1.054739
v 0.054739 -1.121757 -1.240363
v -0.500000 -1.121757 -1.240363
v -1.240362 -1.121757 -1.054739
v -1.054739 -1.121757 -1.240363
v 0.110213 -1.521757 0.314399
v 0.049192 -1.521757 0.232959
v 0.232959 -1.521757 0.049192
v 0.314399 -1.521757 0.110213
v 0.110213 -1.521757 -1.314399
v 0.049192 -1.521757 -1.232959
v -0.500000 -1.521757 -1.232959
v -0.500000 -1.521757 -1.314399
v -1.110213 -1.521757 -1.314399
v -1.049191 -1.521757 -1.232959
v -1.232959 -1.521757 -1.049192
v -1.314399 -1.521757 -1.110213
v -1.110213 -1.521757 0.314399
v -1.049191 -1.521757 0.232959
v -0.500000 -1.521757 0.232959
v -0.500000 -1.521757 0.314399
v -1.314399 -1.521757 0.110213
v 0.314399 -1.521757 -0.500000
v 0.314399 -1.521757 -1.110213
v -1.314399 -1.521757 -0.500000
v -0.994272 -1.150757 -1.159663
v -1.159663 -1.150757 -0.994273
v -0.994272 -1.150757 0.159663
v -0.500000 -1.150757 0.159663
v 0.232959 -1.521757 -1.049192
v 0.159663 -1.150757 -0.994273
v -0.005728 -1.150757 -1.159663
v 0.159663 -1.150757 -0.005727
v 0.159663 -1.150757 -0.500000
v 0.232959 -1.521757 -0.500000
v -1.232959 -1.521757 -0.500000
v -1.232959 -1.521757 0.049192
v -1.159663 -1.150757 -0.005727
v -1.159663 -1.150757 -0.500000
v -0.005728 -1.150757 0.159663
v -0.500000 -1.150757 -1.159663
vt 0.660681 0.620959
vt 0.660681 0.578127
vt 0.603518 0.578127
vt 0.603518 0.635291
vt 0.646349 0.635291
vt 0.546354 0.620959
vt 0.560686 0.635291
vt 0.546354 0.578127
vt 0.660681 0.535296
vt 0.646349 0.520964
vt 0.603518 0.520964
vt 0.546354 0.535296
vt 0.560686 0.520964
vt 0.650633 0.641007
vt 0.645921 0.634719
vt 0.660110 0.620530
vt 0.666398 0.625242
vt 0.650633 0.515247
vt 0.645921 0.521535
vt 0.603518 0.521535
vt 0.603518 0.515247
vt 0.556403 0.515247
vt 0.561115 0.521535
vt 0.546926 0.535724
vt 0.540638 0.531012
vt 0.556403 0.641007
vt 0.561115 0.634719
vt 0.603518 0.634719
vt 0.603518 0.641007
vt 0.540638 0.625242
vt 0.666398 0.578127
vt 0.666398 0.531012
vt 0.540638 0.578127
vt 0.565355 0.527194
vt 0.552585 0.539964
vt 0.565355 0.629060
vt 0.603518 0.629060
vt 0.660110 0.535724
vt 0.654451 0.539964
vt 0.641681 0.527194
vt 0.654451 0.616290
vt 0.654451 0.578127
vt 0.660110 0.578127
vt 0.546926 0.578127
vt 0.546926 0.620530
vt 0.603518 0.527194
vt 0.641681 0.629060
vt 0.552585 0.578127
vt 0.552585 0.616290
vt 0.382791 0.541194
vt 0.395561 0.528424
vt 0.433724 0.528424
vt 0.471887 0.528424
vt 0.484657 0.541194
vt 0.484657 0.579357
vt 0.484657 0.617520
vt 0.471887 0.630290
vt 0.433724 0.630290
vt 0.395561 0.630290
vt 0.382791 0.617520
vt 0.382791 0.579357
vn 0.0000 1.0000 0.0000
vn 0.0000 -1.0000 0.0000
vn -0.6893 0.2232 0.6893
vn 0.9833 0.1820 0.0000
vn 0.6893 0.2232 -0.6893
vn 0.0000 0.1820 0.9833
vn -0.6893 0.2232 -0.6893
vn 0.0000 0.1820 -0.9833
vn 0.6893 0.2232 0.6893
vn -0.9833 0.1820 0.0000
vn 0.6869 -0.2374 0.6869
vn 0.0000 -0.1938 -0.9810
vn -0.6869 -0.2374 0.6869
vn -0.9810 -0.1938 -0.0000
vn 0.0000 -0.1938 0.9810
vn -0.6869 -0.2374 -0.6869
vn 0.9810 -0.1938 -0.0000
vn 0.6869 -0.2374 -0.6869
usemtl Default_OBJ.004
s 1
f 151/151/87 152/152/87 153/153/87 154/154/87 155/155/87
f 156/156/87 157/157/87 154/154/87 153/153/87 158/158/87
f 159/159/87 160/160/87 161/161/87 153/153/87 152/152/87
f 162/162/87 158/158/87 153/153/87 161/161/87 163/163/87
f 164/164/88 165/165/88 166/166/88 167/167/88
f 168/168/88 169/169/88 170/170/88 171/171/88
f 172/172/88 173/173/88 174/174/88 175/175/88
f 176/176/88 177/177/88 178/178/88 179/179/88
f 156/156/89 180/180/89 176/176/89 157/157/89
f 151/151/90 167/167/90 181/181/90 152/152/90
f 159/159/91 182/182/91 168/168/91 160/160/91
f 157/157/92 176/176/92 179/179/92 154/154/92
f 163/163/93 172/172/93 175/175/93 162/162/93
f 160/160/94 168/168/94 171/171/94 161/161/94
f 155/155/95 164/164/95 167/167/95 151/151/95
f 158/158/96 183/183/96 180/180/96 156/156/96
f 161/161/94 171/171/94 172/172/94 163/163/94
f 152/152/90 181/181/90 182/182/90 159/159/90
f 154/154/92 179/179/92 164/164/92 155/155/92
f 162/162/96 175/175/96 183/183/96 158/158/96
f 173/173/97 184/184/97 185/185/97 174/174/97
f 177/177/98 186/186/98 187/187/98 178/178/98
f 188/188/99 189/189/99 190/190/99 169/169/99
f 166/166/100 191/191/100 192/192/100 193/193/100
f 183/183/88 194/194/88 195/195/88 180/180/88
f 171/171/88 170/170/88 173/173/88 172/172/88
f 181/181/88 193/193/88 188/188/88 182/182/88
f 179/179/88 178/178/88 165/165/88 164/164/88
f 175/175/88 174/174/88 194/194/88 183/183/88
f 180/180/88 195/195/88 177/177/88 176/176/88
f 167/167/88 166/166/88 193/193/88 181/181/88
f 182/182/88 188/188/88 169/169/88 168/168/88
f 169/169/101 190/190/101 199/196/101 170/170/101
f 165/165/102 198/197/102 191/191/102 166/166/102
f 194/194/103 197/198/103 196/199/103 195/195/103
f 170/170/101 199/196/101 184/184/101 173/173/101
f 193/193/100 192/192/100 189/189/100 188/188/100
f 178/178/98 187/187/98 198/197/98 165/165/98
f 174/174/103 185/185/103 197/198/103 194/194/103
f 195/195/104 196/199/104 186/186/104 177/177/104
f 185/200/88 184/201/88 199/202/88 190/203/88 189/204/88 192/205/88 191/206/88 198/207/88 187/208/88 186/209/88 196/210/88 197/211/88
