# Blender v2.80 (sub 75) OBJ File: 'GT_Volt_Cannon.blend'
# www.blender.org
mtllib GT_Volt_Cannon_Collider_C.mtl
o GT_Volt_Cannon
v 1.122390 0.175001 1.157150
v -0.157148 0.175001 1.122440
v -0.157148 0.175001 -0.122392
v -0.365739 -0.493300 -0.337919
v 1.337920 -0.493300 -0.365693
v 1.337920 -0.493300 1.365740
v -0.365739 -0.493300 1.337960
v -0.365739 -0.493300 -0.337919
v 1.080680 0.175001 -0.168279
v 1.080680 0.175001 -0.168279
v -0.157148 0.175001 -0.122392
vt 0.142438 0.788850
vt 0.178749 0.676856
vt 0.149141 0.788850
vt 0.377920 0.676856
vt 0.171844 0.676856
vt 0.225108 0.964157
vt 0.225108 0.706681
vt 0.402157 0.708639
vt 0.397956 0.966401
vt 0.146354 0.963009
vt 0.144396 0.704437
vt 0.377920 0.676856
vt 0.171844 0.676856
vt 0.142438 0.788850
vt 0.399913 0.788850
vt 0.377920 0.676856
vt 0.225108 0.706681
vt 0.225108 0.964157
vt 0.399388 0.785068
vt 0.000000 0.000000
vt 0.859737 0.417643
vt 0.359035 0.883412
vt 0.393211 0.788850
vt 0.183316 0.883412
vt 0.777484 0.417643
vn -0.9642 0.2651 0.0000
vn -0.9546 0.2979 0.0000
vn -0.9701 0.2425 0.0000
vn 0.9427 0.3333 -0.0129
vn 0.0000 -1.0000 -0.0000
vn -0.0200 0.3023 0.9530
vn 0.0000 1.0000 0.0000
vn -0.0239 0.2943 -0.9554
usemtl _auto_
s 1
f 8/1/1 3/2/2 4/3/3
f 9/4/4 1/5/4 6/6/4 5/7/4
f 5/8/5 6/9/5 7/10/5 8/11/5
f 1/12/6 2/13/6 7/14/6 6/15/6
f 2/13/2 3/16/2 8/17/1 7/18/2
f 5/19/5 8/1/5 4/3/5
f 2/13/7 1/12/7 9/20/7 3/16/7
f 10/21/8 9/22/8 5/23/8 4/3/8 3/24/8 11/25/8
