# Blender v2.79 (sub 0) OBJ File: 'shredder2.blend'
# www.blender.org
mtllib HE_ShredderCannon_barrel_B_c.mtl
o Mesh0.003_ID8947.004
v 0.138448 -0.190558 -0.467283
v -0.000000 -0.235543 -0.467283
v -0.235543 0.000000 -0.467283
v -0.224015 0.072787 -0.467283
v -0.190558 -0.138448 -0.467283
v 0.072787 -0.224014 -0.467283
v 0.138448 0.190559 -0.467283
v -0.072787 0.224015 -0.467283
v -0.000000 0.235543 -0.467283
v 0.190558 0.138449 -0.467283
v -0.190558 0.138449 -0.467283
v 0.235543 0.000000 -0.467283
v -0.138449 -0.190558 -0.467283
v -0.072787 -0.224014 -0.467283
v -0.224015 -0.072787 -0.467283
v 0.224015 0.072787 -0.467283
v -0.138449 0.190559 -0.467283
v 0.072787 0.224015 -0.467283
v 0.190558 -0.138448 -0.467283
v 0.224015 -0.072787 -0.467283
v 0.138448 -0.190558 2.526045
v -0.000000 -0.235543 2.526045
v -0.235543 0.000000 2.526045
v -0.224015 0.072787 2.526045
v -0.190558 -0.138448 2.526045
v 0.072787 -0.224014 2.526045
v 0.138448 0.190559 2.526045
v -0.072787 0.224015 2.526045
v -0.000000 0.235543 2.526045
v 0.190558 0.138449 2.526045
v -0.190558 0.138449 2.526045
v 0.235543 0.000000 2.526045
v -0.138449 -0.190558 2.526045
v -0.072787 -0.224014 2.526045
v -0.224015 -0.072787 2.526045
v 0.224015 0.072787 2.526045
v -0.138449 0.190559 2.526045
v 0.072787 0.224015 2.526045
v 0.190558 -0.138448 2.526045
v 0.224015 -0.072787 2.526045
v -0.224015 -0.072787 -0.467283
v -0.190558 -0.138448 -0.467283
v 0.072787 -0.224014 -0.467283
v 0.138448 -0.190558 -0.467283
v -0.072787 -0.224014 -0.467283
v -0.138449 -0.190558 -0.467283
v -0.224015 0.072787 -0.467283
v -0.235543 0.000000 -0.467283
v 0.235543 0.000000 -0.467283
v 0.224015 0.072787 -0.467283
v 0.190558 -0.138448 -0.467283
v -0.000000 -0.235543 -0.467283
v 0.190558 0.138449 -0.467283
v 0.072787 0.224015 -0.467283
v -0.000000 0.235543 -0.467283
v -0.072787 0.224015 -0.467283
v 0.224015 -0.072787 -0.467283
v -0.138449 0.190559 -0.467283
v -0.190558 0.138449 -0.467283
v 0.138448 0.190559 -0.467283
v -0.224015 -0.072787 2.526045
v -0.190558 -0.138448 2.526045
v 0.072787 -0.224014 2.526045
v 0.138448 -0.190558 2.526045
v -0.072787 -0.224014 2.526045
v -0.138449 -0.190558 2.526045
v -0.224015 0.072787 2.526045
v -0.235543 0.000000 2.526045
v 0.235543 0.000000 2.526045
v 0.224015 0.072787 2.526045
v 0.190558 -0.138448 2.526045
v -0.000000 -0.235543 2.526045
v 0.190558 0.138449 2.526045
v 0.072787 0.224015 2.526045
v -0.000000 0.235543 2.526045
v -0.072787 0.224015 2.526045
v 0.224015 -0.072787 2.526045
v -0.138449 0.190559 2.526045
v -0.190558 0.138449 2.526045
v 0.138448 0.190559 2.526045
vt 0.567652 0.213665
vt 0.574364 0.214728
vt 0.572644 0.215287
vt 0.566589 0.212202
vt 0.569115 0.214728
vt 0.570835 0.215287
vt 0.575827 0.213665
vt 0.569115 0.204427
vt 0.576890 0.206953
vt 0.567652 0.205490
vt 0.566589 0.206953
vt 0.577449 0.208673
vt 0.577449 0.210482
vt 0.570835 0.203869
vt 0.575827 0.205490
vt 0.574364 0.204427
vt 0.572644 0.203869
vt 0.566031 0.208673
vt 0.576890 0.212202
vt 0.566031 0.210482
vt 0.567652 0.213665
vt 0.572644 0.215287
vt 0.574364 0.214728
vt 0.566589 0.212202
vt 0.569115 0.214728
vt 0.570835 0.215287
vt 0.575827 0.213665
vt 0.569115 0.204427
vt 0.567652 0.205490
vt 0.576890 0.206953
vt 0.566589 0.206953
vt 0.577449 0.210482
vt 0.577449 0.208673
vt 0.570835 0.203869
vt 0.575827 0.205490
vt 0.574364 0.204427
vt 0.572644 0.203869
vt 0.566031 0.208673
vt 0.576890 0.212202
vt 0.566031 0.210482
vt 0.572644 0.215287
vt 0.574364 0.214728
vt 0.574364 0.214728
vt 0.566589 0.212202
vt 0.567652 0.213665
vt 0.567652 0.213665
vt 0.567652 0.205490
vt 0.566589 0.206953
vt 0.566589 0.206953
vt 0.577449 0.210482
vt 0.577449 0.208673
vt 0.577449 0.208673
vt 0.569115 0.214728
vt 0.569115 0.214728
vt 0.572644 0.203869
vt 0.570835 0.203869
vt 0.570835 0.203869
vt 0.575827 0.205490
vt 0.574364 0.204427
vt 0.574364 0.204427
vt 0.566031 0.210482
vt 0.566589 0.212202
vt 0.575827 0.213665
vt 0.575827 0.213665
vt 0.566031 0.208673
vt 0.566031 0.210482
vt 0.576890 0.212202
vt 0.577449 0.210482
vt 0.570835 0.215287
vt 0.570835 0.215287
vt 0.566031 0.208673
vt 0.569115 0.204427
vt 0.567652 0.205490
vt 0.576890 0.206953
vt 0.576890 0.206953
vt 0.569115 0.204427
vt 0.575827 0.205490
vt 0.572644 0.203869
vt 0.576890 0.212202
vt 0.572644 0.215287
vn 0.0000 0.0000 -1.0000
vn 0.0000 0.0000 1.0000
vn 0.4540 -0.8910 0.0000
vn -0.7071 -0.7071 0.0000
vn -0.8910 0.4540 0.0000
vn 0.9877 0.1564 0.0000
vn -0.4540 -0.8910 0.0000
vn -0.1564 0.9877 0.0000
vn 0.4540 0.8910 0.0000
vn -0.8910 -0.4540 0.0000
vn 0.7071 -0.7071 0.0000
vn -0.9877 -0.1564 0.0000
vn 0.9877 -0.1564 0.0000
vn -0.1564 -0.9877 0.0000
vn -0.9877 0.1564 0.0000
vn -0.7071 0.7071 0.0000
vn 0.8910 0.4540 0.0000
vn -0.4540 0.8910 0.0000
vn 0.7071 0.7071 0.0000
vn 0.1564 0.9877 0.0000
vn 0.8910 -0.4540 0.0000
vn 0.1564 -0.9877 0.0000
usemtl None
s off
f 46/1/1 44/2/1 43/3/1
f 42/4/1 44/2/1 46/1/1
f 46/1/1 43/3/1 45/5/1
f 45/5/1 43/3/1 52/6/1
f 42/4/1 51/7/1 44/2/1
f 58/8/1 53/9/1 59/10/1
f 47/11/1 50/12/1 49/13/1
f 59/10/1 50/12/1 47/11/1
f 56/14/1 60/15/1 58/8/1
f 54/16/1 56/14/1 55/17/1
f 48/18/1 49/13/1 57/19/1
f 58/8/1 60/15/1 53/9/1
f 41/20/1 57/19/1 51/7/1
f 41/20/1 51/7/1 42/4/1
f 48/18/1 57/19/1 41/20/1
f 47/11/1 49/13/1 48/18/1
f 59/10/1 53/9/1 50/12/1
f 56/14/1 54/16/1 60/15/1
f 66/21/2 63/22/2 64/23/2
f 62/24/2 66/21/2 64/23/2
f 66/21/2 65/25/2 63/22/2
f 65/25/2 72/26/2 63/22/2
f 62/24/2 64/23/2 71/27/2
f 78/28/2 79/29/2 73/30/2
f 67/31/2 69/32/2 70/33/2
f 79/29/2 67/31/2 70/33/2
f 76/34/2 78/28/2 80/35/2
f 74/36/2 75/37/2 76/34/2
f 68/38/2 77/39/2 69/32/2
f 78/28/2 73/30/2 80/35/2
f 61/40/2 71/27/2 77/39/2
f 61/40/2 62/24/2 71/27/2
f 68/38/2 61/40/2 77/39/2
f 67/31/2 68/38/2 69/32/2
f 79/29/2 70/33/2 73/30/2
f 76/34/2 80/35/2 74/36/2
f 6/41/3 1/42/3 21/43/3
f 5/44/4 13/45/4 33/46/4
f 11/47/5 4/48/5 24/49/5
f 12/50/6 16/51/6 36/52/6
f 13/45/7 14/53/7 34/54/7
f 9/55/8 8/56/8 28/57/8
f 7/58/9 18/59/9 38/60/9
f 15/61/10 5/44/10 25/62/10
f 1/42/11 19/63/11 39/64/11
f 3/65/12 15/61/12 35/66/12
f 20/67/13 12/50/13 32/68/13
f 14/53/14 2/69/14 22/70/14
f 4/48/15 3/65/15 23/71/15
f 17/72/16 11/47/16 31/73/16
f 16/51/17 10/74/17 30/75/17
f 8/56/18 17/72/18 37/76/18
f 10/74/19 7/58/19 27/77/19
f 18/59/20 9/55/20 29/78/20
f 19/63/21 20/67/21 40/79/21
f 2/69/22 6/41/22 26/80/22
f 6/41/3 21/43/3 26/80/3
f 5/44/4 33/46/4 25/62/4
f 11/47/5 24/49/5 31/73/5
f 12/50/6 36/52/6 32/68/6
f 13/45/7 34/54/7 33/46/7
f 9/55/8 28/57/8 29/78/8
f 7/58/9 38/60/9 27/77/9
f 15/61/10 25/62/10 35/66/10
f 1/42/11 39/64/11 21/43/11
f 3/65/12 35/66/12 23/71/12
f 20/67/13 32/68/13 40/79/13
f 14/53/14 22/70/14 34/54/14
f 4/48/15 23/71/15 24/49/15
f 17/72/16 31/73/16 37/76/16
f 16/51/17 30/75/17 36/52/17
f 8/56/18 37/76/18 28/57/18
f 10/74/19 27/77/19 30/75/19
f 18/59/20 29/78/20 38/60/20
f 19/63/21 40/79/21 39/64/21
f 2/69/22 26/80/22 22/70/22
