# Blender v2.79 (sub 0) OBJ File: 'shredder2.blend'
# www.blender.org
mtllib HE_ShredderCannon_base_c.mtl
o turret_base_ID79.007
v 0.000000 -0.494568 -0.691515
v 0.000000 -0.434002 -0.691515
v 0.134908 -0.494568 -0.678228
v 0.134908 -0.434002 -0.678228
v 0.264632 -0.494568 -0.638877
v 0.264632 -0.434002 -0.638877
v 0.384186 -0.494568 -0.574974
v 0.384186 -0.434002 -0.574974
v 0.488976 -0.494568 -0.488975
v 0.488976 -0.434002 -0.488975
v 0.574974 -0.494568 -0.384185
v 0.574974 -0.434002 -0.384185
v 0.638877 -0.494568 -0.264631
v 0.638877 -0.434002 -0.264631
v 0.678228 -0.494568 -0.134908
v 0.678228 -0.434002 -0.134908
v 0.691516 -0.494568 0.000000
v 0.691516 -0.434002 0.000000
v 0.678228 -0.494568 0.134908
v 0.678228 -0.434002 0.134908
v 0.638877 -0.494568 0.264632
v 0.638877 -0.434002 0.264632
v 0.574974 -0.494568 0.384186
v 0.574974 -0.434002 0.384186
v 0.488976 -0.494568 0.488976
v 0.488976 -0.434002 0.488976
v 0.384186 -0.494568 0.574975
v 0.384186 -0.434002 0.574975
v 0.264632 -0.494568 0.638878
v 0.264632 -0.434002 0.638878
v 0.134908 -0.494568 0.678229
v 0.134908 -0.434002 0.678229
v -0.000000 -0.494568 0.691516
v -0.000000 -0.434002 0.691516
v -0.134908 -0.494568 0.678229
v -0.134908 -0.434002 0.678229
v -0.264632 -0.494568 0.638877
v -0.264632 -0.434002 0.638877
v -0.384186 -0.494568 0.574975
v -0.384186 -0.434002 0.574975
v -0.488976 -0.494568 0.488976
v -0.488976 -0.434002 0.488976
v -0.574975 -0.494568 0.384186
v -0.574975 -0.434002 0.384186
v -0.638877 -0.494568 0.264632
v -0.638877 -0.434002 0.264632
v -0.678229 -0.494568 0.134908
v -0.678229 -0.434002 0.134908
v -0.691516 -0.494568 -0.000000
v -0.691516 -0.434002 -0.000000
v -0.678228 -0.494568 -0.134908
v -0.678228 -0.434002 -0.134908
v -0.638877 -0.494568 -0.264632
v -0.638877 -0.434002 -0.264632
v -0.574974 -0.494568 -0.384186
v -0.574974 -0.434002 -0.384186
v -0.488975 -0.494568 -0.488976
v -0.488975 -0.434002 -0.488976
v -0.384185 -0.494568 -0.574974
v -0.384185 -0.434002 -0.574974
v -0.264631 -0.494568 -0.638877
v -0.264631 -0.434002 -0.638877
v -0.134907 -0.494568 -0.678228
v -0.134907 -0.434002 -0.678228
vt 0.608548 0.278665
vt 0.620221 0.278665
vt 0.620221 0.283263
vt 0.608548 0.283263
vt 0.596876 0.283263
vt 0.585204 0.283263
vt 0.585204 0.277856
vt 0.596876 0.277856
vt 0.585204 0.271848
vt 0.596876 0.271848
vt 0.585204 0.265469
vt 0.596876 0.265469
vt 0.585204 0.258966
vt 0.596876 0.258966
vt 0.585204 0.252588
vt 0.596876 0.252588
vt 0.585204 0.246580
vt 0.596876 0.246580
vt 0.585204 0.241173
vt 0.596876 0.241173
vt 0.585204 0.236574
vt 0.596876 0.236574
vt 0.608548 0.283263
vt 0.596876 0.283263
vt 0.596876 0.277856
vt 0.608548 0.277856
vt 0.596876 0.271848
vt 0.608548 0.271848
vt 0.596876 0.265470
vt 0.608548 0.265470
vt 0.596876 0.258966
vt 0.608548 0.258966
vt 0.596876 0.252588
vt 0.608548 0.252588
vt 0.596876 0.246580
vt 0.608548 0.246580
vt 0.596876 0.241173
vt 0.608548 0.241173
vt 0.596876 0.236574
vt 0.608548 0.236574
vt 0.620221 0.236574
vt 0.631893 0.236574
vt 0.631893 0.241981
vt 0.620221 0.241981
vt 0.631893 0.247990
vt 0.620221 0.247990
vt 0.631893 0.254368
vt 0.620221 0.254368
vt 0.631893 0.260871
vt 0.620221 0.260871
vt 0.631893 0.267249
vt 0.620221 0.267249
vt 0.631893 0.273257
vt 0.620221 0.273257
vt 0.631893 0.278665
vt 0.620221 0.278665
vt 0.631893 0.283263
vt 0.620221 0.283263
vt 0.608548 0.236574
vt 0.620221 0.236574
vt 0.620221 0.241981
vt 0.608548 0.241981
vt 0.620221 0.247990
vt 0.608548 0.247990
vt 0.620221 0.254368
vt 0.608548 0.254368
vt 0.620221 0.260871
vt 0.608548 0.260871
vt 0.620221 0.267249
vt 0.608548 0.267249
vt 0.576113 0.210921
vt 0.571921 0.208120
vt 0.568357 0.204556
vt 0.565556 0.200364
vt 0.563627 0.195707
vt 0.562644 0.190763
vt 0.562644 0.185722
vt 0.563627 0.180778
vt 0.565556 0.176121
vt 0.568357 0.171930
vt 0.571921 0.168365
vt 0.576113 0.165565
vt 0.580770 0.163635
vt 0.585714 0.162652
vt 0.590755 0.162652
vt 0.595699 0.163636
vt 0.600356 0.165565
vt 0.604547 0.168365
vt 0.608112 0.171930
vt 0.610912 0.176121
vt 0.612841 0.180778
vt 0.613825 0.185722
vt 0.613825 0.190763
vt 0.612841 0.195707
vt 0.610912 0.200364
vt 0.608112 0.204556
vt 0.604547 0.208120
vt 0.600356 0.210921
vt 0.595699 0.212850
vt 0.590755 0.213833
vt 0.585714 0.213833
vt 0.580770 0.212850
vt 0.620221 0.273257
vt 0.608548 0.273257
vt 0.641956 0.162652
vt 0.646900 0.163636
vt 0.651557 0.165565
vt 0.655749 0.168365
vt 0.659313 0.171930
vt 0.662114 0.176121
vt 0.664043 0.180778
vt 0.665026 0.185722
vt 0.665026 0.190763
vt 0.664043 0.195707
vt 0.662114 0.200364
vt 0.659313 0.204556
vt 0.655749 0.208120
vt 0.651557 0.210921
vt 0.646900 0.212850
vt 0.641956 0.213833
vt 0.636915 0.213833
vt 0.631971 0.212850
vt 0.627314 0.210921
vt 0.623123 0.208120
vt 0.619558 0.204556
vt 0.616758 0.200364
vt 0.614829 0.195707
vt 0.613845 0.190763
vt 0.613845 0.185722
vt 0.614829 0.180778
vt 0.616758 0.176121
vt 0.619558 0.171930
vt 0.623123 0.168365
vt 0.627314 0.165565
vt 0.631971 0.163635
vt 0.636915 0.162652
vn 0.0980 0.0000 -0.9952
vn 0.2903 0.0000 -0.9569
vn 0.4714 0.0000 -0.8819
vn 0.6344 0.0000 -0.7730
vn 0.7730 0.0000 -0.6344
vn 0.8819 0.0000 -0.4714
vn 0.9569 0.0000 -0.2903
vn 0.9952 0.0000 -0.0980
vn 0.9952 0.0000 0.0980
vn 0.9569 0.0000 0.2903
vn 0.8819 0.0000 0.4714
vn 0.7730 0.0000 0.6344
vn 0.6344 0.0000 0.7730
vn 0.4714 0.0000 0.8819
vn 0.2903 0.0000 0.9569
vn 0.0980 0.0000 0.9952
vn -0.0980 0.0000 0.9952
vn -0.2903 0.0000 0.9569
vn -0.4714 0.0000 0.8819
vn -0.6344 0.0000 0.7730
vn -0.7730 0.0000 0.6344
vn -0.8819 0.0000 0.4714
vn -0.9569 0.0000 0.2903
vn -0.9952 0.0000 0.0980
vn -0.9952 0.0000 -0.0980
vn -0.9569 0.0000 -0.2903
vn -0.8819 0.0000 -0.4714
vn -0.7730 0.0000 -0.6344
vn -0.6344 0.0000 -0.7730
vn -0.4714 0.0000 -0.8819
vn 0.0000 1.0000 -0.0000
vn -0.2903 0.0000 -0.9569
vn -0.0980 0.0000 -0.9952
vn 0.0000 -1.0000 -0.0000
usemtl None
s off
f 1/1/1 2/2/1 4/3/1 3/4/1
f 3/5/2 4/6/2 6/7/2 5/8/2
f 5/8/3 6/7/3 8/9/3 7/10/3
f 7/10/4 8/9/4 10/11/4 9/12/4
f 9/12/5 10/11/5 12/13/5 11/14/5
f 11/14/6 12/13/6 14/15/6 13/16/6
f 13/16/7 14/15/7 16/17/7 15/18/7
f 15/18/8 16/17/8 18/19/8 17/20/8
f 17/20/9 18/19/9 20/21/9 19/22/9
f 19/23/10 20/24/10 22/25/10 21/26/10
f 21/26/11 22/25/11 24/27/11 23/28/11
f 23/28/12 24/27/12 26/29/12 25/30/12
f 25/30/13 26/29/13 28/31/13 27/32/13
f 27/32/14 28/31/14 30/33/14 29/34/14
f 29/34/15 30/33/15 32/35/15 31/36/15
f 31/36/16 32/35/16 34/37/16 33/38/16
f 33/38/17 34/37/17 36/39/17 35/40/17
f 35/41/18 36/42/18 38/43/18 37/44/18
f 37/44/19 38/43/19 40/45/19 39/46/19
f 39/46/20 40/45/20 42/47/20 41/48/20
f 41/48/21 42/47/21 44/49/21 43/50/21
f 43/50/22 44/49/22 46/51/22 45/52/22
f 45/52/23 46/51/23 48/53/23 47/54/23
f 47/54/24 48/53/24 50/55/24 49/56/24
f 49/56/25 50/55/25 52/57/25 51/58/25
f 51/59/26 52/60/26 54/61/26 53/62/26
f 53/62/27 54/61/27 56/63/27 55/64/27
f 55/64/28 56/63/28 58/65/28 57/66/28
f 57/66/29 58/65/29 60/67/29 59/68/29
f 59/68/30 60/67/30 62/69/30 61/70/30
f 4/71/31 2/72/31 64/73/31 62/74/31 60/75/31 58/76/31 56/77/31 54/78/31 52/79/31 50/80/31 48/81/31 46/82/31 44/83/31 42/84/31 40/85/31 38/86/31 36/87/31 34/88/31 32/89/31 30/90/31 28/91/31 26/92/31 24/93/31 22/94/31 20/95/31 18/96/31 16/97/31 14/98/31 12/99/31 10/100/31 8/101/31 6/102/31
f 61/70/32 62/69/32 64/103/32 63/104/32
f 63/104/33 64/103/33 2/2/33 1/1/33
f 1/105/34 3/106/34 5/107/34 7/108/34 9/109/34 11/110/34 13/111/34 15/112/34 17/113/34 19/114/34 21/115/34 23/116/34 25/117/34 27/118/34 29/119/34 31/120/34 33/121/34 35/122/34 37/123/34 39/124/34 41/125/34 43/126/34 45/127/34 47/128/34 49/129/34 51/130/34 53/131/34 55/132/34 57/133/34 59/134/34 61/135/34 63/136/34
