# Blender v2.79 (sub 0) OBJ File: 'shredder2.blend'
# www.blender.org
mtllib HE_ShredderCannon_turret_H_c.mtl
o turret_H.001_ID79.000
v 0.708466 0.624498 -1.263944
v 0.708466 0.418545 -1.263944
v 0.708466 -0.434002 -1.263944
v 0.405667 -0.434002 -1.749597
v 0.405667 0.418545 -1.749597
v 0.638721 1.525753 1.608727
v 0.633510 1.760539 -1.263944
v 0.708466 1.690794 -1.263944
v 0.708466 0.418545 1.180402
v 0.633510 1.760539 0.624818
v 0.405667 0.624498 -1.749597
v 0.633510 1.607037 1.539942
v 0.708466 1.536478 1.538981
v 0.374196 1.760539 -1.679851
v 0.405667 1.690794 -1.749597
v 0.638721 -0.434002 1.263945
v 0.708466 -0.434002 1.180402
v 0.638721 0.418545 1.263945
v 0.638721 0.624498 1.608727
v 0.708466 0.624498 1.536108
v 0.708466 1.690794 0.619010
v -0.708466 0.624498 -1.263944
v -0.708466 0.418545 -1.263944
v -0.708466 -0.434002 -1.263944
v -0.405667 -0.434002 -1.749597
v -0.405667 0.418545 -1.749597
v -0.638721 1.525753 1.608727
v -0.633510 1.760539 -1.263944
v -0.708466 1.690794 -1.263944
v -0.708466 0.418545 1.180402
v -0.633510 1.760539 0.624818
v -0.405667 0.624498 -1.749597
v -0.633510 1.607037 1.539942
v -0.708466 1.536478 1.538981
v -0.374196 1.760539 -1.679851
v -0.405667 1.690794 -1.749597
v -0.638721 -0.434002 1.263945
v -0.708466 -0.434002 1.180402
v -0.638721 0.418545 1.263945
v -0.638721 0.624498 1.608727
v -0.708466 0.624498 1.536108
v -0.708466 1.690794 0.619010
vt 0.672474 0.854620
vt 0.679736 0.771758
vt 0.679736 0.854620
vt 0.634876 0.790789
vt 0.640317 0.759602
vt 0.672474 0.759700
vt 0.709797 0.771758
vt 0.709797 0.854620
vt 0.890334 0.916694
vt 0.730922 0.990067
vt 0.730922 0.916694
vt 0.981028 0.640786
vt 0.947404 0.617916
vt 0.981028 0.617916
vt 0.981028 0.735456
vt 0.947404 0.640786
vt 0.615381 0.877775
vt 0.615760 0.875316
vt 0.617841 0.877959
vt 0.709797 0.768926
vt 0.583603 0.875316
vt 0.870163 0.914627
vt 0.864146 0.841187
vt 0.870163 0.840725
vt 0.679736 0.768926
vt 0.721584 0.759695
vt 0.709797 0.774348
vt 0.720474 0.757238
vt 0.712440 0.774348
vt 0.709797 0.840685
vt 0.634876 0.854620
vt 0.890334 0.990067
vt 0.947404 0.735456
vt 0.583603 0.877775
vt 0.864146 0.915482
vt 0.672474 0.757238
vt 0.712440 0.840889
vt 0.672474 0.854620
vt 0.679736 0.854620
vt 0.679736 0.771758
vt 0.634876 0.790789
vt 0.672474 0.759700
vt 0.640317 0.759602
vt 0.709797 0.854620
vt 0.709797 0.771758
vt 0.890334 0.916694
vt 0.730922 0.916694
vt 0.730922 0.990067
vt 0.981028 0.640786
vt 0.981028 0.617916
vt 0.947404 0.617916
vt 0.981028 0.735456
vt 0.947404 0.640786
vt 0.615381 0.877775
vt 0.617841 0.877959
vt 0.615760 0.875316
vt 0.709797 0.768926
vt 0.583603 0.875316
vt 0.870163 0.914627
vt 0.870163 0.840725
vt 0.864146 0.841187
vt 0.679736 0.768926
vt 0.721584 0.759695
vt 0.720474 0.757238
vt 0.709797 0.774348
vt 0.712440 0.774348
vt 0.709797 0.840685
vt 0.634876 0.854620
vt 0.890334 0.990067
vt 0.947404 0.735456
vt 0.583603 0.877775
vt 0.864146 0.915482
vt 0.672474 0.757238
vt 0.712440 0.840889
vt 0.947404 0.640786
vt 0.947404 0.735456
vt 0.947404 0.617916
vt 0.947404 0.640786
vt 0.730922 0.990067
vt 0.890334 0.990067
vt 0.721584 0.759695
vt 0.720474 0.757238
vt 0.721584 0.759695
vt 0.712440 0.840889
vt 0.712440 0.774348
vt 0.870163 0.914627
vt 0.870163 0.840725
vt 0.615381 0.877775
vt 0.617841 0.877959
vt 0.583603 0.877775
vt 0.615381 0.877775
vt 0.679736 0.768926
vt 0.672474 0.757238
vt 0.709797 0.768926
vt 0.679736 0.768926
vt 0.709797 0.771758
vt 0.709797 0.768926
vt 0.709797 0.854620
vt 0.709797 0.771758
vt 0.947404 0.735456
vt 0.981028 0.735456
vt 0.712440 0.774348
vn 1.0000 0.0000 0.0000
vn 0.8486 0.0000 -0.5291
vn 0.5389 0.5640 0.6257
vn 0.7676 0.0000 0.6409
vn 0.7073 -0.0022 0.7069
vn 0.6812 0.7220 0.1211
vn 0.5146 -0.7420 0.4296
vn 0.6270 0.6738 -0.3909
vn 0.6812 0.7321 0.0000
vn 0.7212 0.0000 0.6927
vn 0.4710 -0.7573 0.4524
vn -1.0000 0.0000 0.0000
vn -0.8486 0.0000 -0.5291
vn -0.5389 0.5640 0.6257
vn -0.7676 0.0000 0.6409
vn -0.7073 -0.0022 0.7069
vn -0.6812 0.7220 0.1211
vn -0.5146 -0.7420 0.4296
vn -0.6270 0.6738 -0.3909
vn -0.6812 0.7321 0.0000
vn -0.7212 0.0000 0.6927
vn -0.4710 -0.7573 0.4524
vn 0.0000 0.0000 -1.0000
vn 0.0000 0.7071 -0.7071
vn 0.0000 1.0000 0.0000
vn 0.0000 0.9862 0.1654
vn 0.0000 0.6460 0.7634
vn 0.0000 0.0000 1.0000
vn 0.0000 -0.8585 0.5128
vn 0.0000 -1.0000 0.0000
usemtl None
s off
f 1/1/1 9/2/1 2/3/1
f 21/4/1 13/5/1 20/6/1
f 2/3/1 17/7/1 3/8/1
f 1/9/2 15/10/2 8/11/2
f 2/12/2 11/13/2 1/14/2
f 3/15/2 5/16/2 2/12/2
f 6/17/3 13/18/3 12/19/3
f 9/2/4 16/20/4 17/7/4
f 6/17/5 20/21/5 13/18/5
f 12/22/6 21/23/6 10/24/6
f 20/6/7 18/25/7 9/2/7
f 14/26/8 8/27/8 15/28/8
f 7/29/9 21/30/9 8/27/9
f 1/1/1 20/6/1 9/2/1
f 20/6/1 1/1/1 21/4/1
f 1/1/1 8/31/1 21/4/1
f 2/3/1 9/2/1 17/7/1
f 1/9/2 11/32/2 15/10/2
f 2/12/2 5/16/2 11/13/2
f 3/15/2 4/33/2 5/16/2
f 9/2/4 18/25/4 16/20/4
f 6/17/10 19/34/10 20/21/10
f 12/22/6 13/35/6 21/23/6
f 20/6/11 19/36/11 18/25/11
f 14/26/8 7/29/8 8/27/8
f 7/29/9 10/37/9 21/30/9
f 22/38/12 23/39/12 30/40/12
f 42/41/12 41/42/12 34/43/12
f 23/39/12 24/44/12 38/45/12
f 22/46/13 29/47/13 36/48/13
f 23/49/13 22/50/13 32/51/13
f 24/52/13 23/49/13 26/53/13
f 27/54/14 33/55/14 34/56/14
f 30/40/15 38/45/15 37/57/15
f 27/54/16 34/56/16 41/58/16
f 33/59/17 31/60/17 42/61/17
f 41/42/18 30/40/18 39/62/18
f 35/63/19 36/64/19 29/65/19
f 28/66/20 29/65/20 42/67/20
f 22/38/12 30/40/12 41/42/12
f 41/42/12 42/41/12 22/38/12
f 22/38/12 42/41/12 29/68/12
f 23/39/12 38/45/12 30/40/12
f 22/46/13 36/48/13 32/69/13
f 23/49/13 32/51/13 26/53/13
f 24/52/13 26/53/13 25/70/13
f 30/40/15 37/57/15 39/62/15
f 27/54/21 41/58/21 40/71/21
f 33/59/17 42/61/17 34/72/17
f 41/42/22 39/62/22 40/73/22
f 35/63/19 29/65/19 28/66/19
f 28/66/20 42/67/20 31/74/20
f 25/75/23 5/76/23 4/33/23
f 26/77/23 11/78/23 5/16/23
f 32/79/23 15/80/23 11/32/23
f 36/81/24 14/82/24 15/28/24
f 14/26/25 28/66/25 7/83/25
f 28/84/25 10/85/25 7/29/25
f 31/86/26 12/87/26 10/24/26
f 33/88/27 6/89/27 12/19/27
f 27/90/28 19/91/28 6/17/28
f 40/92/29 18/93/29 19/36/29
f 39/94/28 16/95/28 18/25/28
f 37/96/30 17/97/30 16/20/30
f 38/98/30 3/99/30 17/7/30
f 24/100/30 4/101/30 3/15/30
f 25/75/23 26/53/23 5/76/23
f 26/77/23 32/51/23 11/78/23
f 32/79/23 36/48/23 15/80/23
f 36/81/24 35/63/24 14/82/24
f 14/26/25 35/102/25 28/66/25
f 28/84/25 31/74/25 10/85/25
f 31/86/26 33/59/26 12/87/26
f 33/88/27 27/54/27 6/89/27
f 27/90/28 40/71/28 19/91/28
f 40/92/29 39/62/29 18/93/29
f 39/94/28 37/57/28 16/95/28
f 37/96/30 38/45/30 17/97/30
f 38/98/30 24/44/30 3/99/30
f 24/100/30 25/70/30 4/101/30
