# Blender v2.80 (sub 75) OBJ File: 'GT_Water_Cannon.blend'
# www.blender.org
mtllib GT_Water_Cannon_Collider.mtl
o GT_Water_Cannon.001
v 0.208286 0.406066 1.005250
v 0.124282 0.269713 1.150750
v 0.261654 0.356066 1.027350
v 0.297916 0.116150 1.254120
v 0.110792 -0.010789 1.288650
v 0.351484 0.277734 1.128280
v 0.394977 0.306318 1.110500
v 0.499977 0.334830 1.100870
v 0.499977 0.010449 1.367660
v 0.604977 0.306318 1.110500
v 0.648469 0.277734 1.128280
v 0.681842 0.079797 1.286680
v 0.702038 0.116150 1.254120
v 0.648469 0.048362 1.316930
v 0.604977 0.025396 1.341540
v 0.742000 -0.010789 1.403270
v 0.257954 -0.010789 1.403270
v 0.032425 -0.010789 1.309850
v 0.357688 0.425478 1.031050
v 0.499977 0.406067 1.083400
v 0.738299 0.356067 1.027350
v 0.791667 0.406067 1.005250
v 0.889161 -0.010789 1.288650
v 1.013360 0.269713 1.045090
v 1.087300 0.159318 1.105080
v 1.247980 -0.056365 1.073990
v 1.187050 -0.138173 1.187100
v 0.985813 -0.138173 1.341520
v 0.751464 -0.138173 1.438590
v 0.499977 -0.138172 1.471700
v 0.248489 -0.138173 1.438590
v 0.922371 0.159318 1.231630
v 0.875672 0.269713 1.150750
v 0.967529 -0.010789 1.309850
v -0.172466 -0.056365 1.172470
v -0.187100 -0.138173 1.187100
v 0.014140 -0.138173 1.341520
v 0.751464 -0.190000 1.438590
v -0.187100 -0.190000 1.187100
v -0.341517 -0.190000 0.985861
v 1.438540 -0.190000 0.751512
v 1.471650 -0.189999 0.500024
v 1.341470 -0.190000 0.985861
v 1.187050 -0.190000 1.187100
v 0.985813 -0.190000 1.341520
v 0.499977 -0.233301 1.446700
v 0.026640 -0.233301 1.319870
v 1.438540 -0.189999 0.248536
v 1.160540 -0.236650 1.160580
v 0.741759 -0.236650 1.402370
v -0.309041 -0.236650 0.967111
v -0.414440 -0.233301 0.745041
v -0.446697 -0.233301 0.500024
v -0.341517 -0.138173 0.014187
v 1.319820 -0.233301 0.026687
v -0.319867 -0.233301 0.026687
v -0.187100 -0.190000 -0.187053
v 1.187050 -0.189999 -0.187053
v 1.160540 -0.236650 -0.160537
v 1.402320 -0.236650 0.258242
v 1.402320 -0.236650 0.741806
v 0.985814 -0.189999 -0.341470
v 0.248489 -0.190000 -0.438541
v 0.751464 -0.189999 -0.438541
v 0.741759 -0.236650 -0.402319
v 0.499977 -0.214999 -0.464951
v 0.774856 0.425478 0.023918
v 0.874424 0.475001 0.716211
v 0.917619 0.475001 0.611931
v 0.611884 0.475001 0.917665
v 0.707013 0.493302 0.858622
v 0.858575 0.493302 0.292987
v 0.607147 0.493302 0.100059
v 0.100012 0.493302 0.392854
v 0.141379 0.493302 0.707061
v 0.499977 0.493302 0.914097
v -0.238735 0.165038 0.926520
v -0.186089 0.241521 0.896124
v -0.317937 -0.007221 0.972247
v 1.317890 -0.007221 0.972247
v -0.444470 -0.007221 0.500024
v -0.353015 0.165038 0.500024
v 1.232544 0.276831 0.696316
v 1.186047 0.241521 0.896124
v 1.412244 -0.007221 0.744465
v 1.444422 -0.007221 0.500024
v -0.238736 0.165038 0.073528
v -0.103180 0.165038 -0.103132
v 0.073481 0.165038 -0.238688
v 0.279206 0.165038 -0.323903
v 0.499977 0.165038 -0.352968
v 1.412244 -0.007221 0.255583
v -0.317938 -0.007221 0.027801
v 0.926473 0.165038 -0.238688
v 1.317890 -0.007220 0.027801
v -0.167848 -0.007221 -0.167801
v 1.167806 -0.007220 -0.167801
v 0.972200 -0.007220 -0.317890
v 0.255536 -0.007220 -0.412242
v 0.499977 -0.007220 -0.444423
v 0.744418 -0.007220 -0.412242
v 1.232544 0.276832 0.303732
v 1.036256 0.276833 -0.036256
v 0.879184 0.276833 -0.156782
v -0.026781 0.276826 1.043655
v -0.017439 0.407868 0.201293
v -0.097494 0.407859 0.500024
v -0.005228 0.406040 0.791704
v 0.201249 0.407872 -0.017388
v 0.499977 0.407873 -0.097430
v -0.186811 -0.091589 -0.186764
v -0.061353 0.197999 1.088960
v 1.334797 -0.102847 0.982007
v -0.318475 -0.070198 0.027490
v 0.570948 0.429991 0.961080
v 0.381553 0.444634 0.943224
v 0.418821 0.454618 0.980802
v 0.643203 -0.236189 1.391000
v 0.387719 0.004323 1.344870
v 0.623544 -0.138173 1.438590
v 0.376410 -0.138172 1.438590
vt 0.000000 0.000000
vt 0.632571 0.940192
vt 0.632571 0.887441
vt 0.220055 0.935508
vt 0.212487 0.906119
vt 0.627429 0.941088
vt 0.000000 0.000000
vt 0.000000 0.000000
vt 0.632571 0.940192
vt 0.632571 0.914747
vt 0.000000 0.000000
vt 0.212487 0.871894
vt 0.693719 0.389718
vt 0.199889 0.761385
vt 0.636502 0.422753
vt 0.000000 0.000000
vt 0.208836 0.905630
vt 0.278961 0.811052
vt 0.208836 0.835167
vt 0.212487 0.906119
vt 0.212487 0.935508
vt 0.313438 0.822271
vt 0.212487 0.835167
vt 0.632571 0.887441
vt 0.242487 0.749971
vt 0.000000 0.000000
vt 0.206163 0.835167
vt 0.122757 0.766041
vt 0.144728 0.737408
vt 0.206705 0.808379
vt 0.242487 0.808379
vt 0.000000 0.000000
vt 0.208836 0.871641
vt 0.206163 0.799385
vt 0.173361 0.954897
vt 0.208836 0.871641
vt 0.632366 0.820721
vt 0.282630 0.765637
vt 0.674754 0.814023
vt 0.584709 0.930379
vt 0.607697 0.930379
vt 0.605060 0.911187
vt 0.590265 0.556041
vt 0.563376 0.561682
vt 0.563376 0.556041
vt 0.816022 0.861509
vt 0.832175 0.910234
vt 0.805087 0.933855
vt 0.590682 0.592813
vt 0.607286 0.579881
vt 0.563376 0.590766
vt 0.277832 0.840875
vt 0.310768 0.840875
vt 0.651763 0.820044
vt 0.574584 0.854080
vt 0.599006 0.829659
vt 0.242487 0.814703
vt 0.205760 0.814703
vt 0.632366 0.911187
vt 0.313438 0.814703
vt 0.342827 0.814703
vt 0.340246 0.737408
vt 0.342998 0.800668
vt 0.341004 0.801203
vt 0.212487 0.764216
vt 0.569758 0.950048
vt 0.651763 0.935097
vt 0.144284 0.834219
vt 0.328259 0.865717
vt 0.680023 0.930379
vt 0.659672 0.911187
vt 0.632366 0.930379
vt 0.205760 0.822271
vt 0.171536 0.822271
vt 0.171536 0.814703
vt 0.220055 0.764216
vt 0.212487 0.764216
vt 0.212487 0.835167
vt 0.174206 0.840874
vt 0.142147 0.814703
vt 0.212487 0.798440
vt 0.632571 0.834689
vt 0.632571 0.860134
vt 0.651763 0.887441
vt 0.632571 0.834689
vt 0.632571 0.812838
vt 0.623144 0.810720
vt 0.313438 0.814703
vt 0.342827 0.822271
vt 0.685118 0.911187
vt 0.242487 0.973419
vt 0.278961 0.811052
vt 0.279214 0.814703
vt 0.542124 0.587648
vt 0.539184 0.526517
vt 0.572062 0.606467
vt 0.225217 0.764773
vt 0.212487 0.734827
vt 0.651763 0.839784
vt 0.565644 0.887441
vt 0.142147 0.814703
vt 0.555646 0.901759
vt 0.559385 0.588841
vt 0.535639 0.599477
vt 0.565579 0.526670
vt 0.660285 0.931711
vt 0.710392 0.908347
vt 0.279214 0.814703
vt 0.212487 0.935508
vt 0.122757 0.904293
vt 0.172025 0.957212
vt 0.220055 0.935508
vt 0.232002 0.933371
vt 0.555688 0.931711
vt 0.242487 0.822271
vt 0.224441 0.823123
vt 0.560432 0.617364
vt 0.545985 0.594788
vt 0.242487 0.814703
vt 0.546230 0.609400
vt 0.706969 0.911187
vt 0.557764 0.911187
vt 0.664219 0.909382
vt 0.664219 0.865499
vt 0.317461 0.914769
vt 0.304173 0.865717
vt 0.692311 0.827495
vt 0.714253 0.865499
vt 0.632571 0.812838
vt 0.199889 0.908950
vt 0.486262 0.371853
vt 0.641169 0.458203
vt 0.342827 0.814703
vt 0.208836 0.934815
vt 0.242487 0.976092
vt 0.937884 0.861509
vt 0.931794 0.850547
vt 0.994310 0.823231
vt 0.000000 0.000000
vt 0.695029 0.488597
vt 0.682403 0.490661
vt 0.212035 0.149058
vt 0.722087 0.458203
vt 0.704987 0.475303
vt 0.728748 0.447470
vt 0.710392 0.866534
vt 0.000000 0.000000
vt 0.274548 0.890699
vt 0.259083 0.897104
vt 0.285085 0.908950
vt 0.722087 0.411485
vt 0.546340 0.561682
vt 0.157290 0.835167
vt 0.172957 0.875310
vt 0.293188 0.210808
vt 0.000000 0.000000
vt 0.304424 0.851763
vt 0.208836 0.764705
vt 0.208836 0.735518
vt 0.212487 0.734827
vt 0.233308 0.906808
vt 0.220436 0.917461
vt 0.242487 0.920363
vt 0.226874 0.900296
vt 0.237557 0.910000
vt 0.519466 0.579881
vt 0.510624 0.582273
vt 0.536070 0.592813
vt 0.550710 0.587626
vt 0.207142 0.840874
vt 0.759595 0.823231
vt 0.596286 0.561682
vt 0.443090 0.348486
vt 0.845290 0.918853
vt 0.845290 0.834142
vt 0.564969 0.930379
vt 0.876953 0.933855
vt 0.342136 0.811052
vt 0.616128 0.582273
vt 0.279214 0.822271
vt 0.187621 0.930199
vt 0.167512 0.914769
vt 0.627429 0.941088
vt 0.142147 0.822271
vt 0.709045 0.931711
vt 0.694973 0.950048
vt 0.223879 0.821791
vt 0.623119 0.833188
vt 0.522105 0.526517
vt 0.225217 0.735615
vt 0.581132 0.526670
vt 0.572170 0.560429
vt 0.297353 0.930199
vt 0.570742 0.950802
vt 0.190208 0.925717
vt 0.000000 0.000000
vt 0.574581 0.920803
vt 0.948818 0.933855
vt 0.876953 0.927451
vt 0.908615 0.918853
vt 0.929219 0.902213
vt 0.908615 0.834142
vt 0.876953 0.823231
vt 0.921730 0.841068
vt 0.000000 0.000000
vt 0.714253 0.909382
vt 0.242487 0.899289
vt 0.232709 0.898744
vt 0.702321 0.927830
vt 0.298018 0.867228
vt 0.723875 0.459236
vt 0.530466 0.561682
vt 0.536487 0.556041
vt 0.231662 0.823431
vn -0.9549 0.1505 0.2559
vn 0.8011 0.0875 0.5922
vn 0.5690 0.5011 0.6520
vn 0.9216 0.1465 0.3594
vn -0.1350 0.9629 -0.2338
vn 0.0000 -1.0000 -0.0000
vn -0.9914 0.0098 0.1305
vn -0.9541 0.1427 0.2633
vn 0.7933 0.0000 0.6088
vn 0.5198 0.5205 0.6774
vn 0.9055 0.1984 0.3751
vn 0.9204 0.0873 0.3812
vn 0.9808 0.1461 0.1291
vn -0.0942 0.9313 -0.3517
vn -0.2575 0.9313 -0.2575
vn -0.0127 -0.9999 -0.0034
vn -0.1713 -0.9395 -0.2967
vn -0.0788 -0.9791 -0.1874
vn -0.0961 -0.9950 0.0269
vn -0.0014 -0.9999 0.0109
vn -0.0439 -0.9990 0.0058
vn -0.0046 -1.0000 -0.0035
vn 0.0362 0.7797 -0.6251
vn 0.2712 0.8641 -0.4240
vn 0.3035 0.7248 -0.6185
vn -0.4142 0.5603 -0.7173
vn -0.2066 0.6023 -0.7711
vn -0.2863 0.2967 -0.9110
vn 0.2547 0.3774 0.8903
vn -0.0348 0.2330 0.9719
vn -0.0093 0.3996 0.9167
vn -0.2538 0.5904 0.7662
vn -0.2184 0.6671 0.7122
vn -0.2239 0.4259 0.8766
vn 0.1789 0.7393 0.6492
vn 0.0127 0.9998 0.0163
vn -0.0000 0.8999 0.4362
vn 0.4521 0.1840 0.8728
vn 0.5167 0.3408 0.7854
vn -0.5644 0.6023 -0.5645
vn -0.5688 0.7723 -0.2828
vn -0.3309 0.7497 -0.5731
vn -0.0000 0.0983 -0.9952
vn -0.2934 0.1277 -0.9474
vn -0.0000 0.2942 -0.9557
vn 0.2985 -0.8022 -0.5171
vn 0.5358 -0.6263 -0.5663
vn 0.5205 -0.6500 -0.5536
vn 0.7583 -0.6264 -0.1809
vn 0.7397 -0.6501 -0.1740
vn 0.7325 -0.6249 -0.2700
vn -0.5522 0.5423 0.6332
vn -0.7389 0.5403 0.4026
vn -0.6653 0.3357 0.6668
vn 0.6272 0.3733 0.6836
vn 0.6670 0.4497 0.5940
vn 0.5836 0.5347 0.6111
vn 0.3954 0.5686 -0.7214
vn 0.2435 0.3388 -0.9088
vn 0.0269 0.6037 -0.7968
vn -0.2329 -0.0874 0.9686
vn -0.4881 0.0174 0.8726
vn -0.3352 -0.3228 0.8851
vn -0.9058 -0.0226 -0.4231
vn -0.8839 -0.2529 -0.3934
vn -0.9762 -0.0221 -0.2157
vn -0.4913 0.3598 0.7932
vn -0.6977 -0.0297 0.7158
vn -0.5470 -0.2535 0.7979
vn 0.7155 -0.6718 0.1917
vn 0.7529 -0.6265 0.2017
vn 0.5171 -0.8022 0.2985
vn 0.9510 0.1144 -0.2873
vn 0.8205 0.3199 -0.4737
vn 0.9048 0.3501 -0.2424
vn -0.8086 0.5884 -0.0055
vn -0.8469 0.3387 -0.4099
vn -0.9424 0.3247 -0.0802
vn -0.6233 0.3698 -0.6891
vn -0.6533 0.1527 -0.7415
vn 0.6088 0.0000 0.7933
vn 0.5970 -0.8022 -0.0000
vn 0.4945 0.1473 -0.8566
vn 0.4756 0.3085 -0.8238
vn -0.0007 -0.2149 0.9766
vn -0.0211 -0.0143 0.9997
vn 0.0000 -0.2219 0.9751
vn 0.1324 -0.6249 0.7694
vn 0.1290 -0.8917 0.4339
vn 0.2225 -0.6264 0.7471
vn 0.4402 0.4061 0.8008
vn 0.2769 0.4132 0.8675
vn 0.3286 0.5620 0.7591
vn -0.6710 -0.0264 -0.7410
vn -0.7213 0.5946 -0.3553
vn -0.5714 0.8207 0.0026
vn -0.4629 0.3992 0.7914
vn -0.3286 0.5620 0.7591
vn -0.3173 0.3575 0.8784
vn 0.6818 0.6717 0.2898
vn 0.8149 0.5401 0.2102
vn 0.6748 0.7229 0.1485
vn 0.2243 -0.6263 -0.7466
vn 0.2266 -0.6507 -0.7248
vn 0.1427 -0.6254 -0.7672
vn -0.4346 -0.8015 0.4108
vn -0.6491 -0.6467 0.4004
vn -0.4157 -0.8152 0.4033
vn -0.7893 0.1457 0.5965
vn -0.7107 0.1300 0.6914
vn -0.6435 0.6909 0.3295
vn -0.0000 1.0000 0.0000
vn 0.2737 0.6179 0.7371
vn -0.0549 0.0729 0.9958
vn -0.0513 -0.2171 0.9748
vn 0.2463 -0.0297 0.9687
vn -0.2737 0.6179 0.7371
vn 0.6719 0.3406 -0.6577
vn 0.9017 0.4300 -0.0461
vn 0.6744 0.7170 -0.1764
vn 0.4684 0.7409 0.4813
vn 0.5071 0.5532 0.6609
vn 0.5349 0.7087 -0.4599
vn 0.7243 0.1144 -0.6800
vn -0.7844 0.3737 0.4951
vn -0.2571 0.8979 0.3573
vn -0.2258 0.9298 0.2906
vn -0.2201 0.9640 0.1493
vn 0.4761 -0.6232 0.6204
vn 0.2985 -0.8022 0.5170
vn 0.3809 -0.7674 0.5158
vn -0.0413 0.9979 0.0495
vn -0.1251 0.9764 -0.1759
vn -0.0790 0.9959 -0.0430
vn 0.2717 0.6109 0.7436
vn 0.2338 0.5525 0.8000
vn 0.2655 0.5742 0.7744
vn 0.4367 0.8737 -0.2142
vn 0.1110 0.7951 0.5962
vn 0.4086 0.8329 0.3733
vn 0.5160 0.8563 -0.0233
vn -0.1155 0.5397 -0.8339
vn 0.1512 0.9611 0.2312
vn 0.1238 0.8783 0.4619
vn 0.3292 0.8571 0.3962
vn -0.0055 -1.0000 0.0070
vn -0.0082 -0.9995 0.0307
vn 0.0234 0.9997 0.0063
vn -0.2427 0.9698 -0.0240
vn -0.2525 0.2784 0.9267
vn -0.4679 0.8421 0.2681
vn -0.6640 -0.6264 0.4083
vn -0.7089 -0.6249 0.3270
vn -0.1830 0.9306 0.3170
vn 0.5600 -0.3923 -0.7298
vn 0.5418 0.8389 -0.0522
vn 0.6001 -0.6249 -0.4994
vn -0.0472 0.8879 0.4575
vn 0.7218 -0.1961 -0.6637
vn -0.0127 0.9998 0.0163
vn -0.1699 0.7305 0.6615
vn -0.0733 0.9929 0.0941
vn -0.2498 0.5793 0.7759
vn 0.2559 0.1490 0.9551
vn -0.3556 0.9286 0.1059
vn -0.1513 0.7224 0.6748
vn -0.1973 0.5173 0.8327
vn 0.2564 0.1377 0.9567
vn 0.2446 0.1364 -0.9600
vn -0.4015 0.6685 0.6260
vn -0.4826 0.7043 0.5206
vn 0.7787 0.1984 0.5952
vn 0.5652 0.6854 0.4590
vn -0.2218 -0.5157 0.8276
vn -0.0547 0.0140 0.9984
vn 0.0000 0.0849 0.9964
vn 0.6204 -0.6232 0.4761
vn 0.5990 -0.6676 0.4421
vn 0.9808 0.1461 -0.1291
vn 0.8660 0.0099 -0.5000
vn -0.0226 0.0000 0.9997
vn 0.2371 0.4194 0.8763
vn -0.2445 0.3508 0.9040
vn -0.4689 0.3617 0.8058
vn 0.7898 0.5188 0.3272
vn 0.3827 0.0000 0.9239
vn 0.4303 0.7074 0.5607
vn -0.2097 0.9656 0.1536
vn -0.2497 0.8664 0.4325
vn -0.0260 0.9949 0.0971
vn -0.1678 0.8987 -0.4051
vn 0.1513 0.7223 0.6748
vn 0.2184 0.6671 0.7122
vn 0.2094 0.2721 0.9392
vn 0.2056 0.2214 0.9532
vn 0.2220 0.5044 0.8344
vn 0.1845 0.8999 -0.3953
vn 0.0160 0.9981 0.0599
vn 0.2932 0.9474 0.1286
vn 0.2759 0.9555 0.1043
vn -0.0391 0.8883 0.4577
vn -0.0037 0.8900 0.4560
vn -0.2450 0.8619 0.4441
vn 0.4149 0.8493 0.3265
vn -0.1934 0.2165 0.9569
vn -0.1927 0.0917 0.9770
usemtl _auto_
s off
f 52/1/1 79/2/1 81/3/1
f 27/4/2 43/5/2 113/6/2
f 84/7/3 27/8/3 80/9/3
f 85/10/4 113/11/4 41/12/4
f 73/13/5 109/14/5 74/15/5
f 49/16/6 51/17/6 65/18/6
f 81/3/7 53/19/7 52/1/7
f 52/1/8 40/20/8 79/2/8
f 27/4/9 44/21/9 43/5/9
f 28/22/10 27/8/10 84/7/10
f 85/10/11 80/9/11 113/11/11
f 113/11/12 43/5/12 41/12/12
f 41/12/13 42/23/13 85/10/13
f 42/23/13 86/24/13 85/10/13
f 110/25/14 109/14/14 73/13/14
f 109/14/15 106/26/15 74/15/15
f 53/27/16 56/28/16 51/17/16
f 56/28/17 57/29/17 63/30/17
f 65/18/18 56/28/18 63/30/18
f 63/30/19 66/31/19 65/18/19
f 65/18/6 59/32/6 61/33/6
f 59/32/6 60/34/6 61/33/6
f 61/33/6 49/16/6 65/18/6
f 49/16/20 47/35/20 51/17/20
f 51/17/21 52/36/21 53/27/21
f 56/28/22 65/18/22 51/17/22
s 1
f 110/37/23 67/38/24 104/39/25
f 89/40/26 90/41/27 99/42/28
f 21/43/29 20/44/30 8/45/31
f 4/46/32 6/47/33 3/48/34
f 16/49/35 23/50/36 9/51/37
f 16/52/35 28/22/38 34/53/39
f 88/54/40 106/55/41 109/56/42
f 66/57/43 63/58/44 100/59/45
f 62/60/46 58/61/47 59/62/48
f 48/63/49 60/64/50 55/65/51
f 112/66/52 77/67/53 35/68/54
f 27/4/55 80/9/56 25/69/57
f 94/70/58 101/71/59 91/72/60
f 31/73/61 37/74/62 47/75/63
f 54/76/64 56/77/65 53/78/66
f 31/73/61 18/79/67 37/74/62
f 37/74/62 39/80/68 47/75/69
f 61/33/70 41/12/71 43/5/72
f 48/81/73 95/82/74 92/83/75
f 82/84/76 93/85/77 81/3/78
f 96/86/79 111/87/80 93/85/77
f 45/88/81 27/89/81 28/22/81
f 42/23/82 41/12/71 61/33/70
f 62/60/83 101/71/59 98/90/84
f 47/75/85 28/22/86 37/74/87
f 46/91/88 50/92/89 38/93/90
f 2/94/91 5/95/92 3/96/93
f 54/97/64 57/98/94 56/77/65
f 110/37/23 91/72/60 90/41/27
f 87/99/95 107/100/96 106/55/41
f 63/58/44 57/101/94 111/102/80
f 33/103/97 21/104/98 23/105/99
f 84/106/100 85/10/101 83/107/102
f 64/108/103 65/18/104 66/57/105
f 39/109/106 51/110/107 47/111/108
f 40/20/109 36/112/110 35/113/54
f 78/114/111 107/100/96 82/84/76
f 30/115/112 121/116/112 31/73/112
f 1/117/113 2/118/91 3/96/93
f 30/115/114 46/119/115 38/93/116
f 21/104/98 33/103/97 22/120/117
f 97/121/118 98/90/84 94/70/58
f 99/42/28 96/122/79 89/40/26
f 83/123/102 86/24/119 102/124/120
f 24/125/121 32/126/122 25/69/57
f 95/82/74 103/127/123 102/128/120
f 91/72/60 99/42/28 90/41/27
f 58/61/124 98/90/84 97/129/118
f 82/84/76 79/2/125 77/67/53
f 1/130/126 116/131/127 75/132/128
f 44/133/129 45/88/130 49/134/131
f 91/72/60 110/37/23 104/39/25
f 46/135/132 45/88/133 44/133/134
f 13/136/135 12/137/136 23/138/137
f 72/139/138 103/127/123 67/38/24
f 70/140/139 76/141/139 117/142/139
f 68/143/140 71/144/140 84/7/140
f 69/145/141 102/146/120 72/139/138
f 47/147/142 44/21/142 49/134/142
f 71/148/143 70/149/144 22/150/145
f 47/35/146 50/92/89 46/91/147
f 71/144/143 72/151/148 74/15/149
f 8/45/31 20/44/30 19/152/150
f 104/39/25 94/70/58 91/72/60
f 107/153/96 108/154/151 75/132/128
f 40/20/152 52/1/153 51/17/107
f 75/132/154 117/155/154 76/141/154
f 72/139/155 83/156/155 73/13/155
f 69/157/156 83/107/156 72/139/156
f 55/158/157 59/159/48 58/160/47
f 117/161/158 19/162/158 20/163/158
f 116/164/159 117/165/159 20/163/159
f 5/166/160 18/167/112 17/168/161
f 119/169/162 5/166/160 17/168/161
f 16/52/35 17/170/161 30/115/114
f 5/171/163 4/46/32 3/48/34
f 21/43/29 22/172/164 20/44/30
f 76/141/165 116/173/165 117/155/165
f 6/47/33 7/174/166 3/48/34
f 5/171/163 119/175/167 4/46/32
f 96/122/79 88/176/40 89/40/26
f 7/174/166 8/177/31 3/48/34
f 49/178/131 45/88/130 50/92/89
f 17/168/161 16/49/35 9/51/37
f 16/49/35 34/179/112 23/50/36
f 9/51/37 119/169/162 17/168/161
f 16/52/35 29/180/168 28/22/38
f 109/56/42 89/40/26 88/54/40
f 88/54/40 87/99/95 106/55/41
f 63/58/44 99/42/28 100/59/45
f 100/59/45 101/71/59 64/108/169
f 64/108/169 66/57/43 100/59/45
f 59/62/48 65/18/104 62/60/46
f 65/18/104 64/108/103 62/60/46
f 37/74/62 18/79/67 35/68/54
f 18/79/67 2/181/170 112/66/52
f 2/181/170 105/182/171 112/66/52
f 112/66/52 78/114/111 77/67/53
f 77/67/53 79/183/125 35/68/54
f 35/68/54 36/184/110 37/74/62
f 18/79/67 112/66/52 35/68/54
f 25/69/57 32/126/122 34/53/39
f 34/53/39 28/22/38 27/4/55
f 27/4/172 113/6/172 80/9/172
f 80/9/56 84/185/173 25/69/57
f 84/185/173 24/186/121 25/69/57
f 25/69/57 34/53/39 27/4/55
f 98/90/84 101/71/59 94/70/58
f 101/71/59 100/59/45 91/72/60
f 47/75/63 46/119/174 31/73/61
f 46/119/115 30/115/114 121/187/175
f 121/187/175 31/73/176 46/119/115
f 53/78/66 81/3/78 54/76/64
f 81/3/78 93/85/77 54/76/64
f 31/73/61 17/170/161 18/79/67
f 37/74/62 36/184/110 39/80/68
f 43/5/72 44/21/177 49/134/178
f 49/134/178 61/33/70 43/5/72
f 86/24/119 42/23/179 48/81/73
f 48/81/73 55/65/180 95/82/74
f 92/83/75 86/24/119 48/81/73
f 82/84/76 87/99/95 93/85/77
f 54/188/64 93/85/77 111/87/80
f 93/85/77 87/99/95 88/54/40
f 96/86/79 93/85/77 88/54/40
f 45/88/81 44/133/81 27/89/81
f 61/33/70 60/34/50 42/23/82
f 60/34/50 48/81/49 42/23/82
f 62/60/83 64/108/169 101/71/59
f 47/75/85 45/88/181 28/22/86
f 2/94/91 18/189/182 5/95/92
f 54/97/64 111/190/80 57/98/94
f 90/41/27 89/40/26 109/56/42
f 109/56/42 110/37/23 90/41/27
f 87/99/95 82/84/76 107/100/96
f 111/102/80 96/122/79 99/42/28
f 99/42/28 63/58/44 111/102/80
f 34/191/183 32/192/184 23/105/99
f 32/192/184 33/103/97 23/105/99
f 84/106/100 80/9/185 85/10/101
f 39/109/106 40/20/152 51/110/107
f 35/113/54 79/183/125 40/20/109
f 40/20/109 39/109/68 36/112/110
f 82/84/76 77/67/53 78/114/111
f 78/114/111 108/154/151 107/100/96
f 38/93/116 45/88/186 28/22/38
f 28/22/38 29/180/168 38/93/116
f 29/180/168 30/115/114 38/93/116
f 104/39/25 103/127/123 94/70/58
f 103/127/123 97/121/118 94/70/58
f 85/10/101 86/24/119 83/123/102
f 86/24/119 92/83/75 102/124/120
f 24/125/121 33/193/187 32/126/122
f 102/128/120 92/83/75 95/82/74
f 95/82/74 97/129/118 103/127/123
f 91/72/60 100/59/45 99/42/28
f 58/61/124 62/60/83 98/90/84
f 97/129/118 95/82/74 58/61/124
f 95/82/74 55/65/180 58/61/124
f 82/84/76 81/3/78 79/2/125
f 78/114/111 112/194/52 105/182/171
f 105/182/171 2/195/170 1/130/126
f 1/130/126 19/196/188 116/131/127
f 19/196/188 117/155/165 116/131/127
f 116/131/127 76/141/189 75/132/128
f 78/114/111 105/182/171 108/197/151
f 105/182/171 1/130/126 108/197/151
f 75/132/128 108/197/151 1/130/126
f 44/133/134 47/75/190 46/135/132
f 46/135/132 38/93/191 45/88/133
f 21/198/29 8/199/31 10/200/192
f 21/198/29 10/200/192 11/201/193
f 15/202/194 9/203/195 23/138/137
f 14/204/196 15/202/194 23/138/137
f 23/138/137 21/198/29 13/136/135
f 21/198/29 11/201/193 13/136/135
f 12/137/136 14/204/196 23/138/137
f 110/37/23 73/205/197 67/38/24
f 73/205/197 72/139/138 67/38/24
f 72/139/138 102/146/120 103/127/123
f 103/127/123 104/39/25 67/38/24
f 70/140/144 71/144/143 76/141/198
f 84/7/100 83/107/102 68/143/199
f 83/107/102 69/157/200 68/143/199
f 69/145/141 83/206/102 102/146/120
f 70/149/144 76/207/201 20/163/202
f 76/207/201 116/208/203 20/163/202
f 20/163/202 22/150/145 70/149/144
f 22/150/145 33/193/187 24/186/121
f 24/186/121 84/209/173 68/210/204
f 68/210/204 71/148/143 22/150/145
f 22/150/145 24/186/121 68/210/204
f 47/35/146 49/16/131 50/92/89
f 73/13/112 74/15/149 72/151/148
f 74/15/149 75/132/128 71/144/143
f 75/132/128 76/141/198 71/144/143
f 71/144/143 68/211/199 69/145/200
f 69/145/200 72/151/148 71/144/143
f 1/212/205 3/213/34 19/152/150
f 3/213/34 8/45/31 19/152/150
f 75/132/128 74/15/149 107/153/96
f 74/15/149 106/26/41 107/153/96
f 75/132/154 19/196/154 117/155/154
f 17/170/161 31/73/61 121/214/206
f 121/214/206 30/115/114 17/170/161
f 30/115/114 29/180/168 16/52/35
f 45/88/130 38/93/90 50/92/89
l 113 26
