# This file uses centimeters as units for non-parametric coordinates.

mtllib LK_arch_corner_small_body_col.mtl
g default
v -0.500000 1.500000 1.500000
v 0.500000 1.500000 1.500000
v -0.500000 1.500000 -0.500000
v 0.500000 1.500000 -0.500000
v -0.500000 -0.500000 -0.500000
v 0.500000 -0.500000 -0.500000
v -0.500000 -0.500000 0.500100
v -0.500000 0.499900 1.500000
v 0.500000 -0.500000 0.500100
v 0.500000 0.499900 1.500000
v 0.500000 0.207107 0.792894
v -0.500000 0.207107 0.792894
vt 0.375000 0.500000
vt 0.625000 0.500000
vt 0.375000 0.750000
vt 0.125000 0.000000
vt 0.125000 0.250000
vt 0.749987 0.000000
vt 0.875000 0.000000
vt 0.875000 0.250000
vt 0.625000 0.250000
vt 0.375000 0.124987
vt 0.375000 0.250000
vt 0.625000 0.750000
vt 0.625000 0.875013
vt 0.375000 0.875013
vt 0.250013 0.000000
vt 0.625000 0.124987
vt 0.687494 0.062494
vt 0.312506 0.062494
vn 0.000000 0.000000 1.000000
vn 0.000000 0.000000 1.000000
vn 0.000000 0.000000 1.000000
vn 0.000000 0.000000 1.000000
vn 0.000000 1.000000 0.000000
vn 0.000000 1.000000 0.000000
vn 0.000000 1.000000 0.000000
vn 0.000000 1.000000 0.000000
vn 0.000000 0.000000 -1.000000
vn 0.000000 0.000000 -1.000000
vn 0.000000 0.000000 -1.000000
vn 0.000000 0.000000 -1.000000
vn 0.000000 -1.000000 0.000000
vn 0.000000 -1.000000 0.000000
vn 0.000000 -1.000000 0.000000
vn 0.000000 -1.000000 0.000000
vn -1.000000 0.000000 0.000000
vn -1.000000 0.000000 0.000000
vn -1.000000 0.000000 0.000000
vn -1.000000 0.000000 0.000000
vn 1.000000 0.000000 0.000000
vn 1.000000 0.000000 0.000000
vn 1.000000 0.000000 0.000000
vn 1.000000 0.000000 0.000000
vn 0.000000 -0.707107 0.707107
vn 0.000000 -0.707107 0.707107
vn 0.000000 -0.382572 0.923926
vn 0.000000 -0.382572 0.923926
vn 0.000000 -0.923926 0.382572
vn 0.000000 -0.923926 0.382572
vn 1.000000 0.000000 0.000000
vn 1.000000 0.000000 0.000000
vn -1.000000 0.000000 0.000000
vn -1.000000 0.000000 0.000000
s off
g geo_body_col
usemtl initialShadingGroup
f 8/10/1 10/16/2 2/9/3 1/11/4
f 1/11/5 2/9/6 4/2/7 3/1/8
f 3/1/9 4/2/10 6/12/11 5/3/12
f 5/3/13 6/12/14 9/13/15 7/14/16
s 1
f 5/4/17 7/15/18 12/18/19 3/5/20
s 2
f 10/16/21 11/17/22 4/8/23 2/9/24
s 3
f 11/17/25 12/18/26 7/15/27 9/6/28
f 8/10/29 12/18/26 11/17/25 10/16/30
s 2
f 4/8/23 11/17/22 9/6/31 6/7/32
s 1
f 3/5/20 12/18/19 8/10/33 1/11/34
