# Blender v2.90.0 OBJ File: 'BF_FPV_Cab.blend'
# www.blender.org
v -0.140293 -0.500000 0.050840
v -0.140293 -0.500000 0.383091
v -0.384293 -0.500000 0.383091
v -0.384293 -0.471582 0.050840
v -0.384293 -0.471582 0.383091
v -0.140293 -0.471582 0.383092
v -0.384293 -0.500000 0.050840
v -0.140293 -0.471582 0.050840
vt 0.612557 0.891608
vt 0.511342 0.965939
vt 0.612557 0.965939
vt 0.511341 0.891608
vt 0.551362 0.924044
vt 0.553939 0.953576
vt 0.551362 0.953576
vt 0.553939 0.924044
vt 0.551362 0.953576
vt 0.553939 0.924044
vt 0.551362 0.924044
vt 0.553939 0.953576
vt 0.563454 0.937780
vt 0.541332 0.940356
vt 0.541332 0.937780
vt 0.563454 0.940356
vt 0.541332 0.937780
vt 0.563454 0.940356
vt 0.563454 0.937780
vt 0.541332 0.940356
vn 0.0000 -1.0000 0.0000
vn 1.0000 -0.0000 0.0000
vn -1.0000 0.0000 0.0000
vn -0.0000 0.0000 1.0000
vn 0.0000 0.0000 -1.0000
s 1
f 3/1/1 1/2/1 2/3/1
f 1/2/1 3/1/1 7/4/1
f 1/5/2 6/6/2 2/7/2
f 6/6/2 1/5/2 8/8/2
f 3/9/3 4/10/3 7/11/3
f 4/10/3 3/9/3 5/12/3
f 2/13/4 5/14/4 3/15/4
f 5/14/4 2/13/4 6/16/4
f 7/17/5 8/18/5 1/19/5
f 8/18/5 7/17/5 4/20/5
