# Blender v2.93.1 OBJ File: 'GT_Conveyor_Hub.blend'
# www.blender.org
v 0.775000 0.398000 0.225000
v 1.225000 0.398000 0.225000
v 0.775000 0.398000 -0.225000
v 1.225000 0.398000 -0.225000
v -0.225000 0.398000 1.225000
v 0.225000 0.398000 1.225000
v -0.225000 0.398000 0.775000
v 0.225000 0.398000 0.775000
v 0.775000 0.398000 0.225000
v 1.225000 0.398000 -0.225000
v 0.090000 0.398000 1.225000
v 0.225000 0.398000 1.090000
v 1.090000 0.398000 0.225000
v 1.225000 0.398000 0.090000
v -0.225000 0.398000 0.910000
v -0.090000 0.398000 0.775000
v 0.775000 0.398000 -0.090000
v -0.225000 0.398000 1.225000
v 0.225000 0.398000 0.775000
v 0.910000 0.398000 -0.225000
vt 1.000000 0.000000
vt 0.000000 1.000000
vt 0.000000 0.000000
vt 1.000000 1.000000
vt 0.000000 0.000000
vt 1.000000 0.000000
vt 1.050576 0.264039
vt 1.050576 0.735961
vt -0.050576 0.735961
vt 1.050576 0.264039
vt 1.050576 0.735961
vt -0.050576 0.735961
vt 1.000000 1.000000
vt 0.000000 0.999999
vt 0.500000 1.286537
vt -0.050576 0.264039
vt 0.500000 -0.286537
vt 0.500000 1.286537
vt -0.050576 0.264039
vt 0.500000 -0.286537
vn 0.0000 1.0000 0.0000
s off
f 3/1/1 2/2/1 4/3/1
f 7/4/1 6/5/1 8/6/1
f 13/7/1 14/8/1 20/9/1
f 16/10/1 15/11/1 11/12/1
f 3/1/1 1/13/1 2/2/1
f 7/4/1 5/14/1 6/5/1
f 14/8/1 10/15/1 20/9/1
f 20/9/1 17/16/1 13/7/1
f 17/16/1 9/17/1 13/7/1
f 15/11/1 18/18/1 11/12/1
f 11/12/1 12/19/1 16/10/1
f 12/19/1 19/20/1 16/10/1
