# Blender v2.80 (sub 75) OBJ File: ''
# www.blender.org
mtllib YK_Medium_Pipe.mtl
o NurbsPath_NurbsPath.001
v -0.186074 -0.135191 -0.300000
v -0.230000 0.000000 -0.300000
v -0.276000 0.000000 -0.300000
v -0.223289 -0.162229 -0.300000
v 0.071074 -0.218743 -0.300000
v -0.071074 -0.218743 -0.300000
v -0.085289 -0.262492 -0.300000
v 0.085289 -0.262492 -0.300000
v -0.071074 0.218743 -0.300000
v 0.071074 0.218743 -0.300000
v 0.085289 0.262492 -0.300000
v -0.085289 0.262492 -0.300000
v 0.186074 0.135191 -0.300000
v 0.230000 0.000000 -0.300000
v 0.276000 0.000000 -0.300000
v 0.223289 0.162229 -0.300000
v 0.186074 -0.135191 -0.300000
v 0.223289 -0.162229 -0.300000
v -0.186074 0.135191 -0.300000
v -0.223289 0.162229 -0.300000
v 0.085289 -0.262492 -0.500000
v 0.223289 -0.162229 -0.500000
v 0.223289 0.162229 -0.500000
v 0.085289 0.262492 -0.500000
v -0.223289 0.162229 -0.500000
v -0.276000 0.000000 -0.500000
v -0.085289 -0.262492 -0.500000
v 0.276000 0.000000 -0.500000
v -0.085289 0.262492 -0.500000
v -0.223289 -0.162229 -0.500000
v 0.230000 0.000000 0.500000
v 0.186074 -0.135191 0.500000
v -0.071074 0.218743 0.500000
v 0.071074 0.218743 0.500000
v -0.186074 -0.135190 0.500000
v -0.230000 0.000000 0.500000
v 0.071074 -0.218743 0.500000
v 0.186074 0.135191 0.500000
v -0.186074 0.135191 0.500000
v -0.071074 -0.218743 0.500000
v -0.186074 -0.135191 1.300000
v -0.223289 -0.162229 1.300000
v -0.276000 -0.000000 1.300000
v -0.230000 -0.000000 1.300000
v 0.071074 -0.218743 1.300000
v 0.085289 -0.262492 1.300000
v -0.085289 -0.262492 1.300000
v -0.071074 -0.218743 1.300000
v -0.071074 0.218743 1.300000
v -0.085289 0.262492 1.300000
v 0.085289 0.262492 1.300000
v 0.071074 0.218743 1.300000
v 0.186074 0.135191 1.300000
v 0.223289 0.162229 1.300000
v 0.276000 -0.000000 1.300000
v 0.230000 -0.000000 1.300000
v 0.186074 -0.135191 1.300000
v 0.223289 -0.162229 1.300000
v -0.186074 0.135191 1.300000
v -0.223289 0.162229 1.300000
v 0.223289 -0.162229 1.500000
v 0.085289 -0.262492 1.500000
v 0.085289 0.262492 1.500000
v 0.223289 0.162229 1.500000
v -0.276000 -0.000000 1.500000
v -0.223289 0.162229 1.500000
v -0.085289 -0.262492 1.500000
v 0.276000 -0.000000 1.500000
v -0.085289 0.262492 1.500000
v -0.223289 -0.162229 1.500000
vt 0.295896 0.129372
vt 0.295896 0.161691
vt 0.295896 0.161691
vt 0.295896 0.122909
vt 0.295896 0.109399
vt 0.295896 0.109399
vt 0.295896 0.098940
vt 0.295896 0.098940
vt 0.295896 0.213983
vt 0.295896 0.213983
vt 0.295896 0.224441
vt 0.295896 0.224441
vt 0.295896 0.194009
vt 0.295896 0.161691
vt 0.295896 0.161691
vt 0.295896 0.200473
vt 0.295896 0.129372
vt 0.295896 0.122909
vt 0.295896 0.194009
vt 0.295896 0.200473
vt 0.319802 0.098940
vt 0.319802 0.122909
vt 0.319802 0.200473
vt 0.319802 0.224441
vt 0.319802 0.200473
vt 0.319802 0.161691
vt 0.319802 0.098940
vt 0.319802 0.161691
vt 0.319802 0.224441
vt 0.319802 0.122909
vt 0.267908 0.112412
vt 0.257792 0.143544
vt 0.231310 0.162784
vt 0.198576 0.162784
vt 0.172093 0.143544
vt 0.161978 0.112412
vt 0.172093 0.081280
vt 0.198576 0.062039
vt 0.231310 0.062039
vt 0.257792 0.081280
vt 0.678887 0.550716
vt 0.678887 0.579386
vt 0.594058 0.579386
vt 0.594058 0.550716
vt 0.678887 0.625775
vt 0.678887 0.625775
vt 0.594058 0.625775
vt 0.594058 0.625775
vt 0.678887 0.579386
vt 0.678887 0.550716
vt 0.594058 0.550716
vt 0.594058 0.579386
vt 0.678887 0.532997
vt 0.594058 0.532997
vt 0.678887 0.608056
vt 0.594058 0.608056
vt 0.678887 0.608056
vt 0.594058 0.608056
vt 0.678887 0.532997
vt 0.594058 0.532997
vt 0.295896 0.129372
vt 0.295896 0.122909
vt 0.295896 0.161691
vt 0.295896 0.161691
vt 0.295896 0.109399
vt 0.295896 0.098940
vt 0.295896 0.098940
vt 0.295896 0.109399
vt 0.295896 0.213983
vt 0.295896 0.224441
vt 0.295896 0.224441
vt 0.295896 0.213983
vt 0.295896 0.194009
vt 0.295896 0.200473
vt 0.295896 0.161691
vt 0.295896 0.161691
vt 0.295896 0.129372
vt 0.295896 0.122909
vt 0.295896 0.194009
vt 0.295896 0.200473
vt 0.319802 0.122909
vt 0.319802 0.098940
vt 0.319802 0.224441
vt 0.319802 0.200473
vt 0.319802 0.161691
vt 0.319802 0.200473
vt 0.319802 0.098940
vt 0.319802 0.161691
vt 0.319802 0.224441
vt 0.319802 0.122909
vt 0.267908 0.112412
vt 0.257792 0.081280
vt 0.231310 0.062039
vt 0.198576 0.062039
vt 0.172093 0.081280
vt 0.161978 0.112412
vt 0.172093 0.143544
vt 0.198576 0.162784
vt 0.231310 0.162784
vt 0.257792 0.143544
vt 0.678887 0.550716
vt 0.678887 0.579386
vt 0.295896 0.161691
vt 0.295896 0.194009
vt 0.295896 0.213983
vt 0.295896 0.213983
vt 0.295896 0.194009
vt 0.295896 0.161691
vt 0.295896 0.129372
vt 0.295896 0.109399
vt 0.295896 0.109399
vt 0.295896 0.129372
vt 0.678887 0.625775
vt 0.678887 0.625775
vt 0.678887 0.579386
vt 0.678887 0.550716
vt 0.678887 0.532997
vt 0.678887 0.608056
vt 0.678887 0.608056
vt 0.678887 0.532997
vn 0.0000 -0.0000 1.0000
vn 0.8090 -0.5878 -0.0000
vn 0.3090 -0.9511 -0.0000
vn 0.3090 0.9511 0.0000
vn 0.8090 0.5878 0.0000
vn -1.0000 0.0000 0.0000
vn -0.8090 0.5878 0.0000
vn -0.3090 -0.9511 -0.0000
vn 1.0000 0.0000 0.0000
vn -0.3090 0.9511 0.0000
vn -0.8090 -0.5878 -0.0000
vn 0.0000 0.0000 -1.0000
vn 0.9511 -0.3090 -0.0000
vn 0.0000 1.0000 0.0000
vn -0.9511 -0.3090 0.0000
vn 0.5878 -0.8090 -0.0000
vn 0.5878 0.8090 0.0000
vn -0.9511 0.3090 0.0000
vn 0.0000 -1.0000 -0.0000
vn 0.9511 0.3090 0.0000
vn -0.5878 0.8090 0.0000
vn -0.5878 -0.8090 0.0000
usemtl Material.003
s 1
f 1/1/1 2/2/1 3/3/1 4/4/1
f 5/5/1 6/6/1 7/7/1 8/8/1
f 9/9/1 10/10/1 11/11/1 12/12/1
f 13/13/1 14/14/1 15/15/1 16/16/1
f 17/17/1 5/5/1 8/8/1 18/18/1
f 19/19/1 9/9/1 12/12/1 20/20/1
f 2/2/1 19/19/1 20/20/1 3/3/1
f 6/6/1 1/1/1 4/4/1 7/7/1
f 10/10/1 13/13/1 16/16/1 11/11/1
f 14/14/1 17/17/1 18/18/1 15/15/1
f 18/18/2 8/8/3 21/21/3 22/22/2
f 11/11/4 16/16/5 23/23/5 24/24/4
f 3/3/6 20/20/7 25/25/7 26/26/6
f 8/8/3 7/7/8 27/27/8 21/21/3
f 16/16/5 15/15/9 28/28/9 23/23/5
f 20/20/7 12/12/10 29/29/10 25/25/7
f 7/7/8 4/4/11 30/30/11 27/27/8
f 15/15/9 18/18/2 22/22/2 28/28/9
f 12/12/10 11/11/4 24/24/4 29/29/10
f 4/4/11 3/3/6 26/26/6 30/30/11
f 26/31/12 25/32/12 29/33/12 24/34/12 23/35/12 28/36/12 22/37/12 21/38/12 27/39/12 30/40/12
f 17/41/13 14/42/13 31/43/13 32/44/13
f 10/45/14 9/46/14 33/47/14 34/48/14
f 2/49/15 1/50/15 35/51/15 36/52/15
f 5/53/16 17/41/16 32/44/16 37/54/16
f 13/55/17 10/45/17 34/48/17 38/56/17
f 19/57/18 2/49/18 36/52/18 39/58/18
f 6/59/19 5/53/19 37/54/19 40/60/19
f 14/42/20 13/55/20 38/56/20 31/43/20
f 9/46/21 19/57/21 39/58/21 33/47/21
f 1/50/22 6/59/22 40/60/22 35/51/22
f 41/61/12 42/62/12 43/63/12 44/64/12
f 45/65/12 46/66/12 47/67/12 48/68/12
f 49/69/12 50/70/12 51/71/12 52/72/12
f 53/73/12 54/74/12 55/75/12 56/76/12
f 57/77/12 58/78/12 46/66/12 45/65/12
f 59/79/12 60/80/12 50/70/12 49/69/12
f 44/64/12 43/63/12 60/80/12 59/79/12
f 48/68/12 47/67/12 42/62/12 41/61/12
f 52/72/12 51/71/12 54/74/12 53/73/12
f 56/76/12 55/75/12 58/78/12 57/77/12
f 58/78/2 61/81/2 62/82/3 46/66/3
f 51/71/4 63/83/4 64/84/5 54/74/5
f 43/63/6 65/85/6 66/86/7 60/80/7
f 46/66/3 62/82/3 67/87/8 47/67/8
f 54/74/5 64/84/5 68/88/9 55/75/9
f 60/80/7 66/86/7 69/89/10 50/70/10
f 47/67/8 67/87/8 70/90/11 42/62/11
f 55/75/9 68/88/9 61/81/2 58/78/2
f 50/70/10 69/89/10 63/83/4 51/71/4
f 42/62/11 70/90/11 65/85/6 43/63/6
f 65/91/1 70/92/1 67/93/1 62/94/1 61/95/1 68/96/1 64/97/1 63/98/1 69/99/1 66/100/1
f 57/101/13 32/44/13 31/43/13 56/102/13
f 36/103/12 39/104/12 33/105/12 34/106/12 38/107/12 31/108/12 32/109/12 37/110/12 40/111/12 35/112/12
f 52/113/14 34/48/14 33/47/14 49/114/14
f 44/115/15 36/52/15 35/51/15 41/116/15
f 45/117/16 37/54/16 32/44/16 57/101/16
f 53/118/17 38/56/17 34/48/17 52/113/17
f 59/119/18 39/58/18 36/52/18 44/115/18
f 48/120/19 40/60/19 37/54/19 45/117/19
f 56/102/20 31/43/20 38/56/20 53/118/20
f 49/114/21 33/47/21 39/58/21 59/119/21
f 41/116/22 35/51/22 40/60/22 48/120/22
o BF_Block_111.000_BF_Block_111.003
v 0.000000 0.000000 -0.600002
v 0.132023 0.132023 -0.500001
v 0.132023 -0.132023 -0.500001
v -0.132023 0.132023 -0.500001
v -0.132023 -0.132023 -0.500001
v 0.000001 -0.000000 1.600000
v -0.132022 0.132023 1.500000
v -0.132022 -0.132023 1.500000
v 0.132023 0.132023 1.500000
v 0.132024 -0.132024 1.500000
vt 0.428303 0.304254
vt 0.497415 0.373367
vt 0.497416 0.235141
vt 0.359190 0.373367
vt 0.359190 0.235141
vt 0.428303 0.304379
vt 0.359190 0.373492
vt 0.359190 0.235265
vt 0.497416 0.373492
vt 0.497416 0.235265
vn 0.6038 0.0000 -0.7971
vn 0.0000 0.6038 -0.7971
vn -0.6038 0.0000 -0.7971
vn 0.0000 -0.6038 -0.7971
vn -0.6038 0.0000 0.7971
vn 0.0000 0.6038 0.7971
vn 0.6038 0.0000 0.7971
vn -0.0000 -0.6038 0.7971
usemtl Default_OBJ.009
s 1
f 71/121/23 72/122/23 73/123/23
f 72/122/24 71/121/24 74/124/24
f 71/121/25 75/125/25 74/124/25
f 75/125/26 71/121/26 73/123/26
f 76/126/27 77/127/27 78/128/27
f 77/127/28 76/126/28 79/129/28
f 76/126/29 80/130/29 79/129/29
f 80/130/30 76/126/30 78/128/30
