# Blender v2.82 (sub 7) OBJ File: 'GC_Thor_Engine.blend'
# www.blender.org
mtllib GC_Thor_Engine_Collider_2.mtl
v 0.436374 1.910000 1.905930
v 0.386374 1.910000 1.892530
v 0.386374 2.347500 1.892530
v 0.436374 2.353050 1.905930
v 0.336374 1.910000 1.905930
v 0.336374 2.353050 1.905930
v 0.299772 1.910000 1.942530
v 0.299772 2.368210 1.942530
v 0.286374 1.910000 1.992530
v 0.286374 2.388920 1.992530
v 0.299772 1.910000 2.042530
v 0.299772 2.409630 2.042531
v 0.336374 1.910000 2.079130
v 0.336374 2.424790 2.079130
v 0.386374 1.910000 2.092530
v 0.386374 2.430340 2.092530
v 0.436374 1.910000 2.079130
v 0.436374 2.424790 2.079130
v 0.472977 1.910000 2.042530
v 0.472977 2.409630 2.042531
v 0.486374 1.910000 1.992530
v 0.486374 2.388920 1.992530
v 0.472977 1.910000 1.942530
v 0.472977 2.368210 1.942530
vt 0.437784 0.310354
vt 0.000000 0.000000
vt 0.438233 0.310462
vt 0.438493 0.310433
vt 0.000000 0.000000
vt 0.439634 0.309407
vt 0.437261 0.309290
vt 0.437071 0.309100
vt 0.436811 0.309030
vt 0.436551 0.309100
vt 0.439527 0.309148
vt 0.439634 0.309407
vt 0.438493 0.307760
vt 0.438233 0.307760
vt 0.438233 0.310032
vt 0.438493 0.310060
vt 0.437974 0.307760
vt 0.437974 0.310060
vt 0.437784 0.307760
vt 0.437784 0.310139
vt 0.437147 0.309148
vt 0.437147 0.309407
vt 0.437147 0.309667
vt 0.439742 0.309667
vt 0.437784 0.307760
vt 0.437974 0.307760
vt 0.437974 0.310433
vt 0.438233 0.307760
vt 0.438493 0.307760
vt 0.438683 0.307760
vt 0.438683 0.310354
vt 0.437147 0.309667
vt 0.437147 0.309407
vt 0.439742 0.309667
vt 0.437147 0.309148
vt 0.439527 0.309148
vt 0.438683 0.307760
vt 0.438683 0.310139
vn -0.0000 0.9239 -0.3827
vn 0.5000 0.0000 -0.8660
vn -0.0000 0.0000 -1.0000
vn 0.5271 0.0000 -0.8498
vn -0.5000 0.0000 -0.8660
vn -0.5271 0.0000 -0.8498
vn -0.8660 0.0000 -0.5000
vn -0.8922 0.0000 -0.4516
vn -1.0000 -0.0000 -0.0000
vn -0.9979 -0.0000 0.0648
vn -0.8660 -0.0000 0.5000
vn -0.8353 -0.0000 0.5498
vn -0.5000 -0.0000 0.8660
vn -0.4690 -0.0000 0.8832
vn -0.0000 -0.0000 1.0000
vn 0.5000 -0.0000 0.8660
vn 0.4690 -0.0000 0.8832
vn 0.8660 -0.0000 0.5000
vn 0.8353 -0.0000 0.5498
vn 1.0000 0.0000 -0.0000
vn 0.9979 0.0000 0.0648
vn 0.8660 0.0000 -0.5000
vn 0.8922 0.0000 -0.4516
vn 0.0000 -1.0000 -0.0000
usemtl _auto_.004
s off
f 12/1/1 14/2/1 16/3/1 18/4/1 20/5/1 22/6/1 24/7/1 4/8/1 3/9/1 6/10/1 8/11/1 10/12/1
s 1
f 1/13/2 2/14/3 3/15/3 4/16/4
f 2/14/3 5/17/5 6/18/6 3/15/3
f 5/17/5 7/19/7 8/20/8 6/18/6
f 7/21/7 9/22/9 10/12/10 8/11/8
f 9/22/9 11/23/11 12/24/12 10/12/10
f 11/25/11 13/26/13 14/27/14 12/1/12
f 13/26/13 15/28/15 16/3/15 14/27/14
f 15/28/15 17/29/16 18/4/17 16/3/15
f 17/29/16 19/30/18 20/31/19 18/4/17
f 19/32/18 21/33/20 22/6/21 20/34/19
f 21/33/20 23/35/22 24/36/23 22/6/21
f 23/37/22 1/13/2 4/16/4 24/38/23
f 5/17/24 2/14/24 1/13/24 23/35/24 21/33/24 19/30/24 17/29/24 15/28/24 13/26/24 11/25/24 9/22/24 7/19/24
