# Blender v2.82 (sub 7) OBJ File: 'GT_Armour_Plate.blend'
# www.blender.org
mtllib GT_Long_Corner_Armour_Plate_Collider.mtl
o GT_Corner_Armour_Plate.003
v -0.329731 -0.330000 -0.351519
v -0.329731 0.330000 -0.351518
v 2.500020 -0.299999 -0.450025
v 2.500020 -0.449998 -0.450025
v 2.493340 -0.300968 -0.425025
v 2.493320 -0.449998 -0.425024
v 2.432720 -0.096352 -0.425024
v 2.254650 0.094714 -0.425024
v 1.970032 0.259570 -0.425024
v 1.165093 0.466091 -0.425024
v -0.449978 0.475002 -0.406723
v 2.450020 -0.449999 -0.400024
v 2.227420 0.060534 -0.400024
v 1.962432 0.242859 -0.406723
v 2.243140 0.080267 -0.406723
v 2.416430 -0.105663 -0.406723
v 2.475070 -0.303617 -0.406723
v 2.475020 -0.449998 -0.406723
v 2.471670 -0.474998 -0.412525
v 2.487520 -0.474998 -0.428374
v 2.450020 -0.474999 -0.406723
v -0.449978 -0.474999 -0.406723
v 2.450020 -0.493300 -0.425024
v -0.449978 -0.493300 -0.425024
v 2.462520 -0.493300 -0.428374
v 2.450020 -0.499998 -0.450025
v -0.449978 -0.499998 -0.450025
v 2.475020 -0.493300 -0.450025
v 2.471670 -0.493300 -0.462525
v 2.462520 -0.493300 -0.471675
v 2.450020 -0.493300 -0.475025
v 2.450020 -0.474999 -0.493326
v 2.471670 -0.474998 -0.487525
v 2.450020 -0.449999 -0.500025
v 2.475020 -0.449998 -0.493326
v 2.475070 -0.303617 -0.493326
v 2.416430 -0.105663 -0.493326
v 2.394170 -0.118382 -0.500025
v -0.449978 0.475002 -0.493326
v -0.449978 0.450002 -0.500025
v -0.449978 0.493303 -0.475025
v 1.165093 0.466091 -0.475025
v 1.165897 0.472742 -0.450025
v -0.462479 0.493303 -0.471675
v -0.471629 0.475001 -0.487525
v -0.474978 0.450001 -0.493326
v -0.449978 -0.449999 -0.500025
v -0.474978 -0.449998 -0.493326
v -0.449978 -0.474999 -0.493326
v -0.471629 -0.474998 -0.487525
v -0.449978 -0.493300 -0.475025
v -0.462479 -0.493300 -0.471675
v -0.471629 -0.493300 -0.462525
v -0.474978 -0.493300 -0.450025
v -0.471629 -0.493300 -0.437524
v -0.462479 -0.493300 -0.428374
v -0.471629 -0.474998 -0.412525
v -0.474978 -0.449998 -0.406723
v -0.474978 0.450001 -0.406723
v -0.471629 0.475001 -0.412525
v -0.449978 0.493303 -0.425024
v -0.462479 0.493303 -0.428374
v -0.449978 0.500001 -0.450025
v 1.972814 0.265687 -0.450025
v 1.970032 0.259570 -0.475025
v 2.258870 0.100001 -0.450025
v 2.254650 0.094714 -0.475025
v 2.438690 -0.092944 -0.450025
v 2.432720 -0.096352 -0.475025
v 2.493340 -0.300968 -0.475025
v 2.493320 -0.449998 -0.475025
v 2.493320 -0.474998 -0.450025
v 2.487520 -0.474998 -0.471676
v 2.243140 0.080267 -0.493326
v 1.962432 0.242859 -0.493326
v 2.471670 -0.493300 -0.437524
v -0.474978 0.493303 -0.450025
v -0.471629 0.493303 -0.462525
v -0.487478 0.475001 -0.471676
v -0.493280 0.450001 -0.475025
v -0.493280 -0.449998 -0.475025
v -0.487478 -0.474998 -0.471676
v -0.493280 -0.474998 -0.450025
v -0.487478 -0.474998 -0.428374
v -0.493280 -0.449998 -0.425024
v -0.493280 0.450001 -0.425024
v -0.487478 0.475001 -0.428374
v -0.471629 0.493303 -0.437524
v -0.493280 0.475001 -0.450025
v -0.499978 0.450001 -0.450025
v -0.499978 -0.449998 -0.450025
vt 0.786099 0.909904
vt 0.430591 0.949701
vt 0.032488 0.949701
vt 0.032488 0.764838
vt 0.140170 0.945165
vt 0.435127 0.943248
vt 0.136335 0.752053
vt 0.140170 0.752053
vt 0.435127 0.759600
vt 0.435829 0.764838
vt 0.430591 0.764838
vt 0.430591 0.759599
vt 0.433210 0.945165
vt 0.435127 0.948486
vt 0.430591 0.958651
vt 0.430591 0.945867
vt 0.333983 0.945867
vt 0.333983 0.949701
vt 0.339222 0.948486
vt 0.339222 0.945165
vt 0.302757 0.945867
vt 0.303312 0.949701
vt 0.430591 0.940629
vt 0.435127 0.749434
vt 0.435829 0.752053
vt 0.439664 0.953413
vt 0.435829 0.953413
vt 0.435127 0.958651
vt 0.438448 0.958651
vt 0.545120 0.886381
vt 0.546523 0.884620
vt 0.525393 0.861949
vt 0.523407 0.863084
vt 0.303312 0.742980
vt 0.302757 0.746815
vt 0.333983 0.746815
vt 0.333983 0.742980
vt 0.430591 0.953413
vt 0.435829 0.953413
vt 0.435127 0.958651
vt 0.430591 0.958651
vt 0.516015 0.838134
vt 0.518243 0.837811
vt 0.844283 0.909904
vt 0.579485 0.922263
vt 0.579824 0.925312
vt 0.545120 0.925312
vt 0.544605 0.922263
vt 0.032488 0.945867
vt 0.430591 0.945867
vt 0.032488 0.746815
vt 0.029869 0.747517
vt 0.032488 0.752053
vt 0.430591 0.752053
vt 0.433210 0.747517
vt 0.430591 0.746815
vt 0.491334 0.704665
vt 0.487018 0.704665
vt 0.487018 0.549302
vt 0.491334 0.549302
vt 0.579824 0.809474
vt 0.677974 0.809474
vt 0.677876 0.922263
vt 0.579485 0.812522
vt 0.032488 0.764838
vt 0.032488 0.759599
vt 0.433210 0.962486
vt 0.430591 0.962486
vt 0.339222 0.940629
vt 0.343056 0.940629
vt 0.343056 0.943248
vt 0.339222 0.945165
vt 0.545120 0.809474
vt 0.544605 0.812522
vt 0.027250 0.764838
vt 0.027952 0.759600
vt 0.435127 0.749434
vt 0.029869 0.945165
vt 0.032488 0.940629
vt 0.027250 0.940629
vt 0.027952 0.943248
vt 0.430591 0.940629
vt 0.433210 0.945165
vt 0.435127 0.943248
vt 0.438448 0.747517
vt 0.435127 0.744196
vt 0.339222 0.744196
vt 0.339222 0.747517
vt 0.433210 0.747517
vt 0.435127 0.744196
vt 0.438448 0.747517
vt 0.339222 0.752053
vt 0.343056 0.752053
vt 0.343056 0.749434
vt 0.027952 0.744196
vt 0.024631 0.747517
vt 0.027952 0.749434
vt 0.333983 0.940629
vt 0.302554 0.940629
vt 0.333983 0.752053
vt 0.525393 0.861949
vt 0.546523 0.884620
vt 0.545120 0.886381
vt 0.523407 0.863084
vt 0.334815 0.704665
vt 0.330499 0.704665
vt 0.330499 0.549303
vt 0.334815 0.549303
vt 0.000000 0.000000
vt 0.548440 0.882214
vt 0.027250 0.752053
vt 0.435829 0.940629
vt 0.430591 0.752053
vt 0.000000 0.000000
vt 0.491334 0.704665
vt 0.343056 0.749434
vt 0.343056 0.752053
vt 0.339222 0.752053
vt 0.339222 0.747517
vt 0.435127 0.948486
vt 0.438448 0.945165
vt 0.516015 0.838134
vt 0.518243 0.837811
vt 0.136335 0.749434
vt 0.140170 0.747517
vt 0.032488 0.742980
vt 0.430591 0.742980
vt 0.435127 0.759600
vt 0.435829 0.764838
vt 0.439664 0.764838
vt 0.438448 0.759600
vt 0.430591 0.746815
vt 0.677876 0.812522
vt 0.333983 0.746815
vt 0.333983 0.752053
vt 0.438448 0.945165
vt 0.494493 0.704665
vt 0.579824 0.906483
vt 0.580751 0.904446
vt 0.653215 0.922263
vt 0.629688 0.922263
vt 0.630333 0.925312
vt 0.653630 0.925312
vt 0.302554 0.752053
vt 0.653630 0.809474
vt 0.027952 0.759600
vt 0.027250 0.764838
vt 0.032488 0.759599
vt 0.528107 0.860398
vt 0.580751 0.904446
vt 0.140170 0.940629
vt 0.490177 0.704665
vt 0.145408 0.746815
vt 0.145408 0.752053
vt 0.333983 0.940629
vt 0.339222 0.940629
vt 0.438448 0.759600
vt 0.494493 0.549302
vt 0.027952 0.948486
vt 0.430591 0.759599
vt 0.630333 0.809474
vt 0.677974 0.925312
vt 0.027239 0.795509
vt 0.494493 0.704665
vt 0.490177 0.549302
vt 0.494493 0.549302
vt 0.343056 0.943248
vt 0.677974 0.931665
vt 0.343056 0.940629
vt 0.677974 0.931665
vt 0.579824 0.906483
vt 0.430591 0.742980
vt 0.000000 0.000000
vn -0.1323 -0.1293 0.9827
vn -0.1226 -0.4825 0.8673
vn 0.1126 -0.5080 0.8540
vn 0.0925 -0.1405 0.9858
vn -0.7586 0.4823 0.4380
vn -0.4615 0.8509 0.2508
vn -0.5314 0.8471 -0.0000
vn -0.8760 0.4823 -0.0000
vn -0.4380 -0.4823 -0.7586
vn -0.4959 -0.1278 -0.8589
vn -0.1282 -0.1282 -0.9834
vn -0.1129 -0.4883 -0.8653
vn -0.2475 0.8518 0.4618
vn -0.4276 0.4723 0.7708
vn -0.1119 0.3315 0.9368
vn -0.0446 0.7789 0.6255
vn 0.8590 -0.1279 0.4957
vn 0.4568 -0.1201 0.8814
vn 0.4380 -0.4823 0.7586
vn 0.7586 -0.4823 0.4380
vn 0.8611 0.1248 0.4928
vn 0.6966 0.1010 0.7103
vn -0.0647 0.9979 -0.0000
vn -0.4615 0.8509 -0.2508
vn -0.8589 0.1278 0.4959
vn -0.4927 0.1386 0.8591
vn 0.5423 0.6806 0.4927
vn 0.2778 0.3760 0.8840
vn 0.6062 0.3464 0.7159
vn 0.7558 0.4319 0.4921
vn 0.4777 0.0713 -0.8756
vn 0.8611 0.1248 -0.4928
vn 0.8590 -0.1279 -0.4957
vn 0.4776 -0.1208 -0.8703
vn -0.1254 0.0740 -0.9893
vn -0.4959 0.1278 -0.8589
vn -0.4380 0.4823 -0.7586
vn -0.1056 0.3047 -0.9466
vn -0.1198 0.0920 0.9885
vn 0.3792 0.9253 -0.0000
vn 0.3121 0.7388 0.5973
vn 0.6232 0.7821 -0.0000
vn 0.0547 -0.8556 0.5147
vn -0.0547 -0.8556 0.5147
vn 0.0547 -0.8556 -0.5147
vn 0.2597 -0.8546 -0.4497
vn 0.0757 -0.9971 -0.0000
vn -0.0757 -0.9971 -0.0000
vn -0.2508 -0.8509 -0.4615
vn -0.0547 -0.8556 -0.5147
vn 0.3121 0.7388 -0.5973
vn 0.1292 0.9572 -0.2589
vn 0.1332 0.9911 -0.0000
vn 0.1115 -0.1197 -0.9865
vn 0.1129 -0.4883 -0.8653
vn -0.2474 0.8518 -0.4618
vn -0.0446 0.7789 -0.6255
vn -0.8760 -0.4823 -0.0000
vn -0.5314 -0.8471 0.0000
vn -0.4615 -0.8509 0.2508
vn -0.7586 -0.4823 0.4380
vn 0.5423 0.6806 -0.4927
vn 0.4380 -0.4823 -0.7586
vn -0.4615 -0.8509 -0.2508
vn 0.2597 -0.8546 0.4497
vn 0.5193 -0.8546 0.0000
vn 0.4602 -0.8471 0.2657
vn -0.2508 -0.8509 0.4615
vn -0.7586 -0.4823 -0.4380
vn 0.7586 -0.4823 -0.4380
vn -0.7586 0.4823 -0.4380
vn 0.8760 -0.4823 0.0000
vn 0.4602 -0.8471 -0.2657
vn 0.9918 -0.1279 0.0000
vn 0.9897 0.1435 0.0000
vn 0.4029 0.2226 -0.8877
vn 0.4386 0.5505 -0.7103
vn 0.7558 0.4319 -0.4921
vn -0.9918 0.1278 -0.0000
vn -0.8589 0.1278 -0.4959
vn -0.8589 -0.1278 -0.4959
vn -0.9918 -0.1278 -0.0000
vn 0.0449 0.0889 0.9950
vn -0.4927 -0.1386 0.8591
vn -0.4276 -0.4723 0.7707
vn -0.8589 -0.1278 0.4959
vn 0.1191 0.3356 0.9344
vn 0.8683 0.4961 0.0000
vn 0.0575 0.0259 -0.9980
vn 0.1097 0.2581 -0.9599
vn 0.1292 0.9572 0.2589
vn 0.0836 0.0365 0.9958
vn 0.0087 0.0434 -0.9990
vn 0.0209 0.2169 0.9760
vn 0.0209 0.2169 -0.9760
usemtl _auto_.002
s 1
f 1/1/1 22/2/2 21/3/3 12/4/4
usemtl _Color_M00_1.010
f 87/5/5 88/6/6 77/7/7 89/8/8
f 50/9/9 48/10/10 47/11/11 49/12/12
f 62/13/13 60/14/14 11/15/15 61/16/16
f 6/17/17 18/18/18 19/19/19 20/20/20
f 6/17/17 5/21/21 17/22/22 18/18/18
f 88/6/6 63/23/23 78/24/24 77/25/7
f 86/26/25 59/27/26 60/28/14 87/29/5
f 8/30/27 15/31/28 16/32/29 7/33/30
f 36/34/31 70/35/32 71/36/33 35/37/34
f 40/38/35 46/39/36 45/40/37 39/41/38
f 5/42/21 7/33/30 16/32/29 17/43/22
f 60/28/14 59/27/26 2/44/39 11/15/15
f 64/45/40 9/46/41 8/47/27 66/48/42
f 23/49/43 21/3/3 22/2/2 24/50/44
f 31/51/45 30/52/46 26/53/47 27/54/48 52/55/49 51/56/50
f 46/57/36 40/58/35 47/59/11 48/60/10
f 65/61/51 42/62/52 43/63/53 64/64/40
f 34/65/54 32/66/55 49/12/12 47/11/11
f 39/41/38 45/40/37 44/67/56 41/68/57
f 83/69/58 54/70/59 55/71/60 84/72/61
f 67/73/62 65/61/51 64/64/40 66/74/42
f 34/65/54 35/75/34 33/76/63 32/66/55
f 52/55/49 27/54/48 53/77/64
f 25/78/65 26/79/47 28/80/66 76/81/67
f 27/82/48 56/83/68 55/84/60
f 26/79/47 25/78/65 23/49/43 24/50/44 56/83/68 27/82/48
f 82/85/69 50/86/9 52/55/49 53/77/64
f 33/87/63 35/37/34 71/36/33 73/88/70
f 44/89/56 45/90/37 79/91/71 78/24/24
f 72/92/72 28/93/66 29/94/73 73/88/70
f 30/52/46 33/95/63 73/96/70 29/97/73
f 4/98/74 3/99/75 5/21/21 6/17/17
f 72/92/72 73/88/70 71/36/33 4/100/74
f 37/101/76 74/102/77 67/103/62 69/104/78
f 90/105/79 80/106/80 81/107/81 91/108/82
f 2/109/39 1/1/1 12/4/4 13/110/83
f 29/97/73 28/111/66 26/53/47 30/52/46
f 54/112/59 53/77/64 27/54/48 55/84/60
f 63/113/23 44/89/56 78/24/24
f 58/114/84 1/1/1 2/44/39 59/115/26
f 53/116/64 54/117/59 83/118/58 82/119/69
f 56/83/68 57/120/85 84/121/61 55/84/60
f 37/101/76 69/104/78 70/122/32 36/123/31
f 89/8/8 77/7/7 78/124/24 79/125/71
f 32/126/55 31/51/45 51/56/50 49/127/12
f 57/128/85 58/129/84 85/130/86 84/131/61
f 62/13/13 63/23/23 88/6/6
f 42/62/52 41/132/57 44/89/56 63/113/23 43/133/53
f 81/134/81 82/119/69 83/118/58 91/135/82
f 87/136/5 60/14/14 62/13/13 88/6/6
f 86/137/25 85/130/86 58/129/84 59/27/26
f 8/30/27 9/138/41 14/139/87 15/31/28
f 68/140/88 66/141/42 8/142/27 7/143/30
f 68/140/88 3/144/75 70/35/32 69/145/78
f 19/146/19 18/147/18 12/4/4 21/148/3
f 37/101/76 36/123/31 35/75/34 34/65/54 38/149/89
f 67/73/62 74/102/77 75/150/90 65/61/51
f 86/137/25 87/5/5 89/151/8 90/152/79
f 89/8/8 79/125/71 80/153/80 90/154/79
f 83/69/58 84/72/61 85/130/86 91/155/82
f 4/98/74 6/17/17 20/20/20 72/156/72
f 82/157/69 81/158/81 48/10/10 50/9/9
f 25/78/65 19/159/19 21/148/3 23/49/43
f 34/65/54 47/59/11 40/38/35 38/149/89
f 56/83/68 24/50/44 22/160/2 57/120/85
f 68/140/88 69/145/78 67/161/62 66/141/42
f 43/63/53 10/162/91 9/46/41 64/45/40
f 16/32/92 15/31/28 13/110/83 12/4/4 18/147/18 17/163/92
f 46/57/36 48/60/10 81/158/81 80/164/80
f 38/149/89 40/38/35 39/41/38 75/150/90 74/102/93 37/101/76
f 3/99/75 68/140/88 7/33/30 5/42/21
f 71/36/33 70/35/32 3/144/75 4/100/74
f 90/105/79 91/165/82 85/166/86 86/137/25
f 25/78/65 76/167/67 20/20/20 19/159/19
f 43/63/53 63/23/23 62/13/13 61/16/16 10/162/91
f 80/164/80 79/91/71 45/90/37 46/57/36
f 1/1/1 58/129/84 57/128/85 22/160/2
f 9/138/41 10/168/94 61/16/16 11/15/15 14/139/87
f 52/55/49 50/86/9 49/127/12 51/56/50
f 30/52/46 31/51/45 32/126/55 33/95/63
f 28/169/66 72/156/72 20/20/20 76/167/67
f 42/170/95 65/171/51 75/150/90 39/172/38 41/132/57
f 2/44/39 13/110/83 15/31/28 14/139/87 11/173/15
