# Blender v2.80 (sub 74) OBJ File: ''
# www.blender.org
mtllib knightfall_gun_end_c.mtl
o collider_gun_Mesh.000
v 0.692396 -0.399758 5.500000
v 0.399755 -0.692399 5.500000
v 0.399755 -0.692397 -1.500000
v 0.692396 -0.399756 -1.500000
v 0.000000 -0.799513 5.500000
v 0.000000 -0.799511 -1.500000
v -0.399755 -0.692399 5.500000
v -0.399755 -0.692397 -1.500000
v -0.692396 -0.399758 5.500000
v -0.692396 -0.399756 -1.500000
v -0.799510 -0.000003 5.500000
v -0.799510 -0.000001 -1.500000
v -0.692396 0.399752 5.500000
v -0.692396 0.399754 -1.500000
v -0.399755 0.692393 5.500000
v -0.399755 0.692395 -1.500000
v 0.000000 0.799507 5.500000
v 0.000000 0.799509 -1.500000
v 0.399755 0.692393 5.500000
v 0.399755 0.692395 -1.500000
v 0.692396 0.399752 5.500000
v 0.692396 0.399754 -1.500000
v 0.799510 -0.000003 5.500000
v 0.799510 -0.000001 -1.500000
v 0.000000 -0.000003 5.500000
v 0.000000 -0.000001 -1.500000
vt 0.375000 0.312500
vt 0.395833 0.312500
vt 0.395833 0.688440
vt 0.375000 0.688440
vt 0.416667 0.312500
vt 0.416667 0.688440
vt 0.437500 0.312500
vt 0.437500 0.688440
vt 0.458333 0.312500
vt 0.458333 0.688440
vt 0.479167 0.312500
vt 0.479167 0.688440
vt 0.500000 0.312500
vt 0.500000 0.688440
vt 0.520833 0.312500
vt 0.520833 0.688440
vt 0.541667 0.312500
vt 0.541667 0.688440
vt 0.562500 0.312500
vt 0.562500 0.688440
vt 0.583333 0.312500
vt 0.583333 0.688440
vt 0.604167 0.312500
vt 0.604167 0.688440
vt 0.625000 0.312500
vt 0.625000 0.688440
vt 0.578125 0.020934
vt 0.635316 0.078125
vt 0.500000 0.150000
vt 0.500000 0.000000
vt 0.421875 0.020934
vt 0.364684 0.078125
vt 0.343750 0.156250
vt 0.364684 0.234375
vt 0.421875 0.291566
vt 0.500000 0.312500
vt 0.578125 0.291566
vt 0.635316 0.234375
vt 0.656250 0.156250
vt 0.635316 0.921875
vt 0.578125 0.979066
vt 0.500000 0.837500
vt 0.500000 1.000000
vt 0.421875 0.979066
vt 0.364684 0.921875
vt 0.343750 0.843750
vt 0.364684 0.765625
vt 0.421875 0.708434
vt 0.500000 0.687500
vt 0.578125 0.708434
vt 0.635316 0.765625
vt 0.656250 0.843750
vn 0.7071 -0.7071 -0.0000
vn 0.2588 -0.9659 -0.0000
vn 0.0000 -1.0000 -0.0000
vn -0.2588 -0.9659 -0.0000
vn -0.7071 -0.7071 -0.0000
vn -0.8660 -0.5000 -0.0000
vn -0.9659 -0.2588 -0.0000
vn -0.9659 0.2588 0.0000
vn -0.8660 0.5000 0.0000
vn -0.5000 0.8660 0.0000
vn 0.0000 1.0000 0.0000
vn 0.5000 0.8660 0.0000
vn 0.7071 0.7071 0.0000
vn 0.9659 0.2588 0.0000
vn 1.0000 -0.0000 -0.0000
vn 0.9659 -0.2588 -0.0000
vn 0.0000 0.0000 1.0000
vn 0.0000 0.0000 -1.0000
usemtl lambert1.002
s 1
f 1/1/1 2/2/1 3/3/1 4/4/1
f 2/2/2 5/5/3 6/6/3 3/3/2
f 5/5/3 7/7/4 8/8/4 6/6/3
f 7/7/5 9/9/6 10/10/6 8/8/5
f 9/9/6 11/11/7 12/12/7 10/10/6
f 11/11/8 13/13/9 14/14/9 12/12/8
f 13/13/9 15/15/10 16/16/10 14/14/9
f 15/15/10 17/17/11 18/18/11 16/16/10
f 17/17/11 19/19/12 20/20/12 18/18/11
f 19/19/12 21/21/13 22/22/13 20/20/12
f 21/21/14 23/23/15 24/24/15 22/22/14
f 23/23/15 1/25/16 4/26/16 24/24/15
f 2/27/17 1/28/17 25/29/17
f 5/30/17 2/27/17 25/29/17
f 7/31/17 5/30/17 25/29/17
f 9/32/17 7/31/17 25/29/17
f 11/33/17 9/32/17 25/29/17
f 13/34/17 11/33/17 25/29/17
f 15/35/17 13/34/17 25/29/17
f 17/36/17 15/35/17 25/29/17
f 19/37/17 17/36/17 25/29/17
f 21/38/17 19/37/17 25/29/17
f 23/39/17 21/38/17 25/29/17
f 1/28/17 23/39/17 25/29/17
f 4/40/18 3/41/18 26/42/18
f 3/41/18 6/43/18 26/42/18
f 6/43/18 8/44/18 26/42/18
f 8/44/18 10/45/18 26/42/18
f 10/45/18 12/46/18 26/42/18
f 12/46/18 14/47/18 26/42/18
f 14/47/18 16/48/18 26/42/18
f 16/48/18 18/49/18 26/42/18
f 18/49/18 20/50/18 26/42/18
f 20/50/18 22/51/18 26/42/18
f 22/51/18 24/52/18 26/42/18
f 24/52/18 4/40/18 26/42/18
