# Blender v2.80 (sub 74) OBJ File: ''
# www.blender.org
mtllib knightfall_gun_mid.mtl
o geo_gun_mid_Mesh.001
v 0.561615 0.232628 1.758025
v 0.675423 -0.000000 1.686755
v 0.624010 0.258473 1.686755
v 0.477596 0.477596 1.686755
v 0.429842 0.429841 1.758025
v 0.232629 0.561615 1.758025
v 0.000000 0.675423 1.686755
v 0.000000 0.607887 1.758025
v -0.232628 0.561615 1.758025
v -0.258473 0.624010 1.686755
v -0.429841 0.429842 1.758025
v -0.477596 0.477597 1.686755
v -0.561615 0.232629 1.758025
v -0.624009 0.258473 1.686755
v -0.607888 -0.000000 1.758025
v -0.675423 -0.000000 1.686755
v -0.561615 -0.232628 1.758025
v -0.624010 -0.258473 1.686755
v -0.429841 -0.429841 1.758025
v -0.477596 -0.477596 1.686755
v -0.232629 -0.561615 1.758025
v -0.258473 -0.624009 1.686755
v 0.000000 -0.607887 1.758025
v 0.000000 -0.675423 1.686755
v 0.232628 -0.561615 1.758025
v 0.258473 -0.624009 1.686755
v 0.429841 -0.429841 1.758025
v 0.477596 -0.477596 1.686755
v 0.561615 -0.232628 1.758025
v 0.624009 -0.258473 1.686755
v 0.607888 -0.000000 1.758025
v 0.477596 0.477596 0.200000
v 0.624010 0.258473 0.994774
v 0.624010 0.258473 0.200000
v 0.258474 0.624009 0.200000
v 0.477596 0.477596 0.994774
v 0.000000 0.675423 0.200000
v 0.258474 0.624009 0.994774
v -0.258473 0.624010 0.200000
v 0.000000 0.675423 0.994774
v -0.477596 0.477597 0.200000
v -0.258473 0.624010 0.994774
v -0.624009 0.258474 0.200000
v -0.477596 0.477597 0.994774
v -0.675423 0.000001 0.200000
v -0.624009 0.258474 0.994774
v -0.624010 -0.258473 0.200000
v -0.675423 -0.000000 0.994774
v -0.477596 -0.477596 0.200000
v -0.624010 -0.258473 0.994774
v -0.258473 -0.624009 0.994774
v -0.477596 -0.477596 0.994774
v 0.000000 -0.675423 0.200000
v -0.258473 -0.624009 0.200000
v 0.258473 -0.624009 0.200000
v 0.000000 -0.675423 0.994774
v 0.477596 -0.477596 0.200000
v 0.258473 -0.624009 0.994774
v 0.624009 -0.258473 0.994774
v 0.477596 -0.477596 0.994774
v 0.675423 -0.000000 0.200000
v 0.624009 -0.258473 0.200000
v 0.675423 -0.000000 0.994774
v 0.000000 0.675423 1.273678
v 0.258474 0.624009 1.686755
v 0.258474 0.624009 1.273678
v 0.477596 0.477596 1.273678
v 0.624010 0.258473 1.273678
v 0.675423 -0.000000 1.273678
v 0.624009 -0.258473 1.273678
v 0.477596 -0.477596 1.273678
v 0.258473 -0.624009 1.273678
v 0.000000 -0.675423 1.273678
v -0.258473 -0.624009 1.273678
v -0.477596 -0.477596 1.273678
v -0.624010 -0.258473 1.273678
v -0.675423 -0.000000 1.273678
v -0.624009 0.258474 1.273678
v -0.477596 0.477597 1.273678
v -0.258473 0.624010 1.273678
v 0.000000 0.577534 0.994774
v 0.221013 0.533572 1.273678
v 0.221013 0.533572 0.994774
v 0.408378 0.408378 1.273678
v 0.408378 0.408378 0.994774
v 0.533572 0.221013 0.994774
v 0.533572 0.221013 1.273678
v 0.577534 -0.000000 1.273678
v 0.577534 -0.000000 0.994774
v 0.533572 -0.221013 1.273678
v 0.533572 -0.221013 0.994774
v 0.408378 -0.408378 0.994774
v 0.408378 -0.408378 1.273678
v 0.221013 -0.533572 1.273678
v 0.221013 -0.533572 0.994774
v 0.000000 -0.577534 1.273678
v 0.000000 -0.577534 0.994774
v -0.221013 -0.533572 1.273678
v -0.221013 -0.533572 0.994774
v -0.408378 -0.408378 0.994774
v -0.408378 -0.408378 1.273678
v -0.533572 -0.221012 1.273678
v -0.533572 -0.221012 0.994774
v -0.577534 -0.000000 1.273678
v -0.577534 -0.000000 0.994774
v -0.533572 0.221013 1.273678
v -0.533572 0.221013 0.994774
v -0.408378 0.408379 1.273678
v -0.408378 0.408379 0.994774
v -0.221013 0.533572 1.273678
v -0.221013 0.533572 0.994774
v 0.000000 0.577534 1.273678
v 0.077432 1.064886 1.331352
v 0.077432 0.796655 1.331352
v -0.077432 0.796655 1.331352
v 0.000000 0.827946 1.667119
v -0.051412 0.841722 1.667119
v -0.077432 0.796655 1.667119
v -0.134116 1.008202 1.331352
v -0.077432 1.064886 1.667119
v -0.077432 1.064886 1.331352
v -0.154864 0.930770 1.331352
v -0.134116 1.008202 1.667119
v -0.134116 0.853339 1.331352
v -0.154864 0.930770 1.667119
v -0.134116 0.853339 1.667119
v 0.134116 0.853339 1.331352
v 0.077432 0.796655 1.667119
v 0.154864 0.930770 1.331352
v 0.134116 0.853339 1.667119
v 0.134116 1.008202 1.331352
v 0.154864 0.930770 1.667119
v 0.134116 1.008202 1.667119
v 0.000000 1.085634 1.331352
v 0.077432 1.064886 1.667119
v 0.000000 1.085634 1.667119
v 0.000000 1.033595 1.576955
v -0.089049 0.879358 1.576956
v 0.089049 0.879358 1.576956
v 0.051412 1.019819 1.667119
v 0.089049 0.982183 1.667119
v -0.077432 0.610503 1.667119
v 0.077432 0.610503 1.331352
v -0.089049 0.982183 1.667119
v -0.051412 1.019819 1.576956
v -0.051412 1.019819 1.667119
v -0.102825 0.930770 1.667119
v -0.089049 0.982183 1.576956
v -0.089049 0.879358 1.667119
v -0.102825 0.930770 1.576956
v -0.051412 0.841722 1.576956
v 0.051412 0.841722 1.667119
v 0.000000 0.827946 1.576955
v 0.051412 0.841722 1.576955
v 0.102825 0.930770 1.667119
v 0.089049 0.879358 1.667119
v 0.102825 0.930770 1.576956
v 0.089049 0.982183 1.576956
v 0.000000 1.033595 1.667119
v 0.051412 1.019819 1.576955
v 0.823369 -0.762482 0.316282
v -0.823369 -0.825304 0.000452
v 0.823369 -0.825304 0.000452
v 0.823369 -0.583578 0.584030
v -0.823369 -0.762482 0.316282
v 0.823369 -0.315830 0.762934
v -0.823369 -0.583578 0.584030
v 0.823369 -0.000000 0.825757
v -0.823369 -0.315830 0.762934
v 0.823369 0.315830 0.762934
v -0.823369 -0.000000 0.825757
v 0.823369 0.583579 0.584031
v -0.823369 0.315830 0.762934
v 0.823369 0.762482 0.316283
v -0.823369 0.583579 0.584031
v 0.823369 0.825305 0.000452
v -0.823369 0.762482 0.316283
v -0.077432 0.610503 1.331352
v 0.077432 0.610503 1.667119
v -0.823369 0.825305 0.000452
vt 0.428908 0.982243
vt 0.422588 0.981777
vt 0.428309 0.979982
vt 0.434139 0.978584
vt 0.434580 0.980881
vt 0.440332 0.979913
vt 0.446016 0.977008
vt 0.446137 0.979344
vt 0.451968 0.979176
vt 0.452007 0.976837
vt 0.457796 0.979410
vt 0.457997 0.977080
vt 0.463595 0.980046
vt 0.463955 0.977735
vt 0.469337 0.981080
vt 0.469856 0.978799
vt 0.474996 0.982509
vt 0.475673 0.980270
vt 0.480546 0.984329
vt 0.481385 0.982146
vt 0.485943 0.986542
vt 0.486984 0.984445
vt 0.491016 0.989219
vt 0.401088 0.992972
vt 0.407502 0.991430
vt 0.402739 0.994697
vt 0.406262 0.989478
vt 0.412613 0.988599
vt 0.411556 0.986524
vt 0.417902 0.986115
vt 0.416998 0.983961
vt 0.423341 0.983991
vt 0.401477 0.962972
vt 0.396874 0.996813
vt 0.396874 0.962972
vt 0.406081 0.962972
vt 0.401477 0.996813
vt 0.410684 0.962972
vt 0.406081 0.996813
vt 0.415287 0.962972
vt 0.410684 0.996813
vt 0.419891 0.962972
vt 0.415287 0.996813
vt 0.424494 0.962972
vt 0.419891 0.996813
vt 0.429098 0.962972
vt 0.424494 0.996813
vt 0.433701 0.962972
vt 0.429098 0.996813
vt 0.438304 0.962972
vt 0.433701 0.996813
vt 0.442908 0.996813
vt 0.438304 0.996813
vt 0.447511 0.962972
vt 0.442908 0.962972
vt 0.452115 0.962972
vt 0.447511 0.996813
vt 0.456718 0.962972
vt 0.452115 0.996813
vt 0.461321 0.996813
vt 0.456718 0.996813
vt 0.465925 0.962972
vt 0.461321 0.962972
vt 0.470528 0.962972
vt 0.465925 0.996813
vt 0.470528 0.996813
vt 0.445341 0.967144
vt 0.440050 0.977591
vt 0.438697 0.967797
vt 0.432115 0.968907
vt 0.425625 0.970469
vt 0.419262 0.972475
vt 0.413060 0.974918
vt 0.407062 0.977786
vt 0.401328 0.981040
vt 0.395924 0.984464
vt 0.496706 0.977987
vt 0.490812 0.975256
vt 0.484677 0.972804
vt 0.478353 0.970747
vt 0.471887 0.969120
vt 0.465319 0.967941
vt 0.458684 0.967216
vt 0.452013 0.966950
vt 0.146722 0.740184
vt 0.140999 0.747376
vt 0.141000 0.740183
vt 0.135277 0.747376
vt 0.135278 0.740183
vt 0.129555 0.740182
vt 0.129555 0.747375
vt 0.123833 0.747375
vt 0.123833 0.740182
vt 0.118111 0.747375
vt 0.118110 0.740182
vt 0.112388 0.740183
vt 0.112388 0.747376
vt 0.106666 0.747376
vt 0.106666 0.740183
vt 0.100944 0.747377
vt 0.100943 0.740184
vt 0.192500 0.740184
vt 0.186779 0.747377
vt 0.186778 0.740184
vt 0.181056 0.740185
vt 0.181056 0.747378
vt 0.175334 0.747378
vt 0.175334 0.740185
vt 0.169611 0.747378
vt 0.169611 0.740185
vt 0.163889 0.747378
vt 0.163889 0.740185
vt 0.158166 0.747378
vt 0.158167 0.740185
vt 0.152444 0.747377
vt 0.152445 0.740184
vt 0.146722 0.747377
vt 0.439419 0.908916
vt 0.439419 0.961527
vt 0.409043 0.961527
vt 0.424494 0.996813
vt 0.455158 0.975478
vt 0.458504 0.980691
vt 0.457467 0.975478
vt 0.424231 0.955390
vt 0.434315 0.952688
vt 0.439419 0.961527
vt 0.492466 0.987270
vt 0.484917 0.962653
vt 0.459260 0.958322
vt 0.484917 0.958322
vt 0.484916 0.968570
vt 0.459260 0.962653
vt 0.484916 0.974487
vt 0.459260 0.968570
vt 0.484917 0.978818
vt 0.459260 0.974487
vt 0.484917 0.930324
vt 0.459260 0.925992
vt 0.484917 0.925992
vt 0.484917 0.936240
vt 0.459260 0.930324
vt 0.484917 0.942157
vt 0.459260 0.936240
vt 0.484917 0.946488
vt 0.459260 0.942157
vt 0.484917 0.952405
vt 0.459260 0.946488
vt 0.459260 0.952405
vt 0.465925 0.996813
vt 0.461321 0.996813
vt 0.485804 0.969382
vt 0.483671 0.970266
vt 0.484708 0.975478
vt 0.072846 0.904746
vt 0.090526 0.935368
vt 0.055166 0.935368
vt 0.414147 0.917755
vt 0.406765 0.925137
vt 0.397925 0.920034
vt 0.459260 0.993043
vt 0.459260 0.978818
vt 0.484916 0.911768
vt 0.429199 0.923333
vt 0.420604 0.944083
vt 0.399854 0.935488
vt 0.487361 0.924392
vt 0.499507 0.929462
vt 0.487361 0.929463
vt 0.487360 0.917466
vt 0.499507 0.924392
vt 0.487361 0.986230
vt 0.499508 0.993157
vt 0.487361 0.993157
vt 0.487361 0.981160
vt 0.499508 0.986230
vt 0.487361 0.974234
vt 0.499508 0.981160
vt 0.487361 0.967308
vt 0.499508 0.974234
vt 0.499508 0.962237
vt 0.499508 0.967308
vt 0.487361 0.955311
vt 0.487361 0.962238
vt 0.487361 0.948385
vt 0.499508 0.955311
vt 0.487361 0.943315
vt 0.499508 0.948385
vt 0.487361 0.936389
vt 0.499508 0.943315
vt 0.499508 0.936389
vt 0.452198 0.939875
vt 0.446150 0.994950
vt 0.446150 0.939875
vt 0.458246 0.939875
vt 0.452198 0.994950
vt 0.464293 0.939875
vt 0.458246 0.994950
vt 0.470341 0.939875
vt 0.464293 0.994950
vt 0.476388 0.939875
vt 0.470341 0.994950
vt 0.482436 0.939875
vt 0.476388 0.994950
vt 0.488484 0.939875
vt 0.482436 0.994950
vt 0.494531 0.939875
vt 0.488484 0.994950
vt 0.192501 0.747377
vt 0.409043 0.908916
vt 0.424231 0.904846
vt 0.397925 0.920034
vt 0.450537 0.920034
vt 0.454607 0.935221
vt 0.450537 0.950409
vt 0.439419 0.998040
vt 0.409043 0.998040
vt 0.397925 0.950409
vt 0.393856 0.935221
vt 0.429098 0.996813
vt 0.456371 0.981574
vt 0.450537 0.920034
vt 0.454607 0.935221
vt 0.444399 0.935221
vt 0.450537 0.950409
vt 0.439419 0.998040
vt 0.409043 0.998040
vt 0.441697 0.945306
vt 0.424231 0.904846
vt 0.439419 0.908916
vt 0.434315 0.917755
vt 0.441697 0.925137
vt 0.424231 0.915053
vt 0.409043 0.961527
vt 0.397925 0.950409
vt 0.406765 0.945306
vt 0.393856 0.935221
vt 0.404063 0.935221
vt 0.414147 0.952688
vt 0.433701 0.996813
vt 0.442908 0.996813
vt 0.452115 0.996813
vt 0.470528 0.996813
vt 0.406081 0.996813
vt 0.415287 0.996813
vt 0.419891 0.996813
vt 0.438304 0.996813
vt 0.410684 0.996813
vt 0.447511 0.996813
vt 0.401477 0.996813
vt 0.456718 0.996813
vt 0.477183 0.990195
vt 0.482351 0.986742
vt 0.480718 0.985109
vt 0.485804 0.981574
vt 0.487016 0.975478
vt 0.482351 0.964215
vt 0.480718 0.965847
vt 0.477183 0.960762
vt 0.471087 0.959549
vt 0.471087 0.961858
vt 0.464992 0.960762
vt 0.459824 0.964215
vt 0.461456 0.965847
vt 0.456371 0.969382
vt 0.458504 0.970266
vt 0.464992 0.990195
vt 0.471087 0.991407
vt 0.471087 0.989099
vt 0.459824 0.986742
vt 0.461456 0.985109
vt 0.465875 0.988062
vt 0.465875 0.962895
vt 0.476300 0.988062
vt 0.476300 0.962895
vt 0.483671 0.980691
vt 0.052431 0.925161
vt 0.055166 0.914953
vt 0.062638 0.907481
vt 0.083053 0.907481
vt 0.090526 0.914953
vt 0.093261 0.925161
vt 0.083053 0.942841
vt 0.072846 0.945576
vt 0.062638 0.942841
vt 0.409043 0.908916
vt 0.484916 0.993043
vt 0.459260 0.911768
vt 0.398645 0.929411
vt 0.399854 0.923333
vt 0.403297 0.918181
vt 0.408449 0.914738
vt 0.414527 0.913529
vt 0.420604 0.914738
vt 0.425757 0.918181
vt 0.430408 0.929411
vt 0.429199 0.935488
vt 0.425757 0.940641
vt 0.414527 0.945292
vt 0.408449 0.944083
vt 0.403297 0.940641
vt 0.499507 0.917466
vt 0.494531 0.994950
vn 0.6706 0.2778 0.6878
vn 0.7259 -0.0000 0.6878
vn 0.5133 0.5133 0.6878
vn 0.2778 0.6706 0.6878
vn 0.0000 0.7259 0.6878
vn -0.2778 0.6706 0.6878
vn -0.5133 0.5133 0.6878
vn -0.6706 0.2778 0.6878
vn -0.7259 -0.0000 0.6878
vn -0.6706 -0.2778 0.6878
vn -0.5133 -0.5133 0.6878
vn -0.2778 -0.6706 0.6878
vn -0.0000 -0.7259 0.6878
vn 0.2778 -0.6706 0.6878
vn 0.5133 -0.5133 0.6878
vn 0.6706 -0.2778 0.6878
vn 0.7071 0.7071 0.0000
vn 0.9239 0.3827 0.0000
vn 0.3827 0.9239 0.0000
vn 0.0000 1.0000 0.0000
vn -0.3827 0.9239 0.0000
vn -0.7071 0.7071 0.0000
vn -0.9239 0.3827 0.0000
vn -1.0000 0.0000 -0.0000
vn -0.9239 -0.3827 -0.0000
vn -0.7071 -0.7071 -0.0000
vn -0.3827 -0.9239 -0.0000
vn -0.0000 -1.0000 -0.0000
vn 0.3827 -0.9239 -0.0000
vn 0.7071 -0.7071 -0.0000
vn 0.9239 -0.3827 -0.0000
vn 1.0000 -0.0000 -0.0000
vn -0.0000 0.0000 -1.0000
vn 0.0000 -0.0000 1.0000
vn -0.9659 0.2588 0.0000
vn -0.8660 -0.5000 -0.0000
vn 0.9659 -0.2588 0.0000
vn 0.9659 0.2588 0.0000
vn 0.2588 0.9659 0.0000
vn -0.2588 0.9659 0.0000
vn -0.9659 -0.2588 0.0000
vn -0.2588 -0.9659 0.0000
vn 0.2588 -0.9659 0.0000
vn 0.0000 -0.9239 0.3827
vn 0.0000 -0.9808 0.1951
vn 0.0000 -0.7071 0.7071
vn 0.0000 -0.3827 0.9239
vn 0.0000 0.3827 0.9239
vn 0.0000 0.7071 0.7071
vn 0.0000 0.9239 0.3827
vn 0.0000 0.9808 0.1951
usemtl phong1.003
s 1
f 1/1/1 2/2/2 3/3/1
f 1/1/1 4/4/3 5/5/3
f 4/4/3 6/6/4 5/5/3
f 6/6/4 7/7/5 8/8/5
f 7/7/5 9/9/6 8/8/5
f 10/10/6 11/11/7 9/9/6
f 12/12/7 13/13/8 11/11/7
f 14/14/8 15/15/9 13/13/8
f 16/16/9 17/17/10 15/15/9
f 18/18/10 19/19/11 17/17/10
f 20/20/11 21/21/12 19/19/11
f 22/22/12 23/23/13 21/21/12
f 24/24/13 25/25/14 23/26/13
f 26/27/14 27/28/15 25/25/14
f 28/29/15 29/30/16 27/28/15
f 30/31/16 31/32/2 29/30/16
f 32/33/17 33/34/18 34/35/18
f 35/36/19 36/37/17 32/33/17
f 37/38/20 38/39/19 35/36/19
f 39/40/21 40/41/20 37/38/20
f 41/42/22 42/43/21 39/40/21
f 43/44/23 44/45/22 41/42/22
f 45/46/24 46/47/23 43/44/23
f 47/48/25 48/49/24 45/46/24
f 49/50/26 50/51/25 47/48/25
f 49/50/26 51/52/27 52/53/26
f 53/54/28 51/52/27 54/55/27
f 55/56/29 56/57/28 53/54/28
f 57/58/30 58/59/29 55/56/29
f 57/58/30 59/60/31 60/61/30
f 61/62/32 59/60/31 62/63/31
f 34/64/18 63/65/32 61/62/32
f 35/36/33 32/33/33 34/64/33
f 10/10/6 12/12/7 11/11/7
f 34/64/18 33/66/18 63/65/32
f 35/36/19 38/39/19 36/37/17
f 41/42/33 39/40/33 35/36/33
f 61/62/33 62/63/33 35/36/33
f 43/44/33 41/42/33 35/36/33
f 55/56/33 54/55/33 35/36/33
f 47/48/33 43/44/33 35/36/33
f 64/67/20 65/68/19 66/69/19
f 66/69/19 4/4/17 67/70/17
f 67/70/17 3/3/18 68/71/18
f 68/71/18 2/2/32 69/72/32
f 69/72/32 30/31/31 70/73/31
f 71/74/30 30/31/31 28/29/30
f 71/74/30 26/27/29 72/75/29
f 72/75/29 24/24/28 73/76/28
f 73/77/28 22/22/27 74/78/27
f 75/79/26 22/22/27 20/20/26
f 75/79/26 18/18/25 76/80/25
f 76/80/25 16/16/24 77/81/24
f 77/81/24 14/14/23 78/82/23
f 78/82/23 12/12/22 79/83/22
f 79/83/22 10/10/21 80/84/21
f 80/84/21 7/7/20 64/67/20
f 81/85/20 82/86/19 83/87/19
f 83/87/19 84/88/17 85/89/17
f 86/90/18 84/88/17 87/91/18
f 86/90/18 88/92/32 89/93/32
f 89/93/32 90/94/31 91/95/31
f 92/96/30 90/94/31 93/97/30
f 92/96/30 94/98/29 95/99/29
f 95/99/29 96/100/28 97/101/28
f 97/102/28 98/103/27 99/104/27
f 100/105/26 98/103/27 101/106/26
f 100/105/26 102/107/25 103/108/25
f 103/108/25 104/109/24 105/110/24
f 105/110/24 106/111/23 107/112/23
f 107/112/23 108/113/22 109/114/22
f 109/114/22 110/115/21 111/116/21
f 111/116/21 112/117/20 81/85/20
f 6/6/4 65/68/4 7/7/5
f 26/27/14 28/29/15 27/28/15
f 45/46/24 48/49/24 46/47/23
f 30/31/16 2/2/2 31/32/2
f 37/38/20 40/41/20 38/39/19
f 41/42/22 44/45/22 42/43/21
f 71/74/30 28/29/30 26/27/29
f 54/55/33 49/50/33 47/48/33
f 12/12/7 14/14/8 13/13/8
f 39/40/33 37/38/33 35/36/33
f 62/63/33 57/58/33 55/56/33
f 55/56/33 53/54/33 54/55/33
f 47/48/33 45/46/33 43/44/33
f 62/63/33 55/56/33 35/36/33
f 24/24/13 26/27/14 25/25/14
f 57/58/30 60/61/30 58/59/29
f 34/64/33 61/62/33 35/36/33
f 64/67/20 7/7/20 65/68/19
f 14/14/8 16/16/9 15/15/9
f 72/75/29 26/27/29 24/24/28
f 18/18/10 20/20/11 19/19/11
f 55/56/29 58/59/29 56/57/28
f 113/118/33 114/119/33 115/120/33
f 57/58/30 62/63/31 59/60/31
f 48/49/34 107/121/34 46/47/34
f 77/122/33 106/123/33 104/124/33
f 116/125/34 117/126/34 118/127/34
f 43/44/23 46/47/23 44/45/22
f 49/50/26 54/55/27 51/52/27
f 47/48/25 50/51/25 48/49/24
f 4/4/3 65/68/4 6/6/4
f 22/22/12 24/128/13 23/23/13
f 119/129/22 120/130/22 121/131/22
f 122/132/24 123/133/35 119/129/35
f 124/134/36 125/135/24 122/132/24
f 115/136/26 126/137/36 124/134/36
f 127/138/30 128/139/30 114/140/30
f 129/141/32 130/142/37 127/138/37
f 131/143/38 132/144/32 129/141/32
f 113/145/17 133/146/17 131/143/17
f 134/147/20 135/148/39 113/145/39
f 121/131/40 136/149/20 134/147/20
f 63/65/34 89/150/34 91/151/34
f 1/1/1 3/3/1 4/4/3
f 53/54/28 56/57/28 51/52/27
f 16/16/9 18/18/10 17/17/10
f 70/152/33 90/153/33 88/154/33
f 73/77/28 24/128/28 22/22/27
f 137/155/34 138/156/34 139/157/34
f 20/20/11 22/22/12 21/21/12
f 140/158/34 141/159/34 133/160/34
f 28/29/15 30/31/16 29/30/16
f 76/80/25 18/18/25 16/16/24
f 39/40/21 42/43/21 40/41/20
f 1/1/1 31/32/2 2/2/2
f 115/136/24 142/161/24 118/162/24
f 128/139/32 143/163/32 114/140/32
f 29/164/34 6/165/34 13/166/34
f 61/62/32 63/65/32 59/60/31
f 68/71/18 3/3/18 2/2/32
f 71/74/30 70/73/31 30/31/31
f 54/55/33 47/48/33 35/36/33
f 69/72/32 2/2/32 30/31/31
f 49/50/26 52/53/26 50/51/25
f 32/33/17 36/37/17 33/34/18
f 75/79/26 20/20/26 18/18/25
f 7/7/5 10/10/6 9/9/6
f 66/69/19 65/68/19 4/4/17
f 75/79/26 74/78/27 22/22/27
f 144/167/30 145/168/30 146/169/30
f 147/170/37 148/171/37 144/167/37
f 149/172/38 150/173/38 147/174/38
f 117/175/17 138/176/17 149/172/17
f 116/177/39 151/178/39 117/175/39
f 152/179/40 153/180/40 116/177/40
f 152/179/22 139/181/22 154/182/22
f 155/183/35 139/181/35 156/184/35
f 141/185/41 157/186/41 155/183/41
f 140/187/26 158/188/26 141/185/26
f 159/189/42 160/190/42 140/187/42
f 159/189/43 145/168/43 137/191/43
f 67/70/17 4/4/17 3/3/18
f 78/82/23 14/14/23 12/12/22
f 161/192/44 162/193/45 163/194/45
f 164/195/46 165/196/44 161/192/44
f 166/197/47 167/198/46 164/195/46
f 168/199/34 169/200/47 166/197/47
f 170/201/48 171/202/34 168/199/34
f 172/203/49 173/204/48 170/201/48
f 174/205/50 175/206/49 172/203/49
f 176/207/51 177/208/50 174/205/50
f 77/81/24 16/16/24 14/14/23
f 79/83/22 12/12/22 10/10/21
f 80/84/21 10/10/21 7/7/20
f 81/85/20 112/117/20 82/86/19
f 83/87/19 82/86/19 84/88/17
f 86/90/18 85/89/17 84/88/17
f 86/90/18 87/91/18 88/92/32
f 89/93/32 88/92/32 90/94/31
f 92/96/30 91/95/31 90/94/31
f 92/96/30 93/97/30 94/98/29
f 95/99/29 94/98/29 96/100/28
f 97/102/28 96/209/28 98/103/27
f 100/105/26 99/104/27 98/103/27
f 100/105/26 101/106/26 102/107/25
f 103/108/25 102/107/25 104/109/24
f 105/110/24 104/109/24 106/111/23
f 107/112/23 106/111/23 108/113/22
f 109/114/22 108/113/22 110/115/21
f 111/116/21 110/115/21 112/117/20
f 121/210/33 134/211/33 119/212/33
f 134/211/33 113/118/33 119/212/33
f 113/118/33 131/213/33 129/214/33
f 129/214/33 127/215/33 114/119/33
f 114/119/33 143/216/33 178/217/33
f 115/120/33 124/218/33 122/219/33
f 114/119/33 178/217/33 115/120/33
f 113/118/33 129/214/33 114/119/33
f 115/120/33 122/219/33 113/118/33
f 122/219/33 119/212/33 113/118/33
f 48/49/34 105/220/34 107/121/34
f 77/122/33 78/221/33 106/123/33
f 123/222/34 125/223/34 147/224/34
f 125/223/34 126/225/34 147/224/34
f 118/127/34 142/226/34 179/227/34
f 126/225/34 118/127/34 149/228/34
f 147/224/34 126/225/34 149/228/34
f 136/229/34 120/230/34 146/231/34
f 120/230/34 123/222/34 144/232/34
f 146/231/34 159/233/34 136/229/34
f 144/232/34 146/231/34 120/230/34
f 118/127/34 179/227/34 128/234/34
f 128/234/34 130/235/34 156/236/34
f 130/235/34 132/237/34 155/238/34
f 132/237/34 133/160/34 141/159/34
f 132/237/34 141/159/34 155/238/34
f 147/224/34 144/232/34 123/222/34
f 130/235/34 155/238/34 156/236/34
f 128/234/34 156/236/34 152/239/34
f 128/234/34 152/239/34 116/125/34
f 117/126/34 149/228/34 118/127/34
f 128/234/34 116/125/34 118/127/34
f 119/129/22 123/133/22 120/130/22
f 122/132/24 125/135/24 123/133/35
f 124/134/36 126/137/36 125/135/24
f 115/136/26 118/162/26 126/137/36
f 127/138/30 130/142/30 128/139/30
f 129/141/32 132/144/32 130/142/37
f 131/143/38 133/146/38 132/144/32
f 113/145/17 135/148/17 133/146/17
f 134/147/20 136/149/20 135/148/39
f 121/131/40 120/130/40 136/149/20
f 48/49/34 50/51/34 103/240/34
f 50/51/34 52/53/34 103/240/34
f 52/53/34 51/52/34 99/241/34
f 51/52/34 56/57/34 99/241/34
f 56/57/34 58/59/34 95/242/34
f 58/59/34 60/61/34 95/242/34
f 60/61/34 59/60/34 91/151/34
f 59/60/34 63/65/34 91/151/34
f 63/65/34 33/34/34 86/243/34
f 33/34/34 36/37/34 86/243/34
f 36/37/34 38/39/34 83/244/34
f 38/39/34 40/41/34 83/244/34
f 40/41/34 42/43/34 111/245/34
f 42/43/34 44/45/34 111/245/34
f 44/45/34 46/47/34 109/246/34
f 46/47/34 107/121/34 109/246/34
f 103/240/34 105/220/34 48/49/34
f 44/45/34 109/246/34 111/245/34
f 100/247/34 103/240/34 52/53/34
f 99/241/34 100/247/34 52/53/34
f 40/41/34 111/245/34 81/248/34
f 40/41/34 81/248/34 83/244/34
f 97/249/34 99/241/34 56/57/34
f 36/37/34 83/244/34 85/250/34
f 95/242/34 97/249/34 56/57/34
f 36/37/34 85/250/34 86/243/34
f 92/251/34 95/242/34 60/61/34
f 91/151/34 92/251/34 60/61/34
f 63/65/34 86/243/34 89/150/34
f 66/252/33 67/253/33 84/254/33
f 67/253/33 68/255/33 84/254/33
f 68/255/33 69/256/33 88/154/33
f 69/256/33 70/152/33 88/154/33
f 70/152/33 71/257/33 93/258/33
f 71/257/33 72/259/33 93/258/33
f 72/259/33 73/260/33 96/261/33
f 73/260/33 74/262/33 96/261/33
f 74/262/33 75/263/33 101/264/33
f 75/263/33 76/265/33 101/264/33
f 76/265/33 77/122/33 102/266/33
f 77/122/33 104/124/33 102/266/33
f 80/267/33 64/268/33 112/269/33
f 64/268/33 66/252/33 112/269/33
f 78/221/33 79/270/33 108/271/33
f 79/270/33 80/267/33 108/271/33
f 108/271/33 106/123/33 78/221/33
f 76/265/33 102/266/33 101/264/33
f 110/272/33 108/271/33 80/267/33
f 112/269/33 110/272/33 80/267/33
f 74/262/33 101/264/33 98/273/33
f 74/262/33 98/273/33 96/261/33
f 82/274/33 112/269/33 66/252/33
f 72/259/33 96/261/33 94/275/33
f 84/254/33 82/274/33 66/252/33
f 72/259/33 94/275/33 93/258/33
f 87/276/33 84/254/33 68/255/33
f 88/154/33 87/276/33 68/255/33
f 70/152/33 93/258/33 90/153/33
f 139/157/34 157/277/34 158/278/34
f 158/278/34 160/279/34 137/155/34
f 137/155/34 145/280/34 148/281/34
f 148/281/34 150/282/34 137/155/34
f 150/282/34 138/156/34 137/155/34
f 138/156/34 151/283/34 153/284/34
f 153/284/34 154/285/34 138/156/34
f 154/285/34 139/157/34 138/156/34
f 139/157/34 158/278/34 137/155/34
f 133/160/34 135/286/34 140/158/34
f 135/286/34 136/229/34 140/158/34
f 136/229/34 159/233/34 140/158/34
f 115/136/24 178/287/24 142/161/24
f 128/139/32 179/288/32 143/163/32
f 13/166/34 15/289/34 17/290/34
f 17/290/34 19/291/34 13/166/34
f 19/291/34 21/292/34 13/166/34
f 21/292/34 23/293/34 29/164/34
f 23/293/34 25/294/34 29/164/34
f 25/294/34 27/295/34 29/164/34
f 29/164/34 31/296/34 6/165/34
f 31/296/34 1/297/34 6/165/34
f 1/297/34 5/298/34 6/165/34
f 6/165/34 8/299/34 13/166/34
f 8/299/34 9/300/34 13/166/34
f 9/300/34 11/301/34 13/166/34
f 13/166/34 21/292/34 29/164/34
f 144/167/30 148/171/30 145/168/30
f 147/170/37 150/302/37 148/171/37
f 149/172/38 138/176/38 150/173/38
f 117/175/17 151/178/17 138/176/17
f 116/177/39 153/180/39 151/178/39
f 152/179/40 154/182/40 153/180/40
f 152/179/22 156/184/22 139/181/22
f 155/183/35 157/186/35 139/181/35
f 141/185/41 158/188/41 157/186/41
f 140/187/26 160/190/26 158/188/26
f 159/189/42 137/191/42 160/190/42
f 159/189/43 146/169/43 145/168/43
f 161/192/44 165/196/44 162/193/45
f 164/195/46 167/198/46 165/196/44
f 166/197/47 169/200/47 167/198/46
f 168/199/34 171/202/34 169/200/47
f 170/201/48 173/204/48 171/202/34
f 172/203/49 175/206/49 173/204/48
f 174/205/50 177/208/50 175/206/49
f 176/207/51 180/303/51 177/208/50
