# Blender v2.80 (sub 75) OBJ File: 'HE_Double_Sloped_Inner_Corner_Block.blend'
# www.blender.org
mtllib HE_Double_Sloped_Inner_Corner_Block_Collider.mtl
o HE_Double_Sloped_Inner_Corner_Block.001
v 0.177665 0.177691 0.500023
v 0.381175 -0.381197 0.500023
v -0.381222 -0.381197 0.500023
v -0.381222 0.381201 0.500023
v 0.177665 0.296492 0.381222
v -0.381222 0.500002 0.381222
v 0.296466 0.177691 0.381222
v 0.177665 0.296492 0.294132
v 0.381175 0.177691 0.296513
v 0.294086 0.296492 0.177712
v 0.381175 0.296492 0.177712
v -0.264802 0.500003 -0.381176
v 0.381175 0.500003 -0.381176
v -0.381222 0.500002 -0.264755
v -0.500023 0.381201 -0.381176
v -0.500023 0.381201 0.381222
v -0.381222 0.381201 -0.499977
v 0.381175 0.381201 -0.499977
v 0.381175 -0.381196 -0.499977
v -0.381222 -0.381196 -0.499977
v -0.500024 -0.381196 -0.381176
v -0.381222 -0.499998 -0.381176
v 0.381175 -0.499998 -0.381176
v 0.499976 -0.381197 -0.381176
v 0.499977 0.381201 -0.381175
v 0.499976 0.177691 0.177712
v 0.499976 -0.381197 0.381222
v 0.381175 -0.499998 0.381222
v -0.381222 -0.499998 0.381222
v -0.500024 -0.381196 0.381222
v 0.228543 0.037969 0.500023
v 0.279420 -0.101753 0.500023
v 0.330298 -0.241475 0.500023
v 0.207365 0.177691 0.470323
v 0.237065 0.177691 0.440623
v 0.266766 0.177691 0.410922
v 0.317643 0.177691 0.360045
v 0.338821 0.177691 0.338868
v 0.359998 0.177691 0.317690
v 0.410875 0.177691 0.266813
v 0.440576 0.177691 0.237113
v 0.470276 0.177691 0.207412
v 0.499976 0.037969 0.228590
v 0.499976 -0.101753 0.279467
v 0.499976 -0.241475 0.330344
v 0.410875 -0.381197 0.470323
v 0.440576 -0.381197 0.440622
v 0.470276 -0.381197 0.410922
vt 0.336004 0.419994
vt 0.289080 0.437081
vt 0.289080 0.373071
vt 0.351312 0.427660
vt 0.353090 0.425882
vt 0.345778 0.415907
vt 0.353090 0.415907
vt 0.363064 0.415907
vt 0.363064 0.368984
vt 0.344547 0.396533
vt 0.340275 0.408264
vt 0.367009 0.378758
vt 0.357035 0.368984
vt 0.357035 0.432994
vt 0.336004 0.429969
vt 0.289080 0.447055
vt 0.338497 0.419994
vt 0.340991 0.419994
vt 0.349923 0.432994
vt 0.339949 0.432994
vt 0.349923 0.425682
vt 0.349534 0.429438
vt 0.353090 0.429969
vt 0.345778 0.429969
vt 0.353090 0.419994
vt 0.353090 0.368984
vt 0.298855 0.368984
vt 0.289080 0.378758
vt 0.289080 0.432994
vt 0.336004 0.425682
vt 0.367009 0.432994
vt 0.279106 0.368984
vt 0.289080 0.359010
vt 0.353090 0.437081
vt 0.298855 0.447055
vt 0.353090 0.447055
vt 0.336004 0.432994
vt 0.279106 0.437081
vt 0.289080 0.373071
vt 0.279106 0.373071
vt 0.289080 0.363097
vt 0.353090 0.363097
vt 0.353090 0.373071
vt 0.363064 0.373071
vt 0.363064 0.437081
vt 0.360571 0.419994
vt 0.363064 0.419994
vt 0.114131 0.326310
vt 0.106610 0.326310
vt 0.090489 0.305905
vt 0.355583 0.373071
vt 0.353090 0.373071
vt 0.353090 0.363097
vt 0.353090 0.432994
vt 0.363064 0.368984
vt 0.363064 0.432994
vt 0.345978 0.432994
vt 0.347756 0.431216
vt 0.355583 0.419994
vt 0.358077 0.419994
vt 0.289080 0.432994
vt 0.353090 0.368984
vt 0.289080 0.368984
vt 0.279106 0.432994
vt 0.279106 0.368984
vt 0.279106 0.373071
vt 0.289080 0.363097
vt 0.279106 0.437081
vt 0.293026 0.432994
vt 0.293026 0.368984
vt 0.343484 0.419994
vt 0.345978 0.419994
vt 0.348818 0.384802
vt 0.304756 0.428722
vt 0.293025 0.432994
vt 0.293025 0.368984
vt 0.289080 0.437081
vt 0.159225 0.305905
vt 0.165667 0.326310
vt 0.158146 0.326310
vt 0.274130 0.396270
vt 0.278477 0.396270
vt 0.266061 0.408062
vt 0.262028 0.420155
vt 0.291174 0.408119
vt 0.294974 0.420155
vt 0.257950 0.432463
vt 0.295057 0.420308
vt 0.298894 0.432463
vt 0.150625 0.326310
vt 0.143104 0.326310
vt 0.135582 0.326310
vt 0.130220 0.326310
vt 0.124857 0.326310
vt 0.119494 0.326310
vt 0.084046 0.326310
vt 0.091568 0.326310
vt 0.099089 0.326310
vt 0.363064 0.373071
vt 0.360571 0.373071
vt 0.358077 0.373071
vt 0.357035 0.368984
vt 0.339949 0.415907
vt 0.328218 0.420179
vt 0.316487 0.424450
vt 0.287170 0.396270
vt 0.290893 0.408062
vt 0.282824 0.396270
vt 0.269784 0.396270
vt 0.265828 0.408119
vt 0.261787 0.420308
vn 0.0000 -0.0000 1.0000
vn 0.4471 0.7748 0.4471
vn 0.1493 0.9033 0.4021
vn 0.6555 0.6555 0.3751
vn 0.6805 0.5181 0.5182
vn 0.6848 0.6848 0.2494
vn -0.7071 0.7071 0.0000
vn 0.2493 0.6848 0.6848
vn 0.3751 0.6555 0.6555
vn 0.6416 0.4203 0.6416
vn 0.5374 0.8434 0.0000
vn 0.7071 0.7071 0.0000
vn 0.4021 0.9033 0.1493
vn 0.0000 0.8434 0.5374
vn 0.0000 0.7071 0.7071
vn 0.0000 0.9396 0.3422
vn 0.1168 0.9650 0.2346
vn 0.2346 0.9650 0.1168
vn 0.3422 0.9396 0.0000
vn -0.4110 0.8137 -0.4110
vn 0.0000 0.7071 -0.7071
vn -0.7071 0.0000 -0.7071
vn -0.5773 -0.5773 -0.5774
vn 0.0000 -0.7071 -0.7071
vn 0.5773 -0.5773 -0.5774
vn 0.7071 0.0000 -0.7071
vn 0.5774 0.5773 -0.5774
vn 0.6661 0.3355 0.6661
vn 0.6848 0.2493 0.6848
vn 0.5774 -0.5773 0.5773
vn 0.5774 -0.5773 0.5774
vn 0.5774 -0.5774 0.5773
vn 0.7071 -0.7071 -0.0000
vn 0.5181 0.5181 0.6805
vn 0.0000 -1.0000 -0.0000
vn -0.7071 -0.7071 -0.0000
vn -0.5774 -0.5774 0.5774
vn 0.0000 -0.7071 0.7071
vn -0.7071 0.0000 0.7071
vn -0.5774 0.5773 0.5774
vn -1.0000 0.0000 0.0000
vn 1.0000 -0.0000 0.0000
vn 0.0000 0.0000 -1.0000
vn 0.5773 -0.5774 0.5774
usemtl _auto_
s 1
f 1/1/1 4/2/1 3/3/1
f 39/4/2 9/5/2 10/6/3
f 11/7/4 26/8/5 25/9/6
f 32/10/1 31/11/1 3/3/1
f 14/12/7 15/13/7 16/14/7
f 4/2/8 5/15/9 6/16/8
f 5/15/9 34/17/10 35/18/10
f 5/19/11 7/20/12 8/21/13
f 38/22/2 39/4/2 10/6/3
f 11/23/14 10/24/3 9/25/15
f 10/6/3 13/26/16 12/27/17
f 14/28/18 10/6/3 12/27/17
f 6/29/19 8/30/13 14/28/18
f 14/12/7 16/14/7 6/31/7
f 15/32/20 12/27/20 17/33/20
f 18/34/21 12/35/21 13/36/21
f 6/29/19 5/37/11 8/30/13
f 10/6/3 8/30/13 38/22/2
f 31/11/1 1/1/1 3/3/1
f 15/38/22 20/39/22 21/40/22
f 20/39/23 22/41/23 21/40/23
f 23/42/24 20/39/24 19/43/24
f 23/42/25 19/43/25 24/44/25
f 19/43/26 25/45/26 24/44/26
f 25/45/27 18/34/27 13/36/27
f 11/7/4 25/9/6 13/26/6
f 42/46/10 26/47/5 11/23/4
f 7/48/28 36/49/10 31/50/29
f 46/51/30 2/52/31 28/53/32
f 28/54/33 24/55/33 27/56/33
f 4/2/8 1/1/34 5/15/9
f 8/30/13 7/57/2 37/58/2
f 40/59/10 41/60/10 11/23/4
f 37/58/2 38/22/2 8/30/13
f 41/60/10 42/46/10 11/23/4
f 14/28/18 8/30/13 10/6/3
f 29/61/35 23/62/35 28/54/35
f 22/63/36 30/64/36 21/65/36
f 30/66/37 29/67/37 3/3/37
f 29/67/38 2/52/38 3/3/38
f 4/2/39 30/66/39 3/3/39
f 16/68/40 4/2/40 6/16/40
f 5/15/9 1/1/34 34/17/10
f 30/69/41 15/13/41 21/70/41
f 11/23/4 9/25/28 40/59/10
f 36/71/10 7/72/28 5/15/9
f 3/3/1 2/52/1 33/73/1
f 15/32/20 14/28/20 12/27/20
f 45/74/42 27/75/42 24/76/42
f 18/34/21 17/77/21 12/35/21
f 15/38/22 17/77/22 20/39/22
f 35/18/10 36/71/10 5/15/9
f 19/43/26 18/34/26 25/45/26
f 3/3/1 33/73/1 32/10/1
f 23/42/24 22/41/24 20/39/24
f 18/34/43 20/39/43 17/77/43
f 43/78/29 26/79/5 42/80/10
f 46/81/29 47/82/29 33/83/29
f 32/84/29 45/85/29 44/86/29
f 31/87/29 44/88/29 43/89/29
f 10/6/3 11/7/14 13/26/16
f 42/80/10 41/90/10 43/78/29
f 41/90/10 40/91/10 43/78/29
f 9/92/28 39/93/29 43/78/29
f 39/93/29 38/94/29 43/78/29
f 38/94/29 37/95/29 31/50/29
f 43/78/29 38/94/29 31/50/29
f 43/78/29 40/91/10 9/92/28
f 1/96/34 31/50/29 34/97/10
f 35/98/10 31/50/29 36/49/10
f 35/98/10 34/97/10 31/50/29
f 31/50/29 37/95/29 7/48/28
f 28/53/32 27/99/44 48/100/44
f 48/100/44 47/101/32 28/53/32
f 47/101/32 46/51/30 28/53/32
f 28/54/33 23/62/33 24/55/33
f 29/61/35 22/63/35 23/62/35
f 22/63/36 29/61/36 30/64/36
f 29/67/38 28/53/38 2/52/38
f 4/2/39 16/68/39 30/66/39
f 30/69/41 16/14/41 15/13/41
f 25/102/42 26/103/42 24/76/42
f 26/103/42 43/104/42 24/76/42
f 43/104/42 44/105/42 24/76/42
f 44/105/42 45/74/42 24/76/42
f 18/34/43 19/43/43 20/39/43
f 27/106/29 45/107/29 48/108/29
f 45/107/29 33/83/29 47/82/29
f 48/108/29 45/107/29 47/82/29
f 33/83/29 2/109/29 46/81/29
f 32/84/29 33/110/29 45/85/29
f 31/87/29 32/111/29 44/88/29
