# Blender v2.82 (sub 7) OBJ File: 'GT_Gaia_Omniwheel.blend'
# www.blender.org
mtllib GT_Gaia_Omniwheel_Collider.mtl
o GT_Gaia_Omniwheel
v 1.877417 3.846460 0.091479
v 1.500000 3.846460 0.041792
v 2.229106 3.846460 0.237155
v 2.762846 3.846460 0.770896
v 2.958213 3.846460 1.500000
v 2.762846 3.846460 2.229106
v 2.229106 3.846460 2.762845
v 1.500000 3.846460 2.958213
v 0.770897 3.846460 2.762845
v 0.237155 3.846460 2.229106
v 0.041793 3.846460 1.500000
v 0.091480 3.846460 1.122582
v 0.468892 3.846460 0.468891
v 0.770897 3.846460 0.237155
v 1.122594 3.846460 0.091479
v 1.136978 3.820900 0.145188
v 1.863022 3.820900 0.145188
v 2.714694 3.820900 0.798697
v 2.902602 3.820900 1.500000
v 2.714694 3.820900 2.201301
v 2.201301 3.820899 2.714694
v 1.500000 3.820899 2.902602
v 0.798699 3.820899 2.714694
v 0.285309 3.820900 2.201301
v 0.145190 3.820900 1.136978
v 0.508209 3.820900 0.508209
v 2.414060 4.489952 -0.083203
v 2.431220 4.462500 -0.112921
v 1.982040 4.462500 -0.298979
v 2.816940 4.462500 0.183056
v 3.083200 4.489952 0.585937
v 3.112920 4.462500 0.568780
v 3.265830 4.489952 1.026850
v 3.298980 4.462500 1.017960
v 3.328130 4.489952 1.500000
v 3.362440 4.462500 1.500000
v 3.298980 4.462500 1.982030
v 3.083200 4.489952 2.414060
v 3.112920 4.462500 2.431220
v 2.792680 4.489952 2.792680
v 2.816940 4.462500 2.816940
v 2.414060 4.489952 3.083200
v 2.431220 4.462500 3.112920
v 1.973150 4.489952 3.265830
v 1.982040 4.462500 3.298980
v 1.500000 4.462500 3.362440
v 1.026850 4.489952 3.265830
v 1.017970 4.462500 3.298980
v 0.568780 4.462500 3.112920
v 0.207321 4.489952 2.792680
v 0.183057 4.462500 2.816940
v -0.083202 4.489952 2.414060
v -0.112920 4.462500 2.431220
v -0.265833 4.489952 1.973150
v -0.298978 4.462500 1.982030
v -0.328125 4.489952 1.500000
v -0.362440 4.462500 1.500000
v -0.298978 4.462500 1.017960
v -0.083202 4.489952 0.585937
v -0.112920 4.462500 0.568780
v 0.183057 4.462500 0.183056
v 0.585938 4.489952 -0.083203
v 0.568780 4.462500 -0.112921
v 1.017970 4.462500 -0.298979
v 1.500000 4.489952 -0.328125
v 1.500000 4.462500 -0.362440
v 1.985290 4.425000 -0.311111
v 1.500000 4.425000 -0.375000
v 2.437500 4.425000 -0.123798
v 2.825830 4.425000 0.174175
v 3.123800 4.425000 0.562500
v 3.311110 4.425000 1.014710
v 3.375000 4.425000 1.500000
v 3.311110 4.425000 1.985290
v 3.123800 4.425000 2.437500
v 2.825830 4.424999 2.825820
v 2.437500 4.424999 3.123800
v 1.985290 4.424999 3.311110
v 1.500000 4.424999 3.375000
v 1.014710 4.424999 3.311110
v 0.562500 4.424999 3.123800
v 0.174175 4.424999 2.825820
v -0.123797 4.425000 2.437500
v -0.311111 4.425000 1.985290
v -0.375000 4.425000 1.500000
v -0.311111 4.425000 1.014710
v -0.123797 4.425000 0.562500
v 0.174175 4.425000 0.174175
v 0.562500 4.425000 -0.123798
v 1.014710 4.425000 -0.311111
v 1.500000 4.275000 -0.375000
v 1.014710 4.275000 -0.311111
v 1.985290 4.275000 -0.311111
v 2.437500 4.275000 -0.123798
v 2.825830 4.275000 0.174175
v 3.123800 4.275000 0.562500
v 3.311110 4.275000 1.014710
v 3.375000 4.275000 1.500000
v 3.311110 4.275000 1.985290
v 3.123800 4.275000 2.437500
v 2.825830 4.275000 2.825820
v 2.437500 4.275000 3.123800
v 1.985290 4.275000 3.311110
v 1.500000 4.275000 3.375000
v 1.014710 4.275000 3.311110
v 0.562500 4.275000 3.123800
v 0.174175 4.275000 2.825820
v -0.123797 4.275000 2.437500
v -0.311111 4.275000 1.985290
v -0.375000 4.275000 1.500000
v -0.311111 4.275000 1.014710
v -0.123797 4.275000 0.562500
v 0.174175 4.275000 0.174175
v 0.562500 4.275000 -0.123798
v 1.017970 4.237500 -0.298979
v 0.568780 4.237500 -0.112921
v 1.500000 4.237500 -0.362440
v 1.982040 4.237500 -0.298979
v 2.431220 4.237500 -0.112921
v 2.816940 4.237500 0.183056
v 3.112920 4.237500 0.568780
v 3.298980 4.237500 1.017960
v 3.362440 4.237500 1.500000
v 3.298980 4.237500 1.982030
v 3.112920 4.237500 2.431220
v 2.816940 4.237499 2.816940
v 2.431220 4.237499 3.112920
v 1.982040 4.237499 3.298980
v 1.500000 4.237499 3.362440
v 1.017970 4.237499 3.298980
v 0.568780 4.237499 3.112920
v 0.183057 4.237499 2.816940
v -0.112920 4.237500 2.431220
v -0.298978 4.237500 1.982030
v -0.362440 4.237500 1.500000
v -0.298978 4.237500 1.017960
v -0.112920 4.237500 0.568780
v 0.183057 4.237500 0.183056
v 0.243478 4.122144 0.243478
v 0.611505 4.122144 -0.038919
v -0.038918 4.122144 0.611505
v -0.216440 4.122144 1.040080
v -0.276990 4.122144 1.500000
v -0.216440 4.122144 1.959920
v -0.038918 4.122144 2.388490
v 0.243478 4.122144 2.756520
v 0.611505 4.122144 3.038920
v 1.040080 4.122144 3.216440
v 1.500000 4.122144 3.276990
v 1.959920 4.122144 3.216440
v 2.388500 4.122144 3.038920
v 2.756520 4.122144 2.756520
v 3.038920 4.122144 2.388490
v 3.216440 4.122144 1.959920
v 3.276990 4.122144 1.500000
v 3.216440 4.122144 1.040080
v 3.038920 4.122144 0.611505
v 2.756520 4.122144 0.243478
v 2.388500 4.122144 -0.038919
v 1.959920 4.122144 -0.216441
v 1.500000 4.122144 -0.276991
v 1.040080 4.122144 -0.216441
v 1.500000 4.500000 -0.281250
v 3.220560 4.500000 1.038980
v 2.390630 4.500000 3.042610
v 1.038980 4.500000 3.220560
v -0.220555 4.500000 1.961020
v -0.042607 4.500000 0.609375
vt 0.379995 0.868037
vt 0.378156 0.867877
vt 0.378156 0.891673
vt 0.379995 0.891673
vt 0.283681 0.753803
vt 0.295486 0.753803
vt 0.323771 0.971532
vt 0.300135 0.971532
vt 0.737132 0.848525
vt 0.725830 0.821238
vt 0.379222 0.846012
vt 0.388346 0.868037
vt 0.277529 0.976038
vt 0.215770 0.914278
vt 0.213550 0.914873
vt 0.222505 0.936493
vt 0.236750 0.955058
vt 0.276935 0.978258
vt 0.737132 0.907089
vt 0.000000 0.000000
vt 0.798548 0.421287
vt 0.000000 0.000000
vt 0.740987 0.877807
vt 0.869985 0.410331
vt 0.869985 0.421287
vt 0.798548 0.410331
vt 0.834264 0.421287
vt 0.869982 0.421287
vt 0.547849 0.797807
vt 0.571280 0.779827
vt 0.345796 0.970760
vt 0.684418 0.975788
vt 0.000000 0.000000
vt 0.364709 0.956247
vt 0.834264 0.421287
vt 0.000000 0.000000
vt 0.684418 0.779827
vt 0.707850 0.797807
vt 0.762830 0.421287
vt 0.834266 0.421287
vt 0.518566 0.848525
vt 0.529869 0.821238
vt 0.762827 0.421287
vt 0.529869 0.934376
vt 0.221047 0.937334
vt 0.211924 0.915309
vt 0.000000 0.000000
vt 0.283681 0.732555
vt 0.283681 0.753803
vt 0.307291 0.753803
vt 0.307291 0.732555
vt 0.657132 0.768524
vt 0.627849 0.764669
vt 0.300135 0.800350
vt 0.323771 0.803462
vt 0.834264 0.410331
vt 0.762827 0.410331
vt 0.363520 0.955058
vt 0.379995 0.956247
vt 0.379995 0.937334
vt 0.377765 0.936493
vt 0.300135 0.804331
vt 0.384500 0.869067
vt 0.386720 0.868472
vt 0.377765 0.846853
vt 0.344955 0.814042
vt 0.300135 0.802033
vt 0.343806 0.967313
vt 0.224495 0.848002
vt 0.300135 0.800350
vt 0.276499 0.971532
vt 0.254474 0.812585
vt 0.255315 0.814042
vt 0.379995 0.956247
vt 0.379995 0.937334
vt 0.307291 0.753803
vt 0.235125 0.969693
vt 0.364709 0.827098
vt 0.365145 0.962338
vt 0.370801 0.845704
vt 0.368962 0.846012
vt 0.598567 0.768524
vt 0.276499 0.803462
vt 0.000000 0.000000
vt 0.834264 0.410331
vt 0.869984 0.410331
vt 0.798548 0.410331
vt 0.834264 0.410331
vt 0.834266 0.410331
vt 0.869982 0.410331
vt 0.798546 0.410331
vt 0.834266 0.410331
vt 0.000000 0.000000
vt 0.000000 0.000000
vt 0.370801 0.891673
vt 0.368962 0.891673
vt 0.368962 0.868037
vt 0.370801 0.867877
vt 0.834264 0.421287
vt 0.389775 0.891673
vt 0.344955 0.969303
vt 0.323335 0.978258
vt 0.000000 0.000000
vt 0.345796 0.812585
vt 0.000000 0.000000
vt 0.627849 0.990945
vt 0.000000 0.000000
vt 0.323771 0.979883
vt 0.345796 0.971532
vt 0.346104 0.969693
vt 0.323931 0.969693
vt 0.323771 0.971532
vt 0.834266 0.421287
vt 0.000000 0.000000
vt 0.798548 0.421287
vt 0.000000 0.000000
vt 0.323931 0.962338
vt 0.300135 0.962338
vt 0.283681 0.753803
vt 0.283681 0.732555
vt 0.295486 0.732555
vt 0.295486 0.753803
vt 0.295486 0.753803
vt 0.295486 0.732555
vt 0.000000 0.000000
vt 0.762828 0.421287
vt 0.798545 0.421287
vt 0.000000 0.000000
vt 0.388346 0.915309
vt 0.391457 0.891673
vt 0.379222 0.937334
vt 0.300135 0.982995
vt 0.276499 0.979883
vt 0.598567 0.987090
vt 0.211924 0.868037
vt 0.000000 0.000000
vt 0.295486 0.732555
vt 0.307291 0.732555
vt 0.307291 0.753803
vt 0.295486 0.753803
vt 0.834264 0.421287
vt 0.762828 0.421287
vt 0.221047 0.937334
vt 0.235560 0.956247
vt 0.254166 0.969693
vt 0.235125 0.969693
vt 0.235560 0.971532
vt 0.254474 0.971532
vt 0.378156 0.915468
vt 0.378156 0.937642
vt 0.379995 0.915309
vt 0.276499 0.979883
vt 0.235560 0.971532
vt 0.254474 0.970760
vt 0.370801 0.915468
vt 0.368962 0.915309
vt 0.368962 0.937334
vt 0.370801 0.937642
vt 0.378156 0.937642
vt 0.378156 0.915468
vt 0.379995 0.915309
vt 0.295486 0.732555
vt 0.307291 0.732555
vt 0.307291 0.753803
vt 0.295486 0.753803
vt 0.378156 0.891673
vt 0.379995 0.891673
vt 0.254474 0.971532
vt 0.254166 0.969693
vt 0.276339 0.969693
vt 0.276499 0.971532
vt 0.300135 0.969693
vt 0.319095 0.732555
vt 0.319095 0.753803
vt 0.368962 0.937334
vt 0.368962 0.915309
vt 0.370801 0.915468
vt 0.370801 0.937642
vt 0.295486 0.732555
vt 0.307290 0.732555
vt 0.307290 0.753803
vt 0.283681 0.732555
vt 0.283681 0.753803
vt 0.319095 0.732555
vt 0.319095 0.753803
vt 0.283681 0.732555
vt 0.283681 0.753803
vt 0.283681 0.732555
vt 0.276499 0.960499
vt 0.300135 0.960499
vt 0.300135 0.962338
vt 0.276339 0.962338
vt 0.276339 0.962338
vt 0.276499 0.960499
vt 0.254474 0.960499
vt 0.254166 0.962338
vt 0.319095 0.732555
vt 0.319095 0.753803
vt 0.283681 0.732555
vt 0.295486 0.732555
vt 0.295486 0.753803
vt 0.283681 0.753803
vt 0.346104 0.962338
vt 0.345796 0.960499
vt 0.364709 0.960499
vt 0.365145 0.962338
vt 0.235560 0.960499
vt 0.235125 0.962338
vt 0.300135 0.960499
vt 0.307291 0.732555
vt 0.307291 0.753803
vt 0.254474 0.960499
vt 0.254166 0.962338
vt 0.364709 0.960499
vt 0.345796 0.960499
vt 0.346104 0.962338
vt 0.346104 0.969693
vt 0.365145 0.969693
vt 0.364709 0.971532
vt 0.345796 0.971532
vt 0.370801 0.891673
vt 0.368962 0.891673
vt 0.319095 0.732555
vt 0.319095 0.753803
vt 0.276339 0.969693
vt 0.235560 0.960499
vt 0.235125 0.962338
vt 0.283681 0.753803
vt 0.283681 0.732555
vt 0.379995 0.846012
vt 0.379995 0.868037
vt 0.378156 0.845704
vt 0.379995 0.846012
vt 0.379995 0.827098
vt 0.378156 0.826663
vt 0.379222 0.937334
vt 0.370801 0.845704
vt 0.370801 0.826663
vt 0.235560 0.827098
vt 0.368962 0.846012
vt 0.388346 0.868037
vt 0.379222 0.846012
vt 0.222505 0.846853
vt 0.210495 0.891673
vt 0.307291 0.732555
vt 0.707850 0.957808
vt 0.364709 0.971532
vt 0.365145 0.969693
vt 0.000000 0.000000
vt 0.571280 0.975788
vt 0.798548 0.421287
vt 0.370801 0.867877
vt 0.368962 0.868037
vt 0.000000 0.000000
vt 0.514711 0.877807
vt 0.235560 0.956247
vt 0.323771 0.960499
vt 0.323931 0.962338
vt 0.208813 0.891673
vt 0.211924 0.915309
vt 0.307291 0.753803
vt 0.307291 0.732555
vt 0.388346 0.915309
vt 0.000000 0.000000
vt 0.364709 0.827098
vt 0.345796 0.812585
vt 0.000000 0.000000
vt 0.221047 0.846012
vt 0.000000 0.000000
vt 0.323771 0.979883
vt 0.345796 0.970760
vt 0.364709 0.956247
vt 0.235560 0.827098
vt 0.221047 0.846012
vt 0.379995 0.827098
vt 0.307291 0.732555
vt 0.307291 0.753803
vt 0.378156 0.956683
vt 0.211924 0.868037
vt 0.295486 0.732555
vt 0.295486 0.753803
vt 0.300135 0.982995
vt 0.254474 0.812585
vt 0.000000 0.000000
vt 0.518566 0.907089
vt 0.762830 0.410331
vt 0.657132 0.987090
vt 0.762827 0.421287
vt 0.869984 0.421287
vt 0.254474 0.970760
vt 0.000000 0.000000
vt 0.300135 0.971532
vt 0.547849 0.957808
vt 0.000000 0.000000
vt 0.000000 0.000000
vt 0.725830 0.934376
vt 0.000000 0.000000
vt 0.295486 0.732555
vt 0.295486 0.753803
vt 0.283681 0.753803
vt 0.283681 0.732555
vt 0.208813 0.891673
vt 0.762827 0.410331
vt 0.300135 0.969693
vn -0.9159 0.3176 -0.2454
vn -0.9537 0.1588 -0.2555
vn -0.9873 0.1588 0.0000
vn -0.7859 0.6181 0.0158
vn 0.0000 0.1588 0.9873
vn 0.2555 0.1588 0.9537
vn 0.2187 0.6181 0.7550
vn 0.0000 0.3176 0.9482
vn 0.7027 -0.6861 -0.1883
vn 0.6250 -0.6922 -0.3608
vn 0.7704 -0.4569 -0.4448
vn 0.8592 -0.4569 -0.2302
vn -0.0092 0.9991 0.0423
vn -0.0423 0.9991 0.0092
vn -0.3508 0.9319 0.0917
vn -0.3309 0.9277 0.1730
vn -0.2150 0.9504 0.2248
vn -0.0624 0.9688 0.2400
vn 0.7027 -0.6861 0.1883
vn 0.6250 -0.6922 0.3608
vn 0.5328 -0.7883 0.3076
vn 0.6153 -0.7883 0.0000
vn 0.7217 -0.6922 0.0000
vn 0.4177 -0.9086 -0.0000
vn 0.3617 -0.9086 0.2088
vn -0.2871 -0.7612 -0.5814
vn -0.4781 -0.7723 -0.4183
vn -0.5289 -0.6837 -0.5028
vn -0.3501 -0.6780 -0.6463
vn 0.4448 -0.4569 0.7704
vn 0.3608 -0.6922 0.6250
vn 0.5144 -0.6861 0.5144
vn 0.6290 -0.4569 0.6290
vn 0.5328 -0.7883 -0.3076
vn 0.3152 -0.7783 -0.5431
vn 0.3622 -0.6866 -0.6305
vn 0.5144 -0.6861 -0.5144
vn -0.6013 -0.7723 -0.2049
vn -0.6999 -0.6837 -0.2066
vn -0.6300 -0.6861 -0.3638
vn -0.6250 -0.6922 0.3608
vn -0.7704 -0.4569 0.4448
vn -0.8592 -0.4569 0.2302
vn -0.7027 -0.6861 0.1883
vn -0.9873 -0.1588 0.0000
vn -0.9537 -0.1588 -0.2555
vn 0.1910 -0.6747 -0.7130
vn -0.0000 -0.6809 -0.7324
vn -0.0000 -0.4569 -0.8895
vn 0.2302 -0.4569 -0.8592
vn 0.2805 -0.9472 -0.1553
vn 0.2847 -0.9462 -0.1540
vn 0.2467 0.9310 0.2690
vn 0.5694 0.5644 0.5977
vn 0.6850 0.6154 0.3900
vn 0.2669 0.9530 0.1436
vn -0.0018 0.9996 -0.0284
vn 0.0203 0.9998 -0.0059
vn 0.3330 0.9387 -0.0895
vn 0.2620 0.9547 -0.1413
vn 0.1200 0.9717 -0.2035
vn -0.0015 0.9714 -0.2373
vn 0.0158 0.9993 0.0343
vn -0.0394 0.9990 -0.0214
vn -0.0000 0.9263 -0.3769
vn -0.1005 0.9216 -0.3750
vn -0.1884 0.9263 -0.3264
vn -0.1228 0.9694 -0.2126
vn -0.5540 0.6154 0.5607
vn -0.7247 0.5644 0.3953
vn -0.8550 0.1588 0.4937
vn -0.6981 0.1588 0.6981
vn 0.6290 -0.4569 -0.6290
vn 0.6981 -0.1588 -0.6981
vn 0.8550 -0.1588 -0.4936
vn -0.1910 -0.6747 -0.7130
vn -0.2302 -0.4569 -0.8592
vn 0.0000 -1.0000 -0.0000
vn 0.9873 -0.1588 0.0000
vn 0.8895 -0.4568 0.0000
vn 0.9537 -0.1588 -0.2555
vn 0.2088 -0.9086 0.3617
vn 0.2968 0.9549 -0.0090
vn 0.1760 0.9336 0.3120
vn 0.0928 0.9466 0.3086
vn 0.4448 -0.4569 -0.7704
vn -0.0000 -0.4568 0.8895
vn -0.0000 -0.6922 0.7217
vn 0.1883 -0.6861 0.7027
vn 0.2302 -0.4569 0.8592
vn 0.4741 0.3176 -0.8212
vn 0.4937 0.1588 -0.8550
vn 0.2555 0.1588 -0.9537
vn 0.2454 0.3176 -0.9159
vn 0.1693 -0.7564 -0.6318
vn -0.0000 -0.7675 -0.6411
vn 0.2555 -0.1588 -0.9537
vn -0.0000 -0.1588 -0.9873
vn -0.6981 -0.1588 0.6981
vn -0.4937 -0.1588 0.8550
vn -0.4937 0.1588 0.8550
vn -0.8550 0.1588 -0.4937
vn -0.8550 -0.1588 -0.4937
vn -0.1693 -0.7564 -0.6318
vn 0.3750 0.9216 0.1005
vn 0.7859 0.6181 -0.0158
vn -0.2302 -0.4569 0.8592
vn -0.1883 -0.6861 0.7027
vn -0.8592 -0.4569 -0.2302
vn -0.7704 -0.4569 -0.4448
vn 0.4937 -0.1588 -0.8550
vn -0.2747 -0.9472 0.1653
vn -0.2757 -0.9462 0.1696
vn -0.2419 -0.9698 0.0318
vn -0.3074 -0.9476 -0.0872
vn -0.3082 -0.9472 -0.0885
vn -0.4937 0.1588 -0.8550
vn -0.6981 0.1588 -0.6981
vn -0.6705 0.3176 -0.6705
vn -0.4741 0.3176 -0.8212
vn -0.9537 0.1588 0.2555
vn -0.8004 0.5598 0.2145
vn -0.0975 0.9263 0.3640
vn -0.1941 0.9216 0.3362
vn -0.9537 -0.1588 0.2555
vn -0.8550 -0.1588 0.4937
vn 0.8550 0.1588 0.4937
vn 0.9537 0.1588 0.2555
vn 0.9159 0.3176 0.2454
vn 0.8550 0.1588 -0.4936
vn 0.9537 0.1588 -0.2555
vn 0.9873 0.1588 0.0000
vn -0.4741 0.3176 0.8212
vn -0.2555 0.1588 0.9537
vn -0.2454 0.3176 0.9159
vn 0.0000 0.1588 -0.9873
vn 0.7703 -0.4569 0.4448
vn 0.8592 -0.4569 0.2302
vn 0.9537 -0.1588 0.2555
vn 0.8550 -0.1588 0.4937
vn 0.2555 -0.1588 0.9537
vn 0.4937 -0.1588 0.8550
vn 0.4937 0.1588 0.8550
vn 0.6981 0.1588 -0.6981
vn -0.0000 -0.1588 0.9873
vn -0.2555 -0.1588 0.9537
vn -0.2555 -0.1588 -0.9537
vn -0.4448 -0.4569 -0.7704
vn -0.4937 -0.1588 -0.8550
vn 0.6981 -0.1588 0.6981
vn 0.6981 0.1588 0.6981
vn -0.6290 -0.4569 -0.6290
vn -0.6981 -0.1588 -0.6981
vn -0.4448 -0.4569 0.7704
vn 0.4143 0.5598 0.7176
vn -0.8895 -0.4569 0.0000
vn -0.2555 0.1588 -0.9537
vn -0.2454 0.3176 -0.9159
vn -0.6290 -0.4569 0.6290
vn 0.6885 0.6182 -0.3793
vn 0.8004 0.5598 -0.2145
vn -0.8212 0.3176 -0.4741
vn -0.2163 0.9685 -0.1234
vn -0.3221 0.9466 0.0097
vn 0.3076 -0.7883 0.5328
vn 0.6705 0.3177 -0.6705
vn -0.0000 -0.7883 0.6153
vn -0.3608 -0.6922 0.6250
vn -0.3076 -0.7883 0.5328
vn -0.7295 -0.6837 0.0184
vn 0.2745 0.9216 -0.2745
vn 0.1884 0.9263 -0.3264
vn -0.0772 -0.9545 -0.2880
vn 0.0000 -0.9515 -0.3077
vn 0.0746 -0.9649 -0.2518
vn 0.0769 -0.9652 -0.2500
vn -0.2745 0.9216 -0.2745
vn -0.3264 0.9263 -0.1884
vn -0.3750 0.9216 -0.1005
vn 0.0000 0.9216 0.3882
vn -0.6339 -0.7723 0.0423
vn -0.5328 -0.7883 0.3076
vn -0.2647 -0.9334 -0.2423
vn -0.2601 -0.9344 -0.2434
vn -0.1539 -0.9515 -0.2665
vn -0.0000 -0.9086 0.4177
vn -0.2088 -0.9086 0.3617
vn 0.1485 -0.9698 -0.1936
vn 0.0000 0.3176 -0.9482
vn -0.5144 -0.6861 0.5144
vn 0.1005 0.9216 -0.3750
usemtl Color_M02
s 1
f 58/1/1 86/2/2 85/3/3 57/4/4
f 79/5/5 78/6/6 45/7/7 46/8/8
f 156/9/9 157/10/10 121/11/11 122/12/12
f 166/13/13 167/14/14 54/15/15 52/16/16 50/17/17 47/18/18
f 154/19/19 153/20/20 6/21/21 5/22/22 155/23/23
f 19/24/24 5/25/24 6/21/25 20/26/25
f 14/27/26 13/28/27 139/29/28 140/30/29
f 127/31/30 151/32/31 152/33/32 126/34/33
f 4/35/34 3/36/35 159/37/36 158/38/37 157/10/10
f 13/39/27 12/40/38 142/41/39 141/42/40 139/29/28
f 5/43/22 4/35/34 157/10/10 156/9/9 155/23/23
f 145/44/41 133/45/42 134/46/43 144/47/44
f 110/48/45 85/49/3 86/50/2 111/51/46
f 160/52/47 161/53/48 117/54/49 118/55/50
f 18/56/51 4/35/52 5/25/24 19/57/24
f 40/58/53 41/59/54 39/60/55 38/61/56
f 163/62/57 164/63/58 33/64/59 31/65/60 27/66/61 65/67/62
f 166/13/13 165/68/63 164/63/58 163/62/57 168/69/64 167/14/14
f 65/67/62 66/70/65 64/71/66 63/72/67 62/73/68
f 51/74/69 53/75/70 83/76/71 82/77/72
f 120/78/73 95/79/74 96/80/75 121/81/11
f 162/82/76 115/83/77 117/84/49 161/53/48
f 21/85/78 22/86/78 23/87/78 24/88/78 25/89/78 26/90/78 16/91/78 17/92/78 18/56/78 19/93/78 20/94/78
f 98/95/79 123/96/80 122/97/12 97/98/81
f 21/85/82 20/26/25 6/21/25 7/99/82
f 40/58/53 38/61/56 35/100/83 33/64/59 164/63/58 165/68/63 42/101/84
f 166/13/13 47/18/18 44/102/85 42/101/84 165/68/63
f 159/37/36 160/103/47 118/55/50 119/104/86
f 129/105/87 149/106/88 150/107/89 128/108/90
f 28/109/91 69/110/92 67/111/93 29/112/94
f 1/113/95 2/114/96 161/53/48 160/52/47 159/37/36 3/115/35
f 158/38/37 120/78/73 121/116/11 157/10/10
f 93/117/97 118/55/50 117/54/49 91/118/98
f 158/38/37 159/37/36 119/104/86 120/78/73
f 82/119/72 107/120/99 106/121/100 81/122/101
f 87/123/102 112/124/103 111/51/46 86/50/2
f 162/125/76 161/53/48 2/126/96 15/127/104 14/128/26 140/30/29
f 37/129/105 36/130/106 35/100/83 38/61/56 39/131/55
f 129/132/87 130/133/107 148/134/108 149/106/88
f 142/41/39 136/135/109 137/136/110 141/42/40
f 94/137/111 93/138/97 67/139/93 69/140/92
f 24/88/112 10/141/113 11/142/114 12/40/115 25/89/116
f 52/16/16 53/143/70 51/144/69 50/17/17
f 89/145/117 88/146/118 61/147/119 63/148/120
f 84/149/121 83/150/71 53/75/70 55/151/122
f 48/152/123 47/18/18 50/17/17 51/153/69 49/154/124
f 109/155/125 134/156/43 133/157/42 108/158/126
f 39/60/55 75/159/127 74/160/128 37/161/129
f 85/3/3 84/149/121 55/151/122 57/4/4
f 97/162/81 96/163/75 71/164/130 72/165/131
f 37/161/129 74/160/128 73/166/132 36/167/106
f 49/168/133 81/169/101 80/170/134 48/171/135
f 48/171/135 80/170/134 79/172/5 46/8/8
f 93/138/97 91/173/98 68/174/136 67/139/93
f 125/175/137 124/176/138 99/177/139 100/178/140
f 103/179/141 102/180/142 77/181/143 78/6/6
f 95/182/74 94/137/111 69/140/92 70/183/144
f 96/163/75 95/184/74 70/185/144 71/164/130
f 98/186/79 97/162/81 72/165/131 73/187/132
f 104/188/145 103/179/141 78/6/6 79/5/5
f 130/189/107 129/190/87 104/191/145 105/192/146
f 92/193/147 115/194/77 116/195/148 114/196/149
f 102/180/142 101/197/150 76/198/151 77/181/143
f 101/199/150 100/200/140 75/201/127 76/202/151
f 102/203/142 127/204/30 126/205/33 101/206/150
f 114/196/149 116/195/148 138/207/152 113/208/153
f 91/118/98 117/209/49 115/194/77 92/193/147
f 100/200/140 99/210/139 74/211/128 75/201/127
f 131/212/154 130/189/107 105/192/146 106/213/100
f 120/214/73 119/215/86 94/216/111 95/79/74
f 77/217/143 76/218/151 41/219/54 43/220/155
f 124/176/138 123/96/80 98/95/79 99/177/139
f 110/221/45 135/222/156 134/156/43 109/155/125
f 99/210/139 98/223/79 73/224/132 74/211/128
f 90/225/157 89/145/117 63/148/120 64/71/158
f 108/158/126 133/157/42 132/226/159 107/227/99
f 88/228/118 113/229/153 112/124/103 87/123/102
f 72/165/131 71/164/130 32/230/160 34/231/161
f 87/232/102 60/233/162 61/234/119 88/235/118
f 101/206/150 126/34/33 125/236/137 100/178/140
f 112/237/103 113/238/153 138/239/152 137/240/110
f 94/216/111 119/104/86 118/55/50 93/117/97
f 34/241/161 32/242/160 31/65/60 33/64/59 35/100/83 36/130/106
f 54/15/15 167/14/14 168/69/64 59/243/163 56/244/164
f 107/120/99 82/119/72 83/76/71 108/245/126
f 7/99/165 6/21/21 153/20/20 152/246/32 151/32/31
f 78/6/6 77/181/143 43/220/155 45/7/7
f 30/247/166 70/248/144 69/110/92 28/109/91
f 8/249/167 149/106/88 148/134/108 147/250/168 9/251/169
f 135/222/156 110/221/45 111/252/46 136/253/109
f 144/47/44 134/46/43 135/254/156 143/255/170
f 106/213/100 107/227/99 132/256/159 131/212/154
f 104/191/145 129/190/87 128/257/90 103/258/141
f 56/244/164 57/259/4 55/260/122 53/143/70 52/16/16 54/15/15
f 62/73/68 59/243/163 168/69/64 163/62/57 65/67/62
f 113/229/153 88/228/118 89/261/117 114/262/149
f 124/263/138 154/19/19 155/23/23 123/264/80
f 30/265/171 28/266/172 27/66/61 31/65/60 32/242/160
f 16/91/173 15/127/173 2/126/174 1/113/175 17/92/176
f 123/264/80 155/23/23 156/267/9 122/12/12
f 36/167/106 73/187/132 72/165/131 34/231/161
f 141/42/40 137/268/110 138/239/152 139/269/28
f 45/270/7 43/271/155 41/272/54 40/58/53 42/101/84 44/102/85
f 61/273/177 60/274/178 59/243/163 62/73/68 63/72/67
f 71/164/130 70/185/144 30/275/166 32/230/160
f 97/98/81 122/97/12 121/81/11 96/80/75
f 81/122/101 106/121/100 105/276/146 80/277/134
f 41/59/54 76/278/151 75/159/127 39/60/55
f 59/243/163 60/274/178 58/279/179 57/259/4 56/244/164
f 109/280/125 84/281/121 85/49/3 110/48/45
f 48/152/123 46/282/180 45/270/7 44/102/85 47/18/18
f 140/30/29 139/269/28 138/239/152 116/283/148
f 116/284/148 115/83/77 162/82/76 140/30/29
f 145/44/41 144/285/44 143/255/170 11/142/181 10/141/182
f 26/90/183 13/28/184 14/27/185 15/127/173 16/91/173
f 25/89/116 12/40/115 13/39/184 26/286/183
f 7/99/165 151/32/31 150/287/89 149/106/88 8/288/167
f 22/86/186 8/289/186 9/251/187 23/87/187
f 150/287/89 151/32/31 127/31/30 128/108/90
f 17/92/176 1/113/175 3/115/188 4/35/52 18/56/51
f 131/290/154 147/250/168 148/291/108 130/133/107
f 66/292/189 29/112/94 67/111/93 68/174/136
f 108/245/126 83/76/71 84/281/121 109/280/125
f 146/293/190 132/256/159 133/294/42 145/44/41
f 86/2/2 58/1/1 60/233/162 87/232/102
f 131/290/154 132/256/159 146/293/190 147/250/168
f 154/19/19 124/263/138 125/295/137 153/296/20
f 111/252/46 112/237/103 137/268/110 136/253/109
f 27/66/61 28/266/172 29/112/191 66/292/65 65/67/62
f 142/41/39 12/40/38 11/297/181 143/255/170
f 81/169/101 49/168/133 51/153/69 82/77/72
f 146/293/190 145/44/41 10/141/182 9/251/169 147/250/168
f 92/298/147 90/299/157 68/300/136 91/301/98
f 135/302/156 136/135/109 142/41/39 143/255/170
f 80/277/134 105/276/146 104/188/145 79/5/5
f 103/258/141 128/257/90 127/204/30 102/203/142
f 126/34/33 152/246/32 153/296/20 125/295/137
f 21/85/82 7/99/82 8/289/186 22/303/186
f 23/87/187 9/251/187 10/141/113 24/88/112
f 114/262/149 89/261/117 90/299/157 92/298/147
f 68/304/136 90/225/157 64/71/158 66/292/189
