# Blender v2.82 (sub 7) OBJ File: 'PraetorianBaseRemastered.blend'
# www.blender.org
mtllib PraetorianBaseRemaster.mtl
o Solid1
v -0.800000 -0.325000 -2.000000
v -0.928033 -0.325000 -1.946967
v -0.843934 -0.250000 -1.925000
v -0.800000 -0.325000 2.000000
v -0.843934 -0.250000 1.925000
v -0.928033 -0.325000 1.946967
v -0.928033 -0.500000 1.946967
v -0.800000 -0.500000 2.000000
v -2.000000 -0.325000 -0.800000
v -1.925000 -0.250000 -0.843934
v -1.946967 -0.325000 -0.928033
v -1.946967 -0.500000 -0.928033
v -2.000000 -0.500000 -0.800000
v -2.000000 -0.325000 0.800000
v -1.946967 -0.325000 0.928033
v -1.925000 -0.250000 0.843934
v -2.000000 -0.500000 0.800000
v -1.946967 -0.500000 0.928033
v -0.800000 -0.500000 -2.000000
v -0.928033 -0.500000 -1.946967
v -1.168198 -0.220711 -1.431802
v -1.431802 -0.220711 -1.168198
v -0.997487 -0.050000 -1.502513
v -1.502513 -0.050000 -0.997487
v -0.997487 0.000000 -1.502513
v -1.502513 0.000000 -0.997487
v -1.431802 -0.220711 1.168198
v -1.168198 -0.220711 1.431802
v -1.502513 -0.050000 0.997487
v -0.997487 -0.050000 1.502513
v -1.502513 -0.000000 0.997487
v -0.997487 -0.000000 1.502513
v -1.820711 -0.220711 -0.229289
v -1.820711 -0.220711 0.229289
v -1.750000 -0.050000 -0.400000
v -1.750000 -0.050000 0.400000
v -1.750000 0.000000 -0.400000
v -1.750000 -0.000000 0.400000
v -1.402513 -0.250000 -1.238909
v -1.238909 -0.250000 -1.402513
v -1.850000 -0.250000 0.158579
v -1.850000 -0.250000 -0.158579
v -1.238909 -0.250000 1.402513
v -1.402513 -0.250000 1.238909
v -0.158579 -0.250000 -1.850000
v -0.229289 -0.220711 -1.820711
v -0.400000 -0.050000 -1.750000
v -0.400000 0.000000 -1.750000
v -0.158579 -0.250000 1.850000
v -0.229289 -0.220711 1.820711
v -0.400000 -0.050000 1.750000
v -0.400000 -0.000000 1.750000
v 0.928033 -0.325000 -1.946967
v 0.800000 -0.325000 -2.000000
v 0.843934 -0.250000 -1.925000
v 0.843934 -0.250000 1.925000
v 0.800000 -0.325000 2.000000
v 0.928033 -0.325000 1.946967
v 0.800000 -0.500000 2.000000
v 0.928033 -0.500000 1.946967
v 1.925000 -0.250000 -0.843934
v 2.000000 -0.325000 -0.800000
v 1.946967 -0.325000 -0.928033
v 2.000000 -0.500000 -0.800000
v 1.946967 -0.500000 -0.928033
v 1.946967 -0.325000 0.928033
v 2.000000 -0.325000 0.800000
v 1.925000 -0.250000 0.843934
v 1.946967 -0.500000 0.928033
v 2.000000 -0.500000 0.800000
v 0.928033 -0.500000 -1.946967
v 0.800000 -0.500000 -2.000000
v 0.400000 -0.050000 1.750000
v 0.229289 -0.220711 1.820711
v 0.400000 -0.000000 1.750000
v 0.400000 -0.050000 -1.750000
v 0.229289 -0.220711 -1.820711
v 0.400000 0.000000 -1.750000
v 0.997487 -0.050000 -1.502513
v 1.502513 -0.050000 -0.997487
v 1.168198 -0.220711 -1.431802
v 1.431802 -0.220711 -1.168198
v 1.502513 0.000000 -0.997487
v 0.997487 0.000000 -1.502513
v 1.502513 -0.050000 0.997487
v 0.997487 -0.050000 1.502513
v 1.431802 -0.220711 1.168198
v 1.168198 -0.220711 1.431802
v 0.997487 -0.000000 1.502513
v 1.502513 -0.000000 0.997487
v 1.750000 -0.050000 -0.400000
v 1.750000 -0.050000 0.400000
v 1.820711 -0.220711 -0.229289
v 1.820711 -0.220711 0.229289
v 1.750000 -0.000000 0.400000
v 1.750000 0.000000 -0.400000
v 0.158579 -0.250000 -1.850000
v 0.158579 -0.250000 1.850000
v 1.402513 -0.250000 1.238909
v 1.238909 -0.250000 1.402513
v 1.850000 -0.250000 0.158579
v 1.850000 -0.250000 -0.158579
v 1.402513 -0.250000 -1.238909
v 1.238909 -0.250000 -1.402513
vt 0.455800 0.406400
vt 0.455900 0.406400
vt 0.455800 0.406400
vt 0.455900 0.406400
vt 0.455900 0.406400
vt 0.455800 0.406400
vt 0.455800 0.406400
vt 0.455900 0.406400
vt 0.455800 0.406500
vt 0.455900 0.406500
vt 0.455900 0.406400
vt 0.455900 0.406400
vt 0.455800 0.406400
vt 0.455800 0.406400
vt 0.455900 0.406400
vt 0.455800 0.406500
vt 0.455900 0.406500
vt 0.456100 0.406400
vt 0.455300 0.406400
vt 0.456000 0.406400
vt 0.455300 0.406400
vt 0.455800 0.406400
vt 0.455900 0.406400
vt 0.455800 0.406400
vt 0.454900 0.406400
vt 0.455700 0.406400
vt 0.454900 0.406400
vt 0.456400 0.406400
vt 0.455600 0.406400
vt 0.456400 0.406400
vt 0.455700 0.406400
vt 0.455800 0.406400
vt 0.455900 0.406400
vt 0.455800 0.406500
vt 0.455900 0.406500
vt 0.455800 0.406400
vt 0.455900 0.406400
vt 0.455800 0.406500
vt 0.455900 0.406500
vt 0.455500 0.406400
vt 0.456200 0.406400
vt 0.455500 0.406500
vt 0.456200 0.406500
vt 0.454400 0.406400
vt 0.455200 0.406400
vt 0.454400 0.406500
vt 0.455200 0.406500
vt 0.101253 0.028132
vt 0.101453 0.028132
vt 0.101153 0.028232
vt 0.101553 0.028232
vt 0.455800 0.406400
vt 0.455500 0.406400
vt 0.455800 0.406400
vt 0.455500 0.406400
vt 0.101453 0.028132
vt 0.101653 0.028132
vt 0.101353 0.028232
vt 0.101653 0.028232
vt 0.455800 0.406400
vt 0.455500 0.406400
vt 0.455800 0.406400
vt 0.455500 0.406400
vt 0.101353 0.028132
vt 0.101553 0.028132
vt 0.101253 0.028232
vt 0.101653 0.028232
vt 0.455800 0.406400
vt 0.455400 0.406400
vt 0.455800 0.406400
vt 0.455400 0.406400
vt 0.455900 0.406400
vt 0.455700 0.406400
vt 0.455800 0.406400
vt 0.455700 0.406400
vt 0.456100 0.406400
vt 0.455800 0.406400
vt 0.456000 0.406400
vt 0.455900 0.406400
vt 0.456200 0.406400
vt 0.456000 0.406400
vt 0.456200 0.406400
vt 0.456100 0.406400
vt 0.456200 0.406500
vt 0.455500 0.406500
vt 0.456200 0.406400
vt 0.455500 0.406400
vt 0.456000 0.406500
vt 0.455400 0.406500
vt 0.455900 0.406500
vt 0.455400 0.406500
vt 0.455800 0.406400
vt 0.455500 0.406400
vt 0.455800 0.406400
vt 0.455500 0.406400
vt 0.456000 0.406500
vt 0.455400 0.406500
vt 0.455900 0.406500
vt 0.455400 0.406500
vt 0.455800 0.406400
vt 0.455500 0.406400
vt 0.455800 0.406400
vt 0.455500 0.406400
vt 0.456000 0.406500
vt 0.455400 0.406500
vt 0.455900 0.406500
vt 0.455400 0.406500
vt 0.455800 0.406400
vt 0.455500 0.406400
vt 0.455800 0.406400
vt 0.455500 0.406400
vt 0.456000 0.406500
vt 0.455400 0.406500
vt 0.455900 0.406500
vt 0.455400 0.406500
vt 0.455800 0.406400
vt 0.455500 0.406400
vt 0.455800 0.406400
vt 0.455500 0.406400
vt 0.455800 0.406400
vt 0.455900 0.406400
vt 0.455800 0.406400
vt 0.457100 0.406400
vt 0.456200 0.406400
vt 0.457000 0.406400
vt 0.456200 0.406400
vt 0.455800 0.406400
vt 0.455800 0.406400
vt 0.455800 0.406400
vt 0.455800 0.406400
vt 0.455900 0.406400
vt 0.455800 0.406500
vt 0.455900 0.406500
vt 0.455800 0.406400
vt 0.455800 0.406400
vt 0.455800 0.406400
vt 0.455800 0.406400
vt 0.455900 0.406400
vt 0.455800 0.406500
vt 0.455900 0.406500
vt 0.455700 0.406400
vt 0.456400 0.406400
vt 0.455600 0.406400
vt 0.456400 0.406400
vt 0.455800 0.406400
vt 0.455900 0.406400
vt 0.455800 0.406400
vt 0.456800 0.406400
vt 0.455900 0.406400
vt 0.456800 0.406400
vt 0.456000 0.406400
vt 0.455300 0.406400
vt 0.456000 0.406400
vt 0.455300 0.406400
vt 0.456100 0.406400
vt 0.455800 0.406400
vt 0.455900 0.406400
vt 0.455800 0.406500
vt 0.455900 0.406500
vt 0.455200 0.406400
vt 0.456000 0.406400
vt 0.455200 0.406400
vt 0.456000 0.406400
vt 0.455800 0.406400
vt 0.455900 0.406400
vt 0.455800 0.406500
vt 0.455900 0.406500
vt 0.457300 0.406500
vt 0.456500 0.406500
vt 0.457300 0.406400
vt 0.456500 0.406400
vt 0.456200 0.406500
vt 0.455500 0.406500
vt 0.456200 0.406400
vt 0.455500 0.406400
vt 0.457300 0.406500
vt 0.456500 0.406500
vt 0.457300 0.406400
vt 0.456500 0.406400
vt 0.456800 0.406500
vt 0.456300 0.407100
vt 0.456900 0.406500
vt 0.455400 0.407100
vt 0.454800 0.406500
vt 0.454800 0.406500
vt 0.455400 0.407000
vt 0.456300 0.407000
vt 0.456900 0.405600
vt 0.454800 0.405600
vt 0.455400 0.405000
vt 0.455400 0.405000
vt 0.454800 0.405600
vt 0.456300 0.405000
vt 0.456300 0.405000
vt 0.456800 0.405600
vt 0.101253 0.028232
vt 0.100753 0.028232
vt 0.101153 0.028132
vt 0.100853 0.028132
vt 0.456300 0.406400
vt 0.455800 0.406400
vt 0.456300 0.406400
vt 0.455800 0.406400
vt 0.101653 0.028232
vt 0.101253 0.028232
vt 0.101553 0.028132
vt 0.101253 0.028132
vt 0.456100 0.406400
vt 0.455600 0.406400
vt 0.456100 0.406400
vt 0.455600 0.406400
vt 0.101453 0.028232
vt 0.101053 0.028232
vt 0.101353 0.028132
vt 0.101153 0.028132
vt 0.456200 0.406400
vt 0.455800 0.406400
vt 0.456200 0.406400
vt 0.455800 0.406400
vt 0.101253 0.028232
vt 0.100853 0.028232
vt 0.101153 0.028132
vt 0.100953 0.028132
vt 0.456200 0.406400
vt 0.455800 0.406400
vt 0.456200 0.406400
vt 0.455800 0.406400
vt 0.101353 0.028232
vt 0.100953 0.028232
vt 0.101253 0.028132
vt 0.101053 0.028132
vt 0.456300 0.406400
vt 0.455800 0.406400
vt 0.456300 0.406400
vt 0.455800 0.406400
vt 0.456200 0.406400
vt 0.456000 0.406400
vt 0.456200 0.406400
vt 0.456000 0.406400
vt 0.456800 0.406300
vt 0.456800 0.406000
vt 0.456800 0.405500
vt 0.456800 0.405800
vt 0.456600 0.405200
vt 0.456300 0.406900
vt 0.456500 0.406600
vt 0.456600 0.406500
vt 0.455900 0.406800
vt 0.455400 0.406900
vt 0.455800 0.406800
vt 0.455200 0.406600
vt 0.454900 0.406300
vt 0.455100 0.406500
vt 0.454900 0.406000
vt 0.454900 0.405500
vt 0.454900 0.405800
vt 0.455100 0.405200
vt 0.455400 0.404900
vt 0.455200 0.405200
vt 0.455800 0.404900
vt 0.456300 0.404900
vt 0.455900 0.404900
vt 0.456500 0.405200
vt 0.456000 0.406400
vt 0.455800 0.406400
vt 0.456000 0.406400
vt 0.455900 0.406400
vt 0.455900 0.406400
vt 0.455600 0.406400
vt 0.455800 0.406400
vt 0.455700 0.406400
vt 0.455600 0.406400
vt 0.455400 0.406400
vt 0.455600 0.406400
vt 0.455400 0.406400
vt 0.455700 0.406400
vt 0.455500 0.406400
vt 0.455600 0.406400
vt 0.455500 0.406400
vt 0.455500 0.406400
vt 0.456200 0.406400
vt 0.455500 0.406500
vt 0.456200 0.406500
vt 0.456300 0.406500
vt 0.455400 0.406500
vt 0.456300 0.406400
vt 0.455400 0.406400
vt 0.456300 0.406500
vt 0.455700 0.406500
vt 0.456300 0.406500
vt 0.455800 0.406500
vt 0.456200 0.406400
vt 0.455800 0.406400
vt 0.456200 0.406400
vt 0.455800 0.406400
vt 0.456300 0.406500
vt 0.455700 0.406500
vt 0.456300 0.406500
vt 0.455800 0.406500
vt 0.456200 0.406400
vt 0.455800 0.406400
vt 0.456200 0.406400
vt 0.455800 0.406400
vt 0.456300 0.406500
vt 0.455700 0.406500
vt 0.456300 0.406500
vt 0.455800 0.406500
vt 0.456200 0.406400
vt 0.455800 0.406400
vt 0.456200 0.406400
vt 0.455800 0.406400
vt 0.456300 0.406500
vt 0.455700 0.406500
vt 0.456300 0.406500
vt 0.455800 0.406500
vt 0.456200 0.406400
vt 0.455800 0.406400
vt 0.456200 0.406400
vt 0.455800 0.406400
vt 0.456700 0.406200
vt 0.454900 0.406200
vt 0.456700 0.405800
vt 0.454900 0.405800
vt 0.456600 0.405500
vt 0.455100 0.405500
vt 0.456400 0.405300
vt 0.456100 0.405100
vt 0.455600 0.405100
vt 0.455300 0.405300
vt 0.455100 0.406600
vt 0.456600 0.406600
vt 0.455300 0.406800
vt 0.455600 0.406900
vt 0.456100 0.406900
vt 0.456400 0.406800
vn -0.3135 0.5733 -0.7570
vn -0.3135 0.5733 0.7570
vn -0.3827 -0.0000 0.9239
vn -0.7570 0.5733 -0.3135
vn -0.9239 0.0000 -0.3827
vn -0.5000 0.7071 -0.5000
vn -0.7570 0.5733 0.3135
vn -0.7071 0.7071 0.0000
vn -0.5000 0.7071 0.5000
vn -0.9239 0.0000 0.3827
vn -0.3827 0.0000 -0.9239
vn -0.7071 -0.0000 -0.7071
vn -1.0000 0.0000 0.0000
vn -0.6321 0.4483 -0.6321
vn -0.6533 0.3827 -0.6533
vn -0.6321 0.4483 0.6321
vn -0.6533 0.3827 0.6533
vn -0.7071 0.0000 0.7071
vn -0.9239 0.3827 0.0000
vn 0.3135 0.5733 -0.7570
vn 0.0000 0.7071 -0.7071
vn 0.3135 0.5733 0.7570
vn 0.3827 -0.0000 0.9239
vn 0.7570 0.5733 -0.3135
vn 0.9239 0.0000 -0.3827
vn 0.5000 0.7071 -0.5000
vn 0.7570 0.5733 0.3135
vn 0.7071 0.7071 0.0000
vn 0.5000 0.7071 0.5000
vn 0.9239 0.0000 0.3827
vn 0.0000 0.7071 0.7071
vn 0.3827 0.0000 -0.9239
vn 0.0000 0.0000 -1.0000
vn 0.7071 -0.0000 -0.7071
vn 1.0000 0.0000 0.0000
vn 0.0000 -1.0000 -0.0000
vn 0.0000 0.3827 0.9239
vn 0.0000 0.0000 1.0000
vn 0.0000 0.3827 -0.9239
vn 0.6533 0.3827 -0.6533
vn 0.6321 0.4483 -0.6321
vn 0.6533 0.3827 0.6533
vn 0.6321 0.4483 0.6321
vn 0.7071 0.0000 0.7071
vn 0.9239 0.3827 0.0000
vn 0.0000 1.0000 0.0000
usemtl 191,191,191.002
s 1
f 1/1/1 2/2/1 3/3/1
f 4/4/2 5/5/2 6/6/2
f 7/7/3 8/8/3 6/9/3
f 6/9/3 8/8/3 4/10/3
f 9/11/4 10/12/4 11/13/4
f 12/14/5 13/15/5 11/16/5
f 11/16/5 13/15/5 9/17/5
f 10/18/6 3/19/6 11/20/6
f 11/20/6 3/19/6 2/21/6
f 14/22/7 15/23/7 16/24/7
f 9/25/8 14/26/8 10/27/8
f 10/27/8 14/26/8 16/24/8
f 5/28/9 16/29/9 6/30/9
f 6/30/9 16/29/9 15/31/9
f 17/32/10 18/33/10 14/34/10
f 14/34/10 18/33/10 15/35/10
f 19/36/11 20/37/11 1/38/11
f 1/38/11 20/37/11 2/39/11
f 20/40/12 12/41/12 2/42/12
f 2/42/12 12/41/12 11/43/12
f 13/44/13 17/45/13 9/46/13
f 9/46/13 17/45/13 14/47/13
f 21/48/14 22/49/14 23/50/15
f 23/50/15 22/49/14 24/51/15
f 23/52/12 24/53/12 25/54/12
f 25/54/12 24/53/12 26/55/12
f 27/56/16 28/57/16 29/58/17
f 29/58/17 28/57/16 30/59/17
f 29/60/18 30/61/18 31/62/18
f 31/62/18 30/61/18 32/63/18
f 33/64/19 34/65/19 35/66/19
f 35/66/19 34/65/19 36/67/19
f 35/68/13 36/69/13 37/70/13
f 37/70/13 36/69/13 38/71/13
f 22/72/14 21/73/14 39/74/6
f 39/74/6 21/73/14 40/75/6
f 34/76/8 33/77/8 41/78/8
f 41/78/8 33/77/8 42/79/8
f 28/80/16 27/81/16 43/82/9
f 43/82/9 27/81/16 44/83/9
f 6/84/18 15/85/18 7/86/18
f 7/86/18 15/85/18 18/87/18
f 39/88/5 42/89/5 22/90/5
f 22/90/5 42/89/5 33/91/5
f 22/90/5 33/91/5 24/92/5
f 24/92/5 33/91/5 35/93/5
f 24/92/5 35/93/5 26/94/5
f 26/94/5 35/93/5 37/95/5
f 45/96/11 40/97/11 46/98/11
f 46/98/11 40/97/11 21/99/11
f 46/98/11 21/99/11 47/100/11
f 47/100/11 21/99/11 23/101/11
f 47/100/11 23/101/11 48/102/11
f 48/102/11 23/101/11 25/103/11
f 43/104/3 49/105/3 28/106/3
f 28/106/3 49/105/3 50/107/3
f 28/106/3 50/107/3 30/108/3
f 30/108/3 50/107/3 51/109/3
f 30/108/3 51/109/3 32/110/3
f 32/110/3 51/109/3 52/111/3
f 41/112/10 44/113/10 34/114/10
f 34/114/10 44/113/10 27/115/10
f 34/114/10 27/115/10 36/116/10
f 36/116/10 27/115/10 29/117/10
f 36/116/10 29/117/10 38/118/10
f 38/118/10 29/117/10 31/119/10
f 53/120/20 54/121/20 55/122/20
f 3/123/21 55/124/21 1/125/21
f 1/125/21 55/124/21 54/126/21
f 56/127/22 57/128/22 58/129/22
f 59/130/23 60/131/23 57/132/23
f 57/132/23 60/131/23 58/133/23
f 61/134/24 62/135/24 63/136/24
f 64/137/25 65/138/25 62/139/25
f 62/139/25 65/138/25 63/140/25
f 63/141/26 53/142/26 61/143/26
f 61/143/26 53/142/26 55/144/26
f 66/145/27 67/146/27 68/147/27
f 61/148/28 68/149/28 62/150/28
f 62/150/28 68/149/28 67/151/28
f 58/152/29 66/153/29 56/154/29
f 56/154/29 66/153/29 68/155/29
f 69/156/30 70/157/30 66/158/30
f 66/158/30 70/157/30 67/159/30
f 4/160/31 57/161/31 5/162/31
f 5/162/31 57/161/31 56/163/31
f 71/164/32 72/165/32 53/166/32
f 53/166/32 72/165/32 54/167/32
f 1/168/33 54/169/33 19/170/33
f 19/170/33 54/169/33 72/171/33
f 53/172/34 63/173/34 71/174/34
f 71/174/34 63/173/34 65/175/34
f 62/176/35 67/177/35 64/178/35
f 64/178/35 67/177/35 70/179/35
f 71/180/36 64/181/36 72/182/36
f 72/182/36 64/181/36 70/183/36
f 72/182/36 70/183/36 59/184/36
f 59/184/36 70/183/36 60/185/36
f 60/185/36 70/183/36 69/186/36
f 71/180/36 65/187/36 64/181/36
f 72/182/36 59/184/36 19/188/36
f 19/188/36 59/184/36 8/189/36
f 19/188/36 8/189/36 17/190/36
f 17/190/36 8/189/36 18/191/36
f 18/191/36 8/189/36 7/192/36
f 17/190/36 13/193/36 19/188/36
f 19/188/36 13/193/36 12/194/36
f 19/188/36 12/194/36 20/195/36
f 73/196/37 51/197/37 74/198/37
f 74/198/37 51/197/37 50/199/37
f 51/200/38 73/201/38 52/202/38
f 52/202/38 73/201/38 75/203/38
f 47/204/39 76/205/39 46/206/39
f 46/206/39 76/205/39 77/207/39
f 76/208/33 47/209/33 78/210/33
f 78/210/33 47/209/33 48/211/33
f 79/212/40 80/213/40 81/214/41
f 81/214/41 80/213/40 82/215/41
f 80/216/34 79/217/34 83/218/34
f 83/218/34 79/217/34 84/219/34
f 85/220/42 86/221/42 87/222/43
f 87/222/43 86/221/42 88/223/43
f 86/224/44 85/225/44 89/226/44
f 89/226/44 85/225/44 90/227/44
f 91/228/45 92/229/45 93/230/45
f 93/230/45 92/229/45 94/231/45
f 92/232/35 91/233/35 95/234/35
f 95/234/35 91/233/35 96/235/35
f 46/236/21 77/237/21 45/238/21
f 45/238/21 77/237/21 97/239/21
f 56/240/46 98/241/46 5/242/46
f 5/242/46 98/241/46 49/243/46
f 5/242/46 49/243/46 43/244/46
f 68/245/46 99/246/46 56/240/46
f 56/240/46 99/246/46 100/247/46
f 56/240/46 100/247/46 98/241/46
f 99/246/46 68/245/46 101/248/46
f 101/248/46 68/245/46 61/249/46
f 101/248/46 61/249/46 102/250/46
f 102/250/46 61/249/46 103/251/46
f 103/251/46 61/249/46 55/252/46
f 103/251/46 55/252/46 104/253/46
f 104/253/46 55/252/46 97/254/46
f 97/254/46 55/252/46 3/255/46
f 97/254/46 3/255/46 45/256/46
f 45/256/46 3/255/46 40/257/46
f 40/257/46 3/255/46 10/258/46
f 40/257/46 10/258/46 39/259/46
f 39/259/46 10/258/46 42/260/46
f 42/260/46 10/258/46 16/261/46
f 42/260/46 16/261/46 41/262/46
f 41/262/46 16/261/46 44/263/46
f 44/263/46 16/261/46 43/244/46
f 43/244/46 16/261/46 5/242/46
f 81/264/41 82/265/41 104/266/26
f 104/266/26 82/265/41 103/267/26
f 93/268/28 94/269/28 102/270/28
f 102/270/28 94/269/28 101/271/28
f 74/272/31 50/273/31 98/274/31
f 98/274/31 50/273/31 49/275/31
f 87/276/43 88/277/43 99/278/29
f 99/278/29 88/277/43 100/279/29
f 60/280/44 69/281/44 58/282/44
f 58/282/44 69/281/44 66/283/44
f 57/284/38 4/285/38 59/286/38
f 59/286/38 4/285/38 8/287/38
f 102/288/25 103/289/25 93/290/25
f 93/290/25 103/289/25 82/291/25
f 93/290/25 82/291/25 91/292/25
f 91/292/25 82/291/25 80/293/25
f 91/292/25 80/293/25 96/294/25
f 96/294/25 80/293/25 83/295/25
f 104/296/32 97/297/32 81/298/32
f 81/298/32 97/297/32 77/299/32
f 81/298/32 77/299/32 79/300/32
f 79/300/32 77/299/32 76/301/32
f 79/300/32 76/301/32 84/302/32
f 84/302/32 76/301/32 78/303/32
f 98/304/23 100/305/23 74/306/23
f 74/306/23 100/305/23 88/307/23
f 74/306/23 88/307/23 73/308/23
f 73/308/23 88/307/23 86/309/23
f 73/308/23 86/309/23 75/310/23
f 75/310/23 86/309/23 89/311/23
f 99/312/30 101/313/30 87/314/30
f 87/314/30 101/313/30 94/315/30
f 87/314/30 94/315/30 85/316/30
f 85/316/30 94/315/30 92/317/30
f 85/316/30 92/317/30 90/318/30
f 90/318/30 92/317/30 95/319/30
f 75/320/46 78/321/46 52/322/46
f 52/322/46 78/321/46 48/323/46
f 52/322/46 48/323/46 32/324/46
f 32/324/46 48/323/46 25/325/46
f 32/324/46 25/325/46 31/326/46
f 31/326/46 25/325/46 38/327/46
f 38/327/46 25/325/46 37/328/46
f 37/328/46 25/325/46 26/329/46
f 78/321/46 75/320/46 84/330/46
f 84/330/46 75/320/46 89/331/46
f 84/330/46 89/331/46 83/332/46
f 83/332/46 89/331/46 96/333/46
f 96/333/46 89/331/46 95/334/46
f 95/334/46 89/331/46 90/335/46
