# This file uses centimeters as units for non-parametric coordinates.

g default
v 1.031075 -0.419621 1.548988
v 1.031075 0.653905 1.548988
v 1.031075 1.040657 0.493920
v 1.031075 0.653905 0.493920
v -1.031075 -0.419621 1.548988
v -1.031075 0.653905 1.548988
v -1.031075 1.040657 0.493920
v -1.031075 0.653905 0.493920
v 1.031075 -0.419621 -0.401655
v 1.031075 1.040657 -0.401655
v -1.031075 -0.419621 -0.401655
v -1.031075 1.040657 -0.401655
v 0.500000 1.040657 -0.737530
v 0.500000 -0.419621 -0.737530
v 0.500000 1.040657 -0.401655
v 0.500000 -0.419621 -0.401655
v -0.500000 1.040657 -0.401655
v -0.500000 -0.419621 -0.401655
v -0.500000 1.040657 -0.737530
v -0.500000 -0.419621 -0.737530
v 0.273315 0.627300 1.115159
v -0.273315 0.627300 1.115159
v -0.546629 0.153905 1.115159
v -0.273315 -0.319490 1.115160
v 0.273315 -0.319490 1.115160
v 0.546629 0.153905 1.115159
v 0.273315 0.627300 5.115160
v -0.273315 0.627300 5.115160
v -0.546629 0.153905 5.115160
v -0.273315 -0.319490 5.115160
v 0.273315 -0.319490 5.115160
v 0.546629 0.153905 5.115160
v 0.000000 0.153905 5.115160
vt 0.625563 -0.000343
vt 0.625000 0.999988
vt 0.623320 0.190607
vt 0.687515 0.298345
vt 0.730411 0.193668
vt 0.625646 -0.000364
vt 0.624390 0.189640
vt 0.728343 0.195477
vt 0.686479 0.299289
vt 0.625000 1.000005
vt 0.843170 -0.007268
vt 0.640234 0.445964
vt 0.820964 0.265234
vt 0.625000 0.787723
vt 0.843170 -0.007268
vt 0.625000 0.787804
vt 0.820964 0.265234
vt 0.640234 0.445964
vt 0.625000 0.500000
vt 0.625000 0.750511
vt 0.640234 0.445964
vt 0.625000 0.787742
vt 0.640234 0.445964
vt 0.625000 0.787792
vt 0.625000 0.500000
vt 0.625000 0.750570
vt 0.375000 0.312500
vt 0.416667 0.312500
vt 0.416667 0.688440
vt 0.375000 0.688440
vt 0.458333 0.312500
vt 0.458333 0.688440
vt 0.500000 0.312500
vt 0.500000 0.688440
vt 0.541667 0.312500
vt 0.541667 0.688440
vt 0.583333 0.312500
vt 0.583333 0.688440
vt 0.625000 0.312500
vt 0.625000 0.688440
vt 0.578125 0.979066
vt 0.421875 0.979066
vt 0.500000 0.837500
vt 0.343750 0.843750
vt 0.421875 0.708434
vt 0.578125 0.708434
vt 0.656250 0.843750
vn 1.000000 0.000000 0.000000
vn 1.000000 0.000000 0.000000
vn 1.000000 0.000000 0.000000
vn 1.000000 0.000000 0.000000
vn 1.000000 0.000000 0.000000
vn 1.000000 0.000000 0.000000
vn -1.000000 0.000000 0.000000
vn -1.000000 0.000000 0.000000
vn -1.000000 0.000000 0.000000
vn -1.000000 0.000000 0.000000
vn 0.000000 -1.000000 0.000000
vn 0.000000 -1.000000 0.000000
vn 0.000000 -1.000000 0.000000
vn -1.000000 0.000000 0.000000
vn -1.000000 0.000000 0.000000
vn 0.000000 1.000000 0.000000
vn 0.000000 1.000000 -0.000000
vn 0.000000 1.000000 -0.000000
vn 0.000000 0.000000 1.000000
vn 0.000000 0.000000 1.000000
vn 0.000000 0.000000 1.000000
vn 0.000000 0.000000 1.000000
vn 0.000000 0.000000 -1.000000
vn 0.000000 0.000000 -1.000000
vn 0.000000 0.000000 -1.000000
vn 0.000000 0.000000 -1.000000
vn 0.000000 1.000000 0.000000
vn 0.000000 1.000000 0.000000
vn 0.000000 1.000000 -0.000000
vn 0.000000 -1.000000 0.000000
vn 0.000000 -1.000000 0.000000
vn 0.000000 0.000000 1.000000
vn 0.000000 0.000000 1.000000
vn 0.000000 0.000000 1.000000
vn 0.000000 0.000000 1.000000
vn 0.000000 1.000000 0.000000
vn 0.000000 1.000000 0.000000
vn 0.000000 1.000000 0.000000
vn 0.000000 1.000000 0.000000
vn 0.000000 1.000000 -0.000000
vn 0.000000 -1.000000 0.000000
vn 0.000000 -1.000000 0.000000
vn 0.000000 -1.000000 0.000000
vn 0.000000 1.000000 0.000000
vn 0.000000 0.000000 -1.000000
vn 0.000000 0.000000 -1.000000
vn 0.000000 0.000000 -1.000000
vn 0.000000 0.000000 -1.000000
vn -1.000000 0.000000 0.000000
vn -1.000000 0.000000 0.000000
vn -1.000000 0.000000 0.000000
vn -1.000000 0.000000 0.000000
vn 1.000000 -0.000000 -0.000000
vn 1.000000 -0.000000 -0.000000
vn 1.000000 -0.000000 -0.000000
vn 1.000000 -0.000000 -0.000000
vn 0.000000 0.000000 -1.000000
vn 0.000000 0.000000 -1.000000
vn 0.000000 0.000000 -1.000000
vn 0.000000 0.000000 -1.000000
vn 0.000000 1.000000 0.000000
vn 0.000000 1.000000 0.000000
vn 0.000000 1.000000 0.000000
vn 0.000000 1.000000 0.000000
vn -0.866025 0.500000 0.000000
vn -0.866025 0.500000 0.000000
vn -0.866025 0.500000 0.000000
vn -0.866025 0.500000 0.000000
vn -0.866025 -0.500000 0.000000
vn -0.866025 -0.500000 0.000000
vn -0.866025 -0.500000 0.000000
vn -0.866025 -0.500000 0.000000
vn 0.000000 -1.000000 0.000000
vn 0.000000 -1.000000 0.000000
vn 0.000000 -1.000000 0.000000
vn 0.000000 -1.000000 0.000000
vn 0.866025 -0.500000 0.000000
vn 0.866025 -0.500000 0.000000
vn 0.866025 -0.500000 0.000000
vn 0.866025 -0.500000 0.000000
vn 0.866026 0.500000 0.000000
vn 0.866026 0.500000 0.000000
vn 0.866026 0.500000 0.000000
vn 0.866026 0.500000 0.000000
vn 0.000000 0.000000 1.000000
vn 0.000000 0.000000 1.000000
vn 0.000000 0.000000 1.000000
vn 0.000000 0.000000 1.000000
vn 0.000000 0.000000 1.000000
vn 0.000000 0.000000 1.000000
vn 0.000000 0.000000 1.000000
s 1
g col_barrel_base
f 1/1/1 9/11/2 4/5/3 2/3/4
f 3/4/5 4/5/3 9/11/2 10/13/6
s 2
f 5/6/7 6/7/8 8/8/9 11/15/10
s 3
f 1/2/11 16/22/12 9/14/13
s 2
f 7/9/14 12/17/15 11/15/10 8/8/9
s 4
f 10/12/16 15/21/17 3/4/18
s off
f 1/1/19 2/3/20 6/7/21 5/6/22
f 13/19/23 14/20/24 20/26/25 19/25/26
s 4
f 15/21/17 13/19/27 19/25/28 17/23/29
s 3
f 16/22/12 1/2/11 5/10/30 18/24/31
s off
f 4/5/32 3/4/33 7/9/34 8/8/35
f 2/3/36 4/5/37 8/8/38 6/7/39
s 4
f 3/4/18 15/21/17 17/23/29 7/9/40
s 3
f 14/20/41 16/22/12 18/24/31 20/26/42
f 18/24/31 5/10/30 11/16/43
s 4
f 7/9/40 17/23/29 12/18/44
s off
f 12/18/45 17/23/46 18/24/47 11/16/48
f 17/23/49 19/25/50 20/26/51 18/24/52
f 13/19/53 15/21/54 16/22/55 14/20/56
f 15/21/57 10/12/58 9/14/59 16/22/60
f 21/27/61 22/28/62 28/29/63 27/30/64
f 22/28/65 23/31/66 29/32/67 28/29/68
f 23/31/69 24/33/70 30/34/71 29/32/72
f 24/33/73 25/35/74 31/36/75 30/34/76
f 25/35/77 26/37/78 32/38/79 31/36/80
f 26/37/81 21/39/82 27/40/83 32/38/84
s 5
f 27/41/85 28/42/86 33/43/87
f 28/42/86 29/44/88 33/43/87
f 29/44/88 30/45/89 33/43/87
f 30/45/89 31/46/90 33/43/87
f 31/46/90 32/47/91 33/43/87
f 32/47/91 27/41/85 33/43/87
