# Blender v2.83.4 OBJ File: 'TAC_IsoBubbleMediumInner.blend'
# www.blender.org
mtllib TAC_IsoBubbleMediumInner.mtl
o Cube
v 0.262500 0.109375 -0.437500
v 0.109375 0.262500 -0.437500
v 0.109375 0.437500 -0.262500
v 0.437500 0.109375 -0.262500
v 0.262500 0.437500 -0.109375
v 0.437500 0.262500 -0.109375
v 0.262500 -0.437500 -0.109375
v 0.109375 -0.437500 -0.262500
v 0.109375 -0.262500 -0.437500
v 0.262500 -0.109375 -0.437500
v 0.437500 -0.109375 -0.262500
v 0.437500 -0.262500 -0.109375
v 0.437500 0.109375 0.262500
v 0.437500 0.262500 0.109375
v 0.262500 0.437500 0.109375
v 0.262500 0.109375 0.437500
v 0.109375 0.437500 0.262500
v 0.109375 0.262500 0.437500
v 0.437500 -0.262500 0.109375
v 0.437500 -0.109375 0.262500
v 0.262500 -0.109375 0.437500
v 0.109375 -0.262500 0.437500
v 0.109375 -0.437500 0.262500
v 0.262500 -0.437500 0.109375
v -0.109375 0.262500 -0.437500
v -0.262500 0.109375 -0.437500
v -0.437500 0.109375 -0.262500
v -0.109375 0.437500 -0.262500
v -0.437500 0.262500 -0.109375
v -0.262500 0.437500 -0.109375
v -0.437500 -0.262500 -0.109375
v -0.437500 -0.109375 -0.262500
v -0.262500 -0.109375 -0.437500
v -0.109375 -0.262500 -0.437500
v -0.109375 -0.437500 -0.262500
v -0.262500 -0.437500 -0.109375
v -0.437500 0.262500 0.109375
v -0.437500 0.109375 0.262500
v -0.262500 0.109375 0.437500
v -0.262500 0.437500 0.109375
v -0.109375 0.262500 0.437500
v -0.109375 0.437500 0.262500
v -0.262500 -0.437500 0.109375
v -0.109375 -0.437500 0.262500
v -0.109375 -0.262500 0.437500
v -0.437500 -0.262500 0.109375
v -0.262500 -0.109375 0.437500
v -0.437500 -0.109375 0.262500
vt -0.242335 -0.189920
vt -0.228029 -0.100677
vt -0.181242 -0.100677
vt 0.071971 -0.100677
vt 0.118758 0.100677
vt 0.146971 -0.040332
vt 0.057665 -0.189920
vt 0.118758 -0.100677
vt 0.221971 -0.100677
vt 0.268758 0.100677
vt 0.296971 -0.040332
vt -0.092335 -0.189920
vt -0.078029 -0.100677
vt -0.031242 -0.100677
vt -0.106242 -0.040332
vt -0.153029 -0.040332
vt -0.153029 0.040332
vt 0.133064 -0.189920
vt 0.433064 -0.189920
vt -0.016936 -0.189920
vt 0.043758 0.040332
vt -0.016936 0.189920
vt 0.071971 0.100677
vt -0.031242 0.100677
vt -0.003029 -0.040332
vt 0.357665 0.189920
vt 0.057665 0.189920
vt -0.092335 0.189920
vt -0.316936 0.189920
vt -0.303029 0.040332
vt -0.331242 0.100677
vt -0.181242 0.100677
vt 0.133064 0.189920
vt -0.242335 0.189920
vt -0.166936 0.189920
vt -0.316936 -0.189920
vt -0.303029 -0.040332
vt 0.207665 0.189920
vt 0.283064 0.189920
vt 0.207665 -0.189920
vt 0.193758 -0.040332
vt 0.146971 0.040332
vt 0.193758 0.040332
vt 0.268758 -0.100677
vt 0.043758 -0.040332
vt -0.078029 0.100677
vt 0.221971 0.100677
vt -0.003029 0.040332
vt -0.256242 0.040332
vt -0.256242 -0.040332
vt -0.166936 -0.189920
vt 0.296971 0.040332
vt -0.106242 0.040332
vt 0.283064 -0.189920
vt 0.357665 -0.189920
vt 0.433064 0.189920
vt -0.228029 0.100677
vt -0.331242 -0.100677
vn 0.7071 0.7071 0.0000
vn -1.0000 0.0000 0.0000
vn -0.7071 0.7071 0.0000
vn -0.0000 0.0000 1.0000
vn 0.0000 0.7071 -0.7071
vn 0.7071 0.0000 -0.7071
vn 0.0000 1.0000 0.0000
vn -0.5774 -0.5774 -0.5774
vn 0.0000 0.0000 -1.0000
vn 0.0000 -1.0000 0.0000
vn 0.5774 -0.5774 0.5774
vn 1.0000 -0.0000 0.0000
vn -0.7071 -0.7071 0.0000
vn 0.7071 -0.7071 0.0000
vn 0.5774 0.5774 0.5774
vn 0.0000 -0.7071 0.7071
vn -0.5774 0.5774 0.5774
vn -0.7071 0.0000 0.7071
vn 0.5774 -0.5774 -0.5774
vn 0.0000 0.7071 0.7071
vn -0.5774 0.5774 -0.5774
vn 0.0000 -0.7071 -0.7071
vn -0.5774 -0.5774 0.5774
vn 0.5774 0.5774 -0.5774
vn -0.7071 0.0000 -0.7071
vn 0.7071 0.0000 0.7071
vn -0.5774 0.5774 -0.5773
vn -0.5774 -0.5774 0.5773
usemtl Material
s off
f 36/1/1 31/2/1 46/3/1
f 19/4/2 6/5/2 11/6/2
f 24/7/3 19/4/3 12/8/3
f 9/9/4 25/10/4 33/11/4
f 44/12/5 45/13/5 22/14/5
f 47/15/6 48/16/6 38/17/6
f 7/18/7 43/19/7 23/20/7
f 13/21/8 17/22/8 14/23/8
f 45/13/9 18/24/9 21/25/9
f 30/26/10 15/27/10 42/28/10
f 28/29/11 26/30/11 25/31/11
f 31/2/12 37/32/12 48/16/12
f 15/27/13 5/33/13 6/5/13
f 30/34/14 40/35/14 37/32/14
f 35/36/15 33/37/15 31/2/15
f 3/38/16 28/39/16 25/10/16
f 8/40/17 10/41/17 9/9/17
f 11/6/18 4/42/18 1/43/18
f 40/35/19 38/17/19 37/32/19
f 8/40/20 9/9/20 34/44/20
f 24/7/21 20/45/21 19/4/21
f 17/22/22 18/24/22 41/46/22
f 1/43/23 5/33/23 2/47/23
f 44/12/24 47/15/24 45/13/24
f 21/25/25 16/48/25 13/21/25
f 26/30/26 27/49/26 32/50/26
f 36/1/1 46/3/1 43/51/1
f 19/4/2 11/6/2 12/8/2
f 11/6/2 6/5/2 4/42/2
f 6/5/2 13/21/2 14/23/2
f 13/21/2 6/5/2 20/45/2
f 20/45/2 6/5/2 19/4/2
f 24/7/3 12/8/3 7/18/3
f 9/9/4 33/11/4 34/44/4
f 33/11/4 25/10/4 26/52/4
f 25/10/4 9/9/4 2/47/4
f 2/47/4 9/9/4 1/43/4
f 1/43/4 9/9/4 10/41/4
f 44/12/5 22/14/5 23/20/5
f 47/15/6 38/17/6 39/53/6
f 43/19/7 35/54/7 36/55/7
f 35/54/7 7/18/7 8/40/7
f 7/18/7 23/20/7 24/7/7
f 23/20/7 43/19/7 44/12/7
f 43/19/7 7/18/7 35/54/7
f 14/23/8 17/22/8 15/27/8
f 17/22/8 16/48/8 18/24/8
f 16/48/8 17/22/8 13/21/8
f 45/13/9 21/25/9 22/14/9
f 21/25/9 18/24/9 16/48/9
f 18/24/9 45/13/9 41/46/9
f 41/46/9 45/13/9 39/53/9
f 39/53/9 45/13/9 47/15/9
f 15/27/10 3/38/10 5/33/10
f 3/38/10 30/26/10 28/39/10
f 30/26/10 42/28/10 40/56/10
f 42/28/10 15/27/10 17/22/10
f 15/27/10 30/26/10 3/38/10
f 26/30/11 28/29/11 27/49/11
f 27/49/11 28/29/11 29/57/11
f 29/57/11 28/29/11 30/34/11
f 31/2/12 48/16/12 46/3/12
f 48/16/12 37/32/12 38/17/12
f 37/32/12 27/49/12 29/57/12
f 27/49/12 37/32/12 32/50/12
f 32/50/12 37/32/12 31/2/12
f 15/27/13 6/5/13 14/23/13
f 30/34/14 37/32/14 29/57/14
f 33/37/15 35/36/15 34/58/15
f 35/36/15 31/2/15 36/1/15
f 31/2/15 33/37/15 32/50/15
f 3/38/16 25/10/16 2/47/16
f 10/41/17 8/40/17 11/6/17
f 11/6/17 8/40/17 12/8/17
f 12/8/17 8/40/17 7/18/17
f 11/6/18 1/43/18 10/41/18
f 38/17/19 40/35/19 39/53/19
f 39/53/19 40/35/19 41/46/19
f 41/46/19 40/35/19 42/28/19
f 8/40/20 34/44/20 35/54/20
f 20/45/21 24/7/21 21/25/21
f 21/25/21 24/7/21 22/14/21
f 22/14/27 24/7/27 23/20/27
f 17/22/22 41/46/22 42/28/22
f 2/47/28 5/33/28 3/38/28
f 5/33/23 4/42/23 6/5/23
f 4/42/23 5/33/23 1/43/23
f 47/15/24 44/12/24 48/16/24
f 48/16/24 44/12/24 46/3/24
f 46/3/24 44/12/24 43/51/24
f 21/25/25 13/21/25 20/45/25
f 26/30/26 32/50/26 33/37/26
