# Blender v2.83.4 OBJ File: 'TAC_ProjectorRepairEdge.blend'
# www.blender.org
mtllib TAC_ProjectorRepairEdge.mtl
o Solid1.001
v 0.379289 0.950000 0.300000
v -0.379289 0.950000 0.300000
v 0.400000 1.000000 0.350000
v -0.400000 1.000000 0.350000
v 0.500000 0.900000 0.350000
v 0.450000 0.879289 0.300000
v 0.500000 0.875000 0.350000
v 0.359032 0.775450 0.309481
v -0.500000 0.875000 0.350000
v -0.359032 0.775450 0.309481
v 0.500000 0.875000 0.875000
v 0.500000 0.350000 0.875000
v 0.359032 0.309481 0.775451
v -0.500000 0.350000 0.875000
v -0.359032 0.309481 0.775451
v 0.450000 0.300000 0.879289
v 0.500000 0.350000 0.900000
v -0.500000 0.350000 0.900000
v -0.450000 0.300000 0.879289
v 0.400000 0.350000 1.000000
v -0.400000 0.350000 1.000000
v 0.379289 0.300000 0.950000
v -0.379289 0.300000 0.950000
v -0.500000 0.875000 0.875000
v -0.450000 0.879289 0.300000
v -0.500000 0.900000 0.350000
v -0.500000 0.900000 0.900000
v -0.400000 1.000000 0.900000
v -0.400000 0.900000 1.000000
v 0.400000 0.900000 1.000000
v 0.500000 0.900000 0.900000
v 0.400000 1.000000 0.900000
v -0.385525 0.399577 0.345278
v -0.385525 0.345262 0.399750
v -0.500000 0.350000 0.400000
v -0.500000 0.400000 0.350000
v 0.385348 0.345278 0.399577
v 0.385343 0.399750 0.345262
v 0.500000 0.400000 0.350000
v 0.500000 0.350000 0.400000
v 0.450000 0.875000 0.300000
v -0.450000 0.875000 0.300000
v 0.450000 0.300000 0.875000
v -0.450000 0.300000 0.875000
v -0.495281 0.399552 0.345281
v 0.495281 0.345281 0.399553
v -0.495260 0.345259 0.399775
v 0.495260 0.399775 0.345260
v 0.385348 0.804898 0.859197
v -0.385525 0.804881 0.859370
v -0.385525 0.859196 0.804898
v 0.385343 0.859369 0.804881
vt 0.218995 0.032612
vt 0.219095 0.032612
vt 0.218995 0.032612
vt 0.219095 0.032612
vt 0.218995 0.032612
vt 0.218995 0.032612
vt 0.630374 0.560770
vt 0.630474 0.560770
vt 0.630374 0.560770
vt 0.630274 0.560770
vt 0.630367 0.560870
vt 0.630274 0.560870
vt 0.630274 0.560770
vt 0.630283 0.560770
vt 0.630374 0.560770
vt 0.630281 0.560870
vt 0.630374 0.560770
vt 0.630374 0.560870
vt 0.630374 0.560770
vt 0.630365 0.560770
vt 0.630374 0.560770
vt 0.630374 0.560770
vt 0.630374 0.560770
vt 0.630374 0.560770
vt 0.630374 0.560770
vt 0.630274 0.560770
vt 0.630274 0.560770
vt 0.630274 0.560770
vt 0.630274 0.560770
vt 0.219095 0.032612
vt 0.218995 0.032612
vt 0.219095 0.032612
vt 0.218995 0.032612
vt 0.218995 0.032612
vt 0.218995 0.032612
vt 0.219095 0.032612
vt 0.219095 0.032612
vt 0.630365 0.560770
vt 0.630364 0.560770
vt 0.630283 0.560770
vt 0.630374 0.560770
vt 0.630274 0.560870
vt 0.630374 0.560870
vt 0.630274 0.560870
vt 0.630374 0.560870
vt 0.630274 0.560870
vt 0.630274 0.560870
vt 0.630374 0.560870
vt 0.630374 0.560870
vt 0.219095 0.032612
vt 0.219095 0.032612
vt 0.218995 0.032612
vt 0.219095 0.032612
vt 0.218995 0.032712
vt 0.219095 0.032712
vt 0.630174 0.560870
vt 0.630274 0.560870
vt 0.630174 0.560870
vt 0.630274 0.560870
vt 0.218995 0.032512
vt 0.219095 0.032512
vt 0.218995 0.032712
vt 0.219095 0.032712
vt 0.630474 0.560870
vt 0.630374 0.560870
vt 0.630474 0.560670
vt 0.630374 0.560670
vt 0.630374 0.560870
vt 0.630374 0.560670
vt 0.630374 0.560670
vt 0.630374 0.560670
vt 0.630374 0.560670
vt 0.630374 0.560670
vt 0.630374 0.560870
vt 0.630374 0.560870
vt 0.630374 0.560870
vt 0.630374 0.560670
vt 0.218995 0.032612
vt 0.219095 0.032612
vt 0.219095 0.032612
vt 0.219095 0.032612
vt 0.219095 0.032712
vt 0.219095 0.032612
vt 0.630274 0.560770
vt 0.630374 0.560770
vt 0.630274 0.560870
vt 0.630374 0.560870
vt 0.218995 0.032512
vt 0.219095 0.032512
vt 0.218995 0.032712
vt 0.219095 0.032712
vt 0.219095 0.032712
vt 0.218995 0.032712
vt 0.219095 0.032612
vt 0.218995 0.032612
vt 0.630474 0.560870
vt 0.630474 0.560870
vt 0.630374 0.560870
vt 0.630374 0.560870
vt 0.630374 0.560670
vt 0.630474 0.560670
vt 0.630374 0.560870
vt 0.630474 0.560870
vt 0.630364 0.560861
vt 0.630202 0.560770
vt 0.630204 0.560770
vt 0.630174 0.560770
vt 0.630174 0.560770
vt 0.630274 0.560770
vt 0.630274 0.560770
vt 0.630274 0.560770
vt 0.630284 0.560860
vt 0.630274 0.560770
vt 0.630274 0.560770
vt 0.630284 0.560770
vt 0.630473 0.560770
vt 0.630419 0.560770
vt 0.630435 0.560770
vt 0.630419 0.560770
vt 0.630201 0.560770
vt 0.630474 0.560770
vt 0.630174 0.560770
vt 0.630213 0.560770
vt 0.630474 0.560770
vt 0.630446 0.560770
vt 0.630174 0.560770
vt 0.630229 0.560770
vt 0.630446 0.560770
vt 0.630204 0.560770
vt 0.630233 0.560770
vt 0.630444 0.560770
vn 0.0000 0.7071 -0.7071
vn 0.5000 0.5000 -0.7071
vn 1.0000 0.0000 0.0000
vn 0.7071 0.0000 -0.7071
vn -1.0000 0.0000 0.0000
vn -0.7071 0.0000 -0.7071
vn 0.7071 -0.7071 0.0000
vn -0.7071 -0.7071 0.0000
vn 0.0000 -0.7071 0.7071
vn -0.5000 -0.7071 0.5000
vn 0.5000 -0.7071 0.5000
vn -0.5000 0.5000 -0.7071
vn -0.7071 0.7071 0.0000
vn -0.7071 -0.0000 0.7071
vn 0.0000 -0.0000 1.0000
vn 0.0000 0.0000 -1.0000
vn 0.0000 -1.0000 0.0000
vn -0.5774 0.5773 0.5774
vn 0.5774 0.5773 0.5774
vn 0.0000 0.7071 0.7071
vn 0.7071 -0.0000 0.7071
vn 0.7071 0.7071 0.0000
vn 0.0000 1.0000 0.0000
vn 0.5966 -0.5664 -0.5686
vn 0.6122 -0.5591 -0.5591
vn 0.6110 -0.5597 -0.5599
vn 0.0000 -0.7059 -0.7083
vn -0.0000 -0.7060 -0.7082
vn 0.0001 -0.7058 -0.7084
vn -0.6115 -0.5606 -0.5583
vn -0.5964 -0.5677 -0.5675
vn -0.6109 -0.5609 -0.5587
vn -0.5952 -0.5682 -0.5682
vn 0.5959 -0.5667 -0.5690
vn 0.9995 -0.0231 0.0231
vn 0.9959 -0.0641 0.0641
vn 0.9997 -0.0181 0.0181
vn 0.0000 -0.0948 -0.9955
vn -0.0000 -0.9955 -0.0948
vn -0.0001 -0.7061 -0.7081
vn -0.9995 -0.0229 0.0229
vn -0.9997 -0.0181 0.0181
vn -0.9959 -0.0637 0.0637
vn 0.0000 -0.7082 -0.7060
vn -0.0000 -0.7083 -0.7059
vn 0.0001 -0.7081 -0.7061
vn -0.0001 0.1669 -0.9860
vn -0.0001 0.1668 -0.9860
vn 0.0000 0.1667 -0.9860
vn 0.9959 0.0641 -0.0641
vn 0.9995 0.0231 -0.0231
vn 0.9997 0.0182 -0.0182
vn -0.9997 0.0180 -0.0180
vn 0.0001 -0.9860 0.1669
vn 0.0001 -0.9860 0.1668
vn 0.0000 -0.9860 0.1670
vn 0.0001 -0.7062 -0.7080
vn -0.0001 -0.7081 -0.7061
vn -0.0001 -0.7080 -0.7062
vn 0.0001 -0.7061 -0.7081
vn -0.9959 0.0637 -0.0637
vn -0.9995 0.0229 -0.0229
vn -0.0001 -0.7084 -0.7058
vn -0.0002 0.1670 -0.9860
vn 0.0002 -0.9860 0.1667
usemtl 191,191,191.002
s 1
f 1/1/1 2/2/1 3/3/1
f 3/3/1 2/2/1 4/4/1
f 5/5/2 6/6/2 3/3/2
f 3/3/2 6/6/2 1/1/2
f 39/7/3 7/8/3 11/9/3
f 12/10/3 39/11/3 11/12/3
f 7/13/4 48/14/4 41/15/4
f 36/16/5 14/17/5 24/18/5
f 9/19/6 45/20/6 36/21/6
f 43/22/7 12/23/7 16/24/7
f 16/24/7 12/23/7 17/25/7
f 18/26/8 14/27/8 19/28/8
f 19/28/8 14/27/8 44/29/8
f 20/30/9 21/31/9 22/32/9
f 22/32/9 21/31/9 23/33/9
f 19/34/10 23/33/10 18/35/10
f 18/35/10 23/33/10 21/31/10
f 17/36/11 20/30/11 16/37/11
f 16/37/11 20/30/11 22/32/11
f 12/10/7 46/38/7 40/39/7
f 14/17/8 47/40/8 44/41/8
f 42/42/6 9/43/6 25/44/6
f 25/44/6 9/43/6 26/45/6
f 5/46/4 7/47/4 6/48/4
f 6/48/4 7/47/4 41/49/4
f 2/2/12 25/50/12 4/4/12
f 4/4/12 25/50/12 26/51/12
f 26/52/13 27/53/13 4/54/13
f 4/54/13 27/53/13 28/55/13
f 9/56/5 24/57/5 26/58/5
f 26/58/5 24/57/5 27/59/5
f 27/59/5 24/57/5 18/26/5
f 18/26/5 24/57/5 14/27/5
f 18/60/14 21/61/14 27/62/14
f 27/62/14 21/61/14 29/63/14
f 20/64/15 30/65/15 21/66/15
f 21/66/15 30/65/15 29/67/15
f 6/48/16 41/49/16 1/68/16
f 1/68/16 41/49/16 42/69/16
f 1/68/16 42/69/16 2/70/16
f 2/70/16 42/69/16 25/71/16
f 23/72/17 44/73/17 22/74/17
f 22/74/17 44/73/17 43/75/17
f 22/74/17 43/75/17 16/76/17
f 23/72/17 19/77/17 44/73/17
f 27/78/18 29/79/18 28/80/18
f 31/81/19 32/82/19 30/83/19
f 29/84/20 30/85/20 28/86/20
f 28/86/20 30/85/20 32/87/20
f 20/88/21 17/89/21 30/90/21
f 30/90/21 17/89/21 31/91/21
f 3/92/22 32/93/22 5/94/22
f 5/94/22 32/93/22 31/95/22
f 7/96/3 5/97/3 11/98/3
f 11/98/3 5/97/3 31/99/3
f 11/98/3 31/99/3 17/25/3
f 17/25/3 12/23/3 11/98/3
f 4/100/23 28/101/23 3/102/23
f 3/102/23 28/101/23 32/103/23
f 39/7/24 40/104/25 46/38/26
f 46/105/27 38/106/28 48/107/29
f 9/108/5 36/109/5 24/110/5
f 12/10/3 40/104/3 39/11/3
f 7/13/4 39/111/4 48/14/4
f 36/16/5 35/112/5 14/17/5
f 9/19/6 42/113/6 45/20/6
f 12/10/7 43/114/7 46/38/7
f 14/17/8 35/115/8 47/40/8
f 45/20/30 47/116/31 36/16/32
f 47/116/31 35/115/33 36/16/32
f 46/105/26 48/107/34 39/7/24
f 33/117/35 10/118/36 51/119/37
f 8/120/38 42/121/38 41/122/38
f 13/123/39 44/124/39 15/125/39
f 10/118/38 45/20/38 42/121/38
f 13/123/39 46/105/39 43/126/39
f 46/105/27 37/127/40 38/106/28
f 15/125/39 47/116/39 34/128/39
f 8/120/38 48/107/38 38/106/38
f 38/106/41 52/129/42 8/120/43
f 34/128/44 45/20/45 33/117/46
f 15/125/47 49/130/48 13/123/49
f 15/125/50 34/128/51 50/131/52
f 8/120/38 10/118/38 42/121/38
f 38/106/41 49/130/53 52/129/42
f 52/129/54 10/118/55 8/120/56
f 49/130/57 50/131/58 51/119/59
f 52/129/60 49/130/57 51/119/59
f 13/123/61 49/130/53 37/127/62
f 10/118/38 33/117/38 45/20/38
f 34/128/51 51/119/37 50/131/52
f 13/123/39 43/126/39 44/124/39
f 13/123/39 37/127/39 46/105/39
f 15/125/39 44/124/39 47/116/39
f 8/120/38 41/122/38 48/107/38
f 34/128/44 47/116/63 45/20/45
f 15/125/47 50/131/64 49/130/48
f 38/106/41 37/127/62 49/130/53
f 52/129/54 51/119/65 10/118/55
f 34/128/51 33/117/35 51/119/37
