# Blender v2.83.4 OBJ File: 'TAC_IsoBubbleLargeCollider.blend'
# www.blender.org
mtllib TAC_IsoBubbleLargeCollider.mtl
o Cube.006_Cube.008
v 4.558640 -9.224810 13.737214
v 13.738415 -9.224812 4.557439
v 11.113415 -12.937122 1.932439
v 1.933639 -12.937121 11.112213
v 12.937724 -6.491081 9.224211
v 9.225414 -6.491080 12.936521
v -4.557441 -9.224813 -13.738412
v -1.932442 -12.937122 -11.113413
v 6.446643 -15.670855 2.733130
v -13.737213 -9.224813 -4.558639
v -6.445444 -15.670854 -2.734330
v -11.112213 -12.937123 -1.933638
v 2.625601 -6.491081 -15.671455
v 2.625601 -6.491079 15.670254
v 2.625602 -15.670853 6.490481
v 2.625601 -15.670853 -6.491680
v -2.624399 15.670855 -6.491681
v -2.624401 -6.491083 -15.671454
v -2.624400 -6.491078 15.670254
v -2.624402 6.491082 15.670255
v -2.624402 -15.670854 -6.491681
v 15.671456 2.625001 -6.491682
v 15.671456 6.491080 -2.625603
v 6.491680 -15.670855 -2.625602
v 15.671455 -2.624999 -6.491681
v 15.671455 -6.491081 -2.625603
v 15.671455 2.625001 6.490478
v 15.671455 6.491081 2.624398
v 6.491680 2.625002 15.670254
v 15.671455 -6.491080 2.624398
v 15.671455 -2.625000 6.490479
v 6.491678 -2.624999 15.670256
v -15.670254 6.491082 -2.625598
v -6.490479 15.670855 -2.625599
v -15.670254 -6.491080 -2.625599
v -15.670254 6.491082 2.624403
v -15.670253 2.625000 6.490482
v -15.670256 -6.491081 2.624403
v -15.670254 -2.625000 6.490480
v -9.224210 12.937124 -6.491681
v -9.224209 12.937124 6.490480
v -12.936522 9.224812 -6.491680
v -12.936523 9.224813 6.490481
v 9.225414 12.937122 -6.491682
v 6.491684 15.670854 -2.625602
v 12.937723 9.224813 -6.491680
v 9.225413 12.937123 6.490479
v 6.491684 15.670854 2.624399
v -6.490480 15.670855 2.624401
v 12.937724 9.224812 6.490479
v -6.490481 12.937122 9.224210
v 6.491679 12.937122 9.224209
v -6.490481 9.224813 12.936522
v 6.491679 9.224813 12.936522
v -6.490479 12.937124 -9.225412
v -2.624400 15.670853 6.490479
v -6.490477 9.224812 -12.937723
v -2.624398 6.491079 -15.671456
v 6.491683 12.937122 -9.225411
v 2.625601 15.670854 -6.491682
v 2.625600 15.670855 6.490480
v 2.625602 6.491079 -15.671455
v 6.491683 9.224812 -12.937725
v 2.625600 6.491081 15.670254
v 12.937721 6.491083 9.224208
v -9.224210 -6.491084 -12.937721
v -9.224211 6.491076 -12.937723
v 9.225410 6.491084 12.936521
v -12.936522 6.491077 -9.225412
v -12.936523 -6.491082 -9.225409
v 12.937725 6.491081 -9.225412
v -6.490480 2.624998 -15.671455
v 9.225412 6.491078 -12.937722
v 6.491680 2.625000 -15.671454
v 6.491682 -2.625001 -15.671453
v -6.490479 -2.625003 -15.671453
v -9.224212 6.491082 12.936522
v -6.490479 2.625002 15.670253
v -12.936522 6.491079 9.224211
v -15.670255 2.624998 -6.491678
v -6.490479 -2.624998 15.670255
v -9.224213 -6.491076 12.936523
v -15.670254 -2.625004 -6.491679
v -12.936523 -6.491079 9.224213
v 13.738414 -9.224812 -4.558640
v 4.558640 -9.224813 -13.738414
v 1.933640 -12.937123 -11.113413
v 11.113415 -12.937122 -1.933640
v 9.225411 -6.491082 -12.937723
v 12.937721 -6.491080 -9.225411
v -13.737215 -9.224810 4.557441
v -6.445444 -15.670853 2.733133
v -11.112215 -12.937121 1.932441
v -4.557442 -9.224810 13.737214
v -2.733134 -15.670852 6.445444
v -1.932441 -12.937120 11.112214
vt 0.076547 -0.161809
vt 0.034269 -0.073286
vt -0.025508 -0.107600
vt -0.222870 -0.163915
vt -0.266010 -0.074362
vt -0.326752 -0.108672
vt 0.128693 0.218989
vt 0.034916 0.162175
vt 0.077223 0.073795
vt -0.222354 0.074852
vt -0.161632 0.109082
vt -0.168702 0.220783
vt -0.039377 -0.162228
vt 0.054911 -0.218290
vt -0.072106 -0.162563
vt -0.071816 -0.073671
vt -0.297953 -0.074299
vt -0.321243 -0.220575
vt -0.244951 -0.220934
vt -0.341180 -0.163482
vt -0.175531 -0.108700
vt -0.190421 -0.074271
vt -0.222354 -0.074350
vt 0.002813 -0.073346
vt 0.211836 -0.108225
vt 0.225770 -0.163140
vt 0.273248 -0.108672
vt 0.062588 -0.107368
vt -0.018832 -0.218634
vt 0.123286 -0.107573
vt 0.077223 -0.073298
vt -0.237207 -0.108912
vt 0.128693 -0.218705
vt 0.109101 -0.161966
vt 0.055747 -0.028843
vt -0.018728 -0.028899
vt -0.040230 -0.073509
vt -0.189633 -0.163752
vt 0.150884 0.162701
vt 0.204811 0.219952
vt 0.056487 0.218576
vt 0.002375 0.162299
vt -0.147202 0.163781
vt -0.091646 0.219805
vt 0.108688 0.073871
vt 0.137018 0.108119
vt 0.048895 0.107827
vt -0.243315 0.221213
vt -0.265464 0.164324
vt -0.251148 0.109384
vt -0.190421 0.074773
vt -0.086459 -0.108039
vt 0.258820 -0.163482
vt 0.258484 -0.074131
vt 0.226678 -0.073966
vt 0.108688 -0.073373
vt -0.167077 -0.220485
vt 0.183645 0.163050
vt -0.018832 0.218918
vt -0.114185 0.163427
vt 0.130243 -0.028913
vt 0.055747 0.029366
vt 0.258484 0.074632
vt 0.205050 0.029597
vt -0.040230 0.074007
vt -0.093487 0.029576
vt -0.244184 0.029811
vt -0.244184 -0.029282
vt 0.130243 0.029437
vt -0.146883 0.074588
vt 0.034269 0.073784
vt 0.151754 -0.073552
vt -0.146883 -0.074087
vt -0.168674 -0.029209
vt 0.278757 -0.220575
vt 0.204811 -0.219669
vt -0.321243 0.220857
vt 0.280286 -0.029224
vt -0.319714 -0.029224
vt -0.319714 0.029752
vt -0.341516 0.074632
vt 0.226678 0.074467
vt 0.205050 -0.029070
vt 0.432923 -0.220485
vt -0.093249 -0.219544
vt -0.018728 0.029423
vt -0.071816 0.074170
vt -0.093487 -0.029050
vt 0.356685 0.221213
vt 0.278757 0.220857
vt -0.168674 0.029737
vt 0.151754 0.074051
vt -0.298715 0.164195
vt 0.287155 0.109215
vt 0.183362 -0.073721
vt -0.115099 -0.073916
vt 0.198016 0.108578
vt -0.297953 0.074801
vt -0.312845 0.109215
vt -0.011784 0.107990
vt 0.002813 0.073844
vt -0.100268 0.108617
vt 0.183362 0.074220
vt -0.266010 0.074864
vt -0.115099 0.074416
vt -0.341516 -0.074131
vn 0.5000 -0.7071 0.5000
vn -0.5000 -0.7071 -0.5000
vn 0.7071 0.7071 0.0000
vn -0.7071 0.7071 -0.0000
vn 0.0000 -0.5774 0.8165
vn -0.4889 -0.7168 -0.4972
vn -0.8165 -0.5774 -0.0000
vn 0.0000 -0.5774 -0.8165
vn 0.4889 -0.7168 0.4972
vn 0.8165 -0.5774 -0.0000
vn 0.5091 -0.8607 0.0000
vn 0.8629 -0.3574 0.3574
vn 0.3574 -0.3574 0.8629
vn -0.5054 -0.8629 0.0000
vn 0.3574 0.8629 -0.3574
vn 0.3574 0.8629 0.3574
vn -0.3574 0.8629 0.3574
vn 0.5060 -0.8625 0.0043
vn 1.0000 0.0000 0.0000
vn 0.0000 0.0000 -1.0000
vn -0.0000 -1.0000 0.0000
vn -0.0000 0.0000 1.0000
vn 0.0000 1.0000 -0.0000
vn -1.0000 0.0000 -0.0000
vn 0.8629 0.3574 -0.3574
vn -0.8629 0.3574 0.3574
vn 0.8629 0.3574 0.3574
vn 0.8629 -0.3574 -0.3574
vn -0.8629 -0.3574 0.3574
vn 0.0000 -0.8607 -0.5091
vn -0.3574 0.8629 -0.3574
vn 0.0000 0.7071 -0.7071
vn -0.0000 0.7071 0.7071
vn 0.5000 -0.7071 -0.5000
vn -0.5000 -0.7071 0.5000
vn 0.3574 0.3574 -0.8629
vn -0.3574 0.3574 -0.8629
vn 0.3574 0.3574 0.8629
vn 0.3574 -0.3574 -0.8629
vn 0.0000 -0.8607 0.5091
vn 0.4959 -0.7129 -0.4959
vn -0.0043 -0.8625 0.5060
vn 0.7071 0.0000 -0.7071
vn -0.7071 -0.0000 -0.7071
vn 0.7071 -0.0000 0.7071
vn -0.7071 0.0000 0.7071
vn -0.5773 0.5774 0.5774
vn -0.5774 0.5773 -0.5774
vn 0.5773 0.5774 0.5774
vn -0.8629 0.3574 -0.3574
vn -0.3574 0.3574 0.8629
vn -0.3574 -0.3574 0.8629
vn -0.8629 -0.3574 -0.3574
vn -0.3574 -0.3574 -0.8629
vn 0.5774 0.5774 -0.5774
vn -0.5774 0.5774 0.5774
vn -0.5774 0.5774 -0.5774
vn 0.5774 0.5774 0.5774
vn 0.5774 0.5773 -0.5774
vn 0.5773 0.5774 -0.5774
vn 0.5774 0.5774 -0.5773
usemtl Material.006
s off
f 3/1/1 5/2/1 1/3/1
f 12/4/2 70/5/2 7/6/2
f 45/7/3 47/8/3 28/9/3
f 33/10/4 43/11/4 49/12/4
f 1/3/1 4/13/1 9/14/1
f 96/15/5 1/3/5 19/16/5
f 70/5/2 66/17/2 7/6/2
f 21/18/6 11/19/6 8/20/6
f 91/21/7 38/22/7 35/23/7
f 5/2/1 6/24/1 1/3/1
f 86/25/8 87/26/8 7/27/8
f 3/1/1 2/28/1 5/2/1
f 15/29/9 9/14/9 4/13/9
f 9/14/1 3/1/1 1/3/1
f 11/19/2 12/4/2 7/6/2
f 3/1/10 85/30/10 30/31/10
f 12/4/2 10/32/2 70/5/2
f 3/1/11 24/33/11 88/34/11
f 2/28/12 31/35/12 5/2/12
f 1/3/13 32/36/13 14/37/13
f 11/19/14 93/38/14 12/4/14
f 44/39/15 60/40/15 45/7/15
f 48/41/16 52/42/16 47/8/16
f 41/43/17 56/44/17 49/12/17
f 7/6/2 8/20/2 11/19/2
f 28/9/3 23/45/3 46/46/3
f 46/46/3 44/39/3 45/7/3
f 45/7/3 48/41/3 47/8/3
f 47/8/3 50/47/3 28/9/3
f 28/9/3 46/46/3 45/7/3
f 49/12/4 34/48/4 33/10/4
f 34/48/4 40/49/4 33/10/4
f 40/49/4 42/50/4 33/10/4
f 33/10/4 36/51/4 43/11/4
f 43/11/4 41/43/4 49/12/4
f 19/16/5 94/52/5 96/15/5
f 96/15/5 4/13/5 1/3/5
f 1/3/5 14/37/5 19/16/5
f 35/23/7 10/32/7 91/21/7
f 10/32/7 12/4/7 91/21/7
f 12/4/7 93/38/7 91/21/7
f 87/26/8 8/53/8 7/27/8
f 7/27/8 18/54/8 13/55/8
f 13/55/8 86/25/8 7/27/8
f 30/31/10 2/28/10 3/1/10
f 3/1/10 88/34/10 85/30/10
f 85/30/10 26/56/10 30/31/10
f 3/1/18 9/14/18 24/33/18
f 2/28/12 30/31/12 31/35/12
f 1/3/13 6/24/13 32/36/13
f 11/19/14 92/57/14 93/38/14
f 44/39/15 59/58/15 60/40/15
f 48/41/16 61/59/16 52/42/16
f 41/43/17 51/60/17 56/44/17
usemtl Material
f 25/61/19 23/45/19 27/62/19
f 58/63/20 74/64/20 13/55/20
f 24/33/21 15/29/21 92/57/21
f 32/36/22 64/65/22 78/66/22
f 61/59/23 48/41/23 34/48/23
f 80/67/24 83/68/24 35/23/24
f 22/69/25 46/46/25 23/45/25
f 36/51/26 79/70/26 43/11/26
f 28/9/27 65/71/27 27/62/27
f 26/56/28 90/72/28 25/61/28
f 38/22/29 84/73/29 39/74/29
f 21/75/30 87/26/30 16/76/30
f 17/77/31 40/49/31 34/48/31
f 30/31/19 26/56/19 25/61/19
f 25/61/19 22/69/19 23/45/19
f 23/45/19 28/9/19 27/62/19
f 27/62/19 31/35/19 30/31/19
f 30/31/19 25/61/19 27/62/19
f 13/55/20 18/54/20 76/78/20
f 76/79/20 72/80/20 58/81/20
f 58/63/20 62/82/20 74/64/20
f 74/64/20 75/83/20 13/55/20
f 13/55/20 76/78/20 58/63/20
f 92/57/21 11/19/21 21/18/21
f 21/75/21 16/76/21 92/84/21
f 16/76/21 24/33/21 92/84/21
f 24/33/21 9/14/21 15/29/21
f 15/29/21 95/85/21 92/57/21
f 19/16/22 14/37/22 32/36/22
f 32/36/22 29/86/22 64/65/22
f 64/65/22 20/87/22 78/66/22
f 78/66/22 81/88/22 19/16/22
f 19/16/22 32/36/22 78/66/22
f 48/41/23 45/7/23 34/89/23
f 45/7/23 60/40/23 34/89/23
f 60/40/23 17/90/23 34/89/23
f 34/48/23 49/12/23 56/44/23
f 56/44/23 61/59/23 34/48/23
f 35/23/24 38/22/24 39/74/24
f 39/74/24 37/91/24 35/23/24
f 37/91/24 36/51/24 35/23/24
f 36/51/24 33/10/24 35/23/24
f 33/10/24 80/67/24 35/23/24
f 22/69/25 71/92/25 46/46/25
f 36/51/26 37/91/26 79/70/26
f 28/9/27 50/47/27 65/71/27
f 26/56/28 85/30/28 90/72/28
f 38/22/29 91/21/29 84/73/29
f 21/75/30 8/53/30 87/26/30
f 17/77/31 55/93/31 40/49/31
usemtl Material.010
f 62/82/32 57/94/32 17/90/32
f 61/59/33 51/60/33 20/87/33
f 87/26/34 89/95/34 85/30/34
f 82/96/35 91/21/35 92/57/35
f 63/97/36 74/64/36 62/82/36
f 58/81/37 67/98/37 57/99/37
f 54/100/38 29/86/38 68/101/38
f 89/95/39 13/55/39 75/83/39
f 96/15/40 15/29/40 4/13/40
f 62/82/32 58/63/32 57/94/32
f 57/99/32 55/93/32 17/77/32
f 17/90/32 60/40/32 59/58/32
f 59/58/32 63/97/32 17/90/32
f 63/97/32 62/82/32 17/90/32
f 61/59/33 56/44/33 51/60/33
f 51/60/33 53/102/33 20/87/33
f 20/87/33 64/65/33 54/100/33
f 54/100/33 52/42/33 20/87/33
f 52/42/33 61/59/33 20/87/33
f 24/33/41 16/76/41 87/26/41
f 87/26/34 86/25/34 89/95/34
f 89/95/34 90/72/34 85/30/34
f 85/30/34 88/34/34 87/26/34
f 88/34/41 24/33/41 87/26/41
f 92/57/35 95/85/35 96/15/35
f 96/15/35 94/52/35 82/96/35
f 82/96/35 84/73/35 91/21/35
f 91/21/35 93/38/35 92/57/35
f 92/57/35 96/15/35 82/96/35
f 63/97/36 73/103/36 74/64/36
f 58/81/37 72/80/37 67/98/37
f 54/100/38 64/65/38 29/86/38
f 89/95/39 86/25/39 13/55/39
f 96/15/42 95/85/42 15/29/42
usemtl Material.014
f 75/83/43 73/103/43 22/69/43
f 69/104/44 72/80/44 66/17/44
f 29/86/45 6/24/45 31/35/45
f 77/105/46 79/70/46 37/91/46
f 41/43/47 43/11/47 79/70/47
f 40/49/48 55/93/48 57/99/48
f 47/8/49 52/42/49 54/100/49
f 80/67/50 42/50/50 69/104/50
f 78/66/51 53/102/51 77/105/51
f 94/52/52 81/88/52 82/96/52
f 83/68/53 10/32/53 35/23/53
f 76/79/54 7/6/54 66/17/54
f 63/97/55 44/39/55 71/92/55
f 75/83/43 74/64/43 73/103/43
f 73/103/43 71/92/43 22/69/43
f 22/69/43 25/61/43 75/83/43
f 25/61/43 90/72/43 75/83/43
f 90/72/43 89/95/43 75/83/43
f 83/68/44 80/67/44 69/104/44
f 69/104/44 67/98/44 72/80/44
f 72/80/44 76/79/44 66/17/44
f 66/17/44 70/5/44 83/68/44
f 83/68/44 69/104/44 66/17/44
f 31/35/45 27/62/45 65/71/45
f 65/71/45 68/101/45 29/86/45
f 29/86/45 32/36/45 6/24/45
f 6/24/45 5/2/45 31/35/45
f 31/35/45 65/71/45 29/86/45
f 37/91/46 39/74/46 84/73/46
f 84/73/46 82/96/46 37/91/46
f 82/96/46 81/88/46 37/91/46
f 81/88/46 78/66/46 37/91/46
f 78/66/46 77/105/46 37/91/46
f 79/70/56 77/105/56 41/43/56
f 77/105/56 53/102/56 41/43/56
f 53/102/56 51/60/56 41/43/56
f 57/99/48 67/98/48 69/104/48
f 69/104/57 42/50/57 57/99/57
f 42/50/48 40/49/48 57/99/48
f 54/100/58 68/101/58 47/8/58
f 68/101/58 65/71/58 47/8/58
f 65/71/58 50/47/58 47/8/58
f 80/67/50 33/10/50 42/50/50
f 78/66/51 20/87/51 53/102/51
f 94/52/52 19/16/52 81/88/52
f 83/68/53 70/5/53 10/32/53
f 76/79/54 18/106/54 7/6/54
f 71/92/59 73/103/59 63/97/59
f 63/97/60 59/58/60 44/39/60
f 44/39/61 46/46/61 71/92/61
