# Blender v2.80 (sub 75) OBJ File: ''
# www.blender.org
mtllib YK_Kagerou_Base.mtl
o Base_BF_Block_111.003
v 0.000000 0.000000 -0.650002
v 0.132023 0.132023 -0.550001
v 0.132023 -0.132023 -0.550001
v -0.132023 0.132023 -0.550001
v -0.132023 -0.132023 -0.550001
v 0.330184 0.844211 -0.304081
v 0.000000 0.909889 -0.304081
v 0.000000 0.823608 -0.549867
v 0.297166 0.764498 -0.549867
v -0.330184 -0.750059 -0.304081
v -0.610101 -0.563025 -0.304081
v -0.797135 -0.283108 -0.304081
v -0.862813 0.047076 -0.304081
v -0.797135 0.377260 -0.304081
v -0.610101 0.657177 -0.304081
v -0.330184 0.844211 -0.304081
v 0.610101 0.657177 -0.304081
v 0.797135 0.377261 -0.304081
v 0.862813 0.047076 -0.304081
v 0.797135 -0.283108 -0.304081
v 0.610101 -0.563025 -0.304081
v 0.330184 -0.750059 -0.304081
v 0.000000 -0.815737 -0.304081
v -0.776532 0.047076 -0.549867
v -0.717422 0.344242 -0.549867
v 0.717422 -0.250090 -0.549867
v 0.549091 -0.502015 -0.549867
v -0.297166 0.764498 -0.549867
v 0.717422 0.344242 -0.549867
v 0.776532 0.047076 -0.549867
v -0.549091 0.596167 -0.549867
v 0.297166 -0.670346 -0.549867
v -0.297166 -0.670346 -0.549867
v 0.000000 -0.729456 -0.549867
v 0.549091 0.596167 -0.549867
v -0.717422 -0.250090 -0.549867
v -0.549091 -0.502015 -0.549867
vt 0.428303 0.304254
vt 0.497415 0.373367
vt 0.497416 0.235141
vt 0.359190 0.373367
vt 0.359190 0.235141
vt 0.246276 0.838140
vt 0.310616 0.827617
vt 0.310616 0.835420
vt 0.246276 0.846810
vt 0.246276 0.627678
vt 0.246276 0.619008
vt 0.246276 0.627678
vt 0.246276 0.652369
vt 0.246276 0.689321
vt 0.246276 0.732909
vt 0.246276 0.776497
vt 0.246276 0.813450
vt 0.246276 0.838140
vt 0.246276 0.813450
vt 0.246276 0.776497
vt 0.246276 0.732909
vt 0.246276 0.689321
vt 0.246276 0.652369
vt 0.310616 0.772139
vt 0.310616 0.732909
vt 0.310616 0.660423
vt 0.310616 0.693680
vt 0.310616 0.827617
vt 0.310616 0.732909
vt 0.310616 0.772139
vt 0.310616 0.805396
vt 0.310616 0.638201
vt 0.310616 0.638201
vt 0.310616 0.660423
vt 0.310616 0.693680
vt 0.310616 0.805396
vt 0.310616 0.630398
vn 0.6038 0.0000 -0.7971
vn 0.0000 0.6038 -0.7971
vn -0.6038 0.0000 -0.7971
vn 0.0000 -0.6038 -0.7971
vn 0.3611 0.8717 -0.3312
vn 0.0000 0.9436 -0.3312
vn -0.0000 -0.0000 1.0000
vn -0.8717 0.3611 -0.3312
vn -0.9436 0.0000 -0.3312
vn 0.6672 -0.6672 -0.3312
vn 0.8717 -0.3611 -0.3312
vn -0.3611 0.8717 -0.3312
vn 0.9436 -0.0000 -0.3312
vn 0.8717 0.3611 -0.3312
vn -0.6672 0.6672 -0.3312
vn 0.3611 -0.8717 -0.3312
vn -0.0000 0.0000 -1.0000
vn -0.6672 -0.6672 -0.3312
vn -0.3611 -0.8717 -0.3312
vn -0.0000 -0.9436 -0.3312
vn 0.6672 0.6672 -0.3312
vn -0.8717 -0.3611 -0.3312
usemtl Material
s 1
f 1/1/1 2/2/1 3/3/1
f 2/2/2 1/1/2 4/4/2
f 1/1/3 5/5/3 4/4/3
f 5/5/4 1/1/4 3/3/4
f 6/6/5 9/7/5 8/8/6 7/9/6
f 10/10/7 23/11/7 22/12/7 21/13/7 20/14/7 19/15/7 18/16/7 17/17/7 6/6/7 7/9/7 16/18/7 15/19/7 14/20/7 13/21/7 12/22/7 11/23/7
f 14/20/8 25/24/8 24/25/9 13/21/9
f 21/13/10 27/26/10 26/27/11 20/14/11
f 7/9/6 8/8/6 28/28/12 16/18/12
f 19/15/13 30/29/13 29/30/14 18/16/14
f 15/19/15 31/31/15 25/24/8 14/20/8
f 22/12/16 32/32/16 27/26/10 21/13/10
f 33/33/17 37/34/17 36/35/17 24/25/17 25/24/17 31/31/17 28/28/17 8/8/17 9/7/17 35/36/17 29/30/17 30/29/17 26/27/17 27/26/17 32/32/17 34/37/17
f 11/23/18 37/34/18 33/33/19 10/10/19
f 20/14/11 26/27/11 30/29/13 19/15/13
f 16/18/12 28/28/12 31/31/15 15/19/15
f 23/11/20 34/37/20 32/32/16 22/12/16
f 10/10/19 33/33/19 34/37/20 23/11/20
f 17/17/21 35/36/21 9/7/5 6/6/5
f 12/22/22 36/35/22 37/34/18 11/23/18
f 18/16/14 29/30/14 35/36/21 17/17/21
f 13/21/9 24/25/9 36/35/22 12/22/22
