# Blender v2.80 (sub 75) OBJ File: ''
# www.blender.org
mtllib YK_Kagerou_Barrel.mtl
o Barrel_Cylinder.003
v 0.176897 -1.436601 -0.195823
v 0.176897 -2.046760 -0.195823
v 0.241646 -2.046760 -0.307971
v 0.241646 -1.436601 -0.307971
v 0.241646 -2.046760 -0.437469
v 0.241646 -1.436601 -0.437469
v 0.176897 -2.046760 -0.549617
v 0.176897 -1.436601 -0.549617
v 0.064749 -2.046760 -0.614366
v 0.064749 -1.436601 -0.614366
v -0.064749 -2.046760 -0.614366
v -0.064749 -1.436601 -0.614366
v -0.176897 -2.046760 -0.549617
v -0.176897 -1.436601 -0.549617
v -0.241646 -2.046760 -0.437469
v -0.241646 -1.436601 -0.437469
v -0.241646 -2.046760 -0.307971
v -0.241646 -1.436601 -0.307971
v -0.176897 -2.046760 -0.195823
v -0.176897 -1.436601 -0.195823
v -0.064749 -2.046760 -0.131074
v -0.064749 -1.436601 -0.131074
v 0.064749 -2.046760 -0.131074
v 0.064749 -1.436601 -0.131074
v 0.237772 -1.215439 -0.134948
v 0.237771 -1.539942 -0.134948
v 0.324802 -1.539942 -0.285689
v 0.324802 -1.215439 -0.285689
v 0.324802 -1.539942 -0.459750
v 0.324802 -1.215439 -0.459750
v 0.237772 -1.539942 -0.610492
v 0.237772 -1.215439 -0.610491
v 0.087030 -1.539942 -0.697522
v 0.087030 -1.215439 -0.697522
v -0.087031 -1.539942 -0.697522
v -0.087031 -1.215439 -0.697522
v -0.237772 -1.539942 -0.610492
v -0.237772 -1.215439 -0.610492
v -0.324802 -1.539942 -0.459750
v -0.324802 -1.215439 -0.459750
v -0.324802 -1.539942 -0.285690
v -0.324802 -1.215439 -0.285690
v -0.237772 -1.539942 -0.134948
v -0.237772 -1.215439 -0.134948
v -0.087031 -1.539942 -0.047918
v -0.087031 -1.215439 -0.047918
v 0.087030 -1.539942 -0.047918
v 0.087030 -1.215439 -0.047918
v 0.204531 -1.906289 -0.317916
v 0.204531 -1.906289 -0.427524
v 0.149727 -1.906289 -0.522447
v 0.054804 -1.906289 -0.577251
v -0.054804 -1.906289 -0.577251
v -0.149727 -1.906289 -0.522447
v -0.204531 -1.906289 -0.427524
v -0.204531 -1.906289 -0.317916
v -0.149727 -1.906289 -0.222993
v -0.054804 -1.906289 -0.168189
v 0.054804 -1.906289 -0.168188
v 0.149727 -1.906289 -0.222993
v 0.054804 -1.906289 -0.168188
v 0.149727 -1.906289 -0.222993
v 0.054804 -1.906289 -0.577251
v -0.054804 -1.906289 -0.577251
v 0.204531 -1.906289 -0.317916
v -0.149727 -1.906289 -0.522447
v 0.204531 -1.906289 -0.427524
v -0.204531 -1.906289 -0.427524
v -0.433098 -1.409461 -0.272289
v 0.433099 -1.409461 -0.272289
v 0.433099 -1.380976 -0.038902
v -0.433098 -1.380977 -0.038902
v 0.433099 -1.182438 -0.001734
v -0.433098 -1.182439 -0.001734
v -0.433098 -1.182439 -0.001734
v 0.433099 -1.182438 -0.001734
v 0.433098 -1.004896 0.034157
v -0.433099 -1.004897 0.034157
v 0.433098 -0.829364 -0.010539
v -0.433099 -0.829364 -0.010539
v 0.433098 -0.690607 -0.126969
v -0.433099 -0.690607 -0.126969
v 0.433098 -0.616109 -0.292074
v -0.433099 -0.616109 -0.292074
v 0.433098 -0.618367 -0.372720
v -0.433099 -0.618368 -0.372720
v 0.433099 -1.409461 -0.473151
v 0.433099 -1.409461 -0.473151
v 0.433099 -1.326826 -0.634337
v 0.433099 -1.182438 -0.743706
v 0.433099 -1.004896 -0.779597
v 0.433099 -0.829364 -0.734901
v 0.433098 -0.690607 -0.618470
v 0.433098 -0.616109 -0.453366
v 0.433099 -1.412212 -0.372720
v -0.433098 -1.326826 -0.111103
v -0.433098 -1.409461 -0.272289
v 0.433099 -1.409461 -0.272289
v 0.433099 -1.326826 -0.111103
v -0.433098 -1.412212 -0.372720
v -0.433098 -1.409461 -0.473151
v -0.433098 -1.380977 -0.706537
v 0.433099 -1.380976 -0.706537
v -0.433098 -1.182439 -0.743706
v 0.433099 -1.182438 -0.743706
v -0.433098 -1.182439 -0.743706
v -0.433098 -1.004897 -0.779597
v -0.433098 -0.829364 -0.734901
v -0.433099 -0.690607 -0.618471
v -0.433099 -0.616109 -0.453366
v -0.433098 -1.409461 -0.473151
v -0.433098 -1.326826 -0.634337
v 0.135197 -2.778668 -0.237524
v 0.184682 -2.778668 -0.323235
v 0.184682 -2.778668 -0.422206
v 0.135197 -2.778668 -0.507916
v 0.149727 -1.906289 -0.522447
v 0.049485 -2.778668 -0.557402
v -0.049485 -2.778668 -0.557402
v -0.135196 -2.778668 -0.507916
v -0.184682 -2.778668 -0.422206
v -0.184682 -2.778668 -0.323235
v -0.204531 -1.906289 -0.317916
v -0.135197 -2.778668 -0.237524
v -0.149727 -1.906289 -0.222993
v -0.049485 -2.778668 -0.188039
v -0.054804 -1.906289 -0.168189
v 0.049485 -2.778668 -0.188039
vt 0.431515 0.554391
vt 0.431515 0.494163
vt 0.437906 0.494163
vt 0.437906 0.554391
vt 0.437906 0.494163
vt 0.437906 0.554391
vt 0.431515 0.494163
vt 0.431515 0.554391
vt 0.420445 0.494163
vt 0.420445 0.554391
vt 0.407662 0.494163
vt 0.407662 0.554391
vt 0.396592 0.494163
vt 0.396592 0.554391
vt 0.390201 0.494163
vt 0.390201 0.554391
vt 0.390201 0.494163
vt 0.390201 0.554391
vt 0.396592 0.494163
vt 0.396592 0.554391
vt 0.407662 0.494163
vt 0.407662 0.554391
vt 0.420445 0.494163
vt 0.420445 0.554391
vt 0.621163 0.559778
vt 0.624763 0.559778
vt 0.624763 0.559778
vt 0.621163 0.559778
vt 0.614928 0.559778
vt 0.607728 0.559778
vt 0.601493 0.559778
vt 0.597893 0.559778
vt 0.597893 0.559778
vt 0.601493 0.559778
vt 0.607728 0.559778
vt 0.614928 0.559778
vt 0.624547 0.572074
vt 0.624547 0.554032
vt 0.629386 0.554032
vt 0.629386 0.572074
vt 0.629386 0.554032
vt 0.629386 0.572074
vt 0.624547 0.554032
vt 0.624547 0.572074
vt 0.616167 0.554032
vt 0.616167 0.572074
vt 0.606489 0.554032
vt 0.606489 0.572074
vt 0.598109 0.554032
vt 0.598109 0.572074
vt 0.593270 0.554032
vt 0.593270 0.572074
vt 0.593270 0.554032
vt 0.593270 0.572074
vt 0.598109 0.554032
vt 0.598109 0.572074
vt 0.606489 0.554032
vt 0.606489 0.572074
vt 0.616167 0.554032
vt 0.616167 0.572074
vt 0.245746 0.137180
vt 0.245746 0.137180
vt 0.242699 0.137180
vt 0.237422 0.137180
vt 0.231328 0.137180
vt 0.226051 0.137180
vt 0.223004 0.137180
vt 0.223004 0.137180
vt 0.226051 0.137180
vt 0.231328 0.137180
vt 0.237422 0.137180
vt 0.242699 0.137180
vt 0.237422 0.137180
vt 0.242699 0.137180
vt 0.237422 0.137180
vt 0.231328 0.137180
vt 0.245746 0.137180
vt 0.226051 0.137180
vt 0.245746 0.137180
vt 0.223004 0.137180
vt 0.097015 0.254646
vt 0.145173 0.254646
vt 0.145173 0.256230
vt 0.097015 0.256230
vt 0.145173 0.267268
vt 0.097015 0.267268
vt 0.097015 0.267268
vt 0.145173 0.267268
vt 0.145173 0.277139
vt 0.097015 0.277139
vt 0.145173 0.286898
vt 0.097015 0.286898
vt 0.145173 0.294612
vt 0.097015 0.294612
vt 0.145173 0.298754
vt 0.097015 0.298754
vt 0.145173 0.298628
vt 0.097015 0.298628
vt 0.145173 0.254646
vt 0.145173 0.254646
vt 0.145173 0.259240
vt 0.145173 0.267268
vt 0.145173 0.277139
vt 0.145173 0.286898
vt 0.145173 0.294612
vt 0.145173 0.298754
vt 0.145173 0.254493
vt 0.097015 0.259240
vt 0.097015 0.254646
vt 0.145173 0.254646
vt 0.145173 0.259240
vt 0.097015 0.254493
vt 0.097015 0.254646
vt 0.097015 0.256230
vt 0.145173 0.256230
vt 0.097015 0.267268
vt 0.145173 0.267268
vt 0.097015 0.267268
vt 0.097015 0.277139
vt 0.097015 0.286898
vt 0.097015 0.294612
vt 0.097015 0.298754
vt 0.097015 0.254646
vt 0.097015 0.259240
vt 0.243521 0.049760
vt 0.246869 0.049760
vt 0.246869 0.049760
vt 0.243521 0.049760
vt 0.242699 0.137180
vt 0.237723 0.049760
vt 0.231027 0.049760
vt 0.225229 0.049760
vt 0.221881 0.049760
vt 0.221881 0.049760
vt 0.223004 0.137180
vt 0.225229 0.049760
vt 0.226051 0.137180
vt 0.231027 0.049760
vt 0.231328 0.137180
vt 0.237723 0.049760
vn 0.7071 -0.0000 0.7071
vn 0.9659 -0.0000 0.2588
vn 0.9659 0.0000 -0.2588
vn 0.7071 0.0000 -0.7071
vn 0.2588 0.0000 -0.9659
vn -0.2588 0.0000 -0.9659
vn -0.7071 0.0000 -0.7071
vn -0.9659 0.0000 -0.2588
vn -0.9659 -0.0000 0.2588
vn -0.7071 -0.0000 0.7071
vn -0.2588 -0.0000 0.9659
vn 0.0000 -1.0000 0.0000
vn 0.2588 -0.0000 0.9659
vn 0.0000 1.0000 0.0000
vn 0.0000 0.0000 1.0000
vn 0.0000 0.0000 0.0000
vn 0.0000 -0.9972 0.0743
vn 0.0000 -0.9926 0.1211
vn 0.0000 -0.1840 0.9829
vn 0.0000 -0.0924 0.9957
vn 0.0000 -0.0996 0.9950
vn 0.0000 0.0249 0.9997
vn -0.0000 0.4562 0.8899
vn 0.0000 0.7971 0.6038
vn -0.0000 0.9805 0.1966
vn 1.0000 0.0000 0.0000
vn -1.0000 -0.0000 -0.0000
vn 0.0000 -0.9972 -0.0743
vn 0.0000 -0.9926 -0.1211
vn 0.0000 -0.1840 -0.9829
vn 0.0000 -0.1981 -0.9802
vn 0.0000 0.0249 -0.9997
vn 0.0000 0.4562 -0.8899
vn 0.0000 0.7971 -0.6038
vn -0.0000 0.9805 -0.1966
vn 0.7069 -0.0235 0.7069
vn 0.9657 -0.0235 0.2587
vn 0.9657 -0.0235 -0.2587
vn 0.7069 -0.0235 -0.7069
vn 0.2587 -0.0235 -0.9657
vn -0.2587 -0.0235 -0.9657
vn -0.7069 -0.0235 -0.7069
vn -0.9657 -0.0235 -0.2588
vn -0.9657 -0.0235 0.2587
vn -0.7069 -0.0235 0.7069
vn -0.2587 -0.0236 0.9657
vn 0.2587 -0.0236 0.9657
usemtl Material.005
s 1
f 1/1/1 2/2/1 3/3/2 4/4/2
f 4/4/2 3/3/2 5/5/3 6/6/3
f 6/6/3 5/5/3 7/7/4 8/8/4
f 8/8/4 7/7/4 9/9/5 10/10/5
f 10/10/5 9/9/5 11/11/6 12/12/6
f 12/12/6 11/11/6 13/13/7 14/14/7
f 14/14/7 13/13/7 15/15/8 16/16/8
f 16/16/8 15/15/8 17/17/9 18/18/9
f 18/18/9 17/17/9 19/19/10 20/20/10
f 20/20/10 19/19/10 21/21/11 22/22/11
f 3/3/12 2/2/12 23/23/12 21/21/12 19/19/12 17/17/12 15/15/12 13/13/12 11/11/12 9/9/12 7/7/12 5/5/12
f 22/22/11 21/21/11 23/23/13 24/24/13
f 24/24/13 23/23/13 2/2/1 1/1/1
f 1/25/14 4/26/14 6/27/14 8/28/14 10/29/14 12/30/14 14/31/14 16/32/14 18/33/14 20/34/14 22/35/14 24/36/14
f 25/37/1 26/38/1 27/39/2 28/40/2
f 28/40/2 27/39/2 29/41/3 30/42/3
f 30/42/3 29/41/3 31/43/4 32/44/4
f 32/44/4 31/43/4 33/45/5 34/46/5
f 34/46/5 33/45/5 35/47/6 36/48/6
f 36/48/6 35/47/6 37/49/7 38/50/7
f 38/50/7 37/49/7 39/51/8 40/52/8
f 40/52/8 39/51/8 41/53/9 42/54/9
f 42/54/9 41/53/9 43/55/10 44/56/10
f 44/56/10 43/55/10 45/57/11 46/58/11
f 27/39/12 26/38/12 47/59/12 45/57/12 43/55/12 41/53/12 39/51/12 37/49/12 35/47/12 33/45/12 31/43/12 29/41/12
f 46/58/11 45/57/11 47/59/13 48/60/13
f 48/60/13 47/59/13 26/38/1 25/37/1
f 25/37/14 28/40/14 30/42/14 32/44/14 34/46/14 36/48/14 38/50/14 40/52/14 42/54/14 44/56/14 46/58/14 48/60/14
f 49/61/14 50/62/14 51/63/14 52/64/14 53/65/14 54/66/14 55/67/14 56/68/14 57/69/14 58/70/14 59/71/14 60/72/14
f 59/71/15 61/73/15 62/74/15 60/72/15
f 52/64/15 63/75/15 64/76/15 53/65/15
f 60/72/15 62/74/15 65/77/16 49/61/16
f 53/65/15 64/76/15 66/78/15 54/66/15
f 49/61/16 65/77/16 67/79/16 50/62/16
f 54/66/15 66/78/15 68/80/16 55/67/16
f 69/81/17 70/82/17 71/83/18 72/84/18
f 72/84/19 71/83/19 73/85/20 74/86/20
f 75/87/21 76/88/21 77/89/22 78/90/22
f 78/90/22 77/89/22 79/91/23 80/92/23
f 80/92/23 79/91/23 81/93/24 82/94/24
f 82/94/24 81/93/24 83/95/25 84/96/25
f 84/96/25 83/95/25 85/97/14 86/98/14
f 87/99/26 88/100/26 89/101/26 90/102/26 91/103/26 92/104/26 93/105/26 94/106/26 85/97/26 95/107/26
f 69/81/27 72/84/27 96/108/27 97/109/27
f 71/83/26 70/82/26 98/110/26 99/111/26
f 72/84/27 74/86/27 75/87/27 96/108/27
f 73/85/26 71/83/26 99/111/26 76/88/26
f 74/86/20 73/85/20 76/88/21 75/87/21
f 100/112/12 95/107/12 70/82/17 69/81/17
f 101/113/28 102/114/29 103/115/29 87/99/28
f 102/114/30 104/116/30 105/117/30 103/115/30
f 106/118/31 107/119/32 91/103/32 90/102/31
f 107/119/32 108/120/33 92/104/33 91/103/32
f 108/120/33 109/121/34 93/105/34 92/104/33
f 109/121/34 110/122/35 94/106/35 93/105/34
f 110/122/35 86/98/14 85/97/14 94/106/35
f 101/113/27 111/123/27 112/124/27 102/114/27
f 103/115/26 89/101/26 88/100/26 87/99/26
f 102/114/27 112/124/27 106/118/27 104/116/27
f 105/117/26 90/102/26 89/101/26 103/115/26
f 104/116/15 106/118/15 90/102/15 105/117/15
f 86/98/27 100/112/27 69/81/27 97/109/27 96/108/27 75/87/27 78/90/27 80/92/27 82/94/27 84/96/27
f 85/97/26 83/95/26 81/93/26 79/91/26 77/89/26 76/88/26 99/111/26 98/110/26 70/82/26 95/107/26
f 100/112/12 101/113/28 87/99/28 95/107/12
f 100/112/27 86/98/27 110/122/27 109/121/27 108/120/27 107/119/27 106/118/27 112/124/27 111/123/27 101/113/27
f 62/74/36 113/125/36 114/126/37 65/77/37
f 65/77/37 114/126/37 115/127/38 67/79/38
f 67/79/38 115/127/38 116/128/39 117/129/39
f 117/129/39 116/128/39 118/130/40 63/75/40
f 63/75/40 118/130/40 119/131/41 64/76/41
f 64/76/41 119/131/41 120/132/42 66/78/42
f 66/78/42 120/132/42 121/133/43 68/80/43
f 68/80/43 121/133/43 122/134/44 123/135/44
f 123/135/44 122/134/44 124/136/45 125/137/45
f 125/137/45 124/136/45 126/138/46 127/139/46
f 127/139/46 126/138/46 128/140/47 61/73/47
f 61/73/47 128/140/47 113/125/36 62/74/36
f 51/63/15 117/129/15 63/75/15 52/64/15
f 58/70/15 127/139/15 61/73/15 59/71/15
f 50/62/16 67/79/16 117/129/15 51/63/15
f 57/69/15 125/137/15 127/139/15 58/70/15
f 56/68/16 123/135/16 125/137/15 57/69/15
f 55/67/16 68/80/16 123/135/16 56/68/16
f 120/132/12 119/131/12 118/130/12 116/128/12 115/127/12 114/126/12 113/125/12 128/140/12 126/138/12 124/136/12 122/134/12 121/133/12
o Barrel_Cylinder.001_Barrel_Cylinder.002
v 0.234395 -2.318215 -0.309915
v 0.234395 -2.318215 -0.435526
v 0.171589 -2.318215 -0.544309
v 0.062806 -2.318215 -0.607115
v -0.062806 -2.318215 -0.607115
v -0.171589 -2.318215 -0.544309
v -0.234395 -2.318215 -0.435526
v -0.234395 -2.318215 -0.309915
v -0.171589 -2.318215 -0.201131
v -0.062806 -2.318215 -0.138326
v 0.062806 -2.318215 -0.138326
v 0.171589 -2.318215 -0.201131
v -0.047400 -3.448522 -0.549620
v -0.129498 -3.448522 -0.502220
v -0.197837 -3.268920 -0.570558
v -0.072413 -3.268920 -0.642971
v 0.150394 -2.960617 -0.222327
v 0.205442 -2.960617 -0.317672
v -0.205442 -2.960617 -0.427769
v -0.205442 -2.960617 -0.317672
v 0.055048 -2.960617 -0.578162
v -0.055048 -2.960617 -0.578162
v 0.055048 -2.960617 -0.167279
v 0.205442 -2.960617 -0.427769
v -0.150394 -2.960617 -0.222327
v -0.150394 -2.960617 -0.523115
v 0.150394 -2.960617 -0.523115
v -0.055048 -2.960617 -0.167279
v -0.176899 -3.448522 -0.325321
v -0.129499 -3.448522 -0.243223
v -0.197837 -3.268920 -0.174885
v -0.270249 -3.268920 -0.300308
v -0.047400 -3.448522 -0.195823
v -0.072413 -3.268920 -0.102471
v -0.176899 -3.448522 -0.420121
v -0.270249 -3.268920 -0.445134
v 0.176899 -3.448522 -0.420121
v 0.129499 -3.448522 -0.502220
v 0.197837 -3.268920 -0.570558
v 0.270249 -3.268920 -0.445134
v 0.047400 -3.448522 -0.549620
v 0.072413 -3.268920 -0.642971
v 0.197837 -3.268920 -0.174885
v 0.270249 -3.268920 -0.300308
v 0.129499 -3.448522 -0.243223
v 0.176899 -3.448522 -0.325321
v 0.047400 -3.448522 -0.195823
v 0.072413 -3.268920 -0.102471
v 0.129499 -3.448522 -0.502220
v 0.047400 -3.448522 -0.549620
v -0.129499 -3.448522 -0.243223
v -0.047400 -3.448522 -0.195823
v 0.129499 -3.448522 -0.243223
v 0.176899 -3.448522 -0.325321
v 0.176899 -3.448522 -0.420121
v 0.047400 -3.448522 -0.195823
v -0.047400 -3.448522 -0.549620
v -0.129498 -3.448522 -0.502220
v -0.176899 -3.448522 -0.420121
v -0.176899 -3.448522 -0.325321
v 0.046260 -3.344629 -0.200075
v 0.126386 -3.344629 -0.246335
v 0.046260 -3.344629 -0.545368
v -0.046260 -3.344629 -0.545368
v -0.126386 -3.344629 -0.246335
v -0.046260 -3.344629 -0.200075
v 0.172646 -3.344629 -0.418982
v 0.126386 -3.344629 -0.499107
v -0.126385 -3.344629 -0.499107
v -0.172646 -3.344629 -0.418982
v -0.172646 -3.344629 -0.326461
v -0.069931 -3.270603 -0.442653
v -0.025596 -3.270603 -0.468250
v 0.025596 -3.270603 -0.468250
v 0.069932 -3.270603 -0.442653
v 0.095529 -3.270603 -0.398318
v 0.095529 -3.270603 -0.347124
v 0.069932 -3.270603 -0.302790
v 0.025597 -3.270603 -0.277193
v -0.025597 -3.270603 -0.277193
v -0.069932 -3.270603 -0.302790
v -0.095529 -3.270603 -0.347124
v -0.095529 -3.270603 -0.398318
v 0.172646 -3.344629 -0.326461
vt 0.145461 0.306702
vt 0.145461 0.306702
vt 0.141025 0.306702
vt 0.133342 0.306702
vt 0.124471 0.306702
vt 0.116788 0.306702
vt 0.112352 0.306702
vt 0.112352 0.306702
vt 0.116788 0.306702
vt 0.124471 0.306702
vt 0.133342 0.306702
vt 0.141025 0.306702
vt 0.606027 0.567338
vt 0.600229 0.567338
vt 0.595402 0.573717
vt 0.604261 0.573717
vt 0.139528 0.283886
vt 0.143416 0.283886
vt 0.114397 0.283886
vt 0.114397 0.283886
vt 0.132794 0.283886
vt 0.125019 0.283886
vt 0.132794 0.283886
vt 0.143416 0.283886
vt 0.118285 0.283886
vt 0.118285 0.283886
vt 0.139528 0.283886
vt 0.125018 0.283886
vt 0.596881 0.567338
vt 0.600229 0.567338
vt 0.595402 0.573717
vt 0.590288 0.573717
vt 0.606027 0.567338
vt 0.604261 0.573717
vt 0.596881 0.567338
vt 0.590288 0.573717
vt 0.621869 0.567338
vt 0.618521 0.567338
vt 0.623347 0.573717
vt 0.628462 0.573717
vt 0.612723 0.567338
vt 0.614489 0.573717
vt 0.623885 0.584667
vt 0.619997 0.584667
vt 0.623347 0.573717
vt 0.628462 0.573717
vt 0.618521 0.567338
vt 0.621869 0.567338
vt 0.623885 0.584667
vt 0.612723 0.567338
vt 0.614489 0.573717
vt 0.619997 0.584667
vt 0.613263 0.584667
vt 0.605487 0.584667
vt 0.598753 0.584667
vt 0.594865 0.584667
vt 0.594865 0.584667
vt 0.598753 0.584667
vt 0.605487 0.584667
vt 0.613263 0.584667
vt 0.407742 0.485152
vt 0.417207 0.490616
vt 0.417207 0.490616
vt 0.407742 0.485152
vt 0.396813 0.525940
vt 0.387349 0.520475
vt 0.387349 0.520475
vt 0.396813 0.525940
vt 0.422672 0.511010
vt 0.417207 0.520475
vt 0.417207 0.520475
vt 0.422672 0.511010
vt 0.422672 0.500081
vt 0.422672 0.500081
vt 0.407742 0.525940
vt 0.407742 0.525940
vt 0.396813 0.485152
vt 0.396813 0.485152
vt 0.387349 0.490616
vt 0.387349 0.490616
vt 0.381884 0.511010
vt 0.381884 0.500081
vt 0.381884 0.500081
vt 0.381884 0.511010
vt 0.407611 0.525449
vt 0.416848 0.520116
vt 0.407611 0.485642
vt 0.396945 0.485642
vt 0.387707 0.520116
vt 0.396945 0.525449
vt 0.422182 0.500213
vt 0.416848 0.490975
vt 0.387707 0.490975
vt 0.382374 0.500213
vt 0.382374 0.510879
vt 0.394216 0.497484
vt 0.399327 0.494533
vt 0.405229 0.494533
vt 0.410340 0.497484
vt 0.413291 0.502595
vt 0.413291 0.508497
vt 0.410340 0.513608
vt 0.405229 0.516559
vt 0.399327 0.516559
vt 0.394216 0.513608
vt 0.391265 0.508497
vt 0.391265 0.502595
vt 0.422182 0.510879
vn 0.0000 1.0000 0.0000
vn -0.2279 -0.4739 -0.8506
vn -0.6227 -0.4739 -0.6227
vn 0.9649 -0.0466 0.2585
vn 0.7063 -0.0466 0.7063
vn -0.9649 -0.0466 0.2585
vn -0.9649 -0.0466 -0.2585
vn -0.2585 -0.0466 -0.9649
vn 0.2585 -0.0466 -0.9649
vn 0.2585 -0.0466 0.9649
vn 0.9649 -0.0466 -0.2585
vn -0.7063 -0.0466 0.7063
vn -0.7063 -0.0466 -0.7063
vn 0.7063 -0.0466 -0.7063
vn -0.2585 -0.0466 0.9649
vn -0.8506 -0.4739 0.2279
vn -0.6227 -0.4739 0.6227
vn -0.2279 -0.4739 0.8506
vn -0.8506 -0.4739 -0.2279
vn 0.8506 -0.4739 -0.2279
vn 0.6227 -0.4739 -0.6227
vn 0.2279 -0.4739 -0.8506
vn 0.9438 0.2126 0.2529
vn 0.6909 0.2126 0.6909
vn 0.8506 -0.4739 0.2279
vn 0.6227 -0.4739 0.6227
vn 0.9438 0.2126 -0.2529
vn 0.2279 -0.4739 0.8506
vn 0.6909 0.2126 -0.6909
vn 0.2529 0.2126 -0.9438
vn -0.2529 0.2126 -0.9438
vn -0.6909 0.2126 -0.6909
vn -0.9438 0.2126 -0.2529
vn -0.9438 0.2126 0.2529
vn -0.6909 0.2126 0.6909
vn -0.2529 0.2126 0.9438
vn 0.2529 0.2126 0.9438
vn 0.0000 0.0000 1.0000
vn 0.0000 0.0000 0.0000
vn -0.7065 -0.0423 -0.7065
vn -0.2586 -0.0423 -0.9651
vn -0.2375 -0.3972 -0.8865
vn -0.6489 -0.3972 -0.6489
vn 0.2586 -0.0423 0.9651
vn -0.2586 -0.0423 0.9651
vn -0.2375 -0.3972 0.8865
vn 0.2375 -0.3972 0.8865
vn 0.2586 -0.0423 -0.9651
vn 0.7065 -0.0423 -0.7065
vn 0.6489 -0.3972 -0.6489
vn 0.2375 -0.3972 -0.8865
vn -0.7065 -0.0423 0.7065
vn -0.9651 -0.0423 0.2586
vn -0.8865 -0.3972 0.2375
vn -0.6489 -0.3972 0.6489
vn 0.9651 -0.0423 0.2586
vn 0.7065 -0.0423 0.7065
vn 0.6489 -0.3972 0.6489
vn 0.8865 -0.3972 0.2375
vn 0.9651 -0.0423 -0.2586
vn 0.8865 -0.3972 -0.2375
vn 0.2938 -0.9096 0.2938
vn 0.1075 -0.9096 0.4013
vn -0.1075 -0.9096 0.4013
vn -0.2938 -0.9096 0.2938
vn -0.4013 -0.9096 0.1075
vn -0.4013 -0.9096 -0.1075
vn -0.2938 -0.9096 -0.2938
vn -0.1075 -0.9096 -0.4013
vn 0.1075 -0.9096 -0.4013
vn 0.2938 -0.9096 -0.2938
vn 0.4013 -0.9096 -0.1075
vn 0.4013 -0.9096 0.1075
vn -0.9651 -0.0423 -0.2586
vn -0.8865 -0.3972 -0.2375
usemtl Material.005
s 1
f 129/141/48 130/142/48 131/143/48 132/144/48 133/145/48 134/146/48 135/147/48 136/148/48 137/149/48 138/150/48 139/151/48 140/152/48
f 141/153/49 142/154/50 143/155/50 144/156/49
f 129/141/51 140/152/52 145/157/52 146/158/51
f 136/148/53 135/147/54 147/159/54 148/160/53
f 133/145/55 132/144/56 149/161/56 150/162/55
f 140/152/52 139/151/57 151/163/57 145/157/52
f 130/142/58 129/141/51 146/158/51 152/164/58
f 137/149/59 136/148/53 148/160/53 153/165/59
f 134/146/60 133/145/55 150/162/55 154/166/60
f 131/143/61 130/142/58 152/164/58 155/167/61
f 138/150/62 137/149/59 153/165/59 156/168/62
f 135/147/54 134/146/60 154/166/60 147/159/54
f 132/144/56 131/143/61 155/167/61 149/161/56
f 139/151/57 138/150/62 156/168/62 151/163/57
f 157/169/63 158/170/64 159/171/64 160/172/63
f 158/170/64 161/173/65 162/174/65 159/171/64
f 142/154/50 163/175/66 164/176/66 143/155/50
f 165/177/67 166/178/68 167/179/68 168/180/67
f 163/175/66 157/169/63 160/172/63 164/176/66
f 169/181/69 141/153/49 144/156/49 170/182/69
f 166/178/68 169/181/69 170/182/69 167/179/68
f 146/183/70 145/184/71 171/185/71 172/186/70
f 172/186/72 171/185/73 173/187/73 174/188/72
f 152/189/74 146/183/70 172/186/70 168/180/74
f 161/173/65 175/190/75 176/191/75 162/174/65
f 155/192/76 152/189/74 168/180/74 167/179/76
f 149/193/77 155/192/76 167/179/76 170/182/77
f 150/194/78 149/193/77 170/182/77 144/156/78
f 154/195/79 150/194/78 144/156/78 143/155/79
f 147/196/80 154/195/79 143/155/79 164/176/80
f 148/197/81 147/196/80 164/176/80 160/172/81
f 153/198/82 148/197/81 160/172/81 159/171/82
f 156/199/83 153/198/82 159/171/82 162/174/83
f 151/200/84 156/199/83 162/174/83 176/191/84
f 145/184/71 151/200/84 176/191/84 171/185/71
f 169/201/85 166/202/85 177/203/85 178/204/85
f 161/205/85 158/206/85 179/207/85 180/208/85
f 174/209/86 173/210/85 181/211/85 182/212/86
f 166/202/85 165/213/86 183/214/86 177/203/85
f 173/210/85 175/215/85 184/216/85 181/211/85
f 141/217/85 169/201/85 178/204/85 185/218/85
f 174/188/72 165/177/67 168/180/67 172/186/72
f 175/190/75 173/187/73 171/185/73 176/191/75
f 142/219/85 141/217/85 185/218/85 186/220/85
f 157/221/86 163/222/86 187/223/86 188/224/86
f 175/215/85 161/205/85 180/208/85 184/216/85
f 163/222/86 142/219/85 186/220/85 187/223/86
f 165/213/86 174/209/86 182/212/86 183/214/86
f 158/206/85 157/221/86 188/224/86 179/207/85
f 181/211/87 184/216/88 189/225/89 190/226/90
f 185/218/91 178/204/92 191/227/93 192/228/94
f 180/208/95 179/207/96 193/229/97 194/230/98
f 184/216/88 180/208/95 194/230/98 189/225/89
f 177/203/99 183/214/100 195/231/101 196/232/102
f 187/223/103 186/220/104 197/233/105 198/234/106
f 179/207/96 188/224/107 199/235/108 193/229/97
f 178/204/92 177/203/99 196/232/102 191/227/93
f 200/236/109 201/237/110 202/238/111 203/239/112 204/240/113 205/241/114 206/242/115 207/243/116 208/244/117 209/245/118 210/246/119 211/247/120
f 182/212/121 181/211/87 190/226/90 212/248/122
f 183/214/100 182/212/121 212/248/122 195/231/101
f 188/224/107 187/223/103 198/234/106 199/235/108
f 201/237/110 200/236/109 197/233/105 192/228/94
f 210/246/119 209/245/118 193/229/97 199/235/108
f 209/245/118 208/244/117 194/230/98 193/229/97
f 200/236/109 211/247/120 198/234/106 197/233/105
f 204/240/113 203/239/112 196/232/102 195/231/101
f 199/235/108 198/234/106 211/247/120 210/246/119
f 192/228/94 191/227/93 202/238/111 201/237/110
f 203/239/112 202/238/111 191/227/93 196/232/102
f 206/242/115 205/241/114 212/248/122 190/226/90
f 208/244/117 207/243/116 189/225/89 194/230/98
f 195/231/101 212/248/122 205/241/114 204/240/113
f 190/226/90 189/225/89 207/243/116 206/242/115
f 186/220/104 185/218/91 192/228/94 197/233/105
