# Blender v2.81 (sub 16) OBJ File: ''
# www.blender.org
mtllib Besiege_StartBlock3.mtl
o besiege_startblock
v -0.579290 -0.348805 0.349665
v -0.579290 0.350525 0.349665
v -0.579290 0.350525 -0.349665
v -0.579290 -0.348805 -0.349665
v -0.533880 -0.361735 0.394035
v -0.533880 -0.393175 0.362595
v -0.533880 -0.393175 -0.362595
v -0.533880 -0.361735 -0.394035
v -0.533880 0.363455 0.394035
v -0.533880 0.394895 0.362595
v -0.533880 0.394895 -0.362595
v -0.533880 0.363455 -0.394035
v -0.495290 -0.393175 0.362595
v -0.495290 -0.361735 0.394035
v -0.495290 0.363455 0.394035
v -0.495290 0.394895 -0.362595
v -0.495290 0.363455 -0.394035
v -0.495290 -0.393175 -0.362595
v -0.495290 0.394895 0.362595
v -0.495290 -0.361735 -0.394035
v 0.531590 -0.361735 -0.394035
v 0.531590 -0.393175 -0.362595
v 0.493000 -0.393175 -0.362595
v 0.493000 -0.361735 -0.394035
v 0.531590 -0.393175 0.362595
v 0.493000 -0.393175 0.362595
v 0.531590 -0.361735 0.394035
v 0.531590 0.363455 0.394035
v 0.493000 0.363455 0.394035
v 0.493000 -0.361735 0.394035
v 0.531590 0.394890 0.362595
v 0.493000 0.394890 0.362595
v 0.531590 0.363455 -0.394035
v 0.493000 0.363455 -0.394035
v 0.531590 0.394895 -0.362595
v 0.493000 0.394895 -0.362595
v 0.576995 -0.348805 0.349665
v 0.577000 0.350525 0.349665
v 0.577000 -0.348805 -0.349665
v 0.577000 0.350525 -0.349665
v -0.350810 -0.577285 -0.349665
v 0.348520 -0.577285 -0.349665
v 0.348520 -0.577285 0.349665
v -0.350810 -0.577285 0.349665
v -0.363740 -0.531875 -0.394035
v -0.395180 -0.531875 -0.362595
v -0.395180 -0.531875 0.362595
v -0.363740 -0.531875 0.394035
v 0.361450 -0.531875 -0.394030
v 0.392890 -0.531875 -0.362595
v 0.392890 -0.531875 0.362595
v 0.361450 -0.531875 0.394035
v -0.395180 -0.493285 -0.362595
v -0.363740 -0.493285 -0.394035
v 0.361450 -0.493285 -0.394030
v 0.392890 -0.493285 0.362595
v 0.361450 -0.493285 0.394035
v -0.395180 -0.493285 0.362595
v 0.392890 -0.493285 -0.362595
v -0.363740 -0.493285 0.394035
v -0.395180 0.533595 -0.362595
v -0.363740 0.533595 -0.394035
v -0.363740 0.495005 -0.394035
v -0.395180 0.495005 -0.362595
v 0.361450 0.533595 -0.394035
v 0.361450 0.495005 -0.394035
v 0.392890 0.533595 -0.362595
v 0.392890 0.533595 0.362595
v 0.392890 0.495005 0.362595
v 0.392890 0.495005 -0.362595
v 0.361450 0.533595 0.394035
v 0.361450 0.495005 0.394035
v -0.395180 0.533595 0.362595
v -0.395180 0.495005 0.362595
v -0.363740 0.533595 0.394035
v -0.363740 0.495005 0.394035
v 0.348520 0.579000 -0.349665
v 0.348520 0.579005 0.349665
v -0.350810 0.579005 -0.349665
v -0.350810 0.579005 0.349665
v -0.350810 0.350525 0.578145
v -0.350810 -0.348805 0.578145
v 0.348520 -0.348805 0.578145
v 0.348520 0.350525 0.578145
v -0.395180 0.363455 0.532735
v -0.363740 0.394895 0.532735
v 0.361450 0.394895 0.532735
v 0.392885 0.363455 0.532735
v -0.395180 -0.361735 0.532735
v -0.363740 -0.393175 0.532735
v 0.361450 -0.393175 0.532735
v 0.392890 -0.361735 0.532735
v -0.363740 0.394895 0.494145
v -0.395180 0.363455 0.494145
v -0.395180 -0.361735 0.494145
v 0.361450 -0.393175 0.494145
v 0.392890 -0.361735 0.494145
v 0.361450 0.394895 0.494145
v -0.363740 -0.393175 0.494145
v 0.392885 0.363455 0.494145
v 0.361450 -0.393175 -0.532735
v 0.392885 -0.361735 -0.532735
v 0.392885 -0.361735 -0.494145
v 0.361450 -0.393175 -0.494145
v 0.392890 0.363455 -0.532735
v 0.392890 0.363455 -0.494145
v 0.361450 0.394895 -0.532735
v -0.363740 0.394895 -0.532735
v -0.363740 0.394895 -0.494145
v 0.361450 0.394895 -0.494145
v -0.395180 0.363455 -0.532735
v -0.395180 0.363455 -0.494145
v -0.363740 -0.393175 -0.532735
v -0.363740 -0.393175 -0.494145
v -0.395180 -0.361735 -0.532735
v -0.395180 -0.361735 -0.494145
v 0.348520 0.350525 -0.578140
v -0.350810 0.350525 -0.578145
v 0.348520 -0.348805 -0.578145
v -0.350810 -0.348805 -0.578145
v -0.460110 0.460110 -0.500000
v 0.460110 0.460110 -0.500000
v 0.358135 0.358135 -0.500000
v -0.358135 0.358135 -0.500000
v 0.500000 0.460105 0.460105
v 0.500000 -0.460110 0.460105
v 0.500000 -0.358135 0.358135
v 0.500000 0.358135 0.358135
v 0.460105 -0.500000 0.460105
v 0.460110 -0.500000 -0.460110
v 0.500000 -0.460105 -0.460110
v 0.460110 -0.460105 -0.500000
v -0.500000 0.460110 0.460110
v -0.500000 0.460110 -0.460105
v -0.500000 0.358135 -0.358135
v -0.500000 0.358135 0.358135
v -0.500000 -0.460105 -0.460110
v -0.460105 -0.460105 -0.500000
v 0.500000 0.460110 -0.460105
v -0.358135 -0.358135 -0.500000
v 0.358135 -0.358135 -0.500000
v -0.500000 -0.460105 0.460105
v -0.500000 -0.358135 0.358135
v -0.500000 -0.358135 -0.358135
v 0.460105 -0.460105 0.500000
v 0.460105 0.460110 0.500000
v -0.460110 0.460110 0.500000
v -0.358135 0.358135 0.500000
v 0.358135 0.358135 0.500000
v 0.358135 -0.358135 0.500000
v 0.460105 0.500000 0.460105
v -0.460110 -0.460105 0.500000
v -0.358135 -0.358135 0.500000
v -0.460110 -0.500000 0.460105
v 0.500000 -0.358135 -0.358135
v 0.500000 0.358135 -0.358135
v -0.460110 0.500000 -0.460110
v -0.460110 0.500000 0.460105
v -0.358135 0.500000 0.358135
v -0.358135 0.500000 -0.358135
v 0.460105 0.500000 -0.460105
v 0.358135 0.500000 -0.358135
v -0.460110 -0.500000 -0.460110
v -0.358135 -0.500000 0.358135
v 0.358135 -0.500000 0.358135
v 0.358135 0.500000 0.358135
v -0.358135 -0.500000 -0.358135
v 0.358135 -0.500000 -0.358135
vt 0.658378 0.338068
vt 0.656755 0.893728
vt 0.101729 0.903201
vt 0.108813 0.341720
vt 0.710763 0.315020
vt 0.680758 0.285075
vt 0.084169 0.289067
vt 0.055667 0.320442
vt 0.710162 0.916022
vt 0.680384 0.946182
vt 0.079063 0.957037
vt 0.048548 0.926548
vt 0.700929 0.248490
vt 0.746712 0.289542
vt 0.746806 0.936194
vt 0.058587 0.994318
vt 0.011829 0.952444
vt 0.063637 0.254767
vt 0.706041 0.981778
vt 0.017425 0.295461
vt 0.084169 0.289067
vt 0.055667 0.320442
vt 0.017425 0.295461
vt 0.063637 0.254767
vt 0.048548 0.926548
vt 0.011829 0.952444
vt 0.079063 0.957037
vt 0.680384 0.946182
vt 0.706041 0.981778
vt 0.058587 0.994318
vt 0.710162 0.916022
vt 0.746806 0.936194
vt 0.680758 0.285075
vt 0.700929 0.248490
vt 0.710763 0.315020
vt 0.746712 0.289542
vt 0.101729 0.903201
vt 0.656755 0.893728
vt 0.108813 0.341720
vt 0.658378 0.338068
vt 0.658378 0.338068
vt 0.656755 0.893728
vt 0.101729 0.903201
vt 0.108813 0.341720
vt 0.710763 0.315020
vt 0.680758 0.285075
vt 0.084169 0.289067
vt 0.055667 0.320442
vt 0.710162 0.916022
vt 0.680384 0.946182
vt 0.079063 0.957037
vt 0.048548 0.926548
vt 0.700929 0.248490
vt 0.746712 0.289542
vt 0.746806 0.936194
vt 0.058587 0.994318
vt 0.011829 0.952444
vt 0.063637 0.254767
vt 0.706041 0.981778
vt 0.017425 0.295461
vt 0.084169 0.289067
vt 0.055667 0.320442
vt 0.017425 0.295461
vt 0.063637 0.254767
vt 0.048548 0.926548
vt 0.011829 0.952444
vt 0.079063 0.957037
vt 0.680384 0.946182
vt 0.706041 0.981778
vt 0.058587 0.994318
vt 0.710162 0.916022
vt 0.746806 0.936194
vt 0.680758 0.285075
vt 0.700929 0.248490
vt 0.710763 0.315020
vt 0.746712 0.289542
vt 0.101729 0.903201
vt 0.656755 0.893728
vt 0.108813 0.341720
vt 0.658378 0.338068
vt 0.658378 0.338068
vt 0.656755 0.893728
vt 0.101729 0.903201
vt 0.108813 0.341720
vt 0.710763 0.315020
vt 0.680758 0.285075
vt 0.084169 0.289067
vt 0.055667 0.320442
vt 0.710162 0.916022
vt 0.680384 0.946182
vt 0.079063 0.957037
vt 0.048548 0.926548
vt 0.700929 0.248490
vt 0.746712 0.289542
vt 0.746806 0.936194
vt 0.058587 0.994318
vt 0.011829 0.952444
vt 0.063637 0.254767
vt 0.706041 0.981778
vt 0.017425 0.295461
vt 0.084169 0.289067
vt 0.055667 0.320442
vt 0.017425 0.295461
vt 0.063637 0.254767
vt 0.048548 0.926548
vt 0.011829 0.952444
vt 0.079063 0.957037
vt 0.680384 0.946182
vt 0.706041 0.981778
vt 0.058587 0.994318
vt 0.710162 0.916022
vt 0.746806 0.936194
vt 0.680758 0.285075
vt 0.700929 0.248490
vt 0.710763 0.315020
vt 0.746712 0.289542
vt 0.101729 0.903201
vt 0.656755 0.893728
vt 0.108813 0.341720
vt 0.658378 0.338068
vt 0.976225 0.123771
vt 0.029803 0.125019
vt 0.130835 0.017703
vt 0.866568 0.015396
vt 0.976225 0.123771
vt 0.029803 0.125019
vt 0.130835 0.017703
vt 0.866568 0.015396
vt 0.975610 0.182981
vt 0.029071 0.182249
vt 0.029803 0.125019
vt 0.976225 0.123771
vt 0.057213 0.239571
vt 0.027980 0.188937
vt 0.086447 0.188937
vt 0.976225 0.123771
vt 0.029803 0.125019
vt 0.130835 0.017703
vt 0.866568 0.015396
vt 0.975610 0.182981
vt 0.029071 0.182249
vt 0.029803 0.125019
vt 0.976225 0.123771
vt 0.029803 0.125019
vt 0.976225 0.123771
vt 0.975610 0.182981
vt 0.029071 0.182249
vt 0.976225 0.123771
vt 0.029803 0.125019
vt 0.130835 0.017703
vt 0.866568 0.015396
vt 0.130835 0.017703
vt 0.866568 0.015396
vt 0.130835 0.017703
vt 0.866568 0.015396
vt 0.976225 0.123771
vt 0.029803 0.125019
vt 0.130835 0.017703
vt 0.866568 0.015396
vt 0.976225 0.123771
vt 0.029803 0.125019
vt 0.130835 0.017703
vt 0.866568 0.015396
vt 0.976225 0.123771
vt 0.029803 0.125019
vt 0.130835 0.017703
vt 0.866568 0.015396
vt 0.027980 0.188937
vt 0.086447 0.188937
vt 0.057213 0.239571
vt 0.976225 0.123771
vt 0.029803 0.125019
vt 0.130835 0.017703
vt 0.866568 0.015396
vt 0.976225 0.123771
vt 0.029803 0.125019
vt 0.130835 0.017703
vt 0.866568 0.015396
vt 0.027980 0.188937
vt 0.086447 0.188937
vt 0.057213 0.239571
vt 0.975610 0.182981
vt 0.029071 0.182249
vt 0.976225 0.123771
vt 0.029803 0.125019
vt 0.130835 0.017703
vt 0.866568 0.015396
vt 0.976225 0.123771
vt 0.029803 0.125019
vt 0.130835 0.017703
vt 0.866568 0.015396
vt 0.027980 0.188937
vt 0.086447 0.188937
vt 0.057213 0.239571
vt 0.975610 0.182981
vt 0.029071 0.182249
vt 0.975610 0.182981
vt 0.029071 0.182249
vt 0.130835 0.017703
vt 0.866568 0.015396
vt 0.976225 0.123771
vt 0.029803 0.125019
vt 0.130835 0.017703
vt 0.866568 0.015396
vt 0.976225 0.123771
vt 0.029803 0.125019
vt 0.130835 0.017703
vt 0.866568 0.015396
vt 0.976225 0.123771
vt 0.029803 0.125019
vt 0.130835 0.017703
vt 0.866568 0.015396
vt 0.976225 0.123771
vt 0.029803 0.125019
vt 0.130835 0.017703
vt 0.866568 0.015396
vt 0.975610 0.182981
vt 0.029071 0.182249
vt 0.027980 0.188937
vt 0.086447 0.188937
vt 0.057213 0.239571
vt 0.975610 0.182981
vt 0.029071 0.182249
vt 0.975610 0.182981
vt 0.029071 0.182249
vt 0.027980 0.188937
vt 0.086447 0.188937
vt 0.057213 0.239571
vt 0.028748 0.188875
vt 0.086784 0.189384
vt 0.057326 0.239390
vt 0.975610 0.182981
vt 0.029071 0.182249
vt 0.975610 0.182981
vt 0.029071 0.182249
vt 0.027980 0.188937
vt 0.086447 0.188937
vt 0.057213 0.239571
vt 0.975610 0.182981
vt 0.029071 0.182249
vt 0.976225 0.123771
vt 0.029803 0.125019
vt 0.130835 0.017703
vt 0.866568 0.015396
vt 0.976225 0.123771
vt 0.029803 0.125019
vt 0.130835 0.017703
vt 0.866568 0.015396
vt 0.976225 0.123771
vt 0.029803 0.125019
vt 0.130835 0.017703
vt 0.866568 0.015396
vt 0.976225 0.123771
vt 0.029803 0.125019
vt 0.130835 0.017703
vt 0.866568 0.015396
vt 0.976225 0.123771
vt 0.029803 0.125019
vt 0.130835 0.017703
vt 0.866568 0.015396
vt 0.976225 0.123771
vt 0.029803 0.125019
vt 0.130835 0.017703
vt 0.866568 0.015396
vn -1.0000 -0.0000 0.0000
vn -0.6658 -0.5276 0.5276
vn -0.6658 -0.5276 -0.5276
vn -0.6658 0.5276 0.5276
vn -0.6658 0.5276 -0.5276
vn -0.6989 -0.7153 -0.0000
vn -0.6989 -0.0000 0.7153
vn -0.6989 0.0000 -0.7153
vn -0.6989 0.7153 0.0000
vn 0.0000 -0.7071 0.7071
vn 0.0000 -0.0000 1.0000
vn 0.0000 0.7071 -0.7071
vn 0.0000 -1.0000 -0.0000
vn 0.0000 0.7071 0.7071
vn 0.0000 1.0000 0.0000
vn 0.0000 0.0000 -1.0000
vn 0.0000 -0.7071 -0.7071
vn 0.0000 0.7072 0.7071
vn 0.6989 -0.0000 0.7152
vn 0.6989 -0.7152 0.0000
vn 0.6988 0.7153 0.0000
vn 0.6989 0.0000 -0.7153
vn 0.6658 -0.5276 0.5276
vn 0.6657 0.5277 0.5276
vn 0.6658 -0.5276 -0.5276
vn 0.6658 0.5276 -0.5276
vn 1.0000 -0.0000 0.0000
vn -0.5276 -0.6658 -0.5276
vn -0.5276 -0.6658 0.5276
vn 0.5276 -0.6657 -0.5277
vn 0.5276 -0.6658 0.5276
vn -0.7152 -0.6989 -0.0000
vn 0.0000 -0.6988 -0.7153
vn 0.0000 -0.6989 0.7152
vn 0.7152 -0.6989 -0.0000
vn -0.7071 0.0000 -0.7071
vn 0.7071 0.0000 0.7071
vn 0.7071 0.0000 -0.7072
vn -0.7071 0.0000 0.7071
vn 0.7071 0.0000 -0.7071
vn 0.7152 0.6989 -0.0000
vn 0.0000 0.6989 -0.7152
vn 0.0000 0.6989 0.7152
vn -0.7152 0.6989 0.0000
vn 0.5276 0.6658 -0.5276
vn 0.5276 0.6658 0.5276
vn -0.5276 0.6658 -0.5276
vn -0.5276 0.6658 0.5276
vn -0.5276 0.5276 0.6658
vn 0.5277 0.5276 0.6657
vn -0.5276 -0.5276 0.6658
vn 0.5276 -0.5276 0.6658
vn 0.0000 0.7152 0.6989
vn -0.7153 -0.0000 0.6989
vn 0.7153 0.0000 0.6988
vn 0.0000 -0.7152 0.6989
vn -0.7071 0.7071 0.0000
vn 0.7071 -0.7071 0.0000
vn -0.7071 -0.7071 0.0000
vn 0.7072 0.7071 0.0000
vn 0.7072 -0.7071 0.0000
vn 0.7071 0.7071 0.0000
vn 0.0000 0.7152 -0.6989
vn 0.7153 0.0000 -0.6989
vn -0.7153 0.0000 -0.6989
vn 0.0000 -0.7152 -0.6989
vn 0.5276 0.5276 -0.6658
vn -0.5276 0.5276 -0.6658
vn 0.5277 -0.5276 -0.6657
vn -0.5276 -0.5276 -0.6658
vn 0.5774 -0.5773 -0.5774
vn 0.5773 -0.5774 0.5774
vn 0.5774 0.5774 0.5773
vn -0.5774 -0.5773 0.5773
vn -0.5774 0.5773 -0.5773
vn 0.0000 -0.7071 -0.7072
vn -0.5774 -0.5773 -0.5774
vn 0.5774 0.5774 -0.5773
vn -0.7072 -0.7071 -0.0000
vn -0.5773 0.5774 0.5773
usemtl beveledFBXASC032cubeSG
s 1
f 1/1/1 2/2/1 3/3/1 4/4/1
f 5/5/2 1/1/2 6/6/2
f 7/7/3 4/4/3 8/8/3
f 2/2/4 9/9/4 10/10/4
f 11/11/5 12/12/5 3/3/5
f 1/1/6 4/4/6 7/7/6 6/6/6
f 5/5/7 9/9/7 2/2/7 1/1/7
f 4/4/8 3/3/8 12/12/8 8/8/8
f 10/10/9 11/11/9 3/3/9 2/2/9
f 5/5/10 6/6/10 13/13/10 14/14/10
f 9/9/11 5/5/11 14/14/11 15/15/11
f 12/12/12 11/11/12 16/16/12 17/17/12
f 6/6/13 7/7/13 18/18/13 13/13/13
f 10/10/14 9/9/14 15/15/14 19/19/14
f 11/11/15 10/10/15 19/19/15 16/16/15
f 8/8/16 12/12/16 17/17/16 20/20/16
f 7/7/17 8/8/17 20/20/17 18/18/17
f 21/21/17 22/22/17 23/23/17 24/24/17
f 22/22/13 25/25/13 26/26/13 23/23/13
f 27/27/11 28/28/11 29/29/11 30/30/11
f 28/28/18 31/31/18 32/32/18 29/29/18
f 33/33/16 21/21/16 24/24/16 34/34/16
f 25/25/10 27/27/10 30/30/10 26/26/10
f 31/31/15 35/35/15 36/36/15 32/32/15
f 35/35/12 33/33/12 34/34/12 36/36/12
f 28/28/19 27/27/19 37/37/19 38/38/19
f 39/39/20 37/37/20 25/25/20 22/22/20
f 35/35/21 31/31/21 38/38/21 40/40/21
f 40/40/22 39/39/22 21/21/22 33/33/22
f 27/27/23 25/25/23 37/37/23
f 38/38/24 31/31/24 28/28/24
f 21/21/25 39/39/25 22/22/25
f 35/35/26 40/40/26 33/33/26
f 40/40/27 38/38/27 37/37/27 39/39/27
f 41/41/13 42/42/13 43/43/13 44/44/13
f 45/45/28 41/41/28 46/46/28
f 47/47/29 44/44/29 48/48/29
f 42/42/30 49/49/30 50/50/30
f 51/51/31 52/52/31 43/43/31
f 41/41/32 44/44/32 47/47/32 46/46/32
f 45/45/33 49/49/33 42/42/33 41/41/33
f 44/44/34 43/43/34 52/52/34 48/48/34
f 50/50/35 51/51/35 43/43/35 42/42/35
f 45/45/36 46/46/36 53/53/36 54/54/36
f 49/49/16 45/45/16 54/54/16 55/55/16
f 52/52/37 51/51/37 56/56/37 57/57/37
f 46/46/1 47/47/1 58/58/1 53/53/1
f 50/50/38 49/49/38 55/55/38 59/59/38
f 51/51/27 50/50/27 59/59/27 56/56/27
f 48/48/11 52/52/11 57/57/11 60/60/11
f 47/47/39 48/48/39 60/60/39 58/58/39
f 61/61/36 62/62/36 63/63/36 64/64/36
f 62/62/16 65/65/16 66/66/16 63/63/16
f 67/67/27 68/68/27 69/69/27 70/70/27
f 68/68/37 71/71/37 72/72/37 69/69/37
f 73/73/1 61/61/1 64/64/1 74/74/1
f 65/65/40 67/67/40 70/70/40 66/66/40
f 71/71/11 75/75/11 76/76/11 72/72/11
f 75/75/39 73/73/39 74/74/39 76/76/39
f 68/68/41 67/67/41 77/77/41 78/78/41
f 79/79/42 77/77/42 65/65/42 62/62/42
f 75/75/43 71/71/43 78/78/43 80/80/43
f 80/80/44 79/79/44 61/61/44 73/73/44
f 67/67/45 65/65/45 77/77/45
f 78/78/46 71/71/46 68/68/46
f 61/61/47 79/79/47 62/62/47
f 75/75/48 80/80/48 73/73/48
f 80/80/15 78/78/15 77/77/15 79/79/15
f 81/81/11 82/82/11 83/83/11 84/84/11
f 85/85/49 81/81/49 86/86/49
f 87/87/50 84/84/50 88/88/50
f 82/82/51 89/89/51 90/90/51
f 91/91/52 92/92/52 83/83/52
f 81/81/53 84/84/53 87/87/53 86/86/53
f 85/85/54 89/89/54 82/82/54 81/81/54
f 84/84/55 83/83/55 92/92/55 88/88/55
f 90/90/56 91/91/56 83/83/56 82/82/56
f 85/85/57 86/86/57 93/93/57 94/94/57
f 89/89/1 85/85/1 94/94/1 95/95/1
f 92/92/58 91/91/58 96/96/58 97/97/58
f 86/86/15 87/87/15 98/98/15 93/93/15
f 90/90/59 89/89/59 95/95/59 99/99/59
f 91/91/13 90/90/13 99/99/13 96/96/13
f 88/88/27 92/92/27 97/97/27 100/100/27
f 87/87/60 88/88/60 100/100/60 98/98/60
f 101/101/61 102/102/61 103/103/61 104/104/61
f 102/102/27 105/105/27 106/106/27 103/103/27
f 107/107/15 108/108/15 109/109/15 110/110/15
f 108/108/57 111/111/57 112/112/57 109/109/57
f 113/113/13 101/101/13 104/104/13 114/114/13
f 105/105/62 107/107/62 110/110/62 106/106/62
f 111/111/1 115/115/1 116/116/1 112/112/1
f 115/115/59 113/113/59 114/114/59 116/116/59
f 108/108/63 107/107/63 117/117/63 118/118/63
f 119/119/64 117/117/64 105/105/64 102/102/64
f 115/115/65 111/111/65 118/118/65 120/120/65
f 120/120/66 119/119/66 101/101/66 113/113/66
f 107/107/67 105/105/67 117/117/67
f 118/118/68 111/111/68 108/108/68
f 101/101/69 119/119/69 102/102/69
f 115/115/70 120/120/70 113/113/70
f 120/120/16 118/118/16 117/117/16 119/119/16
f 121/121/16 122/122/16 123/123/16 124/124/16
f 125/125/27 126/126/27 127/127/27 128/128/27
f 129/129/58 130/130/58 131/131/58 126/132/58
f 132/133/71 131/134/71 130/135/71
f 133/136/1 134/137/1 135/138/1 136/139/1
f 137/140/36 134/141/36 121/142/36 138/143/36
f 132/144/40 122/145/40 139/146/40 131/147/40
f 132/148/16 138/149/16 140/150/16 141/151/16
f 138/143/16 121/142/16 124/152/16 140/153/16
f 122/145/16 132/144/16 141/154/16 123/155/16
f 142/156/1 133/157/1 136/158/1 143/159/1
f 137/160/1 142/161/1 143/162/1 144/163/1
f 134/164/1 137/165/1 144/166/1 135/167/1
f 126/168/72 145/169/72 129/170/72
f 146/171/11 147/172/11 148/173/11 149/174/11
f 145/175/11 146/176/11 149/177/11 150/178/11
f 146/179/73 125/180/73 151/181/73
f 126/182/37 125/183/37 146/176/37 145/175/37
f 152/184/11 145/185/11 150/186/11 153/187/11
f 147/188/11 152/189/11 153/190/11 148/191/11
f 152/192/74 142/193/74 154/194/74
f 152/195/39 147/196/39 133/157/39 142/156/39
f 154/197/10 129/198/10 145/185/10 152/184/10
f 126/132/27 131/131/27 155/199/27 127/200/27
f 131/201/27 139/202/27 156/203/27 155/204/27
f 139/205/27 125/206/27 128/207/27 156/208/27
f 157/209/15 158/210/15 159/211/15 160/212/15
f 161/213/15 157/214/15 160/215/15 162/216/15
f 125/206/62 139/205/62 161/217/62 151/218/62
f 121/219/75 134/220/75 157/221/75
f 122/122/12 121/121/12 157/222/12 161/223/12
f 130/224/76 163/225/76 138/149/76 132/148/76
f 137/226/77 138/227/77 163/228/77
f 139/229/78 122/230/78 161/231/78
f 163/232/79 154/233/79 142/161/79 137/160/79
f 134/137/57 133/136/57 158/234/57 157/235/57
f 133/236/80 147/237/80 158/238/80
f 147/172/18 146/171/18 151/239/18 158/240/18
f 129/241/13 154/242/13 164/243/13 165/244/13
f 151/245/15 161/246/15 162/247/15 166/248/15
f 158/249/15 151/250/15 166/251/15 159/252/15
f 154/253/13 163/254/13 167/255/13 164/256/13
f 163/257/13 130/258/13 168/259/13 167/260/13
f 130/261/13 129/262/13 165/263/13 168/264/13
