# This file uses centimeters as units for non-parametric coordinates.

g default
v 0.892631 0.800486 0.656489
v 1.476412 0.800486 0.656489
v 0.892631 1.425066 0.656489
v 1.476412 1.425066 0.656489
v 0.892631 1.425066 0.072708
v 1.476412 1.425066 0.072708
v 0.892631 0.800486 0.072708
v 1.476412 0.800486 0.072708
v 1.476412 -0.124835 0.072708
v 1.476412 -0.124835 0.656489
v 0.950030 0.147191 1.355817
v 0.950030 -0.124835 1.355817
v 0.840498 0.800486 -0.356376
v 0.840498 0.800486 0.847391
v 0.950030 -0.124835 -0.356376
v 0.840498 0.147191 1.355817
v 0.950030 0.800486 -0.356376
v 1.351804 0.800486 -0.080836
v 1.351804 -0.124835 -0.080836
v 1.404739 0.147191 1.017585
v 1.404739 -0.124835 1.017585
v 0.950030 0.800486 0.847391
v 0.840498 -0.047362 1.355817
v 0.840498 -0.047362 -0.356376
v 0.107369 0.800486 0.656489
v -0.476412 0.800486 0.656489
v 0.107369 1.425066 0.656489
v -0.476412 1.425066 0.656489
v 0.107369 1.425066 0.072708
v -0.476412 1.425066 0.072708
v 0.107369 0.800486 0.072708
v -0.476412 0.800486 0.072708
v -0.476412 -0.124835 0.072708
v -0.476412 -0.124835 0.656489
v 0.049970 0.147191 1.355817
v 0.049970 -0.124835 1.355817
v 0.159502 0.800486 -0.356376
v 0.159502 0.800486 0.847391
v 0.049970 -0.124835 -0.356376
v 0.159502 0.147191 1.355817
v 0.049970 0.800486 -0.356376
v -0.351804 0.800486 -0.080836
v -0.351804 -0.124835 -0.080836
v -0.404739 0.147191 1.017585
v -0.404739 -0.124835 1.017585
v 0.049970 0.800486 0.847391
v 0.159502 -0.047362 1.355817
v 0.159502 -0.047362 -0.356376
vt 0.375000 0.000000
vt 0.625000 0.000000
vt 0.375000 0.250000
vt 0.625000 0.250000
vt 0.375000 0.500000
vt 0.625000 0.500000
vt 0.375000 0.750000
vt 0.625000 0.750000
vt 0.375000 1.000000
vt 0.625000 1.000000
vt 0.875000 0.000000
vt 0.875000 0.250000
vt 0.125000 0.000000
vt 0.125000 0.250000
vt 0.625000 0.750000
vt 0.625000 1.000000
vt 0.500000 1.000000
vt 0.464328 1.002613
vt 0.370265 1.002613
vt 0.362314 0.723205
vt 0.375313 0.738937
vt 0.375000 1.000000
vt 0.375000 0.750000
vt 0.625000 0.750000
vt 0.625000 0.750000
vt 0.625000 1.000000
vt 0.625000 1.000000
vt 0.375000 1.000000
vt 0.388356 1.025092
vt 0.370728 0.717854
vt 0.375000 0.000000
vt 0.625000 0.000000
vt 0.625000 0.250000
vt 0.375000 0.250000
vt 0.625000 0.500000
vt 0.375000 0.500000
vt 0.625000 0.750000
vt 0.375000 0.750000
vt 0.875000 0.000000
vt 0.875000 0.250000
vt 0.125000 0.000000
vt 0.125000 0.250000
vt 0.375000 0.750000
vt 0.625000 0.750000
vt 0.625000 0.750000
vt 0.375313 0.738937
vt 0.625000 1.000000
vt 0.625000 1.000000
vt 0.625000 0.750000
vt 0.375000 1.000000
vt 0.500000 1.000000
vt 0.625000 1.000000
vt 0.625000 1.000000
vt 0.375000 1.000000
vt 0.362314 0.723205
vt 0.370265 1.002613
vt 0.370728 0.717854
vt 0.464328 1.002613
vt 0.375000 1.000000
vt 0.388356 1.025092
vn 0.000000 0.000000 1.000000
vn 0.000000 0.000000 1.000000
vn 0.000000 0.000000 1.000000
vn 0.000000 0.000000 1.000000
vn 0.000000 1.000000 0.000000
vn 0.000000 1.000000 0.000000
vn 0.000000 1.000000 0.000000
vn 0.000000 1.000000 0.000000
vn 0.000000 0.000000 -1.000000
vn 0.000000 0.000000 -1.000000
vn 0.000000 0.000000 -1.000000
vn 0.000000 0.000000 -1.000000
vn 1.000000 0.000000 0.000000
vn 1.000000 0.000000 0.000000
vn 1.000000 0.000000 0.000000
vn 1.000000 0.000000 0.000000
vn -1.000000 0.000000 0.000000
vn -1.000000 0.000000 0.000000
vn -1.000000 0.000000 0.000000
vn -1.000000 0.000000 0.000000
vn 0.565581 0.000000 -0.824693
vn 0.565581 0.000000 -0.824693
vn 0.565581 0.000000 -0.824693
vn 0.565581 0.000000 -0.824693
vn 1.000000 0.000000 0.000000
vn 1.000000 0.000000 0.000000
vn 1.000000 0.000000 0.000000
vn 1.000000 0.000000 0.000000
vn 0.313383 0.646649 0.695439
vn 0.414227 0.488399 0.768038
vn 0.414227 0.488399 0.768038
vn 0.405640 0.519399 0.752117
vn 0.980865 0.000000 0.194690
vn 0.980865 0.000000 0.194690
vn 0.918387 0.000000 0.395683
vn 0.879689 0.000000 0.475549
vn 0.000000 1.000000 0.000000
vn 0.000000 1.000000 0.000000
vn 0.000000 1.000000 0.000000
vn 0.000000 1.000000 0.000000
vn 0.000000 0.000000 -1.000000
vn 0.000000 0.000000 -1.000000
vn 0.000000 0.000000 -1.000000
vn 0.000000 0.000000 -1.000000
vn -0.000000 0.000000 1.000000
vn -0.000000 0.000000 1.000000
vn -0.000000 0.000000 1.000000
vn -0.000000 0.000000 1.000000
vn 0.000000 0.614172 0.789172
vn 0.000000 0.839675 0.543088
vn 0.000000 0.614172 0.789172
vn 0.776476 0.000000 -0.630147
vn 0.776476 0.000000 -0.630147
vn 0.776476 0.000000 -0.630147
vn 0.776476 0.000000 -0.630147
vn 0.000000 1.000000 -0.000000
vn 0.000000 1.000000 -0.000000
vn 0.000000 1.000000 -0.000001
vn 0.596833 0.000000 0.802366
vn 0.596833 0.000000 0.802366
vn 0.000000 1.000000 0.000000
vn 0.000000 1.000000 0.000000
vn 0.000000 1.000000 0.000000
vn -1.000000 0.000000 0.000000
vn -1.000000 0.000000 0.000000
vn -1.000000 0.000000 0.000000
vn -1.000000 0.000000 0.000000
vn -1.000000 0.000000 0.000000
vn -1.000000 0.000000 0.000000
vn -1.000000 0.000000 0.000000
vn 0.000000 0.000000 1.000000
vn 0.000000 0.000000 1.000000
vn 0.000000 0.000000 1.000000
vn 0.000000 0.000000 1.000000
vn 0.000000 0.000000 1.000000
vn 0.000000 0.000000 1.000000
vn 0.000000 0.000000 1.000000
vn 0.000000 0.000000 1.000000
vn 0.000000 1.000000 0.000000
vn 0.000000 1.000000 0.000000
vn 0.000000 1.000000 0.000000
vn 0.000000 1.000000 0.000000
vn 0.000000 0.000000 -1.000000
vn 0.000000 0.000000 -1.000000
vn 0.000000 0.000000 -1.000000
vn 0.000000 0.000000 -1.000000
vn -1.000000 0.000000 0.000000
vn -1.000000 0.000000 0.000000
vn -1.000000 0.000000 0.000000
vn -1.000000 0.000000 0.000000
vn 1.000000 0.000000 0.000000
vn 1.000000 0.000000 0.000000
vn 1.000000 0.000000 0.000000
vn 1.000000 0.000000 0.000000
vn -0.565581 0.000000 -0.824693
vn -0.565581 0.000000 -0.824693
vn -0.565581 0.000000 -0.824693
vn -0.565581 0.000000 -0.824693
vn -1.000000 0.000000 0.000000
vn -1.000000 0.000000 0.000000
vn -1.000000 0.000000 0.000000
vn -1.000000 0.000000 0.000000
vn -0.313383 0.646649 0.695439
vn -0.405641 0.519399 0.752117
vn -0.414227 0.488399 0.768038
vn -0.414227 0.488399 0.768038
vn -0.980865 0.000000 0.194691
vn -0.879689 0.000000 0.475549
vn -0.918387 0.000000 0.395683
vn -0.980865 0.000000 0.194691
vn 0.000000 1.000000 0.000000
vn 0.000000 1.000000 0.000000
vn 0.000000 1.000000 0.000000
vn 0.000000 1.000000 0.000000
vn 0.000000 0.000000 -1.000000
vn 0.000000 0.000000 -1.000000
vn 0.000000 0.000000 -1.000000
vn 0.000000 0.000000 -1.000000
vn 0.000000 0.000000 1.000000
vn 0.000000 0.000000 1.000000
vn 0.000000 0.000000 1.000000
vn 0.000000 0.000000 1.000000
vn 0.000000 0.614172 0.789172
vn 0.000000 0.614172 0.789172
vn 0.000000 0.839675 0.543088
vn -0.776476 0.000000 -0.630147
vn -0.776476 0.000000 -0.630147
vn -0.776476 0.000000 -0.630147
vn -0.776476 0.000000 -0.630147
vn 0.000000 1.000000 0.000000
vn 0.000000 1.000000 0.000000
vn 0.000000 1.000000 0.000000
vn -0.596833 0.000000 0.802366
vn -0.596833 0.000000 0.802366
vn 0.000000 1.000000 0.000000
vn 0.000000 1.000000 0.000000
vn 0.000000 1.000000 0.000000
vn 1.000000 0.000000 0.000000
vn 1.000000 0.000000 0.000000
vn 1.000000 0.000000 0.000000
vn 1.000000 0.000000 0.000000
vn 1.000000 0.000000 0.000000
vn 1.000000 0.000000 0.000000
vn 1.000000 0.000000 0.000000
vn 0.000000 1.000000 0.000000
vn 0.000000 1.000000 0.000000
vn 0.000000 1.000000 0.000000
vn 0.000000 1.000000 0.000000
vn 0.000000 0.000000 -1.000000
vn 0.000000 0.000000 -1.000000
vn 0.000000 0.000000 -1.000000
vn 0.000000 0.000000 -1.000000
s off
g col_turret_body
f 1/1/1 2/2/2 4/4/3 3/3/4
f 3/3/5 4/4/6 6/6/7 5/5/8
f 5/5/9 6/6/10 8/8/11 7/7/12
f 2/2/13 8/11/14 6/12/15 4/4/16
f 7/13/17 1/1/18 3/3/19 5/14/20
f 17/23/21 18/24/22 19/25/23 15/21/24
f 8/8/25 2/10/26 10/16/27 9/15/28
s 1
f 22/28/29 11/17/30 20/26/31 2/10/32
s 2
f 10/16/33 2/10/34 20/26/35 21/27/36
s off
f 1/9/37 7/7/38 13/20/39 14/19/40
f 17/23/41 15/21/42 24/30/43 13/20/44
f 12/18/45 11/17/46 16/22/47 23/29/48
s 1
f 11/17/49 22/28/29 14/19/50 16/22/51
s off
f 8/8/52 9/15/53 19/25/54 18/24/55
s 3
f 18/24/56 7/7/57 8/8/58
s 2
f 21/27/36 20/26/35 11/17/59 12/18/60
s 1
f 22/28/29 2/10/32 1/9/61 14/19/50
s 3
f 17/23/62 13/20/63 7/7/57 18/24/56
s off
f 14/19/64 23/29/65 16/22/66
f 14/19/67 13/20/68 24/30/69 23/29/70
f 36/58/71 12/18/72 23/29/73 47/60/74
f 25/31/75 27/34/76 28/33/77 26/32/78
f 27/34/79 29/36/80 30/35/81 28/33/82
f 29/36/83 31/38/84 32/37/85 30/35/86
f 26/32/87 28/33/88 30/40/89 32/39/90
f 31/41/91 29/42/92 27/34/93 25/31/94
f 41/43/95 39/46/96 43/45/97 42/44/98
f 32/37/99 33/49/100 34/48/101 26/47/102
s 4
f 46/50/103 26/47/104 44/52/105 35/51/106
s 5
f 34/48/107 45/53/108 44/52/109 26/47/110
s off
f 25/54/111 38/56/112 37/55/113 31/38/114
f 41/43/115 37/55/116 48/57/117 39/46/118
f 36/58/119 47/60/120 40/59/121 35/51/122
s 4
f 35/51/123 40/59/124 38/56/125 46/50/103
s off
f 32/37/126 42/44/127 43/45/128 33/49/129
s 6
f 42/44/130 32/37/131 31/38/132
s 5
f 45/53/108 36/58/133 35/51/134 44/52/109
s 4
f 46/50/103 38/56/125 25/54/135 26/47/104
s 6
f 41/43/136 42/44/130 31/38/132 37/55/137
s off
f 38/56/138 40/59/139 47/60/140
f 38/56/141 47/60/142 48/57/143 37/55/144
f 24/30/145 48/57/146 47/60/147 23/29/148
f 15/21/149 39/46/150 48/57/151 24/30/152
