# Blender v2.82 (sub 7) OBJ File: ''
# www.blender.org
mtllib HE_Slope_Transition_12R.mtl
o Slope_Transition_12R_HE_ArmouredBlock_Edge_211
v 0.499999 -0.132023 -0.132024
v 0.499998 0.132022 -0.132025
v 0.500000 -0.132023 0.132021
v 0.600000 -0.000001 -0.000002
v 0.500000 0.132023 0.132021
v 0.132022 -0.500000 -0.132023
v -0.132024 -0.500000 -0.132022
v -0.132024 -0.500000 0.132025
v 0.132023 -0.500000 0.132025
v -0.000001 -0.600000 0.000001
v 0.429999 0.429999 -0.500002
v -0.430000 -0.430001 -0.500000
v -0.430002 -0.308995 -0.500001
v 0.500000 -0.430001 -0.430002
v 0.349999 0.500000 -0.430001
v -0.430001 -0.500001 -0.429998
v -0.550000 -0.430001 -0.430000
v 0.430000 -0.500001 -0.429999
v 0.429998 -0.430001 -0.500002
v -0.550003 -0.350000 -0.430001
v 0.500000 0.429999 -0.430000
v 0.429999 0.500000 -0.430003
v 0.308993 0.430000 -0.500000
v -0.475504 -0.230502 -0.429998
v 0.500000 -0.430000 0.430000
v 0.430000 0.500000 0.350000
v -1.430000 -0.430000 0.500000
v 0.430000 -0.430000 0.500000
v -1.500000 -0.350000 0.429999
v -1.430000 -0.323138 0.499999
v -1.437471 -0.248534 0.429999
v 0.500000 0.430000 0.430000
v -1.500000 -0.430000 0.430000
v -0.012529 0.468534 0.430000
v 0.066620 0.430000 0.500000
v -1.430000 -0.500000 0.430000
v 0.430000 -0.500000 0.430000
v -1.430000 -0.500000 0.323138
v -1.500000 -0.430000 0.325000
v 0.430000 0.430000 0.500000
v 0.430000 0.500000 0.430000
v 0.120000 0.500000 0.430000
v -0.012529 0.468533 0.350000
v 0.120000 0.500000 0.350000
v -1.500000 -0.350000 0.324999
v -0.132023 -0.132023 0.500000
v -0.132023 0.132023 0.500000
v -0.000001 -0.000000 0.600000
v 0.132022 -0.132023 0.500000
v 0.132022 0.132023 0.500000
v 0.151842 0.396843 -0.429999
v 0.190308 0.451629 -0.381237
v 0.267456 0.465810 -0.429999
v 0.259802 0.442849 -0.456130
v -1.348391 -0.203706 0.349999
v -1.359704 -0.247113 0.288540
v -1.458009 -0.281862 0.341787
v -1.437471 -0.248534 0.389999
v -0.500000 -0.459168 -0.429999
v -0.500000 -0.500000 0.430000
v -0.500000 -0.500001 -0.377280
v -0.500000 -0.430001 -0.459167
v -0.500000 -0.332914 -0.459169
v -0.525000 -0.289947 -0.429999
v -0.500000 -0.379581 -0.459168
v -0.500000 0.104404 0.500000
v -0.500000 0.144862 0.499999
v -0.500000 -0.430000 0.500000
v -0.500000 0.223225 0.377368
v -0.500000 0.223226 0.429999
v -0.500000 0.196276 0.454073
v -0.500000 -0.465000 0.465000
v -0.500000 0.113183 -0.113486
v -0.500000 0.151849 -0.046736
v -0.525000 -0.231407 -0.390882
v -0.500000 0.223225 0.350000
v 0.150000 0.500000 0.248262
v 0.150000 0.454989 -0.235924
vt 0.075351 0.002667
vt 0.004325 0.002667
vt 0.039499 0.038249
vt 0.075351 0.073845
vt 0.004325 0.073845
vt 0.075351 0.073845
vt 0.075351 0.002667
vt 0.039499 0.038249
vt 0.004325 0.073845
vt 0.004325 0.002667
vt 0.189759 0.333407
vt 0.239234 0.340368
vt 0.239234 0.333407
vt 0.189759 0.382882
vt 0.007326 0.411045
vt 0.013958 0.414759
vt 0.032804 0.476333
vt 0.182820 0.386909
vt 0.182820 0.389786
vt 0.181142 0.386909
vt 0.182820 0.333407
vt 0.178793 0.333407
vt 0.182820 0.329379
vt 0.015359 0.409725
vt 0.016401 0.405991
vt 0.019020 0.409288
vt 0.037872 0.489674
vt 0.033003 0.484623
vt 0.039087 0.483704
vt 0.082524 0.421249
vt 0.082953 0.455781
vt 0.049063 0.466583
vt 0.040658 0.469263
vt 0.055579 0.420341
vt 0.178793 0.382882
vt 0.182820 0.382882
vt 0.278319 0.368505
vt 0.386218 0.377997
vt 0.276609 0.380418
vt 0.036039 0.473393
vt 0.038092 0.474174
vt 0.038736 0.479207
vt 0.012814 0.408165
vt 0.010014 0.406490
vt 0.011966 0.403272
vt 0.239234 0.329379
vt 0.189759 0.329379
vt 0.182820 0.350349
vt 0.178793 0.399825
vt 0.178793 0.350349
vt 0.232295 0.399825
vt 0.232295 0.403852
vt 0.182820 0.403852
vt 0.182820 0.399825
vt 0.232295 0.350349
vt 0.083769 0.482125
vt 0.089429 0.487616
vt 0.150114 0.325156
vt 0.150114 0.303268
vt 0.095040 0.303268
vt 0.095041 0.308916
vt 0.142930 0.323037
vt 0.371242 0.366768
vt 0.382895 0.371338
vt 0.167938 0.333257
vt 0.166309 0.326328
vt 0.237376 0.271267
vt 0.241145 0.276093
vt 0.185853 0.386909
vt 0.023385 0.410591
vt 0.020965 0.413826
vt 0.036764 0.466077
vt 0.163740 0.312029
vt 0.168724 0.314216
vt 0.164570 0.320888
vt 0.161437 0.318643
vt 0.196844 0.245379
vt 0.191141 0.244115
vt 0.050725 0.419747
vt 0.156460 0.244181
vt 0.230856 0.263711
vt 0.235629 0.266478
vt 0.226148 0.440412
vt 0.226255 0.444439
vt 0.220503 0.386909
vt 0.239235 0.354312
vt 0.222831 0.386909
vt 0.189759 0.386909
vt 0.189759 0.333407
vt 0.239235 0.333407
vt 0.088317 0.481654
vt 0.083056 0.464056
vt 0.087934 0.463974
vt 0.158586 0.326822
vt 0.157317 0.333649
vt 0.158924 0.318827
vt 0.154473 0.244398
vt 0.150447 0.244864
vt 0.232295 0.403852
vt 0.236322 0.399825
vt 0.232295 0.399825
vt 0.185732 0.333407
vt 0.189759 0.329379
vt 0.152956 0.321978
vt 0.094193 0.482780
vt 0.087945 0.455708
vt 0.094173 0.459929
vt 0.147218 0.329977
vt 0.089934 0.420392
vt 0.087716 0.421195
vt 0.147971 0.246087
vt 0.143201 0.248511
vt 0.187745 0.386909
vt 0.185732 0.440412
vt 0.185732 0.386909
vt 0.232295 0.444439
vt 0.232295 0.440412
vt 0.236322 0.350349
vt 0.075352 0.073845
vt 0.075352 0.002666
vt 0.039500 0.038249
vt 0.004325 0.073845
vt 0.004325 0.002666
vt 0.094852 0.315222
vt 0.098321 0.320744
vt 0.108599 0.323532
vt 0.084272 0.421227
vt 0.232295 0.386909
vt 0.232295 0.333407
vt 0.189759 0.440412
vt 0.094193 0.418865
vt 0.140635 0.250263
vt 0.237919 0.389959
vt 0.199704 0.416326
vt 0.184553 0.394367
vt 0.154997 0.352499
vt 0.147813 0.350381
vt 0.113482 0.350875
vt 0.154928 0.362117
vn 0.7971 0.0000 -0.6038
vn 0.7971 0.0000 0.6038
vn 0.7971 0.6038 -0.0000
vn 0.7971 -0.6038 -0.0000
vn 0.6038 -0.7971 -0.0000
vn -0.6038 -0.7971 0.0000
vn 0.0000 -0.7971 0.6038
vn -0.0000 -0.7971 -0.6038
vn -0.0000 0.0000 -1.0000
vn -0.3813 -0.6537 -0.6537
vn 0.5773 -0.5774 -0.5774
vn -0.5476 0.2280 -0.8051
vn 0.5774 0.5773 -0.5773
vn -0.4500 0.8804 -0.1498
vn -0.0000 -0.7071 -0.7071
vn -0.4412 0.4412 -0.7815
vn -0.3136 0.7570 -0.5733
vn -0.5039 -0.0000 -0.8638
vn 0.7071 0.0000 -0.7071
vn -0.0000 0.7071 -0.7071
vn 0.7071 -0.7071 0.0000
vn 1.0000 0.0000 0.0000
vn 0.7071 0.7071 -0.0000
vn 0.0000 1.0000 0.0000
vn -0.4408 0.4513 -0.7759
vn -0.6222 -0.0000 -0.7829
vn -0.4188 -0.7179 -0.5561
vn -0.5550 0.4622 -0.6916
vn -0.4439 0.7442 -0.4992
vn -0.5164 0.7648 -0.3851
vn -0.5126 0.7430 -0.4304
vn -0.5444 0.5469 -0.6360
vn -0.4438 0.8820 -0.1587
vn -0.5258 0.7384 -0.4223
vn -0.5317 0.5541 -0.6405
vn -0.5694 0.4330 -0.6988
vn -0.5105 0.3463 -0.7871
vn -0.4743 -0.6319 -0.6130
vn -0.0000 0.0000 1.0000
vn -1.0000 0.0000 0.0000
vn -0.8513 0.5246 0.0000
vn -0.4495 0.8933 -0.0000
vn -0.5774 -0.5773 0.5773
vn 0.5773 -0.5774 0.5774
vn -0.7138 0.4399 0.5450
vn 0.5774 0.5774 0.5773
vn -0.1807 0.7609 0.6232
vn -0.7071 0.0000 0.7071
vn -0.3179 0.6316 0.7071
vn -0.0000 -0.7071 0.7071
vn -0.7071 -0.7071 -0.0000
vn 0.7071 -0.0000 0.7071
vn -0.2310 0.9730 -0.0000
vn -0.0000 0.7071 0.7071
vn 0.0000 -0.6038 0.7971
vn 0.0000 0.6038 0.7971
vn 0.6038 0.0000 0.7971
vn -0.6038 0.0000 0.7971
vn -0.3055 0.9469 -0.1005
vn 0.0000 -1.0000 0.0000
vn -0.2413 0.9666 -0.0866
usemtl Default_OBJ.001
s off
f 1/1/1 2/2/1 4/3/1
f 3/4/2 4/3/2 5/5/2
f 4/3/3 2/2/3 5/5/3
f 3/4/4 1/1/4 4/3/4
f 6/6/5 9/7/5 10/8/5
f 7/9/6 10/8/6 8/10/6
f 10/8/7 9/7/7 8/10/7
f 7/9/8 6/6/8 10/8/8
f 19/11/9 23/12/9 11/13/9
f 12/14/9 23/12/9 19/11/9
f 12/15/9 13/16/9 23/17/9
f 59/18/10 17/19/10 62/20/10
f 18/21/11 19/22/11 14/23/11
f 63/24/12 20/25/12 64/26/12
f 21/27/13 11/28/13 22/29/13
f 76/30/14 43/31/14 78/32/14 52/33/14 74/34/14
f 18/21/15 12/35/15 19/22/15
f 12/35/15 18/21/15 16/36/15
f 24/37/16 23/38/16 13/39/16
f 23/17/17 54/40/17 53/41/17 15/42/17
f 65/43/18 13/16/18 12/15/18 62/44/18
f 65/43/18 17/45/18 20/25/18 63/24/18
f 19/11/19 21/46/19 14/47/19
f 21/48/19 19/49/19 11/50/19
f 11/28/20 15/42/20 22/29/20
f 15/42/20 11/28/20 23/17/20
f 25/51/21 37/52/21 18/53/21 14/54/21
f 32/55/22 25/51/22 14/54/22 21/48/22
f 22/29/23 26/56/23 32/57/23 21/27/23
f 44/58/24 26/59/24 22/60/24 15/61/24 77/62/24
f 23/38/25 24/37/25 51/63/25 54/64/25
f 39/65/26 45/66/26 20/67/26 17/68/26
f 59/18/27 16/36/27 61/69/27
f 64/26/28 75/70/28 24/71/28
f 51/72/29 52/33/29 53/41/29 54/40/29
f 55/73/30 56/74/30 57/75/30 58/76/30
f 73/77/31 56/74/31 55/73/31 74/78/31
f 73/79/32 51/72/32 24/71/32 75/70/32
f 55/73/33 76/80/33 74/78/33
f 51/72/34 73/79/34 74/34/34 52/33/34
f 56/74/35 73/77/35 75/81/35
f 45/66/36 57/75/36 56/74/36 75/81/36 64/82/36 20/67/36
f 13/16/37 63/24/37 64/26/37 24/71/37
f 13/16/18 65/43/18 63/24/18
f 17/45/18 65/43/18 62/44/18
f 16/36/10 59/18/10 62/20/10 12/35/10
f 17/19/38 59/18/38 61/69/38 38/83/38 39/84/38
usemtl Default_OBJ
f 66/85/39 35/86/39 67/87/39
f 68/88/39 28/89/39 35/86/39 66/85/39
f 35/86/39 28/89/39 40/90/39
f 41/91/24 44/92/24 42/93/24
f 44/92/24 41/91/24 26/56/24
f 39/65/40 29/94/40 45/66/40
f 29/94/40 39/65/40 33/95/40
f 45/66/41 31/96/41 58/76/41 57/75/41
f 69/97/42 31/96/42 70/98/42
f 36/99/43 27/100/43 33/101/43
f 28/89/44 37/102/44 25/103/44
f 29/94/45 30/104/45 31/96/45
f 40/105/46 32/57/46 41/91/46
f 34/106/47 35/107/47 42/93/47
f 27/108/48 29/94/48 33/95/48
f 29/94/48 27/108/48 30/104/48
f 71/109/49 34/106/49 70/110/49
f 71/111/49 30/104/49 67/112/49
f 72/113/50 36/114/50 60/115/50
f 72/113/50 28/89/50 68/88/50
f 38/83/51 33/116/51 39/84/51
f 33/116/51 38/83/51 36/117/51
f 25/103/52 40/90/52 28/89/52
f 40/118/52 25/51/52 32/55/52
f 32/57/23 26/56/23 41/91/23
f 42/93/53 43/31/53 34/106/53
f 43/31/53 42/93/53 44/92/53
f 41/91/54 35/107/54 40/105/54
f 35/107/54 41/91/54 42/93/54
f 31/96/41 45/66/41 29/94/41
f 46/119/55 49/120/55 48/121/55
f 47/122/56 48/121/56 50/123/56
f 48/121/57 49/120/57 50/123/57
f 47/122/58 46/119/58 48/121/58
f 77/62/59 15/61/59 53/124/59 52/125/59 78/126/59
f 69/127/42 43/31/42 76/30/42
f 60/128/60 61/69/60 16/36/60 18/21/60 37/129/60
f 30/104/49 71/111/49 70/98/49 31/96/49
f 43/31/42 69/127/42 70/110/42 34/106/42
f 31/96/42 69/97/42 76/80/42 55/73/42 58/76/42
f 36/114/50 72/113/50 68/88/50 27/130/50
f 34/106/49 71/109/49 67/131/49 35/107/49
f 27/108/39 66/132/39 67/112/39 30/104/39
f 27/133/39 68/134/39 66/135/39
f 28/89/50 72/113/50 60/115/50 37/102/50
f 36/117/60 38/83/60 61/69/60 60/128/60
f 44/136/61 77/137/61 78/138/61 43/139/61
