# Blender v2.82 (sub 7) OBJ File: ''
# www.blender.org
mtllib HE_XL_Wrap_Corner_Right_Collider1.mtl
o HE_ArmouredBlock_Edge_OutsideCorner_212.002
v 0.930551 0.413652 0.196426
v 1.430004 0.429995 0.500000
v -1.569996 -0.430003 -0.500000
v 1.430004 -0.430005 -0.500000
v 1.120005 0.499997 0.430000
v 0.983067 0.479524 0.430000
v -1.697783 -0.207360 -0.377860
v 1.500006 0.429997 0.430000
v 1.430004 0.499995 0.430000
v 1.430004 0.499995 0.350000
v 1.430004 -0.350003 -0.500000
v 1.500004 -0.430005 -0.430000
v 1.086508 0.450501 0.230503
v 1.120005 0.499997 0.350000
v -1.974030 -0.176433 0.216154
v -2.076252 -0.257273 0.216154
v -2.095811 -0.246809 0.430000
v -1.499994 -0.500005 0.430000
v -1.569996 -0.430003 0.500000
v -1.649996 -0.350003 -0.500000
v 1.430004 -0.230504 -0.450502
v -1.497366 -0.230506 -0.450502
v 1.430004 -0.430005 0.500000
v 0.983067 0.479524 0.350000
v 1.042614 0.429999 0.499996
v 1.430004 -0.500005 0.430000
v 1.430004 -0.500005 -0.430000
v -1.499994 -0.500005 -0.430000
v -1.792637 -0.302214 -0.377860
v -1.769493 -0.414233 -0.450503
v -2.095811 -0.246809 0.350000
v -1.995976 -0.169258 0.430000
v -1.995976 -0.169258 0.350000
v -2.016790 -0.245501 0.499999
v 0.773229 0.207408 0.043978
v 0.752372 0.263974 0.043977
v 1.430004 0.450499 0.230503
v 1.430004 0.263972 0.043978
v -0.700255 -0.045993 -0.265989
v 1.414696 -0.043839 -0.211574
v -0.401832 -0.045989 -0.209420
v 1.500004 -0.430005 0.430000
v 1.500004 -0.308999 -0.430000
v 1.500004 -0.095487 -0.216492
v 1.430002 -0.045989 -0.265989
v 1.500004 0.429995 0.308995
v 1.500011 -0.104104 -0.151309
v 1.500004 0.214477 0.093474
v 1.414696 0.209559 0.041824
v 1.500008 0.149291 0.102092
v 0.132027 -0.132023 0.499997
v 0.132026 0.132022 0.499995
v -0.132019 0.132022 0.499997
v -0.132019 -0.132023 0.499997
v -1.630193 -0.500000 0.500000
v -1.664553 -0.500000 0.500000
v -2.144859 -0.500000 0.499999
v -1.575596 -0.500000 -0.500000
v -1.569996 -0.500000 -0.500000
v -2.195588 -0.500000 0.216154
v -2.223222 -0.500000 0.402653
v -2.223222 -0.500000 0.430000
v -1.569996 -0.500000 0.500000
v -1.565096 -0.500000 -0.495100
v -1.759403 -0.500000 -0.454682
v -1.649996 -0.500000 -0.500000
v -2.210546 -0.500000 0.297198
v -2.223222 -0.500000 0.350000
v -1.901135 -0.500000 -0.302643
v -1.992990 -0.500000 -0.177507
v -1.856374 -0.500000 -0.363622
v -2.171737 -0.500000 0.475989
v -1.769493 -0.500000 -0.450503
vt 0.405339 0.381502
vt 0.405339 0.375428
vt 0.402714 0.388122
vt 0.405339 0.436223
vt 0.399039 0.410597
vt 0.471470 0.372789
vt 0.471312 0.369634
vt 0.484078 0.369917
vt 0.484226 0.373068
vt 0.306825 0.398818
vt 0.310280 0.398818
vt 0.310280 0.394801
vt 0.304853 0.398818
vt 0.346817 0.345443
vt 0.289676 0.374198
vt 0.367673 0.345443
vt 0.367673 0.394801
vt 0.423518 0.441157
vt 0.419449 0.436475
vt 0.482820 0.436518
vt 0.482114 0.440708
vt 0.387837 0.379529
vt 0.387837 0.430343
vt 0.442787 0.430343
vt 0.442787 0.379529
vt 0.402072 0.378589
vt 0.417314 0.378587
vt 0.415155 0.422049
vt 0.402512 0.407391
vt 0.465818 0.369948
vt 0.465962 0.373334
vt 0.421795 0.372938
vt 0.421916 0.369678
vt 0.401953 0.370917
vt 0.401995 0.369768
vt 0.416987 0.369684
vt 0.421643 0.378591
vt 0.461260 0.378729
vt 0.423697 0.422008
vt 0.468392 0.365674
vt 0.428217 0.429125
vt 0.410824 0.429094
vt 0.484829 0.365817
vt 0.488157 0.369198
vt 0.387258 0.379048
vt 0.383044 0.379048
vt 0.383044 0.374833
vt 0.488358 0.375054
vt 0.484705 0.378736
vt 0.484705 0.429138
vt 0.488870 0.434747
vt 0.487484 0.442528
vt 0.482284 0.446388
vt 0.470229 0.378732
vt 0.417112 0.372953
vt 0.419451 0.365833
vt 0.383701 0.375393
vt 0.387837 0.375393
vt 0.411248 0.441539
vt 0.411262 0.441143
vt 0.415370 0.441169
vt 0.406186 0.429724
vt 0.406064 0.429095
vt 0.439547 0.415461
vt 0.331267 0.379048
vt 0.331267 0.374833
vt 0.387258 0.430825
vt 0.383044 0.430825
vt 0.442787 0.375393
vt 0.426865 0.446688
vt 0.401552 0.375177
vt 0.402035 0.373068
vt 0.404590 0.417613
vt 0.403563 0.367239
vt 0.404293 0.365789
vt 0.405465 0.422670
vt 0.410622 0.436486
vt 0.411207 0.440846
vt 0.230783 0.654238
vt 0.263195 0.677746
vt 0.214378 0.677877
vt 0.263143 0.654149
vt 0.458695 0.392520
vt 0.484705 0.392541
vt 0.484705 0.415482
vt 0.461006 0.394756
vt 0.485020 0.394752
vt 0.445373 0.413507
vt 0.484538 0.413507
vt 0.458667 0.391423
vt 0.458667 0.442786
vt 0.435489 0.425607
vt 0.447127 0.442786
vt 0.433939 0.430172
vt 0.416898 0.409178
vt 0.399047 0.391423
vt 0.399047 0.396798
vt 0.412235 0.409413
vt 0.489568 0.415707
vt 0.489568 0.431509
vt 0.489568 0.392766
vt 0.489568 0.376815
vt 0.271096 0.654136
vt 0.271121 0.677729
vt 0.490944 0.395026
vt 0.490462 0.413781
vt 0.411956 0.446697
vt 0.280764 0.391908
vn -0.0212 0.7257 -0.6877
vn -0.0421 0.7789 -0.6257
vn 0.0000 1.0000 0.0000
vn 0.0000 -0.0000 1.0000
vn 0.0000 0.0000 -1.0000
vn 0.0000 -1.0000 -0.0000
vn -0.8147 0.4006 -0.4193
vn -0.2128 0.9771 0.0000
vn -0.8933 0.4495 0.0000
vn -0.1980 0.9698 -0.1426
vn -0.1140 0.7627 0.6366
vn -0.2128 0.5934 -0.7763
vn -0.4751 0.4751 -0.7407
vn -0.5223 0.3854 -0.7607
vn 0.5773 0.5774 0.5774
vn 0.5774 -0.5773 0.5774
vn 0.5733 0.7570 -0.3135
vn 0.5733 0.3135 -0.7570
vn 0.5774 -0.5773 -0.5774
vn -0.1427 0.9264 -0.3485
vn -0.1388 0.9281 -0.3455
vn -0.6073 0.7818 -0.1415
vn -0.6133 0.7755 -0.1502
vn -0.5078 0.6537 0.5610
vn 0.7071 -0.0000 0.7071
vn 0.7071 0.0000 -0.7071
vn -0.3827 0.0000 -0.9239
vn 0.0000 0.3827 -0.9239
vn -0.0828 0.8605 -0.5027
vn 0.0000 0.9239 -0.3827
vn 0.7071 0.7071 0.0000
vn 0.7071 -0.7071 -0.0000
vn -0.1479 0.9890 0.0000
vn -0.0000 0.7071 0.7071
vn 0.0000 -0.7071 0.7071
vn 0.0000 -0.7071 -0.7071
vn -0.8734 0.4395 -0.2097
vn -0.5892 0.7450 -0.3128
vn -0.6585 0.6585 -0.3642
vn -0.7878 0.2122 -0.5783
vn -0.1525 0.6907 0.7069
vn -0.1604 0.7363 0.6574
vn -0.6135 0.7897 0.0000
vn -0.1900 0.9242 -0.3314
vn -0.2120 0.9734 -0.0869
vn -0.6316 0.3179 0.7071
vn -0.0024 0.7113 -0.7029
vn -0.0032 0.7100 -0.7042
vn -0.0017 0.7110 -0.7032
vn -0.0068 0.7068 -0.7073
vn -0.0049 0.7065 -0.7077
vn -0.0047 0.7071 -0.7071
vn 0.0000 0.7071 -0.7071
vn -0.0334 0.0173 -0.9993
vn -0.0022 -0.0006 -1.0000
vn -0.0047 0.0424 -0.9991
vn -0.0394 0.0518 -0.9979
vn -0.0035 0.0405 -0.9992
vn 0.1851 0.1090 -0.9766
vn 0.1954 0.0720 -0.9781
vn -0.0048 1.0000 -0.0009
vn -0.0015 0.9992 -0.0398
vn -0.0000 0.9992 -0.0395
vn -0.0027 1.0000 0.0061
vn -0.0107 0.9990 0.0438
vn -0.0012 1.0000 0.0061
vn 1.0000 -0.0000 -0.0000
vn 1.0000 0.0001 -0.0001
vn 1.0000 0.0000 -0.0001
vn 0.7071 0.5000 -0.5000
vn 0.7068 0.5002 -0.5002
vn 0.7067 0.5003 -0.5002
vn 0.5194 -0.1126 -0.8471
vn 0.5194 -0.1120 -0.8472
vn 0.5193 0.8472 0.1124
vn 0.5195 0.8471 0.1119
vn 0.5197 0.8470 0.1119
vn 0.5188 0.8475 0.1127
vn 0.5185 0.8477 0.1125
vn 0.5190 0.8473 0.1125
vn -0.7071 -0.0000 -0.7071
vn -0.8853 0.4353 -0.1634
usemtl Default_OBJ.001
s off
f 1/1/1 13/2/1 36/3/1
f 7/4/2 1/1/2 36/3/2 39/5/2
f 14/6/3 5/7/3 9/8/3
f 9/8/3 10/9/3 14/6/3
f 55/10/4 63/11/4 19/12/4
f 56/13/4 55/10/4 19/12/4
f 25/14/4 34/15/4 19/12/4
f 2/16/4 25/14/4 19/12/4
f 23/17/4 2/16/4 19/12/4
f 3/18/5 20/19/5 11/20/5
f 3/18/5 11/20/5 4/21/5
f 18/22/6 28/23/6 27/24/6
f 27/24/6 26/25/6 18/22/6
f 60/26/7 16/27/7 29/28/7 70/29/7
f 6/30/8 24/31/8 33/32/8
f 33/32/8 32/33/8 6/30/8
f 61/34/9 62/35/9 17/36/9
f 15/37/10 1/38/10 7/39/10
f 5/7/11 6/30/11 25/40/11
f 20/19/12 7/39/12 22/41/12
f 29/28/13 7/39/13 20/19/13
f 29/28/14 20/19/14 30/42/14
f 2/43/15 8/44/15 9/8/15
f 26/45/16 42/46/16 23/47/16
f 46/48/17 37/49/17 10/9/17
f 21/50/18 43/51/18 11/20/18
f 4/21/19 12/52/19 27/53/19
f 24/31/20 13/54/20 1/38/20
f 13/54/21 24/31/21 14/6/21
f 31/55/22 33/32/22 15/37/22
f 15/37/23 16/27/23 31/55/23
f 32/33/24 17/36/24 34/56/24
f 18/22/25 19/57/25 63/58/25
f 64/59/26 59/60/26 3/61/26
f 65/62/27 73/63/27 30/42/27
f 21/50/28 11/20/28 20/19/28
f 20/19/28 22/41/28 21/50/28
f 7/39/29 39/64/29 22/41/29
f 13/54/30 14/6/30 10/9/30
f 10/9/30 37/49/30 13/54/30
f 46/48/31 10/9/31 9/8/31
f 9/8/31 8/44/31 46/48/31
f 8/65/25 2/66/25 23/47/25
f 23/47/25 42/46/25 8/65/25
f 42/46/32 26/45/32 27/67/32
f 27/67/32 12/68/32 42/46/32
f 12/52/26 4/21/26 11/20/26
f 11/20/26 43/51/26 12/52/26
f 14/6/33 24/31/33 6/30/33
f 6/30/33 5/7/33 14/6/33
f 5/7/34 25/40/34 2/43/34
f 2/43/34 9/8/34 5/7/34
f 19/57/35 18/22/35 26/25/35
f 26/25/35 23/69/35 19/57/35
f 4/21/36 27/53/36 28/70/36
f 28/70/36 3/18/36 4/21/36
f 67/71/37 68/72/37 31/55/37
f 16/27/38 15/37/38 7/39/38
f 7/39/39 29/28/39 16/27/39
f 69/73/40 70/29/40 29/28/40
f 32/33/41 34/56/41 25/40/41
f 25/40/42 6/30/42 32/33/42
f 33/32/43 31/55/43 17/36/43
f 17/36/43 32/33/43 33/32/43
f 24/31/44 1/38/44 15/37/44
f 15/37/45 33/32/45 24/31/45
f 72/74/46 57/75/46 34/56/46
f 63/58/6 55/10/6 56/13/6 57/75/6 72/74/6 62/35/6 61/34/6 68/72/6 67/71/6 60/26/6 70/29/6 69/73/6 71/76/6 73/63/6 65/62/6 66/77/6 58/78/6 59/60/6 64/59/6 28/23/6 18/22/6
f 35/79/47 40/80/48 41/81/49
f 40/80/50 35/79/51 49/82/52
f 36/83/53 37/49/53 38/84/53
f 36/83/53 13/54/53 37/49/53
f 21/50/53 39/64/53 45/85/53
f 22/41/53 39/64/53 21/50/53
f 38/84/54 35/86/55 36/83/5
f 35/86/56 38/84/57 49/87/58
f 36/83/59 41/88/59 39/64/59
f 41/88/60 36/83/60 35/86/60
f 39/64/61 40/89/62 45/85/63
f 40/89/64 39/64/65 41/88/66
f 42/90/67 12/91/67 47/92/67
f 12/91/67 43/93/67 47/92/67
f 43/93/68 44/94/68 47/92/68
f 42/90/67 47/92/67 50/95/67
f 42/90/67 50/95/67 8/96/67
f 46/97/67 8/96/67 50/95/67
f 46/97/69 50/95/69 48/98/69
f 21/50/70 44/99/70 43/100/70
f 44/99/70 21/50/70 45/85/70
f 48/101/70 37/49/70 46/102/70
f 37/49/70 48/101/70 38/84/70
f 50/103/71 40/80/71 49/82/71
f 40/80/72 50/103/72 47/104/72
f 48/101/73 49/87/73 38/84/73
f 49/87/74 48/101/74 50/105/74
f 45/85/75 47/106/76 44/99/77
f 47/106/78 45/85/79 40/89/80
f 30/42/81 73/63/81 71/76/81
f 34/56/46 17/36/46 62/35/46 72/74/46
f 29/28/40 30/42/40 71/76/40 69/73/40
f 31/55/82 16/27/82 60/26/82 67/71/82
f 30/42/27 20/19/27 66/77/27 65/62/27
f 3/61/26 28/107/26 64/59/26
f 17/36/9 31/55/9 68/72/9 61/34/9
f 3/61/5 59/60/5 58/78/5
f 3/61/5 58/78/5 66/77/5 20/19/5
f 34/15/4 57/108/4 56/13/4 19/12/4
l 51 52
l 53 52
l 54 51
l 53 54
