# Blender v2.82 (sub 7) OBJ File: 'GSO_Autominer_Pump.blend'
# www.blender.org
mtllib GSO_Autominer_Pump_Collider.mtl
v -0.000000 1.266760 1.249000
v 0.339720 1.062200 -0.168797
v -0.368798 1.062200 -0.129720
v -0.500001 0.280803 1.300000
v -0.473206 0.280803 -0.400000
v -0.400001 0.280803 -0.473205
v -0.300001 0.280803 -0.500000
v -0.500001 -0.399999 -0.300000
v -0.500001 -0.399999 1.300000
v -0.400001 -0.399999 -0.473205
v -0.300001 -0.399999 -0.500000
v -0.461194 -0.449999 -0.393065
v -0.374119 -0.486602 -0.428377
v 0.298236 -0.449999 -0.486603
v 0.461194 -0.449999 -0.393065
v 0.500000 -0.399999 -0.300000
v 0.500000 -0.399999 1.300000
v -0.473206 0.280803 1.400000
v -0.400001 0.280803 1.473210
v -0.300001 0.280803 1.500000
v 0.300000 0.280803 1.500000
v 0.400000 0.280803 1.473210
v 0.473205 0.280803 1.400000
v 0.500000 0.280803 1.300000
v 0.500000 0.880000 0.500000
v 0.486603 0.864540 0.750882
v 0.473205 0.280803 -0.400000
v 0.400000 0.280803 -0.473205
v -0.400001 -0.399999 1.473210
v -0.473206 -0.399999 1.400000
v -0.300001 -0.399999 1.500000
v -0.428377 -0.486602 1.374120
v 0.374118 -0.486602 -0.428377
v 0.461194 -0.449999 1.393070
v 0.400000 -0.399999 1.473210
v 0.298236 -0.449999 1.486600
v 0.374118 -0.486602 1.428380
v -0.486604 0.864540 0.750882
v -0.154942 1.079590 -0.212126
v -0.082280 1.431094 0.679282
v -0.000000 1.431094 0.597002
v 0.082280 1.431094 0.679282
v 0.071256 1.431093 1.140420
v -0.079640 1.422093 1.145260
vt 0.063600 0.876757
vt 0.000000 0.000000
vt 0.106012 0.976431
vt 0.142376 0.942223
vt 0.154690 0.887364
vt 0.000000 0.000000
vt 0.434734 0.977389
vt 0.000000 0.000000
vt 0.100293 0.890171
vt 0.429439 0.982684
vt 0.771761 0.833724
vt 0.000000 0.000000
vt 0.149106 0.915799
vt 0.105498 0.915799
vt 0.440029 0.982684
vt 0.444742 0.994230
vt 0.000000 0.000000
vt 0.000000 0.000000
vt 0.154690 0.890171
vt 0.000000 0.000000
vt 0.099268 0.915799
vt 0.094708 0.915799
vt 0.000000 0.000000
vt 0.063600 0.870527
vt 0.106012 0.870527
vt 0.000000 0.000000
vt 0.149106 0.873387
vt 0.149106 0.915799
vt 0.142876 0.915799
vt 0.124187 0.977220
vt 0.000000 0.000000
vt 0.105498 0.873387
vt 0.148081 0.873752
vt 0.147493 0.984429
vt 0.097501 0.981048
vt 0.100881 0.868759
vt 0.153666 0.915799
vt 0.441599 0.992382
vt 0.099268 0.915799
vt 0.000000 0.000000
vt 0.094708 0.915799
vt 0.094708 0.873387
vt 0.095456 0.870272
vt 0.099268 0.873387
vt 0.152918 0.870272
vt 0.153666 0.915799
vt 0.099700 0.870272
vt 0.142876 0.873387
vt 0.060485 0.982229
vt 0.063600 0.982661
vt 0.063600 0.976431
vt 0.106012 0.982661
vt 0.106012 0.982661
vt 0.106012 0.987221
vt 0.000000 0.000000
vt 0.063600 0.982661
vt 0.099700 0.866715
vt 0.147493 0.868759
vt 0.143339 0.926594
vt 0.063600 0.870527
vt 0.099268 0.873387
vt 0.105498 0.873387
vt 0.000000 0.000000
vt 0.154690 0.887364
vt 0.153666 0.873387
vt 0.142766 0.870272
vt 0.148674 0.870272
vt 0.150873 0.981048
vt 0.150873 0.872139
vt 0.154501 0.876866
vt 0.152918 0.982229
vt 0.000000 0.000000
vt 0.063600 0.976431
vt 0.106012 0.976431
vt 0.000000 0.000000
vt 0.000000 0.000000
vt 0.144212 0.886902
vt 0.769808 0.821686
vt 0.439320 0.980037
vt 0.438640 0.992382
vt 0.124187 0.973254
vt 0.099700 0.986472
vt 0.100881 0.984429
vt 0.148674 0.986472
vt 0.148674 0.870272
vt 0.142876 0.873387
vt 0.097501 0.872139
vt 0.000000 0.000000
vt 0.435031 0.993918
vt 0.154690 0.890171
vt 0.060485 0.876866
vt 0.063600 0.876757
vt 0.060485 0.982229
vt 0.063600 0.865967
vt 0.000000 0.000000
vt 0.060485 0.876866
vt 0.444202 0.993918
vt 0.430148 0.980037
vt 0.439617 0.996566
vt 0.142766 0.865132
vt 0.099700 0.870272
vt 0.000000 0.000000
vt 0.146564 0.926594
vt 0.435681 0.992382
vt 0.105498 0.915799
vn -0.9987 0.0438 -0.0264
vn -0.2418 0.9092 -0.3388
vn 0.0600 0.3475 -0.9358
vn 0.8023 0.5968 0.0079
vn -0.3497 0.3797 -0.8565
vn -0.5163 0.1781 -0.8377
vn -0.7303 0.1580 -0.6646
vn 0.9789 -0.0054 -0.2040
vn 0.6959 -0.0500 -0.7164
vn 0.8963 0.1171 -0.4277
vn 0.0238 0.0890 0.9957
vn 0.4822 0.2095 0.8507
vn 0.1956 0.2212 0.9554
vn 0.0105 0.3636 0.9315
vn -0.1598 0.1424 0.9768
vn -0.1151 0.0462 0.9923
vn 0.1722 -0.9851 -0.0000
vn 0.1765 -0.9843 -0.0000
vn -0.5332 -0.8242 0.1911
vn -0.1699 -0.9854 -0.0051
vn -0.3225 0.3820 -0.8661
vn -0.1913 0.1379 -0.9718
vn 0.8363 0.1828 0.5169
vn 0.3945 0.4913 0.7766
vn -0.5185 0.1808 0.8358
vn -0.5593 0.5632 0.6083
vn -0.8361 0.1869 0.5157
vn -0.8373 -0.2555 0.4834
vn -0.5395 -0.1112 0.8346
vn 0.5038 0.0945 -0.8586
vn -0.0567 -0.8209 0.5683
vn 0.0840 -0.7432 0.6637
vn -0.0739 -0.9583 0.2759
vn -0.9014 -0.4105 0.1380
vn -0.8546 0.4860 0.1829
vn -0.9226 0.2206 0.3165
vn 0.7505 -0.0096 0.6609
vn 0.8660 -0.0098 0.5000
vn 0.0000 0.6943 -0.7197
vn 0.9513 0.2249 -0.2109
vn 0.9967 0.0631 -0.0505
vn -0.8504 -0.0144 -0.5259
vn -0.9264 -0.0188 -0.3762
vn -0.5596 -0.0057 -0.8288
vn -0.1112 0.0038 -0.9938
vn 0.9669 0.1411 0.2125
vn 0.9744 0.1682 0.1494
vn 0.4273 -0.5131 0.7444
vn 0.3161 -0.6028 0.7326
vn 0.4943 -0.8693 -0.0000
vn 0.9838 -0.0013 0.1792
vn 0.0194 0.9922 -0.1234
vn 0.1125 0.9138 -0.3903
vn 0.0596 0.9691 -0.2392
vn -0.0538 -0.7940 0.6056
vn 0.4967 -0.0673 -0.8653
vn 0.2854 -0.0331 -0.9578
vn -0.4979 -0.8672 -0.0089
vn -0.8126 0.5824 0.0199
vn 0.7900 -0.6131 -0.0000
vn -0.7776 -0.6287 0.0007
vn -0.0260 0.9996 0.0086
vn -0.0660 -0.8663 -0.4951
usemtl _auto_.004
s off
f 8/1/1 9/2/1 4/3/1 38/4/1 3/5/1 5/6/1
f 41/7/2 39/8/2 3/9/2 40/10/2
f 39/11/3 2/12/3 28/13/3 7/14/3
f 42/15/4 43/16/4 26/17/4 25/18/4 2/19/4
s 1
f 3/20/5 6/21/6 5/22/7
f 16/23/8 15/24/9 27/25/10
f 36/26/11 35/27/11 22/28/12 21/29/13 1/30/14 20/31/15 31/32/16
f 33/33/17 37/34/18 32/35/19 13/36/20
f 39/11/21 7/14/22 6/21/6 3/20/5
f 23/37/23 43/38/24 22/28/12
f 19/39/25 44/40/26 18/41/27
f 30/42/28 32/43/19 29/44/29
f 15/45/9 28/13/30 27/46/10
f 29/47/31 36/48/32 31/32/33
f 32/49/19 30/50/28 9/51/34
f 18/52/27 44/40/26 38/4/35 4/3/36
f 23/53/23 22/54/12 35/55/37 34/56/38
f 12/57/39 33/58/39 13/36/39
f 27/25/10 2/12/40 25/59/41
f 5/6/7 12/60/42 8/1/43
f 10/61/44 6/21/6 7/14/22 11/62/45
f 23/53/23 24/63/46 26/17/47 43/16/24
f 27/46/10 28/13/30 2/64/40
f 34/65/48 35/27/48 36/66/32 37/67/49
f 37/68/18 33/69/17 15/70/50 34/71/50
f 23/53/23 34/72/38 17/73/51 24/74/46
f 19/75/25 18/52/27 30/76/28 29/44/29
f 42/15/52 2/77/53 39/78/53 41/79/54
f 43/38/24 44/80/26 1/81/14
f 36/66/32 29/82/31 32/83/55 37/84/49
f 15/45/9 33/85/56 14/86/57 28/13/30
f 12/87/58 13/36/20 32/35/19
f 29/44/29 31/32/16 20/31/15 19/75/25
f 38/88/35 44/89/26 40/10/59 3/90/59
f 1/81/14 21/29/13 22/28/12 43/38/24
f 18/52/27 4/3/36 9/2/34 30/76/28
f 15/91/50 16/92/60 17/73/60 34/93/50
f 10/94/44 12/60/42 5/6/7 6/95/6
f 32/49/19 9/51/34 8/1/61 12/96/58
f 43/97/62 42/15/52 41/98/54 40/10/62 44/99/62
f 14/100/63 33/58/63 12/101/63 10/61/63 11/62/63
f 24/63/46 17/102/51 16/23/8 27/25/10 25/103/41 26/17/47
f 1/81/14 44/104/26 19/39/25 20/105/15
f 11/62/45 7/14/22 28/13/30 14/86/57
