# Blender v2.82 (sub 7) OBJ File: 'HE_Angled_Wing_Left.blend'
# www.blender.org
mtllib HE_Cirrus_Wing_Left.mtl
o Knife_Wing_m_HE_Wing_Middle_312_Instance.001
v -0.598288 0.413324 -3.736750
v -0.429549 0.339955 -3.736750
v -2.386922 1.191045 -3.467500
v -0.462566 0.264022 -2.999000
v -2.064113 1.241292 -3.182500
v -2.350237 1.275414 -3.467500
v -2.603346 1.385469 -3.467500
v -0.781695 0.683681 -3.182500
v -0.359848 0.500256 -2.999000
v -0.561603 0.497694 -3.736750
v -0.392864 0.424324 -3.736750
v -2.614352 1.360158 -3.793749
v -2.640031 1.301100 -3.467500
v -2.629026 1.326411 -3.793749
v -0.418544 0.365266 -4.387798
v -0.403870 0.399013 -4.387798
v -0.502913 0.401950 -4.213321
v -0.488239 0.435698 -4.213321
v -2.445613 1.286788 -3.722803
v -2.460287 1.253041 -3.722803
v -2.773787 1.267294 -3.182500
v -2.917734 1.432574 -3.182500
v 0.499999 0.139999 0.300000
v 0.499999 -0.140001 0.300000
v 0.264780 0.057265 0.500000
v -2.746042 1.357226 -1.425000
v -2.917735 1.432574 -1.615000
v -2.663075 1.500000 -1.615000
v -2.894967 1.496114 -1.615000
v -2.716694 1.424722 -1.425000
v -2.894967 1.496114 -3.182500
v 0.287220 0.127361 0.500000
v 0.499999 0.130000 -1.870000
v 0.599999 -0.000000 -2.000000
v 0.499999 -0.130000 -2.130000
v 0.499999 0.140000 -2.438500
v 0.499999 -0.140000 -2.438500
v 0.599999 -0.000000 -1.000000
v 0.499999 -0.130000 -1.130000
v 0.499999 0.130000 -1.130000
v 0.499999 0.130000 -0.870000
v 0.499999 -0.130000 -0.870000
v 0.499999 -0.130000 -0.130000
v 0.499999 0.129999 0.130000
v 0.499999 0.130000 -0.130000
v 0.599999 -0.000000 -0.000000
v 0.499999 -0.130001 0.130000
v 0.499999 0.130000 -2.130000
v 0.499999 -0.130000 -1.870000
v -0.359848 0.500256 -2.999000
v -0.462566 0.264022 -2.999000
v -2.663075 1.500000 -3.182500
v -2.773785 1.267294 -1.615000
v 0.499999 0.039999 -2.676000
v 0.499999 -0.040001 -2.676000
v -0.143424 0.305832 -3.094000
v -0.172772 0.238336 -3.094000
v -0.172772 0.238337 -3.094000
v -0.143424 0.305832 -3.094000
v -2.166830 1.005057 -3.182500
v -0.884412 0.447446 -3.182500
v -0.172772 0.238337 -3.736750
v -0.143424 0.305832 -3.736750
v -2.917734 1.432574 -3.467500
v -2.894967 1.496114 -3.467500
v -0.165435 0.255211 -4.464098
v -0.150761 0.288959 -4.464098
v -2.900659 1.480229 -3.718045
v -2.912043 1.448459 -3.718045
v -1.873525 0.877525 -3.182500
v -1.219902 0.593321 -3.182500
v -1.117184 0.829556 -3.182500
v -1.770808 1.113759 -3.182500
v -1.635078 0.864133 -3.471737
v -1.392317 0.758578 -3.473787
v -1.355632 0.842947 -3.473787
v -1.598393 0.948503 -3.471737
v -1.565635 0.864035 -3.932972
v -1.439749 0.809298 -3.967391
v -1.425075 0.843046 -3.967391
v -1.550961 0.897783 -3.932972
v 0.499999 -0.140000 -1.786667
v 0.499999 -0.140000 -0.743333
v 0.499999 0.140000 -1.786667
v 0.499999 0.140000 -0.743333
v 0.499999 -0.140000 -1.265000
v 0.499999 0.140000 -1.265000
v -3.110001 1.500000 -2.870000
v -2.980001 1.600000 -3.000000
v -2.850001 1.500000 -3.130000
v -2.980001 1.600000 -2.000000
v -2.850001 1.500000 -2.130000
v -3.110001 1.500000 -2.130000
v -3.110001 1.500000 -1.870000
v -2.850001 1.500000 -1.870000
v -3.110001 1.500000 -3.130000
v -2.850001 1.500000 -2.870000
v -3.110001 1.430596 -2.870000
v -2.850001 1.430596 -3.130000
v -2.850001 1.430596 -2.130000
v -3.110001 1.430596 -2.130000
v -3.110001 1.430596 -1.870000
v -2.850001 1.430596 -1.870000
v -3.110001 1.430596 -3.130000
v -2.850001 1.430596 -2.870000
v -2.773785 1.267294 -2.870000
v -2.513785 1.267294 -3.130000
v -2.513785 1.267294 -2.130000
v -2.773785 1.267294 -2.130000
v -2.773785 1.267294 -1.870000
v -2.513785 1.267294 -1.870000
v -2.773785 1.267294 -3.130000
v -2.513785 1.267294 -2.870000
vt 0.652937 0.789996
vt 0.647062 0.789996
vt 0.648211 0.806443
vt 0.707554 0.808685
vt 0.725180 0.808685
vt 0.715217 0.799075
vt 0.662900 0.808685
vt 0.646167 0.832510
vt 0.637354 0.828677
vt 0.637865 0.827502
vt 0.646678 0.831334
vt 0.721604 0.808685
vt 0.703977 0.808685
vt 0.713940 0.799075
vt 0.722753 0.799075
vt 0.644635 0.806443
vt 0.651660 0.789996
vt 0.659323 0.808685
vt 0.645784 0.789996
vt 0.637099 0.803239
vt 0.637099 0.789996
vt 0.631761 0.789996
vt 0.634699 0.789996
vt 0.632540 0.773926
vt 0.631365 0.773926
vt 0.661779 0.799075
vt 0.658841 0.799075
vt 0.661000 0.790466
vt 0.662175 0.790466
vt 0.641175 0.808685
vt 0.632949 0.808685
vt 0.717772 0.862247
vt 0.723647 0.864802
vt 0.723136 0.865977
vt 0.717261 0.863422
vt 0.662900 0.834196
vt 0.707554 0.853612
vt 0.703977 0.861838
vt 0.659323 0.842422
vt 0.649616 0.773926
vt 0.646678 0.768042
vt 0.630087 0.768042
vt 0.631263 0.768042
vt 0.649105 0.773926
vt 0.646167 0.768042
vt 0.724031 0.799075
vt 0.717772 0.790466
vt 0.723647 0.788074
vt 0.717261 0.790466
vt 0.723136 0.788074
vt 0.715217 0.860088
vt 0.713940 0.863026
vt 0.637865 0.765469
vt 0.638121 0.789996
vt 0.637354 0.765469
vt 0.732575 0.799075
vt 0.733342 0.869017
vt 0.732831 0.870192
vt 0.733597 0.799075
vt 0.733342 0.790626
vt 0.732831 0.790626
vt 0.647458 0.798932
vt 0.650396 0.798932
vt 0.648630 0.783379
vt 0.647455 0.783379
vt 0.647924 0.808685
vt 0.656150 0.808685
vt 0.646254 0.808685
vt 0.638028 0.808685
vt 0.643783 0.798863
vt 0.646720 0.798863
vt 0.645549 0.782218
vt 0.646724 0.782218
vt 0.732575 0.808685
vt 0.638121 0.803239
vt 0.667182 0.808685
vt 0.669532 0.808685
vt 0.669532 0.799075
vt 0.667182 0.799075
vt 0.628018 0.803239
vt 0.625668 0.803239
vt 0.625668 0.789996
vt 0.628018 0.789996
vt 0.234473 0.015355
vt 0.243443 0.015355
vt 0.243443 0.048778
vt 0.234473 0.048778
vt 0.338349 0.147386
vt 0.394434 0.266968
vt 0.401620 0.261450
vt 0.351799 0.148776
vt 0.449108 0.229714
vt 0.392763 0.230467
vt 0.392883 0.239439
vt 0.449228 0.238687
vt 0.721604 0.861542
vt 0.732575 0.861542
vt 0.726700 0.867949
vt 0.440942 0.236829
vt 0.508331 0.120109
vt 0.472644 0.119538
vt 0.454800 0.119252
vt 0.436957 0.118966
vt 0.414661 0.118608
vt 0.394430 0.149840
vt 0.394978 0.150189
vt 0.621854 0.925611
vt 0.618650 0.932018
vt 0.616088 0.932018
vt 0.612884 0.925611
vt 0.449261 0.241192
vt 0.449228 0.238686
vt 0.392883 0.239439
vt 0.392916 0.241944
vt 0.386866 0.262043
vt 0.388993 0.260614
vt 0.371014 0.147163
vt 0.368493 0.147625
vt 0.397925 0.263923
vt 0.342909 0.145120
vt 0.355154 0.146745
vt 0.409725 0.261480
vt 0.725180 0.861542
vt 0.727722 0.867949
vt 0.733597 0.861542
vt 0.392763 0.230467
vt 0.449108 0.229714
vt 0.449264 0.241410
vt 0.392919 0.242162
vt 0.733597 0.868429
vt 0.727722 0.865875
vt 0.726700 0.868225
vt 0.732575 0.870780
vt 0.441292 0.234967
vt 0.392481 0.155369
vt 0.393878 0.154529
vt 0.412307 0.119248
vt 0.434203 0.118999
vt 0.451726 0.118800
vt 0.469250 0.118600
vt 0.504297 0.118201
vt 0.637099 0.803239
vt 0.644635 0.806443
vt 0.616088 0.825343
vt 0.616088 0.817335
vt 0.389424 0.230454
vt 0.441082 0.230454
vt 0.395471 0.151017
vt 0.389424 0.166177
vt 0.389424 0.178233
vt 0.389424 0.201722
vt 0.389424 0.212263
vt 0.445129 0.232433
vt 0.395114 0.232516
vt 0.395084 0.214329
vt 0.395067 0.203791
vt 0.395028 0.180308
vt 0.395008 0.168255
vt 0.392861 0.153102
vt 0.648211 0.806443
vt 0.638121 0.803239
vt 0.616088 0.817335
vt 0.616088 0.825343
vt 0.638121 0.826915
vt 0.637099 0.829265
vt 0.616088 0.819897
vt 0.626255 0.765469
vt 0.627430 0.765469
vt 0.733597 0.808685
vt 0.668945 0.790626
vt 0.667770 0.790626
vt 0.674582 0.808685
vt 0.697341 0.808685
vt 0.689038 0.798932
vt 0.680585 0.798863
vt 0.693764 0.808685
vt 0.671005 0.808685
vt 0.679308 0.798863
vt 0.687761 0.798932
vt 0.686620 0.848702
vt 0.686109 0.849877
vt 0.681726 0.847971
vt 0.682237 0.846796
vt 0.686620 0.783379
vt 0.682237 0.782218
vt 0.681726 0.782218
vt 0.686109 0.783379
vt 0.234473 0.016719
vt 0.237677 0.008710
vt 0.240239 0.008710
vt 0.243443 0.016719
vt 0.243443 0.050141
vt 0.234473 0.050141
vt 0.240552 0.026714
vt 0.240552 0.031231
vt 0.236868 0.031231
vt 0.236868 0.026714
vt 0.245964 0.012424
vt 0.245964 0.046133
vt 0.196960 0.046133
vt 0.196960 0.012424
vt 0.075351 0.073845
vt 0.075351 0.002667
vt 0.039499 0.038249
vt 0.004325 0.073845
vt 0.004325 0.002667
vt 0.075351 0.073845
vt 0.075351 0.002667
vt 0.039499 0.038249
vt 0.004325 0.073845
vt 0.004325 0.002667
vt 0.075351 0.073845
vt 0.075351 0.002667
vt 0.039499 0.038249
vt 0.004325 0.073845
vt 0.004325 0.002667
vt 0.075351 0.073845
vt 0.075351 0.002667
vt 0.039499 0.038249
vt 0.004325 0.073845
vt 0.004325 0.002667
vt 0.075351 0.073845
vt 0.075351 0.002667
vt 0.039499 0.038249
vt 0.004325 0.073845
vt 0.004325 0.002667
vt 0.075351 0.073845
vt 0.075351 0.002667
vt 0.004325 0.073845
vt 0.075351 0.073845
vt 0.075351 0.002667
vt 0.004325 0.073845
vt 0.004325 0.002667
vt 0.004325 0.002667
vt 0.004325 0.073845
vt 0.075351 0.073845
vt 0.075351 0.002667
vt 0.004325 0.073845
vt 0.075351 0.073845
vt 0.004325 0.002667
vt 0.004325 0.002667
vt 0.075351 0.002667
vn -0.3963 -0.9113 -0.1115
vn -0.3806 -0.8810 -0.2810
vn -0.3500 -0.9286 -0.1235
vn -0.2444 0.1062 -0.9638
vn 0.3810 0.8821 -0.2769
vn 0.3835 0.8820 -0.2741
vn 0.4404 0.8893 -0.1235
vn 0.3963 0.9113 -0.1115
vn 0.5483 0.8342 -0.0590
vn -0.9004 0.3915 -0.1895
vn 0.8628 -0.3751 -0.3390
vn -0.8209 0.3569 -0.4458
vn 0.3299 -0.1435 -0.9330
vn -0.0000 0.0000 -1.0000
vn -0.4705 -0.8814 -0.0422
vn -0.3981 -0.9155 -0.0578
vn -0.8112 0.3527 -0.4664
vn 0.3981 0.9155 -0.0578
vn 0.3237 0.9452 -0.0422
vn -0.3964 -0.9117 -0.1075
vn -0.3673 -0.9263 -0.0843
vn 0.4269 0.9004 -0.0843
vn 0.3964 0.9117 -0.1075
vn 0.6588 -0.2864 -0.6957
vn -0.3824 -0.8794 -0.2838
vn -0.3875 -0.9213 -0.0334
vn 0.4095 0.9117 -0.0334
vn 0.3396 0.8952 -0.2886
vn -0.2209 0.0879 -0.9713
vn -0.4194 -0.9046 -0.0767
vn 0.3610 0.9294 -0.0768
vn -0.9084 0.3950 -0.1369
vn -0.7250 0.3153 -0.6123
vn 0.7270 -0.3161 -0.6096
vn 0.9095 -0.3955 -0.1280
vn -0.0168 0.9999 0.0000
vn -0.2362 -0.9699 -0.0590
vn -0.9414 0.3373 0.0000
vn 0.9171 -0.3987 -0.0000
vn 1.0000 0.0000 0.0000
vn -0.5274 -0.7935 0.3037
vn -0.7541 -0.6568 0.0000
vn -0.0156 0.9311 0.3645
vn 0.3945 0.9189 -0.0025
vn 0.6557 -0.0420 0.7538
vn -0.4746 0.1786 0.8619
vn 0.1881 0.9227 0.3365
vn -0.6950 -0.6053 0.3880
vn -0.6575 0.2615 0.7066
vn -0.3944 -0.9189 0.0025
vn 0.5392 0.7732 -0.3337
vn 0.3982 0.9173 0.0007
vn -0.3982 -0.9173 -0.0007
vn -0.1713 -0.9192 -0.3547
vn 0.5036 -0.1002 -0.8581
vn -0.3840 -0.8817 -0.2743
vn 0.3829 0.8821 -0.2743
vn -0.2230 0.0970 -0.9700
vn -0.4029 -0.9134 -0.0577
vn 0.3933 0.9176 -0.0577
vn -0.4089 -0.8638 -0.2944
vn 0.7926 -0.6097 -0.0000
vn 0.7926 0.6097 0.0000
vn 0.7926 0.0000 -0.6097
vn 0.7926 0.0000 0.6097
vn 0.6097 0.7926 0.0000
vn -0.6097 0.7926 0.0000
vn 0.0000 0.7926 -0.6097
vn 0.0000 0.7926 0.6097
vn -0.0000 0.0000 1.0000
vn -1.0000 0.0000 0.0000
vn 0.4369 0.8995 0.0000
vn -0.4369 -0.8995 0.0000
usemtl Default_OBJ.002
s off
f 1/1/1 2/2/1 4/3/1
f 60/4/2 21/5/2 3/6/2
f 61/7/3 1/1/3 4/3/3
f 16/8/4 67/9/4 66/10/4 15/11/4
f 52/12/5 5/13/5 6/14/5
f 7/15/6 52/12/6 6/14/6
f 9/16/7 10/17/7 8/18/7
f 9/16/8 11/19/8 10/17/8
f 9/16/9 59/20/9 63/21/9 11/19/9
f 1/22/10 10/23/10 18/24/10 17/25/10
f 6/26/11 3/27/11 20/28/11 19/29/11
f 8/30/12 10/23/12 1/22/12
f 1/22/12 61/31/12 8/30/12
f 20/32/13 14/33/13 12/34/13 19/35/13
f 61/36/14 60/37/14 5/38/14 8/39/14
f 17/40/15 15/41/15 2/2/15
f 2/2/16 1/1/16 17/40/16
f 15/42/17 17/25/17 18/24/17 16/43/17
f 11/19/18 18/44/18 10/17/18
f 18/44/19 11/19/19 16/45/19
f 13/46/20 20/47/20 3/6/20
f 20/47/21 13/46/21 14/48/21
f 19/49/22 12/50/22 7/15/22
f 7/15/23 6/14/23 19/49/23
f 60/37/24 3/51/24 6/52/24 5/38/24
f 3/6/25 21/5/25 13/46/25
f 15/41/26 66/53/26 62/54/26 2/2/26
f 16/45/27 11/19/27 63/21/27 67/55/27
f 52/12/28 7/15/28 65/56/28
f 14/33/29 69/57/29 68/58/29 12/34/29
f 14/48/30 13/46/30 64/59/30 69/60/30
f 12/50/31 68/61/31 65/56/31 7/15/31
f 74/62/32 77/63/32 81/64/32 78/65/32
f 70/66/33 73/67/33 77/63/33 74/62/33
f 72/68/34 71/69/34 75/70/34 76/71/34
f 76/71/35 75/70/35 79/72/35 80/73/35
f 52/12/36 65/56/36 31/74/36
usemtl Default_OBJ
f 58/75/37 4/3/37 2/2/37 62/54/37
f 22/76/38 31/77/38 65/78/38 64/79/38
f 59/80/39 58/81/39 62/82/39 63/83/39
f 83/84/40 85/85/40 23/86/40 24/87/40
f 53/88/41 24/89/41 25/90/41 26/91/41
f 27/92/42 22/93/42 21/94/42 53/95/42
f 28/96/43 29/97/43 30/98/43
f 28/99/44 23/100/44 85/101/44 87/102/44 84/103/44 36/104/44 50/105/44 9/106/44
f 23/107/45 32/108/45 25/109/45 24/110/45
f 27/111/38 29/112/38 31/113/38 22/114/38
f 25/115/46 32/116/46 30/117/46 26/118/46
f 23/119/47 28/120/47 30/121/47 32/122/47
f 53/123/48 26/124/48 27/125/48
f 31/126/36 29/127/36 28/128/36 52/129/36
f 27/130/49 26/131/49 30/132/49 29/133/49
f 53/134/50 4/135/50 51/136/50 37/137/50 82/138/50 86/139/50 83/140/50 24/141/50
f 56/142/51 50/143/51 36/144/51 54/145/51
f 52/146/52 28/147/52 9/148/52 8/149/52 72/150/52 73/151/52 5/152/52
f 53/153/53 21/154/53 60/155/53 70/156/53 71/157/53 61/158/53 4/159/53
f 51/160/54 57/161/54 55/162/54 37/163/54
f 57/164/55 56/165/55 54/166/55 55/162/55
f 63/83/39 62/82/39 66/167/39 67/168/39
f 21/5/42 22/169/42 64/59/42
f 64/79/38 65/78/38 68/170/38 69/171/38
f 71/172/56 70/173/56 74/174/56 75/175/56
f 73/176/57 72/177/57 76/178/57 77/179/57
f 78/180/58 81/181/58 80/182/58 79/183/58
f 75/175/59 74/174/59 78/184/59 79/185/59
f 77/179/60 76/178/60 80/186/60 81/187/60
f 37/188/40 55/189/40 54/190/40 36/191/40 84/192/40 82/193/40
f 86/194/40 87/195/40 85/196/40 83/197/40
f 82/198/40 84/199/40 87/200/40 86/201/40
f 21/5/61 64/59/61 13/46/61
usemtl Default_OBJ.001
f 49/202/62 35/203/62 34/204/62
f 33/205/63 34/204/63 48/206/63
f 34/204/64 35/203/64 48/206/64
f 33/205/65 49/202/65 34/204/65
f 42/207/62 39/208/62 38/209/62
f 41/210/63 38/209/63 40/211/63
f 38/209/64 39/208/64 40/211/64
f 41/210/65 42/207/65 38/209/65
f 47/212/62 43/213/62 46/214/62
f 44/215/63 46/214/63 45/216/63
f 46/214/64 43/213/64 45/216/64
f 44/215/65 47/212/65 46/214/65
f 97/217/66 90/218/66 89/219/66
f 88/220/67 89/219/67 96/221/67
f 89/219/68 90/218/68 96/221/68
f 88/220/69 97/217/69 89/219/69
f 95/222/66 92/223/66 91/224/66
f 94/225/67 91/224/67 93/226/67
f 91/224/68 92/223/68 93/226/68
f 94/225/69 95/222/69 91/224/69
f 90/218/40 97/217/40 105/227/40 99/228/40
f 95/222/70 94/225/70 102/229/70 103/230/70
f 92/223/40 95/222/40 103/230/40 100/231/40
f 97/217/70 88/220/70 98/232/70 105/227/70
f 88/220/71 96/221/71 104/233/71 98/232/71
f 94/225/71 93/226/71 101/234/71 102/229/71
f 93/226/14 92/223/14 100/231/14 101/234/14
f 96/221/14 90/218/14 99/228/14 104/233/14
f 103/230/70 102/229/70 110/235/70 111/236/70
f 100/231/72 103/230/72 111/236/72 108/237/72
f 105/227/70 98/232/70 106/238/70 113/239/70
f 98/232/73 104/233/73 112/240/73 106/238/73
f 101/234/14 100/231/14 108/237/14 109/241/14
f 102/229/73 101/234/73 109/241/73 110/235/73
f 104/233/14 99/228/14 107/242/14 112/240/14
f 99/228/72 105/227/72 113/239/72 107/242/72
