# Blender v2.82 (sub 7) OBJ File: 'HE_Angled_Wing.blend'
# www.blender.org
mtllib HE_Cirrus_Wing_Right_Aeliron.mtl
o m_HE_Wing_Tail_123_Flap_Instance.001
v 0.454790 0.047436 0.180878
v 0.138272 0.020240 -0.318980
v 0.112052 0.057040 0.154630
v 0.391732 0.020240 -0.250248
v 0.365511 0.031280 0.550440
v 0.147011 0.031280 0.371420
v 0.750072 0.031279 0.550440
v 0.678507 0.044349 0.184328
v 0.907392 0.031279 0.379440
v 0.986052 0.057039 0.246440
v 0.750071 0.020240 -0.163413
v 0.968572 0.020239 -0.107114
v 0.454557 -0.040671 0.177721
v 0.138272 -0.016560 -0.318980
v 0.391732 -0.016560 -0.250248
v 0.112052 -0.053360 0.154630
v 0.365511 -0.057041 0.550440
v 0.147012 -0.057040 0.371420
v 0.750071 -0.057041 0.550440
v 0.678273 -0.043757 0.181170
v 0.907392 -0.057041 0.379440
v 0.986052 -0.053361 0.246440
v 0.750071 -0.016560 -0.163413
v 0.968572 -0.016561 -0.107114
v 0.112052 -0.053360 0.154630
v 0.138272 0.020240 -0.318980
v 0.138272 -0.016560 -0.318980
v 0.112052 0.057040 0.154630
v 0.147012 -0.057040 0.371420
v 0.147011 0.031280 0.371420
v 0.147011 0.031280 0.371420
v 0.391731 -0.012880 0.578940
v 0.365511 0.031280 0.550440
v 0.147012 -0.057040 0.371420
v 0.365511 -0.057041 0.550440
v 0.391731 -0.012880 0.578940
v 0.147011 0.031280 0.371420
v 0.147012 -0.057040 0.371420
v 0.391731 -0.012880 0.578940
v 0.750072 0.031279 0.550440
v 0.391731 -0.012880 0.578940
v 0.723852 -0.012881 0.578940
v 0.365511 0.031280 0.550440
v 0.907392 0.031279 0.379440
v 0.723852 -0.012881 0.578940
v 0.907392 -0.057041 0.379440
v 0.907392 0.031279 0.379440
v 0.907392 -0.057041 0.379440
v 0.723852 -0.012881 0.578940
v 0.750071 -0.057041 0.550440
v 0.391731 -0.012880 0.578940
v 0.365511 -0.057041 0.550440
v 0.986052 -0.053361 0.246440
v 0.907392 0.031279 0.379440
v 0.907392 -0.057041 0.379440
v 0.986052 0.057039 0.246440
v 0.968572 -0.016561 -0.107114
v 0.968572 0.020239 -0.107114
v 0.750071 -0.016560 -0.163413
v 0.968572 0.020239 -0.107114
v 0.968572 -0.016561 -0.107114
v 0.750071 0.020240 -0.163413
v 0.138272 -0.016560 -0.318980
v 0.391732 0.020240 -0.250248
v 0.391732 -0.016560 -0.250248
v 0.138272 0.020240 -0.318980
v 0.454790 0.047436 0.180878
v 0.391732 -0.016560 -0.250248
v 0.391732 0.020240 -0.250248
v 0.454557 -0.040671 0.177721
v 0.678507 0.044349 0.184328
v 0.454557 -0.040671 0.177721
v 0.454790 0.047436 0.180878
v 0.678273 -0.043757 0.181170
v 0.750071 0.020240 -0.163413
v 0.678273 -0.043757 0.181170
v 0.678507 0.044349 0.184328
v 0.750071 -0.016560 -0.163413
v -0.432940 -0.043756 0.094720
v -0.138273 -0.016560 -0.367074
v -0.112052 -0.053360 0.154630
v -0.391732 -0.016560 -0.430641
v -0.365513 -0.057040 0.549830
v -0.147013 -0.057040 0.371420
v -0.750073 -0.057039 0.542420
v -0.656657 -0.040670 0.091270
v -0.907393 -0.057039 0.371420
v -0.986052 -0.053359 0.068180
v -0.750072 -0.016559 -0.519435
v -0.968572 -0.016560 -0.586880
v -0.432707 0.044351 0.097877
v -0.138272 0.020240 -0.367074
v -0.391733 0.020240 -0.430641
v -0.112052 0.057040 0.154630
v -0.365512 0.031280 0.549829
v -0.147013 0.031280 0.371420
v -0.750072 0.031280 0.542420
v -0.656424 0.047437 0.094428
v -0.907392 0.031281 0.371420
v -0.986052 0.057041 0.068179
v -0.750073 0.020241 -0.519435
v -0.968572 0.020241 -0.586880
v -0.112052 0.057040 0.154630
v -0.138273 -0.016560 -0.367074
v -0.138272 0.020240 -0.367074
v -0.112052 -0.053360 0.154630
v -0.147013 0.031280 0.371420
v -0.147013 -0.057040 0.371420
v -0.147013 -0.057040 0.371420
v -0.391734 -0.012880 0.586879
v -0.365513 -0.057040 0.549830
v -0.147013 0.031280 0.371420
v -0.365512 0.031280 0.549829
v -0.391734 -0.012880 0.586879
v -0.147013 -0.057040 0.371420
v -0.147013 0.031280 0.371420
v -0.391734 -0.012880 0.586879
v -0.750073 -0.057039 0.542420
v -0.391734 -0.012880 0.586879
v -0.723852 -0.012880 0.586880
v -0.365513 -0.057040 0.549830
v -0.907393 -0.057039 0.371420
v -0.723852 -0.012880 0.586880
v -0.907392 0.031281 0.371420
v -0.907393 -0.057039 0.371420
v -0.907392 0.031281 0.371420
v -0.723852 -0.012880 0.586880
v -0.750072 0.031280 0.542420
v -0.391734 -0.012880 0.586879
v -0.365512 0.031280 0.549829
v -0.986052 0.057041 0.068179
v -0.907393 -0.057039 0.371420
v -0.907392 0.031281 0.371420
v -0.986052 -0.053359 0.068180
v -0.968572 0.020241 -0.586880
v -0.968572 -0.016560 -0.586880
v -0.750073 0.020241 -0.519435
v -0.968572 -0.016560 -0.586880
v -0.968572 0.020241 -0.586880
v -0.750072 -0.016559 -0.519435
v -0.138272 0.020240 -0.367074
v -0.391732 -0.016560 -0.430641
v -0.391733 0.020240 -0.430641
v -0.138273 -0.016560 -0.367074
v -0.432940 -0.043756 0.094720
v -0.391733 0.020240 -0.430641
v -0.391732 -0.016560 -0.430641
v -0.432707 0.044351 0.097877
v -0.656657 -0.040670 0.091270
v -0.432707 0.044351 0.097877
v -0.432940 -0.043756 0.094720
v -0.656424 0.047437 0.094428
v -0.750072 -0.016559 -0.519435
v -0.656424 0.047437 0.094428
v -0.656657 -0.040670 0.091270
v -0.750073 0.020241 -0.519435
vt 0.336921 0.359807
vt 0.372074 0.403286
vt 0.377771 0.367344
vt 0.341524 0.391376
vt 0.344029 0.324194
vt 0.371747 0.324151
vt 0.297107 0.324194
vt 0.302601 0.359807
vt 0.278256 0.324235
vt 0.265619 0.365968
vt 0.298000 0.393427
vt 0.270427 0.402897
vt 0.336921 0.359807
vt 0.372074 0.403286
vt 0.341523 0.391376
vt 0.377771 0.367344
vt 0.344029 0.324194
vt 0.371747 0.324151
vt 0.297107 0.324194
vt 0.302601 0.359807
vt 0.278256 0.324235
vt 0.265619 0.365968
vt 0.298000 0.393426
vt 0.270427 0.402897
vt 0.377771 0.367344
vt 0.372074 0.403286
vt 0.372074 0.403286
vt 0.377771 0.367344
vt 0.371747 0.324151
vt 0.371747 0.324151
vt 0.371747 0.324151
vt 0.344029 0.324194
vt 0.344029 0.324194
vt 0.371747 0.324151
vt 0.344029 0.324194
vt 0.344029 0.324194
vt 0.371747 0.324151
vt 0.371747 0.324151
vt 0.344029 0.324194
vt 0.297107 0.324194
vt 0.344029 0.324194
vt 0.297107 0.324194
vt 0.344029 0.324194
vt 0.278256 0.324235
vt 0.297107 0.324194
vt 0.278256 0.324235
vt 0.278256 0.324235
vt 0.278256 0.324235
vt 0.297107 0.324194
vt 0.297107 0.324194
vt 0.344029 0.324194
vt 0.344029 0.324194
vt 0.265619 0.365968
vt 0.278256 0.324235
vt 0.278256 0.324235
vt 0.265619 0.365968
vt 0.270427 0.402897
vt 0.270427 0.402897
vt 0.298000 0.393426
vt 0.270427 0.402897
vt 0.270427 0.402897
vt 0.298000 0.393427
vt 0.372074 0.403286
vt 0.341524 0.391376
vt 0.341523 0.391376
vt 0.372074 0.403286
vt 0.336921 0.359807
vt 0.341523 0.391376
vt 0.341524 0.391376
vt 0.336921 0.359807
vt 0.302601 0.359807
vt 0.336921 0.359807
vt 0.336921 0.359807
vt 0.302601 0.359807
vt 0.298000 0.393427
vt 0.302601 0.359807
vt 0.302601 0.359807
vt 0.298000 0.393426
vt 0.336906 0.359910
vt 0.372059 0.403389
vt 0.377756 0.367447
vt 0.341509 0.391479
vt 0.344014 0.324296
vt 0.371732 0.324254
vt 0.297092 0.324296
vt 0.302586 0.359910
vt 0.278242 0.324337
vt 0.265605 0.366071
vt 0.297985 0.393529
vt 0.270412 0.403000
vt 0.336906 0.359910
vt 0.372059 0.403389
vt 0.341508 0.391478
vt 0.377756 0.367447
vt 0.344014 0.324296
vt 0.371732 0.324254
vt 0.297092 0.324296
vt 0.302586 0.359910
vt 0.278242 0.324337
vt 0.265605 0.366071
vt 0.297985 0.393529
vt 0.270412 0.403000
vt 0.377756 0.367447
vt 0.372059 0.403389
vt 0.372059 0.403389
vt 0.377756 0.367447
vt 0.371732 0.324254
vt 0.371732 0.324254
vt 0.371732 0.324254
vt 0.344014 0.324296
vt 0.344014 0.324296
vt 0.371732 0.324254
vt 0.344014 0.324296
vt 0.344014 0.324296
vt 0.371732 0.324254
vt 0.371732 0.324254
vt 0.344014 0.324296
vt 0.297092 0.324296
vt 0.344014 0.324296
vt 0.297092 0.324296
vt 0.344014 0.324296
vt 0.278242 0.324337
vt 0.297092 0.324296
vt 0.278242 0.324337
vt 0.278242 0.324337
vt 0.278242 0.324337
vt 0.297092 0.324296
vt 0.297092 0.324296
vt 0.344014 0.324296
vt 0.344014 0.324296
vt 0.265605 0.366071
vt 0.278242 0.324337
vt 0.278242 0.324337
vt 0.265605 0.366071
vt 0.270412 0.403000
vt 0.270412 0.403000
vt 0.297985 0.393529
vt 0.270412 0.403000
vt 0.270412 0.403000
vt 0.297985 0.393529
vt 0.372059 0.403389
vt 0.341509 0.391479
vt 0.341508 0.391478
vt 0.372059 0.403389
vt 0.336906 0.359910
vt 0.341508 0.391478
vt 0.341509 0.391479
vt 0.336906 0.359910
vt 0.302586 0.359910
vt 0.336906 0.359910
vt 0.336906 0.359910
vt 0.302586 0.359910
vt 0.297985 0.393529
vt 0.302586 0.359910
vt 0.302586 0.359910
vt 0.297985 0.393529
vn 0.0186 0.9998 0.0090
vn 0.0250 0.9972 -0.0701
vn 0.0104 0.9999 -0.0064
vn 0.0178 0.9977 -0.0655
vn -0.0064 0.9983 0.0575
vn -0.1105 0.9847 0.1348
vn 0.0157 0.9992 0.0357
vn -0.0071 0.9999 0.0085
vn -0.0170 0.9961 0.0867
vn -0.0382 0.9989 0.0282
vn 0.0018 0.9959 -0.0904
vn 0.0270 0.9941 -0.1048
vn 0.0197 -0.9987 -0.0468
vn 0.0278 -0.9974 -0.0661
vn 0.0159 -0.9982 -0.0586
vn 0.0375 -0.9978 -0.0543
vn 0.0149 -0.9992 -0.0377
vn 0.0160 -0.9997 -0.0196
vn -0.0158 -0.9992 -0.0360
vn -0.0173 -0.9986 -0.0505
vn -0.0276 -0.9990 -0.0350
vn -0.0105 -0.9978 -0.0661
vn 0.0076 -0.9956 -0.0938
vn 0.0270 -0.9941 -0.1048
vn -0.9985 0.0000 0.0556
vn -0.9985 -0.0000 -0.0553
vn -0.9987 0.0000 0.0508
vn -0.9872 -0.0000 0.1592
vn -0.6290 0.1220 0.7677
vn -0.6290 -0.1220 0.7677
vn -0.6468 -0.0000 0.7627
vn 0.5509 0.1964 0.8111
vn 0.0000 0.5423 0.8402
vn 0.2037 0.4427 0.8733
vn 0.7359 0.0000 0.6771
vn 0.2037 -0.4427 0.8733
vn 0.5509 -0.1964 0.8111
vn -0.0000 -0.5423 0.8402
vn 0.9677 0.0000 0.2521
vn 0.8607 0.0000 0.5091
vn 0.9723 0.0000 0.2337
vn 0.9988 -0.0000 -0.0494
vn 0.2495 -0.0000 -0.9684
vn 0.2617 0.0000 -0.9651
vn 0.9894 0.0024 -0.1451
vn 0.9895 0.0003 -0.1448
vn 0.9895 -0.0000 -0.1447
vn 0.9894 0.0026 -0.1451
vn 0.0159 0.0358 -0.9992
vn -0.9790 0.0015 -0.2037
vn -0.9793 0.0092 -0.2023
vn -0.9793 0.0098 -0.2022
vn -0.9790 -0.0000 -0.2040
vn -0.0123 -0.9990 -0.0428
vn 0.0029 -0.9984 -0.0569
vn -0.0201 -0.9988 -0.0447
vn 0.0127 -0.9986 -0.0507
vn -0.0091 -0.9996 -0.0269
vn -0.0160 -0.9997 -0.0195
vn 0.0110 -0.9995 -0.0311
vn 0.0190 -0.9991 -0.0366
vn 0.0351 -0.9990 -0.0270
vn 0.0379 -0.9986 -0.0369
vn 0.0236 -0.9983 -0.0530
vn 0.0172 -0.9983 -0.0556
vn -0.0154 0.9999 0.0002
vn -0.0014 0.9986 -0.0527
vn 0.0112 0.9989 -0.0447
vn -0.0154 0.9999 0.0017
vn 0.0006 0.9990 0.0449
vn 0.1100 0.9848 0.1348
vn -0.0109 0.9995 0.0309
vn 0.0157 0.9997 0.0198
vn -0.0115 0.9988 0.0478
vn 0.0267 0.9996 0.0053
vn 0.0213 0.9983 -0.0539
vn 0.0172 0.9983 -0.0556
vn 0.9986 -0.0000 0.0532
vn 0.9987 -0.0000 -0.0502
vn 0.9983 0.0000 0.0578
vn 0.9872 0.0000 0.1592
vn 0.6099 -0.2646 0.7470
vn 0.6099 0.2646 0.7470
vn 0.6608 0.0000 0.7506
vn -0.5268 -0.4237 0.7369
vn -0.0134 -0.6533 0.7570
vn -0.1729 -0.6459 0.7436
vn -0.0147 -0.6478 0.7617
vn -0.7148 -0.2377 0.6577
vn -0.7612 0.0000 0.6485
vn -0.7148 0.2377 0.6577
vn -0.1729 0.6459 0.7436
vn -0.5268 0.4237 0.7369
vn -0.0134 0.6533 0.7570
vn -0.0147 0.6478 0.7617
vn -0.9937 -0.0000 0.1121
vn -0.9680 0.0000 0.2511
vn -0.9932 -0.0000 0.1164
vn -0.9996 -0.0000 -0.0267
vn 0.2949 0.0000 -0.9555
vn 0.2433 -0.0000 -0.9700
vn -0.9970 0.0052 -0.0776
vn -0.9969 0.0006 -0.0781
vn -0.9969 -0.0000 -0.0782
vn -0.9970 0.0054 -0.0775
vn 0.9886 0.0003 -0.1508
vn 0.9885 0.0027 -0.1511
vn 0.9885 0.0028 -0.1511
vn 0.9886 0.0000 -0.1508
usemtl Default_OBJ.001
s 1
f 1/1/1 2/2/2 3/3/3
f 2/2/2 1/1/1 4/4/4
f 3/3/3 5/5/5 1/1/1
f 5/5/5 3/3/3 6/6/6
f 7/7/7 1/1/1 5/5/5
f 1/1/1 7/7/7 8/8/8
f 9/9/9 8/8/8 7/7/7
f 8/8/8 9/9/9 10/10/10
f 10/10/10 11/11/11 8/8/8
f 11/11/11 10/10/10 12/12/12
f 13/13/13 14/14/14 15/15/15
f 14/14/14 13/13/13 16/16/16
f 17/17/17 16/16/16 13/13/13
f 16/16/16 17/17/17 18/18/18
f 13/13/13 19/19/19 17/17/17
f 19/19/19 13/13/13 20/20/20
f 20/20/20 21/21/21 19/19/19
f 21/21/21 20/20/20 22/22/22
f 23/23/23 22/22/22 20/20/20
f 22/22/22 23/23/23 24/24/24
f 25/25/25 26/26/26 27/27/26
f 26/26/26 25/25/25 28/28/27
f 29/29/28 28/28/27 25/25/25
f 28/28/27 29/29/28 30/30/28
f 31/31/29 32/32/29 33/33/29
f 34/34/30 35/35/30 36/36/30
f 37/37/31 38/38/31 39/39/31
f 40/40/32 41/41/33 42/42/34
f 41/41/33 40/40/32 43/43/33
f 40/40/32 42/42/34 44/44/35
f 45/45/35 46/46/35 47/47/35
f 48/48/35 49/49/36 50/50/37
f 51/51/38 50/50/37 49/49/36
f 50/50/37 51/51/38 52/52/38
f 53/53/39 54/54/40 55/55/40
f 54/54/40 53/53/39 56/56/41
f 57/57/42 56/56/41 53/53/39
f 56/56/41 57/57/42 58/58/42
f 59/59/43 60/60/43 61/61/43
f 60/60/43 59/59/43 62/62/43
f 63/63/44 64/64/44 65/65/44
f 64/64/44 63/63/44 66/66/44
f 67/67/45 68/68/46 69/69/47
f 68/68/46 67/67/45 70/70/48
f 71/71/49 72/72/49 73/73/49
f 72/72/49 71/71/49 74/74/49
f 75/75/50 76/76/51 77/77/52
f 76/76/51 75/75/50 78/78/53
f 79/79/54 80/80/55 81/81/56
f 80/80/55 79/79/54 82/82/57
f 81/81/56 83/83/58 79/79/54
f 83/83/58 81/81/56 84/84/59
f 85/85/60 79/79/54 83/83/58
f 79/79/54 85/85/60 86/86/61
f 87/87/62 86/86/61 85/85/60
f 86/86/61 87/87/62 88/88/63
f 88/88/63 89/89/64 86/86/61
f 89/89/64 88/88/63 90/90/65
f 91/91/66 92/92/67 93/93/68
f 92/92/67 91/91/66 94/94/69
f 95/95/70 94/94/69 91/91/66
f 94/94/69 95/95/70 96/96/71
f 91/91/66 97/97/72 95/95/70
f 97/97/72 91/91/66 98/98/73
f 98/98/73 99/99/74 97/97/72
f 99/99/74 98/98/73 100/100/75
f 101/101/76 100/100/75 98/98/73
f 100/100/75 101/101/76 102/102/77
f 103/103/78 104/104/79 105/105/79
f 104/104/79 103/103/78 106/106/80
f 107/107/81 106/106/80 103/103/78
f 106/106/80 107/107/81 108/108/81
f 109/109/82 110/110/82 111/111/82
f 112/112/83 113/113/83 114/114/83
f 115/115/84 116/116/84 117/117/84
f 118/118/85 119/119/86 120/120/87
f 119/119/86 118/118/85 121/121/88
f 118/118/85 120/120/87 122/122/89
f 123/123/90 124/124/90 125/125/90
f 126/126/91 127/127/92 128/128/93
f 129/129/94 128/128/93 127/127/92
f 128/128/93 129/129/94 130/130/95
f 131/131/96 132/132/97 133/133/97
f 132/132/97 131/131/96 134/134/98
f 135/135/99 134/134/98 131/131/96
f 134/134/98 135/135/99 136/136/99
f 137/137/100 138/138/100 139/139/100
f 138/138/100 137/137/100 140/140/100
f 141/141/101 142/142/101 143/143/101
f 142/142/101 141/141/101 144/144/101
f 145/145/102 146/146/103 147/147/104
f 146/146/103 145/145/102 148/148/105
f 149/149/49 150/150/49 151/151/49
f 150/150/49 149/149/49 152/152/49
f 153/153/106 154/154/107 155/155/108
f 154/154/107 153/153/106 156/156/109
