# Blender v2.80 (sub 75) OBJ File: ''
# www.blender.org
mtllib YK_Fuel_Tank_Base_Collider.mtl
o BF_Block_111.000_BF_Block_111.001
v -0.500000 0.178827 0.428725
v -0.428725 0.178827 0.500000
v 0.500000 0.178827 -1.428725
v 0.500000 0.178827 0.428725
v -0.428725 -0.178827 0.500000
v -0.500000 -0.178827 0.428725
v 0.428725 0.178828 -1.500000
v -0.500000 0.178827 -1.428725
v 0.378627 0.354165 0.419185
v 0.378627 0.354165 -1.419185
v -0.378627 0.354165 -1.419185
v -0.329449 0.388720 0.419185
v -0.359528 0.376375 0.419185
v -0.329449 0.388720 -1.419185
v -0.428725 0.178828 -1.500000
v 0.428725 0.178827 0.500000
v 0.329449 0.388720 -1.419185
v 0.359528 0.376375 -1.419185
v 0.329449 0.388720 0.419185
v -0.378627 0.354165 0.419185
v 0.378627 -0.354165 -1.419185
v -0.378627 -0.354165 -1.419185
v -0.329449 -0.388720 0.419185
v -0.359528 -0.376375 0.419185
v -0.500000 -0.178827 -1.428725
v -0.428725 -0.178828 -1.500000
v 0.500000 -0.178827 -1.428725
v 0.500000 -0.178827 0.428725
v 0.428725 -0.178827 0.500000
v 0.428725 -0.178828 -1.500000
v -0.378627 -0.354165 0.419185
v -0.329449 -0.388720 -1.419185
v 0.329449 -0.388720 -1.419185
v 0.359528 -0.376375 -1.419185
v -0.359528 0.376375 -1.419185
v 0.359528 0.376375 0.419185
v 0.378627 -0.354165 0.419185
v 0.329449 -0.388720 0.419185
v 0.359528 -0.376375 0.419185
v -0.359528 -0.376375 -1.419185
v 0.356554 -0.405443 0.389692
v 0.332197 -0.410641 0.389692
v 0.356554 0.405443 0.389692
v 0.332197 0.410641 0.389692
v -0.383985 0.388886 -1.389692
v -0.408946 0.354008 -1.389692
v 0.383985 0.388886 -1.389692
v 0.408946 0.354008 -1.389692
v 0.408946 0.354007 0.389692
v -0.356554 0.405443 -1.389692
v 0.408946 -0.354008 -1.389692
v 0.383985 -0.388886 -1.389692
v -0.356554 0.405443 0.389692
v -0.383985 0.388886 0.389692
v -0.408946 0.354007 0.389692
v 0.383985 0.388886 0.389692
v 0.356554 0.405443 -1.389692
v 0.408946 -0.354007 0.389692
v -0.332197 0.410641 -1.389692
v -0.408946 -0.354008 -1.389692
v -0.356554 -0.405443 0.389692
v 0.383985 -0.388886 0.389692
v -0.332197 -0.410641 -1.389692
v -0.356554 -0.405443 -1.389692
v -0.383985 -0.388886 -1.389692
v -0.332197 -0.410641 0.389692
v -0.383985 -0.388886 0.389692
v -0.408946 -0.354007 0.389692
v 0.356554 -0.405443 -1.389692
v -0.332197 0.410641 0.389692
v 0.332197 0.410641 -1.389692
v 0.332197 -0.410641 -1.389692
v 0.386123 0.452000 0.299497
v 0.395840 0.466986 0.250000
v 0.474402 0.344356 0.299497
v 0.493933 0.349202 0.250000
v 0.395839 0.466986 -1.250000
v 0.386123 0.452000 -1.299498
v 0.493933 0.349202 -1.250000
v 0.474402 0.344356 -1.299498
v 0.386123 -0.452000 0.299497
v 0.474402 -0.344356 0.299497
v 0.395840 -0.466986 0.250000
v 0.395839 -0.466986 -1.250000
v 0.493933 -0.349202 -1.250000
v 0.386123 -0.452000 -1.299498
v 0.493933 -0.349202 0.250000
v 0.474402 -0.344356 -1.299498
v -0.474402 -0.344356 -1.299497
v -0.493933 -0.349202 -1.250000
v -0.395840 -0.466986 -1.250000
v -0.386123 -0.452000 -1.299497
v -0.474402 0.344356 -1.299497
v -0.493933 0.349202 -1.250000
v -0.395840 0.466986 -1.250000
v -0.386123 0.452000 -1.299497
v -0.395840 0.466986 0.250000
v -0.386123 0.452000 0.299498
v -0.493933 0.349202 0.250000
v -0.474402 0.344356 0.299498
v -0.395840 -0.466986 0.250000
v -0.386123 -0.452000 0.299498
v -0.474402 -0.344356 0.299498
v -0.493933 -0.349202 0.250000
vt 0.289393 0.153975
vt 0.289393 0.153975
vt 0.000000 0.000000
vt 0.276384 0.153975
vt 0.550520 0.566134
vt 0.000000 0.000000
vt 0.000000 0.000000
vt 0.465085 0.612263
vt 0.276384 0.153975
vt 0.000000 0.000000
vt 0.000000 0.000000
vt 0.000000 0.000000
vt 0.000000 0.000000
vt 0.000000 0.000000
vt 0.000000 0.000000
vt 0.289393 0.153975
vt 0.289393 0.153975
vt 0.276384 0.153975
vt 0.000000 0.000000
vt 0.000000 0.000000
vt 0.000000 0.000000
vt 0.000000 0.000000
vt 0.000000 0.000000
vt 0.526457 0.583173
vt 0.000000 0.000000
vt 0.000000 0.000000
vt 0.000000 0.000000
vt 0.468834 0.606328
vt 0.000000 0.000000
vt 0.000000 0.000000
vt 0.000000 0.000000
vt 0.000000 0.000000
vt 0.119883 0.153975
vt 0.119883 0.153975
vt 0.106874 0.153975
vt 0.276384 0.153975
vt 0.000000 0.000000
vt 0.468834 0.606328
vt 0.000000 0.000000
vt 0.000000 0.000000
vt 0.000000 0.000000
vt 0.000000 0.000000
vt 0.000000 0.000000
vt 0.000000 0.000000
vt 0.000000 0.000000
vt 0.000000 0.000000
vt 0.357514 0.615965
vt 0.000000 0.000000
vt 0.000000 0.000000
vt 0.000000 0.000000
vt 0.000000 0.000000
vt 0.349735 0.612263
vt 0.106874 0.153975
vt 0.119883 0.153975
vt 0.550520 0.566134
vt 0.000000 0.000000
vt 0.465085 0.612263
vt 0.119883 0.153975
vt 0.000000 0.000000
vt 0.106874 0.153975
vt 0.000000 0.000000
vt 0.000000 0.000000
vt 0.000000 0.000000
vt 0.000000 0.000000
vt 0.000000 0.000000
vt 0.000000 0.000000
vt 0.000000 0.000000
vt 0.000000 0.000000
vt 0.000000 0.000000
vt 0.345986 0.606328
vt 0.000000 0.000000
vt 0.000000 0.000000
vt 0.549569 0.583173
vt 0.000000 0.000000
vt 0.000000 0.000000
vt 0.000000 0.000000
vt 0.000000 0.000000
vt 0.000000 0.000000
vt 0.000000 0.000000
vt 0.106874 0.153975
vt 0.000000 0.000000
vt 0.550520 0.566133
vt 0.000000 0.000000
vt 0.000000 0.000000
vt 0.000000 0.000000
vt 0.000000 0.000000
vt 0.000000 0.000000
vt 0.000000 0.000000
vt 0.000000 0.000000
vt 0.000000 0.000000
vt 0.000000 0.000000
vt 0.550520 0.566133
vt 0.000000 0.000000
vt 0.349735 0.612263
vt 0.345986 0.606328
vt 0.000000 0.000000
vt 0.353409 0.610134
vt 0.349735 0.612263
vt 0.353855 0.615081
vt 0.353855 0.615081
vt 0.353409 0.610134
vt 0.461412 0.610134
vt 0.460965 0.615081
vt 0.460965 0.615081
vt 0.465085 0.612263
vt 0.461412 0.610134
vt 0.461412 0.610134
vt 0.460965 0.615081
vt 0.465085 0.612263
vt 0.353409 0.610134
vt 0.353855 0.615081
vt 0.357514 0.615965
vt 0.357927 0.612235
vt 0.350540 0.606355
vt 0.349735 0.612263
vt 0.353409 0.610134
vt 0.457307 0.615965
vt 0.456894 0.612235
vt 0.464281 0.606355
vt 0.461412 0.610134
vt 0.460965 0.615081
vt 0.456894 0.612235
vt 0.353855 0.615081
vt 0.357927 0.612235
vt 0.350540 0.606355
vt 0.464281 0.606355
vt 0.357514 0.615965
vt 0.357927 0.612235
vt 0.357927 0.612235
vt 0.357514 0.615965
vt 0.350540 0.606355
vt 0.457307 0.615965
vt 0.456894 0.612235
vt 0.456894 0.612235
vt 0.457307 0.615965
vt 0.464281 0.606355
vt 0.464281 0.606355
vt 0.457307 0.615965
vt 0.350540 0.606355
vt 0.468834 0.606328
vt 0.529397 0.566134
vt 0.529397 0.566134
vt 0.000000 0.000000
vt 0.529397 0.566133
vt 0.468834 0.606328
vt 0.529397 0.566134
vt 0.529397 0.566134
vt 0.529397 0.566133
vt 0.000000 0.000000
vt 0.529397 0.566133
vt 0.345986 0.606328
vt 0.529397 0.566133
vt 0.345986 0.606328
vt 0.549569 0.583173
vt 0.526457 0.583173
vt 0.526457 0.583173
vt 0.550520 0.566134
vt 0.549569 0.583173
vt 0.550520 0.566134
vt 0.549569 0.583173
vt 0.526457 0.583173
vt 0.549569 0.583173
vt 0.550520 0.566133
vt 0.526457 0.583173
vt 0.549569 0.583173
vt 0.526457 0.583173
vt 0.000000 0.000000
vt 0.526457 0.583173
vt 0.549569 0.583173
vt 0.549569 0.583173
vt 0.550520 0.566133
vt 0.526457 0.583173
vn 0.7071 -0.0000 0.7071
vn 0.7310 0.4866 0.4784
vn 0.6269 0.4627 0.6269
vn 1.0000 0.0000 0.0000
vn 0.9994 0.0356 0.0000
vn 0.7071 0.0000 -0.7071
vn 0.0000 -0.3593 0.9332
vn 0.0000 1.0000 0.0000
vn 0.6269 -0.4627 0.6269
vn 0.7310 -0.4866 0.4784
vn 0.9994 -0.0356 -0.0000
vn -0.7071 0.0000 -0.7071
vn 0.6269 0.4627 -0.6269
vn 0.7310 0.4866 -0.4784
vn 0.0000 -1.0000 -0.0000
vn 0.0000 -0.9090 0.4168
vn 0.0000 0.3593 -0.9332
vn 0.0000 -0.0000 1.0000
vn -0.6269 0.4627 0.6269
vn 0.7310 -0.4866 -0.4784
vn 0.6269 -0.4627 -0.6269
vn -0.7071 -0.0000 0.7071
vn 0.0000 -0.3593 -0.9332
vn 0.0000 0.0000 -1.0000
vn -0.0000 -0.9090 -0.4168
vn -0.6269 -0.4627 0.6269
vn -0.7310 0.4866 0.4784
vn -0.9994 0.0356 0.0000
vn -0.0000 0.9090 -0.4168
vn 0.0000 0.3593 0.9332
vn -0.6269 0.4627 -0.6269
vn -0.7310 -0.4866 0.4784
vn -0.9994 -0.0356 -0.0000
vn 0.0000 0.9090 0.4168
vn -0.7310 0.4866 -0.4784
vn -1.0000 0.0000 0.0000
vn -0.6269 -0.4627 -0.6269
vn -0.7310 -0.4866 -0.4784
vn -0.4322 0.6112 -0.6630
vn -0.4861 0.5863 -0.6480
vn -0.2931 0.7218 -0.6271
vn -0.2931 0.7217 0.6271
vn -0.4861 0.5863 0.6480
vn -0.4322 0.6112 0.6630
vn 0.4322 0.6112 0.6630
vn 0.4861 0.5863 0.6480
vn 0.2931 0.7217 0.6271
vn 0.2931 0.7218 -0.6271
vn 0.4861 0.5863 -0.6480
vn 0.4322 0.6112 -0.6630
vn 0.4322 -0.6112 0.6630
vn 0.2931 -0.7217 0.6271
vn 0.4861 -0.5863 0.6480
vn -0.4322 -0.6112 -0.6630
vn -0.2931 -0.7217 -0.6271
vn -0.4861 -0.5863 -0.6480
vn -0.0846 -0.7959 -0.5995
vn -0.1266 -0.7716 -0.6234
vn -0.5670 -0.4746 0.6733
vn -0.4861 -0.5863 0.6480
vn -0.4322 -0.6112 0.6630
vn 0.0846 -0.7959 0.5995
vn 0.1266 -0.7716 0.6234
vn 0.5670 -0.4746 -0.6733
vn 0.4861 -0.5863 -0.6480
vn 0.4322 -0.6112 -0.6630
vn 0.2931 -0.7217 -0.6271
vn 0.1266 -0.7716 -0.6234
vn -0.2931 -0.7217 0.6271
vn -0.1266 -0.7716 0.6234
vn -0.5670 0.4746 -0.6733
vn 0.5670 0.4746 -0.6733
vn -0.0846 0.7959 -0.5995
vn -0.1266 0.7716 -0.6234
vn -0.1266 0.7716 0.6234
vn -0.0846 0.7959 0.5995
vn -0.5670 0.4746 0.6733
vn 0.0846 0.7959 0.5995
vn 0.1266 0.7716 0.6234
vn 0.1266 0.7716 -0.6234
vn 0.0846 0.7959 -0.5995
vn 0.5670 0.4746 0.6733
vn 0.5670 -0.4746 0.6733
vn -0.0846 -0.7959 0.5995
vn 0.0846 -0.7959 -0.5995
vn -0.5670 -0.4746 -0.6733
vn 0.6616 0.4734 0.5816
vn 0.7065 -0.5613 0.4311
vn 0.6116 -0.6348 0.4721
vn 0.6034 -0.6459 0.4677
vn 0.6034 0.6459 0.4677
vn 0.3065 0.8012 0.5140
vn 0.6116 0.6348 0.4721
vn 0.4220 0.4651 0.7782
vn 0.2486 0.4401 0.8629
vn 0.1742 0.4245 0.8885
vn 0.6616 -0.4734 0.5816
vn 0.6615 0.4734 -0.5816
vn 0.1811 0.8485 0.4973
vn 0.1742 -0.4245 0.8885
vn 0.2486 -0.4401 0.8629
vn 0.4220 -0.4651 0.7782
vn -0.1742 0.4245 0.8885
vn -0.2486 0.4401 0.8629
vn -0.4220 0.4651 0.7782
vn 0.3065 -0.8012 0.5140
vn -0.7065 0.5613 0.4311
vn -0.6116 0.6348 0.4721
vn -0.6034 0.6459 0.4677
vn 0.6615 -0.4734 -0.5816
vn 0.1742 0.4245 -0.8885
vn 0.2486 0.4401 -0.8629
vn 0.4220 0.4651 -0.7782
vn 0.3065 0.8011 -0.5140
vn 0.6034 0.6459 -0.4677
vn 0.6116 0.6348 -0.4721
vn 0.7065 0.5613 0.4311
vn -0.3065 0.8011 0.5140
vn -0.1811 0.8485 0.4973
vn 0.1811 0.8485 -0.4973
vn -0.4220 -0.4651 0.7782
vn -0.2486 -0.4401 0.8629
vn -0.1742 -0.4245 0.8885
vn -0.6616 0.4734 0.5816
vn 0.1811 -0.8485 0.4973
vn 0.7065 0.5613 -0.4311
vn 0.4220 -0.4651 -0.7782
vn 0.6034 -0.6459 -0.4677
vn 0.3065 -0.8011 -0.5140
vn 0.6116 -0.6348 -0.4721
vn 0.2486 -0.4401 -0.8629
vn 0.1742 -0.4245 -0.8885
vn -0.7065 0.5613 -0.4311
vn -0.6034 0.6459 -0.4677
vn -0.6116 0.6348 -0.4721
vn -0.4220 0.4651 -0.7782
vn -0.2486 0.4401 -0.8629
vn -0.1742 0.4245 -0.8885
vn -0.1811 0.8485 -0.4973
vn -0.3065 0.8011 -0.5140
vn -0.7065 -0.5613 -0.4311
vn -0.6116 -0.6348 -0.4721
vn -0.6034 -0.6459 -0.4677
vn -0.6616 -0.4734 0.5816
vn -0.3337 -0.7886 0.5165
vn -0.3065 -0.8011 0.5140
vn -0.4409 -0.7305 0.5216
vn -0.6615 0.4734 -0.5816
vn -0.1811 -0.8485 0.4973
vn 0.1811 -0.8485 -0.4973
vn -0.1742 -0.4245 -0.8885
vn -0.2486 -0.4401 -0.8629
vn -0.4220 -0.4651 -0.7782
vn -0.6615 -0.4734 -0.5816
vn 0.7065 -0.5613 -0.4311
vn -0.3065 -0.8011 -0.5140
vn -0.1811 -0.8485 -0.4973
vn 0.8311 0.4164 0.3687
vn -0.7684 -0.6400 -0.0000
vn -0.7262 0.6004 -0.3348
vn 0.8311 -0.4164 0.3687
vn 0.8311 0.4164 -0.3687
vn 0.0000 -0.9571 0.2898
vn -0.0000 0.9571 -0.2898
vn -0.7262 0.6004 0.3348
vn 0.7262 -0.6004 -0.3348
vn 0.7684 0.6400 -0.0000
vn 0.8311 -0.4164 -0.3687
vn -0.7262 -0.6004 0.3348
vn -0.0000 -0.9571 -0.2898
vn -0.7065 -0.5613 0.4311
vn -0.8311 0.4164 0.3687
vn -0.7684 0.6400 0.0000
vn 0.7684 -0.6400 -0.0000
vn 0.7262 0.6004 -0.3348
vn -0.7262 -0.6004 -0.3348
vn -0.8311 -0.4164 0.3687
vn -0.8311 0.4164 -0.3687
vn 0.7262 0.6004 0.3348
vn 0.0000 0.9571 0.2898
vn -0.8311 -0.4164 -0.3687
vn 0.7262 -0.6004 0.3348
usemtl Material.005
s off
f 28/1/1 4/2/1 16/3/1 29/4/1
f 75/5/2 49/6/2 4/7/2
f 56/8/3 16/9/3 4/2/3
f 3/10/4 4/2/4 28/11/4 27/12/4
f 3/10/5 79/13/5 76/14/5
f 3/10/5 76/14/5 4/7/5
f 7/15/6 3/16/6 27/17/6 30/18/6
f 38/19/7 29/20/7 5/21/7 23/22/7
f 97/23/8 74/24/8 77/25/8 95/26/8
f 29/4/9 62/27/9 28/1/9
f 58/28/10 82/29/10 28/1/10
f 87/30/11 85/31/11 27/12/11
f 87/30/11 27/12/11 28/11/11
f 8/32/12 15/33/12 26/34/12 25/35/12
f 7/36/13 47/37/13 3/16/13
f 48/38/14 80/39/14 3/16/14
f 84/40/15 83/41/15 101/42/15 91/43/15
f 102/44/16 81/45/16 42/46/16 66/47/16
f 17/48/17 7/15/17 15/49/17 14/50/17
f 29/20/18 16/3/18 2/51/18 5/21/18
f 54/52/19 1/53/19 2/54/19
f 88/55/20 51/56/20 27/12/20
f 52/57/21 30/18/21 27/17/21
f 5/58/22 2/51/22 1/59/22 6/60/22
f 26/61/23 30/62/23 33/63/23 32/64/23
f 15/49/24 7/15/24 30/62/24 26/61/24
f 72/65/25 86/66/25 92/67/25 63/68/25
f 6/60/26 67/69/26 5/58/26
f 55/70/27 100/71/27 1/53/27
f 99/72/28 94/73/28 8/32/28
f 99/72/28 8/32/28 1/53/28
f 96/74/29 78/75/29 71/76/29 59/77/29
f 2/51/30 16/9/30 19/78/30 12/79/30
f 8/80/31 45/81/31 15/33/31
f 103/82/32 68/83/32 6/84/32
f 25/85/33 90/86/33 104/87/33
f 25/85/33 104/87/33 6/84/33
f 44/88/34 73/89/34 98/90/34 70/91/34
f 93/92/35 46/93/35 8/32/35
f 6/84/36 1/59/36 8/32/36 25/85/36
f 65/94/37 25/35/37 26/34/37
f 60/95/38 89/96/38 25/35/38
s 1
f 35/97/39 45/98/40 50/99/41
f 53/100/42 54/52/43 13/101/44
f 36/102/45 56/8/46 43/103/47
f 57/104/48 47/105/49 18/106/50
f 39/107/51 41/108/52 62/109/53
f 40/110/54 64/111/55 65/94/56
f 63/112/57 64/111/55 32/113/58
f 31/114/59 67/115/60 24/116/61
f 42/117/62 41/108/52 38/118/63
f 21/119/64 52/57/65 34/120/66
f 34/120/66 69/121/67 33/122/68
f 24/116/61 61/123/69 23/124/70
f 45/98/40 35/97/39 11/125/71
f 10/126/72 18/106/50 47/105/49
f 59/127/73 14/128/74 50/99/41
f 14/128/74 35/97/39 50/99/41
f 13/101/44 12/129/75 53/100/42
f 12/129/75 70/130/76 53/100/42
f 20/131/77 13/101/44 54/52/43
f 44/132/78 19/133/79 43/103/47
f 19/133/79 36/102/45 43/103/47
f 18/106/50 17/134/80 57/104/48
f 17/134/80 71/135/81 57/104/48
f 56/8/46 36/102/45 9/136/82
f 61/123/69 24/116/61 67/115/60
f 69/121/67 34/120/66 52/57/65
f 32/113/58 64/111/55 40/110/54
f 62/109/53 37/137/83 39/107/51
f 23/124/70 61/123/69 66/47/84
f 33/122/68 69/121/67 72/138/85
f 65/94/56 22/139/86 40/110/54
f 38/118/63 41/108/52 39/107/51
f 49/140/87 56/8/87 4/7/87
f 82/29/88 58/28/88 62/109/89 81/141/90
f 73/142/91 43/103/92 56/8/93
f 9/136/82 16/9/94 56/8/46
f 9/136/82 36/102/95 16/9/94
f 36/102/95 19/133/96 16/9/94
f 62/109/97 58/28/97 28/1/97
f 47/105/98 48/38/98 3/16/98
f 44/132/99 43/103/92 73/142/91
f 38/118/100 39/107/101 29/20/102
f 39/107/101 37/137/83 29/20/102
f 37/137/83 62/109/53 29/4/102
f 12/129/103 13/101/104 2/51/105
f 13/101/104 20/131/77 2/51/105
f 20/131/77 54/52/43 2/51/105
f 41/108/106 81/45/90 62/109/89
f 100/71/107 55/70/107 54/143/108 98/144/109
f 51/145/110 52/57/110 27/12/110
f 17/134/111 18/106/112 7/15/113
f 18/106/112 10/126/72 7/15/113
f 10/126/72 47/105/49 7/36/113
f 57/104/114 78/75/115 47/105/116
f 56/8/93 49/140/117 75/5/117 73/142/91
f 54/52/108 53/100/118 98/144/109
f 53/100/118 70/130/119 98/90/109
f 57/104/114 71/135/120 78/75/115
f 67/115/60 31/114/59 5/58/121
f 31/114/59 24/116/122 5/58/121
f 24/116/122 23/124/123 5/21/121
f 12/129/75 19/78/79 44/88/78 70/91/76
f 54/52/124 55/70/124 1/53/124
f 42/117/125 81/45/90 41/108/106
f 80/39/126 48/38/126 47/105/116 78/146/115
f 21/119/64 30/18/127 52/57/65
f 86/147/128 69/121/129 52/57/130
f 21/119/64 34/120/131 30/18/127
f 34/120/131 33/122/132 30/18/127
f 46/93/133 93/92/133 96/148/134 45/98/135
f 45/98/40 11/125/71 15/33/136
f 11/125/71 35/97/137 15/33/136
f 35/97/137 14/128/138 15/49/136
f 32/113/58 33/63/68 72/65/85 63/68/57
f 42/46/62 38/118/63 23/124/70 66/47/84
f 59/127/139 50/99/140 96/74/134
f 50/99/140 45/98/135 96/74/134
f 89/96/141 60/95/141 65/149/142 92/150/143
f 68/151/144 67/115/144 6/60/144
f 102/152/145 61/123/146 67/115/147
f 46/153/148 45/98/148 8/80/148
f 66/47/149 61/123/146 102/152/145
f 72/138/150 69/121/129 86/147/128
f 32/113/151 40/110/152 26/61/153
f 40/110/152 22/139/86 26/61/153
f 22/139/86 65/94/56 26/61/153
f 71/76/81 17/134/80 14/128/74 59/127/73
f 65/94/154 60/95/154 25/35/154
f 52/57/130 51/145/155 88/55/155 86/147/128
f 65/94/142 64/111/156 92/150/143
f 64/111/156 63/112/157 92/67/143
usemtl Default_OBJ.017
s off
f 76/154/158 75/5/158 4/7/158
f 91/155/159 101/42/159 104/87/159 90/86/159
f 93/92/160 94/73/160 95/156/160 96/148/160
f 82/157/161 87/158/161 28/1/161
f 80/159/162 79/160/162 3/10/162
f 83/41/163 81/141/163 102/152/163 101/161/163
f 95/156/164 77/25/164 78/75/164 96/148/164
f 99/162/165 100/163/165 98/144/165 97/164/165
f 86/147/166 88/55/166 85/165/166 84/166/166
f 74/167/167 76/154/167 79/160/167 77/168/167
f 85/165/168 88/55/168 27/12/168
f 104/169/169 101/161/169 102/152/169 103/82/169
f 86/66/170 84/166/170 91/155/170 92/150/170
f 103/82/171 102/152/171 67/115/171 68/83/171
f 100/163/172 99/162/172 1/53/172
f 99/72/173 97/164/173 95/156/173 94/73/173
f 85/165/174 87/30/174 83/41/174 84/166/174
f 78/146/175 77/168/175 79/160/175 80/159/175
f 90/170/176 89/171/176 92/150/176 91/155/176
f 104/169/177 103/82/177 6/84/177
f 94/73/178 93/92/178 8/32/178
f 73/142/179 75/5/179 76/154/179 74/24/179
f 73/89/180 74/24/180 97/164/180 98/144/180
f 89/171/181 90/170/181 25/85/181
f 81/141/182 83/172/182 87/158/182 82/157/182
