# Blender v2.78 (sub 0) OBJ File: 'TACFabExtruder.blend'
# www.blender.org
mtllib TACFabHeadPart.mtl
o Solid1.017
v -0.031752 0.200000 0.075485
v 0.030782 0.200000 0.075485
v -0.031752 0.230000 0.075485
v 0.030782 0.230000 0.075485
v -0.075970 0.200000 0.031267
v -0.075970 0.230000 0.031267
v -0.075970 0.200000 -0.031267
v -0.075970 0.230000 -0.031267
v -0.031752 0.200000 -0.075485
v -0.031752 0.230000 -0.075485
v 0.030782 0.200000 -0.075485
v 0.030782 0.230000 -0.075485
v 0.075000 0.200000 -0.031267
v 0.075000 0.230000 -0.031267
v 0.075000 0.200000 0.031267
v 0.075000 0.230000 0.031267
v 0.010000 0.000000 -0.102138
v 0.010000 -0.062500 -0.050000
v -0.010000 0.000000 -0.102138
v -0.010000 -0.062500 -0.050000
v 0.010000 0.000000 -0.075000
v 0.010000 -0.025000 -0.050000
v -0.010000 0.000000 -0.075000
v -0.010000 -0.025000 -0.050000
v -0.102138 0.000000 -0.010000
v -0.050000 -0.062500 -0.010000
v -0.102138 -0.000000 0.010000
v -0.050000 -0.062500 0.010000
v -0.075000 0.000000 -0.010000
v -0.050000 -0.025000 -0.010000
v -0.075000 -0.000000 0.010000
v -0.050000 -0.025000 0.010000
v -0.010000 -0.000000 0.102138
v -0.010000 -0.062500 0.050000
v 0.010000 -0.000000 0.102138
v 0.010000 -0.062500 0.050000
v -0.010000 -0.000000 0.075000
v -0.010000 -0.025000 0.050000
v 0.010000 -0.000000 0.075000
v 0.010000 -0.025000 0.050000
v 0.038284 -0.025000 -0.050000
v 0.029497 -0.003787 -0.071213
v 0.031066 0.000000 -0.075000
v -0.031066 0.000000 -0.075000
v -0.029497 -0.003787 -0.071213
v -0.038284 -0.025000 -0.050000
v -0.020711 -0.055000 -0.050000
v -0.020711 -0.070000 -0.050000
v 0.020711 -0.070000 -0.050000
v 0.020711 -0.055000 -0.050000
v -0.050000 -0.025000 -0.038284
v -0.071213 -0.003787 -0.029497
v -0.075000 0.000000 -0.031066
v -0.075000 -0.000000 0.031066
v -0.071213 -0.003787 0.029497
v -0.050000 -0.025000 0.038284
v -0.050000 -0.055000 0.020711
v -0.050000 -0.070000 0.020711
v -0.050000 -0.070000 -0.020711
v -0.050000 -0.055000 -0.020711
v 0.038284 -0.025000 0.050000
v 0.020711 -0.055000 0.050000
v 0.020711 -0.070000 0.050000
v -0.020711 -0.070000 0.050000
v -0.020711 -0.055000 0.050000
v -0.038284 -0.025000 0.050000
v -0.029497 -0.003787 0.071213
v -0.031066 -0.000000 0.075000
v 0.031066 -0.000000 0.075000
v 0.029497 -0.003787 0.071213
v 0.102138 -0.000000 0.010000
v 0.050000 -0.062500 0.010000
v 0.102138 0.000000 -0.010000
v 0.050000 -0.062500 -0.010000
v 0.075000 -0.000000 0.010000
v 0.050000 -0.025000 0.010000
v 0.075000 0.000000 -0.010000
v 0.050000 -0.025000 -0.010000
v 0.050000 -0.025000 -0.038284
v 0.050000 -0.055000 -0.020711
v 0.050000 -0.070000 -0.020711
v 0.050000 -0.070000 0.020711
v 0.050000 -0.055000 0.020711
v 0.050000 -0.025000 0.038284
v 0.071213 -0.003787 0.029497
v 0.075000 -0.000000 0.031066
v 0.075000 0.000000 -0.031066
v 0.071213 -0.003787 -0.029497
v 0.020000 -0.100000 0.008284
v 0.008284 -0.100000 0.020000
v 0.020000 -0.050000 0.008284
v 0.008284 -0.050000 0.020000
v -0.008284 -0.100000 0.020000
v -0.008284 -0.050000 0.020000
v -0.020000 -0.100000 0.008284
v -0.020000 -0.050000 0.008284
v -0.020000 -0.100000 -0.008284
v -0.020000 -0.050000 -0.008284
v -0.008284 -0.100000 -0.020000
v -0.008284 -0.050000 -0.020000
v 0.008284 -0.100000 -0.020000
v 0.008284 -0.050000 -0.020000
v 0.020000 -0.100000 -0.008284
v 0.020000 -0.050000 -0.008284
v -0.041789 0.000000 -0.112500
v 0.041789 0.000000 -0.112500
v 0.112500 0.000000 -0.041789
v 0.112500 -0.000000 0.041789
v -0.112500 0.000000 -0.041789
v -0.112500 -0.000000 0.041789
v -0.041789 -0.000000 0.112500
v 0.041789 -0.000000 0.112500
v -0.162500 0.050000 -0.062500
v -0.062500 0.050000 -0.162500
v 0.062500 0.050000 -0.162500
v 0.162500 0.050000 -0.062500
v 0.162500 0.050000 0.062500
v -0.062500 0.050000 0.162500
v 0.062500 0.050000 0.162500
v -0.162500 0.050000 0.062500
v -0.062500 0.150000 -0.162500
v -0.162500 0.150000 -0.062500
v -0.162500 0.150000 0.062500
v -0.062500 0.150000 0.162500
v 0.062500 0.150000 0.162500
v -0.041789 0.200000 -0.112500
v 0.041789 0.200000 -0.112500
v 0.062500 0.150000 -0.162500
v 0.112500 0.200000 -0.041789
v 0.162500 0.150000 -0.062500
v 0.112500 0.200000 0.041789
v 0.162500 0.150000 0.062500
v 0.041789 0.200000 0.112500
v -0.041789 0.200000 0.112500
v -0.112500 0.200000 0.041789
v -0.112500 0.200000 -0.041789
vt 0.1011 0.9927
vt 0.1014 0.9927
vt 0.1011 0.9929
vt 0.1014 0.9929
vt 0.1011 0.9927
vt 0.1014 0.9927
vt 0.1011 0.9929
vt 0.1014 0.9929
vt 0.1011 0.9927
vt 0.1014 0.9927
vt 0.1011 0.9929
vt 0.1014 0.9929
vt 0.1011 0.9927
vt 0.1014 0.9927
vt 0.1011 0.9929
vt 0.1014 0.9929
vt 0.1011 0.9927
vt 0.1014 0.9927
vt 0.1011 0.9929
vt 0.1014 0.9929
vt 0.1011 0.9927
vt 0.1014 0.9927
vt 0.1011 0.9929
vt 0.1014 0.9929
vt 0.1011 0.9927
vt 0.1014 0.9927
vt 0.1011 0.9929
vt 0.1014 0.9929
vt 0.1011 0.9927
vt 0.1014 0.9927
vt 0.1011 0.9929
vt 0.1014 0.9929
vt 0.1013 0.9931
vt 0.1009 0.9931
vt 0.1015 0.9929
vt 0.1007 0.9929
vt 0.1015 0.9925
vt 0.1007 0.9925
vt 0.1013 0.9923
vt 0.1009 0.9923
vt 0.4956 0.5207
vt 0.4960 0.5207
vt 0.4956 0.5208
vt 0.4960 0.5208
vt 0.4958 0.5208
vt 0.4956 0.5208
vt 0.4955 0.5205
vt 0.4955 0.5207
vt 0.4954 0.5208
vt 0.4957 0.5205
vt 0.4955 0.5208
vt 0.4957 0.5207
vt 0.4956 0.5207
vt 0.4960 0.5207
vt 0.4956 0.5208
vt 0.4960 0.5208
vt 0.4958 0.5208
vt 0.4956 0.5208
vt 0.4955 0.5205
vt 0.4955 0.5207
vt 0.4954 0.5208
vt 0.4957 0.5205
vt 0.4955 0.5208
vt 0.4957 0.5207
vt 0.4956 0.5207
vt 0.4960 0.5207
vt 0.4956 0.5208
vt 0.4960 0.5208
vt 0.4958 0.5208
vt 0.4956 0.5208
vt 0.4955 0.5205
vt 0.4955 0.5207
vt 0.4954 0.5208
vt 0.4957 0.5205
vt 0.4955 0.5208
vt 0.4957 0.5207
vt 0.1369 0.0950
vt 0.1370 0.0950
vt 0.1369 0.0951
vt 0.1370 0.0951
vt 0.1369 0.0951
vt 0.1373 0.0951
vt 0.1371 0.0951
vt 0.1373 0.0951
vt 0.1371 0.0950
vt 0.1373 0.0950
vt 0.1371 0.0963
vt 0.1372 0.0963
vt 0.1371 0.0964
vt 0.4956 0.5221
vt 0.4956 0.5220
vt 0.4956 0.5222
vt 0.4956 0.5222
vt 0.4957 0.5222
vt 0.4958 0.5222
vt 0.4958 0.5221
vt 0.4957 0.5220
vt 0.1374 0.0964
vt 0.1373 0.0963
vt 0.1375 0.0963
vt 0.1369 0.0950
vt 0.1370 0.0950
vt 0.1369 0.0951
vt 0.1370 0.0951
vt 0.1369 0.0951
vt 0.1373 0.0951
vt 0.1371 0.0951
vt 0.1373 0.0951
vt 0.1371 0.0950
vt 0.1373 0.0950
vt 0.1371 0.0963
vt 0.1372 0.0963
vt 0.1371 0.0964
vt 0.4956 0.5221
vt 0.4956 0.5220
vt 0.4956 0.5222
vt 0.4956 0.5222
vt 0.4957 0.5222
vt 0.4958 0.5222
vt 0.4958 0.5221
vt 0.4957 0.5220
vt 0.1374 0.0964
vt 0.1373 0.0963
vt 0.1375 0.0963
vt 0.1371 0.0963
vt 0.1372 0.0963
vt 0.1371 0.0964
vt 0.4956 0.5221
vt 0.4956 0.5220
vt 0.4956 0.5222
vt 0.4956 0.5222
vt 0.4957 0.5222
vt 0.4958 0.5222
vt 0.4958 0.5221
vt 0.4957 0.5220
vt 0.1374 0.0964
vt 0.1373 0.0963
vt 0.1375 0.0963
vt 0.1369 0.0950
vt 0.1370 0.0950
vt 0.1369 0.0951
vt 0.1370 0.0951
vt 0.1369 0.0951
vt 0.1373 0.0951
vt 0.1371 0.0951
vt 0.1373 0.0951
vt 0.1371 0.0950
vt 0.1373 0.0950
vt 0.4956 0.5207
vt 0.4960 0.5207
vt 0.4956 0.5208
vt 0.4960 0.5208
vt 0.4958 0.5208
vt 0.4956 0.5208
vt 0.4955 0.5205
vt 0.4955 0.5207
vt 0.4954 0.5208
vt 0.4957 0.5205
vt 0.4955 0.5208
vt 0.4957 0.5207
vt 0.1371 0.0963
vt 0.1372 0.0963
vt 0.1371 0.0964
vt 0.4956 0.5221
vt 0.4956 0.5220
vt 0.4956 0.5222
vt 0.4956 0.5222
vt 0.4957 0.5222
vt 0.4958 0.5222
vt 0.4958 0.5221
vt 0.4957 0.5220
vt 0.1374 0.0964
vt 0.1373 0.0963
vt 0.1375 0.0963
vt 0.1369 0.0950
vt 0.1370 0.0950
vt 0.1369 0.0951
vt 0.1370 0.0951
vt 0.1369 0.0951
vt 0.1373 0.0951
vt 0.1371 0.0951
vt 0.1373 0.0951
vt 0.1371 0.0950
vt 0.1373 0.0950
vt 0.5693 0.2835
vt 0.5694 0.2835
vt 0.5693 0.2838
vt 0.5694 0.2838
vt 0.5693 0.2835
vt 0.5694 0.2835
vt 0.5693 0.2838
vt 0.5694 0.2838
vt 0.5693 0.2835
vt 0.5694 0.2835
vt 0.5693 0.2838
vt 0.5694 0.2838
vt 0.5693 0.2835
vt 0.5694 0.2835
vt 0.5693 0.2838
vt 0.5694 0.2838
vt 0.5693 0.2835
vt 0.5694 0.2835
vt 0.5693 0.2838
vt 0.5694 0.2838
vt 0.5693 0.2835
vt 0.5694 0.2835
vt 0.5693 0.2838
vt 0.5694 0.2838
vt 0.5693 0.2835
vt 0.5694 0.2835
vt 0.5693 0.2838
vt 0.5694 0.2838
vt 0.5693 0.2835
vt 0.5694 0.2835
vt 0.5693 0.2838
vt 0.5694 0.2838
vt 0.5806 0.1041
vt 0.5806 0.1041
vt 0.5807 0.1041
vt 0.5805 0.1041
vt 0.5807 0.1040
vt 0.5805 0.1040
vt 0.5806 0.1039
vt 0.5806 0.1039
vt 0.4712 0.7275
vt 0.4712 0.7275
vt 0.4711 0.7277
vt 0.4713 0.7277
vt 0.4712 0.7275
vt 0.4711 0.7277
vt 0.4713 0.7277
vt 0.4712 0.7275
vt 0.4711 0.7277
vt 0.4713 0.7277
vt 0.4712 0.7275
vt 0.4711 0.7277
vt 0.4713 0.7277
vt 0.4712 0.7275
vt 0.4711 0.7277
vt 0.4713 0.7277
vt 0.4713 0.7277
vt 0.4711 0.7277
vt 0.4712 0.7275
vt 0.4713 0.7277
vt 0.4711 0.7277
vt 0.4712 0.7275
vt 0.4713 0.7277
vt 0.4711 0.7277
vt 0.1374 0.0965
vt 0.1371 0.0965
vt 0.1374 0.0964
vt 0.1371 0.0964
vt 0.1374 0.0965
vt 0.1371 0.0965
vt 0.1374 0.0964
vt 0.1371 0.0964
vt 0.1372 0.0952
vt 0.1369 0.0952
vt 0.1371 0.0951
vt 0.1370 0.0951
vt 0.1372 0.0949
vt 0.1370 0.0949
vt 0.1372 0.0952
vt 0.1369 0.0952
vt 0.1371 0.0951
vt 0.1370 0.0951
vt 0.1372 0.0949
vt 0.1370 0.0949
vt 0.1372 0.0952
vt 0.1369 0.0952
vt 0.1371 0.0951
vt 0.1370 0.0951
vt 0.1372 0.0949
vt 0.1370 0.0949
vt 0.1374 0.0965
vt 0.1371 0.0965
vt 0.1374 0.0964
vt 0.1371 0.0964
vt 0.1372 0.0952
vt 0.1369 0.0952
vt 0.1371 0.0951
vt 0.1370 0.0951
vt 0.1372 0.0949
vt 0.1370 0.0949
vt 0.1374 0.0965
vt 0.1371 0.0965
vt 0.1374 0.0964
vt 0.1371 0.0964
vt 0.1369 0.0951
vt 0.1373 0.0951
vt 0.1369 0.0951
vt 0.1373 0.0951
vt 0.1369 0.0951
vt 0.1373 0.0951
vt 0.1369 0.0951
vt 0.1373 0.0951
vt 0.1369 0.0951
vt 0.1373 0.0951
vt 0.1369 0.0951
vt 0.1373 0.0951
vt 0.1369 0.0951
vt 0.1373 0.0951
vt 0.1369 0.0951
vt 0.1373 0.0951
vt 0.4960 0.5207
vt 0.4960 0.5206
vt 0.4961 0.5207
vt 0.4962 0.5205
vt 0.4961 0.5208
vt 0.4962 0.5210
vt 0.4960 0.5209
vt 0.4957 0.5211
vt 0.4958 0.5213
vt 0.4956 0.5213
vt 0.4953 0.5213
vt 0.4955 0.5213
vt 0.4954 0.5211
vt 0.4955 0.5211
vt 0.4957 0.5203
vt 0.4958 0.5201
vt 0.4956 0.5202
vt 0.4955 0.5202
vt 0.4956 0.5203
vt 0.4955 0.5203
vt 0.4954 0.5203
vt 0.4953 0.5201
vt 0.4950 0.5205
vt 0.4952 0.5206
vt 0.4950 0.5207
vt 0.4952 0.5207
vt 0.4950 0.5208
vt 0.4950 0.5210
vt 0.4952 0.5209
vt 0.4952 0.5208
vt 0.4956 0.5211
vt 0.4960 0.5208
vt 0.4960 0.5209
vt 0.4952 0.5209
vt 0.4958 0.5205
vt 0.4953 0.5205
vt 0.4964 0.5209
vt 0.4957 0.5209
vt 0.4958 0.5205
vt 0.4960 0.5209
vt 0.4952 0.5209
vt 0.4953 0.5205
vt 0.4964 0.5209
vt 0.4957 0.5209
vt 0.4962 0.5205
vt 0.4958 0.5205
vt 0.4958 0.5205
vt 0.4962 0.5205
vt 0.4957 0.5209
vt 0.4964 0.5209
vt 0.4960 0.5209
vt 0.4952 0.5209
vt 0.4953 0.5205
vt 0.4953 0.5205
vt 0.4952 0.5209
vt 0.4960 0.5209
vt 0.4962 0.5205
vt 0.4957 0.5209
vt 0.4964 0.5209
vt 0.2164 0.0364
vt 0.2172 0.0364
vt 0.2164 0.0369
vt 0.2172 0.0369
vt 0.2174 0.0364
vt 0.2180 0.0364
vt 0.2174 0.0369
vt 0.2180 0.0369
vt 0.2164 0.0364
vt 0.2172 0.0364
vt 0.2164 0.0369
vt 0.2172 0.0369
vt 0.2174 0.0364
vt 0.2180 0.0364
vt 0.2174 0.0369
vt 0.2180 0.0369
vt 0.4962 0.5209
vt 0.4958 0.5209
vt 0.4964 0.5205
vt 0.4957 0.5205
vt 0.4953 0.5209
vt 0.4960 0.5205
vt 0.4952 0.5205
vt 0.4962 0.5209
vt 0.4958 0.5209
vt 0.4964 0.5205
vt 0.4957 0.5205
vt 0.4952 0.5205
vt 0.4960 0.5205
vt 0.4953 0.5209
vt 0.4957 0.5205
vt 0.4964 0.5205
vt 0.4958 0.5209
vt 0.4962 0.5209
vt 0.4952 0.5205
vt 0.4960 0.5205
vt 0.4953 0.5209
vt 0.4957 0.5205
vt 0.4964 0.5205
vt 0.4958 0.5209
vt 0.4962 0.5209
vt 0.4952 0.5205
vt 0.4960 0.5205
vt 0.4953 0.5209
vt 0.2174 0.0364
vt 0.2180 0.0364
vt 0.2174 0.0369
vt 0.2180 0.0369
vt 0.4960 0.5206
vt 0.4962 0.5205
vt 0.4960 0.5209
vt 0.4962 0.5210
vt 0.4957 0.5211
vt 0.4958 0.5213
vt 0.4953 0.5213
vt 0.4958 0.5201
vt 0.4957 0.5203
vt 0.4954 0.5203
vt 0.4953 0.5201
vt 0.4952 0.5206
vt 0.4950 0.5205
vt 0.4952 0.5209
vt 0.4950 0.5210
vt 0.4954 0.5211
vt 0.2164 0.0364
vt 0.2172 0.0364
vt 0.2164 0.0369
vt 0.2172 0.0369
vt 0.2164 0.0364
vt 0.2172 0.0364
vt 0.2164 0.0369
vt 0.2172 0.0369
vt 0.2174 0.0364
vt 0.2180 0.0364
vt 0.2174 0.0369
vt 0.2180 0.0369
vn 0.0000 -0.0000 1.0000
vn -0.7071 0.0000 0.7071
vn -1.0000 0.0000 0.0000
vn -0.7071 0.0000 -0.7071
vn 0.0000 0.0000 -1.0000
vn 0.7071 0.0000 -0.7071
vn 1.0000 0.0000 0.0000
vn 0.7071 -0.0000 0.7071
vn -0.0000 1.0000 0.0000
vn 0.0000 -0.7071 -0.7071
vn -0.7071 -0.7071 -0.0000
vn 0.0000 -0.7071 0.7071
vn 0.7071 -0.7071 -0.0000
vn -0.0000 -1.0000 0.0000
vn -0.5774 -0.5773 0.5774
vn -0.5774 -0.5773 0.5773
vn -0.5773 -0.5773 0.5774
vn 0.5774 -0.5773 0.5774
vn 0.5773 -0.5773 0.5774
vn 0.5774 -0.5773 0.5773
vn 0.5774 -0.5773 -0.5774
vn 0.5774 -0.5773 -0.5773
vn 0.5773 -0.5773 -0.5774
vn -0.5774 -0.5773 -0.5774
vn -0.5773 -0.5773 -0.5774
vn -0.5793 -0.5734 0.5793
vn -0.5811 -0.5698 0.5811
vn -0.5827 -0.5664 0.5827
vn -0.5793 -0.5734 -0.5793
vn -0.5811 -0.5698 -0.5811
vn -0.5827 -0.5664 -0.5827
vn 0.5793 -0.5734 -0.5793
vn 0.5811 -0.5698 -0.5811
vn 0.5827 -0.5664 -0.5827
vn 0.5793 -0.5734 0.5793
vn 0.5811 -0.5698 0.5811
vn 0.5827 -0.5664 0.5827
vn -0.5774 -0.5774 0.5773
vn -0.5773 -0.5774 0.5774
vn 0.5773 -0.5774 0.5774
vn 0.5774 -0.5774 0.5773
vn 0.5774 -0.5774 -0.5773
vn 0.5773 -0.5774 -0.5774
vn -0.5773 -0.5774 -0.5774
vn -0.5774 -0.5774 -0.5773
vn 0.0000 0.7071 -0.7071
vn 0.5774 0.5773 -0.5774
vn 0.7071 0.7071 0.0000
vn 0.5774 0.5773 0.5774
vn 0.0000 0.7071 0.7071
vn -0.5774 0.5773 0.5774
vn -0.7071 0.7071 0.0000
vn -0.5774 0.5773 -0.5774
usemtl 191,191,191.016
s 1
f 1/1/1 2/2/1 3/3/1
f 3/3/1 2/2/1 4/4/1
f 5/5/2 1/6/2 6/7/2
f 6/7/2 1/6/2 3/8/2
f 7/9/3 5/10/3 8/11/3
f 8/11/3 5/10/3 6/12/3
f 9/13/4 7/14/4 10/15/4
f 10/15/4 7/14/4 8/16/4
f 11/17/5 9/18/5 12/19/5
f 12/19/5 9/18/5 10/20/5
f 13/21/6 11/22/6 14/23/6
f 14/23/6 11/22/6 12/24/6
f 15/25/7 13/26/7 16/27/7
f 16/27/7 13/26/7 14/28/7
f 2/29/8 15/30/8 4/31/8
f 4/31/8 15/30/8 16/32/8
f 16/33/9 14/34/9 4/35/9
f 4/35/9 14/34/9 12/36/9
f 4/35/9 12/36/9 3/37/9
f 3/37/9 12/36/9 10/38/9
f 3/37/9 10/38/9 6/39/9
f 6/39/9 10/38/9 8/40/9
f 17/41/10 18/42/10 19/43/10
f 19/43/10 18/42/10 20/44/10
f 17/45/7 21/46/7 18/47/7
f 18/47/7 21/46/7 22/48/7
f 19/49/3 20/50/3 23/51/3
f 23/51/3 20/50/3 24/52/3
f 25/53/11 26/54/11 27/55/11
f 27/55/11 26/54/11 28/56/11
f 25/57/5 29/58/5 26/59/5
f 26/59/5 29/58/5 30/60/5
f 27/61/1 28/62/1 31/63/1
f 31/63/1 28/62/1 32/64/1
f 33/65/12 34/66/12 35/67/12
f 35/67/12 34/66/12 36/68/12
f 33/69/3 37/70/3 34/71/3
f 34/71/3 37/70/3 38/72/3
f 35/73/7 36/74/7 39/75/7
f 39/75/7 36/74/7 40/76/7
f 41/77/10 22/78/10 42/79/10
f 42/79/10 22/78/10 21/80/10
f 42/79/10 21/80/10 43/81/10
f 44/82/10 23/83/10 45/84/10
f 45/84/10 23/83/10 24/85/10
f 45/84/10 24/85/10 46/86/10
f 46/87/5 24/88/5 47/89/5
f 47/90/5 24/91/5 20/92/5
f 47/90/5 20/92/5 48/93/5
f 48/93/5 20/92/5 18/94/5
f 48/93/5 18/94/5 49/95/5
f 49/95/5 18/94/5 50/96/5
f 50/96/5 18/94/5 22/97/5
f 50/98/5 22/99/5 41/100/5
f 51/101/11 30/102/11 52/103/11
f 52/103/11 30/102/11 29/104/11
f 52/103/11 29/104/11 53/105/11
f 54/106/11 31/107/11 55/108/11
f 55/108/11 31/107/11 32/109/11
f 55/108/11 32/109/11 56/110/11
f 56/111/3 32/112/3 57/113/3
f 57/114/3 32/115/3 28/116/3
f 57/114/3 28/116/3 58/117/3
f 58/117/3 28/116/3 26/118/3
f 58/117/3 26/118/3 59/119/3
f 59/119/3 26/118/3 60/120/3
f 60/120/3 26/118/3 30/121/3
f 60/122/3 30/123/3 51/124/3
f 61/125/1 40/126/1 62/127/1
f 62/128/1 40/129/1 36/130/1
f 62/128/1 36/130/1 63/131/1
f 63/131/1 36/130/1 34/132/1
f 63/131/1 34/132/1 64/133/1
f 64/133/1 34/132/1 65/134/1
f 65/134/1 34/132/1 38/135/1
f 65/136/1 38/137/1 66/138/1
f 66/139/12 38/140/12 67/141/12
f 67/141/12 38/140/12 37/142/12
f 67/141/12 37/142/12 68/143/12
f 69/144/12 39/145/12 70/146/12
f 70/146/12 39/145/12 40/147/12
f 70/146/12 40/147/12 61/148/12
f 71/149/13 72/150/13 73/151/13
f 73/151/13 72/150/13 74/152/13
f 71/153/1 75/154/1 72/155/1
f 72/155/1 75/154/1 76/156/1
f 73/157/5 74/158/5 77/159/5
f 77/159/5 74/158/5 78/160/5
f 79/161/7 78/162/7 80/163/7
f 80/164/7 78/165/7 74/166/7
f 80/164/7 74/166/7 81/167/7
f 81/167/7 74/166/7 72/168/7
f 81/167/7 72/168/7 82/169/7
f 82/169/7 72/168/7 83/170/7
f 83/170/7 72/168/7 76/171/7
f 83/172/7 76/173/7 84/174/7
f 84/175/13 76/176/13 85/177/13
f 85/177/13 76/176/13 75/178/13
f 85/177/13 75/178/13 86/179/13
f 87/180/13 77/181/13 88/182/13
f 88/182/13 77/181/13 78/183/13
f 88/182/13 78/183/13 79/184/13
f 89/185/4 90/186/4 91/187/4
f 91/187/4 90/186/4 92/188/4
f 90/189/5 93/190/5 92/191/5
f 92/191/5 93/190/5 94/192/5
f 93/193/6 95/194/6 94/195/6
f 94/195/6 95/194/6 96/196/6
f 95/197/7 97/198/7 96/199/7
f 96/199/7 97/198/7 98/200/7
f 97/201/8 99/202/8 98/203/8
f 98/203/8 99/202/8 100/204/8
f 99/205/1 101/206/1 100/207/1
f 100/207/1 101/206/1 102/208/1
f 101/209/2 103/210/2 102/211/2
f 102/211/2 103/210/2 104/212/2
f 103/213/3 89/214/3 104/215/3
f 104/215/3 89/214/3 91/216/3
f 104/217/14 91/218/14 102/219/14
f 102/219/14 91/218/14 92/220/14
f 102/219/14 92/220/14 100/221/14
f 100/221/14 92/220/14 94/222/14
f 100/221/14 94/222/14 98/223/14
f 98/223/14 94/222/14 96/224/14
f 95/225/15 93/226/15 58/227/16
f 58/227/16 93/226/15 64/228/17
f 93/226/12 90/229/12 64/230/12
f 64/230/12 90/229/12 63/231/12
f 90/229/18 89/232/18 63/233/19
f 63/233/19 89/232/18 82/234/20
f 89/232/13 103/235/13 82/236/13
f 82/236/13 103/235/13 81/237/13
f 103/235/21 101/238/21 81/239/22
f 81/239/22 101/238/21 49/240/23
f 48/241/10 49/242/10 99/243/10
f 99/243/10 49/242/10 101/238/10
f 59/244/24 48/245/25 97/246/24
f 97/246/24 48/245/25 99/243/24
f 58/247/11 59/248/11 95/225/11
f 95/225/11 59/248/11 97/246/11
f 48/249/4 59/250/4 47/251/4
f 47/251/4 59/250/4 60/252/4
f 58/253/2 64/254/2 57/255/2
f 57/255/2 64/254/2 65/256/2
f 67/257/26 55/258/27 66/259/28
f 66/259/28 55/258/27 56/260/28
f 66/259/28 56/260/28 65/261/28
f 65/261/28 56/260/28 57/262/28
f 52/263/29 45/264/30 51/265/31
f 51/265/31 45/264/30 46/266/31
f 51/265/31 46/266/31 60/267/31
f 60/267/31 46/266/31 47/268/31
f 42/269/32 88/270/33 41/271/34
f 41/271/34 88/270/33 79/272/34
f 41/271/34 79/272/34 50/273/34
f 50/273/34 79/272/34 80/274/34
f 81/275/6 49/276/6 80/277/6
f 80/277/6 49/276/6 50/278/6
f 85/279/35 70/280/36 84/281/37
f 84/281/37 70/280/36 61/282/37
f 84/281/37 61/282/37 83/283/37
f 83/283/37 61/282/37 62/284/37
f 63/285/8 82/286/8 62/287/8
f 62/287/8 82/286/8 83/288/8
f 55/289/27 67/290/26 54/291/38
f 54/291/38 67/290/26 68/292/39
f 70/293/36 85/294/35 69/295/40
f 69/295/40 85/294/35 86/296/41
f 88/297/33 42/298/32 87/299/42
f 87/299/42 42/298/32 43/300/43
f 45/301/30 52/302/29 44/303/44
f 44/303/44 52/302/29 53/304/45
f 23/305/14 44/306/14 19/307/14
f 19/307/14 44/306/14 105/308/14
f 19/307/14 105/308/14 17/309/14
f 17/309/14 105/308/14 106/310/14
f 17/309/14 106/310/14 43/311/14
f 43/311/14 106/310/14 87/312/14
f 87/312/14 106/310/14 107/313/14
f 87/312/14 107/313/14 73/314/14
f 73/314/14 107/313/14 108/315/14
f 73/314/14 108/315/14 71/316/14
f 71/316/14 108/315/14 86/317/14
f 71/316/14 86/317/14 75/318/14
f 44/306/14 53/319/14 105/308/14
f 105/308/14 53/319/14 109/320/14
f 109/320/14 53/319/14 25/321/14
f 109/320/14 25/321/14 27/322/14
f 53/319/14 29/323/14 25/321/14
f 31/324/14 54/325/14 27/322/14
f 27/322/14 54/325/14 110/326/14
f 27/322/14 110/326/14 109/320/14
f 110/326/14 54/325/14 111/327/14
f 111/327/14 54/325/14 68/328/14
f 111/327/14 68/328/14 33/329/14
f 33/329/14 68/328/14 37/330/14
f 33/329/14 35/331/14 111/327/14
f 111/327/14 35/331/14 112/332/14
f 112/332/14 35/331/14 69/333/14
f 112/332/14 69/333/14 86/317/14
f 35/331/14 39/334/14 69/333/14
f 73/314/14 77/335/14 87/312/14
f 43/311/14 21/336/14 17/309/14
f 108/315/14 112/332/14 86/317/14
f 113/337/24 114/338/24 109/339/24
f 109/339/24 114/338/24 105/340/24
f 114/341/10 115/342/10 105/308/10
f 105/308/10 115/342/10 106/343/10
f 115/344/21 116/345/21 106/343/21
f 106/343/21 116/345/21 107/346/21
f 116/347/13 117/348/13 107/349/13
f 107/349/13 117/348/13 108/350/13
f 111/351/12 112/352/12 118/353/12
f 118/353/12 112/352/12 119/354/12
f 117/355/18 119/356/18 108/350/18
f 108/350/18 119/356/18 112/357/18
f 110/358/15 111/351/15 120/359/15
f 120/359/15 111/351/15 118/360/15
f 109/339/11 110/361/11 113/362/11
f 113/362/11 110/361/11 120/363/11
f 114/364/4 113/365/4 121/366/4
f 121/366/4 113/365/4 122/367/4
f 113/368/3 120/369/3 122/370/3
f 122/370/3 120/369/3 123/371/3
f 120/372/2 118/373/2 123/374/2
f 123/374/2 118/373/2 124/375/2
f 118/376/1 119/377/1 124/378/1
f 124/378/1 119/377/1 125/379/1
f 126/380/46 127/381/46 121/382/46
f 121/382/46 127/381/46 128/383/46
f 127/381/47 129/384/47 128/385/47
f 128/385/47 129/384/47 130/386/47
f 129/387/48 131/388/48 130/389/48
f 130/389/48 131/388/48 132/390/48
f 125/391/49 132/392/49 133/393/49
f 133/393/49 132/392/49 131/388/49
f 124/394/50 125/395/50 134/396/50
f 134/396/50 125/395/50 133/397/50
f 123/398/51 124/399/51 135/400/51
f 135/400/51 124/399/51 134/396/51
f 122/401/52 123/402/52 136/403/52
f 136/403/52 123/402/52 135/404/52
f 121/405/53 122/406/53 126/407/53
f 126/407/53 122/406/53 136/403/53
f 115/408/5 114/409/5 128/410/5
f 128/410/5 114/409/5 121/411/5
f 1/412/9 134/413/9 2/414/9
f 2/414/9 134/413/9 133/415/9
f 2/414/9 133/415/9 15/416/9
f 15/416/9 133/415/9 131/417/9
f 15/416/9 131/417/9 129/418/9
f 134/413/9 1/412/9 135/419/9
f 135/419/9 1/412/9 5/420/9
f 135/419/9 5/420/9 7/421/9
f 135/419/9 7/421/9 136/422/9
f 136/422/9 7/421/9 9/423/9
f 136/422/9 9/423/9 126/424/9
f 126/424/9 9/423/9 11/425/9
f 126/424/9 11/425/9 127/426/9
f 127/426/9 11/425/9 13/427/9
f 127/426/9 13/427/9 129/418/9
f 129/418/9 13/427/9 15/416/9
f 116/428/6 115/429/6 130/430/6
f 130/430/6 115/429/6 128/431/6
f 119/432/8 117/433/8 125/434/8
f 125/434/8 117/433/8 132/435/8
f 117/436/7 116/437/7 132/438/7
f 132/438/7 116/437/7 130/439/7
