# Blender v3.1.2 OBJ File: 'GT_Jumbo_Wing.blend'
# www.blender.org
o GT_Jumbo_Wing.007
v 3.494980 0.307302 1.749150
v -0.495024 0.307282 1.748740
v -0.497507 0.059083 0.395801
v -0.500023 -0.060493 0.398967
v -0.498364 -0.471652 1.011629
v -0.499982 -0.470035 3.772963
v -0.495023 0.037498 4.457520
v -0.500023 0.145617 4.495020
v -0.500024 0.250910 4.371040
v 3.494980 0.061179 0.396167
v 3.494980 -0.064374 0.395363
v 3.494980 0.146873 4.500020
v 3.494980 0.037498 4.457520
v 3.499980 0.250910 4.371040
v 3.490484 -0.473274 1.008640
v 3.494970 -0.475001 3.765020
v 1.497478 0.359106 3.490095
v -0.497524 0.359096 3.489890
v 3.497480 0.359106 3.490095
v 1.499978 0.246179 0.759064
v 3.494980 0.246189 0.759269
v -0.496266 0.245131 0.758881
vt 0.372051 0.746262
vt 0.000000 0.000000
vt 0.614658 0.818158
vt 0.245820 0.766750
vt 0.239954 0.766905
vt 0.240473 0.961464
vt 0.000000 0.000000
vt 0.614810 0.961171
vt 0.430239 0.792454
vt 0.614734 0.889664
vt 0.333170 0.766729
vt 0.137437 0.766768
vt 0.000000 0.000000
vt 0.333170 0.867229
vt 0.137437 0.865482
vt 0.333170 0.865482
vt 0.239956 0.766736
vt 0.509831 0.774903
vt 0.000000 0.000000
vt 0.744492 0.774903
vt 0.371672 0.941869
vt 0.000000 0.000000
vt 0.371672 0.746459
vt 0.166585 0.383384
vt 0.000000 0.000000
vt 0.000000 0.000000
vt 0.000000 0.000000
vt 0.239956 0.766736
vt 0.401000 0.933606
vt 0.137437 0.959624
vt 0.249519 0.941869
vt 0.000000 0.000000
vt 0.000000 0.000000
vt 0.137437 0.867229
vt 0.245679 0.959214
vt 0.169168 0.933606
vt 0.254916 0.387451
vt 0.254916 0.387451
vt 0.372246 0.387451
vt 0.000000 0.000000
vt 0.166585 0.383384
vt 0.333170 0.766768
vt 0.000000 0.000000
vt 0.000000 0.000000
vt 0.000000 0.000000
vt 0.000000 0.000000
vt 0.236955 0.959436
vt 0.242094 0.961464
vt 0.333170 0.959624
vt 0.169168 0.834312
vt 0.000000 0.000000
vn -1.0000 -0.0024 0.0002
vn -1.0000 -0.0024 0.0003
vn -1.0000 -0.0025 -0.0000
vn -1.0000 -0.0020 -0.0006
vn -1.0000 -0.0023 -0.0002
vn -1.0000 -0.0025 0.0001
vn -1.0000 -0.0019 0.0003
vn -1.0000 0.0057 0.0060
vn -1.0000 -0.0013 -0.0020
vn -1.0000 -0.0019 -0.0007
vn -1.0000 -0.0025 0.0010
vn -1.0000 -0.0016 0.0018
vn -1.0000 -0.0020 0.0014
vn -1.0000 0.0059 -0.0007
vn -1.0000 -0.0021 -0.0018
vn -1.0000 -0.0014 -0.0003
vn -1.0000 -0.0006 0.0052
vn -1.0000 -0.0019 0.0008
vn -1.0000 -0.0019 0.0026
vn -1.0000 0.0017 0.0026
vn -1.0000 -0.0012 0.0005
vn -1.0000 0.0007 0.0023
vn -0.0004 -0.0096 -1.0000
vn -0.0011 0.6494 0.7605
vn 0.0002 -0.2973 0.9548
vn 0.0000 -0.3099 0.9508
vn -0.0006 -0.0096 -1.0000
vn -0.0003 0.9663 0.2575
vn -0.0004 0.9669 0.2551
vn -0.0004 -0.9498 0.3129
vn -0.0009 -1.0000 0.0001
vn -0.0007 -1.0000 -0.0002
vn -0.0402 0.9636 -0.2642
vn -0.0004 0.9800 -0.1990
vn -0.0002 0.9996 -0.0295
vn 1.0000 -0.0082 -0.0000
vn 1.0000 -0.0094 0.0000
vn 1.0000 -0.0091 0.0006
vn -0.0003 -0.9496 0.3136
vn -0.0011 -0.8313 -0.5558
vn -0.0010 -0.8310 -0.5563
vn -0.0010 -0.8313 -0.5558
vn -0.0011 0.6482 0.7615
vn -0.0001 0.9980 0.0632
vn -0.0791 0.9958 0.0461
vn -0.0002 0.9964 -0.0843
vn -0.0001 0.9996 -0.0299
vn -0.0001 0.9691 -0.2468
vn -0.0000 0.9170 -0.3988
vn 1.0000 -0.0056 -0.0056
vn 1.0000 -0.0072 -0.0018
vn 1.0000 -0.0071 -0.0007
vn 1.0000 -0.0081 -0.0005
vn 1.0000 -0.0065 -0.0007
vn 1.0000 -0.0098 0.0002
vn 1.0000 -0.0092 -0.0007
vn -0.0010 -0.8311 -0.5561
vn -0.0002 0.9168 -0.3995
s off
f 5/1/1 6/2/2 2/3/3
f 3/4/4 4/5/5 5/1/6
f 7/6/7 8/7/7 9/8/7
f 22/9/8 5/1/9 2/3/10
f 6/2/11 7/6/12 9/8/13
f 18/10/14 6/2/15 9/8/16
f 22/9/17 3/4/18 5/1/19
f 18/10/20 2/3/21 6/2/22
s 1
f 11/11/23 3/12/23 10/13/23
f 12/14/24 7/15/25 13/16/26
f 11/11/23 4/17/27 3/12/23
f 9/18/28 12/19/24 14/20/29
f 16/21/30 5/22/31 15/23/32
f 20/24/33 22/25/34 2/26/35
f 15/27/36 11/28/37 10/13/38
f 16/29/30 7/30/25 6/31/39
f 15/27/40 4/32/41 11/33/42
f 12/14/24 8/34/43 7/15/25
f 9/18/28 8/35/43 12/19/24
f 16/21/30 6/36/39 5/22/31
f 18/37/44 9/18/28 17/38/45
f 17/38/45 19/39/46 1/40/47
f 21/41/48 10/42/49 20/24/33
f 21/43/50 15/27/36 10/13/38
f 19/44/51 16/45/52 1/40/53
f 16/45/52 14/46/54 13/47/55
f 14/46/54 12/48/56 13/47/55
f 16/45/52 15/27/36 1/40/53
f 16/29/30 13/49/26 7/30/25
f 15/27/40 5/50/57 4/32/41
f 14/20/29 17/38/45 9/18/28
f 2/26/35 17/38/45 1/40/47
f 1/40/47 20/24/33 2/26/35
f 3/51/58 20/24/33 10/42/49
f 21/43/50 1/40/53 15/27/36
f 19/44/51 14/46/54 16/45/52
f 14/20/29 19/39/46 17/38/45
f 2/26/35 18/37/44 17/38/45
f 1/40/47 21/41/48 20/24/33
f 3/51/58 22/25/34 20/24/33
