# Blender v3.1.2 OBJ File: 'GT_Jumbo_Wing.blend'
# www.blender.org
o GT_Jumbo_Wing.009_GT_Jumbo_Wing.006
v -0.497598 0.220813 0.374819
v 3.497598 0.220813 0.374819
v 3.499614 0.153972 -0.408233
v -0.499614 0.153972 -0.408233
v -0.497619 0.101666 0.358952
v 0.002500 0.100947 -0.406952
v -0.498670 0.198371 -0.499846
v 2.997500 0.100947 -0.406952
v 3.497619 0.101666 0.358952
v 3.498670 0.198371 -0.499846
vt 0.000000 0.000000
vt 0.563621 0.660538
vt 0.537929 0.660515
vt 0.562438 0.669638
vt 0.562832 0.670408
vt 0.563621 0.660538
vt 0.376126 0.446120
vt 0.444519 0.518396
vt 0.532927 0.669423
vt 0.537929 0.660515
vt 0.562438 0.669638
vt 0.562832 0.670408
vt 0.444519 0.518396
vt 0.376126 0.446120
vt 0.410607 0.502330
vt 0.532927 0.669423
vt 0.410805 0.502715
vt 0.537929 0.658333
vt 0.537929 0.658333
vt 0.504576 0.588399
vt 0.000000 0.000000
vt 0.317569 0.376588
vt 0.541747 0.669534
vn 0.0935 -0.8956 -0.4350
vn 1.0000 -0.0002 0.0026
vn -0.9997 0.0226 0.0006
vn -0.1046 -0.9922 -0.0674
vn -1.0000 -0.0002 0.0026
vn 0.9997 0.0226 0.0006
vn 0.0000 -0.1320 0.9912
vn 0.1046 -0.9922 -0.0674
vn 0.0000 -0.6901 -0.7237
vn 0.0000 0.9997 -0.0256
vn -0.0935 -0.8956 -0.4350
vn 0.0000 -1.0000 0.0009
s off
f 10/1/1 3/2/1 8/3/1
f 9/4/2 3/2/2 2/5/2
f 4/6/3 1/7/3 7/8/3
f 5/9/4 4/6/4 6/10/4
f 5/11/5 1/12/5 4/6/5
f 3/2/6 10/13/6 2/14/6
f 1/12/7 5/11/7 9/15/7
f 9/16/8 8/3/8 3/2/8
f 1/12/7 9/15/7 2/17/7
f 8/3/9 6/10/9 7/18/9
f 8/3/9 7/18/9 10/19/9
f 10/20/10 7/8/10 1/7/10
f 7/21/11 6/10/11 4/6/11
f 10/20/10 1/7/10 2/22/10
f 8/3/12 5/9/12 6/10/12
f 8/3/12 9/23/12 5/9/12
