# Blender v2.82 (sub 7) OBJ File: 'HE_Niflheim_Railgun_Turret.blend'
# www.blender.org
mtllib HE_Niflheim_Railgun_Gimbal_Collider.mtl
o Gimbal_Collider_Cube.002
v 0.803153 0.933108 -2.073952
v 1.071126 0.551704 -1.973663
v -0.803153 0.933108 -2.073952
v -1.071126 0.551704 -1.973663
v -1.349885 0.263584 -1.589474
v 1.349885 0.263584 -1.589474
v -1.339100 0.323608 -1.661573
v 1.339100 0.323608 -1.661573
v -0.267205 1.568462 0.236216
v 0.267205 1.568462 0.236216
v -1.349885 0.263584 -1.589474
v -1.233899 0.081305 -1.350132
v 1.233899 0.081305 -1.350132
v 1.349885 0.263584 -1.589474
v -0.267205 1.568462 -1.737823
v -0.436800 1.371502 -1.998909
v 0.436800 1.371502 -1.998909
v 0.267205 1.568462 -1.737823
v -0.577666 0.431889 1.565650
v -1.349885 0.263584 0.119898
v -1.339100 0.323608 0.139507
v -0.826158 0.852361 1.072130
v -0.577666 0.431889 1.565650
v -1.233899 0.081305 0.330782
v 1.349885 0.263584 0.129032
v 1.339100 0.323608 0.148508
v 0.826958 0.851335 1.073327
v 0.577424 0.431889 1.565650
v 1.233899 0.081305 0.338479
v 0.577424 0.431889 1.565650
v -0.709666 0.081305 1.312820
v -0.577666 0.431889 1.565650
v -0.577666 0.431889 1.565650
v 0.577424 0.431889 1.565650
v 0.710330 0.081305 1.312820
v 0.577424 0.431889 1.565650
vt 0.562500 0.106491
vt 0.592409 0.024379
vt 0.625000 0.069485
vt 0.625000 0.233592
vt 0.615111 0.250000
vt 0.593750 0.250000
vt 0.578125 0.250000
vt 0.562500 0.250000
vt 0.625000 0.516408
vt 0.875000 0.516408
vt 0.875000 0.680515
vt 0.625000 0.680515
vt 0.578125 0.500000
vt 0.562500 0.500000
vt 0.375000 0.667628
vt 0.562500 0.644201
vt 0.625000 0.725685
vt 0.593750 0.500000
vt 0.375000 0.082906
vt 0.228394 0.615815
vt 0.295215 0.562254
vt 0.500000 0.250000
vt 0.500000 0.250000
vt 0.500000 0.500000
vt 0.500000 0.500000
vt 0.500000 0.639570
vt 0.500000 0.111153
vt 0.161913 0.187997
vt 0.075920 0.135164
vt 0.375000 0.534743
vt 0.125000 0.534743
vt 0.125000 0.500000
vt 0.375000 0.500000
vt 0.375000 0.215257
vt 0.625000 0.500000
vt 0.875000 0.500000
vt 0.615111 0.500000
vt 0.321960 0.733324
vt 0.178107 0.733324
vt 0.125000 0.667094
vt 0.875000 0.725621
vt 0.813999 0.750000
vt 0.686027 0.750000
vt 0.592362 0.725685
vt 0.500000 0.821530
vt 0.500000 0.821530
vt 0.500000 0.928492
vt 0.500000 0.928492
vt 0.308496 0.750000
vt 0.191480 0.750000
vn -0.7598 0.6501 0.0022
vn 0.0000 1.0000 0.0000
vn 0.0000 -0.8074 -0.5901
vn 0.8748 0.0000 0.4845
vn 0.0000 -0.2543 -0.9671
vn -0.8844 0.0120 0.4666
vn 0.0000 0.0000 1.0000
vn 0.0000 -0.7685 -0.6398
vn -0.9842 0.1768 0.0000
vn 0.8831 0.0121 0.4690
vn 0.0000 -0.7956 -0.6059
vn -0.8437 -0.5368 0.0000
vn -0.0000 0.7983 -0.6022
vn 0.0000 0.1687 -0.9857
vn 0.0000 -1.0000 0.0000
vn -0.8762 0.0000 0.4819
vn 0.0000 0.7602 0.6497
vn 0.7598 0.6501 0.0022
vn 0.8437 -0.5368 0.0000
vn 0.9842 0.1768 0.0000
vn 0.0000 -0.5849 0.8111
usemtl None
s off
f 21/1/1 22/2/1 9/3/1 15/4/1 16/5/1 3/6/1 4/7/1 7/8/1
f 18/9/2 15/10/2 9/11/2 10/12/2
f 7/8/3 4/7/3 2/13/3 8/14/3
f 29/15/4 26/16/4 27/17/4
f 4/7/5 3/6/5 1/18/5 2/13/5
f 22/2/6 24/19/6 31/20/6 33/21/6
f 11/22/7 5/23/7 6/24/7 14/25/7
f 29/15/4 25/26/4 26/16/4
f 5/23/8 7/8/8 8/14/8 6/24/8
f 20/27/9 21/1/9 7/8/9 5/23/9
f 27/17/10 36/28/10 35/29/10 29/15/10
f 13/30/11 12/31/11 11/32/11 14/33/11
f 24/19/12 20/27/12 5/23/12 11/22/12 12/34/12
f 15/10/13 18/9/13 17/35/13 16/36/13
f 3/6/14 16/5/14 17/37/14 1/18/14
f 12/31/15 13/30/15 29/15/15 35/38/15 31/39/15 24/40/15
f 24/19/16 22/2/16 21/1/16
f 24/19/16 21/1/16 20/27/16
f 10/12/17 9/11/17 22/41/17 23/42/17 28/43/17 27/17/17
f 8/14/18 2/13/18 1/18/18 17/37/18 18/9/18 10/12/18 27/44/18 26/16/18
f 13/30/19 14/25/19 6/24/19 25/26/19 29/15/19
f 6/24/20 8/14/20 26/16/20 25/26/20
f 34/45/7 30/46/7 19/47/7 32/48/7
f 31/39/21 35/38/21 34/49/21 32/50/21
