# Blender v2.82 (sub 7) OBJ File: 'HE_Cascade_Turboprop_Collider.blend'
# www.blender.org
mtllib HE_Cascade_Turboprop_Collider.mtl
o m_HE_GyroProp_331_Instance
v -0.302761 -1.488122 -0.422099
v 0.289765 -1.490707 0.422099
v -0.302761 -1.488122 0.422098
v 0.289765 -1.490707 -0.422099
v -0.286499 -1.408192 0.500776
v 0.234182 -1.204759 0.500776
v -0.000000 -0.000000 0.500776
v 0.274201 -1.410639 0.500776
v -0.803583 -1.191361 0.500776
v -0.000000 -0.000000 0.500776
v -1.198328 -0.793157 0.500776
v -0.000000 -0.000000 0.500776
v -1.410639 -0.274201 0.500776
v -1.204759 -0.234182 0.500776
v 0.147060 -0.756556 -3.500776
v -0.091331 0.036309 -3.500776
v 0.289765 -1.490707 -0.422099
v 0.838177 -1.266346 0.422099
v 0.289765 -1.490707 0.422099
v 0.838177 -1.266346 -0.422099
v 0.274201 -1.410639 0.500776
v -0.000000 -0.000000 0.500776
v -0.000000 -0.000000 0.500776
v 0.793157 -1.198328 0.500776
v -0.000000 -0.000000 0.500776
v 1.191361 -0.803582 0.500776
v -0.000000 -0.000000 0.500776
v 1.408192 -0.286499 0.500776
v 1.204759 0.234182 0.500776
v 1.410639 0.274201 0.500776
v 0.756556 0.147060 -3.500775
v -0.091331 0.036309 -3.500776
v 0.838177 -1.266346 -0.422099
v 1.258984 -0.849194 0.422099
v 0.838177 -1.266346 0.422099
v 1.258984 -0.849195 -0.422099
v 1.258984 -0.849195 -0.422099
v 1.488122 -0.302761 0.422099
v 1.258984 -0.849194 0.422099
v 1.488122 -0.302761 -0.422098
v 1.488122 -0.302761 -0.422098
v 1.490707 0.289765 0.422099
v 1.488122 -0.302761 0.422099
v 1.490707 0.289765 -0.422098
v 1.490707 0.289765 -0.422098
v 1.266346 0.838177 0.422099
v 1.490707 0.289765 0.422099
v 1.266346 0.838177 -0.422099
v 1.410639 0.274201 0.500776
v -0.000000 -0.000000 0.500776
v -0.000000 -0.000000 0.500776
v 1.198328 0.793157 0.500776
v -0.000000 -0.000000 0.500776
v 0.803582 1.191361 0.500776
v -0.000000 -0.000000 0.500776
v 0.286499 1.408192 0.500776
v -0.234182 1.204759 0.500776
v -0.274201 1.410639 0.500776
v -0.147060 0.756556 -3.500776
v -0.091331 0.036309 -3.500776
v 1.266346 0.838177 -0.422099
v 0.849194 1.258984 0.422099
v 1.266346 0.838177 0.422099
v 0.849194 1.258984 -0.422099
v 0.849194 1.258984 -0.422099
v 0.302761 1.488122 0.422099
v 0.849194 1.258984 0.422099
v 0.302761 1.488122 -0.422099
v 0.302761 1.488122 -0.422099
v -0.289765 1.490707 0.422099
v 0.302761 1.488122 0.422099
v -0.289765 1.490707 -0.422099
v -0.289765 1.490707 -0.422099
v -0.838177 1.266346 0.422098
v -0.289765 1.490707 0.422099
v -0.838177 1.266346 -0.422099
v -0.274201 1.410639 0.500776
v -0.000000 -0.000000 0.500776
v -0.000000 -0.000000 0.500776
v -0.793157 1.198328 0.500776
v -0.000000 -0.000000 0.500776
v -1.191361 0.803583 0.500776
v -0.000000 -0.000000 0.500776
v -1.408192 0.286499 0.500776
v -0.000000 -0.000000 0.500776
v -1.410639 -0.274201 0.500776
v -0.756556 -0.147060 -3.500776
v -0.091331 0.036309 -3.500776
v -0.838177 1.266346 -0.422099
v -1.258984 0.849194 0.422098
v -0.838177 1.266346 0.422098
v -1.258984 0.849194 -0.422099
v -1.258984 0.849194 -0.422099
v -1.488122 0.302761 0.422098
v -1.258984 0.849194 0.422098
v -1.488122 0.302761 -0.422099
v -1.488122 0.302761 -0.422099
v -1.490707 -0.289765 0.422098
v -1.488122 0.302761 0.422098
v -1.490707 -0.289765 -0.422099
v -1.490707 -0.289765 -0.422099
v -1.266346 -0.838177 0.422098
v -1.490707 -0.289765 0.422098
v -1.266346 -0.838177 -0.422099
v -1.266346 -0.838177 -0.422099
v -0.849195 -1.258983 0.422098
v -1.266346 -0.838177 0.422098
v -0.849195 -1.258983 -0.422099
v -0.849195 -1.258983 -0.422099
v -0.302761 -1.488122 0.422098
v -0.849195 -1.258983 0.422098
v -0.302761 -1.488122 -0.422099
v 0.289765 -1.490707 0.422099
v -0.286499 -1.408192 0.500776
v -0.302761 -1.488122 0.422098
v 0.274201 -1.410639 0.500776
v -0.302761 -1.488122 0.422098
v -0.803583 -1.191361 0.500776
v -0.849195 -1.258983 0.422098
v -0.286499 -1.408192 0.500776
v -1.198328 -0.793157 0.500776
v -1.266346 -0.838177 0.422098
v -1.410639 -0.274201 0.500776
v -1.490707 -0.289765 0.422098
v -1.490707 -0.289765 0.422098
v -1.408192 0.286499 0.500776
v -1.488122 0.302761 0.422098
v -1.410639 -0.274201 0.500776
v -1.488122 0.302761 0.422098
v -1.191361 0.803583 0.500776
v -1.258984 0.849194 0.422098
v -1.408192 0.286499 0.500776
v -0.793157 1.198328 0.500776
v -0.838177 1.266346 0.422098
v -0.274201 1.410639 0.500776
v -0.289765 1.490707 0.422099
v -0.289765 1.490707 0.422099
v 0.286499 1.408192 0.500776
v 0.302761 1.488122 0.422099
v -0.274201 1.410639 0.500776
v 0.302761 1.488122 0.422099
v 0.803582 1.191361 0.500776
v 0.849194 1.258984 0.422099
v 0.286499 1.408192 0.500776
v 1.198328 0.793157 0.500776
v 1.266346 0.838177 0.422099
v 1.410639 0.274201 0.500776
v 1.490707 0.289765 0.422099
v 1.490707 0.289765 0.422099
v 1.408192 -0.286499 0.500776
v 1.488122 -0.302761 0.422099
v 1.410639 0.274201 0.500776
v 1.488122 -0.302761 0.422099
v 1.191361 -0.803582 0.500776
v 1.258984 -0.849194 0.422099
v 1.408192 -0.286499 0.500776
v 0.793157 -1.198328 0.500776
v 0.838177 -1.266346 0.422099
v 0.274201 -1.410639 0.500776
v 0.289765 -1.490707 0.422099
v -0.302761 -1.488122 -0.422099
v 0.147060 -0.756556 -3.500776
v 0.289765 -1.490707 -0.422099
v -0.153656 -0.755243 -3.500776
v 0.289765 -1.490707 -0.422099
v 0.425387 -0.642689 -3.500775
v 0.838177 -1.266346 -0.422099
v 0.147060 -0.756556 -3.500776
v 0.638952 -0.430979 -3.500775
v 1.258984 -0.849195 -0.422099
v 0.755243 -0.153655 -3.500775
v 1.488122 -0.302761 -0.422098
v 1.488122 -0.302761 -0.422098
v 0.756556 0.147060 -3.500775
v 1.490707 0.289765 -0.422098
v 0.755243 -0.153655 -3.500775
v 1.490707 0.289765 -0.422098
v 0.642689 0.425387 -3.500775
v 1.266346 0.838177 -0.422099
v 0.756556 0.147060 -3.500775
v 0.430978 0.638952 -3.500775
v 0.849194 1.258984 -0.422099
v 0.153655 0.755244 -3.500776
v 0.302761 1.488122 -0.422099
v 0.302761 1.488122 -0.422099
v -0.147060 0.756556 -3.500776
v -0.289765 1.490707 -0.422099
v 0.153655 0.755244 -3.500776
v -0.289765 1.490707 -0.422099
v -0.425387 0.642689 -3.500776
v -0.838177 1.266346 -0.422099
v -0.147060 0.756556 -3.500776
v -0.638952 0.430978 -3.500776
v -1.258984 0.849194 -0.422099
v -0.755243 0.153656 -3.500776
v -1.488122 0.302761 -0.422099
v -1.488122 0.302761 -0.422099
v -0.756556 -0.147060 -3.500776
v -1.490707 -0.289765 -0.422099
v -0.755243 0.153656 -3.500776
v -1.490707 -0.289765 -0.422099
v -0.642689 -0.425387 -3.500776
v -1.266346 -0.838177 -0.422099
v -0.756556 -0.147060 -3.500776
v -0.430979 -0.638952 -3.500776
v -0.849195 -1.258983 -0.422099
v -0.153656 -0.755243 -3.500776
v -0.302761 -1.488122 -0.422099
v -0.091331 0.036309 -3.500776
v -0.091331 0.036309 -3.500776
v -0.091331 0.036309 -3.500776
v -0.091331 0.036309 -3.500776
v -0.091331 0.036309 -3.500776
v -0.091331 0.036309 -3.500776
v -0.091331 0.036309 -3.500776
v -0.091331 0.036309 -3.500776
v -0.091331 0.036309 -3.500776
v -0.091331 0.036309 -3.500776
vt 0.062828 0.381114
vt 0.007165 0.414814
vt 0.062828 0.414814
vt 0.007165 0.381114
vt 0.304724 0.440504
vt 0.357184 0.421251
vt 0.308937 0.421053
vt 0.361216 0.440736
vt 0.252615 0.420002
vt 0.264431 0.403546
vt 0.212843 0.382316
vt 0.230464 0.371360
vt 0.191453 0.333201
vt 0.212196 0.329414
vt 0.093226 0.437813
vt 0.158249 0.483529
vt 0.158249 0.437813
vt 0.093226 0.483529
vt 0.191854 0.333388
vt 0.230866 0.371547
vt 0.212597 0.329600
vt 0.213245 0.382502
vt 0.264833 0.403733
vt 0.253017 0.420189
vt 0.309327 0.421259
vt 0.305114 0.440710
vt 0.357585 0.421438
vt 0.361617 0.440922
vt 0.243988 0.002972
vt 0.196101 0.056723
vt 0.243988 0.056723
vt 0.196101 0.002972
vt 0.093226 0.437813
vt 0.158249 0.483529
vt 0.158249 0.437813
vt 0.093226 0.483529
vt 0.062730 0.380881
vt 0.007067 0.414582
vt 0.062730 0.414582
vt 0.007067 0.380881
vt 0.093226 0.437813
vt 0.158249 0.483529
vt 0.158249 0.437813
vt 0.093226 0.483529
vt 0.191854 0.333388
vt 0.230866 0.371547
vt 0.212597 0.329600
vt 0.213245 0.382502
vt 0.264833 0.403733
vt 0.253017 0.420189
vt 0.309327 0.421259
vt 0.305114 0.440710
vt 0.668635 0.594180
vt 0.721106 0.574907
vt 0.672848 0.574729
vt 0.725138 0.594392
vt 0.244148 0.002741
vt 0.196261 0.056492
vt 0.244148 0.056492
vt 0.196261 0.002741
vt 0.093226 0.437813
vt 0.158249 0.483529
vt 0.158249 0.437813
vt 0.093226 0.483529
vt 0.062839 0.381035
vt 0.007177 0.414735
vt 0.062839 0.414735
vt 0.007177 0.381035
vt 0.093226 0.437813
vt 0.158249 0.483529
vt 0.158249 0.437813
vt 0.093226 0.483529
vt 0.191667 0.333171
vt 0.230679 0.371330
vt 0.212410 0.329383
vt 0.213058 0.382286
vt 0.264646 0.403516
vt 0.252829 0.419972
vt 0.309140 0.421042
vt 0.304927 0.440493
vt 0.357398 0.421221
vt 0.361430 0.440706
vt 0.244272 0.002782
vt 0.196385 0.056533
vt 0.244272 0.056533
vt 0.196385 0.002782
vt 0.093226 0.437813
vt 0.158249 0.483529
vt 0.158249 0.437813
vt 0.093226 0.483529
vt 0.062718 0.380960
vt 0.007056 0.414661
vt 0.062718 0.414661
vt 0.007056 0.380960
vt 0.093226 0.437813
vt 0.158249 0.483529
vt 0.158249 0.437813
vt 0.093226 0.483529
vt 0.244395 0.002859
vt 0.196509 0.056610
vt 0.244395 0.056610
vt 0.196509 0.002859
vt 0.093226 0.437813
vt 0.158249 0.483529
vt 0.158249 0.437813
vt 0.093226 0.483529
vt 0.309173 0.398781
vt 0.366792 0.404052
vt 0.366792 0.398781
vt 0.309173 0.404052
vt 0.251365 0.398769
vt 0.308984 0.404040
vt 0.308984 0.398769
vt 0.251365 0.404040
vt 0.366603 0.404040
vt 0.366603 0.398769
vt 0.424221 0.404040
vt 0.424221 0.398769
vt 0.309060 0.398697
vt 0.366678 0.403968
vt 0.366678 0.398697
vt 0.309060 0.403968
vt 0.251491 0.398810
vt 0.309109 0.404081
vt 0.309109 0.398810
vt 0.251491 0.404081
vt 0.366728 0.404081
vt 0.366728 0.398810
vt 0.424346 0.404081
vt 0.424346 0.398810
vt 0.309185 0.398738
vt 0.366804 0.404009
vt 0.366804 0.398738
vt 0.309185 0.404009
vt 0.251377 0.398726
vt 0.308996 0.403997
vt 0.308996 0.398726
vt 0.251377 0.403997
vt 0.366615 0.403997
vt 0.366615 0.398726
vt 0.424233 0.403997
vt 0.424233 0.398726
vt 0.309072 0.398654
vt 0.366690 0.403924
vt 0.366690 0.398654
vt 0.309072 0.403924
vt 0.251479 0.398853
vt 0.309097 0.404124
vt 0.309097 0.398853
vt 0.251479 0.404124
vt 0.366716 0.404124
vt 0.366716 0.398853
vt 0.424334 0.404124
vt 0.424334 0.398853
vt 0.366792 0.380333
vt 0.309173 0.375062
vt 0.309173 0.380333
vt 0.366792 0.375062
vt 0.424334 0.380405
vt 0.366716 0.375135
vt 0.366716 0.380405
vt 0.424334 0.375135
vt 0.309097 0.375135
vt 0.309097 0.380405
vt 0.251479 0.375135
vt 0.251479 0.380405
vt 0.366690 0.380206
vt 0.309072 0.374935
vt 0.309072 0.380206
vt 0.366690 0.374935
vt 0.424233 0.380278
vt 0.366615 0.375007
vt 0.366615 0.380278
vt 0.424233 0.375007
vt 0.308996 0.375007
vt 0.308996 0.380278
vt 0.251377 0.375007
vt 0.251377 0.380278
vt 0.366804 0.380290
vt 0.309185 0.375019
vt 0.309185 0.380290
vt 0.366804 0.375019
vt 0.424346 0.380362
vt 0.366728 0.375091
vt 0.366728 0.380362
vt 0.424346 0.375091
vt 0.309109 0.375091
vt 0.309109 0.380362
vt 0.251491 0.375091
vt 0.251491 0.380362
vt 0.366678 0.380249
vt 0.309060 0.374978
vt 0.309060 0.380249
vt 0.366678 0.374978
vt 0.424221 0.380321
vt 0.366603 0.375051
vt 0.366603 0.380321
vt 0.424221 0.375051
vt 0.308984 0.375051
vt 0.308984 0.380321
vt 0.251365 0.375051
vt 0.251365 0.380321
vn -0.1994 -0.9799 0.0000
vn 0.1908 -0.9816 -0.0001
vn 0.1908 -0.9816 0.0000
vn -0.0000 -0.0000 1.0000
vn -0.0000 -0.0000 -1.0000
vn 0.4197 0.3456 -0.8393
vn 0.5519 -0.8339 -0.0001
vn 0.5519 -0.8339 0.0000
vn 0.4445 -0.0000 0.8958
vn 0.8081 -0.0000 -0.5891
vn 0.8290 -0.5592 -0.0000
vn 0.9799 -0.1994 -0.0000
vn 0.9799 -0.1994 0.0001
vn 0.9816 0.1908 -0.0000
vn 0.8339 0.5519 -0.0000
vn 0.0005 -0.0000 1.0000
vn 0.6681 -0.0000 0.7441
vn 1.0000 0.0000 0.0000
vn 0.5592 0.8290 -0.0000
vn 0.1994 0.9799 -0.0001
vn 0.1994 0.9799 0.0000
vn -0.1908 0.9816 -0.0000
vn -0.5519 0.8339 -0.0000
vn 0.3314 -0.0000 0.9435
vn 0.0001 -0.0000 1.0000
vn 0.2088 -0.0000 0.9780
vn -0.8290 0.5592 -0.0001
vn -0.8290 0.5592 0.0000
vn -0.9799 0.1994 -0.0000
vn -0.9799 0.1994 0.0001
vn -0.9816 -0.1908 -0.0000
vn -0.8339 -0.5519 -0.0000
vn -0.5592 -0.8290 -0.0000
vn -0.1994 -0.9799 -0.0001
vn 0.1480 -0.6790 0.7191
vn -0.1539 -0.6777 0.7190
vn -0.1539 -0.6777 0.7191
vn 0.1480 -0.6790 0.7190
vn -0.1231 -0.6839 0.7191
vn -0.3882 -0.5756 0.7197
vn -0.1231 -0.6840 0.7190
vn -0.5789 -0.3832 0.7197
vn -0.6850 -0.1172 0.7190
vn -0.6850 -0.1172 0.7191
vn -0.6790 -0.1480 0.7191
vn -0.6777 0.1539 0.7190
vn -0.6777 0.1539 0.7191
vn -0.6790 -0.1480 0.7190
vn -0.6839 0.1231 0.7191
vn -0.5756 0.3882 0.7197
vn -0.6840 0.1231 0.7190
vn -0.3832 0.5789 0.7197
vn -0.1172 0.6850 0.7190
vn -0.1172 0.6850 0.7191
vn -0.1480 0.6790 0.7191
vn 0.1539 0.6777 0.7190
vn 0.1539 0.6777 0.7191
vn -0.1480 0.6790 0.7190
vn 0.1231 0.6839 0.7191
vn 0.3882 0.5755 0.7197
vn 0.1231 0.6840 0.7190
vn 0.5789 0.3832 0.7197
vn 0.6850 0.1172 0.7190
vn 0.6850 0.1172 0.7191
vn 0.6790 0.1480 0.7191
vn 0.6777 -0.1539 0.7190
vn 0.6777 -0.1539 0.7191
vn 0.6790 0.1480 0.7190
vn 0.6839 -0.1231 0.7191
vn 0.5755 -0.3882 0.7197
vn 0.6840 -0.1231 0.7190
vn 0.3832 -0.5789 0.7197
vn 0.1172 -0.6850 0.7190
vn 0.1172 -0.6850 0.7191
vn -0.1561 -0.9582 -0.2396
vn 0.1478 -0.9595 -0.2398
vn 0.1478 -0.9595 -0.2397
vn -0.1561 -0.9582 -0.2398
vn 0.2225 -0.9450 -0.2396
vn 0.5363 -0.8103 -0.2361
vn 0.2225 -0.9450 -0.2398
vn 0.8056 -0.5434 -0.2361
vn 0.9430 -0.2306 -0.2398
vn 0.9431 -0.2306 -0.2396
vn 0.9582 -0.1561 -0.2396
vn 0.9595 0.1478 -0.2398
vn 0.9595 0.1478 -0.2397
vn 0.9582 -0.1561 -0.2398
vn 0.9450 0.2225 -0.2396
vn 0.8103 0.5363 -0.2361
vn 0.9450 0.2225 -0.2398
vn 0.5434 0.8056 -0.2361
vn 0.2306 0.9430 -0.2398
vn 0.2307 0.9431 -0.2396
vn 0.1561 0.9582 -0.2396
vn -0.1478 0.9595 -0.2398
vn -0.1478 0.9595 -0.2397
vn 0.1561 0.9582 -0.2398
vn -0.2225 0.9450 -0.2396
vn -0.5363 0.8103 -0.2361
vn -0.2225 0.9450 -0.2398
vn -0.8056 0.5434 -0.2361
vn -0.9430 0.2306 -0.2398
vn -0.9431 0.2307 -0.2396
vn -0.9582 0.1561 -0.2396
vn -0.9595 -0.1478 -0.2398
vn -0.9595 -0.1478 -0.2397
vn -0.9582 0.1561 -0.2398
vn -0.9450 -0.2225 -0.2396
vn -0.8103 -0.5363 -0.2361
vn -0.9450 -0.2225 -0.2398
vn -0.5434 -0.8056 -0.2361
vn -0.2306 -0.9430 -0.2398
vn -0.2307 -0.9431 -0.2396
usemtl Default_OBJ.001
s 1
f 1/1/1 2/2/2 3/3/1
f 2/2/2 1/1/1 4/4/3
f 5/5/4 6/6/4 7/7/5
f 6/6/4 5/5/4 8/8/4
f 7/7/5 9/9/4 5/5/4
f 9/9/4 7/7/5 10/10/5
f 10/10/5 11/11/4 9/9/4
f 11/11/4 10/10/5 12/12/4
f 12/12/4 13/13/4 11/11/4
f 13/13/4 12/12/4 14/14/6
f 17/15/3 18/16/7 19/17/3
f 18/16/7 17/15/3 20/18/8
f 21/19/4 22/20/4 23/21/5
f 22/20/4 21/19/4 24/22/4
f 24/22/4 25/23/9 22/20/4
f 25/23/9 24/22/4 26/24/4
f 26/24/4 27/25/10 25/23/9
f 27/25/10 26/24/4 28/26/4
f 28/26/4 29/27/4 27/25/10
f 29/27/4 28/26/4 30/28/4
f 33/29/8 34/30/11 35/31/8
f 34/30/11 33/29/8 36/32/11
f 37/33/11 38/34/12 39/35/11
f 38/34/12 37/33/11 40/36/12
f 41/37/13 42/38/14 43/39/12
f 42/38/14 41/37/13 44/40/14
f 45/41/14 46/42/15 47/43/14
f 46/42/15 45/41/14 48/44/15
f 49/45/16 50/46/17 51/47/18
f 50/46/17 49/45/16 52/48/4
f 52/48/4 53/49/4 50/46/17
f 53/49/4 52/48/4 54/50/4
f 54/50/4 55/51/5 53/49/4
f 55/51/5 54/50/4 56/52/4
f 56/53/4 57/54/4 55/55/5
f 57/54/4 56/53/4 58/56/4
f 61/57/15 62/58/19 63/59/15
f 62/58/19 61/57/15 64/60/19
f 65/61/19 66/62/20 67/63/19
f 66/62/20 65/61/19 68/64/21
f 69/65/21 70/66/22 71/67/21
f 70/66/22 69/65/21 72/68/22
f 73/69/22 74/70/23 75/71/22
f 74/70/23 73/69/22 76/72/23
f 77/73/4 78/74/4 79/75/4
f 78/74/4 77/73/4 80/76/4
f 80/76/4 81/77/24 78/74/4
f 81/77/24 80/76/4 82/78/25
f 82/78/25 83/79/26 81/77/24
f 83/79/26 82/78/25 84/80/4
f 84/80/4 85/81/4 83/79/26
f 85/81/4 84/80/4 86/82/4
f 89/83/23 90/84/27 91/85/23
f 90/84/27 89/83/23 92/86/28
f 93/87/28 94/88/29 95/89/28
f 94/88/29 93/87/28 96/90/29
f 97/91/30 98/92/31 99/93/29
f 98/92/31 97/91/30 100/94/31
f 101/95/31 102/96/32 103/97/31
f 102/96/32 101/95/31 104/98/32
f 105/99/32 106/100/33 107/101/32
f 106/100/33 105/99/32 108/102/33
f 109/103/33 110/104/34 111/105/33
f 110/104/34 109/103/33 112/106/1
f 113/107/35 114/108/36 115/109/37
f 114/108/36 113/107/35 116/110/38
f 117/111/39 118/112/40 119/113/40
f 118/112/40 117/111/39 120/114/41
f 121/115/42 119/113/40 118/112/40
f 119/113/40 121/115/42 122/116/42
f 123/117/43 122/116/42 121/115/42
f 122/116/42 123/117/43 124/118/44
f 125/119/45 126/120/46 127/121/47
f 126/120/46 125/119/45 128/122/48
f 129/123/49 130/124/50 131/125/50
f 130/124/50 129/123/49 132/126/51
f 133/127/52 131/125/50 130/124/50
f 131/125/50 133/127/52 134/128/52
f 135/129/53 134/128/52 133/127/52
f 134/128/52 135/129/53 136/130/54
f 137/131/55 138/132/56 139/133/57
f 138/132/56 137/131/55 140/134/58
f 141/135/59 142/136/60 143/137/60
f 142/136/60 141/135/59 144/138/61
f 145/139/62 143/137/60 142/136/60
f 143/137/60 145/139/62 146/140/62
f 147/141/63 146/140/62 145/139/62
f 146/140/62 147/141/63 148/142/64
f 149/143/65 150/144/66 151/145/67
f 150/144/66 149/143/65 152/146/68
f 153/147/69 154/148/70 155/149/70
f 154/148/70 153/147/69 156/150/71
f 157/151/72 155/149/70 154/148/70
f 155/149/70 157/151/72 158/152/72
f 159/153/73 158/152/72 157/151/72
f 158/152/72 159/153/73 160/154/74
f 161/155/75 162/156/76 163/157/77
f 162/156/76 161/155/75 164/158/78
f 165/159/79 166/160/80 167/161/80
f 166/160/80 165/159/79 168/162/81
f 169/163/82 167/161/80 166/160/80
f 167/161/80 169/163/82 170/164/82
f 171/165/83 170/164/82 169/163/82
f 170/164/82 171/165/83 172/166/84
f 173/167/85 174/168/86 175/169/87
f 174/168/86 173/167/85 176/170/88
f 177/171/89 178/172/90 179/173/90
f 178/172/90 177/171/89 180/174/91
f 181/175/92 179/173/90 178/172/90
f 179/173/90 181/175/92 182/176/92
f 183/177/93 182/176/92 181/175/92
f 182/176/92 183/177/93 184/178/94
f 185/179/95 186/180/96 187/181/97
f 186/180/96 185/179/95 188/182/98
f 189/183/99 190/184/100 191/185/100
f 190/184/100 189/183/99 192/186/101
f 193/187/102 191/185/100 190/184/100
f 191/185/100 193/187/102 194/188/102
f 195/189/103 194/188/102 193/187/102
f 194/188/102 195/189/103 196/190/104
f 197/191/105 198/192/106 199/193/107
f 198/192/106 197/191/105 200/194/108
f 201/195/109 202/196/110 203/197/110
f 202/196/110 201/195/109 204/198/111
f 205/199/112 203/197/110 202/196/110
f 203/197/110 205/199/112 206/200/112
f 207/201/113 206/200/112 205/199/112
f 206/200/112 207/201/113 208/202/114
l 15 16
l 31 32
l 59 60
l 87 88
