# Blender v2.93.1 OBJ File: 'GT_Wind_Turbine.blend'
# www.blender.org
v 0.143024 0.956629 0.163411
v -0.035476 0.956629 0.341911
v 0.143024 0.956629 0.341911
v 0.857024 0.956629 0.341911
v 1.035521 0.956629 0.163411
v 0.857024 0.956629 0.163411
v 0.812399 0.956629 0.341911
v 0.633899 0.956629 0.163411
v 0.633899 0.956629 0.341911
v 0.366149 0.956629 0.163411
v 0.187649 0.956629 0.341911
v 0.366149 0.956629 0.341911
v 0.410774 0.956629 0.163411
v 0.589274 0.956629 0.341911
v 0.589274 0.956629 0.163411
v -0.035476 0.956629 0.163411
v 1.035521 0.956629 0.341911
v 0.812399 0.956629 0.163411
v 0.187649 0.956629 0.163411
v 0.410774 0.956629 0.341911
vt 0.111106 0.517913
vt 0.009107 0.619913
vt 0.009107 0.517913
vt 0.009107 0.109914
vt 0.111106 0.007916
vt 0.111106 0.109914
vt 0.009107 0.135414
vt 0.111106 0.237414
vt 0.009107 0.237414
vt 0.111106 0.390413
vt 0.009107 0.492413
vt 0.009107 0.390413
vt 0.111106 0.364913
vt 0.009107 0.262914
vt 0.111106 0.262914
vt 0.111106 0.619913
vt 0.009107 0.007916
vt 0.111106 0.135414
vt 0.111106 0.492413
vt 0.009107 0.364913
vn 0.0000 1.0000 0.0000
s 1
f 1/1/1 2/2/1 3/3/1
f 4/4/1 5/5/1 6/6/1
f 7/7/1 8/8/1 9/9/1
f 10/10/1 11/11/1 12/12/1
f 13/13/1 14/14/1 15/15/1
f 1/1/1 16/16/1 2/2/1
f 4/4/1 17/17/1 5/5/1
f 7/7/1 18/18/1 8/8/1
f 10/10/1 19/19/1 11/11/1
f 13/13/1 20/20/1 14/14/1
