# Blender v2.82 (sub 7) OBJ File: 'DLTrioxTankerWheeler.blend'
# www.blender.org
mtllib DLTrioxBaseCollider.mtl
o Triox_Base
v 0.500000 1.325000 -0.500000
v 0.500000 2.175000 1.500000
v -0.500000 1.050000 0.014822
v -0.450000 1.000000 0.000000
v -0.500000 1.050000 0.985178
v -0.450000 1.000000 1.000000
v -0.500000 1.352134 -0.450000
v -0.450000 1.325000 -0.500000
v -0.500000 2.152778 -0.450000
v -0.450000 2.175000 -0.500000
v -0.450000 2.500000 1.140000
v -0.500000 2.450000 1.120769
v -0.450000 2.500000 -0.140000
v -0.500000 2.450000 -0.120769
v -0.450000 1.325000 1.500000
v -0.500000 1.352134 1.450000
v -0.500000 2.152778 1.450000
v -0.450000 2.175000 1.500000
v 1.320822 1.500000 1.041684
v 0.925354 1.496064 1.500000
v 0.948369 1.444661 1.458360
v 0.862680 1.042266 1.042266
v 0.791094 1.000000 1.000000
v 0.792727 1.009493 -0.014605
v 0.907865 1.085996 -0.040188
v 1.459139 1.959139 1.450000
v 1.452888 2.014788 1.492551
v 0.569295 1.315068 1.461804
v 0.440117 1.325000 1.500000
v 1.321998 1.500000 -0.040003
v 0.937302 1.478056 -0.500000
v 1.032192 1.511037 -0.458742
v 1.460546 1.960546 -0.450000
v 1.460666 2.010883 -0.495447
v 0.411075 2.624660 -0.144913
v 0.403054 2.611425 -0.169069
v 0.411075 2.624660 1.144913
v 0.403054 2.611425 1.169069
v 1.579100 2.272100 0.730000
v 1.584493 2.258438 0.730000
v 1.584493 2.258438 0.270000
v 1.579100 2.272100 0.270000
vt 0.464441 0.307023
vt 0.000000 0.000000
vt 0.000000 0.000000
vt 0.467936 0.305862
vt 0.655706 0.903737
vt 0.000000 0.000000
vt 0.000000 0.000000
vt 0.389165 0.648237
vt 0.481577 0.752044
vt 0.694186 0.903737
vt 0.000000 0.000000
vt 0.691473 0.903286
vt 0.277775 0.307023
vt 0.274280 0.305862
vt 0.000000 0.000000
vt 0.000000 0.000000
vt 0.373372 0.519843
vt 0.117983 0.519843
vt 0.145917 0.519843
vt 0.154749 0.770159
vt 0.145223 0.786295
vt 0.050659 0.720166
vt 0.046155 0.697441
vt 0.046155 0.519843
vt 0.000000 0.000000
vt 0.051436 0.805609
vt 0.137061 0.800421
vt 0.098503 0.691050
vt 0.096265 0.720166
vt 0.125475 0.805609
vt 0.130259 0.794257
vt 0.233756 0.899512
vt 0.265722 0.709390
vt 0.265722 0.519843
vt 0.096128 0.519843
vt 0.096128 0.697441
vt 0.046155 0.519843
vt 0.046155 0.709390
vt 0.369535 0.509867
vt 0.121820 0.509867
vt 0.435224 0.630042
vt 0.445200 0.624628
vt 0.345439 0.559783
vt 0.342482 0.569759
vt 0.101542 0.509867
vt 0.261288 0.509867
vt 0.265722 0.519843
vt 0.096128 0.519843
vt 0.056131 0.789788
vt 0.046155 0.794222
vt 0.117983 0.859067
vt 0.121820 0.849090
vt 0.145917 0.559783
vt 0.046155 0.624628
vt 0.056131 0.630041
vt 0.148874 0.569759
vt 0.435224 0.789788
vt 0.369535 0.849090
vt 0.373372 0.859067
vt 0.445200 0.794222
vt 0.051436 0.635764
vt 0.145223 0.545065
vt 0.145354 0.648237
vt 0.053320 0.751727
vt 0.148874 0.509867
vt 0.342482 0.509867
vt 0.345439 0.519843
vt 0.383975 0.864383
vt 0.144183 0.658830
vt 0.128360 0.613308
vt 0.348353 0.767795
vt 0.145917 0.767469
vt 0.389206 0.554921
vt 0.694186 0.855564
vt 0.694186 0.856707
vt 0.655706 0.856707
vt 0.655706 0.855564
vt 0.145354 0.889560
vt 0.000000 0.000000
vt 0.691473 0.903286
vt 0.445200 0.709390
vt 0.445200 0.519843
vt 0.034775 0.786295
vt 0.025249 0.770159
vt 0.383440 0.770528
vt 0.389206 0.796480
vt 0.359151 0.863651
vt 0.013151 0.735842
vt 0.014940 0.964670
vt 0.492847 0.803115
vt 0.492847 0.704547
vt 0.483548 0.824503
vt 0.445200 0.519843
vt 0.385848 0.860652
vt 0.690330 0.903737
vt 0.000000 0.000000
vt 0.232977 0.901064
vt 0.126666 0.796641
vt 0.096128 0.709390
vn 0.3796 0.8533 -0.3574
vn 0.9466 -0.3224 0.0006
vn 0.3798 0.8529 0.3581
vn -0.1433 0.9897 -0.0000
vn 0.0098 -0.8352 0.5498
vn 0.1113 -0.7051 0.7004
vn 0.0383 -0.8030 0.5948
vn -0.0548 0.6724 0.7382
vn -0.0571 0.7701 0.6354
vn -0.1310 0.8871 0.4426
vn 0.2524 -0.7210 0.6453
vn 0.3465 -0.5130 0.7854
vn 0.3277 -0.5196 0.7891
vn 0.0020 0.0012 1.0000
vn -0.0532 0.6673 0.7429
vn 0.0403 0.6403 0.7671
vn -0.7310 0.6368 -0.2449
vn -0.7310 0.6368 0.2449
vn -0.7071 -0.5929 -0.3854
vn -0.7218 -0.6635 -0.1967
vn -0.7071 0.0000 -0.7071
vn -0.7071 0.5249 0.4738
vn -0.7218 -0.6635 0.1967
vn -0.7071 -0.5929 0.3854
vn -0.7071 0.5249 -0.4738
vn 0.6249 -0.6184 0.4765
vn 0.6252 -0.6043 -0.4940
vn 0.5473 -0.5813 -0.6021
vn 0.4059 -0.6725 -0.6189
vn 0.0038 -1.0000 -0.0047
vn 0.6358 -0.6144 -0.4671
vn 0.9840 0.1571 -0.0842
vn 0.9789 0.1917 -0.0709
vn 0.9703 0.2260 0.0867
vn 0.9747 0.1987 0.1026
vn 0.7069 -0.7073 0.0009
vn 0.6371 -0.7708 -0.0036
vn 0.6343 -0.7730 -0.0038
vn 0.9881 -0.0261 -0.1514
vn -0.0000 -0.8384 -0.5450
vn 0.5373 -0.8434 -0.0094
vn -1.0000 0.0000 0.0000
vn 0.0018 0.6056 -0.7958
vn -0.1310 0.8871 -0.4426
vn -0.0559 0.7451 -0.6646
vn 0.4712 -0.4620 0.7513
vn 0.1097 0.6159 0.7801
vn -0.7071 0.0000 0.7071
vn 0.2912 -0.7289 -0.6196
vn 0.2750 -0.7314 -0.6241
vn 0.0043 0.5988 -0.8009
vn 0.9813 0.0509 0.1856
vn 0.2890 0.9573 -0.0000
vn 0.0013 0.0026 -1.0000
usemtl Color_M03
s off
f 35/1/1 42/2/1 34/3/1 36/4/1
f 40/5/2 26/6/2 19/7/2 30/8/2 33/9/2 41/10/2
f 27/11/3 39/12/3 37/13/3 38/14/3
f 37/15/4 35/16/4 13/17/4 11/18/4
s 1
f 6/19/5 23/20/5 22/21/5 28/22/6 29/23/7 15/24/5
f 11/18/8 38/25/9 37/13/10
f 21/26/11 28/22/11 22/21/11
f 20/27/12 29/28/7 28/29/6 21/30/13
f 20/31/14 27/32/14 2/33/14 18/34/14 15/35/14 29/36/14
f 18/37/15 2/38/16 38/25/9 11/18/8
f 13/17/17 14/39/17 12/40/18 11/18/18
f 7/41/19 8/42/19 4/43/20 3/44/20
f 7/45/21 9/46/21 10/47/21 8/48/21
f 17/49/22 18/50/22 11/51/18 12/52/18
f 6/53/23 15/54/24 16/55/24 5/56/23
f 9/57/25 14/58/17 13/59/17 10/60/25
f 21/61/26 22/62/26 19/63/26 26/64/26
f 6/19/23 5/65/23 3/66/20 4/67/20
f 34/68/27 32/69/28 31/70/29
f 4/67/30 24/71/30 23/72/30 6/19/30
f 33/9/31 30/8/31 25/73/31 32/69/28 34/68/27
f 41/74/32 42/75/33 39/76/34 40/77/35
f 19/78/36 22/21/37 25/73/38 30/8/36
f 41/79/32 33/9/39 34/3/39 42/80/33
f 1/81/40 24/71/40 4/67/40 8/82/40
f 22/83/37 23/84/41 24/85/41 25/86/38
f 17/49/42 12/52/42 14/58/42 9/57/42 7/41/42 3/44/42 5/56/42 16/55/42
f 13/17/43 35/1/44 36/4/45
f 27/32/46 20/31/12 21/61/13 26/87/46
f 38/14/9 2/88/16 27/89/47
f 18/50/48 17/49/48 16/55/48 15/54/48
f 31/90/29 25/86/49 24/85/50 1/91/50
f 31/90/29 32/92/28 25/86/49
f 10/93/51 13/17/43 36/4/45 34/3/51
f 27/94/52 26/87/52 40/95/35 39/12/34
f 39/96/53 42/75/53 35/16/53 37/15/53
f 10/47/54 34/97/54 31/98/54 1/99/54 8/48/54
