# Blender v2.90.0 OBJ File: 'GT_Thermocharge_Mortar.blend'
# www.blender.org
v 0.038725 0.089371 0.093491
v 0.038725 -0.089371 0.093491
v -0.000000 0.089371 0.101193
v -0.000000 -0.089371 0.101193
v -0.117154 -0.042417 0.048527
v -0.111251 -0.058905 0.046082
v -0.117154 0.042417 0.048527
v -0.111251 0.058905 0.046082
v -0.120417 0.058904 0.000000
v -0.120417 -0.058904 0.000000
v -0.038725 0.089371 -0.093491
v -0.038725 -0.089371 -0.093491
v 0.126807 -0.042416 0.000000
v 0.120417 -0.058905 0.000000
v 0.117154 -0.042416 -0.048527
v 0.126807 0.042416 0.000000
v 0.120417 0.058905 0.000000
v 0.111251 -0.058905 -0.046082
v 0.117154 0.042416 -0.048527
v 0.111251 0.058905 -0.046082
v -0.000000 -0.073920 -0.112061
v -0.000000 -0.089371 -0.101193
v -0.000000 0.073920 -0.112061
v -0.000000 0.089371 -0.101193
v 0.042884 -0.073920 0.103531
v 0.042884 0.073920 0.103531
v -0.000000 0.073920 0.112061
v -0.000000 -0.073920 0.112061
v -0.126807 -0.042416 0.000000
v -0.126807 0.042416 0.000000
v -0.042884 -0.073920 -0.103531
v -0.042884 0.073920 -0.103531
v 0.107699 0.060609 0.040140
v 0.099227 0.066250 0.049001
v 0.101954 0.062283 0.051871
v 0.110573 0.054048 0.047098
v 0.103172 0.063696 0.044989
v 0.107699 -0.060609 0.040140
v 0.099227 -0.066250 0.049001
v 0.101954 -0.062283 0.051871
v 0.110573 -0.054048 0.047098
v 0.103172 -0.063696 0.044989
v 0.075382 0.085831 0.070284
v 0.063588 0.089743 0.077473
v 0.071844 0.084572 0.073247
v 0.069647 0.088636 0.073689
v 0.075382 -0.085831 0.070284
v 0.063588 -0.089743 0.077473
v 0.071844 -0.084572 0.073247
v 0.069647 -0.088636 0.073689
v -0.095678 -0.042682 0.081845
v -0.085403 -0.044896 0.090184
v -0.088475 -0.046936 0.087547
v -0.090949 -0.043944 0.086956
v -0.072922 -0.066250 0.083243
v -0.084140 -0.060609 0.078299
v -0.084133 -0.054048 0.085827
v -0.074343 -0.062283 0.086939
v -0.078102 -0.063696 0.081046
v -0.095678 0.042682 0.081845
v -0.085403 0.044896 0.090184
v -0.088475 0.046936 0.087547
v -0.090949 0.043944 0.086956
v -0.072922 0.066250 0.083243
v -0.084140 0.060609 0.078299
v -0.084133 0.054048 0.085827
v -0.074343 0.062283 0.086939
v -0.078102 0.063696 0.081046
v -0.029100 -0.089743 0.095909
v -0.042747 -0.085831 0.093782
v -0.038345 -0.084572 0.095165
v -0.036146 -0.088636 0.094733
v -0.029100 0.089743 0.095909
v -0.042747 0.085831 0.093782
v -0.038345 0.084572 0.095165
v -0.036146 0.088636 0.094733
v -0.107699 0.060609 -0.040140
v -0.099227 0.066250 -0.049001
v -0.101954 0.062283 -0.051871
v -0.110573 0.054048 -0.047098
v -0.103172 0.063696 -0.044989
v -0.107699 -0.060609 -0.040140
v -0.099227 -0.066250 -0.049001
v -0.101954 -0.062283 -0.051871
v -0.110573 -0.054048 -0.047098
v -0.103172 -0.063696 -0.044989
v -0.075382 0.085831 -0.070284
v -0.063588 0.089743 -0.077473
v -0.071844 0.084572 -0.073247
v -0.069647 0.088636 -0.073689
v -0.075382 -0.085831 -0.070284
v -0.063588 -0.089743 -0.077473
v -0.071844 -0.084572 -0.073247
v -0.069647 -0.088636 -0.073689
v 0.095678 -0.042682 -0.081845
v 0.085403 -0.044896 -0.090184
v 0.088475 -0.046936 -0.087547
v 0.090949 -0.043944 -0.086956
v 0.072922 -0.066250 -0.083244
v 0.084140 -0.060609 -0.078299
v 0.084133 -0.054048 -0.085827
v 0.074343 -0.062283 -0.086939
v 0.078102 -0.063696 -0.081046
v 0.095678 0.042682 -0.081845
v 0.085403 0.044896 -0.090184
v 0.088475 0.046936 -0.087547
v 0.090949 0.043944 -0.086956
v 0.072922 0.066250 -0.083244
v 0.084140 0.060609 -0.078299
v 0.084133 0.054048 -0.085827
v 0.074343 0.062283 -0.086939
v 0.078102 0.063696 -0.081046
v 0.029100 -0.089743 -0.095909
v 0.042747 -0.085831 -0.093782
v 0.038345 -0.084572 -0.095165
v 0.036146 -0.088636 -0.094733
v 0.029100 0.089743 -0.095909
v 0.042747 0.085831 -0.093782
v 0.038345 0.084572 -0.095165
v 0.036146 0.088636 -0.094733
v 0.075087 -0.074436 0.081604
v 0.085354 -0.068698 0.073941
v 0.085422 -0.070496 0.072803
v 0.075087 0.074436 0.081604
v 0.085354 0.068698 0.073941
v 0.085422 0.070496 0.072803
v 0.076858 0.077865 0.075708
v 0.080486 0.071366 0.077731
v 0.076858 -0.077865 0.075708
v 0.080486 -0.071366 0.077731
v 0.113414 0.044896 0.050637
v 0.119716 0.042682 0.039001
v 0.115243 0.046936 0.047025
v 0.117302 0.043944 0.045533
v 0.113414 -0.044896 0.050637
v 0.119716 -0.042682 0.039001
v 0.115243 -0.046936 0.047025
v 0.117302 -0.043944 0.045533
v -0.050560 0.068698 0.100976
v -0.038143 0.074437 0.104127
v -0.042035 0.077865 0.099357
v -0.051059 0.070496 0.099951
v -0.044613 0.071366 0.102615
v -0.050560 -0.068698 0.100976
v -0.038143 -0.074437 0.104127
v -0.042035 -0.077865 0.099357
v -0.051059 -0.070496 0.099951
v -0.044613 -0.071366 0.102615
v -0.113414 -0.044896 -0.050637
v -0.119716 -0.042682 -0.039001
v -0.115243 -0.046936 -0.047025
v -0.117302 -0.043944 -0.045533
v -0.113414 0.044896 -0.050637
v -0.119716 0.042682 -0.039001
v -0.115243 0.046936 -0.047025
v -0.117302 0.043944 -0.045533
v -0.075087 -0.074436 -0.081604
v -0.085354 -0.068698 -0.073941
v -0.085422 -0.070496 -0.072803
v -0.076858 -0.077865 -0.075708
v -0.080486 -0.071366 -0.077731
v -0.075087 0.074436 -0.081604
v -0.085354 0.068698 -0.073941
v -0.085422 0.070496 -0.072803
v -0.076858 0.077865 -0.075708
v -0.080486 0.071366 -0.077731
v 0.050560 0.068698 -0.100976
v 0.038143 0.074436 -0.104127
v 0.042035 0.077865 -0.099357
v 0.051059 0.070496 -0.099951
v 0.044613 0.071366 -0.102615
v 0.050560 -0.068698 -0.100976
v 0.038143 -0.074436 -0.104127
v 0.042035 -0.077865 -0.099357
v 0.051059 -0.070496 -0.099951
v 0.044613 -0.071366 -0.102615
vt 0.258643 0.357561
vt 0.258678 0.357495
vt 0.258636 0.357480
vt 0.259395 0.357750
vt 0.259184 0.357740
vt 0.259184 0.357498
vt 0.258902 0.357498
vt 0.260570 0.357133
vt 0.260582 0.357188
vt 0.260605 0.357169
vt 0.258055 0.357122
vt 0.257773 0.357364
vt 0.257773 0.357122
vt 0.259459 0.357714
vt 0.259472 0.357652
vt 0.259410 0.357731
vt 0.260569 0.357361
vt 0.260602 0.357280
vt 0.260539 0.357127
vt 0.258317 0.357120
vt 0.258368 0.357188
vt 0.258356 0.357133
vt 0.260883 0.357714
vt 0.260870 0.357652
vt 0.260838 0.357681
vt 0.259729 0.357177
vt 0.259517 0.357464
vt 0.259692 0.357383
vt 0.259535 0.357471
vt 0.259491 0.357480
vt 0.259523 0.357484
vt 0.259491 0.357699
vt 0.259471 0.357577
vt 0.258357 0.357177
vt 0.258334 0.357197
vt 0.258345 0.357280
vt 0.259774 0.357361
vt 0.260030 0.357364
vt 0.259804 0.357127
vt 0.256927 0.357498
vt 0.256645 0.357740
vt 0.256645 0.357498
vt 0.260312 0.357122
vt 0.260030 0.357364
vt 0.260030 0.357122
vt 0.259436 0.357510
vt 0.257321 0.357471
vt 0.257315 0.357450
vt 0.257277 0.357480
vt 0.260883 0.357669
vt 0.260871 0.357577
vt 0.260906 0.357510
vt 0.258902 0.357498
vt 0.259184 0.357740
vt 0.259184 0.357498
vt 0.259504 0.357681
vt 0.257138 0.357750
vt 0.257202 0.357669
vt 0.257179 0.357510
vt 0.257472 0.357177
vt 0.257435 0.357383
vt 0.258562 0.357484
vt 0.258614 0.357577
vt 0.258594 0.357699
vt 0.259701 0.357407
vt 0.259741 0.357280
vt 0.259752 0.357197
vt 0.259804 0.357127
vt 0.258312 0.357361
vt 0.258055 0.357364
vt 0.258282 0.357127
vt 0.258357 0.357177
vt 0.258568 0.357464
vt 0.258393 0.357383
vt 0.257138 0.357750
vt 0.256927 0.357740
vt 0.257266 0.357484
vt 0.257234 0.357699
vt 0.257214 0.357577
vt 0.259743 0.357360
vt 0.260819 0.357484
vt 0.260851 0.357699
vt 0.260851 0.357699
vt 0.260819 0.357484
vt 0.260642 0.357407
vt 0.257484 0.357280
vt 0.257495 0.357197
vt 0.257547 0.357127
vt 0.256927 0.357498
vt 0.256645 0.357740
vt 0.256927 0.357740
vt 0.260569 0.357361
vt 0.260312 0.357364
vt 0.260539 0.357127
vt 0.260614 0.357177
vt 0.260825 0.357464
vt 0.260650 0.357383
vt 0.257487 0.357371
vt 0.257495 0.357395
vt 0.257529 0.357360
vt 0.259772 0.357133
vt 0.259760 0.357188
vt 0.257558 0.357133
vt 0.257545 0.357188
vt 0.257596 0.357120
vt 0.257435 0.357383
vt 0.257472 0.357177
vt 0.258627 0.357669
vt 0.258649 0.357510
vt 0.259743 0.357360
vt 0.259701 0.357371
vt 0.259459 0.357714
vt 0.259472 0.357652
vt 0.258356 0.357133
vt 0.258368 0.357188
vt 0.258385 0.357360
vt 0.258379 0.357270
vt 0.258718 0.357731
vt 0.258669 0.357714
vt 0.258656 0.357652
vt 0.257529 0.357360
vt 0.257487 0.357371
vt 0.257290 0.357681
vt 0.257245 0.357714
vt 0.257258 0.357652
vt 0.257196 0.357731
vt 0.260570 0.357133
vt 0.260582 0.357188
vt 0.260599 0.357360
vt 0.260593 0.357270
vt 0.260641 0.357371
vt 0.260932 0.357731
vt 0.260883 0.357714
vt 0.260838 0.357681
vt 0.260932 0.357731
vt 0.259491 0.357480
vt 0.259737 0.357169
vt 0.259772 0.357133
vt 0.258718 0.357731
vt 0.258656 0.357652
vt 0.258669 0.357714
vt 0.258636 0.357480
vt 0.257558 0.357133
vt 0.257596 0.357120
vt 0.258379 0.357270
vt 0.258347 0.357350
vt 0.258385 0.357360
vt 0.257277 0.357480
vt 0.257270 0.357561
vt 0.260858 0.357561
vt 0.260892 0.357495
vt 0.260851 0.357480
vt 0.260851 0.357480
vt 0.257245 0.357714
vt 0.257258 0.357652
vt 0.257196 0.357731
vt 0.258055 0.357122
vt 0.257773 0.357364
vt 0.258055 0.357364
vt 0.258627 0.357669
vt 0.258649 0.357510
vt 0.258312 0.357361
vt 0.260312 0.357122
vt 0.260312 0.357364
vt 0.260561 0.357350
vt 0.260599 0.357360
vt 0.258594 0.357699
vt 0.258562 0.357484
vt 0.258385 0.357407
vt 0.257234 0.357699
vt 0.257444 0.357407
vt 0.257290 0.357681
vt 0.257517 0.357361
vt 0.257547 0.357127
vt 0.258598 0.357450
vt 0.259436 0.357510
vt 0.258902 0.357740
vt 0.259741 0.357280
vt 0.259484 0.357561
vt 0.259701 0.357407
vt 0.258393 0.357383
vt 0.260650 0.357383
vt 0.260825 0.357464
vt 0.260030 0.357122
vt 0.257270 0.357561
vt 0.261159 0.357498
vt 0.261159 0.357740
vt 0.258902 0.357740
vt 0.257214 0.357577
vt 0.257484 0.357280
vt 0.258385 0.357407
vt 0.259774 0.357361
vt 0.258334 0.357197
vt 0.258345 0.357280
vt 0.257179 0.357510
vt 0.257202 0.357669
vt 0.257444 0.357407
vt 0.259781 0.357350
vt 0.260642 0.357407
vt 0.257517 0.357361
vt 0.256645 0.357498
vt 0.257567 0.357350
vt 0.257260 0.357464
vt 0.259781 0.357350
vt 0.258347 0.357350
vt 0.257567 0.357350
vt 0.257495 0.357395
vt 0.260561 0.357350
vt 0.259529 0.357450
vt 0.258678 0.357495
vt 0.257773 0.357122
vt 0.261159 0.357740
vt 0.261159 0.357498
vt 0.260641 0.357371
vn -0.3435 -0.5607 0.7534
vn -0.3149 -0.5676 0.7607
vn -0.3986 -0.5170 0.7575
vn 0.5179 0.5285 0.6726
vn 0.3033 0.5753 0.7596
vn 0.3079 0.5704 0.7615
vn 0.0069 0.5704 0.8213
vn 0.6656 -0.4297 -0.6102
vn 0.5803 -0.4419 -0.6841
vn 0.4705 -0.4067 -0.7831
vn -0.8648 0.3613 0.3485
vn -0.9206 0.3905 -0.0067
vn -0.9324 0.3613 0.0089
vn 0.5530 -0.2114 0.8060
vn 0.5628 -0.4659 0.6828
vn 0.5179 -0.5285 0.6726
vn 0.6305 -0.5731 -0.5235
vn 0.5747 -0.5209 -0.6312
vn 0.6967 -0.5038 -0.5106
vn -0.6967 -0.5038 0.5106
vn -0.5803 -0.4419 0.6841
vn -0.6656 -0.4298 0.6102
vn 0.2024 -0.2114 -0.9562
vn 0.2587 -0.4659 -0.8462
vn 0.3047 -0.4960 -0.8131
vn 0.7343 -0.4067 0.5434
vn 0.7478 -0.3550 0.5611
vn 0.7357 -0.5803 0.3493
vn 0.7436 -0.4492 0.4952
vn 0.6582 -0.5170 0.5473
vn 0.7436 0.4492 0.4952
vn 0.5926 0.4960 0.6346
vn 0.6057 0.5607 0.5646
vn -0.4705 -0.4067 0.7831
vn -0.5747 -0.5209 0.6312
vn 0.7828 -0.5731 0.2423
vn 0.9206 -0.3905 0.0067
vn 0.8391 -0.5038 0.2051
vn -0.3079 0.5704 -0.7614
vn -0.0105 0.5753 -0.8179
vn -0.0069 0.5704 -0.8213
vn 0.8648 0.3613 -0.3485
vn 0.9206 0.3905 0.0067
vn 0.9324 0.3613 -0.0089
vn 0.5820 -0.5676 0.5823
vn -0.7436 -0.4492 -0.4952
vn -0.7478 -0.3550 -0.5611
vn -0.6582 -0.5170 -0.5473
vn 0.2587 0.4659 -0.8462
vn 0.3435 0.5607 -0.7534
vn 0.3149 0.5676 -0.7607
vn 0.0069 -0.5704 0.8213
vn 0.3033 -0.5753 0.7596
vn 0.3079 -0.5704 0.7615
vn 0.5926 -0.4960 0.6346
vn -0.5179 -0.5285 -0.6726
vn -0.5628 -0.4659 -0.6828
vn -0.5820 -0.5676 -0.5823
vn -0.7343 -0.4067 -0.5434
vn -0.7357 -0.5803 -0.3493
vn -0.4975 0.4492 0.7421
vn -0.3435 0.5607 0.7534
vn -0.3047 0.4960 0.8131
vn 0.7026 -0.6537 0.2810
vn 0.7725 0.5209 0.3632
vn 0.7979 0.4419 0.4099
vn 0.8391 0.5038 0.2051
vn -0.6305 0.5731 0.5235
vn -0.8479 0.3905 0.3585
vn -0.6967 0.5038 0.5106
vn -0.4705 0.4067 0.7831
vn -0.4761 0.3550 0.8046
vn -0.5460 0.5803 0.6042
vn -0.5179 0.5285 -0.6726
vn -0.3033 0.5753 -0.7596
vn -0.7436 0.4492 -0.4952
vn -0.5926 0.4960 -0.6346
vn -0.6057 0.5607 -0.5646
vn 0.7248 -0.6351 0.2671
vn 0.4975 0.4492 -0.7421
vn 0.3047 0.4960 -0.8131
vn 0.4975 -0.4492 -0.7421
vn 0.5416 -0.6537 -0.5285
vn -0.7725 0.5209 -0.3632
vn -0.7979 0.4419 -0.4099
vn -0.8391 0.5038 -0.2051
vn -0.3079 -0.5704 -0.7614
vn -0.0105 -0.5753 -0.8179
vn -0.3033 -0.5753 -0.7596
vn 0.6305 0.5731 -0.5235
vn 0.8479 0.3905 -0.3585
vn 0.6967 0.5038 -0.5106
vn 0.4705 0.4067 -0.7831
vn 0.4761 0.3550 -0.8046
vn 0.5460 0.5803 -0.6042
vn -0.7026 -0.6537 -0.2810
vn -0.7248 -0.6351 -0.2671
vn 0.8484 -0.4298 0.3090
vn 0.7979 -0.4419 0.4099
vn -0.8484 -0.4297 -0.3090
vn -0.7979 -0.4419 -0.4099
vn -0.8391 -0.5038 -0.2051
vn -0.7357 0.5803 -0.3493
vn -0.7343 0.4067 -0.5434
vn -0.2587 0.4659 0.8462
vn -0.3149 0.5676 0.7607
vn 0.7248 0.6351 0.2671
vn 0.7357 0.5803 0.3493
vn 0.5530 0.2114 0.8060
vn 0.5628 0.4659 0.6828
vn -0.6656 0.4298 0.6102
vn -0.5803 0.4419 0.6841
vn -0.5674 0.6351 0.5241
vn -0.5747 0.5209 0.6312
vn -0.2211 0.5285 0.8196
vn -0.2024 0.2114 0.9562
vn -0.7248 0.6351 -0.2671
vn -0.5530 0.2114 -0.8060
vn -0.5628 0.4659 -0.6828
vn 0.6656 0.4297 -0.6102
vn 0.5803 0.4419 -0.6841
vn 0.5674 0.6351 -0.5241
vn 0.5747 0.5209 -0.6312
vn 0.2211 0.5285 -0.8196
vn 0.2024 0.2114 -0.9562
vn 0.2211 -0.5285 -0.8196
vn 0.6582 0.5170 0.5473
vn 0.7343 0.4067 0.5434
vn 0.8484 0.4298 0.3090
vn -0.2211 -0.5285 0.8196
vn -0.2587 -0.4659 0.8462
vn -0.2024 -0.2114 0.9562
vn -0.3986 0.5170 0.7575
vn -0.8484 0.4297 -0.3090
vn -0.6305 -0.5731 0.5235
vn -0.5674 -0.6351 0.5241
vn -0.6582 0.5170 -0.5473
vn 0.3435 -0.5607 -0.7534
vn 0.3149 -0.5676 -0.7607
vn 0.3986 -0.5170 -0.7575
vn 0.3986 0.5170 -0.7575
vn -0.5530 -0.2114 -0.8060
vn -0.8648 -0.3613 0.3485
vn -0.9206 -0.3905 -0.0067
vn -0.8479 -0.3905 0.3585
vn 0.8648 -0.3613 -0.3485
vn 0.8479 -0.3905 -0.3585
vn 0.5674 -0.6351 -0.5241
vn -0.3047 -0.4960 0.8131
vn -0.4975 -0.4492 0.7421
vn -0.5416 -0.6537 0.5285
vn -0.5926 -0.4960 -0.6346
vn -0.7828 -0.5731 -0.2423
vn -0.4761 -0.3550 0.8046
vn 0.5820 0.5676 0.5823
vn 0.0105 0.5753 0.8179
vn 0.7725 -0.5209 0.3632
vn 0.6057 -0.5607 0.5646
vn 0.7026 0.6537 0.2810
vn -0.5460 -0.5803 0.6042
vn 0.5460 -0.5803 -0.6042
vn 0.4761 -0.3550 -0.8046
vn 0.9324 -0.3613 -0.0089
vn -0.6057 -0.5607 -0.5646
vn 0.0105 -0.5753 0.8179
vn -0.7725 -0.5209 -0.3632
vn -0.5416 0.6537 0.5285
vn 0.7828 0.5731 0.2423
vn -0.5820 0.5676 -0.5823
vn -0.7026 0.6537 -0.2810
vn 0.5416 0.6537 -0.5285
vn -0.7828 0.5731 -0.2423
vn -0.0069 -0.5704 -0.8213
vn -0.7478 0.3550 -0.5611
vn 0.7478 0.3550 0.5611
vn -0.9324 -0.3613 0.0089
s 1
f 146/1/1 145/2/2 148/3/3
f 44/4/4 1/5/5 26/6/6
f 1/5/5 27/7/7 26/6/6
f 98/8/8 97/9/9 96/10/10
f 7/11/11 9/12/12 30/13/13
f 50/14/14 49/15/15 48/16/16
f 100/17/17 101/18/18 95/19/19
f 51/20/20 53/21/21 54/22/22
f 116/23/23 115/24/24 114/25/25
f 135/26/26 122/27/27 40/28/28
f 123/29/29 122/27/27 130/30/30
f 126/31/31 43/32/32 127/33/33
f 52/34/34 53/35/21 57/36/35
f 96/10/10 97/9/9 101/18/18
f 38/37/36 14/38/37 136/39/38
f 32/40/39 24/41/40 23/42/41
f 19/43/42 17/44/43 16/45/44
f 48/16/16 49/15/15 121/46/45
f 159/47/46 158/48/47 161/49/48
f 119/50/49 169/51/50 168/52/51
f 95/19/19 97/9/9 98/8/8
f 28/53/52 2/54/53 25/55/54
f 47/56/55 49/15/15 50/14/14
f 92/57/56 93/58/57 157/59/58
f 149/60/59 158/48/47 84/61/60
f 142/62/61 141/63/62 74/64/63
f 47/56/55 39/65/64 123/29/29
f 36/66/65 133/67/66 132/68/67
f 65/69/68 8/70/69 60/71/70
f 61/72/71 139/73/72 67/74/73
f 88/75/74 11/76/75 32/40/39
f 164/77/76 87/78/77 165/79/78
f 40/28/28 39/65/64 42/80/79
f 170/81/80 169/51/50 118/82/81
f 114/83/25 175/84/82 99/85/83
f 80/86/84 155/87/85 154/88/86
f 31/89/87 22/90/88 12/91/89
f 109/92/90 20/93/91 104/94/92
f 105/95/93 167/96/94 111/97/95
f 84/98/60 83/99/96 86/100/97
f 138/101/98 137/102/99 136/39/38
f 152/103/100 151/104/101 150/105/102
f 79/106/103 153/107/104 80/86/84
f 75/108/105 141/63/62 140/109/106
f 37/110/107 35/111/108 36/66/65
f 43/32/32 46/112/109 45/113/110
f 46/112/109 44/4/4 45/113/110
f 60/71/70 63/114/111 62/115/112
f 63/114/111 61/72/71 62/115/112
f 68/116/113 66/117/114 67/74/73
f 73/118/115 76/119/116 75/120/105
f 76/119/116 74/64/63 75/120/105
f 81/121/117 79/122/103 80/86/84
f 87/123/77 90/124/118 89/125/119
f 90/124/118 88/126/74 89/125/119
f 104/94/92 107/127/120 106/128/121
f 107/127/120 105/95/93 106/128/121
f 112/129/122 110/130/123 111/131/95
f 117/132/124 120/133/125 119/50/49
f 120/133/125 118/134/81 119/50/49
f 113/135/126 115/24/24 116/23/23
f 128/136/127 126/31/31 127/33/33
f 131/137/128 134/138/129 133/67/66
f 134/138/129 132/68/67 133/67/66
f 69/139/130 71/140/131 72/141/132
f 143/142/133 141/63/62 142/62/61
f 153/107/104 156/143/134 155/87/85
f 156/143/134 154/144/86 155/87/85
f 57/145/35 56/146/135 59/147/136
f 166/148/137 164/77/76 165/149/78
f 174/150/138 173/151/139 176/152/140
f 171/153/141 169/51/50 170/81/80
f 54/22/22 53/21/21 52/34/34
f 94/154/142 93/155/57 92/156/56
f 5/157/143 10/158/144 6/159/145
f 71/160/131 69/139/130 145/161/2
f 135/26/26 137/102/99 138/101/98
f 56/162/135 57/36/35 51/20/20
f 15/163/146 14/38/37 18/164/147
f 115/24/24 113/135/126 173/151/139
f 101/18/18 100/165/17 103/166/148
f 149/60/59 151/104/101 152/103/100
f 70/167/149 147/168/150 55/169/151
f 91/170/152 83/171/96 159/47/46
f 91/172/152 93/155/57 94/154/142
f 35/111/108 131/137/128 36/66/65
f 72/141/132 71/140/131 70/167/149
f 82/173/153 10/158/144 150/174/102
f 148/3/3 144/175/154 147/168/150
f 147/168/150 146/1/1 148/3/3
f 26/6/6 124/176/155 44/4/4
f 124/176/155 127/33/33 45/113/110
f 44/4/4 124/176/155 45/113/110
f 1/5/5 3/177/156 27/7/7
f 7/11/11 8/70/69 9/12/12
f 97/9/9 95/19/19 101/18/18
f 95/19/19 15/163/146 18/164/147
f 100/17/17 95/19/19 18/164/147
f 122/27/27 123/29/29 40/28/28
f 40/28/28 41/178/157 135/26/26
f 41/178/157 137/102/99 135/26/26
f 130/30/30 121/46/45 129/179/158
f 129/179/158 123/29/29 130/30/30
f 126/31/31 35/111/108 34/180/159
f 34/180/159 43/32/32 126/31/31
f 43/32/32 45/113/110 127/33/33
f 57/36/35 58/181/160 52/34/34
f 58/181/160 147/168/150 144/175/154
f 52/34/34 58/181/160 144/175/154
f 101/18/18 102/182/161 96/10/10
f 102/182/161 175/84/82 172/183/162
f 96/10/10 102/182/161 172/183/162
f 14/38/37 13/184/163 136/39/38
f 136/39/38 137/102/99 41/178/157
f 41/178/157 38/37/36 136/39/38
f 32/40/39 11/76/75 24/41/40
f 19/43/42 20/93/91 17/44/43
f 129/179/158 121/46/45 49/15/15
f 121/46/45 25/55/54 48/16/16
f 25/55/54 2/54/53 48/16/16
f 161/49/48 157/59/58 160/185/164
f 160/185/164 159/47/46 161/49/48
f 168/52/51 23/186/41 117/132/124
f 23/186/41 24/187/40 117/132/124
f 117/132/124 119/50/49 168/52/51
f 28/53/52 4/188/165 2/54/53
f 160/189/164 157/59/58 93/58/57
f 157/59/58 31/89/87 92/57/56
f 31/89/87 12/91/89 92/57/56
f 158/48/47 159/47/46 84/61/60
f 84/61/60 85/190/166 149/60/59
f 85/190/166 151/104/101 149/60/59
f 141/63/62 75/108/105 74/64/63
f 74/64/63 64/191/167 142/62/61
f 64/191/167 67/74/73 142/62/61
f 39/65/64 40/28/28 123/29/29
f 123/29/29 129/179/158 47/56/55
f 129/179/158 49/15/15 47/56/55
f 132/68/67 16/45/44 17/44/43
f 17/44/43 33/192/168 132/68/67
f 33/192/168 36/66/65 132/68/67
f 7/11/11 60/71/70 8/70/69
f 60/71/70 62/193/112 66/194/114
f 65/69/68 60/71/70 66/194/114
f 142/62/61 67/74/73 139/73/72
f 67/74/73 66/194/114 61/72/71
f 66/194/114 62/193/112 61/72/71
f 32/40/39 162/195/169 88/75/74
f 162/195/169 165/79/78 89/196/119
f 88/75/74 162/195/169 89/196/119
f 164/77/76 79/106/103 78/197/170
f 78/197/170 87/78/77 164/77/76
f 87/78/77 89/196/119 165/79/78
f 42/80/79 38/198/36 41/178/157
f 41/178/157 40/28/28 42/80/79
f 169/51/50 119/50/49 118/82/81
f 118/82/81 108/199/171 170/81/80
f 108/199/171 111/97/95 170/81/80
f 114/83/25 115/24/24 174/150/138
f 174/150/138 175/84/82 114/83/25
f 175/84/82 102/182/161 99/85/83
f 154/88/86 30/13/13 9/12/12
f 9/12/12 77/200/172 154/88/86
f 77/200/172 80/86/84 154/88/86
f 31/89/87 21/201/173 22/90/88
f 19/43/42 104/94/92 20/93/91
f 104/94/92 106/128/121 110/130/123
f 109/92/90 104/94/92 110/130/123
f 170/81/80 111/97/95 167/96/94
f 111/97/95 110/130/123 105/95/93
f 110/130/123 106/128/121 105/95/93
f 86/100/97 82/202/153 85/190/166
f 85/190/166 84/98/60 86/100/97
f 79/106/103 164/77/76 163/203/174
f 163/203/174 153/107/104 79/106/103
f 153/107/104 155/87/85 80/86/84
f 140/109/106 27/7/7 73/118/115
f 27/7/7 3/177/156 73/118/115
f 73/118/115 75/108/105 140/109/106
f 36/66/65 33/204/168 37/110/107
f 37/110/107 34/180/159 35/111/108
f 67/74/73 64/191/167 68/116/113
f 68/116/113 65/205/68 66/117/114
f 80/86/84 77/206/172 81/121/117
f 81/121/117 78/207/170 79/122/103
f 111/131/95 108/199/171 112/129/122
f 112/129/122 109/208/90 110/130/123
f 127/33/33 124/176/155 128/136/127
f 128/136/127 125/209/175 126/31/31
f 142/62/61 139/73/72 143/142/133
f 143/142/133 140/210/106 141/63/62
f 59/147/136 55/169/151 58/181/160
f 58/181/160 57/145/35 59/147/136
f 165/149/78 162/195/169 166/148/137
f 166/148/137 163/203/174 164/77/76
f 176/152/140 172/183/162 175/84/82
f 175/84/82 174/150/138 176/152/140
f 170/81/80 167/96/94 171/153/141
f 171/153/141 168/52/51 169/51/50
f 5/157/143 29/211/176 10/158/144
f 4/188/165 28/53/52 69/139/130
f 28/53/52 145/161/2 69/139/130
f 145/161/2 146/1/1 71/160/131
f 53/35/21 51/20/20 57/36/35
f 51/20/20 5/157/143 6/159/145
f 56/162/135 51/20/20 6/159/145
f 15/163/146 13/184/163 14/38/37
f 22/212/88 21/213/173 113/135/126
f 21/213/173 173/151/139 113/135/126
f 173/151/139 174/150/138 115/24/24
f 103/166/148 99/85/83 102/214/161
f 102/214/161 101/18/18 103/166/148
f 70/167/149 71/160/131 146/1/1
f 146/1/1 147/168/150 70/167/149
f 147/168/150 58/181/160 55/169/151
f 83/171/96 84/61/60 159/47/46
f 159/47/46 160/189/164 91/170/152
f 160/189/164 93/58/57 91/170/152
f 35/111/108 126/31/31 125/209/175
f 125/209/175 131/137/128 35/111/108
f 131/137/128 133/67/66 36/66/65
f 10/158/144 29/211/176 150/174/102
f 150/174/102 151/104/101 85/190/166
f 85/190/166 82/173/153 150/174/102
