# Blender v2.83.4 OBJ File: 'HE_Riot_Shield.blend'
# www.blender.org
mtllib HE_Riot_Shield_Plate.mtl
v 1.817746 -5.899849 19.115648
v 3.657276 -5.899831 19.001364
v 5.471616 -5.899799 18.821774
v 7.249573 -5.899752 18.576880
v 8.979950 -5.899685 18.266678
v 10.651554 -5.899592 17.891171
v 12.253184 -5.899467 17.450356
v 1.817746 5.899849 19.115648
v -1.817743 -5.899849 19.115648
v -3.657273 -5.899831 19.001364
v -5.471613 -5.899799 18.821774
v -7.249570 -5.899752 18.576880
v -8.979946 -5.899685 18.266678
v -10.651550 -5.899592 17.891171
v 3.657276 5.899831 19.001364
v 5.471616 5.899799 18.821774
v 7.249573 5.899752 18.576880
v 8.979950 5.899685 18.266678
v 10.651554 5.899592 17.891171
v 12.253184 5.899467 17.450356
v -1.817743 5.899849 19.115648
v -3.657273 5.899831 19.001364
v -5.471613 5.899799 18.821774
v -7.249570 5.899752 18.576880
v -8.979946 5.899685 18.266678
v -10.651550 5.899592 17.891171
v -12.253181 5.899467 17.450359
v -12.253181 -5.899467 17.450359
v 14.406537 3.737248 16.702383
v -14.406533 3.737248 16.702387
v 12.940026 5.737297 17.220417
v 13.860953 5.227396 16.910873
v 13.773649 5.321005 16.944235
v 14.230592 4.463995 16.769617
v -12.940022 5.737297 17.220421
v -13.860950 5.227396 16.910877
v -13.773645 5.321005 16.944239
v -14.230588 4.463995 16.769623
v 14.406537 -3.737248 16.702383
v 0.000002 5.899855 19.163996
v -14.406533 -3.737248 16.702387
v 12.940026 -5.737297 17.220417
v 13.860954 -5.227396 16.910873
v 13.773649 -5.321005 16.944235
v 14.230592 -4.463995 16.769619
v -12.940022 -5.737297 17.220421
v -13.860950 -5.227396 16.910877
v -13.773645 -5.321005 16.944239
v -14.230588 -4.463995 16.769621
v 0.000002 -5.899855 19.163996
v 1.817746 -5.899849 19.615648
v 3.657276 -5.899831 19.501364
v 5.471616 -5.899799 19.321774
v 7.249573 -5.899752 19.076880
v 8.979950 -5.899685 18.766678
v 10.651554 -5.899592 18.391171
v 12.253184 -5.899467 17.950356
v 0.000002 -5.899855 19.663996
v -1.817743 -5.899849 19.615648
v -3.657273 -5.899831 19.501364
v -5.471613 -5.899799 19.321774
v -7.249570 -5.899752 19.076880
v -8.979946 -5.899685 18.766678
v -10.651550 -5.899592 18.391171
v -12.253181 -5.899467 17.950359
v 1.817746 5.899849 19.615648
v 3.657276 5.899831 19.501364
v 5.471616 5.899799 19.321774
v 7.249573 5.899752 19.076880
v 8.979950 5.899685 18.766678
v 10.651554 5.899592 18.391171
v 12.253184 5.899467 17.950356
v 0.000002 5.899855 19.663996
v -1.817743 5.899849 19.615648
v -3.657273 5.899831 19.501364
v -5.471613 5.899799 19.321774
v -7.249570 5.899752 19.076880
v -8.979946 5.899685 18.766678
v -10.651550 5.899592 18.391171
v -12.253181 5.899467 17.950359
v 12.940026 5.737297 17.720417
v 12.940026 -5.737297 17.720417
v 14.406537 -3.737248 17.202383
v 14.406537 3.737248 17.202383
v 13.773649 5.321005 17.444235
v 13.860954 5.227396 17.410873
v 14.230592 4.463995 17.269619
v -13.773645 5.321005 17.444239
v -13.860950 5.227396 17.410877
v -12.940022 5.737297 17.720421
v -14.230588 4.463995 17.269621
v -14.406533 3.737248 17.202387
v 13.773649 -5.321005 17.444235
v 13.860953 -5.227396 17.410873
v 14.230592 -4.463995 17.269617
v -13.773645 -5.321005 17.444239
v -13.860950 -5.227396 17.410877
v -12.940022 -5.737297 17.720421
v -14.230588 -4.463995 17.269623
v -14.406533 -3.737248 17.202387
vt 0.405137 0.155655
vt 0.414730 0.192457
vt 0.400056 0.157807
vt 0.409821 0.194536
vt 0.395147 0.159887
vt 0.462409 0.131402
vt 0.472379 0.168043
vt 0.457705 0.133394
vt 0.452796 0.135472
vt 0.467470 0.170122
vt 0.425033 0.188094
vt 0.410358 0.153444
vt 0.442494 0.139835
vt 0.451840 0.176742
vt 0.437166 0.142091
vt 0.462389 0.172274
vt 0.457168 0.174485
vt 0.405118 0.196527
vt 0.430360 0.185838
vt 0.415686 0.151188
vt 0.421088 0.148900
vt 0.435762 0.183550
vt 0.431764 0.144379
vt 0.446438 0.179029
vt 0.447715 0.137624
vt 0.414730 0.192457
vt 0.405137 0.155655
vt 0.400056 0.157807
vt 0.409821 0.194536
vt 0.395147 0.159887
vt 0.480828 0.162461
vt 0.467593 0.131210
vt 0.462409 0.131402
vt 0.470001 0.133158
vt 0.467966 0.131376
vt 0.472379 0.168043
vt 0.457705 0.133394
vt 0.452796 0.135472
vt 0.467470 0.170122
vt 0.425033 0.188094
vt 0.410358 0.153444
vt 0.386699 0.165468
vt 0.399933 0.196719
vt 0.405118 0.196527
vt 0.451840 0.176742
vt 0.442494 0.139835
vt 0.437166 0.142091
vt 0.457168 0.174485
vt 0.447715 0.137624
vt 0.396105 0.192855
vt 0.397525 0.194771
vt 0.435762 0.183550
vt 0.426426 0.146639
vt 0.421088 0.148900
vt 0.430360 0.185838
vt 0.415686 0.151188
vt 0.431764 0.144379
vt 0.446438 0.179029
vt 0.462389 0.172274
vt 0.480828 0.162461
vt 0.478897 0.164720
vt 0.477082 0.166050
vt 0.386699 0.165468
vt 0.388629 0.163209
vt 0.390444 0.161879
vt 0.386423 0.168553
vt 0.386559 0.165852
vt 0.426426 0.146639
vt 0.480717 0.157023
vt 0.481104 0.159376
vt 0.419811 0.190305
vt 0.419811 0.190305
vt 0.464627 0.131024
vt 0.477082 0.166050
vt 0.478897 0.164720
vt 0.480717 0.157023
vt 0.480968 0.162078
vt 0.481104 0.159376
vt 0.471421 0.135074
vt 0.402899 0.196905
vt 0.390444 0.161879
vt 0.388629 0.163209
vt 0.399560 0.196553
vt 0.386559 0.165852
vt 0.386423 0.168553
vt 0.386809 0.170906
vt 0.441100 0.181290
vt 0.464627 0.131024
vt 0.467593 0.131210
vt 0.402899 0.196905
vt 0.399933 0.196719
vt 0.396105 0.192855
vt 0.399560 0.196553
vt 0.397525 0.194771
vt 0.386809 0.170906
vt 0.441100 0.181290
vt 0.480968 0.162077
vt 0.467966 0.131376
vt 0.470001 0.133158
vt 0.471421 0.135074
vn -0.1565 0.0000 -0.9877
vn -0.1979 0.0000 -0.9802
vn -0.2423 0.0000 -0.9702
vn 0.2890 0.0005 -0.9573
vn 0.2423 0.0000 -0.9702
vn 0.1979 0.0000 -0.9802
vn -0.1175 0.0000 -0.9931
vn 0.1175 0.0000 -0.9931
vn 0.0803 0.0000 -0.9968
vn 0.1565 0.0000 -0.9877
vn -0.2890 -0.0005 -0.9573
vn -0.0803 0.0000 -0.9968
vn -0.0443 0.0000 -0.9990
vn 0.0443 0.0000 -0.9990
vn 0.1979 0.0000 0.9802
vn 0.1565 0.0000 0.9877
vn 0.2423 0.0000 0.9702
vn -0.3276 0.0004 0.9448
vn -0.3276 -0.0004 0.9448
vn -0.2890 -0.0005 0.9573
vn -0.3570 0.0000 0.9341
vn -0.3569 0.0000 0.9342
vn -0.2423 0.0000 0.9702
vn -0.1979 0.0000 0.9802
vn 0.1175 0.0000 0.9931
vn 0.3276 -0.0004 0.9448
vn 0.3276 0.0004 0.9448
vn 0.2890 0.0005 0.9573
vn -0.0803 0.0000 0.9968
vn -0.1175 0.0000 0.9931
vn -0.1565 0.0000 0.9877
vn 0.3570 0.0000 0.9341
vn 0.0443 0.0000 0.9990
vn -0.0000 0.0000 1.0000
vn 0.0803 0.0000 0.9968
vn -0.0443 0.0000 0.9990
vn 0.3276 -0.0004 -0.9448
vn 0.3201 -0.0125 -0.9473
vn 0.2890 -0.0005 -0.9573
vn -0.3276 0.0004 -0.9448
vn -0.3201 0.0125 -0.9473
vn -0.2890 0.0005 -0.9573
vn -0.3570 -0.0000 -0.9341
vn -0.3569 -0.0000 -0.9342
vn -0.0000 0.0000 -1.0000
vn 0.3570 0.0000 -0.9341
vn -0.3201 -0.0125 0.9473
vn -0.2890 0.0005 0.9573
vn -0.3201 0.0125 0.9473
vn 0.3201 0.0125 0.9473
vn 0.2890 -0.0005 0.9573
vn 0.3201 -0.0125 0.9473
vn 0.3569 -0.0000 0.9342
vn 0.3201 0.0125 -0.9473
vn 0.3276 0.0004 -0.9448
vn -0.3201 -0.0125 -0.9473
vn -0.3276 -0.0004 -0.9448
vn 0.3569 0.0000 -0.9342
usemtl Color_M01
s 1
f 4/1/1 18/2/2 5/3/2
f 5/3/2 19/4/3 6/5/3
f 28/6/4 26/7/5 14/8/5
f 13/9/6 26/7/5 25/10/6
f 16/11/7 4/1/1 3/12/7
f 11/13/8 22/14/9 10/15/9
f 11/13/8 24/16/10 23/17/8
f 20/18/11 6/5/3 19/4/3
f 15/19/12 3/12/7 2/20/12
f 15/19/12 1/21/13 8/22/13
f 9/23/14 22/14/9 21/24/14
f 13/9/6 24/16/10 12/25/10
f 70/26/15 54/27/16 55/28/15
f 71/29/17 55/28/15 56/30/17
f 88/31/18 96/32/19 65/33/20
f 99/34/21 97/35/22 96/32/19
f 79/36/23 65/33/20 64/37/23
f 79/36/23 63/38/24 78/39/24
f 54/27/16 68/40/25 53/41/25
f 93/42/26 85/43/27 72/44/28
f 75/45/29 61/46/30 60/47/29
f 76/48/30 62/49/31 61/46/30
f 56/30/17 72/44/28 71/29/17
f 84/50/32 87/51/32 85/43/27
f 66/52/33 58/53/34 51/54/33
f 53/41/25 67/55/35 52/56/35
f 75/45/29 59/57/36 74/58/36
f 58/53/34 74/58/36 59/57/36
f 77/59/31 63/38/24 62/49/31
f 37/60/37 35/61/38 27/62/39
f 44/63/40 42/64/41 7/65/42
f 45/66/43 43/67/44 44/63/40
f 21/24/14 50/68/45 9/23/14
f 50/68/45 8/22/13 1/21/13
f 30/69/46 38/70/46 37/60/37
f 51/54/33 67/55/35 66/52/33
f 4/1/1 17/71/1 18/2/2
f 5/3/2 18/2/2 19/4/3
f 28/6/4 27/62/39 26/7/5
f 13/9/6 14/8/5 26/7/5
f 16/11/7 17/71/1 4/1/1
f 11/13/8 23/17/8 22/14/9
f 11/13/8 12/25/10 24/16/10
f 20/18/11 7/65/42 6/5/3
f 15/19/12 16/11/7 3/12/7
f 15/19/12 2/20/12 1/21/13
f 9/23/14 10/15/9 22/14/9
f 13/9/6 25/10/6 24/16/10
f 70/26/15 69/72/16 54/27/16
f 71/29/17 70/26/15 55/28/15
f 98/73/47 65/33/20 96/32/19
f 65/33/20 80/74/48 88/31/18
f 80/74/48 90/75/49 88/31/18
f 96/32/19 88/31/18 92/76/21
f 88/31/18 89/77/21 91/78/21
f 92/76/21 88/31/18 91/78/21
f 92/76/21 100/79/21 96/32/19
f 100/79/21 99/34/21 96/32/19
f 79/36/23 80/74/48 65/33/20
f 79/36/23 64/37/23 63/38/24
f 54/27/16 69/72/16 68/40/25
f 81/80/50 72/44/28 85/43/27
f 72/44/28 57/81/51 93/42/26
f 57/81/51 82/82/52 93/42/26
f 75/45/29 76/48/30 61/46/30
f 76/48/30 77/59/31 62/49/31
f 56/30/17 57/81/51 72/44/28
f 86/83/53 85/43/27 87/51/32
f 85/43/27 93/42/26 84/50/32
f 93/42/26 94/84/32 95/85/32
f 95/85/32 83/86/32 93/42/26
f 83/86/32 84/50/32 93/42/26
f 66/52/33 73/87/34 58/53/34
f 53/41/25 68/40/25 67/55/35
f 75/45/29 60/47/29 59/57/36
f 58/53/34 73/87/34 74/58/36
f 77/59/31 78/39/24 63/38/24
f 27/62/39 28/6/4 37/60/37
f 28/6/4 46/88/54 48/89/55
f 37/60/37 28/6/4 48/89/55
f 7/65/42 20/18/11 44/63/40
f 20/18/11 31/90/56 33/91/57
f 44/63/40 20/18/11 33/91/57
f 44/63/40 33/91/57 29/92/43
f 33/91/57 32/93/43 34/94/43
f 29/92/43 33/91/57 34/94/43
f 29/92/43 39/95/43 44/63/40
f 39/95/43 45/66/43 44/63/40
f 21/24/14 40/96/45 50/68/45
f 50/68/45 40/96/45 8/22/13
f 36/97/58 37/60/37 38/70/46
f 37/60/37 48/89/55 30/69/46
f 48/89/55 47/98/46 49/99/46
f 49/99/46 41/100/46 48/89/55
f 41/100/46 30/69/46 48/89/55
f 51/54/33 52/56/35 67/55/35
