# Blender v2.80 (sub 75) OBJ File: ''
# www.blender.org
mtllib GT_Ranger_Cab_Flap_2.mtl
o GT_Flaps.001_GT_Ranger_Cab.009
v 0.119989 -0.495001 0.375010
v 0.119989 -0.495001 0.050011
v 0.379990 -0.495001 0.050011
v 0.379990 -0.495001 0.375010
v 0.119989 -0.500001 0.050011
v 0.119989 -0.500001 0.375010
v 0.379990 -0.500001 0.050011
v 0.379990 -0.500001 0.375010
v 0.249988 -0.549999 0.250010
v 0.316000 -0.500000 0.316025
v 0.183977 -0.500000 0.316025
v 0.316000 -0.500000 0.184001
v 0.183977 -0.500000 0.184001
vt 0.461699 0.882723
vt 0.461699 0.835875
vt 0.496500 0.835875
vt 0.496500 0.882723
vt 0.416485 0.835875
vt 0.416485 0.882723
vt 0.417155 0.882723
vt 0.417155 0.835875
vt 0.461699 0.882723
vt 0.461699 0.835875
vt 0.496500 0.835875
vt 0.496500 0.882723
vt 0.496500 0.795390
vt 0.461699 0.795390
vt 0.461699 0.796060
vt 0.496500 0.796060
vt 0.416485 0.882723
vt 0.416485 0.835875
vt 0.417155 0.835875
vt 0.417155 0.882723
vt 0.461699 0.795390
vt 0.496500 0.795390
vt 0.496500 0.796060
vt 0.461699 0.796060
vt 0.030822 0.343451
vt 0.059833 0.372464
vt 0.001811 0.372464
vt 0.059833 0.314442
vt 0.001811 0.314442
vn 0.0000 -1.0000 -0.0000
vn -1.0000 0.0000 0.0000
vn 0.0000 0.0000 -1.0000
vn 1.0000 0.0000 0.0000
vn 0.0000 0.0000 1.0000
vn 0.0000 -0.7972 0.6038
vn 0.6038 -0.7972 0.0000
vn 0.0000 -0.7971 -0.6038
vn -0.6038 -0.7971 0.0000
usemtl _auto_.002
s 1
f 1/1/1 2/2/1 3/3/1 4/4/1
f 5/5/2 6/6/2 1/7/2 2/8/2
f 6/9/1 5/10/1 7/11/1 8/12/1
f 7/13/3 5/14/3 2/15/3 3/16/3
f 8/17/4 7/18/4 3/19/4 4/20/4
f 6/21/5 8/22/5 4/23/5 1/24/5
f 9/25/6 10/26/6 11/27/6
f 10/26/7 9/25/7 12/28/7
f 9/25/8 13/29/8 12/28/8
f 13/29/9 9/25/9 11/27/9
