# Blender v2.80 (sub 75) OBJ File: ''
# www.blender.org
mtllib GT_Ranger_Cab_Flap_4.mtl
o GT_Flaps.002_GT_Ranger_Cab.010
v 0.119989 -0.500000 -0.424989
v 0.119989 -0.500001 -0.099989
v 0.119989 -0.495001 -0.099989
v 0.119989 -0.495000 -0.424989
v 0.379990 -0.500000 -0.424989
v 0.379990 -0.500000 -0.099989
v 0.379990 -0.495000 -0.424989
v 0.379990 -0.495000 -0.099989
v 0.249988 -0.549999 -0.249988
v 0.183977 -0.500000 -0.316000
v 0.316000 -0.500000 -0.316000
v 0.183977 -0.500000 -0.183977
v 0.316000 -0.500000 -0.183977
vt 0.416485 0.768949
vt 0.416485 0.815797
vt 0.417155 0.815797
vt 0.417155 0.768949
vt 0.461699 0.815797
vt 0.461699 0.768949
vt 0.496500 0.768949
vt 0.496500 0.815797
vt 0.496500 0.795390
vt 0.461699 0.795390
vt 0.461699 0.796060
vt 0.496500 0.796060
vt 0.461699 0.795390
vt 0.496500 0.795390
vt 0.496500 0.796060
vt 0.461699 0.796060
vt 0.416485 0.815797
vt 0.416485 0.768949
vt 0.417155 0.768949
vt 0.417155 0.815797
vt 0.461699 0.815797
vt 0.461699 0.768949
vt 0.496500 0.768949
vt 0.496500 0.815797
vt 0.030822 0.343453
vt 0.001811 0.314442
vt 0.059833 0.314442
vt 0.001811 0.372463
vt 0.059833 0.372463
vn -1.0000 0.0000 0.0000
vn 0.0000 -1.0000 -0.0000
vn 0.0000 0.0000 -1.0000
vn -0.0000 0.0000 1.0000
vn 1.0000 0.0000 0.0000
vn 0.0000 -0.7972 -0.6038
vn -0.6038 -0.7971 0.0000
vn 0.0000 -0.7971 0.6038
vn 0.6038 -0.7972 0.0000
usemtl _auto_.003
s 1
f 1/1/1 2/2/1 3/3/1 4/4/1
f 2/5/2 1/6/2 5/7/2 6/8/2
f 5/9/3 1/10/3 4/11/3 7/12/3
f 2/13/4 6/14/4 8/15/4 3/16/4
f 6/17/5 5/18/5 7/19/5 8/20/5
f 3/21/2 4/22/2 7/23/2 8/24/2
f 9/25/6 10/26/6 11/27/6
f 10/26/7 9/25/7 12/28/7
f 9/25/8 13/29/8 12/28/8
f 13/29/9 9/25/9 11/27/9
