# Blender v2.82 (sub 7) OBJ File: 'DL_CduoISlope3.blend'
# www.blender.org
mtllib DLMediumInsideSlope.mtl
o untitled.001
v -0.000000 -0.000000 2.098080
v 0.450000 0.350000 -0.500000
v 0.350000 0.300000 -0.500000
v 0.350000 -0.300000 -0.500000
v 0.450000 -0.350000 -0.500000
v 0.500000 -0.350000 -0.450000
v 0.500000 -0.300000 -0.350000
v 0.500000 0.300000 -0.350000
v 0.500000 0.350000 -0.450000
v 0.435000 -0.337500 -0.485000
v 0.485000 -0.337500 -0.435000
v 0.360000 -0.300000 -0.485000
v 0.360000 0.300000 -0.485000
v 0.435000 0.337500 -0.485000
v 0.485000 0.337500 -0.435000
v 0.485000 0.300000 -0.360000
v 0.485000 -0.300000 -0.360000
v -0.366026 0.366025 1.000000
v -0.500000 -0.450000 2.395657
v -0.450000 -0.500000 2.450000
v -0.450000 -0.461030 2.468674
v 0.450000 -0.500000 2.450000
v 0.500000 -0.450000 2.450000
v 0.461030 -0.461030 2.468674
v -0.500000 -0.042785 2.068321
v -0.450000 -0.000000 2.098080
v -0.500000 -0.450000 -0.450000
v -0.450000 -0.450000 -0.500000
v -0.450000 -0.500000 -0.450000
v 0.450000 -0.450000 -0.500000
v 0.429289 -0.500000 -0.450000
v 0.500000 -0.450000 -0.450000
v 0.450000 -0.500000 -0.429289
v -0.500000 0.445335 -0.450000
v -0.450000 0.450000 0.059808
v -0.445335 0.500000 -0.450000
v -0.450000 0.450000 -0.500000
v 0.429289 0.500000 -0.450000
v 0.450000 0.450000 -0.500000
v 0.461030 0.450000 2.468674
v 0.500000 0.450000 2.450000
v 0.450000 0.500000 2.395657
v 0.500000 0.450000 -0.450000
v 0.450000 0.500000 -0.429289
v -0.366026 0.450000 1.000000
v -0.316744 0.500000 0.989732
v 0.042785 0.500000 2.068321
v -0.000000 0.450000 2.098080
v -0.500000 0.316743 0.989732
v -0.450000 0.366025 1.000000
vt 0.310046 0.526114
vt 0.310046 0.978011
vt 0.168793 0.978011
vt 0.239420 0.678305
vt 0.311777 0.748931
vt 0.239420 0.748931
vt 0.317894 0.623373
vt 0.310046 0.607678
vt 0.310046 0.623373
vt 0.319753 0.750437
vt 0.319753 0.602877
vt 0.306573 0.750437
vt 0.168793 0.922778
vt 0.181973 0.750437
vt 0.168793 0.750437
vt 0.169526 0.522864
vt 0.189708 0.748826
vt 0.310046 0.526114
vt 0.310046 0.515016
vt 0.315539 0.525218
vt 0.317894 0.522864
vt 0.294351 0.515016
vt 0.307692 0.517370
vt 0.202042 0.515016
vt 0.296210 0.517370
vt 0.202042 0.517370
vt 0.294351 0.515016
vt 0.307692 0.517370
vt 0.295921 0.517370
vt 0.317894 0.522864
vt 0.310046 0.515016
vt 0.317894 0.538558
vt 0.315539 0.525218
vt 0.315539 0.725389
vt 0.317894 0.631220
vt 0.315539 0.631220
vt 0.315323 0.279176
vt 0.415377 0.267405
vt 0.409492 0.279176
vt 0.317894 0.538558
vt 0.315539 0.536989
vt 0.428821 0.367522
vt 0.420973 0.473462
vt 0.428821 0.473462
vt 0.409202 0.373408
vt 0.420973 0.367522
vt 0.319753 0.922778
vt 0.202042 0.538558
vt 0.296210 0.538558
vt 0.319753 0.978011
vt 0.168793 0.602877
vt 0.310046 0.733236
vt 0.317894 0.748931
vt 0.317894 0.733236
vt 0.294351 0.725389
vt 0.294351 0.631220
vt 0.168793 0.607678
vt 0.168793 0.605947
vt 0.168793 0.678305
vt 0.178500 0.969482
vt 0.170652 0.978011
vt 0.176769 0.980942
vt 0.310046 0.599831
vt 0.317894 0.607678
vt 0.311777 0.605947
vt 0.160946 0.607678
vt 0.168793 0.599831
vt 0.319021 0.522864
vt 0.327600 0.522864
vt 0.319753 0.515016
vt 0.311777 0.980942
vt 0.317894 0.978011
vt 0.310046 0.969482
vt 0.249126 0.922778
vt 0.168793 0.599831
vt 0.160946 0.969482
vt 0.168793 0.522864
vt 0.306796 0.599831
vt 0.310046 0.515016
vt 0.306796 0.522864
vt 0.317894 0.978011
vt 0.160946 0.748199
vt 0.306796 0.756778
vt 0.168793 0.748931
vt 0.169526 0.756778
vt 0.239420 0.922778
vt 0.317894 0.522864
vt 0.310046 0.515016
vt 0.306796 0.522864
vt 0.181973 0.750437
vt 0.246135 0.918108
vt 0.298838 0.748826
vt 0.306573 0.750437
vt 0.242411 0.918108
vt 0.178500 0.522864
vt 0.317894 0.607678
vt 0.239420 0.922778
vt 0.295921 0.517370
vt 0.296210 0.515016
vt 0.315539 0.536989
vt 0.317894 0.725389
vt 0.309438 0.267405
vt 0.409202 0.467576
vt 0.249126 0.922778
vt 0.178500 0.978011
vt 0.178500 0.522864
vt 0.194195 0.522864
vt 0.304058 0.522864
vt 0.319753 0.522864
vt 0.310046 0.748931
vt 0.160946 0.522864
vt 0.317894 0.522864
vt 0.317894 0.748931
vn 0.0000 -1.0000 -0.0000
vn -0.6265 0.0000 0.7794
vn 0.7071 0.0000 -0.7071
vn -0.9960 0.0000 0.0890
vn 0.0000 0.9487 0.3162
vn -0.0000 1.0000 0.0000
vn 0.3590 0.8615 -0.3590
vn 0.3590 0.8616 -0.3590
vn 0.4286 0.8571 -0.2857
vn 0.8320 0.0000 -0.5547
vn 0.4286 -0.8571 -0.2857
vn 0.3590 -0.8616 -0.3590
vn 0.3590 -0.8615 -0.3590
vn 0.2857 -0.8571 -0.4286
vn 0.5547 0.0000 -0.8320
vn 1.0000 -0.0000 0.0000
vn 0.2857 0.8571 -0.4286
vn -0.0000 0.0000 -1.0000
vn -0.9487 0.0000 0.3162
vn 0.0000 0.9960 0.0890
vn 0.0000 0.6265 0.7794
vn -0.8161 -0.2497 0.5211
vn 0.4857 -0.4857 0.7267
vn -0.5774 -0.5773 -0.5774
vn -0.5953 0.5953 -0.5397
vn 0.2497 0.8161 0.5211
vn -0.7216 0.5683 0.3953
vn -0.7071 0.4430 0.5511
vn 0.0000 -0.4321 0.9018
vn -0.7071 -0.7071 -0.0000
vn 0.0000 -0.7071 -0.7071
vn 0.5000 -0.7071 -0.5000
vn 0.7071 -0.7071 -0.0000
vn -0.7071 0.0000 -0.7071
vn 0.0000 0.7071 -0.7071
vn -0.4430 0.7071 0.5511
vn -0.5683 0.7216 0.3953
vn 0.7071 0.7071 0.0000
vn 0.5000 0.7071 -0.5000
vn -0.7057 0.7057 0.0629
vn -0.6899 0.7095 0.1437
vn -0.7056 0.7058 0.0628
vn 0.4321 0.0000 0.9018
vn -0.7095 0.6899 0.1437
vn -0.7058 0.7056 0.0628
vn -1.0000 0.0000 0.0000
usemtl FrontColor.001
s 1
f 33/1/1 22/2/1 20/3/1
f 1/4/2 40/5/2 48/6/2
f 6/7/3 30/8/3 5/9/3
f 45/10/4 35/11/4 18/12/4
f 26/13/5 18/14/5 50/15/5
f 36/16/6 46/17/6 44/18/6
f 5/19/7 11/20/8 6/21/8
f 4/22/9 10/23/9 5/19/9
f 4/24/10 13/25/10 12/26/10
f 3/27/11 14/28/11 13/29/11
f 9/30/12 14/28/13 2/31/13
f 8/32/14 15/33/14 9/30/14
f 16/34/15 7/35/15 17/36/15
f 17/37/16 15/38/16 16/39/16
f 7/40/17 11/20/17 17/41/17
f 11/42/3 14/43/3 15/44/3
f 12/45/18 14/43/18 10/46/18
f 18/12/19 48/47/19 45/10/19
f 7/48/16 8/49/16 41/50/16
f 50/15/20 18/14/20 35/51/20
f 2/52/3 43/53/3 9/54/3
f 3/55/18 4/56/18 28/57/18
f 21/58/21 1/4/21 26/59/21
f 19/60/22 20/61/22 21/62/22
f 22/63/23 23/64/23 24/65/23
f 27/66/24 28/57/24 29/67/24
f 34/68/25 36/69/25 37/70/25
f 40/71/26 41/72/26 42/73/26
f 26/74/27 19/60/28 21/62/28
f 22/63/29 21/58/29 20/75/29
f 19/76/30 29/77/30 20/3/30
f 28/57/31 31/78/31 29/67/31
f 30/79/32 33/1/32 31/80/32
f 33/1/33 23/81/33 22/2/33
f 34/82/34 28/57/34 27/66/34
f 38/83/35 37/84/35 36/85/35
f 42/73/36 48/86/37 40/71/36
f 43/87/38 42/73/38 41/72/38
f 44/18/39 39/88/39 38/89/39
f 35/51/40 46/17/41 36/16/42
f 45/90/41 47/91/37 46/17/41
f 23/64/43 40/5/43 24/65/43
f 49/92/44 35/11/40 34/68/45
f 50/93/44 25/94/27 26/74/27
f 27/95/46 19/60/46 49/92/46
f 20/3/1 29/77/1 33/1/1
f 29/77/1 31/80/1 33/1/1
f 1/4/2 24/65/2 40/5/2
f 6/7/3 32/96/3 30/8/3
f 26/13/5 1/97/5 18/14/5
f 47/91/6 42/73/6 46/17/6
f 42/73/6 44/18/6 46/17/6
f 44/18/6 38/89/6 36/16/6
f 5/19/7 10/23/7 11/20/8
f 4/22/9 12/98/9 10/23/9
f 4/24/10 3/99/10 13/25/10
f 3/27/11 2/31/11 14/28/11
f 9/30/12 15/33/12 14/28/13
f 8/32/14 16/100/14 15/33/14
f 16/34/15 8/101/15 7/35/15
f 17/37/16 11/102/16 15/38/16
f 7/40/17 6/21/17 11/20/17
f 11/42/3 10/46/3 14/43/3
f 12/45/18 13/103/18 14/43/18
f 18/12/19 1/104/19 48/47/19
f 41/50/16 23/105/16 7/48/16
f 23/105/16 32/106/16 7/48/16
f 32/106/16 6/107/16 7/48/16
f 8/49/16 9/108/16 43/109/16
f 8/49/16 43/109/16 41/50/16
f 2/52/3 39/110/3 43/53/3
f 28/57/18 37/84/18 3/55/18
f 37/84/18 39/110/18 3/55/18
f 39/110/18 2/52/18 3/55/18
f 4/56/18 5/9/18 30/8/18
f 4/56/18 30/8/18 28/57/18
f 21/58/21 24/65/21 1/4/21
f 34/68/45 35/11/40 36/69/42
f 26/74/27 25/94/27 19/60/28
f 22/63/29 24/65/29 21/58/29
f 19/76/30 27/111/30 29/77/30
f 28/57/31 30/8/31 31/78/31
f 30/79/32 32/112/32 33/1/32
f 33/1/33 32/112/33 23/81/33
f 34/82/34 37/84/34 28/57/34
f 38/83/35 39/110/35 37/84/35
f 42/73/36 47/91/37 48/86/37
f 43/87/38 44/18/38 42/73/38
f 44/18/39 43/87/39 39/88/39
f 35/51/40 45/90/41 46/17/41
f 45/90/41 48/86/37 47/91/37
f 23/64/43 41/113/43 40/5/43
f 49/92/44 50/93/44 35/11/40
f 50/93/44 49/92/44 25/94/27
f 25/94/46 49/92/46 19/60/46
f 49/92/46 34/68/46 27/95/46
o DarkLightBrudger3
v -0.600000 -0.000000 0.000002
v -0.500000 -0.130000 -0.129998
v -0.500000 -0.130000 0.130002
v -0.500000 0.130000 -0.129998
v -0.500000 0.130000 0.130002
v 0.130000 0.500000 -0.129998
v 0.000000 0.600000 0.000002
v 0.130000 0.500000 0.130002
v -0.130000 0.500000 -0.129998
v -0.130000 0.500000 0.130002
v -0.500000 0.130000 1.130002
v -0.600000 -0.000000 1.000002
v -0.500000 -0.130000 1.130002
v -0.500000 0.130000 0.870002
v -0.500000 -0.130000 0.870002
v 0.130000 0.500000 1.130002
v 0.000000 0.600000 1.000002
v -0.130000 0.500000 1.130002
v 0.130000 0.500000 0.870002
v -0.130000 0.500000 0.870002
v 0.500000 0.130000 1.130002
v 0.600000 -0.000000 1.000002
v 0.500000 0.130000 0.870002
v 0.500000 -0.130000 1.130002
v 0.500000 -0.130000 0.870002
v 0.000000 -0.600000 1.000002
v 0.130000 -0.500000 1.130002
v -0.130000 -0.500000 1.130002
v 0.130000 -0.500000 0.870002
v -0.130000 -0.500000 0.870002
v 0.500000 -0.130000 -0.129998
v 0.600000 -0.000000 0.000002
v 0.500000 -0.130000 0.130002
v 0.500000 0.130000 -0.129998
v 0.500000 0.130000 0.130002
v 0.130000 -0.500000 -0.129998
v 0.000000 -0.600000 0.000002
v -0.130000 -0.500000 -0.129998
v 0.130000 -0.500000 0.130002
v -0.130000 -0.500000 0.130002
v 0.130000 0.130000 -0.499998
v 0.000000 0.000000 -0.599998
v -0.130000 0.130000 -0.499998
v 0.130000 -0.130000 -0.499998
v -0.130000 -0.130000 -0.499998
v 0.500000 0.130000 2.130002
v 0.600000 -0.000000 2.000002
v 0.500000 0.130000 1.870002
v 0.500000 -0.130001 2.130002
v 0.500000 -0.130000 1.870002
v 0.130000 -0.500000 2.130002
v 0.000000 -0.600001 2.000002
v 0.130000 -0.500000 1.870002
v -0.130000 -0.500000 2.130002
v -0.130000 -0.500000 1.870002
vt 0.906733 0.218698
vt 0.878149 0.190114
vt 0.878149 0.247282
vt 0.935317 0.190114
vt 0.935317 0.247282
vt 0.935317 0.190114
vt 0.906733 0.218698
vt 0.935317 0.247282
vt 0.878149 0.190114
vt 0.878149 0.247282
vt 0.935317 0.247282
vt 0.906733 0.218698
vt 0.878149 0.247282
vt 0.935317 0.190114
vt 0.878149 0.190114
vt 0.935317 0.247282
vt 0.906733 0.218698
vt 0.878149 0.247282
vt 0.935317 0.190114
vt 0.878149 0.190114
vt 0.935317 0.247282
vt 0.906733 0.218698
vt 0.935317 0.190114
vt 0.878149 0.247282
vt 0.878149 0.190114
vt 0.906733 0.218698
vt 0.935317 0.247282
vt 0.878149 0.247282
vt 0.935317 0.190114
vt 0.878149 0.190114
vt 0.878149 0.190114
vt 0.906733 0.218698
vt 0.878149 0.247282
vt 0.935317 0.190114
vt 0.935317 0.247282
vt 0.935317 0.190114
vt 0.906733 0.218698
vt 0.878149 0.190114
vt 0.935317 0.247282
vt 0.878149 0.247282
vt 0.935317 0.247282
vt 0.906733 0.218698
vt 0.878149 0.247282
vt 0.935317 0.190114
vt 0.878149 0.190114
vt 0.935317 0.247282
vt 0.906733 0.218698
vt 0.935317 0.190114
vt 0.878149 0.247282
vt 0.878149 0.190114
vt 0.935317 0.247282
vt 0.906733 0.218698
vt 0.935317 0.190114
vt 0.878149 0.247282
vt 0.878149 0.190114
vn -0.7926 -0.6097 -0.0000
vn -0.7926 0.0000 -0.6097
vn -0.7926 0.6097 0.0000
vn -0.7926 -0.0000 0.6097
vn 0.6097 0.7926 0.0000
vn 0.0000 0.7926 -0.6097
vn -0.6097 0.7926 0.0000
vn 0.0000 0.7926 0.6097
vn 0.7926 0.6097 0.0000
vn 0.7926 0.0000 0.6097
vn 0.7926 -0.6097 -0.0000
vn 0.7926 0.0000 -0.6097
vn 0.0000 -0.7926 0.6097
vn 0.6097 -0.7926 0.0000
vn 0.0000 -0.7926 -0.6097
vn -0.6097 -0.7926 0.0000
vn 0.0000 0.6097 -0.7926
vn 0.6097 0.0000 -0.7926
vn 0.0000 -0.6097 -0.7926
vn -0.6097 0.0000 -0.7926
usemtl Color_M03
s 1
f 51/114/47 52/115/47 53/116/47
f 51/114/48 54/117/48 52/115/48
f 54/117/49 51/114/49 55/118/49
f 53/116/50 55/118/50 51/114/50
f 56/119/51 57/120/51 58/121/51
f 57/120/52 56/119/52 59/122/52
f 57/120/53 59/122/53 60/123/53
f 57/120/54 60/123/54 58/121/54
f 61/124/50 62/125/50 63/126/50
f 62/125/49 61/124/49 64/127/49
f 64/127/48 65/128/48 62/125/48
f 63/126/47 62/125/47 65/128/47
f 66/129/54 67/130/54 68/131/54
f 67/130/51 66/129/51 69/132/51
f 70/133/52 67/130/52 69/132/52
f 68/131/53 67/130/53 70/133/53
f 71/134/55 72/135/55 73/136/55
f 74/137/56 72/135/56 71/134/56
f 72/135/57 74/137/57 75/138/57
f 72/135/58 75/138/58 73/136/58
f 76/139/59 77/140/59 78/141/59
f 77/140/60 76/139/60 79/142/60
f 76/139/61 80/143/61 79/142/61
f 76/139/62 78/141/62 80/143/62
f 81/144/57 82/145/57 83/146/57
f 82/145/58 81/144/58 84/147/58
f 82/145/55 84/147/55 85/148/55
f 83/146/56 82/145/56 85/148/56
f 86/149/61 87/150/61 88/151/61
f 87/150/60 86/149/60 89/152/60
f 90/153/59 87/150/59 89/152/59
f 88/151/62 87/150/62 90/153/62
f 91/154/63 92/155/63 93/156/63
f 94/157/64 92/155/64 91/154/64
f 92/155/65 94/157/65 95/158/65
f 92/155/66 95/158/66 93/156/66
f 96/159/55 97/160/55 98/161/55
f 99/162/56 97/160/56 96/159/56
f 97/160/57 99/162/57 100/163/57
f 97/160/58 100/163/58 98/161/58
f 101/164/60 102/165/60 103/166/60
f 102/165/59 101/164/59 104/167/59
f 102/165/62 104/167/62 105/168/62
f 102/165/61 105/168/61 103/166/61
