# Blender v2.82 (sub 7) OBJ File: 'DL_CduoISlope2.blend'
# www.blender.org
mtllib DLSmallInsideSlope.mtl
o untitled
v -0.366026 0.366025 0.500000
v -0.000000 -0.000000 1.232050
v 0.450000 0.350000 -0.500000
v 0.350000 0.300000 -0.500000
v 0.350000 -0.300000 -0.500000
v 0.450000 -0.350000 -0.500000
v 0.500000 -0.350000 -0.450000
v 0.500000 -0.300000 -0.350000
v 0.500000 0.300000 -0.350000
v 0.500000 0.350000 -0.450000
v 0.435000 -0.337500 -0.485000
v 0.485000 -0.337500 -0.435000
v 0.360000 -0.300000 -0.485000
v 0.360000 0.300000 -0.485000
v 0.435000 0.337500 -0.485000
v 0.485000 0.337500 -0.435000
v 0.485000 0.300000 -0.360000
v 0.485000 -0.300000 -0.360000
v -0.450000 0.366025 0.500000
v -0.500000 0.317575 0.485097
v -0.450000 0.450000 -0.126795
v -0.442855 0.500000 -0.450000
v -0.450000 0.450000 -0.500000
v -0.500000 0.442855 -0.450000
v -0.450000 -0.450000 -0.500000
v -0.450000 -0.500000 -0.450000
v -0.500000 -0.450000 -0.450000
v -0.450000 -0.500000 1.450000
v -0.450000 -0.455930 1.476382
v -0.500000 -0.450000 1.416478
v -0.500000 -0.037618 1.195482
v -0.450000 -0.000000 1.232050
v 0.450000 -0.500000 1.450000
v 0.500000 -0.450000 1.450000
v 0.455929 -0.455930 1.476382
v 0.450000 -0.450000 -0.500000
v 0.429289 -0.500000 -0.450000
v 0.500000 -0.450000 -0.450000
v 0.450000 -0.500000 -0.429289
v 0.429289 0.500000 -0.450000
v 0.450000 0.450000 -0.500000
v 0.455929 0.450000 1.476383
v 0.500000 0.450000 1.450000
v 0.450000 0.500000 1.416478
v 0.500000 0.450000 -0.450000
v 0.450000 0.500000 -0.429289
v -0.366026 0.450000 0.500000
v -0.317576 0.500000 0.485097
v 0.037617 0.500000 1.195482
v -0.000000 0.450000 1.232050
vt 0.181178 0.751749
vt 0.192277 0.751749
vt 0.181178 0.668907
vt 0.286912 0.750118
vt 0.286912 0.670818
vt 0.181178 0.650993
vt 0.189269 0.626190
vt 0.189269 0.872877
vt 0.243772 0.843669
vt 0.240653 0.710468
vt 0.300912 0.769944
vt 0.240653 0.769944
vt 0.181178 0.650209
vt 0.181178 0.710468
vt 0.198680 0.749779
vt 0.245625 0.843669
vt 0.300129 0.628927
vt 0.308220 0.751749
vt 0.308220 0.668907
vt 0.297121 0.751749
vt 0.306737 0.650993
vt 0.300129 0.664210
vt 0.306737 0.664210
vt 0.300129 0.756727
vt 0.306737 0.769944
vt 0.306737 0.756727
vt 0.300129 0.619582
vt 0.304754 0.628172
vt 0.306737 0.626190
vt 0.286912 0.619582
vt 0.298146 0.621564
vt 0.209094 0.619582
vt 0.288394 0.621564
vt 0.209094 0.621564
vt 0.286912 0.619582
vt 0.298146 0.621564
vt 0.288234 0.621564
vt 0.306737 0.626190
vt 0.300129 0.619582
vt 0.306737 0.639407
vt 0.304754 0.628172
vt 0.304754 0.750118
vt 0.306737 0.670818
vt 0.304754 0.670818
vt 0.336210 0.306343
vt 0.420467 0.296430
vt 0.415511 0.306343
vt 0.306737 0.639407
vt 0.304754 0.638085
vt 0.431871 0.334120
vt 0.425262 0.423333
vt 0.431871 0.423333
vt 0.415350 0.339076
vt 0.425262 0.334120
vt 0.308220 0.848502
vt 0.209094 0.639407
vt 0.288394 0.639407
vt 0.308220 0.877308
vt 0.300129 0.628927
vt 0.300129 0.877308
vt 0.181178 0.877308
vt 0.314828 0.626190
vt 0.307275 0.626190
vt 0.181178 0.644385
vt 0.174570 0.650993
vt 0.182661 0.877308
vt 0.188485 0.880795
vt 0.300129 0.644385
vt 0.306737 0.650993
vt 0.300912 0.650209
vt 0.300912 0.880795
vt 0.306737 0.877308
vt 0.300129 0.872877
vt 0.297121 0.751749
vt 0.290717 0.749779
vt 0.174570 0.768999
vt 0.181178 0.769944
vt 0.181178 0.626190
vt 0.174570 0.872877
vt 0.174570 0.626190
vt 0.248744 0.848502
vt 0.181178 0.644385
vt 0.297391 0.644385
vt 0.300129 0.619582
vt 0.297391 0.626190
vt 0.306737 0.877308
vt 0.297391 0.776552
vt 0.182122 0.776552
vt 0.240653 0.848502
vt 0.306737 0.626190
vt 0.300129 0.619582
vt 0.297391 0.626190
vt 0.182122 0.626190
vt 0.192277 0.751749
vt 0.181178 0.848502
vt 0.300129 0.769944
vt 0.300129 0.650993
vt 0.288234 0.621564
vt 0.288394 0.619582
vt 0.304754 0.638085
vt 0.306737 0.750118
vt 0.331254 0.296430
vt 0.415350 0.418376
vt 0.248744 0.848502
vt 0.189269 0.877308
vt 0.189269 0.626190
vt 0.202486 0.626190
vt 0.295003 0.626190
vt 0.308220 0.626190
vt 0.308220 0.619582
vt 0.306737 0.626190
vt 0.306737 0.769944
vt 0.240653 0.848502
vn 0.0000 0.9911 0.1328
vn 0.0000 0.0000 -1.0000
vn -1.0000 0.0000 0.0000
vn -0.4723 -0.0000 0.8814
vn 0.0000 0.4723 0.8814
vn 0.0000 1.0000 0.0000
vn -0.9911 0.0000 0.1328
vn 0.7071 0.0000 -0.7071
vn 0.3590 0.8615 -0.3590
vn 0.3590 0.8616 -0.3590
vn 0.4286 0.8571 -0.2857
vn 0.8320 0.0000 -0.5547
vn 0.4286 -0.8571 -0.2857
vn 0.3590 -0.8616 -0.3590
vn 0.3590 -0.8615 -0.3590
vn 0.2857 -0.8571 -0.4286
vn 0.5547 0.0000 -0.8320
vn 1.0000 -0.0000 0.0000
vn 0.2857 0.8571 -0.4286
vn -0.8944 -0.0000 0.4472
vn 0.0000 -1.0000 -0.0000
vn -0.7036 0.7044 0.0934
vn -0.7044 0.7036 0.0934
vn -0.7040 0.7040 0.0939
vn -0.5774 -0.5773 -0.5774
vn -0.7365 -0.3474 0.5804
vn 0.1665 -0.5229 0.8360
vn 0.5229 -0.1665 0.8360
vn 0.3595 -0.3595 0.8611
vn 0.3474 0.7365 0.5804
vn -0.7239 0.4947 0.4809
vn -0.7119 0.6712 0.2065
vn -0.7071 0.0000 -0.7071
vn -0.7071 -0.7071 -0.0000
vn -0.7071 0.3340 0.6233
vn 0.0000 -0.5136 0.8580
vn 0.0000 -0.7071 -0.7071
vn 0.5000 -0.7071 -0.5000
vn 0.7071 -0.7071 -0.0000
vn 0.0000 0.7071 -0.7071
vn -0.3340 0.7071 0.6233
vn -0.4947 0.7239 0.4809
vn 0.7071 0.7071 0.0000
vn 0.5000 0.7071 -0.5000
vn -0.6712 0.7119 0.2065
vn 0.5136 -0.0000 0.8580
vn 0.0000 0.8944 0.4472
vn -0.6047 0.6047 -0.5183
usemtl FrontColor
s 1
f 19/1/1 1/2/1 21/3/1
f 4/4/2 5/5/2 25/6/2
f 27/7/3 30/8/3 31/9/3
f 2/10/4 42/11/4 50/12/4
f 29/13/5 2/10/5 32/14/5
f 48/15/6 49/16/6 46/17/6
f 47/18/7 21/19/7 1/20/7
f 38/21/8 6/22/8 7/23/8
f 3/24/8 45/25/8 10/26/8
f 6/27/9 12/28/10 7/29/10
f 5/30/11 11/31/11 6/27/11
f 5/32/12 14/33/12 13/34/12
f 4/35/13 15/36/13 14/37/13
f 10/38/14 15/36/15 3/39/15
f 9/40/16 16/41/16 10/38/16
f 17/42/17 8/43/17 18/44/17
f 18/45/18 16/46/18 17/47/18
f 8/48/19 12/28/19 18/49/19
f 12/50/8 15/51/8 16/52/8
f 13/53/2 15/51/2 11/54/2
f 1/20/20 50/55/20 47/18/20
f 8/56/18 9/57/18 43/58/18
f 39/59/21 33/60/21 28/61/21
f 22/62/22 24/63/23 21/19/24
f 25/6/25 26/64/25 27/65/25
f 28/66/26 29/67/26 30/8/26
f 33/68/27 34/69/28 35/70/29
f 42/71/30 43/72/30 44/73/30
f 31/9/31 19/74/32 20/75/32
f 21/19/24 20/75/32 19/74/32
f 25/6/33 24/76/33 23/77/33
f 26/78/34 30/79/34 27/80/34
f 32/81/31 30/8/35 29/67/35
f 33/68/27 29/13/36 28/82/36
f 25/6/37 37/83/37 26/64/37
f 36/84/38 39/59/38 37/85/38
f 39/59/39 34/86/39 33/60/39
f 40/87/40 23/77/40 22/88/40
f 44/73/41 50/89/42 42/71/41
f 45/90/43 44/73/43 43/72/43
f 46/17/44 41/91/44 40/92/44
f 21/3/24 48/15/45 22/93/22
f 47/94/45 49/16/42 48/15/45
f 34/69/28 42/11/46 35/70/29
f 32/95/47 1/2/47 19/1/47
f 25/6/2 23/77/2 4/4/2
f 23/77/2 41/96/2 4/4/2
f 41/96/2 3/24/2 4/4/2
f 5/5/2 6/22/2 36/97/2
f 5/5/2 36/97/2 25/6/2
f 31/9/3 20/75/3 27/7/3
f 20/75/3 24/63/3 27/7/3
f 2/10/4 35/70/4 42/11/4
f 29/13/5 35/70/5 2/10/5
f 49/16/6 44/73/6 46/17/6
f 46/17/6 40/92/6 48/15/6
f 40/92/6 22/93/6 48/15/6
f 38/21/8 36/97/8 6/22/8
f 3/24/8 41/96/8 45/25/8
f 6/27/9 11/31/9 12/28/10
f 5/30/11 13/98/11 11/31/11
f 5/32/12 4/99/12 14/33/12
f 4/35/13 3/39/13 15/36/13
f 10/38/14 16/41/14 15/36/15
f 9/40/16 17/100/16 16/41/16
f 17/42/17 9/101/17 8/43/17
f 18/45/18 12/102/18 16/46/18
f 8/48/19 7/29/19 12/28/19
f 12/50/8 11/54/8 15/51/8
f 13/53/2 14/103/2 15/51/2
f 1/20/20 2/104/20 50/55/20
f 43/58/18 34/105/18 8/56/18
f 34/105/18 38/106/18 8/56/18
f 38/106/18 7/107/18 8/56/18
f 9/57/18 10/108/18 45/109/18
f 9/57/18 45/109/18 43/58/18
f 28/61/21 26/78/21 39/59/21
f 26/78/21 37/85/21 39/59/21
f 22/62/48 23/110/48 24/63/48
f 31/9/31 32/81/31 19/74/32
f 21/19/24 24/63/23 20/75/32
f 25/6/33 27/65/33 24/76/33
f 26/78/34 28/61/34 30/79/34
f 32/81/31 31/9/31 30/8/35
f 33/68/27 35/70/29 29/13/36
f 25/6/37 36/97/37 37/83/37
f 36/84/38 38/111/38 39/59/38
f 39/59/39 38/111/39 34/86/39
f 40/87/40 41/96/40 23/77/40
f 44/73/41 49/16/42 50/89/42
f 45/90/43 46/17/43 44/73/43
f 46/17/44 45/90/44 41/91/44
f 21/3/24 47/94/45 48/15/45
f 47/94/45 50/89/42 49/16/42
f 34/69/28 43/112/46 42/11/46
f 32/95/47 2/113/47 1/2/47
o DarkLightBrudger2
v 0.130000 0.500001 -0.130000
v 0.000000 0.600001 0.000000
v 0.130000 0.500001 0.130000
v -0.130000 0.500001 -0.130000
v -0.130000 0.500001 0.130000
v 0.130000 0.130001 -0.500000
v 0.000000 0.000001 -0.600000
v -0.130000 0.130001 -0.500000
v 0.130000 -0.129999 -0.500000
v -0.130000 -0.129999 -0.500000
v 0.500000 0.130000 1.130000
v 0.600000 -0.000000 1.000000
v 0.500000 0.130000 0.870000
v 0.500000 -0.130000 1.130000
v 0.500000 -0.130000 0.870000
v 0.130000 -0.500000 1.130000
v 0.000000 -0.600000 1.000000
v 0.130000 -0.500000 0.870000
v -0.130000 -0.500000 1.130000
v -0.130000 -0.500000 0.870000
v 0.500000 -0.129999 -0.130000
v 0.600000 0.000001 0.000000
v 0.500000 -0.129999 0.130000
v 0.500000 0.130001 -0.130000
v 0.500000 0.130001 0.130000
v 0.130000 -0.499999 -0.130000
v 0.000000 -0.599999 -0.000000
v -0.130000 -0.499999 -0.130000
v 0.130000 -0.499999 0.130000
v -0.130000 -0.499999 0.130000
v -0.500000 0.130001 -0.130000
v -0.600000 0.000001 0.000000
v -0.500000 0.130001 0.130000
v -0.500000 -0.129999 -0.130000
v -0.500000 -0.129999 0.130000
vt 0.935179 0.190815
vt 0.906710 0.219284
vt 0.935179 0.247753
vt 0.878241 0.190815
vt 0.878241 0.247753
vt 0.935179 0.247753
vt 0.906710 0.219284
vt 0.878241 0.247753
vt 0.935179 0.190815
vt 0.878241 0.190815
vt 0.935179 0.247753
vt 0.906710 0.219284
vt 0.935179 0.190815
vt 0.878241 0.247753
vt 0.878241 0.190815
vt 0.935179 0.247753
vt 0.906710 0.219284
vt 0.935179 0.190815
vt 0.878241 0.247753
vt 0.878241 0.190815
vt 0.878241 0.190815
vt 0.906710 0.219284
vt 0.878241 0.247753
vt 0.935179 0.190815
vt 0.935179 0.247753
vt 0.935179 0.190815
vt 0.906710 0.219284
vt 0.878241 0.190815
vt 0.935179 0.247753
vt 0.878241 0.247753
vt 0.935179 0.190815
vt 0.906710 0.219284
vt 0.935179 0.247753
vt 0.878241 0.190815
vt 0.878241 0.247753
vn 0.6097 0.7926 0.0000
vn 0.0000 0.7926 -0.6097
vn -0.6097 0.7926 0.0000
vn 0.0000 0.7926 0.6097
vn 0.0000 0.6097 -0.7926
vn 0.6097 0.0000 -0.7926
vn 0.0000 -0.6097 -0.7926
vn -0.6097 0.0000 -0.7926
vn 0.7926 0.6097 0.0000
vn 0.7926 0.0000 0.6097
vn 0.7926 -0.6097 -0.0000
vn 0.7926 0.0000 -0.6097
vn 0.6097 -0.7926 0.0000
vn 0.0000 -0.7926 0.6097
vn -0.6097 -0.7926 0.0000
vn 0.0000 -0.7926 -0.6097
vn -0.7926 0.6097 0.0000
vn -0.7926 0.0000 -0.6097
vn -0.7926 -0.6097 -0.0000
vn -0.7926 -0.0000 0.6097
usemtl Color_M03
s 1
f 51/114/49 52/115/49 53/116/49
f 52/115/50 51/114/50 54/117/50
f 52/115/51 54/117/51 55/118/51
f 52/115/52 55/118/52 53/116/52
f 56/119/53 57/120/53 58/121/53
f 59/122/54 57/120/54 56/119/54
f 57/120/55 59/122/55 60/123/55
f 57/120/56 60/123/56 58/121/56
f 61/124/57 62/125/57 63/126/57
f 64/127/58 62/125/58 61/124/58
f 62/125/59 64/127/59 65/128/59
f 62/125/60 65/128/60 63/126/60
f 66/129/61 67/130/61 68/131/61
f 67/130/62 66/129/62 69/132/62
f 67/130/63 69/132/63 70/133/63
f 67/130/64 70/133/64 68/131/64
f 71/134/59 72/135/59 73/136/59
f 72/135/60 71/134/60 74/137/60
f 72/135/57 74/137/57 75/138/57
f 73/136/58 72/135/58 75/138/58
f 76/139/64 77/140/64 78/141/64
f 77/140/61 76/139/61 79/142/61
f 80/143/62 77/140/62 79/142/62
f 78/141/63 77/140/63 80/143/63
f 81/144/65 82/145/65 83/146/65
f 82/145/66 81/144/66 84/147/66
f 82/145/67 84/147/67 85/148/67
f 85/148/68 83/146/68 82/145/68
