# Blender v2.82 (sub 7) OBJ File: 'DL_CtriISlope.blend'
# www.blender.org
mtllib DLTriInvertCorner.mtl
o untitled
v -0.500000 0.350000 -0.450000
v -0.500000 0.300000 -0.350000
v -0.500000 -0.300000 -0.350000
v -0.500000 -0.350000 -0.450000
v -0.450000 -0.350000 -0.500000
v -0.350000 -0.300000 -0.500000
v -0.350000 0.300000 -0.500000
v -0.450000 0.350000 -0.500000
v -0.485000 -0.337500 -0.435000
v -0.435000 -0.337500 -0.485000
v -0.485000 -0.300000 -0.360000
v -0.485000 0.300000 -0.360000
v -0.485000 0.337500 -0.435000
v -0.435000 0.337500 -0.485000
v -0.360000 0.300000 -0.485000
v -0.360000 -0.300000 -0.485000
v 0.366026 0.366025 -0.000000
v 0.000000 0.366025 0.366025
v 0.183013 0.183013 0.183012
v 0.366026 -0.000000 0.366025
v -0.450000 -0.450000 0.500000
v -0.500000 -0.450000 0.450000
v -0.450000 -0.500000 0.450000
v -0.500000 -0.450000 -0.450000
v -0.450000 -0.500000 -0.429289
v -0.450000 -0.450000 -0.500000
v -0.429289 -0.500000 -0.450000
v 0.450000 -0.450000 -0.500000
v 0.500000 -0.450000 -0.450000
v 0.450000 -0.500000 -0.450000
v 0.434839 -0.450000 0.500000
v 0.450000 -0.500000 0.450000
v 0.500000 -0.450000 0.434839
v 0.450000 -0.313398 0.450000
v -0.450000 0.434839 0.500000
v -0.313398 0.450000 0.450000
v -0.450000 0.500000 0.434839
v -0.500000 0.450000 0.450000
v -0.450000 0.500000 -0.429289
v -0.500000 0.450000 -0.450000
v 0.450000 0.450000 -0.313398
v 0.500000 0.434839 -0.450000
v 0.450000 0.450000 -0.500000
v 0.434839 0.500000 -0.450000
v -0.450000 0.450000 -0.500000
v -0.429289 0.500000 -0.450000
v 0.000000 0.450000 0.366025
v -0.025882 0.500000 0.321196
v 0.321197 0.500000 -0.025882
v 0.366026 0.450000 -0.000000
v 0.450000 0.366025 -0.000000
v 0.500000 0.321196 -0.025882
v 0.450000 -0.000000 0.366025
v 0.500000 -0.025882 0.321196
v -0.025882 0.321196 0.500000
v 0.000000 0.366025 0.450000
v 0.321197 -0.025882 0.500000
v 0.366026 -0.000000 0.450000
vt 0.282840 0.688184
vt 0.147663 0.688184
vt 0.113869 0.868420
vt 0.138587 0.640936
vt 0.127322 0.663465
vt 0.138587 0.663465
vt 0.239970 0.843701
vt 0.169363 0.843701
vt 0.239970 0.824782
vt 0.209421 0.839401
vt 0.113869 0.865004
vt 0.113869 0.665654
vt 0.161117 0.674730
vt 0.161117 0.809907
vt 0.341353 0.843701
vt 0.127322 0.665654
vt 0.141967 0.657769
vt 0.138587 0.654389
vt 0.127322 0.688184
vt 0.130702 0.669034
vt 0.127322 0.674730
vt 0.130702 0.809907
vt 0.130702 0.674730
vt 0.127322 0.688184
vt 0.130702 0.669034
vt 0.130702 0.685931
vt 0.138587 0.654389
vt 0.127322 0.665654
vt 0.161117 0.654389
vt 0.141967 0.657769
vt 0.282840 0.657769
vt 0.147663 0.654389
vt 0.147663 0.657769
vt 0.354189 0.318185
vt 0.337291 0.461811
vt 0.354189 0.453362
vt 0.161117 0.654389
vt 0.158864 0.657769
vt 0.337291 0.309736
vt 0.326027 0.461811
vt 0.342988 0.329386
vt 0.486614 0.312488
vt 0.334539 0.312488
vt 0.316635 0.767037
vt 0.297715 0.767037
vt 0.316635 0.696430
vt 0.341353 0.742319
vt 0.322434 0.742319
vt 0.341353 0.671712
vt 0.281202 0.783551
vt 0.322434 0.824782
vt 0.322434 0.843701
vt 0.341353 0.767037
vt 0.341353 0.696430
vt 0.322434 0.767037
vt 0.281202 0.808269
vt 0.341353 0.849501
vt 0.239970 0.868420
vt 0.239970 0.849501
vt 0.169363 0.868420
vt 0.127322 0.821172
vt 0.138587 0.843701
vt 0.138587 0.821172
vt 0.234139 0.839401
vt 0.312334 0.761206
vt 0.143253 0.665654
vt 0.143253 0.665654
vt 0.341353 0.665654
vt 0.341353 0.868420
vt 0.215252 0.868420
vt 0.144645 0.868420
vt 0.215252 0.849501
vt 0.138587 0.640936
vt 0.127322 0.640936
vt 0.138587 0.629671
vt 0.341353 0.640936
vt 0.352618 0.640936
vt 0.341353 0.629671
vt 0.113869 0.879685
vt 0.138587 0.840286
vt 0.138587 0.854966
vt 0.127322 0.843701
vt 0.313219 0.665654
vt 0.327899 0.665654
vt 0.337937 0.640936
vt 0.127322 0.868420
vt 0.138587 0.670320
vt 0.138587 0.868420
vt 0.138587 0.654389
vt 0.127322 0.665654
vt 0.143253 0.629671
vt 0.352618 0.865004
vt 0.352618 0.665654
vt 0.138587 0.670320
vt 0.127322 0.868420
vt 0.138587 0.865004
vt 0.337937 0.665654
vt 0.143253 0.854966
vt 0.337937 0.854966
vt 0.138587 0.654389
vt 0.127322 0.665654
vt 0.239970 0.849501
vt 0.352618 0.840286
vt 0.287616 0.761206
vt 0.215252 0.849501
vt 0.297715 0.767037
vt 0.234139 0.814683
vt 0.312334 0.736488
vt 0.239970 0.824782
vt 0.316635 0.868420
vt 0.316635 0.665654
vt 0.294105 0.665654
vt 0.136398 0.665654
vt 0.113869 0.665654
vt 0.127322 0.640936
vt 0.130702 0.685931
vt 0.127322 0.809907
vt 0.158864 0.657769
vt 0.282840 0.654389
vt 0.326027 0.309736
vt 0.478165 0.329386
vt 0.322434 0.849501
vt 0.127322 0.843701
vt 0.322434 0.868420
vt 0.102604 0.868420
vt 0.316635 0.654389
vt 0.341353 0.629671
vt 0.322434 0.767037
vt 0.322434 0.742319
vn -1.0000 -0.0000 0.0000
vn -0.7071 0.0000 -0.7071
vn 0.2588 0.0000 0.9659
vn 1.0000 0.0000 0.0000
vn 0.0000 0.0000 -1.0000
vn -0.3590 0.8615 -0.3590
vn -0.3590 0.8616 -0.3590
vn -0.2857 0.8571 -0.4286
vn -0.5547 0.0000 -0.8320
vn -0.2857 -0.8571 -0.4286
vn -0.3590 -0.8615 -0.3590
vn -0.4286 -0.8571 -0.2857
vn -0.8320 0.0000 -0.5547
vn -0.4286 0.8571 -0.2857
vn 0.9659 0.0000 0.2588
vn 0.0000 0.2588 0.9659
vn 0.7071 -0.0000 0.7071
vn 0.0000 0.9659 0.2588
vn 0.0000 0.7071 0.7071
vn 0.2588 0.9659 0.0000
vn 0.0000 1.0000 0.0000
vn -0.0000 -1.0000 -0.0000
vn 0.9659 0.2588 0.0000
vn 0.7071 0.7071 0.0000
vn -0.5774 -0.5774 0.5774
vn 0.5774 -0.5773 -0.5774
vn 0.6922 0.1791 0.6991
vn 0.6991 0.1791 0.6922
vn 0.6952 0.1824 0.6952
vn -0.4420 0.6343 0.6343
vn 0.6991 0.6922 0.1791
vn 0.6922 0.6991 0.1791
vn 0.6952 0.6952 0.1824
vn 0.0000 -0.7071 0.7071
vn -0.7071 -0.7071 -0.0000
vn -0.5000 -0.7071 -0.5000
vn 0.0000 -0.7071 -0.7071
vn 0.7071 -0.7071 -0.0000
vn -0.7071 -0.0000 0.7071
vn -0.7071 0.7071 0.0000
vn 0.6017 0.7193 0.3474
vn 0.0000 0.7071 -0.7071
vn -0.5000 0.7071 -0.5000
vn 0.1824 0.6952 0.6952
vn 0.3474 0.7193 0.6017
vn 0.1791 0.6991 0.6922
vn 0.7071 0.0000 -0.7071
vn 0.7193 0.6017 0.3474
vn 0.7193 0.3474 0.6017
vn 0.3474 0.6017 0.7193
vn 0.1791 0.6922 0.6991
vn 0.6017 0.3474 0.7193
vn 0.0000 -0.0000 1.0000
vn 0.6343 -0.4420 0.6343
vn 0.6343 0.6343 -0.4420
usemtl FrontColor
s 1
f 2/1/1 3/2/1 22/3/1
f 26/4/2 4/5/2 5/6/2
f 47/7/3 36/8/3 18/9/3
f 54/10/4 33/11/4 29/12/4
f 6/13/5 7/14/5 43/15/5
f 4/16/6 10/17/7 5/18/7
f 3/19/8 9/20/8 4/16/8
f 3/21/9 12/22/9 11/23/9
f 2/24/10 13/25/10 12/26/10
f 8/27/11 13/25/11 1/28/11
f 7/29/12 14/30/12 8/27/12
f 15/31/13 6/32/13 16/33/13
f 16/34/5 14/35/5 15/36/5
f 6/37/14 10/17/14 16/38/14
f 10/39/2 13/40/2 14/35/2
f 11/41/1 13/42/1 9/43/1
f 50/44/15 17/45/15 41/46/15
f 53/47/16 20/48/16 34/49/16
f 19/50/17 17/51/17 50/52/17
f 51/53/18 41/54/18 17/55/18
f 19/56/19 53/57/19 51/53/19
f 56/58/20 18/59/20 36/60/20
f 1/61/2 45/62/2 8/63/2
f 48/64/21 49/65/21 46/66/21
f 27/67/22 30/68/22 32/69/22
f 58/70/23 34/71/23 20/72/23
f 19/56/24 18/59/24 56/58/24
f 21/73/25 22/74/25 23/75/25
f 28/76/26 29/77/26 30/78/26
f 31/79/27 33/11/28 34/71/29
f 35/80/30 37/81/30 38/82/30
f 42/83/31 44/84/32 41/46/33
f 23/75/34 31/85/34 21/73/34
f 22/86/35 25/87/35 23/88/35
f 26/89/36 25/87/36 24/90/36
f 28/76/37 27/91/37 26/4/37
f 33/92/38 30/68/38 29/93/38
f 35/80/39 22/74/39 21/73/39
f 39/94/40 38/95/40 37/96/40
f 49/65/41 41/54/33 44/97/32
f 43/15/42 46/98/42 44/99/42
f 39/94/43 45/100/43 40/101/43
f 36/60/44 48/64/45 37/96/46
f 47/102/45 49/65/41 48/64/45
f 28/76/47 42/103/47 29/77/47
f 41/46/33 52/104/48 42/83/31
f 53/105/49 52/104/48 51/106/48
f 54/10/49 34/71/29 33/11/28
f 55/107/50 36/8/44 35/80/51
f 57/108/52 56/109/50 55/107/50
f 34/49/29 57/108/52 31/85/27
f 21/73/53 31/85/53 57/108/53
f 22/3/1 38/110/1 2/1/1
f 38/110/1 40/111/1 2/1/1
f 40/111/1 1/112/1 2/1/1
f 3/2/1 4/113/1 24/114/1
f 3/2/1 24/114/1 22/3/1
f 26/4/2 24/115/2 4/5/2
f 29/12/4 42/83/4 52/104/4
f 52/104/4 54/10/4 29/12/4
f 43/15/5 28/76/5 6/13/5
f 28/76/5 26/4/5 6/13/5
f 26/4/5 5/6/5 6/13/5
f 7/14/5 8/63/5 45/62/5
f 7/14/5 45/62/5 43/15/5
f 4/16/6 9/20/6 10/17/7
f 3/19/8 11/116/8 9/20/8
f 3/21/9 2/117/9 12/22/9
f 2/24/10 1/28/10 13/25/10
f 8/27/11 14/30/11 13/25/11
f 7/29/12 15/118/12 14/30/12
f 15/31/13 7/119/13 6/32/13
f 16/34/5 10/39/5 14/35/5
f 6/37/14 5/18/14 10/17/14
f 10/39/2 9/120/2 13/40/2
f 11/41/1 12/121/1 13/42/1
f 50/52/17 47/7/17 19/50/17
f 47/7/17 18/9/17 19/50/17
f 51/53/19 17/55/19 19/56/19
f 19/56/19 20/122/19 53/57/19
f 1/61/2 40/123/2 45/62/2
f 49/65/21 44/97/21 46/66/21
f 46/66/21 39/94/21 48/64/21
f 39/94/21 37/96/21 48/64/21
f 32/69/22 23/88/22 25/87/22
f 25/87/22 27/67/22 32/69/22
f 56/58/24 58/124/24 19/56/24
f 58/124/24 20/122/24 19/56/24
f 31/79/54 32/125/54 33/11/54
f 35/80/51 36/8/44 37/81/46
f 42/83/55 43/126/55 44/84/55
f 23/75/34 32/127/34 31/85/34
f 22/86/35 24/90/35 25/87/35
f 26/89/36 27/67/36 25/87/36
f 28/76/37 30/78/37 27/91/37
f 33/92/38 32/69/38 30/68/38
f 35/80/39 38/82/39 22/74/39
f 39/94/40 40/101/40 38/95/40
f 49/65/41 50/128/41 41/54/33
f 43/15/42 45/62/42 46/98/42
f 39/94/43 46/66/43 45/100/43
f 36/60/44 47/102/45 48/64/45
f 47/102/45 50/128/41 49/65/41
f 28/76/47 43/15/47 42/103/47
f 41/46/33 51/106/48 52/104/48
f 53/105/49 54/10/49 52/104/48
f 54/10/49 53/105/49 34/71/29
f 55/107/50 56/109/50 36/8/44
f 57/108/52 58/129/52 56/109/50
f 34/49/29 58/129/52 57/108/52
f 57/108/53 55/107/53 21/73/53
f 55/107/53 35/80/53 21/73/53
o DarkLightBasicBoi
v -0.600000 0.000000 0.000000
v -0.500000 0.130000 0.130000
v -0.500000 0.130000 -0.130000
v -0.500000 -0.130000 0.130000
v -0.500000 -0.130000 -0.130000
v 0.130000 0.500000 0.130000
v 0.000000 0.600000 0.000000
v -0.130000 0.500000 0.130000
v 0.130000 0.500000 -0.130000
v -0.130000 0.500000 -0.130000
v -0.130000 0.130000 0.500000
v 0.000000 -0.000000 0.600000
v 0.130000 0.130000 0.500000
v -0.130000 -0.130000 0.500000
v 0.130000 -0.130000 0.500000
v 0.500000 0.130000 0.130000
v 0.600000 0.000000 0.000000
v 0.500000 0.130000 -0.130000
v 0.500000 -0.130000 0.130000
v 0.500000 -0.130000 -0.130000
v 0.130000 0.130000 -0.500000
v 0.000000 0.000000 -0.600000
v -0.130000 0.130000 -0.500000
v 0.130000 -0.130000 -0.500000
v -0.130000 -0.130000 -0.500000
v 0.130000 -0.500000 0.130000
v 0.000000 -0.600000 -0.000000
v 0.130000 -0.500000 -0.130000
v -0.130000 -0.500000 0.130000
v -0.130000 -0.500000 -0.130000
vt 0.906427 0.218611
vt 0.935980 0.248164
vt 0.935980 0.189058
vt 0.876873 0.248164
vt 0.876873 0.189058
vt 0.935980 0.248164
vt 0.906427 0.218611
vt 0.876873 0.248164
vt 0.935980 0.189058
vt 0.876873 0.189058
vt 0.876873 0.248164
vt 0.906427 0.218611
vt 0.935980 0.248164
vt 0.876873 0.189058
vt 0.935980 0.189058
vt 0.935980 0.248164
vt 0.906427 0.218611
vt 0.935980 0.189058
vt 0.876873 0.248164
vt 0.876873 0.189058
vt 0.935980 0.248164
vt 0.906427 0.218611
vt 0.876873 0.248164
vt 0.935980 0.189058
vt 0.876873 0.189058
vt 0.935980 0.248164
vt 0.906427 0.218611
vt 0.935980 0.189058
vt 0.876873 0.248164
vt 0.876873 0.189058
vn -0.7926 0.6097 0.0000
vn -0.7926 -0.0000 0.6097
vn -0.7926 -0.6097 -0.0000
vn -0.7926 0.0000 -0.6097
vn 0.0000 0.7926 0.6097
vn 0.6097 0.7926 0.0000
vn 0.0000 0.7926 -0.6097
vn -0.6097 0.7926 0.0000
vn 0.0000 0.6097 0.7926
vn -0.6097 -0.0000 0.7926
vn 0.0000 -0.6097 0.7926
vn 0.6097 -0.0000 0.7926
vn 0.7926 0.6097 0.0000
vn 0.7926 -0.0000 0.6097
vn 0.7926 -0.6097 -0.0000
vn 0.7926 0.0000 -0.6097
vn 0.0000 0.6097 -0.7926
vn 0.6097 0.0000 -0.7926
vn 0.0000 -0.6097 -0.7926
vn -0.6097 0.0000 -0.7926
vn 0.6097 -0.7926 0.0000
vn 0.0000 -0.7926 0.6097
vn -0.6097 -0.7926 0.0000
vn 0.0000 -0.7926 -0.6097
usemtl Color_M03
s 1
f 59/130/56 60/131/56 61/132/56
f 60/131/57 59/130/57 62/133/57
f 62/133/58 59/130/58 63/134/58
f 61/132/59 63/134/59 59/130/59
f 64/135/60 65/136/60 66/137/60
f 65/136/61 64/135/61 67/138/61
f 68/139/62 65/136/62 67/138/62
f 66/137/63 65/136/63 68/139/63
f 69/140/64 70/141/64 71/142/64
f 72/143/65 70/141/65 69/140/65
f 70/141/66 72/143/66 73/144/66
f 70/141/67 73/144/67 71/142/67
f 74/145/68 75/146/68 76/147/68
f 77/148/69 75/146/69 74/145/69
f 75/146/70 77/148/70 78/149/70
f 75/146/71 78/149/71 76/147/71
f 79/150/72 80/151/72 81/152/72
f 82/153/73 80/151/73 79/150/73
f 80/151/74 82/153/74 83/154/74
f 80/151/75 83/154/75 81/152/75
f 84/155/76 85/156/76 86/157/76
f 85/156/77 84/155/77 87/158/77
f 85/156/78 87/158/78 88/159/78
f 85/156/79 88/159/79 86/157/79
