# Blender v2.91.2 OBJ File: ''
# www.blender.org
mtllib Left_Transition_SlopeC.mtl
o Cube.061_Cube.101
v 0.498665 0.446295 1.470000
v 0.504339 0.447000 -0.447000
v 0.504339 0.447000 1.447000
v 0.452110 0.471533 -0.436435
v -0.421554 0.101195 1.470000
v -0.442746 -0.000000 1.464338
v -0.446725 -0.447000 1.470000
v -0.446725 -0.470000 1.447000
v -0.446725 -0.470000 -0.447000
v -0.450024 0.384993 -0.470801
v -0.450966 0.448532 -0.470802
v -0.446725 -0.447000 -0.470000
v 0.498665 -0.447000 1.470000
v 0.487743 -0.470000 -0.447000
v 0.487743 -0.470000 1.447000
v 0.504339 -0.447000 1.447000
v 0.504339 -0.447000 -0.447000
v 0.467981 -0.447000 -0.470000
v 0.498665 0.469295 1.447000
v 0.487127 0.513437 1.447000
v 0.465252 0.525760 1.428928
v 0.118268 0.415592 1.428928
v -0.102544 0.498345 0.017212
v -0.102253 0.501327 -0.450286
v -0.102253 0.467844 -0.493627
v -0.102253 0.494357 -0.467114
v 0.093566 0.501327 -0.450286
v 0.093566 0.494357 -0.467114
v 0.452445 0.501327 -0.093468
v 0.469273 0.494357 -0.093468
v 0.495786 0.467844 -0.093468
v 0.467981 0.446295 -0.470000
v 0.093566 0.467844 -0.493627
v 0.093566 0.451016 -0.500597
v 0.097807 -0.449483 -0.499794
v -0.102253 0.451016 -0.500597
v -0.098012 -0.449483 -0.499794
v 0.097807 -0.499794 -0.449483
v 0.097807 -0.499794 1.449483
v 0.097807 -0.492824 1.466311
v 0.097807 -0.466311 1.492824
v 0.097807 -0.449483 1.499794
v 0.097807 0.349483 1.499794
v -0.098012 -0.466311 1.492824
v -0.098012 -0.492824 1.466311
v -0.098012 -0.449483 1.499794
v -0.098012 0.249483 1.499794
v -0.118986 0.255258 1.489936
v -0.098012 -0.499794 1.449483
v -0.098012 -0.499794 -0.449483
v -0.479742 -0.447000 1.447000
v -0.479742 -0.447000 -0.447000
v -0.495661 -0.429659 1.429659
v -0.495661 -0.429659 -0.429659
v -0.500890 -0.000000 1.429659
v -0.500890 0.000000 -0.429659
v -0.483983 0.448532 -0.447803
v -0.469482 0.448532 -0.307863
v -0.428266 0.448532 -0.148783
v -0.495661 0.047000 1.429659
v -0.450546 0.145005 1.447000
v -0.479742 0.047000 1.447000
v -0.436890 0.170696 1.428928
vt 0.308689 0.778012
vt 0.239727 0.189221
vt 0.048275 0.188896
vt 0.460557 0.958252
vt 0.048275 0.173897
vt 0.987290 0.663049
vt 0.000000 0.000000
vt 0.218140 0.173897
vt 0.668262 0.975167
vt 0.790043 0.969886
vt 0.466802 0.968562
vt 0.000000 0.000000
vt 0.000000 0.000000
vt 0.466584 0.947642
vt 0.681022 0.973533
vt 0.000000 0.000000
vt 0.000000 0.000000
vt 0.668262 0.975167
vt 0.546896 0.968562
vt 0.307228 0.860597
vt 0.987290 0.958252
vt 0.000000 0.000000
vt 0.000000 0.000000
vt 0.048275 0.173897
vt 0.239727 0.174222
vt 0.000000 0.000000
vt 0.547771 0.947642
vt 0.000000 0.000000
vt 0.196880 0.188896
vt 0.198107 0.190503
vt 0.000000 0.000000
vt 0.048275 0.188896
vt 0.095686 0.200208
vt 0.000000 0.000000
vt 0.466802 0.661278
vt 0.695737 0.950393
vt 0.681022 0.968562
vt 0.095686 0.146729
vt 0.019824 0.174222
vt 0.000000 0.000000
vt 0.807666 0.666652
vt 0.981046 0.947164
vt 0.981046 0.954126
vt 0.987290 0.946944
vt 0.016246 0.174222
vt 0.016246 0.189221
vt 0.019824 0.189221
vt 0.460557 0.672631
vt 0.469670 0.677586
vt 0.243305 0.189221
vt 0.243305 0.174222
vt 0.248942 0.189221
vt 0.248942 0.174222
vt 0.427306 0.173897
vt 0.432943 0.173897
vt 0.432943 0.188896
vt 0.427306 0.188896
vt 0.044697 0.188896
vt 0.044697 0.173897
vt 0.019995 0.188896
vt 0.019995 0.173897
vt 0.423728 0.173897
vt 0.423728 0.188896
vt 0.981046 0.958252
vt 0.981046 0.968562
vt 0.466802 0.958252
vt 0.976337 0.673423
vt 0.471510 0.673423
vt 0.466802 0.668007
vt 0.981046 0.668007
vt 0.471510 0.807585
vt 0.976337 0.807585
vt 0.466802 0.668007
vt 0.981046 0.668007
vt 0.981046 0.660826
vt 0.466802 0.660826
vt 0.987290 0.668007
vt 0.546896 0.661278
vt 0.540651 0.666460
vt 0.546896 0.672631
vt 0.000000 0.000000
vt 0.000000 0.000000
vt 0.040496 0.893587
vt 0.000000 0.000000
vt 0.000000 0.000000
vt 0.308027 0.487303
vt 0.095686 0.145441
vt 0.811011 0.673483
vt 0.308027 0.893587
vt 0.000000 0.000000
vt 0.000000 0.000000
vt 0.000000 0.000000
vt 0.118195 0.893587
vt 0.118195 0.487303
vt 0.551605 0.973533
vt 0.308878 0.764381
vt 0.000000 0.000000
vt 0.000000 0.000000
vt 0.789436 0.672631
vt 0.789627 0.661278
vt 0.000000 0.000000
vt 0.000000 0.000000
vt 0.504579 0.947642
vt 0.790044 0.959576
vt 0.551605 0.973533
vt 0.010609 0.189221
vt 0.302973 0.838890
vt 0.308027 0.956484
vt 0.000000 0.000000
vt 0.707632 0.959445
vt 0.714608 0.955181
vt 0.095686 0.202239
vt 0.981046 0.967909
vt 0.981046 0.663049
vt 0.000000 0.000000
vt 0.000000 0.000000
vt 0.781100 0.781830
vn -0.0891 0.0023 -0.9960
vn -0.2507 0.0709 -0.9655
vn -0.3001 0.0058 -0.9539
vn -0.1836 -0.0627 -0.9810
vn 0.0741 -0.0000 0.9972
vn 0.1061 0.1511 0.9828
vn -0.6780 0.0615 -0.7325
vn -0.6788 -0.0922 -0.7285
vn -0.6832 0.0823 -0.7256
vn -0.1370 0.9906 0.0062
vn -0.0806 0.9940 0.0743
vn -0.8918 0.4437 0.0889
vn -0.9108 0.4049 0.0809
vn -0.9077 0.3849 0.1670
vn -0.6341 -0.0000 0.7733
vn -0.6317 -0.0334 0.7745
vn -0.6305 0.1053 0.7690
vn -0.3717 0.1023 0.9227
vn -0.4084 0.0152 0.9127
vn -0.3134 0.0157 0.9495
vn 0.0808 -0.0003 -0.9967
vn 0.1129 0.2449 -0.9629
vn 0.2319 0.0963 -0.9679
vn -0.0639 0.9979 0.0063
vn -0.1313 0.9827 0.1310
vn -0.1768 0.9829 0.0520
vn -0.2338 0.3261 0.9159
vn -0.2990 0.6062 0.7369
vn -0.2972 0.6067 0.7373
vn -0.0887 0.0018 0.9961
vn -0.0518 -0.0934 0.9943
vn 0.8451 0.5345 -0.0111
vn 0.8315 0.5550 0.0262
vn -0.3510 0.0658 0.9341
vn -0.3378 0.1122 0.9345
vn -0.4330 0.0840 0.8975
vn -0.3063 -0.0736 0.9491
vn 0.0512 0.9987 0.0035
vn 0.0129 0.9998 -0.0119
vn 0.0161 0.9997 -0.0162
vn 0.0549 0.9966 -0.0608
vn 0.0858 0.9926 -0.0863
vn 0.0857 0.9930 -0.0811
vn -0.0076 0.3229 0.9464
vn -0.2064 -0.2001 0.9578
vn 0.9482 0.2936 0.1212
vn 0.8266 0.3175 -0.4646
vn 0.9743 -0.0647 0.2159
vn 0.0024 0.9807 -0.1955
vn 0.0000 0.8315 -0.5556
vn 0.0025 0.9761 -0.2172
vn 0.2773 0.6680 -0.6905
vn -0.1094 0.9440 -0.3112
vn 0.7887 0.4687 -0.3979
vn -0.0000 -0.0006 -1.0000
vn 0.0000 0.5556 -0.8315
vn -0.0000 0.3824 -0.9240
vn 0.2704 -0.5870 -0.7631
vn -0.0172 -0.3520 -0.9358
vn 0.0000 -0.8315 0.5556
vn 0.0000 -0.5556 0.8315
vn -0.0000 -0.1951 0.9808
vn -0.1569 0.3011 0.9406
vn -0.0163 0.0320 0.9994
vn -0.0827 -0.9647 -0.2500
vn 0.0321 -0.9638 -0.2647
vn 0.0000 -0.9808 0.1951
vn -0.3174 -0.8975 0.3063
vn -0.6938 -0.5826 0.4234
vn -0.6673 -0.4501 -0.5934
vn -0.3134 -0.9012 -0.2993
vn -0.3626 -0.3720 0.8545
vn -0.8381 -0.3902 0.3813
vn -0.8381 -0.3902 -0.3813
vn -0.8667 -0.4174 -0.2733
vn -0.8800 -0.2867 0.3786
vn -0.3192 -0.4588 -0.8292
vn -0.9995 -0.0331 0.0009
vn -0.9999 -0.0122 -0.0000
vn -0.9983 0.0587 0.0004
vn 0.8852 -0.2730 -0.3766
vn 0.9529 -0.3010 0.0371
vn 0.4627 -0.8522 0.2440
vn 0.4179 -0.8430 -0.3386
vn 0.6444 -0.5218 0.5591
vn 0.3334 -0.2661 -0.9044
vn -0.0849 -0.5545 0.8278
vn -0.0849 -0.8278 0.5545
vn 0.5868 0.8095 -0.0173
vn 0.4624 0.8850 -0.0546
vn 0.3749 0.7284 0.5735
vn -0.1857 0.9810 0.0558
vn -0.0849 -0.9775 0.1932
vn 0.0760 -0.9782 0.1935
vn -0.7364 -0.0743 -0.6724
vn -0.5472 0.0222 -0.8367
vn -0.0816 -0.0014 -0.9967
vn 0.0753 -0.8318 0.5500
vn -0.1296 0.9855 0.1098
vn -0.1635 0.9860 0.0335
vn -0.1381 0.9850 0.1032
vn -0.1214 0.9135 -0.3884
vn -0.1600 0.7541 -0.6370
vn -0.0475 0.9797 -0.1945
vn 0.0745 -0.5598 0.8253
vn -0.6217 0.6463 0.4424
vn -0.8632 0.5048 0.0035
vn -0.8725 0.4551 0.1778
vn -0.7403 -0.0426 0.6709
vn -0.5716 -0.0000 0.8205
vn -0.1036 0.8324 -0.5444
vn -0.0907 0.4221 -0.9020
vn -0.0814 -0.3814 0.9208
vn 0.0934 0.8509 -0.5169
vn 0.0894 0.5928 -0.8004
vn -0.3108 0.1160 0.9434
vn -0.3971 -0.0382 0.9170
vn -0.2266 0.0094 0.9739
vn -0.0194 0.5183 -0.8550
vn -0.4968 -0.0034 -0.8678
vn 0.3681 0.9250 -0.0938
vn 0.5497 0.8334 -0.0564
vn -0.0922 0.9920 0.0857
vn -0.5829 0.7348 0.3467
vn -0.5412 0.8392 0.0523
vn 0.0000 0.9999 -0.0130
vn -0.6528 0.3760 0.6576
vn -0.7363 0.0923 0.6703
vn -0.7208 0.1107 0.6843
vn -0.7195 0.2144 0.6605
vn -0.2610 0.4778 0.8388
vn -0.2656 0.4712 0.8411
vn -0.2910 0.7337 0.6140
vn 0.0709 -0.3817 0.9216
vn 0.0168 0.2572 -0.9662
vn -0.0889 0.0812 -0.9927
vn 0.7069 0.7069 -0.0246
vn 0.9245 -0.1671 -0.3427
vn -0.9977 0.0546 -0.0401
vn -0.9990 -0.0439 0.0053
vn -0.3598 0.9231 0.1356
vn -0.5488 0.8346 -0.0478
vn -0.2413 0.7380 0.6302
vn 0.0952 0.9210 -0.3778
vn 0.7070 0.7070 -0.0170
usemtl Material.042
s off
f 10/1/1 36/2/2 37/3/3 12/4/4
f 42/5/5 13/6/6 1/7/5 43/8/5
f 56/9/7 57/10/8 52/11/9
f 23/12/10 24/13/10 57/14/11
f 60/15/12 61/16/13 57/10/14
f 62/17/15 55/18/16 51/19/17
f 6/20/18 62/17/19 7/21/20
f 32/22/21 18/23/21 35/24/22 34/25/23
f 21/26/24 24/13/24 23/12/24
f 59/27/25 21/26/26 23/12/26
f 5/28/27 47/29/27 61/16/27
f 48/30/28 43/31/29 61/16/29
f 47/29/30 5/28/30 7/21/31 46/32/30
f 31/33/32 20/34/32 2/35/33
f 6/20/34 5/36/35 61/16/36 62/37/37
f 29/38/38 27/39/39 21/26/40
f 29/38/41 4/40/42 27/39/43
f 1/7/44 20/41/45 43/31/44
s 1
f 3/42/46 19/43/47 1/44/48
f 27/39/49 28/45/50 26/46/50 24/47/51
f 32/48/52 4/49/53 2/35/54
f 36/2/55 25/50/56 33/51/56 34/25/57
f 25/50/56 26/52/50 28/53/50 33/51/56
f 35/24/58 37/3/59 36/2/55 34/25/57
f 40/54/60 41/55/61 44/56/61 45/57/60
f 46/32/62 44/58/61 41/59/61 42/5/62
f 47/29/63 46/32/62 42/5/62 43/8/64
f 50/60/65 38/61/66 39/62/67 49/63/67
f 39/62/67 40/54/60 45/57/60 49/63/67
f 8/64/68 51/65/69 52/11/70 9/66/71
f 8/64/68 7/21/72 51/65/69
f 53/67/73 54/68/74 52/69/75 51/70/76
f 9/66/71 52/11/70 12/4/77
f 56/71/78 54/68/79 53/67/79 55/72/80
f 17/73/81 16/74/82 15/75/83 14/76/84
f 16/74/82 13/77/85 15/75/83
f 17/78/81 14/79/84 18/80/86
f 38/81/66 50/60/65 37/3/59 35/24/58
f 16/82/82 17/83/81 2/84/54 3/85/46
f 44/56/87 7/21/72 8/86/68 45/57/88
f 30/87/89 29/38/90 21/88/91 20/41/92
f 9/89/71 50/90/65 49/91/93 8/86/68
f 45/57/88 8/86/68 49/91/93
f 39/92/94 38/61/66 14/93/84 15/94/83
f 54/95/74 56/9/95 52/69/75
f 11/96/96 10/1/97 12/97/77
f 17/98/81 18/80/86 32/99/52 2/100/54
f 18/80/86 14/101/84 38/81/66 35/24/58
f 13/102/85 16/74/82 3/42/46 1/44/48
f 15/94/83 40/54/98 39/62/94
f 58/103/99 23/12/100 57/14/101
f 24/13/102 11/104/103 57/10/104
f 13/6/85 41/55/105 40/54/98 15/94/83
f 61/16/106 58/103/107 57/14/108
f 55/18/109 53/105/73 51/19/76
f 7/21/72 62/17/110 51/65/69
f 26/46/111 25/106/112 11/96/103
f 24/47/102 26/46/111 11/96/103
f 46/32/113 7/21/72 44/56/87
f 28/53/114 4/49/53 32/22/52 33/51/115
f 5/107/116 6/20/117 7/108/118
f 33/51/115 32/22/52 34/25/119
f 12/97/77 52/11/70 57/10/120 11/104/96
f 29/38/121 30/109/122 2/35/54 4/49/53
f 59/27/123 23/12/100 58/103/99
f 61/110/106 63/111/124 58/103/107
f 63/111/124 59/27/125 58/103/107
f 21/26/126 27/39/49 24/47/51
f 62/37/127 60/15/128 55/18/129
f 62/37/127 61/16/130 60/15/128
f 47/29/63 48/30/131 61/16/132
f 43/31/133 63/111/124 61/110/106
f 13/6/85 42/5/134 41/59/105
f 43/31/64 48/30/131 47/29/63
f 11/96/103 25/50/112 36/2/135 10/1/136
f 30/112/122 31/33/137 2/35/54
f 20/113/138 19/114/47 2/35/54
f 19/43/47 3/42/46 2/84/54
f 12/4/77 37/115/59 50/90/65 9/116/71
f 55/18/80 60/15/139 57/10/140 56/71/78
f 63/111/124 22/117/141 59/27/125
f 22/117/141 21/88/142 59/27/125
f 43/31/133 22/117/143 63/111/124
f 43/31/133 20/41/92 21/88/91 22/117/143
f 4/49/53 28/53/114 27/39/144
f 20/34/92 31/33/145 30/112/89
f 1/44/48 19/43/47 20/113/138
