# Blender v2.91.2 OBJ File: ''
# www.blender.org
mtllib Old_Star_Left_Slope_BlockC.mtl
o Cube.049_Cube.001
v -0.453456 0.510989 -0.455366
v -0.459006 -0.458416 -0.460170
v -0.455443 -0.461662 1.462003
v -0.225855 -0.450639 1.454297
v 0.081418 -0.470294 1.256084
v 0.339310 -0.470586 0.940910
v 0.444882 -0.462582 -0.458641
v 0.427903 -0.470149 0.613138
v 0.005278 0.000000 -0.535880
v 0.005278 -0.535880 -0.000000
v -0.530352 -0.000000 0.998324
v -0.530352 0.000000 -0.001676
v 0.005278 -0.535880 1.000000
v -0.499526 0.457181 -0.059781
v -0.497805 -0.460255 -0.109388
v -0.458924 -0.499752 -0.104072
v 0.016391 -0.499868 -0.463360
v -0.480273 -0.479851 1.172262
v -0.500463 0.327017 0.946426
v -0.437842 0.520634 0.503895
v -0.427042 0.407205 0.914556
v -0.212208 0.407394 0.823212
v -0.060587 0.170049 1.341563
v -0.276853 0.169943 1.419488
v -0.451199 0.143763 1.454764
v -0.433938 0.041946 1.499026
v -0.262990 0.038858 1.478153
v -0.027415 0.038990 1.391885
v -0.031681 -0.433244 1.390245
v 0.230819 -0.433255 1.179838
v 0.235469 0.038991 1.179739
v -0.434694 -0.435988 1.495664
v 0.409520 -0.433260 0.887538
v 0.413940 0.038998 0.885575
v 0.187979 0.170048 1.144351
v -0.067819 0.401289 0.601908
v 0.357796 0.170049 0.869465
v 0.422422 0.169765 0.600528
v -0.075077 0.405788 -0.429187
v 0.436019 0.148575 -0.454125
v 0.479375 0.035195 0.609895
v 0.480119 0.041045 -0.437187
v 0.476749 -0.437268 -0.437925
v 0.474412 -0.434046 0.614129
v 0.050603 -0.456945 -0.502754
v -0.045493 0.327484 -0.504622
vt 0.628176 0.816139
vt 0.601199 0.708298
vt 0.000000 0.000000
vt 0.653472 0.854855
vt 0.210190 0.197161
vt 0.000000 0.000000
vt 0.000000 0.000000
vt 0.000000 0.000000
vt 0.353824 0.133055
vt 0.000000 0.000000
vt 0.000000 0.000000
vt 0.011235 0.135378
vt 0.000000 0.000000
vt 0.000000 0.000000
vt 0.051276 0.125894
vt 0.000000 0.000000
vt 0.578295 0.711416
vt 0.563402 0.717450
vt 0.426534 0.166339
vt 0.000000 0.000000
vt 0.556755 0.392969
vt 0.000000 0.000000
vt 0.000000 0.000000
vt 0.344779 0.202309
vt 0.000000 0.000000
vt 0.354731 0.135288
vt 0.000000 0.000000
vt 0.206787 0.287969
vt 0.286240 0.197381
vt 0.353967 0.297025
vt 0.372728 0.146053
vt 0.000000 0.000000
vt 0.343687 0.165822
vt 0.000000 0.000000
vt 0.000000 0.000000
vt 0.000000 0.000000
vt 0.725743 0.718963
vt 0.642713 0.761472
vt 0.617492 0.696171
vt 0.484938 0.751475
vt 0.532212 0.847692
vt 0.499219 0.814447
vt 0.614600 0.921884
vt 0.553364 0.892368
vt 0.698830 0.806624
vt 0.637960 0.846254
vt 0.000000 0.000000
vt 0.578472 0.854862
vt 0.707409 0.745569
vt 0.707410 0.815267
vt 0.344507 0.365777
vt 0.740701 0.742183
vt 0.788575 0.931589
vt 0.785482 0.674992
vt 0.974317 0.696252
vt 0.000000 0.000000
vt 0.707975 0.694466
vt 0.303139 0.356351
vt 0.617320 0.924839
vt 0.854005 0.700749
vt 0.355109 0.130049
vt 0.010547 0.127297
vt 0.176295 0.219459
vt 0.702700 0.950514
vt 0.737931 0.954264
vt 0.695825 0.961827
vt 0.697298 0.952518
vt 0.973951 0.954939
vt 0.000000 0.000000
vt 0.712253 0.931946
vt 0.710935 0.668394
vt 0.627285 0.942906
vt 0.562479 0.880473
vt 0.632951 0.924861
vt 0.611018 0.931829
vt 0.612164 0.670401
vt 0.524687 0.931140
vt 0.527572 0.682845
vt 0.019897 0.967364
vt 0.090984 0.957971
vt 0.171620 0.927682
vt 0.243548 0.863801
vt 0.273248 0.799679
vt 0.971486 0.964384
vt 0.741579 0.959612
vt 0.275594 0.769449
vt 0.489346 0.742758
vt 0.511459 0.806641
vt 0.295917 0.135512
vt 0.222635 0.962332
vt 0.062555 0.967380
vt 0.001377 0.006894
vt 0.472494 0.669853
vt 0.481035 0.690440
vt 0.472494 0.690473
vt 0.075207 0.040515
vt 0.778530 0.862811
vt 0.479029 0.930382
vt 0.482117 0.696780
vt 0.483595 0.695600
vt 0.460490 0.929814
vt 0.500894 0.701927
vt 0.000000 0.000000
vt 0.740690 0.828469
vn 0.9058 0.3983 0.1442
vn 0.8637 0.4603 0.2052
vn 0.8921 0.4000 0.2100
vn -0.9897 -0.0181 0.1419
vn -0.0960 -0.9953 0.0078
vn 0.1539 -0.0187 -0.9879
vn 0.2108 0.0619 -0.9756
vn 0.9227 0.3855 0.0035
vn 0.8951 0.4457 -0.0062
vn -0.0718 -0.9929 -0.0947
vn -0.9970 0.0778 0.0046
vn 0.0873 -0.9933 -0.0751
vn -0.9975 -0.0705 -0.0000
vn 0.1496 -0.9887 -0.0046
vn 0.1645 -0.9864 -0.0000
vn -0.0898 -0.9935 0.0701
vn -0.9983 -0.0385 -0.0447
vn -0.9929 -0.0445 -0.1101
vn -0.9863 -0.0592 -0.1542
vn -0.9914 0.0569 -0.1180
vn -0.9871 0.0064 -0.1600
vn -0.0828 -0.0802 -0.9933
vn 0.2458 0.1134 -0.9627
vn 0.1463 0.1164 -0.9824
vn -0.0831 0.0819 -0.9932
vn -0.0965 -0.1055 -0.9897
vn -0.1666 0.0058 -0.9860
vn -0.9981 0.0080 -0.0607
vn -0.9927 0.0532 -0.1084
vn -0.9845 0.1115 0.1356
vn -0.7401 0.6725 0.0053
vn -0.9085 0.4145 0.0528
vn 0.2317 0.9362 0.2643
vn 0.1986 0.9760 0.0892
vn -0.2861 0.9019 0.3235
vn 0.2368 -0.6255 0.7435
vn 0.4469 -0.7748 0.4472
vn 0.3692 -0.4760 0.7982
vn 0.6009 -0.7576 0.2550
vn 0.6108 -0.4900 0.6219
vn 0.3540 0.9308 0.0914
vn 0.7835 0.2039 0.5870
vn 0.8852 0.1998 0.4202
vn 0.5696 0.7654 0.2996
vn 0.5459 0.6852 0.4821
vn 0.3057 0.2002 0.9309
vn 0.4683 0.2749 0.8397
vn 0.3516 0.6902 0.6324
vn 0.1451 0.7083 0.6909
vn 0.9828 -0.0077 0.1846
vn 0.8971 -0.4398 0.0435
vn 0.8751 -0.2818 -0.3934
vn 0.7889 0.0239 -0.6141
vn -0.3777 0.1549 0.9129
vn -0.1317 0.6270 0.7678
vn -0.6481 0.7064 0.2845
vn 0.3406 0.8821 -0.3256
vn 0.2906 0.9521 -0.0953
vn -0.7041 -0.7099 -0.0160
vn -0.7096 -0.7036 -0.0380
vn -0.7613 -0.6474 -0.0375
vn -0.9926 -0.1212 0.0117
vn 0.4330 0.9004 0.0434
vn 0.4357 0.8972 -0.0720
vn 0.5511 -0.8344 0.0048
vn 0.6600 -0.4758 -0.5815
vn 0.8662 -0.4244 0.2637
vn 0.0042 -0.6469 -0.7625
vn 0.0263 -0.6872 -0.7260
vn -0.0191 -0.6677 -0.7442
vn -0.3522 -0.7786 0.5193
vn 0.1658 -0.9712 0.1713
vn 0.1305 -0.9691 0.2094
vn 0.2059 -0.9747 0.0871
vn 0.2006 -0.9782 0.0529
vn 0.3636 0.1116 -0.9248
vn 0.0717 -0.7719 -0.6317
vn -0.9950 -0.0995 0.0121
vn -0.3445 -0.2650 0.9006
vn 0.3037 0.7180 -0.6263
usemtl Material.003
s off
f 34/1/1 41/2/2 38/3/3 37/4/3
f 25/5/4 11/6/4 18/7/4 3/8/4
f 16/9/5 10/10/5 13/11/5 18/12/5
f 45/13/6 9/14/6 40/15/7 7/16/6
f 38/17/8 41/2/8 42/18/9 40/15/8
f 17/19/10 10/10/10 16/20/10 2/21/10
f 12/22/11 11/6/11 19/23/11 14/24/11
f 7/16/12 10/10/12 17/25/12
f 11/6/13 12/22/13 15/26/13
f 13/11/14 7/16/14 8/27/14
f 13/11/15 10/10/15 7/16/15
f 18/12/16 13/11/16 3/28/16
f 2/29/17 15/26/18 12/22/18
f 1/30/19 2/29/20 12/22/21
f 2/29/22 9/14/22 45/31/22
f 40/15/23 9/14/24 46/32/24
f 46/33/25 9/14/25 1/34/25
f 1/30/26 9/14/27 2/29/27
f 1/30/28 12/22/29 14/35/29
f 19/23/30 11/6/30 25/5/30
f 1/30/31 14/24/31 20/36/31
f 20/37/32 14/24/32 19/23/32
s 1
f 22/38/33 20/37/34 21/39/35
f 4/40/36 5/41/37 29/42/38
f 5/41/37 6/43/39 30/44/40
f 36/45/41 20/37/34 22/38/33
f 31/46/42 34/1/43 37/47/44 35/48/45
f 27/49/46 28/50/47 23/51/48 24/52/49
f 41/53/50 44/54/51 43/55/52 42/56/53
f 26/57/54 27/49/46 24/52/49 25/58/55
f 21/59/35 20/37/34 19/23/56
f 39/60/57 1/30/58 20/37/34 36/45/41
f 2/29/59 16/20/60 15/61/61
f 18/62/62 15/61/61 16/9/60
f 36/63/41 38/64/63 40/65/64 39/60/57
f 44/66/51 8/67/65 7/68/66 43/69/52
f 41/53/50 34/70/43 33/71/67 44/54/51
f 44/66/51 33/72/67 6/43/39 8/67/65
f 22/38/33 35/73/45 37/74/44 36/63/41
f 38/64/63 36/63/41 37/74/44
f 34/70/43 31/75/42 30/76/40 33/71/67
f 2/21/68 45/31/69 17/19/70
f 6/43/39 33/72/67 30/44/40
f 31/75/42 28/77/47 29/78/38 30/76/40
f 3/79/71 13/11/72 4/80/36
f 4/80/36 13/11/72 5/81/73
f 5/81/73 13/11/72 6/82/74
f 6/82/74 13/11/72 8/83/75
f 42/18/53 43/84/52 7/68/66
f 42/85/53 7/86/66 40/15/76
f 21/39/35 24/87/49 23/88/48 22/38/33
f 17/19/70 45/31/69 7/68/77
f 35/73/45 22/38/33 23/88/48
f 18/62/62 11/6/78 15/89/61
f 25/90/55 3/91/71 26/92/54
f 26/92/54 3/28/71 32/93/79
f 3/94/71 4/40/36 32/95/79
f 40/65/64 46/96/80 39/97/57
f 28/77/47 27/98/46 4/99/36 29/78/38
f 21/39/35 19/23/56 25/100/55
f 39/60/57 46/96/80 1/30/58
f 24/87/49 21/39/35 25/100/55
f 27/98/46 26/101/54 32/102/79 4/99/36
f 28/50/47 31/46/42 35/103/45 23/104/48
f 5/41/37 30/44/40 29/42/38
