# Blender v2.78 (sub 0) OBJ File: 'TACTwo.blend'
# www.blender.org
mtllib TACTwoBlock.mtl
o Solid1.009
v -0.975000 -0.500000 -0.975000
v -1.000000 -0.475000 -0.975000
v -0.975000 -0.475000 -1.000000
v -0.975000 0.500000 0.000000
v -1.000000 0.475000 -0.025000
v -0.975000 -0.500000 -0.000000
v -1.000000 -0.475000 -0.025000
v -0.975000 0.500000 -0.975000
v -0.975000 0.475000 -1.000000
v -1.000000 0.475000 -0.975000
v -0.025000 -0.475000 -1.000000
v -0.025000 0.475000 -1.000000
v 0.000000 -0.500000 -0.975000
v 0.000000 0.500000 -0.975000
v 0.000000 -0.500000 -0.000000
v 0.000000 0.300000 0.000000
v 0.000000 0.300000 -0.014645
v 0.000000 0.500000 0.000000
v 0.000000 0.275000 -0.050000
v 0.000000 -0.275000 -0.050000
v 0.000000 -0.300000 -0.014645
v 0.000000 -0.300000 -0.000000
v 0.975000 -0.500000 0.975000
v 1.000000 -0.475000 0.975000
v 0.975000 -0.475000 1.000000
v 0.025000 -0.475000 1.000000
v 0.025000 0.475000 1.000000
v 0.000000 -0.500000 0.975000
v 0.000000 0.500000 0.975000
v 0.975000 0.500000 0.000000
v 1.000000 0.475000 0.025000
v 0.975000 -0.500000 -0.000000
v 1.000000 -0.475000 0.025000
v 0.975000 0.500000 0.975000
v 0.975000 0.475000 1.000000
v 1.000000 0.475000 0.975000
v 0.014645 0.300000 0.000000
v 0.050000 0.275000 0.000000
v 0.050000 -0.275000 -0.000000
v 0.014645 -0.300000 -0.000000
v 0.000000 0.300000 0.014645
v 0.000000 0.275000 0.050000
v 0.000000 -0.275000 0.050000
v 0.000000 -0.300000 0.014645
v -0.014645 0.300000 0.000000
v -0.050000 0.275000 0.000000
v -0.050000 -0.275000 -0.000000
v -0.014645 -0.300000 -0.000000
vt 0.4506 0.4090
vt 0.4506 0.4090
vt 0.4505 0.4090
vt 0.4506 0.4097
vt 0.4505 0.4097
vt 0.4506 0.4084
vt 0.4505 0.4084
vt 0.4505 0.4091
vt 0.4505 0.4090
vt 0.4505 0.4090
vt 0.4506 0.4097
vt 0.4505 0.4097
vt 0.4506 0.4084
vt 0.4505 0.4084
vt 0.4515 0.4091
vt 0.4502 0.4091
vt 0.4515 0.4090
vt 0.4502 0.4090
vt 0.4506 0.4084
vt 0.4506 0.4097
vt 0.4505 0.4084
vt 0.4505 0.4097
vt 0.4515 0.4090
vt 0.4515 0.4091
vt 0.4502 0.4090
vt 0.4502 0.4091
vt 0.4502 0.4090
vt 0.4515 0.4090
vt 0.4502 0.4091
vt 0.4515 0.4091
vt 0.4502 0.4091
vt 0.4502 0.4090
vt 0.4515 0.4091
vt 0.4515 0.4090
vt 0.4499 0.4084
vt 0.4512 0.4084
vt 0.4499 0.4097
vt 0.4512 0.4097
vt 0.4505 0.4094
vt 0.4506 0.4094
vt 0.4505 0.4097
vt 0.4506 0.4094
vt 0.4518 0.4097
vt 0.4518 0.4084
vt 0.4506 0.4087
vt 0.4505 0.4084
vt 0.4506 0.4086
vt 0.4505 0.4086
vt 0.4518 0.4084
vt 0.4518 0.4097
vt 0.4518 0.4084
vt 0.4518 0.4097
vt 0.4506 0.4090
vt 0.4506 0.4090
vt 0.4505 0.4090
vt 0.4506 0.4084
vt 0.4506 0.4097
vt 0.4505 0.4084
vt 0.4505 0.4097
vt 0.4506 0.4097
vt 0.4505 0.4097
vt 0.4506 0.4084
vt 0.4505 0.4084
vt 0.4505 0.4091
vt 0.4505 0.4090
vt 0.4505 0.4090
vt 0.4506 0.4097
vt 0.4505 0.4097
vt 0.4506 0.4084
vt 0.4505 0.4084
vt 0.4515 0.4091
vt 0.4502 0.4091
vt 0.4515 0.4090
vt 0.4502 0.4090
vt 0.4515 0.4090
vt 0.4515 0.4091
vt 0.4502 0.4090
vt 0.4502 0.4091
vt 0.4502 0.4090
vt 0.4515 0.4090
vt 0.4502 0.4091
vt 0.4515 0.4091
vt 0.4502 0.4091
vt 0.4502 0.4090
vt 0.4515 0.4091
vt 0.4515 0.4090
vt 0.4512 0.4097
vt 0.4499 0.4097
vt 0.4512 0.4084
vt 0.4499 0.4084
vt 0.4519 0.4094
vt 0.4519 0.4097
vt 0.4518 0.4094
vt 0.4518 0.4094
vt 0.4518 0.4087
vt 0.4519 0.4084
vt 0.4518 0.4086
vt 0.4519 0.4086
vt 0.4518 0.4084
vt 0.4518 0.4097
vt 0.4518 0.4097
vt 0.4518 0.4084
vt 0.4499 0.4084
vt 0.4512 0.4084
vt 0.4499 0.4097
vt 0.4512 0.4097
vt 0.4506 0.4094
vt 0.4506 0.4094
vt 0.4518 0.4097
vt 0.4518 0.4084
vt 0.4506 0.4087
vt 0.4506 0.4086
vt 0.4518 0.4094
vt 0.4518 0.4094
vt 0.4518 0.4087
vt 0.4518 0.4086
vt 0.4499 0.4084
vt 0.4512 0.4084
vt 0.4499 0.4097
vt 0.4512 0.4097
vt 0.4355 0.6168
vt 0.4354 0.6167
vt 0.4355 0.6167
vt 0.4354 0.6167
vt 0.4354 0.6168
vt 0.4354 0.6167
vt 0.4354 0.6168
vt 0.4354 0.6168
vt 0.4354 0.6168
vt 0.4354 0.6168
vt 0.4355 0.6168
vt 0.4355 0.6168
vt 0.4355 0.6171
vt 0.4354 0.6171
vt 0.4355 0.6164
vt 0.4354 0.6164
vt 0.4354 0.6167
vt 0.4355 0.6167
vt 0.4355 0.6168
vt 0.4355 0.6168
vt 0.4354 0.6168
vt 0.4355 0.6167
vt 0.4355 0.6167
vt 0.4354 0.6167
vt 0.4355 0.6167
vt 0.4355 0.6168
vt 0.4355 0.6168
vt 0.4355 0.6171
vt 0.4354 0.6171
vt 0.4355 0.6164
vt 0.4354 0.6164
vt 0.4355 0.6168
vt 0.4354 0.6168
vt 0.4355 0.6167
vt 0.4355 0.6167
vn -0.5774 -0.5774 -0.5774
vn -0.7071 -0.0000 0.7071
vn -0.5774 0.5774 -0.5774
vn -0.7071 0.0000 -0.7071
vn -0.7071 0.7071 0.0000
vn 0.7071 0.0000 -0.7071
vn 0.0000 0.7071 -0.7071
vn 0.0000 -0.7071 -0.7071
vn -0.7071 -0.7071 -0.0000
vn 0.0000 -1.0000 -0.0000
vn 1.0000 0.0000 0.0000
vn -1.0000 0.0000 0.0000
vn 0.0000 0.0000 -1.0000
vn 0.5774 -0.5774 0.5774
vn 0.5774 0.5774 0.5774
vn 0.7071 -0.0000 0.7071
vn 0.7071 0.7071 0.0000
vn 0.0000 0.7071 0.7071
vn 0.0000 -0.7071 0.7071
vn 0.7071 -0.7071 -0.0000
vn 0.0000 1.0000 0.0000
vn 0.0000 -0.0000 1.0000
vn 0.5774 0.5774 -0.5773
vn 0.5773 0.5774 -0.5774
vn 0.5773 0.5774 -0.5773
vn -0.5773 -0.5774 0.5774
vn -0.5774 -0.5774 0.5773
vn -0.5773 -0.5774 0.5773
vn -0.5774 0.5774 0.5773
vn -0.5773 0.5774 0.5774
vn -0.5773 0.5774 0.5773
vn 0.5773 -0.5774 -0.5774
vn 0.5774 -0.5774 -0.5773
vn 0.5773 -0.5774 -0.5773
usemtl 191,191,191.009
s 1
f 1/1/1 2/2/1 3/3/1
f 4/4/2 5/5/2 6/6/2
f 6/6/2 5/5/2 7/7/2
f 8/8/3 9/9/3 10/10/3
f 10/11/4 9/12/4 2/13/4
f 2/13/4 9/12/4 3/14/4
f 4/15/5 8/16/5 5/17/5
f 5/17/5 8/16/5 10/18/5
f 11/19/6 12/20/6 13/21/6
f 13/21/6 12/20/6 14/22/6
f 9/23/7 8/24/7 12/25/7
f 12/25/7 8/24/7 14/26/7
f 13/27/8 1/28/8 11/29/8
f 11/29/8 1/28/8 3/30/8
f 2/31/9 1/32/9 7/33/9
f 7/33/9 1/32/9 6/34/9
f 6/35/10 1/36/10 15/37/10
f 15/37/10 1/36/10 13/38/10
f 16/39/11 17/40/11 18/41/11
f 18/41/11 17/40/11 19/42/11
f 18/41/11 19/42/11 14/43/11
f 14/43/11 19/42/11 13/44/11
f 13/44/11 19/42/11 20/45/11
f 13/44/11 20/45/11 15/46/11
f 15/46/11 20/45/11 21/47/11
f 15/46/11 21/47/11 22/48/11
f 2/13/12 7/49/12 10/11/12
f 10/11/12 7/49/12 5/50/12
f 11/19/13 3/51/13 12/20/13
f 12/20/13 3/51/13 9/52/13
f 23/53/14 24/54/14 25/55/14
f 26/56/2 27/57/2 28/58/2
f 28/58/2 27/57/2 29/59/2
f 30/60/6 31/61/6 32/62/6
f 32/62/6 31/61/6 33/63/6
f 34/64/15 35/65/15 36/66/15
f 36/67/16 35/68/16 24/69/16
f 24/69/16 35/68/16 25/70/16
f 30/71/17 34/72/17 31/73/17
f 31/73/17 34/72/17 36/74/17
f 35/75/18 34/76/18 27/77/18
f 27/77/18 34/76/18 29/78/18
f 28/79/19 23/80/19 26/81/19
f 26/81/19 23/80/19 25/82/19
f 24/83/20 23/84/20 33/85/20
f 33/85/20 23/84/20 32/86/20
f 34/87/21 30/88/21 29/89/21
f 29/89/21 30/88/21 18/90/21
f 16/91/13 18/92/13 37/93/13
f 37/93/13 18/92/13 38/94/13
f 38/94/13 18/92/13 30/60/13
f 38/94/13 30/60/13 32/62/13
f 38/94/13 32/62/13 39/95/13
f 39/95/13 32/62/13 15/96/13
f 39/95/13 15/96/13 40/97/13
f 40/97/13 15/96/13 22/98/13
f 24/69/11 33/99/11 36/67/11
f 36/67/11 33/99/11 31/100/11
f 35/101/22 27/57/22 25/102/22
f 25/102/22 27/57/22 26/56/22
f 28/103/10 15/104/10 23/105/10
f 23/105/10 15/104/10 32/106/10
f 16/39/12 41/107/12 18/41/12
f 18/41/12 41/107/12 42/108/12
f 18/41/12 42/108/12 29/109/12
f 29/109/12 42/108/12 28/110/12
f 28/110/12 42/108/12 43/111/12
f 28/110/12 43/111/12 15/46/12
f 15/46/12 43/111/12 44/112/12
f 15/46/12 44/112/12 22/48/12
f 16/91/22 18/92/22 45/113/22
f 45/113/22 18/92/22 46/114/22
f 46/114/22 18/92/22 4/4/22
f 46/114/22 4/4/22 6/6/22
f 46/114/22 6/6/22 47/115/22
f 47/115/22 6/6/22 15/96/22
f 47/115/22 15/96/22 48/116/22
f 48/116/22 15/96/22 22/98/22
f 8/117/21 4/118/21 14/119/21
f 14/119/21 4/118/21 18/120/21
f 37/121/21 17/122/21 16/123/21
f 21/124/10 40/125/10 22/126/10
f 45/127/21 41/128/21 16/129/21
f 44/130/10 48/131/10 22/132/10
f 19/133/6 38/134/6 20/135/6
f 20/135/6 38/134/6 39/136/6
f 38/137/23 19/138/24 37/121/25
f 37/121/25 19/138/24 17/139/25
f 43/140/26 47/141/27 44/142/28
f 44/142/28 47/141/27 48/143/28
f 46/144/29 42/145/30 45/146/31
f 45/146/31 42/145/30 41/147/31
f 42/148/2 46/149/2 43/150/2
f 43/150/2 46/149/2 47/151/2
f 20/152/32 39/153/33 21/154/34
f 21/154/34 39/153/33 40/155/34
