# Blender v2.82 (sub 7) OBJ File: 'HE_Headlight2.blend'
# www.blender.org
mtllib HE_Headlight_Lightbulbs.mtl
o Bulb_HE_ArmouredBlock_112.001
v 0.125001 0.240000 0.078573
v 0.042575 0.240000 0.161000
v -0.528777 0.240000 0.161000
v -0.611204 0.240000 0.078574
v -0.611204 0.240000 -0.078573
v -0.528777 0.240000 -0.161000
v 0.042575 0.240000 -0.161000
v 0.125001 0.240000 -0.078574
v -0.012529 0.240000 -0.161000
v -0.012528 0.240000 0.161000
v 0.075001 0.290000 0.057863
v 0.021864 0.290000 0.111000
v -0.508067 0.290000 0.111000
v -0.561204 0.290000 0.057863
v -0.561204 0.290000 -0.057862
v -0.508067 0.290000 -0.111000
v 0.021864 0.290000 -0.111000
v 0.075001 0.290000 -0.057863
v -0.012529 0.290000 -0.111000
v -0.012528 0.290000 0.111000
vt 0.094211 0.082391
vt 0.094211 0.087747
vt 0.094976 0.088388
vt 0.096640 0.088377
vt 0.097405 0.087679
vt 0.097405 0.081737
vt 0.097405 0.081360
vt 0.096640 0.081014
vt 0.094976 0.081105
vt 0.094211 0.081799
vt 0.098124 0.080925
vt 0.096938 0.080506
vt 0.096938 0.089029
vt 0.098124 0.088019
vt 0.093492 0.088064
vt 0.094678 0.089029
vt 0.094678 0.080528
vt 0.093492 0.081271
vt 0.093492 0.082720
vt 0.098124 0.081370
vn -0.0000 1.0000 -0.0000
vn 0.5000 0.7071 0.5000
vn -0.5000 0.7071 0.5000
vn -0.5000 0.7071 -0.5000
vn 0.5000 0.7071 -0.5000
vn -0.0000 0.7071 -0.7071
vn -0.7071 0.7071 0.0000
vn 0.0000 0.7071 0.7071
vn 0.7071 0.7071 -0.0000
usemtl Default_OBJ
s off
f 19/1/1 16/2/1 15/3/1 14/4/1 13/5/1 20/6/1 12/7/1 11/8/1 18/9/1 17/10/1
f 11/8/2 12/7/2 2/11/2 1/12/2
f 13/5/3 14/4/3 4/13/3 3/14/3
f 15/3/4 16/2/4 6/15/4 5/16/4
f 17/10/5 18/9/5 8/17/5 7/18/5
f 16/2/6 19/1/6 9/19/6 6/15/6
f 14/4/7 15/3/7 5/16/7 4/13/7
f 20/6/8 13/5/8 3/14/8 10/20/8
f 18/9/9 11/8/9 1/12/9 8/17/9
f 12/7/8 20/6/8 10/20/8 2/11/8
f 19/1/6 17/10/6 7/18/6 9/19/6
o Bulb.001_HE_ArmouredBlock_112.002
v -0.912427 -0.086058 -0.160999
v -0.830000 -0.086058 -0.078573
v -0.830000 -0.086058 0.078574
v -0.912427 -0.086058 0.161001
v -1.287807 -0.086058 -0.078572
v -1.205381 -0.086058 -0.160999
v -1.205381 -0.086058 0.161001
v -1.287807 -0.086058 0.078575
v -0.933137 -0.036058 -0.110999
v -0.880000 -0.036058 -0.057862
v -0.880000 -0.036058 0.057864
v -0.933137 -0.036058 0.111001
v -1.237808 -0.036058 -0.057862
v -1.184670 -0.036058 -0.110999
v -1.184670 -0.036058 0.111001
v -1.237808 -0.036058 0.057864
vt 0.151574 0.037785
vt 0.150809 0.038050
vt 0.150809 0.039305
vt 0.151574 0.039570
vt 0.153238 0.039570
vt 0.154003 0.039305
vt 0.154003 0.038050
vt 0.153238 0.037785
vt 0.151276 0.037535
vt 0.150090 0.037947
vt 0.154722 0.037947
vt 0.153536 0.037535
vt 0.150090 0.039408
vt 0.151276 0.039819
vt 0.153536 0.039819
vt 0.154722 0.039408
vn 0.0000 1.0000 -0.0000
vn 0.5000 0.7071 -0.5000
vn 0.5000 0.7071 0.5000
vn -0.5000 0.7071 -0.5000
vn -0.5000 0.7071 0.5000
vn -0.7071 0.7071 -0.0000
vn 0.0000 0.7071 0.7071
vn -0.0000 0.7071 -0.7071
vn 0.7071 0.7071 -0.0000
usemtl Default_OBJ
s off
f 30/21/10 29/22/10 34/23/10 33/24/10 36/25/10 35/26/10 32/27/10 31/28/10
f 29/22/11 30/21/11 22/29/11 21/30/11
f 31/28/12 32/27/12 24/31/12 23/32/12
f 33/24/13 34/23/13 26/33/13 25/34/13
f 35/26/14 36/25/14 28/35/14 27/36/14
f 36/25/15 33/24/15 25/34/15 28/35/15
f 32/27/16 35/26/16 27/36/16 24/31/16
f 34/23/17 29/22/17 21/30/17 26/33/17
f 30/21/18 31/28/18 23/32/18 22/29/18
