# This file uses centimeters as units for non-parametric coordinates.

g default
v -0.500000 0.861236 -1.363718
v 0.500000 0.861236 -1.363718
v -0.500000 -0.412040 -1.646525
v 0.500000 -0.412040 -1.646525
v -0.500000 0.587960 -1.646525
v 0.500000 0.587960 -1.646525
v 0.500000 0.861236 -0.000000
v -0.500000 0.861236 -0.000000
v 0.500000 -0.412040 -0.000000
v -0.500000 -0.412040 -0.000000
v -0.423479 -0.335519 0.715170
v 0.420008 -0.335519 0.715170
v 0.420008 0.511439 0.715170
v -0.423479 0.511439 0.715170
v 0.420008 0.511439 -0.000000
v -0.423479 0.511439 -0.000000
v -0.423479 -0.335519 -0.000000
v 0.420008 -0.335519 -0.000000
vt 0.375000 0.000000
vt 0.625000 0.000000
vt 0.375000 0.250000
vt 0.625000 0.250000
vt 0.375000 0.491537
vt 0.625000 0.491537
vt 0.375000 0.750000
vt 0.625000 0.750000
vt 0.375000 1.000000
vt 0.625000 1.000000
vt 0.875000 0.000000
vt 0.866537 0.250000
vt 0.125000 0.000000
vt 0.133463 0.250000
vt 0.125000 0.201223
vt 0.375000 0.548777
vt 0.625000 0.548777
vt 0.875000 0.201223
vt 0.635350 0.380031
vt 0.756347 0.253576
vt 0.243659 0.253579
vt 0.364807 0.380031
vt 0.635643 0.877246
vt 0.754606 -0.011579
vt 0.245412 -0.011565
vt 0.365126 0.877236
vt 0.625000 0.324294
vt 0.699294 0.250000
vt 0.300706 0.250000
vt 0.375000 0.324294
vt 0.304817 0.000000
vt 0.375000 0.929817
vt 0.625000 0.929817
vt 0.695183 0.000000
vn 0.000000 0.000000 1.000000
vn 0.000000 0.000000 1.000000
vn 0.000000 0.000000 1.000000
vn 0.000000 0.000000 1.000000
vn 0.000000 1.000000 0.000000
vn 0.000000 1.000000 0.000000
vn 0.000000 1.000000 0.000000
vn 0.000000 1.000000 0.000000
vn 0.000000 0.719120 -0.694886
vn 0.000000 0.719120 -0.694886
vn 0.000000 0.719120 -0.694886
vn 0.000000 0.719120 -0.694886
vn 0.000000 -1.000000 0.000000
vn 0.000000 -1.000000 0.000000
vn 0.000000 -1.000000 0.000000
vn 0.000000 -1.000000 0.000000
vn 1.000000 0.000000 0.000000
vn 1.000000 0.000000 0.000000
vn 1.000000 0.000000 0.000000
vn -1.000000 0.000000 0.000000
vn -1.000000 0.000000 0.000000
vn -1.000000 0.000000 0.000000
vn -1.000000 0.000000 0.000000
vn 0.000000 -0.000000 -1.000000
vn 0.000000 -0.000000 -1.000000
vn 0.000000 -0.000000 -1.000000
vn 0.000000 -0.000000 -1.000000
vn 0.000000 1.000000 0.000000
vn 0.000000 1.000000 0.000000
vn 0.000000 1.000000 0.000000
vn 0.000000 1.000000 0.000000
vn 0.000000 -1.000000 0.000000
vn 0.000000 -1.000000 0.000000
vn 0.000000 -1.000000 0.000000
vn 0.000000 -1.000000 0.000000
vn 1.000000 -0.000000 0.000000
vn 1.000000 -0.000000 0.000000
vn 1.000000 -0.000000 0.000000
vn 1.000000 -0.000000 0.000000
vn -1.000000 0.000000 0.000000
vn -1.000000 0.000000 0.000000
vn -1.000000 0.000000 0.000000
vn -1.000000 0.000000 0.000000
vn 0.000000 -0.000000 1.000000
vn 0.000000 -0.000000 1.000000
vn 0.000000 -0.000000 1.000000
vn 0.000000 -0.000000 1.000000
vn -0.000000 0.000000 1.000000
vn -0.000000 0.000000 1.000000
vn -0.000000 0.000000 1.000000
vn -0.000000 0.000000 1.000000
vn 0.000000 -0.000001 1.000000
vn 0.000000 -0.000001 1.000000
vn 0.000000 -0.000001 1.000000
vn 0.000000 -0.000001 1.000000
vn -0.000000 0.000000 1.000000
vn -0.000000 0.000000 1.000000
vn -0.000000 0.000000 1.000000
vn -0.000000 0.000000 1.000000
vn 1.000000 0.000000 0.000000
vn 1.000000 0.000000 0.000000
vn -1.000000 0.000000 0.000000
s off
g col_barrel_body
f 11/1/1 12/2/2 13/4/3 14/3/4
f 14/3/5 13/4/6 15/27/7 16/30/8
f 1/5/9 2/6/10 6/17/11 5/16/12
f 3/7/13 4/8/14 9/23/15 10/26/16
s 1
f 2/12/17 4/11/18 6/18/19
s off
f 16/29/20 17/31/21 11/1/22 14/3/23
f 5/16/24 6/17/25 4/8/26 3/7/27
f 8/22/28 7/19/29 2/6/30 1/5/31
f 17/32/32 18/33/33 12/10/34 11/9/35
f 12/2/36 18/34/37 15/28/38 13/4/39
s 2
f 3/13/40 10/25/41 8/21/42 1/14/43
s off
f 16/30/44 15/27/45 7/19/46 8/22/47
f 8/21/48 10/25/49 17/31/50 16/29/51
f 10/26/52 9/23/53 18/33/54 17/32/55
f 15/28/56 18/34/57 9/24/58 7/20/59
s 1
f 7/20/60 9/24/61 4/11/18 2/12/17
s 2
f 3/13/40 1/14/43 5/15/62
