# Blender v2.82 (sub 7) OBJ File: 'WingFlexFlapSlantAlt.blend'
# www.blender.org
mtllib WingFlexFlapSlantAlt.mtl
o TAC_Flexi_Wing_Major_Aerofoil_v2
v 0.650000 0.050000 0.020711
v 0.650000 0.020711 0.050000
v 0.700000 0.050000 0.020711
v 0.700000 0.020711 0.050000
v 0.650000 -0.020711 0.050000
v 0.700000 -0.020711 0.050000
v 0.650000 -0.050000 0.020711
v 0.700000 -0.050000 0.020711
v 0.650000 -0.050000 -0.020711
v 0.700000 -0.050000 -0.020711
v 0.650000 -0.020711 -0.050000
v 0.700000 -0.020711 -0.050000
v 0.650000 0.020711 -0.050000
v 0.700000 0.020711 -0.050000
v 0.650000 0.050000 -0.020711
v 0.700000 0.050000 -0.020711
v 0.650000 -0.035635 1.250000
v 0.650000 0.035635 1.250000
v -0.650000 0.150000 0.029837
v -0.650000 0.035635 0.750000
v 0.650000 0.150000 0.029837
v 0.650000 0.150000 -0.029837
v 0.650000 0.127164 -0.084968
v 0.650000 0.084968 -0.127164
v 0.650000 0.029837 -0.150000
v 0.650000 -0.029837 -0.150000
v 0.650000 -0.084968 -0.127164
v 0.650000 -0.127164 -0.084968
v 0.650000 -0.150000 -0.029837
v 0.650000 -0.150000 0.029837
v -0.650000 0.020711 0.050000
v -0.650000 0.050000 0.020711
v -0.700000 0.020711 0.050000
v -0.700000 0.050000 0.020711
v -0.650000 -0.020711 0.050000
v -0.700000 -0.020711 0.050000
v -0.650000 -0.050000 0.020711
v -0.700000 -0.050000 0.020711
v -0.650000 -0.050000 -0.020711
v -0.700000 -0.050000 -0.020711
v -0.650000 -0.020711 -0.050000
v -0.700000 -0.020711 -0.050000
v -0.650000 0.020711 -0.050000
v -0.700000 0.020711 -0.050000
v -0.650000 0.050000 -0.020711
v -0.700000 0.050000 -0.020711
v -0.650000 -0.035635 0.750000
v -0.650000 -0.150000 0.029837
v -0.650000 -0.084968 -0.127164
v -0.650000 -0.127164 -0.084968
v -0.650000 -0.150000 -0.029837
v -0.650000 -0.029837 -0.150000
v -0.650000 0.029837 -0.150000
v -0.650000 0.084968 -0.127164
v -0.650000 0.127164 -0.084968
v -0.650000 0.150000 -0.029837
v 0.600000 -0.025000 1.300000
v 0.555286 -0.053577 1.254564
v 0.600980 -0.051961 1.275096
v 0.600980 0.051961 1.275096
v 0.600000 0.025000 1.300000
v -0.600000 0.025000 0.800000
v -0.601789 0.053577 0.772450
v -0.601789 -0.053577 0.772450
v -0.600000 -0.025000 0.800000
vt 0.101697 0.025235
vt 0.101656 0.025235
vt 0.101697 0.025186
vt 0.101656 0.025186
vt 0.101656 0.025235
vt 0.101656 0.025186
vt 0.101656 0.025235
vt 0.101656 0.025186
vt 0.101656 0.025235
vt 0.101656 0.025186
vt 0.101656 0.025235
vt 0.101656 0.025186
vt 0.101656 0.025235
vt 0.101656 0.025186
vt 0.101656 0.025235
vt 0.101656 0.025186
vt 0.101705 0.025256
vt 0.101607 0.025256
vt 0.101607 0.025215
vt 0.101635 0.025186
vt 0.101676 0.025284
vt 0.101635 0.025284
vt 0.101607 0.025197
vt 0.101493 0.025186
vt 0.101601 0.025186
vt 0.213189 0.096163
vt 0.213196 0.096184
vt 0.213189 0.096225
vt 0.101297 0.024644
vt 0.101656 0.024596
vt 0.101656 0.025875
vt 0.213196 0.096246
vt 0.101824 0.025197
vt 0.101710 0.025186
vt 0.101819 0.025186
vt 0.101705 0.025083
vt 0.101803 0.025092
vt 0.101676 0.025112
vt 0.101765 0.025457
vt 0.101547 0.025457
vt 0.101705 0.025043
vt 0.101803 0.025034
vt 0.101781 0.024980
vt 0.101739 0.024938
vt 0.101676 0.025014
vt 0.101685 0.024916
vt 0.101635 0.025014
vt 0.101626 0.024916
vt 0.101572 0.024938
vt 0.101607 0.025043
vt 0.101531 0.024980
vt 0.101508 0.025034
vt 0.101508 0.025092
vt 0.101607 0.025083
vt 0.101635 0.025112
vt 0.101656 0.025235
vt 0.101615 0.025235
vt 0.101656 0.025186
vt 0.101615 0.025186
vt 0.101656 0.025235
vt 0.101615 0.025235
vt 0.101656 0.025186
vt 0.101615 0.025186
vt 0.101656 0.025235
vt 0.101615 0.025235
vt 0.101656 0.025186
vt 0.101615 0.025186
vt 0.101656 0.025235
vt 0.101615 0.025235
vt 0.101656 0.025186
vt 0.101615 0.025186
vt 0.101656 0.025235
vt 0.101615 0.025235
vt 0.101656 0.025186
vt 0.101615 0.025186
vt 0.101656 0.025235
vt 0.101615 0.025235
vt 0.101656 0.025186
vt 0.101615 0.025186
vt 0.101656 0.025235
vt 0.101615 0.025235
vt 0.101656 0.025186
vt 0.101615 0.025186
vt 0.101656 0.025235
vt 0.101615 0.025235
vt 0.101656 0.025186
vt 0.101615 0.025186
vt 0.101607 0.025256
vt 0.101705 0.025256
vt 0.101635 0.025284
vt 0.101676 0.025284
vt 0.101544 0.025827
vt 0.101557 0.025875
vt 0.101191 0.025875
vt 0.101290 0.025842
vt 0.101303 0.025827
vt 0.101544 0.024689
vt 0.101191 0.024596
vt 0.101550 0.024644
vt 0.101290 0.024596
vt 0.101607 0.025043
vt 0.101607 0.025083
vt 0.101508 0.025092
vt 0.101635 0.025112
vt 0.101547 0.025457
vt 0.101676 0.025112
vt 0.101765 0.025457
vt 0.101803 0.025092
vt 0.101705 0.025083
vt 0.101705 0.025043
vt 0.101676 0.025014
vt 0.101739 0.024938
vt 0.101781 0.024980
vt 0.101803 0.025034
vt 0.101685 0.024916
vt 0.101635 0.025014
vt 0.101626 0.024916
vt 0.101572 0.024938
vt 0.101531 0.024980
vt 0.101508 0.025034
vt 0.101303 0.024689
vt 0.101597 0.024596
vt 0.101656 0.024596
vt 0.101597 0.025875
vt 0.101656 0.025875
vt 0.101597 0.024596
vt 0.101656 0.024596
vt 0.101597 0.025875
vt 0.101656 0.025875
vt 0.101597 0.024596
vt 0.101656 0.024596
vt 0.101597 0.025875
vt 0.101656 0.025875
vt 0.101597 0.024596
vt 0.101656 0.024596
vt 0.101597 0.025875
vt 0.101656 0.025875
vt 0.101597 0.024596
vt 0.101656 0.024596
vt 0.101597 0.025875
vt 0.101656 0.025875
vt 0.101597 0.024596
vt 0.101656 0.024596
vt 0.101597 0.025875
vt 0.101656 0.025875
vt 0.101597 0.024596
vt 0.101656 0.024596
vt 0.101597 0.025875
vt 0.101656 0.025875
vt 0.101597 0.024596
vt 0.101656 0.024596
vt 0.101597 0.025875
vt 0.101656 0.025875
vt 0.101597 0.024596
vt 0.101656 0.024596
vt 0.101597 0.025875
vt 0.101656 0.025875
vt 0.101508 0.024645
vt 0.101607 0.024645
vt 0.101438 0.025203
vt 0.101607 0.025825
vt 0.101663 0.025837
vt 0.101508 0.025825
vt 0.101656 0.025203
vt 0.101607 0.024940
vt 0.101508 0.025530
vt 0.101557 0.024628
vn 0.0000 0.7071 0.7071
vn 0.0000 0.0000 1.0000
vn 0.0000 -0.7071 0.7071
vn 0.0000 -1.0000 0.0000
vn 0.0000 -0.7071 -0.7071
vn 0.0000 0.0000 -1.0000
vn 0.0000 0.7071 -0.7071
vn 0.0000 1.0000 0.0000
vn 1.0000 0.0000 0.0000
vn 0.7071 0.0000 0.7071
vn -0.3846 0.0000 0.9231
vn -0.0173 0.9953 0.0957
vn 0.0000 0.9992 0.0388
vn -0.0127 0.9986 0.0511
vn -0.7071 0.0000 0.7071
vn -1.0000 0.0000 0.0000
vn -0.4032 -0.9038 0.1435
vn -0.4032 0.9038 0.1435
vn -0.0070 -0.9963 0.0853
vn 0.0000 -0.9992 0.0388
vn 0.0000 -0.9969 0.0785
vn 0.3547 0.9309 0.0873
vn -0.0550 -0.9897 0.1321
vn -0.0128 -0.9986 0.0509
vn -0.0538 0.9898 0.1320
vn 0.0000 0.9808 -0.1951
vn 0.0000 0.8315 -0.5556
vn 0.0000 0.5556 -0.8315
vn 0.0000 0.1951 -0.9808
vn 0.0000 -0.1951 -0.9808
vn 0.0000 -0.5556 -0.8315
vn 0.0000 -0.8315 -0.5556
vn 0.0000 -0.9808 -0.1951
vn 0.5168 -0.5707 0.6382
vn 0.5168 0.5707 0.6382
vn -0.5112 0.5797 0.6345
vn -0.5112 -0.5797 0.6345
vn -0.2907 0.6549 0.6976
vn -0.2908 0.6546 0.6978
vn -0.2908 -0.6546 0.6979
vn -0.2907 -0.6546 0.6978
vn -0.2905 -0.6548 0.6977
vn 0.3547 -0.9309 0.0873
vn -0.2903 -0.6550 0.6977
vn -0.2908 0.6546 0.6979
usemtl Steel_-_Satin.005
s 1
f 1/1/1 2/2/1 3/3/1
f 3/3/1 2/2/1 4/4/1
f 2/2/2 5/5/2 4/4/2
f 4/4/2 5/5/2 6/6/2
f 5/5/3 7/7/3 6/6/3
f 6/6/3 7/7/3 8/8/3
f 7/7/4 9/9/4 8/8/4
f 8/8/4 9/9/4 10/10/4
f 9/9/5 11/11/5 10/10/5
f 10/10/5 11/11/5 12/12/5
f 11/11/6 13/13/6 12/12/6
f 12/12/6 13/13/6 14/14/6
f 13/13/7 15/15/7 14/14/7
f 14/14/7 15/15/7 16/16/7
f 15/15/8 1/1/8 16/16/8
f 16/16/8 1/1/8 3/3/8
f 3/17/9 8/18/9 16/16/9
f 16/16/9 8/18/9 10/19/9
f 16/16/9 10/19/9 14/14/9
f 14/14/9 10/19/9 12/20/9
f 4/21/9 6/22/9 3/17/9
f 3/17/9 6/22/9 8/18/9
f 17/23/10 61/24/10 57/25/10
f 57/26/11 61/27/11 65/28/11
f 60/29/12 21/30/13 19/31/14
f 65/28/11 61/27/11 62/32/11
f 20/33/15 65/34/15 62/35/15
f 1/36/9 21/37/9 2/38/9
f 2/38/9 21/37/9 18/39/9
f 2/38/9 18/39/9 17/40/9
f 1/36/9 15/41/9 21/37/9
f 21/37/9 15/41/9 22/42/9
f 22/42/9 15/41/9 23/43/9
f 23/43/9 15/41/9 24/44/9
f 24/44/9 15/41/9 13/45/9
f 24/44/9 13/45/9 25/46/9
f 25/46/9 13/45/9 11/47/9
f 25/46/9 11/47/9 26/48/9
f 26/48/9 11/47/9 27/49/9
f 27/49/9 11/47/9 9/50/9
f 27/49/9 9/50/9 28/51/9
f 28/51/9 9/50/9 29/52/9
f 29/52/9 9/50/9 30/53/9
f 30/53/9 9/50/9 7/54/9
f 30/53/9 7/54/9 5/55/9
f 30/53/9 5/55/9 17/40/9
f 17/40/9 5/55/9 2/38/9
f 31/56/1 32/57/1 33/58/1
f 33/58/1 32/57/1 34/59/1
f 35/60/2 31/61/2 36/62/2
f 36/62/2 31/61/2 33/63/2
f 37/64/3 35/65/3 38/66/3
f 38/66/3 35/65/3 36/67/3
f 39/68/4 37/69/4 40/70/4
f 40/70/4 37/69/4 38/71/4
f 41/72/5 39/73/5 42/74/5
f 42/74/5 39/73/5 40/75/5
f 43/76/6 41/77/6 44/78/6
f 44/78/6 41/77/6 42/79/6
f 45/80/7 43/81/7 46/82/7
f 46/82/7 43/81/7 44/83/7
f 32/84/8 45/85/8 34/86/8
f 34/86/8 45/85/8 46/87/8
f 46/87/16 40/70/16 34/88/16
f 34/88/16 40/70/16 38/89/16
f 34/88/16 38/89/16 33/90/16
f 33/90/16 38/89/16 36/91/16
f 44/83/16 42/74/16 46/87/16
f 46/87/16 42/74/16 40/70/16
f 64/92/17 47/93/17 48/94/17
f 20/95/18 63/96/18 19/31/18
f 58/97/19 30/98/20 59/99/21
f 18/100/22 21/30/22 60/29/22
f 45/101/16 32/102/16 19/103/16
f 19/103/16 32/102/16 31/104/16
f 19/103/16 31/104/16 20/105/16
f 20/105/16 31/104/16 35/106/16
f 20/105/16 35/106/16 47/107/16
f 47/107/16 35/106/16 48/108/16
f 48/108/16 35/106/16 37/109/16
f 48/108/16 37/109/16 39/110/16
f 41/111/16 49/112/16 39/110/16
f 39/110/16 49/112/16 50/113/16
f 39/110/16 50/113/16 51/114/16
f 49/112/16 41/111/16 52/115/16
f 52/115/16 41/111/16 43/116/16
f 52/115/16 43/116/16 53/117/16
f 53/117/16 43/116/16 54/118/16
f 54/118/16 43/116/16 45/101/16
f 54/118/16 45/101/16 55/119/16
f 55/119/16 45/101/16 56/120/16
f 56/120/16 45/101/16 19/103/16
f 51/114/16 48/108/16 39/110/16
f 58/97/19 64/92/23 48/94/24
f 63/96/25 60/121/12 19/31/14
f 21/122/13 22/123/26 19/124/14
f 19/124/14 22/123/26 56/125/26
f 22/126/26 23/127/27 56/128/26
f 56/128/26 23/127/27 55/129/27
f 23/130/27 24/131/28 55/132/27
f 55/132/27 24/131/28 54/133/28
f 24/134/28 25/135/29 54/136/28
f 54/136/28 25/135/29 53/137/29
f 25/138/29 26/139/30 53/140/29
f 53/140/29 26/139/30 52/141/30
f 26/142/30 27/143/31 52/144/30
f 52/144/30 27/143/31 49/145/31
f 27/146/31 28/147/32 49/148/31
f 49/148/31 28/147/32 50/149/32
f 28/150/32 29/151/33 50/152/32
f 50/152/32 29/151/33 51/153/33
f 29/154/33 30/155/20 51/156/33
f 51/156/33 30/155/20 48/157/24
f 57/158/34 59/99/34 17/23/34
f 60/121/35 61/159/35 18/160/35
f 62/161/36 63/162/36 20/33/36
f 64/92/37 65/163/37 47/164/37
f 60/121/38 62/161/39 61/165/38
f 65/166/40 58/97/41 57/158/42
f 30/98/43 17/167/43 59/99/43
f 17/23/10 18/160/10 61/24/10
f 20/33/15 47/164/15 65/34/15
f 58/97/19 48/94/24 30/98/20
f 57/158/42 58/97/41 59/99/44
f 60/121/38 63/96/45 62/161/39
f 65/166/40 64/92/40 58/97/41
