# Blender v2.83.3 OBJ File: 'GT_Blaze_Cannon.blend'
# www.blender.org
mtllib GT_Blaze_Cannon_Base_Collider.mtl
v 0.999999 -0.265290 -0.391655
v 0.999999 -0.265290 2.385656
v 2.578334 -0.337186 0.834754
v 2.586678 -0.356092 0.802397
v 2.575870 -0.341088 0.805943
v 2.578334 -0.337186 1.159247
v 2.586678 -0.356092 1.191605
v 2.575870 -0.341088 1.188059
v 2.613580 -0.500361 0.765169
v 2.613580 -0.500361 1.228832
v 1.984344 -0.356092 -0.262557
v 1.979209 -0.341088 -0.252407
v 2.259557 -0.356092 0.012656
v 2.249407 -0.341088 0.017790
v 1.978241 -0.489685 -0.309410
v 1.948219 -0.500361 -0.318143
v 2.304904 -0.500361 0.019957
v -0.578335 -0.337186 0.834754
v 1.984344 -0.356092 2.256558
v 1.979209 -0.341088 2.246408
v 2.259557 -0.356092 1.981345
v 2.249407 -0.341088 1.976211
v 1.978241 -0.489685 2.303412
v 1.948219 -0.500361 2.312144
v 2.304904 -0.500361 1.974044
v -0.586680 -0.356092 0.802397
v -0.575871 -0.341088 0.805943
v -0.578335 -0.337186 1.159247
v -0.586680 -0.356092 1.191605
v -0.575871 -0.341088 1.188059
v -0.613582 -0.500361 0.765169
v -0.613582 -0.500361 1.228832
v 0.015654 -0.356092 -0.262557
v 0.020790 -0.341088 -0.252407
v -0.259559 -0.356092 0.012656
v -0.249409 -0.341088 0.017790
v 0.021758 -0.489685 -0.309410
v 0.051780 -0.500361 -0.318143
v 1.677813 -0.221624 -0.177009
v -0.304905 -0.500361 0.019957
v 2.174008 -0.221624 0.319186
v 0.015654 -0.356092 2.256558
v 0.020790 -0.341088 2.246408
v -0.259559 -0.356092 1.981345
v -0.249409 -0.341088 1.976211
v 0.021758 -0.489685 2.303412
v 0.051780 -0.500361 2.312144
v 1.677813 -0.221624 2.171010
v -0.304905 -0.500361 1.974044
v 2.174008 -0.221624 1.674816
v 0.999999 -0.486974 -0.461357
v 0.999999 -0.486974 2.455359
v 0.999999 -0.221624 2.352631
v 0.999999 -0.221624 -0.358630
v -0.174010 -0.221624 1.674816
v 0.322185 -0.221624 2.171010
v -0.174010 -0.221624 0.319186
v 0.322185 -0.221624 -0.177009
vt 0.714530 0.692624
vt 0.714396 0.693054
vt 0.663002 0.693054
vt 0.662868 0.692624
vt 0.000000 0.000000
vt 0.285571 0.681029
vt 0.714530 0.692624
vt 0.714396 0.693054
vt 0.663002 0.693054
vt 0.662868 0.692624
vt 0.714370 0.688796
vt 0.663028 0.688796
vt 0.662868 0.692624
vt 0.663002 0.693054
vt 0.000000 0.000000
vt 0.694789 0.688796
vt 0.693806 0.692624
vt 0.714370 0.688796
vt 0.663028 0.688796
vt 0.714530 0.692624
vt 0.000000 0.000000
vt 0.694789 0.688796
vt 0.693806 0.692624
vt 0.000000 0.000000
vt 0.663059 0.688490
vt 0.000000 0.000000
vt 0.000000 0.000000
vt 0.000000 0.000000
vt 0.663059 0.688490
vt 0.663816 0.688796
vt 0.285571 0.650104
vt 0.000000 0.000000
vt 0.663059 0.688490
vt 0.000000 0.000000
vt 0.000000 0.000000
vt 0.000000 0.000000
vt 0.663059 0.688490
vt 0.663816 0.688796
vt 0.285571 0.650104
vt 0.714370 0.688796
vt 0.663028 0.688796
vt 0.662868 0.692624
vt 0.714530 0.692624
vt 0.663816 0.688796
vt 0.194898 0.650104
vt 0.194898 0.681028
vt 0.000000 0.000000
vt 0.693713 0.693054
vt 0.693806 0.692624
vt 0.714396 0.693054
vt 0.663002 0.693054
vt 0.820600 0.893068
vt 0.806827 0.879295
vt 0.647280 0.695234
vt 0.647345 0.695990
vt 0.655912 0.716673
vt 0.000000 0.000000
vt 0.693713 0.693054
vt 0.714370 0.688796
vt 0.663028 0.688796
vt 0.285571 0.681029
vt 0.000000 0.000000
vt 0.694789 0.688796
vt 0.000000 0.000000
vt 0.693713 0.693054
vt 0.693806 0.692624
vt 0.839407 0.898309
vt 0.820600 0.893068
vt 0.000000 0.000000
vt 0.694789 0.688796
vt 0.806827 0.879295
vt 0.647280 0.695234
vt 0.647345 0.695990
vt 0.655912 0.716673
vt 0.655912 0.716673
vt 0.647345 0.695990
vt 0.647280 0.695234
vt 0.806827 0.879295
vt 0.820600 0.893068
vt 0.839407 0.898309
vt 0.000000 0.000000
vt 0.714396 0.693054
vt 0.000000 0.000000
vt 0.663816 0.688796
vt 0.194898 0.650104
vt 0.194898 0.681028
vt 0.000000 0.000000
vt 0.693713 0.693054
vt 0.655912 0.716673
vt 0.647345 0.695990
vt 0.647280 0.695234
vt 0.806827 0.879295
vt 0.820600 0.893068
vt 0.692957 0.693166
vt 0.692957 0.693166
vt 0.839414 0.898109
vt 0.839414 0.898109
vt 0.692957 0.693166
vt 0.692957 0.693166
vt 0.000000 0.000000
vn 0.7513 0.4150 0.5132
vn 0.5441 0.7513 0.3734
vn 0.3678 0.7407 0.5623
vn 0.4376 0.4217 0.7941
vn -0.0000 0.6257 0.7801
vn -0.0000 0.4644 0.8856
vn -0.7513 0.4150 -0.5132
vn -0.5441 0.7513 -0.3734
vn -0.3678 0.7407 -0.5623
vn -0.4376 0.4217 -0.7941
vn -0.8228 0.2380 -0.5162
vn -0.6966 0.1966 -0.6900
vn -0.4376 0.4217 0.7941
vn -0.3678 0.7407 0.5623
vn 0.8228 0.2380 0.5162
vn 0.9461 0.2438 0.2132
vn 0.9226 0.3408 0.1810
vn -0.8228 0.2380 0.5162
vn -0.6966 0.1966 0.6900
vn -0.7513 0.4150 0.5132
vn -0.9461 0.2438 -0.2132
vn -0.9226 0.3408 -0.1810
vn 0.0000 -1.0000 -0.0000
vn 0.8228 0.2380 -0.5162
vn 0.6966 0.1966 -0.6900
vn 0.4376 0.4217 -0.7941
vn 0.7513 0.4150 -0.5132
vn -0.1491 0.3072 0.9399
vn -0.0000 0.3107 0.9505
vn -0.5441 0.7513 0.3734
vn -0.7042 0.6770 0.2138
vn -0.9226 0.3408 0.1810
vn 0.3678 0.7407 -0.5623
vn 0.1366 0.9428 -0.3041
vn 0.2200 0.9668 -0.1301
vn 0.2974 0.9532 -0.0547
vn 0.7042 0.6770 -0.2138
vn 0.5441 0.7513 -0.3734
vn -0.7042 0.6770 -0.2138
vn 0.6966 0.1966 0.6900
vn 0.0000 0.4644 -0.8856
vn 0.0000 0.6257 -0.7801
vn -0.9461 0.2438 0.2132
vn 0.9226 0.3408 -0.1810
vn -0.1366 0.9428 0.3041
vn 0.9461 0.2438 -0.2132
vn -0.2200 0.9668 0.1301
vn -0.2974 0.9532 0.0547
vn -0.2974 0.9532 -0.0547
vn -0.2200 0.9668 -0.1301
vn -0.1366 0.9428 -0.3041
vn 0.1491 0.3072 0.9399
vn 0.1491 0.3072 -0.9399
vn 0.0000 0.3107 -0.9505
vn 0.7042 0.6770 0.2138
vn 0.2974 0.9532 0.0547
vn 0.2200 0.9668 0.1301
vn 0.1366 0.9428 0.3041
vn -0.1491 0.3072 -0.9399
vn 0.9777 0.2102 0.0000
vn 0.0000 1.0000 0.0000
vn -0.9777 0.2102 0.0000
usemtl _auto_.001
s 1
f 21/1/1 22/2/2 20/3/3 19/4/4
f 19/4/4 20/3/3 53/5/5 2/6/6
f 35/7/7 36/8/8 34/9/9 33/10/10
f 40/11/11 35/7/7 33/10/10 37/12/12
f 42/13/13 2/6/6 53/5/5 43/14/14
f 21/1/1 25/15/15 10/16/16 7/17/17
f 49/18/18 46/19/19 42/13/13 44/20/20
f 35/7/7 40/21/11 31/22/21 26/23/22
f 47/24/23 46/25/23 49/26/23 32/27/23 31/28/23 40/21/23 37/29/23 38/30/23 51/31/23 16/32/23 15/33/23 17/34/23 9/35/23 10/36/23 25/15/23 23/37/23 24/38/23 52/39/23
f 17/40/24 15/41/25 11/42/26 13/43/27
f 47/44/28 52/45/29 2/46/6 42/13/13 46/19/28
f 45/47/30 30/48/31 29/49/32 44/20/20
f 44/20/20 42/13/13 43/14/14 45/50/30
f 12/51/33 39/52/34 41/53/35 3/54/36 5/55/37 14/56/38
f 36/57/8 35/7/7 26/23/22 27/58/39
f 25/59/15 21/1/1 19/4/4 23/60/40
f 11/42/26 1/61/41 54/62/42 12/51/33
f 44/20/20 29/49/32 32/63/43 49/26/18
f 14/64/38 5/65/37 4/66/44 13/43/27
f 53/67/5 56/68/45 43/69/14
f 13/43/27 4/66/44 9/70/46 17/34/24
f 43/14/14 56/68/45 55/71/47 28/72/48 30/73/31 45/74/30
f 34/9/9 36/75/8 27/76/39 18/77/49 57/78/50 58/79/51
f 54/80/42 39/52/34 12/81/33
f 13/43/27 11/42/26 12/51/33 14/82/38
f 33/10/10 34/9/9 54/62/42 1/61/41
f 24/38/52 23/60/52 19/4/4 2/46/6 52/45/29
f 54/80/42 34/83/9 58/79/51
f 16/84/53 51/85/54 1/86/41 11/42/26 15/41/53
f 18/77/49 28/72/48 55/71/47 57/78/50
f 22/87/2 21/1/1 7/17/17 8/88/55
f 20/3/3 22/89/2 8/90/55 6/91/56 50/92/57 48/93/58
f 38/30/59 37/12/59 33/10/10 1/86/41 51/85/54
f 4/66/44 5/65/37 3/94/60 6/95/60 8/88/55 7/17/17 10/16/16 9/70/46
f 48/93/58 50/92/57 41/53/35 39/52/34 54/96/61 58/79/51 57/78/50 55/71/47 56/68/45 53/97/61
f 29/49/32 30/48/31 28/98/62 18/99/62 27/58/39 26/23/22 31/22/21 32/63/43
f 53/67/5 20/100/3 48/93/58
f 41/53/35 50/92/57 6/91/56 3/54/36
