# This file uses centimeters as units for non-parametric coordinates.

g default
v 0.125000 -0.125000 -0.500000
v 0.000000 0.000000 -0.585772
v -0.125000 -0.125000 -0.500000
v 0.125000 0.125000 -0.500000
v -0.125000 0.125000 -0.500000
v -0.257025 0.309057 -0.500000
v -0.205625 0.360456 -0.500000
v 0.257025 0.309057 -0.500000
v 0.205625 0.360456 -0.500000
v -0.257025 -0.309057 -0.500000
v -0.205625 -0.360456 -0.500000
v 0.205625 -0.360456 -0.500000
v 0.257025 -0.309057 -0.500000
v -0.194723 0.334136 -0.245029
v -0.205625 0.360456 -0.271350
v 0.194723 0.334136 -0.245029
v 0.205625 0.360456 -0.271350
v -0.230704 0.298154 -0.245029
v -0.257025 0.309057 -0.271350
v 0.257025 0.309057 -0.271350
v 0.230704 0.298154 -0.245029
v -0.194723 -0.334136 -0.245029
v -0.205625 -0.360456 -0.271350
v 0.194723 -0.334136 -0.245029
v 0.205625 -0.360456 -0.271350
v -0.230704 -0.298154 -0.245029
v -0.257025 -0.309057 -0.271350
v 0.230704 -0.298154 -0.245029
v 0.257025 -0.309057 -0.271350
v -0.221521 -0.209648 -0.271349
v -0.156594 -0.292500 -0.271350
v 0.221521 -0.209648 -0.271349
v 0.156594 -0.292500 -0.271350
v -0.221521 -0.050540 -0.094316
v -0.156594 -0.077434 -0.029389
v -0.221521 0.050540 -0.094316
v -0.156594 0.077434 -0.029389
v 0.221521 -0.050540 -0.094316
v 0.156594 -0.077434 -0.029389
v 0.221521 0.050540 -0.094316
v 0.156594 0.077434 -0.029389
v -0.221521 0.209648 -0.271349
v -0.156594 0.292500 -0.271349
v 0.221521 0.209648 -0.271349
v 0.156594 0.292500 -0.271349
v 0.156594 -0.000000 -0.029389
v 0.221521 0.000000 -0.094316
vt 0.047922 0.950678
vt 0.000990 0.950678
vt 0.024456 0.927212
vt 0.000990 0.903746
vt 0.047922 0.903746
vt 0.422369 0.909883
vt 0.425814 0.906437
vt 0.453381 0.906437
vt 0.456826 0.909883
vt 0.820396 0.879509
vt 0.819105 0.883351
vt 0.813216 0.877348
vt 0.817021 0.876125
vt 0.861161 0.879609
vt 0.862431 0.883439
vt 0.864370 0.876371
vt 0.868197 0.877592
vt 0.820398 0.811228
vt 0.819102 0.807385
vt 0.862440 0.807261
vt 0.861171 0.811093
vt 0.817021 0.814629
vt 0.813214 0.813407
vt 0.868203 0.813112
vt 0.864376 0.814332
vt 0.473316 0.934762
vt 0.482491 0.934762
vt 0.482491 0.951265
vt 0.473316 0.951265
vt 0.482492 0.998132
vt 0.473316 0.998132
vt 0.473316 0.981629
vt 0.482491 0.981629
vt 0.473316 0.953327
vt 0.482491 0.953327
vt 0.473316 0.906460
vt 0.482491 0.906460
vt 0.465036 0.997296
vt 0.465036 0.947881
vt 0.468890 0.951734
vt 0.468890 0.993443
vt 0.482491 0.932699
vt 0.473316 0.932699
vt 0.482491 0.904398
vt 0.473316 0.904398
vt 0.482491 0.979566
vt 0.473316 0.979566
vt 0.401173 0.997296
vt 0.397320 0.993443
vt 0.397320 0.951734
vt 0.401173 0.947881
vt 0.422369 0.951316
vt 0.456826 0.951316
vt 0.453381 0.954761
vt 0.425814 0.954761
vt 0.835612 0.954731
vt 0.835612 0.951440
vt 0.845221 0.959981
vt 0.842643 0.961049
vt 0.845371 0.968033
vt 0.845371 0.971324
vt 0.838340 0.977643
vt 0.835762 0.976575
vt 0.845221 0.966132
vt 0.842643 0.965064
vt 0.835612 0.974673
vt 0.835612 0.971383
vt 0.838340 0.981657
vt 0.835762 0.982725
vt 0.845371 0.987976
vt 0.845371 0.991266
vt 0.821918 0.969031
vt 0.834356 0.969031
vt 0.834356 0.975182
vt 0.821918 0.975182
vt 0.821918 0.960490
vt 0.834356 0.960490
vt 0.821918 0.983723
vt 0.834356 0.983723
vt 0.835762 0.979650
vt 0.834356 0.972106
vt 0.838340 0.979650
vn 0.000000 -0.565785 -0.824553
vn 0.000000 -0.565785 -0.824553
vn 0.000000 -0.565785 -0.824553
vn 0.000000 0.565785 -0.824553
vn 0.000000 0.565785 -0.824553
vn 0.000000 0.565785 -0.824553
vn -0.565785 0.000000 -0.824553
vn -0.565785 0.000000 -0.824553
vn -0.565785 0.000000 -0.824553
vn 0.565785 0.000000 -0.824553
vn 0.565785 0.000000 -0.824553
vn 0.565785 0.000000 -0.824553
vn 0.000000 0.000000 -1.000000
vn 0.000000 0.000000 -1.000000
vn 0.000000 0.000000 -1.000000
vn 0.000000 0.000000 -1.000000
vn -0.500000 0.499999 0.707107
vn -0.500000 0.499999 0.707107
vn -0.500000 0.499999 0.707107
vn -0.500000 0.499999 0.707107
vn 0.000000 0.707106 0.707107
vn 0.000000 0.707106 0.707107
vn 0.000000 0.707106 0.707107
vn 0.000000 0.707106 0.707107
vn 0.500000 0.500000 0.707107
vn 0.500000 0.499999 0.707107
vn 0.500000 0.499999 0.707107
vn 0.500000 0.500000 0.707107
vn 0.000000 -0.707106 0.707107
vn 0.000000 -0.707106 0.707107
vn 0.000000 -0.707106 0.707107
vn 0.000000 -0.707106 0.707107
vn -0.500000 -0.500000 0.707107
vn -0.500000 -0.499999 0.707107
vn -0.500000 -0.499999 0.707107
vn -0.500000 -0.500000 0.707107
vn 0.500000 -0.499999 0.707107
vn 0.500000 -0.499999 0.707107
vn 0.500000 -0.499999 0.707107
vn 0.500000 -0.499999 0.707107
vn -0.707106 0.000000 0.707108
vn -0.707106 0.000000 0.707108
vn -0.707106 0.000000 0.707108
vn -0.707106 0.000000 0.707108
vn 0.707106 0.000000 0.707108
vn 0.707106 0.000000 0.707108
vn 0.707106 0.000000 0.707108
vn 0.707106 0.000000 0.707108
vn 0.000000 1.000000 0.000000
vn 0.000000 1.000000 0.000000
vn 0.000000 1.000000 0.000000
vn 0.000000 1.000000 0.000000
vn 0.000000 -1.000000 0.000000
vn 0.000000 -1.000000 0.000000
vn 0.000000 -1.000000 0.000000
vn 0.000000 -1.000000 0.000000
vn 1.000000 0.000000 0.000000
vn 1.000000 0.000000 0.000000
vn 1.000000 0.000000 0.000000
vn 1.000000 0.000000 0.000000
vn -1.000000 0.000000 0.000000
vn -1.000000 0.000000 0.000000
vn -1.000000 0.000000 0.000000
vn -1.000000 0.000000 0.000000
vn 0.000000 0.000000 1.000000
vn 0.000000 0.000000 1.000000
vn 0.000000 0.000000 1.000000
vn 0.000000 0.000000 1.000000
vn -0.707107 0.707107 0.000000
vn -0.707107 0.707107 0.000000
vn -0.707107 0.707107 0.000000
vn -0.707107 0.707107 0.000000
vn 0.707107 0.707107 0.000000
vn 0.707107 0.707107 0.000000
vn 0.707107 0.707107 0.000000
vn 0.707107 0.707107 0.000000
vn -0.707107 -0.707107 0.000000
vn -0.707107 -0.707107 0.000000
vn -0.707107 -0.707107 0.000000
vn -0.707107 -0.707107 0.000000
vn 0.707107 -0.707107 0.000000
vn 0.707107 -0.707107 0.000000
vn 0.707107 -0.707107 0.000000
vn 0.707107 -0.707107 0.000000
vn 0.000000 0.000000 1.000000
vn 0.000000 0.000000 1.000000
vn 0.000000 0.000000 1.000000
vn 0.000000 0.000000 1.000000
vn 0.000000 0.000000 -1.000000
vn 0.000000 0.000000 -1.000000
vn 0.000000 0.000000 -1.000000
vn 0.000000 0.000000 -1.000000
vn -0.693810 -0.537146 0.479688
vn -0.693810 -0.537146 0.479688
vn -0.693810 -0.537147 0.479688
vn -0.693810 -0.537147 0.479688
vn 0.693811 -0.537146 0.479688
vn 0.693811 -0.537146 0.479688
vn 0.693811 -0.537146 0.479688
vn 0.693811 -0.537146 0.479688
vn -0.707107 0.000000 0.707106
vn -0.707107 0.000000 0.707106
vn -0.707107 0.000000 0.707106
vn -0.707107 0.000000 0.707106
vn -0.693809 0.537147 0.479689
vn -0.693809 0.537147 0.479689
vn -0.693809 0.537147 0.479689
vn -0.693809 0.537147 0.479689
vn 0.707108 0.000000 0.707106
vn 0.707108 0.000000 0.707106
vn 0.707108 0.000000 0.707106
vn 0.707108 0.000000 0.707106
vn 0.693809 0.537147 0.479689
vn 0.693809 0.537147 0.479689
vn 0.693809 0.537147 0.479689
vn 0.693809 0.537147 0.479689
vn 0.000000 0.000000 1.000000
vn 0.000000 0.000000 1.000000
vn 0.000000 0.000000 1.000000
vn 0.000000 0.000000 1.000000
vn 0.000000 0.000000 1.000000
vn -1.000000 0.000000 0.000000
vn -1.000000 0.000000 0.000000
vn -1.000000 0.000000 0.000000
vn -1.000000 0.000000 0.000000
vn 0.000000 -0.747424 0.664347
vn 0.000000 -0.747424 0.664347
vn 0.000000 -0.747424 0.664347
vn 0.000000 -0.747424 0.664347
vn 0.000000 0.747424 0.664348
vn 0.000000 0.747424 0.664348
vn 0.000000 0.747424 0.664348
vn 0.000000 0.747424 0.664348
vn 1.000000 0.000000 0.000000
vn 1.000000 0.000000 0.000000
vn 1.000000 0.000000 0.000000
vn 1.000000 0.000000 0.000000
vn 1.000000 0.000000 0.000000
vn 0.707108 0.000000 0.707106
vn 0.707108 0.000000 0.707106
s off
g geo_stud_small for_export
f 1/1/1 3/2/2 2/3/3
f 2/3/4 5/4/5 4/5/6
f 3/2/7 5/4/8 2/3/9
f 4/5/10 1/1/11 2/3/12
s 1
f 6/6/13 7/7/14 9/8/15 8/9/16
s off
f 14/10/17 15/11/18 19/12/19 18/13/20
f 15/11/21 14/10/22 16/14/23 17/15/24
f 17/15/25 16/14/26 21/16/27 20/17/28
f 22/18/29 23/19/30 25/20/31 24/21/32
f 23/19/33 22/18/34 26/22/35 27/23/36
f 24/21/37 25/20/38 29/24/39 28/25/40
f 27/23/41 26/22/42 18/13/43 19/12/44
f 28/25/45 29/24/46 20/17/47 21/16/48
f 7/26/49 15/27/50 17/28/51 9/29/52
f 23/30/53 11/31/54 12/32/55 25/33/56
f 13/47/57 8/34/58 20/35/59 29/46/60
f 6/43/61 10/36/62 27/37/63 19/42/64
s 2
f 18/38/65 21/39/66 16/40/67 14/41/68
s off
f 19/42/69 15/27/70 7/26/71 6/43/72
f 17/28/73 20/35/74 8/34/75 9/29/76
f 23/44/77 27/37/78 10/36/79 11/45/80
f 29/46/81 25/33/82 12/32/83 13/47/84
s 2
f 26/48/85 22/49/86 24/50/87 28/51/88
s 1
f 10/52/89 13/53/90 12/54/91 11/55/92
f 6/6/13 8/9/16 13/53/90 10/52/89
s 2
f 26/48/85 28/51/88 21/39/66 18/38/65
s off
f 30/56/93 31/57/94 35/58/95 34/59/96
f 33/60/97 32/61/98 38/62/99 39/63/100
f 34/59/101 35/58/102 37/64/103 36/65/104
f 36/65/105 37/64/106 43/66/107 42/67/108
s 3
f 46/80/109 47/82/110 40/68/111 41/69/112
s off
f 41/69/113 40/68/114 44/70/115 45/71/116
f 35/72/117 39/73/118 46/81/119 41/74/120 37/75/121
f 42/67/122 30/56/123 34/59/124 36/65/125
f 35/72/126 31/76/127 33/77/128 39/73/129
f 43/78/130 37/75/131 41/74/132 45/79/133
f 32/61/134 44/70/135 40/68/136 47/82/137 38/62/138
s 3
f 39/63/139 38/62/140 47/82/110 46/80/109
