# Blender v2.82 (sub 7) OBJ File: 'TACVacusuckNozzle.blend'
# www.blender.org
mtllib TACCollectorNozzle.mtl
o TAC_BasicBeyondHover_v5
v -0.700000 -1.150000 -0.638763
v -0.700000 -1.375000 -0.638763
v -0.638763 -1.150000 -0.700000
v -0.638763 -1.375000 -0.700000
v -0.763763 -1.500000 -0.825000
v -0.825000 -1.500000 -0.763763
v -0.825000 -1.500000 0.763763
v -0.700000 -1.375000 0.638763
v -0.700000 -1.150000 0.638763
v 0.700000 -1.150000 -0.638763
v 0.638763 -1.150000 -0.700000
v 0.638763 -1.375000 -0.700000
v 0.700000 -1.375000 -0.638763
v 0.763763 -1.500000 -0.825000
v 0.825000 -1.500000 -0.763763
v 0.700000 -1.150000 0.638763
v 0.700000 -1.375000 0.638763
v 0.825000 -1.500000 0.763763
v 0.638763 -1.150000 0.700000
v 0.638763 -1.375000 0.700000
v 0.763763 -1.500000 0.825000
v -0.638763 -1.150000 0.700000
v -0.638763 -1.375000 0.700000
v -0.763763 -1.500000 0.825000
v 0.975000 -1.500000 -0.860776
v 1.000000 -1.475000 -0.854465
v 0.975000 -1.500000 0.860776
v 1.000000 -1.475000 0.854465
v 0.860776 -1.500000 -0.975000
v 0.854465 -1.475000 -1.000000
v -0.860776 -1.500000 -0.975000
v -0.854465 -1.475000 -1.000000
v -0.975000 -1.500000 -0.860776
v -1.000000 -1.475000 -0.854465
v -0.975000 -1.500000 0.860776
v -1.000000 -1.475000 0.854465
v -0.854465 -1.475000 1.000000
v -0.860776 -1.500000 0.975000
v 0.854465 -1.475000 1.000000
v 0.860776 -1.500000 0.975000
v -0.737798 -1.300000 -1.000000
v -1.000000 -1.300000 -0.737798
v -0.550000 -0.718303 -0.800000
v -0.800000 -0.718303 -0.550000
v -1.000000 -1.300000 0.737798
v -0.737798 -1.300000 1.000000
v -0.550000 -0.718303 0.800000
v -0.800000 -0.718303 0.550000
v 0.737798 -1.300000 1.000000
v 0.550000 -0.718303 0.800000
v 0.800000 -0.718303 0.550000
v 1.000000 -1.300000 0.737798
v 0.800000 -0.718303 -0.550000
v 1.000000 -1.300000 -0.737798
v 0.550000 -0.718303 -0.800000
v 0.737798 -1.300000 -1.000000
vt 0.101872 0.027476
vt 0.102010 0.027476
vt 0.101872 0.027519
vt 0.102010 0.027519
vt 0.104167 0.027775
vt 0.104073 0.027691
vt 0.104201 0.027734
vt 0.104100 0.027657
vt 0.083034 0.075890
vt 0.091132 0.064441
vt 0.181970 0.075903
vt 0.173876 0.064452
vt 0.468150 0.538634
vt 0.468150 0.538771
vt 0.467370 0.538771
vt 0.467370 0.538634
vt 0.102293 0.027519
vt 0.102156 0.027519
vt 0.102293 0.027476
vt 0.102156 0.027476
vt 0.103810 0.027691
vt 0.103715 0.027775
vt 0.103682 0.027734
vt 0.103783 0.027657
vt 0.467370 0.538771
vt 0.467370 0.538634
vt 0.468150 0.538634
vt 0.468150 0.538771
vt 0.181970 0.075867
vt 0.083034 0.075854
vt 0.173876 0.064417
vt 0.091132 0.064406
vt 0.102293 0.027519
vt 0.102156 0.027519
vt 0.102293 0.027476
vt 0.102156 0.027476
vt 0.103715 0.027337
vt 0.103810 0.027421
vt 0.103682 0.027378
vt 0.103783 0.027454
vt 0.467370 0.538771
vt 0.467370 0.538634
vt 0.468150 0.538634
vt 0.468150 0.538771
vt 0.181970 0.075812
vt 0.083034 0.075799
vt 0.173876 0.064361
vt 0.091132 0.064350
vt 0.101872 0.027476
vt 0.102010 0.027476
vt 0.101872 0.027519
vt 0.102010 0.027519
vt 0.104073 0.027421
vt 0.104167 0.027337
vt 0.104201 0.027378
vt 0.104100 0.027454
vt 0.460403 0.589904
vt 0.460382 0.589900
vt 0.460403 0.588852
vt 0.460382 0.588856
vt 0.460423 0.589112
vt 0.460413 0.589129
vt 0.460376 0.589025
vt 0.460357 0.589023
vt 0.460176 0.589083
vt 0.460172 0.589062
vt 0.461224 0.589062
vt 0.461220 0.589083
vt 0.460362 0.589112
vt 0.460408 0.589025
vt 0.460371 0.589129
vt 0.460428 0.589023
vt 0.460403 0.589289
vt 0.460382 0.589293
vt 0.460382 0.588241
vt 0.460403 0.588245
vt 0.460428 0.589122
vt 0.460408 0.589120
vt 0.460371 0.589016
vt 0.460362 0.589033
vt 0.459561 0.589083
vt 0.459565 0.589062
vt 0.460609 0.589062
vt 0.460613 0.589083
vt 0.460357 0.589122
vt 0.460413 0.589016
vt 0.460376 0.589120
vt 0.460423 0.589033
vt 0.100804 0.046985
vt 0.100672 0.046983
vt 0.100625 0.046872
vt 0.100715 0.046776
vt 0.121094 0.001953
vt 0.082031 0.001953
vt 0.121094 0.047852
vt 0.082031 0.047852
vt 0.081221 0.065736
vt 0.185485 0.065736
vt 0.088340 0.076415
vt 0.178365 0.076415
vt 0.100715 0.046589
vt 0.100626 0.046497
vt 0.100804 0.046381
vt 0.100672 0.046383
vt 0.121094 0.001953
vt 0.121094 0.047852
vt 0.082031 0.001953
vt 0.082031 0.047852
vt 0.081221 0.065736
vt 0.185485 0.065736
vt 0.088340 0.076415
vt 0.178365 0.076415
vt 0.153927 0.065135
vt 0.153947 0.065148
vt 0.153918 0.065143
vt 0.153931 0.065164
vt 0.153697 0.065164
vt 0.153947 0.064913
vt 0.153927 0.064927
vt 0.153918 0.064918
vt 0.153931 0.064898
vt 0.153710 0.064918
vt 0.153697 0.064898
vt 0.153681 0.064913
vt 0.153702 0.064927
vt 0.153702 0.065135
vt 0.153681 0.065148
vt 0.153710 0.065143
vt 0.101435 0.046527
vt 0.101482 0.046638
vt 0.101304 0.046525
vt 0.101392 0.046734
vt 0.082031 0.001953
vt 0.082031 0.047852
vt 0.121094 0.047852
vt 0.121094 0.001953
vt 0.459080 0.602507
vt 0.459466 0.601728
vt 0.459466 0.602629
vt 0.081221 0.065736
vt 0.185485 0.065736
vt 0.088340 0.076415
vt 0.178365 0.076415
vt 0.459466 0.601850
vt 0.459466 0.602507
vt 0.459080 0.601728
vt 0.459080 0.602629
vt 0.101435 0.046838
vt 0.101304 0.046840
vt 0.101482 0.046728
vt 0.101392 0.046632
vt 0.121094 0.001953
vt 0.121094 0.047852
vt 0.082031 0.001953
vt 0.082031 0.047852
vt 0.459636 0.601517
vt 0.459272 0.601367
vt 0.459263 0.601358
vt 0.459080 0.601850
vt 0.459466 0.601728
vt 0.459080 0.602507
vt 0.459466 0.602629
vt 0.081221 0.065736
vt 0.185485 0.065736
vt 0.088340 0.076415
vt 0.178365 0.076415
vt 0.181970 0.075923
vt 0.083034 0.075909
vt 0.173876 0.064472
vt 0.091132 0.064461
vt 0.467370 0.538771
vt 0.467370 0.538634
vt 0.468150 0.538634
vt 0.468150 0.538771
vt 0.459466 0.601850
vt 0.459466 0.602507
vt 0.459080 0.601728
vt 0.459080 0.602629
vn 0.7071 0.0000 0.7071
vn 0.4082 -0.8165 0.4082
vn 0.7071 -0.7071 0.0000
vn 1.0000 0.0000 0.0000
vn -0.7071 0.0000 0.7071
vn -0.4082 -0.8165 0.4082
vn -1.0000 0.0000 0.0000
vn -0.7071 -0.7071 0.0000
vn -0.7071 0.0000 -0.7071
vn -0.4082 -0.8165 -0.4082
vn 0.0000 0.0000 -1.0000
vn 0.0000 -0.7071 -0.7071
vn 0.7071 0.0000 -0.7071
vn 0.4082 -0.8165 -0.4082
vn 0.6251 -0.4673 -0.6251
vn -0.6251 -0.4673 -0.6251
vn -0.6251 -0.4673 0.6251
vn 0.0000 -0.7071 0.7071
vn 0.6251 -0.4673 0.6251
vn -0.6396 0.4264 -0.6396
vn -0.6396 0.4264 0.6396
vn 0.0000 0.0000 1.0000
vn 0.0000 -1.0000 0.0000
vn 0.6396 0.4264 0.6396
vn 0.9457 0.3251 0.0000
vn -0.9457 0.3251 0.0000
vn 0.6396 0.4264 -0.6396
vn 0.0000 0.3251 -0.9457
vn 0.0000 0.3251 0.9457
usemtl Steel_-_Satin
s 1
f 1/1/1 2/2/1 3/3/1
f 3/3/1 2/2/1 4/4/1
f 5/5/2 4/6/2 6/7/2
f 6/7/2 4/6/2 2/8/2
f 6/9/3 2/10/3 7/11/3
f 7/11/3 2/10/3 8/12/3
f 2/13/4 1/14/4 9/15/4
f 2/13/4 9/15/4 8/16/4
f 11/17/5 12/18/5 10/19/5
f 10/19/5 12/18/5 13/20/5
f 12/21/6 14/22/6 15/23/6
f 12/21/6 15/23/6 13/24/6
f 10/25/7 13/26/7 17/27/7
f 10/25/7 17/27/7 16/28/7
f 15/29/8 18/30/8 13/31/8
f 13/31/8 18/30/8 17/32/8
f 16/33/9 17/34/9 19/35/9
f 19/35/9 17/34/9 20/36/9
f 21/37/10 20/38/10 18/39/10
f 18/39/10 20/38/10 17/40/10
f 19/41/11 20/42/11 23/43/11
f 19/41/11 23/43/11 22/44/11
f 21/45/12 24/46/12 20/47/12
f 20/47/12 24/46/12 23/48/12
f 22/49/13 23/50/13 9/51/13
f 9/51/13 23/50/13 8/52/13
f 23/53/14 24/54/14 7/55/14
f 23/53/14 7/55/14 8/56/14
f 25/57/3 26/58/3 27/59/3
f 27/59/3 26/58/3 28/60/3
f 29/61/15 30/62/15 25/63/15
f 25/63/15 30/62/15 26/64/15
f 30/65/12 29/66/12 31/67/12
f 30/65/12 31/67/12 32/68/12
f 31/69/16 33/70/16 32/71/16
f 32/71/16 33/70/16 34/72/16
f 34/73/8 33/74/8 35/75/8
f 34/73/8 35/75/8 36/76/8
f 36/77/17 35/78/17 37/79/17
f 37/79/17 35/78/17 38/80/17
f 40/81/18 39/82/18 37/83/18
f 40/81/18 37/83/18 38/84/18
f 28/85/19 39/86/19 27/87/19
f 27/87/19 39/86/19 40/88/19
f 41/89/20 32/90/20 34/91/20
f 34/91/20 42/92/20 41/89/20
f 41/93/20 42/94/20 43/95/20
f 42/94/20 44/96/20 43/95/20
f 34/97/7 36/98/7 42/99/7
f 42/99/7 36/98/7 45/100/7
f 45/101/21 36/102/21 46/103/21
f 46/103/21 36/102/21 37/104/21
f 46/105/21 47/106/21 45/107/21
f 47/106/21 48/108/21 45/107/21
f 37/109/22 39/110/22 46/111/22
f 46/111/22 39/110/22 49/112/22
f 6/113/23 33/114/23 5/115/23
f 5/115/23 33/114/23 31/116/23
f 5/115/23 31/116/23 29/117/23
f 33/114/23 6/113/23 35/118/23
f 35/118/23 6/113/23 7/119/23
f 35/118/23 7/119/23 24/120/23
f 35/118/23 24/120/23 38/121/23
f 38/121/23 24/120/23 21/122/23
f 38/121/23 21/122/23 40/123/23
f 40/123/23 21/122/23 27/124/23
f 27/124/23 21/122/23 18/125/23
f 27/124/23 18/125/23 15/126/23
f 27/124/23 15/126/23 25/127/23
f 25/127/23 15/126/23 14/128/23
f 25/127/23 14/128/23 29/117/23
f 29/117/23 14/128/23 5/115/23
f 39/129/24 28/130/24 49/131/24
f 49/131/24 28/130/24 52/132/24
f 52/133/24 51/134/24 50/135/24
f 52/133/24 50/135/24 49/136/24
f 51/137/25 52/138/25 54/139/25
f 28/140/4 26/141/4 52/142/4
f 52/142/4 26/141/4 54/143/4
f 48/144/26 44/145/26 45/146/26
f 45/146/26 44/145/26 42/147/26
f 30/148/27 56/149/27 26/150/27
f 26/150/27 56/149/27 54/151/27
f 56/152/27 55/153/27 54/154/27
f 55/153/27 53/155/27 54/154/27
f 54/156/25 53/157/25 51/158/25
f 55/159/28 56/160/28 43/161/28
f 43/161/28 56/160/28 41/162/28
f 30/163/11 32/164/11 56/165/11
f 56/165/11 32/164/11 41/166/11
f 5/167/18 14/168/18 4/169/18
f 4/169/18 14/168/18 12/170/18
f 3/171/22 4/172/22 12/173/22
f 3/171/22 12/173/22 11/174/22
f 50/175/29 47/176/29 49/177/29
f 49/177/29 47/176/29 46/178/29
