# Blender v2.82 (sub 7) OBJ File: 'HS One Block.blend'
# www.blender.org
mtllib HS One Block.mtl
o Cube_HS_One_Block
v 0.389366 0.500000 -0.500000
v 0.500000 0.500000 -0.389366
v 0.500000 0.389366 -0.500000
v 0.389366 -0.500000 -0.500000
v 0.500000 -0.389366 -0.500000
v 0.500000 -0.500000 -0.389366
v 0.500000 0.500000 0.389366
v 0.389366 0.500000 0.500000
v 0.500000 0.389366 0.500000
v 0.500000 -0.389366 0.500000
v 0.389366 -0.500000 0.500000
v 0.500000 -0.500000 0.389366
v -0.500000 0.389366 -0.500000
v -0.500000 0.500000 -0.389366
v -0.389366 0.500000 -0.500000
v -0.500000 -0.389366 -0.500000
v -0.389366 -0.500000 -0.500000
v -0.500000 -0.500000 -0.389366
v -0.500000 0.389366 0.500000
v -0.389366 0.500000 0.500000
v -0.500000 0.500000 0.389366
v -0.389366 -0.500000 0.500000
v -0.500000 -0.389366 0.500000
v -0.500000 -0.500000 0.389366
v -0.444683 -0.500000 0.444683
v -0.500000 0.000000 0.500000
v -0.500000 0.194683 0.500000
v -0.500000 0.292024 0.500000
v -0.500000 0.097341 0.500000
v -0.500000 -0.194683 0.500000
v -0.500000 0.048671 0.500000
v -0.500000 -0.150341 0.500000
v 0.500000 0.133342 0.500000
v 0.500000 -0.006857 0.500000
v -0.500000 0.163026 0.500000
v 0.500000 0.444683 -0.444683
v -0.500000 -0.150341 0.500000
v 0.500000 -0.006857 0.500000
v 0.500000 0.133342 0.500000
v -0.500000 0.163026 0.500000
v -0.500000 0.097341 0.500000
v -0.500000 0.048671 0.500000
v -0.500000 0.000000 0.500000
v 0.500000 0.063243 0.500000
v -0.500000 0.130184 0.500000
v -0.500000 0.073006 0.500000
v -0.500000 0.024335 0.500000
v -0.500000 -0.075171 0.500000
v 0.500000 0.098292 0.500000
v 0.500000 0.000000 -0.500000
v 0.500000 -0.194683 -0.500000
v 0.500000 0.500000 0.000000
v 0.500000 -0.198111 0.500000
v -0.299997 -0.411111 -0.476582
v -0.411108 -0.300000 -0.476582
v -0.477775 -0.300000 -0.409915
v -0.299997 -0.477778 -0.409916
v -0.411108 0.300000 -0.476582
v -0.477775 0.300000 -0.409915
v -0.299997 0.411112 -0.476582
v -0.299997 0.477778 -0.409916
v 0.300003 0.477778 -0.409916
v 0.300003 0.411112 -0.476584
v 0.411114 0.300000 -0.476584
v 0.477781 0.300000 -0.409916
v 0.477781 -0.300000 -0.409916
v 0.411114 -0.300000 -0.476584
v 0.300003 -0.411111 -0.476584
v 0.300003 -0.477778 -0.409916
v -0.411108 -0.477778 -0.298805
v -0.411108 -0.477778 0.301195
v -0.477775 -0.411111 -0.298804
v -0.477775 0.411111 -0.298804
v -0.411108 0.477778 -0.298805
v -0.411108 0.477778 0.301195
v -0.477775 0.411111 0.301193
v -0.477775 -0.411111 0.301193
v 0.411114 0.477778 -0.298807
v 0.477781 0.411111 -0.298805
v 0.477781 -0.411111 -0.298805
v 0.411114 -0.477778 -0.298807
v 0.477781 0.411111 0.301197
v 0.411114 0.477778 0.301195
v 0.477781 -0.411111 0.301197
v 0.411114 -0.477778 0.301195
v -0.299997 -0.411112 0.478973
v -0.411108 -0.300000 0.478973
v -0.477775 -0.300000 0.412304
v -0.299997 -0.477778 0.412304
v -0.411108 0.300000 0.478973
v -0.477775 0.300000 0.412304
v -0.299997 0.411111 0.478973
v -0.299997 0.477778 0.412304
v 0.300003 0.411111 0.478975
v 0.300003 0.477778 0.412306
v 0.411114 0.300000 0.478971
v 0.477781 0.300000 0.412304
v 0.477781 -0.300000 0.412304
v 0.411114 -0.300000 0.478971
v 0.300003 -0.411112 0.478975
v 0.300003 -0.477778 0.412306
v -0.132020 -0.132023 -0.498803
v -0.132020 0.132023 -0.498803
v 0.000002 0.000000 -0.598805
v -0.499997 -0.132023 0.133217
v -0.499997 0.132023 0.133217
v -0.599997 0.000000 0.001196
v -0.132020 -0.132023 0.501198
v 0.132025 -0.132023 0.501194
v 0.000002 -0.000000 0.601196
v 0.500002 -0.132023 0.133217
v 0.500002 -0.132023 -0.130829
v 0.600002 -0.000000 0.001196
v 0.500002 0.132023 0.133217
v 0.600002 -0.000000 0.001196
v 0.500004 0.132023 -0.130827
v 0.600002 -0.000000 0.001196
v 0.500002 -0.132023 -0.130829
v 0.500004 0.132023 -0.130827
v 0.500002 0.132023 0.133217
v 0.500002 -0.132023 0.133217
v 0.600002 -0.000000 0.001196
v 0.132027 -0.132023 -0.498804
v 0.000002 0.000000 -0.598805
v 0.132027 0.132023 -0.498804
v 0.000002 0.000000 -0.598805
v -0.132020 0.132023 -0.498803
v 0.132027 0.132023 -0.498804
v 0.132027 -0.132023 -0.498804
v -0.132020 -0.132023 -0.498803
v 0.000002 0.000000 -0.598805
v -0.499997 -0.132023 -0.130826
v -0.599997 0.000000 0.001196
v -0.499997 0.132023 -0.130826
v -0.599997 0.000000 0.001196
v -0.499997 0.132023 0.133217
v -0.499997 0.132023 -0.130826
v -0.499997 -0.132023 -0.130826
v -0.499997 -0.132023 0.133217
v -0.599997 0.000000 0.001196
v -0.132020 0.132023 0.501198
v 0.000002 -0.000000 0.601196
v 0.132025 0.132023 0.501194
v 0.000002 -0.000000 0.601196
v 0.132025 -0.132023 0.501194
v 0.132025 0.132023 0.501194
v -0.132020 0.132023 0.501198
v -0.132020 -0.132023 0.501198
v 0.000002 -0.000000 0.601196
v -0.132020 0.500000 -0.130826
v -0.132020 0.500000 0.133221
v 0.000002 0.600000 0.001198
v -0.132020 -0.500000 0.133220
v -0.132020 -0.500000 -0.130826
v 0.000002 -0.600000 0.001198
v 0.132025 0.500000 -0.130825
v 0.000002 0.600000 0.001198
v 0.132025 0.500000 0.133221
v 0.000002 0.600000 0.001198
v -0.132020 0.500000 0.133221
v 0.132025 0.500000 0.133221
v 0.132025 0.500000 -0.130825
v -0.132020 0.500000 -0.130826
v 0.000002 0.600000 0.001198
v 0.132025 -0.500000 0.133220
v 0.000002 -0.600000 0.001198
v 0.132025 -0.500000 -0.130825
v 0.000002 -0.600000 0.001198
v -0.132020 -0.500000 -0.130826
v 0.132025 -0.500000 -0.130825
v 0.132025 -0.500000 0.133220
v -0.132020 -0.500000 0.133220
v 0.000002 -0.600000 0.001198
v 0.500000 0.444683 0.444683
vt 0.422133 0.713590
vt 0.422389 0.713334
vt 0.424194 0.713334
vt 0.424450 0.713590
vt 0.424450 0.715395
vt 0.424194 0.715651
vt 0.422389 0.715651
vt 0.422261 0.715523
vt 0.422133 0.715395
vt 0.248380 0.735833
vt 0.254809 0.788768
vt 0.301314 0.750065
vt 0.418902 0.713088
vt 0.417299 0.713088
vt 0.417071 0.712861
vt 0.417071 0.711258
vt 0.417299 0.711030
vt 0.266181 0.692428
vt 0.273777 0.739732
vt 0.351292 0.740591
vt 0.326870 0.740591
vt 0.274149 0.713522
vt 0.294388 0.736096
vt 0.333401 0.728099
vt 0.290338 0.759730
vt 0.369448 0.733073
vt 0.357582 0.720043
vt 0.346841 0.702838
vt 0.358144 0.717956
vt 0.232304 0.728955
vt 0.340784 0.735337
vt 0.225127 0.703091
vt 0.280196 0.726561
vt 0.321657 0.729022
vt 0.356108 0.733572
vt 0.318784 0.742575
vt 0.308684 0.755494
vt 0.308069 0.744779
vt 0.306842 0.726311
vt 0.297946 0.747228
vt 0.302867 0.741407
vt 0.274127 0.727340
vt 0.361505 0.745518
vt 0.296633 0.749231
vt 0.301683 0.723521
vt 0.418158 0.713625
vt 0.417259 0.713331
vt 0.417360 0.710731
vt 0.431533 0.710254
vt 0.432324 0.710254
vt 0.433115 0.710254
vt 0.433373 0.710254
vt 0.433373 0.710254
vt 0.433640 0.710254
vt 0.433907 0.710254
vt 0.434105 0.710254
vt 0.434302 0.710254
vt 0.434500 0.710254
vt 0.434698 0.710254
vt 0.435309 0.710254
vt 0.435920 0.710254
vt 0.435920 0.710254
vt 0.436281 0.710254
vt 0.418097 0.710505
vt 0.418405 0.710813
vt 0.418405 0.712984
vt 0.437863 0.718383
vt 0.436308 0.718383
vt 0.434754 0.718383
vt 0.434754 0.718383
vt 0.434184 0.718383
vt 0.433899 0.718383
vt 0.433614 0.718383
vt 0.433614 0.718383
vt 0.418243 0.712888
vt 0.436085 0.717367
vt 0.434502 0.717367
vt 0.434142 0.717367
vt 0.432920 0.717367
vt 0.432524 0.717367
vt 0.432128 0.717367
vt 0.431595 0.717367
vt 0.431337 0.717367
vt 0.430546 0.717367
vt 0.419068 0.713350
vt 0.418738 0.713021
vt 0.418738 0.710703
vt 0.429755 0.709237
vt 0.418019 0.711093
vt 0.418243 0.711316
vt 0.419783 0.712295
vt 0.429925 0.720097
vt 0.419208 0.713934
vt 0.417928 0.713415
vt 0.416721 0.712991
vt 0.426071 0.717367
vt 0.426696 0.716446
vt 0.427008 0.715985
vt 0.416887 0.711341
vt 0.418768 0.710685
vt 0.353639 0.709770
vt 0.353639 0.709770
vt 0.353924 0.709770
vt 0.354208 0.709770
vt 0.354778 0.709770
vt 0.354778 0.709770
vt 0.353931 0.701641
vt 0.353931 0.701641
vt 0.353664 0.701641
vt 0.353397 0.701641
vt 0.353397 0.701641
vt 0.354327 0.701641
vt 0.354327 0.701641
vt 0.354129 0.701641
vt 0.354723 0.701641
vt 0.354723 0.701641
vt 0.354525 0.701641
vt 0.355945 0.701641
vt 0.355945 0.701641
vt 0.355334 0.701641
vt 0.423260 0.716071
vt 0.442658 0.720843
vt 0.441075 0.720843
vt 0.439493 0.720843
vt 0.422454 0.715271
vt 0.422375 0.715192
vt 0.422296 0.715113
vt 0.422296 0.714558
vt 0.422296 0.714003
vt 0.429312 0.713359
vt 0.436327 0.712714
vt 0.438409 0.712714
vt 0.439548 0.712714
vt 0.441103 0.712714
vt 0.422831 0.712621
vt 0.423260 0.713051
vt 0.041991 0.875897
vt 0.041991 0.804281
vt 0.030791 0.804193
vt 0.030791 0.875986
vt 0.055346 0.889285
vt 0.055270 0.900473
vt 0.127092 0.900473
vt 0.127016 0.889285
vt 0.140371 0.875897
vt 0.151571 0.875986
vt 0.151571 0.804193
vt 0.140371 0.804281
vt 0.127016 0.790892
vt 0.127092 0.779705
vt 0.055346 0.790892
vt 0.055270 0.779705
vt 0.126945 0.899741
vt 0.055442 0.888910
vt 0.055453 0.899744
vt 0.126921 0.780364
vt 0.055411 0.780365
vt 0.055413 0.791200
vt 0.126923 0.791196
vt 0.126948 0.888907
vt 0.126921 0.888934
vt 0.055414 0.888935
vt 0.055414 0.899770
vt 0.126923 0.899769
vt 0.055441 0.791022
vt 0.126874 0.791021
vt 0.127208 0.779871
vt 0.055106 0.779872
vt 0.151569 0.804198
vt 0.140370 0.804286
vt 0.140370 0.875904
vt 0.151569 0.875992
vt 0.055344 0.889303
vt 0.127092 0.900484
vt 0.127014 0.889297
vt 0.055271 0.900491
vt 0.030841 0.875919
vt 0.042020 0.875923
vt 0.030841 0.804271
vt 0.042020 0.804267
vt 0.055271 0.779698
vt 0.055344 0.790887
vt 0.127092 0.779705
vt 0.127014 0.790892
vt 0.065077 -0.002739
vt -0.002767 -0.002739
vt 0.031154 0.031189
vt 0.065036 -0.002458
vt -0.002808 -0.002458
vt 0.031115 0.031471
vt 0.065036 0.065390
vt 0.065036 -0.002458
vt 0.031114 0.031471
vt 0.065036 0.065390
vt 0.065036 -0.002458
vt 0.031115 0.031471
vt -0.002808 0.065390
vt 0.031115 0.031471
vt -0.002808 -0.002458
vt 0.031115 0.031471
vt 0.065036 -0.002458
vt -0.002808 -0.002458
vt -0.002808 0.065390
vt 0.065036 0.065390
vt 0.031115 0.031471
vt 0.065077 0.065108
vt 0.031154 0.031189
vt -0.002767 0.065108
vt 0.031154 0.031189
vt -0.002767 -0.002739
vt -0.002767 0.065108
vt 0.065077 0.065108
vt 0.065077 -0.002739
vt 0.031154 0.031189
vt 0.065036 0.065390
vt 0.031115 0.031471
vt -0.002808 0.065390
vt 0.031115 0.031471
vt -0.002808 -0.002458
vt -0.002808 0.065390
vt 0.065036 0.065390
vt 0.065036 -0.002458
vt 0.031115 0.031471
vt -0.002808 0.065390
vt 0.031114 0.031471
vt -0.002808 -0.002458
vt 0.031114 0.031471
vt 0.065036 -0.002458
vt -0.002808 -0.002458
vt -0.002808 0.065390
vt 0.065036 0.065390
vt 0.031114 0.031471
vt -0.002805 -0.002555
vt -0.002808 0.065292
vt 0.031115 0.031373
vt 0.065036 0.065292
vt 0.065036 -0.002555
vt 0.031114 0.031373
vt 0.065036 -0.002555
vt 0.031115 0.031373
vt 0.065036 0.065292
vt 0.031115 0.031373
vt -0.002808 0.065292
vt 0.065036 0.065292
vt 0.065036 -0.002555
vt -0.002805 -0.002555
vt 0.031115 0.031373
vt -0.002808 0.065292
vt 0.031114 0.031373
vt -0.002808 -0.002555
vt 0.031114 0.031373
vt 0.065036 -0.002555
vt -0.002808 -0.002555
vt -0.002808 0.065292
vt 0.065036 0.065292
vt 0.031114 0.031373
vn 0.0000 -1.0000 -0.0000
vn 0.0000 1.0000 -0.0000
vn 0.5774 0.5774 -0.5774
vn 0.5774 -0.5774 -0.5774
vn 0.5774 0.5774 0.5774
vn 0.5774 -0.5774 0.5774
vn -0.5774 0.5774 -0.5774
vn -0.5774 -0.5774 -0.5774
vn -0.5774 0.5774 0.5774
vn -0.5774 -0.5774 0.5774
vn 0.0000 0.0000 1.0000
vn -1.0000 -0.0000 0.0000
vn -0.0000 0.0000 -1.0000
vn 1.0000 -0.0000 0.0000
vn -0.7071 0.0000 -0.7071
vn 0.0000 0.7071 -0.7071
vn 0.7071 0.0000 -0.7071
vn 0.0000 -0.7071 -0.7071
vn -0.7071 -0.7071 0.0000
vn -0.7071 0.7071 0.0000
vn 0.7071 0.7071 0.0000
vn 0.7071 -0.7071 0.0000
vn -0.7071 0.0000 0.7071
vn 0.0000 0.7071 0.7071
vn 0.7071 0.0000 0.7071
vn 0.0000 -0.7071 0.7071
vn -0.6038 0.0000 -0.7971
vn -0.7971 0.0000 0.6038
vn 0.0000 -0.6038 0.7971
vn 0.7971 -0.6038 0.0000
vn 0.7971 0.6038 0.0000
vn 0.7971 0.0000 -0.6038
vn 0.7971 0.0000 0.6038
vn 0.6038 0.0000 -0.7971
vn 0.0000 0.6038 -0.7971
vn 0.0000 -0.6038 -0.7971
vn -0.7971 0.0000 -0.6038
vn -0.7971 0.6038 0.0000
vn -0.7971 -0.6038 0.0000
vn 0.0000 0.6038 0.7971
vn 0.6038 0.0000 0.7971
vn -0.6038 0.0000 0.7971
vn -0.6038 0.7971 0.0000
vn -0.6038 -0.7971 0.0000
vn 0.6038 0.7971 0.0000
vn 0.0000 0.7971 0.6038
vn 0.0000 0.7971 -0.6038
vn 0.6038 -0.7971 0.0000
vn 0.0000 -0.7971 -0.6038
vn 0.0000 -0.7971 0.6038
usemtl Material
s off
f 18/1/1 17/2/1 4/3/1 6/4/1 12/5/1 11/6/1 22/7/1 25/8/1 24/9/1
f 2/10/2 1/11/2 15/12/2 14/13/2 21/14/2 20/15/2 8/16/2 7/17/2 52/18/2
f 1/19/3 2/20/3 36/21/3 3/22/3
f 4/23/4 5/24/4 6/25/4
f 7/26/5 8/27/5 9/28/5 174/29/5
f 10/30/6 11/31/6 12/32/6
f 13/33/7 14/34/7 15/35/7
f 16/36/8 17/37/8 18/38/8
f 19/39/9 20/40/9 21/41/9
f 22/42/10 23/43/10 24/44/10 25/45/10
f 9/46/11 8/47/11 20/48/11 19/49/11 28/50/11 27/51/11 35/52/11 40/53/11 45/54/11 41/55/11 46/56/11 42/57/11 47/58/11 43/59/11 48/60/11 37/61/11 32/62/11 30/63/11 23/64/11 22/65/11 11/66/11 10/67/11 53/68/11 34/69/11 38/70/11 44/71/11 49/72/11 39/73/11 33/74/11
f 24/75/12 23/76/12 30/77/12 32/78/12 26/79/12 31/80/12 29/81/12 35/82/12 27/83/12 28/84/12 19/85/12 21/86/12 14/87/12 13/88/12 16/89/12 18/90/12
f 17/91/13 16/92/13 13/93/13 15/94/13 1/95/13 3/96/13 50/97/13 51/98/13 5/99/13 4/100/13
f 33/101/11 39/102/11 49/103/11 44/104/11 38/105/11 34/106/11
f 29/107/11 41/108/11 45/109/11 40/110/11 35/111/11
f 31/112/11 42/113/11 46/114/11 41/108/11 29/107/11
f 26/115/11 43/116/11 47/117/11 42/113/11 31/112/11
f 32/118/11 37/119/11 48/120/11 43/116/11 26/115/11
f 6/121/14 5/122/14 51/123/14 50/124/14 3/125/14 36/126/14 2/127/14 52/128/14 7/129/14 174/130/14 9/131/14 33/132/14 34/133/14 53/134/14 10/135/14 12/136/14
s 1
f 58/137/15 55/138/15 56/139/15
f 59/140/15 58/137/15 56/139/15
f 60/141/16 61/142/16 62/143/16
f 62/143/16 63/144/16 60/141/16
f 64/145/17 65/146/17 66/147/17
f 66/147/17 67/148/17 64/145/17
f 68/149/18 69/150/18 54/151/18
f 69/150/18 57/152/18 54/151/18
f 71/153/19 72/154/19 70/155/19
f 75/156/20 74/157/20 73/158/20
f 73/158/20 76/159/20 75/156/20
f 71/153/19 77/160/19 72/154/19
f 82/161/21 79/162/21 78/163/21
f 78/163/21 83/164/21 82/161/21
f 80/165/22 84/166/22 85/167/22
f 85/167/22 81/168/22 80/165/22
f 88/169/23 87/170/23 90/171/23
f 90/171/23 91/172/23 88/169/23
f 94/173/24 93/174/24 92/175/24
f 93/174/24 94/173/24 95/176/24
f 97/177/25 96/178/25 98/179/25
f 96/178/25 99/180/25 98/179/25
f 101/181/26 100/182/26 89/183/26
f 100/182/26 86/184/26 89/183/26
f 102/185/27 103/186/27 104/187/27
f 105/188/28 106/189/28 107/190/28
f 108/191/29 109/192/29 110/193/29
f 111/194/30 112/195/30 113/196/30
f 114/197/31 115/198/31 116/199/31
f 117/200/32 118/201/32 119/202/32
f 120/203/33 121/204/33 122/205/33
f 123/206/34 124/207/34 125/208/34
f 126/209/35 127/210/35 128/211/35
f 129/212/36 130/213/36 131/214/36
f 132/215/37 133/216/37 134/217/37
f 135/218/38 136/219/38 137/220/38
f 138/221/39 139/222/39 140/223/39
f 141/224/40 142/225/40 143/226/40
f 144/227/41 145/228/41 146/229/41
f 147/230/42 148/231/42 149/232/42
f 150/233/43 151/234/43 152/235/43
f 153/236/44 154/237/44 155/238/44
f 156/239/45 157/240/45 158/241/45
f 159/242/46 160/243/46 161/244/46
f 162/245/47 163/246/47 164/247/47
f 165/248/48 166/249/48 167/250/48
f 168/251/49 169/252/49 170/253/49
f 171/254/50 172/255/50 173/256/50
