# Blender v2.80 (sub 75) OBJ File: 'GSO_Curved_Two_Block.blend'
# www.blender.org
mtllib GSO_Curved_Two_Block_Collider.mtl
o GSO_Curved_Two_Block
v 1.477760 -0.299999 -0.411082
v 1.477760 0.426761 -0.411082
v 1.499980 0.408503 -0.299971
v 1.499980 -0.300000 -0.299973
v 1.411090 -0.300001 -0.477751
v 1.411090 0.443375 -0.477751
v 1.299980 -0.300001 -0.499972
v 1.299980 0.450001 -0.499972
v -0.300023 -0.300001 -0.499973
v -0.300023 0.450001 -0.499973
v -0.297222 0.496340 -0.462170
v 1.297180 0.496339 -0.462169
v -0.397225 0.493588 -0.442170
v -0.411134 0.443376 -0.477752
v -0.411134 -0.300001 -0.477752
v -0.300023 -0.411111 -0.477752
v -0.411134 -0.398767 -0.457996
v 1.299980 -0.411112 -0.477751
v 1.411090 -0.398767 -0.457995
v 1.477760 -0.361730 -0.398738
v 1.477760 -0.398766 -0.361702
v 1.477760 -0.411110 -0.299971
v 1.477760 -0.411110 0.426790
v 1.499980 -0.299999 0.408531
v 1.411090 -0.477780 0.443403
v 1.411090 -0.477780 -0.299973
v 1.299980 -0.500000 -0.299973
v 1.299980 -0.500000 0.450029
v 1.132000 -0.500000 -0.131995
v 0.867955 -0.500000 -0.131995
v 0.867955 -0.500000 0.132051
v 0.699978 -0.500000 0.450029
v 0.299978 -0.500000 0.450028
v 0.299978 -0.500000 -0.299973
v 0.132000 -0.500000 0.132051
v -0.132046 -0.500000 0.132051
v -0.300023 -0.500000 0.450028
v 1.297180 -0.462197 0.496367
v -0.297223 -0.462197 0.496367
v 1.397180 -0.442197 0.493615
v 1.444310 -0.388727 0.486257
v 1.461930 -0.297269 0.473672
v 1.461930 -0.241181 0.465953
v -0.461979 -0.241181 0.465953
v -0.461979 -0.297269 0.473671
v -0.444354 -0.388727 0.486257
v -0.397226 -0.442197 0.493615
v 1.461930 -0.000000 0.366053
v -0.461979 -0.000000 0.366052
v 1.499980 -0.258047 0.403008
v 1.499980 -0.132023 0.132049
v 1.499980 -0.132023 -0.131996
v 1.499980 0.132023 -0.131996
v 1.499980 0.402980 -0.258019
v 1.461930 0.465925 -0.241153
v 1.461940 0.473643 -0.297241
v 1.397180 0.493587 -0.442169
v -0.444354 0.486230 -0.388700
v -0.461979 0.473644 -0.297242
v -0.461979 0.465926 -0.241154
v 1.444310 0.486229 -0.388699
v -0.477800 0.426762 -0.411083
v -0.477801 -0.299999 -0.411083
v -0.477801 -0.361730 -0.398739
v -0.477801 -0.398766 -0.361703
v -0.411134 -0.458023 -0.398740
v -0.500023 -0.299999 -0.299973
v -0.477801 -0.411110 -0.299971
v -0.411134 -0.477780 -0.299973
v -0.411134 -0.477779 0.443403
v -0.477801 -0.411110 0.426789
v -0.300023 -0.500000 -0.299973
v -0.132046 -0.500000 -0.131995
v 1.299980 -0.477780 -0.411084
v -0.300023 -0.477780 -0.411084
v 1.411090 -0.458023 -0.398739
v 0.132000 -0.500000 -0.131995
v -0.500023 -0.299999 0.408531
v -0.500023 -0.258047 0.403008
v -0.500021 -0.132023 0.132048
v -0.500023 -0.032583 0.309617
v -0.461979 0.207107 0.207134
v 1.461930 0.207106 0.207134
v 1.499980 -0.032583 0.309618
v 1.499980 0.161027 0.161055
v 1.499980 0.132023 0.132049
v 1.499980 0.309590 -0.032555
v 1.461930 0.366025 0.000028
v -0.461979 0.366025 0.000027
v -0.500023 0.402980 -0.258020
v -0.500023 0.408504 -0.299972
v -0.500021 -0.132023 -0.131997
v -0.500021 0.132023 0.132048
v -0.500023 0.161028 0.161055
v -0.500023 0.309590 -0.032556
v -0.500021 0.132023 -0.131997
v 1.132000 -0.500000 0.132051
v 1.400140 0.409523 -0.105285
v 1.400140 0.276379 0.116669
v 1.349410 0.254161 0.145811
v 1.289180 0.482046 -0.357556
v 1.351750 0.481884 -0.357409
v 1.067410 0.487115 -0.394392
v 1.129980 0.486953 -0.394245
v 0.892551 0.487115 -0.394392
v 1.067400 -0.394419 0.487143
v 1.129980 -0.394273 0.486981
v 1.351750 -0.357437 0.481912
v 1.370930 -0.298441 0.473706
v 0.829975 -0.394273 0.486981
v 0.892551 -0.394419 0.487143
v 0.587405 -0.394419 0.487143
v 0.649981 -0.394273 0.486981
v -0.400182 0.116641 0.276407
v -0.400182 0.409524 -0.105286
v -0.400182 0.276380 0.116668
v -0.400182 -0.105313 0.409551
v 0.867954 -0.132023 -0.499974
v 0.867954 0.132023 -0.499974
v 1.132000 0.132023 -0.499974
v 1.132000 -0.132023 -0.499974
v 0.132000 -0.132023 -0.499974
v 0.132000 0.132023 -0.499974
v -0.132046 -0.132023 -0.499974
v -0.132046 0.132023 -0.499974
vt 0.121910 0.803941
vt 0.135225 0.888842
vt 0.135225 0.803941
vt 0.113921 0.803941
vt 0.121910 0.891030
vt 0.015392 0.803941
vt 0.002078 0.893021
vt 0.002078 0.803941
vt 0.764663 0.968296
vt 0.861786 0.965479
vt 0.764493 0.965479
vt 0.758582 0.968129
vt 0.757737 0.965076
vt 0.207123 0.803941
vt 0.220438 0.893021
vt 0.207123 0.893815
vt 0.022635 0.891651
vt 0.009221 0.879728
vt 0.009221 0.891651
vt 0.215800 0.891651
vt 0.022635 0.878237
vt 0.229214 0.879728
vt 0.215800 0.878237
vt 0.229214 0.891651
vt 0.237263 0.884199
vt 0.083640 0.890797
vt 0.076187 0.878874
vt 0.083640 0.877383
vt 0.071716 0.883345
vt 0.070226 0.890797
vt 0.083640 0.976333
vt 0.070226 0.978538
vt 0.062177 0.890797
vt 0.062177 0.980543
vt 0.215800 0.890797
vt 0.229214 0.980543
vt 0.215800 0.981343
vt 0.837966 0.921994
vt 0.835719 0.937685
vt 0.841794 0.923019
vt 0.042915 0.942955
vt 0.022635 0.981343
vt 0.022635 0.890797
vt 0.823254 0.947477
vt 0.826056 0.950279
vt 0.825301 0.965049
vt 0.764663 0.967866
vt 0.800978 0.965048
vt 0.861786 0.965049
vt 0.867696 0.967699
vt 0.861615 0.967866
vt 0.868542 0.964646
vt 0.784409 0.964646
vt 0.789824 0.967251
vt 0.786573 0.967699
vt 0.788463 0.963635
vt 0.842263 0.919609
vt 0.839412 0.912686
vt 0.838302 0.919443
vt 0.842263 0.919609
vt 0.837966 0.921994
vt 0.838302 0.919443
vt 0.861615 0.910010
vt 0.867696 0.911226
vt 0.870562 0.914477
vt 0.871634 0.938115
vt 0.754645 0.923449
vt 0.871634 0.923449
vt 0.155353 0.824070
vt 0.186994 0.824070
vt 0.797771 0.962189
vt 0.813462 0.959942
vt 0.798796 0.966017
vt 0.143363 0.981343
vt 0.095072 0.981343
vt 0.074793 0.942955
vt 0.795386 0.966486
vt 0.871634 0.919609
vt 0.870562 0.914047
vt 0.861615 0.909580
vt 0.867696 0.968129
vt 0.861615 0.968296
vt 0.868542 0.965076
vt 0.843028 0.914047
vt 0.840423 0.908632
vt 0.843476 0.910796
vt 0.839412 0.912686
vt 0.840423 0.908632
vt 0.843029 0.914047
vt 0.843476 0.910796
vt 0.113921 0.803941
vt 0.121910 0.891030
vt 0.113921 0.893021
vt 0.001173 0.884199
vt 0.001173 0.891652
vt 0.071716 0.883345
vt 0.071716 0.871720
vt 0.064562 0.878873
vt 0.083640 0.890797
vt 0.076187 0.878874
vt 0.070226 0.890797
vt 0.062177 0.890797
vt 0.070226 0.978538
vt 0.009221 0.980543
vt 0.009221 0.890797
vt 0.813462 0.959942
vt 0.095072 0.890797
vt 0.022635 0.877383
vt 0.229214 0.878874
vt 0.229214 0.890797
vt 0.229214 0.872574
vt 0.215800 0.870188
vt 0.064562 0.878874
vt 0.071716 0.871720
vt 0.237263 0.883345
vt 0.237263 0.890797
vt 0.009221 0.872574
vt 0.022635 0.870188
vt 0.009221 0.878873
vt 0.797771 0.962189
vt 0.798796 0.966017
vt 0.042915 0.911077
vt 0.015392 0.893815
vt 0.832287 0.935704
vt 0.764493 0.965048
vt 0.758582 0.967699
vt 0.757737 0.964646
vt 0.789824 0.967251
vt 0.784409 0.964646
vt 0.786573 0.967699
vt 0.788463 0.963635
vt 0.795220 0.962525
vt 0.811481 0.956510
vt 0.826056 0.950279
vt 0.871634 0.950709
vt 0.754645 0.938115
vt 0.195520 0.942955
vt 0.074793 0.911077
vt 0.871634 0.923019
vt 0.754645 0.937685
vt 0.871634 0.937685
vt 0.795386 0.966486
vt 0.186994 0.824070
vt 0.155353 0.824070
vt 0.135225 0.803941
vt 0.167270 0.876989
vt 0.186994 0.855711
vt 0.155353 0.855711
vt 0.754645 0.950279
vt 0.871634 0.950279
vt 0.835719 0.937685
vt 0.841794 0.923019
vt 0.121910 0.803941
vt 0.135225 0.888842
vt 0.083640 0.877383
vt 0.083640 0.976333
vt 0.140252 0.888180
vt 0.155353 0.855711
vt 0.167270 0.876989
vt 0.237263 0.891652
vt 0.195520 0.911077
vt 0.163643 0.942955
vt 0.163643 0.911077
vt 0.186994 0.855711
vt 0.832287 0.935704
vt 0.795220 0.962525
vt 0.140252 0.888180
vt 0.208273 0.835986
vt 0.190470 0.859187
vt 0.220126 0.803941
vt 0.219464 0.808968
vt 0.754645 0.950709
vt 0.754645 0.923019
vt 0.823254 0.947477
vt 0.811481 0.956510
vt 0.215800 0.877383
vt 0.062177 0.980543
vt 0.755716 0.914047
vt 0.754645 0.919609
vt 0.764663 0.909580
vt 0.758582 0.910796
vt 0.867696 0.910796
vt 0.208273 0.835986
vt 0.220126 0.803941
vt 0.219464 0.808968
vt 0.190470 0.859187
vt 0.755716 0.914477
vt 0.758582 0.911226
vt 0.764663 0.910010
vt 0.754645 0.920039
vt 0.871634 0.920039
vt 0.220438 0.803941
vt 0.113921 0.893021
vn 0.8732 -0.0493 -0.4848
vn 0.9650 0.2554 -0.0593
vn 0.9935 -0.0802 -0.0802
vn 0.4631 -0.0865 -0.8821
vn 0.8644 0.2725 -0.4225
vn 0.0975 -0.0975 -0.9905
vn 0.4731 0.3098 -0.8247
vn -0.0851 0.6329 -0.7695
vn 0.0986 0.3323 -0.9380
vn -0.0986 0.3323 -0.9380
vn -0.4463 0.6006 -0.6634
vn -0.4731 0.3098 -0.8247
vn -0.0975 -0.0975 -0.9905
vn -0.4638 -0.4189 -0.7807
vn -0.4631 -0.0865 -0.8821
vn -0.1010 -0.4705 -0.8766
vn 0.4637 -0.4189 -0.7807
vn 0.1011 -0.4705 -0.8766
vn 0.8671 -0.2316 -0.4410
vn 0.8671 -0.4410 -0.2316
vn 0.8732 -0.4848 -0.0493
vn 0.9650 -0.0593 0.2554
vn 0.8644 -0.4225 0.2726
vn 0.4631 -0.8821 -0.0865
vn 0.4731 -0.8247 0.3098
vn 0.0975 -0.9905 -0.0975
vn 0.0986 -0.9380 0.3323
vn -0.9598 0.2712 0.0731
vn -0.8636 0.4366 0.2521
vn -0.8636 0.4866 0.1318
vn 0.0000 -1.0000 -0.0000
vn -0.0986 -0.9380 0.3323
vn -0.0975 -0.9905 -0.0975
vn -0.9597 0.1988 0.1988
vn -0.8636 0.3565 0.3565
vn -0.0000 -0.9420 0.3355
vn -0.0851 -0.7695 0.6329
vn 0.4462 -0.6634 0.6007
vn 0.0851 -0.7695 0.6329
vn 0.7739 -0.3144 0.5498
vn -0.8617 0.5071 -0.0175
vn -0.8644 0.2725 -0.4225
vn -0.9650 0.2554 -0.0593
vn 0.8617 0.5071 -0.0175
vn 0.9597 0.2712 0.0731
vn -0.0000 0.1363 0.9907
vn -0.0000 0.5000 0.8660
vn -0.0000 0.2616 0.9652
vn 1.0000 -0.0000 0.0000
vn 0.9597 0.0731 0.2712
vn 0.8636 0.2521 0.4367
vn 0.8636 0.1318 0.4867
vn 0.8617 -0.0175 0.5071
vn 0.0000 0.9907 0.1363
vn 0.4462 0.6006 -0.6634
vn 0.0851 0.6329 -0.7695
vn 0.7738 0.5498 -0.3145
vn -0.7739 0.5498 -0.3144
vn -0.8671 -0.2316 -0.4410
vn -0.8732 -0.0493 -0.4848
vn -0.8671 -0.4410 -0.2316
vn -0.4638 -0.7807 -0.4189
vn -0.9935 -0.0802 -0.0802
vn -0.8732 -0.4848 -0.0493
vn -0.4631 -0.8821 -0.0865
vn -0.8644 -0.4225 0.2725
vn -0.4731 -0.8247 0.3098
vn -0.8636 0.2521 0.4366
vn 0.0000 -0.9951 -0.0985
vn -0.1011 -0.8766 -0.4705
vn 0.4637 -0.7807 -0.4189
vn 0.1011 -0.8766 -0.4705
vn -0.9598 0.0731 0.2712
vn -0.8636 0.1318 0.4866
vn -0.9597 0.2435 0.1406
vn -0.4463 -0.6634 0.6006
vn -0.7739 -0.3144 0.5498
vn 0.9596 0.1406 0.2435
vn 0.8636 0.3565 0.3565
vn 0.0000 0.7071 0.7071
vn 0.0000 0.9652 0.2616
vn -0.0000 0.8660 0.5000
vn -0.8617 -0.0175 0.5071
vn -1.0000 0.0000 -0.0000
vn 0.9596 0.2435 0.1406
vn 0.8636 0.4367 0.2521
vn 0.8636 0.4867 0.1319
vn -0.9650 -0.0593 0.2554
vn -0.9597 0.1406 0.2435
vn 0.9596 0.1989 0.1989
usemtl Color_M02.002
s 1
f 1/1/1 3/2/2 4/3/3
f 5/4/4 2/5/5 1/1/1
f 7/6/6 6/7/7 5/8/4
f 11/9/8 8/10/9 10/11/10
f 10/11/10 13/12/11 11/9/8
f 13/12/11 10/11/10 14/13/12
f 9/14/13 14/15/12 10/16/10
f 9/17/13 17/18/14 15/19/15
f 7/20/6 16/21/16 9/17/13
f 7/20/6 19/22/17 18/23/18
f 5/24/4 20/25/19 19/22/17
f 4/26/3 20/27/19 1/28/1
f 20/27/19 4/26/3 21/29/20
f 21/29/20 4/26/3 22/30/21
f 22/30/21 24/31/22 23/32/23
f 26/33/24 23/32/23 25/34/25
f 27/35/26 25/36/25 28/37/27
f 90/38/28 89/39/29 60/40/30
f 36/41/31 37/42/32 72/43/33
f 10/16/10 7/6/6 9/14/13
f 89/39/29 94/44/34 82/45/35
f 32/46/36 39/47/37 33/48/36
f 28/49/27 40/50/38 38/51/39
f 40/50/38 28/49/27 25/52/25
f 25/53/25 41/54/40 40/55/38
f 41/54/40 25/53/25 23/56/23
f 59/57/41 62/58/42 91/59/43
f 56/60/44 54/61/45 3/62/2
f 38/63/46 40/64/46 41/65/46
f 48/66/47 44/67/48 43/68/48
f 4/3/3 52/69/49 51/70/49
f 50/71/50 48/72/51 43/73/52
f 32/74/36 33/75/36 35/76/31
f 23/56/23 42/77/53 41/54/40
f 56/78/54 61/79/54 12/80/54
f 57/81/55 8/10/9 12/82/56
f 8/10/9 57/81/55 6/83/7
f 61/84/57 6/85/7 57/86/55
f 6/85/7 61/84/57 2/87/5
f 14/88/12 58/89/58 13/90/11
f 58/89/58 14/88/12 62/58/42
f 15/91/15 62/92/42 14/93/12
f 15/19/15 64/94/59 63/95/60
f 65/96/61 17/97/14 66/98/62
f 65/96/61 67/99/63 64/100/59
f 67/99/63 65/96/61 68/101/64
f 69/102/65 65/96/61 66/98/62
f 69/102/65 71/103/66 68/101/64
f 72/43/33 70/104/67 69/105/65
f 94/44/34 49/106/68 82/45/35
f 34/107/69 72/43/33 75/108/70
f 27/35/26 76/109/71 26/110/24
f 18/23/18 76/111/71 74/112/72
f 20/27/19 76/113/71 19/114/17
f 26/110/24 21/115/20 22/116/21
f 74/112/72 16/21/16 18/23/18
f 66/117/62 16/21/16 75/118/70
f 72/43/33 66/119/62 75/108/70
f 49/106/68 79/120/73 44/121/74
f 32/46/36 28/49/27 38/51/39
f 38/51/39 39/47/37 32/46/36
f 73/122/31 35/76/31 36/41/31
f 10/16/10 8/123/9 7/6/6
f 89/39/29 95/124/75 94/44/34
f 37/125/32 47/126/76 70/127/67
f 47/126/76 37/125/32 39/47/37
f 46/128/77 70/129/67 47/130/76
f 70/129/67 46/128/77 71/131/66
f 56/60/44 2/87/5 61/84/57
f 50/71/50 42/77/53 24/132/22
f 59/57/41 90/38/28 60/40/30
f 84/133/78 83/134/79 48/72/51
f 83/135/80 49/136/47 48/66/47
f 28/37/27 97/137/31 27/35/26
f 72/43/33 73/122/31 36/41/31
f 35/76/31 33/75/36 37/42/32
f 72/43/33 77/138/31 73/122/31
f 36/41/31 35/76/31 37/42/32
f 55/139/81 89/140/82 88/141/82
f 79/120/73 45/142/83 44/121/74
f 80/143/84 92/144/84 67/145/63
f 90/38/28 95/124/75 89/39/29
f 27/35/26 26/110/24 25/36/25
f 87/146/85 86/147/49 53/148/49
f 88/141/82 82/149/80 83/150/80
f 88/151/86 54/61/45 55/152/87
f 26/33/24 22/30/21 23/32/23
f 72/43/33 34/107/69 77/138/31
f 63/153/60 91/154/43 62/92/42
f 64/100/59 67/99/63 63/155/60
f 45/142/83 71/131/66 46/128/77
f 68/101/64 78/156/88 67/99/63
f 90/157/28 96/158/84 95/159/75
f 5/24/4 1/160/1 20/25/19
f 22/30/21 4/26/3 24/31/22
f 29/161/31 31/162/31 30/163/31
f 7/20/6 18/23/18 16/21/16
f 7/20/6 5/24/4 19/22/17
f 80/143/84 93/164/84 96/158/84
f 53/148/49 86/147/49 51/70/49
f 87/165/85 88/151/86 83/134/79
f 90/157/28 92/144/84 96/158/84
f 68/101/64 71/103/66 78/156/88
f 45/142/83 78/166/88 71/131/66
f 63/153/60 67/145/63 91/154/43
f 29/161/31 97/137/31 31/162/31
f 88/141/82 89/140/82 82/149/80
f 54/167/45 87/146/85 53/148/49
f 3/2/2 54/167/45 53/148/49
f 53/148/49 4/3/3 3/2/2
f 88/151/86 87/165/85 54/61/45
f 92/144/84 91/154/43 67/145/63
f 95/159/75 96/158/84 93/164/84
f 80/143/84 81/168/89 93/164/84
f 81/168/89 94/169/34 93/164/84
f 94/169/34 95/159/75 93/164/84
f 78/170/88 79/171/73 80/143/84
f 67/145/63 78/170/88 80/143/84
f 92/144/84 90/157/28 91/154/43
f 79/120/73 78/166/88 45/142/83
f 79/171/73 81/168/89 80/143/84
f 97/137/31 29/161/31 27/35/26
f 32/74/36 31/162/31 97/137/31
f 28/37/27 32/74/36 97/137/31
f 83/135/80 82/172/80 49/136/47
f 55/139/81 60/173/81 89/140/82
f 59/57/41 91/59/43 90/38/28
f 50/71/50 43/73/52 42/77/53
f 56/60/44 3/62/2 2/87/5
f 73/122/31 77/138/31 35/76/31
f 84/133/78 85/174/90 83/134/79
f 72/43/33 69/105/65 66/119/62
f 66/117/62 17/18/14 16/21/16
f 74/112/72 75/118/70 16/21/16
f 26/110/24 76/109/71 21/115/20
f 49/106/68 81/175/89 79/120/73
f 18/23/18 19/22/17 76/111/71
f 27/35/26 74/176/72 76/109/71
f 74/176/72 27/35/26 34/107/69
f 75/108/70 74/176/72 34/107/69
f 20/27/19 21/29/20 76/113/71
f 72/43/33 37/42/32 70/104/67
f 69/102/65 70/177/67 71/103/66
f 69/102/65 68/101/64 65/96/61
f 65/96/61 64/100/59 17/97/14
f 94/44/34 81/175/89 49/106/68
f 15/91/15 63/153/60 62/92/42
f 55/139/81 56/78/54 12/80/54
f 60/173/81 55/139/81 12/80/54
f 58/178/54 59/179/54 11/180/54
f 15/19/15 17/18/14 64/94/59
f 11/180/54 13/181/54 58/178/54
f 12/80/54 11/180/54 60/173/81
f 61/79/54 57/182/54 12/80/54
f 23/56/23 24/132/22 42/77/53
f 60/173/81 11/180/54 59/179/54
f 34/107/69 31/162/31 35/76/31
f 31/162/31 32/74/36 35/76/31
f 30/163/31 31/162/31 34/107/69
f 27/35/26 29/161/31 30/163/31
f 35/76/31 77/138/31 34/107/69
f 50/71/50 84/133/78 48/72/51
f 51/70/49 86/147/49 84/183/78
f 4/3/3 53/148/49 52/69/49
f 24/184/22 4/3/3 51/70/49
f 34/107/69 27/35/26 30/163/31
f 84/183/78 50/185/50 51/70/49
f 85/186/90 84/183/78 86/147/49
f 86/147/49 87/146/85 85/186/90
f 48/66/47 49/136/47 44/67/48
f 50/185/50 24/184/22 51/70/49
f 46/187/46 47/188/46 39/189/46
f 45/190/46 46/187/46 39/189/46
f 44/67/48 45/190/46 39/189/46
f 43/68/48 44/67/48 38/63/46
f 38/63/46 44/67/48 39/189/46
f 41/65/46 42/191/46 38/63/46
f 56/60/44 55/152/87 54/61/45
f 59/57/41 58/89/58 62/58/42
f 39/47/37 37/125/32 33/48/36
f 42/191/46 43/68/48 38/63/46
f 9/14/13 15/192/15 14/15/12
f 11/9/8 12/82/56 8/10/9
f 7/6/6 8/123/9 6/7/7
f 9/17/13 16/21/16 17/18/14
f 1/1/1 2/5/5 3/2/2
f 5/4/4 6/193/7 2/5/5
f 53/148/49 51/70/49 52/69/49
f 80/143/84 96/158/84 92/144/84
f 87/165/85 83/134/79 85/174/90
l 99 100
l 101 102
l 103 104
l 106 107
l 108 109
l 110 111
l 112 113
l 118 119
l 119 120
l 120 121
l 118 121
l 122 123
l 122 124
l 124 125
l 123 125
