# Blender v2.80 (sub 75) OBJ File: 'GSO_Curved_Block.blend'
# www.blender.org
mtllib GSO_Curved_Block_Collider.mtl
o GSO_Curved_Block
v -0.477801 -0.361729 -0.398742
v -0.500024 -0.299998 -0.299976
v -0.477801 -0.299997 -0.411086
v -0.477801 -0.398764 -0.361706
v -0.477801 -0.411109 -0.299974
v -0.411134 -0.477778 -0.299976
v -0.411135 -0.458022 -0.398743
v -0.411134 -0.477778 0.443400
v -0.477801 -0.411109 0.426786
v -0.300023 -0.499999 -0.299976
v -0.300023 -0.499999 0.450025
v -0.132046 -0.499999 -0.131998
v 0.299977 -0.499999 -0.299976
v -0.300023 -0.477778 -0.411087
v 0.299977 -0.477778 -0.411087
v -0.300023 -0.411110 -0.477755
v 0.299977 -0.411110 -0.477755
v -0.411134 -0.398766 -0.457999
v -0.411134 -0.299999 -0.477755
v -0.411134 0.443377 -0.477755
v -0.477801 0.426763 -0.411086
v -0.300023 0.449771 -0.499976
v -0.300023 -0.299999 -0.499976
v -0.300023 0.450002 -0.499976
v -0.132046 -0.132021 -0.499976
v 0.132000 -0.132021 -0.499976
v -0.132046 0.132025 -0.499976
v 0.299978 0.450002 -0.499976
v 0.299977 -0.299999 -0.499976
v 0.411089 0.443377 -0.477755
v 0.411089 -0.299999 -0.477755
v 0.411089 -0.398766 -0.457999
v 0.477755 -0.299997 -0.411085
v 0.477755 -0.361729 -0.398741
v 0.477755 0.426763 -0.411085
v 0.444309 0.486231 -0.388702
v 0.397180 0.493589 -0.442173
v 0.297177 0.496341 -0.462172
v -0.297223 0.496341 -0.462173
v -0.461979 0.465927 -0.241157
v 0.461934 0.465927 -0.241157
v 0.461934 0.473645 -0.297245
v -0.397226 0.493589 -0.442173
v -0.444354 0.486231 -0.388703
v -0.461980 0.473645 -0.297245
v -0.461980 0.366026 0.000024
v 0.461934 0.366026 0.000024
v -0.461980 0.207108 0.207131
v 0.461934 0.207108 0.207131
v -0.500023 0.309592 -0.032559
v -0.500023 0.402982 -0.258023
v -0.500021 0.132024 -0.132000
v -0.500021 0.132024 0.132045
v -0.500023 0.161029 0.161052
v -0.500021 -0.132022 0.132045
v -0.500021 -0.132022 -0.132000
v -0.500023 -0.258046 0.403005
v -0.500023 -0.299998 0.408528
v -0.461980 -0.297268 0.473668
v -0.444355 -0.388725 0.486254
v -0.397226 -0.442196 0.493612
v -0.297223 -0.462195 0.496364
v 0.297177 -0.462195 0.496364
v 0.299977 -0.499999 0.450025
v 0.397180 -0.442196 0.493612
v 0.444309 -0.388725 0.486254
v 0.461934 -0.297268 0.473668
v 0.461934 -0.241180 0.465950
v -0.461980 -0.241180 0.465950
v 0.411088 -0.477778 0.443400
v 0.411088 -0.477778 -0.299976
v 0.132000 -0.499999 0.132048
v 0.132000 -0.499999 -0.131998
v -0.132046 -0.499999 0.132048
v 0.411089 -0.458022 -0.398743
v 0.477755 -0.398764 -0.361706
v 0.499978 -0.299998 -0.299976
v 0.499978 0.408505 -0.299975
v 0.499978 0.402982 -0.258023
v 0.499974 0.132024 -0.132000
v 0.499974 -0.132022 -0.132000
v 0.499974 -0.132022 0.132045
v 0.499977 -0.258046 0.403005
v 0.499977 -0.299998 0.408528
v 0.461934 0.000001 0.366049
v -0.461980 0.000001 0.366049
v 0.499977 -0.032582 0.309614
v 0.499977 0.161029 0.161052
v 0.499974 0.132024 0.132045
v 0.499977 0.309591 -0.032558
v -0.500023 -0.032582 0.309614
v 0.477755 -0.411109 0.426786
v 0.477755 -0.411109 -0.299974
v -0.500023 0.408505 -0.299975
v 0.132000 0.132025 -0.499976
v 0.349413 0.145784 0.254186
v 0.298887 0.116566 0.276750
v 0.318382 0.069366 0.312912
v 0.380958 0.069413 0.312699
v 0.400137 0.116642 0.276404
v 0.320206 -0.262124 0.468793
v 0.269680 -0.298677 0.473965
v 0.289175 -0.357582 0.482071
v 0.351751 -0.357436 0.481909
v 0.370929 -0.298440 0.473702
v -0.351797 0.481886 -0.357413
v -0.370975 0.473679 -0.298417
v -0.320252 0.468770 -0.262102
v -0.269725 0.473942 -0.298654
v -0.289221 0.482048 -0.357559
v 0.108435 -0.298960 0.473862
v 0.057909 -0.335513 0.479034
v 0.077404 -0.394418 0.487140
v 0.139980 -0.394272 0.486978
v 0.159158 -0.335276 0.478771
v -0.381004 0.312676 0.069436
v -0.400182 0.276381 0.116665
v -0.349459 0.254163 0.145807
v -0.298933 0.276727 0.116589
v -0.318428 0.312889 0.069389
v -0.349459 0.395606 -0.071389
v -0.298933 0.409839 -0.105452
v -0.318428 0.432553 -0.160403
v -0.381004 0.432360 -0.160302
v -0.400182 0.409525 -0.105289
v 0.380958 -0.160325 0.432382
v 0.318382 -0.160425 0.432576
v 0.400137 -0.105311 0.409548
v 0.349413 -0.071412 0.395629
v 0.298887 -0.105475 0.409862
v -0.057954 0.479011 -0.335490
v -0.077450 0.487117 -0.394395
v -0.140025 0.486955 -0.394249
v -0.159204 0.478748 -0.335253
v -0.108481 0.473839 -0.298937
v 0.159158 0.478748 -0.335253
v 0.139980 0.486955 -0.394249
v 0.077404 0.487117 -0.394395
v 0.057909 0.479011 -0.335490
v 0.108435 0.473839 -0.298937
v -0.057955 -0.335513 0.479034
v -0.108481 -0.298960 0.473862
v -0.159204 -0.335276 0.478771
v -0.140026 -0.394272 0.486978
v -0.077450 -0.394418 0.487140
v -0.298933 0.116566 0.276750
v -0.349459 0.145784 0.254186
v -0.400183 0.116642 0.276404
v -0.381004 0.069413 0.312699
v -0.318428 0.069366 0.312912
v 0.400137 0.409525 -0.105288
v 0.380958 0.432359 -0.160301
v 0.318382 0.432553 -0.160402
v 0.298887 0.409839 -0.105451
v 0.349414 0.395606 -0.071389
v 0.298887 0.276727 0.116589
v 0.349413 0.254163 0.145807
v 0.400137 0.276381 0.116665
v 0.380958 0.312676 0.069437
v 0.318382 0.312889 0.069389
v 0.351751 0.481886 -0.357413
v 0.289175 0.482048 -0.357559
v 0.269680 0.473942 -0.298654
v 0.320206 0.468770 -0.262101
v 0.370930 0.473679 -0.298417
v -0.269726 -0.298677 0.473965
v -0.320252 -0.262124 0.468793
v -0.370975 -0.298440 0.473702
v -0.351797 -0.357436 0.481909
v -0.289221 -0.357582 0.482071
v -0.400183 -0.105311 0.409548
v -0.381004 -0.160325 0.432382
v -0.318428 -0.160425 0.432576
v -0.298933 -0.105475 0.409862
v -0.349459 -0.071412 0.395629
vt 0.000000 0.000000
vt 0.000000 0.000000
vt 0.000000 0.000000
vt 0.000000 0.000000
vt 0.042082 0.872381
vt 0.050436 0.885747
vt 0.050436 0.870711
vt 0.037070 0.877393
vt 0.035399 0.885747
vt 0.026377 0.885747
vt 0.029050 0.872381
vt 0.035399 0.984098
vt 0.050425 0.885747
vt 0.035389 0.986347
vt 0.035389 0.885747
vt 0.131622 0.870711
vt 0.050425 0.870711
vt 0.050425 0.861688
vt 0.035389 0.872267
vt 0.050425 0.861575
vt 0.035389 0.864248
vt 0.035389 0.885633
vt 0.026367 0.877280
vt 0.026367 0.885634
vt 0.167358 0.804766
vt 0.175197 0.890219
vt 0.167358 0.892172
vt 0.154294 0.804766
vt 0.131622 0.885747
vt 0.131622 0.987243
vt 0.108890 0.944212
vt 0.103496 0.855563
vt 0.154294 0.892924
vt 0.083746 0.892951
vt 0.083746 0.804766
vt 0.070681 0.892172
vt 0.070681 0.804766
vt 0.050425 0.870597
vt 0.131622 0.885633
vt 0.131622 0.870597
vt 0.050425 0.885633
vt 0.146659 0.872267
vt 0.050435 0.861688
vt 0.042082 0.872381
vt 0.037069 0.864362
vt 0.062842 0.890219
vt 0.062842 0.804766
vt 0.862996 0.879556
vt 0.867769 0.889474
vt 0.861145 0.886981
vt 0.868588 0.883519
vt 0.847019 0.982794
vt 0.857845 0.987649
vt 0.859394 0.982056
vt 0.846707 0.987955
vt 0.780194 0.982794
vt 0.780505 0.987955
vt 0.762156 0.899660
vt 0.780505 0.881291
vt 0.764119 0.889474
vt 0.865057 0.932769
vt 0.762156 0.905907
vt 0.762156 0.932769
vt 0.762156 0.955835
vt 0.100081 0.858974
vt 0.103491 0.824516
vt 0.103491 0.855563
vt 0.134538 0.855563
vt 0.154288 0.888072
vt 0.154288 0.804766
vt 0.103491 0.855563
vt 0.103491 0.824516
vt 0.082613 0.836209
vt 0.831549 0.950703
vt 0.813615 0.973535
vt 0.809986 0.967249
vt 0.050436 0.981628
vt 0.780506 0.985521
vt 0.767827 0.980299
vt 0.780202 0.978266
vt 0.760402 0.982150
vt 0.770320 0.986923
vt 0.767827 0.980299
vt 0.764365 0.987742
vt 0.780194 0.982888
vt 0.769368 0.987742
vt 0.767819 0.982150
vt 0.780505 0.988049
vt 0.847019 0.982888
vt 0.846707 0.988049
vt 0.762156 0.899567
vt 0.764119 0.889381
vt 0.780505 0.881198
vt 0.857845 0.987742
vt 0.859394 0.982150
vt 0.146659 0.986347
vt 0.134543 0.824517
vt 0.134543 0.855563
vt 0.146659 0.872381
vt 0.146659 0.885747
vt 0.146659 0.864362
vt 0.131622 0.861688
vt 0.029050 0.872381
vt 0.050436 0.885747
vt 0.037070 0.877393
vt 0.050436 0.870711
vt 0.167353 0.804766
vt 0.154288 0.888072
vt 0.154288 0.804766
vt 0.780506 0.985521
vt 0.780202 0.978266
vt 0.866367 0.899660
vt 0.858497 0.904028
vt 0.865507 0.905907
vt 0.070982 0.804766
vt 0.784875 0.977651
vt 0.831549 0.950703
vt 0.854381 0.932769
vt 0.848095 0.929140
vt 0.865057 0.905813
vt 0.762156 0.932675
vt 0.762156 0.905813
vt 0.865057 0.932675
vt 0.762156 0.955742
vt 0.858497 0.904028
vt 0.866367 0.899660
vt 0.865507 0.905907
vt 0.784875 0.977651
vt 0.786753 0.984661
vt 0.854381 0.932769
vt 0.073157 0.908479
vt 0.859112 0.899356
vt 0.861145 0.886981
vt 0.859112 0.899356
vt 0.770320 0.986923
vt 0.760402 0.982150
vt 0.764365 0.987742
vt 0.026377 0.885747
vt 0.035399 0.984098
vt 0.026377 0.986347
vt 0.035399 0.885747
vt 0.050436 0.981628
vt 0.836681 0.955835
vt 0.813615 0.973535
vt 0.786753 0.984661
vt 0.867769 0.889474
vt 0.862996 0.879556
vt 0.868588 0.883519
vt 0.769368 0.987649
vt 0.767819 0.982056
vt 0.167353 0.804766
vt 0.167353 0.890219
vt 0.035389 0.872381
vt 0.134538 0.855563
vt 0.134538 0.824516
vt 0.103496 0.824517
vt 0.134538 0.824516
vt 0.836681 0.955835
vt 0.026377 0.986347
vt 0.050425 0.987243
vt 0.037069 0.864362
vt 0.175197 0.804766
vt 0.154294 0.892951
vt 0.108890 0.908479
vt 0.073157 0.944212
vt 0.146659 0.885633
vt 0.865057 0.905907
vt 0.846707 0.881291
vt 0.865057 0.899660
vt 0.863094 0.889474
vt 0.857845 0.883519
vt 0.769368 0.883519
vt 0.865057 0.955835
vt 0.122845 0.876442
vt 0.149356 0.887423
vt 0.122845 0.876442
vt 0.149356 0.887423
vt 0.070982 0.804766
vt 0.071632 0.809698
vt 0.100081 0.858974
vt 0.769368 0.883425
vt 0.846707 0.881198
vt 0.857845 0.883425
vt 0.863094 0.889381
vt 0.865057 0.899567
vt 0.167353 0.890219
vt 0.082613 0.836209
vt 0.071632 0.809698
vt 0.865057 0.955742
vt 0.848095 0.929140
vt 0.809986 0.967249
vn 0.0000 -1.0000 -0.0000
vn -0.8671 -0.2316 -0.4410
vn -0.9935 -0.0802 -0.0802
vn -0.8732 -0.0493 -0.4848
vn -0.8671 -0.4410 -0.2316
vn -0.8732 -0.4848 -0.0493
vn -0.4631 -0.8821 -0.0865
vn -0.4638 -0.7807 -0.4189
vn -0.8644 -0.4225 0.2725
vn -0.0975 -0.9905 -0.0975
vn -0.4731 -0.8247 0.3098
vn 0.1010 -0.8766 -0.4705
vn -0.1010 -0.8766 -0.4705
vn -0.1010 -0.4705 -0.8766
vn -0.4638 -0.4189 -0.7807
vn -0.4631 -0.0865 -0.8821
vn -0.8644 0.2725 -0.4225
vn -0.4731 0.3098 -0.8247
vn -0.0975 -0.0975 -0.9905
vn 0.0975 -0.9905 -0.0975
vn 0.0986 -0.9380 0.3323
vn 0.0000 0.0000 -1.0000
vn -0.0985 0.0000 -0.9951
vn 0.0985 0.3323 -0.9380
vn 0.0975 -0.0975 -0.9905
vn 0.4731 0.3098 -0.8247
vn 0.4631 -0.0865 -0.8821
vn 0.1010 -0.4705 -0.8766
vn 0.4638 -0.4189 -0.7807
vn 0.8671 -0.2316 -0.4410
vn 0.8644 0.2725 -0.4225
vn 0.8732 -0.0493 -0.4848
vn 0.7739 0.5498 -0.3144
vn 0.4463 0.6006 -0.6634
vn 0.0851 0.6329 -0.7695
vn -0.0986 0.3323 -0.9380
vn -0.0851 0.6329 -0.7695
vn -0.0000 0.9907 0.1363
vn -0.0000 0.8660 0.5000
vn -0.0000 0.9652 0.2616
vn -0.0000 0.7071 0.7071
vn 0.9597 0.1988 0.1988
vn 1.0000 0.0000 -0.0000
vn 1.0000 -0.0000 -0.0001
vn -1.0000 -0.0000 0.0000
vn -0.9650 0.2554 -0.0593
vn -0.9597 0.1406 0.2435
vn 0.8636 0.2521 0.4366
vn 0.9597 0.1406 0.2435
vn -0.9650 -0.0593 0.2554
vn 0.8617 -0.0175 0.5070
vn 0.8644 -0.4225 0.2725
vn 0.9650 -0.0593 0.2554
vn -0.7739 -0.3144 0.5498
vn -0.4463 -0.6634 0.6006
vn -0.0986 -0.9380 0.3323
vn -0.0851 -0.7695 0.6329
vn 0.0851 -0.7695 0.6329
vn -0.0000 0.1363 0.9907
vn 0.4463 -0.6634 0.6006
vn 0.4731 -0.8247 0.3098
vn 0.4638 -0.7807 -0.4189
vn 0.4631 -0.8821 -0.0865
vn 0.9935 -0.0802 -0.0802
vn 0.8671 -0.4410 -0.2316
vn 0.9650 0.2554 -0.0593
vn -0.8617 -0.0175 0.5070
vn -0.8617 0.5070 -0.0175
vn -0.9598 0.2712 0.0731
vn -0.8636 0.4866 0.1318
vn -0.9598 0.0731 0.2712
vn -0.9597 0.1988 0.1988
vn -0.8636 0.4366 0.2521
vn -0.9597 0.2435 0.1406
vn 0.0000 0.2616 0.9652
vn 0.0000 0.5000 0.8660
vn 0.9598 0.2712 0.0731
vn 0.8617 0.5071 -0.0175
vn 0.8636 0.4866 0.1318
vn 0.9598 0.0731 0.2712
vn 0.8636 0.1318 0.4866
vn 0.8636 0.4366 0.2521
vn 0.7739 -0.3144 0.5498
vn 0.8732 -0.4848 -0.0493
vn 0.8636 0.3565 0.3565
vn -0.8636 0.2521 0.4366
vn -0.8636 0.1318 0.4866
vn -0.7739 0.5498 -0.3144
vn -0.4463 0.6006 -0.6634
vn -0.8636 0.3565 0.3565
vn 0.9597 0.2435 0.1406
usemtl Color_M02
s off
f 74/1/1 73/2/1 72/3/1
f 74/1/1 12/4/1 73/2/1
s 1
f 1/5/2 2/6/3 3/7/4
f 4/8/5 2/6/3 1/5/2
f 2/6/3 4/8/5 5/9/6
f 6/10/7 4/8/5 7/11/8
f 6/10/7 9/12/9 5/9/6
f 10/13/10 8/14/11 6/15/7
f 15/16/12 10/13/10 14/17/13
f 16/18/14 15/16/12 14/17/13
f 18/19/15 14/20/13 7/21/8
f 1/5/2 7/11/8 4/8/5
f 19/22/16 1/23/2 3/24/4
f 19/25/16 21/26/17 20/27/18
f 23/28/19 19/25/16 20/27/18
f 13/29/20 64/30/21 72/31/1
f 95/32/22 22/33/23 28/34/24
f 29/35/25 30/36/26 31/37/27
f 16/38/14 29/39/25 17/40/28
f 23/41/19 18/19/15 19/22/16
f 29/39/25 32/42/29 17/40/28
f 31/43/27 34/44/30 32/45/29
f 31/37/27 35/46/31 33/47/32
f 30/48/26 36/49/33 35/50/31
f 36/49/33 30/48/26 37/51/34
f 28/52/24 37/53/34 30/54/26
f 37/53/34 28/52/24 38/55/35
f 38/55/35 24/56/36 39/57/37
f 45/58/38 39/59/38 44/60/38
f 47/61/39 40/62/40 46/63/39
f 48/64/41 47/61/39 46/63/39
f 88/65/42 82/66/43 89/67/44
f 52/68/45 94/69/46 2/70/3
f 53/71/45 55/72/45 91/73/47
f 88/74/42 85/75/48 87/76/49
f 5/9/6 58/77/50 2/6/3
f 67/78/51 92/79/52 84/80/53
f 8/81/11 60/82/54 9/83/9
f 60/82/54 8/81/11 61/84/55
f 11/85/56 61/86/55 8/87/11
f 61/86/55 11/85/56 62/88/57
f 62/88/57 64/89/21 63/90/58
f 59/91/59 60/92/59 62/93/59
f 64/89/21 65/94/60 63/90/58
f 65/94/60 64/89/21 70/95/61
f 13/29/20 70/96/61 64/30/21
f 25/97/22 23/28/19 27/98/22
f 13/29/20 75/99/62 71/100/63
f 32/101/29 15/16/12 17/102/28
f 34/44/30 75/103/62 32/45/29
f 34/44/30 77/104/64 76/105/65
f 77/104/64 34/44/30 33/106/32
f 33/107/32 78/108/66 77/109/64
f 9/83/9 59/110/67 58/111/50
f 45/112/68 51/113/69 40/114/70
f 84/115/53 77/109/64 82/66/43
f 59/110/67 57/116/71 58/111/50
f 54/117/72 46/118/73 50/119/74
f 68/120/75 86/121/76 69/122/75
f 85/123/76 48/124/41 86/121/76
f 79/125/77 42/126/78 41/127/79
f 40/114/70 50/119/74 46/118/73
f 83/128/80 85/75/48 68/129/81
f 47/130/82 79/125/77 41/127/79
f 10/13/10 13/29/20 12/131/1
f 35/50/31 42/126/78 78/132/66
f 45/112/68 21/133/17 94/134/46
f 66/135/83 70/136/61 92/79/52
f 70/136/61 66/135/83 65/137/60
f 71/138/63 92/139/52 70/140/61
f 71/138/63 76/105/65 93/141/84
f 76/105/65 77/104/64 93/141/84
f 93/141/84 84/142/53 92/139/52
f 88/74/42 47/130/82 49/143/85
f 86/144/86 57/116/71 69/145/87
f 67/78/51 83/128/80 68/129/81
f 44/146/88 20/147/18 21/133/17
f 20/147/18 44/146/88 43/148/89
f 43/149/89 24/56/36 20/150/18
f 24/56/36 43/149/89 39/57/37
f 3/151/4 94/69/46 21/152/17
f 10/13/10 7/153/8 14/17/13
f 80/154/43 82/66/43 81/155/43
f 25/97/22 95/32/22 26/156/22
f 56/157/45 53/71/45 52/68/45
f 54/117/72 86/144/86 48/158/90
f 6/10/7 5/9/6 4/8/5
f 6/10/7 8/159/11 9/12/9
f 10/13/10 11/160/56 8/14/11
f 15/16/12 13/29/20 10/13/10
f 16/18/14 17/102/28 15/16/12
f 18/19/15 16/38/14 14/20/13
f 1/5/2 18/161/15 7/11/8
f 19/22/16 18/19/15 1/23/2
f 19/25/16 3/162/4 21/26/17
f 24/163/36 22/33/23 20/27/18
f 22/33/23 23/28/19 20/27/18
f 73/164/1 12/131/1 13/29/20
f 64/30/21 11/160/56 74/165/1
f 72/31/1 73/164/1 13/29/20
f 64/30/21 74/165/1 72/31/1
f 29/35/25 23/28/19 26/156/22
f 95/32/22 27/98/22 22/33/23
f 29/35/25 26/156/22 95/32/22
f 22/33/23 24/163/36 28/34/24
f 28/34/24 29/35/25 95/32/22
f 29/35/25 28/34/24 30/36/26
f 16/38/14 23/41/19 29/39/25
f 23/41/19 16/38/14 18/19/15
f 29/39/25 31/166/27 32/42/29
f 31/43/27 33/106/32 34/44/30
f 31/37/27 30/36/26 35/46/31
f 38/55/35 28/52/24 24/56/36
f 45/58/38 40/62/40 39/59/38
f 40/62/40 41/167/40 38/168/38
f 41/167/40 42/169/38 38/168/38
f 42/169/38 36/170/38 38/168/38
f 36/170/38 37/171/38 38/168/38
f 38/168/38 39/59/38 40/62/40
f 39/59/38 43/172/38 44/60/38
f 47/61/39 41/167/40 40/62/40
f 48/64/41 49/173/41 47/61/39
f 89/67/44 80/154/43 90/174/91
f 80/154/43 79/175/77 90/174/91
f 90/174/91 88/65/42 89/67/44
f 52/68/45 53/71/45 50/176/74
f 50/176/74 51/177/69 52/68/45
f 51/177/69 94/69/46 52/68/45
f 2/70/3 58/178/50 55/72/45
f 58/178/50 57/179/71 55/72/45
f 55/72/45 56/157/45 2/70/3
f 56/157/45 52/68/45 2/70/3
f 57/179/71 91/73/47 55/72/45
f 91/73/47 54/180/72 53/71/45
f 54/180/72 50/176/74 53/71/45
f 88/74/42 49/143/85 85/75/48
f 5/9/6 9/12/9 58/77/50
f 67/78/51 66/135/83 92/79/52
f 62/88/57 11/85/56 64/89/21
f 60/92/59 61/181/59 62/93/59
f 62/93/59 63/182/59 69/122/75
f 63/182/59 65/183/59 66/184/59
f 69/122/75 63/182/59 68/120/75
f 66/184/59 67/185/59 63/182/59
f 67/185/59 68/120/75 63/182/59
f 69/122/75 59/91/59 62/93/59
f 13/29/20 71/100/63 70/96/61
f 25/97/22 26/156/22 23/28/19
f 23/28/19 22/33/23 27/98/22
f 13/29/20 15/16/12 75/99/62
f 32/101/29 75/99/62 15/16/12
f 34/44/30 76/105/65 75/103/62
f 33/107/32 35/186/31 78/108/66
f 9/83/9 60/82/54 59/110/67
f 45/112/68 94/134/46 51/113/69
f 77/109/64 78/108/66 80/154/43
f 78/108/66 79/175/77 80/154/43
f 80/154/43 81/155/43 77/109/64
f 82/66/43 88/65/42 87/187/49
f 82/66/43 87/187/49 83/188/80
f 77/109/64 81/155/43 82/66/43
f 83/188/80 84/115/53 82/66/43
f 59/110/67 69/145/87 57/116/71
f 54/117/72 48/158/90 46/118/73
f 68/120/75 85/123/76 86/121/76
f 85/123/76 49/189/41 48/124/41
f 79/125/77 78/132/66 42/126/78
f 40/114/70 51/113/69 50/119/74
f 83/128/80 87/76/49 85/75/48
f 47/130/82 90/190/91 79/125/77
f 12/131/1 74/165/1 10/13/10
f 74/165/1 11/160/56 10/13/10
f 35/50/31 36/49/33 42/126/78
f 45/112/68 44/146/88 21/133/17
f 71/138/63 93/141/84 92/139/52
f 71/138/63 75/103/62 76/105/65
f 93/141/84 77/104/64 84/142/53
f 88/74/42 90/190/91 47/130/82
f 86/144/86 91/191/47 57/116/71
f 67/78/51 84/80/53 83/128/80
f 3/151/4 2/70/3 94/69/46
f 10/13/10 6/15/7 7/153/8
f 80/154/43 89/67/43 82/66/43
f 25/97/22 27/98/22 95/32/22
f 56/157/45 55/72/45 53/71/45
f 54/117/72 91/191/47 86/144/86
l 96 97
l 97 98
l 98 99
l 99 100
l 96 100
l 101 102
l 102 103
l 103 104
l 104 105
l 101 105
l 106 107
l 107 108
l 108 109
l 109 110
l 106 110
l 111 112
l 112 113
l 113 114
l 114 115
l 111 115
l 116 117
l 117 118
l 118 119
l 119 120
l 116 120
l 121 122
l 122 123
l 123 124
l 124 125
l 121 125
l 126 127
l 126 128
l 128 129
l 129 130
l 127 130
l 131 132
l 132 133
l 133 134
l 134 135
l 131 135
l 136 137
l 137 138
l 138 139
l 139 140
l 136 140
l 141 142
l 142 143
l 143 144
l 144 145
l 141 145
l 146 147
l 147 148
l 148 149
l 149 150
l 146 150
l 151 152
l 152 153
l 153 154
l 154 155
l 151 155
l 156 157
l 157 158
l 158 159
l 159 160
l 156 160
l 161 162
l 162 163
l 163 164
l 164 165
l 161 165
l 166 167
l 167 168
l 168 169
l 169 170
l 166 170
l 171 172
l 172 173
l 173 174
l 10 73
l 174 175
l 7 74
l 171 175
