# Blender v2.82 (sub 7) OBJ File: 'GT_StreamlinedBatch2.blend'
# www.blender.org
mtllib GT_Extended_Leaf_Block_Collider.mtl
v -0.450000 0.450000 -0.500000
v -0.450000 -0.450000 -0.500001
v -0.450000 0.475000 -0.493301
v -0.450000 0.493301 -0.475000
v -0.450000 0.500000 -0.450000
v -0.475000 0.493301 -0.450000
v -0.471701 0.487500 -0.475000
v -0.462501 0.471651 -0.493301
v -0.471701 0.462500 -0.493301
v -0.475000 0.449999 -0.493301
v -0.487500 0.471651 -0.475000
v -0.493300 0.449999 -0.475000
v -0.493300 0.475000 -0.450000
v -0.500000 0.449999 -0.450000
v -0.493300 0.448592 -0.099415
v -0.475000 0.466270 -0.094679
v -0.493300 0.371170 0.087500
v -0.475000 0.387019 0.096651
v -0.493300 0.248008 0.248008
v -0.475000 0.260949 0.260949
v -0.493300 0.087500 0.371170
v -0.475000 0.096650 0.387019
v -0.493300 -0.099416 0.448593
v -0.475000 -0.094679 0.466270
v -0.500000 0.075000 0.349519
v -0.500000 -0.450000 -0.450000
v -0.500000 -0.450000 0.450000
v -0.493300 -0.450000 -0.475001
v -0.475000 -0.450000 -0.493302
v -0.471701 -0.475000 -0.487501
v -0.450000 -0.475000 -0.493302
v -0.462501 -0.493301 -0.471652
v -0.450000 -0.493301 -0.475001
v -0.450000 -0.500000 -0.450001
v -0.471701 -0.493301 -0.462501
v -0.475000 -0.493302 -0.450000
v -0.487500 -0.475000 -0.471652
v -0.493300 -0.475000 -0.450000
v -0.493300 -0.475000 0.450000
v -0.475000 -0.493302 0.450000
v -0.450000 -0.500000 0.450000
v 2.450000 -0.450000 0.500000
v 2.450000 -0.475000 0.493302
v 2.450000 -0.493301 0.475000
v 2.450000 -0.500000 0.450000
v 2.450000 -0.500000 -0.450001
v 2.450000 -0.450000 -0.500001
v 2.450000 0.450000 -0.500000
v 2.450000 -0.475000 -0.493302
v 2.450000 -0.493301 -0.475001
v 2.462500 -0.493301 -0.471652
v 2.471600 -0.475000 -0.487501
v 2.471600 -0.493301 -0.462501
v 2.474999 -0.493302 -0.450000
v 2.493299 -0.475000 -0.450000
v 2.487500 -0.475000 -0.471652
v 2.500000 -0.450000 -0.450000
v 2.493299 -0.450000 -0.475001
v 2.500000 0.449999 -0.450000
v 2.493299 0.449999 -0.475000
v 2.500000 -0.450000 0.450000
v 2.493299 -0.475000 0.450000
v 2.474999 -0.493302 0.450000
v 2.471600 -0.493301 0.462501
v 2.487500 -0.475000 0.471651
v 2.493299 -0.450000 0.475000
v 2.474999 -0.450000 0.493302
v 2.471600 -0.475000 0.487501
v 2.462500 -0.493301 0.471651
v 2.474999 -0.094679 0.466270
v 2.450000 -0.092945 0.472741
v 2.474999 0.096650 0.387019
v 2.450000 0.100000 0.392820
v 2.493299 -0.099416 0.448593
v 2.493299 0.087500 0.371170
v 2.500000 0.230330 0.230330
v 2.493299 0.448592 -0.099415
v 2.493299 0.371170 0.087500
v 2.493299 0.248008 0.248008
v 2.474999 0.260949 0.260949
v 2.474999 0.387019 0.096651
v 2.474999 0.466270 -0.094679
v 2.493299 0.475000 -0.450000
v 2.474999 0.493301 -0.450000
v 2.487500 0.471651 -0.475000
v 2.471600 0.487500 -0.475000
v 2.450000 0.493301 -0.475000
v 2.450000 0.500000 -0.450000
v 2.450000 0.475000 -0.493301
v 2.462500 0.471651 -0.493301
v 2.471600 0.462500 -0.493301
v 2.474999 0.449999 -0.493301
v 2.474999 -0.450000 -0.493302
v 2.450000 0.265685 0.265685
v 2.450000 0.392820 0.100000
v 2.450000 0.472741 -0.092945
v -0.450000 -0.493301 0.475000
v -0.450000 -0.475000 0.493302
v -0.450000 -0.450000 0.500000
v -0.475000 -0.450000 0.493302
v -0.471701 -0.475000 0.487501
v -0.462501 -0.493301 0.471651
v -0.471701 -0.493301 0.462501
v -0.487500 -0.475000 0.471651
v -0.493300 -0.450000 0.475000
v -0.450000 -0.092945 0.472741
v -0.450000 0.100000 0.392820
v -0.450000 0.265685 0.265685
v -0.450000 0.392820 0.100000
v -0.450000 0.472741 -0.092945
vt 0.403956 0.788363
vt 0.130099 0.788363
vt 0.128919 0.786319
vt 0.130099 0.786002
vt 0.403956 0.786002
vt 0.405136 0.786319
vt 0.130099 0.788363
vt 0.522097 0.862779
vt 0.000000 0.000000
vt 0.000000 0.000000
vt 0.000000 0.000000
vt 0.000000 0.000000
vt 0.000000 0.000000
vt 0.403956 0.788382
vt 0.130099 0.788382
vt 0.000000 0.000000
vt 0.403956 0.786021
vt 0.726186 0.862793
vt 0.000000 0.000000
vt 0.000000 0.000000
vt 0.000000 0.000000
vt 0.228124 0.788363
vt 0.225763 0.788363
vt 0.225763 0.873353
vt 0.228124 0.873353
vt 0.128050 0.874552
vt 0.128919 0.875417
vt 0.130099 0.873372
vt 0.407497 0.875398
vt 0.405995 0.876895
vt 0.405136 0.875398
vt 0.405995 0.874534
vt 0.228124 0.875714
vt 0.225763 0.875398
vt 0.225763 0.873353
vt 0.228124 0.873353
vt 0.224035 0.787183
vt 0.224035 0.788363
vt 0.225763 0.786319
vt 0.644272 0.886774
vt 0.645183 0.887685
vt 0.654055 0.876122
vt 0.652940 0.875478
vt 0.493867 0.705068
vt 0.493867 0.548862
vt 0.489528 0.548862
vt 0.489528 0.705068
vt 0.659632 0.862657
vt 0.658388 0.862324
vt 0.317203 0.788363
vt 0.315475 0.788363
vt 0.128050 0.787183
vt 0.224035 0.873353
vt 0.224035 0.874534
vt 0.225763 0.875398
vt 0.225763 0.788363
vt 0.228124 0.788363
vt 0.228124 0.786002
vt 0.130099 0.873353
vt 0.403956 0.873353
vt 0.403956 0.875714
vt 0.130099 0.875714
vt 0.128919 0.875398
vt 0.405995 0.787183
vt 0.351840 0.548862
vt 0.347501 0.548862
vt 0.127738 0.873372
vt 0.351840 0.705068
vt 0.619822 0.900890
vt 0.632976 0.895442
vt 0.633620 0.896557
vt 0.620155 0.902134
vt 0.224035 0.788363
vt 0.224035 0.873353
vt 0.406316 0.788363
vt 0.406316 0.873353
vt 0.405136 0.875417
vt 0.405995 0.876913
vt 0.407497 0.875417
vt 0.405995 0.874552
vt 0.130099 0.784274
vt 0.403956 0.875733
vt 0.000000 0.000000
vt 0.225763 0.876895
vt 0.228124 0.877442
vt 0.228124 0.875714
vt 0.471320 0.548862
vt 0.471320 0.705068
vt 0.621147 0.878169
vt 0.128050 0.876913
vt 0.130099 0.877461
vt 0.130099 0.875733
vt 0.313114 0.788363
vt 0.632096 0.893918
vt 0.632976 0.895442
vt 0.130099 0.877442
vt 0.128050 0.876895
vt 0.478834 0.705068
vt 0.478834 0.548862
vt 0.474496 0.548862
vt 0.403956 0.873372
vt 0.405995 0.784822
vt 0.407497 0.786319
vt 0.405995 0.786021
vt 0.406316 0.788382
vt 0.726186 0.876372
vt 0.645183 0.887685
vt 0.726186 0.888018
vt 0.654055 0.876122
vt 0.652940 0.875478
vt 0.658388 0.862324
vt 0.659632 0.862657
vt 0.313114 0.786002
vt 0.315159 0.786002
vt 0.315475 0.788363
vt 0.313114 0.788363
vt 0.403956 0.788382
vt 0.406316 0.788382
vt 0.405995 0.786021
vt 0.403956 0.786021
vt 0.128050 0.874534
vt 0.127738 0.873353
vt 0.127738 0.788363
vt 0.314295 0.784274
vt 0.313114 0.784274
vt 0.313114 0.786002
vt 0.315159 0.786002
vt 0.403956 0.788363
vt 0.406316 0.788363
vt 0.405995 0.786002
vt 0.403956 0.786002
vt 0.727946 0.862671
vt 0.000000 0.000000
vt 0.228124 0.784274
vt 0.225763 0.784822
vt 0.316655 0.786002
vt 0.497043 0.705068
vt 0.497044 0.548862
vt 0.000000 0.000000
vt 0.130099 0.788382
vt 0.619822 0.900890
vt 0.620155 0.902134
vt 0.633620 0.896557
vt 0.727946 0.876136
vt 0.405136 0.784293
vt 0.403956 0.784293
vt 0.403956 0.784274
vt 0.333321 0.548862
vt 0.000000 0.000000
vt 0.130099 0.784274
vt 0.644272 0.886774
vt 0.000000 0.000000
vt 0.130099 0.786002
vt 0.128050 0.784822
vt 0.000000 0.000000
vt 0.522097 0.876372
vt 0.520337 0.876136
vt 0.407497 0.786021
vt 0.408044 0.788382
vt 0.522097 0.862793
vt 0.000000 0.000000
vt 0.475660 0.705068
vt 0.475660 0.548862
vt 0.408044 0.788382
vt 0.407497 0.786021
vt 0.520337 0.876122
vt 0.520337 0.862657
vt 0.522097 0.888032
vt 0.520337 0.887685
vt 0.294039 0.854278
vt 0.305670 0.839121
vt 0.522097 0.876358
vt 0.228124 0.786002
vt 0.127738 0.788382
vt 0.128050 0.786021
vt 0.130099 0.786021
vt 0.403956 0.877442
vt 0.000000 0.000000
vt 0.127738 0.788363
vt 0.000000 0.000000
vt 0.408044 0.873372
vt 0.406316 0.873372
vt 0.643028 0.885530
vt 0.726186 0.876358
vt 0.727946 0.887685
vt 0.408044 0.788363
vt 0.407497 0.786002
vt 0.727946 0.876122
vt 0.520337 0.862671
vt 0.408044 0.788363
vt 0.130099 0.786021
vt 0.128050 0.786021
vt 0.127738 0.788382
vt 0.128050 0.786002
vt 0.225763 0.786319
vt 0.405136 0.784274
vt 0.403956 0.784274
vn 0.0000 -0.9659 -0.2588
vn 0.0000 0.9971 0.0761
vn 0.0000 0.9239 0.3827
vn 0.0000 -0.2588 0.9659
vn -0.0000 0.3827 0.9239
vn -0.9834 -0.1282 -0.1282
vn -0.8654 -0.4882 -0.1127
vn -0.8654 -0.4882 0.1127
vn -0.9874 -0.1200 0.1034
vn -0.4620 0.2509 -0.8506
vn -0.2504 0.4615 -0.8511
vn -0.1031 0.1034 -0.9893
vn 0.7583 -0.4825 0.4382
vn 0.4377 -0.4826 0.7587
vn 0.2512 -0.8508 0.4615
vn 0.4610 -0.8512 0.2508
vn 0.8782 -0.1083 0.4658
vn 0.8652 -0.4885 0.1131
vn 0.9889 -0.1195 0.0884
vn -0.4620 -0.8507 -0.2508
vn -0.5147 -0.8556 -0.0543
vn -0.7589 -0.4821 -0.4377
vn -0.7071 0.5000 0.5000
vn -0.4909 0.6160 0.6160
vn -0.4909 0.7545 0.4356
vn -0.7071 0.6124 0.3535
vn -0.8654 0.1127 -0.4882
vn -0.8590 -0.1276 -0.4958
vn -0.9896 0.0799 -0.1197
vn -0.4901 0.8478 0.2027
vn -0.7083 0.6870 0.1625
vn -0.4938 0.8644 -0.0950
vn -0.8819 0.4588 -0.1088
vn -0.3162 -0.8003 -0.5094
vn -0.1537 -0.9878 -0.0233
vn -0.5147 -0.8556 0.0543
vn -0.4620 -0.8506 0.2508
vn -0.7589 -0.4821 0.4377
vn 0.8652 -0.4885 -0.1131
vn 0.9834 -0.1282 -0.1282
vn -0.1031 -0.9893 0.1032
vn 0.1032 -0.9893 0.1031
vn 0.0548 -0.8556 0.5148
vn -0.0546 -0.8556 0.5147
vn -0.2504 -0.8511 0.4615
vn 0.1539 -0.9878 -0.0231
vn 0.3173 -0.7999 -0.5094
vn 0.4610 -0.8512 -0.2508
vn -0.1281 -0.1280 -0.9835
vn -0.4959 -0.1275 -0.8590
vn -0.5147 0.0546 -0.8556
vn 0.7083 0.1625 0.6870
vn 0.7071 0.3535 0.6124
vn 0.4909 0.4356 0.7545
vn 0.4901 0.2027 0.8478
vn 0.5148 -0.8556 -0.0550
vn 0.5148 -0.8556 0.0550
vn 0.2512 0.4615 -0.8508
vn 0.4377 0.7587 -0.4826
vn 0.7583 0.4382 -0.4826
vn 0.4610 0.2509 -0.8512
vn -0.0546 0.5147 -0.8556
vn 0.0548 0.5148 -0.8556
vn 0.1032 0.1033 -0.9893
vn -0.4383 -0.4821 0.7586
vn -0.4938 -0.0950 0.8644
vn -0.8718 -0.1074 0.4780
vn 0.9889 0.0884 -0.1195
vn 0.9986 0.0376 0.0376
vn -0.4383 0.7586 -0.4821
vn -0.1128 0.8653 -0.4883
vn -0.9981 0.0557 0.0262
vn -0.9982 0.0278 0.0534
vn -0.9954 0.0420 0.0862
vn -0.1507 -0.5609 0.8140
vn 0.5148 0.0552 -0.8556
vn 0.4959 -0.1279 -0.8589
vn 0.1282 -0.1281 -0.9834
vn 0.4377 -0.4826 -0.7587
vn 0.7583 -0.4825 -0.4382
vn 0.4938 -0.0954 0.8643
vn 0.1708 -0.0317 0.9848
vn 0.1511 -0.5609 0.8140
vn 0.1725 0.5308 0.8298
vn 0.4909 0.6160 0.6160
vn 0.1291 0.7012 0.7012
vn 0.4909 0.7545 0.4356
vn 0.7071 0.6124 0.3535
vn 0.7083 0.6870 0.1625
vn 0.4901 0.8478 0.2027
vn 0.8652 0.1131 -0.4885
vn 0.8782 0.4658 -0.1083
vn 0.1131 -0.4883 -0.8653
vn -0.7589 0.4377 -0.4821
vn 0.1709 0.9742 -0.1477
vn 0.4938 0.8643 -0.0954
vn 0.1131 0.8653 -0.4883
vn 0.1727 0.1759 0.9691
vn -0.4383 -0.4821 -0.7586
vn -0.1128 -0.4883 -0.8653
vn -0.7083 0.1625 0.6870
vn -0.4901 0.2027 0.8478
vn -0.4909 0.4356 0.7545
vn -0.7071 0.3535 0.6124
vn 0.0988 -0.7036 -0.7037
vn -0.0985 -0.7037 -0.7036
vn 0.9966 0.0580 0.0580
vn 0.9958 0.0875 0.0284
vn -0.1707 0.9742 -0.1475
vn 0.7071 0.5000 0.5000
vn -0.1727 0.1759 0.9691
vn -0.1725 0.5308 0.8298
vn -0.1706 -0.0315 0.9848
vn 0.8588 -0.1280 -0.4960
vn -0.1725 0.8298 0.5308
vn -0.2596 0.9391 0.2250
vn -0.1291 0.7012 0.7012
vn 0.2596 0.9391 0.2250
vn 0.9958 0.0284 0.0875
vn -0.9889 0.0280 0.1458
vn 0.1725 0.8298 0.5308
usemtl _auto_.002
s off
f 46/1/1 34/2/1 32/3/1 33/4/1 50/5/1 51/6/1
f 5/7/2 110/8/2 96/9/2 88/10/2
f 110/11/3 109/12/3 95/13/3 96/9/3
f 42/14/4 99/15/4 98/16/4 43/17/4
f 71/18/5 73/19/5 107/20/5 106/21/5
s 1
f 26/22/6 38/23/7 39/24/8 27/25/9
f 9/26/10 8/27/11 1/28/12
f 65/29/13 68/30/14 69/31/15 64/32/16
f 66/33/17 65/34/13 62/35/18 61/36/19
f 35/37/20 36/38/21 38/23/7 37/39/22
f 19/40/23 20/41/24 18/42/25 17/43/26
f 12/44/27 28/45/28 26/46/6 14/47/29
f 18/42/25 16/48/30 15/49/31 17/43/26
f 16/48/30 6/50/32 13/51/33 15/49/31
f 35/52/20 32/3/34 34/2/35
f 39/24/8 40/53/36 103/54/37 104/55/38
f 55/56/39 57/57/40 61/36/19 62/35/18
f 28/58/28 37/39/22 38/23/7 26/22/6
f 41/59/41 45/60/42 69/31/15 44/61/43 97/62/44 102/63/45
f 46/1/46 51/6/47 53/64/48
f 2/65/49 29/66/50 10/67/51 9/26/10 1/68/12
f 74/69/52 75/70/53 72/71/54 70/72/55
f 54/73/56 55/56/39 62/35/18 63/74/57
f 45/60/42 46/1/46 53/64/48 54/75/56 63/76/57 64/32/16
f 90/77/58 86/78/59 85/79/60 91/80/61
f 64/32/16 69/31/15 45/60/42
f 3/81/62 89/82/63 90/77/58 48/83/64 1/28/12 8/27/11
f 101/84/65 100/85/66 105/86/67 104/55/38
f 61/36/19 57/87/40 59/88/68 76/89/69
f 8/27/11 7/90/70 4/91/71 3/92/62
f 15/49/72 13/51/33 14/93/29 25/94/73 21/95/74 19/40/72 17/43/72
f 98/96/75 101/97/65 102/63/45 97/62/44
f 92/98/76 93/99/77 47/100/78 48/101/64 91/80/61
f 48/101/64 90/77/58 91/80/61
f 51/6/47 52/102/79 56/103/80 53/64/48
f 68/104/14 67/105/81 42/14/82 43/17/83
f 73/106/84 72/71/54 80/107/85 94/108/86
f 34/2/35 46/1/46 45/60/42 41/59/41
f 39/24/8 104/55/38 105/86/67 27/25/9
f 81/109/87 78/110/88 77/111/89 82/112/90
f 60/113/91 85/114/60 83/115/92 59/116/68
f 47/117/78 93/118/77 52/119/79 49/120/93
f 41/59/41 102/63/45 103/121/37
f 34/2/35 41/59/41 103/121/37 40/122/36 36/123/21 35/52/20
f 9/124/10 10/125/51 12/126/27 11/127/94
f 88/128/95 84/129/96 86/130/59 87/131/97
f 67/105/81 70/132/55 71/133/98 42/14/82
f 28/58/28 29/134/50 30/135/99 37/39/22
f 13/51/33 6/50/32 7/136/70 11/127/94
f 10/137/51 29/138/50 28/45/28 12/44/27
f 31/139/100 2/140/49 47/117/78 49/120/93
f 23/141/101 24/142/102 22/143/103 21/95/104
f 72/144/54 73/19/84 71/18/98 70/132/55
f 52/119/79 51/145/47 50/146/105 49/147/93
f 101/84/65 104/55/38 103/54/37 102/63/45
f 82/112/90 77/111/89 83/115/92 84/129/96
f 25/94/73 14/93/29 26/46/6 27/148/9
f 33/149/106 31/150/100 49/147/93 50/5/105
f 14/93/29 13/51/33 11/127/94 12/126/27
f 79/151/107 76/89/69 59/116/68 83/115/92 77/111/108 78/110/108
f 5/7/109 88/10/95 87/152/97 4/153/71
f 32/3/34 30/154/99 31/150/100 33/4/106
f 4/153/71 87/152/97 89/155/63 3/81/62
f 79/151/110 80/107/85 72/71/54 75/70/53
f 106/21/111 107/156/112 22/157/103 24/142/102
f 8/27/11 9/26/10 11/127/94 7/136/70
f 67/105/81 68/104/14 65/158/13 66/159/17
f 35/37/20 37/39/22 30/135/99 32/3/34
f 99/15/113 42/14/82 71/133/98 106/160/111
f 1/28/12 48/83/64 47/161/78 2/65/49
f 93/118/77 92/98/76 60/162/91 58/163/114
f 52/119/79 93/118/77 58/164/114 56/165/80
f 70/72/55 67/105/81 66/159/17 74/69/52
f 18/166/25 109/12/115 110/8/116 16/167/30
f 108/168/117 20/169/24 22/157/103 107/156/112
f 65/29/13 64/32/16 63/76/57 62/35/18
f 19/40/23 21/95/104 22/157/103 20/169/24
f 84/129/96 88/128/95 96/9/118 82/112/90
f 79/170/110 78/171/88 81/109/87 80/107/85
f 108/168/117 109/172/115 18/166/25 20/169/24
f 58/173/114 60/162/91 59/88/68 57/87/40
f 23/141/101 105/86/67 100/85/66 24/142/102
f 99/15/113 100/174/66 101/175/65 98/176/75
f 68/104/14 43/177/83 44/61/43 69/31/15
f 39/24/8 38/23/7 36/123/21 40/122/36
f 107/156/112 73/106/84 94/178/86 108/168/117
f 5/7/109 6/179/32 16/180/30 110/8/116
f 85/79/60 60/181/91 92/182/76 91/80/61
f 61/36/19 76/183/69 79/151/107 75/70/119 74/69/119 66/33/17
f 25/94/73 27/25/9 105/86/67 23/141/120 21/95/74
f 81/109/87 95/184/121 94/108/86 80/185/85
f 84/129/96 83/186/92 85/187/60 86/130/59
f 96/9/118 95/184/121 81/188/87 82/112/90
f 24/189/102 100/174/66 99/15/113 106/160/111
f 98/16/75 97/62/44 44/61/43 43/177/83
f 55/190/39 54/75/56 53/64/48 56/103/80
f 31/191/100 30/192/99 29/193/50 2/65/49
f 5/7/109 4/153/71 7/194/70 6/179/32
f 95/184/121 109/172/115 108/168/117 94/178/86
f 55/56/39 56/195/80 58/173/114 57/57/40
f 90/196/58 89/197/63 87/131/97 86/130/59
