# Blender v2.82 (sub 7) OBJ File: 'GT_StreamlinedBatch2.blend'
# www.blender.org
mtllib GT_Extra_Long_Leaf_Block_Collider.mtl
v -0.449999 0.500000 -0.299999
v -0.474999 0.493302 -0.449999
v -0.449999 0.500000 -0.450000
v -0.449999 0.472949 0.426504
v -0.499999 -0.118383 2.362228
v -0.499999 0.450000 -0.449999
v -0.499999 -0.450000 -0.449999
v -0.499999 -0.450000 2.449998
v -0.493299 -0.450000 -0.475000
v -0.493299 0.450000 -0.475000
v -0.493299 -0.475000 -0.449999
v -0.487499 -0.475000 -0.471651
v -0.493299 -0.475000 2.449998
v -0.493299 -0.450000 2.474998
v -0.487499 -0.475000 2.471648
v -0.493299 -0.303619 2.475048
v -0.493299 -0.101511 2.381818
v -0.493299 0.082905 2.111738
v -0.474999 0.387127 1.101538
v -0.449999 0.393738 1.102648
v 0.450001 0.472949 0.426504
v 0.450001 0.393738 1.102648
v 0.450001 0.500000 -0.299999
v 0.450001 0.500000 -0.450000
v 0.475001 0.493302 -0.449999
v 0.500001 -0.118383 2.362228
v 0.493311 0.082905 2.111738
v 0.493311 -0.101510 2.381818
v 0.493301 -0.303619 2.475048
v 0.475001 -0.089159 2.396158
v 0.475001 -0.300970 2.493318
v 0.493311 -0.450000 2.474998
v 0.475001 -0.450000 2.493298
v 0.500001 -0.450000 2.449998
v 0.493311 -0.475000 2.449998
v 0.487501 -0.475000 2.471648
v 0.493311 -0.475000 -0.449999
v 0.500001 -0.450000 -0.449999
v 0.475001 -0.493301 2.449998
v 0.475001 -0.493301 -0.449999
v 0.471651 -0.493301 2.462498
v 0.450001 -0.500000 2.449998
v 0.450001 -0.500000 -0.450000
v -0.449999 -0.500000 2.449998
v -0.449999 -0.500000 -0.450000
v -0.449999 -0.493301 2.474998
v 0.450001 -0.493301 2.474998
v -0.462499 -0.493301 2.471648
v -0.471649 -0.493301 2.462498
v -0.474999 -0.493301 2.449998
v -0.471649 -0.475000 2.487498
v -0.474999 -0.450000 2.493298
v -0.474999 -0.300970 2.493318
v -0.474999 -0.089159 2.396158
v -0.449999 -0.300000 2.499998
v -0.449999 -0.084638 2.401408
v -0.474999 0.099283 2.120178
v -0.449999 0.105279 2.123268
v 0.475001 0.387127 1.101538
v 0.475001 0.099283 2.120178
v 0.450001 0.105279 2.123268
v 0.450001 -0.084638 2.401408
v 0.450001 -0.300000 2.499998
v 0.450001 -0.450000 2.499998
v 0.471651 -0.475000 2.487498
v 0.450001 -0.475000 2.493298
v 0.462501 -0.493301 2.471648
v -0.449999 -0.475000 2.493298
v -0.449999 -0.450000 2.499998
v -0.474999 -0.493301 -0.449999
v -0.471649 -0.493301 -0.462500
v -0.462499 -0.493301 -0.471651
v -0.449999 -0.493301 -0.475000
v 0.450001 -0.493301 -0.475000
v 0.462501 -0.493301 -0.471651
v 0.471651 -0.493301 -0.462500
v 0.487501 -0.475000 -0.471651
v 0.493311 -0.450000 -0.475000
v 0.500001 0.450000 -0.449999
v 0.493311 0.450000 -0.475000
v 0.493311 0.475000 -0.449999
v 0.487501 0.475000 -0.471651
v 0.471651 0.493301 -0.462500
v 0.462501 0.493301 -0.471651
v 0.450001 0.493301 -0.475000
v -0.449999 0.493301 -0.475000
v -0.462499 0.493301 -0.471651
v -0.471649 0.493301 -0.462500
v -0.493299 0.475000 -0.449999
v -0.487499 0.475000 -0.471651
v -0.474999 0.450000 -0.493301
v -0.471649 0.475000 -0.487500
v -0.474999 -0.450000 -0.493301
v -0.471649 -0.475000 -0.487500
v -0.449999 -0.475000 -0.493301
v 0.450001 -0.475000 -0.493301
v 0.471651 -0.475000 -0.487500
v 0.475001 -0.450000 -0.493301
v 0.475001 0.450000 -0.493301
v 0.471651 0.475000 -0.487500
v 0.450001 0.475000 -0.493301
v -0.449999 0.475000 -0.493301
v -0.449999 0.450000 -0.500000
v -0.449999 -0.450000 -0.500000
v 0.450001 -0.450000 -0.500000
v 0.450001 0.450000 -0.500000
vt 0.224531 0.806116
vt 0.224531 0.791951
vt 0.309521 0.791951
vt 0.309521 0.806116
vt 0.231693 0.968934
vt 0.229332 0.968934
vt 0.229332 0.968934
vt 0.231693 0.968934
vt 0.229332 0.968934
vt 0.229332 0.701621
vt 0.231693 0.701621
vt 0.231693 0.968934
vt 0.621147 0.970919
vt 0.343162 0.705068
vt 0.623203 0.972220
vt 0.622334 0.972220
vt 0.608111 0.972220
vt 0.608297 0.972220
vt 0.311882 0.791951
vt 0.313611 0.791951
vt 0.313610 0.805774
vt 0.311882 0.806024
vt 0.222171 0.968934
vt 0.222171 0.701621
vt 0.222487 0.700440
vt 0.224531 0.701620
vt 0.224531 0.968934
vt 0.222487 0.968934
vt 0.311882 0.968934
vt 0.311882 0.701621
vt 0.313611 0.701621
vt 0.313611 0.968934
vt 0.310702 0.881030
vt 0.311566 0.879302
vt 0.309521 0.879302
vt 0.309521 0.881030
vt 0.223351 0.968934
vt 0.309521 0.699260
vt 0.224531 0.699260
vt 0.223351 0.699576
vt 0.224531 0.701620
vt 0.309521 0.701620
vt 0.310702 0.699576
vt 0.309521 0.787862
vt 0.309521 0.789590
vt 0.224531 0.789590
vt 0.224531 0.787862
vt 0.592472 0.866038
vt 0.592472 0.850881
vt 0.655810 0.850881
vt 0.655810 0.866038
vt 0.655810 0.954102
vt 0.655810 0.972220
vt 0.657569 0.972220
vt 0.657569 0.953885
vt 0.636465 0.953885
vt 0.623203 0.972220
vt 0.622334 0.972220
vt 0.635313 0.953291
vt 0.311566 0.789590
vt 0.313063 0.789590
vt 0.220990 0.879302
vt 0.222487 0.879302
vt 0.222171 0.876941
vt 0.220442 0.876941
vt 0.309521 0.968934
vt 0.309521 0.701620
vt 0.311566 0.700440
vt 0.311566 0.968934
vt 0.310702 0.968934
vt 0.224531 0.879302
vt 0.223351 0.881030
vt 0.224531 0.881030
vt 0.590712 0.972220
vt 0.592472 0.972220
vt 0.592472 0.954102
vt 0.590712 0.953885
vt 0.220990 0.789590
vt 0.222487 0.789590
vt 0.222171 0.791951
vt 0.220442 0.791951
vt 0.227604 0.700440
vt 0.227604 0.701621
vt 0.229332 0.701621
vt 0.229332 0.699576
vt 0.223351 0.699576
vt 0.309521 0.968934
vt 0.224531 0.968934
vt 0.310702 0.699576
vt 0.313063 0.789590
vt 0.311566 0.789590
vt 0.311882 0.791951
vt 0.313611 0.791951
vt 0.655810 0.882275
vt 0.592472 0.882275
vt 0.311566 0.700440
vt 0.224531 0.699260
vt 0.309521 0.699260
vt 0.222487 0.700440
vt 0.655810 0.783563
vt 0.655810 0.834691
vt 0.657569 0.882197
vt 0.311882 0.701621
vt 0.319044 0.701621
vt 0.320772 0.701621
vt 0.320772 0.700440
vt 0.319044 0.699576
vt 0.223351 0.787862
vt 0.222487 0.789590
vt 0.224531 0.789590
vt 0.224531 0.787862
vt 0.220442 0.805774
vt 0.222171 0.806024
vt 0.222171 0.791951
vt 0.220990 0.789590
vt 0.220442 0.791951
vt 0.309521 0.789590
vt 0.310702 0.787862
vt 0.309521 0.787862
vt 0.636465 0.953885
vt 0.635313 0.953291
vt 0.319044 0.701621
vt 0.316683 0.701621
vt 0.310702 0.787862
vt 0.313063 0.968934
vt 0.313063 0.699576
vt 0.222487 0.968934
vt 0.220990 0.968934
vt 0.231693 0.968934
vt 0.231693 0.701621
vt 0.231693 0.699260
vt 0.231693 0.699260
vt 0.339986 0.705068
vt 0.344325 0.705068
vt 0.590712 0.850813
vt 0.316683 0.701621
vt 0.621147 0.970919
vt 0.592472 0.834691
vt 0.224531 0.715786
vt 0.222171 0.701621
vt 0.590712 0.882197
vt 0.227604 0.968934
vt 0.486352 0.548862
vt 0.311882 0.876941
vt 0.313611 0.876941
vt 0.478835 0.548862
vt 0.657569 0.865719
vt 0.657569 0.850813
vt 0.311566 0.698079
vt 0.343162 0.548862
vt 0.316683 0.699260
vt 0.309521 0.876941
vt 0.322628 0.705068
vt 0.590712 0.865719
vt 0.313063 0.879302
vt 0.313063 0.699576
vt 0.313611 0.701621
vt 0.483174 0.548862
vt 0.478835 0.705068
vt 0.483174 0.705068
vt 0.309521 0.715786
vt 0.592472 0.783563
vt 0.656722 0.882197
vt 0.222487 0.698079
vt 0.608297 0.972220
vt 0.608111 0.972220
vt 0.318289 0.548862
vt 0.322628 0.548862
vt 0.318289 0.705068
vt 0.224531 0.876941
vt 0.309521 0.791951
vt 0.224531 0.791951
vt 0.245517 0.968934
vt 0.311566 0.698079
vt 0.339986 0.548862
vt 0.040671 0.548862
vn -0.1298 0.2101 0.9690
vn -0.1281 -0.1282 0.9834
vn 0.1281 -0.1282 0.9834
vn 0.1298 0.2101 0.9690
vn -0.9875 -0.1164 0.1059
vn -0.8653 -0.4883 0.1129
vn -0.7586 -0.4823 0.4380
vn -0.8739 -0.1186 0.4714
vn 0.8653 -0.4883 0.1130
vn 0.8653 -0.4883 -0.1130
vn 0.9835 -0.1281 -0.1281
vn 0.9876 -0.1164 0.1058
vn 0.9978 0.0396 0.0533
vn 0.9888 0.0834 -0.1235
vn -0.4900 0.5620 0.6664
vn -0.7165 0.4489 0.5339
vn -0.7117 0.1553 0.6851
vn -0.4895 0.1852 0.8521
vn 0.4957 -0.1279 0.8590
vn 0.8739 -0.1186 0.4715
vn 0.7116 0.1553 0.6852
vn 0.4895 0.1852 0.8521
vn -0.5148 -0.8556 0.0547
vn -0.5148 -0.8556 -0.0547
vn -0.4615 -0.8509 -0.2508
vn -0.1032 -0.9893 -0.1032
vn -0.1032 -0.9893 0.1032
vn -0.4615 -0.8509 0.2508
vn 0.5147 -0.8556 0.0547
vn 0.5147 -0.8556 -0.0547
vn 0.2508 0.8509 -0.4615
vn 0.4379 0.4824 -0.7586
vn 0.1129 0.4883 -0.8653
vn 0.0547 0.8556 -0.5148
vn -0.2508 -0.8509 0.4615
vn -0.0547 0.8556 -0.5148
vn -0.2508 0.8509 -0.4615
vn -0.0233 0.9915 -0.1283
vn 0.0233 0.9915 -0.1283
vn 0.0547 -0.8556 0.5148
vn 0.1129 -0.4883 0.8653
vn -0.1129 -0.4883 0.8653
vn -0.0547 -0.8556 0.5148
vn -0.1310 0.6392 0.7578
vn 0.1310 0.6392 0.7578
vn 0.1298 0.8980 0.4203
vn 0.4899 0.5620 0.6664
vn 0.5963 0.7210 0.3529
vn 0.7164 0.4490 0.5340
vn 0.9555 0.2649 0.1296
vn 0.4379 -0.4824 0.7586
vn 0.7585 -0.4824 0.4381
vn -0.7586 0.4823 -0.4380
vn -0.4380 0.4823 -0.7586
vn -0.4959 0.1278 -0.8589
vn -0.8589 0.1278 -0.4959
vn 0.1032 -0.9893 0.1032
vn 0.1032 -0.9893 -0.1032
vn 0.4615 -0.8510 -0.2508
vn 0.4615 -0.8509 0.2508
vn 0.2508 -0.8509 0.4615
vn -0.1129 0.4883 -0.8653
vn -0.1298 0.8980 0.4203
vn -0.5964 0.7209 0.3529
vn -0.4380 -0.4823 0.7586
vn -0.4957 -0.1279 0.8590
vn -0.8653 -0.4883 -0.1129
vn -0.7586 -0.4823 -0.4380
vn -0.2508 -0.8509 -0.4615
vn 0.2508 -0.8509 -0.4615
vn 0.7585 -0.4824 -0.4381
vn 0.4379 -0.4824 -0.7586
vn 0.4958 -0.1279 -0.8590
vn 0.8589 -0.1279 -0.4959
vn 0.2510 0.9526 0.1719
vn -0.2510 0.9526 0.1719
vn 0.5596 0.7934 -0.2396
vn -0.0547 -0.8556 -0.5148
vn 0.0547 -0.8556 -0.5148
vn -0.5596 0.7934 -0.2396
vn 0.6977 0.7148 0.0485
vn 0.7987 0.5920 0.1080
vn 0.7946 0.6068 -0.0233
vn -0.9445 0.3128 -0.1007
vn -0.7946 0.6067 -0.0232
vn -0.4380 -0.4823 -0.7586
vn -0.1129 -0.4883 -0.8653
vn -0.4959 -0.1278 -0.8589
vn -0.8589 -0.1278 -0.4959
vn 0.1129 -0.4883 -0.8653
vn -0.9555 0.2649 0.1296
vn 0.9445 0.3128 -0.1007
vn 0.9950 0.0579 0.0816
vn -0.9834 -0.1282 -0.1282
vn -0.9888 0.0835 -0.1235
vn -0.9978 0.0397 0.0533
vn -0.9950 0.0580 0.0816
vn -0.6977 0.7148 0.0485
vn -0.7987 0.5919 0.1080
vn 0.4958 0.1279 -0.8590
vn 0.8589 0.1279 -0.4959
vn 0.1282 -0.1282 -0.9834
vn 0.1282 0.1282 -0.9834
vn -0.1282 0.1282 -0.9834
vn 0.7585 0.4824 -0.4381
vn 0.0000 0.9977 0.0683
vn -0.9881 0.0395 0.1484
vn -0.1282 -0.1282 -0.9834
vn 0.9882 0.0394 0.1483
usemtl _auto_.002
s 1
f 55/1/1 69/2/2 64/3/3 63/4/4
f 8/5/5 13/6/6 15/7/7 14/8/8
f 35/9/9 37/10/10 38/11/11 34/12/12
f 26/13/13 34/12/12 38/11/11 79/14/14
f 54/15/15 17/16/16 16/17/17 53/18/18
f 33/19/19 32/20/20 29/21/21 31/22/22
f 50/23/23 70/24/24 71/25/25 45/26/26 44/27/27 49/28/28
f 39/29/29 40/30/30 37/31/10 35/32/9
f 84/33/31 100/34/32 101/35/33 85/36/34
f 44/27/27 48/37/35 49/28/28
f 85/38/34 86/39/36 87/40/37 3/41/38 24/42/39 84/43/31
f 47/44/40 66/45/41 68/46/42 46/47/43
f 64/3/3 33/19/19 31/22/22 63/4/4
f 56/48/44 55/49/1 63/50/4 62/51/45
f 61/52/46 62/53/45 30/54/47 60/55/48
f 60/56/48 30/57/47 28/58/49 27/59/50
f 33/19/19 65/60/51 36/61/52 32/20/20
f 90/62/53 92/63/54 91/64/55 10/65/56
f 42/66/57 43/67/58 76/68/59 40/30/30 39/29/29 41/69/60
f 41/69/60 67/70/61 42/66/57
f 102/71/62 92/63/54 87/72/37 86/73/36
f 54/74/15 56/75/44 58/76/63 57/77/64
f 15/78/7 51/79/65 52/80/66 14/81/8
f 71/82/25 70/83/24 11/84/67 12/85/68
f 71/25/25 72/86/69 45/26/26
f 47/87/40 46/88/43 48/37/35 44/27/27 42/66/57 67/70/61
f 43/67/58 75/89/70 76/68/59
f 77/90/71 97/91/72 98/92/73 78/93/74
f 22/94/75 20/95/76 58/76/63 61/52/46
f 83/96/77 84/43/31 24/42/39
f 43/67/58 45/26/26 72/86/69 73/97/78 74/98/79 75/89/70
f 3/41/38 87/40/37 88/99/80
f 23/100/81 21/101/81 22/94/75 59/102/82 25/103/83 83/96/77 24/42/81
f 66/45/41 64/3/3 69/2/2 68/46/42
f 89/104/84 2/105/85 88/106/80 90/107/53
f 72/108/69 94/109/86 95/110/87 73/111/78
f 16/112/17 14/81/8 52/80/66 53/113/18
f 93/114/88 94/109/86 12/115/68 9/116/89
f 96/117/90 97/91/72 75/118/70 74/119/79
f 17/16/16 54/15/15 57/120/64 18/121/91
f 33/19/19 64/3/3 66/45/41 65/60/51
f 81/122/92 27/59/50 28/58/93 26/13/13 79/123/14
f 65/60/51 67/124/61 41/69/60 36/125/52
f 59/102/82 60/56/48 27/59/50 81/122/92 25/103/83
f 77/126/71 37/31/10 40/30/30 76/68/59
f 51/127/65 15/128/7 49/28/28 48/37/35
f 34/12/12 32/129/20 36/125/52 35/32/9
f 13/6/6 8/5/5 7/130/94 11/84/67
f 7/130/94 9/131/89 12/85/68 11/84/67
f 38/11/11 37/10/10 77/90/71 78/132/74
f 10/65/56 91/64/55 93/114/88 9/116/89
f 86/73/36 85/36/34 101/35/33 102/71/62
f 6/133/95 10/134/56 9/131/89 7/130/94
f 52/80/66 69/2/2 55/49/1 53/135/18
f 69/2/2 52/80/66 51/79/65 68/46/42
f 18/121/91 89/104/84 6/136/95 5/137/96 17/16/97
f 4/138/98 1/139/98 3/41/98 88/99/80 2/140/85 19/141/99 20/95/76
f 50/142/23 13/6/6 11/84/67 70/83/24
f 78/143/74 98/92/73 99/144/100 80/145/101
f 105/146/102 98/92/73 97/91/72 96/117/90
f 30/147/47 62/51/45 63/50/4 31/148/22
f 76/68/59 75/89/70 97/149/72 77/126/71
f 38/150/11 78/132/74 80/151/101 79/123/14
f 41/69/60 39/29/29 35/32/9 36/125/52
f 44/27/27 45/26/26 43/67/58 42/66/57
f 106/152/103 103/153/104 102/71/62 101/35/33
f 56/48/44 54/154/15 53/135/18 55/49/1
f 99/144/100 100/34/32 82/155/105 80/145/101
f 58/76/63 20/95/76 19/141/99 57/77/64
f 68/46/42 51/79/65 48/37/35 46/88/43
f 82/156/105 81/157/92 79/123/14 80/151/101
f 62/53/45 61/52/46 58/76/63 56/75/44
f 22/94/75 61/52/46 60/55/48 59/102/82
f 98/158/73 105/146/102 106/159/103 99/160/100
f 23/161/106 24/42/39 3/41/38 1/162/106 4/138/106 20/95/76 22/94/75 21/101/106
f 18/121/91 57/77/64 19/163/99 2/105/85 89/104/84
f 83/96/77 25/103/83 81/157/92 82/156/105
f 5/137/96 8/5/5 14/8/8 16/17/107 17/16/97
f 99/144/100 106/159/103 101/35/33 100/34/32
f 12/115/68 94/164/86 72/86/69 71/25/25
f 30/57/47 31/165/22 29/166/21 28/58/49
f 74/119/79 73/97/78 95/110/87 96/117/90
f 95/110/87 94/109/86 93/167/88 104/168/108
f 90/62/53 10/65/56 6/136/95 89/104/84
f 91/169/55 103/153/104 104/168/108 93/167/88
f 102/71/62 103/170/104 91/64/55 92/63/54
f 103/153/104 106/159/103 105/171/102 104/172/108
f 92/63/54 90/62/53 88/99/80 87/40/37
f 29/173/109 32/129/20 34/12/12 26/13/13 28/58/93
f 13/6/6 50/142/23 49/28/28 15/7/7
f 83/96/77 82/156/105 100/174/32 84/43/31
f 65/60/51 66/45/41 47/44/40 67/124/61
f 104/172/108 105/171/102 96/117/90 95/110/87
f 5/137/96 6/133/95 7/175/94 8/176/5
