# Blender v2.82 (sub 7) OBJ File: ''
# www.blender.org
mtllib GT_Large_Recycled_Block_Corner_Collider.mtl
v 0.537403 -0.443314 -0.421055
v 0.549900 -0.450003 0.550601
v 1.450001 -0.493310 -0.474412
v 1.409405 -0.493305 0.048810
v 0.678303 -0.493315 -0.461912
v 1.148539 -0.493302 0.500582
v 0.499905 0.500011 0.500581
v 0.499905 0.500011 -0.399407
v 0.537403 1.443314 -0.421055
v 0.549900 1.450003 0.550601
v 1.450001 1.493310 -0.474412
v 1.409405 1.493305 0.048810
v 0.678303 1.493315 -0.461912
v 1.148539 1.493302 0.500582
vt 0.204754 0.847498
vt 0.000000 0.000000
vt 0.000000 0.000000
vt 0.356219 0.846332
vt 0.356219 0.846332
vt 0.845308 0.789347
vt 0.960078 0.789351
vt 0.313862 0.756622
vt 0.387047 0.756622
vt 0.380853 0.803670
vt 0.832972 0.805657
vt 0.832973 0.871651
vt 0.898966 0.871650
vt 0.898966 0.805657
vt 0.845308 0.789347
vt 0.960078 0.789351
vt 0.313862 0.756622
vt 0.387047 0.756622
vt 0.380853 0.803670
vt 0.204753 0.756621
vt 0.204753 0.804281
vt 0.204753 0.804281
vt 0.204753 0.756621
vt 0.832972 0.805657
vt 0.832973 0.871651
vt 0.000000 0.000000
vt 0.903022 0.812170
vt 0.910354 0.812170
vt 0.910354 0.812170
vt 0.000000 0.000000
vt 0.384687 0.765010
vt 0.000000 0.000000
vt 0.384687 0.765010
vn 0.8660 -0.0000 0.5001
vn 0.0008 -0.8192 0.5735
vn -0.5443 -0.5655 0.6196
vn -0.6517 -0.5470 -0.5254
vn -0.1443 -0.6995 -0.6999
vn 0.5786 -0.5854 -0.5679
vn 0.4646 -0.8840 0.0510
vn 0.6587 -0.7523 -0.0131
vn 0.7127 -0.7013 -0.0128
vn 0.9989 -0.0461 -0.0065
vn 0.0563 -0.9983 -0.0125
vn 0.7284 0.0000 -0.6851
vn 0.9970 0.0000 0.0774
vn -0.8691 -0.0174 0.4943
vn -0.6582 -0.0191 -0.7526
vn 0.0833 -0.0000 0.9965
vn 0.0498 -0.0000 0.9988
vn -0.3073 0.0000 -0.9516
vn -0.1463 0.0000 -0.9892
usemtl _auto_.001
s off
f 6/1/1 4/2/1 12/3/1 14/4/1
s 1
f 6/5/2 2/6/3 1/7/4 5/8/5 3/9/6 4/10/7
f 9/11/8 10/12/9 7/13/10 8/14/10
f 14/4/11 10/15/9 9/16/8 13/17/11 11/18/11 12/19/11
f 11/20/12 12/21/13 4/22/7 3/23/6
f 7/13/14 8/14/15 1/24/4 2/25/3
f 6/5/2 14/4/16 10/15/17 2/26/3
f 9/27/18 13/28/19 5/29/5 1/30/4 8/14/15
f 10/12/17 7/13/14 2/25/3
f 3/31/6 5/32/5 13/28/19 11/33/12
