# Blender v2.82 (sub 7) OBJ File: ''
# www.blender.org
mtllib GT_Long_Leaf_Block_Corner_Collider.mtl
o GT_Long_Leaf_Block_Corner
v -0.475000 0.493301 -0.450000
v -0.493301 0.475000 -0.450000
v -0.471651 0.493301 -0.462500
v -0.450000 0.500000 -0.450000
v -0.462500 0.493301 -0.471651
v -0.449999 0.475000 -0.493302
v -0.471651 0.475000 -0.487500
v -0.475000 -0.450000 -0.493302
v -0.449999 -0.450000 -0.500000
v -0.450000 -0.500000 -0.450000
v -0.500000 -0.450000 -0.450000
v -0.493301 -0.450000 -0.475000
v -0.487500 0.475000 -0.471651
v -0.493301 -0.105665 2.416400
v -0.475000 -0.300970 2.493310
v -0.475000 -0.096354 2.432700
v -0.475000 0.094712 2.254630
v -0.475000 0.259568 1.970010
v -0.493301 0.242857 1.962410
v -0.099416 0.448592 -0.493301
v 0.248008 0.248008 -0.493301
v 0.448592 -0.099416 -0.493301
v 0.466270 -0.094679 -0.475000
v 0.260949 0.260948 -0.475000
v -0.094679 0.466270 -0.475000
v -0.092945 0.472741 -0.450000
v 0.265685 0.265685 -0.450000
v 0.472741 -0.092945 -0.450000
v 0.493302 -0.450000 -0.475000
v 0.475000 -0.450000 -0.493301
v 0.462501 -0.493302 -0.471651
v 0.471651 -0.475000 -0.487500
v 0.471651 -0.493302 -0.462500
v 0.475000 -0.493301 -0.450000
v 0.242858 -0.493301 1.962410
v -0.105664 -0.493301 2.416410
v -0.462501 -0.493301 2.471650
v -0.471651 -0.475000 2.487500
v -0.475001 -0.450000 2.493300
v -0.450000 -0.300000 2.500000
v -0.450000 -0.092945 2.438670
v -0.450000 0.099999 2.258850
v -0.450000 0.265685 1.972790
v 0.493302 -0.475000 -0.450000
v 0.500000 -0.450000 -0.450000
v 0.487500 -0.475000 -0.471651
v 0.259569 -0.475000 1.970010
v 0.094713 -0.475000 2.254630
v -0.300969 -0.475000 2.493310
v -0.096353 -0.475000 2.432700
v -0.300000 -0.450000 2.500000
v -0.092945 -0.450000 2.438670
v 0.100000 -0.450000 2.258850
v 0.265686 -0.450000 1.972790
v 0.083035 -0.197366 2.258850
v 0.244456 -0.154113 1.972790
v 0.188146 -0.018169 1.972790
v 0.043420 -0.101727 2.258850
v 0.098570 0.098569 1.972790
v -0.101726 0.043420 2.258850
v -0.018169 0.188146 1.972790
v -0.197366 0.083035 2.258850
v -0.154114 0.244456 1.972790
v -0.199031 -0.125117 2.438670
v -0.125117 -0.199032 2.438670
v -0.300000 -0.300000 2.500000
v -0.487501 -0.475000 2.471650
v -0.471651 -0.493301 2.462500
v -0.471651 -0.475000 -0.487500
v -0.462500 -0.493301 -0.471651
v -0.471651 -0.493301 -0.462500
v -0.487500 -0.475000 -0.471651
v -0.493302 -0.450000 2.475000
vt 0.233719 0.694210
vt 0.233719 0.691849
vt 0.231358 0.692165
vt 0.231358 0.968934
vt 0.233719 0.968934
vt 0.623759 0.958121
vt 0.623828 0.958121
vt 0.629709 0.937990
vt 0.637924 0.937990
vt 0.629640 0.937990
vt 0.232446 0.789887
vt 0.623482 0.969210
vt 0.624138 0.970356
vt 0.247700 0.791616
vt 0.231582 0.791616
vt 0.233626 0.793977
vt 0.233626 0.881327
vt 0.623922 0.905073
vt 0.648372 0.890957
vt 0.662488 0.866507
vt 0.320977 0.793977
vt 0.597490 0.957824
vt 0.599249 0.958121
vt 0.599249 0.937990
vt 0.597490 0.937794
vt 0.617098 0.958121
vt 0.599318 0.958121
vt 0.599318 0.937990
vt 0.620142 0.937990
vt 0.624255 0.906318
vt 0.649283 0.891868
vt 0.617029 0.958121
vt 0.620073 0.937990
vt 0.231265 0.793977
vt 0.229537 0.793977
vt 0.230085 0.791616
vt 0.597490 0.866722
vt 0.597490 0.852322
vt 0.599249 0.852391
vt 0.599249 0.866962
vt 0.636762 0.859614
vt 0.633974 0.866344
vt 0.622113 0.859496
vt 0.624377 0.841834
vt 0.637956 0.841834
vt 0.609806 0.841834
vt 0.609806 0.852391
vt 0.233626 0.808141
vt 0.231265 0.808050
vt 0.609738 0.840075
vt 0.624138 0.840075
vt 0.624446 0.767484
vt 0.624324 0.765725
vt 0.649352 0.765725
vt 0.649685 0.767484
vt 0.233719 0.694210
vt 0.597559 0.937794
vt 0.231358 0.694210
vt 0.233626 0.694210
vt 0.624377 0.767484
vt 0.233719 0.691849
vt 0.232446 0.692165
vt 0.233626 0.690121
vt 0.231582 0.690669
vt 0.623551 0.969209
vt 0.624207 0.970356
vt 0.637653 0.957824
vt 0.649255 0.937794
vt 0.648079 0.937259
vt 0.616911 0.864698
vt 0.623759 0.876559
vt 0.322798 0.693030
vt 0.321069 0.692165
vt 0.321069 0.694210
vt 0.322798 0.694210
vt 0.230085 0.692165
vt 0.231582 0.693030
vt 0.232446 0.968934
vt 0.233626 0.694210
vt 0.320661 0.693030
vt 0.320977 0.694210
vt 0.322705 0.694210
vt 0.649186 0.937794
vt 0.648010 0.937259
vt 0.649616 0.767484
vt 0.637584 0.840075
vt 0.649283 0.765725
vt 0.624255 0.765725
vt 0.617029 0.879347
vt 0.599249 0.880541
vt 0.231265 0.694210
vt 0.231265 0.793977
vt 0.231582 0.881327
vt 0.231582 0.791616
vt 0.320661 0.791616
vt 0.230085 0.968934
vt 0.229630 0.693030
vt 0.231582 0.968934
vt 0.663733 0.866840
vt 0.597490 0.880169
vt 0.231582 0.968934
vt 0.322705 0.793977
vt 0.322157 0.791616
vt 0.637584 0.957824
vt 0.322157 0.692165
vt 0.319797 0.692165
vt 0.320661 0.690669
vt 0.597559 0.957824
vt 0.232446 0.692165
vt 0.609806 0.972220
vt 0.231358 0.690669
vt 0.321069 0.690669
vt 0.233719 0.690121
vt 0.319797 0.789887
vt 0.231582 0.690669
vt 0.231582 0.693030
vt 0.230085 0.692165
vt 0.231358 0.692165
vt 0.229630 0.694210
vt 0.229630 0.693030
vn -0.9848 -0.1600 -0.0682
vn -0.8937 -0.0912 -0.4393
vn -0.8255 -0.4415 -0.3516
vn -0.7957 -0.5045 0.3351
vn -0.9334 -0.1235 0.3368
vn 0.3984 0.6647 0.6320
vn 0.6647 0.3984 0.6320
vn 0.8073 0.4992 0.3148
vn 0.6731 0.6731 0.3066
vn 0.4992 0.8073 0.3148
vn -0.1572 -0.9264 0.3423
vn 0.1388 -0.9614 0.2377
vn 0.3871 -0.6149 0.6871
vn 0.1092 -0.5429 0.8326
vn -0.3483 -0.4894 0.7995
vn -0.0679 -0.1651 -0.9839
vn -0.0501 0.4013 -0.9146
vn 0.1282 0.4226 -0.8972
vn 0.3088 0.3088 -0.8996
vn 0.4086 0.1298 -0.9034
vn 0.3952 -0.1409 -0.9077
vn -0.6235 0.6139 0.4842
vn -0.0906 0.7769 0.6230
vn -0.0954 0.9479 0.3040
vn -0.6896 0.6770 0.2572
vn 0.7673 0.1527 0.6228
vn 0.7769 -0.0906 0.6230
vn 0.9478 -0.0954 0.3043
vn 0.9189 0.2530 0.3027
vn 0.2539 0.8376 -0.4837
vn 0.6194 0.6194 -0.4823
vn 0.1527 0.7673 0.6228
vn 0.2530 0.9189 0.3027
vn -0.4665 -0.0733 0.8815
vn -0.6122 0.3894 0.6882
vn -0.5384 0.1112 0.8353
vn -0.0798 0.1268 0.9887
vn -0.0987 0.4987 0.8611
vn 0.4752 0.2042 0.8559
vn 0.4956 -0.0893 0.8639
vn 0.1290 -0.0762 0.9887
vn 0.1172 0.1155 0.9864
vn 0.9526 0.2931 -0.0814
vn 0.8352 0.2579 -0.4857
vn 0.7047 0.7048 -0.0816
vn 0.9927 -0.0898 -0.0803
vn 0.6769 -0.6896 0.2576
vn 0.7749 -0.6245 -0.0981
vn -0.0629 0.9974 -0.0363
vn 0.2928 0.9519 -0.0905
vn 0.8644 -0.0952 -0.4938
vn -0.1911 0.8873 -0.4196
vn -0.4172 0.3879 -0.8219
vn -0.9604 0.1424 0.2396
vn -0.9739 0.1836 0.1333
vn 0.2477 0.4339 0.8663
vn -0.4807 0.8603 -0.1697
vn -0.8068 0.3636 -0.4658
vn -0.9696 0.2064 -0.1316
vn -0.6510 0.7590 -0.0110
vn -0.0819 -0.9941 -0.0710
vn 0.3816 -0.8913 -0.2449
vn 0.3885 -0.9161 -0.0989
vn 0.1835 -0.9740 0.1333
vn 0.6139 -0.6235 0.4842
vn -0.4393 -0.0913 -0.8937
vn -0.3516 -0.4416 -0.8254
vn 0.3351 -0.5046 -0.7957
vn -0.5058 -0.8480 -0.1581
vn -0.5058 -0.8480 0.1581
vn 0.7586 -0.4823 -0.4380
vn 0.1590 -0.8477 -0.5061
vn -0.2096 -0.8617 -0.4621
usemtl _auto_.002
s 1
f 11/1/1 12/2/2 72/3/3 67/4/4 73/5/5
f 60/6/6 58/7/7 57/8/8 59/9/9 61/10/10
f 37/11/11 36/12/12 50/13/13 49/14/14 38/15/15
f 9/16/16 6/17/17 20/18/18 21/19/19 22/20/20 30/21/21
f 17/22/22 42/23/23 43/24/24 18/25/25
f 55/26/26 53/27/27 54/28/28 56/29/29
f 21/19/19 20/18/18 25/30/30 24/31/31
f 43/24/24 42/23/23 62/32/32 63/33/33
f 39/34/34 73/35/5 67/36/4 38/15/15
f 16/37/35 15/38/36 40/39/37 41/40/38
f 55/41/26 58/42/7 65/43/39 52/44/40 53/45/27
f 51/46/41 66/47/42 40/48/37 15/49/36 39/34/34 38/15/15 49/14/14
f 51/46/41 49/50/14 50/51/13 52/44/40
f 28/52/43 23/53/44 24/54/31 27/55/45
f 45/56/46 54/28/28 47/57/47 44/58/48
f 62/32/32 60/6/6 61/10/10 63/33/33
f 4/59/49 43/24/24 63/33/33 26/60/50
f 28/52/43 45/56/46 29/61/51 23/53/44
f 5/62/52 25/30/30 20/18/18 6/63/17 7/64/53
f 14/65/54 16/66/35 17/67/22 18/68/25 19/69/55
f 64/70/56 65/43/39 58/42/7 60/71/6
f 3/72/57 13/73/58 2/74/59 1/75/60
f 13/76/58 3/77/57 5/62/52 7/64/53
f 37/78/11 10/79/61 33/80/62 34/81/63 44/82/48 47/83/47 35/84/64 36/12/12
f 61/10/10 59/9/9 27/85/45 26/60/50 63/33/33
f 53/45/27 52/44/40 50/51/13 48/86/65
f 27/85/45 24/87/31 25/88/30 26/60/50
f 62/89/32 42/90/23 41/40/38 64/70/56 60/71/6
f 2/74/59 11/1/1 73/5/5 14/65/54 19/69/55 18/68/25 1/91/60
f 8/92/66 7/93/53 6/17/17 9/16/16
f 69/94/67 8/92/66 9/16/16 30/21/21 32/95/68
f 67/96/4 72/3/3 71/97/69 68/98/70
f 64/70/56 41/40/38 40/39/37 66/47/42
f 65/43/39 64/70/56 66/47/42 51/46/41 52/44/40
f 21/19/19 24/31/31 23/99/44 22/20/20
f 16/37/35 41/40/38 42/90/23 17/100/22
f 28/52/43 56/29/29 54/28/28 45/56/46
f 4/59/49 5/62/52 3/77/57 1/91/60 18/25/25 43/24/24
f 38/101/15 67/96/4 68/98/70 37/78/11
f 30/21/21 29/102/51 46/103/71 32/95/68
f 48/104/65 50/13/13 36/12/12 35/84/64 47/83/47
f 46/105/71 33/80/62 31/106/72 32/107/68
f 54/28/28 53/27/27 48/108/65 47/57/47
f 2/74/59 13/73/58 12/2/2 11/1/1
f 33/80/62 10/79/61 70/109/73 31/106/72
f 27/55/45 59/9/9 57/8/8 56/29/29 28/52/43
f 4/59/49 26/60/50 25/88/30 5/62/52
f 14/65/54 73/35/5 39/34/34 15/110/36 16/66/35
f 69/111/67 72/3/3 12/2/2 13/73/58 7/112/53 8/113/66
f 31/114/72 70/109/73 69/115/67 32/95/68
f 71/116/69 72/117/3 69/115/67 70/109/73
f 71/116/69 70/109/73 10/79/61 37/78/11 68/98/70
f 29/61/51 45/56/46 44/58/48 46/118/71
f 55/26/26 56/29/29 57/8/8 58/7/7
f 46/118/71 44/58/48 34/119/63 33/120/62
f 23/99/44 29/102/51 30/21/21 22/20/20
