# Blender v2.82 (sub 7) OBJ File: ''
# www.blender.org
mtllib GT_Large_Leaf_Block_Corner_Collider.mtl
v -0.449997 1.450095 -0.449999
v -0.500000 1.450086 1.166609
v -0.474998 2.449995 -0.493316
v 0.697002 2.475045 -0.493316
v 0.882202 2.362225 -0.500015
v 1.061100 2.100195 -0.500015
v 1.158483 1.500095 -0.500015
v -0.021503 1.511044 1.149175
v 0.720640 1.511043 0.720675
v -0.500000 2.100195 1.061118
v -0.500000 2.362225 0.882198
v -0.500000 2.450005 0.700589
v -0.096500 2.401415 0.869408
v -0.152199 2.500005 0.661379
v 0.661400 2.500005 -0.152217
v 1.149137 1.511043 -0.021506
v 0.515900 2.401415 0.515869
v 0.869400 2.401415 -0.096475
v 1.052803 2.123275 -0.047318
v -0.047298 2.123275 1.052848
v 0.650101 2.123275 0.650159
vt 0.573661 0.913409
vt 0.603817 0.916515
vt 0.602001 0.959601
vt 0.573661 0.959601
vt 0.729704 0.884096
vt 0.717085 0.893547
vt 0.717085 0.844461
vt 0.729704 0.841002
vt 0.598539 0.972220
vt 0.573661 0.972220
vt 0.656046 0.916515
vt 0.651082 0.959601
vt 0.199291 0.868129
vt 0.199291 0.759473
vt 0.199291 0.893152
vt 0.000000 0.000000
vt 0.673999 0.898510
vt 0.673999 0.846278
vt 0.227413 0.864426
vt 0.304244 0.787595
vt 0.307946 0.759473
vt 0.717084 0.816121
vt 0.729704 0.816121
vt 0.641637 0.972220
vt 0.594619 0.894336
vt 0.598539 0.908977
vt 0.641637 0.884096
vt 0.666515 0.841002
vt 0.651877 0.837079
vt 0.669787 0.816121
vt 0.654635 0.816121
vt 0.663464 0.961077
vt 0.592284 0.901593
vt 0.199291 0.968934
vt 0.634430 0.977378
vt 0.649056 0.977378
vt 0.573661 0.897096
vt 0.573661 0.912252
vt 0.000000 0.000000
vt 0.000000 0.000000
vt 0.000000 0.000000
vn -0.5664 -0.5565 0.6079
vn 0.2363 -0.5631 0.7919
vn 0.2401 0.3653 0.8994
vn -0.6717 0.2607 0.6934
vn 0.4516 0.7695 0.4516
vn 0.6599 0.3594 0.6599
vn 0.8994 0.3652 0.2401
vn 0.6264 0.7622 0.1633
vn 0.1561 0.7695 0.6193
vn -0.6806 0.5471 0.4874
vn 0.5867 -0.5752 0.5700
vn -0.6938 0.7035 0.1539
vn -0.5883 0.5473 -0.5953
vn -0.5617 -0.6072 -0.5619
vn 0.7892 -0.5728 0.2217
vn 0.0358 0.9820 0.1855
vn 0.1910 0.9802 0.0516
vn 0.1730 0.7238 -0.6680
vn 0.6961 0.2574 -0.6702
vn 0.4984 0.5267 -0.6887
vn 0.6355 -0.5292 -0.5622
usemtl _auto_.005
s 1
f 2/1/1 8/2/2 20/3/3 10/4/4
f 17/5/5 21/6/6 19/7/7 18/8/8
f 13/9/9 11/10/10 10/4/4 20/3/3
f 8/2/2 9/11/11 21/12/6 20/3/3
f 10/4/4 11/10/10 12/13/12 3/14/13 1/15/14 2/16/1
f 21/6/6 9/17/11 16/18/15 19/7/7
f 14/19/16 15/20/17 4/21/18 3/14/13 12/13/12
f 19/7/7 6/22/19 5/23/20 18/8/8
f 13/9/9 20/3/3 21/12/6 17/24/5
f 14/25/16 13/26/9 17/27/5 18/28/8 15/29/17
f 5/30/20 4/31/18 15/29/17 18/28/8
f 6/32/19 7/33/21 1/15/14 3/34/13 4/35/18 5/36/20
f 12/37/12 11/38/10 13/26/9 14/25/16
f 16/18/15 7/39/21 6/22/19 19/7/7
f 16/40/15 9/11/11 8/2/2 2/16/1 1/41/14 7/39/21
