# Blender v2.79 (sub 0) OBJ File: 'miniflak.blend'
# www.blender.org
o m_GSO_BigBertha_548_Barrel.001_m_GSO_BigBertha_548_Barrel.008
v 0.042812 0.075609 1.268392
v 0.000009 0.099202 0.203709
v 0.000058 0.087091 1.268403
v 0.048672 0.086133 0.203696
v 0.074098 0.044289 1.268371
v 0.084282 0.050484 0.203672
v 0.085531 0.001522 1.268346
v 0.097295 0.001806 0.203643
v 0.074050 -0.041232 1.268323
v 0.084227 -0.046857 0.203617
v 0.042729 -0.072518 1.268309
v 0.048578 -0.082466 0.203601
v -0.000038 -0.083952 1.268307
v -0.000100 -0.095480 0.203599
v -0.048668 0.086187 0.203706
v -0.042709 0.075657 1.268401
v -0.084317 0.050578 0.203690
v -0.074029 0.044372 1.268386
v -0.097386 0.001915 0.203664
v -0.085511 0.001617 1.268364
v -0.084372 -0.046762 0.203636
v -0.074077 -0.041149 1.268338
v -0.048763 -0.082411 0.203612
v -0.042792 -0.072470 1.268318
v -0.000100 -0.095480 0.203599
v -0.000038 -0.083952 1.268307
v 0.000058 0.087091 1.268398
v 0.026709 0.047753 1.268373
v 0.042812 0.075609 1.268387
v 0.000040 0.054915 1.268380
v -0.042709 0.075657 1.268396
v -0.026636 0.047783 1.268379
v 0.042812 0.075609 1.268387
v 0.046224 0.028216 1.268360
v 0.074098 0.044289 1.268366
v 0.026709 0.047753 1.268373
v 0.074098 0.044289 1.268366
v 0.053356 0.001540 1.268344
v 0.085531 0.001522 1.268341
v 0.046224 0.028216 1.268360
v 0.046194 -0.025129 1.268330
v 0.074050 -0.041232 1.268318
v 0.074050 -0.041232 1.268318
v 0.026657 -0.044644 1.268321
v 0.042729 -0.072518 1.268304
v 0.046194 -0.025129 1.268330
v 0.042729 -0.072518 1.268304
v -0.000020 -0.051776 1.268320
v -0.000038 -0.083952 1.268302
v 0.026657 -0.044644 1.268321
v -0.026688 -0.044614 1.268327
v -0.042792 -0.072470 1.268313
v -0.042792 -0.072470 1.268313
v -0.046203 -0.025077 1.268340
v -0.074077 -0.041149 1.268334
v -0.026688 -0.044614 1.268327
v -0.074077 -0.041149 1.268334
v -0.053335 0.001600 1.268356
v -0.085511 0.001617 1.268359
v -0.046203 -0.025077 1.268340
v -0.046173 0.028268 1.268370
v -0.074029 0.044372 1.268382
v -0.074029 0.044372 1.268382
v -0.026636 0.047783 1.268379
v -0.042709 0.075657 1.268396
v -0.046173 0.028268 1.268370
v 0.000040 0.054915 1.268384
v -0.000021 0.001737 0.925359
v 0.026709 0.047753 1.268377
v 0.046224 0.028216 1.268364
v 0.053356 0.001540 1.268349
v 0.046194 -0.025129 1.268334
v 0.026657 -0.044644 1.268326
v -0.000020 -0.051776 1.268325
v -0.026688 -0.044614 1.268331
v -0.046203 -0.025077 1.268344
v -0.053335 0.001600 1.268360
v -0.046173 0.028268 1.268375
v -0.026636 0.047783 1.268383
v 0.000040 0.054915 1.268384
v -0.000021 0.358559 0.576273
v 0.045850 0.346240 0.576266
v 0.079417 0.312636 0.576251
v 0.091684 0.266751 0.576234
v 0.079365 0.220880 0.576218
v 0.045761 0.187313 0.576208
v -0.000124 0.175046 0.576207
v -0.045906 0.346291 0.576272
v -0.079510 0.312725 0.576262
v -0.091829 0.266854 0.576246
v -0.079562 0.220969 0.576229
v -0.045995 0.187365 0.576214
v -0.000124 0.175046 0.576207
v -0.000112 0.196523 -0.074838
v -0.000112 0.196523 0.181725
v -0.059368 0.299291 -0.074783
v -0.059368 0.299291 0.181781
v -0.000112 0.196523 0.181725
v -0.000112 0.196523 -0.074838
v -0.000021 0.358559 0.576273
v 0.045850 0.346240 0.576266
v 0.079417 0.312636 0.576251
v 0.091684 0.266751 0.576234
v 0.079365 0.220880 0.576218
v 0.045761 0.187313 0.576208
v -0.000124 0.175046 0.576207
v -0.045906 0.346291 0.576272
v -0.079510 0.312725 0.576262
v -0.091829 0.266854 0.576246
v -0.079562 0.220969 0.576229
v -0.045995 0.187365 0.576214
v -0.000035 0.333630 0.604763
v 0.034264 0.324418 0.604757
v 0.059362 0.299292 0.604747
v 0.068534 0.264983 0.604734
v 0.059323 0.230684 0.604722
v 0.034197 0.205586 0.604714
v -0.000112 0.196414 0.604713
v -0.034344 0.324457 0.604762
v -0.059470 0.299359 0.604755
v -0.068681 0.265060 0.604743
v -0.059509 0.230751 0.604730
v -0.034411 0.205625 0.604719
v -0.000076 0.259744 0.624596
v -0.034352 0.205718 0.181733
v -0.034352 0.205718 -0.074831
v -0.059406 0.230801 0.181747
v -0.059406 0.230801 -0.074816
v -0.068563 0.265051 -0.074799
v -0.068563 0.265051 0.181765
v 0.034205 0.324307 0.181784
v 0.034205 0.324307 -0.074779
v 0.059259 0.299224 0.181770
v 0.059259 0.299224 -0.074794
v 0.068416 0.264974 -0.074811
v 0.068416 0.264974 0.181752
v 0.059221 0.230734 0.181736
v -0.000021 0.358559 0.181792
v 0.059221 0.230734 -0.074827
v 0.034138 0.205680 -0.074837
v -0.045906 0.346291 0.181790
v 0.045761 0.187313 0.181726
v 0.034138 0.205680 0.181726
v -0.034285 0.324345 0.181790
v 0.079365 0.220880 0.181736
v 0.091684 0.266751 0.181752
v -0.034285 0.324345 -0.074773
v -0.000035 0.333502 -0.074772
v 0.079417 0.312636 0.181770
v -0.000035 0.333502 0.181792
v 0.045850 0.346240 0.181784
v -0.091829 0.266854 0.181765
v -0.079562 0.220969 0.181747
v -0.045995 0.187365 0.181733
v -0.000124 0.175046 0.181725
v -0.079510 0.312725 0.181781
v -0.000124 0.175046 0.181725
v -0.000035 0.333502 0.181792
v -0.034285 0.324345 0.181790
v 0.034138 0.205680 0.181726
v 0.059221 0.230734 0.181736
v 0.068416 0.264974 0.181752
v 0.059259 0.299224 0.181770
v 0.034205 0.324307 0.181784
v -0.068563 0.265051 0.181765
v -0.059406 0.230801 0.181747
v -0.034352 0.205718 0.181733
v -0.000112 0.196523 0.181725
v -0.059368 0.299291 0.181781
v -0.000112 0.196523 0.181725
v -0.000012 0.374515 0.455920
v 0.053266 0.360207 0.455917
v 0.092253 0.321177 0.455913
v 0.106501 0.267882 0.455907
v -0.053307 0.360266 0.455920
v -0.092337 0.321280 0.455916
v -0.106645 0.268002 0.455911
v -0.000012 0.374515 0.355294
v -0.053307 0.360267 0.355294
v 0.106501 0.267882 0.355281
v 0.092253 0.321177 0.355287
v 0.053266 0.360207 0.355292
v -0.106645 0.268002 0.355285
v -0.092337 0.321280 0.355291
v 0.106501 -0.001558 0.455907
v 0.092193 -0.054836 0.455901
v 0.053163 -0.093823 0.455898
v -0.000132 -0.108071 0.455898
v -0.106645 -0.001438 0.455911
v -0.092396 -0.054733 0.455905
v -0.053410 -0.093763 0.455900
v -0.000132 -0.108071 0.455898
v 0.053163 -0.093823 0.355273
v 0.092193 -0.054836 0.355276
v 0.106501 -0.001558 0.355281
v -0.106645 -0.001438 0.355285
v -0.092396 -0.054733 0.355280
v -0.053410 -0.093763 0.355275
v -0.000132 -0.108071 0.355272
v -0.000132 -0.108071 0.355272
v -0.000012 0.374515 0.455920
v 0.053266 0.360207 0.455917
v 0.092253 0.321177 0.455913
v 0.106501 0.267882 0.455907
v -0.053307 0.360266 0.455920
v -0.092337 0.321280 0.455916
v -0.106645 0.268002 0.455911
v -0.000012 0.374515 0.355294
v -0.053307 0.360267 0.355294
v 0.106501 0.267882 0.355281
v 0.092253 0.321177 0.355287
v 0.053266 0.360207 0.355292
v -0.106645 0.268002 0.355285
v -0.092337 0.321280 0.355291
v 0.106501 -0.001558 0.455907
v 0.092193 -0.054836 0.455901
v 0.053163 -0.093823 0.455898
v -0.000132 -0.108071 0.455898
v -0.106645 -0.001438 0.455911
v -0.092396 -0.054733 0.455905
v -0.053410 -0.093763 0.455900
v -0.000132 -0.108071 0.455898
v 0.053163 -0.093823 0.355273
v 0.092193 -0.054836 0.355276
v 0.106501 -0.001558 0.355281
v -0.106645 -0.001438 0.355285
v -0.092396 -0.054733 0.355280
v -0.053410 -0.093763 0.355275
v -0.000132 -0.108071 0.355272
v -0.000132 -0.108071 0.355272
vt 0.724635 0.796625
vt 0.718070 0.802674
vt 0.718070 0.794866
vt 0.118774 0.860716
vt 0.120284 0.934287
vt 0.125675 0.860716
vt 0.146408 0.860716
vt 0.152166 0.934287
vt 0.153329 0.860716
vt 0.128092 0.934287
vt 0.132581 0.860716
vt 0.167174 0.860716
vt 0.160288 0.934287
vt 0.168409 0.934287
vt 0.194835 0.860716
vt 0.192476 0.934287
vt 0.200277 0.934287
vt 0.187926 0.860716
vt 0.184536 0.934287
vt 0.201741 0.860716
vt 0.207883 0.934286
vt 0.136036 0.934287
vt 0.139492 0.860716
vt 0.144072 0.934287
vt 0.160251 0.860716
vt 0.181013 0.860716
vt 0.176502 0.934287
vt 0.724635 0.796625
vt 0.718070 0.802674
vt 0.718070 0.794866
vt 0.718070 0.794866
vt 0.724636 0.800914
vt 0.724635 0.796625
vt 0.718070 0.802674
vt 0.724635 0.796625
vt 0.718070 0.794866
vt 0.718070 0.802674
vt 0.724635 0.796625
vt 0.718070 0.794866
vt 0.718070 0.794866
vt 0.724636 0.800914
vt 0.724635 0.796625
vt 0.724635 0.796625
vt 0.718070 0.802674
vt 0.718070 0.794866
vt 0.724635 0.796625
vt 0.718070 0.802674
vt 0.718070 0.794866
vt 0.724635 0.796625
vt 0.718070 0.802674
vt 0.718070 0.794866
vt 0.718070 0.802674
vt 0.724635 0.796625
vt 0.718070 0.794866
vt 0.718070 0.802674
vt 0.718070 0.802674
vt 0.724636 0.800914
vt 0.800430 0.824802
vt 0.828527 0.806123
vt 0.798740 0.821970
vt 0.797336 0.818986
vt 0.796229 0.815880
vt 0.795430 0.812680
vt 0.794948 0.809417
vt 0.794787 0.806123
vt 0.794947 0.802829
vt 0.795429 0.799566
vt 0.796227 0.796367
vt 0.797334 0.793260
vt 0.798738 0.790276
vt 0.800428 0.787443
vt 0.174096 0.860716
vt 0.026838 0.414536
vt 0.044524 0.418767
vt 0.034823 0.424189
vt 0.074370 0.463253
vt 0.070471 0.445354
vt 0.082847 0.448140
vt 0.016867 0.447965
vt 0.029183 0.433759
vt 0.029284 0.444799
vt 0.070746 0.434228
vt 0.082847 0.431142
vt 0.017328 0.429694
vt 0.042507 0.406305
vt 0.055628 0.418930
vt 0.060030 0.407009
vt 0.065177 0.424591
vt 0.041626 0.472538
vt 0.055128 0.460356
vt 0.059323 0.472261
vt 0.074708 0.416219
vt 0.026020 0.463784
vt 0.044015 0.460241
vt 0.034482 0.454540
vt 0.064798 0.454896
vt 0.048391 0.439928
vt 0.179213 0.345139
vt 0.174514 0.288277
vt 0.179213 0.288276
vt 0.974172 0.311341
vt 0.954521 0.474902
vt 0.954521 0.311340
vt 0.212962 0.288276
vt 0.208893 0.345136
vt 0.208893 0.288274
vt 0.885643 0.302817
vt 0.868625 0.139260
vt 0.885643 0.139256
vt 0.702024 0.339347
vt 0.711711 0.355490
vt 0.699008 0.348141
vt 0.883815 0.302842
vt 0.864834 0.466396
vt 0.864834 0.302835
vt 0.904624 0.302830
vt 0.904624 0.139269
vt 0.204670 0.288281
vt 0.199983 0.345140
vt 0.199983 0.288277
vt 0.991190 0.474898
vt 0.974172 0.311340
vt 0.991190 0.311336
vt 0.719042 0.349194
vt 0.719045 0.368221
vt 0.937503 0.302817
vt 0.923606 0.139262
vt 0.937503 0.139256
vt 0.196088 0.345136
vt 0.196088 0.288274
vt 0.831956 0.302819
vt 0.848974 0.139260
vt 0.848974 0.302822
vt 0.655529 0.366249
vt 0.664304 0.382920
vt 0.655529 0.385942
vt 0.923606 0.302823
vt 0.192193 0.345140
vt 0.187505 0.288281
vt 0.192193 0.288277
vt 0.845852 0.302828
vt 0.831956 0.466383
vt 0.702024 0.412843
vt 0.711711 0.395651
vt 0.719042 0.402997
vt 0.845852 0.466389
vt 0.170445 0.345137
vt 0.174514 0.345139
vt 0.937503 0.474898
vt 0.937503 0.311336
vt 0.671637 0.395650
vt 0.665354 0.402997
vt 0.868625 0.302821
vt 0.196088 0.345136
vt 0.196088 0.288274
vt 0.728867 0.385942
vt 0.719045 0.382920
vt 0.665354 0.349194
vt 0.664304 0.368221
vt 0.221730 0.345136
vt 0.217661 0.288276
vt 0.221730 0.288274
vt 0.665354 0.349194
vt 0.684340 0.348141
vt 0.671637 0.355490
vt 0.187505 0.345144
vt 0.183282 0.288285
vt 0.204670 0.345144
vt 0.682372 0.412843
vt 0.699008 0.403000
vt 0.183282 0.345136
vt 0.728867 0.366249
vt 0.217661 0.288277
vt 0.212962 0.345139
vt 0.682373 0.339347
vt 0.684340 0.403000
vt 0.782176 0.674467
vt 0.786164 0.670195
vt 0.780722 0.709823
vt 0.813406 0.680312
vt 0.814860 0.715668
vt 0.813400 0.709830
vt 0.786165 0.719936
vt 0.791610 0.668632
vt 0.791610 0.721503
vt 0.780715 0.668632
vt 0.780715 0.668632
vt 0.780715 0.668632
vt 0.797059 0.719936
vt 0.793074 0.715661
vt 0.802505 0.668632
vt 0.797059 0.670195
vt 0.791617 0.709823
vt 0.793071 0.674467
vt 0.791610 0.680304
vt 0.780715 0.680304
vt 0.782179 0.715661
vt 0.802505 0.721503
vt 0.803969 0.674473
vt 0.813400 0.721502
vt 0.802512 0.680312
vt 0.824294 0.721502
vt 0.818848 0.719940
vt 0.780715 0.668632
vt 0.780715 0.668632
vt 0.780715 0.668632
vt 0.807954 0.670198
vt 0.813400 0.668632
vt 0.807953 0.719940
vt 0.814864 0.674473
vt 0.818849 0.670198
vt 0.824294 0.668632
vt 0.803966 0.715668
vt 0.802505 0.709830
vt 0.834578 0.714102
vt 0.824295 0.719336
vt 0.824294 0.714102
vt 0.824295 0.674470
vt 0.834578 0.668633
vt 0.834579 0.674470
vt 0.834578 0.730614
vt 0.824295 0.725379
vt 0.834578 0.725379
vt 0.844863 0.672907
vt 0.834580 0.668633
vt 0.844863 0.668632
vt 0.844863 0.678745
vt 0.834579 0.672907
vt 0.834578 0.719336
vt 0.780715 0.721503
vt 0.790999 0.727546
vt 0.780715 0.727546
vt 0.844863 0.714101
vt 0.834580 0.708264
vt 0.844863 0.708264
vt 0.839461 0.725126
vt 0.834579 0.714102
vt 0.839461 0.714102
vt 0.824295 0.714101
vt 0.834578 0.709827
vt 0.824295 0.709827
vt 0.834578 0.703989
vt 0.790999 0.732780
vt 0.780715 0.732780
vt 0.834579 0.678745
vt 0.112669 0.934286
vt 0.724636 0.800914
vt 0.724636 0.800914
vt 0.724636 0.800914
vt 0.724636 0.800914
vt 0.724636 0.800914
vt 0.724636 0.800914
vt 0.724636 0.800914
vt 0.974172 0.474902
vt 0.883815 0.466403
vt 0.974172 0.474901
vt 0.831956 0.139257
vt 0.170445 0.288275
vt 0.671637 0.355490
vt 0.217661 0.345138
vt 0.217661 0.345139
vt 0.824295 0.668632
vt 0.824294 0.730613
vt 0.790999 0.721503
vt 0.834579 0.714101
vt 0.834579 0.725126
vt 0.824294 0.703989
vn 0.0001 -0.0006 1.0000
vn -0.0006 -0.9999 0.0109
vn 0.4995 -0.8663 0.0108
vn 0.4995 -0.8662 0.0108
vn 0.8662 0.4995 0.0112
vn 0.5005 0.8657 0.0113
vn 0.5004 0.8657 0.0113
vn 0.8657 -0.5005 0.0109
vn 0.8657 -0.5004 0.0109
vn -0.4995 0.8663 0.0114
vn 0.0006 0.9999 0.0114
vn -0.4995 0.8662 0.0114
vn -0.5005 -0.8657 0.0109
vn -0.8662 -0.4995 0.0110
vn -0.5004 -0.8657 0.0109
vn -0.8663 -0.4994 0.0110
vn -0.9999 0.0005 0.0112
vn 0.9999 -0.0006 0.0110
vn 0.9999 -0.0005 0.0110
vn 0.8663 0.4994 0.0112
vn -0.9999 0.0006 0.0112
vn -0.8657 0.5004 0.0113
vn -0.0005 -0.9882 0.1532
vn 0.0001 -0.0005 1.0000
vn -0.4945 -0.8555 0.1533
vn -0.8560 -0.4937 0.1535
vn -0.9881 0.0005 0.1538
vn -0.8555 0.4945 0.1540
vn -0.4936 0.8559 0.1541
vn 0.0006 0.9880 0.1542
vn 0.4946 0.8554 0.1541
vn 0.8560 0.4935 0.1538
vn 0.9881 -0.0007 0.1536
vn 0.8555 -0.4946 0.1534
vn 0.4936 -0.8561 0.1532
vn -0.8657 0.5005 0.0113
vn 0.6846 -0.3904 0.6156
vn 0.5851 -0.0037 0.8109
vn 0.5156 -0.3014 0.8020
vn -0.6594 0.3862 0.6450
vn -0.2835 0.4885 0.8252
vn -0.3753 0.6559 0.6550
vn -0.0004 -0.8002 0.5998
vn 0.3015 -0.5261 0.7952
vn -0.0003 -0.6097 0.7926
vn 0.0004 0.5618 0.8273
vn 0.0005 0.7526 0.6585
vn 0.4005 -0.6890 0.6041
vn 0.7761 0.0047 0.6307
vn 0.4981 0.2839 0.8193
vn 0.6599 0.3854 0.6449
vn 0.2842 0.4882 0.8252
vn -0.6849 -0.3897 0.6156
vn -0.5851 -0.0030 0.8110
vn -0.7760 0.0056 0.6307
vn 0.3762 0.6554 0.6549
vn -0.4012 -0.6886 0.6041
vn -0.5159 -0.3008 0.8021
vn -0.3020 -0.5258 0.7952
vn -0.4977 0.2844 0.8194
vn 0.0001 -0.0219 0.9998
vn -0.4995 0.8663 0.0000
vn 0.0006 1.0000 0.0000
vn 0.2583 -0.9661 0.0000
vn 0.4995 -0.8663 0.0000
vn 0.8657 -0.5005 -0.0000
vn 0.8658 -0.5004 0.0000
vn -0.8657 0.5005 0.0000
vn -0.8658 0.5004 0.0000
vn -0.0001 0.0004 -1.0000
vn -0.0000 0.0004 -1.0000
vn -0.0002 0.0004 -1.0000
vn 1.0000 -0.0006 0.0000
vn 1.0000 -0.0005 0.0000
vn -1.0000 0.0006 0.0000
vn -1.0000 0.0005 0.0000
vn 0.8663 0.4994 -0.0000
vn 0.8663 0.4996 0.0000
vn -0.2594 -0.9658 0.0000
vn -0.5005 -0.8658 0.0000
vn 0.0001 0.0004 -1.0000
vn 0.0002 0.0003 -1.0000
vn -0.5005 -0.8657 0.0000
vn -0.8663 -0.4996 0.0000
vn 0.5005 0.8657 0.0000
vn 0.5004 0.8658 0.0000
vn 0.5005 0.8658 0.0000
vn 0.0001 0.0001 -1.0000
vn 0.0001 0.0003 -1.0000
vn -0.8663 -0.4995 0.0000
vn -0.8663 -0.4994 0.0000
vn -0.0002 0.0001 -1.0000
vn -0.0001 0.0000 -1.0000
vn 0.8663 0.4995 0.0000
vn 0.0005 1.0000 0.0000
vn -0.5004 -0.8658 0.0000
vn 0.0000 0.0000 -1.0000
vn -0.0002 0.0000 -1.0000
vn -0.0003 0.0001 -1.0000
vn -0.0002 0.0003 -1.0000
vn -0.0002 0.0002 -1.0000
vn 0.0002 0.0002 -1.0000
vn 0.0001 0.0000 -1.0000
vn -0.0001 0.0001 -1.0000
vn 0.0001 -0.0001 1.0000
vn -0.0001 -0.0000 1.0000
vn -0.0004 0.0000 1.0000
vn -0.0002 0.0002 1.0000
vn -0.0001 0.0001 1.0000
vn 0.0004 0.0000 -1.0000
vn 0.0000 -0.0000 1.0000
vn -0.8658 0.5005 0.0000
vn -0.9914 0.1308 0.0000
vn 0.9915 0.1303 0.0000
vn 0.8658 -0.5005 -0.0000
vn 0.9914 -0.1308 -0.0000
vn -0.9915 -0.1303 -0.0000
vn 0.9915 0.1302 0.0000
vn -0.0005 -0.9999 0.0109
vn -0.9915 -0.1302 -0.0000
s 1
f 60/1/1 59/2/1 57/3/1
f 13/4/2 12/5/3 11/6/4
f 5/7/5 4/8/6 1/9/7
f 11/6/4 10/10/8 9/11/9
f 16/12/10 2/13/11 15/14/12
f 24/15/13 21/16/14 23/17/15
f 22/18/16 19/19/17 21/16/14
f 26/20/2 23/17/15 25/21/2
f 9/11/9 8/22/18 7/23/19
f 7/23/19 6/24/20 5/7/5
f 1/9/7 2/13/11 3/25/11
f 20/26/21 17/27/22 19/19/17
f 56/28/1 55/29/1 53/30/1
f 62/31/1 58/32/1 61/33/1
f 43/34/1 44/35/1 45/36/1
f 47/37/1 48/38/1 49/39/1
f 42/40/1 38/41/1 41/42/1
f 36/43/1 35/44/1 33/45/1
f 30/46/1 29/47/1 27/48/1
f 40/49/1 39/50/1 37/51/1
f 63/52/1 64/53/1 65/54/1
f 31/55/1 30/46/1 27/48/1
f 52/56/1 48/38/1 51/57/1
f 67/58/23 68/59/24 69/60/25
f 69/60/25 68/59/24 70/61/26
f 70/61/26 68/59/24 71/62/27
f 71/62/27 68/59/24 72/63/28
f 72/63/28 68/59/24 73/64/29
f 73/64/29 68/59/24 74/65/30
f 74/65/30 68/59/24 75/66/31
f 75/66/31 68/59/24 76/67/32
f 76/67/32 68/59/24 77/68/33
f 77/68/33 68/59/24 78/69/34
f 78/69/34 68/59/24 79/70/35
f 79/70/35 68/59/24 80/71/23
f 18/72/36 15/14/12 17/27/22
f 104/73/37 115/74/38 116/75/39
f 108/76/40 119/77/41 107/78/42
f 106/79/43 117/80/44 118/81/45
f 107/78/42 112/82/46 100/83/47
f 105/84/48 116/75/39 117/80/44
f 103/85/49 114/86/50 115/74/38
f 102/87/51 113/88/52 114/86/50
f 110/89/53 121/90/54 109/91/55
f 101/92/56 112/82/46 113/88/52
f 111/93/57 122/94/58 110/89/53
f 106/79/43 123/95/59 111/93/57
f 109/91/55 120/96/60 108/76/40
f 115/74/38 114/86/50 124/97/61
f 114/86/50 113/88/52 124/97/61
f 121/90/54 122/94/58 124/97/61
f 113/88/52 112/82/46 124/97/61
f 122/94/58 123/95/59 124/97/61
f 123/95/59 118/81/45 124/97/61
f 120/96/60 121/90/54 124/97/61
f 116/75/39 115/74/38 124/97/61
f 119/77/41 120/96/60 124/97/61
f 118/81/45 117/80/44 124/97/61
f 112/82/46 119/77/41 124/97/61
f 117/80/44 116/75/39 124/97/61
f 144/98/62 148/99/63 147/100/62
f 87/101/64 142/102/65 86/103/65
f 143/104/65 139/105/66 137/106/67
f 89/107/68 141/108/62 156/109/69
f 153/110/70 165/111/71 166/112/72
f 85/113/67 146/114/73 84/115/74
f 90/116/75 156/109/69 152/117/76
f 136/118/74 134/119/77 133/120/78
f 93/121/79 154/122/80 155/123/79
f 152/124/81 169/125/82 165/111/71
f 92/126/83 153/127/84 154/128/80
f 133/120/78 132/129/85 131/130/86
f 82/131/87 138/132/63 81/133/63
f 142/134/88 161/135/82 145/136/89
f 91/137/90 152/117/76 153/127/84
f 127/138/91 129/139/76 128/140/84
f 83/141/78 151/142/85 82/131/87
f 151/143/92 158/144/93 138/145/93
f 84/115/74 149/146/94 83/141/78
f 131/147/86 148/99/63 150/148/95
f 86/103/65 145/149/66 85/150/67
f 145/136/89 162/151/71 146/152/70
f 88/153/62 138/132/63 141/108/62
f 125/154/83 128/140/84 126/155/96
f 141/156/88 158/144/93 159/157/88
f 157/158/97 160/159/88 142/134/88
f 98/160/79 126/161/96 99/162/79
f 155/163/98 167/164/99 168/165/98
f 130/166/75 96/167/69 129/139/76
f 137/106/67 135/168/73 136/118/74
f 149/169/100 164/170/101 151/143/92
f 97/171/68 147/100/62 96/167/69
f 156/172/102 159/157/88 169/125/82
f 95/173/64 140/174/65 143/104/65
f 154/175/101 166/112/72 167/164/99
f 146/152/70 163/176/72 149/169/100
f 184/177/103 179/178/97 196/179/104
f 174/180/105 186/181/106 185/182/107
f 198/183/97 178/184/97 199/185/108
f 199/186/108 178/187/97 200/188/109
f 182/189/97 181/190/104 200/191/109
f 193/192/97 200/191/109 180/193/104
f 194/194/103 180/193/104 195/195/110
f 196/179/104 183/196/110 184/177/103
f 178/184/97 198/183/97 197/197/104
f 178/184/97 197/197/104 196/179/104
f 200/191/109 178/198/97 182/189/97
f 200/191/109 181/190/104 180/193/104
f 179/178/97 178/184/97 196/179/104
f 180/193/104 194/194/103 193/192/97
f 190/199/105 171/200/111 189/201/105
f 188/202/111 187/203/111 174/180/105
f 188/204/111 171/205/111 192/206/111
f 171/200/111 191/207/111 192/208/111
f 171/200/111 175/209/111 189/201/105
f 190/199/105 191/207/111 171/200/111
f 173/210/105 188/202/111 174/180/105
f 172/211/111 188/202/111 173/210/105
f 172/211/111 171/212/111 188/202/111
f 176/213/106 189/201/105 175/209/111
f 176/213/106 177/214/107 189/201/105
f 187/203/111 186/181/106 174/180/105
f 206/215/68 209/216/62 214/217/112
f 207/218/113 214/219/112 213/220/113
f 202/221/85 208/222/63 201/223/63
f 203/224/94 212/225/85 202/226/85
f 204/227/114 211/228/94 203/224/94
f 205/229/62 208/222/63 209/216/62
f 218/230/64 223/231/65 217/232/65
f 216/233/115 225/234/116 215/235/116
f 222/236/79 228/237/80 229/238/79
f 221/239/83 227/240/90 228/237/80
f 220/241/90 226/242/117 227/240/90
f 217/232/65 224/243/66 216/244/115
f 204/227/114 225/234/116 210/245/118
f 226/242/117 207/218/113 213/220/113
f 60/1/1 58/32/1 59/2/1
f 13/4/2 14/246/119 12/5/3
f 5/7/5 6/24/20 4/8/6
f 11/6/4 12/5/3 10/10/8
f 16/12/10 3/25/11 2/13/11
f 24/15/13 22/18/16 21/16/14
f 22/18/16 20/26/21 19/19/17
f 26/20/2 24/15/13 23/17/15
f 9/11/9 10/10/8 8/22/18
f 7/23/19 8/22/18 6/24/20
f 1/9/7 4/8/6 2/13/11
f 20/26/21 18/72/36 17/27/22
f 56/28/1 54/247/1 55/29/1
f 62/31/1 59/2/1 58/32/1
f 43/34/1 46/248/24 44/35/1
f 47/37/1 50/249/1 48/38/1
f 42/40/1 39/50/1 38/41/1
f 36/43/1 34/250/1 35/44/1
f 30/46/1 28/251/1 29/47/1
f 40/49/1 38/41/1 39/50/1
f 63/52/1 66/252/1 64/53/1
f 31/55/1 32/253/1 30/46/1
f 52/56/1 49/39/1 48/38/1
f 18/72/36 16/12/10 15/14/12
f 104/73/37 103/85/49 115/74/38
f 108/76/40 120/96/60 119/77/41
f 106/79/43 105/84/48 117/80/44
f 107/78/42 119/77/41 112/82/46
f 105/84/48 104/73/37 116/75/39
f 103/85/49 102/87/51 114/86/50
f 102/87/51 101/92/56 113/88/52
f 110/89/53 122/94/58 121/90/54
f 101/92/56 100/83/47 112/82/46
f 111/93/57 123/95/59 122/94/58
f 106/79/43 118/81/45 123/95/59
f 109/91/55 121/90/54 120/96/60
f 144/98/62 150/148/95 148/99/63
f 87/101/64 157/254/64 142/102/65
f 143/104/65 140/174/65 139/105/66
f 89/107/68 88/153/62 141/108/62
f 153/110/70 152/124/81 165/111/71
f 85/113/67 145/255/66 146/114/73
f 90/116/75 89/107/68 156/109/69
f 136/118/74 135/168/73 134/119/77
f 93/121/79 92/256/83 154/122/80
f 152/124/81 156/172/102 169/125/82
f 92/126/83 91/137/90 153/127/84
f 133/120/78 134/119/77 132/129/85
f 82/131/87 151/257/85 138/132/63
f 142/134/88 160/159/88 161/135/82
f 91/137/90 90/116/75 152/117/76
f 127/138/91 130/166/75 129/139/76
f 83/141/78 149/146/94 151/142/85
f 151/143/92 164/170/101 158/144/93
f 84/115/74 146/114/73 149/146/94
f 131/147/86 132/258/85 148/99/63
f 86/103/65 142/102/65 145/149/66
f 145/136/89 161/135/82 162/151/71
f 88/153/62 81/133/63 138/132/63
f 125/154/83 127/138/91 128/140/84
f 141/156/88 138/145/93 158/144/93
f 157/158/97 170/259/97 160/159/88
f 98/160/79 125/260/83 126/161/96
f 155/163/98 154/175/101 167/164/99
f 130/166/75 97/171/68 96/167/69
f 137/106/67 139/105/66 135/168/73
f 149/169/100 163/176/72 164/170/101
f 97/171/68 144/98/62 147/100/62
f 156/172/102 141/156/88 159/157/88
f 95/173/64 94/261/64 140/174/65
f 154/175/101 153/110/70 166/112/72
f 146/152/70 162/151/71 163/176/72
f 206/215/68 205/229/62 209/216/62
f 207/218/113 206/262/68 214/219/112
f 202/221/85 212/263/85 208/222/63
f 203/224/94 211/228/94 212/225/85
f 204/227/114 210/245/118 211/228/94
f 205/229/62 201/223/63 208/222/63
f 218/230/64 230/264/64 223/231/65
f 216/233/115 224/265/66 225/234/116
f 222/236/79 221/266/83 228/237/80
f 221/239/83 220/241/90 227/240/90
f 220/241/90 219/267/120 226/242/117
f 217/232/65 223/231/65 224/243/66
f 204/227/114 215/235/116 225/234/116
f 226/242/117 219/267/120 207/218/113
