# Blender v2.82 (sub 7) OBJ File: 'IEC BETTER SLOPE BOIS.blend'
# www.blender.org
mtllib IEC Small Armor Plate.mtl
o IEC_Small_Armor_Plate.004_Cube.006
v 0.375000 -0.300000 -0.375000
v -0.375000 -0.300000 -0.375000
v -0.375000 -0.300000 0.375000
v 0.375000 -0.300000 0.375000
v 0.325000 -0.300000 -0.325000
v -0.325000 -0.300000 -0.325000
v -0.325000 -0.300000 0.325000
v 0.325000 -0.300000 0.325000
v 0.275000 -0.290000 -0.275000
v -0.275000 -0.290000 -0.275000
v -0.275000 -0.290000 0.275000
v 0.275000 -0.290000 0.275000
v -0.364630 -0.320000 -0.364630
v 0.364630 -0.320000 -0.364630
v 0.364630 -0.320000 0.364630
v -0.364630 -0.320000 0.364630
v -0.335370 -0.320000 -0.335370
v 0.335370 -0.320000 -0.335370
v 0.335370 -0.320000 0.335370
v -0.335370 -0.320000 0.335370
v -0.500000 -0.500000 -0.166667
v -0.500000 -0.500000 0.166667
v 0.500000 -0.500000 0.166667
v 0.500000 -0.500000 -0.166667
v 0.375000 -0.300000 -0.125000
v 0.375000 -0.300000 0.125000
v -0.375000 -0.300000 0.125000
v -0.375000 -0.300000 -0.125000
v 0.325000 -0.300000 -0.108333
v 0.325000 -0.300000 0.108333
v -0.325000 -0.300000 0.108333
v -0.325000 -0.300000 -0.108333
v 0.275000 -0.290000 -0.091667
v 0.275000 -0.290000 0.091667
v -0.275000 -0.290000 0.091667
v -0.275000 -0.290000 -0.091667
v 0.364630 -0.320000 -0.125000
v 0.364630 -0.320000 0.125000
v -0.364630 -0.320000 0.125000
v -0.364630 -0.320000 -0.125000
v 0.335370 -0.320000 -0.108333
v 0.335370 -0.320000 0.108333
v -0.335370 -0.320000 0.108333
v -0.335370 -0.320000 -0.108333
v 0.250000 -0.290000 0.116667
v -0.250000 -0.290000 0.116667
v -0.250000 -0.290000 0.250000
v 0.250000 -0.290000 0.250000
v 0.250000 -0.290000 -0.250000
v -0.250000 -0.290000 -0.250000
v -0.250000 -0.290000 -0.116667
v 0.250000 -0.290000 -0.116667
v 0.250000 -0.290000 -0.066667
v -0.250000 -0.290000 -0.066667
v -0.250000 -0.290000 0.066667
v 0.250000 -0.290000 0.066667
v -0.250000 -0.299242 0.116667
v 0.250000 -0.299242 0.116667
v 0.250000 -0.299242 0.250000
v -0.250000 -0.299242 0.250000
v -0.250000 -0.299242 -0.250000
v 0.250000 -0.299242 -0.250000
v 0.250000 -0.299242 -0.116667
v -0.250000 -0.299242 -0.116667
v -0.250000 -0.299242 -0.066667
v 0.250000 -0.299242 -0.066667
v 0.250000 -0.299242 0.066667
v -0.250000 -0.299242 0.066667
v -0.325000 -0.500000 0.500000
v -0.500000 -0.500000 0.325000
v -0.412500 -0.500000 0.476554
v -0.476554 -0.500000 0.412500
v -0.376256 -0.300000 0.376256
v -0.500000 -0.500000 -0.325000
v -0.325000 -0.500000 -0.500000
v -0.476554 -0.500000 -0.412500
v -0.412500 -0.500000 -0.476554
v -0.376256 -0.300000 -0.376256
v 0.500000 -0.500000 0.325000
v 0.325000 -0.500000 0.500000
v 0.476554 -0.500000 0.412500
v 0.412500 -0.500000 0.476554
v 0.376256 -0.300000 0.376256
v 0.325000 -0.500000 -0.500000
v 0.500000 -0.500000 -0.325000
v 0.412500 -0.500000 -0.476554
v 0.476554 -0.500000 -0.412500
v 0.376256 -0.300000 -0.376256
v -0.500000 -0.344463 0.166667
v -0.445180 -0.300000 0.148393
v -0.445180 -0.300000 -0.148393
v -0.500000 -0.344463 -0.166667
v 0.500000 -0.344463 -0.166667
v 0.445180 -0.300000 -0.148393
v 0.445180 -0.300000 0.148393
v 0.500000 -0.344463 0.166667
v -0.444823 -0.300000 0.347855
v -0.500000 -0.344463 0.325000
v -0.325000 -0.344463 0.500000
v -0.348130 -0.300000 0.444158
v -0.476554 -0.344463 0.412500
v -0.431341 -0.300000 0.396162
v -0.412500 -0.344463 0.476554
v -0.396090 -0.300000 0.431143
v -0.348130 -0.300000 -0.444158
v -0.325000 -0.344463 -0.500000
v -0.500000 -0.344463 -0.325000
v -0.444823 -0.300000 -0.347855
v -0.412500 -0.344463 -0.476554
v -0.396090 -0.300000 -0.431143
v -0.476554 -0.344463 -0.412500
v -0.431341 -0.300000 -0.396162
v 0.348130 -0.300000 0.444158
v 0.325000 -0.344463 0.500000
v 0.500000 -0.344463 0.325000
v 0.444823 -0.300000 0.347855
v 0.412500 -0.344463 0.476554
v 0.396090 -0.300000 0.431143
v 0.476554 -0.344463 0.412500
v 0.431341 -0.300000 0.396162
v 0.444823 -0.300000 -0.347855
v 0.500000 -0.344463 -0.325000
v 0.325000 -0.344463 -0.500000
v 0.348130 -0.300000 -0.444158
v 0.476554 -0.344463 -0.412500
v 0.431341 -0.300000 -0.396162
v 0.412500 -0.344463 -0.476554
v 0.396090 -0.300000 -0.431143
v -0.375000 -0.320000 -0.375000
v 0.375000 -0.320000 -0.375000
v 0.375000 -0.320000 0.125000
v 0.375000 -0.320000 0.375000
v -0.375000 -0.320000 -0.125000
v -0.375000 -0.320000 0.375000
v -0.325000 -0.320000 -0.325000
v 0.325000 -0.320000 -0.325000
v 0.325000 -0.320000 0.108333
v 0.325000 -0.320000 0.325000
v -0.325000 -0.320000 -0.108333
v -0.325000 -0.320000 0.325000
v 0.375000 -0.320000 -0.125000
v -0.375000 -0.320000 0.125000
v 0.325000 -0.320000 -0.108333
v -0.325000 -0.320000 0.108333
v 0.132020 -0.498803 -0.132023
v 0.132020 -0.498803 0.132023
v -0.000002 -0.598805 -0.000000
v -0.132027 -0.498804 -0.132023
v -0.000002 -0.598805 -0.000000
v -0.132027 -0.498804 0.132023
v -0.000002 -0.598805 -0.000000
v 0.132020 -0.498803 0.132023
v -0.132027 -0.498804 0.132023
v -0.132027 -0.498804 -0.132023
v 0.132020 -0.498803 -0.132023
v -0.000002 -0.598805 -0.000000
v 0.132020 -0.498803 -0.132023
v 0.132020 -0.498803 0.132023
v -0.000002 -0.598805 -0.000000
v -0.132027 -0.498804 -0.132023
v -0.000002 -0.598805 -0.000000
v -0.132027 -0.498804 0.132023
v -0.000002 -0.598805 -0.000000
v 0.132020 -0.498803 0.132023
v -0.132027 -0.498804 0.132023
v -0.132027 -0.498804 -0.132023
v 0.132020 -0.498803 -0.132023
v -0.000002 -0.598805 -0.000000
vt 0.207263 0.596051
vt 0.315581 0.596051
vt 0.315581 0.614111
vt 0.207263 0.614111
vt 0.093200 0.768096
vt 0.170134 0.668766
vt 0.172569 0.679638
vt 0.113161 0.748135
vt 0.187302 0.748135
vt 0.203936 0.742373
vt 0.206372 0.758115
vt 0.207263 0.768096
vt 0.207263 0.786156
vt 0.093200 0.786156
vt 0.207263 0.824177
vt 0.315581 0.824177
vt 0.315581 0.842236
vt 0.207263 0.842236
vt 0.093200 0.824177
vt 0.206372 0.852217
vt 0.203936 0.867960
vt 0.187302 0.862197
vt 0.113161 0.862197
vt 0.103181 0.859523
vt 0.095875 0.852217
vt 0.093200 0.842236
vt 0.207263 0.966280
vt 0.315581 0.966280
vt 0.315581 0.976260
vt 0.207263 0.976260
vt 0.349842 0.833682
vt 0.349842 0.818473
vt 0.349842 0.818473
vt 0.349842 0.833682
vt 0.429095 0.844843
vt 0.429026 0.850353
vt 0.421274 0.848083
vt 0.335440 0.762249
vt 0.338649 0.754504
vt 0.418066 0.754504
vt 0.421274 0.762249
vt 0.421131 0.762393
vt 0.335584 0.762393
vt 0.429095 0.765489
vt 0.429136 0.788240
vt 0.421131 0.790908
vt 0.727720 0.893303
vt 0.650088 0.893303
vt 0.650088 0.893303
vt 0.727720 0.893303
vt 0.727720 0.919181
vt 0.727720 0.919181
vt 0.335584 0.790908
vt 0.335584 0.762393
vt 0.335584 0.790908
vt 0.421131 0.847940
vt 0.335584 0.847940
vt 0.335584 0.847940
vt 0.421131 0.847940
vt 0.721748 0.899275
vt 0.656060 0.899275
vt 0.727720 0.945058
vt 0.727720 0.970935
vt 0.721748 0.964963
vt 0.721748 0.943067
vt 0.650088 0.970935
vt 0.656060 0.964963
vt 0.650088 0.919181
vt 0.656060 0.921171
vt 0.428564 0.324122
vt 0.511745 0.324122
vt 0.508407 0.327460
vt 0.431901 0.327460
vt 0.511745 0.379971
vt 0.511745 0.407304
vt 0.508407 0.403966
vt 0.508407 0.378070
vt 0.428564 0.407304
vt 0.431901 0.403966
vt 0.428564 0.351455
vt 0.431901 0.353356
vt 0.421131 0.819424
vt 0.421131 0.819424
vt 0.727720 0.970935
vt 0.650088 0.970935
vt 0.421131 0.762393
vt 0.650088 0.945058
vt 0.650088 0.945058
vt 0.650088 0.919181
vt 0.421131 0.790908
vt 0.428564 0.379971
vt 0.431901 0.378070
vt 0.511745 0.351455
vt 0.508407 0.353356
vt 0.656060 0.943067
vt 0.721748 0.921171
vt 0.335584 0.819424
vt 0.335584 0.819424
vt 0.727720 0.945058
vt 0.327579 0.788240
vt 0.327620 0.765489
vt 0.315581 0.768096
vt 0.315581 0.786156
vt 0.313711 0.626342
vt 0.207263 0.539970
vt 0.315581 0.539970
vt 0.315581 0.558030
vt 0.207263 0.558030
vt 0.406873 0.797562
vt 0.406873 0.812770
vt 0.406873 0.812770
vt 0.406873 0.797562
vt 0.406873 0.791859
vt 0.349842 0.791859
vt 0.349842 0.791859
vt 0.406873 0.791859
vt 0.335440 0.848083
vt 0.327619 0.844843
vt 0.327579 0.822092
vt 0.418066 0.855828
vt 0.338649 0.855828
vt 0.429136 0.822092
vt 0.718762 0.946053
vt 0.659046 0.946053
vt 0.718762 0.961978
vt 0.659046 0.961978
vt 0.718763 0.902261
vt 0.659046 0.902261
vt 0.718762 0.918185
vt 0.659046 0.918185
vt 0.718762 0.924157
vt 0.659046 0.924157
vt 0.718762 0.940081
vt 0.659046 0.940081
vt 0.406873 0.818473
vt 0.406873 0.833682
vt 0.349842 0.776650
vt 0.406873 0.776650
vt 0.349842 0.797562
vt 0.349842 0.812770
vt 0.349842 0.776650
vt 0.406873 0.776650
vt 0.349842 0.812770
vt 0.406873 0.818473
vt 0.406873 0.833682
vt 0.349842 0.797562
vt 0.207263 0.529990
vt 0.315581 0.529990
vt 0.423536 0.754525
vt 0.045080 0.899090
vt 0.153398 0.899090
vt 0.153398 0.973230
vt 0.045080 0.973230
vt 0.315581 0.654033
vt 0.207263 0.654033
vt 0.313834 0.645845
vt 0.333178 0.855807
vt 0.315581 0.882158
vt 0.207263 0.882158
vt 0.315414 0.871966
vt 0.327689 0.759979
vt 0.315536 0.852217
vt 0.315536 0.758115
vt 0.315414 0.738367
vt 0.425536 0.852344
vt 0.423543 0.850351
vt 0.207263 0.956299
vt 0.315581 0.956299
vt 0.315581 0.728174
vt 0.207263 0.728174
vt 0.425551 0.757972
vt 0.423565 0.759959
vt 0.331179 0.757988
vt 0.333172 0.759981
vt 0.331164 0.852360
vt 0.333150 0.850374
vt 0.435389 0.786156
vt 0.435389 0.824177
vt 0.321326 0.530439
vt 0.321326 0.535965
vt 0.321326 0.968539
vt 0.321326 0.974011
vt 0.321326 0.960353
vt 0.321326 0.965828
vt 0.321326 0.644504
vt 0.321326 0.649979
vt 0.321326 0.628591
vt 0.321326 0.639534
vt 0.321326 0.618117
vt 0.321326 0.623642
vt 0.321326 0.872629
vt 0.321326 0.878105
vt 0.321326 0.856716
vt 0.321326 0.867659
vt 0.321326 0.846242
vt 0.321326 0.851768
vt 0.321326 0.742673
vt 0.321326 0.753616
vt 0.321326 0.732228
vt 0.321326 0.737703
vt 0.435389 0.842236
vt 0.415428 0.862197
vt 0.341287 0.862197
vt 0.341287 0.748135
vt 0.415428 0.748135
vt 0.435389 0.768096
vt 0.900417 0.792872
vt 0.817235 0.792872
vt 0.816052 0.791689
vt 0.901600 0.791689
vt 0.817235 0.848721
vt 0.817235 0.876054
vt 0.816052 0.877236
vt 0.816052 0.848721
vt 0.900417 0.820205
vt 0.901600 0.820205
vt 0.900417 0.876054
vt 0.901600 0.877236
vt 0.820573 0.796210
vt 0.897079 0.796210
vt 0.895896 0.797393
vt 0.821756 0.797393
vt 0.820573 0.872716
vt 0.820573 0.846820
vt 0.821756 0.846820
vt 0.821756 0.871533
vt 0.897079 0.822106
vt 0.895896 0.822106
vt 0.897079 0.872716
vt 0.895896 0.871533
vt 0.817235 0.820205
vt 0.816052 0.820205
vt 0.900417 0.848721
vt 0.901599 0.848721
vt 0.820573 0.822106
vt 0.821756 0.822106
vt 0.897079 0.846820
vt 0.895896 0.846820
vt 0.061304 0.001048
vt 0.001002 0.001048
vt 0.031152 0.031204
vt 0.061304 0.061352
vt 0.031152 0.031204
vt 0.001002 0.061352
vt 0.031152 0.031204
vt 0.001002 0.001048
vt 0.001002 0.061352
vt 0.061304 0.061352
vt 0.061304 0.001048
vt 0.031152 0.031204
vt 0.061304 0.001048
vt 0.001002 0.001048
vt 0.031152 0.031204
vt 0.061304 0.061352
vt 0.031152 0.031204
vt 0.001002 0.061352
vt 0.031152 0.031204
vt 0.001002 0.001048
vt 0.001002 0.061352
vt 0.061304 0.061352
vt 0.061304 0.001048
vt 0.031152 0.031204
vn -1.0000 0.0000 0.0000
vn 0.0000 -1.0000 -0.0000
vn 1.0000 0.0000 0.0000
vn -0.7071 0.0000 0.7071
vn 0.0000 1.0000 0.0000
vn 0.0000 0.0000 -1.0000
vn 0.0000 0.9806 -0.1961
vn -0.1961 0.9806 0.0000
vn 0.0000 0.9806 0.1961
vn 0.1961 0.9806 0.0000
vn 0.0000 0.0000 1.0000
vn -0.9659 0.0000 -0.2588
vn -0.9659 0.0000 0.2588
vn -0.2588 0.0000 -0.9659
vn -0.7071 0.0000 -0.7071
vn 0.2588 0.0000 0.9659
vn 0.7071 0.0000 0.7071
vn 0.9659 0.0000 -0.2588
vn 0.7071 0.0000 -0.7071
vn -0.2588 0.0000 0.9659
vn 0.2588 0.0000 -0.9659
vn 0.9659 0.0000 0.2588
vn -0.6299 0.7767 0.0000
vn 0.6299 0.7767 0.0000
vn -0.6588 0.7306 0.1791
vn -0.5041 0.7003 0.5055
vn -0.1766 0.7337 0.6561
vn -0.1766 0.7337 -0.6561
vn -0.5041 0.7003 -0.5055
vn -0.6588 0.7306 -0.1791
vn 0.1766 0.7337 0.6561
vn 0.5041 0.7003 0.5055
vn 0.6588 0.7306 0.1791
vn 0.6588 0.7306 -0.1791
vn 0.5041 0.7003 -0.5055
vn 0.1766 0.7337 -0.6561
vn -0.6287 0.7776 0.0006
vn 0.0000 0.7823 0.6229
vn 0.0000 0.7823 -0.6229
vn -0.6287 0.7776 -0.0006
vn 0.6287 0.7776 0.0006
vn 0.6287 0.7776 -0.0006
vn 0.6038 -0.7971 0.0000
vn -0.6038 -0.7971 0.0000
vn 0.0000 -0.7971 0.6038
vn 0.0000 -0.7971 -0.6038
usemtl Material.017
s off
f 21/1/1 92/2/1 107/3/1 74/4/1
f 74/5/2 76/6/2 77/7/2 75/8/2 84/9/2 86/10/2 87/11/2 85/12/2 24/13/2 21/14/2
f 23/15/3 96/16/3 115/17/3 79/18/3
f 22/19/2 23/15/2 79/18/2 81/20/2 82/21/2 80/22/2 69/23/2 71/24/2 72/25/2 70/26/2
f 71/27/4 103/28/4 101/29/4 72/30/4
f 48/31/1 45/32/1 58/33/1 59/34/1
f 97/35/5 102/36/5 73/37/5
f 88/38/5 124/39/5 105/40/5 78/41/5 2/42/5 1/43/5
f 78/41/5 108/44/5 91/45/5 28/46/5 2/42/5
f 6/47/6 5/48/6 136/49/6 135/50/6
f 32/51/1 6/47/1 135/50/1 139/52/1
f 25/53/1 1/43/1 130/54/1 141/55/1
f 3/56/6 4/57/6 132/58/6 134/59/6
f 5/48/7 6/47/7 10/60/7 9/61/7
f 31/62/8 7/63/8 11/64/8 35/65/8
f 7/63/9 8/66/9 12/67/9 11/64/9
f 29/68/10 5/48/10 9/61/10 33/69/10
f 14/70/5 13/71/5 17/72/5 18/73/5
f 39/74/5 16/75/5 20/76/5 43/77/5
f 16/75/5 15/78/5 19/79/5 20/76/5
f 37/80/5 14/70/5 18/73/5 41/81/5
f 27/82/3 3/56/3 134/59/3 142/83/3
f 8/66/11 7/63/11 140/84/11 138/85/11
f 1/43/11 2/42/11 129/86/11 130/54/11
f 30/87/3 8/66/3 138/85/3 137/88/3
f 5/48/3 29/68/3 143/89/3 136/49/3
f 29/68/3 30/87/3 137/88/3 143/89/3
f 2/42/3 28/46/3 133/90/3 129/86/3
f 28/46/3 27/82/3 142/83/3 133/90/3
f 15/78/5 38/91/5 42/92/5 19/79/5
f 38/91/5 37/80/5 41/81/5 42/92/5
f 13/71/5 40/93/5 44/94/5 17/72/5
f 40/93/5 39/74/5 43/77/5 44/94/5
f 8/66/10 30/87/10 34/95/10 12/67/10
f 30/87/10 29/68/10 33/69/10 34/95/10
f 6/47/8 32/51/8 36/96/8 10/60/8
f 32/51/8 31/62/8 35/65/8 36/96/8
f 4/57/1 26/97/1 131/98/1 132/58/1
f 26/97/1 25/53/1 141/55/1 131/98/1
f 7/63/1 31/62/1 144/99/1 140/84/1
f 31/62/1 32/51/1 139/52/1 144/99/1
f 94/100/5 121/101/5 88/38/5 1/43/5 25/53/5
f 85/12/3 122/102/3 93/103/3 24/13/3
f 111/104/12 76/6/12 74/4/12 107/3/12
f 70/105/1 98/106/1 89/107/1 22/108/1
f 54/109/3 55/110/3 68/111/3 65/112/3
f 51/113/6 52/114/6 63/115/6 64/116/6
f 24/13/3 93/103/3 96/16/3 23/15/3
f 21/14/2 24/13/2 23/15/2 22/19/2
f 83/117/5 116/118/5 95/119/5 26/97/5 4/57/5
f 95/119/5 94/100/5 25/53/5 26/97/5
f 73/37/5 100/120/5 113/121/5 83/117/5 4/57/5 3/56/5
f 91/45/5 90/122/5 27/82/5 28/46/5
f 34/95/5 35/65/5 46/123/5 45/124/5
f 35/65/5 11/64/5 47/125/5 46/123/5
f 11/64/5 12/67/5 48/126/5 47/125/5
f 12/67/5 34/95/5 45/124/5 48/126/5
f 9/61/5 10/60/5 50/127/5 49/128/5
f 10/60/5 36/96/5 51/129/5 50/127/5
f 36/96/5 33/69/5 52/130/5 51/129/5
f 33/69/5 9/61/5 49/128/5 52/130/5
f 33/69/5 36/96/5 54/131/5 53/132/5
f 36/96/5 35/65/5 55/133/5 54/131/5
f 35/65/5 34/95/5 56/134/5 55/133/5
f 34/95/5 33/69/5 53/132/5 56/134/5
f 58/33/5 57/135/5 60/136/5 59/34/5
f 62/137/5 61/138/5 64/116/5 63/115/5
f 66/139/5 65/112/5 68/111/5 67/140/5
f 49/141/11 50/142/11 61/138/11 62/137/11
f 55/110/6 56/143/6 67/140/6 68/111/6
f 46/144/3 47/145/3 60/136/3 57/135/3
f 52/114/1 49/141/1 62/137/1 63/115/1
f 53/146/11 54/109/11 65/112/11 66/139/11
f 47/145/6 48/31/6 59/34/6 60/136/6
f 50/142/3 51/113/3 64/116/3 61/138/3
f 56/143/1 53/146/1 66/139/1 67/140/1
f 45/32/11 46/144/11 57/135/11 58/33/11
f 72/147/13 101/148/13 98/106/13 70/105/13
f 105/40/5 110/149/5 78/41/5
f 80/150/11 114/151/11 99/152/11 69/153/11
f 106/154/14 75/155/14 77/7/14 109/156/14
f 113/121/5 118/157/5 83/117/5
f 109/156/15 77/7/15 76/6/15 111/104/15
f 114/158/16 80/159/16 82/21/16 117/160/16
f 121/101/5 126/161/5 88/38/5
f 117/160/17 82/21/17 81/20/17 119/162/17
f 122/102/18 85/12/18 87/11/18 125/163/18
f 125/163/19 87/11/19 86/10/19 127/164/19
f 104/165/5 100/166/5 73/37/5
f 102/36/5 104/165/5 73/37/5
f 69/167/20 99/168/20 103/28/20 71/27/20
f 75/155/6 106/154/6 123/169/6 84/170/6
f 110/149/5 112/171/5 78/41/5
f 112/171/5 108/172/5 78/41/5
f 127/164/21 86/10/21 84/170/21 123/169/21
f 126/161/5 128/173/5 88/38/5
f 128/173/5 124/174/5 88/38/5
f 119/162/22 81/20/22 79/18/22 115/17/22
f 118/157/5 120/175/5 83/117/5
f 120/175/5 116/176/5 83/117/5
f 90/122/5 97/35/5 73/37/5 3/56/5 27/82/5
f 90/122/23 91/45/23 92/177/23 89/178/23
f 94/100/24 95/119/24 96/16/24 93/103/24
f 98/106/25 101/148/25 102/179/25 97/180/25
f 101/29/26 103/28/26 104/181/26 102/182/26
f 103/28/27 99/168/27 100/183/27 104/184/27
f 106/154/28 109/156/28 110/185/28 105/186/28
f 109/156/29 111/104/29 112/187/29 110/188/29
f 111/104/30 107/3/30 108/189/30 112/190/30
f 114/158/31 117/160/31 118/191/31 113/192/31
f 117/160/32 119/162/32 120/193/32 118/194/32
f 119/162/33 115/17/33 116/195/33 120/196/33
f 122/102/34 125/163/34 126/161/34 121/101/34
f 125/163/35 127/164/35 128/197/35 126/198/35
f 127/164/36 123/169/36 124/199/36 128/200/36
f 97/35/37 90/122/37 89/178/37 98/201/37
f 113/121/38 100/120/38 99/202/38 114/203/38
f 105/40/39 124/39/39 123/204/39 106/205/39
f 91/45/40 108/44/40 107/206/40 92/177/40
f 95/119/41 116/118/41 115/17/41 96/16/41
f 121/101/42 94/100/42 93/103/42 122/102/42
f 22/108/1 89/107/1 92/2/1 21/1/1
f 13/207/5 14/208/5 130/209/5 129/210/5
f 38/211/5 15/212/5 132/213/5 131/214/5
f 40/215/5 13/207/5 129/210/5 133/216/5
f 15/212/5 16/217/5 134/218/5 132/213/5
f 18/219/5 17/220/5 135/221/5 136/222/5
f 19/223/5 42/224/5 137/225/5 138/226/5
f 17/220/5 44/227/5 139/228/5 135/221/5
f 20/229/5 19/223/5 138/226/5 140/230/5
f 14/208/5 37/231/5 141/232/5 130/209/5
f 37/231/5 38/211/5 131/214/5 141/232/5
f 16/217/5 39/233/5 142/234/5 134/218/5
f 39/233/5 40/215/5 133/216/5 142/234/5
f 41/235/5 18/219/5 136/222/5 143/236/5
f 42/224/5 41/235/5 143/236/5 137/225/5
f 43/237/5 20/229/5 140/230/5 144/238/5
f 44/227/5 43/237/5 144/238/5 139/228/5
s 1
f 145/239/43 146/240/43 147/241/43
f 148/242/44 149/243/44 150/244/44
f 151/245/45 152/246/45 153/247/45
f 154/248/46 155/249/46 156/250/46
f 157/251/43 158/252/43 159/253/43
f 160/254/44 161/255/44 162/256/44
f 163/257/45 164/258/45 165/259/45
f 166/260/46 167/261/46 168/262/46
