# Blender v2.90.1 OBJ File: ''
# www.blender.org
mtllib Left_Wing_Flap.mtl
o Left_Flap_VEN_Wing_Middle_312.001
v -0.562591 -0.014915 0.333547
v -1.182116 -0.015876 0.339177
v -1.166632 -0.028015 0.269893
v -0.547403 -0.027788 0.266175
v 0.974326 0.002562 0.272854
v 1.374472 0.001770 0.265243
v 1.416205 0.020799 0.081940
v 1.020676 0.025315 0.068511
v 0.958573 -0.015876 0.342151
v 0.363704 0.003938 0.261664
v 0.348501 -0.014915 0.329105
v 0.974313 -0.028015 0.272925
v 1.020638 -0.033034 0.068724
v 1.416188 -0.030574 0.082129
v 1.374467 -0.027814 0.265322
v -1.109105 0.030916 0.015108
v -1.120804 0.025315 0.065358
v -0.500910 0.027529 0.059689
v -0.489879 0.034052 0.011018
v 1.031744 -0.033084 0.017775
v 1.428151 -0.030888 0.026095
v -0.090197 0.004311 0.259173
v -0.105366 -0.014673 0.326462
v 1.358049 -0.016291 0.336442
v 1.430291 -0.006964 0.016052
v 1.430292 0.004149 0.016036
v 1.428083 0.025730 0.026355
v 1.031669 0.030916 0.018101
v 0.421207 0.034052 0.006575
v 0.410289 0.027529 0.055271
v -0.489802 -0.034091 0.010678
v -0.500961 -0.033905 0.059906
v -1.120861 -0.033034 0.065568
v -1.109032 -0.033084 0.014781
v -0.090212 -0.027731 0.259242
v -0.487593 -0.008874 0.000934
v -1.106748 -0.008187 0.004977
v -1.106743 0.008239 0.004958
v -0.487588 0.010967 0.000912
v -0.032777 0.034849 0.004465
v -0.043738 0.028001 0.053088
v 0.421283 -0.034091 0.006235
v 0.410241 -0.033905 0.055489
v -0.043787 -0.034098 0.053306
v -0.032700 -0.034400 0.004126
v 0.363689 -0.027788 0.261733
v 1.033887 -0.008187 0.007939
v 1.033891 0.008239 0.007920
v -0.547387 0.003938 0.266106
v -1.166613 0.002562 0.269823
v -1.567220 0.001770 0.253634
v -1.582934 -0.016291 0.324992
v -1.567249 -0.027814 0.253708
v -1.526334 -0.030574 0.070333
v -1.526268 0.020799 0.070155
v -0.030504 -0.009162 -0.005616
v -0.030499 0.011727 -0.005639
v 0.423474 0.010967 -0.003537
v 0.423469 -0.008874 -0.003515
v -1.510722 -0.006964 0.004596
v -1.510716 0.004149 0.004581
v -1.513148 0.025730 0.014849
v -1.513097 -0.030888 0.014586
vt 0.279427 0.241535
vt 0.367238 0.242005
vt 0.367257 0.274398
vt 0.279427 0.273046
vt 0.061401 0.274431
vt 0.004328 0.278981
vt 0.004269 0.364758
vt 0.061360 0.370035
vt 0.061420 0.242005
vt 0.149229 0.273078
vt 0.149229 0.241535
vt 0.061400 0.274398
vt 0.061359 0.369937
vt 0.004266 0.364672
vt 0.004327 0.278946
vt 0.367244 0.393576
vt 0.367297 0.370035
vt 0.279435 0.369619
vt 0.279427 0.392390
vt 0.061413 0.393729
vt 0.004362 0.390813
vt 0.214329 0.272821
vt 0.214329 0.241348
vt 0.004381 0.245643
vt 0.004379 0.395498
vt 0.004380 0.395506
vt 0.004363 0.390691
vt 0.061413 0.393576
vt 0.149230 0.392390
vt 0.149222 0.369619
vt 0.279426 0.392548
vt 0.279436 0.369517
vt 0.367298 0.369937
vt 0.367244 0.393729
vt 0.214329 0.272789
vt 0.279425 0.397108
vt 0.367233 0.398321
vt 0.367233 0.398331
vt 0.279425 0.397118
vt 0.214329 0.391954
vt 0.214329 0.369212
vt 0.149230 0.392548
vt 0.149222 0.369517
vt 0.214329 0.369110
vt 0.214329 0.392113
vt 0.149229 0.273046
vt 0.061424 0.398321
vt 0.061424 0.398331
vt 0.279427 0.273078
vt 0.367256 0.274431
vt 0.424328 0.278981
vt 0.424275 0.245643
vt 0.424331 0.278946
vt 0.424391 0.364672
vt 0.424387 0.364758
vt 0.214329 0.396669
vt 0.214329 0.396680
vt 0.149232 0.397118
vt 0.149232 0.397108
vt 0.424278 0.395498
vt 0.424277 0.395506
vt 0.424294 0.390691
vt 0.424295 0.390813
vn 0.0054 -0.9822 0.1879
vn 0.0028 -0.9837 0.1798
vn 0.0022 -0.9835 0.1810
vn 0.0010 -0.9817 0.1902
vn 0.0023 0.9943 0.1069
vn 0.0431 0.9854 0.1647
vn 0.0052 0.9941 0.1086
vn 0.0019 0.9928 0.1201
vn 0.0052 0.9675 0.2530
vn -0.0023 0.9650 0.2621
vn -0.0043 0.9624 0.2716
vn -0.0016 0.9649 0.2628
vn 0.0011 -0.9998 0.0204
vn 0.0035 -0.9996 0.0269
vn 0.0033 -0.9998 0.0211
vn -0.0621 -0.9951 0.0767
vn -0.0033 0.9927 0.1209
vn 0.0006 0.9937 0.1125
vn 0.0026 0.9932 0.1160
vn 0.0060 -1.0000 0.0027
vn 0.0058 -1.0000 0.0046
vn 0.0011 -1.0000 0.0017
vn -0.0004 0.9618 0.2738
vn 0.0041 0.9634 0.2682
vn 0.9721 0.0680 0.2244
vn 0.9763 -0.0027 0.2164
vn 0.9885 -0.0424 0.1451
vn 0.9760 0.0003 0.2179
vn 0.9758 0.0004 0.2186
vn 0.9757 0.0001 0.2189
vn 0.0019 0.9925 0.1218
vn 0.0050 0.9931 0.1169
vn -0.0006 -1.0000 0.0021
vn -0.0026 -1.0000 0.0024
vn -0.0060 -1.0000 0.0005
vn -0.0012 -1.0000 0.0019
vn 0.0040 -0.9822 0.1876
vn -0.0002 -0.9812 0.1931
vn -0.0104 -0.0011 -0.9999
vn -0.0028 -0.0012 -1.0000
vn 0.0007 0.9907 0.1363
vn 0.0011 0.9907 0.1362
vn 0.0015 -1.0000 0.0050
vn 0.0005 -1.0000 0.0029
vn -0.0002 -1.0000 0.0047
vn 0.0001 -1.0000 0.0050
vn 0.0027 -0.9998 0.0221
vn 0.0014 -0.9996 0.0299
vn 0.0012 -0.9997 0.0236
vn -0.0027 -0.9996 0.0265
vn -0.0053 -0.9817 0.1906
vn -0.0008 -0.9837 0.1798
vn 0.0466 -0.9700 0.2385
vn -0.0007 -0.9856 0.1690
vn 0.0029 -0.9861 0.1659
vn 0.0025 -0.9859 0.1673
vn 0.0205 -0.0013 -0.9998
vn 0.0196 -0.0012 -0.9998
vn 0.0010 0.9648 0.2628
vn 0.0032 0.9629 0.2699
vn 0.0005 0.9626 0.2709
vn 0.0001 0.9647 0.2635
vn -0.0109 0.9687 0.2481
vn -0.0117 0.9685 0.2489
vn -0.0465 0.9802 0.1925
vn -0.0079 0.9679 0.2513
vn 0.0018 0.9941 0.1087
vn -0.0474 -0.9974 -0.0547
vn -0.0036 -0.9998 0.0193
vn 0.0616 -0.9918 0.1123
vn -0.0060 -0.9863 0.1647
vn -0.0070 -0.9864 0.1643
vn -0.0077 -0.9869 0.1613
vn -0.0080 0.9944 0.1050
vn -0.0078 0.9954 0.0955
vn -0.0114 0.9943 0.1065
vn -0.0662 0.9879 0.1399
vn 0.0046 -0.0011 -1.0000
vn -0.0143 -0.0011 -0.9999
vn 0.0009 -0.0012 -1.0000
vn -0.0010 0.9938 0.1114
vn 0.0003 0.9941 0.1088
vn -0.9766 0.0662 -0.2045
vn -0.9750 -0.0001 -0.2220
vn -0.9752 0.0004 -0.2213
vn -0.9754 0.0003 -0.2204
vn -0.9895 -0.0291 -0.1418
vn -0.9748 0.0037 -0.2231
vn 0.0001 -0.9995 0.0303
vn 0.0006 -0.9997 0.0254
vn 0.0085 0.9682 0.2501
vn 0.0626 0.9742 0.2166
vn 0.0003 -0.9996 0.0300
vn 0.0015 -0.9997 0.0232
vn 0.0018 0.9939 0.1103
vn -0.0003 0.9934 0.1143
vn -0.0114 0.9953 0.0966
vn 0.0100 0.9949 0.1006
vn 0.0094 0.9949 0.1006
vn 0.0094 0.9949 0.1009
vn 0.0188 -0.0011 -0.9998
vn 0.0006 0.9907 0.1363
vn -0.0050 -0.9838 0.1792
vn -0.0053 -0.9839 0.1788
vn -0.0009 -0.3757 -0.9268
vn -0.0041 0.4185 -0.9082
vn -0.0079 0.4041 -0.9147
vn -0.0134 0.3995 -0.9166
vn -0.0079 0.4037 -0.9148
vn 0.0208 -0.3786 -0.9253
vn 0.0237 0.4221 -0.9062
vn 0.0180 -0.3653 -0.9307
vn 0.0191 0.4069 -0.9133
vn -0.0066 -0.3629 -0.9318
vn -0.0068 -0.3627 -0.9319
vn -0.0133 -0.3592 -0.9332
vn -0.0138 0.3995 -0.9166
vn -0.0136 -0.3592 -0.9332
vn 0.0046 -0.3607 -0.9327
vn 0.0049 0.4012 -0.9160
vn -0.0058 -1.0000 0.0017
vn -0.0057 -1.0000 0.0021
usemtl Material.004
s 1
f 1/1/1 2/2/2 3/3/3 4/4/4
f 5/5/5 6/6/6 7/7/7 8/8/8
f 9/9/9 5/5/10 10/10/11 11/11/12
f 12/12/13 13/13/14 14/14/15 15/15/16
f 16/16/17 17/17/18 18/18/19 19/19/17
f 20/20/20 21/21/21 14/14/21 13/13/22
f 11/11/12 10/10/11 22/22/23 23/23/24
f 6/6/25 24/24/26 15/15/27 14/14/28 21/21/29 25/25/29 26/26/29 27/27/29 7/7/30
f 28/28/31 29/29/31 30/30/32 8/8/8
f 31/31/33 32/32/34 33/33/35 34/34/36
f 23/23/37 1/1/1 4/4/4 35/35/38
f 36/36/39 37/37/40 38/38/40 39/39/39
f 40/40/41 41/41/42 30/30/41 29/29/41
f 42/42/43 43/43/44 44/44/45 45/45/46
f 42/42/43 20/20/20 13/13/22 43/43/44
f 33/33/47 32/32/48 4/4/49 3/3/50
f 23/23/37 35/35/38 46/46/51 11/11/52
f 15/15/53 24/24/54 9/9/55 12/12/56
f 31/31/33 45/45/46 44/44/45 32/32/34
f 25/25/57 47/47/58 48/48/58 26/26/57
f 2/2/59 1/1/60 49/49/61 50/50/62
f 2/2/63 50/50/64 51/51/65 52/52/66
f 30/30/32 10/10/67 5/5/5 8/8/8
f 3/3/50 53/53/68 54/54/69 33/33/47
f 53/53/70 3/3/71 2/2/72 52/52/73
f 50/50/74 17/17/75 55/55/76 51/51/77
f 56/56/78 57/57/78 58/58/78 59/59/78
f 56/56/79 36/36/39 39/39/39 57/57/79
f 60/60/80 61/61/80 38/38/40 37/37/40
f 18/18/19 17/17/18 50/50/81 49/49/82
f 51/51/83 55/55/84 62/62/85 61/61/85 60/60/85 63/63/85 54/54/86 53/53/87 52/52/88
f 44/44/89 35/35/90 4/4/49 32/32/48
f 9/9/9 24/24/91 6/6/92 5/5/10
f 44/44/89 43/43/93 46/46/94 35/35/90
f 22/22/95 41/41/96 18/18/19 49/49/82
f 17/17/75 16/16/97 62/62/97 55/55/76
f 8/8/98 7/7/99 27/27/100 28/28/100
f 1/1/60 23/23/24 22/22/23 49/49/61
f 13/13/14 12/12/13 46/46/94 43/43/93
f 59/59/101 58/58/101 48/48/58 47/47/58
f 40/40/41 19/19/102 18/18/102 41/41/42
f 11/11/52 46/46/51 12/12/103 9/9/104
f 22/22/95 10/10/67 30/30/32 41/41/96
f 63/63/105 60/60/105 37/37/105 34/34/105
f 61/61/106 62/62/106 16/16/106 38/38/106
f 38/38/107 16/16/107 19/19/108 39/39/109
f 25/25/110 21/21/110 20/20/110 47/47/110
f 27/27/111 26/26/111 48/48/111 28/28/111
f 47/47/112 20/20/112 42/42/112 59/59/112
f 28/28/113 48/48/113 58/58/113 29/29/113
f 34/34/114 37/37/114 36/36/115 31/31/116
f 39/39/109 19/19/108 40/40/117 57/57/117
f 31/31/116 36/36/115 56/56/118 45/45/118
f 59/59/119 42/42/119 45/45/119 56/56/119
f 29/29/120 58/58/120 57/57/120 40/40/120
f 34/34/36 33/33/35 54/54/121 63/63/122
