# This file uses centimeters as units for non-parametric coordinates.

g default
v 0.000001 2.976597 -0.000000
v -2.577808 1.488299 -0.000000
v -2.577809 -1.488298 0.000000
v -0.000000 -2.976597 0.000000
v 2.577809 -1.488299 0.000000
v 2.577809 1.488299 -0.000000
v 0.000001 2.976597 2.614123
v -2.577808 1.488299 2.614123
v -2.577809 -1.488298 2.614123
v -0.000000 -2.976597 2.614123
v 2.577809 -1.488299 2.614123
v 2.577809 1.488299 2.614123
v -0.000000 1.964319 3.024809
v -1.701150 0.982160 3.024809
v -1.701150 -0.982159 3.024809
v 0.000000 -1.964319 3.024809
v 1.701150 -0.982160 3.024809
v 1.701150 0.982159 3.024809
vt 0.578125 0.020934
vt 0.421875 0.020934
vt 0.343750 0.156250
vt 0.421875 0.291566
vt 0.578125 0.291566
vt 0.656250 0.156250
vt 0.375000 0.312500
vt 0.416667 0.312500
vt 0.458333 0.312500
vt 0.500000 0.312500
vt 0.541667 0.312500
vt 0.583333 0.312500
vt 0.625000 0.312500
vt 0.375000 0.688440
vt 0.416667 0.688440
vt 0.458333 0.688440
vt 0.500000 0.688440
vt 0.541667 0.688440
vt 0.583333 0.688440
vt 0.625000 0.688440
vt 0.578125 0.708434
vt 0.421875 0.708434
vt 0.343750 0.843750
vt 0.421875 0.979066
vt 0.578125 0.979066
vt 0.656250 0.843750
vt 0.578125 0.979066
vt 0.421875 0.979066
vt 0.343750 0.843750
vt 0.421875 0.708434
vt 0.578125 0.708434
vt 0.656250 0.843750
vn -0.500000 0.866026 -0.000000
vn -0.500000 0.866026 -0.000000
vn -0.500000 0.866026 -0.000000
vn -0.500000 0.866026 -0.000000
vn -1.000000 0.000000 -0.000000
vn -1.000000 0.000000 -0.000000
vn -1.000000 0.000000 -0.000000
vn -1.000000 0.000000 -0.000000
vn -0.500000 -0.866025 0.000000
vn -0.500000 -0.866025 0.000000
vn -0.500000 -0.866025 0.000000
vn -0.500000 -0.866025 0.000000
vn 0.500000 -0.866026 0.000000
vn 0.500000 -0.866026 0.000000
vn 0.500000 -0.866026 0.000000
vn 0.500000 -0.866026 0.000000
vn 1.000000 0.000000 0.000000
vn 1.000000 0.000000 0.000000
vn 1.000000 0.000000 0.000000
vn 1.000000 0.000000 0.000000
vn 0.500000 0.866025 -0.000000
vn 0.500000 0.866025 -0.000000
vn 0.500000 0.866025 -0.000000
vn 0.500000 0.866025 -0.000000
vn 0.000000 0.000000 -1.000000
vn 0.000000 0.000000 -1.000000
vn 0.000000 0.000000 -1.000000
vn 0.000000 0.000000 -1.000000
vn 0.000000 0.000000 -1.000000
vn 0.000000 0.000000 -1.000000
vn 0.000000 0.000000 1.000000
vn 0.000000 0.000000 1.000000
vn 0.000000 0.000000 1.000000
vn 0.000000 0.000000 1.000000
vn 0.000000 0.000000 1.000000
vn 0.000000 0.000000 1.000000
vn -0.212112 0.367389 0.905557
vn -0.212112 0.367389 0.905557
vn -0.212112 0.367389 0.905557
vn -0.212112 0.367389 0.905557
vn -0.424224 0.000000 0.905558
vn -0.424224 0.000000 0.905557
vn -0.424224 0.000000 0.905558
vn -0.424224 0.000000 0.905557
vn -0.212112 -0.367388 0.905558
vn -0.212112 -0.367388 0.905558
vn -0.212112 -0.367388 0.905557
vn -0.212112 -0.367388 0.905557
vn 0.212112 -0.367389 0.905557
vn 0.212112 -0.367389 0.905557
vn 0.212112 -0.367389 0.905557
vn 0.212112 -0.367389 0.905557
vn 0.424223 0.000000 0.905558
vn 0.424224 0.000000 0.905558
vn 0.424223 0.000000 0.905558
vn 0.424223 0.000000 0.905558
vn 0.212112 0.367388 0.905558
vn 0.212112 0.367388 0.905558
vn 0.212112 0.367388 0.905558
vn 0.212112 0.367388 0.905558
s off
g col_vats
f 1/7/1 2/8/2 8/15/3 7/14/4
f 2/8/5 3/9/6 9/16/7 8/15/8
f 3/9/9 4/10/10 10/17/11 9/16/12
f 4/10/13 5/11/14 11/18/15 10/17/16
f 5/11/17 6/12/18 12/19/19 11/18/20
f 6/12/21 1/13/22 7/20/23 12/19/24
s 1
f 3/3/25 2/2/26 1/1/27 4/4/28
f 6/6/29 5/5/30 4/4/28 1/1/27
s 2
f 13/27/31 14/28/32 15/29/33 16/30/34
f 13/27/31 16/30/34 17/31/35 18/32/36
s off
f 7/25/37 8/24/38 14/28/39 13/27/40
f 8/24/41 9/23/42 15/29/43 14/28/44
f 9/23/45 10/22/46 16/30/47 15/29/48
f 10/22/49 11/21/50 17/31/51 16/30/52
f 11/21/53 12/26/54 18/32/55 17/31/56
f 12/26/57 7/25/58 13/27/59 18/32/60
