# Blender v2.82 (sub 7) OBJ File: 'DLBasicCurve2Wide.blend'
# www.blender.org
mtllib DLMediumSmoothWideSlope.mtl
o untitled
v 1.500000 0.300000 -0.350000
v 1.485000 0.300000 -0.360000
v 1.485000 0.337500 -0.435000
v 1.500000 0.350000 -0.450000
v 1.485000 -0.300000 -0.360000
v 1.500000 -0.300000 -0.350000
v 1.485000 -0.337500 -0.435000
v 1.435000 0.337500 -0.485000
v 1.435000 -0.337500 -0.485000
v 1.450000 0.350000 -0.500000
v 1.350000 0.300000 -0.500000
v 1.360000 0.300000 -0.485000
v 1.360000 -0.300000 -0.485000
v 1.350000 -0.300000 -0.500000
v 1.450000 -0.350000 -0.500000
v 1.500000 -0.350000 -0.450000
v -0.500000 0.350000 -0.450000
v -0.500000 0.300000 -0.350000
v -0.500000 -0.300000 -0.350000
v -0.500000 -0.350000 -0.450000
v -0.450000 -0.350000 -0.500000
v -0.350000 -0.300000 -0.500000
v -0.350000 0.300000 -0.500000
v -0.450000 0.350000 -0.500000
v -0.485000 -0.337500 -0.435000
v -0.435000 -0.337500 -0.485000
v -0.485000 -0.300000 -0.360000
v -0.485000 0.300000 -0.360000
v -0.485000 0.337500 -0.435000
v -0.435000 0.337500 -0.485000
v -0.360000 -0.300000 -0.485000
v -0.360000 0.300000 -0.485000
v 1.450000 -0.455929 1.476383
v 1.450000 -0.500000 1.450000
v 1.500000 -0.450000 1.416478
v 1.450000 -0.500000 -0.429289
v 1.500000 -0.450000 -0.450000
v 1.450000 0.490569 -0.429602
v 1.500000 0.443031 -0.450000
v 1.500000 0.317806 0.484634
v 1.450000 0.366025 0.500000
v 1.500000 -0.037618 1.195483
v 1.450000 -0.000000 1.232051
v -0.450000 -0.455929 1.476383
v -0.500000 -0.450000 1.416478
v -0.450000 -0.500000 1.450000
v -0.500000 -0.450000 -0.450000
v -0.450000 -0.500000 -0.429289
v -0.450000 -0.450000 -0.500000
v -0.429289 -0.500000 -0.450000
v 1.450000 -0.450000 -0.500000
v 1.429289 -0.500000 -0.450000
v -0.450000 0.366025 0.500000
v -0.500000 0.317806 0.484634
v -0.450000 0.490569 -0.429602
v -0.500000 0.443031 -0.450000
v -0.500000 -0.037618 1.195483
v -0.450000 -0.000000 1.232051
v 1.450000 0.449742 -0.500000
v 1.429159 0.493361 -0.450443
v -0.450000 0.449742 -0.500000
v -0.429159 0.493361 -0.450443
vt 0.468070 0.580893
vt 0.465005 0.563527
vt 0.468070 0.560462
vt 0.465005 0.709811
vt 0.468070 0.587228
vt 0.465005 0.587228
vt 0.301863 0.287834
vt 0.432108 0.272511
vt 0.424446 0.287834
vt 0.294202 0.262296
vt 0.294202 0.272511
vt 0.457855 0.550247
vt 0.437424 0.550247
vt 0.454790 0.553312
vt 0.439467 0.553312
vt 0.210066 0.550247
vt 0.332649 0.553312
vt 0.210066 0.553312
vt 0.437424 0.550247
vt 0.454790 0.553312
vt 0.457855 0.550247
vt 0.478530 0.296213
vt 0.493853 0.426457
vt 0.493853 0.288551
vt 0.465005 0.563527
vt 0.468070 0.560462
vt 0.468070 0.580893
vt 0.465005 0.578850
vt 0.457855 0.564694
vt 0.457855 0.948642
vt 0.069675 0.564694
vt 0.457855 0.577013
vt 0.468070 0.556583
vt 0.457855 0.556583
vt 0.059460 0.556583
vt 0.069675 0.577013
vt 0.069675 0.556583
vt 0.069675 0.754552
vt 0.457855 0.904114
vt 0.457855 0.754552
vt 0.073933 0.560372
vt 0.069675 0.564630
vt 0.069675 0.720027
vt 0.059460 0.739033
vt 0.069675 0.740404
vt 0.468070 0.739033
vt 0.457855 0.720027
vt 0.457855 0.740404
vt 0.090106 0.587228
vt 0.090106 0.709811
vt 0.437424 0.587228
vt 0.059460 0.560462
vt 0.072740 0.553312
vt 0.069675 0.550247
vt 0.059460 0.580893
vt 0.062524 0.563527
vt 0.059460 0.587228
vt 0.062524 0.709811
vt 0.062524 0.587228
vt 0.059460 0.580893
vt 0.062524 0.563527
vt 0.062524 0.578850
vt 0.301863 0.287834
vt 0.432108 0.272511
vt 0.294202 0.272511
vt 0.432108 0.262296
vt 0.294202 0.262296
vt 0.260240 0.288551
vt 0.275562 0.418796
vt 0.275562 0.296213
vt 0.332649 0.553312
vt 0.210066 0.550247
vt 0.210066 0.553312
vt 0.090106 0.550247
vt 0.072740 0.553312
vt 0.069675 0.550247
vt 0.059460 0.560462
vt 0.090106 0.550247
vt 0.088062 0.553312
vt 0.210066 0.580893
vt 0.332649 0.580893
vt 0.336287 0.751413
vt 0.210066 0.580893
vt 0.179420 0.941793
vt 0.263672 0.896643
vt 0.178209 0.954032
vt 0.169205 0.948642
vt 0.179420 0.941793
vt 0.178209 0.954032
vt 0.169205 0.948642
vt 0.271358 0.904114
vt 0.169205 0.564694
vt 0.371583 0.564630
vt 0.361871 0.560462
vt 0.069675 0.555371
vt 0.457855 0.546367
vt 0.457855 0.555371
vt 0.059460 0.941793
vt 0.069675 0.948642
vt 0.069675 0.550247
vt 0.059460 0.560462
vt 0.073906 0.546367
vt 0.453623 0.560462
vt 0.468070 0.560462
vt 0.346138 0.754552
vt 0.336287 0.751413
vt 0.371583 0.564630
vt 0.271358 0.904114
vt 0.457855 0.550247
vt 0.457855 0.564630
vt 0.468070 0.560462
vt 0.453597 0.560372
vt 0.069675 0.550247
vt 0.059460 0.560462
vt 0.263672 0.896643
vt 0.346138 0.754552
vt 0.457855 0.648520
vt 0.069675 0.648520
vt 0.465005 0.578850
vt 0.468070 0.709811
vt 0.432108 0.262296
vt 0.332649 0.550247
vt 0.439467 0.553312
vt 0.478530 0.418796
vt 0.073906 0.560462
vt 0.468070 0.577013
vt 0.059460 0.577013
vt 0.069675 0.904114
vt 0.059460 0.720027
vt 0.468070 0.720027
vt 0.437424 0.709811
vt 0.062524 0.578850
vt 0.059460 0.709811
vt 0.424446 0.287834
vt 0.260240 0.426457
vt 0.332649 0.550247
vt 0.088062 0.553312
vt 0.179420 0.560462
vt 0.199851 0.560462
vt 0.342865 0.560462
vt 0.361871 0.560462
vt 0.332649 0.580893
vt 0.342865 0.560462
vt 0.199851 0.560462
vt 0.179420 0.560462
vt 0.069675 0.546367
vt 0.453623 0.546367
vt 0.457855 0.550247
vn 0.2857 -0.8571 -0.4286
vn 0.5547 0.0000 -0.8321
vn 1.0000 0.0000 0.0000
vn 0.7071 -0.0000 -0.7071
vn 0.3590 -0.8616 -0.3590
vn 0.3806 -0.8611 -0.3370
vn 0.4286 -0.8571 -0.2857
vn 0.4019 -0.8599 -0.3147
vn 0.8321 0.0000 -0.5547
vn 0.4286 0.8571 -0.2857
vn 0.0000 0.0000 -1.0000
vn 0.3590 0.8616 -0.3590
vn 0.3147 0.8599 -0.4019
vn 0.3370 0.8611 -0.3806
vn 0.2857 0.8571 -0.4286
vn 0.0000 -1.0000 0.0000
vn -0.7071 0.0000 -0.7071
vn 0.0000 0.8944 0.4472
vn 0.0000 0.9911 0.1328
vn -0.3590 0.8616 -0.3590
vn -0.4019 0.8599 -0.3147
vn -0.3806 0.8611 -0.3370
vn -0.2857 0.8571 -0.4286
vn -0.5547 0.0000 -0.8320
vn -0.5547 0.0000 -0.8321
vn -0.2857 -0.8571 -0.4286
vn -0.3147 -0.8599 -0.4019
vn -1.0000 0.0000 0.0000
vn -0.8320 0.0000 -0.5547
vn -0.4286 -0.8571 -0.2857
vn -0.3590 -0.8615 -0.3590
vn -0.3370 -0.8611 -0.3806
vn -0.4286 0.8571 -0.2857
vn 0.7365 -0.3474 0.5804
vn -0.7365 -0.3474 0.5804
vn 0.7071 0.3340 0.6233
vn 0.7239 0.4947 0.4809
vn 0.7071 -0.7071 -0.0000
vn 0.7059 0.7021 0.0941
vn 0.7113 0.6720 0.2061
vn 0.0000 -0.5136 0.8580
vn -0.7071 -0.7071 -0.0000
vn -0.5000 -0.7071 -0.5000
vn 0.0000 -0.7071 -0.7071
vn 0.5000 -0.7071 -0.5000
vn -0.7239 0.4947 0.4809
vn -0.7114 0.6716 0.2071
vn -0.7113 0.6720 0.2061
vn -0.7059 0.7021 0.0941
vn -0.7071 0.3340 0.6233
vn 0.5255 0.7360 -0.4268
vn 0.5256 0.7359 -0.4268
vn 0.0000 0.7506 -0.6607
vn -0.5255 0.7360 -0.4268
vn -0.5256 0.7359 -0.4268
vn 0.7114 0.6716 0.2071
vn 0.0000 0.4723 0.8814
vn 0.5254 0.7360 -0.4268
vn -0.5254 0.7360 -0.4268
usemtl Color_M03
s 1
f 1/1/1 3/2/1 4/3/1
f 2/4/2 6/5/2 5/6/2
f 5/7/3 3/8/3 2/9/3
f 9/10/4 3/8/4 7/11/4
f 3/2/5 10/12/6 4/3/5
f 11/13/7 8/14/8 12/15/7
f 14/16/9 12/17/9 13/18/9
f 14/19/10 9/20/10 15/21/10
f 13/22/11 8/23/11 9/24/11
f 15/21/12 7/25/13 16/26/14
f 6/27/15 7/25/13 5/28/15
f 36/29/16 34/30/16 48/31/16
f 15/32/4 37/33/4 51/34/4
f 47/35/17 21/36/17 49/37/17
f 53/38/18 43/39/18 41/40/18
f 62/41/19 55/42/19 53/38/19
f 24/43/17 56/44/17 61/45/17
f 39/46/4 10/47/4 59/48/4
f 22/49/11 23/50/11 14/51/11
f 20/52/20 26/53/21 21/54/22
f 19/55/23 25/56/23 20/52/23
f 19/57/24 28/58/25 27/59/24
f 18/60/26 29/61/27 28/62/26
f 27/63/28 29/64/28 25/65/28
f 25/65/17 30/66/17 26/67/17
f 26/68/11 32/69/11 31/70/11
f 32/71/29 22/72/29 31/73/29
f 23/74/30 30/75/30 24/76/30
f 30/75/31 17/77/32 24/76/31
f 22/78/33 26/53/21 31/79/33
f 6/80/3 1/81/3 40/82/3
f 19/83/28 45/84/28 57/85/28
f 33/86/34 34/87/34 35/88/34
f 44/89/35 45/84/35 46/90/35
f 35/88/36 43/91/37 33/86/36
f 36/92/38 35/88/38 34/87/38
f 38/93/39 40/82/40 39/94/39
f 44/95/41 34/96/41 33/97/41
f 45/98/42 48/31/42 46/99/42
f 49/100/43 48/31/43 47/101/43
f 51/34/44 50/102/44 49/37/44
f 52/103/45 37/104/45 36/29/45
f 57/85/46 53/105/47 54/106/48
f 55/107/49 54/106/48 53/105/47
f 58/108/46 45/84/50 44/89/50
f 59/109/51 38/110/51 39/111/52
f 59/109/53 62/41/53 60/112/53
f 55/42/54 61/113/54 56/114/55
f 42/115/37 41/116/56 43/91/37
f 44/95/57 43/117/57 58/118/57
f 1/1/1 2/119/1 3/2/1
f 2/4/2 1/120/2 6/5/2
f 5/7/3 7/11/3 3/8/3
f 9/10/4 8/121/4 3/8/4
f 3/2/5 8/14/8 10/12/6
f 11/13/7 10/12/6 8/14/8
f 14/16/9 11/122/9 12/17/9
f 14/19/10 13/123/10 9/20/10
f 13/22/11 12/124/11 8/23/11
f 15/21/12 9/20/12 7/25/13
f 6/27/15 16/26/14 7/25/13
f 34/30/16 46/99/16 48/31/16
f 48/31/16 50/125/16 52/103/16
f 52/103/16 36/29/16 48/31/16
f 15/32/4 16/126/4 37/33/4
f 47/35/17 20/127/17 21/36/17
f 53/38/18 58/128/18 43/39/18
f 53/38/19 41/40/19 60/112/19
f 41/40/19 38/110/19 60/112/19
f 60/112/19 62/41/19 53/38/19
f 24/43/17 17/129/17 56/44/17
f 39/46/4 4/130/4 10/47/4
f 24/43/11 61/45/11 23/50/11
f 61/45/11 59/48/11 11/131/11
f 59/48/11 10/47/11 11/131/11
f 14/51/11 15/32/11 51/34/11
f 61/45/11 11/131/11 23/50/11
f 14/51/11 51/34/11 49/37/11
f 11/131/11 14/51/11 23/50/11
f 14/51/11 49/37/11 22/49/11
f 49/37/11 21/36/11 22/49/11
f 20/52/20 25/56/20 26/53/21
f 19/55/23 27/132/23 25/56/23
f 19/57/24 18/133/25 28/58/25
f 18/60/26 17/77/32 29/61/27
f 27/63/28 28/134/28 29/64/28
f 25/65/17 29/64/17 30/66/17
f 26/68/11 30/135/11 32/69/11
f 32/71/29 23/136/29 22/72/29
f 23/74/30 32/137/30 30/75/30
f 30/75/31 29/61/27 17/77/32
f 22/78/33 21/54/22 26/53/21
f 42/115/3 35/88/3 6/80/3
f 35/88/3 37/138/3 6/80/3
f 37/138/3 16/139/3 6/80/3
f 1/81/3 4/140/3 39/94/3
f 1/81/3 39/94/3 40/82/3
f 42/115/3 6/80/3 40/82/3
f 57/85/28 54/106/28 19/83/28
f 54/106/28 56/141/28 18/142/28
f 56/141/28 17/143/28 18/142/28
f 19/83/28 20/144/28 47/145/28
f 54/106/28 18/142/28 19/83/28
f 19/83/28 47/145/28 45/84/28
f 35/88/36 42/115/37 43/91/37
f 36/92/38 37/138/38 35/88/38
f 38/93/39 41/116/56 40/82/40
f 44/95/41 46/146/41 34/96/41
f 45/98/42 47/101/42 48/31/42
f 49/100/43 50/125/43 48/31/43
f 51/34/44 52/147/44 50/102/44
f 52/103/45 51/148/45 37/104/45
f 57/85/46 58/108/46 53/105/47
f 55/107/49 56/141/49 54/106/48
f 58/108/46 57/85/46 45/84/50
f 59/109/51 60/112/58 38/110/51
f 59/109/53 61/113/53 62/41/53
f 55/42/54 62/41/59 61/113/54
f 42/115/37 40/82/40 41/116/56
f 44/95/57 33/97/57 43/117/57
o DarkLightBrudger5
v 0.130000 0.130001 -0.500000
v 0.000000 0.000001 -0.600000
v -0.130000 0.130001 -0.500000
v 0.130000 -0.129999 -0.500000
v -0.130000 -0.129999 -0.500000
v 0.130000 -0.500000 1.130000
v 0.000000 -0.600000 1.000000
v 0.130000 -0.500000 0.870000
v -0.130000 -0.500000 1.130000
v -0.130000 -0.500000 0.870000
v 0.130000 -0.499999 -0.130000
v 0.000000 -0.599999 -0.000000
v -0.130000 -0.499999 -0.130000
v 0.130000 -0.499999 0.130000
v -0.130000 -0.499999 0.130000
v -0.500000 0.130001 -0.130000
v -0.600000 0.000001 0.000000
v -0.500000 0.130001 0.130000
v -0.500000 -0.129999 -0.130000
v -0.500000 -0.129999 0.130000
v 1.130000 0.130001 -0.500000
v 1.000000 0.000001 -0.600000
v 0.870000 0.130001 -0.500000
v 1.130000 -0.129999 -0.500000
v 0.870000 -0.129999 -0.500000
v 1.130000 -0.500000 1.130000
v 1.000000 -0.600000 1.000000
v 1.130000 -0.500000 0.870000
v 0.870000 -0.500000 1.130000
v 0.870000 -0.500000 0.870000
v 1.500000 -0.129999 -0.130000
v 1.600000 0.000001 0.000000
v 1.500000 -0.129999 0.130000
v 1.500000 0.130001 -0.130000
v 1.500000 0.130001 0.130000
v 1.130000 -0.499999 -0.130000
v 1.000000 -0.599999 -0.000000
v 0.870000 -0.499999 -0.130000
v 1.130000 -0.499999 0.130000
v 0.870000 -0.499999 0.130000
vt 0.935179 0.247753
vt 0.906710 0.219284
vt 0.878241 0.247753
vt 0.935179 0.190815
vt 0.878241 0.190815
vt 0.935179 0.247753
vt 0.906710 0.219284
vt 0.935179 0.190815
vt 0.878241 0.247753
vt 0.878241 0.190815
vt 0.935179 0.190815
vt 0.906710 0.219284
vt 0.878241 0.190815
vt 0.935179 0.247753
vt 0.878241 0.247753
vt 0.935179 0.190815
vt 0.906710 0.219284
vt 0.935179 0.247753
vt 0.878241 0.190815
vt 0.878241 0.247753
vt 0.935179 0.247753
vt 0.906710 0.219284
vt 0.878241 0.247753
vt 0.935179 0.190815
vt 0.878241 0.190815
vt 0.935179 0.247753
vt 0.906710 0.219284
vt 0.935179 0.190815
vt 0.878241 0.247753
vt 0.878241 0.190815
vt 0.878241 0.190815
vt 0.906710 0.219284
vt 0.878241 0.247753
vt 0.935179 0.190815
vt 0.935179 0.247753
vt 0.935179 0.190815
vt 0.906710 0.219284
vt 0.878241 0.190815
vt 0.935179 0.247753
vt 0.878241 0.247753
vn 0.0000 0.6097 -0.7926
vn 0.6097 0.0000 -0.7926
vn 0.0000 -0.6097 -0.7926
vn -0.6097 0.0000 -0.7926
vn 0.6097 -0.7926 0.0000
vn 0.0000 -0.7926 0.6097
vn -0.6097 -0.7926 0.0000
vn 0.0000 -0.7926 -0.6097
vn -0.7926 0.6097 0.0000
vn -0.7926 0.0000 -0.6097
vn -0.7926 -0.6097 -0.0000
vn -0.7926 -0.0000 0.6097
vn 0.7926 -0.6097 -0.0000
vn 0.7926 0.0000 -0.6097
vn 0.7926 0.6097 0.0000
vn 0.7926 0.0000 0.6097
usemtl Color_M03.001
s 1
f 63/149/60 64/150/60 65/151/60
f 66/152/61 64/150/61 63/149/61
f 64/150/62 66/152/62 67/153/62
f 64/150/63 67/153/63 65/151/63
f 68/154/64 69/155/64 70/156/64
f 69/155/65 68/154/65 71/157/65
f 69/155/66 71/157/66 72/158/66
f 69/155/67 72/158/67 70/156/67
f 73/159/67 74/160/67 75/161/67
f 74/160/64 73/159/64 76/162/64
f 77/163/65 74/160/65 76/162/65
f 75/161/66 74/160/66 77/163/66
f 78/164/68 79/165/68 80/166/68
f 79/165/69 78/164/69 81/167/69
f 79/165/70 81/167/70 82/168/70
f 82/168/71 80/166/71 79/165/71
f 83/169/60 84/170/60 85/171/60
f 86/172/61 84/170/61 83/169/61
f 84/170/62 86/172/62 87/173/62
f 84/170/63 87/173/63 85/171/63
f 88/174/64 89/175/64 90/176/64
f 89/175/65 88/174/65 91/177/65
f 89/175/66 91/177/66 92/178/66
f 89/175/67 92/178/67 90/176/67
f 93/179/72 94/180/72 95/181/72
f 94/180/73 93/179/73 96/182/73
f 94/180/74 96/182/74 97/183/74
f 95/181/75 94/180/75 97/183/75
f 98/184/67 99/185/67 100/186/67
f 99/185/64 98/184/64 101/187/64
f 102/188/65 99/185/65 101/187/65
f 100/186/66 99/185/66 102/188/66
