# Blender v2.82 (sub 7) OBJ File: 'DLBasicCurve2.blend'
# www.blender.org
mtllib DLMediumSmoothSlope.mtl
o untitled.001
v -0.500000 0.350000 -0.450000
v -0.500000 0.300000 -0.350000
v -0.500000 -0.300000 -0.350000
v -0.500000 -0.350000 -0.450000
v 0.500000 -0.350000 -0.450000
v 0.500000 -0.300000 -0.350000
v 0.500000 0.300000 -0.350000
v 0.500000 0.350000 -0.450000
v -0.450000 -0.350000 -0.500000
v -0.485000 -0.337500 -0.435000
v -0.435000 -0.337500 -0.485000
v -0.485000 -0.300000 -0.360000
v -0.485000 0.300000 -0.360000
v -0.485000 0.337500 -0.435000
v -0.435000 0.337500 -0.485000
v -0.360000 -0.300000 -0.485000
v -0.360000 0.300000 -0.485000
v -0.350000 0.300000 -0.500000
v -0.350000 -0.300000 -0.500000
v -0.450000 0.350000 -0.500000
v 0.450000 0.350000 -0.500000
v 0.350000 0.300000 -0.500000
v 0.350000 -0.300000 -0.500000
v 0.450000 -0.350000 -0.500000
v 0.485000 0.337500 -0.435000
v 0.435000 0.337500 -0.485000
v 0.485000 0.300000 -0.360000
v 0.485000 -0.300000 -0.360000
v 0.485000 -0.337500 -0.435000
v 0.435000 -0.337500 -0.485000
v 0.360000 -0.300000 -0.485000
v 0.360000 0.300000 -0.485000
v 0.500000 0.317806 0.484634
v 0.450000 0.366025 0.500000
v -0.500000 0.317806 0.484634
v -0.450000 0.366025 0.500000
v -0.500000 -0.037618 1.195483
v -0.450000 0.000000 1.232051
v -0.450000 0.490569 -0.429601
v -0.500000 0.443031 -0.450000
v -0.450000 -0.500000 -0.429289
v -0.500000 -0.450000 -0.450000
v -0.450000 -0.500000 1.450000
v -0.450000 -0.455929 1.476383
v -0.500000 -0.450000 1.416478
v 0.500000 0.443031 -0.450000
v 0.450000 0.490569 -0.429601
v 0.450000 0.449742 -0.500000
v 0.429159 0.493361 -0.450442
v -0.450000 0.449742 -0.500000
v -0.429159 0.493361 -0.450442
v 0.450000 -0.455929 1.476383
v 0.450000 -0.500000 1.450000
v 0.500000 -0.450000 1.416478
v 0.450000 -0.500000 -0.429289
v 0.500000 -0.450000 -0.450000
v 0.500000 -0.037618 1.195483
v 0.450000 0.000000 1.232051
v -0.450000 -0.450000 -0.500000
v -0.429289 -0.500000 -0.450000
v 0.450000 -0.450000 -0.500000
v 0.429289 -0.500000 -0.450000
vt 0.137959 0.536297
vt 0.342268 0.639797
vt 0.137959 0.639797
vt 0.180447 0.564655
vt 0.316653 0.564655
vt 0.320695 0.754125
vt 0.180447 0.564655
vt 0.146396 0.965662
vt 0.240011 0.915494
vt 0.353618 0.740369
vt 0.342268 0.719251
vt 0.342268 0.741893
vt 0.342268 0.546656
vt 0.342268 0.973271
vt 0.137959 0.546656
vt 0.126609 0.541954
vt 0.141365 0.534009
vt 0.137959 0.530604
vt 0.126609 0.564655
vt 0.130014 0.545359
vt 0.126609 0.571695
vt 0.130014 0.707900
vt 0.130014 0.571695
vt 0.126609 0.564655
vt 0.130014 0.545359
vt 0.130014 0.562385
vt 0.428880 0.323321
vt 0.313852 0.309788
vt 0.320618 0.323321
vt 0.435646 0.300767
vt 0.313852 0.300767
vt 0.289553 0.323955
vt 0.303086 0.438983
vt 0.303086 0.330721
vt 0.316653 0.534009
vt 0.180447 0.530604
vt 0.180447 0.534009
vt 0.160660 0.530604
vt 0.141365 0.534009
vt 0.137959 0.530604
vt 0.126609 0.541954
vt 0.126609 0.560344
vt 0.137959 0.537643
vt 0.126609 0.537643
vt 0.342268 0.560344
vt 0.353618 0.537643
vt 0.342268 0.537643
vt 0.319567 0.571695
vt 0.160660 0.571695
vt 0.353618 0.541954
vt 0.338863 0.534009
vt 0.342268 0.530604
vt 0.353618 0.564655
vt 0.350213 0.545359
vt 0.350213 0.707900
vt 0.353618 0.571695
vt 0.350213 0.571695
vt 0.313852 0.309788
vt 0.428880 0.323321
vt 0.320618 0.323321
vt 0.313852 0.300767
vt 0.435646 0.309788
vt 0.433000 0.438983
vt 0.446533 0.323955
vt 0.433000 0.330721
vt 0.319567 0.530604
vt 0.338863 0.534009
vt 0.342268 0.530604
vt 0.180447 0.530604
vt 0.316653 0.534009
vt 0.180447 0.534009
vt 0.319567 0.530604
vt 0.321837 0.534009
vt 0.353618 0.541954
vt 0.353618 0.564655
vt 0.350213 0.545359
vt 0.350213 0.562385
vt 0.160660 0.530604
vt 0.158390 0.534009
vt 0.137959 0.719251
vt 0.126609 0.740369
vt 0.137959 0.741893
vt 0.137959 0.546585
vt 0.137959 0.757613
vt 0.342268 0.546585
vt 0.135046 0.973271
vt 0.145050 0.979261
vt 0.145050 0.979261
vt 0.135046 0.973271
vt 0.146396 0.965662
vt 0.331641 0.757613
vt 0.320695 0.754125
vt 0.359914 0.546585
vt 0.126609 0.965662
vt 0.126609 0.541954
vt 0.248550 0.923795
vt 0.359914 0.546585
vt 0.331641 0.757613
vt 0.342268 0.530604
vt 0.353618 0.541954
vt 0.137959 0.530604
vt 0.337537 0.541854
vt 0.126609 0.541954
vt 0.248550 0.923795
vt 0.353618 0.965662
vt 0.240011 0.915494
vt 0.342268 0.526293
vt 0.137959 0.526293
vt 0.137959 0.530604
vt 0.142661 0.526293
vt 0.342268 0.530604
vt 0.353618 0.541954
vt 0.342268 0.923795
vt 0.137959 0.923795
vt 0.342268 0.536297
vt 0.146396 0.541954
vt 0.169097 0.541954
vt 0.328003 0.541954
vt 0.349122 0.541954
vt 0.349122 0.541954
vt 0.316653 0.564655
vt 0.328003 0.541954
vt 0.169097 0.541954
vt 0.146396 0.541954
vt 0.353618 0.719251
vt 0.137959 0.973271
vt 0.142661 0.541954
vt 0.337566 0.541954
vt 0.130014 0.562385
vt 0.126609 0.707900
vt 0.435646 0.309788
vt 0.289553 0.445749
vt 0.316653 0.530604
vt 0.158390 0.534009
vt 0.137959 0.560344
vt 0.353618 0.560344
vt 0.160660 0.707900
vt 0.319567 0.707900
vt 0.350213 0.562385
vt 0.353618 0.707900
vt 0.435646 0.300767
vt 0.446533 0.445749
vt 0.321837 0.534009
vt 0.316653 0.530604
vt 0.126609 0.719251
vt 0.342268 0.757613
vt 0.142691 0.541854
vt 0.337566 0.526293
vn 0.0000 0.4723 0.8814
vn 1.0000 0.0000 0.0000
vn -1.0000 -0.0000 0.0000
vn 0.7071 0.0000 -0.7071
vn 0.0000 -1.0000 -0.0000
vn -0.3590 0.8616 -0.3590
vn -0.4019 0.8599 -0.3147
vn -0.3806 0.8611 -0.3370
vn -0.2857 0.8571 -0.4286
vn -0.5547 0.0000 -0.8321
vn -0.5547 0.0000 -0.8320
vn -0.2857 -0.8571 -0.4286
vn -0.3147 -0.8599 -0.4019
vn -0.7071 0.0000 -0.7071
vn -0.0000 0.0000 -1.0000
vn -0.8321 0.0000 -0.5547
vn -0.8320 0.0000 -0.5547
vn -0.4286 -0.8571 -0.2857
vn -0.3590 -0.8615 -0.3590
vn -0.3370 -0.8611 -0.3806
vn 0.3590 -0.8615 -0.3590
vn 0.4019 -0.8599 -0.3147
vn 0.3806 -0.8611 -0.3370
vn 0.2857 -0.8571 -0.4286
vn 0.5547 0.0000 -0.8321
vn 0.4286 0.8571 -0.2857
vn 0.8320 0.0000 -0.5547
vn 0.8321 0.0000 -0.5547
vn 0.4286 -0.8571 -0.2857
vn 0.3590 0.8616 -0.3590
vn 0.3370 0.8611 -0.3806
vn 0.2857 0.8571 -0.4286
vn 0.3147 0.8599 -0.4019
vn -0.4286 0.8571 -0.2857
vn -0.0000 0.9911 0.1328
vn -0.7365 -0.3474 0.5804
vn 0.7365 -0.3474 0.5804
vn -0.7239 0.4947 0.4809
vn -0.7114 0.6716 0.2071
vn -0.7113 0.6720 0.2061
vn -0.7059 0.7021 0.0941
vn -0.7071 -0.7071 -0.0000
vn -0.7071 0.3340 0.6233
vn 0.7113 0.6720 0.2061
vn 0.7059 0.7021 0.0941
vn 0.7114 0.6716 0.2071
vn 0.5255 0.7360 -0.4268
vn 0.5256 0.7359 -0.4268
vn 0.0000 0.7506 -0.6607
vn -0.5255 0.7360 -0.4268
vn -0.5256 0.7359 -0.4268
vn 0.7071 0.3340 0.6233
vn 0.7239 0.4947 0.4809
vn 0.7071 -0.7071 -0.0000
vn 0.0000 -0.5136 0.8580
vn -0.5000 -0.7071 -0.5000
vn 0.0000 -0.7071 -0.7071
vn 0.5000 -0.7071 -0.5000
vn 0.0000 0.8944 0.4472
vn 0.5254 0.7360 -0.4268
vn -0.5254 0.7360 -0.4268
usemtl Color_M03
s 1
f 44/1/1 58/2/1 38/3/1
f 6/4/2 7/5/2 33/6/2
f 3/7/3 45/8/3 37/9/3
f 46/10/4 21/11/4 48/12/4
f 55/13/5 53/14/5 41/15/5
f 4/16/6 11/17/7 9/18/8
f 3/19/9 10/20/9 4/16/9
f 3/21/10 13/22/11 12/23/10
f 2/24/12 14/25/13 13/26/12
f 13/27/3 10/28/3 12/29/3
f 10/28/14 15/30/14 11/31/14
f 11/32/15 17/33/15 16/34/15
f 17/35/16 19/36/17 16/37/17
f 18/38/18 15/39/18 20/40/18
f 15/39/19 1/41/20 20/40/19
f 4/42/14 59/43/14 42/44/14
f 24/45/4 56/46/4 61/47/4
f 23/48/15 59/43/15 19/49/15
f 8/50/21 26/51/22 21/52/23
f 7/53/24 25/54/24 8/50/24
f 27/55/25 6/56/25 28/57/25
f 29/58/2 27/59/2 28/60/2
f 30/61/4 25/62/4 29/58/4
f 32/63/15 30/64/15 31/65/15
f 23/66/26 30/67/26 24/68/26
f 23/69/27 32/70/28 31/71/27
f 22/72/29 26/51/22 32/73/29
f 30/67/30 5/74/31 24/68/30
f 6/75/32 29/76/33 28/77/32
f 19/78/34 11/17/7 16/79/34
f 20/80/14 40/81/14 50/82/14
f 39/83/35 36/84/35 47/85/35
f 43/86/36 44/87/36 45/8/36
f 52/88/37 53/89/37 54/90/37
f 37/9/38 36/91/39 35/92/40
f 39/93/41 35/92/40 36/91/39
f 41/15/42 45/94/42 42/95/42
f 45/8/43 38/96/38 37/9/38
f 33/6/44 47/97/45 34/98/46
f 48/99/47 47/85/47 46/100/48
f 50/101/49 49/102/49 48/99/49
f 39/83/50 50/101/50 40/103/51
f 54/90/52 58/104/53 52/88/52
f 55/13/54 54/105/54 53/14/54
f 34/98/46 57/106/53 33/6/44
f 53/107/55 44/1/55 43/108/55
f 59/109/56 41/15/56 42/95/56
f 61/47/57 60/110/57 59/43/57
f 55/13/58 61/111/58 56/112/58
f 58/113/59 36/84/59 38/114/59
f 44/1/1 52/115/1 58/2/1
f 57/106/2 54/90/2 6/4/2
f 54/90/2 56/116/2 6/4/2
f 56/116/2 5/117/2 6/4/2
f 7/5/2 8/118/2 46/119/2
f 7/5/2 46/119/2 33/6/2
f 57/106/2 6/4/2 33/6/2
f 37/9/3 35/92/3 3/7/3
f 35/92/3 40/120/3 2/121/3
f 40/120/3 1/122/3 2/121/3
f 3/7/3 4/123/3 42/124/3
f 35/92/3 2/121/3 3/7/3
f 3/7/3 42/124/3 45/8/3
f 46/10/4 8/125/4 21/11/4
f 53/14/5 43/126/5 41/15/5
f 41/15/5 60/127/5 62/128/5
f 62/128/5 55/13/5 41/15/5
f 4/16/6 10/20/6 11/17/7
f 3/19/9 12/129/9 10/20/9
f 3/21/10 2/130/11 13/22/11
f 2/24/12 1/41/20 14/25/13
f 13/27/3 14/131/3 10/28/3
f 10/28/14 14/131/14 15/30/14
f 11/32/15 15/132/15 17/33/15
f 17/35/16 18/133/16 19/36/17
f 18/38/18 17/134/18 15/39/18
f 15/39/19 14/25/13 1/41/20
f 4/42/14 9/135/14 59/43/14
f 24/45/4 5/136/4 56/46/4
f 20/80/15 50/82/15 18/137/15
f 50/82/15 48/12/15 22/138/15
f 48/12/15 21/11/15 22/138/15
f 23/48/15 24/45/15 61/47/15
f 50/82/15 22/138/15 18/137/15
f 23/48/15 61/47/15 59/43/15
f 59/43/15 9/135/15 19/49/15
f 19/49/15 18/137/15 22/138/15
f 22/138/15 23/48/15 19/49/15
f 8/50/21 25/54/21 26/51/22
f 7/53/24 27/139/24 25/54/24
f 27/55/25 7/140/25 6/56/25
f 29/58/2 25/62/2 27/59/2
f 30/61/4 26/141/4 25/62/4
f 32/63/15 26/142/15 30/64/15
f 23/66/26 31/143/26 30/67/26
f 23/69/27 22/144/28 32/70/28
f 22/72/29 21/52/23 26/51/22
f 30/67/30 29/76/33 5/74/31
f 6/75/32 5/74/31 29/76/33
f 19/78/34 9/18/8 11/17/7
f 20/80/14 1/145/14 40/81/14
f 36/84/35 34/146/35 47/85/35
f 47/85/35 49/102/35 51/147/35
f 51/147/35 39/83/35 47/85/35
f 37/9/38 38/96/38 36/91/39
f 39/93/41 40/120/41 35/92/40
f 41/15/42 43/126/42 45/94/42
f 45/8/43 44/87/43 38/96/38
f 33/6/44 46/119/45 47/97/45
f 48/99/47 49/102/60 47/85/47
f 50/101/49 51/147/49 49/102/49
f 39/83/50 51/147/61 50/101/50
f 54/90/52 57/106/53 58/104/53
f 55/13/54 56/112/54 54/105/54
f 34/98/46 58/104/53 57/106/53
f 53/107/55 52/115/55 44/1/55
f 59/109/56 60/127/56 41/15/56
f 61/47/57 62/148/57 60/110/57
f 55/13/58 62/128/58 61/111/58
f 58/113/59 34/146/59 36/84/59
o DarkLightBrudger2
v 0.130000 0.130001 -0.500000
v 0.000000 0.000001 -0.600000
v -0.130000 0.130001 -0.500000
v 0.130000 -0.129999 -0.500000
v -0.130000 -0.129999 -0.500000
v 0.130000 -0.500000 1.130000
v 0.000000 -0.600000 1.000000
v 0.130000 -0.500000 0.870000
v -0.130000 -0.500000 1.130000
v -0.130000 -0.500000 0.870000
v 0.500000 -0.129999 -0.130000
v 0.600000 0.000001 0.000000
v 0.500000 -0.129999 0.130000
v 0.500000 0.130001 -0.130000
v 0.500000 0.130001 0.130000
v 0.130000 -0.499999 -0.130000
v 0.000000 -0.599999 -0.000000
v -0.130000 -0.499999 -0.130000
v 0.130000 -0.499999 0.130000
v -0.130000 -0.499999 0.130000
v -0.500000 0.130001 -0.130000
v -0.600000 0.000001 0.000000
v -0.500000 0.130001 0.130000
v -0.500000 -0.129999 -0.130000
v -0.500000 -0.129999 0.130000
vt 0.935187 0.247583
vt 0.906703 0.219100
vt 0.878220 0.247583
vt 0.935187 0.190617
vt 0.878220 0.190617
vt 0.935187 0.247583
vt 0.906703 0.219100
vt 0.935187 0.190617
vt 0.878220 0.247583
vt 0.878220 0.190617
vt 0.878220 0.190617
vt 0.906703 0.219100
vt 0.878220 0.247583
vt 0.935187 0.190617
vt 0.935187 0.247583
vt 0.935187 0.190617
vt 0.906703 0.219100
vt 0.878220 0.190617
vt 0.935187 0.247583
vt 0.878220 0.247583
vt 0.935187 0.190617
vt 0.906703 0.219100
vt 0.935187 0.247583
vt 0.878220 0.190617
vt 0.878220 0.247583
vn 0.0000 0.6097 -0.7926
vn 0.6097 0.0000 -0.7926
vn 0.0000 -0.6097 -0.7926
vn -0.6097 0.0000 -0.7926
vn 0.6097 -0.7926 0.0000
vn 0.0000 -0.7926 0.6097
vn -0.6097 -0.7926 0.0000
vn 0.0000 -0.7926 -0.6097
vn 0.7926 -0.6097 -0.0000
vn 0.7926 0.0000 -0.6097
vn 0.7926 0.6097 0.0000
vn 0.7926 -0.0000 0.6097
vn -0.7926 0.6097 0.0000
vn -0.7926 0.0000 -0.6097
vn -0.7926 -0.6097 -0.0000
vn -0.7926 -0.0000 0.6097
usemtl Color_M03.001
s 1
f 63/149/62 64/150/62 65/151/62
f 66/152/63 64/150/63 63/149/63
f 64/150/64 66/152/64 67/153/64
f 64/150/65 67/153/65 65/151/65
f 68/154/66 69/155/66 70/156/66
f 69/155/67 68/154/67 71/157/67
f 69/155/68 71/157/68 72/158/68
f 69/155/69 72/158/69 70/156/69
f 73/159/70 74/160/70 75/161/70
f 74/160/71 73/159/71 76/162/71
f 74/160/72 76/162/72 77/163/72
f 75/161/73 74/160/73 77/163/73
f 78/164/69 79/165/69 80/166/69
f 79/165/66 78/164/66 81/167/66
f 82/168/67 79/165/67 81/167/67
f 80/166/68 79/165/68 82/168/68
f 83/169/74 84/170/74 85/171/74
f 84/170/75 83/169/75 86/172/75
f 84/170/76 86/172/76 87/173/76
f 87/173/77 85/171/77 84/170/77
