# Blender v2.90.1 OBJ File: ''
# www.blender.org
v 0.376660 -0.079748 -0.134540
v 0.441322 0.040252 -0.048534
v 0.441322 -0.079748 -0.048534
v 0.367828 0.280252 0.018878
v 0.367828 0.280252 -0.018878
v 0.342600 0.280252 -0.052432
v -0.441322 -0.079748 0.048534
v -0.441322 0.040252 -0.048534
v -0.441322 -0.079748 -0.048534
v 0.376660 -0.079748 0.134538
v 0.168780 0.040252 0.134538
v -0.168780 0.040252 0.134538
v -0.376660 -0.079748 0.134538
v -0.441322 0.040252 0.048534
v -0.376660 0.040252 -0.134538
v -0.376660 -0.079748 -0.134540
v 0.441322 0.040252 0.048534
v 0.441322 -0.079748 0.048534
v 0.376660 0.040252 0.134538
v -0.168780 0.040252 -0.134538
v 0.168780 0.040252 -0.134540
v -0.257952 0.280252 0.052432
v -0.257952 0.280252 -0.052432
v -0.342600 0.280252 -0.052432
v -0.151132 0.107394 0.111540
v 0.151132 0.107394 -0.111540
v -0.151132 0.107394 -0.111540
v 0.362024 0.290252 -0.100040
v 0.451722 0.090252 -0.052690
v 0.381538 0.090252 -0.146038
v -0.362024 0.290252 -0.100038
v -0.451722 0.090252 -0.052690
v -0.410122 0.290252 -0.036066
v -0.210380 0.290252 -0.100038
v -0.381538 0.090252 -0.146038
v -0.362024 0.290252 0.100040
v -0.451722 0.090252 0.052690
v -0.381538 0.090252 0.146038
v 0.362024 0.290252 0.100040
v 0.451722 0.090252 0.052690
v 0.410122 0.290252 0.036066
v 0.210380 0.290252 0.100040
v 0.381538 0.090252 0.146038
v 0.410122 0.290252 -0.036066
v -0.410122 0.290252 0.036066
v 0.210380 0.290252 -0.100040
v 0.168780 0.090252 -0.146038
v -0.210380 0.290252 0.100040
v -0.168780 0.090252 0.146038
v -0.183864 0.264758 -0.071648
v 0.183864 0.264756 -0.071648
v 0.151132 0.107394 0.111540
v 0.183864 0.264758 0.071648
v 0.168384 0.088348 -0.123040
v -0.168780 0.090252 -0.146038
v -0.168382 0.088348 -0.123038
v -0.168382 0.088348 0.123040
v 0.168780 0.090252 0.146038
v 0.168384 0.088348 0.123038
v -0.206300 0.270640 0.081112
v 0.206300 0.270640 0.081112
v 0.206300 0.270640 -0.081112
v -0.206300 0.270640 -0.081112
v -0.183864 0.264758 0.071648
v 0.346502 0.290252 -0.061632
v -0.346502 0.290252 -0.061632
v -0.376146 0.290252 -0.022204
v -0.249632 0.290252 -0.061632
v -0.346502 0.290252 0.061632
v 0.346502 0.290252 0.061632
v 0.376148 0.290252 0.022204
v 0.249632 0.290252 0.061632
v 0.376148 0.290252 -0.022204
v -0.376146 0.290252 0.022204
v 0.249632 0.290252 -0.061632
v -0.249632 0.290252 0.061632
v -0.367826 0.280252 -0.018878
v -0.342600 0.280252 0.052432
v 0.342600 0.280252 0.052432
v 0.257952 0.280252 0.052432
v -0.367826 0.280252 0.018878
v 0.257952 0.280252 -0.052432
v 0.451722 -0.089748 -0.052690
v 0.381538 -0.309748 -0.146040
v 0.381538 -0.089748 -0.146040
v -0.381538 -0.089748 -0.146038
v -0.451722 -0.309748 -0.052690
v -0.451722 -0.089748 -0.052690
v -0.381538 -0.309748 -0.146040
v -0.451722 -0.089748 0.052690
v -0.381538 -0.309748 0.146038
v -0.381538 -0.089748 0.146038
v 0.451722 -0.089748 0.052690
v 0.381538 -0.309748 0.146038
v 0.451722 -0.309748 0.052690
v 0.381538 -0.089748 0.146038
v 0.451722 -0.309748 -0.052690
v -0.451722 -0.309748 0.052690
v 0.381538 0.050252 -0.146040
v 0.451722 0.050252 -0.052690
v -0.451722 0.050252 -0.052690
v -0.381538 0.050252 -0.146038
v -0.168780 0.050252 -0.146038
v -0.381538 0.050252 0.146038
v -0.451722 0.050252 0.052690
v 0.381538 0.050252 0.146038
v 0.168780 0.050252 0.146038
v 0.451722 0.050252 0.052690
v 0.168780 0.050252 -0.146038
v -0.168780 0.050252 0.146038
v 0.376660 0.040252 -0.134540
v -0.376660 0.040252 0.134540
vt 0.502396 0.193171
vt 0.523587 0.167025
vt 0.523587 0.193171
vt 0.185430 0.745080
vt 0.170610 0.745080
vt 0.157440 0.756029
vt 0.304991 0.193171
vt 0.323382 0.167025
vt 0.323382 0.193171
vt 0.563168 0.193171
vt 0.606720 0.167025
vt 0.677439 0.167025
vt 0.283800 0.193171
vt 0.304991 0.167025
vt 0.344573 0.167025
vt 0.344573 0.193171
vt 0.541978 0.167025
vt 0.541978 0.193171
vt 0.563168 0.167025
vt 0.388125 0.167025
vt 0.458844 0.167025
vt 0.157440 0.792769
vt 0.198600 0.792769
vt 0.198600 0.756029
vt 0.417884 0.329471
vt 0.468803 0.295486
vt 0.417884 0.295486
vt 0.259100 0.824253
vt 0.186877 0.839121
vt 0.186877 0.809809
vt 0.259100 0.824253
vt 0.186877 0.839121
vt 0.259100 0.844342
vt 0.122264 0.919454
vt 0.062834 0.847231
vt 0.069609 0.919454
vt 0.259100 0.887080
vt 0.186877 0.872212
vt 0.186877 0.901524
vt 0.259100 0.887080
vt 0.186877 0.872212
vt 0.259100 0.866992
vt 0.268361 0.919454
vt 0.327791 0.847231
vt 0.321016 0.919454
vt 0.259100 0.844342
vt 0.259100 0.866992
vt 0.268361 0.919454
vt 0.327791 0.847231
vt 0.253917 0.847231
vt 0.122264 0.919454
vt 0.062834 0.847231
vt 0.136709 0.847231
vt 0.469824 0.301563
vt 0.442255 0.329471
vt 0.442255 0.295486
vt 0.469824 0.301563
vt 0.442255 0.329471
vt 0.469824 0.323393
vt 0.253779 0.817031
vt 0.136709 0.809809
vt 0.136846 0.817031
vt 0.136846 0.894302
vt 0.253917 0.901524
vt 0.253779 0.894302
vt 0.252018 0.881137
vt 0.259100 0.824253
vt 0.259100 0.887080
vt 0.252018 0.881137
vt 0.259100 0.824253
vt 0.252018 0.830197
vt 0.252018 0.830197
vt 0.186877 0.809809
vt 0.186877 0.901524
vt 0.259100 0.887080
vt 0.186877 0.809809
vt 0.186189 0.817031
vt 0.186877 0.901524
vt 0.186189 0.894302
vt 0.468803 0.311389
vt 0.414979 0.308052
vt 0.417884 0.311389
vt 0.417884 0.311389
vt 0.471709 0.308052
vt 0.468803 0.311389
vt 0.412371 0.301563
vt 0.408591 0.324835
vt 0.412371 0.323393
vt 0.474317 0.323393
vt 0.478097 0.300122
vt 0.474317 0.301563
vt 0.408591 0.339989
vt 0.412371 0.338958
vt 0.478097 0.339989
vt 0.474317 0.338958
vt 0.478097 0.339989
vt 0.471709 0.308052
vt 0.408591 0.339989
vt 0.414979 0.308052
vt 0.317628 0.831476
vt 0.337717 0.844342
vt 0.321016 0.824253
vt 0.072997 0.831476
vt 0.052908 0.844342
vt 0.060131 0.846952
vt 0.115042 0.831476
vt 0.069609 0.824253
vt 0.072997 0.879858
vt 0.052908 0.866992
vt 0.069609 0.887080
vt 0.317628 0.879858
vt 0.337717 0.866992
vt 0.330494 0.864382
vt 0.275583 0.879858
vt 0.321016 0.887080
vt 0.330494 0.846952
vt 0.060131 0.864382
vt 0.275583 0.831476
vt 0.268361 0.824253
vt 0.115042 0.879858
vt 0.122264 0.887080
vt 0.122264 0.824253
vt 0.268361 0.887080
vt 0.251877 0.835087
vt 0.259100 0.846952
vt 0.259100 0.831476
vt 0.251877 0.835087
vt 0.259100 0.846952
vt 0.251877 0.848257
vt 0.111431 0.912232
vt 0.072997 0.919454
vt 0.074691 0.912232
vt 0.251877 0.876247
vt 0.259100 0.864382
vt 0.259100 0.879858
vt 0.251877 0.876247
vt 0.259100 0.864382
vt 0.251877 0.863077
vt 0.279194 0.912232
vt 0.317628 0.919454
vt 0.315934 0.912232
vt 0.251877 0.848257
vt 0.251877 0.863077
vt 0.279194 0.912232
vt 0.317628 0.919454
vt 0.275583 0.919454
vt 0.111431 0.912232
vt 0.072997 0.919454
vt 0.115042 0.919454
vt 0.251877 0.876247
vt 0.259100 0.831476
vt 0.251877 0.835087
vt 0.251877 0.876247
vt 0.259100 0.831476
vt 0.259100 0.879858
vt 0.121877 0.839121
vt 0.042433 0.809809
vt 0.121877 0.809809
vt 0.121877 0.809809
vt 0.042433 0.839121
vt 0.121877 0.839121
vt 0.327791 0.782231
vt 0.062834 0.702787
vt 0.062834 0.782231
vt 0.121877 0.872212
vt 0.042433 0.901524
vt 0.121877 0.901524
vt 0.121877 0.872212
vt 0.042433 0.901524
vt 0.042433 0.872212
vt 0.062834 0.782231
vt 0.327791 0.702787
vt 0.327791 0.782231
vt 0.042433 0.839121
vt 0.042433 0.872212
vt 0.172433 0.809809
vt 0.172433 0.839121
vt 0.172433 0.839121
vt 0.186877 0.809809
vt 0.172433 0.809809
vt 0.062834 0.832787
vt 0.136709 0.847231
vt 0.136709 0.832787
vt 0.172433 0.901524
vt 0.172433 0.872212
vt 0.172433 0.901524
vt 0.186877 0.901524
vt 0.327791 0.832787
vt 0.253917 0.847231
vt 0.253917 0.832787
vt 0.172433 0.872212
vt 0.253917 0.832787
vt 0.327791 0.832787
vt 0.136709 0.832787
vt 0.062834 0.832787
vt 0.326097 0.813420
vt 0.352161 0.839121
vt 0.327791 0.809809
vt 0.064528 0.813420
vt 0.038464 0.839121
vt 0.042075 0.840426
vt 0.326097 0.785842
vt 0.064528 0.785842
vt 0.064528 0.897913
vt 0.038464 0.872212
vt 0.062834 0.901524
vt 0.326097 0.897913
vt 0.352161 0.872212
vt 0.348550 0.870907
vt 0.064528 0.785842
vt 0.326097 0.785842
vt 0.348550 0.840426
vt 0.042075 0.870907
vt 0.326097 0.813420
vt 0.352161 0.839121
vt 0.348550 0.840426
vt 0.064528 0.813420
vt 0.038464 0.839121
vt 0.062834 0.809809
vt 0.064528 0.829176
vt 0.136709 0.829176
vt 0.064528 0.897913
vt 0.038464 0.872212
vt 0.042075 0.870907
vt 0.326097 0.897913
vt 0.352161 0.872212
vt 0.327791 0.901524
vt 0.326097 0.829176
vt 0.253917 0.829176
vt 0.348550 0.870907
vt 0.042075 0.840426
vt 0.326097 0.829176
vt 0.253917 0.829176
vt 0.064528 0.829176
vt 0.136709 0.829176
vt 0.502396 0.167025
vt 0.157440 0.792769
vt 0.198600 0.792769
vt 0.198600 0.756029
vt 0.720991 0.167025
vt 0.720991 0.193171
vt 0.283800 0.167025
vt 0.185430 0.745080
vt 0.170610 0.745080
vt 0.157440 0.756029
vt 0.468803 0.329471
vt 0.321016 0.919454
vt 0.069609 0.919454
vt 0.469824 0.323393
vt 0.442255 0.295486
vt 0.253917 0.809809
vt 0.136709 0.901524
vt 0.186189 0.817031
vt 0.186189 0.894302
vt 0.408591 0.300122
vt 0.478097 0.324835
vt 0.474317 0.338958
vt 0.412371 0.338958
vt 0.259100 0.831476
vt 0.115042 0.919454
vt 0.259100 0.879858
vt 0.275583 0.919454
vt 0.315934 0.912232
vt 0.074691 0.912232
vt 0.259100 0.879858
vt 0.251877 0.835087
vt 0.042433 0.809809
vt 0.327791 0.702787
vt 0.121877 0.901524
vt 0.062834 0.702787
vt 0.062834 0.809809
vt 0.327791 0.901524
vt 0.327791 0.809809
vt 0.062834 0.901524
vn 0.7993 0.0000 -0.6009
vn 0.0000 1.0000 0.0000
vn -1.0000 -0.0000 -0.0000
vn -0.0000 0.0000 1.0000
vn -0.7993 -0.0000 0.6009
vn -0.7993 0.0000 -0.6009
vn 1.0000 0.0000 0.0000
vn 0.7993 0.0000 0.6009
vn -0.0000 0.0000 -1.0000
vn 0.7812 0.2113 -0.5874
vn 0.7949 0.1043 -0.5977
vn 0.7951 0.1020 -0.5978
vn -0.7812 0.2113 -0.5874
vn -0.7949 0.1043 -0.5977
vn 0.0000 0.2241 -0.9746
vn 0.0000 0.1093 -0.9940
vn -0.7812 0.2113 0.5874
vn -0.7949 0.1043 0.5977
vn -0.7951 0.1020 0.5978
vn 0.7812 0.2113 0.5874
vn 0.7949 0.1043 0.5977
vn -0.0000 0.2241 0.9746
vn -0.0000 0.1093 0.9940
vn 0.9790 0.2036 0.0000
vn 0.9950 0.0996 0.0000
vn -0.9790 0.2036 -0.0000
vn -0.9950 0.0996 -0.0000
vn 0.0000 0.0685 -0.9977
vn -0.0000 0.0685 0.9977
vn -0.0000 0.9966 0.0825
vn -0.0000 0.9966 -0.0825
vn 0.9790 0.2037 0.0000
vn -0.9790 0.2037 0.0000
vn 0.9790 0.2037 -0.0001
vn 0.9790 0.2037 0.0001
vn -0.1607 0.4041 -0.9005
vn 0.1559 0.4032 -0.9017
vn 0.1607 0.4041 -0.9005
vn 0.1607 0.4041 0.9005
vn -0.1559 0.4032 0.9018
vn -0.1607 0.4041 0.9005
vn 0.2536 0.9673 0.0000
vn -0.2536 0.9673 -0.0000
vn -0.2537 0.9673 -0.0000
vn 0.4240 0.3024 -0.8537
vn 0.4369 0.3054 -0.8461
vn -0.4240 0.3024 0.8537
vn -0.4369 0.3054 0.8461
vn -0.4240 0.3024 -0.8537
vn -0.1560 0.4032 -0.9017
vn 0.4240 0.3024 0.8537
vn 0.1560 0.4032 0.9017
vn -0.6046 0.6541 0.4546
vn -0.7053 0.6668 0.2407
vn 0.6046 0.6541 0.4546
vn 0.7053 0.6668 0.2407
vn 0.7094 0.6665 0.2293
vn -0.0000 0.6771 0.7359
vn 0.6046 0.6541 -0.4546
vn 0.7053 0.6668 -0.2407
vn -0.6046 0.6541 -0.4546
vn -0.7053 0.6668 -0.2407
vn -0.7094 0.6665 -0.2293
vn -0.0000 0.6771 -0.7359
vn -0.7094 0.6665 0.2293
vn 0.7094 0.6665 -0.2293
vn -0.7687 0.6396 0.0000
vn 0.7687 0.6396 0.0000
vn -0.7951 0.1020 -0.5978
vn 0.7951 0.1020 0.5978
vn 0.5428 0.7341 -0.4081
vn 0.6307 0.7455 -0.2156
vn -0.5428 0.7340 -0.4081
vn -0.6307 0.7455 -0.2156
vn -0.6349 0.7451 -0.2042
vn -0.0000 0.7546 -0.6562
vn -0.0000 0.7545 -0.6562
vn -0.5428 0.7341 0.4081
vn -0.6307 0.7455 0.2156
vn 0.5428 0.7341 0.4081
vn 0.6307 0.7455 0.2156
vn 0.6349 0.7451 0.2042
vn -0.0000 0.7546 0.6562
vn 0.6349 0.7451 -0.2042
vn -0.6349 0.7451 0.2042
vn 0.5428 -0.7341 -0.4081
vn 0.6307 -0.7455 -0.2156
vn 0.6349 -0.7451 -0.2042
vn -0.5428 -0.7341 -0.4081
vn -0.6307 -0.7455 -0.2156
vn 0.0000 -0.7546 -0.6562
vn -0.5428 -0.7340 0.4081
vn -0.6307 -0.7455 0.2156
vn -0.6349 -0.7451 0.2042
vn 0.5428 -0.7341 0.4081
vn 0.6307 -0.7455 0.2156
vn 0.0000 -0.7546 0.6562
vn 0.6349 -0.7451 0.2042
vn -0.6349 -0.7451 -0.2042
vn -0.0000 -0.7545 -0.6562
vn 0.0000 -0.7545 0.6562
vn -0.4370 0.3054 -0.8461
vn 0.4369 0.3054 0.8461
s 1
f 1/1/1 2/2/1 3/3/1
f 4/4/2 5/5/2 6/6/2
f 7/7/3 8/8/3 9/9/3
f 10/10/4 11/11/4 12/12/4
f 13/13/5 14/14/5 7/7/5
f 9/9/6 15/15/6 16/16/6
f 3/3/7 17/17/7 18/18/7
f 10/10/8 17/17/8 19/19/8
f 16/16/9 20/20/9 21/21/9
f 22/22/2 23/23/2 24/24/2
f 25/25/2 26/26/2 27/27/2
f 28/28/10 29/29/11 30/30/12
f 31/31/13 32/32/14 33/33/13
f 34/34/15 35/35/16 31/36/15
f 36/37/17 37/38/18 38/39/19
f 39/40/20 40/41/21 41/42/20
f 42/43/22 43/44/23 39/45/22
f 41/42/24 29/29/25 44/46/24
f 33/33/26 37/38/27 45/47/26
f 46/48/15 30/49/16 47/50/28
f 48/51/22 38/52/23 49/53/29
f 50/54/24 25/55/24 27/56/24
f 51/57/26 52/58/26 53/59/26
f 54/60/30 55/61/30 56/62/30
f 57/63/31 58/64/31 59/65/31
f 60/66/32 34/67/32 48/68/32
f 61/69/33 46/70/33 62/71/33
f 63/72/32 55/73/34 34/67/32
f 61/69/33 58/74/26 42/75/33
f 62/71/33 47/76/26 54/77/26
f 60/66/32 49/78/35 57/79/35
f 26/80/36 56/81/37 27/82/38
f 25/83/39 59/84/40 52/85/41
f 50/86/42 60/87/42 64/88/42
f 53/89/43 62/90/44 51/91/44
f 27/82/38 63/92/45 50/93/46
f 52/85/41 61/94/47 53/95/48
f 26/80/36 62/96/49 54/97/50
f 25/83/39 60/98/51 57/99/52
f 65/100/2 44/101/2 28/102/2
f 66/103/2 33/104/2 67/105/2
f 68/106/2 31/107/2 66/103/2
f 69/108/2 45/109/2 36/110/2
f 70/111/2 41/112/2 71/113/2
f 72/114/2 39/115/2 70/111/2
f 71/113/2 44/101/2 73/116/2
f 67/105/2 45/109/2 74/117/2
f 75/118/2 28/102/2 46/119/2
f 76/120/2 36/110/2 48/121/2
f 76/120/2 34/122/2 68/106/2
f 75/118/2 42/123/2 72/114/2
f 6/124/53 73/125/54 65/126/53
f 24/127/55 67/128/56 77/129/57
f 23/130/58 66/131/58 24/132/58
f 78/133/59 74/134/60 69/135/59
f 79/136/61 71/137/62 4/138/63
f 80/139/64 70/140/64 79/141/64
f 4/138/63 73/125/54 5/142/65
f 77/129/57 74/134/60 81/143/66
f 82/144/58 65/145/58 75/146/58
f 22/147/64 69/148/64 76/149/64
f 22/150/67 68/151/67 23/152/67
f 80/153/68 75/154/68 72/155/68
f 83/156/1 84/157/1 85/158/1
f 86/159/6 87/160/6 88/161/6
f 85/162/9 89/163/9 86/164/9
f 90/165/5 91/166/5 92/167/5
f 93/168/8 94/169/8 95/170/8
f 92/171/4 94/172/4 96/173/4
f 93/168/7 97/174/7 83/156/7
f 88/161/3 98/175/3 90/165/3
f 99/176/1 29/29/11 100/177/1
f 101/178/6 35/179/69 102/180/6
f 102/181/9 55/182/28 103/183/9
f 104/184/5 37/38/18 105/185/5
f 106/186/8 40/41/21 43/187/70
f 106/188/4 58/189/29 107/190/4
f 100/177/7 40/41/25 108/191/7
f 105/185/3 32/32/27 101/178/3
f 109/192/9 30/49/16 99/193/9
f 103/183/9 47/50/28 109/192/9
f 110/194/4 38/52/23 104/195/4
f 107/190/4 49/53/29 110/194/4
f 1/196/71 83/197/72 85/198/71
f 16/199/73 88/200/74 9/201/75
f 1/202/76 86/164/77 16/203/77
f 13/204/78 90/205/79 92/206/78
f 10/207/80 93/208/81 18/209/82
f 13/210/83 96/173/83 10/211/83
f 18/209/82 83/197/72 3/212/84
f 9/201/75 90/205/79 7/213/85
f 111/214/86 100/215/87 2/216/88
f 15/217/89 101/218/90 102/219/89
f 15/220/91 103/183/91 20/221/91
f 112/222/92 105/223/93 14/224/94
f 19/225/95 108/226/96 106/227/95
f 19/228/97 107/190/97 11/229/97
f 2/216/88 108/226/96 17/230/98
f 14/224/94 101/218/90 8/231/99
f 111/232/91 109/192/91 99/193/91
f 20/221/91 109/192/91 21/233/100
f 112/234/97 110/194/97 104/195/101
f 11/229/97 110/194/97 12/235/97
f 1/1/1 111/236/1 2/2/1
f 6/6/2 82/237/2 80/238/2
f 80/238/2 79/239/2 6/6/2
f 79/239/2 4/4/2 6/6/2
f 7/7/3 14/14/3 8/8/3
f 112/240/4 13/241/4 12/12/4
f 13/241/4 10/10/4 12/12/4
f 10/10/4 19/19/4 11/11/4
f 13/13/5 112/242/5 14/14/5
f 9/9/6 8/8/6 15/15/6
f 3/3/7 2/2/7 17/17/7
f 10/10/8 18/18/8 17/17/8
f 111/236/9 1/1/9 21/21/9
f 1/1/9 16/16/9 21/21/9
f 16/16/9 15/15/9 20/20/9
f 24/24/2 77/243/2 81/244/2
f 81/244/2 78/245/2 24/24/2
f 78/245/2 22/22/2 24/24/2
f 25/25/2 52/246/2 26/26/2
f 28/28/10 44/46/10 29/29/11
f 31/31/13 35/179/69 32/32/14
f 34/34/15 55/182/28 35/35/16
f 36/37/17 45/47/17 37/38/18
f 39/40/20 43/187/70 40/41/21
f 42/43/22 58/189/29 43/44/23
f 41/42/24 40/41/25 29/29/25
f 33/33/26 32/32/27 37/38/27
f 46/48/15 28/247/15 30/49/16
f 48/51/22 36/248/22 38/52/23
f 50/54/24 64/249/24 25/55/24
f 51/57/26 26/250/26 52/58/26
f 54/60/30 47/251/30 55/61/30
f 57/63/31 49/252/31 58/64/31
f 60/66/32 63/72/32 34/67/32
f 61/69/33 42/75/33 46/70/33
f 63/72/32 56/253/34 55/73/34
f 61/69/33 59/254/26 58/74/26
f 62/71/33 46/70/33 47/76/26
f 60/66/32 48/68/32 49/78/35
f 26/80/36 54/97/50 56/81/37
f 25/83/39 57/99/52 59/84/40
f 50/86/42 63/255/42 60/87/42
f 53/89/43 61/256/43 62/90/44
f 27/82/38 56/81/37 63/92/45
f 52/85/41 59/84/40 61/94/47
f 26/80/36 51/257/102 62/96/49
f 25/83/39 64/258/103 60/98/51
f 65/100/2 73/116/2 44/101/2
f 66/103/2 31/107/2 33/104/2
f 68/106/2 34/122/2 31/107/2
f 69/108/2 74/117/2 45/109/2
f 70/111/2 39/115/2 41/112/2
f 72/114/2 42/123/2 39/115/2
f 71/113/2 41/112/2 44/101/2
f 67/105/2 33/104/2 45/109/2
f 75/118/2 65/100/2 28/102/2
f 76/120/2 69/108/2 36/110/2
f 76/120/2 48/121/2 34/122/2
f 75/118/2 46/119/2 42/123/2
f 6/124/53 5/142/65 73/125/54
f 24/127/55 66/259/55 67/128/56
f 23/130/58 68/260/58 66/131/58
f 78/133/59 81/143/66 74/134/60
f 79/136/61 70/261/61 71/137/62
f 80/139/64 72/262/64 70/140/64
f 4/138/63 71/137/62 73/125/54
f 77/129/57 67/128/56 74/134/60
f 82/144/58 6/263/58 65/145/58
f 22/147/64 78/264/64 69/148/64
f 22/150/67 76/265/67 68/151/67
f 80/153/68 82/266/68 75/154/68
f 83/156/1 97/174/1 84/157/1
f 86/159/6 89/267/6 87/160/6
f 85/162/9 84/268/9 89/163/9
f 90/165/5 98/175/5 91/166/5
f 93/168/8 96/269/8 94/169/8
f 92/171/4 91/270/4 94/172/4
f 93/168/7 95/170/7 97/174/7
f 88/161/3 87/160/3 98/175/3
f 99/176/1 30/30/12 29/29/11
f 101/178/6 32/32/14 35/179/69
f 102/181/9 35/35/16 55/182/28
f 104/184/5 38/39/19 37/38/18
f 106/186/8 108/191/8 40/41/21
f 106/188/4 43/44/23 58/189/29
f 100/177/7 29/29/25 40/41/25
f 105/185/3 37/38/27 32/32/27
f 109/192/9 47/50/28 30/49/16
f 103/183/9 55/182/28 47/50/28
f 110/194/4 49/53/29 38/52/23
f 107/190/4 58/189/29 49/53/29
f 1/196/71 3/212/84 83/197/72
f 16/199/73 86/271/73 88/200/74
f 1/202/76 85/162/76 86/164/77
f 13/204/78 7/213/85 90/205/79
f 10/207/80 96/272/80 93/208/81
f 13/210/83 92/171/83 96/173/83
f 18/209/82 93/208/81 83/197/72
f 9/201/75 88/200/74 90/205/79
f 111/214/86 99/273/86 100/215/87
f 15/217/89 8/231/99 101/218/90
f 15/220/91 102/181/91 103/183/91
f 112/222/92 104/274/92 105/223/93
f 19/225/95 17/230/98 108/226/96
f 19/228/97 106/188/97 107/190/97
f 2/216/88 100/215/87 108/226/96
f 14/224/94 105/223/93 101/218/90
f 111/232/91 21/233/100 109/192/91
f 20/221/91 103/183/91 109/192/91
f 112/234/97 12/235/97 110/194/97
f 11/229/97 107/190/97 110/194/97
