# Blender v2.82 (sub 7) OBJ File: 'TACBendpointRemaster.blend'
# www.blender.org
mtllib TACBendpointSingleRemaster.mtl
o Solid1.011
v 0.300000 0.000000 -0.175000
v 0.300000 -0.000000 0.175000
v 0.300000 -0.425000 -0.175000
v 0.300000 -0.425000 0.175000
v 0.175000 0.000000 -0.300000
v 0.175000 -0.425000 -0.300000
v -0.175000 0.000000 -0.300000
v -0.175000 -0.425000 -0.300000
v -0.300000 0.000000 -0.175000
v -0.300000 -0.425000 -0.175000
v 0.175000 -0.000000 0.300000
v 0.175000 -0.425000 0.300000
v -0.175000 -0.000000 0.300000
v -0.175000 -0.425000 0.300000
v -0.300000 -0.000000 0.175000
v -0.300000 -0.425000 0.175000
v 0.225000 -0.500000 -0.143934
v 0.225000 -0.500000 0.143934
v 0.143934 -0.500000 -0.225000
v -0.143934 -0.500000 -0.225000
v 0.143934 -0.500000 0.225000
v -0.225000 -0.500000 -0.143934
v -0.143934 -0.500000 0.225000
v -0.225000 -0.500000 0.143934
vt 0.441300 0.608500
vt 0.443400 0.608500
vt 0.441300 0.611000
vt 0.443400 0.611000
vt 0.441100 0.612100
vt 0.440100 0.612100
vt 0.441100 0.609600
vt 0.440100 0.609600
vt 0.441300 0.608500
vt 0.443400 0.608500
vt 0.441300 0.611000
vt 0.443400 0.611000
vt 0.441100 0.612100
vt 0.440100 0.612100
vt 0.441100 0.609600
vt 0.440100 0.609600
vt 0.441100 0.612100
vt 0.440100 0.612100
vt 0.441100 0.609600
vt 0.440100 0.609600
vt 0.441300 0.608500
vt 0.443400 0.608500
vt 0.441300 0.611000
vt 0.443400 0.611000
vt 0.441100 0.612100
vt 0.440100 0.612100
vt 0.441100 0.609600
vt 0.440100 0.609600
vt 0.441300 0.608500
vt 0.443400 0.608500
vt 0.441300 0.611000
vt 0.443400 0.611000
vt 0.436300 0.610300
vt 0.438400 0.610300
vt 0.435600 0.611000
vt 0.439100 0.611000
vt 0.435600 0.613100
vt 0.439100 0.613100
vt 0.436300 0.613900
vt 0.438400 0.613900
vt 0.441400 0.611600
vt 0.439700 0.611600
vt 0.441900 0.611200
vt 0.441900 0.609400
vt 0.439300 0.611200
vt 0.441400 0.609000
vt 0.439300 0.609400
vt 0.439700 0.609000
vt 0.441100 0.610600
vt 0.440100 0.610600
vt 0.440900 0.610000
vt 0.440300 0.610000
vt 0.440700 0.610600
vt 0.438700 0.610600
vt 0.440600 0.610000
vt 0.438900 0.610000
vt 0.441100 0.610600
vt 0.440100 0.610600
vt 0.440900 0.610000
vt 0.440300 0.610000
vt 0.440700 0.610600
vt 0.438700 0.610600
vt 0.440600 0.610000
vt 0.438900 0.610000
vt 0.441100 0.610600
vt 0.440100 0.610600
vt 0.440900 0.610000
vt 0.440300 0.610000
vt 0.438900 0.610000
vt 0.440600 0.610000
vt 0.438700 0.610600
vt 0.440700 0.610600
vt 0.438900 0.610000
vt 0.440600 0.610000
vt 0.438700 0.610600
vt 0.440700 0.610600
vt 0.440300 0.610000
vt 0.440900 0.610000
vt 0.440100 0.610600
vt 0.441100 0.610600
vn 1.0000 0.0000 0.0000
vn 0.7071 0.0000 -0.7071
vn 0.0000 0.0000 -1.0000
vn -0.7071 0.0000 -0.7071
vn 0.7071 -0.0000 0.7071
vn 0.0000 -0.0000 1.0000
vn -0.7071 -0.0000 0.7071
vn -1.0000 -0.0000 0.0000
vn 0.0000 1.0000 0.0000
vn 0.0000 -1.0000 -0.0000
vn 0.5000 -0.7071 0.5000
vn 0.0000 -0.7071 0.7071
vn -0.5000 -0.7071 0.5000
vn -0.7071 -0.7071 -0.0000
vn -0.5000 -0.7071 -0.5000
vn 0.0000 -0.7071 -0.7071
vn 0.7071 -0.7071 -0.0000
vn 0.5000 -0.7071 -0.5000
usemtl 191,191,191.010
s 1
f 1/1/1 2/2/1 3/3/1
f 3/3/1 2/2/1 4/4/1
f 5/5/2 1/6/2 6/7/2
f 6/7/2 1/6/2 3/8/2
f 7/9/3 5/10/3 8/11/3
f 8/11/3 5/10/3 6/12/3
f 9/13/4 7/14/4 10/15/4
f 10/15/4 7/14/4 8/16/4
f 2/17/5 11/18/5 4/19/5
f 4/19/5 11/18/5 12/20/5
f 11/21/6 13/22/6 12/23/6
f 12/23/6 13/22/6 14/24/6
f 13/25/7 15/26/7 14/27/7
f 14/27/7 15/26/7 16/28/7
f 15/29/8 9/30/8 16/31/8
f 16/31/8 9/30/8 10/32/8
f 13/33/9 11/34/9 15/35/9
f 15/35/9 11/34/9 2/36/9
f 15/35/9 2/36/9 9/37/9
f 9/37/9 2/36/9 1/38/9
f 9/37/9 1/38/9 7/39/9
f 7/39/9 1/38/9 5/40/9
f 17/41/10 18/42/10 19/43/10
f 19/43/10 18/42/10 20/44/10
f 20/44/10 18/42/10 21/45/10
f 20/44/10 21/45/10 22/46/10
f 22/46/10 21/45/10 23/47/10
f 22/46/10 23/47/10 24/48/10
f 4/49/11 12/50/11 18/51/11
f 18/51/11 12/50/11 21/52/11
f 12/53/12 14/54/12 21/55/12
f 21/55/12 14/54/12 23/56/12
f 14/57/13 16/58/13 23/59/13
f 23/59/13 16/58/13 24/60/13
f 16/61/14 10/62/14 24/63/14
f 24/63/14 10/62/14 22/64/14
f 10/65/15 8/66/15 22/67/15
f 22/67/15 8/66/15 20/68/15
f 19/69/16 20/70/16 6/71/16
f 6/71/16 20/70/16 8/72/16
f 18/73/17 17/74/17 4/75/17
f 4/75/17 17/74/17 3/76/17
f 17/77/18 19/78/18 3/79/18
f 3/79/18 19/78/18 6/80/18
