# Blender v2.82 (sub 7) OBJ File: 'RCSBlockAlt.blend'
# www.blender.org
mtllib RCSBlockAlt.mtl
o TAC_RCSBlock_v3
v -0.100000 0.675000 0.041421
v -0.100000 0.675000 -0.041421
v -0.140000 0.715000 0.057990
v -0.140000 0.715000 -0.057990
v -0.041421 0.675000 -0.100000
v -0.057990 0.715000 -0.140000
v 0.041421 0.675000 -0.100000
v 0.057990 0.715000 -0.140000
v 0.140000 0.715000 -0.057990
v 0.100000 0.675000 -0.041421
v 0.140000 0.715000 0.057990
v 0.100000 0.675000 0.041421
v 0.057990 0.715000 0.140000
v 0.041421 0.675000 0.100000
v -0.057990 0.715000 0.140000
v -0.041421 0.675000 0.100000
v 0.140000 0.750000 0.057990
v 0.057990 0.750000 0.140000
v -0.057990 0.750000 0.140000
v -0.140000 0.750000 0.057990
v -0.140000 0.750000 -0.057990
v -0.057990 0.750000 -0.140000
v 0.140000 0.750000 -0.057990
v 0.057990 0.750000 -0.140000
v 0.100000 0.250000 0.250000
v -0.100000 0.250000 0.250000
v 0.100000 0.200000 0.300000
v -0.100000 0.200000 0.300000
v 0.100000 0.250000 0.300000
v 0.373146 0.250000 0.300000
v 0.375000 0.246966 0.300000
v 0.375000 0.000000 0.300000
v -0.375000 0.000000 0.300000
v -0.375000 0.246966 0.300000
v -0.373146 0.250000 0.300000
v -0.100000 0.250000 0.300000
v -0.100000 0.250000 -0.250000
v 0.100000 0.250000 -0.250000
v -0.100000 0.200000 -0.300000
v 0.100000 0.200000 -0.300000
v -0.100000 0.250000 -0.300000
v -0.373146 0.250000 -0.300000
v -0.375000 0.246966 -0.300000
v -0.375000 0.000000 -0.300000
v 0.375000 0.000000 -0.300000
v 0.375000 0.246966 -0.300000
v 0.373146 0.250000 -0.300000
v 0.100000 0.250000 -0.300000
v -0.300000 0.250000 0.100000
v -0.300000 0.250000 -0.100000
v -0.400000 0.150000 0.200000
v -0.400000 0.150000 -0.200000
v -0.400000 0.250000 0.274573
v -0.400000 0.250000 0.200000
v -0.400000 0.249262 0.275000
v -0.400000 0.000000 0.275000
v -0.400000 0.000000 -0.275000
v -0.400000 0.249262 -0.275000
v -0.400000 0.250000 -0.200000
v -0.400000 0.250000 -0.274573
v 0.400000 0.150000 -0.200000
v 0.300000 0.250000 -0.100000
v 0.400000 0.150000 0.200000
v 0.300000 0.250000 0.100000
v 0.400000 0.250000 -0.274573
v 0.400000 0.250000 -0.200000
v 0.400000 0.249262 -0.275000
v 0.400000 0.000000 -0.275000
v 0.400000 0.000000 0.275000
v 0.400000 0.249262 0.275000
v 0.400000 0.250000 0.200000
v 0.400000 0.250000 0.274573
v 0.191833 0.738604 -0.188901
v 0.209285 0.726788 -0.179215
v 0.182951 0.725485 -0.204903
v 0.300000 0.500000 -0.100000
v 0.250000 0.625000 -0.100000
v 0.209285 0.726788 -0.059285
v 0.175000 0.750000 -0.175000
v 0.200000 0.733074 -0.050000
v 0.175000 0.750000 0.175000
v 0.200000 0.733074 0.050000
v 0.209285 0.726788 0.059285
v 0.209285 0.726788 0.179215
v 0.191833 0.738604 0.188901
v 0.054903 0.725485 -0.204903
v 0.050000 0.729505 -0.200000
v -0.050000 0.729505 -0.200000
v -0.175000 0.750000 -0.175000
v -0.054903 0.725485 -0.204903
v -0.182951 0.725485 -0.204903
v -0.191833 0.738604 -0.188901
v -0.209285 0.726788 -0.179215
v -0.100000 0.500000 -0.250000
v -0.050000 0.250000 -0.200000
v 0.050000 0.250000 -0.200000
v 0.100000 0.500000 -0.250000
v -0.175000 0.750000 0.175000
v 0.050000 0.729505 0.200000
v 0.182951 0.725485 0.204903
v 0.054903 0.725485 0.204903
v -0.050000 0.729505 0.200000
v -0.182951 0.725485 0.204903
v -0.054903 0.725485 0.204903
v 0.200000 0.250000 -0.050000
v 0.250000 0.250000 -0.100000
v 0.100000 0.500000 0.250000
v -0.209285 0.726788 0.179215
v -0.209285 0.726788 -0.059285
v -0.200000 0.733074 -0.050000
v -0.200000 0.733074 0.050000
v -0.209285 0.726788 0.059285
v -0.200000 0.250000 0.050000
v -0.200000 0.250000 -0.050000
v -0.250000 0.625000 -0.100000
v -0.250000 0.250000 -0.100000
v -0.300000 0.500000 -0.100000
v 0.250000 0.625000 0.100000
v 0.300000 0.500000 0.100000
v 0.050000 0.250000 0.200000
v -0.050000 0.250000 0.200000
v -0.100000 0.500000 0.250000
v -0.250000 0.625000 0.100000
v -0.250000 0.250000 0.100000
v -0.300000 0.500000 0.100000
v 0.200000 0.250000 0.050000
v 0.250000 0.250000 0.100000
vt 0.432852 0.615461
vt 0.432852 0.615485
vt 0.432835 0.615456
vt 0.432835 0.615490
vt 0.432848 0.615457
vt 0.432862 0.615477
vt 0.432851 0.615490
vt 0.432840 0.615456
vt 0.432864 0.615456
vt 0.432835 0.615473
vt 0.432869 0.615473
vt 0.432865 0.615449
vt 0.432845 0.615476
vt 0.432849 0.615443
vt 0.432835 0.615463
vt 0.432852 0.615473
vt 0.432835 0.615468
vt 0.432852 0.615439
vt 0.432835 0.615444
vt 0.432855 0.615467
vt 0.432839 0.615472
vt 0.432836 0.615439
vt 0.432825 0.615453
vt 0.432818 0.615456
vt 0.432852 0.615456
vt 0.432823 0.615473
vt 0.432852 0.615466
vt 0.432838 0.615486
vt 0.630695 0.560451
vt 0.630661 0.560451
vt 0.630695 0.560441
vt 0.630661 0.560441
vt 0.630661 0.560451
vt 0.630661 0.560441
vt 0.630661 0.560451
vt 0.630661 0.560441
vt 0.630661 0.560451
vt 0.630661 0.560441
vt 0.095731 0.164181
vt 0.112284 0.164181
vt 0.095731 0.171046
vt 0.112284 0.171046
vt 0.100584 0.175899
vt 0.107449 0.175899
vt 0.100584 0.159328
vt 0.107449 0.159328
vt 0.630661 0.560451
vt 0.630661 0.560441
vt 0.630695 0.560451
vt 0.630695 0.560441
vt 0.630695 0.560451
vt 0.630695 0.560441
vt 0.630782 0.560451
vt 0.630724 0.560451
vt 0.630782 0.560431
vt 0.630724 0.560431
vt 0.630841 0.560514
vt 0.630841 0.560499
vt 0.630921 0.560514
vt 0.630921 0.560513
vt 0.630921 0.560441
vt 0.630782 0.560499
vt 0.630702 0.560441
vt 0.630702 0.560513
vt 0.630703 0.560514
vt 0.630782 0.560514
vt 0.630607 0.560431
vt 0.630666 0.560431
vt 0.630607 0.560451
vt 0.630666 0.560451
vt 0.630841 0.560514
vt 0.630841 0.560499
vt 0.630921 0.560514
vt 0.630921 0.560513
vt 0.630921 0.560441
vt 0.630782 0.560499
vt 0.630702 0.560441
vt 0.630702 0.560513
vt 0.630703 0.560514
vt 0.630782 0.560514
vt 0.630716 0.560368
vt 0.630716 0.560426
vt 0.630674 0.560339
vt 0.630674 0.560456
vt 0.630863 0.560514
vt 0.630841 0.560514
vt 0.630863 0.560514
vt 0.630841 0.560485
vt 0.630863 0.560441
vt 0.630702 0.560441
vt 0.630702 0.560514
vt 0.630724 0.560514
vt 0.630702 0.560514
vt 0.630716 0.560543
vt 0.630674 0.560514
vt 0.630716 0.560426
vt 0.630674 0.560456
vt 0.630863 0.560514
vt 0.630841 0.560514
vt 0.630863 0.560514
vt 0.630841 0.560485
vt 0.630863 0.560441
vt 0.630724 0.560485
vt 0.630702 0.560441
vt 0.630702 0.560514
vt 0.630724 0.560514
vt 0.630702 0.560514
vt 0.630622 0.560436
vt 0.630695 0.560436
vt 0.630623 0.560446
vt 0.630583 0.560412
vt 0.630588 0.560408
vt 0.630585 0.560418
vt 0.630736 0.560446
vt 0.630736 0.560446
vt 0.630545 0.560406
vt 0.630695 0.560412
vt 0.630616 0.560383
vt 0.630577 0.560383
vt 0.630545 0.560371
vt 0.630695 0.560452
vt 0.630689 0.560448
vt 0.630701 0.560449
vt 0.630701 0.560414
vt 0.630698 0.560412
vt 0.630689 0.560346
vt 0.630698 0.560383
vt 0.630701 0.560380
vt 0.630701 0.560345
vt 0.630695 0.560342
vt 0.630809 0.560440
vt 0.630807 0.560447
vt 0.630804 0.560435
vt 0.630769 0.560447
vt 0.630768 0.560445
vt 0.630739 0.560445
vt 0.630702 0.560435
vt 0.630737 0.560447
vt 0.630700 0.560447
vt 0.630697 0.560440
vt 0.630695 0.560446
vt 0.630767 0.560446
vt 0.630768 0.560436
vt 0.630833 0.560406
vt 0.630831 0.560412
vt 0.630827 0.560402
vt 0.630683 0.560449
vt 0.630679 0.560439
vt 0.630679 0.560439
vt 0.630682 0.560449
vt 0.630578 0.560521
vt 0.630578 0.560361
vt 0.630585 0.560528
vt 0.630585 0.560353
vt 0.630804 0.560353
vt 0.630804 0.560528
vt 0.630812 0.560361
vt 0.630812 0.560521
vt 0.630695 0.560528
vt 0.630769 0.560528
vt 0.630836 0.560504
vt 0.630836 0.560542
vt 0.630841 0.560431
vt 0.630841 0.560451
vt 0.630680 0.560447
vt 0.630651 0.560587
vt 0.630680 0.560587
vt 0.630688 0.560433
vt 0.630549 0.560431
vt 0.630622 0.560451
vt 0.630549 0.560451
vt 0.630836 0.560574
vt 0.630836 0.560611
vt 0.630769 0.560587
vt 0.630695 0.560667
vt 0.630695 0.560587
vt 0.630688 0.560447
vt 0.630585 0.560447
vt 0.630693 0.560441
vt 0.630651 0.560437
vt 0.630690 0.560435
vt 0.630653 0.560435
vt 0.630622 0.560437
vt 0.630583 0.560435
vt 0.630620 0.560435
vt 0.630678 0.560482
vt 0.630644 0.560492
vt 0.630654 0.560458
vt 0.630736 0.560458
vt 0.630746 0.560492
vt 0.630712 0.560482
vt 0.630731 0.560451
vt 0.630841 0.560431
vt 0.630841 0.560451
vt 0.630695 0.560436
vt 0.630623 0.560436
vt 0.630622 0.560446
vt 0.630557 0.560476
vt 0.630559 0.560470
vt 0.630563 0.560480
vt 0.630706 0.560432
vt 0.630710 0.560443
vt 0.630711 0.560442
vt 0.630707 0.560432
vt 0.630695 0.560353
vt 0.630620 0.560353
vt 0.630553 0.560378
vt 0.630553 0.560340
vt 0.630701 0.560432
vt 0.630707 0.560442
vt 0.630695 0.560441
vt 0.630695 0.560540
vt 0.630689 0.560537
vt 0.630701 0.560536
vt 0.630689 0.560502
vt 0.630692 0.560499
vt 0.630692 0.560470
vt 0.630689 0.560467
vt 0.630768 0.560446
vt 0.630695 0.560446
vt 0.630767 0.560436
vt 0.630805 0.560463
vt 0.630801 0.560473
vt 0.630658 0.560426
vt 0.630654 0.560436
vt 0.630653 0.560436
vt 0.630657 0.560426
vt 0.630651 0.560446
vt 0.630680 0.560446
vt 0.630651 0.560587
vt 0.630680 0.560587
vt 0.630688 0.560434
vt 0.630549 0.560431
vt 0.630658 0.560451
vt 0.630549 0.560451
vt 0.630695 0.560609
vt 0.630773 0.560558
vt 0.630845 0.560581
vt 0.630813 0.560558
vt 0.630845 0.560546
vt 0.630695 0.560587
vt 0.630545 0.560336
vt 0.630545 0.560301
vt 0.630577 0.560324
vt 0.630616 0.560324
vt 0.630695 0.560295
vt 0.630695 0.560273
vt 0.630689 0.560451
vt 0.630549 0.560451
vt 0.630549 0.560431
vt 0.630680 0.560447
vt 0.630651 0.560587
vt 0.630680 0.560587
vt 0.630702 0.560449
vt 0.630768 0.560431
vt 0.630701 0.560451
vt 0.630841 0.560451
vt 0.630841 0.560431
vt 0.630680 0.560514
vt 0.630680 0.560587
vt 0.630666 0.560587
vt 0.630666 0.560601
vt 0.432814 0.615465
vt 0.432873 0.615465
vt 0.432829 0.615479
vt 0.432858 0.615479
vt 0.630680 0.560514
vt 0.630695 0.560587
vt 0.630680 0.560587
vt 0.630695 0.560601
vt 0.630549 0.560451
vt 0.630688 0.560447
vt 0.630658 0.560431
vt 0.630549 0.560431
vt 0.630680 0.560477
vt 0.630680 0.560587
vt 0.630666 0.560514
vt 0.630666 0.560587
vt 0.432858 0.615494
vt 0.432843 0.615494
vt 0.432873 0.615479
vt 0.432843 0.615435
vt 0.432873 0.615450
vt 0.432858 0.615435
vt 0.630695 0.560514
vt 0.630680 0.560587
vt 0.630695 0.560587
vt 0.630651 0.560587
vt 0.630680 0.560587
vt 0.630731 0.560431
vt 0.630700 0.560451
vt 0.630841 0.560451
vt 0.630841 0.560431
vt 0.630680 0.560477
vt 0.630695 0.560514
vt 0.630680 0.560587
vt 0.630695 0.560587
vt 0.432873 0.615465
vt 0.432814 0.615465
vt 0.432858 0.615450
vt 0.432829 0.615450
vt 0.630680 0.560514
vt 0.630680 0.560587
vt 0.630695 0.560601
vt 0.630680 0.560514
vt 0.630680 0.560587
vt 0.630666 0.560587
vt 0.630666 0.560601
vt 0.630680 0.560587
vt 0.630666 0.560514
vt 0.630666 0.560587
vt 0.630654 0.560587
vt 0.630654 0.560616
vt 0.630695 0.560587
vt 0.630695 0.560616
vt 0.432829 0.615435
vt 0.432843 0.615435
vt 0.432814 0.615479
vt 0.432843 0.615494
vt 0.432829 0.615494
vt 0.432814 0.615450
vt 0.630695 0.560616
vt 0.630654 0.560587
vt 0.630654 0.560616
vt 0.630553 0.560308
vt 0.630553 0.560271
vt 0.630620 0.560295
vt 0.630695 0.560215
vt 0.630695 0.560295
vt 0.630845 0.560511
vt 0.630813 0.560499
vt 0.630773 0.560499
vt 0.630695 0.560470
vn 0.7071 0.7071 0.0000
vn 0.5000 0.7071 0.5000
vn 0.0000 0.7071 0.7071
vn -0.5000 0.7071 0.5000
vn -0.7071 0.7071 0.0000
vn -0.5000 0.7071 -0.5000
vn 0.0000 0.7071 -0.7071
vn 0.5000 0.7071 -0.5000
vn -0.7071 0.0000 -0.7071
vn 0.0000 0.0000 -1.0000
vn 0.7071 0.0000 -0.7071
vn 1.0000 0.0000 0.0000
vn 0.0000 1.0000 0.0000
vn 0.7071 0.0000 0.7071
vn -1.0000 0.0000 0.0000
vn -0.7071 0.0000 0.7071
vn 0.0000 0.0000 1.0000
vn 0.6338 0.3874 -0.6694
vn 0.6339 0.3874 -0.6694
vn 0.6339 0.3874 -0.6695
vn 0.6339 0.3873 -0.6695
vn 0.9285 0.3714 0.0000
vn 0.5606 0.8281 0.0000
vn -0.0000 0.7733 -0.6340
vn -0.6338 0.3874 -0.6694
vn -0.6339 0.3874 -0.6694
vn -0.6339 0.3873 -0.6695
vn 0.0000 -1.0000 0.0000
vn 0.0000 0.1961 -0.9806
vn 0.0000 0.7733 0.6340
vn 0.6338 0.3874 0.6694
vn 0.6339 0.3874 0.6694
vn 0.6339 0.3873 0.6695
vn 0.0000 0.1961 0.9806
vn -0.4450 0.7469 0.4940
vn -0.5606 0.8281 0.0000
vn -0.6338 0.3874 0.6694
vn -0.6339 0.3874 0.6694
vn -0.6339 0.3874 0.6695
vn -0.6339 0.3873 0.6695
vn -0.9285 0.3714 0.0000
usemtl Steel_-_Satin
s 1
f 1/1/1 2/2/1 3/3/1
f 3/3/1 2/2/1 4/4/1
f 2/5/2 5/6/2 4/4/2
f 4/4/2 5/6/2 6/7/2
f 5/8/3 7/9/3 6/10/3
f 6/10/3 7/9/3 8/11/3
f 9/12/4 8/13/4 10/14/4
f 10/14/4 8/13/4 7/15/4
f 9/16/5 10/17/5 11/18/5
f 11/18/5 10/17/5 12/19/5
f 11/20/6 12/21/6 13/22/6
f 13/22/6 12/21/6 14/23/6
f 15/24/7 13/25/7 16/26/7
f 16/26/7 13/25/7 14/23/7
f 15/24/8 16/27/8 3/3/8
f 3/3/8 16/27/8 1/28/8
f 11/29/9 13/30/9 17/31/9
f 17/31/9 13/30/9 18/32/9
f 13/30/10 15/33/10 18/32/10
f 18/32/10 15/33/10 19/34/10
f 15/33/11 3/35/11 19/34/11
f 19/34/11 3/35/11 20/36/11
f 3/35/12 4/37/12 20/36/12
f 20/36/12 4/37/12 21/38/12
f 1/39/13 12/40/13 2/41/13
f 2/41/13 12/40/13 10/42/13
f 2/41/13 10/42/13 5/43/13
f 5/43/13 10/42/13 7/44/13
f 16/45/13 14/46/13 1/39/13
f 1/39/13 14/46/13 12/40/13
f 4/37/14 6/47/14 21/38/14
f 21/38/14 6/47/14 22/48/14
f 9/49/15 11/29/15 23/50/15
f 23/50/15 11/29/15 17/31/15
f 8/51/16 9/49/16 24/52/16
f 24/52/16 9/49/16 23/50/16
f 6/47/17 8/51/17 22/48/17
f 22/48/17 8/51/17 24/52/17
f 25/53/3 26/54/3 27/55/3
f 27/55/3 26/54/3 28/56/3
f 29/57/17 27/58/17 30/59/17
f 30/59/17 27/58/17 31/60/17
f 31/60/17 27/58/17 32/61/17
f 32/61/17 27/58/17 28/62/17
f 32/61/17 28/62/17 33/63/17
f 33/63/17 28/62/17 34/64/17
f 34/64/17 28/62/17 35/65/17
f 35/65/17 28/62/17 36/66/17
f 37/67/7 38/68/7 39/69/7
f 39/69/7 38/68/7 40/70/7
f 41/71/10 39/72/10 42/73/10
f 42/73/10 39/72/10 43/74/10
f 43/74/10 39/72/10 44/75/10
f 44/75/10 39/72/10 40/76/10
f 44/75/10 40/76/10 45/77/10
f 45/77/10 40/76/10 46/78/10
f 46/78/10 40/76/10 47/79/10
f 47/79/10 40/76/10 48/80/10
f 49/81/5 50/82/5 51/83/5
f 51/83/5 50/82/5 52/84/5
f 53/85/15 54/86/15 55/87/15
f 55/87/15 54/86/15 51/88/15
f 55/87/15 51/88/15 56/89/15
f 56/89/15 51/88/15 52/84/15
f 56/89/15 52/84/15 57/90/15
f 57/90/15 52/84/15 58/91/15
f 58/91/15 52/84/15 59/92/15
f 58/91/15 59/92/15 60/93/15
f 61/94/1 62/95/1 63/96/1
f 63/96/1 62/95/1 64/97/1
f 65/98/12 66/99/12 67/100/12
f 67/100/12 66/99/12 61/101/12
f 67/100/12 61/101/12 68/102/12
f 68/102/12 61/101/12 63/103/12
f 68/102/12 63/103/12 69/104/12
f 69/104/12 63/103/12 70/105/12
f 70/105/12 63/103/12 71/106/12
f 70/105/12 71/106/12 72/107/12
f 67/108/11 68/109/11 46/110/11
f 46/110/11 68/109/11 45/77/11
f 73/111/18 74/112/18 75/113/18
f 75/113/18 74/112/18 47/79/19
f 47/79/19 74/112/18 65/114/19
f 47/79/19 65/114/19 67/115/20
f 67/115/20 46/78/21 47/79/19
f 65/114/22 74/116/22 66/117/22
f 66/117/22 74/116/22 76/118/22
f 76/118/22 74/116/22 77/119/22
f 77/119/22 74/116/22 78/120/22
f 73/121/23 79/122/23 74/123/23
f 74/123/23 79/122/23 78/124/23
f 78/124/23 79/122/23 80/125/23
f 80/125/23 79/122/23 81/126/23
f 80/125/23 81/126/23 82/127/23
f 82/127/23 81/126/23 83/128/23
f 83/128/23 81/126/23 84/129/23
f 84/129/23 81/126/23 85/130/23
f 73/131/24 75/132/24 79/133/24
f 79/133/24 75/132/24 86/134/24
f 79/133/24 86/134/24 87/135/24
f 87/135/24 88/136/24 79/133/24
f 79/133/24 88/136/24 89/137/24
f 89/137/24 88/136/24 90/138/24
f 89/137/24 90/138/24 91/139/24
f 91/139/24 92/140/24 89/137/24
f 44/141/9 57/90/9 43/142/9
f 43/142/9 57/90/9 58/143/9
f 92/144/25 91/145/25 93/146/25
f 93/146/25 91/145/25 42/147/26
f 93/146/25 42/147/26 60/148/26
f 60/148/26 42/147/26 58/149/27
f 58/149/27 42/147/26 43/150/27
f 68/151/28 69/152/28 45/153/28
f 45/153/28 69/152/28 32/154/28
f 45/153/28 32/154/28 33/155/28
f 45/153/28 33/155/28 44/156/28
f 44/156/28 33/155/28 56/157/28
f 44/156/28 56/157/28 57/158/28
f 41/159/29 42/147/29 94/160/29
f 94/160/29 42/147/29 91/161/29
f 94/160/29 91/161/29 90/162/29
f 90/138/11 88/136/11 94/160/11
f 94/160/11 88/136/11 95/163/11
f 94/160/11 95/163/11 37/164/11
f 88/136/10 87/165/10 95/166/10
f 95/166/10 87/165/10 96/167/10
f 87/165/9 86/168/9 96/169/9
f 96/169/9 86/168/9 97/170/9
f 96/169/9 97/170/9 38/171/9
f 86/172/29 75/173/29 97/174/29
f 97/174/29 75/173/29 47/175/29
f 97/174/29 47/175/29 48/176/29
f 81/177/30 98/178/30 85/179/30
f 85/179/30 98/178/30 99/180/30
f 85/179/30 99/180/30 100/181/30
f 100/181/30 99/180/30 101/182/30
f 99/180/30 98/178/30 102/183/30
f 102/183/30 98/178/30 103/184/30
f 102/183/30 103/184/30 104/185/30
f 22/186/13 89/187/13 21/188/13
f 21/188/13 89/187/13 98/178/13
f 21/188/13 98/178/13 20/36/13
f 20/36/13 98/178/13 19/34/13
f 19/34/13 98/178/13 81/177/13
f 19/34/13 81/177/13 18/32/13
f 18/32/13 81/177/13 17/31/13
f 17/31/13 81/177/13 23/189/13
f 23/189/13 81/177/13 79/190/13
f 23/189/13 79/190/13 24/191/13
f 24/191/13 79/190/13 89/187/13
f 24/191/13 89/187/13 22/186/13
f 78/124/14 80/125/14 77/192/14
f 77/192/14 80/125/14 105/193/14
f 77/192/14 105/193/14 106/194/14
f 32/195/14 69/104/14 31/196/14
f 31/196/14 69/104/14 70/197/14
f 85/198/31 100/199/31 84/200/31
f 84/200/31 100/199/31 30/201/32
f 84/200/31 30/201/32 72/202/32
f 72/202/32 30/201/32 70/203/33
f 70/203/33 30/201/32 31/204/33
f 29/205/34 30/201/34 107/206/34
f 107/206/34 30/201/34 100/207/34
f 107/206/34 100/207/34 101/208/34
f 103/209/35 98/210/35 108/211/35
f 92/212/36 93/213/36 89/214/36
f 89/214/36 93/213/36 109/215/36
f 89/214/36 109/215/36 110/216/36
f 89/214/36 110/216/36 98/210/36
f 98/210/36 110/216/36 111/217/36
f 98/210/36 111/217/36 112/218/36
f 112/218/36 108/211/36 98/210/36
f 55/219/16 56/220/16 34/221/16
f 34/221/16 56/220/16 33/63/16
f 103/222/37 108/223/37 35/224/38
f 35/224/38 108/223/37 53/225/38
f 35/224/38 53/225/38 55/226/39
f 55/226/39 34/227/40 35/224/38
f 111/228/15 110/229/15 113/230/15
f 113/230/15 110/229/15 114/231/15
f 110/229/16 109/232/16 114/233/16
f 114/233/16 109/232/16 115/234/16
f 114/233/16 115/234/16 116/235/16
f 60/236/41 117/237/41 93/238/41
f 93/238/41 117/237/41 115/239/41
f 93/238/41 115/239/41 109/240/41
f 60/236/41 59/241/41 117/237/41
f 83/242/22 84/243/22 118/244/22
f 118/244/22 84/243/22 119/245/22
f 119/245/22 84/243/22 71/246/22
f 71/246/22 84/243/22 72/247/22
f 99/248/16 120/249/16 101/182/16
f 101/182/16 120/249/16 107/206/16
f 107/206/16 120/249/16 25/250/16
f 99/180/17 102/251/17 120/252/17
f 120/252/17 102/251/17 121/253/17
f 104/254/14 122/255/14 102/256/14
f 102/256/14 122/255/14 121/257/14
f 121/257/14 122/255/14 26/258/14
f 107/259/15 25/260/15 29/261/15
f 29/261/15 25/260/15 27/262/15
f 26/263/13 25/264/13 121/265/13
f 121/265/13 25/264/13 120/266/13
f 122/267/12 36/268/12 26/269/12
f 26/269/12 36/268/12 28/270/12
f 111/217/9 113/271/9 112/272/9
f 112/272/9 113/271/9 123/273/9
f 123/273/9 113/271/9 124/274/9
f 123/275/10 124/276/10 125/277/10
f 125/277/10 124/276/10 49/278/10
f 116/279/13 50/280/13 114/281/13
f 114/281/13 50/280/13 49/282/13
f 114/281/13 49/282/13 113/283/13
f 113/283/13 49/282/13 124/284/13
f 115/234/17 117/285/17 116/286/17
f 116/286/17 117/285/17 50/287/17
f 80/125/12 82/127/12 105/288/12
f 105/288/12 82/127/12 126/289/12
f 83/128/11 118/290/11 82/291/11
f 82/291/11 118/290/11 126/292/11
f 126/292/11 118/290/11 127/293/11
f 118/294/10 119/295/10 127/296/10
f 127/296/10 119/295/10 64/297/10
f 38/298/13 37/299/13 96/300/13
f 96/300/13 37/299/13 95/301/13
f 97/302/15 48/176/15 38/303/15
f 38/303/15 48/176/15 40/304/15
f 94/305/12 37/306/12 41/307/12
f 41/307/12 37/306/12 39/308/12
f 77/192/17 106/309/17 76/310/17
f 76/310/17 106/309/17 62/311/17
f 76/310/14 62/311/14 66/312/14
f 66/312/14 62/311/14 61/313/14
f 119/295/11 71/314/11 64/297/11
f 64/297/11 71/314/11 63/315/11
f 127/316/13 64/317/13 105/318/13
f 105/318/13 64/317/13 62/319/13
f 105/318/13 62/319/13 106/320/13
f 105/318/13 126/321/13 127/316/13
f 117/285/16 59/241/16 50/287/16
f 50/287/16 59/241/16 52/322/16
f 125/277/9 49/278/9 54/323/9
f 54/323/9 49/278/9 51/324/9
f 104/325/34 103/326/34 122/327/34
f 122/327/34 103/326/34 35/328/34
f 122/327/34 35/328/34 36/329/34
f 112/330/41 123/331/41 108/223/41
f 108/223/41 123/331/41 125/332/41
f 108/223/41 125/332/41 53/225/41
f 53/225/41 125/332/41 54/333/41
