# Blender v2.90.1 OBJ File: ''
# www.blender.org
mtllib OS_Arm1.mtl
o OS__Arm_1_m_GC_SCU_454_Arms_A_Instance.003
v 1.406057 0.216503 0.000000
v 1.443166 0.179393 0.000000
v 1.443166 -0.179393 -0.000001
v 1.406057 -0.216502 -0.000001
v 1.349410 -0.216502 -0.000001
v 1.312301 -0.179393 -0.000001
v 1.312300 0.179393 0.000000
v 1.349409 0.216503 0.000000
v -0.011833 0.216502 0.742302
v -0.048942 0.179393 0.742302
v -0.048942 -0.179393 0.742302
v -0.011833 -0.216502 0.742302
v 0.044814 -0.216502 0.742302
v 0.081923 -0.179393 0.742302
v 0.081923 0.179393 0.742302
v 0.044814 0.216502 0.742302
v 1.312300 -0.179393 0.742302
v 1.312300 0.179393 0.742302
v 0.081923 -0.179393 -0.000001
v 0.081923 0.179393 -0.000001
v -0.048942 0.179393 0.000000
v -0.048942 -0.179393 -0.000001
v 1.406057 -0.216502 0.742302
v 1.349409 -0.216502 0.742302
v 1.406057 0.216502 0.742302
v 1.349409 0.216502 0.742302
v 1.443166 -0.179393 0.742302
v 1.443166 0.179393 0.742302
v -0.011833 -0.216502 -0.000001
v 0.044814 -0.216502 -0.000001
v 0.044814 0.216503 -0.000001
v -0.011833 0.216503 0.000000
vt 0.511828 0.615236
vt 0.515307 0.615236
vt 0.532125 0.615236
vt 0.535604 0.615236
vt 0.538259 0.615236
vt 0.537208 0.615236
vt 0.510224 0.615236
vt 0.509173 0.615236
vt 0.511828 0.574013
vt 0.515307 0.574013
vt 0.532125 0.574013
vt 0.535604 0.574013
vt 0.538259 0.574013
vt 0.537208 0.574013
vt 0.510224 0.574013
vt 0.509173 0.574013
vt 0.541738 0.615236
vt 0.541738 0.574013
vt 0.558555 0.574013
vt 0.558555 0.615236
vt 0.541738 0.615236
vt 0.558555 0.615236
vt 0.558555 0.574013
vt 0.541738 0.574013
vt 0.515307 0.615236
vt 0.532125 0.615236
vt 0.535604 0.574013
vt 0.538259 0.574013
vt 0.511828 0.574013
vt 0.509173 0.574013
vt 0.510224 0.574013
vt 0.537208 0.574013
vt 0.532125 0.574013
vt 0.515307 0.574013
vt 0.535604 0.615236
vt 0.538259 0.615236
vt 0.509173 0.615236
vt 0.511828 0.615236
vt 0.507434 0.574013
vt 0.507434 0.615236
vt 0.560295 0.574013
vt 0.560295 0.615236
vt 0.510224 0.615236
vt 0.537208 0.615236
vn 0.2971 0.7173 -0.6303
vn 0.7173 0.2971 -0.6303
vn 0.7173 -0.2971 -0.6303
vn 0.2971 -0.7173 -0.6303
vn -0.2971 -0.7173 -0.6303
vn -0.7173 -0.2971 -0.6303
vn -0.7173 0.2971 -0.6303
vn -0.2971 0.7173 -0.6303
vn -0.2971 0.7173 0.6303
vn -0.7173 0.2971 0.6303
vn -0.7173 -0.2971 0.6303
vn -0.2971 -0.7173 0.6303
vn 0.2971 -0.7173 0.6303
vn 0.7173 -0.2971 0.6303
vn 0.7173 0.2971 0.6303
vn 0.2971 0.7173 0.6303
usemtl Material.004
s 1
f 1/1/1 2/2/2 3/3/3 4/4/4 5/5/5 6/6/6 7/7/7 8/8/8
f 9/9/9 10/10/10 11/11/11 12/12/12 13/13/13 14/14/14 15/15/15 16/16/16
f 6/17/6 17/18/11 18/19/10 7/20/7
f 19/21/3 20/22/2 15/23/15 14/24/14
f 11/11/11 10/10/10 21/25/7 22/26/6
f 23/27/13 24/28/12 5/5/5 4/4/4
f 25/29/16 1/1/1 8/8/8 26/30/9
f 26/30/9 18/31/10 17/32/11 24/28/12 23/27/13 27/33/14 28/34/15 25/29/16
f 27/33/14 3/3/3 2/2/2 28/34/15
f 12/12/12 29/35/5 30/36/4 13/13/13
f 9/9/9 16/16/16 31/37/1 32/38/8
f 21/25/7 10/10/10 9/9/9 32/38/8
f 31/37/1 16/16/16 15/39/15 20/40/2
f 19/21/3 14/24/14 13/13/13 30/36/4
f 11/11/11 22/26/6 29/35/5 12/12/12
f 7/20/7 18/19/10 26/41/9 8/42/8
f 28/34/15 2/2/2 1/1/1 25/29/16
f 3/3/3 27/33/14 23/27/13 4/4/4
f 5/5/5 24/28/12 17/18/11 6/17/6
f 21/25/7 32/38/8 31/37/1 20/43/2 19/44/3 30/36/4 29/35/5 22/26/6
