# Blender v2.90.1 OBJ File: ''
# www.blender.org
mtllib OS_Large_Hatch.mtl
o Large_Hatch_Hatch_Large_Cube.005
v -0.941413 3.007843 -0.482649
v -0.941413 2.625807 -0.482649
v -0.941413 2.625807 1.442474
v -0.941413 3.007843 1.442474
v -0.817451 3.101751 -0.482647
v -0.563497 3.101751 1.442474
v -0.563497 3.101751 -0.482647
v 0.941413 2.051722 -0.482650
v 0.941413 1.395332 1.442473
v 0.941413 1.693470 -0.482650
v 0.563497 3.101751 1.442474
v 0.817451 3.101751 -0.482647
v 0.563497 3.101751 -0.482647
v -0.463766 3.101751 -0.482647
v 0.463766 3.101751 1.442474
v 0.463766 3.101751 -0.482647
v -0.941413 2.051722 -0.482650
v -0.941413 1.395332 1.442473
v -0.941413 2.051722 1.442473
v -0.817451 3.101751 1.442474
v 0.941413 2.051722 1.442473
v 0.817451 3.101751 1.442474
v -0.463766 3.101751 1.442474
v -0.941413 1.693470 -0.482650
v 0.892610 2.533489 1.442474
v 0.892610 2.533489 -0.482649
v 0.892610 2.625807 -0.482649
v 0.892610 2.625807 1.442474
v 0.941413 3.007843 -0.482649
v 0.941413 3.007843 1.442474
v 0.941413 2.625807 1.442474
v 0.941413 2.625807 -0.482649
v -0.941413 2.533489 -0.482649
v -0.941413 2.151453 -0.482650
v -0.941413 2.151453 1.442473
v -0.941413 2.533489 1.442474
v 0.941413 2.533489 -0.482649
v 0.941413 2.533489 1.442474
v 0.941413 2.151453 1.442473
v 0.941413 2.151453 -0.482650
v -0.892610 2.533489 -0.482649
v -0.892610 2.533489 1.442474
v -0.892610 2.625807 1.442474
v -0.892610 2.625807 -0.482649
v 0.987971 3.007843 1.442474
v -0.987971 3.007843 -0.482649
v -0.987971 3.098010 1.532640
v -0.896699 3.098010 1.625023
v -0.896699 3.190392 1.532640
v -0.987971 3.098010 -0.572815
v -0.896699 3.190392 -0.572813
v -0.896699 3.098010 -0.665198
v 0.987971 3.098010 1.532640
v 0.896699 3.190392 1.532640
v 0.896699 3.098010 1.625023
v -0.987971 1.693470 -0.482650
v 0.662841 2.908661 -0.665448
v 0.849306 2.909852 1.624748
v 0.662841 2.908661 1.624772
v 0.987971 3.098010 -0.572815
v 0.896699 3.098010 -0.665198
v 0.896699 3.190392 -0.572813
v -0.876486 2.051722 -0.482650
v -0.876486 2.151453 1.442473
v -0.876486 2.151453 -0.482650
v 0.463766 3.051218 1.442474
v -0.987971 1.395332 1.442473
v 0.876486 2.151453 1.442473
v 0.876486 2.051722 1.442473
v 0.876486 2.151453 -0.482650
v 0.563497 3.051218 -0.482647
v -0.463766 3.051218 1.442474
v -0.896699 1.305166 1.625021
v -0.987971 1.305166 1.532639
v 0.987971 1.395332 1.442473
v 0.987971 1.693470 -0.482650
v 0.987971 3.007843 -0.482649
v -0.987971 3.007843 1.442474
v 0.364420 2.907395 -0.665421
v 0.364420 2.907395 1.624799
v -0.364420 2.907395 1.624799
v -0.364420 2.907395 -0.665421
v 0.861641 1.603304 -0.665199
v 0.861641 1.305166 1.625022
v -0.817451 3.190392 1.442474
v -0.463766 3.051218 -0.482647
v 0.987971 1.603304 -0.572816
v 0.563497 3.051218 1.442474
v 0.463766 3.051218 -0.482647
v -0.563497 3.051218 -0.482647
v -0.563497 3.051218 1.442474
v -0.876486 2.051722 1.442473
v 0.896699 1.603304 -0.665199
v -0.861641 1.305166 1.625022
v -0.662841 2.908661 1.624772
v 0.817451 3.190392 1.442474
v 0.817451 3.190392 -0.482647
v -0.817451 3.190392 -0.482647
v -0.896699 1.603304 -0.665199
v -0.987971 1.603304 -0.572816
v 0.876486 2.051722 -0.482650
v -0.861641 1.603304 -0.665199
v -0.849306 2.909852 1.624748
v -0.662841 2.908661 -0.665448
v 0.896699 1.305166 1.625021
v 0.849306 2.909852 -0.665473
v 0.987971 1.305166 1.532639
v -0.849306 2.909852 -0.665473
vt 0.416464 0.664074
vt 0.416464 0.632339
vt 0.276056 0.632339
vt 0.276056 0.664074
vt 0.271482 0.707873
vt 0.294714 0.541523
vt 0.294714 0.707873
vt 0.416464 0.582128
vt 0.276056 0.510989
vt 0.416464 0.510989
vt 0.397807 0.541523
vt 0.421038 0.707873
vt 0.397807 0.707873
vt 0.303836 0.707873
vt 0.388684 0.541523
vt 0.388684 0.707873
vt 0.416464 0.582128
vt 0.276056 0.510989
vt 0.276056 0.582128
vt 0.271482 0.541523
vt 0.276056 0.582128
vt 0.421038 0.541523
vt 0.303836 0.541523
vt 0.416464 0.510989
vt 0.628491 0.848947
vt 0.793118 0.848947
vt 0.793118 0.859481
vt 0.628491 0.859481
vt 0.416464 0.664074
vt 0.276056 0.664074
vt 0.276056 0.632339
vt 0.416464 0.632339
vt 0.416464 0.624671
vt 0.416464 0.592936
vt 0.276056 0.592936
vt 0.276056 0.624671
vt 0.416464 0.624671
vt 0.276056 0.624671
vt 0.276056 0.592936
vt 0.416464 0.592936
vt 0.793118 0.848947
vt 0.628491 0.848947
vt 0.628491 0.859481
vt 0.793118 0.859481
vt 0.628491 0.859481
vt 0.793118 0.859481
vt 0.793118 0.848947
vt 0.628491 0.848947
vt 0.793118 0.859481
vt 0.628491 0.859481
vt 0.628491 0.848947
vt 0.793118 0.848947
vt 0.415758 0.150522
vt 0.415758 0.163208
vt 0.415758 0.166272
vt 0.415758 0.178958
vt 0.426830 0.178958
vt 0.073479 0.150522
vt 0.073479 0.163208
vt 0.073479 0.166272
vt 0.073479 0.178958
vt 0.062407 0.178958
vt 0.340782 0.199254
vt 0.340782 0.202322
vt 0.357820 0.199254
vt 0.340782 0.129344
vt 0.357820 0.129344
vt 0.340782 0.126275
vt 0.340782 0.199254
vt 0.357820 0.199254
vt 0.340782 0.202322
vt 0.073479 0.147211
vt 0.062407 0.135315
vt 0.366866 0.126268
vt 0.401256 0.202313
vt 0.366866 0.202314
vt 0.340782 0.129344
vt 0.340782 0.126275
vt 0.357820 0.129344
vt 0.877908 0.752059
vt 0.556290 0.771903
vt 0.877908 0.771903
vt 0.556290 0.911137
vt 0.877908 0.921191
vt 0.556290 0.921191
vt 0.073479 0.196260
vt 0.062407 0.132337
vt 0.062407 0.196260
vt 0.415758 0.147211
vt 0.406269 0.150522
vt 0.556290 0.752059
vt 0.877908 0.771903
vt 0.556290 0.771903
vt 0.877908 0.911137
vt 0.556290 0.921191
vt 0.877908 0.921191
vt 0.159086 0.182077
vt 0.159086 0.180398
vt 0.140692 0.182077
vt 0.010128 0.202322
vt 0.010128 0.199254
vt 0.415758 0.132337
vt 0.426830 0.196260
vt 0.426830 0.132337
vt 0.426830 0.135315
vt 0.426830 0.178958
vt 0.415758 0.150522
vt 0.073479 0.132337
vt 0.062407 0.196260
vt 0.062407 0.132337
vt 0.311828 0.126269
vt 0.311828 0.202315
vt 0.177408 0.202315
vt 0.177408 0.126269
vt 0.306080 0.202313
vt 0.065113 0.126275
vt 0.010128 0.202322
vt 0.528859 0.973325
vt 0.517946 0.667921
vt 0.517946 0.973325
vt 0.093856 0.196260
vt 0.079240 0.199254
vt 0.409996 0.199254
vt 0.877908 0.911137
vt 0.556290 0.921191
vt 0.877908 0.921191
vt 0.081742 0.132337
vt 0.026757 0.196260
vt 0.065113 0.129344
vt 0.079240 0.202322
vt 0.409996 0.202322
vt 0.900643 0.667921
vt 0.911554 0.973325
vt 0.911554 0.667921
vt 0.832823 0.667921
vt 0.811926 0.973325
vt 0.811926 0.667921
vt 0.617573 0.667921
vt 0.596676 0.973325
vt 0.596676 0.667921
vt 0.528859 0.667921
vt 0.517946 0.973325
vt 0.517946 0.667921
vt 0.065113 0.126275
vt 0.556290 0.911137
vt 0.877908 0.921191
vt 0.556290 0.921191
vt 0.403531 0.126275
vt 0.409996 0.126275
vt 0.426830 0.129344
vt 0.085706 0.202322
vt 0.079240 0.202322
vt 0.062407 0.199254
vt 0.415758 0.196260
vt 0.426830 0.132337
vt 0.426830 0.196260
vt 0.122370 0.202314
vt 0.341472 0.132337
vt 0.357820 0.196260
vt 0.357820 0.132337
vt 0.341472 0.196260
vt 0.357820 0.132337
vt 0.357820 0.196260
vt 0.065113 0.126275
vt 0.065113 0.129344
vt 0.900643 0.973325
vt 0.911554 0.667921
vt 0.911554 0.973325
vt 0.062407 0.125416
vt 0.062407 0.178958
vt 0.073479 0.150522
vt 0.065113 0.126275
vt 0.306080 0.202313
vt 0.010128 0.202322
vt 0.093856 0.132337
vt 0.395381 0.132337
vt 0.409996 0.126275
vt 0.079240 0.122421
vt 0.087981 0.175704
vt 0.079240 0.181952
vt 0.177408 0.175623
vt 0.409996 0.181952
vt 0.311828 0.175623
vt 0.087981 0.202313
vt 0.122370 0.126268
vt 0.010128 0.202322
vt 0.324152 0.196260
vt 0.330151 0.182077
vt 0.330151 0.180398
vt 0.348544 0.182077
vt 0.324152 0.132337
vt 0.324152 0.196260
vt 0.026757 0.196260
vt 0.081742 0.132337
vt 0.401256 0.175704
vt 0.409996 0.122421
vt 0.409996 0.181952
vt 0.082968 0.147211
vt 0.082968 0.150522
vt 0.073479 0.135315
vt 0.401256 0.126267
vt 0.556290 0.752059
vt 0.877908 0.911137
vt 0.073479 0.132337
vt 0.073479 0.178958
vt 0.073479 0.166272
vt 0.073479 0.163208
vt 0.426830 0.125416
vt 0.415758 0.125416
vt 0.406269 0.147211
vt 0.877908 0.752059
vt 0.556290 0.911137
vt 0.093856 0.182077
vt 0.093856 0.185019
vt 0.395381 0.185019
vt 0.395381 0.182077
vt 0.348544 0.182077
vt 0.348544 0.180398
vt 0.330151 0.180398
vt 0.330151 0.182077
vt 0.140692 0.180398
vt 0.415758 0.196260
vt 0.911554 0.771903
vt 0.900643 0.771903
vt 0.900643 0.752059
vt 0.415758 0.147211
vt 0.415758 0.135315
vt 0.406269 0.147211
vt 0.073479 0.196260
vt 0.306080 0.126267
vt 0.528859 0.667921
vt 0.079240 0.129344
vt 0.409996 0.129344
vt 0.395381 0.196260
vt 0.556290 0.911137
vt 0.324152 0.132337
vt 0.010128 0.199254
vt 0.900643 0.973325
vt 0.832823 0.973325
vt 0.617573 0.973325
vt 0.528859 0.973325
vt 0.877908 0.911137
vt 0.426830 0.199254
vt 0.403531 0.202322
vt 0.409996 0.202322
vt 0.062407 0.129344
vt 0.085706 0.126275
vt 0.079240 0.126275
vt 0.415758 0.132337
vt 0.341472 0.196260
vt 0.341472 0.132337
vt 0.900643 0.667921
vt 0.082968 0.150522
vt 0.082968 0.147211
vt 0.073479 0.147211
vt 0.073479 0.125416
vt 0.306080 0.126267
vt 0.079240 0.126275
vt 0.085706 0.122421
vt 0.409996 0.132321
vt 0.401256 0.175704
vt 0.403531 0.132321
vt 0.366866 0.175665
vt 0.085706 0.132321
vt 0.079240 0.132321
vt 0.087981 0.175704
vt 0.079240 0.181952
vt 0.122370 0.175665
vt 0.087981 0.126267
vt 0.395381 0.182077
vt 0.395381 0.185019
vt 0.093856 0.185019
vt 0.093856 0.182077
vt 0.140692 0.182077
vt 0.140692 0.180398
vt 0.159086 0.180398
vt 0.159086 0.182077
vt 0.348544 0.180398
vt 0.177408 0.175623
vt 0.122370 0.175665
vt 0.311828 0.175623
vt 0.366866 0.175665
vt 0.403531 0.122421
vt 0.415758 0.178958
vt 0.415758 0.166272
vt 0.415758 0.163208
vt 0.073479 0.163208
vt 0.073479 0.166272
vt 0.073479 0.166272
vt 0.073479 0.163208
vt 0.415758 0.166272
vt 0.415758 0.163208
vt 0.415758 0.163208
vt 0.415758 0.166272
vn -1.0000 0.0000 0.0000
vn 0.0000 1.0000 0.0000
vn 1.0000 0.0000 0.0000
vn 0.0000 -1.0000 -0.0000
vn 0.0000 -0.3162 -0.9487
vn -0.0000 0.0000 -1.0000
vn -0.0000 -0.7071 -0.7071
vn 0.9185 -0.3876 -0.0784
vn 0.0000 -0.3162 0.9487
vn -0.0000 -0.0000 1.0000
vn -0.0000 -0.7071 0.7071
vn -0.9045 -0.3015 0.3015
vn -0.8772 0.3395 0.3395
vn -0.3439 0.3410 0.8749
vn -0.3440 0.8748 0.3412
vn -0.8772 0.3395 -0.3395
vn -0.0966 0.8928 -0.4401
vn -0.3005 0.4092 -0.8615
vn 0.8932 0.1204 0.4332
vn 0.3440 0.8748 0.3412
vn 0.4087 0.2975 0.8628
vn 0.0000 0.3162 0.9487
vn -0.8860 0.3017 0.3520
vn 0.0037 -0.7068 -0.7074
vn -0.3025 -0.3043 0.9033
vn 0.0038 -0.7078 0.7064
vn 0.8772 0.3395 -0.3395
vn 0.3005 0.4092 -0.8615
vn 0.0966 0.8928 -0.4401
vn -0.5774 0.5774 0.5774
vn -0.5774 -0.5774 -0.5774
vn -0.5774 -0.5774 0.5774
vn 0.5774 0.5773 -0.5773
vn 0.3162 0.0000 0.9487
vn 0.3162 0.0000 -0.9487
vn 0.0000 0.7593 -0.6508
vn -0.9219 0.2941 -0.2521
vn 0.0000 0.3162 -0.9487
vn 0.5774 -0.5774 -0.5774
vn 0.5774 0.5774 -0.5774
vn 0.5774 -0.5774 0.5774
vn -0.3162 0.0000 -0.9487
vn -0.3162 0.0000 0.9487
vn -0.5773 0.5774 -0.5773
vn -0.2994 -0.6297 0.7168
vn -0.6899 -0.6827 0.2408
vn 0.0000 0.6508 0.7593
vn 0.9269 0.3744 -0.0280
vn 0.8860 0.3017 0.3520
vn 0.9045 -0.3015 0.3015
vn -0.9045 -0.3015 -0.3015
vn 0.0015 -0.7072 -0.7070
vn 0.0015 -0.7080 0.7062
vn -0.0015 -0.7080 0.7062
vn -0.0015 -0.7072 -0.7070
vn -0.5701 -0.5589 -0.6022
vn -0.5811 -0.5995 0.5504
vn 0.3015 0.9045 -0.3015
vn 0.7447 -0.5733 -0.3415
vn 0.5774 0.5774 0.5773
vn -0.5774 0.5774 -0.5774
vn 0.2995 -0.6298 -0.7167
vn 0.5807 -0.5980 0.5524
vn -0.0038 -0.7078 0.7064
vn -0.7071 0.0000 0.7071
vn -0.3015 0.9045 -0.3015
vn -0.3922 0.9161 0.0832
vn 0.7071 0.0000 -0.7071
vn 0.3922 0.9161 0.0832
vn -0.2995 -0.6298 -0.7167
vn -0.7470 -0.5682 -0.3451
vn 0.5774 0.5774 0.5774
vn 0.5698 -0.5571 -0.6041
vn 0.3025 -0.3043 0.9033
vn -0.0037 -0.7068 -0.7074
vn 0.3902 -0.6008 0.6977
vn -0.2968 -0.3042 -0.9052
vn -0.7071 0.0000 -0.7071
vn 0.7533 -0.5119 0.4130
vn 0.7071 0.0000 0.7071
vn 0.2968 -0.3042 -0.9052
usemtl Material.004
s off
f 1/1/1 2/2/1 3/3/1 4/4/1
f 5/5/2 6/6/2 7/7/2
f 8/8/3 9/9/3 10/10/3
f 11/11/2 12/12/2 13/13/2
f 14/14/2 15/15/2 16/16/2
f 17/17/1 18/18/1 19/19/1
f 5/5/2 20/20/2 6/6/2
f 8/8/3 21/21/3 9/9/3
f 11/11/2 22/22/2 12/12/2
f 14/14/2 23/23/2 15/15/2
f 17/17/1 24/24/1 18/18/1
f 25/25/3 26/26/3 27/27/3 28/28/3
f 29/29/3 30/30/3 31/31/3 32/32/3
f 33/33/1 34/34/1 35/35/1 36/36/1
f 37/37/3 38/38/3 39/39/3 40/40/3
f 41/41/1 42/42/1 43/43/1 44/44/1
f 3/45/4 2/46/4 44/44/4 43/43/4
f 33/47/2 36/48/2 42/42/2 41/41/2
f 32/49/4 31/50/4 28/28/4 27/27/4
f 38/51/2 37/52/2 26/26/2 25/25/2
s 1
f 39/53/5 38/54/6 31/55/6 30/56/7 45/57/8
f 34/58/9 33/59/10 2/60/10 1/61/11 46/62/12
f 47/63/13 48/64/14 49/65/15
f 50/66/16 51/67/17 52/68/18
f 53/69/19 54/70/20 55/71/21
f 17/72/22 34/58/9 56/73/23
f 57/74/24 58/75/25 59/76/26
f 60/77/27 61/78/28 62/79/29
f 63/80/30 64/81/31 65/82/32
f 66/83/33 16/84/34 15/85/35
f 50/66/16 49/65/15 51/67/17
f 18/86/36 56/87/23 67/88/37
f 21/89/38 68/90/39 39/53/5
f 69/91/40 70/92/41 68/93/39
f 71/94/30 11/95/42 13/96/43
f 23/97/42 72/98/44 6/99/35
f 73/100/45 47/63/13 74/101/46
f 10/102/47 75/103/48 76/104/49
f 76/105/49 77/106/50 40/107/9
f 1/108/11 78/109/51 46/110/12
f 79/111/52 59/76/26 80/112/53
f 79/111/52 81/113/54 82/114/55
f 58/115/25 83/116/56 84/117/57
f 65/118/32 35/119/5 34/120/9
f 85/121/58 49/122/15 54/123/20
f 86/124/30 23/125/42 14/126/43
f 76/127/49 75/128/48 87/129/59
f 54/123/20 48/130/14 55/131/21
f 68/132/39 40/133/9 39/134/5
f 88/135/44 89/136/60 66/137/33
f 72/138/44 90/139/60 91/140/33
f 92/141/61 17/142/22 19/143/38
f 61/78/28 87/129/59 93/144/62
f 91/145/33 7/146/34 6/147/35
f 83/148/56 93/149/62 87/150/59
f 94/151/63 73/152/45 74/153/46
f 30/154/7 77/155/50 45/156/8
f 95/157/64 82/114/55 81/113/54
f 12/158/65 96/159/66 97/160/67
f 20/161/68 98/162/69 85/163/58
f 50/66/16 99/164/70 100/165/71
f 60/77/27 54/70/20 53/69/19
f 101/166/72 21/167/38 8/168/22
f 67/169/37 78/170/51 35/171/5
f 102/172/73 103/173/74 94/174/63
f 98/175/69 97/176/67 61/177/28
f 73/178/45 103/179/74 48/180/14
f 82/181/55 61/182/28 79/183/52
f 103/184/74 104/185/75 95/157/64
f 55/71/21 105/186/76 45/187/8
f 16/188/34 89/189/60 13/190/43
f 46/191/12 47/63/13 50/66/16
f 78/192/51 74/101/46 47/63/13
f 100/165/71 67/193/37 56/194/23
f 46/191/12 100/165/71 56/194/23
f 58/195/25 105/196/76 55/197/21
f 17/72/22 63/198/30 65/199/32
f 17/72/22 65/199/32 34/58/9
f 56/73/23 24/200/47 17/72/22
f 34/58/9 46/62/12 56/73/23
f 57/74/24 106/201/77 58/75/25
f 63/80/30 92/202/61 64/81/31
f 66/83/33 89/203/60 16/84/34
f 50/66/16 47/63/13 49/65/15
f 18/86/36 24/204/47 56/87/23
f 78/170/51 4/205/7 3/206/6 36/207/6 35/171/5
f 45/57/8 75/208/48 39/53/5
f 75/208/48 9/209/36 21/89/38
f 21/89/38 69/210/40 68/90/39
f 75/208/48 21/89/38 39/53/5
f 69/91/40 101/211/72 70/92/41
f 71/94/30 88/212/44 11/95/42
f 20/213/68 85/214/58 6/99/35
f 85/214/58 96/215/66 23/97/42
f 6/99/35 85/214/58 23/97/42
f 96/215/66 22/216/78 11/217/42
f 11/217/42 88/218/44 66/219/33
f 11/217/42 66/219/33 15/220/35
f 72/98/44 91/221/33 6/99/35
f 11/217/42 15/220/35 96/215/66
f 15/220/35 23/97/42 96/215/66
f 73/100/45 48/64/14 47/63/13
f 10/102/47 9/222/36 75/103/48
f 40/223/9 70/224/41 101/225/72
f 8/226/22 10/227/47 76/105/49
f 40/107/9 101/228/72 8/226/22
f 8/226/22 76/105/49 40/107/9
f 1/108/11 4/229/7 78/109/51
f 79/111/52 57/74/24 59/76/26
f 79/111/52 80/112/53 81/113/54
f 58/115/25 106/230/77 83/116/56
f 65/118/32 64/231/31 35/119/5
f 85/121/58 98/175/69 51/232/17
f 54/123/20 62/233/29 97/176/67
f 54/123/20 97/176/67 96/234/66
f 85/121/58 51/232/17 49/122/15
f 54/123/20 96/234/66 85/121/58
f 86/124/30 72/235/44 23/125/42
f 60/77/27 53/69/19 45/187/8
f 60/77/27 45/187/8 77/236/50
f 75/128/48 107/237/79 87/129/59
f 60/77/27 77/236/50 87/129/59
f 77/236/50 76/127/49 87/129/59
f 54/123/20 49/122/15 48/130/14
f 68/132/39 70/238/41 40/133/9
f 88/135/44 71/239/30 89/136/60
f 72/138/44 86/240/30 90/139/60
f 92/141/61 63/241/30 17/142/22
f 61/78/28 60/77/27 87/129/59
f 91/145/33 90/242/60 7/146/34
f 87/150/59 107/243/79 84/244/57
f 107/243/79 105/245/76 84/244/57
f 84/244/57 83/148/56 87/150/59
f 74/153/46 100/246/71 102/247/73
f 100/246/71 99/248/70 102/247/73
f 102/247/73 94/151/63 74/153/46
f 30/154/7 29/249/11 77/155/50
f 95/157/64 104/185/75 82/114/55
f 12/158/65 22/250/78 96/159/66
f 20/161/68 5/251/80 98/162/69
f 50/66/16 52/68/18 99/164/70
f 60/77/27 62/79/29 54/70/20
f 101/166/72 69/252/40 21/167/38
f 35/171/5 64/253/31 92/254/61
f 19/255/38 18/256/36 67/169/37
f 35/171/5 92/254/61 19/255/38
f 19/255/38 67/169/37 35/171/5
f 102/172/73 108/257/81 103/173/74
f 62/79/29 61/78/28 97/160/67
f 61/177/28 52/258/18 98/175/69
f 52/68/18 51/67/17 98/162/69
f 73/178/45 94/259/63 103/179/74
f 61/182/28 93/260/62 106/261/77
f 93/260/62 83/262/56 106/261/77
f 106/261/77 57/263/24 61/182/28
f 57/263/24 79/183/52 61/182/28
f 102/264/73 99/265/70 108/266/81
f 99/265/70 52/267/18 108/266/81
f 82/181/55 104/268/75 52/267/18
f 104/268/75 108/266/81 52/267/18
f 52/267/18 61/182/28 82/181/55
f 103/184/74 108/269/81 104/185/75
f 107/237/79 75/128/48 105/186/76
f 75/128/48 45/187/8 105/186/76
f 45/187/8 53/69/19 55/71/21
f 12/270/65 97/271/67 13/190/43
f 97/271/67 98/272/69 16/188/34
f 13/190/43 97/271/67 16/188/34
f 98/272/69 5/273/80 7/274/34
f 7/274/34 90/275/60 86/276/30
f 7/274/34 86/276/30 14/277/43
f 89/189/60 71/278/30 13/190/43
f 7/274/34 14/277/43 98/272/69
f 14/277/43 16/188/34 98/272/69
f 46/191/12 78/192/51 47/63/13
f 78/192/51 67/193/37 74/101/46
f 100/165/71 74/101/46 67/193/37
f 46/191/12 50/66/16 100/165/71
f 55/197/21 48/180/14 81/279/54
f 48/180/14 103/179/74 95/280/64
f 81/279/54 48/180/14 95/280/64
f 81/279/54 80/281/53 55/197/21
f 80/281/53 59/282/26 55/197/21
f 58/195/25 84/283/57 105/196/76
f 59/282/26 58/195/25 55/197/21
f 77/106/50 29/284/11 32/285/10 37/286/10 40/107/9
f 2/60/10 33/59/10 41/287/10 44/288/10
f 36/207/6 3/206/6 43/289/6 42/290/6
f 37/286/10 32/285/10 27/291/10 26/292/10
f 31/55/6 38/54/6 25/293/6 28/294/6
