# Blender v2.90.1 OBJ File: ''
# www.blender.org
mtllib OS_Small_Hatch.mtl
o Small_Hatch_Hatch_Small_Cube.002
v -0.900000 0.574704 -0.110856
v -0.900000 1.592137 -0.110856
v 0.900000 1.592137 -0.110856
v 0.900000 0.574704 -0.110856
v -0.729293 0.905156 -0.033351
v 0.729293 0.905156 -0.033351
v 0.729293 0.955617 -0.033351
v -0.729293 0.955617 -0.033351
v 0.646101 0.745410 0.000621
v 0.729293 0.828603 0.000621
v 0.729293 0.905156 0.000621
v -0.729293 0.905156 0.000621
v -0.729293 0.828603 0.000621
v -0.646101 0.745410 0.000621
v -0.729293 1.262316 0.000621
v 0.729293 1.262316 0.000621
v 0.729293 1.421430 0.000621
v -0.729293 1.421430 0.000621
v -0.729293 0.955617 0.000621
v 0.729293 0.955617 0.000621
v 0.729293 1.211855 0.000621
v -0.729293 1.211855 0.000621
v 0.729293 1.262316 -0.033351
v -0.729293 1.262316 -0.033351
v -0.729293 1.211855 -0.033351
v 0.729293 1.211855 -0.033351
v 0.671763 0.683457 0.069144
v -0.671763 0.683457 0.069144
v -0.791247 1.483384 0.069144
v 0.791247 1.483384 0.069144
v 0.815512 1.507649 0.026043
v -0.815512 1.507649 0.026043
v -0.729293 1.421430 0.069144
v -0.729293 0.828603 0.069144
v 0.791247 0.802941 0.069144
v 0.815512 0.778676 0.026043
v -0.815512 0.778676 0.026043
v -0.791247 0.802941 0.069144
v 0.729293 1.421430 0.069144
v -0.646101 0.745410 0.069144
v 0.729293 0.828603 0.069144
v 0.646101 0.745410 0.069144
vt 0.591730 0.333313
vt 0.625986 0.333313
vt 0.625986 0.373897
vt 0.591730 0.373897
vt 0.596753 0.938399
vt 0.596753 0.660151
vt 0.604598 0.660151
vt 0.604598 0.938399
vt 0.264930 0.597025
vt 0.275961 0.585469
vt 0.316347 0.585469
vt 0.316347 0.788051
vt 0.275961 0.788051
vt 0.264930 0.776496
vt 0.390290 0.788051
vt 0.390290 0.585469
vt 0.430675 0.585469
vt 0.430675 0.788051
vt 0.323038 0.788051
vt 0.323038 0.585469
vt 0.383599 0.585469
vt 0.383599 0.788051
vt 0.683450 0.660151
vt 0.683450 0.938399
vt 0.675605 0.938399
vt 0.675605 0.660151
vt 0.675605 0.938399
vt 0.675605 0.660151
vt 0.683450 0.660151
vt 0.683450 0.938399
vt 0.604598 0.660151
vt 0.604598 0.938399
vt 0.596753 0.938399
vt 0.596753 0.660151
vt 0.306914 0.126840
vt 0.044993 0.126840
vt 0.000497 0.204485
vt 0.351409 0.204485
vt 0.021699 0.126840
vt 0.330207 0.126840
vt 0.334938 0.145432
vt 0.016968 0.145432
vt 0.083724 0.178447
vt 0.083724 0.128114
vt 0.217311 0.128114
vt 0.217311 0.141253
vt 0.217311 0.143430
vt 0.217311 0.163133
vt 0.217311 0.165309
vt 0.217311 0.178447
vt 0.083724 0.181120
vt 0.083724 0.127007
vt 0.167750 0.125961
vt 0.167750 0.182166
vt 0.167750 0.125961
vt 0.167750 0.182166
vt 0.434635 0.185811
vt 0.434635 0.117162
vt 0.434635 0.117162
vt 0.434635 0.185811
vt 0.351409 0.204485
vt 0.000497 0.204485
vt 0.083724 0.121854
vt 0.083724 0.127007
vt 0.083724 0.121854
vt 0.083724 0.181120
vt 0.033777 0.178447
vt 0.318130 0.178447
vt 0.330207 0.181120
vt 0.021699 0.181120
vt 0.049996 0.124526
vt 0.033777 0.128114
vt 0.021699 0.127007
vt 0.044993 0.121854
vt 0.318130 0.128114
vt 0.301911 0.124526
vt 0.306914 0.121854
vt 0.330207 0.127007
vt 0.033777 0.126840
vt 0.049996 0.126840
vt 0.049996 0.156398
vt 0.033777 0.156398
vt 0.301911 0.126840
vt 0.301911 0.156398
vt 0.083724 0.124526
vt 0.083724 0.128114
vt 0.217311 0.128114
vt 0.217311 0.124526
vt 0.318130 0.126840
vt 0.033777 0.126840
vt 0.033777 0.156398
vt 0.318130 0.156398
vt 0.083724 0.178447
vt 0.217311 0.178447
vt 0.217311 0.165309
vt 0.217311 0.163133
vt 0.217311 0.143430
vt 0.217311 0.141253
vt 0.283540 0.165309
vt 0.283540 0.163133
vt 0.283540 0.163133
vt 0.283540 0.165309
vt 0.283540 0.143430
vt 0.283540 0.141253
vt 0.283540 0.141253
vt 0.283540 0.143430
vn 0.0000 0.0000 -1.0000
vn 0.0000 -0.0000 1.0000
vn 0.0000 1.0000 0.0000
vn 0.0000 -1.0000 0.0000
vn 0.1194 -0.4805 0.8688
vn -0.1194 -0.4805 0.8688
vn -0.6769 -0.6809 -0.2796
vn 0.6769 -0.6809 -0.2796
vn -0.4062 0.4062 0.8186
vn 0.4062 0.4062 0.8186
vn 0.5400 0.5400 0.6456
vn -0.5400 0.5400 0.6456
vn 0.3015 -0.3015 0.9045
vn 0.5491 0.2275 0.8042
vn 0.7173 0.2971 0.6302
vn 0.9045 0.3015 0.3015
vn 0.9045 -0.3015 0.3015
vn 0.5771 -0.5777 0.5773
vn 0.4810 -0.1146 0.8692
vn 0.7322 -0.1725 0.6589
vn -0.7322 -0.1725 0.6589
vn -0.6720 0.6719 -0.3114
vn 0.6719 0.6720 -0.3114
vn -0.4810 -0.1146 0.8692
vn -0.3015 -0.3015 0.9045
vn 0.2275 0.5491 0.8042
vn -0.5491 0.2275 0.8042
vn -0.2275 0.5491 0.8042
vn 0.2971 0.7173 0.6302
vn -0.2971 0.7173 0.6302
vn -0.7173 0.2971 0.6302
vn -0.5777 -0.5771 0.5773
vn -0.9045 -0.3015 0.3015
vn -0.9045 0.3015 0.3015
vn -0.5774 -0.5773 0.5774
vn -0.5774 0.5774 0.5773
vn 0.5774 0.5773 0.5774
vn 0.5774 -0.5774 0.5773
usemtl Material.004
s off
f 1/1/1 2/2/1 3/3/1 4/4/1
f 5/5/2 6/6/2 7/7/2 8/8/2
f 9/9/2 10/10/2 11/11/2 12/12/2 13/13/2 14/14/2
f 15/15/2 16/16/2 17/17/2 18/18/2
f 19/19/2 20/20/2 21/21/2 22/22/2
f 23/23/2 24/24/2 25/25/2 26/26/2
f 22/27/3 21/28/3 26/26/3 25/25/3
f 16/29/4 15/30/4 24/24/4 23/23/4
f 20/31/4 19/32/4 8/8/4 7/7/4
f 12/33/3 11/34/3 6/6/3 5/5/3
s 1
f 27/35/5 28/36/6 1/37/7 4/38/8
f 29/39/9 30/40/10 31/41/11 32/42/12
f 33/43/13 34/44/14 13/45/15 12/46/16 19/47/17 22/48/16 15/49/17 18/50/18
f 30/51/10 35/52/19 36/53/20 31/54/11
f 37/55/21 32/56/12 2/57/22 1/58/7
f 31/54/11 36/53/20 4/59/8 3/60/23
f 3/61/23 2/62/22 32/42/12 31/41/11
f 1/58/7 28/63/6 38/64/24 37/55/21
f 27/65/5 4/59/8 36/53/20 35/52/19
f 38/64/24 29/66/9 32/56/12 37/55/21
f 33/67/13 39/68/25 30/69/10 29/70/9
f 40/71/26 34/72/14 38/73/24 28/74/6
f 41/75/27 42/76/28 27/77/5 35/78/19
f 34/72/14 33/67/13 29/70/9 38/73/24
f 42/76/28 40/71/26 28/74/6 27/77/5
f 39/68/25 41/75/27 35/78/19 30/69/10
f 34/79/14 40/80/26 14/81/29 13/82/15
f 40/80/26 42/83/28 9/84/30 14/81/29
f 42/85/28 41/86/27 10/87/31 9/88/30
f 39/89/25 33/90/13 18/91/18 17/92/32
f 41/86/27 39/93/25 17/94/32 16/95/33 21/96/34 20/97/33 11/98/34 10/87/31
f 21/96/34 16/95/33 23/99/35 26/100/36
f 15/49/17 22/48/16 25/101/37 24/102/38
f 11/98/34 20/97/33 7/103/35 6/104/36
f 19/47/17 12/46/16 5/105/37 8/106/38
