# Blender v3.1.2 OBJ File: 'GT_Mobile_Solar_Panels.blend'
# www.blender.org
o Cube.018_Cube.020
v 1.280000 -0.090000 0.920000
v 1.280000 -0.090000 1.080000
v -0.280000 -0.090000 0.920000
v -0.280000 -0.090000 1.080000
v -0.240000 1.177367 1.120000
v 1.240000 1.177367 1.120000
v -0.230000 1.502385 1.083567
v 1.230000 1.502385 1.083567
v 1.252046 -0.500000 1.089999
v 1.172046 -0.499999 1.169999
v -0.252046 -0.500000 1.089999
v 1.212046 -0.500000 0.840717
v -0.172046 -0.499999 1.169999
v -0.212046 -0.500000 0.840717
v 1.129428 2.000000 0.867502
v -0.173889 2.000000 0.991710
v 1.173889 2.000000 0.991710
v 1.082172 2.000000 0.791750
v 1.193501 2.000000 0.979923
v 1.031734 2.000000 0.771710
v -0.193501 2.000000 0.979923
v -0.129428 2.000000 0.867502
v -0.031734 2.000000 0.771710
v -0.082172 2.000000 0.791750
vt 0.655713 0.456226
vt 0.655476 0.453550
vt 0.655476 0.444186
vt 0.000000 0.000000
vt 0.374492 0.226393
vt 0.000000 0.000000
vt 0.669384 0.446487
vt 0.317838 0.214010
vt 0.655713 0.441510
vt 0.317838 0.214010
vt 0.669384 0.446487
vt 0.655713 0.441510
vt 0.694778 0.445169
vt 0.431122 0.281069
vt 0.000000 0.000000
vt 0.655709 0.456226
vt 0.000000 0.000000
vt 0.354415 0.236399
vt 0.354415 0.236399
vt 0.694778 0.445169
vt 0.000000 0.000000
vt 0.694421 0.448804
vt 0.694729 0.448736
vt 0.379259 0.229053
vt 0.379259 0.229053
vt 0.694729 0.448736
vt 0.688773 0.449044
vt 0.684405 0.449242
vt 0.669384 0.449242
vt 0.655713 0.456226
vt 0.669384 0.449242
vt 0.684405 0.449242
vt 0.694421 0.448804
vt 0.688773 0.449044
vt 0.655476 0.453550
vt 0.655476 0.444186
vt 0.374492 0.226393
vt 0.655709 0.456226
vt 0.000000 0.000000
vt 0.000000 0.000000
vt 0.000000 0.000000
vn 0.0000 -1.0000 0.0000
vn 0.0000 -0.0276 -0.9996
vn -0.6991 0.0223 -0.7147
vn 0.6991 0.0223 -0.7147
vn 0.0000 1.0000 -0.0000
vn -0.8475 0.0478 -0.5287
vn 0.8475 0.0478 -0.5287
vn -0.5035 0.2114 0.8377
vn -0.0073 0.1462 0.9892
vn -0.2519 0.2031 0.9462
vn -0.6483 -0.0036 0.7614
vn 0.6483 -0.0036 0.7614
vn -0.7068 0.0310 -0.7068
vn 0.5035 0.2114 0.8377
vn 0.2519 0.2031 0.9462
vn 0.0073 0.1462 0.9892
vn 0.9988 -0.0302 -0.0395
vn 0.9858 -0.1171 -0.1204
vn 0.9787 -0.1318 -0.1571
vn 0.3692 0.0010 -0.9293
vn 0.0000 0.0708 0.9975
vn 0.0000 0.0298 0.9996
vn -0.3692 0.0010 -0.9293
vn -0.9858 -0.1171 -0.1204
vn -0.9988 -0.0302 -0.0395
vn -0.9787 -0.1318 -0.1571
vn 0.7068 0.0310 -0.7068
vn -0.9998 -0.0181 0.0000
vn -0.9726 0.0573 -0.2252
vn 0.8951 -0.0195 -0.4453
vn 0.9726 0.0573 -0.2252
vn 0.9998 -0.0181 0.0000
vn -0.8815 -0.0265 -0.4714
vn -0.8951 -0.0195 -0.4453
vn -0.8681 -0.0394 -0.4948
vn 0.8681 -0.0394 -0.4948
vn 0.8815 -0.0265 -0.4714
s off
f 13/1/1 11/2/1 14/3/1
f 12/4/2 23/5/2 20/6/2
f 3/7/3 24/8/3 14/9/3
f 18/10/4 1/11/4 12/12/4
f 15/13/5 20/6/5 17/14/5
f 14/3/1 12/4/1 10/15/1
f 12/4/1 9/16/1 10/15/1
f 10/15/1 13/1/1 14/3/1
f 12/4/2 14/17/2 23/5/2
f 3/7/6 22/18/6 24/8/6
f 18/10/7 15/19/7 1/11/7
f 22/20/5 21/21/5 16/22/5
f 16/22/5 17/14/5 23/5/5
f 17/14/5 19/23/5 15/13/5
f 23/5/5 17/14/5 20/6/5
f 15/13/5 18/24/5 20/6/5
f 23/5/5 24/25/5 22/20/5
f 22/20/5 16/22/5 23/5/5
s 1
f 21/26/8 7/27/9 16/22/10
f 13/1/11 5/28/11 4/29/11
f 10/30/12 2/31/12 6/32/12
f 9/16/13 10/30/13 2/31/13
f 19/23/14 17/33/15 8/34/16
f 1/11/17 9/35/18 12/36/19
f 20/37/20 18/24/20 12/4/20
f 6/32/21 13/1/22 10/15/22
f 23/5/23 14/17/23 24/25/23
f 11/2/24 3/7/25 14/3/26
f 11/38/27 4/29/27 13/1/27
f 3/7/25 4/29/28 5/28/29
f 1/11/17 15/13/30 6/32/31
f 7/27/9 5/28/21 6/39/21
f 1/11/17 2/40/32 9/35/18
f 6/32/21 5/28/21 13/1/22
f 11/2/24 4/41/28 3/7/25
f 5/28/29 7/27/33 22/20/34
f 7/27/33 21/26/35 22/20/34
f 22/20/34 3/7/25 5/28/29
f 19/23/36 8/34/37 15/13/30
f 8/34/37 6/32/31 15/13/30
f 6/32/31 2/31/32 1/11/17
f 6/39/21 8/34/16 7/27/9
f 8/34/16 17/14/15 7/27/9
f 17/14/15 16/22/10 7/27/9
