# Blender v2.82 (sub 7) OBJ File: 'DLBasicCurve3.blend'
# www.blender.org
mtllib DLBasicCurve3Collider.mtl
o untitled
v 0.450000 0.366025 1.000000
v -0.450000 0.366025 1.000000
v -0.500000 -0.042785 2.068317
v -0.450000 0.000000 2.098076
v 0.500000 -0.042785 2.068317
v 0.450000 0.000000 2.098076
v -0.500000 -0.450000 2.395656
v -0.450000 -0.500000 2.450000
v -0.450000 -0.461030 2.468674
v 0.450000 -0.500000 2.450000
v 0.500000 -0.450000 2.395656
v 0.450000 -0.461030 2.468674
v 0.450000 -0.500000 -0.429289
v 0.500000 -0.450000 -0.450000
v 0.450000 0.493697 -0.429429
v 0.500000 0.445414 -0.450000
v -0.500000 -0.450000 -0.450000
v -0.450000 -0.500000 -0.429289
v -0.450000 -0.450000 -0.500000
v -0.429289 -0.500000 -0.450000
v 0.450000 -0.450000 -0.500000
v 0.429289 -0.500000 -0.450000
v -0.450000 0.493697 -0.429429
v -0.500000 0.445414 -0.450000
v 0.450000 0.449885 -0.500000
v 0.429231 0.495552 -0.450198
v -0.450000 0.449885 -0.500000
v -0.429231 0.495552 -0.450198
vt 0.332203 0.583714
vt 0.207248 0.583714
vt 0.207248 0.519705
vt 0.332203 0.519705
vt 0.207248 0.521236
vt 0.207248 0.646175
vt 0.332203 0.646175
vt 0.332203 0.521236
vt 0.332203 0.751999
vt 0.332203 0.553539
vt 0.329319 0.550655
vt 0.210131 0.550655
vt 0.207248 0.553538
vt 0.207248 0.751999
vt 0.207248 0.953315
vt 0.207248 0.553558
vt 0.210123 0.550682
vt 0.329327 0.550682
vt 0.332203 0.553558
vt 0.332203 0.953315
vt 0.207862 0.945770
vt 0.200920 0.953315
vt 0.206331 0.955908
vt 0.339145 0.945770
vt 0.332203 0.960257
vt 0.332203 0.904455
vt 0.339145 0.902518
vt 0.332181 0.550682
vt 0.338884 0.553538
vt 0.264400 0.900323
vt 0.270340 0.904455
vt 0.207248 0.960257
vt 0.339145 0.525585
vt 0.339145 0.582123
vt 0.339145 0.550682
vt 0.207862 0.550682
vt 0.200306 0.521236
vt 0.205214 0.514294
vt 0.202339 0.514294
vt 0.329327 0.514294
vt 0.210123 0.514294
vt 0.332203 0.543741
vt 0.339145 0.645554
vt 0.334238 0.652951
vt 0.337121 0.652694
vt 0.210131 0.653133
vt 0.329319 0.653133
vt 0.206938 0.544050
vt 0.200306 0.550682
vt 0.207248 0.904455
vt 0.000000 0.000000
vt 0.000000 0.000000
vt 0.200306 0.551299
vt 0.000000 0.000000
vt 0.339145 0.521236
vt 0.264400 0.900323
vt 0.207862 0.945770
vn 0.0000 0.6265 0.7794
vn 0.0000 0.0000 -1.0000
vn 0.0000 0.9960 0.0890
vn 0.0000 -1.0000 -0.0000
vn -0.8161 -0.2497 0.5211
vn 0.8161 -0.2497 0.5211
vn 0.9275 0.3671 0.0714
vn -0.7071 0.4430 0.5511
vn -0.0000 -0.4321 0.9018
vn 0.7071 0.4430 0.5511
vn 0.7071 -0.7071 -0.0000
vn -0.7071 -0.7071 -0.0000
vn -0.5000 -0.7071 -0.5000
vn 0.0000 -0.7071 -0.7071
vn 0.5000 -0.7071 -0.5000
vn 0.5166 0.7274 -0.4516
vn 0.0000 0.7370 -0.6759
vn -0.5166 0.7274 -0.4516
vn 0.0000 0.9487 0.3162
vn -0.7071 0.0000 -0.7071
vn -1.0000 0.0000 0.0000
vn -0.9275 0.3671 0.0714
vn 0.7071 0.0000 -0.7071
vn 1.0000 0.0000 0.0000
usemtl Color_M03
s 1
f 6/1/1 4/2/1 9/3/1 12/4/1
f 19/5/2 27/6/2 25/7/2 21/8/2
f 1/9/3 15/10/3 26/11/3 28/12/3 23/13/3 2/14/3
f 8/15/4 18/16/4 20/17/4 22/18/4 13/19/4 10/20/4
f 7/21/5 8/22/5 9/23/5
f 10/20/6 11/24/6 12/25/6
f 1/9/7 6/26/7 5/27/7 16/28/7 15/29/7
f 3/30/8 7/21/8 9/23/8 4/31/8
f 8/15/9 10/20/9 12/25/9 9/32/9
f 6/1/10 12/4/10 11/33/10 5/34/10
f 10/20/11 13/19/11 14/35/11 11/24/11
f 7/21/12 17/36/12 18/16/12 8/15/12
f 17/37/13 19/5/13 20/38/13 18/39/13
f 19/5/14 21/8/14 22/40/14 20/41/14
f 13/19/15 22/18/15 21/42/15 14/35/15
f 16/43/16 25/7/16 26/44/16 15/45/16
f 25/7/17 27/6/17 28/46/17 26/47/17
f 23/13/18 28/12/18 27/48/18 24/49/18
f 2/14/19 4/50/19 6/26/19 1/9/19
f 27/6/20 19/5/20 17/51/20 24/52/20
f 17/51/21 7/21/21 3/30/21 24/52/21
f 2/14/22 23/13/22 24/53/22 3/30/22 4/31/22
f 21/8/23 25/7/23 16/54/23 14/55/23
f 5/56/24 11/57/24 14/55/24 16/54/24
