# Blender v2.82 (sub 7) OBJ File: 'DLBasicCurve4Wide.blend'
# www.blender.org
mtllib DLBasicCurve4WideCollider.mtl
o untitled
v -0.450000 0.366025 1.500000
v -0.450000 0.495269 -0.429368
v -0.500000 0.446584 -0.450000
v -0.450000 -0.499999 -0.429289
v -0.500000 -0.449999 -0.450000
v -0.450000 -0.500000 3.450000
v -0.450000 -0.465890 3.463441
v -0.500000 -0.450000 3.373117
v -0.500000 -0.045373 2.939440
v -0.450000 0.000000 2.964102
v 1.449610 0.366025 1.500000
v 1.499610 0.446584 -0.450000
v 1.449610 0.495269 -0.429368
v 1.449610 0.449936 -0.500000
v 1.428867 0.496659 -0.450112
v -0.450000 0.449936 -0.500000
v -0.429256 0.496659 -0.450112
v 1.449610 -0.465890 3.463441
v 1.449610 -0.500000 3.450000
v 1.499610 -0.450000 3.373117
v 1.449610 -0.499999 -0.429289
v 1.499610 -0.449999 -0.450000
v 1.499610 -0.045373 2.939440
v 1.449610 0.000000 2.964102
v -0.450000 -0.449999 -0.500000
v -0.429289 -0.499999 -0.450000
v 1.449610 -0.449999 -0.500000
v 1.428899 -0.499999 -0.450000
vt 0.291489 0.976681
vt 0.291489 0.920071
vt 0.076128 0.920071
vt 0.076128 0.976681
vt 0.135239 0.976681
vt 0.131372 0.975157
vt 0.137040 0.966441
vt 0.135239 0.976681
vt 0.188057 0.920071
vt 0.182913 0.917275
vt 0.137040 0.966441
vt 0.291489 0.754084
vt 0.291489 0.535349
vt 0.289138 0.532998
vt 0.078480 0.532998
vt 0.076128 0.535349
vt 0.076128 0.754084
vt 0.076128 0.975157
vt 0.076128 0.535358
vt 0.078476 0.533010
vt 0.289141 0.533010
vt 0.291489 0.535358
vt 0.291489 0.975157
vt 0.076128 0.577742
vt 0.076128 0.679769
vt 0.239067 0.527342
vt 0.000000 0.000000
vt 0.131372 0.975157
vt 0.070460 0.966441
vt 0.070460 0.533010
vt 0.229554 0.754084
vt 0.244207 0.535349
vt 0.238687 0.533010
vt 0.297158 0.533010
vt 0.291489 0.527342
vt 0.076128 0.527342
vt 0.070460 0.533010
vt 0.182913 0.917275
vt 0.188057 0.920071
vt 0.131372 0.535358
vt 0.137040 0.533010
vt 0.076128 0.572074
vt 0.291489 0.572074
vt 0.291489 0.575941
vt 0.076128 0.575941
vt 0.076128 0.527342
vt 0.291489 0.577742
vt 0.289141 0.572074
vt 0.078476 0.572074
vt 0.291489 0.527342
vt 0.297158 0.533010
vt 0.239067 0.527342
vt 0.000000 0.000000
vt 0.000000 0.000000
vt 0.238687 0.533010
vt 0.229554 0.754084
vt 0.244207 0.535349
vn 0.0000 0.7312 0.6822
vn 0.8738 -0.1783 0.4524
vn -0.7071 0.5170 0.4824
vn 0.0000 0.9978 0.0668
vn 0.0000 -1.0000 -0.0000
vn 0.0000 0.0000 -1.0000
vn -0.8738 -0.1783 0.4524
vn -0.7071 -0.7071 -0.0000
vn -0.9287 0.3670 0.0534
vn 0.5123 0.7227 -0.4639
vn 0.0000 0.7299 -0.6836
vn -0.5123 0.7227 -0.4639
vn 0.7071 0.5170 0.4824
vn 0.8476 0.4553 0.2725
vn 0.8454 0.4568 0.2769
vn 0.7071 -0.7071 -0.0000
vn 0.0000 -0.3666 0.9304
vn -0.5000 -0.7071 -0.5000
vn 0.0000 -0.7071 -0.7071
vn 0.5000 -0.7071 -0.5000
vn 0.0000 0.9701 0.2425
vn -0.7071 0.0000 -0.7071
vn -1.0000 -0.0000 0.0000
vn 1.0000 -0.0000 0.0000
vn 0.7071 0.0000 -0.7071
vn 0.9287 0.3670 0.0534
usemtl FrontColor
s off
f 18/1/1 24/2/1 10/3/1 7/4/1
f 18/5/2 19/6/2 20/7/2
f 7/8/3 10/9/3 9/10/3 8/11/3
s 1
f 11/12/4 13/13/4 15/14/4 17/15/4 2/16/4 1/17/4
f 6/18/5 4/19/5 26/20/5 28/21/5 21/22/5 19/23/5
f 25/24/6 16/25/6 14/26/6 27/27/6
f 6/28/7 7/8/7 8/11/7
f 4/19/8 6/18/8 8/29/8 5/30/8
f 1/31/9 2/32/9 3/33/9 9/10/9 10/9/9
f 12/34/10 14/35/10 15/14/10 13/13/10
f 14/35/11 16/36/11 17/15/11 15/14/11
f 2/16/12 17/15/12 16/36/12 3/37/12
f 20/7/13 23/38/14 24/39/15 18/5/13
f 19/6/16 21/40/16 22/41/16 20/7/16
f 6/42/17 19/43/17 18/44/17 7/45/17
f 5/30/18 25/46/18 26/20/18 4/19/18
f 25/24/19 27/47/19 28/48/19 26/49/19
f 21/22/20 28/21/20 27/50/20 22/51/20
f 1/17/21 10/3/21 24/2/21 11/12/21
f 16/52/22 25/24/22 5/53/22 3/54/22
f 5/53/23 8/11/23 9/10/23 3/54/23
f 23/38/24 20/7/24 22/41/24 12/55/24
f 12/55/25 22/41/25 27/27/25 14/26/25
f 11/56/26 24/39/15 23/38/14 12/55/26 13/57/26
