# Blender v2.82 (sub 7) OBJ File: 'DLBasicCurve3.blend'
# www.blender.org
mtllib DLBasicCurve3SpikeCollide.mtl
o untitled.001
v -0.000000 0.704790 1.722960
v -0.000000 0.265232 1.365630
v -0.141421 0.246708 1.421200
v -0.200000 0.201986 1.555360
v -0.200000 0.183013 1.549040
v -0.141421 0.227734 1.414870
v -0.141421 0.138291 1.683200
v -0.141421 0.157265 1.689530
v -0.000000 0.119767 1.738775
v -0.000000 0.138741 1.745099
v 0.141421 0.138291 1.683200
v 0.141421 0.157265 1.689530
v 0.200000 0.183013 1.549040
v 0.200000 0.201986 1.555360
v 0.141421 0.227734 1.414870
v 0.141421 0.246708 1.421200
v -0.000000 0.246258 1.359300
vt 0.000000 0.000000
vt 0.698023 0.825987
vt 0.000000 0.000000
vt 0.692048 0.837980
vt 0.693828 0.838573
vt 0.696243 0.825393
vt 0.687852 0.850566
vt 0.689632 0.851160
vt 0.676652 0.885036
vt 0.676652 0.886816
vt 0.663385 0.888553
vt 0.663385 0.886773
vt 0.689920 0.886773
vt 0.689920 0.888553
vt 0.692048 0.837980
vt 0.693828 0.838573
vt 0.689632 0.851160
vt 0.687852 0.850566
vt 0.696243 0.825393
vt 0.698023 0.825987
vt 0.676652 0.896902
vt 0.676652 0.898682
vt 0.689920 0.896944
vt 0.689920 0.895164
vt 0.657889 0.838573
vt 0.663385 0.825987
vt 0.676652 0.820180
vt 0.689920 0.825393
vt 0.695415 0.837980
vt 0.689920 0.850566
vt 0.676652 0.855780
vt 0.663385 0.850566
vt 0.657889 0.837980
vt 0.663385 0.825393
vn -0.3613 0.5882 -0.7235
vn -0.9239 0.1210 -0.3630
vn -0.9239 -0.1210 0.3630
vn -0.3827 -0.2923 0.8764
vn 0.3827 -0.2923 0.8764
vn 0.9239 -0.1210 0.3630
vn 0.9239 0.1210 -0.3630
vn 0.3827 0.2924 -0.8764
vn -0.8724 0.1980 0.4469
vn 0.8724 0.4266 -0.2387
vn 0.8724 0.1980 0.4469
vn 0.3613 0.5882 -0.7235
vn 0.3613 0.0364 0.9317
vn -0.3827 0.2924 -0.8764
vn -0.8724 0.4266 -0.2387
vn -0.3613 0.0364 0.9317
vn 0.0000 -0.9487 -0.3162
usemtl Color_M03
s off
f 2/1/1 3/2/1 1/3/1
usemtl FrontColor
s 1
f 5/4/2 4/5/2 3/2/2 6/6/2
f 7/7/3 8/8/3 4/5/3 5/4/3
f 9/9/4 10/10/4 8/11/4 7/12/4
f 11/13/5 12/14/5 10/10/5 9/9/5
f 13/15/6 14/16/6 12/17/6 11/18/6
f 15/19/7 16/20/7 14/16/7 13/15/7
f 17/21/8 2/22/8 16/23/8 15/24/8
f 1/3/9 4/25/9 8/8/9
f 14/16/10 16/20/10 1/3/10
f 12/17/11 14/16/11 1/3/11
f 16/23/12 2/22/12 1/3/12
f 12/14/13 1/3/13 10/10/13
f 6/6/14 3/2/14 2/22/14 17/21/14
f 1/3/15 3/26/15 4/25/15
f 10/10/16 1/3/16 8/11/16
f 17/27/17 15/28/17 13/29/17 11/30/17 9/31/17 7/32/17 5/33/17 6/34/17
