# Blender v2.82 (sub 7) OBJ File: 'DLBasicCurve3.blend'
# www.blender.org
mtllib DLBasicCurve3SpikeCollide1.mtl
o untitled.002
v -0.000000 -0.094119 2.173734
v -0.141421 -0.139776 2.210434
v -0.200000 -0.250000 2.299038
v -0.141421 -0.360224 2.387641
v -0.000000 -0.405881 2.424342
v 0.141421 -0.360224 2.387641
v 0.200000 -0.250000 2.299038
v 0.141421 -0.139776 2.210434
v 0.141421 -0.347694 2.403230
v -0.000000 -0.393350 2.439930
v 0.200000 -0.237470 2.314626
v 0.141421 -0.127245 2.226022
v -0.000000 -0.081589 2.189322
v -0.141421 -0.127245 2.226022
v -0.200000 -0.237470 2.314626
v -0.141421 -0.347694 2.403230
v -0.000000 0.094587 2.727710
vt 0.676652 0.896585
vt 0.663385 0.900028
vt 0.663385 0.901491
vt 0.676652 0.898048
vt 0.689920 0.916653
vt 0.689920 0.918115
vt 0.676652 0.921558
vt 0.676652 0.920096
vt 0.651425 0.908341
vt 0.652600 0.909803
vt 0.642260 0.918115
vt 0.641084 0.916653
vt 0.661765 0.900028
vt 0.662941 0.901491
vt 0.689920 0.901491
vt 0.689920 0.900028
vt 0.651425 0.908341
vt 0.652600 0.909803
vt 0.662941 0.901491
vt 0.661765 0.900028
vt 0.641084 0.916653
vt 0.642260 0.918115
vt 0.663385 0.918115
vt 0.663385 0.916653
vt 0.000000 0.000000
vt 0.676652 0.864970
vt 0.689920 0.860687
vt 0.695415 0.850346
vt 0.689920 0.840006
vt 0.676652 0.835722
vn -0.3827 0.7201 -0.5788
vn 0.3827 -0.7201 0.5788
vn 0.9239 -0.2983 0.2398
vn 0.9239 0.2983 -0.2398
vn 0.3827 0.7201 -0.5788
vn -0.9239 0.2983 -0.2398
vn -0.9239 -0.2983 0.2398
vn -0.3827 -0.7201 0.5788
vn -0.8724 0.4879 0.0302
vn 0.0000 -0.6265 -0.7794
vn 0.3613 -0.4737 0.8031
vn -0.3614 -0.4737 0.8031
vn -0.3613 0.8862 -0.2900
vn 0.8724 -0.0754 0.4830
vn -0.8724 -0.0754 0.4830
vn 0.3613 0.8862 -0.2900
vn 0.8724 0.4879 0.0302
usemtl Color_M03
s off
f 1/1/1 2/2/1 14/3/1 13/4/1
usemtl FrontColor
s 1
f 6/5/2 9/6/2 10/7/2 5/8/2
f 7/9/3 11/10/3 9/11/3 6/12/3
f 8/13/4 12/14/4 11/10/4 7/9/4
f 1/1/5 13/4/5 12/15/5 8/16/5
f 3/17/6 15/18/6 14/19/6 2/20/6
f 4/21/7 16/22/7 15/18/7 3/17/7
f 5/8/8 10/7/8 16/23/8 4/24/8
f 14/19/9 15/18/9 17/25/9
f 1/26/10 8/27/10 7/28/10 6/29/10 5/30/10 4/21/10 3/17/10 2/2/10
f 17/25/11 10/7/11 9/6/11
f 17/25/12 16/23/12 10/7/12
f 14/3/13 17/25/13 13/4/13
f 11/10/14 17/25/14 9/6/14
f 17/25/15 15/18/15 16/22/15
f 12/15/16 13/4/16 17/25/16
f 11/10/17 12/14/17 17/25/17
