# Blender v2.82 (sub 7) OBJ File: 'DLBasicCurve2Wide.blend'
# www.blender.org
mtllib DLBasicCurve2WideCollider.mtl
o untitled
v 1.450000 -0.455929 1.476383
v 1.450000 -0.500000 1.450000
v 1.500000 -0.450000 1.416478
v 1.450000 -0.500000 -0.429289
v 1.500000 -0.450000 -0.450000
v 1.450000 0.490569 -0.429602
v 1.500000 0.443031 -0.450000
v 1.500000 0.317806 0.484634
v 1.450000 0.366025 0.500000
v 1.500000 -0.037618 1.195483
v 1.450000 -0.000000 1.232051
v -0.450000 -0.455929 1.476383
v -0.500000 -0.450000 1.416478
v -0.450000 -0.500000 1.450000
v -0.500000 -0.450000 -0.450000
v -0.450000 -0.500000 -0.429289
v -0.450000 -0.450000 -0.500000
v -0.429289 -0.500000 -0.450000
v 1.450000 -0.450000 -0.500000
v 1.429289 -0.500000 -0.450000
v -0.450000 0.366025 0.500000
v -0.500000 0.317806 0.484634
v -0.450000 0.490569 -0.429602
v -0.500000 0.443031 -0.450000
v -0.500000 -0.037618 1.195483
v -0.450000 -0.000000 1.232051
v 1.450000 0.449742 -0.500000
v 1.429159 0.493361 -0.450443
v -0.450000 0.449742 -0.500000
v -0.429159 0.493361 -0.450443
vt 0.069675 0.948642
vt 0.069675 0.564694
vt 0.073906 0.560462
vt 0.453623 0.560462
vt 0.457855 0.564694
vt 0.457855 0.948642
vt 0.457855 0.754552
vt 0.069675 0.754552
vt 0.069675 0.904114
vt 0.457855 0.904114
vt 0.457855 0.564630
vt 0.453597 0.560372
vt 0.073933 0.560372
vt 0.069675 0.564630
vt 0.457855 0.556583
vt 0.069675 0.556583
vt 0.069675 0.740404
vt 0.457855 0.740404
vt 0.178209 0.954032
vt 0.169205 0.948642
vt 0.179420 0.941793
vt 0.178209 0.954032
vt 0.179420 0.941793
vt 0.169205 0.948642
vt 0.263672 0.896643
vt 0.271358 0.904114
vt 0.169205 0.564694
vt 0.179420 0.560462
vt 0.371583 0.564630
vt 0.346138 0.754552
vt 0.336287 0.751413
vt 0.361871 0.560462
vt 0.457855 0.555371
vt 0.069675 0.555371
vt 0.069675 0.546367
vt 0.457855 0.546367
vt 0.059460 0.941793
vt 0.059460 0.560462
vt 0.069675 0.550247
vt 0.453623 0.546367
vt 0.073906 0.546367
vt 0.457855 0.550247
vt 0.468070 0.560462
vt 0.336287 0.751413
vt 0.263672 0.896643
vt 0.271358 0.904114
vt 0.346138 0.754552
vt 0.371583 0.564630
vt 0.361871 0.560462
vt 0.468070 0.560462
vt 0.457855 0.550247
vt 0.069675 0.550247
vt 0.059460 0.560462
vt 0.069675 0.648520
vt 0.457855 0.648520
vt 0.000000 0.000000
vt 0.179420 0.560462
vt 0.000000 0.000000
vt 0.468070 0.739033
vn 0.0000 -1.0000 -0.0000
vn 0.0000 0.8944 0.4472
vn 0.0000 0.9911 0.1328
vn 0.0000 0.0000 -1.0000
vn 0.7365 -0.3474 0.5804
vn -0.7365 -0.3474 0.5804
vn 0.7071 0.3340 0.6233
vn 0.7239 0.4947 0.4809
vn 0.7071 -0.7071 -0.0000
vn 0.7059 0.7020 0.0941
vn 0.7113 0.6716 0.2071
vn 0.7113 0.6720 0.2061
vn 0.0000 -0.5136 0.8580
vn -0.7071 -0.7071 -0.0000
vn -0.5000 -0.7071 -0.5000
vn 0.0000 -0.7071 -0.7071
vn 0.5000 -0.7071 -0.5000
vn -0.7113 0.6720 0.2061
vn -0.7239 0.4947 0.4809
vn -0.7113 0.6716 0.2071
vn -0.7059 0.7020 0.0941
vn -0.7071 0.3340 0.6233
vn 0.5255 0.7360 -0.4268
vn 0.0000 0.7506 -0.6607
vn -0.5255 0.7360 -0.4268
vn 0.0000 0.4723 0.8814
vn -1.0000 0.0000 0.0000
vn -0.7071 0.0000 -0.7071
vn 1.0000 0.0000 0.0000
vn 0.7071 0.0000 -0.7071
usemtl FrontColor
s 1
f 14/1/1 16/2/1 18/3/1 20/4/1 4/5/1 2/6/1
f 9/7/2 21/8/2 26/9/2 11/10/2
f 9/7/3 6/11/3 28/12/3 30/13/3 23/14/3 21/8/3
f 19/15/4 17/16/4 29/17/4 27/18/4
f 1/19/5 2/20/5 3/21/5
f 12/22/6 13/23/6 14/24/6
f 3/21/7 10/25/8 11/26/8 1/19/7
f 2/20/9 4/27/9 5/28/9 3/21/9
f 6/29/10 9/30/11 8/31/12 7/32/10
f 1/33/13 12/34/13 14/35/13 2/36/13
f 13/37/14 15/38/14 16/2/14 14/1/14
f 15/38/15 17/39/15 18/3/15 16/2/15
f 17/16/16 19/15/16 20/40/16 18/41/16
f 4/5/17 20/4/17 19/42/17 5/43/17
f 22/44/18 25/45/19 26/46/19 21/47/20
f 21/47/20 23/48/21 24/49/21 22/44/18
f 12/22/22 26/46/19 25/45/19 13/23/22
f 7/50/23 27/51/23 28/12/23 6/11/23
f 27/51/24 29/52/24 30/13/24 28/12/24
f 23/14/25 30/13/25 29/52/25 24/53/25
f 10/25/8 8/31/12 9/30/11 11/26/8
f 26/54/26 12/34/26 1/33/26 11/55/26
f 22/44/27 24/56/27 15/57/27 13/23/27 25/45/27
f 29/17/28 17/16/28 15/57/28 24/56/28
f 10/25/29 3/21/29 5/28/29 7/32/29 8/31/29
f 5/58/30 19/15/30 27/18/30 7/59/30
