# Blender v2.82 (sub 7) OBJ File: 'DLBasicCurve3Wide.blend'
# www.blender.org
mtllib DLBasicCurve3WideSpikeCollide.mtl
o untitled.001
v 0.800000 0.183013 1.549038
v 0.800000 0.201986 1.555363
v 0.858580 0.246708 1.421200
v 0.858580 0.227734 1.414870
v 0.858580 0.138291 1.683202
v 0.858580 0.157265 1.689527
v 1.000000 0.119767 1.738775
v 1.000000 0.138741 1.745099
v 1.141420 0.138291 1.683202
v 1.141420 0.157265 1.689527
v 1.200000 0.183013 1.549038
v 1.200000 0.201986 1.555363
v 1.141420 0.227734 1.414870
v 1.141420 0.246708 1.421200
v 1.000000 0.246258 1.359300
v 1.000000 0.265232 1.365630
v 1.000000 0.704790 1.722963
v 0.641420 0.227734 1.414870
v 0.500000 0.246258 1.359300
v 0.141421 0.227734 1.414870
v 0.000000 0.246258 1.359300
v -0.141421 0.227734 1.414870
v 0.000000 0.119767 1.738775
v -0.141421 0.138291 1.683202
v -0.200000 0.183013 1.549038
v 0.141421 0.138291 1.683202
v 0.200000 0.183013 1.549038
v 0.500000 0.119767 1.738775
v 0.641420 0.138291 1.683202
v 0.700000 0.183013 1.549038
v 0.358579 0.227734 1.414870
v 0.300000 0.183013 1.549038
v 0.358579 0.138291 1.683202
v 0.141421 0.246708 1.421200
v 0.200000 0.201986 1.555363
v 0.000000 0.265232 1.365630
v -0.141421 0.246708 1.421200
v -0.200000 0.201986 1.555363
v -0.141421 0.157265 1.689527
v 0.000000 0.138741 1.745099
v 0.141421 0.157265 1.689527
v 0.000000 0.704790 1.722963
v 0.500000 0.138741 1.745099
v 0.358579 0.157265 1.689527
v 0.641420 0.157265 1.689527
v 0.700000 0.201986 1.555363
v 0.641420 0.246708 1.421200
v 0.500000 0.265232 1.365630
v 0.358579 0.246708 1.421200
v 0.300000 0.201986 1.555363
v 0.500000 0.704790 1.722963
vt 0.000000 0.000000
vt 0.000000 0.000000
vt 0.000000 0.000000
vt 0.000000 0.000000
vt 0.000000 0.000000
vt 0.000000 0.000000
vt 0.647477 0.860572
vt 0.647976 0.859081
vt 0.637432 0.855558
vt 0.636933 0.857049
vt 0.658022 0.864095
vt 0.658520 0.862604
vt 0.686126 0.832841
vt 0.687617 0.832842
vt 0.689066 0.843960
vt 0.687574 0.843959
vt 0.687590 0.821725
vt 0.689081 0.821726
vt 0.647477 0.860572
vt 0.647976 0.859081
vt 0.658520 0.862604
vt 0.658022 0.864095
vt 0.636933 0.857049
vt 0.637432 0.855558
vt 0.696069 0.832848
vt 0.697561 0.832850
vt 0.696113 0.821731
vt 0.694621 0.821730
vt 0.694605 0.843964
vt 0.696097 0.843965
vt 0.662412 0.832825
vt 0.658036 0.843939
vt 0.647486 0.848536
vt 0.636942 0.843924
vt 0.632582 0.832804
vt 0.636958 0.821690
vt 0.647508 0.817092
vt 0.658051 0.821705
vt 0.662357 0.911435
vt 0.657980 0.922549
vt 0.647430 0.927146
vt 0.636887 0.922534
vt 0.632526 0.911413
vt 0.636902 0.900300
vt 0.647453 0.895702
vt 0.657996 0.900314
vt 0.636933 0.857049
vt 0.637432 0.855558
vt 0.647976 0.859081
vt 0.647477 0.860572
vt 0.696014 0.911458
vt 0.697505 0.911459
vt 0.696057 0.900341
vt 0.694566 0.900340
vt 0.647477 0.860572
vt 0.647976 0.859081
vt 0.637432 0.855558
vt 0.636933 0.857049
vt 0.658022 0.864095
vt 0.658520 0.862604
vt 0.686071 0.911451
vt 0.687562 0.911452
vt 0.689010 0.922570
vt 0.687519 0.922569
vt 0.687535 0.900335
vt 0.689026 0.900336
vt 0.658520 0.862604
vt 0.658022 0.864095
vt 0.696085 0.861036
vt 0.697533 0.872154
vt 0.000000 0.000000
vt 0.658520 0.862604
vt 0.687590 0.872147
vt 0.647976 0.859081
vt 0.658520 0.862604
vt 0.689038 0.883266
vt 0.694550 0.922574
vt 0.632554 0.872109
vt 0.636930 0.860995
vt 0.647480 0.856397
vt 0.658024 0.861010
vt 0.662385 0.872130
vt 0.658008 0.883244
vt 0.647458 0.887841
vt 0.636914 0.883229
vt 0.686098 0.872146
vt 0.687547 0.883265
vt 0.687562 0.861030
vt 0.689054 0.861031
vt 0.647477 0.860572
vt 0.647976 0.859081
vt 0.658022 0.864095
vt 0.636933 0.857049
vt 0.637432 0.855558
vt 0.696042 0.872153
vt 0.694593 0.861035
vt 0.647477 0.860572
vt 0.637432 0.855558
vt 0.636933 0.857049
vt 0.658022 0.864095
vt 0.694578 0.883269
vn -0.3613 0.5882 -0.7235
vn -0.9239 0.1211 -0.3630
vn -0.9239 -0.1210 0.3630
vn -0.3827 -0.2922 0.8765
vn 0.3827 -0.2922 0.8765
vn 0.9239 -0.1210 0.3630
vn 0.9239 0.1211 -0.3630
vn 0.3827 0.2924 -0.8764
vn -0.3827 0.2924 -0.8764
vn 0.0000 -0.9487 -0.3162
vn 0.3613 0.5882 -0.7235
vn 0.3614 0.0364 0.9317
vn -0.8724 0.1980 0.4469
vn -0.8724 0.4266 -0.2387
vn -0.3614 0.0364 0.9317
vn 0.8724 0.4266 -0.2387
vn 0.8724 0.1980 0.4469
usemtl Color_M03
s off
f 48/1/1 49/2/1 51/3/1
f 36/4/1 37/5/1 42/6/1
s 1
f 1/7/2 2/8/2 3/9/2 4/10/2
f 5/11/3 6/12/3 2/8/3 1/7/3
f 7/13/4 8/14/4 6/15/4 5/16/4
f 9/17/5 10/18/5 8/14/5 7/13/5
f 11/19/6 12/20/6 10/21/6 9/22/6
f 13/23/7 14/24/7 12/20/7 11/19/7
f 15/25/8 16/26/8 14/27/8 13/28/8
f 4/29/9 3/30/9 16/26/9 15/25/9
f 7/31/10 5/32/10 1/33/10 4/34/10 15/35/10 13/36/10 11/37/10 9/38/10
f 23/39/10 24/40/10 25/41/10 22/42/10 21/43/10 20/44/10 27/45/10 26/46/10
f 20/47/7 34/48/7 35/49/7 27/50/7
f 21/51/8 36/52/8 34/53/8 20/54/8
f 25/55/2 38/56/2 37/57/2 22/58/2
f 24/59/3 39/60/3 38/56/3 25/55/3
f 23/61/4 40/62/4 39/63/4 24/64/4
f 26/65/5 41/66/5 40/62/5 23/61/5
f 27/50/6 35/49/6 41/67/6 26/68/6
f 47/69/11 48/70/11 51/3/11
f 14/27/11 16/26/11 17/71/11
f 45/72/12 51/3/12 43/73/12
f 51/3/13 50/74/13 44/75/13
f 10/18/12 17/71/12 8/14/12
f 51/3/14 49/2/14 50/74/14
f 43/73/15 51/3/15 44/76/15
f 36/52/9 21/51/9 22/77/9 37/5/9
f 19/78/10 18/79/10 30/80/10 29/81/10 28/82/10 33/83/10 32/84/10 31/85/10
f 28/86/4 43/73/4 44/76/4 33/87/4
f 29/88/5 45/89/5 43/73/5 28/86/5
f 30/90/6 46/91/6 45/72/6 29/92/6
f 18/93/7 47/94/7 46/91/7 30/90/7
f 19/95/8 48/70/8 47/69/8 18/96/8
f 32/97/2 50/74/2 49/98/2 31/99/2
f 33/100/3 44/75/3 50/74/3 32/97/3
f 17/71/13 2/8/13 6/12/13
f 17/71/14 3/30/14 2/8/14
f 8/14/15 17/71/15 6/15/15
f 16/26/1 3/30/1 17/71/1
f 12/20/16 14/24/16 17/71/16
f 10/21/17 12/20/17 17/71/17
f 48/70/9 19/95/9 31/101/9 49/2/9
f 41/67/17 35/49/17 42/6/17
f 35/49/16 34/48/16 42/6/16
f 40/62/15 42/6/15 39/63/15
f 42/6/14 37/5/14 38/56/14
f 45/72/17 46/91/17 51/3/17
f 42/6/13 38/56/13 39/60/13
f 41/67/12 42/6/12 40/62/12
f 46/91/16 47/94/16 51/3/16
f 34/53/11 36/52/11 42/6/11
