# Blender v2.82 (sub 7) OBJ File: 'DLBasicCurve2Wide.blend'
# www.blender.org
mtllib DLBasicCurve2WideSpikeCollide.mtl
o untitled.001
v 0.000000 0.272455 0.687140
v -0.141421 0.246258 0.739534
v -0.200000 0.183013 0.866025
v -0.141421 0.119767 0.992517
v 0.000000 0.093570 1.044911
v 0.141421 0.119767 0.992517
v 0.500000 0.093570 1.044911
v 0.641420 0.119767 0.992517
v 0.858580 0.119767 0.992517
v 1.000000 0.093570 1.044911
v 1.141420 0.119767 0.992517
v 1.200000 0.183013 0.866025
v 1.141420 0.246258 0.739534
v 1.000000 0.272455 0.687140
v 0.858580 0.246258 0.739534
v 0.641420 0.246258 0.739534
v 0.500000 0.272455 0.687140
v 0.141421 0.246258 0.739534
v 0.000000 0.290344 0.696084
v 0.141421 0.264147 0.748479
v -0.141421 0.264147 0.748479
v -0.200000 0.200901 0.874970
v -0.141421 0.137656 1.001461
v 0.000000 0.111459 1.053855
v 0.141421 0.137656 1.001461
v 0.200000 0.183013 0.866025
v 0.200000 0.200901 0.874970
v 0.000000 0.674950 1.111993
v 0.358579 0.119767 0.992517
v 0.500000 0.111459 1.053855
v 0.358579 0.137656 1.001461
v 0.641420 0.137656 1.001461
v 0.700000 0.183013 0.866025
v 0.700000 0.200901 0.874970
v 0.641420 0.264147 0.748479
v 0.500000 0.290344 0.696084
v 0.358579 0.246258 0.739534
v 0.358579 0.264147 0.748479
v 0.300000 0.183013 0.866025
v 0.300000 0.200901 0.874970
v 0.500000 0.674950 1.111993
v 0.800000 0.183013 0.866025
v 0.858580 0.137656 1.001461
v 0.800000 0.200901 0.874970
v 1.000000 0.111459 1.053855
v 1.141420 0.137656 1.001461
v 1.200000 0.200901 0.874970
v 1.141420 0.264147 0.748479
v 1.000000 0.290344 0.696084
v 0.858580 0.264147 0.748479
v 1.000000 0.674950 1.111993
vt 0.000000 0.000000
vt 0.000000 0.000000
vt 0.676786 0.802752
vt 0.672872 0.823876
vt 0.000000 0.000000
vt 0.676786 0.952126
vt 0.679458 0.952126
vt 0.675545 0.931001
vt 0.672872 0.931001
vt 0.672872 0.973250
vt 0.675545 0.973250
vt 0.668958 0.889396
vt 0.670294 0.886724
vt 0.651400 0.877277
vt 0.650064 0.879949
vt 0.687853 0.898844
vt 0.689189 0.896171
vt 0.650065 0.952126
vt 0.652737 0.952126
vt 0.656650 0.973250
vt 0.653978 0.973250
vt 0.653978 0.931001
vt 0.656650 0.931001
vt 0.668958 0.889396
vt 0.670294 0.886724
vt 0.689189 0.896171
vt 0.687853 0.898844
vt 0.650064 0.879949
vt 0.651400 0.877277
vt 0.652737 0.877439
vt 0.656650 0.856314
vt 0.000000 0.000000
vt 0.670294 0.886724
vt 0.689189 0.896171
vt 0.679458 0.877439
vt 0.675545 0.898563
vt 0.670294 0.886724
vt 0.651400 0.877277
vt 0.689189 0.896171
vt 0.656650 0.898563
vt 0.651400 0.877277
vt 0.642237 0.952126
vt 0.650064 0.931001
vt 0.668958 0.922251
vt 0.687853 0.931001
vt 0.695679 0.952126
vt 0.687853 0.973250
vt 0.668958 0.982001
vt 0.650064 0.973250
vt 0.650065 0.877439
vt 0.653978 0.898563
vt 0.653978 0.856314
vt 0.668958 0.889396
vt 0.687853 0.898844
vt 0.650064 0.879949
vt 0.676786 0.877439
vt 0.675545 0.856314
vt 0.672872 0.856314
vt 0.672872 0.898563
vt 0.668958 0.889396
vt 0.650064 0.879949
vt 0.687853 0.898844
vt 0.652737 0.802752
vt 0.656650 0.781627
vt 0.695679 0.877439
vt 0.687853 0.898563
vt 0.668958 0.907314
vt 0.650064 0.898563
vt 0.642237 0.877439
vt 0.650064 0.856314
vt 0.668958 0.847564
vt 0.687853 0.856314
vt 0.670294 0.886724
vt 0.689189 0.896171
vt 0.670294 0.886724
vt 0.651400 0.877277
vt 0.689189 0.896171
vt 0.656650 0.823876
vt 0.651400 0.877277
vt 0.675545 0.781627
vt 0.679458 0.802752
vt 0.687853 0.898844
vt 0.668958 0.889396
vt 0.650065 0.802752
vt 0.653978 0.823876
vt 0.653978 0.781627
vt 0.668958 0.889396
vt 0.687853 0.898844
vt 0.650064 0.879949
vt 0.672872 0.781627
vt 0.650064 0.879949
vt 0.695679 0.802752
vt 0.687853 0.823876
vt 0.668958 0.832627
vt 0.650064 0.823876
vt 0.642237 0.802752
vt 0.650064 0.781627
vt 0.668958 0.772877
vt 0.687853 0.781627
vt 0.000000 0.000000
vn -0.3827 0.4132 -0.8263
vn -0.3614 0.6846 -0.6331
vn 0.3827 0.4132 -0.8263
vn -0.9239 0.1712 -0.3423
vn -0.9239 -0.1711 0.3423
vn -0.3827 -0.4132 0.8264
vn 0.3827 -0.4132 0.8264
vn 0.9239 -0.1711 0.3423
vn 0.9239 0.1712 -0.3423
vn 0.3614 -0.0957 0.9275
vn -0.8724 0.1328 0.4704
vn 0.8724 0.4560 -0.1760
vn 0.8724 0.1328 0.4704
vn -0.3614 -0.0957 0.9275
vn -0.8724 0.4560 -0.1760
vn 0.0000 -0.8944 -0.4472
vn 0.3614 0.6846 -0.6331
vn -0.9239 -0.1712 0.3423
usemtl Color_M03
s off
f 50/1/1 49/2/1 14/3/1 15/4/1
f 49/2/2 50/1/2 51/5/2
usemtl FrontColor
s 1
f 1/6/3 19/7/3 20/8/3 18/9/3
f 2/10/1 21/11/1 19/7/1 1/6/1
f 3/12/4 22/13/4 21/14/4 2/15/4
f 4/16/5 23/17/5 22/13/5 3/12/5
f 5/18/6 24/19/6 23/20/6 4/21/6
f 6/22/7 25/23/7 24/19/7 5/18/7
f 26/24/8 27/25/8 25/26/8 6/27/8
f 18/28/9 20/29/9 27/25/9 26/24/9
f 30/30/10 32/31/10 41/32/10
f 40/33/11 31/34/11 41/32/11
f 36/35/2 38/36/2 41/32/2
f 34/37/12 35/38/12 41/32/12
f 32/39/13 34/37/13 41/32/13
f 31/40/14 30/30/14 41/32/14
f 38/41/15 40/33/15 41/32/15
f 1/42/16 18/43/16 26/44/16 6/45/16 5/46/16 4/47/16 3/48/16 2/49/16
f 7/50/6 30/30/6 31/40/6 29/51/6
f 8/52/7 32/31/7 30/30/7 7/50/7
f 33/53/8 34/37/8 32/39/8 8/54/8
f 16/55/9 35/38/9 34/37/9 33/53/9
f 17/56/3 36/35/3 35/57/3 16/58/3
f 37/59/1 38/36/1 36/35/1 17/56/1
f 39/60/4 40/33/4 38/41/4 37/61/4
f 29/62/5 31/34/5 40/33/5 39/60/5
f 45/63/10 46/64/10 51/5/10
f 7/65/16 29/66/16 39/67/16 37/68/16 17/69/16 16/70/16 33/71/16 8/72/16
f 44/73/11 43/74/11 51/5/11
f 47/75/12 48/76/12 51/5/12
f 46/77/13 47/75/13 51/5/13
f 43/78/14 45/63/14 51/5/14
f 50/79/15 44/73/15 51/5/15
f 48/80/17 49/81/17 51/5/17
f 35/57/17 36/35/17 41/32/17
f 9/82/18 43/74/18 44/73/18 42/83/18
f 10/84/6 45/63/6 43/78/6 9/85/6
f 11/86/7 46/64/7 45/63/7 10/84/7
f 12/87/8 47/75/8 46/77/8 11/88/8
f 13/89/9 48/76/9 47/75/9 12/87/9
f 14/3/3 49/81/3 48/80/3 13/90/3
f 42/83/4 44/73/4 50/79/4 15/91/4
f 10/92/16 9/93/16 42/94/16 15/95/16 14/96/16 13/97/16 12/98/16 11/99/16
f 20/8/17 19/7/17 28/100/17
f 21/14/15 22/13/15 28/100/15
f 23/20/14 24/19/14 28/100/14
f 25/26/13 27/25/13 28/100/13
f 27/25/12 20/29/12 28/100/12
f 19/7/2 21/11/2 28/100/2
f 22/13/11 23/17/11 28/100/11
f 24/19/10 25/23/10 28/100/10
