# Blender v2.82 (sub 7) OBJ File: 'DLBasicCurve1Wide.blend'
# www.blender.org
mtllib DLBasicCurve1WideSpikeCollide.mtl
o untitled.001
v 0.999510 0.571920 0.571922
v 0.999510 0.338576 0.055734
v 0.858090 0.297155 0.097155
v 0.799510 0.197155 0.197155
v 0.799510 0.183013 0.183012
v 0.858090 0.283013 0.083012
v 0.858090 0.083013 0.283012
v 0.858090 0.097155 0.297155
v 0.999510 0.041591 0.324434
v 0.999510 0.055733 0.338577
v 1.140930 0.083013 0.283012
v 1.140930 0.097155 0.297155
v 1.199510 0.183013 0.183012
v 1.199510 0.197155 0.197155
v 1.140930 0.283013 0.083012
v 1.140930 0.297155 0.097155
v 0.999510 0.324434 0.041592
v 0.499753 0.324434 0.041592
v 0.641170 0.283013 0.083012
v 0.699750 0.183013 0.183012
v 0.641170 0.083013 0.283012
v 0.499753 0.041591 0.324434
v -0.000123 0.041591 0.324434
v -0.141545 0.083013 0.283012
v -0.200123 0.183013 0.183012
v -0.000123 0.324434 0.041592
v -0.141545 0.283013 0.083012
v 0.141298 0.083013 0.283012
v 0.199877 0.183013 0.183012
v 0.141298 0.283013 0.083012
v 0.358332 0.083013 0.283012
v 0.499753 0.055733 0.338577
v 0.358332 0.097155 0.297155
v 0.641170 0.097155 0.297155
v 0.699750 0.197155 0.197155
v 0.641170 0.297155 0.097155
v 0.499753 0.338576 0.055734
v 0.358332 0.283013 0.083012
v 0.358332 0.297155 0.097155
v 0.299753 0.183013 0.183012
v 0.299753 0.197155 0.197155
v 0.499753 0.571920 0.571922
v 0.199877 0.197155 0.197155
v 0.141298 0.097155 0.297155
v 0.141298 0.297155 0.097155
v -0.000123 0.338576 0.055734
v -0.141545 0.297155 0.097155
v -0.200123 0.197155 0.197155
v -0.141545 0.097155 0.297155
v -0.000123 0.055733 0.338577
v -0.000123 0.571920 0.571922
vt 0.670161 0.879449
vt 0.672258 0.877352
vt 0.657428 0.862522
vt 0.655331 0.864619
vt 0.684991 0.894279
vt 0.687088 0.892182
vt 0.691133 0.795887
vt 0.693231 0.795887
vt 0.687088 0.816859
vt 0.684991 0.816859
vt 0.684991 0.774914
vt 0.687088 0.774914
vt 0.670161 0.879449
vt 0.672258 0.877352
vt 0.687088 0.892182
vt 0.684991 0.894279
vt 0.655331 0.864619
vt 0.657428 0.862522
vt 0.691099 0.795887
vt 0.693196 0.795887
vt 0.687053 0.774914
vt 0.684956 0.774914
vt 0.684956 0.816859
vt 0.687053 0.816859
vt 0.691133 0.870000
vt 0.693231 0.870000
vt 0.687088 0.890972
vt 0.684991 0.890972
vt 0.684991 0.849028
vt 0.687088 0.849028
vt 0.670161 0.879449
vt 0.672258 0.877352
vt 0.687088 0.892182
vt 0.684991 0.894279
vt 0.655331 0.864619
vt 0.657428 0.862522
vt 0.691099 0.870000
vt 0.693196 0.870000
vt 0.687053 0.849028
vt 0.684956 0.849028
vt 0.684956 0.890972
vt 0.687053 0.890972
vt 0.670161 0.879449
vt 0.672258 0.877352
vt 0.657428 0.862522
vt 0.655331 0.864619
vt 0.684991 0.894279
vt 0.687088 0.892182
vt 0.000000 0.000000
vt 0.649188 0.795887
vt 0.655331 0.774914
vt 0.670161 0.766227
vt 0.670161 0.825546
vt 0.655331 0.816859
vt 0.670161 0.879449
vt 0.672258 0.877352
vt 0.687088 0.892182
vt 0.684991 0.894279
vt 0.655331 0.864619
vt 0.657428 0.862522
vt 0.691099 0.944130
vt 0.693196 0.944130
vt 0.687053 0.923158
vt 0.684956 0.923158
vt 0.684956 0.965103
vt 0.687053 0.965103
vt 0.670161 0.879449
vt 0.672258 0.877352
vt 0.657428 0.862522
vt 0.655331 0.864619
vt 0.684991 0.894279
vt 0.687088 0.892182
vt 0.691133 0.944130
vt 0.693231 0.944130
vt 0.687088 0.965103
vt 0.684991 0.965103
vt 0.684991 0.923158
vt 0.687088 0.923158
vt 0.670161 0.973790
vt 0.655331 0.965103
vt 0.649188 0.944130
vt 0.655331 0.923158
vt 0.670161 0.914471
vt 0.672223 0.840340
vt 0.000000 0.000000
vt 0.670161 0.899659
vt 0.655331 0.890972
vt 0.649188 0.870000
vt 0.655331 0.849028
vt 0.670161 0.840340
vt 0.000000 0.000000
vt 0.000000 0.000000
vn -0.7764 -0.4457 -0.4457
vn -0.9239 0.2706 -0.2706
vn -0.5490 -0.0575 -0.8339
vn -0.5490 -0.8339 -0.0575
vn -0.9239 -0.2706 0.2706
vn 0.0000 -0.9946 0.1033
vn -0.3827 -0.6533 0.6533
vn 0.5490 -0.8339 -0.0575
vn 0.3827 -0.6533 0.6533
vn 0.7764 -0.4457 -0.4457
vn 0.9239 -0.2706 0.2706
vn 0.5490 -0.0575 -0.8339
vn 0.9239 0.2706 -0.2706
vn -0.0000 0.1033 -0.9946
vn 0.3827 0.6533 -0.6533
vn -0.3827 0.6533 -0.6533
vn 0.9356 0.2497 0.2496
vn 0.6616 0.7175 -0.2182
vn 0.0000 0.7071 0.7071
vn -0.0000 0.9112 -0.4119
vn -0.6616 0.7175 -0.2182
vn -0.9356 0.2496 0.2496
vn -0.6616 -0.2182 0.7174
vn 0.0000 -0.4119 0.9112
vn 0.6616 -0.2182 0.7174
vn 0.2123 -0.2260 -0.9507
vn -0.2123 -0.9507 -0.2260
vn 0.0000 -0.7071 -0.7071
vn 0.9356 0.2496 0.2496
vn 0.6616 0.7174 -0.2182
vn 0.1488 -0.2446 -0.9581
vn -0.0602 -0.6880 -0.7232
vn -0.2515 -0.9281 -0.2747
vn -0.0813 -0.7230 -0.6860
vn -0.0390 -0.6508 -0.7582
vn -0.6616 0.7175 -0.2181
usemtl FrontColor
s 1
f 5/1/1 4/2/2 3/3/2 6/4/3
f 7/5/4 8/6/5 4/2/5 5/1/1
f 9/7/6 10/8/7 8/9/7 7/10/4
f 11/11/8 12/12/9 10/8/9 9/7/6
f 13/13/10 14/14/11 12/15/11 11/16/8
f 15/17/12 16/18/13 14/14/13 13/13/10
f 17/19/14 2/20/15 16/21/15 15/22/12
f 6/23/3 3/24/16 2/20/16 17/19/14
f 22/25/6 32/26/7 33/27/7 31/28/4
f 21/29/8 34/30/9 32/26/9 22/25/6
f 20/31/10 35/32/11 34/33/11 21/34/8
f 19/35/12 36/36/13 35/32/13 20/31/10
f 18/37/14 37/38/15 36/39/15 19/40/12
f 38/41/3 39/42/16 37/38/16 18/37/14
f 40/43/1 41/44/2 39/45/2 38/46/3
f 31/47/4 33/48/5 41/44/5 40/43/1
f 14/14/17 16/18/18 1/49/19
f 2/20/20 3/24/21 1/49/19
f 16/21/18 2/20/20 1/49/19
f 3/3/21 4/2/22 1/49/19
f 1/49/19 8/6/23 10/8/24
f 1/49/19 10/8/24 12/12/25
f 1/49/19 4/2/22 8/6/23
f 14/14/17 1/49/19 12/15/25
f 17/50/14 15/51/12 13/52/10 11/11/8 9/7/6 7/10/4 5/53/1 6/54/3
f 29/55/11 43/56/11 44/57/11 28/58/11
f 30/59/13 45/60/13 43/56/13 29/55/13
f 26/61/14 46/62/15 45/63/15 30/64/26
f 27/65/3 47/66/16 46/62/16 26/61/14
f 25/67/1 48/68/2 47/69/2 27/70/3
f 24/71/4 49/72/5 48/68/5 25/67/1
f 23/73/27 50/74/7 49/75/7 24/76/4
f 28/77/9 44/78/9 50/74/9 23/73/9
f 23/73/27 24/76/4 25/79/1 27/80/3 26/81/14 30/82/26 29/83/28 28/77/28
f 35/84/29 36/39/30 42/85/19
f 37/38/20 39/42/21 42/85/19
f 36/39/30 37/38/20 42/85/19
f 39/45/21 41/44/22 42/85/19
f 42/85/19 33/48/23 32/26/24
f 42/85/19 32/26/24 34/30/25
f 22/25/6 31/28/4 40/86/1 38/87/3 18/88/14 19/89/12 20/90/10 21/29/8
f 30/59/31 29/55/32 28/58/32 23/91/33 49/72/34 48/68/32 47/69/32 46/62/35
f 45/63/18 46/62/20 51/92/19
f 23/73/33 50/74/7 49/75/34
f 47/69/36 48/68/22 51/92/19
f 30/59/31 46/62/35 45/63/15
f 49/75/23 50/74/24 51/92/19
f 35/32/29 42/85/19 34/33/25
f 43/56/29 45/60/18 51/92/19
f 44/57/25 43/56/29 51/92/19
f 42/85/19 41/44/22 33/48/23
f 46/62/20 47/66/36 51/92/19
f 48/68/22 49/72/23 51/92/19
f 50/74/24 44/78/25 51/92/19
