# Blender v2.82 (sub 7) OBJ File: 'DL_CSlope3R.blend'
# www.blender.org
mtllib DLCornerLargeSlopeR.mtl
o CornerSlope
v -0.250000 -0.000000 0.799038
v 0.450000 -0.350000 -0.500000
v 0.350000 -0.300000 -0.500000
v 0.350000 0.300000 -0.500000
v 0.450000 0.350000 -0.500000
v 0.500000 -0.350000 -0.450000
v 0.435000 -0.337500 -0.485000
v 0.485000 -0.337500 -0.435000
v 0.360000 -0.300000 -0.485000
v 0.360000 0.300000 -0.485000
v 0.435000 0.337500 -0.485000
v 0.485000 0.337500 -0.435000
v 0.485000 -0.300000 -0.360000
v 0.485000 0.300000 -0.360000
v 0.500000 0.300000 -0.350000
v 0.500000 -0.300000 -0.350000
v 0.500000 0.350000 -0.450000
v 0.250000 0.366025 0.799038
v 0.066988 0.366025 0.250000
v 0.066988 -0.000000 1.750000
v -0.316743 -0.500000 0.989732
v -0.355395 -0.454192 0.981588
v -0.445335 -0.500000 -0.450000
v -0.483243 -0.454095 -0.450106
v -0.434839 -0.450000 -0.500000
v -0.321196 -0.025882 -0.500000
v -0.361568 -0.000000 -0.450103
v 0.429289 -0.500000 -0.450000
v 0.450000 -0.450000 -0.500000
v 0.042785 -0.500000 2.068321
v 0.006105 -0.454436 2.066360
v 0.453858 -0.454559 2.426382
v 0.450000 -0.500000 2.395657
v 0.500000 -0.450000 2.395657
v 0.500000 -0.450000 -0.450000
v 0.450000 -0.500000 -0.429289
v 0.431146 0.477108 -0.450264
v 0.450000 0.435808 -0.500000
v 0.027156 0.322470 -0.500000
v 0.004458 0.366025 -0.450096
v 0.454731 0.481321 -0.426679
v 0.500000 0.444796 -0.450000
v 0.500000 0.316035 0.991856
v 0.453392 0.366025 0.962534
v 0.453708 -0.000000 2.060867
v 0.500000 -0.042785 2.068321
vt 0.191200 0.759264
vt 0.172412 0.548909
vt 0.303226 0.551935
vt 0.241446 0.707561
vt 0.288616 0.704278
vt 0.288616 0.616614
vt 0.247265 0.651184
vt 0.184651 0.548894
vt 0.200951 0.731402
vt 0.238370 0.594050
vt 0.303768 0.660446
vt 0.247265 0.660446
vt 0.303226 0.541604
vt 0.308340 0.551101
vt 0.310532 0.548909
vt 0.288616 0.541604
vt 0.301035 0.543795
vt 0.239847 0.541604
vt 0.327511 0.543795
vt 0.239847 0.543795
vt 0.288616 0.541604
vt 0.301035 0.543795
vt 0.290077 0.543795
vt 0.383295 0.465437
vt 0.398223 0.338549
vt 0.383295 0.346013
vt 0.408175 0.472901
vt 0.408175 0.338549
vt 0.307404 0.256765
vt 0.434292 0.271693
vt 0.314868 0.271693
vt 0.308340 0.704278
vt 0.310532 0.616614
vt 0.308340 0.616614
vt 0.310532 0.563520
vt 0.308340 0.551101
vt 0.310532 0.548909
vt 0.303226 0.541604
vt 0.303918 0.552316
vt 0.300472 0.548871
vt 0.238129 0.548895
vt 0.310532 0.711583
vt 0.303226 0.724120
vt 0.310532 0.725434
vt 0.247265 0.870344
vt 0.303722 0.755290
vt 0.274005 0.731402
vt 0.303226 0.594698
vt 0.310532 0.609308
vt 0.310532 0.594698
vt 0.217931 0.548909
vt 0.239847 0.563520
vt 0.329854 0.759574
vt 0.283679 0.731402
vt 0.217333 0.548894
vt 0.217319 0.758074
vt 0.310532 0.563520
vt 0.308340 0.562059
vt 0.172412 0.587392
vt 0.166873 0.594099
vt 0.173945 0.594698
vt 0.303790 0.594032
vt 0.303226 0.587392
vt 0.310532 0.594698
vt 0.210626 0.548909
vt 0.210626 0.759264
vt 0.283679 0.548894
vt 0.217931 0.541604
vt 0.303226 0.541604
vt 0.300200 0.548909
vt 0.300200 0.587392
vt 0.217283 0.916567
vt 0.243729 0.587392
vt 0.310532 0.964679
vt 0.303226 0.964679
vt 0.241446 0.541604
vt 0.303226 0.541604
vt 0.184651 0.660446
vt 0.190549 0.656664
vt 0.310532 0.548909
vt 0.303768 0.915764
vt 0.310532 0.759574
vt 0.310532 0.654195
vt 0.283679 0.870344
vt 0.243729 0.916853
vt 0.303226 0.711583
vt 0.303226 0.609308
vt 0.290077 0.543795
vt 0.327511 0.541604
vt 0.398223 0.472901
vt 0.441756 0.256765
vt 0.310532 0.704278
vt 0.308340 0.562059
vt 0.348667 0.548909
vt 0.327511 0.563520
vt 0.277428 0.916853
vt 0.217931 0.964679
vt 0.232542 0.548909
vt 0.334817 0.548909
vt 0.279898 0.541604
vt 0.310532 0.548909
vt 0.210626 0.916853
vt 0.238129 0.713925
vt 0.310532 0.916853
vn -0.0000 -1.0000 -0.0000
vn -0.0000 0.0000 -1.0000
vn -0.7057 0.7057 0.0630
vn -0.5309 0.5309 0.6605
vn 0.3590 0.8615 -0.3590
vn 0.3147 0.8599 -0.4019
vn 0.3370 0.8611 -0.3806
vn 0.4286 0.8571 -0.2857
vn 0.8320 0.0000 -0.5547
vn 0.4286 -0.8571 -0.2857
vn 0.4019 -0.8599 -0.3147
vn 0.7071 0.0000 -0.7071
vn 1.0000 -0.0000 0.0000
vn 0.5547 0.0000 -0.8320
vn 0.2857 -0.8571 -0.4286
vn 0.3590 -0.8616 -0.3590
vn 0.3806 -0.8611 -0.3370
vn -0.2281 0.9722 0.0533
vn -0.2511 0.9647 0.0788
vn -0.2492 0.9682 0.0242
vn -0.2464 0.9194 0.3065
vn -0.5796 0.7917 0.1932
vn -0.9624 0.2579 0.0860
vn 0.2857 0.8571 -0.4286
vn -0.6015 -0.4982 -0.6245
vn 0.5109 -0.5109 0.6914
vn -0.7688 -0.6228 0.1454
vn -0.7693 -0.6352 0.0687
vn -0.7675 -0.6162 0.1767
vn -0.6230 0.3635 -0.6926
vn -0.7123 0.1909 -0.6754
vn 0.5000 -0.7071 -0.5000
vn 0.0000 -0.7071 -0.7071
vn -0.7590 -0.6000 0.2530
vn -0.5669 -0.4262 0.7050
vn -0.5662 -0.4280 0.7044
vn -0.5670 -0.4261 0.7050
vn 0.7071 -0.7071 -0.0000
vn -0.3586 0.6175 -0.7001
vn -0.1914 0.7161 -0.6713
vn -0.1924 0.7179 -0.6691
vn -0.6271 0.3567 -0.6924
vn 0.3677 0.7794 -0.5074
vn 0.3677 0.7793 -0.5075
vn 0.3676 0.7792 -0.5077
vn 0.6367 0.7315 0.2438
vn 0.6626 0.7259 0.1845
vn 0.6889 0.7148 0.1207
vn 0.6489 0.7582 0.0637
vn 0.6463 0.7604 0.0637
vn 0.4133 0.5707 0.7096
vn 0.4155 0.5699 0.7089
vn 0.4157 0.5698 0.7089
vn -0.8962 0.3280 0.2987
vn -0.1629 0.9846 0.0641
vn 0.0000 1.0000 0.0000
vn -0.0845 0.9954 0.0458
vn -0.7589 -0.6001 0.2530
vn -0.5662 -0.4282 0.7043
vn -0.3519 0.6200 -0.7012
vn 0.3678 0.7795 -0.5070
vn 0.6368 0.7315 0.2438
vn 0.4132 0.5707 0.7096
usemtl Color_M03
s 1
f 21/1/1 23/2/1 36/3/1
f 39/4/2 4/5/2 3/6/2
f 19/7/3 27/8/3 1/9/3
f 31/10/4 45/11/4 20/12/4
f 2/13/5 8/14/6 6/15/7
f 3/16/8 7/17/8 2/13/8
f 3/18/9 10/19/9 9/20/9
f 4/21/10 11/22/11 10/23/10
f 10/24/2 7/25/2 9/26/2
f 7/25/12 12/27/12 8/28/12
f 8/29/13 14/30/13 13/31/13
f 14/32/14 16/33/14 13/34/14
f 15/35/15 12/36/15 17/37/15
f 17/37/16 11/22/11 5/38/17
f 41/39/18 37/40/19 40/41/20
f 17/42/12 38/43/12 42/44/12
f 20/45/21 44/46/21 18/47/21
f 29/48/12 6/49/12 35/50/12
f 18/47/22 1/9/22 20/45/22
f 35/51/13 16/52/13 43/53/13
f 1/54/23 24/55/23 22/56/23
f 16/57/24 8/14/6 13/58/24
f 23/59/25 24/60/25 25/61/25
f 32/62/26 33/63/26 34/64/26
f 22/56/27 23/65/28 21/66/29
f 27/67/30 25/68/31 24/55/31
f 29/69/32 36/3/32 28/70/32
f 25/61/33 28/71/33 23/59/33
f 21/66/29 31/72/34 22/56/27
f 30/73/35 32/62/36 31/10/37
f 36/3/38 34/74/38 33/75/38
f 39/76/39 37/40/40 38/77/41
f 27/78/30 39/4/39 26/79/42
f 37/40/43 42/80/44 38/77/45
f 45/81/46 43/82/47 44/46/48
f 44/46/48 42/80/49 41/39/50
f 46/83/51 32/62/52 34/64/53
f 20/84/54 22/56/54 31/72/54
f 23/2/1 28/70/1 36/3/1
f 36/3/1 33/75/1 21/1/1
f 33/75/1 30/85/1 21/1/1
f 29/48/2 25/61/2 3/6/2
f 25/61/2 26/79/2 3/6/2
f 26/79/2 39/4/2 3/6/2
f 39/4/2 38/43/2 4/5/2
f 38/43/2 5/86/2 4/5/2
f 3/6/2 2/87/2 29/48/2
f 19/7/3 40/41/3 27/8/3
f 31/10/4 32/62/4 45/11/4
f 2/13/5 7/17/5 8/14/6
f 3/16/8 9/88/8 7/17/8
f 3/18/9 4/89/9 10/19/9
f 4/21/10 5/38/17 11/22/11
f 10/24/2 11/90/2 7/25/2
f 7/25/12 11/90/12 12/27/12
f 8/29/13 12/91/13 14/30/13
f 14/32/14 15/92/14 16/33/14
f 15/35/15 14/93/15 12/36/15
f 17/37/16 12/36/16 11/22/11
f 40/41/20 19/7/55 41/39/18
f 19/7/55 18/47/56 44/46/57
f 41/39/18 19/7/55 44/46/57
f 17/42/12 5/86/12 38/43/12
f 20/45/21 45/81/21 44/46/21
f 29/48/12 2/87/12 6/49/12
f 18/47/22 19/7/22 1/9/22
f 42/94/13 43/53/13 15/95/13
f 43/53/13 46/96/13 34/97/13
f 15/95/13 43/53/13 16/52/13
f 34/97/13 35/51/13 43/53/13
f 35/51/13 6/98/13 16/52/13
f 15/95/13 17/99/13 42/94/13
f 1/54/23 27/67/23 24/55/23
f 16/57/24 6/15/7 8/14/6
f 22/56/27 24/55/28 23/65/28
f 27/67/30 26/100/42 25/68/31
f 29/69/32 35/101/32 36/3/32
f 25/61/33 29/48/33 28/71/33
f 21/66/29 30/102/58 31/72/34
f 30/73/35 33/63/59 32/62/36
f 36/3/38 35/101/38 34/74/38
f 39/76/39 40/41/60 37/40/40
f 27/78/30 40/103/60 39/4/39
f 37/40/43 41/39/61 42/80/44
f 45/81/46 46/104/62 43/82/47
f 44/46/48 43/82/47 42/80/49
f 46/83/51 45/11/63 32/62/52
f 20/84/54 1/54/54 22/56/54
o DarkLightBrudger3
v 0.500000 0.130000 1.130002
v 0.600000 -0.000000 1.000002
v 0.500000 0.130000 0.870002
v 0.500000 -0.130000 1.130002
v 0.500000 -0.130000 0.870002
v 0.000000 -0.600000 1.000002
v 0.130000 -0.500000 1.130002
v -0.130000 -0.500000 1.130002
v 0.130000 -0.500000 0.870002
v -0.130000 -0.500000 0.870002
v 0.500000 -0.130000 -0.129998
v 0.600000 -0.000000 0.000002
v 0.500000 -0.130000 0.130002
v 0.500000 0.130000 -0.129998
v 0.500000 0.130000 0.130002
v 0.130000 -0.500000 -0.129998
v 0.000000 -0.600000 0.000002
v -0.130000 -0.500000 -0.129998
v 0.130000 -0.500000 0.130002
v -0.130000 -0.500000 0.130002
v 0.130000 0.130000 -0.499998
v 0.000000 0.000000 -0.599998
v -0.130000 0.130000 -0.499998
v 0.130000 -0.130000 -0.499998
v -0.130000 -0.130000 -0.499998
vt 0.935317 0.247282
vt 0.906733 0.218698
vt 0.935317 0.190114
vt 0.878149 0.247282
vt 0.878149 0.190114
vt 0.906733 0.218698
vt 0.935317 0.247282
vt 0.878149 0.247282
vt 0.935317 0.190114
vt 0.878149 0.190114
vt 0.878149 0.190114
vt 0.906733 0.218698
vt 0.878149 0.247282
vt 0.935317 0.190114
vt 0.935317 0.247282
vt 0.935317 0.190114
vt 0.906733 0.218698
vt 0.878149 0.190114
vt 0.935317 0.247282
vt 0.878149 0.247282
vt 0.935317 0.247282
vt 0.906733 0.218698
vt 0.878149 0.247282
vt 0.935317 0.190114
vt 0.878149 0.190114
vn 0.7926 0.6097 0.0000
vn 0.7926 0.0000 0.6097
vn 0.7926 -0.6097 -0.0000
vn 0.7926 0.0000 -0.6097
vn 0.0000 -0.7926 0.6097
vn 0.6097 -0.7926 0.0000
vn 0.0000 -0.7926 -0.6097
vn -0.6097 -0.7926 0.0000
vn 0.0000 0.6097 -0.7926
vn 0.6097 0.0000 -0.7926
vn 0.0000 -0.6097 -0.7926
vn -0.6097 0.0000 -0.7926
usemtl Color_M03.001
s 1
f 47/105/64 48/106/64 49/107/64
f 50/108/65 48/106/65 47/105/65
f 48/106/66 50/108/66 51/109/66
f 48/106/67 51/109/67 49/107/67
f 52/110/68 53/111/68 54/112/68
f 53/111/69 52/110/69 55/113/69
f 52/110/70 56/114/70 55/113/70
f 52/110/71 54/112/71 56/114/71
f 57/115/66 58/116/66 59/117/66
f 58/116/67 57/115/67 60/118/67
f 58/116/64 60/118/64 61/119/64
f 59/117/65 58/116/65 61/119/65
f 62/120/70 63/121/70 64/122/70
f 63/121/69 62/120/69 65/123/69
f 66/124/68 63/121/68 65/123/68
f 64/122/71 63/121/71 66/124/71
f 67/125/72 68/126/72 69/127/72
f 70/128/73 68/126/73 67/125/73
f 68/126/74 70/128/74 71/129/74
f 68/126/75 71/129/75 69/127/75
