# Blender v2.82 (sub 7) OBJ File: 'DL_CSlope3LWide.blend'
# www.blender.org
mtllib DLCornerMediumWideSlopeL.mtl
o CornerSlope
v 0.366025 0.366025 0.250000
v -0.000000 0.366025 0.799038
v -0.450000 0.350000 -0.500000
v -0.350000 0.300000 -0.500000
v -0.350000 -0.300000 -0.500000
v -0.450000 -0.350000 -0.500000
v 0.366025 -0.000001 1.750000
v -0.500000 -0.350000 -0.450000
v -0.500000 -0.300000 -0.350000
v -0.500000 0.300000 -0.350000
v -0.500000 0.350000 -0.450000
v -0.435000 -0.337500 -0.485000
v -0.485000 -0.337500 -0.435000
v -0.360000 -0.300000 -0.485000
v -0.360000 0.300000 -0.485000
v -0.435000 0.337500 -0.485000
v -0.485000 0.337500 -0.435000
v -0.485000 0.300000 -0.360000
v -0.485000 -0.300000 -0.360000
v 1.000000 -0.000000 0.799038
v -0.429732 0.486158 -0.450422
v -0.450000 0.443075 -0.500000
v 0.484516 0.317865 -0.500000
v 0.491113 0.366025 -0.450251
v -0.429289 -0.500000 -0.450000
v -0.450000 -0.450000 -0.500000
v 1.440277 -0.500000 -0.450000
v 1.416478 -0.450000 -0.500000
v 1.468421 -0.457643 -0.450286
v 1.195482 -0.037618 -0.500000
v 1.223167 -0.000000 -0.450273
v -0.500000 -0.450000 2.395657
v -0.450000 -0.500000 2.426017
v -0.451035 -0.457956 2.446523
v 0.466987 -0.500000 2.057461
v 0.488713 -0.457877 2.068756
v 1.184663 -0.500000 0.980942
v 1.212427 -0.457718 0.983006
v -0.500000 -0.450000 -0.450000
v -0.450000 -0.500000 -0.429289
v -0.500000 -0.042786 2.068321
v -0.450985 -0.000001 2.078379
v -0.500000 0.316720 0.989801
v -0.450898 0.366025 0.980265
v -0.500000 0.445317 -0.450000
v -0.451265 0.487119 -0.428888
vt 0.140935 0.626831
vt 0.140935 0.712999
vt 0.260784 0.715565
vt 0.366865 0.559937
vt 0.243767 0.660506
vt 0.334815 0.739356
vt 0.136651 0.559935
vt 0.202375 0.739356
vt 0.136641 0.765776
vt 0.202375 0.875928
vt 0.136618 0.921706
vt 0.126432 0.669915
vt 0.261386 0.604157
vt 0.243767 0.669915
vt 0.361335 0.765480
vt 0.258266 0.920084
vt 0.126574 0.562950
vt 0.128728 0.554949
vt 0.119393 0.559976
vt 0.121547 0.562130
vt 0.140935 0.552795
vt 0.139499 0.554949
vt 0.159291 0.554949
vt 0.245460 0.552795
vt 0.159291 0.552795
vt 0.295968 0.478244
vt 0.309850 0.360250
vt 0.295968 0.353309
vt 0.128728 0.554949
vt 0.140935 0.552795
vt 0.139499 0.554949
vt 0.121547 0.562130
vt 0.126574 0.552795
vt 0.119393 0.574337
vt 0.121547 0.572901
vt 0.121547 0.626831
vt 0.119393 0.712999
vt 0.121547 0.712999
vt 0.453352 0.276864
vt 0.335358 0.290746
vt 0.446411 0.290746
vt 0.119393 0.574337
vt 0.121547 0.572901
vt 0.286714 0.353309
vt 0.286714 0.478244
vt 0.191200 0.739356
vt 0.126392 0.563008
vt 0.243767 0.875928
vt 0.119393 0.605289
vt 0.126574 0.619650
vt 0.126574 0.605289
vt 0.247861 0.766752
vt 0.245460 0.574337
vt 0.159291 0.574337
vt 0.126445 0.765383
vt 0.398045 0.598108
vt 0.394627 0.605289
vt 0.402087 0.604191
vt 0.137749 0.968654
vt 0.130568 0.973014
vt 0.136606 0.975959
vt 0.129484 0.559915
vt 0.119393 0.559976
vt 0.260784 0.552795
vt 0.126574 0.552795
vt 0.129548 0.598108
vt 0.137749 0.552795
vt 0.202375 0.559937
vt 0.366865 0.669915
vt 0.261731 0.722482
vt 0.119393 0.968654
vt 0.126574 0.973014
vt 0.258266 0.598108
vt 0.126425 0.604146
vt 0.126574 0.598108
vt 0.130568 0.765480
vt 0.130568 0.920084
vt 0.130568 0.559976
vt 0.126574 0.552795
vt 0.129548 0.559976
vt 0.119393 0.605289
vt 0.126432 0.923088
vt 0.119393 0.766752
vt 0.119393 0.921643
vt 0.119393 0.720180
vt 0.126574 0.733547
vt 0.126574 0.720180
vt 0.362889 0.664513
vt 0.261731 0.559940
vt 0.398045 0.559976
vt 0.126574 0.552795
vt 0.245460 0.554949
vt 0.309850 0.471303
vt 0.119393 0.559976
vt 0.119393 0.626831
vt 0.328417 0.276864
vt 0.119393 0.619650
vt 0.266330 0.559976
vt 0.252641 0.559976
vt 0.196231 0.921643
vt 0.152110 0.559976
vt 0.137749 0.559976
vt 0.196973 0.552795
vt 0.119393 0.559976
vt 0.119393 0.663770
vt 0.119393 0.733869
vn 0.0000 0.0000 -1.0000
vn 0.4458 0.8916 0.0796
vn 0.8707 0.4666 0.1555
vn 0.7106 0.5202 0.4737
vn 0.2989 0.5979 0.7438
vn -0.0000 -1.0000 -0.0000
vn -0.3590 0.8616 -0.3590
vn -0.3370 0.8611 -0.3806
vn -0.3147 0.8599 -0.4019
vn -0.4286 0.8571 -0.2857
vn -0.8320 0.0000 -0.5547
vn -0.4019 -0.8599 -0.3147
vn -0.4286 -0.8571 -0.2857
vn -0.3590 -0.8615 -0.3590
vn -0.3806 -0.8611 -0.3370
vn -0.2857 -0.8571 -0.4286
vn -0.5547 0.0000 -0.8320
vn -1.0000 0.0000 0.0000
vn -0.2857 0.8571 -0.4286
vn -0.7071 0.0000 -0.7071
vn 0.0568 0.9954 0.0773
vn 0.1079 0.9930 0.0480
vn 0.0894 0.9941 0.0621
vn 0.3350 0.9153 0.2234
vn 0.1261 0.9411 0.3137
vn 0.6008 -0.4039 -0.6899
vn -0.7063 -0.3243 0.6292
vn -0.4436 0.7584 -0.4776
vn -0.4436 0.7584 -0.4775
vn 0.0977 0.7301 -0.6763
vn 0.2200 0.6866 -0.6929
vn 0.0979 0.7310 -0.6753
vn 0.0000 -0.7071 -0.7071
vn 0.6721 0.3602 -0.6469
vn 0.5018 0.5321 -0.6819
vn 0.2029 0.6900 -0.6948
vn -0.7071 -0.7071 -0.0000
vn 0.3413 -0.4037 0.8489
vn 0.3409 -0.4053 0.8483
vn 0.3409 -0.4053 0.8482
vn 0.7798 -0.5285 0.3357
vn 0.7204 -0.5003 0.4803
vn 0.7204 -0.5004 0.4803
vn 0.7907 -0.5338 0.2999
vn 0.8243 -0.5467 0.1472
vn -0.5000 -0.7071 -0.5000
vn -0.6458 0.6430 0.4117
vn -0.5777 0.5114 0.6361
vn -0.6824 0.7123 0.1641
vn -0.6317 0.6118 0.4761
vn -0.6670 0.7421 0.0662
vn -0.6893 0.7122 0.1329
vn 0.1293 0.9913 0.0231
vn 0.1093 0.9929 0.0461
vn 0.0344 0.9957 0.0856
vn -0.4436 0.7583 -0.4776
vn 0.5227 0.5142 -0.6800
vn 0.3413 -0.4036 0.8489
vn -0.6660 0.7430 0.0664
usemtl Color_M03
s 1
f 5/1/1 4/2/1 23/3/1
f 31/4/2 1/5/2 20/6/2
f 29/7/3 20/8/3 38/9/3
f 38/9/4 7/10/4 36/11/4
f 42/12/5 36/13/5 7/14/5
f 37/15/6 35/16/6 40/17/6
f 12/18/7 8/19/8 13/20/9
f 5/21/10 12/18/10 14/22/10
f 14/23/11 4/24/11 5/25/11
f 16/26/1 14/27/1 12/28/1
f 16/29/12 4/30/13 15/31/13
f 17/32/14 3/33/15 16/29/12
f 10/34/16 17/32/16 18/35/16
f 19/36/17 10/37/17 18/38/17
f 17/39/18 19/40/18 18/41/18
f 13/20/9 9/42/19 19/43/19
f 16/26/20 13/44/20 17/45/20
f 2/46/21 1/5/22 46/47/23
f 20/6/24 2/46/24 7/48/24
f 39/49/20 6/50/20 26/51/20
f 43/52/18 10/53/18 9/54/18
f 44/55/25 7/48/25 2/46/25
f 27/56/26 28/57/26 29/58/26
f 32/59/27 33/60/27 34/61/27
f 21/62/28 45/63/28 46/47/29
f 21/62/30 23/64/31 22/65/32
f 28/57/33 25/66/33 26/51/33
f 28/67/34 31/68/35 29/7/34
f 31/69/35 23/3/31 24/70/36
f 32/71/37 40/17/37 33/72/37
f 35/73/38 34/74/39 33/75/40
f 37/76/41 36/11/42 35/77/43
f 38/9/44 27/78/45 29/7/45
f 40/17/46 26/79/46 25/80/46
f 42/12/47 32/81/48 34/74/48
f 42/82/47 43/83/49 41/84/50
f 46/47/51 43/83/49 44/55/52
f 11/85/20 22/86/20 3/87/20
f 28/57/1 26/51/1 5/1/1
f 26/51/1 6/50/1 5/1/1
f 23/3/1 30/88/1 5/1/1
f 30/88/1 28/57/1 5/1/1
f 3/87/1 22/86/1 4/2/1
f 22/86/1 23/3/1 4/2/1
f 31/4/2 24/89/2 1/5/2
f 29/7/3 31/68/3 20/8/3
f 38/9/4 20/8/4 7/10/4
f 42/12/5 34/74/5 36/13/5
f 35/16/6 33/72/6 40/17/6
f 40/17/6 25/80/6 37/15/6
f 25/80/6 27/90/6 37/15/6
f 12/18/7 6/91/7 8/19/8
f 5/21/10 6/91/10 12/18/10
f 14/23/11 15/92/11 4/24/11
f 16/26/1 15/93/1 14/27/1
f 16/29/12 3/33/15 4/30/13
f 17/32/14 11/94/14 3/33/15
f 10/34/16 11/94/16 17/32/16
f 19/36/17 9/95/17 10/37/17
f 17/39/18 13/96/18 19/40/18
f 13/20/9 8/19/8 9/42/19
f 16/26/20 12/28/20 13/44/20
f 24/89/53 21/62/54 1/5/22
f 21/62/54 46/47/23 1/5/22
f 46/47/23 44/55/55 2/46/21
f 20/6/24 1/5/24 2/46/24
f 39/49/20 8/97/20 6/50/20
f 43/52/18 45/98/18 10/53/18
f 45/98/18 11/99/18 10/53/18
f 32/59/18 41/100/18 43/52/18
f 8/101/18 39/102/18 9/54/18
f 39/102/18 32/59/18 43/52/18
f 9/54/18 39/102/18 43/52/18
f 44/55/25 42/82/25 7/48/25
f 21/62/28 22/65/56 45/63/28
f 21/62/30 24/89/36 23/64/31
f 28/57/33 27/56/33 25/66/33
f 28/67/34 30/103/57 31/68/35
f 31/69/35 30/88/57 23/3/31
f 32/71/37 39/104/37 40/17/37
f 35/73/38 36/13/58 34/74/39
f 37/76/41 38/9/44 36/11/42
f 38/9/44 37/76/41 27/78/45
f 40/17/46 39/104/46 26/79/46
f 42/12/47 41/105/50 32/81/48
f 42/82/47 44/55/52 43/83/49
f 46/47/51 45/63/59 43/83/49
f 11/85/20 45/106/20 22/86/20
o DarkLightBrudger6
v -0.600000 -0.000000 1.000000
v -0.500000 0.130000 1.130000
v -0.500000 0.130000 0.870000
v -0.500000 -0.130000 1.130000
v -0.500000 -0.130000 0.870000
v 0.130000 -0.500000 1.130000
v 0.000000 -0.600000 1.000000
v 0.130000 -0.500000 0.870000
v -0.130000 -0.500000 1.130000
v -0.130000 -0.500000 0.870000
v 0.130000 -0.500000 2.130000
v 0.000000 -0.600000 2.000000
v 0.130000 -0.500000 1.870000
v -0.130000 -0.500000 2.130000
v -0.130000 -0.500000 1.870000
v -0.600000 0.000000 0.000000
v -0.500000 0.130000 0.130000
v -0.500000 0.130000 -0.130000
v -0.500000 -0.130000 0.130000
v -0.500000 -0.130000 -0.130000
v 0.130000 0.130000 -0.500000
v 0.000000 0.000000 -0.600000
v -0.130000 0.130000 -0.500000
v 0.130000 -0.130000 -0.500000
v -0.130000 -0.130000 -0.500000
v 0.130000 -0.500000 0.130000
v 0.000000 -0.600000 -0.000000
v 0.130000 -0.500000 -0.130000
v -0.130000 -0.500000 0.130000
v -0.130000 -0.500000 -0.130000
v 1.130000 -0.500000 0.130000
v 1.000000 -0.600000 -0.000000
v 1.130000 -0.500000 -0.130000
v 0.870000 -0.500000 0.130000
v 0.870000 -0.500000 -0.130000
vt 0.906735 0.218919
vt 0.936288 0.248472
vt 0.936288 0.189366
vt 0.877181 0.248472
vt 0.877181 0.189366
vt 0.936288 0.248472
vt 0.906735 0.218919
vt 0.936288 0.189366
vt 0.877181 0.248472
vt 0.877181 0.189366
vt 0.936288 0.248472
vt 0.906735 0.218919
vt 0.936288 0.189366
vt 0.877181 0.248472
vt 0.877181 0.189366
vt 0.906735 0.218919
vt 0.936288 0.248472
vt 0.936288 0.189366
vt 0.877181 0.248472
vt 0.877181 0.189366
vt 0.936288 0.248472
vt 0.906735 0.218919
vt 0.877181 0.248472
vt 0.936288 0.189366
vt 0.877181 0.189366
vt 0.936288 0.248472
vt 0.906735 0.218919
vt 0.936288 0.189366
vt 0.877181 0.248472
vt 0.877181 0.189366
vt 0.936288 0.248472
vt 0.906735 0.218919
vt 0.936288 0.189366
vt 0.877181 0.248472
vt 0.877181 0.189366
vn -0.7926 0.6097 0.0000
vn -0.7926 0.0000 0.6097
vn -0.7926 -0.6097 -0.0000
vn -0.7926 0.0000 -0.6097
vn 0.6097 -0.7926 0.0000
vn 0.0000 -0.7926 0.6097
vn -0.6097 -0.7926 0.0000
vn 0.0000 -0.7926 -0.6097
vn 0.0000 0.6097 -0.7926
vn 0.6097 0.0000 -0.7926
vn 0.0000 -0.6097 -0.7926
vn -0.6097 0.0000 -0.7926
usemtl Color_M03.001
s 1
f 47/107/60 48/108/60 49/109/60
f 48/108/61 47/107/61 50/110/61
f 50/110/62 47/107/62 51/111/62
f 49/109/63 51/111/63 47/107/63
f 52/112/64 53/113/64 54/114/64
f 53/113/65 52/112/65 55/115/65
f 53/113/66 55/115/66 56/116/66
f 53/113/67 56/116/67 54/114/67
f 57/117/64 58/118/64 59/119/64
f 58/118/65 57/117/65 60/120/65
f 58/118/66 60/120/66 61/121/66
f 58/118/67 61/121/67 59/119/67
f 62/122/60 63/123/60 64/124/60
f 63/123/61 62/122/61 65/125/61
f 65/125/62 62/122/62 66/126/62
f 64/124/63 66/126/63 62/122/63
f 67/127/68 68/128/68 69/129/68
f 70/130/69 68/128/69 67/127/69
f 68/128/70 70/130/70 71/131/70
f 68/128/71 71/131/71 69/129/71
f 72/132/64 73/133/64 74/134/64
f 73/133/65 72/132/65 75/135/65
f 73/133/66 75/135/66 76/136/66
f 73/133/67 76/136/67 74/134/67
f 77/137/64 78/138/64 79/139/64
f 78/138/65 77/137/65 80/140/65
f 78/138/66 80/140/66 81/141/66
f 78/138/67 81/141/67 79/139/67
