# Blender v2.82 (sub 7) OBJ File: 'RadialWheelAxle.blend'
# www.blender.org
mtllib RadialWheelAxle.mtl
o TAC_Radial_WheelBaseSuspensionWheelAxle_v3
v -0.072997 0.126984 0.902003
v -0.050000 0.130867 0.925000
v -0.075000 0.123241 0.900000
v -0.050000 0.050000 0.925000
v -0.075000 0.050000 0.900000
v -0.070801 0.186132 0.953105
v -0.050000 0.175000 0.961721
v -0.072997 0.184669 0.950000
v -0.070801 0.186132 1.086132
v -0.050000 0.175000 1.075000
v -0.200000 0.039907 0.900000
v -0.200000 -0.100000 0.900000
v 0.075000 0.050000 0.900000
v 0.200000 -0.100000 0.900000
v 0.200000 0.039907 0.900000
v 0.075000 0.123241 0.900000
v -0.050000 0.050000 0.950000
v 0.072997 0.126984 0.902003
v 0.050000 0.130867 0.925000
v 0.072997 0.184669 0.950000
v 0.050000 0.175000 0.961721
v 0.070801 0.186132 0.953105
v 0.050000 0.175000 1.075000
v 0.070801 0.186132 1.086132
v 0.050000 0.050000 0.925000
v 0.050000 0.050000 0.950000
v -0.200000 -0.150000 0.950000
v -0.100000 -0.200000 1.000000
v 0.100000 -0.200000 1.000000
v 0.200000 -0.150000 0.950000
v 0.200000 -0.150000 1.200000
v 0.100000 -0.200000 1.200000
v 0.200000 0.100000 0.950000
v 0.200000 0.100000 1.200000
v 0.056645 0.084776 1.200000
v 0.019891 0.100000 1.200000
v 0.056645 0.084776 1.250000
v 0.019891 0.100000 1.250000
v 0.084776 0.056645 1.200000
v 0.084776 0.056645 1.250000
v 0.100000 0.019891 1.200000
v 0.100000 0.019891 1.250000
v 0.100000 -0.019891 1.200000
v 0.100000 -0.019891 1.250000
v 0.084776 -0.056645 1.200000
v 0.084776 -0.056645 1.250000
v 0.056645 -0.084776 1.200000
v 0.056645 -0.084776 1.250000
v 0.019891 -0.100000 1.200000
v 0.019891 -0.100000 1.250000
v -0.019891 -0.100000 1.200000
v -0.019891 -0.100000 1.250000
v -0.056645 -0.084776 1.200000
v -0.056645 -0.084776 1.250000
v -0.084776 -0.056645 1.200000
v -0.084776 -0.056645 1.250000
v -0.100000 -0.019891 1.200000
v -0.100000 -0.019891 1.250000
v -0.100000 0.019891 1.200000
v -0.100000 0.019891 1.250000
v -0.084776 0.056645 1.200000
v -0.084776 0.056645 1.250000
v -0.056645 0.084776 1.200000
v -0.056645 0.084776 1.250000
v -0.019891 0.100000 1.200000
v -0.019891 0.100000 1.250000
v -0.200000 0.100000 0.950000
v 0.050000 0.200000 1.100000
v 0.050000 0.200000 1.200000
v -0.050000 0.200000 1.100000
v -0.050000 0.200000 1.200000
v -0.200000 0.100000 1.200000
v -0.200000 -0.150000 1.200000
v -0.100000 -0.200000 1.200000
vt 0.449800 0.587741
vt 0.449794 0.587691
vt 0.449805 0.587745
vt 0.449917 0.587691
vt 0.449917 0.587745
vt 0.449838 0.587745
vt 0.449873 0.587728
vt 0.449838 0.587751
vt 0.449921 0.587801
vt 0.449901 0.587847
vt 0.449823 0.587815
vt 0.449859 0.587832
vt 0.449823 0.588018
vt 0.449859 0.588005
vt 0.450029 0.587603
vt 0.449917 0.587603
vt 0.449902 0.587413
vt 0.449688 0.587413
vt 0.449917 0.587832
vt 0.449688 0.588023
vt 0.449902 0.588023
vt 0.450029 0.587832
vt 0.449574 0.587947
vt 0.449574 0.587823
vt 0.449612 0.587947
vt 0.449630 0.587756
vt 0.449803 0.587756
vt 0.449818 0.587790
vt 0.449798 0.587744
vt 0.449882 0.587694
vt 0.449847 0.587671
vt 0.449881 0.587688
vt 0.449823 0.587853
vt 0.449823 0.587680
vt 0.449859 0.587866
vt 0.449859 0.587663
vt 0.449764 0.587745
vt 0.449764 0.587691
vt 0.449876 0.587745
vt 0.449888 0.587691
vt 0.449882 0.587741
vt 0.449574 0.587756
vt 0.449747 0.587756
vt 0.449764 0.587947
vt 0.449803 0.587823
vt 0.449803 0.587947
vt 0.450222 0.587718
vt 0.450222 0.587826
vt 0.450070 0.587610
vt 0.449612 0.587826
vt 0.449764 0.587610
vt 0.449612 0.587718
vt 0.449841 0.588100
vt 0.449841 0.587718
vt 0.450011 0.588023
vt 0.450011 0.587718
vt 0.450146 0.588176
vt 0.449933 0.588176
vt 0.450222 0.588100
vt 0.449841 0.588100
vt 0.449841 0.587718
vt 0.450222 0.587718
vt 0.215791 0.095122
vt 0.215851 0.095122
vt 0.215791 0.095428
vt 0.215851 0.095428
vt 0.215791 0.095122
vt 0.215851 0.095122
vt 0.215791 0.095428
vt 0.215851 0.095428
vt 0.215791 0.095122
vt 0.215851 0.095122
vt 0.215791 0.095428
vt 0.215851 0.095428
vt 0.215791 0.095122
vt 0.215851 0.095122
vt 0.215791 0.095428
vt 0.215851 0.095428
vt 0.215791 0.095122
vt 0.215851 0.095122
vt 0.215791 0.095428
vt 0.215851 0.095428
vt 0.215791 0.095122
vt 0.215851 0.095122
vt 0.215791 0.095428
vt 0.215851 0.095428
vt 0.215791 0.095122
vt 0.215851 0.095122
vt 0.215791 0.095428
vt 0.215851 0.095428
vt 0.215791 0.095122
vt 0.215851 0.095122
vt 0.215791 0.095428
vt 0.215851 0.095428
vt 0.215791 0.095122
vt 0.215851 0.095122
vt 0.215791 0.095428
vt 0.215851 0.095428
vt 0.215791 0.095122
vt 0.215851 0.095122
vt 0.215791 0.095428
vt 0.215851 0.095428
vt 0.215791 0.095122
vt 0.215851 0.095122
vt 0.215791 0.095428
vt 0.215851 0.095428
vt 0.215791 0.095122
vt 0.215851 0.095122
vt 0.215791 0.095428
vt 0.215851 0.095428
vt 0.215791 0.095122
vt 0.215851 0.095122
vt 0.215791 0.095428
vt 0.215851 0.095428
vt 0.215791 0.095122
vt 0.215851 0.095122
vt 0.215791 0.095428
vt 0.215851 0.095428
vt 0.215791 0.095122
vt 0.215851 0.095122
vt 0.215791 0.095428
vt 0.215851 0.095428
vt 0.215791 0.095122
vt 0.215851 0.095122
vt 0.215791 0.095428
vt 0.215851 0.095428
vt 0.215638 0.095092
vt 0.215943 0.095092
vt 0.215638 0.095153
vt 0.215943 0.095153
vt 0.215661 0.095209
vt 0.215920 0.095209
vt 0.215704 0.095252
vt 0.215877 0.095252
vt 0.215760 0.095275
vt 0.215821 0.095275
vt 0.215920 0.095036
vt 0.215661 0.095036
vt 0.215877 0.094993
vt 0.215704 0.094993
vt 0.215821 0.094970
vt 0.215760 0.094970
vt 0.449989 0.587664
vt 0.449756 0.587664
vt 0.449935 0.587772
vt 0.449705 0.587772
vt 0.449830 0.587664
vt 0.450063 0.587664
vt 0.449879 0.587768
vt 0.449885 0.587772
vt 0.450114 0.587772
vt 0.449841 0.587871
vt 0.449841 0.587718
vt 0.449879 0.587892
vt 0.450116 0.587718
vt 0.450116 0.588100
vt 0.449883 0.588100
vt 0.449879 0.588095
vt 0.449695 0.587586
vt 0.449726 0.587556
vt 0.449726 0.587610
vt 0.449879 0.587556
vt 0.449879 0.587610
vt 0.449911 0.587586
vt 0.211412 0.096366
vt 0.211260 0.096366
vt 0.211412 0.096096
vt 0.211260 0.096096
vt 0.449764 0.587794
vt 0.449917 0.587794
vt 0.449764 0.587832
vt 0.449917 0.587832
vt 0.449726 0.587871
vt 0.449955 0.587871
vt 0.101119 0.025925
vt 0.100967 0.025925
vt 0.101119 0.025773
vt 0.100967 0.025773
vt 0.450074 0.588100
vt 0.449841 0.588100
vt 0.450078 0.588095
vt 0.450078 0.587892
vt 0.449841 0.587718
vt 0.450116 0.587718
vt 0.450116 0.587871
vt 0.449917 0.588176
vt 0.449841 0.588100
vt 0.450131 0.588176
vt 0.450222 0.588100
vt 0.450222 0.587718
vt 0.449841 0.587718
vt 0.450011 0.588100
vt 0.449841 0.588023
vt 0.450011 0.587718
vt 0.449841 0.587718
vt 0.450146 0.588023
vt 0.449841 0.588023
vt 0.450146 0.587718
vt 0.449841 0.587718
vt 0.449927 0.587847
vt 0.449917 0.588023
vt 0.449871 0.587871
vt 0.449764 0.588023
vt 0.449810 0.587871
vt 0.449754 0.587847
vt 0.449535 0.587871
vt 0.449711 0.587804
vt 0.449688 0.587748
vt 0.449688 0.587687
vt 0.449535 0.587489
vt 0.449711 0.587631
vt 0.449754 0.587588
vt 0.449688 0.587413
vt 0.449810 0.587565
vt 0.449993 0.587413
vt 0.449871 0.587565
vt 0.449927 0.587588
vt 0.450146 0.587489
vt 0.449970 0.587631
vt 0.449993 0.587687
vt 0.450146 0.587871
vt 0.449993 0.587748
vt 0.449970 0.587804
vn 0.7071 0.0000 -0.7071
vn 0.5513 0.5337 -0.6413
vn 0.5513 0.5336 -0.6414
vn 0.4718 0.8817 0.0000
vn -0.0000 0.0000 -1.0000
vn 1.0000 0.0000 0.0000
vn -0.5513 0.5336 -0.6414
vn -0.5513 0.5337 -0.6413
vn -0.4718 0.8817 0.0000
vn -0.7071 0.0000 -0.7071
vn -1.0000 0.0000 0.0000
vn 0.0000 -0.7071 -0.7071
vn 0.4472 -0.8944 0.0000
vn 0.3827 0.9239 0.0000
vn 0.7071 0.7071 0.0000
vn 0.9239 0.3827 0.0000
vn 0.9239 -0.3827 0.0000
vn 0.7071 -0.7071 0.0000
vn 0.3827 -0.9239 0.0000
vn 0.0000 -1.0000 0.0000
vn -0.3827 -0.9239 0.0000
vn -0.7071 -0.7071 0.0000
vn -0.9239 -0.3827 0.0000
vn -0.9239 0.3827 0.0000
vn -0.7071 0.7071 0.0000
vn -0.3827 0.9239 0.0000
vn 0.0000 1.0000 0.0000
vn -0.0000 0.0000 1.0000
vn -0.3922 0.5883 -0.7071
vn 0.3922 0.5883 -0.7071
vn 0.5547 0.8320 0.0000
vn 0.5547 0.8321 -0.0000
vn 0.5547 0.8320 0.0003
vn 0.5547 0.8320 0.0001
vn 0.0000 0.7071 -0.7071
vn -0.5547 0.8320 0.0003
vn -0.5547 0.8321 0.0000
vn -0.5547 0.8320 0.0001
vn -0.5547 0.8320 -0.0000
vn -0.4472 -0.8944 0.0000
usemtl Steel_-_Satin.002
s 1
f 1/1/1 2/2/1 3/3/1
f 3/3/1 2/2/1 4/4/1
f 3/3/1 4/4/1 5/5/1
f 6/6/2 7/7/3 8/8/2
f 8/8/2 7/7/3 2/9/3
f 8/8/2 2/9/3 1/10/3
f 9/11/4 10/12/4 6/13/4
f 6/13/4 10/12/4 7/14/4
f 3/15/5 5/16/5 11/17/5
f 11/17/5 5/16/5 12/18/5
f 12/18/5 5/16/5 13/19/5
f 12/18/5 13/19/5 14/20/5
f 14/20/5 13/19/5 15/21/5
f 15/21/5 13/19/5 16/22/5
f 4/23/6 2/24/6 17/25/6
f 17/25/6 2/24/6 7/26/6
f 17/25/6 7/26/6 10/27/6
f 18/28/7 19/29/7 20/30/8
f 20/30/8 19/29/7 21/31/7
f 20/30/8 21/31/7 22/32/8
f 21/33/9 23/34/9 22/35/9
f 22/35/9 23/34/9 24/36/9
f 13/37/10 25/38/10 16/39/10
f 16/39/10 25/38/10 19/40/10
f 16/39/10 19/40/10 18/41/10
f 23/42/11 21/43/11 26/44/11
f 26/44/11 21/43/11 19/45/11
f 26/44/11 19/45/11 25/46/11
f 27/47/12 12/48/12 28/49/12
f 28/49/12 12/48/12 14/50/12
f 28/49/12 14/50/12 29/51/12
f 29/51/12 14/50/12 30/52/12
f 30/53/13 31/54/13 29/55/13
f 29/55/13 31/54/13 32/56/13
f 14/57/6 15/58/6 30/59/6
f 30/59/6 15/58/6 33/60/6
f 30/59/6 33/60/6 34/61/6
f 34/61/6 31/62/6 30/59/6
f 35/63/14 36/64/14 37/65/14
f 37/65/14 36/64/14 38/66/14
f 39/67/15 35/68/15 40/69/15
f 40/69/15 35/68/15 37/70/15
f 41/71/16 39/72/16 42/73/16
f 42/73/16 39/72/16 40/74/16
f 43/75/6 41/76/6 44/77/6
f 44/77/6 41/76/6 42/78/6
f 45/79/17 43/80/17 46/81/17
f 46/81/17 43/80/17 44/82/17
f 47/83/18 45/84/18 48/85/18
f 48/85/18 45/84/18 46/86/18
f 49/87/19 47/88/19 50/89/19
f 50/89/19 47/88/19 48/90/19
f 51/91/20 49/92/20 52/93/20
f 52/93/20 49/92/20 50/94/20
f 53/95/21 51/96/21 54/97/21
f 54/97/21 51/96/21 52/98/21
f 55/99/22 53/100/22 56/101/22
f 56/101/22 53/100/22 54/102/22
f 57/103/23 55/104/23 58/105/23
f 58/105/23 55/104/23 56/106/23
f 59/107/11 57/108/11 60/109/11
f 60/109/11 57/108/11 58/110/11
f 61/111/24 59/112/24 62/113/24
f 62/113/24 59/112/24 60/114/24
f 63/115/25 61/116/25 64/117/25
f 64/117/25 61/116/25 62/118/25
f 65/119/26 63/120/26 66/121/26
f 66/121/26 63/120/26 64/122/26
f 36/123/27 65/124/27 38/125/27
f 38/125/27 65/124/27 66/126/27
f 66/127/28 52/128/28 38/129/28
f 38/129/28 52/128/28 50/130/28
f 38/129/28 50/130/28 37/131/28
f 37/131/28 50/130/28 48/132/28
f 37/131/28 48/132/28 40/133/28
f 40/133/28 48/132/28 46/134/28
f 40/133/28 46/134/28 42/135/28
f 42/135/28 46/134/28 44/136/28
f 52/128/28 66/127/28 54/137/28
f 54/137/28 66/127/28 64/138/28
f 54/137/28 64/138/28 56/139/28
f 56/139/28 64/138/28 62/140/28
f 56/139/28 62/140/28 58/141/28
f 58/141/28 62/140/28 60/142/28
f 8/143/29 1/10/29 67/144/29
f 67/144/29 1/10/29 3/145/29
f 67/144/29 3/145/29 11/146/29
f 20/147/30 33/148/30 18/149/30
f 18/149/30 33/148/30 16/150/30
f 16/150/30 33/148/30 15/151/30
f 68/152/31 69/153/31 24/154/31
f 24/154/31 69/153/31 34/155/32
f 24/154/31 34/155/32 33/156/32
f 20/157/33 22/158/34 33/156/32
f 33/156/32 22/158/34 24/154/31
f 9/159/35 70/160/35 10/161/35
f 10/161/35 70/160/35 68/162/35
f 10/161/35 68/162/35 23/163/35
f 23/163/35 68/162/35 24/164/35
f 26/165/35 17/166/35 23/167/35
f 23/167/35 17/166/35 10/168/35
f 17/169/27 26/170/27 4/171/27
f 4/171/27 26/170/27 25/172/27
f 4/171/27 25/172/27 5/173/27
f 5/173/27 25/172/27 13/174/27
f 68/175/27 70/176/27 69/177/27
f 69/177/27 70/176/27 71/178/27
f 8/179/36 67/180/37 6/181/38
f 6/181/38 67/180/37 9/182/39
f 9/182/39 67/180/37 72/183/37
f 9/182/39 72/183/37 71/184/39
f 71/184/39 70/185/39 9/182/39
f 12/186/11 27/187/11 11/188/11
f 11/188/11 27/187/11 67/189/11
f 67/189/11 27/187/11 72/190/11
f 72/190/11 27/187/11 73/191/11
f 27/192/40 28/193/40 73/194/40
f 73/194/40 28/193/40 74/195/40
f 28/196/20 29/197/20 74/198/20
f 74/198/20 29/197/20 32/199/20
f 35/200/28 69/201/28 36/202/28
f 36/202/28 69/201/28 71/203/28
f 36/202/28 71/203/28 65/204/28
f 65/204/28 71/203/28 63/205/28
f 63/205/28 71/203/28 72/206/28
f 63/205/28 72/206/28 61/207/28
f 61/207/28 72/206/28 59/208/28
f 59/208/28 72/206/28 57/209/28
f 57/209/28 72/206/28 73/210/28
f 57/209/28 73/210/28 55/211/28
f 55/211/28 73/210/28 53/212/28
f 53/212/28 73/210/28 74/213/28
f 53/212/28 74/213/28 51/214/28
f 51/214/28 74/213/28 32/215/28
f 51/214/28 32/215/28 49/216/28
f 49/216/28 32/215/28 47/217/28
f 47/217/28 32/215/28 31/218/28
f 47/217/28 31/218/28 45/219/28
f 45/219/28 31/218/28 43/220/28
f 43/220/28 31/218/28 34/221/28
f 43/220/28 34/221/28 41/222/28
f 41/222/28 34/221/28 39/223/28
f 39/223/28 34/221/28 35/200/28
f 35/200/28 34/221/28 69/201/28
