# Blender v2.82 (sub 7) OBJ File: 'RadialWheelFenderFender.blend'
# www.blender.org
mtllib RadialWheelFenderFender.mtl
o TAC_Eighty-Eight_Wheel_Fender_v2
v 0.490433 -0.044359 0.559567
v 0.490433 -0.044359 0.410000
v 0.500000 -0.042456 0.550000
v 0.500000 -0.042456 0.410000
v 0.457056 0.036219 0.410000
v 0.467056 0.012077 0.420000
v 0.467056 0.012077 0.580000
v 0.450000 0.053255 0.600000
v 0.447056 0.060361 0.600000
v 0.500000 0.119239 0.550000
v 0.450000 0.098528 0.600000
v -0.490433 -0.044359 0.559567
v -0.500000 -0.042456 0.550000
v -0.490433 -0.044359 0.410000
v -0.500000 -0.042456 0.410000
v -0.467056 0.012077 0.420000
v -0.467056 0.012077 0.580000
v -0.450000 0.053255 0.600000
v -0.447056 0.060361 0.600000
v -0.457056 0.036219 0.410000
v 0.500000 0.119239 0.410000
v 0.317742 0.175534 0.410000
v 0.368195 0.251043 0.410000
v 0.111576 0.260931 0.410000
v 0.129293 0.350000 0.410000
v -0.129293 0.350000 0.410000
v -0.111576 0.260931 0.410000
v -0.368195 0.251043 0.410000
v -0.317742 0.175534 0.410000
v -0.500000 0.119239 0.410000
v -0.312077 0.167056 0.420000
v -0.109587 0.250931 0.420000
v 0.109587 0.250931 0.420000
v 0.312077 0.167056 0.420000
v -0.312077 0.167056 0.580000
v -0.109587 0.250931 0.580000
v 0.109587 0.250931 0.580000
v 0.312077 0.167056 0.580000
v 0.323406 0.184012 0.600000
v 0.113565 0.270931 0.600000
v -0.113565 0.270931 0.600000
v -0.323406 0.184012 0.600000
v -0.500000 0.119239 0.550000
v -0.450000 0.098528 0.600000
v -0.339873 0.208655 0.600000
v -0.368195 0.251043 0.550000
v -0.129293 0.350000 0.550000
v -0.119347 0.300000 0.600000
v 0.129293 0.350000 0.550000
v 0.119347 0.300000 0.600000
v 0.368195 0.251043 0.550000
v 0.339873 0.208655 0.600000
vt 0.630929 0.560784
vt 0.630929 0.560876
vt 0.630923 0.560790
vt 0.630923 0.560876
vt 0.630910 0.560765
vt 0.630963 0.560765
vt 0.630926 0.560771
vt 0.630963 0.560857
vt 0.630926 0.560870
vt 0.630898 0.560882
vt 0.630894 0.560882
vt 0.455953 0.592736
vt 0.455952 0.592744
vt 0.455893 0.592701
vt 0.455853 0.592744
vt 0.455866 0.592701
vt 0.630923 0.560784
vt 0.630929 0.560790
vt 0.630923 0.560876
vt 0.630929 0.560876
vt 0.630941 0.560765
vt 0.630979 0.560771
vt 0.630941 0.560857
vt 0.630979 0.560870
vt 0.631006 0.560882
vt 0.631011 0.560882
vt 0.630995 0.560765
vt 0.630812 0.561121
vt 0.630861 0.561101
vt 0.630813 0.561127
vt 0.630912 0.561127
vt 0.630947 0.561015
vt 0.630993 0.561046
vt 0.630999 0.560889
vt 0.631054 0.560900
vt 0.631054 0.560741
vt 0.630999 0.560752
vt 0.630993 0.560595
vt 0.630947 0.560626
vt 0.630912 0.560514
vt 0.630861 0.560540
vt 0.630813 0.560514
vt 0.630812 0.560520
vt 0.631055 0.560816
vt 0.630921 0.560816
vt 0.630919 0.560825
vt 0.631012 0.560825
vt 0.630876 0.560825
vt 0.631011 0.560816
vt 0.630877 0.560816
vt 0.630824 0.560825
vt 0.630959 0.560816
vt 0.630825 0.560816
vt 0.630909 0.560825
vt 0.630772 0.560825
vt 0.630908 0.560816
vt 0.630773 0.560816
vt 0.630865 0.560825
vt 0.630744 0.560825
vt 0.630864 0.560816
vt 0.630729 0.560816
vt 0.630926 0.560771
vt 0.631060 0.560771
vt 0.630926 0.560870
vt 0.631060 0.560870
vt 0.631060 0.560771
vt 0.630926 0.560870
vt 0.631060 0.560870
vt 0.631060 0.560771
vt 0.630926 0.560870
vt 0.631060 0.560870
vt 0.631060 0.560771
vt 0.630926 0.560870
vt 0.631060 0.560870
vt 0.631060 0.560771
vt 0.630926 0.560870
vt 0.631060 0.560870
vt 0.630729 0.560829
vt 0.630759 0.560812
vt 0.630864 0.560829
vt 0.630866 0.560812
vt 0.630771 0.560812
vt 0.630910 0.560812
vt 0.630773 0.560829
vt 0.630908 0.560829
vt 0.630823 0.560812
vt 0.630962 0.560812
vt 0.630825 0.560829
vt 0.630959 0.560829
vt 0.631011 0.560829
vt 0.630877 0.560829
vt 0.631014 0.560812
vt 0.630874 0.560812
vt 0.630918 0.560812
vt 0.631025 0.560812
vt 0.630921 0.560829
vt 0.631055 0.560829
vt 0.455797 0.592744
vt 0.455796 0.592736
vt 0.455897 0.592744
vt 0.455856 0.592701
vt 0.455884 0.592701
vt 0.455841 0.592701
vt 0.455847 0.592744
vt 0.455746 0.592701
vt 0.455733 0.592744
vt 0.455891 0.592744
vt 0.455733 0.592744
vt 0.455885 0.592701
vt 0.455739 0.592701
vt 0.455943 0.592744
vt 0.455784 0.592744
vt 0.455937 0.592701
vt 0.455791 0.592701
vt 0.455995 0.592744
vt 0.455836 0.592744
vt 0.455989 0.592701
vt 0.455842 0.592701
vt 0.456016 0.592744
vt 0.455902 0.592744
vt 0.456004 0.592701
vt 0.455908 0.592701
vt 0.630980 0.561096
vt 0.630952 0.561096
vt 0.630975 0.561095
vt 0.457132 0.593091
vt 0.457108 0.593093
vt 0.457056 0.593015
vt 0.457041 0.593025
vt 0.457003 0.592886
vt 0.456985 0.592890
vt 0.456985 0.592744
vt 0.457003 0.592747
vt 0.457041 0.592608
vt 0.457056 0.592618
vt 0.457108 0.592541
vt 0.457132 0.592543
vt 0.630975 0.560546
vt 0.630952 0.560545
vt 0.630980 0.560545
vt 0.631040 0.560851
vt 0.630926 0.560851
vt 0.631040 0.560765
vt 0.630926 0.560765
vt 0.630941 0.560765
vt 0.631040 0.560765
vt 0.630941 0.560851
vt 0.631040 0.560851
vt 0.631025 0.560851
vt 0.630926 0.560851
vt 0.631025 0.560765
vt 0.630926 0.560765
vt 0.631040 0.560851
vt 0.630926 0.560851
vt 0.631040 0.560765
vt 0.630926 0.560765
vt 0.631084 0.560851
vt 0.630926 0.560851
vt 0.631084 0.560765
vt 0.630926 0.560765
vt 0.631084 0.560851
vt 0.630926 0.560851
vt 0.631084 0.560765
vt 0.630926 0.560765
vt 0.631084 0.560851
vt 0.630926 0.560851
vt 0.631084 0.560765
vt 0.630926 0.560765
vn 0.1951 -0.9808 0.0000
vn -0.9239 -0.3827 -0.0000
vn -0.9239 -0.3827 0.0001
vn -0.9239 -0.3828 0.0002
vn 0.7071 0.0000 0.7071
vn -0.1951 -0.9808 0.0000
vn 0.9239 -0.3827 -0.0000
vn 0.9239 -0.3827 0.0001
vn 0.9239 -0.3828 0.0002
vn 0.0000 0.0000 -1.0000
vn 0.5000 -0.5000 -0.7071
vn 0.2706 -0.6533 -0.7071
vn 0.0000 -0.7071 -0.7071
vn -0.2706 -0.6533 -0.7071
vn -0.5000 -0.5000 -0.7071
vn 0.7071 -0.7071 0.0000
vn 0.3827 -0.9239 0.0000
vn 0.0000 -1.0000 0.0000
vn -0.3827 -0.9239 0.0000
vn -0.7071 -0.7071 0.0000
vn -0.5000 -0.5000 0.7071
vn -0.2706 -0.6533 0.7071
vn 0.0000 -0.7071 0.7071
vn 0.2706 -0.6533 0.7071
vn 0.5000 -0.5000 0.7071
vn -0.7071 0.0000 0.7071
vn -0.5000 0.5000 0.7071
vn -0.2706 0.6533 0.7071
vn 0.0000 0.7071 0.7071
vn 0.2706 0.6533 0.7071
vn 0.5000 0.5000 0.7071
vn 0.0000 0.0000 1.0000
vn 0.7071 0.7071 0.0000
vn 1.0000 0.0000 0.0000
vn -1.0000 0.0000 0.0000
vn -0.7071 0.7071 0.0000
vn -0.3827 0.9239 0.0000
vn 0.0000 1.0000 0.0000
vn 0.3827 0.9239 0.0000
usemtl Steel_-_Satin.005
s 1
f 1/1/1 2/2/1 3/3/1
f 3/3/1 2/2/1 4/4/1
f 5/5/2 2/6/2 6/7/2
f 6/7/2 2/6/2 1/8/2
f 6/7/2 1/8/2 7/9/3
f 7/9/3 1/8/2 8/10/4
f 7/9/3 8/10/4 9/11/4
f 1/12/5 3/13/5 8/14/5
f 8/14/5 3/13/5 10/15/5
f 8/14/5 10/15/5 11/16/5
f 12/17/6 13/18/6 14/19/6
f 14/19/6 13/18/6 15/20/6
f 14/21/7 16/22/7 12/23/7
f 12/23/7 16/22/7 17/24/8
f 12/23/7 17/24/8 18/25/9
f 18/25/9 17/24/8 19/26/9
f 14/21/7 20/27/7 16/22/7
f 2/28/10 5/29/10 4/30/10
f 4/30/10 5/29/10 21/31/10
f 21/31/10 5/29/10 22/32/10
f 21/31/10 22/32/10 23/33/10
f 23/33/10 22/32/10 24/34/10
f 23/33/10 24/34/10 25/35/10
f 25/35/10 24/34/10 26/36/10
f 26/36/10 24/34/10 27/37/10
f 26/36/10 27/37/10 28/38/10
f 28/38/10 27/37/10 29/39/10
f 28/38/10 29/39/10 30/40/10
f 30/40/10 29/39/10 20/41/10
f 30/40/10 20/41/10 15/42/10
f 15/42/10 20/41/10 14/43/10
f 16/44/11 20/27/11 31/45/11
f 31/45/11 20/27/11 29/46/11
f 29/47/12 27/48/12 31/49/12
f 31/49/12 27/48/12 32/50/12
f 27/37/13 24/51/13 32/52/13
f 32/52/13 24/51/13 33/53/13
f 24/54/14 22/55/14 33/56/14
f 33/56/14 22/55/14 34/57/14
f 22/58/15 5/59/15 34/60/15
f 34/60/15 5/59/15 6/61/15
f 16/62/16 31/63/16 17/64/16
f 17/64/16 31/63/16 35/65/16
f 31/45/17 32/66/17 35/67/17
f 35/67/17 32/66/17 36/68/17
f 32/50/18 33/69/18 36/70/18
f 36/70/18 33/69/18 37/71/18
f 33/56/19 34/72/19 37/73/19
f 37/73/19 34/72/19 38/74/19
f 34/60/20 6/75/20 38/76/20
f 38/76/20 6/75/20 7/77/20
f 7/78/21 9/79/21 38/80/21
f 38/80/21 9/79/21 39/81/21
f 39/82/22 40/83/22 38/84/22
f 38/84/22 40/83/22 37/85/22
f 40/86/23 41/87/23 37/88/23
f 37/88/23 41/87/23 36/89/23
f 35/90/24 36/91/24 42/92/24
f 42/92/24 36/91/24 41/93/24
f 42/94/25 19/95/25 35/96/25
f 35/96/25 19/95/25 17/97/25
f 13/98/26 12/99/26 43/100/26
f 43/100/26 12/99/26 18/101/26
f 43/100/26 18/101/26 44/102/26
f 45/103/27 46/104/27 44/105/27
f 44/105/27 46/104/27 43/106/27
f 47/107/28 46/108/28 48/109/28
f 48/109/28 46/108/28 45/110/28
f 49/111/29 47/112/29 50/113/29
f 50/113/29 47/112/29 48/114/29
f 51/115/30 49/116/30 52/117/30
f 52/117/30 49/116/30 50/118/30
f 10/119/31 51/120/31 11/121/31
f 11/121/31 51/120/31 52/122/31
f 8/123/32 11/124/32 9/125/32
f 9/126/32 11/127/32 39/128/32
f 39/128/32 11/127/32 52/129/32
f 39/128/32 52/129/32 40/130/32
f 40/130/32 52/129/32 50/131/32
f 40/130/32 50/131/32 48/132/32
f 40/130/32 48/132/32 41/133/32
f 41/133/32 48/132/32 45/134/32
f 41/133/32 45/134/32 42/135/32
f 42/135/32 45/134/32 44/136/32
f 42/135/32 44/136/32 19/137/32
f 19/138/32 44/139/32 18/140/32
f 51/141/33 10/142/33 23/143/33
f 23/143/33 10/142/33 21/144/33
f 4/145/34 21/146/34 3/147/34
f 3/147/34 21/146/34 10/148/34
f 13/149/35 43/150/35 15/151/35
f 15/151/35 43/150/35 30/152/35
f 43/153/36 46/154/36 30/155/36
f 30/155/36 46/154/36 28/156/36
f 46/157/37 47/158/37 28/159/37
f 28/159/37 47/158/37 26/160/37
f 47/161/38 49/162/38 26/163/38
f 26/163/38 49/162/38 25/164/38
f 49/165/39 51/166/39 25/167/39
f 25/167/39 51/166/39 23/168/39
