# Blender v2.79 (sub 0) OBJ File: 'VOB2.blend'
# www.blender.org
o side_obj1.004_side_obj1.003
v -0.380207 0.101687 3.109859
v -0.285952 -0.064505 3.109859
v 2.606844 1.795764 2.722083
v 2.701098 1.629572 2.722083
v -0.329998 0.130164 -0.150885
v -0.235743 -0.036029 -0.150885
v 2.657701 1.824607 1.946325
v 2.751955 1.658414 1.946325
vt 0.540778 0.940089
vt 0.539820 0.940288
vt 0.539820 0.937822
vt 0.540778 0.940089
vt 0.540139 0.937822
vt 0.541097 0.940089
vt 0.540778 0.937822
vt 0.541097 0.940089
vt 0.540139 0.937822
vt 0.540139 0.940288
vt 0.539820 0.937822
vt 0.541097 0.937822
vt 0.541097 0.937822
vt 0.539820 0.940288
vt 0.540778 0.937822
vt 0.541097 0.940089
vt 0.541097 0.937822
vt 0.540778 0.937822
vt 0.540778 0.940089
vt 0.540139 0.940288
vt 0.540139 0.937822
vt 0.539820 0.937822
vt 0.539820 0.940288
vt 0.540139 0.940288
vn 0.4933 -0.8698 -0.0000
vn -0.8697 -0.4932 -0.0177
vn -0.4933 0.8698 0.0000
vn 0.8674 0.4919 0.0752
vn 0.4533 0.2571 -0.8535
vn 0.0976 0.0554 0.9937
s off
f 2/1/1 8/2/1 4/3/1
f 5/4/2 2/5/2 1/6/2
f 2/1/1 6/7/1 8/2/1
f 7/8/3 5/9/3 1/10/3
f 5/4/2 6/11/2 2/5/2
f 7/8/3 1/10/3 3/12/3
f 8/13/4 3/14/4 4/15/4
f 5/16/5 7/17/5 8/18/5 6/19/5
f 3/20/6 1/21/6 2/22/6 4/23/6
f 8/13/4 7/24/4 3/14/4
