# Blender v2.79 (sub 0) OBJ File: 'VOB2.blend'
# www.blender.org
o obj1.005_obj1.003
v 1.070389 2.153716 6.288866
v 0.848713 3.025781 6.288866
v 1.070389 2.153716 5.711135
v 0.848713 3.025781 5.711133
v 2.553926 3.221153 5.795601
v 1.356937 3.434261 5.795601
v 1.356937 3.434261 6.204399
v 2.553926 3.221153 6.204399
v 1.879005 2.434696 5.795601
v 1.879005 2.434696 6.204399
vt 0.000000 0.000000
vt 0.000000 0.000000
vt 0.000000 0.000000
vt 0.000000 0.000000
vt 0.000000 0.000000
vt 0.000000 0.000000
vt 0.000000 0.000000
vt 0.000000 0.000000
vt 0.000000 0.000000
vt 0.000000 0.000000
vn 0.3282 -0.9446 0.0000
vn 0.7589 -0.6512 0.0000
vn 0.1161 0.0606 -0.9914
vn -0.9692 -0.2464 0.0000
vn 0.1161 0.0606 0.9914
vn -0.6265 0.7794 0.0000
vn 0.1753 0.9845 0.0000
vn 0.0000 0.0000 -1.0000
vn 0.0955 0.0243 -0.9951
vn 0.0955 0.0243 0.9951
vn 0.0000 0.0000 1.0000
s off
f 10/1/1 3/2/1 9/3/1
f 9/3/2 8/4/2 10/1/2
f 9/3/3 4/5/3 6/6/3
f 3/2/4 2/7/4 4/5/4
f 10/1/5 7/8/5 2/7/5
f 6/6/6 2/7/6 7/8/6
f 8/4/7 6/6/7 7/8/7
f 10/1/1 1/9/1 3/2/1
f 9/3/2 5/10/2 8/4/2
f 6/6/8 5/10/8 9/3/8
f 9/3/9 3/2/9 4/5/9
f 3/2/4 1/9/4 2/7/4
f 2/7/10 1/9/10 10/1/10
f 10/1/11 8/4/11 7/8/11
f 6/6/6 4/5/6 2/7/6
f 8/4/7 5/10/7 6/6/7
