# Blender v2.80 (sub 75) OBJ File: ''
# www.blender.org
o ARMOR_SMALL_GSO_ArmourPlate_Small_111.004
v -0.131992 -0.131992 -0.500031
v 0.000008 0.000004 -0.600025
v 0.000000 -0.131994 -0.500032
v 0.132011 -0.131996 -0.500034
v 0.132008 0.132004 -0.500027
v 0.000000 0.132006 -0.500027
v -0.131996 0.132008 -0.500027
v -1.401668 0.500000 -0.500000
v -1.401355 0.500000 -0.375112
v -0.500000 0.500000 -0.375112
v -0.500000 0.500000 -0.500000
v 0.401355 -0.500000 -0.375112
v 0.291273 -0.341594 -0.249000
v 0.212444 -0.341594 -0.249000
v -0.500000 -0.424888 -0.274000
v -0.500000 -0.500000 -0.375112
v 0.401668 -0.500000 -0.500000
v -0.500000 -0.500000 -0.500000
v -1.401668 -0.500000 -0.500000
v -1.500000 -0.401668 -0.500000
v -1.500000 0.401668 -0.500000
v -1.291273 0.341594 -0.249000
v -1.212444 0.341594 -0.249000
v -0.500000 0.424888 -0.274000
v -1.291273 -0.341594 -0.249000
v -1.341594 -0.291273 -0.249000
v -1.500000 -0.401355 -0.375112
v -1.401355 -0.500000 -0.375112
v 0.500000 -0.401355 -0.375112
v 0.341594 -0.291272 -0.249000
v -1.500000 0.401355 -0.375112
v 0.500000 -0.401668 -0.500000
v 0.500000 0.401668 -0.500000
v 0.401668 0.500000 -0.500000
v 0.401355 0.500000 -0.375112
v 0.500000 0.401355 -0.375112
v -1.341594 -0.212444 -0.249000
v -1.341594 0.000000 -0.249000
v -1.341594 0.212444 -0.249000
v -1.341594 0.291273 -0.249000
v 0.341594 0.291273 -0.249000
v 0.341594 0.212444 -0.249000
v 0.341594 0.000000 -0.249000
v 0.341594 -0.212444 -0.249000
v 0.291273 0.341594 -0.249000
v 0.212444 0.341594 -0.249000
v -1.212444 -0.341594 -0.249000
v 0.325774 -0.424888 -0.300000
v 0.212444 -0.424888 -0.300000
v -0.500000 -0.424888 -0.300000
v -1.325774 0.424888 -0.300000
v -1.212444 0.424888 -0.300000
v -0.500000 0.424888 -0.300000
v -1.325774 -0.424888 -0.300000
v -1.424888 -0.325774 -0.300000
v 0.424888 -0.325774 -0.300000
v -1.424888 -0.212444 -0.300000
v -1.424888 0.000000 -0.300000
v -1.424888 0.212444 -0.300000
v -1.424888 0.325774 -0.300000
v 0.424888 0.325774 -0.300000
v 0.424888 0.212444 -0.300000
v 0.424888 0.000000 -0.300000
v 0.424888 -0.212444 -0.300000
v 0.325774 0.424888 -0.300000
v 0.212444 0.424888 -0.300000
v -1.212444 -0.424888 -0.300000
v 0.325774 -0.424888 -0.274000
v 0.212444 -0.424888 -0.274000
v -0.500000 -0.382888 -0.249000
v -1.325774 0.424888 -0.274000
v -1.212444 0.424888 -0.274000
v -0.500000 0.382888 -0.249000
v -1.325774 -0.424888 -0.274000
v -1.424888 -0.325774 -0.274000
v 0.424888 -0.325774 -0.274000
v -1.424888 -0.212444 -0.274000
v -1.424888 0.000000 -0.274000
v -1.424888 0.212444 -0.274000
v -1.424888 0.325774 -0.274000
v 0.424888 0.325774 -0.274000
v 0.424888 0.212444 -0.274000
v 0.424888 0.000000 -0.274000
v 0.424888 -0.212444 -0.274000
v 0.325774 0.424888 -0.274000
v 0.212444 0.424888 -0.274000
v -1.212444 -0.424888 -0.274000
v 0.308377 -0.382888 -0.249000
v 0.212444 -0.382888 -0.249000
v -0.500000 -0.341594 -0.249000
v -1.308377 0.382888 -0.249000
v -1.212444 0.382888 -0.249000
v -0.500000 0.341594 -0.249000
v -1.308377 -0.382888 -0.249000
v -1.382888 -0.308377 -0.249000
v 0.382888 -0.308377 -0.249000
v -1.382888 -0.212444 -0.249000
v -1.382888 0.000000 -0.249000
v -1.382888 0.212444 -0.249000
v -1.382888 0.308377 -0.249000
v 0.382888 0.308377 -0.249000
v 0.382888 0.212444 -0.249000
v 0.382888 0.000000 -0.249000
v 0.382888 -0.212444 -0.249000
v 0.308377 0.382888 -0.249000
v 0.212444 0.382888 -0.249000
v -1.212444 -0.382888 -0.249000
v -1.131992 -0.131992 -0.500031
v -0.999992 0.000004 -0.600025
v -1.000000 -0.131994 -0.500032
v -0.867989 -0.131996 -0.500034
v -0.867992 0.132004 -0.500027
v -1.000000 0.132006 -0.500027
v -1.131996 0.132008 -0.500027
vt 0.497774 0.234814
vt 0.428235 0.304350
vt 0.428241 0.234814
vt 0.358698 0.234814
vt 0.358698 0.373887
vt 0.428239 0.373887
vt 0.497774 0.373887
vt 0.329135 0.220973
vt 0.329072 0.220973
vt 0.248444 0.220973
vt 0.248444 0.220973
vt 0.229899 0.097424
vt 0.233391 0.100895
vt 0.238628 0.100895
vt 0.248445 0.100895
vt 0.248445 0.097424
vt 0.167754 0.020085
vt 0.167817 0.020085
vt 0.248445 0.020085
vt 0.248445 0.020085
vt 0.329135 0.020085
vt 0.348889 0.039839
vt 0.348889 0.201219
vt 0.266991 0.143634
vt 0.263499 0.140163
vt 0.258262 0.140163
vt 0.248445 0.140163
vt 0.248445 0.143634
vt 0.263499 0.100895
vt 0.268079 0.105475
vt 0.271550 0.101983
vt 0.266991 0.097424
vt 0.225340 0.101983
vt 0.228811 0.105475
vt 0.329072 0.020085
vt 0.348889 0.039901
vt 0.348889 0.201156
vt 0.148001 0.039901
vt 0.148001 0.039839
vt 0.148001 0.201219
vt 0.167754 0.220973
vt 0.167817 0.220973
vt 0.148001 0.201156
vt 0.268079 0.110712
vt 0.268079 0.120529
vt 0.268079 0.130346
vt 0.268079 0.135583
vt 0.271550 0.139075
vt 0.225340 0.139075
vt 0.228811 0.135583
vt 0.228811 0.130346
vt 0.228811 0.120529
vt 0.228811 0.110712
vt 0.229899 0.143634
vt 0.233391 0.140163
vt 0.393759 0.540663
vt 0.393433 0.544306
vt 0.393218 0.554123
vt 0.393433 0.563939
vt 0.393759 0.567582
vt 0.396012 0.569907
vt 0.398691 0.569907
vt 0.410554 0.569907
vt 0.410554 0.538338
vt 0.398691 0.538338
vt 0.396012 0.538338
vt 0.258262 0.100895
vt 0.238628 0.140163
vt 0.422418 0.569907
vt 0.425096 0.569907
vt 0.427349 0.567582
vt 0.427676 0.563940
vt 0.427890 0.554123
vt 0.427676 0.544306
vt 0.427349 0.540663
vt 0.425096 0.538338
vt 0.422418 0.538338
vt 0.573235 0.528630
vt 0.578472 0.528630
vt 0.578472 0.528630
vt 0.573235 0.528630
vt 0.588289 0.528630
vt 0.588289 0.528630
vt 0.603342 0.567897
vt 0.598105 0.567897
vt 0.598105 0.567897
vt 0.603342 0.567897
vt 0.588289 0.567897
vt 0.588289 0.567897
vt 0.603342 0.528630
vt 0.607922 0.533210
vt 0.607922 0.533210
vt 0.603342 0.528630
vt 0.568655 0.533210
vt 0.568655 0.533210
vt 0.607922 0.538446
vt 0.607922 0.538446
vt 0.607922 0.548263
vt 0.607922 0.548263
vt 0.607922 0.558080
vt 0.607922 0.558080
vt 0.607922 0.563317
vt 0.607922 0.563317
vt 0.568655 0.563317
vt 0.568655 0.558080
vt 0.568655 0.558080
vt 0.568655 0.563317
vt 0.568655 0.548263
vt 0.568655 0.548263
vt 0.568655 0.538446
vt 0.568655 0.538446
vt 0.573235 0.567897
vt 0.573235 0.567897
vt 0.578472 0.567897
vt 0.578472 0.567897
vt 0.598105 0.528630
vt 0.598105 0.528630
vt 0.573563 0.530570
vt 0.577309 0.530570
vt 0.588289 0.530570
vt 0.603014 0.565956
vt 0.599268 0.565956
vt 0.588289 0.565956
vt 0.603014 0.530570
vt 0.606446 0.534014
vt 0.570131 0.534014
vt 0.606656 0.538446
vt 0.606752 0.548263
vt 0.606656 0.558080
vt 0.606446 0.562513
vt 0.570131 0.562513
vt 0.569921 0.558080
vt 0.569826 0.548263
vt 0.569921 0.538446
vt 0.573563 0.565956
vt 0.577309 0.565956
vt 0.599268 0.530570
vt 0.573747 0.532479
vt 0.576425 0.532479
vt 0.588289 0.532479
vt 0.602831 0.564048
vt 0.600152 0.564048
vt 0.588289 0.564048
vt 0.602831 0.532479
vt 0.605084 0.534804
vt 0.571494 0.534804
vt 0.605410 0.538446
vt 0.605625 0.548263
vt 0.605410 0.558080
vt 0.605084 0.561723
vt 0.571494 0.561723
vt 0.571167 0.558080
vt 0.570953 0.548263
vt 0.571167 0.538446
vt 0.573747 0.564048
vt 0.576425 0.564048
vt 0.600152 0.532479
vt 0.497774 0.234814
vt 0.428235 0.304350
vt 0.428241 0.234814
vt 0.358698 0.234814
vt 0.358698 0.373887
vt 0.428239 0.373887
vt 0.497774 0.373887
vn -0.0000 -0.6038 -0.7971
vn 0.6038 0.0000 -0.7971
vn 0.0000 0.6038 -0.7971
vn -0.6038 0.0000 -0.7971
vn 0.0000 1.0000 0.0000
vn 0.0000 -0.7071 0.7071
vn 0.0000 -1.0000 -0.0000
vn -0.0000 0.0000 -1.0000
vn 0.0000 0.7071 0.7071
vn -0.4074 -0.4074 0.8173
vn 0.4074 -0.4074 0.8173
vn -0.7071 -0.7071 0.0018
vn -0.7071 0.7071 0.0018
vn 0.7071 -0.7071 0.0018
vn 0.7071 0.7071 0.0018
vn -1.0000 0.0000 0.0000
vn 1.0000 0.0000 0.0000
vn -0.7071 0.0000 0.7071
vn 0.7071 -0.0000 0.7071
vn -0.4074 0.4074 0.8173
vn 0.4074 0.4074 0.8173
vn 0.0000 -0.0000 1.0000
vn 0.3827 -0.9239 -0.0000
vn -0.3827 0.9239 0.0000
vn -0.3827 -0.9239 -0.0000
vn -0.9239 -0.3827 -0.0000
vn 0.9239 -0.3827 -0.0000
vn -0.9239 0.3827 0.0000
vn 0.9239 0.3827 0.0000
vn 0.3827 0.9239 0.0000
vn 0.1844 -0.4452 0.8762
vn 0.0000 -0.5115 0.8593
vn -0.1844 0.4452 0.8762
vn 0.0000 0.5115 0.8593
vn -0.1844 -0.4452 0.8762
vn -0.4452 -0.1844 0.8762
vn 0.4452 -0.1844 0.8762
vn -0.5115 0.0000 0.8593
vn -0.4452 0.1844 0.8762
vn 0.4452 0.1844 0.8762
vn 0.5115 -0.0000 0.8593
vn 0.1844 0.4452 0.8762
s 1
f 1/1/1 2/2/1 3/3/1
f 4/4/2 2/2/2 5/5/2
f 5/5/3 2/2/3 6/6/3
f 7/7/4 2/2/4 1/1/4
f 8/8/5 9/9/5 10/10/5 11/11/5
f 12/12/6 48/13/6 49/14/6 50/15/6 16/16/6
f 17/17/7 12/18/7 16/19/7 18/20/7
f 8/8/8 11/11/8 18/20/8 19/21/8 20/22/8 21/23/8
f 9/24/9 51/25/9 52/26/9 53/27/9 10/28/9
f 54/29/10 55/30/10 27/31/10 28/32/10
f 12/12/11 29/33/11 56/34/11 48/13/11
f 28/35/12 27/36/12 20/22/12 19/21/12
f 8/8/13 21/23/13 31/37/13 9/9/13
f 29/38/14 12/18/14 17/17/14 32/39/14
f 33/40/15 34/41/15 35/42/15 36/43/15
f 20/22/16 27/36/16 31/37/16 21/23/16
f 33/40/17 36/43/17 29/38/17 32/39/17
f 27/31/18 55/30/18 57/44/18 58/45/18 59/46/18 60/47/18 31/48/18
f 36/49/19 61/50/19 62/51/19 63/52/19 64/53/19 56/34/19 29/33/19
f 9/24/20 31/48/20 60/47/20 51/25/20
f 36/49/21 35/54/21 65/55/21 61/50/21
f 30/56/22 44/57/22 43/58/22 42/59/22 41/60/22 45/61/22 46/62/22 93/63/22 90/64/22 14/65/22 13/66/22
f 16/16/6 50/15/6 67/67/6 54/29/6 28/32/6
f 6/6/3 2/2/3 7/7/3
f 18/20/7 16/19/7 28/35/7 19/21/7
f 10/28/9 53/27/9 66/68/9 65/55/9 35/54/9
f 90/64/22 93/63/22 23/69/22 22/70/22 40/71/22 39/72/22 38/73/22 37/74/22 26/75/22 25/76/22 47/77/22
f 3/3/1 2/2/1 4/4/1
f 18/20/8 11/11/8 34/41/8 33/40/8 32/39/8 17/17/8
f 11/11/5 10/10/5 35/42/5 34/41/5
f 68/78/23 69/79/7 49/80/7 48/81/23
f 69/79/7 15/82/7 50/83/7 49/80/7
f 71/84/24 72/85/5 52/86/5 51/87/24
f 72/85/5 24/88/5 53/89/5 52/86/5
f 74/90/25 75/91/26 55/92/26 54/93/25
f 76/94/27 68/78/23 48/81/23 56/95/27
f 75/91/26 77/96/16 57/97/16 55/92/26
f 77/96/16 78/98/16 58/99/16 57/97/16
f 78/98/16 79/100/16 59/101/16 58/99/16
f 79/100/16 80/102/28 60/103/28 59/101/16
f 81/104/29 82/105/17 62/106/17 61/107/29
f 82/105/17 83/108/17 63/109/17 62/106/17
f 83/108/17 84/110/17 64/111/17 63/109/17
f 84/110/17 76/94/27 56/95/27 64/111/17
f 80/102/28 71/84/24 51/87/24 60/103/28
f 85/112/30 81/104/29 61/107/29 65/113/30
f 86/114/5 85/112/30 65/113/30 66/115/5
f 24/88/5 86/114/5 66/115/5 53/89/5
f 15/82/7 87/116/7 67/117/7 50/83/7
f 87/116/7 74/90/25 54/93/25 67/117/7
f 88/118/31 89/119/32 69/79/32 68/78/31
f 89/119/32 70/120/32 15/82/32 69/79/32
f 91/121/33 92/122/34 72/85/34 71/84/33
f 92/122/34 73/123/34 24/88/34 72/85/34
f 94/124/35 95/125/36 75/91/36 74/90/35
f 96/126/37 88/118/31 68/78/31 76/94/37
f 95/125/36 97/127/38 77/96/38 75/91/36
f 97/127/38 98/128/38 78/98/38 77/96/38
f 98/128/38 99/129/38 79/100/38 78/98/38
f 99/129/38 100/130/39 80/102/39 79/100/38
f 101/131/40 102/132/41 82/105/41 81/104/40
f 102/132/41 103/133/41 83/108/41 82/105/41
f 103/133/41 104/134/41 84/110/41 83/108/41
f 104/134/41 96/126/37 76/94/37 84/110/41
f 100/130/39 91/121/33 71/84/33 80/102/39
f 105/135/42 101/131/40 81/104/40 85/112/42
f 106/136/34 105/135/42 85/112/42 86/114/34
f 73/123/34 106/136/34 86/114/34 24/88/34
f 70/120/32 107/137/32 87/116/32 15/82/32
f 107/137/32 94/124/35 74/90/35 87/116/32
f 13/138/22 14/139/22 89/119/22 88/118/22
f 14/139/22 90/140/22 70/120/22 89/119/22
f 22/141/22 23/142/22 92/122/22 91/121/22
f 23/142/22 93/143/22 73/123/22 92/122/22
f 25/144/22 26/145/22 95/125/22 94/124/22
f 30/146/22 13/138/22 88/118/22 96/126/22
f 26/145/22 37/147/22 97/127/22 95/125/22
f 37/147/22 38/148/22 98/128/22 97/127/22
f 38/148/22 39/149/22 99/129/22 98/128/22
f 39/149/22 40/150/22 100/130/22 99/129/22
f 41/151/22 42/152/22 102/132/22 101/131/22
f 42/152/22 43/153/22 103/133/22 102/132/22
f 43/153/22 44/154/22 104/134/22 103/133/22
f 44/154/22 30/146/22 96/126/22 104/134/22
f 40/150/22 22/141/22 91/121/22 100/130/22
f 45/155/22 41/151/22 101/131/22 105/135/22
f 46/156/22 45/155/22 105/135/22 106/136/22
f 93/143/22 46/156/22 106/136/22 73/123/22
f 90/140/22 47/157/22 107/137/22 70/120/22
f 47/157/22 25/144/22 94/124/22 107/137/22
f 108/158/1 109/159/1 110/160/1
f 111/161/2 109/159/2 112/162/2
f 112/162/3 109/159/3 113/163/3
f 114/164/4 109/159/4 108/158/4
f 113/163/3 109/159/3 114/164/3
f 110/160/1 109/159/1 111/161/1
