# Blender v2.90.1 OBJ File: ''
# www.blender.org
v 1.105738 -0.258060 -0.878679
v 1.110591 -0.221200 -0.878711
v 1.020763 -0.238144 -0.721916
v -1.030350 0.170275 -0.731355
v -1.025875 0.204325 -0.731388
v -1.114731 0.184081 -0.888888
v 1.125149 -0.110619 -0.878811
v 1.128697 -0.083671 -0.878835
v 1.125160 -0.073432 -0.870104
v 1.128202 -0.076566 -0.876281
v 1.047984 -0.068221 -0.730828
v 1.044178 -0.070893 -0.724645
v 1.041838 -0.077806 -0.722078
v 1.038665 -0.101944 -0.722053
v 1.034190 -0.135994 -0.722019
v 1.120297 -0.147480 -0.878778
v 1.029714 -0.170044 -0.721985
v 1.115444 -0.184340 -0.878744
v 1.025239 -0.204094 -0.721950
v 1.017591 -0.262282 -0.721891
v 1.020998 -0.273460 -0.730609
v 1.018049 -0.269662 -0.724440
v 1.096176 -0.293655 -0.869918
v 1.099888 -0.291647 -0.876092
v 1.102190 -0.285009 -0.878655
v -1.124437 0.110361 -0.888808
v -1.127985 0.083413 -0.888779
v -1.124522 0.073201 -0.879986
v -1.127511 0.076316 -0.886199
v -1.048544 0.068425 -0.740037
v -1.044791 0.071116 -0.733830
v -1.042474 0.078037 -0.731265
v -1.039301 0.102175 -0.731288
v -1.034826 0.136225 -0.731321
v -1.119584 0.147221 -0.888848
v -1.105026 0.257802 -0.888969
v -1.109878 0.220942 -0.888929
v -1.021399 0.238375 -0.731421
v -1.021559 0.273663 -0.740226
v -1.099197 0.291396 -0.886437
v -1.101478 0.284750 -0.888998
v -1.095538 0.293424 -0.880237
v -1.018227 0.262513 -0.731445
v -1.018663 0.269885 -0.734021
vt 0.024517 0.215304
vt 0.024972 0.199375
vt 0.096441 0.225157
vt 0.096668 0.202527
vt 0.096413 0.216639
vt 0.026505 0.188273
vt 0.026335 0.152921
vt 0.026647 0.141876
vt 0.030793 0.138894
vt 0.027896 0.139320
vt 0.092579 0.155221
vt 0.095220 0.157038
vt 0.096328 0.160105
vt 0.096356 0.169646
vt 0.096384 0.183276
vt 0.025880 0.168197
vt 0.096384 0.197075
vt 0.025426 0.183672
vt 0.096413 0.211017
vt 0.096470 0.235266
vt 0.092608 0.239014
vt 0.095334 0.238077
vt 0.028237 0.231915
vt 0.025312 0.230297
vt 0.024148 0.227088
vt 0.027328 0.156443
vt 0.027612 0.144857
vt 0.031786 0.141762
vt 0.028890 0.142217
vt 0.093687 0.159395
vt 0.096299 0.161355
vt 0.097350 0.164535
vt 0.097151 0.174444
vt 0.096924 0.188471
vt 0.026902 0.172343
vt 0.025682 0.220330
vt 0.026079 0.204287
vt 0.096157 0.230779
vt 0.092154 0.244523
vt 0.026505 0.235323
vt 0.025369 0.232114
vt 0.029373 0.236942
vt 0.095987 0.240860
vt 0.094823 0.243642
vn 0.8673 -0.1137 0.4846
vn 0.8673 -0.1138 0.4846
vn 0.8673 -0.1135 0.4846
vn -0.8714 0.1150 0.4769
vn -0.8714 0.1150 0.4768
vn -0.8714 0.1152 0.4768
vn 0.8672 -0.1137 0.4848
vn 0.8672 -0.1138 0.4847
vn 0.8672 -0.1138 0.4848
vn 0.8672 -0.1135 0.4848
vn 0.8672 -0.1136 0.4848
vn 0.8673 -0.1135 0.4847
vn 0.8673 -0.1137 0.4847
vn 0.8674 -0.1135 0.4845
vn 0.8674 -0.1135 0.4846
vn 0.8674 -0.1137 0.4845
vn 0.8674 -0.1138 0.4845
vn -0.8713 0.1152 0.4770
vn -0.8714 0.1150 0.4770
vn -0.8713 0.1149 0.4770
vn -0.8714 0.1152 0.4769
vn -0.8715 0.1152 0.4768
vn -0.8715 0.1150 0.4768
vn -0.8715 0.1151 0.4768
vn -0.8715 0.1153 0.4767
vn -0.8715 0.1150 0.4767
s 1
f 1/1/1 2/2/2 3/3/3
f 4/4/4 5/5/5 6/6/6
f 7/7/7 8/8/8 9/9/9
f 8/8/8 10/10/9 9/9/9
f 9/9/9 11/11/10 7/7/7
f 11/11/10 12/12/11 13/13/10
f 14/14/12 15/15/12 16/16/13
f 15/15/12 17/17/12 16/16/13
f 11/11/10 13/13/10 14/14/12
f 2/2/2 18/18/13 19/19/3
f 18/18/13 16/16/13 17/17/12
f 16/16/13 7/7/7 14/14/12
f 7/7/7 11/11/10 14/14/12
f 17/17/12 19/19/3 18/18/13
f 19/19/3 3/3/3 2/2/2
f 3/3/3 20/20/14 21/21/15
f 20/20/14 22/22/14 21/21/15
f 21/21/15 23/23/16 1/1/1
f 3/3/3 21/21/15 1/1/1
f 23/23/16 24/24/17 25/25/17
f 23/23/16 25/25/17 1/1/1
f 26/26/18 27/27/18 28/28/18
f 27/27/18 29/29/18 28/28/18
f 28/28/18 30/30/19 26/26/18
f 30/30/19 31/31/20 32/32/19
f 33/33/4 34/34/4 35/35/21
f 34/34/4 4/4/4 35/35/21
f 35/35/21 4/4/4 6/6/6
f 30/30/19 32/32/19 33/33/4
f 35/35/21 26/26/18 33/33/4
f 33/33/4 26/26/18 30/30/19
f 36/36/22 37/37/6 38/38/23
f 37/37/6 6/6/6 5/5/5
f 36/36/22 38/38/23 39/39/23
f 40/40/24 41/41/25 42/42/25
f 41/41/25 36/36/22 42/42/25
f 39/39/23 42/42/25 36/36/22
f 43/43/26 44/44/23 39/39/23
f 38/38/23 43/43/26 39/39/23
f 5/5/5 38/38/23 37/37/6
