# Blender v2.79 (sub 0) OBJ File: 'untitled.blend'
# www.blender.org
mtllib RR_AdvBatteryGauge_bar.mtl
o Plane.003
v -8.000000 -0.010000 0.120000
v 0.000000 -0.010000 -0.120000
v 0.000000 -0.010000 0.120000
v -8.000000 -0.010000 -0.120000
v -8.000000 -0.030000 0.120000
v 0.000000 -0.030000 -0.120000
v 0.000000 -0.030000 0.120000
v -8.000000 -0.030000 -0.120000
vt 0.239780 0.710932
vt 0.229920 0.710932
vt 0.229920 0.711169
vt 0.239780 0.711169
vt 0.044401 0.634111
vt 0.042237 0.634111
vt 0.042237 0.634163
vt 0.044401 0.634163
vn 0.0000 1.0000 0.0000
usemtl None_ShieldSphereOuter_t_LaserExplosion_01_c_1.png
s 1
f 1/1/1 3/2/1 2/3/1
f 1/1/1 2/3/1 4/4/1
f 5/5/1 7/6/1 6/7/1
f 5/5/1 6/7/1 8/8/1
