# Blender v2.82 (sub 7) OBJ File: 'DL_CSlope4R.blend'
# www.blender.org
mtllib DLCornerLXSlopeR.mtl
o CornerSlope
v 0.250000 0.366025 1.232050
v 0.066988 -0.000000 2.500000
v 0.066988 0.366025 0.500000
v -0.250000 -0.000000 1.232050
v 0.500000 0.315607 1.495516
v 0.454353 0.366025 1.451075
v 0.500000 -0.045374 2.939438
v 0.454775 -0.000001 2.915627
v 0.500000 0.445909 -0.450000
v 0.455631 0.483122 -0.425525
v 0.027145 0.322459 -0.500000
v 0.003346 0.366025 -0.450054
v 0.431007 0.478175 -0.450149
v 0.450000 0.435800 -0.500000
v -0.484592 -0.454981 -0.450060
v -0.434839 -0.450000 -0.500000
v -0.446539 -0.500000 -0.450000
v 0.429289 -0.500000 -0.450000
v 0.450000 -0.450000 -0.500000
v -0.362680 -0.000000 -0.450058
v -0.321196 -0.025882 -0.500000
v -0.316435 -0.500000 1.492204
v -0.355609 -0.455112 1.475944
v 0.045374 -0.500000 2.939438
v 0.005968 -0.455457 2.922755
v 0.454962 -0.455618 3.404159
v 0.450000 -0.500001 3.373117
v 0.500000 -0.450001 3.373117
v 0.500000 -0.450000 -0.450000
v 0.450000 -0.500000 -0.429289
vt 0.249802 0.638913
vt 0.242651 0.532173
vt 0.201528 0.532172
vt 0.214188 0.721160
vt 0.221637 0.532179
vt 0.221637 0.750389
vt 0.226680 0.748562
vt 0.226695 0.532172
vt 0.187831 0.593473
vt 0.193421 0.594032
vt 0.192106 0.588415
vt 0.293391 0.593401
vt 0.292834 0.588415
vt 0.298451 0.594032
vt 0.249802 0.863616
vt 0.293370 0.910313
vt 0.293323 0.745768
vt 0.270363 0.721160
vt 0.221637 0.912988
vt 0.221637 0.961713
vt 0.226624 0.965200
vt 0.226642 0.911114
vt 0.298451 0.912988
vt 0.298451 0.750761
vt 0.293391 0.965200
vt 0.298451 0.961713
vt 0.298451 0.694689
vt 0.227255 0.532179
vt 0.292834 0.594032
vt 0.292834 0.693553
vt 0.290507 0.532179
vt 0.292834 0.526561
vt 0.298451 0.532179
vt 0.292834 0.534506
vt 0.277813 0.532172
vt 0.206188 0.641683
vt 0.245325 0.680819
vt 0.201528 0.644590
vt 0.242651 0.685714
vt 0.293466 0.534929
vt 0.298451 0.532179
vt 0.290700 0.532162
vt 0.277813 0.721160
vt 0.245325 0.526561
vt 0.272715 0.912988
vt 0.227255 0.961713
vt 0.313272 0.750761
vt 0.292834 0.961713
vt 0.247373 0.912988
vt 0.206723 0.750389
vt 0.192106 0.532179
vt 0.290507 0.588415
vt 0.242946 0.911114
vn -0.7063 0.7063 0.0473
vn -0.7621 -0.6454 0.0510
vn -0.7697 -0.6233 0.1382
vn -0.7676 -0.6323 0.1050
vn -0.5888 -0.4985 -0.6363
vn 0.5261 -0.5261 0.6681
vn -0.2516 0.9389 0.2347
vn -0.7327 -0.4605 0.5011
vn -0.6805 -0.3661 0.6347
vn -0.7650 -0.5483 0.3379
vn 0.6435 0.7426 0.1855
vn 0.6588 0.7380 0.1458
vn 0.6799 0.7284 0.0848
vn 0.3525 0.6843 0.6383
vn 0.7071 0.0000 -0.7071
vn 0.5000 -0.7071 -0.5000
vn -0.7050 0.1889 -0.6835
vn -0.6178 0.3595 -0.6994
vn -0.6207 0.3545 -0.6993
vn -0.3571 0.6178 -0.7006
vn -0.3538 0.6197 -0.7006
vn -0.0000 0.0000 -1.0000
vn -0.2104 0.9770 0.0339
vn -0.0882 0.9944 0.0579
vn -0.0666 0.9958 0.0621
vn 0.6914 0.7209 0.0469
vn 0.3630 0.7738 -0.5191
vn 0.0000 -0.7071 -0.7071
vn -0.2183 0.9754 0.0323
vn -0.9639 0.2583 0.0646
vn -0.1866 0.7035 -0.6858
vn -0.5844 0.7982 0.1461
vn 1.0000 0.0000 0.0000
vn -0.9142 0.3346 0.2286
vn 0.0000 -1.0000 -0.0000
vn -0.5902 0.5902 0.5507
vn 0.7071 -0.7071 -0.0000
usemtl Color_M03
s 1
f 3/1/1 12/2/1 20/3/1 4/4/1
f 17/5/2 22/6/3 23/7/4 15/8/2
f 15/9/5 16/10/5 17/11/5
f 26/12/6 27/13/6 28/14/6
f 2/15/7 8/16/7 6/17/7 1/18/7
f 24/19/8 27/20/9 26/21/9 25/22/10
f 8/16/11 7/23/11 5/24/12 6/17/13
f 26/25/14 28/26/14 7/23/14 8/16/14
f 22/6/3 24/19/8 25/22/10 23/7/4
f 9/27/15 29/28/15 19/29/15 14/30/15
f 18/31/16 19/32/16 29/33/16 30/34/16
f 15/9/17 20/35/18 21/36/19 16/10/17
f 11/37/20 21/36/19 20/38/18 12/39/21
f 14/30/22 19/29/22 16/10/22 21/36/22 11/37/22
f 10/40/23 1/18/24 6/17/25
f 9/41/26 10/40/26 6/17/13 5/24/12
f 13/42/27 10/40/27 9/41/27 14/30/27
f 19/29/28 18/31/28 17/11/28 16/10/28
f 13/42/29 12/2/29 3/1/29 1/18/24 10/40/23
f 20/35/30 15/8/30 23/7/30 4/43/30
f 12/2/21 13/42/31 14/30/31 11/44/20
f 1/18/32 3/1/32 4/4/32 2/15/32
f 7/45/33 28/46/33 29/28/33 9/41/33 5/47/33
f 25/22/34 2/15/34 4/43/34 23/7/34
f 30/34/35 27/48/35 24/49/35 22/50/35 17/51/35 18/52/35
f 2/15/36 25/53/36 26/25/36 8/16/36
f 29/33/37 28/46/37 27/48/37 30/34/37
