# Blender v2.82 (sub 7) OBJ File: 'DL_CSlope4RWide.blend'
# www.blender.org
mtllib DLCornerLargeWideSlopeRCollider.mtl
o CornerSlope
v 0.633974 -0.000001 2.500000
v 1.000000 0.366025 1.232050
v -0.000000 -0.000000 1.232050
v 1.500000 -0.045374 2.939438
v 1.451290 -0.000001 2.937996
v 1.500000 -0.450001 3.373117
v 1.451357 -0.460050 3.431113
v 1.450000 -0.500001 3.416478
v 0.537618 -0.500000 2.927532
v 0.510743 -0.459906 2.926884
v 1.451171 0.366025 1.473833
v 1.500000 0.446453 -0.450000
v 1.451527 0.488714 -0.428464
v 0.515528 0.317887 -0.500000
v 0.506680 0.366025 -0.450142
v 1.429753 0.487255 -0.450238
v 1.450000 0.443092 -0.500000
v -0.471587 -0.459441 -0.450162
v -0.416478 -0.450000 -0.500000
v -0.442855 -0.500000 -0.450000
v 1.429289 -0.500000 -0.450000
v 1.450000 -0.450000 -0.500000
v -0.225373 -0.000000 -0.450154
v -0.195483 -0.037618 -0.500000
v 1.450000 -0.500000 -0.429289
v 1.500000 -0.450000 -0.450000
v -0.183601 -0.500000 1.485097
v -0.213294 -0.459585 1.478341
vt 0.247251 0.929130
vt 0.361390 0.990316
vt 0.361382 0.930478
vt 0.262204 0.877329
vt 0.316046 0.723469
vt 0.316046 0.519341
vt 0.260295 0.519340
vt 0.260277 0.753356
vt 0.250512 0.929208
vt 0.162995 0.754175
vt 0.131536 0.519360
vt 0.358712 0.519360
vt 0.361225 0.521873
vt 0.361225 0.988540
vt 0.361225 0.513293
vt 0.367292 0.519360
vt 0.134736 0.586539
vt 0.361225 0.586539
vt 0.358712 0.580472
vt 0.131536 0.580472
vt 0.306620 0.723469
vt 0.246757 0.519343
vt 0.157926 0.519341
vt 0.185274 0.723469
vt 0.261440 0.983278
vt 0.260221 0.990316
vt 0.255373 0.988540
vt 0.128049 0.585393
vt 0.260238 0.929130
vt 0.255373 0.754175
vt 0.255373 0.929208
vt 0.255373 0.519360
vt 0.361410 0.521973
vt 0.358768 0.519331
vt 0.361367 0.752808
vt 0.000000 0.000000
vt 0.370221 0.519360
vt 0.310540 0.930653
vt 0.316046 0.877329
vt 0.157926 0.641144
vt 0.161553 0.636580
vt 0.255373 0.521873
vt 0.261440 0.519360
vt 0.361390 0.585319
vt 0.247251 0.585337
vt 0.250512 0.580472
vt 0.361225 0.580472
vt 0.247831 0.679718
vt 0.246757 0.685560
vt 0.367292 0.519360
vt 0.361225 0.513293
vt 0.367292 0.983278
vt 0.367292 0.930653
vt 0.361225 0.694912
vt 0.247831 0.513293
vn -0.3434 0.6867 0.6407
vn -0.8753 0.4691 0.1173
vn 0.0000 -1.0000 -0.0000
vn 0.5000 -0.7071 -0.5000
vn 0.0000 -0.7071 -0.7071
vn -0.3735 0.9212 0.1091
vn 0.7633 -0.2449 0.5978
vn -0.5727 -0.4086 -0.7107
vn -0.7713 -0.5065 0.3855
vn -0.8029 -0.5536 0.2210
vn -0.7954 -0.5402 0.2750
vn -0.8105 -0.5756 0.1086
vn -0.0966 0.9942 0.0474
vn 1.0000 0.0000 0.0000
vn -0.7483 0.5478 0.3741
vn -0.4970 0.5228 -0.6926
vn -0.5120 0.5095 -0.6915
vn -0.6600 0.3537 -0.6628
vn 0.7071 -0.7071 -0.0000
vn -0.4519 -0.2914 0.8431
vn -0.2173 0.6868 -0.6936
vn -0.2053 0.6902 -0.6938
vn 0.4391 0.7532 -0.4897
vn 0.5518 0.6098 0.5689
vn 0.7071 0.0000 -0.7071
vn -0.0951 0.7162 -0.6914
vn -0.0000 0.0000 -1.0000
vn 0.9271 0.3709 0.0539
vn -0.1289 0.9621 0.2405
usemtl Color_M03
s 1
f 10/1/1 7/2/1 5/3/1 1/4/1
f 3/5/2 23/6/2 18/7/2 28/8/2
f 9/9/3 27/10/3 20/11/3 21/12/3 25/13/3 8/14/3
f 22/15/4 26/16/4 25/13/4 21/12/4
f 19/17/5 22/18/5 21/19/5 20/20/5
f 2/21/6 15/22/6 23/23/6 3/24/6 1/4/6
f 6/25/7 7/26/7 8/27/7
f 18/28/8 19/17/8 20/20/8
f 10/29/9 28/8/10 27/30/11 9/31/9
f 20/32/12 27/30/11 28/8/10 18/7/12
f 13/33/13 16/34/13 15/22/13 2/21/13 11/35/13
f 26/36/14 12/37/14 4/38/14 6/25/14
f 1/39/15 3/5/15 28/8/15 10/29/15
f 23/40/16 24/41/17 19/17/18 18/28/18
f 25/42/19 26/43/19 6/25/19 8/27/19
f 7/44/20 10/45/20 9/46/20 8/47/20
f 14/48/21 24/41/17 23/40/16 15/49/22
f 12/50/23 17/51/23 16/34/23 13/33/23
f 5/3/24 7/2/24 6/52/24 4/53/24
f 12/37/25 26/36/25 22/18/25 17/54/25
f 16/34/26 17/51/26 14/55/21 15/22/22
f 14/48/27 17/54/27 22/18/27 19/17/27 24/41/27
f 11/35/28 5/3/28 4/53/28 12/50/28 13/33/28
f 1/4/29 5/3/29 11/35/29 2/21/29
