# Blender v2.82 (sub 7) OBJ File: 'DL_CSlope2Wide.blend'
# www.blender.org
mtllib DLCornerSmallWideSlopeCollider.mtl
o CornerSlope
v 0.366025 0.366025 0.000000
v -0.000000 0.366025 0.366026
v 0.366025 -0.000000 1.000000
v 1.000000 -0.000000 0.366026
v -0.429289 -0.500000 -0.450000
v -0.450000 -0.450000 -0.500000
v -0.450000 -0.500000 -0.429289
v -0.500000 -0.450000 -0.450000
v 1.462978 -0.455596 -0.450639
v 1.434839 -0.500000 -0.450000
v 1.416478 -0.450000 -0.500000
v -0.500000 -0.450000 1.416478
v -0.450000 -0.500000 1.434839
v -0.450639 -0.455597 1.462978
v 0.474118 -0.500000 1.187221
v 0.488102 -0.455597 1.211442
v 1.211442 -0.455596 0.488102
v 1.187221 -0.500000 0.474118
v 0.484696 0.317775 -0.500000
v 0.486753 0.366025 -0.450561
v -0.429585 0.483993 -0.450940
v -0.450000 0.443007 -0.500000
v 1.218816 -0.000000 -0.450610
v 1.195482 -0.037618 -0.500000
v -0.500000 0.317775 0.484696
v -0.450561 0.366025 0.486753
v -0.450940 0.483993 -0.429585
v -0.500000 0.443007 -0.450000
v -0.450610 -0.000000 1.218816
v -0.500000 -0.037618 1.195482
vt 0.075695 0.758601
vt 0.075695 0.551965
vt 0.175981 0.551971
vt 0.175981 0.731729
vt 0.239541 0.871280
vt 0.158972 0.731729
vt 0.059794 0.758304
vt 0.059783 0.919446
vt 0.379092 0.731729
vt 0.427258 0.551971
vt 0.266116 0.551982
vt 0.239541 0.651159
vt 0.379092 0.668168
vt 0.239541 0.668168
vt 0.266413 0.567882
vt 0.425635 0.567882
vt 0.422122 0.541099
vt 0.265663 0.541099
vt 0.065921 0.755522
vt 0.065921 0.552105
vt 0.059918 0.556664
vt 0.059918 0.966997
vt 0.048912 0.962955
vt 0.048912 0.552105
vt 0.481003 0.567882
vt 0.474809 0.558108
vt 0.470767 0.569114
vt 0.076927 0.962955
vt 0.065921 0.966997
vt 0.075695 0.973191
vt 0.064476 0.558108
vt 0.059918 0.569114
vt 0.059783 0.668168
vt 0.048912 0.659888
vt 0.048912 0.569114
vt 0.059777 0.567882
vt 0.059918 0.541099
vt 0.064476 0.552105
vt 0.076927 0.541099
vt 0.167700 0.541099
vt 0.048912 0.757851
vt 0.048912 0.914309
vt 0.059918 0.541099
vt 0.064411 0.551898
vt 0.420303 0.558108
vt 0.263335 0.558108
vt 0.048912 0.552105
vt 0.059711 0.556599
vt 0.059918 0.558108
vt 0.263335 0.912491
vt 0.474809 0.552105
vt 0.420303 0.755522
vt 0.422122 0.659888
vt 0.265663 0.738117
vt 0.273496 0.552105
vt 0.000000 0.000000
vt 0.245930 0.757851
vn 0.8578 0.4597 0.2299
vn 0.1190 0.8881 0.4440
vn 0.4440 0.8881 0.1190
vn 0.6280 0.4597 0.6280
vn 0.5106 0.5505 -0.6604
vn 0.5444 0.5232 -0.6557
vn 0.2289 0.6992 -0.6773
vn 0.2019 0.7059 -0.6789
vn 0.7328 -0.5330 0.4231
vn 0.8252 -0.5198 0.2211
vn -0.7071 -0.7071 -0.0000
vn 0.6387 -0.4141 -0.6486
vn -0.6486 -0.4141 0.6387
vn 0.0000 -0.7071 -0.7071
vn -0.6604 0.5505 0.5106
vn -0.6557 0.5232 0.5444
vn -0.6133 0.3731 0.6962
vn -0.5000 -0.7071 -0.5000
vn 0.3251 0.8881 0.3251
vn 0.6962 0.3731 -0.6133
vn -0.6773 0.6992 0.2289
vn -0.6789 0.7059 0.2019
vn 0.0956 0.7267 -0.6802
vn 0.4231 -0.5330 0.7328
vn -0.4530 0.7679 -0.4530
vn -0.6802 0.7267 0.0956
vn 0.2211 -0.5198 0.8252
vn 0.0000 -1.0000 -0.0000
vn 0.2299 0.4597 0.8578
vn 0.0000 0.0000 -1.0000
vn 0.0858 0.9926 0.0858
vn -1.0000 0.0000 0.0000
vn -0.7071 0.0000 -0.7071
usemtl Color_M03
s 1
f 17/1/1 9/2/1 23/3/1 4/4/1
f 3/5/2 2/6/2 26/7/2 29/8/2
f 4/9/3 23/10/3 20/11/3 1/12/3
f 4/13/4 3/14/4 16/15/4 17/16/4
f 23/10/5 24/17/6 19/18/7 20/11/8
f 17/1/9 18/19/9 10/20/10 9/2/10
f 7/21/11 13/22/11 12/23/11 8/24/11
f 9/25/12 10/26/12 11/27/12
f 12/28/13 13/29/13 14/30/13
f 11/27/14 10/26/14 5/31/14 6/32/14
f 29/33/15 30/34/16 12/35/17 14/36/17
f 7/21/18 8/24/18 6/37/18 5/38/18
f 2/6/19 3/5/19 4/9/19 1/12/19
f 11/39/20 24/40/6 23/3/5 9/2/20
f 25/41/21 30/42/16 29/8/15 26/7/22
f 19/18/7 22/43/23 21/44/23 20/11/8
f 18/45/9 17/16/9 16/15/24 15/46/24
f 22/43/25 28/47/25 27/48/25 21/44/25
f 27/48/26 28/47/26 25/41/21 26/7/22
f 13/49/27 15/46/24 16/15/24 14/36/27
f 15/50/28 13/22/28 7/21/28 5/38/28 10/51/28 18/52/28
f 16/15/29 3/14/29 29/33/29 14/36/29
f 24/53/30 11/39/30 6/37/30 22/43/30 19/54/30
f 26/7/31 2/6/31 1/12/31 20/11/31 21/44/31 27/48/31
f 28/55/32 8/56/32 12/35/32 30/34/32 25/57/32
f 22/43/33 6/37/33 8/56/33 28/47/33
