# Blender v2.82 (sub 7) OBJ File: 'DL_CSlope4LWide.blend'
# www.blender.org
mtllib DLCornerLargeWideSlopeLCollider.mtl
o CornerSlope.001
v -0.000000 0.366025 1.232050
v 0.366025 -0.000001 2.500000
v 1.000000 -0.000000 1.232050
v -0.451527 0.488714 -0.428464
v -0.500000 0.446453 -0.450000
v -0.451171 0.366025 1.473833
v -0.500000 -0.045374 2.939438
v -0.451290 -0.000001 2.937996
v -0.451357 -0.460050 3.431113
v -0.500000 -0.450001 3.373117
v -0.450000 -0.500001 3.416478
v -0.450000 -0.500000 -0.429289
v -0.500000 -0.450000 -0.450000
v -0.429753 0.487255 -0.450238
v -0.450000 0.443092 -0.500000
v 0.484472 0.317887 -0.500000
v 0.493320 0.366025 -0.450142
v -0.429289 -0.500000 -0.450000
v -0.450000 -0.450000 -0.500000
v 1.442855 -0.500000 -0.450000
v 1.416478 -0.450000 -0.500000
v 1.471587 -0.459441 -0.450162
v 1.195482 -0.037618 -0.500000
v 1.225372 -0.000000 -0.450154
v 0.462382 -0.500000 2.927532
v 0.489257 -0.459906 2.926884
v 1.183600 -0.500000 1.485097
v 1.213293 -0.459585 1.478341
vt 0.188689 0.731724
vt 0.229349 0.872575
vt 0.299775 0.731724
vt 0.324810 0.544855
vt 0.243490 0.544857
vt 0.146336 0.544854
vt 0.197374 0.544855
vt 0.197374 0.731724
vt 0.146320 0.759084
vt 0.138557 0.921231
vt 0.138550 0.976009
vt 0.243038 0.919996
vt 0.324810 0.656360
vt 0.321490 0.652181
vt 0.242507 0.691673
vt 0.243490 0.697020
vt 0.133146 0.969566
vt 0.133146 0.921391
vt 0.346040 0.606371
vt 0.352161 0.605322
vt 0.146269 0.976009
vt 0.147385 0.969566
vt 0.141831 0.974383
vt 0.348970 0.600817
vt 0.140949 0.544846
vt 0.138531 0.547265
vt 0.138570 0.758583
vt 0.141831 0.759834
vt 0.141831 0.544872
vt 0.000000 0.000000
vt 0.138700 0.705581
vt 0.138700 0.539318
vt 0.133146 0.544872
vt 0.146285 0.919996
vt 0.141831 0.920068
vt 0.240053 0.600817
vt 0.243038 0.605271
vt 0.138550 0.605255
vt 0.138700 0.600817
vt 0.138700 0.539318
vt 0.141001 0.544872
vt 0.138700 0.547173
vt 0.133146 0.544872
vt 0.242507 0.539318
vt 0.197374 0.872575
vt 0.133146 0.705955
vt 0.320170 0.759834
vt 0.240053 0.920068
vt 0.138700 0.974383
vt 0.348970 0.544872
vt 0.192333 0.921391
vt 0.141001 0.600817
vt 0.138700 0.606371
vn 0.3735 0.9212 0.1091
vn 0.8753 0.4691 0.1173
vn 0.3434 0.6867 0.6407
vn 0.4970 0.5228 -0.6926
vn 0.5120 0.5095 -0.6915
vn 0.2173 0.6868 -0.6936
vn 0.2053 0.6902 -0.6938
vn -0.5518 0.6098 0.5689
vn 0.6600 0.3537 -0.6628
vn -0.7633 -0.2449 0.5978
vn 0.5727 -0.4086 -0.7107
vn 0.0966 0.9942 0.0474
vn 0.8029 -0.5536 0.2210
vn 0.7954 -0.5402 0.2750
vn 0.8105 -0.5756 0.1086
vn 0.1289 0.9621 0.2405
vn 0.0000 0.0000 -1.0000
vn -0.4391 0.7532 -0.4897
vn 0.7713 -0.5065 0.3855
vn 0.4519 -0.2914 0.8431
vn -0.5000 -0.7071 -0.5000
vn 0.0951 0.7162 -0.6914
vn -0.9271 0.3709 0.0539
vn 0.7483 0.5478 0.3741
vn -0.7071 0.0000 -0.7071
vn -0.0000 -1.0000 -0.0000
vn -0.7071 -0.7071 -0.0000
vn -1.0000 0.0000 0.0000
vn 0.0000 -0.7071 -0.7071
usemtl Color_M03.001
s 1
f 1/1/1 2/2/1 3/3/1 24/4/1 17/5/1
f 22/6/2 24/7/2 3/8/2 28/9/2
f 8/10/3 9/11/3 26/12/3 2/2/3
f 24/13/4 23/14/5 16/15/6 17/16/7
f 10/17/8 9/11/8 8/10/8 7/18/8
f 21/19/9 23/14/5 24/13/4 22/20/9
f 9/21/10 10/22/10 11/23/10
f 20/24/11 21/19/11 22/20/11
f 1/1/12 17/5/12 14/25/12 4/26/12 6/27/12
f 28/9/13 27/28/14 20/29/15 22/6/15
f 6/27/16 8/10/16 2/2/16 1/1/16
f 16/15/17 23/14/17 21/19/17 19/30/17 15/31/17
f 14/25/18 15/32/18 5/33/18 4/26/18
f 27/28/14 28/9/13 26/34/19 25/35/19
f 25/36/20 26/37/20 9/38/20 11/39/20
f 19/40/21 18/41/21 12/42/21 13/43/21
f 14/25/22 17/5/7 16/44/6 15/32/22
f 5/33/23 7/18/23 8/10/23 6/27/23 4/26/23
f 28/9/24 3/8/24 2/45/24 26/34/24
f 13/43/25 5/46/25 15/31/25 19/30/25
f 27/47/26 25/48/26 11/49/26 12/42/26 18/41/26 20/50/26
f 10/17/27 13/43/27 12/42/27 11/49/27
f 5/46/28 13/43/28 10/22/28 7/51/28
f 21/19/29 20/24/29 18/52/29 19/53/29
