# Blender v2.80 (sub 75) OBJ File: ''
# www.blender.org
mtllib YK_Wheel_Huge_Tire_Collider.mtl
o Cylinder
v -0.830207 0.000000 -1.878911
v -0.452356 -0.000000 -2.170626
v 0.830207 0.000000 -1.878911
v 0.452356 0.000000 -2.170626
v -0.830207 -0.366558 -1.842808
v -0.452356 -0.423468 -2.128918
v 0.830207 -0.366558 -1.842809
v 0.452356 -0.423468 -2.128918
v -0.830207 -0.719028 -1.735888
v -0.452356 -0.830663 -2.005397
v 0.830207 -0.719028 -1.735888
v 0.452356 -0.830663 -2.005397
v -0.830207 -1.043867 -1.562257
v -0.452356 -1.205935 -1.804810
v 0.830207 -1.043867 -1.562258
v 0.452356 -1.205935 -1.804810
v -0.830207 -1.328591 -1.328591
v -0.452356 -1.534865 -1.534864
v 0.830207 -1.328591 -1.328591
v 0.452356 -1.534864 -1.534865
v -0.830207 -1.562258 -1.043867
v -0.452356 -1.804810 -1.205935
v 0.830207 -1.562258 -1.043867
v 0.452356 -1.804810 -1.205935
v -0.830207 -1.735888 -0.719028
v -0.452356 -2.005397 -0.830663
v 0.830207 -1.735888 -0.719028
v 0.452356 -2.005397 -0.830663
v -0.830207 -1.842809 -0.366558
v -0.452356 -2.128918 -0.423468
v 0.830207 -1.842808 -0.366558
v 0.452356 -2.128918 -0.423468
v -0.830207 -1.878911 0.000000
v -0.452356 -2.170626 -0.000000
v 0.830207 -1.878911 -0.000000
v 0.452356 -2.170626 -0.000000
v -0.830207 -1.842809 0.366558
v -0.452356 -2.128919 0.423468
v 0.830207 -1.842809 0.366557
v 0.452356 -2.128919 0.423468
v -0.830207 -1.735888 0.719028
v -0.452356 -2.005397 0.830663
v 0.830207 -1.735888 0.719028
v 0.452356 -2.005397 0.830662
v -0.830207 -1.562258 1.043867
v -0.452356 -1.804810 1.205935
v 0.830207 -1.562258 1.043867
v 0.452356 -1.804810 1.205935
v -0.830207 -1.328591 1.328591
v -0.452356 -1.534865 1.534865
v 0.830207 -1.328591 1.328591
v 0.452356 -1.534864 1.534865
v -0.830207 -1.043867 1.562258
v -0.452356 -1.205935 1.804810
v 0.830207 -1.043867 1.562258
v 0.452356 -1.205935 1.804810
v -0.830207 -0.719029 1.735888
v -0.452356 -0.830663 2.005398
v 0.830207 -0.719028 1.735888
v 0.452356 -0.830662 2.005398
v -0.830207 -0.366558 1.842809
v -0.452356 -0.423468 2.128919
v 0.830207 -0.366557 1.842809
v 0.452356 -0.423468 2.128919
v -0.830207 0.000001 1.878911
v -0.452356 0.000001 2.170627
v 0.830207 0.000001 1.878911
v 0.452356 0.000001 2.170627
v -0.830207 0.366558 1.842809
v -0.452356 0.423469 2.128918
v 0.830207 0.366559 1.842808
v 0.452356 0.423469 2.128918
v -0.830207 0.719029 1.735888
v -0.452356 0.830664 2.005397
v 0.830207 0.719029 1.735887
v 0.452356 0.830664 2.005397
v -0.830207 1.043868 1.562257
v -0.452356 1.205936 1.804809
v 0.830207 1.043868 1.562257
v 0.452356 1.205937 1.804809
v -0.830207 1.328592 1.328590
v -0.452356 1.534866 1.534864
v 0.830207 1.328592 1.328590
v 0.452356 1.534866 1.534864
v -0.830207 1.562258 1.043866
v -0.452356 1.804811 1.205934
v 0.830207 1.562259 1.043866
v 0.452356 1.804811 1.205934
v -0.830207 1.735888 0.719027
v -0.452356 2.005398 0.830661
v 0.830207 1.735888 0.719027
v 0.452356 2.005398 0.830661
v -0.830207 1.842809 0.366556
v -0.452356 2.128919 0.423466
v 0.830207 1.842809 0.366556
v 0.452356 2.128919 0.423466
v -0.830207 1.878911 -0.000002
v -0.452356 2.170626 -0.000002
v 0.830207 1.878911 -0.000002
v 0.452356 2.170626 -0.000002
v -0.830207 1.842808 -0.366559
v -0.452356 2.128918 -0.423470
v 0.830207 1.842809 -0.366559
v 0.452356 2.128918 -0.423471
v -0.830207 1.735887 -0.719030
v -0.452356 2.005396 -0.830665
v 0.830207 1.735887 -0.719031
v 0.452356 2.005396 -0.830665
v -0.830207 1.562256 -1.043869
v -0.452356 1.804808 -1.205938
v 0.830207 1.562257 -1.043869
v 0.452356 1.804809 -1.205938
v -0.830207 1.328589 -1.328593
v -0.452356 1.534863 -1.534866
v 0.830207 1.328589 -1.328593
v 0.452356 1.534863 -1.534867
v -0.830207 1.043865 -1.562259
v -0.452356 1.205933 -1.804811
v 0.830207 1.043865 -1.562259
v 0.452356 1.205933 -1.804812
v -0.830207 0.719025 -1.735889
v -0.452356 0.830660 -2.005399
v 0.830207 0.719026 -1.735889
v 0.452356 0.830660 -2.005399
v -0.830207 0.366554 -1.842809
v -0.452356 0.423465 -2.128919
v 0.830207 0.366554 -1.842809
v 0.452356 0.423465 -2.128919
vt 0.031250 0.533436
vt 0.031250 0.966564
vt 0.000000 0.966564
vt 0.000000 0.533436
vt 0.937500 0.533436
vt 0.937500 0.966564
vt 0.906250 0.966564
vt 0.906250 0.533436
vt 0.875000 0.966564
vt 0.875000 0.533436
vt 0.843750 0.966564
vt 0.843750 0.533436
vt 0.812500 0.966564
vt 0.812500 0.533436
vt 0.781250 0.966564
vt 0.781250 0.533436
vt 0.750000 0.966564
vt 0.750000 0.533436
vt 0.718750 0.966564
vt 0.718750 0.533436
vt 0.687500 0.966564
vt 0.687500 0.533436
vt 0.656250 0.966564
vt 0.656250 0.533436
vt 0.625000 0.966564
vt 0.625000 0.533436
vt 0.593750 0.966564
vt 0.593750 0.533436
vt 0.562500 0.966564
vt 0.562500 0.533436
vt 0.531250 0.966564
vt 0.531250 0.533436
vt 0.500000 0.966564
vt 0.500000 0.533436
vt 0.468750 0.966564
vt 0.468750 0.533436
vt 0.437500 0.966564
vt 0.437500 0.533436
vt 0.406250 0.966564
vt 0.406250 0.533436
vt 0.375000 0.966564
vt 0.375000 0.533436
vt 0.343750 0.966564
vt 0.343750 0.533436
vt 0.312500 0.966564
vt 0.312500 0.533436
vt 0.281250 0.966564
vt 0.281250 0.533436
vt 0.250000 0.966564
vt 0.250000 0.533436
vt 0.218750 0.966564
vt 0.218750 0.533436
vt 0.187500 0.966564
vt 0.187500 0.533436
vt 0.156250 0.966564
vt 0.156250 0.533436
vt 0.125000 0.966564
vt 0.125000 0.533436
vt 0.093750 0.966564
vt 0.093750 0.533436
vt 0.062500 0.966564
vt 0.062500 0.533436
vt 0.968750 0.533436
vt 0.968750 0.966564
vt 0.290529 0.453754
vt 0.250000 0.457746
vt 0.209471 0.453754
vt 0.170499 0.441932
vt 0.134583 0.422735
vt 0.103102 0.396899
vt 0.077266 0.365418
vt 0.058068 0.329501
vt 0.046246 0.290529
vt 0.042254 0.250000
vt 0.046246 0.209471
vt 0.058068 0.170499
vt 0.077266 0.134583
vt 0.103101 0.103102
vt 0.134582 0.077266
vt 0.170499 0.058068
vt 0.209471 0.046246
vt 0.250000 0.042254
vt 0.290529 0.046246
vt 0.329501 0.058068
vt 0.365417 0.077266
vt 0.396899 0.103101
vt 0.422734 0.134583
vt 0.441932 0.170499
vt 0.453754 0.209471
vt 0.457746 0.250000
vt 0.453754 0.290529
vt 0.441932 0.329501
vt 0.422734 0.365417
vt 0.396898 0.396899
vt 0.365417 0.422734
vt 0.329501 0.441932
vt 1.000000 0.533436
vt 1.000000 0.966564
vt 0.970850 0.500000
vt 0.997900 0.500000
vt 0.997900 1.000000
vt 0.970850 1.000000
vt 0.939600 0.500000
vt 0.966650 0.500000
vt 0.966650 1.000000
vt 0.939600 1.000000
vt 0.908350 0.500000
vt 0.935400 0.500000
vt 0.935400 1.000000
vt 0.908350 1.000000
vt 0.877100 0.500000
vt 0.904150 0.500000
vt 0.904150 1.000000
vt 0.877100 1.000000
vt 0.845850 0.500000
vt 0.872900 0.500000
vt 0.872900 1.000000
vt 0.845850 1.000000
vt 0.814600 0.500000
vt 0.841650 0.500000
vt 0.841650 1.000000
vt 0.814600 1.000000
vt 0.783350 0.500000
vt 0.810400 0.500000
vt 0.810400 1.000000
vt 0.783350 1.000000
vt 0.752100 0.500000
vt 0.779150 0.500000
vt 0.779150 1.000000
vt 0.752100 1.000000
vt 0.720850 0.500000
vt 0.747900 0.500000
vt 0.747900 1.000000
vt 0.720850 1.000000
vt 0.689600 0.500000
vt 0.716650 0.500000
vt 0.716650 1.000000
vt 0.689600 1.000000
vt 0.658350 0.500000
vt 0.685400 0.500000
vt 0.685400 1.000000
vt 0.658350 1.000000
vt 0.627100 0.500000
vt 0.654150 0.500000
vt 0.654150 1.000000
vt 0.627100 1.000000
vt 0.595850 0.500000
vt 0.622900 0.500000
vt 0.622900 1.000000
vt 0.595850 1.000000
vt 0.564600 0.500000
vt 0.591650 0.500000
vt 0.591650 1.000000
vt 0.564600 1.000000
vt 0.533350 0.500000
vt 0.560400 0.500000
vt 0.560400 1.000000
vt 0.533350 1.000000
vt 0.502100 0.500000
vt 0.529150 0.500000
vt 0.529150 1.000000
vt 0.502100 1.000000
vt 0.470850 0.500000
vt 0.497900 0.500000
vt 0.497900 1.000000
vt 0.470850 1.000000
vt 0.439600 0.500000
vt 0.466650 0.500000
vt 0.466650 1.000000
vt 0.439600 1.000000
vt 0.408350 0.500000
vt 0.435400 0.500000
vt 0.435400 1.000000
vt 0.408350 1.000000
vt 0.377100 0.500000
vt 0.404150 0.500000
vt 0.404150 1.000000
vt 0.377100 1.000000
vt 0.345850 0.500000
vt 0.372900 0.500000
vt 0.372900 1.000000
vt 0.345850 1.000000
vt 0.314600 0.500000
vt 0.341650 0.500000
vt 0.341650 1.000000
vt 0.314600 1.000000
vt 0.283350 0.500000
vt 0.310400 0.500000
vt 0.310400 1.000000
vt 0.283350 1.000000
vt 0.252100 0.500000
vt 0.279150 0.500000
vt 0.279150 1.000000
vt 0.252100 1.000000
vt 0.220850 0.500000
vt 0.247900 0.500000
vt 0.247900 1.000000
vt 0.220850 1.000000
vt 0.189600 0.500000
vt 0.216650 0.500000
vt 0.216650 1.000000
vt 0.189600 1.000000
vt 0.158350 0.500000
vt 0.185400 0.500000
vt 0.185400 1.000000
vt 0.158350 1.000000
vt 0.127100 0.500000
vt 0.154150 0.500000
vt 0.154150 1.000000
vt 0.127100 1.000000
vt 0.095850 0.500000
vt 0.122900 0.500000
vt 0.122900 1.000000
vt 0.095850 1.000000
vt 0.064600 0.500000
vt 0.091650 0.500000
vt 0.091650 1.000000
vt 0.064600 1.000000
vt 0.033350 0.500000
vt 0.060400 0.500000
vt 0.060400 1.000000
vt 0.033350 1.000000
vt 0.002100 0.500000
vt 0.029150 0.500000
vt 0.029150 1.000000
vt 0.002100 1.000000
vt 0.750000 0.457746
vt 0.790529 0.453754
vt 0.829501 0.441932
vt 0.865418 0.422734
vt 0.896898 0.396899
vt 0.922734 0.365417
vt 0.941932 0.329501
vt 0.953754 0.290529
vt 0.957746 0.250000
vt 0.953754 0.209471
vt 0.941932 0.170499
vt 0.922734 0.134583
vt 0.896899 0.103101
vt 0.865418 0.077266
vt 0.829501 0.058068
vt 0.790529 0.046246
vt 0.750000 0.042254
vt 0.709471 0.046246
vt 0.670499 0.058068
vt 0.634582 0.077266
vt 0.603101 0.103102
vt 0.577266 0.134583
vt 0.558068 0.170499
vt 0.546246 0.209471
vt 0.542254 0.250000
vt 0.546246 0.290529
vt 0.558068 0.329501
vt 0.577266 0.365418
vt 0.603102 0.396899
vt 0.634583 0.422734
vt 0.670499 0.441932
vt 0.709471 0.453754
vn -0.0000 0.0980 -0.9952
vn -0.0000 -0.4714 -0.8819
vn -0.0000 -0.6344 -0.7730
vn 0.0000 -0.7730 -0.6344
vn -0.0000 -0.8819 -0.4714
vn -0.0000 -0.9569 -0.2903
vn -0.0000 -0.9952 -0.0980
vn 0.0000 -0.9952 0.0980
vn 0.0000 -0.9569 0.2903
vn 0.0000 -0.8819 0.4714
vn 0.0000 -0.7730 0.6344
vn 0.0000 -0.6344 0.7730
vn 0.0000 -0.4714 0.8819
vn 0.0000 -0.2903 0.9569
vn -0.0000 -0.0980 0.9952
vn 0.0000 0.0980 0.9952
vn -0.0000 0.2903 0.9569
vn 0.0000 0.4714 0.8819
vn 0.0000 0.6344 0.7730
vn -0.0000 0.7730 0.6344
vn 0.0000 0.8819 0.4714
vn 0.0000 0.9569 0.2903
vn 0.0000 0.9952 0.0980
vn -0.0000 0.9952 -0.0980
vn -0.0000 0.9569 -0.2903
vn -0.0000 0.8819 -0.4714
vn -0.0000 0.7730 -0.6344
vn -0.0000 0.6344 -0.7730
vn -0.0000 0.4714 -0.8819
vn -0.0000 0.2903 -0.9569
vn 0.0000 -0.2903 -0.9569
vn 1.0000 0.0000 -0.0000
vn 0.0000 -0.0980 -0.9952
vn -0.6093 -0.0777 -0.7892
vn 0.6093 -0.0777 -0.7892
vn -0.6093 -0.2302 -0.7588
vn 0.6093 -0.2302 -0.7588
vn -0.6093 -0.3738 -0.6993
vn 0.6093 -0.3738 -0.6993
vn -0.6093 -0.5031 -0.6130
vn 0.6093 -0.5031 -0.6130
vn -0.6093 -0.6130 -0.5031
vn 0.6093 -0.6130 -0.5031
vn -0.6093 -0.6993 -0.3738
vn 0.6093 -0.6993 -0.3738
vn -0.6093 -0.7588 -0.2302
vn 0.6093 -0.7588 -0.2302
vn -0.6093 -0.7892 -0.0777
vn 0.6093 -0.7892 -0.0777
vn -0.6093 -0.7892 0.0777
vn 0.6093 -0.7892 0.0777
vn -0.6093 -0.7588 0.2302
vn 0.6093 -0.7588 0.2302
vn -0.6093 -0.6993 0.3738
vn 0.6093 -0.6993 0.3738
vn -0.6093 -0.6130 0.5031
vn 0.6093 -0.6130 0.5031
vn -0.6093 -0.5031 0.6130
vn 0.6093 -0.5031 0.6130
vn -0.6093 -0.3738 0.6993
vn 0.6093 -0.3738 0.6993
vn -0.6093 -0.2302 0.7588
vn 0.6093 -0.2302 0.7588
vn -0.6093 -0.0777 0.7892
vn 0.6093 -0.0777 0.7892
vn -0.6093 0.0777 0.7892
vn 0.6093 0.0777 0.7892
vn -0.6093 0.2302 0.7588
vn 0.6093 0.2302 0.7588
vn -0.6093 0.3738 0.6993
vn 0.6093 0.3738 0.6993
vn -0.6093 0.5031 0.6130
vn 0.6093 0.5031 0.6130
vn -0.6093 0.6130 0.5031
vn 0.6093 0.6130 0.5031
vn -0.6093 0.6993 0.3738
vn 0.6093 0.6993 0.3738
vn -0.6093 0.7588 0.2302
vn 0.6093 0.7588 0.2302
vn -0.6093 0.7892 0.0777
vn 0.6093 0.7892 0.0777
vn -0.6093 0.7892 -0.0777
vn 0.6093 0.7892 -0.0777
vn -0.6093 0.7588 -0.2302
vn 0.6093 0.7588 -0.2302
vn -0.6093 0.6993 -0.3738
vn 0.6093 0.6993 -0.3738
vn -0.6093 0.6130 -0.5031
vn 0.6093 0.6130 -0.5031
vn -0.6093 0.5031 -0.6130
vn 0.6093 0.5031 -0.6130
vn -0.6093 0.3738 -0.6993
vn 0.6093 0.3738 -0.6993
vn -0.6093 0.2302 -0.7588
vn 0.6093 0.2302 -0.7588
vn -0.6093 0.0777 -0.7892
vn 0.6093 0.0777 -0.7892
vn -1.0000 -0.0000 0.0000
usemtl None
s off
f 126/1/1 128/2/1 4/3/1 2/4/1
f 10/5/2 12/6/2 16/7/2 14/8/2
f 14/8/3 16/7/3 20/9/3 18/10/3
f 18/10/4 20/9/4 24/11/4 22/12/4
f 22/12/5 24/11/5 28/13/5 26/14/5
f 26/14/6 28/13/6 32/15/6 30/16/6
f 30/16/7 32/15/7 36/17/7 34/18/7
f 34/18/8 36/17/8 40/19/8 38/20/8
f 38/20/9 40/19/9 44/21/9 42/22/9
f 42/22/10 44/21/10 48/23/10 46/24/10
f 46/24/11 48/23/11 52/25/11 50/26/11
f 50/26/12 52/25/12 56/27/12 54/28/12
f 54/28/13 56/27/13 60/29/13 58/30/13
f 58/30/14 60/29/14 64/31/14 62/32/14
f 62/32/15 64/31/15 68/33/15 66/34/15
f 66/34/16 68/33/16 72/35/16 70/36/16
f 70/36/17 72/35/17 76/37/17 74/38/17
f 74/38/18 76/37/18 80/39/18 78/40/18
f 78/40/19 80/39/19 84/41/19 82/42/19
f 82/42/20 84/41/20 88/43/20 86/44/20
f 86/44/21 88/43/21 92/45/21 90/46/21
f 90/46/22 92/45/22 96/47/22 94/48/22
f 94/48/23 96/47/23 100/49/23 98/50/23
f 98/50/24 100/49/24 104/51/24 102/52/24
f 102/52/25 104/51/25 108/53/25 106/54/25
f 106/54/26 108/53/26 112/55/26 110/56/26
f 110/56/27 112/55/27 116/57/27 114/58/27
f 114/58/28 116/57/28 120/59/28 118/60/28
f 118/60/29 120/59/29 124/61/29 122/62/29
f 122/62/30 124/61/30 128/2/30 126/1/30
f 6/63/31 8/64/31 12/6/31 10/5/31
f 7/65/32 3/66/32 127/67/32 123/68/32 119/69/32 115/70/32 111/71/32 107/72/32 103/73/32 99/74/32 95/75/32 91/76/32 87/77/32 83/78/32 79/79/32 75/80/32 71/81/32 67/82/32 63/83/32 59/84/32 55/85/32 51/86/32 47/87/32 43/88/32 39/89/32 35/90/32 31/91/32 27/92/32 23/93/32 19/94/32 15/95/32 11/96/32
f 2/97/33 4/98/33 8/64/33 6/63/33
f 2/97/34 6/63/34 5/99/34 1/100/34
f 8/64/35 4/98/35 3/101/35 7/102/35
f 6/63/36 10/5/36 9/103/36 5/104/36
f 12/6/37 8/64/37 7/105/37 11/106/37
f 10/5/38 14/8/38 13/107/38 9/108/38
f 16/7/39 12/6/39 11/109/39 15/110/39
f 14/8/40 18/10/40 17/111/40 13/112/40
f 20/9/41 16/7/41 15/113/41 19/114/41
f 18/10/42 22/12/42 21/115/42 17/116/42
f 24/11/43 20/9/43 19/117/43 23/118/43
f 22/12/44 26/14/44 25/119/44 21/120/44
f 28/13/45 24/11/45 23/121/45 27/122/45
f 26/14/46 30/16/46 29/123/46 25/124/46
f 32/15/47 28/13/47 27/125/47 31/126/47
f 30/16/48 34/18/48 33/127/48 29/128/48
f 36/17/49 32/15/49 31/129/49 35/130/49
f 34/18/50 38/20/50 37/131/50 33/132/50
f 40/19/51 36/17/51 35/133/51 39/134/51
f 38/20/52 42/22/52 41/135/52 37/136/52
f 44/21/53 40/19/53 39/137/53 43/138/53
f 42/22/54 46/24/54 45/139/54 41/140/54
f 48/23/55 44/21/55 43/141/55 47/142/55
f 46/24/56 50/26/56 49/143/56 45/144/56
f 52/25/57 48/23/57 47/145/57 51/146/57
f 50/26/58 54/28/58 53/147/58 49/148/58
f 56/27/59 52/25/59 51/149/59 55/150/59
f 54/28/60 58/30/60 57/151/60 53/152/60
f 60/29/61 56/27/61 55/153/61 59/154/61
f 58/30/62 62/32/62 61/155/62 57/156/62
f 64/31/63 60/29/63 59/157/63 63/158/63
f 62/32/64 66/34/64 65/159/64 61/160/64
f 68/33/65 64/31/65 63/161/65 67/162/65
f 66/34/66 70/36/66 69/163/66 65/164/66
f 72/35/67 68/33/67 67/165/67 71/166/67
f 70/36/68 74/38/68 73/167/68 69/168/68
f 76/37/69 72/35/69 71/169/69 75/170/69
f 74/38/70 78/40/70 77/171/70 73/172/70
f 80/39/71 76/37/71 75/173/71 79/174/71
f 78/40/72 82/42/72 81/175/72 77/176/72
f 84/41/73 80/39/73 79/177/73 83/178/73
f 82/42/74 86/44/74 85/179/74 81/180/74
f 88/43/75 84/41/75 83/181/75 87/182/75
f 86/44/76 90/46/76 89/183/76 85/184/76
f 92/45/77 88/43/77 87/185/77 91/186/77
f 90/46/78 94/48/78 93/187/78 89/188/78
f 96/47/79 92/45/79 91/189/79 95/190/79
f 94/48/80 98/50/80 97/191/80 93/192/80
f 100/49/81 96/47/81 95/193/81 99/194/81
f 98/50/82 102/52/82 101/195/82 97/196/82
f 104/51/83 100/49/83 99/197/83 103/198/83
f 102/52/84 106/54/84 105/199/84 101/200/84
f 108/53/85 104/51/85 103/201/85 107/202/85
f 106/54/86 110/56/86 109/203/86 105/204/86
f 112/55/87 108/53/87 107/205/87 111/206/87
f 110/56/88 114/58/88 113/207/88 109/208/88
f 116/57/89 112/55/89 111/209/89 115/210/89
f 114/58/90 118/60/90 117/211/90 113/212/90
f 120/59/91 116/57/91 115/213/91 119/214/91
f 118/60/92 122/62/92 121/215/92 117/216/92
f 124/61/93 120/59/93 119/217/93 123/218/93
f 122/62/94 126/1/94 125/219/94 121/220/94
f 128/2/95 124/61/95 123/221/95 127/222/95
f 126/1/96 2/4/96 1/223/96 125/224/96
f 4/3/97 128/2/97 127/225/97 3/226/97
f 1/227/98 5/228/98 9/229/98 13/230/98 17/231/98 21/232/98 25/233/98 29/234/98 33/235/98 37/236/98 41/237/98 45/238/98 49/239/98 53/240/98 57/241/98 61/242/98 65/243/98 69/244/98 73/245/98 77/246/98 81/247/98 85/248/98 89/249/98 93/250/98 97/251/98 101/252/98 105/253/98 109/254/98 113/255/98 117/256/98 121/257/98 125/258/98
