# Blender v3.1.2 OBJ File: 'GT_Gauges_NPC_Computer.blend'
# www.blender.org
o Cube.009_Cube.011
v -0.227247 -0.083854 0.431091
v -0.134361 -0.102082 0.438641
v -0.195639 -0.102082 0.438641
v -0.057291 -0.021026 0.405067
v -0.075661 -0.056040 0.419570
v -0.047864 0.020007 0.388071
v -0.102753 -0.083854 0.431091
v -0.285056 0.056940 0.372772
v -0.285054 0.082349 0.362248
v -0.272709 -0.021026 0.405067
v -0.282136 0.020007 0.388071
v -0.254339 -0.056040 0.419571
v -0.044944 0.056941 0.372772
v -0.044946 0.082349 0.362248
v -0.044949 0.111912 0.339563
v -0.071051 0.111912 0.339563
v -0.285051 0.111912 0.339563
v -0.226243 0.113376 0.338440
v -0.258949 0.111912 0.339563
v -0.133964 0.120005 0.333354
v -0.196036 0.120005 0.333354
v -0.165000 0.131286 0.324698
v -0.103757 0.113376 0.338440
v -0.194720 -0.102670 0.438719
v -0.135280 -0.102670 0.438719
v -0.165000 -0.111007 0.439817
vt 0.944029 0.428221
vt 0.944682 0.425145
vt 0.960255 0.428220
vt 0.954292 0.436182
vt 0.949993 0.436182
vt 0.943827 0.432895
vt 0.949678 0.418727
vt 0.949742 0.418686
vt 0.951801 0.418103
vt 0.945954 0.422520
vt 0.958330 0.422519
vt 0.947830 0.420434
vt 0.950019 0.419067
vt 0.954264 0.419067
vt 0.956453 0.420434
vt 0.959602 0.425144
vt 0.960458 0.430989
vt 0.943827 0.430990
vt 0.960458 0.432894
vt 0.960458 0.435475
vt 0.958650 0.435475
vt 0.956385 0.435603
vt 0.943827 0.435476
vt 0.945635 0.435476
vt 0.947901 0.435603
vt 0.952143 0.437167
vt 0.953859 0.418685
vt 0.953923 0.418726
vn 0.0000 0.3827 0.9239
vn -0.0000 0.6088 0.7934
vn -0.0000 0.5000 0.8660
vn -0.0000 0.3386 0.9409
vn -0.0000 0.1306 0.9914
vn -0.0000 0.1305 0.9914
s 1
f 11/1/1 10/2/1 6/3/1
f 20/4/2 21/5/2 9/6/3
f 3/7/4 24/8/5 26/9/6
f 10/2/1 12/10/1 5/11/1
f 12/10/1 1/12/1 5/11/1
f 1/12/1 3/13/4 2/14/4
f 2/14/4 7/15/1 1/12/1
f 7/15/1 5/11/1 1/12/1
f 5/11/1 4/16/1 10/2/1
f 4/16/1 6/3/1 10/2/1
f 6/3/1 13/17/1 8/18/1
f 13/17/1 14/19/3 8/18/1
f 14/19/3 9/6/3 8/18/1
f 8/18/1 11/1/1 6/3/1
f 14/19/3 15/20/2 16/21/2
f 14/19/3 16/21/2 23/22/2
f 17/23/2 9/6/3 19/24/2
f 9/6/3 14/19/3 20/4/2
f 19/24/2 9/6/3 18/25/2
f 18/25/2 9/6/3 21/5/2
f 14/19/3 23/22/2 20/4/2
f 20/4/2 22/26/2 21/5/2
f 26/9/6 25/27/6 2/28/4
f 2/28/4 3/7/4 26/9/6
