# Blender v3.1.2 OBJ File: 'GT_Gauges_NPC_Computer.blend'
# www.blender.org
o Cube.010_Cube.001
v 0.140242 0.378327 0.043530
v 0.156335 0.384703 0.028137
v 0.179101 0.393723 0.006362
v 0.167361 0.362248 0.082349
v 0.232185 0.362248 0.082349
v 0.194207 0.362248 0.082349
v 0.271284 0.362248 0.082349
v 0.268947 0.366901 0.071115
v 0.205843 0.404317 -0.019216
v 0.075898 0.395360 0.002408
v -0.000000 0.401342 -0.012032
v -0.000000 0.410358 -0.033800
v -0.000000 0.423114 -0.064595
v -0.000000 0.438097 -0.100768
v 0.084608 0.403691 -0.017703
v 0.096929 0.415475 -0.046154
v 0.111402 0.429318 -0.079573
v -0.075898 0.395360 0.002408
v -0.084608 0.403691 -0.017703
v -0.096929 0.415475 -0.046154
v -0.111402 0.429318 -0.079573
v -0.000000 0.410358 -0.033800
v -0.000000 0.423114 -0.064595
v -0.000000 0.438097 -0.100768
v -0.000000 0.401342 -0.012032
v -0.271284 0.362248 0.082349
v -0.268947 0.366901 0.071115
v -0.232185 0.362248 0.082349
v -0.194207 0.362248 0.082349
v -0.205843 0.404317 -0.019216
v -0.179101 0.393723 0.006362
v -0.156335 0.384703 0.028137
v -0.140242 0.378327 0.043530
v -0.167361 0.362248 0.082349
v -0.271221 0.240723 0.240723
v -0.268947 0.231334 0.247928
v -0.231975 0.240723 0.240723
v -0.193997 0.240723 0.240723
v -0.167151 0.240723 0.240723
v -0.156335 0.194428 0.276246
v -0.140242 0.207646 0.266104
v -0.179101 0.175730 0.290594
v -0.084608 0.155064 0.306451
v -0.075898 0.172335 0.293200
v -0.096929 0.130633 0.325198
v 0.000000 0.083735 0.361184
v 0.000000 0.114798 0.337349
v 0.000000 0.141242 0.317058
v 0.000000 0.159935 0.302714
v -0.205843 0.153765 0.307448
v -0.111402 0.101936 0.347218
v -0.234007 0.360588 0.084513
v -0.183235 0.347785 0.101197
v -0.204262 0.353087 0.094287
v -0.291106 0.301581 0.161411
v -0.234007 0.242575 0.238310
v -0.253287 0.301581 0.161411
v -0.198332 0.301581 0.161411
v -0.221091 0.301581 0.161411
v -0.183235 0.255377 0.221626
v -0.204262 0.250075 0.228535
v 0.167151 0.240723 0.240723
v 0.193997 0.240723 0.240723
v 0.183235 0.255377 0.221626
v 0.221091 0.301581 0.161411
v 0.198332 0.301581 0.161411
v 0.204262 0.250075 0.228535
v 0.234007 0.242575 0.238310
v 0.231975 0.240723 0.240723
v 0.271221 0.240723 0.240723
v 0.291106 0.301581 0.161411
v 0.253287 0.301581 0.161411
v 0.183235 0.347785 0.101197
v 0.204262 0.353087 0.094288
v 0.234007 0.360588 0.084513
v 0.111402 0.101936 0.347218
v 0.205843 0.153765 0.307448
v 0.000000 0.114798 0.337349
v 0.000000 0.141242 0.317058
v 0.084608 0.155064 0.306451
v 0.075898 0.172335 0.293200
v 0.000000 0.159935 0.302714
v 0.000000 0.083735 0.361184
v 0.096929 0.130633 0.325198
v 0.140242 0.207647 0.266104
v 0.156335 0.194428 0.276246
v 0.268947 0.231334 0.247928
v 0.179101 0.175730 0.290594
vt 0.108593 0.156254
vt 0.108733 0.156362
vt 0.108583 0.156302
vt 0.109034 0.156813
vt 0.109034 0.156610
vt 0.109112 0.156831
vt 0.108395 0.157305
vt 0.108410 0.157226
vt 0.108617 0.157228
vt 0.108956 0.156615
vt 0.108909 0.156626
vt 0.108847 0.156475
vt 0.107997 0.156592
vt 0.107999 0.156795
vt 0.107919 0.156575
vt 0.108594 0.157165
vt 0.108422 0.157120
vt 0.108585 0.157117
vt 0.107931 0.156840
vt 0.107999 0.156803
vt 0.108074 0.156994
vt 0.108849 0.156938
vt 0.108910 0.156789
vt 0.108956 0.156798
vt 0.108158 0.156481
vt 0.108099 0.156631
vt 0.108052 0.156623
vt 0.109102 0.156565
vt 0.109034 0.156603
vt 0.108956 0.156412
vt 0.108634 0.156103
vt 0.108619 0.156182
vt 0.108411 0.156177
vt 0.108159 0.156946
vt 0.108273 0.157060
vt 0.108119 0.156973
vt 0.108420 0.156303
vt 0.108324 0.156342
vt 0.108412 0.156255
vt 0.108278 0.156311
vt 0.108760 0.156321
vt 0.109021 0.157052
vt 0.108853 0.157219
vt 0.108808 0.157150
vt 0.108954 0.157006
vt 0.109112 0.156589
vt 0.108808 0.157151
vt 0.108853 0.157218
vt 0.108634 0.157308
vt 0.108173 0.157208
vt 0.108223 0.157145
vt 0.108155 0.157190
vt 0.108733 0.156362
vt 0.108760 0.156321
vt 0.108887 0.156447
vt 0.108956 0.156761
vt 0.108909 0.156730
vt 0.107921 0.156817
vt 0.108008 0.156353
vt 0.108075 0.156399
vt 0.108175 0.156186
vt 0.108220 0.156254
vt 0.108680 0.157076
vt 0.108726 0.157107
vt 0.108412 0.157168
vt 0.108246 0.157101
vt 0.108273 0.157060
vt 0.108217 0.157143
vt 0.108008 0.157037
vt 0.108888 0.156965
vt 0.108762 0.157092
vt 0.108735 0.157053
vt 0.108118 0.156456
vt 0.108243 0.156326
vt 0.108270 0.156365
vt 0.108053 0.156661
vt 0.108100 0.156691
vt 0.108812 0.156266
vt 0.108805 0.156263
vt 0.108873 0.156218
vt 0.109022 0.156369
vt 0.108220 0.156254
vt 0.108175 0.156186
vt 0.108395 0.156098
vt 0.108855 0.156200
vt 0.108052 0.156805
vt 0.108099 0.156795
vt 0.108246 0.157101
vn 0.0000 0.9239 0.3827
vn -0.0361 0.9233 0.3824
vn 0.0000 0.8894 0.4571
vn -0.0000 0.6088 0.7934
vn 0.0000 0.6717 0.7408
vn -0.0000 0.7184 0.6956
vn 0.0000 0.7934 0.6088
vn 0.0000 0.8578 0.5139
vn 0.0000 0.8408 0.5413
vn -0.0067 0.9423 0.3346
vn -0.0781 0.9211 0.3815
vn -0.0712 0.9215 0.3817
vn -0.0809 0.9209 0.3814
vn -0.0709 0.9216 0.3817
vn -0.0405 0.9231 0.3824
vn -0.0499 0.9988 0.0000
vn 0.0000 0.7405 0.6721
s 1
f 15/1/1 11/2/2 10/3/1
f 3/4/1 5/5/3 9/6/1
f 30/7/1 31/8/1 20/9/1
f 32/10/1 33/11/1 18/12/1
f 42/13/4 37/14/5 50/15/4
f 40/16/4 44/17/4 41/18/4
f 35/19/6 56/20/7 57/21/7
f 58/22/7 53/23/7 54/24/7
f 66/25/7 64/26/7 67/27/7
f 7/28/8 75/29/7 72/30/7
f 77/31/4 88/32/4 84/33/4
f 81/34/4 82/35/4 80/36/4
f 1/37/1 4/38/3 2/39/1
f 4/38/3 6/40/9 2/39/1
f 2/39/1 15/1/1 10/3/1
f 1/37/1 2/39/1 10/3/1
f 15/1/1 12/41/10 11/2/2
f 17/42/1 14/43/11 13/44/12
f 17/42/1 13/44/12 16/45/1
f 8/46/1 9/6/1 5/5/3
f 9/6/1 17/42/1 16/45/1
f 3/4/1 9/6/1 16/45/1
f 5/5/3 7/28/8 8/46/1
f 23/47/13 13/44/12 14/43/11
f 14/43/11 24/48/14 23/47/13
f 24/48/14 21/49/1 23/47/13
f 21/49/1 30/7/1 20/9/1
f 30/7/1 27/50/1 28/51/3
f 31/8/1 30/7/1 28/51/3
f 27/50/1 26/52/8 28/51/3
f 20/9/1 23/47/13 21/49/1
f 25/53/15 11/2/2 12/41/10
f 12/41/10 22/54/16 19/55/1
f 19/55/1 32/10/1 18/12/1
f 32/10/1 29/56/9 34/57/3
f 33/11/1 32/10/1 34/57/3
f 18/12/1 25/53/15 19/55/1
f 25/53/15 12/41/10 19/55/1
f 37/14/5 35/19/6 36/58/4
f 36/58/4 50/15/4 37/14/5
f 50/15/4 51/59/4 45/60/4
f 42/13/4 50/15/4 45/60/4
f 51/59/4 46/61/4 47/62/4
f 51/59/4 47/62/4 45/60/4
f 39/63/5 38/64/17 40/16/4
f 40/16/4 43/65/4 44/17/4
f 43/65/4 48/66/4 49/67/4
f 44/17/4 43/65/4 49/67/4
f 41/18/4 39/63/5 40/16/4
f 52/68/7 28/51/3 26/52/8
f 26/52/8 55/69/7 57/21/7
f 55/69/7 35/19/6 57/21/7
f 35/19/6 37/14/5 56/20/7
f 57/21/7 52/68/7 26/52/8
f 53/23/7 34/57/3 29/56/9
f 29/56/9 54/24/7 53/23/7
f 54/24/7 59/70/7 58/22/7
f 59/70/7 61/71/7 58/22/7
f 61/71/7 38/64/17 60/72/7
f 58/22/7 61/71/7 60/72/7
f 38/64/17 39/63/5 60/72/7
f 67/27/7 65/73/7 66/25/7
f 65/73/7 74/74/7 66/25/7
f 74/74/7 6/40/9 73/75/7
f 6/40/9 4/38/3 73/75/7
f 63/76/17 67/27/7 64/26/7
f 64/26/7 62/77/5 63/76/17
f 74/74/7 73/75/7 66/25/7
f 68/78/7 69/79/5 70/80/6
f 70/80/6 71/81/7 72/30/7
f 71/81/7 7/28/8 72/30/7
f 7/28/8 5/5/3 75/29/7
f 72/30/7 68/78/7 70/80/6
f 78/82/4 47/62/4 46/61/4
f 46/61/4 83/83/4 78/82/4
f 83/83/4 76/84/4 78/82/4
f 76/84/4 77/31/4 84/33/4
f 77/31/4 87/85/4 69/79/5
f 88/32/4 77/31/4 69/79/5
f 87/85/4 70/80/6 69/79/5
f 84/33/4 78/82/4 76/84/4
f 63/76/17 62/77/5 86/86/4
f 62/77/5 85/87/4 86/86/4
f 79/88/4 80/36/4 82/35/4
f 80/36/4 86/86/4 81/34/4
f 49/67/4 48/66/4 82/35/4
f 48/66/4 79/88/4 82/35/4
f 86/86/4 85/87/4 81/34/4
