# Blender v2.83.3 OBJ File: 'GT_Prismatic_Lense_Laser.blend'
# www.blender.org
mtllib GT_Prismatic_Lense_Laser_Base_Collider.mtl
v -0.257019 -0.495635 -0.226726
v -0.323782 -0.489981 -0.109638
v 0.241253 -0.497220 -0.239931
v 0.089150 -0.497436 0.328581
v -0.090189 -0.497165 0.328197
v 0.325256 -0.496310 -0.109988
v 0.126366 -0.160910 -0.023514
v 0.065520 -0.178151 0.129305
v -0.022682 -0.176881 -0.141501
v -0.095879 -0.167287 0.092104
v -0.107061 -0.161233 -0.053357
vt 0.515233 0.295660
vt 0.000000 0.000000
vt 0.013974 0.029351
vt 0.540774 0.831136
vt 0.233283 0.113451
vt 0.000000 0.000000
vt 0.000000 0.000000
vt 0.522786 0.804203
vt 0.581738 0.876293
vt 0.450271 0.254714
vt 0.812689 0.478415
vt 0.000000 0.000000
vt 0.562698 0.873707
vt 0.551681 0.848272
vt 0.704479 0.369426
vt 0.835872 0.456399
vt 0.704696 0.401157
vt 0.697364 0.372276
vt 0.000000 0.000000
vt 0.614694 0.311405
vt 0.280346 0.663167
vt 0.314975 0.663506
vt 0.842872 0.478415
vt 0.001258 0.002664
vt 0.280346 0.663166
vt 0.173664 0.275568
vt 0.825937 0.401804
vt 0.821478 0.478415
vt 0.000000 0.000000
vt 0.568631 0.888448
vn -0.8371 0.3088 0.4516
vn 0.8173 0.3710 0.4409
vn -0.1106 0.5641 0.8182
vn -0.0388 0.5422 0.8393
vn -0.0010 0.5294 0.8484
vn 0.4634 0.5860 -0.6647
vn 0.5199 0.5807 -0.6265
vn 0.6489 0.5560 -0.5195
vn -0.0246 0.2751 -0.9611
vn 0.0178 0.9997 0.0161
vn 0.0037 0.9992 -0.0394
vn 0.0100 0.9972 0.0743
vn 0.0375 0.9912 0.1268
vn 0.7064 0.5376 -0.4604
vn -0.1470 0.5740 0.8055
vn -0.0242 -0.9997 0.0048
vn -0.0070 -1.0000 -0.0007
vn -0.0585 -0.9982 0.0148
vn -0.7596 0.5913 -0.2708
vn -0.7552 0.5570 -0.3456
vn -0.8385 0.5379 0.0869
vn -0.0011 -1.0000 -0.0014
vn 0.0012 -1.0000 -0.0000
vn 0.0081 -1.0000 0.0018
vn 0.0187 0.9874 -0.1573
vn 0.8732 0.3029 0.3818
vn -0.6874 0.5526 -0.4712
vn -0.5434 0.5654 -0.6205
usemtl _auto_.004
s off
f 10/1/1 2/2/1 5/3/1
f 6/4/2 7/5/2 4/6/2
s 1
f 8/7/3 5/8/4 4/9/5
f 9/10/6 7/11/7 3/12/8
f 9/10/9 3/13/9 1/14/9
f 7/5/10 11/15/11 10/16/12
f 8/17/13 7/18/10 10/19/12
f 7/20/7 6/4/14 3/12/8
f 10/19/15 5/8/4 8/17/3
f 1/21/16 5/22/17 2/2/18
f 11/15/19 2/2/20 10/23/21
f 4/24/22 5/22/17 1/21/16
f 4/24/22 1/14/16 3/25/23
f 4/24/22 3/26/23 6/4/24
f 11/27/11 7/20/10 9/10/25
f 7/18/26 8/28/26 4/6/26
f 11/15/19 1/14/27 2/2/20
f 11/15/19 9/29/28 1/30/27
