# This file uses centimeters as units for non-parametric coordinates.

g default
v -0.032805 0.224221 0.441297
v 0.032805 0.224221 0.441297
v -0.142889 0.277367 -0.323412
v 0.142889 0.277367 -0.323412
v -0.032805 0.277367 0.441297
v 0.032805 0.277367 0.441297
v -0.142889 -0.228912 -0.029553
v 0.142889 -0.228912 -0.029553
v -0.142889 -0.228912 -0.323412
v 0.142889 -0.228912 -0.323412
v 0.000000 0.309663 0.500000
v 0.000000 0.224221 0.500000
v 0.000000 -0.296557 -0.020778
v 0.000000 -0.296557 -0.323412
v 0.000000 0.309663 -0.323412
v 0.142889 0.277367 -0.020778
v 0.000000 0.309663 -0.020778
v -0.142889 0.277367 -0.020778
v 0.125000 -0.125000 -0.500000
v 0.000000 0.000000 -0.585772
v -0.125000 -0.125000 -0.500000
v 0.125000 0.125000 -0.500000
v -0.125000 0.125000 -0.500000
v -0.257025 0.309057 -0.500000
v -0.205625 0.360456 -0.500000
v 0.257025 0.309057 -0.500000
v 0.205625 0.360456 -0.500000
v -0.257025 -0.309057 -0.500000
v -0.205625 -0.360457 -0.500000
v 0.205625 -0.360457 -0.500000
v 0.257025 -0.309057 -0.500000
v -0.194723 0.334136 -0.245029
v -0.205625 0.360456 -0.271350
v 0.194723 0.334136 -0.245029
v 0.205625 0.360456 -0.271350
v -0.230704 0.298154 -0.245029
v -0.257025 0.309057 -0.271350
v 0.257025 0.309057 -0.271350
v 0.230704 0.298154 -0.245029
v -0.194723 -0.334136 -0.245029
v -0.205625 -0.360457 -0.271350
v 0.194723 -0.334136 -0.245029
v 0.205625 -0.360457 -0.271350
v -0.230704 -0.298154 -0.245029
v -0.257025 -0.309057 -0.271350
v -0.257025 -0.122984 -0.271350
v -0.230704 -0.149305 -0.245029
v 0.230704 -0.298154 -0.245029
v 0.257025 -0.309057 -0.271350
v 0.230704 -0.149305 -0.245029
v 0.257025 -0.122984 -0.271350
v -0.230704 0.191215 -0.245029
v -0.257025 0.164894 -0.271350
v 0.257025 0.164894 -0.271350
v 0.230704 0.191215 -0.245029
v -0.257025 -0.122984 -0.074904
v -0.230704 -0.149305 -0.064001
v 0.257025 -0.122984 -0.074904
v 0.230704 -0.149305 -0.064001
v -0.257025 0.031840 0.079921
v -0.230704 0.020938 0.106241
v 0.257025 0.031840 0.079921
v 0.230704 0.020938 0.106241
v -0.230704 0.191215 0.079633
v -0.230704 0.164607 0.106241
v -0.257025 0.138286 0.079921
v -0.257025 0.164894 0.053313
v 0.257025 0.138286 0.079921
v 0.257025 0.164894 0.053313
v 0.230704 0.164607 0.106241
v 0.230704 0.191215 0.079633
vt 0.826534 0.968865
vt 0.825319 0.969405
vt 0.825349 0.967980
vt 0.826534 0.968634
vt 0.814239 0.981316
vt 0.813597 0.968890
vt 0.807036 0.981814
vt 0.806179 0.969403
vt 0.839470 0.968874
vt 0.838844 0.981300
vt 0.827749 0.969404
vt 0.827718 0.967978
vt 0.846048 0.981788
vt 0.846889 0.969377
vt 0.822922 0.957165
vt 0.826526 0.957198
vt 0.826516 0.949747
vt 0.822923 0.949746
vt 0.830127 0.957160
vt 0.830115 0.949736
vt 0.826545 0.985825
vt 0.826549 0.992977
vt 0.822656 0.992826
vt 0.822782 0.985388
vt 0.830307 0.985382
vt 0.830443 0.992821
vt 0.047922 0.950678
vt 0.000990 0.950678
vt 0.024456 0.927212
vt 0.000990 0.903746
vt 0.047922 0.903746
vt 0.422786 0.909216
vt 0.426148 0.905854
vt 0.453047 0.905854
vt 0.456408 0.909216
vt 0.827408 0.892610
vt 0.826634 0.895523
vt 0.821253 0.893417
vt 0.823248 0.890563
vt 0.857059 0.892610
vt 0.857857 0.895541
vt 0.861097 0.890285
vt 0.863352 0.893142
vt 0.810893 0.881096
vt 0.814874 0.880754
vt 0.869237 0.879282
vt 0.873473 0.879445
vt 0.824729 0.798167
vt 0.823892 0.795333
vt 0.854798 0.795023
vt 0.854043 0.797731
vt 0.821110 0.800437
vt 0.818815 0.798009
vt 0.859746 0.797399
vt 0.857658 0.799857
vt 0.814397 0.811690
vt 0.810408 0.811923
vt 0.824407 0.823852
vt 0.821424 0.825254
vt 0.868600 0.810260
vt 0.864748 0.810250
vt 0.858628 0.823710
vt 0.855682 0.822415
vt 0.829388 0.843678
vt 0.826164 0.843818
vt 0.854916 0.841699
vt 0.851773 0.841744
vt 0.473316 0.934762
vt 0.482491 0.934762
vt 0.482491 0.951265
vt 0.473316 0.951265
vt 0.482492 0.998132
vt 0.473316 0.998132
vt 0.473316 0.981629
vt 0.482491 0.981629
vt 0.482491 0.960547
vt 0.473316 0.953327
vt 0.482491 0.953327
vt 0.473316 0.906460
vt 0.482491 0.906460
vt 0.482491 0.913927
vt 0.492664 0.994447
vt 0.492668 0.958970
vt 0.495434 0.961736
vt 0.495431 0.991680
vt 0.482491 0.932699
vt 0.473316 0.932699
vt 0.482491 0.904398
vt 0.473316 0.904398
vt 0.482491 0.979566
vt 0.473316 0.979566
vt 0.398914 0.994436
vt 0.396148 0.991669
vt 0.396151 0.961725
vt 0.398918 0.958959
vt 0.410359 0.994438
vt 0.410363 0.958960
vt 0.424282 0.958962
vt 0.424278 0.994439
vt 0.490374 0.913927
vt 0.495519 0.925479
vt 0.482491 0.925479
vt 0.496587 0.965886
vt 0.490374 0.972099
vt 0.495519 0.960547
vt 0.496587 0.961615
vt 0.442790 0.994441
vt 0.442794 0.958964
vt 0.456730 0.994443
vt 0.453837 0.994442
vt 0.453840 0.958965
vt 0.456734 0.958966
vt 0.829313 0.854651
vt 0.829093 0.856737
vt 0.825249 0.856864
vt 0.826113 0.853037
vt 0.855532 0.850817
vt 0.856733 0.854691
vt 0.852672 0.854776
vt 0.852394 0.852582
vt 0.481697 0.958968
vt 0.481693 0.994446
vt 0.422786 0.951983
vt 0.456408 0.951983
vt 0.453047 0.955345
vt 0.426148 0.955345
vt 0.482491 0.972099
vt 0.496587 0.920140
vt 0.496587 0.924412
vn 0.000001 0.000000 1.000000
vn 0.872942 0.000000 0.487825
vn 0.872942 0.000000 0.487825
vn 0.000000 0.000000 1.000000
vn 0.972863 -0.003629 0.231355
vn 0.997432 -0.001123 0.071615
vn 0.993887 -0.001732 0.110392
vn 0.972863 -0.003629 0.231355
vn -0.000000 -0.682628 0.730766
vn 0.000000 -0.682628 0.730766
vn 0.477517 -0.599772 0.642067
vn 0.477517 -0.599772 0.642067
vn 0.284074 0.958624 0.018494
vn -0.000000 0.999780 0.020959
vn -0.000000 0.999086 0.042739
vn 0.356510 0.933438 0.039931
vn -0.993887 -0.001732 0.110392
vn -0.997432 -0.001123 0.071614
vn -0.972863 -0.003629 0.231355
vn -0.972863 -0.003629 0.231355
vn -0.000000 -1.000000 0.000000
vn 0.000000 -1.000000 0.000000
vn 0.427882 -0.903835 0.000000
vn 0.427882 -0.903835 0.000000
vn -0.872941 0.000000 0.487826
vn -0.872941 0.000000 0.487826
vn -0.477517 -0.599772 0.642067
vn -0.477517 -0.599772 0.642067
vn -0.427882 -0.903835 0.000000
vn -0.427882 -0.903835 0.000000
vn -0.284075 0.958624 0.018494
vn -0.356510 0.933438 0.039931
vn 1.000000 0.000000 0.000000
vn 1.000000 0.000000 0.000000
vn 0.000000 1.000000 0.000000
vn 0.220461 0.975396 0.000000
vn -0.220461 0.975396 0.000000
vn -1.000000 0.000000 0.000000
vn -1.000000 0.000000 0.000000
vn 0.000000 -0.565785 -0.824553
vn 0.000000 -0.565785 -0.824553
vn 0.000000 -0.565785 -0.824553
vn 0.000000 0.565785 -0.824553
vn 0.000000 0.565785 -0.824553
vn 0.000000 0.565785 -0.824553
vn -0.565785 0.000000 -0.824553
vn -0.565785 0.000000 -0.824553
vn -0.565785 0.000000 -0.824553
vn 0.565785 0.000000 -0.824553
vn 0.565785 0.000000 -0.824553
vn 0.565785 0.000000 -0.824553
vn 0.000000 0.000000 -1.000000
vn 0.000000 0.000000 -1.000000
vn 0.000000 0.000000 -1.000000
vn 0.000000 0.000000 -1.000000
vn -0.500000 0.499999 0.707107
vn -0.500000 0.500000 0.707107
vn -0.500000 0.500000 0.707107
vn -0.500000 0.499999 0.707107
vn 0.000000 0.707106 0.707108
vn 0.000000 0.707106 0.707108
vn 0.000000 0.707106 0.707108
vn 0.000000 0.707106 0.707108
vn 0.500000 0.500000 0.707107
vn 0.500000 0.500000 0.707107
vn 0.500000 0.500000 0.707107
vn 0.500000 0.500000 0.707107
vn -0.707105 0.000000 0.707109
vn -0.707105 0.000000 0.707109
vn -0.707105 0.000000 0.707109
vn -0.707105 0.000000 0.707109
vn 0.707105 0.000000 0.707109
vn 0.707105 0.000000 0.707109
vn 0.707105 0.000000 0.707109
vn 0.707105 0.000000 0.707109
vn 0.000000 -0.707106 0.707108
vn 0.000000 -0.707106 0.707108
vn 0.000000 -0.707106 0.707108
vn 0.000000 -0.707106 0.707108
vn -0.500000 -0.499999 0.707107
vn -0.500000 -0.499999 0.707107
vn -0.500000 -0.499999 0.707107
vn -0.500000 -0.499999 0.707107
vn 0.500000 -0.500000 0.707107
vn 0.500000 -0.500000 0.707107
vn 0.500000 -0.500000 0.707107
vn 0.500000 -0.500000 0.707107
vn -0.707105 0.000000 0.707109
vn -0.707105 0.000000 0.707109
vn -0.707105 0.000000 0.707109
vn -0.707105 0.000000 0.707109
vn -0.707106 -0.707107 0.000000
vn -0.707107 -0.707107 0.000000
vn -0.707107 -0.707107 0.000000
vn -0.707107 -0.707107 0.000000
vn 0.707105 0.000000 0.707109
vn 0.707105 0.000000 0.707109
vn 0.707105 0.000000 0.707109
vn 0.707105 0.000000 0.707109
vn 0.707106 -0.707108 0.000000
vn 0.707106 -0.707108 0.000000
vn 0.707106 -0.707108 0.000000
vn 0.707106 -0.707108 0.000000
vn -0.707106 -0.500000 0.500001
vn -0.707106 -0.500000 0.500001
vn -0.707106 -0.500000 0.500001
vn -0.707106 -0.500000 0.500001
vn 0.707105 -0.500001 0.500001
vn 0.707105 -0.500001 0.500001
vn 0.707105 -0.500001 0.500001
vn 0.707105 -0.500001 0.500001
vn 0.000000 1.000000 0.000000
vn 0.000000 1.000000 0.000000
vn 0.000000 1.000000 0.000000
vn 0.000000 1.000000 0.000000
vn 0.000000 -1.000000 0.000000
vn 0.000000 -1.000000 0.000000
vn 0.000000 -1.000000 0.000000
vn 0.000000 -1.000000 0.000000
vn 1.000000 0.000000 0.000000
vn 1.000000 0.000000 0.000000
vn 1.000000 0.000000 0.000000
vn -1.000000 0.000000 0.000000
vn -1.000000 0.000000 0.000000
vn -1.000000 0.000000 0.000000
vn 0.000000 0.000000 1.000000
vn 0.000000 0.000000 1.000000
vn 0.000000 0.000000 1.000000
vn 0.000000 0.000000 1.000000
vn -0.707107 0.707107 0.000000
vn -0.707107 0.707107 0.000000
vn -0.707107 0.707107 0.000000
vn -0.707107 0.707107 0.000000
vn 0.707107 0.707107 0.000000
vn 0.707107 0.707107 0.000000
vn 0.707107 0.707107 0.000000
vn 0.707107 0.707107 0.000000
vn -0.707107 -0.707107 0.000000
vn -0.707107 -0.707107 0.000000
vn -0.707107 -0.707107 0.000000
vn -0.707107 -0.707107 0.000000
vn 0.707107 -0.707107 0.000000
vn 0.707107 -0.707107 0.000000
vn 0.707107 -0.707107 0.000000
vn 0.707107 -0.707107 0.000000
vn 0.000000 0.000000 1.000000
vn 0.000000 0.000000 1.000000
vn 0.000000 0.000000 1.000000
vn 0.000000 0.000000 1.000000
vn 0.000000 -1.000000 0.000000
vn 0.000000 -1.000000 0.000000
vn 0.000000 -1.000000 0.000000
vn 0.000000 -1.000000 0.000000
vn -1.000000 -0.000000 0.000000
vn -1.000000 -0.000000 0.000000
vn -1.000000 0.000000 0.000000
vn 1.000000 -0.000000 0.000000
vn 1.000000 -0.000000 0.000000
vn 1.000000 -0.000000 0.000000
vn 1.000000 -0.000000 0.000000
vn 0.000000 -0.707107 0.707107
vn 0.000000 -0.707107 0.707107
vn 0.000000 -0.707107 0.707107
vn 0.000000 -0.707107 0.707107
vn 0.000000 0.707108 0.707106
vn 0.000000 0.707108 0.707106
vn 0.000000 0.707108 0.707106
vn 0.000000 0.707108 0.707106
vn -0.816497 0.408249 0.408247
vn -0.743245 0.664351 0.078894
vn -0.725440 0.687224 0.038216
vn -0.816497 0.408249 0.408247
vn 0.816497 0.408249 0.408247
vn 0.725440 0.687223 0.038216
vn 0.743246 0.664351 0.078894
vn 0.816497 0.408248 0.408247
vn -0.707107 0.707107 0.000000
vn -0.707107 0.707107 0.000000
vn 0.707107 0.707106 0.000000
vn 0.707107 0.707107 0.000000
vn -0.707106 0.000000 0.707108
vn -0.707106 0.000000 0.707108
vn -0.707106 0.000000 0.707108
vn -0.707106 0.000000 0.707108
vn 0.707106 0.000000 0.707108
vn 0.707106 0.000000 0.707108
vn 0.707106 0.000000 0.707108
vn 0.707106 0.000000 0.707108
vn 0.000000 0.000000 1.000000
vn 0.000000 0.000000 1.000000
vn 0.000000 0.000000 1.000000
vn 0.000000 0.000000 1.000000
vn 0.000000 1.000000 0.000000
vn 0.000000 1.000000 0.000000
vn 0.000000 1.000000 0.000000
vn 0.000000 1.000000 0.000000
vn 0.000000 0.000000 -1.000000
vn 0.000000 0.000000 -1.000000
vn 0.000000 0.000000 -1.000000
vn 0.000000 0.000000 -1.000000
vn 0.000000 0.000000 1.000000
vn 0.000000 0.000000 1.000000
vn 0.000000 0.000000 1.000000
vn 0.000000 0.000000 1.000000
vn 1.000000 0.000000 0.000000
vn -1.000000 -0.000000 0.000000
vn -1.000000 -0.000000 0.000000
vn -1.000000 0.000000 0.000000
vn -1.000000 0.000000 0.000000
vn 1.000000 0.000000 0.000000
vn 1.000000 0.000000 0.000000
s 1
g geo_spike_small for_export
f 12/1/1 2/2/2 6/3/3 11/4/4
s 2
f 2/2/5 8/5/6 16/6/7 6/3/8
s 3
f 12/1/9 13/21/10 8/24/11 2/2/12
s 4
f 16/15/13 17/16/14 11/4/15 6/3/16
s 5
f 18/9/17 7/10/18 1/11/19 5/12/20
s 6
f 13/21/21 14/22/22 10/23/23 8/24/24
s 1
f 1/11/25 12/1/1 11/4/4 5/12/26
s 3
f 1/11/27 7/25/28 13/21/10 12/1/9
s 6
f 7/25/29 9/26/30 14/22/22 13/21/21
s 4
f 17/16/14 18/19/31 5/12/32 11/4/15
s 2
f 16/6/7 8/5/6 10/7/33 4/8/34
s 4
f 15/17/35 17/16/14 16/15/13 4/18/36
f 3/20/37 18/19/31 17/16/14 15/17/35
s 5
f 9/13/38 7/10/18 18/9/17 3/14/39
s off
f 19/27/40 21/28/41 20/29/42
f 20/29/43 23/30/44 22/31/45
f 21/28/46 23/30/47 20/29/48
f 22/31/49 19/27/50 20/29/51
s 7
f 24/32/52 25/33/53 27/34/54 26/35/55
s off
f 32/36/56 33/37/57 37/38/58 36/39/59
f 33/37/60 32/36/61 34/40/62 35/41/63
f 35/41/64 34/40/65 39/42/66 38/43/67
f 36/39/68 37/38/69 53/44/70 52/45/71
f 38/43/72 39/42/73 55/46/74 54/47/75
f 40/48/76 41/49/77 43/50/78 42/51/79
f 41/49/80 40/48/81 44/52/82 45/53/83
f 42/51/84 43/50/85 49/54/86 48/55/87
f 45/53/88 44/52/89 47/56/90 46/57/91
f 46/57/92 47/56/93 57/58/94 56/59/95
f 48/55/96 49/54/97 51/60/98 50/61/99
f 50/61/100 51/60/101 58/62/102 59/63/103
f 56/59/104 57/58/105 61/64/106 60/65/107
f 59/63/108 58/62/109 62/66/110 63/67/111
f 25/68/112 33/69/113 35/70/114 27/71/115
f 41/72/116 29/73/117 30/74/118 43/75/119
s 8
f 54/76/120 26/77/121 38/78/122
s 9
f 28/79/123 45/80/124 46/81/125
s 10
f 36/82/126 39/83/127 34/84/128 32/85/129
s off
f 37/86/130 33/69/131 25/68/132 24/87/133
f 35/70/134 38/78/135 26/77/136 27/71/137
f 41/88/138 45/80/139 28/79/140 29/89/141
f 49/90/142 43/75/143 30/74/144 31/91/145
s 11
f 44/92/146 40/93/147 42/94/148 48/95/149
s off
f 47/96/150 50/97/151 59/98/152 57/99/153
s 9
f 46/81/125 56/100/154 67/101/155 53/102/156
s 8
f 62/103/157 58/104/158 69/105/159 68/106/160
s off
f 61/107/161 57/99/162 59/98/163 63/108/164
f 64/109/165 65/110/166 70/111/167 71/112/168
s 14
f 65/113/169 64/114/170 67/115/171 66/116/172
s 15
f 68/117/173 69/118/174 71/119/175 70/120/176
s 14
f 52/45/177 53/44/178 67/115/171 64/114/170
s 15
f 54/47/179 55/46/180 71/119/175 69/118/174
s off
f 65/113/181 66/116/182 60/65/183 61/64/184
f 68/117/185 70/120/186 63/67/187 62/66/188
f 61/107/189 63/108/190 70/111/191 65/110/192
f 64/109/193 71/112/194 55/121/195 52/122/196
s 7
f 28/123/197 31/124/198 30/125/199 29/126/200
f 24/32/52 26/35/55 31/124/198 28/123/197
s 10
f 52/122/201 55/121/202 39/83/127 36/82/126
s 11
f 44/92/146 48/95/149 50/97/203 47/96/204
s 8
f 69/105/159 58/104/158 51/127/205 54/76/120
s 9
f 67/101/155 56/100/154 60/128/206 66/129/207
f 24/87/208 53/102/156 37/86/209
f 28/79/123 46/81/125 53/102/156 24/87/208
s 8
f 51/127/205 31/91/210 26/77/121 54/76/120
f 49/90/211 31/91/210 51/127/205
