# Blender v2.80 (sub 75) OBJ File: ''
# www.blender.org
mtllib YK_Mortar_Small_Collider.mtl
o BF_Block_111.020
v 0.000000 0.000000 -0.600002
v -0.325774 -0.463302 -0.462799
v -0.325774 -0.500717 -0.424534
v -0.424888 -0.500931 -0.325420
v -0.501484 -0.425887 -0.325355
v 0.500568 -0.426020 -0.325355
v 0.424888 -0.500931 -0.325420
v 0.325774 -0.500717 -0.424534
v 0.325774 -0.463302 -0.462799
v 0.424888 0.325641 -0.501838
v 0.424888 -0.325905 -0.500433
v 0.325774 -0.425019 -0.500219
v -0.325774 -0.425019 -0.500219
v -0.424888 -0.325905 -0.500433
v -0.424888 0.325641 -0.501838
v -0.325774 0.424755 -0.502052
v 0.325774 0.424755 -0.502052
v 0.500568 0.325708 -0.425522
v 0.500568 -0.325840 -0.425522
v -0.501484 0.325708 -0.425389
v -0.501378 0.374963 -0.376134
v -0.325774 0.462622 -0.463793
v -0.501484 -0.325840 -0.425389
v -0.501484 -0.425887 0.326193
v -0.501378 -0.376626 0.375454
v -0.424888 -0.502336 0.326126
v -0.325774 -0.502550 0.425240
v -0.325774 -0.464285 0.463114
v 0.000000 -0.600500 0.000485
v 0.424888 -0.502336 0.326126
v 0.500568 -0.426020 0.326193
v 0.325774 -0.502550 0.425240
v -0.600002 0.000000 0.000000
v 0.600002 0.000000 0.000000
v 0.500568 -0.376693 0.375521
v 0.325774 -0.464285 0.463113
v 0.500568 0.375029 -0.376201
v 0.325774 0.462622 -0.463794
v 0.424503 0.132308 0.492977
v 0.479863 0.167558 0.457728
v 0.479863 0.492977 0.132309
v 0.458878 0.492977 0.159032
v 0.415811 0.159031 0.492977
v 0.458878 0.186454 0.465555
v -0.479863 0.167558 0.457728
v -0.458878 0.492977 0.159032
v -0.458878 0.339715 0.312293
v -0.458878 0.186454 0.465555
v -0.437344 0.172742 0.479266
v -0.415811 0.159031 0.492977
v -0.479863 0.492977 0.132309
v -0.469371 0.492977 0.145670
v -0.207135 0.492977 0.145670
v -0.452183 0.149933 0.475352
v -0.424503 0.132308 0.492977
v -0.469371 0.177006 0.461641
v -0.194986 0.382153 0.319215
v -0.156367 0.438860 0.262510
v -0.156367 0.262509 0.438859
v -0.194986 0.319215 0.382153
v -0.000000 0.209263 0.492107
v -0.086777 0.223268 0.478101
v 0.156367 0.262510 0.438860
v 0.086777 0.223268 0.478101
v 0.194986 0.382154 0.319216
v 0.194986 0.319216 0.382154
v -0.000000 0.492107 0.209263
v 0.086777 0.478101 0.223269
v -0.086777 0.478101 0.223269
v 0.156367 0.438860 0.262510
vt 0.000000 0.000000
vt 0.000000 0.000000
vt 0.000000 0.000000
vt 0.295036 0.061269
vt 0.000000 0.000000
vt 0.309959 0.061256
vt 0.295036 0.061269
vt 0.467320 0.521807
vt 0.461888 0.514022
vt 0.457199 0.517629
vt 0.464004 0.522864
vt 0.000000 0.000000
vt 0.000000 0.000000
vt 0.453141 0.507293
vt 0.450394 0.512394
vt 0.000000 0.000000
vt 0.000000 0.000000
vt 0.000000 0.000000
vt 0.000000 0.000000
vt 0.000000 0.000000
vt 0.464004 0.639889
vt 0.000000 0.000000
vt 0.181757 0.210349
vt 0.000000 0.000000
vt 0.321628 0.210349
vt 0.144233 0.191544
vt 0.000000 0.000000
vt 0.000000 0.000000
vt 0.000000 0.000000
vt 0.359349 0.041083
vt 0.295009 0.061269
vt 0.309959 0.061256
vt 0.326964 0.196616
vt 0.384105 0.626615
vt 0.000000 0.000000
vt 0.000000 0.000000
vt 0.181757 0.210347
vt 0.321628 0.210347
vt 0.470636 0.644990
vt 0.470636 0.644990
vt 0.472364 0.538356
vt 0.310239 0.191054
vt 0.295036 0.191067
vt 0.181757 0.011577
vt 0.181757 0.019792
vt 0.321628 0.019792
vt 0.321628 0.011577
vt 0.359349 0.180955
vt 0.359326 0.191529
vt 0.321628 0.202218
vt 0.342905 0.180940
vt 0.295009 0.191067
vt 0.310239 0.191054
vt 0.309959 0.061256
vt 0.310239 0.191054
vt 0.295009 0.191067
vt 0.295009 0.061269
vt 0.359349 0.180955
vt 0.342905 0.180940
vt 0.321628 0.202218
vt 0.359326 0.191530
vt 0.321628 0.019792
vt 0.181757 0.019792
vt 0.310239 0.191054
vt 0.309959 0.061256
vt 0.295036 0.191067
vt 0.181757 0.202218
vt 0.160479 0.180940
vt 0.144233 0.180955
vt 0.144233 0.191543
vt 0.144233 0.180955
vt 0.160479 0.180940
vt 0.181757 0.202218
vt 0.160479 0.041069
vt 0.000000 0.000000
vt 0.342905 0.041069
vt 0.309916 0.041512
vt 0.000000 0.000000
vt 0.309916 0.041512
vt 0.310282 0.210799
vt 0.310282 0.210799
vt 0.453141 0.507293
vt 0.310282 0.210799
vt 0.219994 0.196623
vt 0.464004 0.522864
vt 0.470636 0.520751
vt 0.450394 0.512394
vt 0.470636 0.520751
vt 0.000000 0.000000
vt 0.000000 0.000000
vt 0.464004 0.581376
vt 0.438055 0.572666
vt 0.418415 0.592306
vt 0.467320 0.642439
vt 0.464004 0.639889
vt 0.000000 0.000000
vt 0.455749 0.554972
vt 0.000000 0.000000
vt 0.388476 0.622245
vt 0.400721 0.610000
vt 0.388476 0.622245
vt 0.000000 0.000000
vt 0.438055 0.572666
vt 0.455749 0.554972
vt 0.467994 0.542727
vt 0.467994 0.542727
vt 0.418415 0.592306
vt 0.400721 0.610000
vt 0.000000 0.000000
vt 0.000000 0.000000
vn -0.9832 -0.1289 -0.1290
vn 0.5767 -0.5764 -0.5789
vn -0.4613 0.1500 0.8745
vn 0.0000 0.0000 1.0000
vn -0.9732 0.2160 0.0788
vn 0.0000 1.0000 0.0000
vn -0.6692 0.5255 0.5255
vn 0.0000 -0.0500 0.9987
vn 0.9671 -0.0016 0.2544
vn -0.5747 -0.5766 -0.5807
vn -0.9672 -0.0001 0.2539
vn 0.9829 -0.1301 -0.1301
vn 0.0000 0.9999 0.0173
vn -0.0000 0.9987 -0.0509
vn 0.0000 0.0173 0.9999
vn 0.7068 -0.0008 -0.7074
vn 0.0000 -0.7150 -0.6991
vn -0.5771 0.5781 -0.5768
vn -0.7032 -0.0008 -0.7110
vn -0.7032 -0.7110 -0.0008
vn -0.5771 -0.5768 0.5781
vn 0.0000 -0.6990 -0.7151
vn 0.7068 -0.7074 -0.0008
vn 0.5789 -0.5752 0.5780
vn 0.5789 0.5780 -0.5752
vn 0.0000 -0.7035 0.7107
vn -0.0000 0.7107 -0.7035
vn -0.9828 -0.1666 0.0793
vn -0.9832 -0.1279 0.1300
vn -0.9762 -0.2167 0.0118
vn 0.9825 -0.1687 0.0792
vn 0.9757 -0.2187 0.0118
vn 0.9830 -0.1299 0.1299
vn 0.9738 0.0000 -0.2275
vn 0.9824 0.0793 -0.1689
vn 0.9757 0.0119 -0.2189
vn 0.9738 -0.2273 -0.0000
vn 0.0789 -0.9823 -0.1701
vn 0.1680 -0.9824 -0.0811
vn 0.0000 -1.0000 -0.0020
vn -0.1680 -0.9824 -0.0811
vn -0.0789 -0.9823 -0.1701
vn 0.5721 -0.5864 -0.5734
vn 0.5736 -0.5845 -0.5739
vn 0.5754 -0.5820 -0.5746
vn 0.0789 -0.1701 -0.9823
vn 0.0000 -0.0020 -1.0000
vn 0.1680 -0.0811 -0.9824
vn -0.0789 -0.1701 -0.9823
vn -0.1680 -0.0811 -0.9824
vn -0.1681 0.0769 -0.9828
vn -0.0790 0.1661 -0.9829
vn -0.5726 -0.5858 -0.5736
vn -0.5732 -0.5850 -0.5738
vn -0.5734 -0.5847 -0.5738
vn 0.1681 -0.9828 0.0769
vn 0.0790 -0.9829 0.1661
vn -0.5721 -0.5733 -0.5866
vn -0.5052 -0.1210 0.8545
vn 0.1681 0.0769 -0.9828
vn 0.0790 0.1661 -0.9829
vn -0.9828 0.0794 -0.1668
vn -0.9761 0.0118 -0.2170
vn -0.9832 0.1302 -0.1280
vn -0.9742 0.0000 -0.2256
vn -0.9743 -0.2254 -0.0000
vn 0.9829 0.1301 -0.1301
vn -0.1681 -0.9828 0.0769
vn -0.0790 -0.9829 0.1661
vn -0.5081 0.8435 -0.1743
vn 0.5721 -0.5733 -0.5866
vn 0.5097 0.8424 -0.1747
vn -0.5721 -0.5864 -0.5734
vn 0.5759 -0.5813 -0.5748
vn 0.4613 0.1500 0.8745
vn 0.6692 0.5255 0.5255
vn 0.4788 -0.1676 -0.8618
vn 0.9732 0.2163 0.0780
vn -0.1311 0.7010 0.7010
vn 0.1311 0.7010 0.7010
vn 0.5161 -0.1186 0.8483
vn -0.0530 -0.9909 0.1239
vn -0.5787 -0.0995 0.8094
vn 0.0983 0.6543 0.7498
vn -0.0903 0.6298 0.7715
vn 0.0603 0.8373 0.5434
vn 0.0862 0.7569 0.6478
vn 0.0849 0.7663 0.6368
vn -0.0000 0.7071 0.7071
vn -0.0654 0.5306 0.8451
vn -0.0866 0.6235 0.7770
vn -0.0794 0.5926 0.8016
vn -0.1181 0.7149 0.6892
vn -0.1143 0.7258 0.6783
vn -0.1001 0.6595 0.7450
vn -0.0862 0.7569 0.6478
vn 0.0654 0.5306 0.8451
vn 0.0586 0.5004 0.8638
vn 0.0794 0.5926 0.8016
vn 0.0548 0.8551 0.5155
vn 0.0974 0.7361 0.6698
vn -0.0603 0.8373 0.5434
vn -0.0548 0.8551 0.5155
vn -0.0586 0.5005 0.8638
vn 0.0866 0.6235 0.7770
usemtl Default_OBJ.015
s off
f 23/1/1 5/2/1 33/3/1
f 6/4/2 9/5/2 11/6/2 19/7/2
f 56/8/3 54/9/3 49/10/3 48/11/3
f 50/12/4 55/13/4 39/14/4 43/15/4
f 33/3/5 45/16/5 51/17/5 21/18/5
f 53/19/6 46/20/6 42/21/6
f 45/16/7 47/22/7 51/17/7
f 36/23/8 39/24/8 55/13/8 28/25/8
f 35/26/9 34/27/9 40/28/9
f 2/29/10 5/30/10 23/31/10 14/32/10
f 25/33/11 45/16/11 33/3/11
f 6/4/12 19/7/12 34/27/12
f 46/20/13 67/34/13 42/35/13
f 51/17/14 41/36/14 38/37/14 22/38/14
f 51/39/6 53/19/6 41/40/6
f 61/41/15 50/12/15 43/15/15
s 1
f 10/42/16 18/43/16 19/7/16 11/6/16
f 9/44/17 8/45/17 3/46/17 2/47/17
f 20/48/18 21/49/18 22/38/18 16/50/18 15/51/18
f 14/32/19 23/31/19 20/52/19 15/53/19
f 4/54/20 26/55/20 24/56/20 5/57/20
f 24/58/21 26/59/21 27/60/21 28/25/21 25/61/21
f 9/44/22 2/47/22 13/62/22 12/63/22
f 30/64/23 7/65/23 6/4/23 31/66/23
f 35/26/24 36/23/24 32/67/24 30/68/24 31/69/24
f 38/37/25 37/70/25 18/71/25 10/72/25 17/73/25
f 36/23/26 28/25/26 27/60/26 32/67/26
f 22/38/27 38/37/27 17/73/27 16/50/27
f 24/56/28 25/33/29 33/3/30
f 31/69/31 34/27/32 35/26/33
f 19/7/34 18/43/35 34/27/36
f 31/66/31 6/4/37 34/27/32
f 8/45/38 7/74/39 29/75/40
f 4/76/41 3/46/42 29/75/40
f 8/45/43 9/44/44 7/74/45
f 12/77/46 1/78/47 11/6/48
f 13/79/49 14/32/50 1/78/47
f 15/53/51 16/80/52 1/78/47
f 2/29/53 4/76/54 5/30/55
f 29/75/40 30/64/56 32/81/57
f 14/32/58 13/79/58 2/47/58
f 29/75/40 7/74/39 30/64/56
f 25/61/59 28/25/59 55/82/59 54/9/59
f 11/6/48 1/78/47 10/42/60
f 1/78/47 16/80/52 17/83/61
f 20/48/62 33/3/63 21/18/64
f 20/52/62 23/31/65 33/3/63
f 5/57/66 24/56/28 33/3/30
f 18/43/35 37/84/67 34/27/36
f 26/59/68 29/75/40 27/60/69
f 26/55/68 4/54/41 29/75/40
f 3/46/42 8/45/38 29/75/40
f 22/38/70 21/49/70 51/17/70
f 9/44/71 12/63/71 11/6/71
f 12/77/46 13/79/49 1/78/47
f 14/32/50 15/53/51 1/78/47
f 27/60/69 29/75/40 32/81/57
f 37/70/72 38/37/72 41/36/72
f 2/47/53 3/46/73 4/76/54
f 7/74/45 9/44/44 6/4/74
f 1/78/47 17/83/61 10/42/60
usemtl Default_OBJ.013
s off
f 44/85/75 43/15/75 39/14/75 40/86/75
f 42/21/76 44/85/76 40/86/76 41/40/76
f 54/9/3 55/82/3 50/87/3 49/10/3
f 56/8/77 48/11/77 45/88/77
f 54/9/3 56/8/3 45/88/3
f 41/40/6 53/19/6 42/21/6
f 41/36/78 40/86/78 34/27/78 37/89/78
f 48/11/79 60/90/79 47/91/79
f 66/92/80 44/85/80 42/35/80 65/93/80
f 35/26/81 40/28/81 39/24/81 36/23/81
f 51/39/6 52/94/6 53/19/6
f 52/94/82 51/39/82 46/95/82
f 25/96/83 54/9/83 45/88/83
f 63/97/84 43/15/84 44/85/84 66/92/84
f 53/19/6 52/94/6 46/95/6
f 45/88/7 48/11/7 47/91/7
f 59/98/85 49/10/85 50/87/85
f 51/17/7 47/22/7 46/95/7
usemtl Default_OBJ.016
s 1
f 68/99/86 70/100/87 42/35/88
f 69/101/89 68/99/89 67/34/89
f 69/102/89 60/103/89 59/104/89
f 69/102/89 62/105/89 61/41/89
f 69/102/89 64/106/89 63/97/89
f 62/105/90 59/104/91 50/12/92
f 66/92/89 65/93/89 70/100/89
f 60/103/79 57/107/93 46/95/94 47/91/79
f 59/98/95 60/103/95 48/11/95 49/10/95
f 57/107/93 58/108/96 46/20/94
f 58/108/89 60/103/89 69/102/89
f 64/106/97 61/41/98 43/109/99
f 69/102/89 63/97/89 66/110/89 68/99/89
f 67/34/100 68/99/86 42/35/88
f 70/100/87 65/93/101 42/35/88
f 46/20/94 69/101/102 67/34/103
f 69/102/89 59/104/89 62/105/89
f 69/102/89 61/41/89 64/106/89
f 58/108/89 57/107/89 60/103/89
f 62/105/90 50/12/92 61/41/104
f 66/92/89 70/100/89 68/99/89
f 58/108/96 69/101/102 46/20/94
f 64/106/97 43/109/99 63/97/105
