# Blender v2.79 (sub 0) OBJ File: 'romanmissile.blend'
# www.blender.org
o Plane.029_Plane.012
v -2.216367 -0.433680 1.555520
v -2.216367 0.433680 1.555520
v -2.216367 -0.433680 2.422880
v -2.216367 0.433680 2.422880
v -2.216367 -0.433680 0.688160
v -2.216367 0.433680 0.688160
v -2.216367 -0.433680 1.555520
v -2.216367 0.433680 1.555520
v -2.216367 -0.433680 -0.179200
v -2.216367 0.433680 -0.179200
v -2.216367 -0.433680 0.688160
v -2.216367 0.433680 0.688160
v -2.216367 -0.433680 -1.046560
v -2.216367 0.433680 -1.046560
v -2.216367 -0.433680 -0.179200
v -2.216367 0.433680 -0.179200
v 2.216367 -0.433680 1.555520
v 2.216367 0.433680 1.555520
v 2.216367 -0.433680 2.422880
v 2.216367 0.433680 2.422880
v 2.216367 -0.433680 0.688160
v 2.216367 0.433680 0.688160
v 2.216367 -0.433680 1.555520
v 2.216367 0.433680 1.555520
v 2.216367 -0.433680 -0.179200
v 2.216367 0.433680 -0.179200
v 2.216367 -0.433680 0.688160
v 2.216367 0.433680 0.688160
v 2.216367 -0.433680 -1.046560
v 2.216367 0.433680 -1.046560
v 2.216367 -0.433680 -0.179200
v 2.216367 0.433680 -0.179200
vt 0.607501 0.106948
vt 0.498333 0.216117
vt 0.498333 0.106948
vt 0.607501 0.356948
vt 0.498333 0.466117
vt 0.498333 0.356948
vt 0.607501 0.606948
vt 0.498333 0.716117
vt 0.498333 0.606948
vt 0.607501 0.856948
vt 0.498333 0.966117
vt 0.498333 0.856948
vt 0.607501 0.216117
vt 0.607501 0.466117
vt 0.607501 0.716117
vt 0.607501 0.966117
vt 0.607501 0.106948
vt 0.498333 0.106948
vt 0.498333 0.216117
vt 0.607501 0.356948
vt 0.498333 0.356948
vt 0.498333 0.466117
vt 0.607501 0.606948
vt 0.498333 0.606948
vt 0.498333 0.716117
vt 0.607501 0.856948
vt 0.498333 0.856948
vt 0.498333 0.966117
vt 0.607501 0.216117
vt 0.607501 0.466117
vt 0.607501 0.716117
vt 0.607501 0.966117
vn 1.0000 0.0000 0.0000
vn -1.0000 0.0000 0.0000
s off
f 2/1/1 3/2/1 1/3/1
f 6/4/1 7/5/1 5/6/1
f 10/7/1 11/8/1 9/9/1
f 14/10/1 15/11/1 13/12/1
f 2/1/1 4/13/1 3/2/1
f 6/4/1 8/14/1 7/5/1
f 10/7/1 12/15/1 11/8/1
f 14/10/1 16/16/1 15/11/1
f 18/17/2 17/18/2 19/19/2
f 22/20/2 21/21/2 23/22/2
f 26/23/2 25/24/2 27/25/2
f 30/26/2 29/27/2 31/28/2
f 18/17/2 19/19/2 20/29/2
f 22/20/2 23/22/2 24/30/2
f 26/23/2 27/25/2 28/31/2
f 30/26/2 31/28/2 32/32/2
