# Blender v2.79 (sub 0) OBJ File: 'romanmissile.blend'
# www.blender.org
o Plane.019_Plane.056
v -0.890731 -1.410332 2.268989
v -0.639453 -1.410332 2.268989
v -0.890731 -1.410332 0.313362
v -0.639454 -1.410332 0.313361
v -1.181480 -1.191801 0.318700
v -0.982003 -1.391278 0.318699
v -1.181481 -1.191801 1.279313
v -0.982004 -1.391278 1.279313
v -1.181480 -1.191801 1.333715
v -0.982003 -1.391278 1.333715
v -1.181481 -1.191801 2.294328
v -0.982004 -1.391278 2.294328
v -1.181480 -1.191801 -0.881834
v -0.982003 -1.391278 -0.881834
v -1.181481 -1.191801 0.078779
v -0.982004 -1.391278 0.078779
v 0.890731 -1.410332 2.268989
v 0.639453 -1.410332 2.268989
v 0.890731 -1.410332 0.313362
v 0.639454 -1.410332 0.313361
v 1.181480 -1.191801 0.318700
v 0.982003 -1.391278 0.318699
v 1.181481 -1.191801 1.279313
v 0.982004 -1.391278 1.279313
v 1.181480 -1.191801 1.333715
v 0.982003 -1.391278 1.333715
v 1.181481 -1.191801 2.294328
v 0.982004 -1.391278 2.294328
v 1.181480 -1.191801 -0.881834
v 0.982003 -1.391278 -0.881834
v 1.181481 -1.191801 0.078779
v 0.982004 -1.391278 0.078779
v -0.890731 1.410332 2.268989
v -0.639453 1.410332 2.268989
v -0.890731 1.410332 0.313362
v -0.639454 1.410332 0.313361
v -1.181480 1.191801 0.318700
v -0.982003 1.391278 0.318699
v -1.181481 1.191801 1.279313
v -0.982004 1.391278 1.279313
v -1.181480 1.191801 1.333715
v -0.982003 1.391278 1.333715
v -1.181481 1.191801 2.294328
v -0.982004 1.391278 2.294328
v -1.181480 1.191801 -0.881834
v -0.982003 1.391278 -0.881834
v -1.181481 1.191801 0.078779
v -0.982004 1.391278 0.078779
v 0.890731 1.410332 2.268989
v 0.639453 1.410332 2.268989
v 0.890731 1.410332 0.313362
v 0.639454 1.410332 0.313361
v 1.181480 1.191801 0.318700
v 0.982003 1.391278 0.318699
v 1.181481 1.191801 1.279313
v 0.982004 1.391278 1.279313
v 1.181480 1.191801 1.333715
v 0.982003 1.391278 1.333715
v 1.181481 1.191801 2.294328
v 0.982004 1.391278 2.294328
v 1.181480 1.191801 -0.881834
v 0.982003 1.391278 -0.881834
v 1.181481 1.191801 0.078779
v 0.982004 1.391278 0.078779
vt 0.073739 0.326745
vt 0.603562 0.394821
vt 0.073738 0.394821
vt 0.077762 0.481391
vt 0.557972 0.622414
vt 0.077761 0.622415
vt 0.077762 0.481391
vt 0.557972 0.622414
vt 0.077761 0.622415
vt 0.077762 0.481391
vt 0.557972 0.622414
vt 0.077761 0.622415
vt 0.603562 0.394821
vt 0.073739 0.326745
vt 0.073738 0.394821
vt 0.557972 0.622414
vt 0.077762 0.481391
vt 0.077761 0.622415
vt 0.557972 0.622414
vt 0.077762 0.481391
vt 0.077761 0.622415
vt 0.557972 0.622414
vt 0.077762 0.481391
vt 0.077761 0.622415
vt 0.603562 0.394821
vt 0.073739 0.326745
vt 0.073738 0.394821
vt 0.557972 0.622414
vt 0.077762 0.481391
vt 0.077761 0.622415
vt 0.557972 0.622414
vt 0.077762 0.481391
vt 0.077761 0.622415
vt 0.557972 0.622414
vt 0.077762 0.481391
vt 0.077761 0.622415
vt 0.073739 0.326745
vt 0.603562 0.394821
vt 0.073738 0.394821
vt 0.077762 0.481391
vt 0.557972 0.622414
vt 0.077761 0.622415
vt 0.077762 0.481391
vt 0.557972 0.622414
vt 0.077761 0.622415
vt 0.077762 0.481391
vt 0.557972 0.622414
vt 0.077761 0.622415
vt 0.603562 0.326745
vt 0.557973 0.481391
vt 0.557973 0.481391
vt 0.557973 0.481391
vt 0.603562 0.326745
vt 0.557973 0.481391
vt 0.557973 0.481391
vt 0.557973 0.481391
vt 0.603562 0.326745
vt 0.557973 0.481391
vt 0.557973 0.481391
vt 0.557973 0.481391
vt 0.603562 0.326745
vt 0.557973 0.481391
vt 0.557973 0.481391
vt 0.557973 0.481391
vn 0.0000 1.0000 0.0000
vn 0.7071 0.7071 0.0000
vn -0.7071 0.7071 0.0000
vn 0.0000 -1.0000 0.0000
vn 0.7071 -0.7071 0.0000
vn -0.7071 -0.7071 0.0000
s off
f 3/1/1 2/2/1 4/3/1
f 8/4/2 5/5/2 7/6/2
f 12/7/2 9/8/2 11/9/2
f 16/10/2 13/11/2 15/12/2
f 18/13/1 19/14/1 20/15/1
f 21/16/3 24/17/3 23/18/3
f 25/19/3 28/20/3 27/21/3
f 29/22/3 32/23/3 31/24/3
f 34/25/4 35/26/4 36/27/4
f 37/28/5 40/29/5 39/30/5
f 41/31/5 44/32/5 43/33/5
f 45/34/5 48/35/5 47/36/5
f 51/37/4 50/38/4 52/39/4
f 56/40/6 53/41/6 55/42/6
f 60/43/6 57/44/6 59/45/6
f 64/46/6 61/47/6 63/48/6
f 3/1/1 1/49/1 2/2/1
f 8/4/2 6/50/2 5/5/2
f 12/7/2 10/51/2 9/8/2
f 16/10/2 14/52/2 13/11/2
f 18/13/1 17/53/1 19/14/1
f 21/16/3 22/54/3 24/17/3
f 25/19/3 26/55/3 28/20/3
f 29/22/3 30/56/3 32/23/3
f 34/25/4 33/57/4 35/26/4
f 37/28/5 38/58/5 40/29/5
f 41/31/5 42/59/5 44/32/5
f 45/34/5 46/60/5 48/35/5
f 51/37/4 49/61/4 50/38/4
f 56/40/6 54/62/6 53/41/6
f 60/43/6 58/63/6 57/44/6
f 64/46/6 62/64/6 61/47/6
