# Blender v2.80 (sub 75) OBJ File: ''
# www.blender.org
mtllib YK_Anchor_Rotating_Hook.mtl
o BF_Block_111.011
v -0.359749 -1.886605 0.305557
v -0.359903 -1.957967 0.234195
v -0.391951 -2.016871 0.256183
v -0.391783 -1.939155 0.333900
v -0.359749 -0.813842 0.305558
v -0.359903 -0.742480 0.234195
v -0.360915 -0.742480 -0.234918
v -0.361068 -0.813842 -0.306280
v -0.361068 -1.886605 -0.306280
v -0.360915 -1.957967 -0.234918
v -0.393053 -2.016871 -0.254704
v -0.391783 -0.722034 0.333901
v -0.393220 -0.722034 -0.332421
v -0.393220 -1.939155 -0.332421
v -0.391951 -0.644317 0.256183
v -0.393053 -0.644317 -0.254704
v 0.360409 -1.886605 0.305463
v 0.360409 -0.813842 0.305464
v 0.392504 -0.722034 0.333798
v 0.392504 -1.939155 0.333797
v -0.305919 -0.619335 0.234101
v -0.305919 -0.619335 -0.235014
v -0.333160 -0.584975 -0.254808
v -0.333160 -0.584975 0.256081
v -0.234557 -1.958014 -0.360158
v 0.234557 -1.958014 -0.360158
v 0.255445 -2.016922 -0.391096
v -0.255444 -2.016922 -0.391096
v -0.305919 -1.886557 0.360000
v -0.305919 -0.813795 0.360000
v -0.333160 -0.721982 0.393191
v -0.333160 -1.939103 0.393191
v -0.234557 -0.619335 -0.306376
v -0.255444 -0.584975 -0.332525
v 0.305919 -1.886652 -0.360312
v 0.333162 -1.939206 -0.391264
v 0.234557 -0.619335 -0.306376
v 0.255445 -0.584975 -0.332525
v 0.305919 -1.231869 -0.361323
v 0.333162 -1.268294 -0.392365
v 0.305919 -0.619335 -0.235014
v 0.333162 -0.584975 -0.254808
v 0.234557 -1.957919 0.360000
v -0.234557 -1.957919 0.360000
v -0.255444 -2.016820 0.393191
v 0.255445 -2.016820 0.393191
v 0.112522 -2.516866 -0.146668
v 0.234557 -2.013116 -0.306280
v 0.255445 -2.076931 -0.332421
v 0.122543 -2.625540 -0.158596
v 0.305919 -0.619335 0.234101
v 0.333162 -0.584975 0.256081
v 0.360409 -1.957967 -0.235014
v 0.360409 -1.957967 0.234101
v 0.392504 -2.016871 0.256081
v 0.392504 -2.016871 -0.254808
v 0.305919 -2.013323 -0.234462
v 0.146776 -2.516966 -0.112195
v 0.159847 -2.625649 -0.121053
v 0.333162 -2.077157 -0.254207
v 0.234557 -0.619335 0.305464
v 0.255445 -0.584975 0.333798
v 0.305919 -1.886557 0.360000
v 0.333162 -1.939103 0.393191
v 0.146776 -2.516480 0.112979
v 0.305919 -2.012312 0.234652
v 0.333162 -2.076056 0.256680
v 0.159847 -2.625120 0.124173
v -0.234557 -0.619335 0.305464
v -0.305919 -1.886652 -0.360312
v -0.305919 -1.705539 -0.361323
v -0.305919 -0.813890 -0.361323
v -0.234557 -0.742528 -0.361477
v 0.234557 -0.742528 -0.361477
v 0.305919 -0.813890 -0.361323
v 0.305919 -0.813795 0.360000
v 0.234557 -0.742433 0.360000
v -0.234557 -0.742433 0.360000
v -0.255444 -0.644370 -0.392533
v 0.255445 -0.644370 -0.392533
v 0.360409 -1.886605 -0.306376
v 0.360409 -0.813842 -0.306376
v 0.360409 -0.742479 -0.235014
v 0.360409 -0.742480 0.234101
v 0.234557 -2.012157 0.306014
v 0.112522 -2.516407 0.147233
v 0.122543 -2.625039 0.161477
v 0.255445 -2.075888 0.334397
v -0.146907 -2.516307 0.112760
v -0.146907 -2.516966 -0.112195
v -0.112653 -2.516866 -0.146668
v -0.112653 -2.516233 0.147014
v -0.333160 -0.722086 -0.392365
v 0.392504 -1.939155 -0.332525
v -0.234557 -2.013116 -0.306280
v -0.305919 -2.011950 0.234195
v -0.305919 -2.013323 -0.234462
v -0.234557 -2.011796 0.305557
v -0.255444 -0.584975 0.333798
v -0.255444 -0.644265 0.393191
v 0.255445 -0.644265 0.393191
v 0.392504 -0.644317 0.256081
v 0.392504 -0.644316 -0.254808
v 0.333162 -0.721982 0.393191
v 0.392504 -0.722034 -0.332525
v 0.333162 -0.722086 -0.392365
v -0.333160 -2.075662 0.256183
v -0.255444 -2.075494 0.333900
v -0.333160 -1.939206 -0.391264
v -0.255444 -2.076931 -0.332421
v -0.333160 -2.077157 -0.254207
v -0.122684 -2.625540 -0.158596
v -0.159988 -2.625649 -0.121053
v -0.333160 -1.741964 -0.392365
v -0.159988 -2.624931 0.123934
v -0.122684 -2.624850 0.161238
v 0.000000 -0.640228 -0.190457
v 0.000000 -0.467788 -0.190457
v 0.088298 -0.467788 -0.168694
v 0.088298 -0.640228 -0.168694
v 0.156367 -0.467788 -0.108389
v 0.156367 -0.640228 -0.108389
v 0.188615 -0.467789 -0.023358
v 0.188615 -0.640228 -0.023358
v 0.177654 -0.467788 0.066919
v 0.177654 -0.640228 0.066919
v 0.125994 -0.467788 0.141761
v 0.125994 -0.640228 0.141761
v 0.045470 -0.467788 0.184023
v 0.045470 -0.640228 0.184023
v -0.045470 -0.467788 0.184023
v -0.045470 -0.640228 0.184023
v -0.125994 -0.467788 0.141761
v -0.125994 -0.640228 0.141761
v -0.177654 -0.467788 0.066919
v -0.177654 -0.640228 0.066919
v -0.188615 -0.467789 -0.023358
v -0.188615 -0.640228 -0.023358
v -0.156367 -0.467788 -0.108389
v -0.156367 -0.640228 -0.108389
v -0.088298 -0.467788 -0.168694
v -0.088298 -0.640228 -0.168694
vt 0.560575 0.627781
vt 0.560551 0.616282
vt 0.555386 0.619825
vt 0.555413 0.632348
vt 0.125722 0.061269
vt 0.000000 0.000000
vt 0.145467 0.210812
vt 0.275264 0.210812
vt 0.000000 0.000000
vt 0.295009 0.061269
vt 0.275264 0.041525
vt 0.145467 0.041524
vt 0.560387 0.540690
vt 0.555209 0.537501
vt 0.560575 0.627781
vt 0.555413 0.632348
vt 0.560363 0.529190
vt 0.560363 0.529190
vt 0.555182 0.524978
vt 0.555182 0.524978
vt 0.560551 0.616282
vt 0.555386 0.619825
vt 0.560387 0.540690
vt 0.555209 0.537501
vt 0.676621 0.627766
vt 0.676621 0.627766
vt 0.681792 0.632332
vt 0.681792 0.632332
vt 0.569249 0.616267
vt 0.569249 0.540674
vt 0.564860 0.537485
vt 0.564860 0.619808
vt 0.580749 0.520509
vt 0.656341 0.520509
vt 0.659707 0.515523
vt 0.577383 0.515523
vt 0.569249 0.636554
vt 0.569249 0.636554
vt 0.564860 0.641902
vt 0.564860 0.641902
vt 0.580749 0.529175
vt 0.577383 0.524961
vt 0.667840 0.520484
vt 0.672230 0.515496
vt 0.656341 0.529175
vt 0.659707 0.524961
vt 0.667840 0.520321
vt 0.672230 0.515319
vt 0.667840 0.540674
vt 0.672230 0.537485
vt 0.656341 0.636554
vt 0.580749 0.636554
vt 0.577383 0.641902
vt 0.659707 0.641902
vt 0.636676 0.554910
vt 0.656341 0.529190
vt 0.659707 0.524978
vt 0.638291 0.552988
vt 0.667840 0.616267
vt 0.672230 0.619808
vt 0.676621 0.540674
vt 0.676621 0.616267
vt 0.681792 0.619808
vt 0.681792 0.537485
vt 0.667840 0.540763
vt 0.642196 0.560465
vt 0.644302 0.559038
vt 0.672230 0.537582
vt 0.656341 0.627766
vt 0.659707 0.632332
vt 0.667840 0.636554
vt 0.672230 0.641902
vt 0.642196 0.596749
vt 0.667840 0.616355
vt 0.672230 0.619905
vt 0.644302 0.598553
vt 0.163934 0.376032
vt 0.163934 0.300440
vt 0.152435 0.288941
vt 0.076842 0.288941
vt 0.065343 0.300440
vt 0.065343 0.376032
vt 0.076842 0.387532
vt 0.152435 0.387532
vt 0.310239 0.191054
vt 0.309959 0.061256
vt 0.309916 0.041512
vt 0.309916 0.041512
vt 0.309959 0.061256
vt 0.000000 0.000000
vt 0.310239 0.191054
vt 0.310282 0.210799
vt 0.310282 0.210799
vt 0.310239 0.191054
vt 0.110658 0.191080
vt 0.110658 0.210825
vt 0.110658 0.210825
vt 0.000000 0.000000
vt 0.110659 0.061283
vt 0.110659 0.041538
vt 0.110659 0.041538
vt 0.110659 0.061283
vt 0.656341 0.520296
vt 0.580749 0.520296
vt 0.577383 0.515292
vt 0.659707 0.515292
vt 0.144233 0.041083
vt 0.144233 0.019806
vt 0.144233 0.019806
vt 0.000000 0.000000
vt 0.144233 0.180955
vt 0.144233 0.202232
vt 0.144233 0.202232
vt 0.000000 0.000000
vt 0.656341 0.627855
vt 0.636676 0.602269
vt 0.638291 0.604564
vt 0.659707 0.632428
vt 0.594872 0.596714
vt 0.594872 0.560465
vt 0.600392 0.554910
vt 0.600392 0.602234
vt 0.569249 0.520321
vt 0.564860 0.515319
vt 0.676621 0.529175
vt 0.681792 0.524961
vt 0.321628 0.003363
vt 0.181757 0.003363
vt 0.181757 0.003363
vt 0.321628 0.003363
vt 0.342905 0.003710
vt 0.342905 0.003409
vt 0.342905 0.003409
vt 0.342905 0.003710
vt 0.181757 0.003756
vt 0.321628 0.003756
vt 0.321628 0.003756
vt 0.181757 0.003756
vt 0.160479 0.003409
vt 0.160479 0.003710
vt 0.160479 0.003710
vt 0.160479 0.003409
vt 0.577383 0.632332
vt 0.577383 0.641902
vt 0.659707 0.641902
vt 0.681792 0.619808
vt 0.681792 0.537485
vt 0.672230 0.641902
vt 0.681792 0.524961
vt 0.672230 0.515319
vt 0.564860 0.619825
vt 0.577383 0.632348
vt 0.564860 0.515496
vt 0.577383 0.524978
vt 0.564860 0.537582
vt 0.598776 0.552988
vt 0.592765 0.559038
vt 0.564860 0.515319
vt 0.592765 0.598515
vt 0.598776 0.604526
vt 0.569249 0.520484
vt 0.580749 0.627766
vt 0.667840 0.636554
vt 0.569249 0.520321
vt 0.676621 0.529175
vt 0.667840 0.520321
vt 0.580749 0.627781
vt 0.676621 0.616267
vt 0.676621 0.540674
vt 0.569249 0.540763
vt 0.569249 0.616282
vt 0.580749 0.529190
vt 0.656341 0.636554
vt 0.580749 0.636554
vt 0.623047 0.555960
vt 0.623047 0.579816
vt 0.635262 0.579816
vt 0.635262 0.555960
vt 0.644679 0.579816
vt 0.644679 0.555960
vt 0.649140 0.579816
vt 0.649140 0.555960
vt 0.647624 0.579816
vt 0.647624 0.555960
vt 0.640477 0.579816
vt 0.640477 0.555960
vt 0.629337 0.579816
vt 0.629337 0.555960
vt 0.616756 0.579816
vt 0.616756 0.555960
vt 0.605616 0.579816
vt 0.605616 0.555960
vt 0.598470 0.579816
vt 0.598470 0.555960
vt 0.596953 0.579816
vt 0.596953 0.555960
vt 0.601415 0.579816
vt 0.601415 0.555960
vt 0.610831 0.579816
vt 0.610831 0.555960
vn -0.8727 0.3462 -0.3444
vn -1.0000 0.0000 0.0022
vn -0.8781 0.4785 0.0019
vn -0.6626 0.0000 -0.7489
vn -0.6308 -0.0000 0.7759
vn -0.9359 -0.2500 -0.2480
vn -0.9505 -0.3108 0.0021
vn -0.9328 -0.2538 0.2558
vn -0.8657 0.3531 0.3549
vn 0.6618 0.0000 -0.7497
vn 0.7836 0.6213 0.0000
vn 0.0000 0.4650 -0.8853
vn 0.7730 -0.0000 0.6344
vn 0.5081 0.6955 0.5081
vn -0.3413 0.3394 -0.8766
vn 0.0000 0.6056 0.7958
vn -0.7519 -0.0011 -0.6593
vn -0.7517 -0.0003 -0.6595
vn -0.7518 -0.0008 -0.6594
vn -0.5081 0.6955 0.5081
vn 0.0000 0.4909 0.8712
vn -0.9845 -0.0733 -0.1593
vn -0.7870 -0.0048 -0.6170
vn -0.8836 -0.1308 0.4495
vn -0.7836 0.6213 0.0000
vn 0.3585 0.3585 0.8619
vn 0.8781 0.4785 0.0000
vn 0.5965 0.0063 0.8026
vn 0.1347 -0.0644 0.9888
vn -0.4545 -0.1265 0.8817
vn -0.4968 0.7116 -0.4968
vn -0.3585 0.3585 0.8619
vn 0.1588 -0.0823 -0.9839
vn 0.6198 -0.0063 -0.7847
vn -0.4437 -0.1445 -0.8844
vn 0.0000 1.0000 0.0000
vn 0.0003 -0.0011 -1.0000
vn 0.0000 -0.0000 1.0000
vn 0.0000 -0.3017 -0.9534
vn 1.0000 0.0000 0.0000
vn -0.8002 0.0048 0.5997
vn -0.9877 -0.0730 0.1381
vn -0.8851 -0.1399 -0.4440
vn -0.0003 -1.0000 0.0019
vn 0.2432 -0.2452 -0.9385
vn 0.8663 0.3533 0.3533
vn 0.0000 -0.3020 -0.9533
vn -0.9537 -0.3009 0.0009
vn -0.0012 -0.3001 0.9539
vn 0.9536 -0.3012 0.0006
vn 0.0000 0.7077 0.7065
vn 0.7071 0.7071 0.0000
vn 0.5775 0.5775 0.5770
vn -0.7071 0.7071 0.0008
vn -0.5791 0.5766 0.5764
vn -0.5767 0.5789 -0.5765
vn 0.5782 0.5780 -0.5758
vn 0.0000 0.7107 -0.7035
vn 0.5778 -0.5763 0.5780
vn -0.5780 -0.5780 0.5760
vn -0.0006 -0.7081 0.7061
vn 0.5772 -0.5751 -0.5798
vn 0.7094 -0.7048 0.0008
vn -0.5756 -0.5760 -0.5804
vn 0.0000 -0.6991 -0.7150
vn -0.7083 -0.7059 0.0018
vn 0.7074 -0.0000 0.7068
vn -0.7111 -0.0000 0.7031
vn -0.6592 -0.3674 -0.6561
vn -0.7059 -0.0003 -0.7083
vn 0.7083 -0.0003 -0.7059
vn -0.6577 -0.3659 0.6585
vn 0.6575 -0.3664 0.6583
vn 0.6592 -0.3676 -0.6560
vn 0.3413 0.3394 -0.8766
vn 0.4968 0.7116 -0.4968
vn -0.7730 -0.0000 0.6344
vn 0.7522 -0.0010 -0.6589
vn 0.7537 -0.0037 -0.6572
vn 0.7532 -0.0027 -0.6578
vn 0.0000 0.6362 -0.7715
vn 0.6316 -0.0000 0.7753
vn -0.9196 -0.3927 0.0008
vn 0.7516 0.0000 -0.6596
vn -0.7516 0.0000 -0.6596
vn 0.0006 -0.4067 -0.9136
vn 0.9505 -0.3108 -0.0000
vn 0.9196 -0.3928 0.0012
vn 0.0000 -0.3791 0.9254
vn 0.9355 -0.2499 -0.2499
vn -0.1583 -0.0822 -0.9840
vn 0.9877 -0.0731 0.1385
vn 0.8849 -0.1399 -0.4442
vn 0.4441 -0.1444 -0.8843
vn 0.9845 -0.0734 -0.1591
vn -0.1349 -0.0644 0.9888
vn 0.4546 -0.1266 0.8817
vn 0.8836 -0.1309 0.4496
vn 0.8721 0.3460 -0.3460
vn -0.2594 -0.2594 0.9303
vn 0.7871 -0.0050 -0.6168
vn 0.9333 -0.2539 0.2539
vn 0.0000 -0.3203 0.9473
vn -0.5967 0.0064 0.8024
vn 0.2594 -0.2594 0.9303
vn -0.6193 -0.0062 -0.7852
vn -0.2432 -0.2452 -0.9385
vn 0.7999 0.0047 0.6001
vn 0.0000 -0.6570 -0.7539
vn 0.0000 0.0000 -1.0000
vn 0.4647 0.0000 -0.8855
vn 0.3504 -0.6570 -0.6675
vn 0.8230 0.0000 -0.5681
vn 0.6204 -0.6570 -0.4283
vn 0.9927 0.0000 -0.1205
vn 0.7484 -0.6570 -0.0909
vn 0.9350 -0.0000 0.3546
vn 0.7049 -0.6570 0.2673
vn 0.6631 -0.0000 0.7485
vn 0.4999 -0.6570 0.5643
vn 0.2393 -0.0000 0.9709
vn 0.1804 -0.6570 0.7320
vn -0.2393 -0.0000 0.9709
vn -0.1804 -0.6570 0.7320
vn -0.6631 -0.0000 0.7485
vn -0.4999 -0.6570 0.5643
vn -0.9350 -0.0000 0.3546
vn -0.7049 -0.6570 0.2673
vn -0.9927 0.0000 -0.1205
vn -0.7484 -0.6570 -0.0909
vn -0.8230 0.0000 -0.5681
vn -0.6204 -0.6570 -0.4283
vn -0.4647 0.0000 -0.8855
vn -0.3504 -0.6570 -0.6675
usemtl Material
s off
f 1/1/1 2/2/1 3/3/1 4/4/1
f 1/5/2 5/6/2 6/7/2 7/8/2 8/9/2 9/10/2 10/11/2 2/12/2
f 2/2/3 10/13/3 11/14/3 3/3/3
f 5/15/4 1/1/4 4/4/4 12/16/4
f 9/17/5 8/18/5 13/19/5 14/20/5
f 6/21/6 5/15/6 12/16/6 15/22/6
f 7/23/7 6/21/7 15/22/7 16/24/7
f 8/18/8 7/23/8 16/24/8 13/19/8
f 10/13/9 9/17/9 14/20/9 11/14/9
s 1
f 17/25/10 18/26/10 19/27/10 20/28/10
f 21/29/11 22/30/11 23/31/11 24/32/11
f 25/33/12 26/34/12 27/35/12 28/36/12
f 29/37/13 30/38/13 31/39/13 32/40/13
f 22/30/14 33/41/14 34/42/14 23/31/14
f 26/34/15 35/43/15 36/44/15 27/35/15
f 33/41/16 37/45/16 38/46/16 34/42/16
f 35/43/17 39/47/18 40/48/19 36/44/17
f 37/45/20 41/49/20 42/50/20 38/46/20
f 43/51/21 44/52/21 45/53/21 46/54/21
f 47/55/22 48/56/23 49/57/23 50/58/24
f 41/49/25 51/59/25 52/60/25 42/50/25
f 44/52/26 29/37/26 32/40/26 45/53/26
f 53/61/27 54/62/27 55/63/27 56/64/27
f 57/65/28 58/66/29 59/67/30 60/68/28
f 51/59/31 61/69/31 62/70/31 52/60/31
f 63/71/32 43/51/32 46/54/32 64/72/32
f 65/73/33 66/74/34 67/75/34 68/76/35
f 51/77/36 41/78/36 37/79/36 33/80/36 22/81/36 21/82/36 69/83/36 61/84/36
f 39/85/37 35/86/37 26/87/37 25/88/37 70/89/37 71/90/37 72/91/37 73/92/37 74/93/37 75/94/37
f 76/95/38 77/96/38 78/97/38 30/98/38 29/99/38 44/100/38 43/101/38 63/102/38
f 74/103/39 73/104/39 79/105/39 80/106/39
f 17/107/40 54/108/40 53/109/40 81/110/40 82/111/40 83/112/40 84/113/40 18/114/40
f 85/115/41 86/116/42 87/117/43 88/118/41
f 89/119/44 90/120/44 91/121/44 47/55/44 58/66/44 65/73/44 86/116/44 92/122/44
f 73/104/45 72/123/45 93/124/45 79/105/45
f 81/125/46 53/61/46 56/64/46 94/126/46
f 95/127/47 48/128/47 47/129/47 91/130/47
f 96/131/48 97/132/48 90/133/48 89/134/48
f 85/135/49 98/136/49 92/137/49 86/138/49
f 57/139/50 66/140/50 65/141/50 58/142/50
f 62/70/51 99/143/51 100/144/51 101/145/51
f 42/50/52 52/60/52 102/146/52 103/147/52
f 101/145/53 104/148/53 19/27/53 102/146/53 52/60/53 62/70/53
f 24/32/54 23/31/54 16/24/54 15/22/54
f 15/22/55 12/16/55 31/39/55 100/144/55 99/143/55 24/32/55
f 13/19/56 16/24/56 23/31/56 34/42/56 79/105/56 93/124/56
f 103/147/57 105/149/57 106/150/57 80/106/57 38/46/57 42/50/57
f 34/42/58 38/46/58 80/106/58 79/105/58
f 55/63/59 20/28/59 64/72/59 46/54/59 88/118/59 67/75/59
f 3/3/60 107/151/60 108/152/60 45/53/60 32/40/60 4/4/60
f 88/118/61 46/54/61 45/53/61 108/152/61
f 56/64/62 60/68/62 49/57/62 27/35/62 36/44/62 94/126/62
f 67/75/63 60/68/63 56/64/63 55/63/63
f 11/14/64 14/20/64 109/153/64 28/36/64 110/154/64 111/155/64
f 49/57/65 110/154/65 28/36/65 27/35/65
f 107/151/66 3/3/66 11/14/66 111/155/66
f 104/148/67 64/72/67 20/28/67 19/27/67
f 31/39/68 12/16/68 4/4/68 32/40/68
f 111/155/69 110/154/69 112/156/69 113/157/69
f 114/158/70 109/153/70 14/20/70 13/19/70 93/124/70
f 36/44/71 40/48/71 106/150/71 105/149/71 94/126/71
f 108/152/72 107/151/72 115/159/72 116/160/72
f 67/75/73 88/118/73 87/117/73 68/76/73
f 49/57/74 60/68/74 59/67/74 50/58/74
f 70/161/75 25/33/75 28/36/75 109/153/75
f 69/162/76 21/29/76 24/32/76 99/143/76
f 76/163/77 63/71/77 64/72/77 104/148/77
f 71/164/78 70/161/79 109/153/79 114/158/80
f 61/69/81 69/162/81 99/143/81 62/70/81
f 82/165/82 81/125/82 94/126/82 105/149/82
f 66/74/83 57/65/83 60/68/83 67/75/83
f 72/123/84 71/164/78 114/158/80 93/124/84
f 39/47/18 75/166/85 106/150/85 40/48/19
f 98/167/86 85/115/86 88/118/86 108/152/86
f 58/66/29 47/55/22 50/58/24 59/67/30
f 84/168/87 83/169/87 103/147/87 102/146/87
f 97/170/88 96/171/88 107/151/88 111/155/88
f 86/116/42 65/73/33 68/76/35 87/117/43
f 48/56/89 95/172/89 110/154/89 49/57/89
f 18/26/90 84/168/90 102/146/90 19/27/90
f 89/119/91 92/122/92 116/160/93 115/159/94
f 91/121/95 90/120/96 113/157/97 112/156/98
f 54/62/99 17/25/99 20/28/99 55/63/99
f 77/173/100 76/163/100 104/148/100 101/145/100
f 95/172/101 91/121/95 112/156/98 110/154/101
f 83/169/102 82/165/102 105/149/102 103/147/102
f 78/174/103 77/173/103 101/145/103 100/144/103
f 90/120/96 97/170/104 111/155/104 113/157/97
f 30/38/105 78/174/105 100/144/105 31/39/105
f 96/171/106 89/119/91 115/159/94 107/151/106
f 75/166/107 74/103/107 80/106/107 106/150/107
f 92/122/92 98/167/108 108/152/108 116/160/93
f 117/175/109 118/176/110 119/177/111 120/178/112
f 120/178/112 119/177/111 121/179/113 122/180/114
f 122/180/114 121/179/113 123/181/115 124/182/116
f 124/182/116 123/181/115 125/183/117 126/184/118
f 126/184/118 125/183/117 127/185/119 128/186/120
f 128/186/120 127/185/119 129/187/121 130/188/122
f 130/188/122 129/187/121 131/189/123 132/190/124
f 132/190/124 131/189/123 133/191/125 134/192/126
f 134/192/126 133/191/125 135/193/127 136/194/128
f 136/194/128 135/193/127 137/195/129 138/196/130
f 138/196/130 137/195/129 139/197/131 140/198/132
f 140/198/132 139/197/131 141/199/133 142/200/134
f 142/200/134 141/199/133 118/176/110 117/175/109
f 117/175/109 120/178/112 122/180/114 124/182/116 126/184/118 128/186/120 130/188/122 132/190/124 134/192/126 136/194/128 138/196/130 140/198/132 142/200/134
