# Blender v2.79 (sub 0) OBJ File: 'largemissile.blend'
# www.blender.org
o Cube
v -0.065164 -0.408639 -0.300839
v -0.065164 -0.257384 -0.354874
v -0.065164 -0.408639 -0.699161
v -0.065164 -0.257384 -0.645126
v 0.065164 -0.408639 -0.300839
v 0.065164 -0.257384 -0.354874
v 0.065164 -0.408639 -0.699161
v 0.065164 -0.257384 -0.645126
v -0.065164 -0.408639 0.699161
v -0.065164 -0.257384 0.645126
v -0.065164 -0.408639 0.300839
v -0.065164 -0.257384 0.354874
v 0.065164 -0.408639 0.699161
v 0.065164 -0.257384 0.645126
v 0.065164 -0.408639 0.300839
v 0.065164 -0.257384 0.354874
vt 0.643769 0.260491
vt 0.624252 0.224221
vt 0.643769 0.218528
vt 0.617265 0.260491
vt 0.629794 0.282621
vt 0.617265 0.282621
vt 0.604735 0.254798
vt 0.624252 0.218528
vt 0.624252 0.260491
vt 0.604735 0.260491
vt 0.617265 0.282621
vt 0.604735 0.282621
vt 0.656298 0.218528
vt 0.656298 0.249106
vt 0.668828 0.218528
vt 0.668828 0.249106
vt 0.643769 0.260491
vt 0.624252 0.224221
vt 0.643769 0.218528
vt 0.617265 0.260491
vt 0.629794 0.282621
vt 0.617265 0.282621
vt 0.624252 0.260491
vt 0.604735 0.224221
vt 0.624252 0.218528
vt 0.604735 0.260491
vt 0.617265 0.282621
vt 0.604735 0.282621
vt 0.656298 0.218528
vt 0.656298 0.249106
vt 0.668828 0.218528
vt 0.668828 0.249106
vt 0.624252 0.254798
vt 0.629794 0.260491
vt 0.604735 0.224221
vt 0.617265 0.260491
vt 0.656298 0.260491
vt 0.656298 0.218528
vt 0.624252 0.254798
vt 0.629794 0.260491
vt 0.604735 0.254798
vt 0.617265 0.260491
vt 0.656298 0.260491
vt 0.656298 0.218528
vn -1.0000 -0.0000 0.0000
vn 0.0000 0.3364 -0.9417
vn 1.0000 0.0000 0.0000
vn 0.0000 0.3364 0.9417
vn 0.0000 -1.0000 0.0000
vn 0.0000 1.0000 0.0000
s off
f 1/1/1 4/2/1 3/3/1
f 4/4/2 7/5/2 3/6/2
f 8/7/3 5/8/3 7/9/3
f 6/10/4 1/11/4 5/12/4
f 7/13/5 1/1/5 3/3/5
f 4/14/6 6/15/6 8/16/6
f 9/17/1 12/18/1 11/19/1
f 12/20/2 15/21/2 11/22/2
f 15/23/3 14/24/3 13/25/3
f 14/26/4 9/27/4 13/28/4
f 15/29/5 9/17/5 11/19/5
f 12/30/6 14/31/6 16/32/6
f 1/1/1 2/33/1 4/2/1
f 4/4/2 8/34/2 7/5/2
f 8/7/3 6/35/3 5/8/3
f 6/10/4 2/36/4 1/11/4
f 7/13/5 5/37/5 1/1/5
f 4/14/6 2/38/6 6/15/6
f 9/17/1 10/39/1 12/18/1
f 12/20/2 16/40/2 15/21/2
f 15/23/3 16/41/3 14/24/3
f 14/26/4 10/42/4 9/27/4
f 15/29/5 13/43/5 9/17/5
f 12/30/6 10/44/6 14/31/6
o m_HE_CruiseMissile_113_Base_Instance
v -0.100576 -0.390279 0.331567
v -0.199202 -0.500000 0.598843
v -0.100576 -0.390279 0.664357
v -0.199202 -0.500000 0.397081
v -0.100576 -0.390278 0.198052
v 0.100576 -0.390278 0.198052
v 0.082105 -0.326145 0.153087
v -0.082105 -0.326145 0.153087
v -0.040316 -0.326146 1.132454
v -0.082105 -0.326145 1.076379
v -0.132023 -0.500000 1.132024
v -0.084703 -0.500000 1.195647
v 0.000000 -0.500000 1.223542
v 0.000000 -0.326146 1.148510
v 0.040316 -0.326146 1.132454
v 0.084703 -0.500000 1.195647
v 0.132023 -0.500000 1.132024
v 0.082105 -0.326145 1.076379
v -0.100576 -0.390278 0.198052
v -0.082105 -0.326145 0.153087
v -0.082105 -0.326145 -0.153087
v -0.100576 -0.390278 -0.198053
v -0.132023 -0.500000 -0.331567
v -0.132023 -0.500000 0.331567
v -0.100576 -0.390279 0.331567
v -0.100576 -0.390278 -0.331567
v -0.132023 -0.500000 0.664357
v -0.100576 -0.390279 0.797872
v -0.100576 -0.390279 0.664357
v -0.132023 -0.500000 1.132024
v -0.082105 -0.326145 0.861103
v -0.082105 -0.326145 1.076379
v 0.132023 -0.500000 0.331567
v -0.132023 -0.500000 0.331567
v -0.132023 -0.500000 -0.331567
v 0.132023 -0.500000 -0.331567
v 0.132023 -0.500000 0.664357
v -0.132023 -0.500000 0.664357
v -0.199202 -0.500000 0.397081
v -0.199202 -0.500000 0.598843
v -0.132023 -0.500000 1.132024
v 0.132023 -0.500000 1.132024
v 0.199202 -0.500000 0.397081
v 0.199202 -0.500000 0.598843
v 0.132023 -0.500000 -0.664357
v -0.132023 -0.500000 -0.664357
v -0.199202 -0.500000 -0.598843
v -0.199202 -0.500000 -0.397081
v -0.132023 -0.500000 -1.132024
v 0.132023 -0.500000 -1.132024
v 0.199202 -0.500000 -0.397081
v 0.199202 -0.500000 -0.598843
v -0.084703 -0.500000 -1.195647
v 0.084703 -0.500000 -1.195647
v 0.000000 -0.500000 -1.223542
v 0.084703 -0.500000 1.195647
v -0.084703 -0.500000 1.195647
v 0.000000 -0.500000 1.223542
v 0.100576 -0.390279 0.664357
v -0.100576 -0.390279 0.664357
v -0.100576 -0.390279 0.797872
v 0.100576 -0.390279 0.797872
v 0.100576 -0.390279 0.331567
v -0.100576 -0.390279 0.331567
v 0.100576 -0.390278 0.198052
v -0.100576 -0.390278 0.198052
v -0.100576 -0.390279 0.664357
v -0.199202 -0.500000 0.598843
v -0.132023 -0.500000 0.664357
v -0.132023 -0.500000 0.331567
v -0.199202 -0.500000 0.397081
v -0.100576 -0.390279 0.331567
v 0.047394 -0.340232 0.146382
v -0.047394 -0.340232 0.146382
v -0.047394 -0.340232 0.849542
v 0.047394 -0.340232 0.849542
v -0.047394 -0.340232 0.146382
v -0.063008 -0.390279 0.849542
v -0.047394 -0.340232 0.849542
v -0.063008 -0.390279 0.146382
v 0.100576 -0.390279 0.664357
v 0.199202 -0.500000 0.598843
v 0.100576 -0.390279 0.331567
v 0.199202 -0.500000 0.397081
v 0.082105 -0.326145 -0.153087
v -0.082105 -0.326145 -0.153087
v 0.082105 -0.326145 0.153087
v -0.082105 -0.326145 0.153087
v 0.100576 -0.390278 -0.198053
v 0.082105 -0.326145 -0.153087
v 0.100576 -0.390278 0.198052
v 0.082105 -0.326145 0.153087
v 0.132023 -0.500000 -0.331567
v 0.132023 -0.500000 0.331567
v 0.100576 -0.390279 0.331567
v 0.100576 -0.390278 -0.331567
v 0.132023 -0.500000 0.664357
v 0.100576 -0.390279 0.664357
v 0.100576 -0.390279 0.797872
v 0.132023 -0.500000 1.132024
v 0.082105 -0.326145 0.861103
v 0.082105 -0.326145 1.076379
v 0.000000 -0.326146 1.148510
v 0.040316 -0.326146 1.132454
v -0.040316 -0.326146 1.132454
v 0.082105 -0.326145 1.076379
v -0.082105 -0.326145 1.076379
v 0.082105 -0.326145 0.861103
v -0.082105 -0.326145 0.861103
v -0.100576 -0.390279 0.797872
v -0.082105 -0.326145 0.861103
v 0.100576 -0.390279 0.797872
v 0.082105 -0.326145 0.861103
v 0.100576 -0.390279 0.664357
v 0.132023 -0.500000 0.664357
v 0.199202 -0.500000 0.598843
v 0.132023 -0.500000 0.331567
v 0.100576 -0.390279 0.331567
v 0.199202 -0.500000 0.397081
v 0.063008 -0.390279 0.146382
v 0.047394 -0.340232 0.146382
v 0.063008 -0.390279 0.849542
v 0.047394 -0.340232 0.849542
v -0.100576 -0.390278 -0.664357
v -0.199202 -0.500000 -0.598843
v -0.100576 -0.390278 -0.331567
v -0.199202 -0.500000 -0.397081
v -0.100576 -0.390278 -0.198053
v 0.082105 -0.326145 -0.153087
v 0.100576 -0.390278 -0.198053
v -0.082105 -0.326145 -0.153087
v -0.132023 -0.500000 -1.132024
v -0.082105 -0.326145 -1.076380
v -0.040316 -0.326145 -1.132455
v -0.084703 -0.500000 -1.195647
v 0.000000 -0.500000 -1.223542
v 0.000000 -0.326145 -1.148510
v 0.040316 -0.326145 -1.132455
v 0.084703 -0.500000 -1.195647
v 0.132023 -0.500000 -1.132024
v 0.082105 -0.326145 -1.076380
v -0.132023 -0.500000 -0.664357
v -0.100576 -0.390278 -0.664357
v -0.100576 -0.390278 -0.797872
v -0.132023 -0.500000 -1.132024
v -0.082105 -0.326145 -0.861104
v -0.082105 -0.326145 -1.076380
v -0.100576 -0.390278 -0.797872
v -0.100576 -0.390278 -0.664357
v 0.100576 -0.390278 -0.797872
v 0.100576 -0.390278 -0.664357
v 0.100576 -0.390278 -0.331567
v -0.100576 -0.390278 -0.331567
v 0.100576 -0.390278 -0.198053
v -0.100576 -0.390278 -0.198053
v -0.100576 -0.390278 -0.664357
v -0.132023 -0.500000 -0.664357
v -0.199202 -0.500000 -0.598843
v -0.132023 -0.500000 -0.331567
v -0.100576 -0.390278 -0.331567
v -0.199202 -0.500000 -0.397081
v 0.047394 -0.340232 -0.849542
v -0.047394 -0.340232 -0.849542
v 0.047394 -0.340232 -0.146382
v -0.047394 -0.340232 -0.146382
v -0.063008 -0.390279 -0.146382
v -0.047394 -0.340232 -0.146382
v -0.063008 -0.390278 -0.849542
v -0.047394 -0.340232 -0.849542
v 0.100576 -0.390278 -0.331567
v 0.199202 -0.500000 -0.598843
v 0.100576 -0.390278 -0.664357
v 0.199202 -0.500000 -0.397081
v 0.132023 -0.500000 -0.664357
v 0.100576 -0.390278 -0.797872
v 0.100576 -0.390278 -0.664357
v 0.132023 -0.500000 -1.132024
v 0.082105 -0.326145 -0.861104
v 0.082105 -0.326145 -1.076380
v 0.000000 -0.326145 -1.148510
v -0.040316 -0.326145 -1.132455
v 0.040316 -0.326145 -1.132455
v -0.082105 -0.326145 -1.076380
v 0.082105 -0.326145 -1.076380
v -0.082105 -0.326145 -0.861104
v 0.082105 -0.326145 -0.861104
v 0.100576 -0.390278 -0.797872
v 0.082105 -0.326145 -0.861104
v -0.100576 -0.390278 -0.797872
v -0.082105 -0.326145 -0.861104
v 0.100576 -0.390278 -0.664357
v 0.199202 -0.500000 -0.598843
v 0.132023 -0.500000 -0.664357
v 0.132023 -0.500000 -0.331567
v 0.199202 -0.500000 -0.397081
v 0.100576 -0.390278 -0.331567
v 0.047394 -0.340232 -0.146382
v 0.063008 -0.390278 -0.849542
v 0.047394 -0.340232 -0.849542
v 0.063008 -0.390279 -0.146382
v -0.132024 -0.500000 -1.132022
v 0.132022 -0.500000 -1.132022
v -0.000001 -0.600000 -0.999999
v -0.132024 -0.500000 -0.867976
v -0.000001 -0.600000 -0.999999
v 0.132022 -0.500000 -0.867976
v -0.000001 -0.600000 -0.999999
v 0.132022 -0.500000 -1.132022
v 0.132022 -0.500000 -0.867976
v -0.132024 -0.500000 -0.867976
v -0.132024 -0.500000 -1.132022
v -0.000001 -0.600000 -0.999999
v -0.132023 -0.500000 0.867978
v 0.132023 -0.500000 0.867978
v -0.000000 -0.600000 1.000001
v -0.132023 -0.500000 1.132024
v -0.000000 -0.600000 1.000001
v 0.132023 -0.500000 1.132024
v -0.000000 -0.600000 1.000001
v 0.132023 -0.500000 0.867978
v 0.132023 -0.500000 1.132024
v -0.132023 -0.500000 1.132024
v -0.132023 -0.500000 0.867978
v -0.000000 -0.600000 1.000001
v -0.132023 -0.500000 -0.132022
v 0.132022 -0.500000 -0.132022
v -0.000000 -0.600000 0.000001
v -0.132023 -0.500000 0.132024
v -0.000000 -0.600000 0.000001
v 0.132022 -0.500000 0.132024
v -0.000000 -0.600000 0.000001
v 0.132022 -0.500000 -0.132022
v 0.132022 -0.500000 0.132024
v -0.132023 -0.500000 0.132024
v -0.132023 -0.500000 -0.132022
v -0.000000 -0.600000 0.000001
vt 0.614196 0.928987
vt 0.542206 0.952530
vt 0.533091 0.913532
vt 0.591377 0.961899
vt 0.665902 0.917322
vt 0.665903 0.945302
vt 0.676797 0.942731
vt 0.676797 0.919893
vt 0.586760 0.893156
vt 0.580658 0.877536
vt 0.539811 0.897304
vt 0.546725 0.915015
vt 0.559110 0.932444
vt 0.592587 0.901776
vt 0.600663 0.908334
vt 0.575391 0.946303
vt 0.592429 0.954736
vt 0.615688 0.915779
vt 0.647319 0.928988
vt 0.658473 0.912431
vt 0.734425 0.912432
vt 0.745580 0.928988
vt 0.778698 0.957302
vt 0.614198 0.957303
vt 0.614196 0.928987
vt 0.778700 0.928991
vt 0.522798 0.786459
vt 0.554708 0.813951
vt 0.549851 0.782307
vt 0.539811 0.897304
vt 0.572826 0.826510
vt 0.580658 0.877536
vt 0.651895 0.912976
vt 0.651895 0.949693
vt 0.744112 0.949691
vt 0.744110 0.912972
vt 0.605621 0.912975
vt 0.605619 0.949691
vt 0.642784 0.959034
vt 0.614728 0.959033
vt 0.540591 0.949685
vt 0.540594 0.912971
vt 0.642785 0.903634
vt 0.614731 0.903634
vt 0.790392 0.912968
vt 0.790393 0.949690
vt 0.781282 0.959033
vt 0.753223 0.959034
vt 0.855436 0.949689
vt 0.855435 0.912965
vt 0.753220 0.903628
vt 0.781280 0.903626
vt 0.864285 0.943107
vt 0.864284 0.919546
vt 0.868165 0.931326
vt 0.531748 0.919550
vt 0.531746 0.943104
vt 0.527868 0.931326
vt 0.601032 0.945308
vt 0.601030 0.917322
vt 0.582454 0.917323
vt 0.582457 0.945310
vt 0.647330 0.945304
vt 0.647329 0.917320
vt 0.665903 0.945302
vt 0.665902 0.917322
vt 0.533091 0.913532
vt 0.542206 0.952530
vt 0.522672 0.939864
vt 0.614198 0.957303
vt 0.591377 0.961899
vt 0.614196 0.928987
vt 0.659177 0.313522
vt 0.659177 0.296459
vt 0.532607 0.296459
vt 0.532607 0.313521
vt 0.659177 0.296459
vt 0.532607 0.287022
vt 0.532607 0.296459
vt 0.659177 0.287023
vt 0.533090 0.914026
vt 0.542207 0.953026
vt 0.614200 0.929480
vt 0.591382 0.962394
vt 0.719373 0.942730
vt 0.719374 0.919897
vt 0.676797 0.942731
vt 0.676797 0.919893
vt 0.745578 0.929479
vt 0.734424 0.912924
vt 0.647322 0.929481
vt 0.658476 0.912925
vt 0.778695 0.957791
vt 0.614203 0.957796
vt 0.614200 0.929480
vt 0.778698 0.929480
vt 0.701346 0.981367
vt 0.707846 0.954784
vt 0.676751 0.947182
vt 0.592429 0.954736
vt 0.665825 0.928037
vt 0.615688 0.915779
vt 0.529933 0.931326
vt 0.532168 0.936935
vt 0.532166 0.925716
vt 0.539972 0.942748
vt 0.539968 0.919899
vt 0.569925 0.942742
vt 0.569922 0.919894
vt 0.582454 0.917323
vt 0.569922 0.919894
vt 0.582457 0.945310
vt 0.569925 0.942742
vt 0.533090 0.914026
vt 0.522672 0.940360
vt 0.542207 0.953026
vt 0.614203 0.957796
vt 0.614200 0.929480
vt 0.591382 0.962394
vt 0.659177 0.322958
vt 0.659177 0.313522
vt 0.532607 0.322957
vt 0.532607 0.313521
vt 0.859781 0.913540
vt 0.850669 0.952526
vt 0.778700 0.928991
vt 0.801513 0.961894
vt 0.730265 0.917332
vt 0.719373 0.942730
vt 0.730263 0.945297
vt 0.719374 0.919897
vt 0.539326 0.897332
vt 0.580167 0.877554
vt 0.586273 0.893174
vt 0.546242 0.915040
vt 0.558628 0.932468
vt 0.592104 0.901796
vt 0.600182 0.908358
vt 0.574907 0.946326
vt 0.591943 0.954761
vt 0.615206 0.915804
vt 0.522277 0.786500
vt 0.549327 0.782339
vt 0.554195 0.813980
vt 0.539326 0.897332
vt 0.572317 0.826531
vt 0.580167 0.877554
vt 0.813644 0.917344
vt 0.795087 0.917341
vt 0.813642 0.945302
vt 0.795084 0.945302
vt 0.748824 0.945298
vt 0.748827 0.917335
vt 0.730263 0.945297
vt 0.730265 0.917332
vt 0.859781 0.913540
vt 0.870196 0.939864
vt 0.850669 0.952526
vt 0.778698 0.957302
vt 0.778700 0.928991
vt 0.801513 0.961894
vt 0.658753 0.313521
vt 0.658753 0.296459
vt 0.532183 0.313522
vt 0.532183 0.296459
vt 0.532183 0.287022
vt 0.532183 0.296459
vt 0.658753 0.287022
vt 0.658753 0.296459
vt 0.778698 0.929480
vt 0.850668 0.953021
vt 0.859783 0.914034
vt 0.801509 0.962385
vt 0.700859 0.981404
vt 0.676267 0.947215
vt 0.707361 0.954822
vt 0.591943 0.954761
vt 0.665343 0.928069
vt 0.615206 0.915804
vt 0.866101 0.931326
vt 0.863871 0.925723
vt 0.863870 0.936929
vt 0.856078 0.919915
vt 0.856077 0.942736
vt 0.826161 0.919913
vt 0.826159 0.942735
vt 0.813642 0.945302
vt 0.826159 0.942735
vt 0.813644 0.917344
vt 0.826161 0.919913
vt 0.859783 0.914034
vt 0.850668 0.953021
vt 0.870196 0.940360
vt 0.778695 0.957791
vt 0.801509 0.962385
vt 0.778698 0.929480
vt 0.532183 0.313522
vt 0.658753 0.322958
vt 0.658753 0.313521
vt 0.532183 0.322958
vt 0.075351 0.073845
vt 0.075351 0.002667
vt 0.039499 0.038249
vt 0.004325 0.073845
vt 0.039499 0.038249
vt 0.004325 0.002667
vt 0.039499 0.038249
vt 0.075351 0.002667
vt 0.004325 0.002667
vt 0.004325 0.073845
vt 0.075351 0.073845
vt 0.039499 0.038249
vt 0.075351 0.073845
vt 0.075351 0.002667
vt 0.039499 0.038249
vt 0.004325 0.073845
vt 0.039499 0.038249
vt 0.004325 0.002667
vt 0.039499 0.038249
vt 0.075351 0.002667
vt 0.004325 0.002667
vt 0.004325 0.073845
vt 0.075351 0.073845
vt 0.039499 0.038249
vt 0.075351 0.073845
vt 0.075351 0.002667
vt 0.039499 0.038249
vt 0.004325 0.073845
vt 0.039499 0.038249
vt 0.004325 0.002667
vt 0.039499 0.038249
vt 0.075351 0.002667
vt 0.004325 0.002667
vt 0.004325 0.073845
vt 0.075351 0.073845
vt 0.039499 0.038249
vn -0.7437 0.6685 0.0000
vn 0.0000 0.5741 0.8188
vn -0.5449 0.4017 0.7360
vn -0.7391 0.3885 0.5502
vn -0.7392 0.3886 0.5500
vn -0.5419 0.4017 0.7382
vn 0.0000 0.4046 0.9145
vn 0.5449 0.4017 0.7360
vn 0.5419 0.4017 0.7382
vn 0.7392 0.3886 0.5500
vn 0.7391 0.3885 0.5502
vn -0.9612 0.2758 0.0000
vn -0.9609 0.2768 0.0000
vn -0.9613 0.2755 -0.0000
vn -0.9612 0.2758 0.0001
vn -0.9612 0.2760 0.0001
vn -0.9611 0.2763 0.0003
vn -0.9611 0.2762 0.0002
vn -0.0000 -1.0000 -0.0000
vn 0.0000 1.0000 0.0000
vn -0.6846 0.1962 0.7020
vn -0.6846 0.1962 -0.7020
vn -0.9546 0.2978 0.0000
vn 0.7437 0.6685 0.0000
vn 0.9612 0.2758 0.0000
vn 0.9609 0.2768 0.0000
vn 0.9613 0.2755 -0.0000
vn 0.9612 0.2758 0.0001
vn 0.9612 0.2760 0.0001
vn 0.9611 0.2763 0.0003
vn 0.9612 0.2760 0.0000
vn 0.0000 0.7021 -0.7121
vn 0.6846 0.1962 0.7020
vn 0.6846 0.1962 -0.7020
vn 0.9546 0.2978 0.0000
vn 0.0000 0.5741 -0.8188
vn -0.7392 0.3886 -0.5500
vn -0.7391 0.3885 -0.5502
vn -0.5448 0.4017 -0.7360
vn -0.5419 0.4017 -0.7383
vn -0.0000 0.4047 -0.9145
vn 0.0000 0.4046 -0.9145
vn 0.5448 0.4017 -0.7360
vn 0.5419 0.4017 -0.7383
vn 0.7392 0.3886 -0.5500
vn 0.7392 0.3885 -0.5502
vn -0.9612 0.2758 -0.0001
vn -0.9612 0.2760 -0.0001
vn -0.9611 0.2763 -0.0003
vn -0.9612 0.2760 0.0000
vn 0.9612 0.2758 -0.0001
vn 0.9612 0.2760 -0.0001
vn 0.9611 0.2763 -0.0003
vn 0.0000 0.7021 0.7121
vn -0.0000 -0.7971 -0.6038
vn -0.0000 -0.7971 0.6038
vn 0.6038 -0.7971 0.0000
vn -0.6038 -0.7971 0.0000
s 1
f 17/45/7 18/46/7 19/47/7
f 17/45/7 20/48/7 18/46/7
f 21/49/8 22/50/8 23/51/8
f 23/51/8 24/52/8 21/49/8
f 25/53/9 26/54/10 27/55/11
f 27/55/11 28/56/12 25/53/9
f 29/57/13 25/53/9 28/56/12
f 30/58/13 25/53/9 29/57/13
f 31/59/14 30/58/13 29/57/13
f 29/57/13 32/60/15 31/59/14
f 31/59/14 32/60/15 33/61/16
f 33/61/16 34/62/17 31/59/14
f 35/63/18 36/64/19 37/65/19
f 37/65/19 38/66/18 35/63/18
f 35/63/18 38/66/18 39/67/20
f 39/67/20 40/68/20 35/63/18
f 40/68/20 41/69/20 35/63/18
f 39/67/20 38/66/18 42/70/20
f 43/71/20 44/72/21 45/73/20
f 44/72/21 43/71/20 46/74/22
f 47/75/23 44/72/21 46/74/22
f 46/74/22 48/76/24 47/75/23
f 49/77/25 50/78/25 51/79/25
f 51/79/25 52/80/25 49/77/25
f 50/78/25 49/77/25 53/81/25
f 53/81/25 54/82/25 50/78/25
f 54/82/25 55/83/25 50/78/25
f 54/82/25 56/84/25 55/83/25
f 57/85/25 54/82/25 53/81/25
f 58/86/25 57/85/25 53/81/25
f 49/77/25 59/87/25 53/81/25
f 59/87/25 60/88/25 53/81/25
f 61/89/25 52/80/25 51/79/25
f 51/79/25 62/90/25 61/89/25
f 63/91/25 62/90/25 51/79/25
f 51/79/25 64/92/25 63/91/25
f 65/93/25 61/89/25 62/90/25
f 61/89/25 65/93/25 66/94/25
f 61/89/25 67/95/25 52/80/25
f 61/89/25 68/96/25 67/95/25
f 65/93/25 69/97/25 66/94/25
f 69/97/25 70/98/25 66/94/25
f 70/98/25 69/97/25 71/99/25
f 57/85/25 58/86/25 72/100/25
f 72/100/25 73/101/25 57/85/25
f 73/101/25 72/100/25 74/102/25
f 75/103/26 76/104/26 77/105/26
f 77/105/26 78/106/26 75/103/26
f 76/104/26 75/103/26 79/107/26
f 79/107/26 80/108/26 76/104/26
f 80/108/26 79/107/26 81/109/26
f 81/109/26 82/110/26 80/108/26
f 83/111/27 84/112/27 85/113/27
f 86/114/28 87/115/28 88/116/28
f 89/117/26 90/118/26 91/119/26
f 91/119/26 92/120/26 89/117/26
f 93/121/29 94/122/29 95/123/29
f 93/121/29 96/124/29 94/122/29
f 97/125/30 98/126/30 99/127/30
f 98/126/30 100/128/30 99/127/30
f 101/129/26 102/130/26 103/131/26
f 102/130/26 104/132/26 103/131/26
f 105/133/31 106/134/32 107/135/31
f 106/134/32 108/136/32 107/135/31
f 109/137/33 105/133/31 107/135/31
f 107/135/31 110/138/33 109/137/33
f 110/138/33 107/135/31 111/139/33
f 105/133/31 109/137/33 112/140/33
f 113/141/33 114/142/33 115/143/34
f 115/143/34 116/144/35 113/141/33
f 116/144/35 115/143/34 117/145/36
f 117/145/36 118/146/37 116/144/35
f 119/147/26 120/148/26 121/149/26
f 121/149/26 120/148/26 122/150/26
f 123/151/26 121/149/26 122/150/26
f 123/151/26 122/150/26 124/152/26
f 124/152/26 125/153/26 123/151/26
f 126/154/38 127/155/38 128/156/38
f 127/155/38 129/157/38 128/156/38
f 130/158/39 131/159/39 132/160/39
f 133/161/40 134/162/40 135/163/40
f 136/164/41 137/165/41 138/166/41
f 139/167/41 138/166/41 137/165/41
f 140/168/7 141/169/7 142/170/7
f 141/169/7 143/171/7 142/170/7
f 144/172/42 145/173/42 146/174/42
f 144/172/42 147/175/42 145/173/42
f 148/176/43 149/177/44 150/178/45
f 150/178/45 151/179/46 148/176/43
f 152/180/47 151/179/46 150/178/45
f 150/178/45 153/181/48 152/180/47
f 153/181/48 154/182/49 152/180/47
f 152/180/47 154/182/49 155/183/50
f 156/184/51 155/183/50 154/182/49
f 154/182/49 157/185/52 156/184/51
f 158/186/20 159/187/20 160/188/53
f 160/188/53 161/189/54 158/186/20
f 161/189/54 160/188/53 162/190/55
f 162/190/55 163/191/56 161/189/54
f 164/192/26 165/193/26 166/194/26
f 166/194/26 165/193/26 167/195/26
f 168/196/26 167/195/26 165/193/26
f 165/193/26 169/197/26 168/196/26
f 170/198/26 168/196/26 169/197/26
f 169/197/26 171/199/26 170/198/26
f 172/200/28 173/201/28 174/202/28
f 175/203/27 176/204/27 177/205/27
f 178/206/26 179/207/26 180/208/26
f 179/207/26 181/209/26 180/208/26
f 182/210/29 183/211/29 184/212/29
f 185/213/29 184/212/29 183/211/29
f 186/214/30 187/215/30 188/216/30
f 186/214/30 189/217/30 187/215/30
f 190/218/33 191/219/57 192/220/33
f 191/219/57 190/218/33 193/221/58
f 194/222/59 191/219/57 193/221/58
f 193/221/58 195/223/37 194/222/59
f 196/224/26 197/225/26 198/226/26
f 198/226/26 197/225/26 199/227/26
f 200/228/26 198/226/26 199/227/26
f 199/227/26 201/229/26 200/228/26
f 200/228/26 201/229/26 202/230/26
f 203/231/60 204/232/60 205/233/60
f 204/232/60 206/234/60 205/233/60
f 207/235/40 208/236/40 209/237/40
f 210/238/39 211/239/39 212/240/39
f 213/241/41 214/242/41 215/243/41
f 213/241/41 216/244/41 214/242/41
f 217/245/61 218/246/61 219/247/61
f 220/248/62 221/249/62 222/250/62
f 223/251/63 224/252/63 225/253/63
f 226/254/64 227/255/64 228/256/64
f 229/257/61 230/258/61 231/259/61
f 232/260/62 233/261/62 234/262/62
f 235/263/63 236/264/63 237/265/63
f 238/266/64 239/267/64 240/268/64
f 241/269/61 242/270/61 243/271/61
f 244/272/62 245/273/62 246/274/62
f 247/275/63 248/276/63 249/277/63
f 250/278/64 251/279/64 252/280/64
