# Blender v2.82 (sub 7) OBJ File: 'HE_Power_Gauge_Spinner.blend'
# www.blender.org
mtllib HE_Power_Gauge_Spinner.mtl
o GSO_Gauge_Power_111.001
v -0.024002 -0.033573 0.096952
v 0.162835 -0.032279 0.096951
v 0.024442 0.029351 0.096944
v -0.162340 0.028072 0.096960
v -0.048666 0.230359 0.096919
v 0.049103 -0.234507 0.096955
v 0.193706 -0.046933 0.000567
v -0.002839 -0.048291 0.000566
v 0.093670 -0.313537 0.000565
v -0.002839 -0.048291 0.000566
v 0.003281 0.044054 0.000549
v -0.193212 0.042712 0.000561
v -0.093206 0.309355 0.000518
v 0.003281 0.044054 0.000549
v 0.193706 -0.046933 0.000567
v -0.024002 -0.033573 0.096952
v -0.002839 -0.048291 0.000566
v 0.162835 -0.032279 0.096951
v -0.002839 -0.048291 0.000566
v 0.049103 -0.234507 0.096955
v 0.093670 -0.313537 0.000565
v -0.024002 -0.033573 0.096952
v 0.093670 -0.313537 0.000565
v -0.162340 0.028072 0.096960
v -0.193212 0.042712 0.000561
v 0.049103 -0.234507 0.096955
v -0.193212 0.042712 0.000561
v 0.024442 0.029351 0.096944
v 0.003281 0.044054 0.000549
v -0.162340 0.028072 0.096960
v 0.003281 0.044054 0.000549
v -0.048666 0.230359 0.096919
v -0.093206 0.309355 0.000518
v 0.024442 0.029351 0.096944
v -0.093206 0.309355 0.000518
v 0.162835 -0.032279 0.096951
v 0.193706 -0.046933 0.000567
v -0.048666 0.230359 0.096919
v 0.193706 -0.046933 0.000567
v -0.093206 0.309355 0.000518
v 0.093670 -0.313537 0.000565
v -0.193212 0.042712 0.000561
v -0.024002 -0.033573 -0.095915
v 0.162835 -0.032279 -0.095914
v 0.024442 0.029351 -0.095907
v -0.162340 0.028072 -0.095924
v -0.048666 0.230359 -0.095882
v 0.049103 -0.234507 -0.095919
v 0.193706 -0.046933 0.000470
v -0.002839 -0.048291 0.000471
v 0.093670 -0.313537 0.000472
v -0.002839 -0.048291 0.000471
v 0.003281 0.044054 0.000488
v -0.193212 0.042712 0.000475
v -0.093206 0.309355 0.000518
v 0.003281 0.044054 0.000488
v 0.193706 -0.046933 0.000470
v -0.024002 -0.033573 -0.095915
v -0.002839 -0.048291 0.000471
v 0.162835 -0.032279 -0.095914
v -0.002839 -0.048291 0.000471
v 0.049103 -0.234507 -0.095919
v 0.093670 -0.313537 0.000472
v -0.024002 -0.033573 -0.095915
v 0.093670 -0.313537 0.000472
v -0.162340 0.028072 -0.095924
v -0.193212 0.042712 0.000475
v 0.049103 -0.234507 -0.095919
v -0.193212 0.042712 0.000475
v 0.024442 0.029351 -0.095907
v 0.003281 0.044054 0.000488
v -0.162340 0.028072 -0.095924
v 0.003281 0.044054 0.000488
v -0.048666 0.230359 -0.095882
v -0.093206 0.309355 0.000518
v 0.024442 0.029351 -0.095907
v -0.093206 0.309355 0.000518
v 0.162835 -0.032279 -0.095914
v 0.193706 -0.046933 0.000470
v -0.048666 0.230359 -0.095882
v 0.193706 -0.046933 0.000470
v -0.093206 0.309355 0.000518
v 0.093670 -0.313537 0.000472
v -0.193212 0.042712 0.000475
vt 0.000000 0.024467
vt 0.000000 0.024467
vt 0.000000 0.024467
vt 0.000000 0.024467
vt 0.000000 0.024467
vt 0.000000 0.024467
vt 0.000000 0.024467
vt 0.000000 0.024467
vt 0.000000 0.024467
vt 0.000000 0.024467
vt 0.000000 0.024467
vt 0.000000 0.024467
vt 0.276183 0.024467
vt 0.269672 0.024467
vt 0.275757 0.024467
vt 0.282268 0.024467
vt 0.274603 0.024467
vt 0.277336 0.024467
vt 0.269672 0.024467
vt 0.276183 0.024467
vt 0.276183 0.024467
vt 0.269672 0.024467
vt 0.276183 0.024467
vt 0.277336 0.024467
vt 0.277336 0.024467
vt 0.276183 0.024467
vt 0.277336 0.024467
vt 0.282268 0.024467
vt 0.282268 0.024467
vt 0.277336 0.024467
vt 0.282268 0.024467
vt 0.275757 0.024467
vt 0.275757 0.024467
vt 0.282268 0.024467
vt 0.275757 0.024467
vt 0.274603 0.024467
vt 0.274603 0.024467
vt 0.275757 0.024467
vt 0.274603 0.024467
vt 0.269672 0.024467
vt 0.269672 0.024467
vt 0.274603 0.024467
vt 0.276183 0.024467
vt 0.275757 0.024467
vt 0.269672 0.024467
vt 0.282268 0.024467
vt 0.274603 0.024467
vt 0.277336 0.024467
vt 0.269672 0.024467
vt 0.276183 0.024467
vt 0.276183 0.024467
vt 0.269672 0.024467
vt 0.276183 0.024467
vt 0.277336 0.024467
vt 0.277336 0.024467
vt 0.276183 0.024467
vt 0.277336 0.024467
vt 0.282268 0.024467
vt 0.282268 0.024467
vt 0.277336 0.024467
vt 0.282268 0.024467
vt 0.275757 0.024467
vt 0.275757 0.024467
vt 0.282268 0.024467
vt 0.275757 0.024467
vt 0.274603 0.024467
vt 0.274603 0.024467
vt 0.275757 0.024467
vt 0.274603 0.024467
vt 0.269672 0.024467
vt 0.269672 0.024467
vt 0.274603 0.024467
vn 0.0000 -0.0001 -1.0000
vn 0.0000 0.0000 -1.0000
vn -0.0000 -0.0002 -1.0000
vn -0.0000 0.0001 -1.0000
vn 0.0000 0.0002 -1.0000
vn 0.0001 0.0001 1.0000
vn 0.0000 0.0001 1.0000
vn 0.0068 -0.9883 0.1524
vn 0.0068 -0.9883 0.1525
vn 0.9288 0.3379 0.1523
vn 0.9288 0.3379 0.1524
vn -0.7698 -0.6199 0.1523
vn -0.7698 -0.6199 0.1524
vn -0.0067 0.9883 0.1522
vn -0.0068 0.9883 0.1523
vn -0.9288 -0.3378 0.1524
vn -0.9288 -0.3378 0.1523
vn 0.7698 0.6199 0.1523
vn 0.0001 0.0001 -1.0000
vn 0.0001 0.0000 -1.0000
vn 0.0068 -0.9883 -0.1524
vn 0.0068 -0.9883 -0.1525
vn 0.9288 0.3379 -0.1523
vn 0.9288 0.3379 -0.1524
vn -0.7698 -0.6199 -0.1523
vn -0.7698 -0.6199 -0.1524
vn -0.0067 0.9883 -0.1522
vn -0.0068 0.9883 -0.1523
vn -0.9288 -0.3378 -0.1524
vn -0.9288 -0.3378 -0.1523
vn 0.7698 0.6199 -0.1523
usemtl Default_OBJ.001
s off
f 31/1/1 40/2/1 39/3/1
f 19/4/2 41/5/2 42/6/2
f 39/3/3 19/4/3 42/6/3 31/1/3
f 73/7/4 82/8/4 81/9/4
f 61/10/2 83/11/2 84/12/2
f 81/9/5 61/10/5 84/12/5 73/7/5
s 1
f 1/13/6 2/14/7 3/15/7
f 1/13/6 3/15/7 4/16/6
f 3/15/7 2/14/7 5/17/7
f 1/13/6 4/16/6 6/18/6
f 15/19/8 16/20/8 17/21/8
f 16/20/8 15/19/8 18/22/9
f 19/23/10 20/24/10 21/25/11
f 20/24/10 19/23/10 22/26/10
f 23/27/12 24/28/13 25/29/13
f 24/28/13 23/27/12 26/30/12
f 27/31/14 28/32/14 29/33/14
f 28/32/14 27/31/14 30/34/15
f 31/35/16 32/36/17 33/37/17
f 32/36/17 31/35/16 34/38/16
f 35/39/18 36/40/18 37/41/18
f 36/40/18 35/39/18 38/42/18
f 43/43/19 45/44/4 44/45/4
f 43/43/19 46/46/19 45/44/4
f 45/44/4 47/47/4 44/45/4
f 43/43/19 48/48/20 46/46/19
f 57/49/21 59/50/21 58/51/21
f 58/51/21 60/52/22 57/49/21
f 61/53/23 63/54/24 62/55/23
f 62/55/23 64/56/23 61/53/23
f 65/57/25 67/58/26 66/59/26
f 66/59/26 68/60/25 65/57/25
f 69/61/27 71/62/27 70/63/27
f 70/63/27 72/64/28 69/61/27
f 73/65/29 75/66/30 74/67/30
f 74/67/30 76/68/29 73/65/29
f 77/69/31 79/70/31 78/71/31
f 78/71/31 80/72/31 77/69/31
l 8 7
l 9 10
l 11 12
l 13 14
l 50 49
l 51 52
l 53 54
l 55 56
